<?xml version="1.0" encoding="UTF-8" standalone="no"?>
<!DOCTYPE svg PUBLIC "-//W3C//DTD SVG 1.1//EN"
 "http://www.w3.org/Graphics/SVG/1.1/DTD/svg11.dtd">
<!-- Generated by graphviz version 2.38.0 (20140413.2041)
 -->
<!-- Title: Copter::esc_calibration_passthrough Pages: 1 -->
<svg width="904pt" height="154pt"
 viewBox="0.00 0.00 904.00 154.00" xmlns="http://www.w3.org/2000/svg" xmlns:xlink="http://www.w3.org/1999/xlink">
<g id="graph0" class="graph" transform="scale(1 1) rotate(0) translate(4 150)">
<title>Copter::esc_calibration_passthrough</title>
<polygon fill="white" stroke="none" points="-4,4 -4,-150 900,-150 900,4 -4,4"/>
<!-- Node1 -->
<g id="node1" class="node"><title>Node1</title>
<polygon fill="#bfbfbf" stroke="black" points="0,-61 0,-91 117,-91 117,-61 0,-61"/>
<text text-anchor="start" x="8" y="-79" font-family="Helvetica,sans-Serif" font-size="10.00">Copter::esc_calibration</text>
<text text-anchor="middle" x="58.5" y="-68" font-family="Helvetica,sans-Serif" font-size="10.00">_passthrough</text>
</g>
<!-- Node2 -->
<g id="node2" class="node"><title>Node2</title>
<g id="a_node2"><a xlink:href="classCopter.html#af0284b6bd2b24b55c38661665fc50807" target="_top" xlink:title="Copter::esc_calibration\l_startup_check">
<polygon fill="white" stroke="black" points="153,-61 153,-91 270,-91 270,-61 153,-61"/>
<text text-anchor="start" x="161" y="-79" font-family="Helvetica,sans-Serif" font-size="10.00">Copter::esc_calibration</text>
<text text-anchor="middle" x="211.5" y="-68" font-family="Helvetica,sans-Serif" font-size="10.00">_startup_check</text>
</a>
</g>
</g>
<!-- Node1&#45;&gt;Node2 -->
<g id="edge1" class="edge"><title>Node1&#45;&gt;Node2</title>
<path fill="none" stroke="midnightblue" d="M127.052,-76C135.678,-76 144.444,-76 152.893,-76"/>
<polygon fill="midnightblue" stroke="midnightblue" points="127.017,-72.5001 117.017,-76 127.017,-79.5001 127.017,-72.5001"/>
</g>
<!-- Node3 -->
<g id="node3" class="node"><title>Node3</title>
<g id="a_node3"><a xlink:href="classCopter.html#aa0807aaa2460671f21b21c7f082a297d" target="_top" xlink:title="Copter::init_rc_out">
<polygon fill="white" stroke="black" points="306,-66.5 306,-85.5 403,-85.5 403,-66.5 306,-66.5"/>
<text text-anchor="middle" x="354.5" y="-73.5" font-family="Helvetica,sans-Serif" font-size="10.00">Copter::init_rc_out</text>
</a>
</g>
</g>
<!-- Node2&#45;&gt;Node3 -->
<g id="edge2" class="edge"><title>Node2&#45;&gt;Node3</title>
<path fill="none" stroke="midnightblue" d="M280.354,-76C289.003,-76 297.705,-76 305.939,-76"/>
<polygon fill="midnightblue" stroke="midnightblue" points="280.257,-72.5001 270.257,-76 280.257,-79.5001 280.257,-72.5001"/>
</g>
<!-- Node4 -->
<g id="node4" class="node"><title>Node4</title>
<g id="a_node4"><a xlink:href="classCopter.html#abd3ea1d00d3c109e18a5ab0ae08aea4f" target="_top" xlink:title="Copter::mavlink_compassmot">
<polygon fill="white" stroke="black" points="439,-126.5 439,-145.5 586,-145.5 586,-126.5 439,-126.5"/>
<text text-anchor="middle" x="512.5" y="-133.5" font-family="Helvetica,sans-Serif" font-size="10.00">Copter::mavlink_compassmot</text>
</a>
</g>
</g>
<!-- Node3&#45;&gt;Node4 -->
<g id="edge3" class="edge"><title>Node3&#45;&gt;Node4</title>
<path fill="none" stroke="midnightblue" d="M385.49,-89.684C401.277,-96.6948 421.037,-105.17 439,-112 452.508,-117.137 467.657,-122.25 480.6,-126.429"/>
<polygon fill="midnightblue" stroke="midnightblue" points="386.783,-86.4281 376.225,-85.5358 383.922,-92.8169 386.783,-86.4281"/>
</g>
<!-- Node5 -->
<g id="node5" class="node"><title>Node5</title>
<g id="a_node5"><a xlink:href="classCopter.html#a463474e8d6d99855217b8ec3dba27d63" target="_top" xlink:title="Copter::gcs_set_mode">
<polygon fill="white" stroke="black" points="622,-44.5 622,-63.5 738,-63.5 738,-44.5 622,-44.5"/>
<text text-anchor="middle" x="680" y="-51.5" font-family="Helvetica,sans-Serif" font-size="10.00">Copter::gcs_set_mode</text>
</a>
</g>
</g>
<!-- Node3&#45;&gt;Node5 -->
<g id="edge4" class="edge"><title>Node3&#45;&gt;Node5</title>
<path fill="none" stroke="midnightblue" d="M413.661,-81.3648C460.431,-84.5732 527.719,-86.6968 586,-79 608.211,-76.0668 632.65,-69.3546 650.9,-63.6232"/>
<polygon fill="midnightblue" stroke="midnightblue" points="413.641,-77.8543 403.414,-80.622 413.135,-84.8359 413.641,-77.8543"/>
</g>
<!-- Node7 -->
<g id="node7" class="node"><title>Node7</title>
<g id="a_node7"><a xlink:href="classCopter.html#a79a1d0d0c01a287893782f396b69f662" target="_top" xlink:title="Copter::mavlink_motor\l_test_start">
<polygon fill="white" stroke="black" points="454.5,-39 454.5,-69 570.5,-69 570.5,-39 454.5,-39"/>
<text text-anchor="start" x="462.5" y="-57" font-family="Helvetica,sans-Serif" font-size="10.00">Copter::mavlink_motor</text>
<text text-anchor="middle" x="512.5" y="-46" font-family="Helvetica,sans-Serif" font-size="10.00">_test_start</text>
</a>
</g>
</g>
<!-- Node3&#45;&gt;Node7 -->
<g id="edge6" class="edge"><title>Node3&#45;&gt;Node7</title>
<path fill="none" stroke="midnightblue" d="M413.206,-67.8619C426.61,-65.9717 440.872,-63.9603 454.256,-62.0729"/>
<polygon fill="midnightblue" stroke="midnightblue" points="412.566,-64.4175 403.153,-69.2797 413.544,-71.3489 412.566,-64.4175"/>
</g>
<!-- Node8 -->
<g id="node8" class="node"><title>Node8</title>
<g id="a_node8"><a xlink:href="classCopter.html#a3dd81483501146cda2aec5d898c2592b" target="_top" xlink:title="Copter::init_ardupilot">
<polygon fill="white" stroke="black" points="459,-0.5 459,-19.5 566,-19.5 566,-0.5 459,-0.5"/>
<text text-anchor="middle" x="512.5" y="-7.5" font-family="Helvetica,sans-Serif" font-size="10.00">Copter::init_ardupilot</text>
</a>
</g>
</g>
<!-- Node3&#45;&gt;Node8 -->
<g id="edge8" class="edge"><title>Node3&#45;&gt;Node8</title>
<path fill="none" stroke="midnightblue" d="M378.532,-60.9052C394.867,-50.7399 417.601,-37.6585 439,-29 448.046,-25.3396 458.015,-22.1931 467.589,-19.5737"/>
<polygon fill="midnightblue" stroke="midnightblue" points="376.284,-58.1868 369.713,-66.498 380.032,-64.0984 376.284,-58.1868"/>
</g>
<!-- Node6 -->
<g id="node6" class="node"><title>Node6</title>
<g id="a_node6"><a xlink:href="classGCS__MAVLINK__Copter.html#afe85f88545dfa66f9100ed341cf5f79b" target="_top" xlink:title="GCS_MAVLINK_Copter\l::handleMessage">
<polygon fill="white" stroke="black" points="774,-39 774,-69 896,-69 896,-39 774,-39"/>
<text text-anchor="start" x="782" y="-57" font-family="Helvetica,sans-Serif" font-size="10.00">GCS_MAVLINK_Copter</text>
<text text-anchor="middle" x="835" y="-46" font-family="Helvetica,sans-Serif" font-size="10.00">::handleMessage</text>
</a>
</g>
</g>
<!-- Node5&#45;&gt;Node6 -->
<g id="edge5" class="edge"><title>Node5&#45;&gt;Node6</title>
<path fill="none" stroke="midnightblue" d="M748.61,-54C757.057,-54 765.651,-54 773.972,-54"/>
<polygon fill="midnightblue" stroke="midnightblue" points="748.407,-50.5001 738.407,-54 748.407,-57.5001 748.407,-50.5001"/>
</g>
<!-- Node7&#45;&gt;Node5 -->
<g id="edge7" class="edge"><title>Node7&#45;&gt;Node5</title>
<path fill="none" stroke="midnightblue" d="M581.149,-54C594.701,-54 608.812,-54 621.962,-54"/>
<polygon fill="midnightblue" stroke="midnightblue" points="580.919,-50.5001 570.919,-54 580.919,-57.5001 580.919,-50.5001"/>
</g>
<!-- Node8&#45;&gt;Node5 -->
<g id="edge10" class="edge"><title>Node8&#45;&gt;Node5</title>
<path fill="none" stroke="midnightblue" d="M559.702,-22.0615C568.439,-24.3557 577.502,-26.7443 586,-29 605.068,-34.0614 626.317,-39.7685 643.685,-44.4505"/>
<polygon fill="midnightblue" stroke="midnightblue" points="560.583,-18.6744 550.023,-19.5235 558.808,-25.4455 560.583,-18.6744"/>
</g>
<!-- Node9 -->
<g id="node9" class="node"><title>Node9</title>
<g id="a_node9"><a xlink:href="classCopter.html#ad672001a9ffbac72fe0ec2d8e336a4aa" target="_top" xlink:title="Copter::setup">
<polygon fill="white" stroke="black" points="642,-0.5 642,-19.5 718,-19.5 718,-0.5 642,-0.5"/>
<text text-anchor="middle" x="680" y="-7.5" font-family="Helvetica,sans-Serif" font-size="10.00">Copter::setup</text>
</a>
</g>
</g>
<!-- Node8&#45;&gt;Node9 -->
<g id="edge9" class="edge"><title>Node8&#45;&gt;Node9</title>
<path fill="none" stroke="midnightblue" d="M576.61,-10C598.636,-10 622.633,-10 641.855,-10"/>
<polygon fill="midnightblue" stroke="midnightblue" points="576.32,-6.5001 566.32,-10 576.32,-13.5001 576.32,-6.5001"/>
</g>
</g>
</svg>
