<?xml version="1.0" encoding="UTF-8" standalone="no"?>
<!DOCTYPE svg PUBLIC "-//W3C//DTD SVG 1.1//EN"
 "http://www.w3.org/Graphics/SVG/1.1/DTD/svg11.dtd">
<!-- Generated by graphviz version 2.38.0 (20140413.2041)
 -->
<!-- Title: Copter::get_frame_mav_type Pages: 1 -->
<svg width="616pt" height="110pt"
 viewBox="0.00 0.00 616.00 109.50" xmlns="http://www.w3.org/2000/svg" xmlns:xlink="http://www.w3.org/1999/xlink">
<g id="graph0" class="graph" transform="scale(1 1) rotate(0) translate(4 105.5)">
<title>Copter::get_frame_mav_type</title>
<polygon fill="white" stroke="none" points="-4,4 -4,-105.5 612,-105.5 612,4 -4,4"/>
<!-- Node1 -->
<g id="node1" class="node"><title>Node1</title>
<polygon fill="#bfbfbf" stroke="black" points="0,-38.5 0,-57.5 143,-57.5 143,-38.5 0,-38.5"/>
<text text-anchor="middle" x="71.5" y="-45.5" font-family="Helvetica,sans-Serif" font-size="10.00">Copter::get_frame_mav_type</text>
</g>
<!-- Node2 -->
<g id="node2" class="node"><title>Node2</title>
<g id="a_node2"><a xlink:href="classCopter.html#a463474e8d6d99855217b8ec3dba27d63" target="_top" xlink:title="Copter::gcs_set_mode">
<polygon fill="white" stroke="black" points="334,-76.5 334,-95.5 450,-95.5 450,-76.5 334,-76.5"/>
<text text-anchor="middle" x="392" y="-83.5" font-family="Helvetica,sans-Serif" font-size="10.00">Copter::gcs_set_mode</text>
</a>
</g>
</g>
<!-- Node1&#45;&gt;Node2 -->
<g id="edge1" class="edge"><title>Node1&#45;&gt;Node2</title>
<path fill="none" stroke="midnightblue" d="M130.903,-59.3649C146.488,-62.1384 163.348,-64.9064 179,-67 231.193,-73.9811 290.969,-79.0774 333.713,-82.2241"/>
<polygon fill="midnightblue" stroke="midnightblue" points="131.335,-55.8862 120.871,-57.5485 130.088,-62.7742 131.335,-55.8862"/>
</g>
<!-- Node4 -->
<g id="node4" class="node"><title>Node4</title>
<g id="a_node4"><a xlink:href="classCopter.html#a3dd81483501146cda2aec5d898c2592b" target="_top" xlink:title="Copter::init_ardupilot">
<polygon fill="white" stroke="black" points="185,-38.5 185,-57.5 292,-57.5 292,-38.5 185,-38.5"/>
<text text-anchor="middle" x="238.5" y="-45.5" font-family="Helvetica,sans-Serif" font-size="10.00">Copter::init_ardupilot</text>
</a>
</g>
</g>
<!-- Node1&#45;&gt;Node4 -->
<g id="edge3" class="edge"><title>Node1&#45;&gt;Node4</title>
<path fill="none" stroke="midnightblue" d="M153.514,-48C164.064,-48 174.646,-48 184.57,-48"/>
<polygon fill="midnightblue" stroke="midnightblue" points="153.432,-44.5001 143.432,-48 153.432,-51.5001 153.432,-44.5001"/>
</g>
<!-- Node6 -->
<g id="node6" class="node"><title>Node6</title>
<g id="a_node6"><a xlink:href="classCopter.html#abf1ade20e0f984257e0236671853c8e6" target="_top" xlink:title="Copter::send_heartbeat">
<polygon fill="white" stroke="black" points="179,-0.5 179,-19.5 298,-19.5 298,-0.5 179,-0.5"/>
<text text-anchor="middle" x="238.5" y="-7.5" font-family="Helvetica,sans-Serif" font-size="10.00">Copter::send_heartbeat</text>
</a>
</g>
</g>
<!-- Node1&#45;&gt;Node6 -->
<g id="edge6" class="edge"><title>Node1&#45;&gt;Node6</title>
<path fill="none" stroke="midnightblue" d="M124.154,-36.1039C147.346,-30.7626 174.338,-24.5463 196.163,-19.5201"/>
<polygon fill="midnightblue" stroke="midnightblue" points="123.096,-32.7559 114.136,-38.411 124.667,-39.5774 123.096,-32.7559"/>
</g>
<!-- Node3 -->
<g id="node3" class="node"><title>Node3</title>
<g id="a_node3"><a xlink:href="classGCS__MAVLINK__Copter.html#afe85f88545dfa66f9100ed341cf5f79b" target="_top" xlink:title="GCS_MAVLINK_Copter\l::handleMessage">
<polygon fill="white" stroke="black" points="486,-71 486,-101 608,-101 608,-71 486,-71"/>
<text text-anchor="start" x="494" y="-89" font-family="Helvetica,sans-Serif" font-size="10.00">GCS_MAVLINK_Copter</text>
<text text-anchor="middle" x="547" y="-78" font-family="Helvetica,sans-Serif" font-size="10.00">::handleMessage</text>
</a>
</g>
</g>
<!-- Node2&#45;&gt;Node3 -->
<g id="edge2" class="edge"><title>Node2&#45;&gt;Node3</title>
<path fill="none" stroke="midnightblue" d="M460.61,-86C469.057,-86 477.651,-86 485.972,-86"/>
<polygon fill="midnightblue" stroke="midnightblue" points="460.407,-82.5001 450.407,-86 460.407,-89.5001 460.407,-82.5001"/>
</g>
<!-- Node4&#45;&gt;Node2 -->
<g id="edge5" class="edge"><title>Node4&#45;&gt;Node2</title>
<path fill="none" stroke="midnightblue" d="M287.502,-60.04C308.667,-65.3488 333.186,-71.4988 353.045,-76.4799"/>
<polygon fill="midnightblue" stroke="midnightblue" points="288.281,-56.6271 277.73,-57.589 286.578,-63.4168 288.281,-56.6271"/>
</g>
<!-- Node5 -->
<g id="node5" class="node"><title>Node5</title>
<g id="a_node5"><a xlink:href="classCopter.html#ad672001a9ffbac72fe0ec2d8e336a4aa" target="_top" xlink:title="Copter::setup">
<polygon fill="white" stroke="black" points="354,-38.5 354,-57.5 430,-57.5 430,-38.5 354,-38.5"/>
<text text-anchor="middle" x="392" y="-45.5" font-family="Helvetica,sans-Serif" font-size="10.00">Copter::setup</text>
</a>
</g>
</g>
<!-- Node4&#45;&gt;Node5 -->
<g id="edge4" class="edge"><title>Node4&#45;&gt;Node5</title>
<path fill="none" stroke="midnightblue" d="M302.243,-48C319.773,-48 338.26,-48 353.798,-48"/>
<polygon fill="midnightblue" stroke="midnightblue" points="302.062,-44.5001 292.062,-48 302.062,-51.5001 302.062,-44.5001"/>
</g>
</g>
</svg>
