<?xml version="1.0" encoding="UTF-8" standalone="no"?>
<!DOCTYPE svg PUBLIC "-//W3C//DTD SVG 1.1//EN"
 "http://www.w3.org/Graphics/SVG/1.1/DTD/svg11.dtd">
<!-- Generated by graphviz version 2.38.0 (20140413.2041)
 -->
<!-- Title: Copter::motor_test_output Pages: 1 -->
<svg width="566pt" height="78pt"
 viewBox="0.00 0.00 566.00 77.50" xmlns="http://www.w3.org/2000/svg" xmlns:xlink="http://www.w3.org/1999/xlink">
<g id="graph0" class="graph" transform="scale(1 1) rotate(0) translate(4 73.5)">
<title>Copter::motor_test_output</title>
<polygon fill="white" stroke="none" points="-4,4 -4,-73.5 562,-73.5 562,4 -4,4"/>
<!-- Node1 -->
<g id="node1" class="node"><title>Node1</title>
<polygon fill="#bfbfbf" stroke="black" points="0,-18 0,-48 98,-48 98,-18 0,-18"/>
<text text-anchor="start" x="8" y="-36" font-family="Helvetica,sans-Serif" font-size="10.00">Copter::motor_test</text>
<text text-anchor="middle" x="49" y="-25" font-family="Helvetica,sans-Serif" font-size="10.00">_output</text>
</g>
<!-- Node2 -->
<g id="node2" class="node"><title>Node2</title>
<g id="a_node2"><a xlink:href="classCopter.html#a463474e8d6d99855217b8ec3dba27d63" target="_top" xlink:title="Copter::gcs_set_mode">
<polygon fill="white" stroke="black" points="284,-42.5 284,-61.5 400,-61.5 400,-42.5 284,-42.5"/>
<text text-anchor="middle" x="342" y="-49.5" font-family="Helvetica,sans-Serif" font-size="10.00">Copter::gcs_set_mode</text>
</a>
</g>
</g>
<!-- Node1&#45;&gt;Node2 -->
<g id="edge1" class="edge"><title>Node1&#45;&gt;Node2</title>
<path fill="none" stroke="midnightblue" d="M108.27,-36.8046C159.343,-40.1393 233.147,-44.9581 283.877,-48.2703"/>
<polygon fill="midnightblue" stroke="midnightblue" points="108.26,-33.2965 98.0527,-36.1375 107.803,-40.2817 108.26,-33.2965"/>
</g>
<!-- Node4 -->
<g id="node4" class="node"><title>Node4</title>
<g id="a_node4"><a xlink:href="classCopter.html#a6bceba6820a4cee3193738044517191e" target="_top" xlink:title="Copter::motors_output">
<polygon fill="white" stroke="black" points="134,-4.5 134,-23.5 248,-23.5 248,-4.5 134,-4.5"/>
<text text-anchor="middle" x="191" y="-11.5" font-family="Helvetica,sans-Serif" font-size="10.00">Copter::motors_output</text>
</a>
</g>
</g>
<!-- Node1&#45;&gt;Node4 -->
<g id="edge3" class="edge"><title>Node1&#45;&gt;Node4</title>
<path fill="none" stroke="midnightblue" d="M108.238,-25.0962C116.606,-23.9607 125.204,-22.7938 133.536,-21.663"/>
<polygon fill="midnightblue" stroke="midnightblue" points="107.619,-21.6482 98.1801,-26.4613 108.56,-28.5846 107.619,-21.6482"/>
</g>
<!-- Node3 -->
<g id="node3" class="node"><title>Node3</title>
<g id="a_node3"><a xlink:href="classGCS__MAVLINK__Copter.html#afe85f88545dfa66f9100ed341cf5f79b" target="_top" xlink:title="GCS_MAVLINK_Copter\l::handleMessage">
<polygon fill="white" stroke="black" points="436,-39 436,-69 558,-69 558,-39 436,-39"/>
<text text-anchor="start" x="444" y="-57" font-family="Helvetica,sans-Serif" font-size="10.00">GCS_MAVLINK_Copter</text>
<text text-anchor="middle" x="497" y="-46" font-family="Helvetica,sans-Serif" font-size="10.00">::handleMessage</text>
</a>
</g>
</g>
<!-- Node2&#45;&gt;Node3 -->
<g id="edge2" class="edge"><title>Node2&#45;&gt;Node3</title>
<path fill="none" stroke="midnightblue" d="M410.61,-52.8838C419.057,-52.9942 427.651,-53.1066 435.972,-53.2153"/>
<polygon fill="midnightblue" stroke="midnightblue" points="410.452,-49.3815 400.407,-52.7504 410.36,-56.3809 410.452,-49.3815"/>
</g>
<!-- Node4&#45;&gt;Node2 -->
<g id="edge6" class="edge"><title>Node4&#45;&gt;Node2</title>
<path fill="none" stroke="midnightblue" d="M239.492,-26.1121C260.244,-31.4044 284.228,-37.5213 303.671,-42.4799"/>
<polygon fill="midnightblue" stroke="midnightblue" points="240.154,-22.6689 229.599,-23.589 238.424,-29.4518 240.154,-22.6689"/>
</g>
<!-- Node5 -->
<g id="node5" class="node"><title>Node5</title>
<g id="a_node5"><a xlink:href="classCopter.html#a9935998c549ed56b80917705ee4522fb" target="_top" xlink:title="Copter::fast_loop">
<polygon fill="white" stroke="black" points="296,-3.5 296,-22.5 388,-22.5 388,-3.5 296,-3.5"/>
<text text-anchor="middle" x="342" y="-10.5" font-family="Helvetica,sans-Serif" font-size="10.00">Copter::fast_loop</text>
</a>
</g>
</g>
<!-- Node4&#45;&gt;Node5 -->
<g id="edge4" class="edge"><title>Node4&#45;&gt;Node5</title>
<path fill="none" stroke="midnightblue" d="M258.363,-13.5546C270.992,-13.4698 283.937,-13.383 295.723,-13.3039"/>
<polygon fill="midnightblue" stroke="midnightblue" points="258.307,-10.0548 248.331,-13.6219 258.354,-17.0547 258.307,-10.0548"/>
</g>
<!-- Node6 -->
<g id="node6" class="node"><title>Node6</title>
<g id="a_node6"><a xlink:href="classCopter.html#ac879265c540a24609ead56c389ba4b02" target="_top" xlink:title="Copter::loop">
<polygon fill="white" stroke="black" points="462,-0.5 462,-19.5 532,-19.5 532,-0.5 462,-0.5"/>
<text text-anchor="middle" x="497" y="-7.5" font-family="Helvetica,sans-Serif" font-size="10.00">Copter::loop</text>
</a>
</g>
</g>
<!-- Node5&#45;&gt;Node6 -->
<g id="edge5" class="edge"><title>Node5&#45;&gt;Node6</title>
<path fill="none" stroke="midnightblue" d="M398.299,-11.9157C419.573,-11.4986 443.223,-11.0348 461.926,-10.6681"/>
<polygon fill="midnightblue" stroke="midnightblue" points="398.007,-8.42066 388.078,-12.1161 398.144,-15.4193 398.007,-8.42066"/>
</g>
</g>
</svg>
