<?xml version="1.0" encoding="UTF-8" standalone="no"?>
<!DOCTYPE svg PUBLIC "-//W3C//DTD SVG 1.1//EN"
 "http://www.w3.org/Graphics/SVG/1.1/DTD/svg11.dtd">
<!-- Generated by graphviz version 2.38.0 (20140413.2041)
 -->
<!-- Title: Copter::Log_Write_Control_Tuning Pages: 1 -->
<svg width="323pt" height="312pt"
 viewBox="0.00 0.00 323.00 312.00" xmlns="http://www.w3.org/2000/svg" xmlns:xlink="http://www.w3.org/1999/xlink">
<g id="graph0" class="graph" transform="scale(1 1) rotate(0) translate(4 308)">
<title>Copter::Log_Write_Control_Tuning</title>
<polygon fill="white" stroke="none" points="-4,4 -4,-308 319,-308 319,4 -4,4"/>
<!-- Node1 -->
<g id="node1" class="node"><title>Node1</title>
<polygon fill="#bfbfbf" stroke="black" points="0,-137 0,-167 133,-167 133,-137 0,-137"/>
<text text-anchor="start" x="8" y="-155" font-family="Helvetica,sans-Serif" font-size="10.00">Copter::Log_Write_Control</text>
<text text-anchor="middle" x="66.5" y="-144" font-family="Helvetica,sans-Serif" font-size="10.00">_Tuning</text>
</g>
<!-- Node2 -->
<g id="node2" class="node"><title>Node2</title>
<g id="a_node2"><a doxygen="/home/ubuntu/ardupilot/docs/tags/libraries:../libraries/" xlink:href="../libraries/namespaceAP__HAL.html#a7aa0ce7625c9680e30ff4a99940907a5" target="_top" xlink:title="AP_HAL::micros64">
<polygon fill="white" stroke="black" points="191.5,-284.5 191.5,-303.5 292.5,-303.5 292.5,-284.5 191.5,-284.5"/>
<text text-anchor="middle" x="242" y="-291.5" font-family="Helvetica,sans-Serif" font-size="10.00">AP_HAL::micros64</text>
</a>
</g>
</g>
<!-- Node1&#45;&gt;Node2 -->
<g id="edge1" class="edge"><title>Node1&#45;&gt;Node2</title>
<path fill="none" stroke="midnightblue" d="M75.6622,-167.068C90.6088,-193.19 124.93,-246.787 169,-275 173.008,-277.566 177.352,-279.787 181.853,-281.709"/>
<polygon fill="midnightblue" stroke="midnightblue" points="180.662,-285 191.254,-285.249 183.129,-278.449 180.662,-285"/>
</g>
<!-- Node3 -->
<g id="node3" class="node"><title>Node3</title>
<g id="a_node3"><a doxygen="/home/ubuntu/ardupilot/docs/tags/libraries:../libraries/" xlink:href="../libraries/classAC__AttitudeControl.html#af9d25bac86ee49d993714ac928ec4891" target="_top" xlink:title="AC_AttitudeControl\l::get_throttle_in">
<polygon fill="white" stroke="black" points="191.5,-235 191.5,-265 292.5,-265 292.5,-235 191.5,-235"/>
<text text-anchor="start" x="199.5" y="-253" font-family="Helvetica,sans-Serif" font-size="10.00">AC_AttitudeControl</text>
<text text-anchor="middle" x="242" y="-242" font-family="Helvetica,sans-Serif" font-size="10.00">::get_throttle_in</text>
</a>
</g>
</g>
<!-- Node1&#45;&gt;Node3 -->
<g id="edge2" class="edge"><title>Node1&#45;&gt;Node3</title>
<path fill="none" stroke="midnightblue" d="M84.7334,-167.155C104.096,-183.54 137.015,-209.516 169,-226 173.063,-228.094 177.346,-230.061 181.716,-231.897"/>
<polygon fill="midnightblue" stroke="midnightblue" points="180.783,-235.291 191.369,-235.706 183.352,-228.78 180.783,-235.291"/>
</g>
<!-- Node4 -->
<g id="node4" class="node"><title>Node4</title>
<g id="a_node4"><a doxygen="/home/ubuntu/ardupilot/docs/tags/libraries:../libraries/" xlink:href="../libraries/classAC__AttitudeControl.html#af5e4b7d57185fe2656265d39ccdf2a8b" target="_top" xlink:title="AC_AttitudeControl\l::angle_boost">
<polygon fill="white" stroke="black" points="191.5,-186 191.5,-216 292.5,-216 292.5,-186 191.5,-186"/>
<text text-anchor="start" x="199.5" y="-204" font-family="Helvetica,sans-Serif" font-size="10.00">AC_AttitudeControl</text>
<text text-anchor="middle" x="242" y="-193" font-family="Helvetica,sans-Serif" font-size="10.00">::angle_boost</text>
</a>
</g>
</g>
<!-- Node1&#45;&gt;Node4 -->
<g id="edge3" class="edge"><title>Node1&#45;&gt;Node4</title>
<path fill="none" stroke="midnightblue" d="M120.971,-167.101C140.136,-172.514 161.855,-178.648 181.499,-184.196"/>
<polygon fill="midnightblue" stroke="midnightblue" points="180.681,-187.601 191.256,-186.951 182.583,-180.865 180.681,-187.601"/>
</g>
<!-- Node5 -->
<g id="node5" class="node"><title>Node5</title>
<g id="a_node5"><a doxygen="/home/ubuntu/ardupilot/docs/tags/libraries:../libraries/" xlink:href="../libraries/classAC__PosControl.html#a9113b44ed876dd2d9a326eb59f3d625a" target="_top" xlink:title="AC_PosControl::get\l_alt_target">
<polygon fill="white" stroke="black" points="190,-137 190,-167 294,-167 294,-137 190,-137"/>
<text text-anchor="start" x="198" y="-155" font-family="Helvetica,sans-Serif" font-size="10.00">AC_PosControl::get</text>
<text text-anchor="middle" x="242" y="-144" font-family="Helvetica,sans-Serif" font-size="10.00">_alt_target</text>
</a>
</g>
</g>
<!-- Node1&#45;&gt;Node5 -->
<g id="edge4" class="edge"><title>Node1&#45;&gt;Node5</title>
<path fill="none" stroke="midnightblue" d="M133.093,-152C148.375,-152 164.589,-152 179.678,-152"/>
<polygon fill="midnightblue" stroke="midnightblue" points="179.919,-155.5 189.919,-152 179.919,-148.5 179.919,-155.5"/>
</g>
<!-- Node6 -->
<g id="node6" class="node"><title>Node6</title>
<g id="a_node6"><a doxygen="/home/ubuntu/ardupilot/docs/tags/libraries:../libraries/" xlink:href="../libraries/classAP__InertialNav__NavEKF.html#ae38f7e9a5a386e838368e5e2b59ff3d9" target="_top" xlink:title="AP_InertialNav_NavEKF\l::get_altitude">
<polygon fill="white" stroke="black" points="179.5,-88 179.5,-118 304.5,-118 304.5,-88 179.5,-88"/>
<text text-anchor="start" x="187.5" y="-106" font-family="Helvetica,sans-Serif" font-size="10.00">AP_InertialNav_NavEKF</text>
<text text-anchor="middle" x="242" y="-95" font-family="Helvetica,sans-Serif" font-size="10.00">::get_altitude</text>
</a>
</g>
</g>
<!-- Node1&#45;&gt;Node6 -->
<g id="edge5" class="edge"><title>Node1&#45;&gt;Node6</title>
<path fill="none" stroke="midnightblue" d="M120.971,-136.899C139.031,-131.798 159.359,-126.057 178.081,-120.77"/>
<polygon fill="midnightblue" stroke="midnightblue" points="179.033,-124.138 187.705,-118.052 177.13,-117.401 179.033,-124.138"/>
</g>
<!-- Node7 -->
<g id="node7" class="node"><title>Node7</title>
<g id="a_node7"><a doxygen="/home/ubuntu/ardupilot/docs/tags/libraries:../libraries/" xlink:href="../libraries/classAC__PosControl.html#a12a1c556d993320d42af92174aa2048c" target="_top" xlink:title="AC_PosControl::get\l_vel_target_z">
<polygon fill="white" stroke="black" points="190,-39 190,-69 294,-69 294,-39 190,-39"/>
<text text-anchor="start" x="198" y="-57" font-family="Helvetica,sans-Serif" font-size="10.00">AC_PosControl::get</text>
<text text-anchor="middle" x="242" y="-46" font-family="Helvetica,sans-Serif" font-size="10.00">_vel_target_z</text>
</a>
</g>
</g>
<!-- Node1&#45;&gt;Node7 -->
<g id="edge6" class="edge"><title>Node1&#45;&gt;Node7</title>
<path fill="none" stroke="midnightblue" d="M85.1634,-136.847C104.636,-120.748 137.406,-95.4018 169,-79 173.184,-76.828 177.597,-74.7764 182.096,-72.8537"/>
<polygon fill="midnightblue" stroke="midnightblue" points="183.444,-76.0842 191.402,-69.0909 180.82,-69.5945 183.444,-76.0842"/>
</g>
<!-- Node8 -->
<g id="node8" class="node"><title>Node8</title>
<g id="a_node8"><a doxygen="/home/ubuntu/ardupilot/docs/tags/libraries:../libraries/" xlink:href="../libraries/classDataFlash__Class.html#aed2efc0f40e155bce78f0a9719279bd0" target="_top" xlink:title="DataFlash_Class::WriteBlock">
<polygon fill="white" stroke="black" points="169,-0.5 169,-19.5 315,-19.5 315,-0.5 169,-0.5"/>
<text text-anchor="middle" x="242" y="-7.5" font-family="Helvetica,sans-Serif" font-size="10.00">DataFlash_Class::WriteBlock</text>
</a>
</g>
</g>
<!-- Node1&#45;&gt;Node8 -->
<g id="edge7" class="edge"><title>Node1&#45;&gt;Node8</title>
<path fill="none" stroke="midnightblue" d="M75.9724,-136.702C91.1512,-110.735 125.5,-58.1222 169,-30 173.011,-27.4071 177.357,-25.1464 181.859,-23.1759"/>
<polygon fill="midnightblue" stroke="midnightblue" points="183.206,-26.4075 191.261,-19.5254 180.672,-19.882 183.206,-26.4075"/>
</g>
</g>
</svg>
