<?xml version="1.0" encoding="UTF-8" standalone="no"?>
<!DOCTYPE svg PUBLIC "-//W3C//DTD SVG 1.1//EN"
 "http://www.w3.org/Graphics/SVG/1.1/DTD/svg11.dtd">
<!-- Generated by graphviz version 2.38.0 (20140413.2041)
 -->
<!-- Title: Copter::perf_info_reset Pages: 1 -->
<svg width="434pt" height="110pt"
 viewBox="0.00 0.00 434.00 109.50" xmlns="http://www.w3.org/2000/svg" xmlns:xlink="http://www.w3.org/1999/xlink">
<g id="graph0" class="graph" transform="scale(1 1) rotate(0) translate(4 105.5)">
<title>Copter::perf_info_reset</title>
<polygon fill="white" stroke="none" points="-4,4 -4,-105.5 430,-105.5 430,4 -4,4"/>
<!-- Node1 -->
<g id="node1" class="node"><title>Node1</title>
<polygon fill="#bfbfbf" stroke="black" points="0,-38.5 0,-57.5 116,-57.5 116,-38.5 0,-38.5"/>
<text text-anchor="middle" x="58" y="-45.5" font-family="Helvetica,sans-Serif" font-size="10.00">Copter::perf_info_reset</text>
</g>
<!-- Node2 -->
<g id="node2" class="node"><title>Node2</title>
<g id="a_node2"><a xlink:href="classCopter.html#a463474e8d6d99855217b8ec3dba27d63" target="_top" xlink:title="Copter::gcs_set_mode">
<polygon fill="white" stroke="black" points="152,-76.5 152,-95.5 268,-95.5 268,-76.5 152,-76.5"/>
<text text-anchor="middle" x="210" y="-83.5" font-family="Helvetica,sans-Serif" font-size="10.00">Copter::gcs_set_mode</text>
</a>
</g>
</g>
<!-- Node1&#45;&gt;Node2 -->
<g id="edge1" class="edge"><title>Node1&#45;&gt;Node2</title>
<path fill="none" stroke="midnightblue" d="M106.811,-60.1121C127.702,-65.4044 151.847,-71.5213 171.421,-76.4799"/>
<polygon fill="midnightblue" stroke="midnightblue" points="107.405,-56.652 96.8513,-57.589 105.686,-63.4377 107.405,-56.652"/>
</g>
<!-- Node4 -->
<g id="node4" class="node"><title>Node4</title>
<g id="a_node4"><a xlink:href="classCopter.html#a6499500af19f63fb1ed738a57627d5df" target="_top" xlink:title="Copter::perf_update">
<polygon fill="white" stroke="black" points="158.5,-38.5 158.5,-57.5 261.5,-57.5 261.5,-38.5 158.5,-38.5"/>
<text text-anchor="middle" x="210" y="-45.5" font-family="Helvetica,sans-Serif" font-size="10.00">Copter::perf_update</text>
</a>
</g>
</g>
<!-- Node1&#45;&gt;Node4 -->
<g id="edge3" class="edge"><title>Node1&#45;&gt;Node4</title>
<path fill="none" stroke="midnightblue" d="M126.366,-48C137.134,-48 148.114,-48 158.406,-48"/>
<polygon fill="midnightblue" stroke="midnightblue" points="126.137,-44.5001 116.136,-48 126.136,-51.5001 126.137,-44.5001"/>
</g>
<!-- Node5 -->
<g id="node5" class="node"><title>Node5</title>
<g id="a_node5"><a xlink:href="classCopter.html#ad672001a9ffbac72fe0ec2d8e336a4aa" target="_top" xlink:title="Copter::setup">
<polygon fill="white" stroke="black" points="172,-0.5 172,-19.5 248,-19.5 248,-0.5 172,-0.5"/>
<text text-anchor="middle" x="210" y="-7.5" font-family="Helvetica,sans-Serif" font-size="10.00">Copter::setup</text>
</a>
</g>
</g>
<!-- Node1&#45;&gt;Node5 -->
<g id="edge4" class="edge"><title>Node1&#45;&gt;Node5</title>
<path fill="none" stroke="midnightblue" d="M106.602,-35.9408C127.725,-30.5896 152.21,-24.3869 171.939,-19.3887"/>
<polygon fill="midnightblue" stroke="midnightblue" points="105.686,-32.5623 96.8513,-38.411 107.405,-39.348 105.686,-32.5623"/>
</g>
<!-- Node3 -->
<g id="node3" class="node"><title>Node3</title>
<g id="a_node3"><a xlink:href="classGCS__MAVLINK__Copter.html#afe85f88545dfa66f9100ed341cf5f79b" target="_top" xlink:title="GCS_MAVLINK_Copter\l::handleMessage">
<polygon fill="white" stroke="black" points="304,-71 304,-101 426,-101 426,-71 304,-71"/>
<text text-anchor="start" x="312" y="-89" font-family="Helvetica,sans-Serif" font-size="10.00">GCS_MAVLINK_Copter</text>
<text text-anchor="middle" x="365" y="-78" font-family="Helvetica,sans-Serif" font-size="10.00">::handleMessage</text>
</a>
</g>
</g>
<!-- Node2&#45;&gt;Node3 -->
<g id="edge2" class="edge"><title>Node2&#45;&gt;Node3</title>
<path fill="none" stroke="midnightblue" d="M278.61,-86C287.057,-86 295.651,-86 303.972,-86"/>
<polygon fill="midnightblue" stroke="midnightblue" points="278.407,-82.5001 268.407,-86 278.407,-89.5001 278.407,-82.5001"/>
</g>
</g>
</svg>
