<?xml version="1.0" encoding="UTF-8" standalone="no"?>
<!DOCTYPE svg PUBLIC "-//W3C//DTD SVG 1.1//EN"
 "http://www.w3.org/Graphics/SVG/1.1/DTD/svg11.dtd">
<!-- Generated by graphviz version 2.38.0 (20140413.2041)
 -->
<!-- Title: Copter::send_pid_tuning Pages: 1 -->
<svg width="316pt" height="264pt"
 viewBox="0.00 0.00 316.00 263.50" xmlns="http://www.w3.org/2000/svg" xmlns:xlink="http://www.w3.org/1999/xlink">
<g id="graph0" class="graph" transform="scale(1 1) rotate(0) translate(4 259.5)">
<title>Copter::send_pid_tuning</title>
<polygon fill="white" stroke="none" points="-4,4 -4,-259.5 312,-259.5 312,4 -4,4"/>
<!-- Node1 -->
<g id="node1" class="node"><title>Node1</title>
<polygon fill="#bfbfbf" stroke="black" points="0,-126 0,-145 122,-145 122,-126 0,-126"/>
<text text-anchor="middle" x="61" y="-133" font-family="Helvetica,sans-Serif" font-size="10.00">Copter::send_pid_tuning</text>
</g>
<!-- Node2 -->
<g id="node2" class="node"><title>Node2</title>
<g id="a_node2"><a doxygen="/home/ubuntu/ardupilot/docs/tags/libraries:../libraries/" xlink:href="../libraries/classAP__AHRS__NavEKF.html#a86244462b889fe1b5a69c438a2cdbd46" target="_top" xlink:title="AP_AHRS_NavEKF::get_gyro">
<polygon fill="white" stroke="black" points="158,-236 158,-255 308,-255 308,-236 158,-236"/>
<text text-anchor="middle" x="233" y="-243" font-family="Helvetica,sans-Serif" font-size="10.00">AP_AHRS_NavEKF::get_gyro</text>
</a>
</g>
</g>
<!-- Node1&#45;&gt;Node2 -->
<g id="edge1" class="edge"><title>Node1&#45;&gt;Node2</title>
<path fill="none" stroke="midnightblue" d="M69.3042,-145.135C83.9832,-163.8 119.01,-204.946 158,-226.5 162.135,-228.786 166.553,-230.804 171.094,-232.584"/>
<polygon fill="midnightblue" stroke="midnightblue" points="169.943,-235.889 180.538,-235.913 172.27,-229.287 169.943,-235.889"/>
</g>
<!-- Node3 -->
<g id="node3" class="node"><title>Node3</title>
<g id="a_node3"><a doxygen="/home/ubuntu/ardupilot/docs/tags/libraries:../libraries/" xlink:href="../libraries/classAC__AttitudeControl.html#ad300b51e0777495496adddd1770ee920" target="_top" xlink:title="AC_AttitudeControl\l::get_rate_roll_pid">
<polygon fill="white" stroke="black" points="182.5,-186.5 182.5,-216.5 283.5,-216.5 283.5,-186.5 182.5,-186.5"/>
<text text-anchor="start" x="190.5" y="-204.5" font-family="Helvetica,sans-Serif" font-size="10.00">AC_AttitudeControl</text>
<text text-anchor="middle" x="233" y="-193.5" font-family="Helvetica,sans-Serif" font-size="10.00">::get_rate_roll_pid</text>
</a>
</g>
</g>
<!-- Node1&#45;&gt;Node3 -->
<g id="edge2" class="edge"><title>Node1&#45;&gt;Node3</title>
<path fill="none" stroke="midnightblue" d="M83.1583,-145.099C102.482,-153.73 131.926,-166.545 158,-176.5 163.82,-178.722 169.933,-180.951 176.049,-183.114"/>
<polygon fill="midnightblue" stroke="midnightblue" points="175.022,-186.463 185.617,-186.447 177.325,-179.852 175.022,-186.463"/>
</g>
<!-- Node4 -->
<g id="node4" class="node"><title>Node4</title>
<g id="a_node4"><a doxygen="/home/ubuntu/ardupilot/docs/tags/libraries:../libraries/" xlink:href="../libraries/classAC__PID.html#aac49c9e75c7bea524fab440e27c6a0fa" target="_top" xlink:title="AC_PID::get_pid_info">
<polygon fill="white" stroke="black" points="177,-148 177,-167 289,-167 289,-148 177,-148"/>
<text text-anchor="middle" x="233" y="-155" font-family="Helvetica,sans-Serif" font-size="10.00">AC_PID::get_pid_info</text>
</a>
</g>
</g>
<!-- Node1&#45;&gt;Node4 -->
<g id="edge3" class="edge"><title>Node1&#45;&gt;Node4</title>
<path fill="none" stroke="midnightblue" d="M122.414,-143.318C136.837,-145.185 152.293,-147.185 166.916,-149.077"/>
<polygon fill="midnightblue" stroke="midnightblue" points="166.516,-152.555 176.883,-150.367 167.415,-145.613 166.516,-152.555"/>
</g>
<!-- Node5 -->
<g id="node5" class="node"><title>Node5</title>
<g id="a_node5"><a doxygen="/home/ubuntu/ardupilot/docs/tags/libraries:../libraries/" xlink:href="../libraries/classAC__AttitudeControl.html#a9e10a37d28eeb3d6476ec087b3bac3df" target="_top" xlink:title="AC_AttitudeControl\l::get_rate_pitch_pid">
<polygon fill="white" stroke="black" points="182,-98.5 182,-128.5 284,-128.5 284,-98.5 182,-98.5"/>
<text text-anchor="start" x="190" y="-116.5" font-family="Helvetica,sans-Serif" font-size="10.00">AC_AttitudeControl</text>
<text text-anchor="middle" x="233" y="-105.5" font-family="Helvetica,sans-Serif" font-size="10.00">::get_rate_pitch_pid</text>
</a>
</g>
</g>
<!-- Node1&#45;&gt;Node5 -->
<g id="edge4" class="edge"><title>Node1&#45;&gt;Node5</title>
<path fill="none" stroke="midnightblue" d="M122.414,-127.682C138.385,-125.615 155.622,-123.384 171.592,-121.317"/>
<polygon fill="midnightblue" stroke="midnightblue" points="172.41,-124.741 181.878,-119.986 171.512,-117.799 172.41,-124.741"/>
</g>
<!-- Node6 -->
<g id="node6" class="node"><title>Node6</title>
<g id="a_node6"><a doxygen="/home/ubuntu/ardupilot/docs/tags/libraries:../libraries/" xlink:href="../libraries/classAC__AttitudeControl.html#a9e430ac947e0924fdc83280a4ed552bf" target="_top" xlink:title="AC_AttitudeControl\l::get_rate_yaw_pid">
<polygon fill="white" stroke="black" points="182.5,-49.5 182.5,-79.5 283.5,-79.5 283.5,-49.5 182.5,-49.5"/>
<text text-anchor="start" x="190.5" y="-67.5" font-family="Helvetica,sans-Serif" font-size="10.00">AC_AttitudeControl</text>
<text text-anchor="middle" x="233" y="-56.5" font-family="Helvetica,sans-Serif" font-size="10.00">::get_rate_yaw_pid</text>
</a>
</g>
</g>
<!-- Node1&#45;&gt;Node6 -->
<g id="edge5" class="edge"><title>Node1&#45;&gt;Node6</title>
<path fill="none" stroke="midnightblue" d="M80.4621,-125.829C99.5737,-116.015 130.438,-100.711 158,-89.5 163.472,-87.2742 169.224,-85.082 175.003,-82.9765"/>
<polygon fill="midnightblue" stroke="midnightblue" points="176.461,-86.173 184.709,-79.5241 174.115,-79.5778 176.461,-86.173"/>
</g>
<!-- Node7 -->
<g id="node7" class="node"><title>Node7</title>
<g id="a_node7"><a doxygen="/home/ubuntu/ardupilot/docs/tags/libraries:../libraries/" xlink:href="../libraries/classAP__AHRS__NavEKF.html#a29f2bfb30bc3055de826a917ff6da4c0" target="_top" xlink:title="AP_AHRS_NavEKF::get\l_accel_ef_blended">
<polygon fill="white" stroke="black" points="170,-0.5 170,-30.5 296,-30.5 296,-0.5 170,-0.5"/>
<text text-anchor="start" x="178" y="-18.5" font-family="Helvetica,sans-Serif" font-size="10.00">AP_AHRS_NavEKF::get</text>
<text text-anchor="middle" x="233" y="-7.5" font-family="Helvetica,sans-Serif" font-size="10.00">_accel_ef_blended</text>
</a>
</g>
</g>
<!-- Node1&#45;&gt;Node7 -->
<g id="edge6" class="edge"><title>Node1&#45;&gt;Node7</title>
<path fill="none" stroke="midnightblue" d="M69.127,-125.979C83.7569,-107.065 119.091,-64.515 158,-40.5 161.345,-38.4356 164.881,-36.5182 168.521,-34.741"/>
<polygon fill="midnightblue" stroke="midnightblue" points="170.046,-37.8931 177.739,-30.6082 167.182,-31.5058 170.046,-37.8931"/>
</g>
</g>
</svg>
