<?xml version="1.0" encoding="UTF-8" standalone="no"?>
<!DOCTYPE svg PUBLIC "-//W3C//DTD SVG 1.1//EN"
 "http://www.w3.org/Graphics/SVG/1.1/DTD/svg11.dtd">
<!-- Generated by graphviz version 2.38.0 (20140413.2041)
 -->
<!-- Title: Copter::get_pilot_desired_lean_angles Pages: 1 -->
<!--zoomable 180 -->
<svg id="main" version="1.1" xmlns="http://www.w3.org/2000/svg" xmlns:xlink="http://www.w3.org/1999/xlink" xml:space="preserve" onload="init(evt)">
<style type="text/css"><![CDATA[
.edge:hover path { stroke: red; }
.edge:hover polygon { stroke: red; fill: red; }
]]></style>
<script type="text/javascript"><![CDATA[
var edges = document.getElementsByTagName('g');
if (edges && edges.length) {
  for (var i=0;i<edges.length;i++) {
    if (edges[i].id.substr(0,4)=='edge') {
      edges[i].setAttribute('class','edge');
    }
  }
}
]]></script>
        <defs>
                <circle id="rim" cx="0" cy="0" r="7"/>
                <circle id="rim2" cx="0" cy="0" r="3.5"/>
                <g id="zoomPlus">
                        <use xlink:href="#rim" fill="#404040">
                                <set attributeName="fill" to="#808080" begin="zoomplus.mouseover" end="zoomplus.mouseout"/>
                        </use>
                        <path d="M-4,0h8M0,-4v8" fill="none" stroke="white" stroke-width="1.5" pointer-events="none"/>
                </g>
                <g id="zoomMin">
                        <use xlink:href="#rim" fill="#404040">
                                <set attributeName="fill" to="#808080" begin="zoomminus.mouseover" end="zoomminus.mouseout"/>
                        </use>
                        <path d="M-4,0h8" fill="none" stroke="white" stroke-width="1.5" pointer-events="none"/>
                </g>
                <g id="dirArrow">
                        <path fill="none" stroke="white" stroke-width="1.5" d="M0,-3.0v7 M-2.5,-0.5L0,-3.0L2.5,-0.5"/>
                </g>
               <g id="resetDef">
                       <use xlink:href="#rim2" fill="#404040">
                               <set attributeName="fill" to="#808080" begin="reset.mouseover" end="reset.mouseout"/>
                       </use>
               </g>
        </defs>

<script type="text/javascript">
var viewWidth = 907;
var viewHeight = 180;
var sectionId = 'dynsection-289';
</script>
<script xlink:href="svgpan.js"/>
<svg id="graph" class="graph">
<g id="viewport">
<title>Copter::get_pilot_desired_lean_angles</title>
<polygon fill="white" stroke="none" points="-4,4 -4,-176 903,-176 903,4 -4,4"/>
<!-- Node1 -->
<g id="node1" class="node"><title>Node1</title>
<polygon fill="#bfbfbf" stroke="black" points="0,-71 0,-101 125,-101 125,-71 0,-71"/>
<text text-anchor="start" x="8" y="-89" font-family="Helvetica,sans-Serif" font-size="10.00">Copter::get_pilot_desired</text>
<text text-anchor="middle" x="62.5" y="-78" font-family="Helvetica,sans-Serif" font-size="10.00">_lean_angles</text>
</g>
<!-- Node2 -->
<g id="node2" class="node"><title>Node2</title>
<g id="a_node2"><a xlink:href="classCopter.html#ac38d223360fcc0870ec99cb2045e727a" target="_top" xlink:title="Copter::althold_run">
<polygon fill="white" stroke="black" points="317,-152.5 317,-171.5 416,-171.5 416,-152.5 317,-152.5"/>
<text text-anchor="middle" x="366.5" y="-159.5" font-family="Helvetica,sans-Serif" font-size="10.00">Copter::althold_run</text>
</a>
</g>
</g>
<!-- Node1&#45;&gt;Node2 -->
<g id="edge1" class="edge"><title>Node1&#45;&gt;Node2</title>
<path fill="none" stroke="midnightblue" d="M104.551,-105.14C121.701,-112.528 142.019,-120.505 161,-126 213.288,-141.137 275.041,-150.942 316.902,-156.439"/>
<polygon fill="midnightblue" stroke="midnightblue" points="105.942,-101.928 95.3784,-101.116 103.13,-108.338 105.942,-101.928"/>
</g>
<!-- Node8 -->
<g id="node8" class="node"><title>Node8</title>
<g id="a_node8"><a xlink:href="classCopter.html#ac1404e87713be54f123c777d375e762c" target="_top" xlink:title="Copter::drift_run">
<polygon fill="white" stroke="black" points="323,-114.5 323,-133.5 410,-133.5 410,-114.5 323,-114.5"/>
<text text-anchor="middle" x="366.5" y="-121.5" font-family="Helvetica,sans-Serif" font-size="10.00">Copter::drift_run</text>
</a>
</g>
</g>
<!-- Node1&#45;&gt;Node8 -->
<g id="edge7" class="edge"><title>Node1&#45;&gt;Node8</title>
<path fill="none" stroke="midnightblue" d="M135.311,-100.835C143.945,-102.37 152.657,-103.803 161,-105 216.589,-112.978 281.184,-118.331 322.661,-121.27"/>
<polygon fill="midnightblue" stroke="midnightblue" points="135.702,-97.3489 125.236,-98.9949 134.444,-104.235 135.702,-97.3489"/>
</g>
<!-- Node9 -->
<g id="node9" class="node"><title>Node9</title>
<g id="a_node9"><a xlink:href="classCopter.html#ab4b9d0a886f5e899a46da4dfccb4f4dc" target="_top" xlink:title="Copter::land_nogps_run">
<polygon fill="white" stroke="black" points="161,-76.5 161,-95.5 281,-95.5 281,-76.5 161,-76.5"/>
<text text-anchor="middle" x="221" y="-83.5" font-family="Helvetica,sans-Serif" font-size="10.00">Copter::land_nogps_run</text>
</a>
</g>
</g>
<!-- Node1&#45;&gt;Node9 -->
<g id="edge9" class="edge"><title>Node1&#45;&gt;Node9</title>
<path fill="none" stroke="midnightblue" d="M135.605,-86C144.071,-86 152.634,-86 160.893,-86"/>
<polygon fill="midnightblue" stroke="midnightblue" points="135.353,-82.5001 125.353,-86 135.353,-89.5001 135.353,-82.5001"/>
</g>
<!-- Node11 -->
<g id="node11" class="node"><title>Node11</title>
<g id="a_node11"><a xlink:href="classCopter.html#a1d74ca65de6e88376d929bb23d842935" target="_top" xlink:title="Copter::poshold_run">
<polygon fill="white" stroke="black" points="169,-38.5 169,-57.5 273,-57.5 273,-38.5 169,-38.5"/>
<text text-anchor="middle" x="221" y="-45.5" font-family="Helvetica,sans-Serif" font-size="10.00">Copter::poshold_run</text>
</a>
</g>
</g>
<!-- Node1&#45;&gt;Node11 -->
<g id="edge12" class="edge"><title>Node1&#45;&gt;Node11</title>
<path fill="none" stroke="midnightblue" d="M135.493,-68.5193C151.036,-64.7453 166.91,-60.891 180.641,-57.5568"/>
<polygon fill="midnightblue" stroke="midnightblue" points="134.245,-65.2206 125.353,-70.9814 135.896,-72.0229 134.245,-65.2206"/>
</g>
<!-- Node12 -->
<g id="node12" class="node"><title>Node12</title>
<g id="a_node12"><a xlink:href="classCopter.html#abe33e195a88c9ad32f79a331327cb146" target="_top" xlink:title="Copter::stabilize_run">
<polygon fill="white" stroke="black" points="167.5,-0.5 167.5,-19.5 274.5,-19.5 274.5,-0.5 167.5,-0.5"/>
<text text-anchor="middle" x="221" y="-7.5" font-family="Helvetica,sans-Serif" font-size="10.00">Copter::stabilize_run</text>
</a>
</g>
</g>
<!-- Node1&#45;&gt;Node12 -->
<g id="edge14" class="edge"><title>Node1&#45;&gt;Node12</title>
<path fill="none" stroke="midnightblue" d="M94.6698,-65.4282C113.366,-53.6924 137.924,-39.3129 161,-29 168.958,-25.4435 177.787,-22.2354 186.138,-19.5114"/>
<polygon fill="midnightblue" stroke="midnightblue" points="92.5528,-62.6267 85.9945,-70.9477 96.3104,-68.5327 92.5528,-62.6267"/>
</g>
<!-- Node3 -->
<g id="node3" class="node"><title>Node3</title>
<g id="a_node3"><a xlink:href="classCopter.html#a1e967ef71b5acdd8b0c83a0471bdb581" target="_top" xlink:title="Copter::update_flight_mode">
<polygon fill="white" stroke="black" points="452,-76.5 452,-95.5 589,-95.5 589,-76.5 452,-76.5"/>
<text text-anchor="middle" x="520.5" y="-83.5" font-family="Helvetica,sans-Serif" font-size="10.00">Copter::update_flight_mode</text>
</a>
</g>
</g>
<!-- Node2&#45;&gt;Node3 -->
<g id="edge2" class="edge"><title>Node2&#45;&gt;Node3</title>
<path fill="none" stroke="midnightblue" d="M403.142,-148.652C407.509,-146.836 411.882,-144.931 416,-143 447.947,-128.023 483.687,-107.441 503.701,-95.546"/>
<polygon fill="midnightblue" stroke="midnightblue" points="401.658,-145.476 393.689,-152.458 404.273,-151.97 401.658,-145.476"/>
</g>
<!-- Node4 -->
<g id="node4" class="node"><title>Node4</title>
<g id="a_node4"><a xlink:href="classCopter.html#a9935998c549ed56b80917705ee4522fb" target="_top" xlink:title="Copter::fast_loop">
<polygon fill="white" stroke="black" points="637,-98.5 637,-117.5 729,-117.5 729,-98.5 637,-98.5"/>
<text text-anchor="middle" x="683" y="-105.5" font-family="Helvetica,sans-Serif" font-size="10.00">Copter::fast_loop</text>
</a>
</g>
</g>
<!-- Node3&#45;&gt;Node4 -->
<g id="edge3" class="edge"><title>Node3&#45;&gt;Node4</title>
<path fill="none" stroke="midnightblue" d="M599.361,-96.6726C612.208,-98.4335 625.136,-100.206 636.828,-101.808"/>
<polygon fill="midnightblue" stroke="midnightblue" points="599.484,-93.1567 589.101,-95.2662 598.533,-100.092 599.484,-93.1567"/>
</g>
<!-- Node6 -->
<g id="node6" class="node"><title>Node6</title>
<g id="a_node6"><a xlink:href="classCopter.html#a463474e8d6d99855217b8ec3dba27d63" target="_top" xlink:title="Copter::gcs_set_mode">
<polygon fill="white" stroke="black" points="625,-57.5 625,-76.5 741,-76.5 741,-57.5 625,-57.5"/>
<text text-anchor="middle" x="683" y="-64.5" font-family="Helvetica,sans-Serif" font-size="10.00">Copter::gcs_set_mode</text>
</a>
</g>
</g>
<!-- Node3&#45;&gt;Node6 -->
<g id="edge5" class="edge"><title>Node3&#45;&gt;Node6</title>
<path fill="none" stroke="midnightblue" d="M599.215,-76.8001C607.867,-75.7759 616.558,-74.7471 624.885,-73.7613"/>
<polygon fill="midnightblue" stroke="midnightblue" points="598.62,-73.3459 589.101,-77.9974 599.443,-80.2974 598.62,-73.3459"/>
</g>
<!-- Node5 -->
<g id="node5" class="node"><title>Node5</title>
<g id="a_node5"><a xlink:href="classCopter.html#ac879265c540a24609ead56c389ba4b02" target="_top" xlink:title="Copter::loop">
<polygon fill="white" stroke="black" points="803,-100.5 803,-119.5 873,-119.5 873,-100.5 803,-100.5"/>
<text text-anchor="middle" x="838" y="-107.5" font-family="Helvetica,sans-Serif" font-size="10.00">Copter::loop</text>
</a>
</g>
</g>
<!-- Node4&#45;&gt;Node5 -->
<g id="edge4" class="edge"><title>Node4&#45;&gt;Node5</title>
<path fill="none" stroke="midnightblue" d="M739.299,-108.723C760.573,-109.001 784.223,-109.31 802.926,-109.555"/>
<polygon fill="midnightblue" stroke="midnightblue" points="739.122,-105.22 729.078,-108.589 739.031,-112.22 739.122,-105.22"/>
</g>
<!-- Node7 -->
<g id="node7" class="node"><title>Node7</title>
<g id="a_node7"><a xlink:href="classGCS__MAVLINK__Copter.html#afe85f88545dfa66f9100ed341cf5f79b" target="_top" xlink:title="GCS_MAVLINK_Copter\l::handleMessage">
<polygon fill="white" stroke="black" points="777,-51 777,-81 899,-81 899,-51 777,-51"/>
<text text-anchor="start" x="785" y="-69" font-family="Helvetica,sans-Serif" font-size="10.00">GCS_MAVLINK_Copter</text>
<text text-anchor="middle" x="838" y="-58" font-family="Helvetica,sans-Serif" font-size="10.00">::handleMessage</text>
</a>
</g>
</g>
<!-- Node6&#45;&gt;Node7 -->
<g id="edge6" class="edge"><title>Node6&#45;&gt;Node7</title>
<path fill="none" stroke="midnightblue" d="M751.61,-66.5581C760.057,-66.5029 768.651,-66.4467 776.972,-66.3923"/>
<polygon fill="midnightblue" stroke="midnightblue" points="751.384,-63.0594 741.407,-66.6248 751.43,-70.0593 751.384,-63.0594"/>
</g>
<!-- Node8&#45;&gt;Node3 -->
<g id="edge8" class="edge"><title>Node8&#45;&gt;Node3</title>
<path fill="none" stroke="midnightblue" d="M415.66,-111.96C436.895,-106.651 461.495,-100.501 481.42,-95.5201"/>
<polygon fill="midnightblue" stroke="midnightblue" points="414.709,-108.59 405.856,-114.411 416.406,-115.381 414.709,-108.59"/>
</g>
<!-- Node10 -->
<g id="node10" class="node"><title>Node10</title>
<g id="a_node10"><a xlink:href="classCopter.html#a51c901bd72d5f073aa502be5177ab2fd" target="_top" xlink:title="Copter::land_run">
<polygon fill="white" stroke="black" points="322,-76.5 322,-95.5 411,-95.5 411,-76.5 322,-76.5"/>
<text text-anchor="middle" x="366.5" y="-83.5" font-family="Helvetica,sans-Serif" font-size="10.00">Copter::land_run</text>
</a>
</g>
</g>
<!-- Node9&#45;&gt;Node10 -->
<g id="edge10" class="edge"><title>Node9&#45;&gt;Node10</title>
<path fill="none" stroke="midnightblue" d="M291.471,-86C301.799,-86 312.19,-86 321.788,-86"/>
<polygon fill="midnightblue" stroke="midnightblue" points="291.195,-82.5001 281.195,-86 291.195,-89.5001 291.195,-82.5001"/>
</g>
<!-- Node10&#45;&gt;Node3 -->
<g id="edge11" class="edge"><title>Node10&#45;&gt;Node3</title>
<path fill="none" stroke="midnightblue" d="M421.161,-86C431.081,-86 441.558,-86 451.83,-86"/>
<polygon fill="midnightblue" stroke="midnightblue" points="421.057,-82.5001 411.057,-86 421.057,-89.5001 421.057,-82.5001"/>
</g>
<!-- Node11&#45;&gt;Node3 -->
<g id="edge13" class="edge"><title>Node11&#45;&gt;Node3</title>
<path fill="none" stroke="midnightblue" d="M283.645,-52.7078C321.852,-55.9549 371.889,-60.8023 416,-67 434.453,-69.5927 454.632,-73.1357 472.233,-76.46"/>
<polygon fill="midnightblue" stroke="midnightblue" points="283.453,-49.1797 273.197,-51.8346 282.87,-56.1554 283.453,-49.1797"/>
</g>
<!-- Node12&#45;&gt;Node3 -->
<g id="edge15" class="edge"><title>Node12&#45;&gt;Node3</title>
<path fill="none" stroke="midnightblue" d="M280.964,-21.622C319.588,-29.5898 371.053,-40.8801 416,-53 442.04,-60.0216 471.283,-69.4957 492.026,-76.4914"/>
<polygon fill="midnightblue" stroke="midnightblue" points="281.43,-18.1449 270.931,-19.5674 280.026,-25.0025 281.43,-18.1449"/>
</g>
</g>
</svg>
        <g id="navigator" transform="translate(0 0)" fill="#404254">
                <rect fill="#f2f5e9" fill-opacity="0.5" stroke="#606060" stroke-width=".5" x="0" y="0" width="60" height="60"/>
                <use id="zoomplus" xlink:href="#zoomPlus" x="17" y="9" onmousedown="handleZoom(evt,'in')"/>
                <use id="zoomminus" xlink:href="#zoomMin" x="42" y="9" onmousedown="handleZoom(evt,'out')"/>
                <use id="reset" xlink:href="#resetDef" x="30" y="36" onmousedown="handleReset()"/>
                <g id="arrowUp" xlink:href="#dirArrow" transform="translate(30 24)" onmousedown="handlePan(0,-1)">
                  <use xlink:href="#rim" fill="#404040">
                        <set attributeName="fill" to="#808080" begin="arrowUp.mouseover" end="arrowUp.mouseout"/>
                  </use>
                  <path fill="none" stroke="white" stroke-width="1.5" d="M0,-3.0v7 M-2.5,-0.5L0,-3.0L2.5,-0.5"/>
                </g>
                <g id="arrowRight" xlink:href="#dirArrow" transform="rotate(90) translate(36 -43)" onmousedown="handlePan(1,0)">
                  <use xlink:href="#rim" fill="#404040">
                        <set attributeName="fill" to="#808080" begin="arrowRight.mouseover" end="arrowRight.mouseout"/>
                  </use>
                  <path fill="none" stroke="white" stroke-width="1.5" d="M0,-3.0v7 M-2.5,-0.5L0,-3.0L2.5,-0.5"/>
                </g>
                <g id="arrowDown" xlink:href="#dirArrow" transform="rotate(180) translate(-30 -48)" onmousedown="handlePan(0,1)">
                  <use xlink:href="#rim" fill="#404040">
                        <set attributeName="fill" to="#808080" begin="arrowDown.mouseover" end="arrowDown.mouseout"/>
                  </use>
                  <path fill="none" stroke="white" stroke-width="1.5" d="M0,-3.0v7 M-2.5,-0.5L0,-3.0L2.5,-0.5"/>
                </g>
                <g id="arrowLeft" xlink:href="#dirArrow" transform="rotate(270) translate(-36 17)" onmousedown="handlePan(-1,0)">
                  <use xlink:href="#rim" fill="#404040">
                        <set attributeName="fill" to="#808080" begin="arrowLeft.mouseover" end="arrowLeft.mouseout"/>
                  </use>
                  <path fill="none" stroke="white" stroke-width="1.5" d="M0,-3.0v7 M-2.5,-0.5L0,-3.0L2.5,-0.5"/>
                </g>
        </g>
        <svg viewBox="0 0 15 15" width="100%" height="30px" preserveAspectRatio="xMaxYMin meet">
         <g id="arrow_out" transform="scale(0.3 0.3)">
          <a xlink:href="classCopter_af5bd781d8cf627bff05fbc4c038854d3_icgraph_org.svg" target="_base">
           <rect id="button" ry="5" rx="5" y="6" x="6" height="38" width="38"
                fill="#f2f5e9" fill-opacity="0.5" stroke="#606060" stroke-width="1.0"/>
           <path id="arrow"
             d="M 11.500037,31.436501 C 11.940474,20.09759 22.043105,11.32322 32.158766,21.979434 L 37.068811,17.246167 C 37.068811,17.246167 37.088388,32 37.088388,32 L 22.160133,31.978069 C 22.160133,31.978069 26.997745,27.140456 26.997745,27.140456 C 18.528582,18.264221 13.291696,25.230495 11.500037,31.436501 z"
             style="fill:#404040;"/>
          </a>
         </g>
        </svg>
</svg>
