<?xml version="1.0" encoding="UTF-8" standalone="no"?>
<!DOCTYPE svg PUBLIC "-//W3C//DTD SVG 1.1//EN"
 "http://www.w3.org/Graphics/SVG/1.1/DTD/svg11.dtd">
<!-- Generated by graphviz version 2.38.0 (20140413.2041)
 -->
<!-- Title: Copter::print_radio_values Pages: 1 -->
<svg width="284pt" height="154pt"
 viewBox="0.00 0.00 284.00 154.00" xmlns="http://www.w3.org/2000/svg" xmlns:xlink="http://www.w3.org/1999/xlink">
<g id="graph0" class="graph" transform="scale(1 1) rotate(0) translate(4 150)">
<title>Copter::print_radio_values</title>
<polygon fill="white" stroke="none" points="-4,4 -4,-150 280,-150 280,4 -4,4"/>
<!-- Node1 -->
<g id="node1" class="node"><title>Node1</title>
<polygon fill="#bfbfbf" stroke="black" points="0,-55 0,-85 97,-85 97,-55 0,-55"/>
<text text-anchor="start" x="8" y="-73" font-family="Helvetica,sans-Serif" font-size="10.00">Copter::print_radio</text>
<text text-anchor="middle" x="48.5" y="-62" font-family="Helvetica,sans-Serif" font-size="10.00">_values</text>
</g>
<!-- Node2 -->
<g id="node2" class="node"><title>Node2</title>
<g id="a_node2"><a doxygen="/home/ubuntu/ardupilot/docs/tags/libraries:../libraries/" xlink:href="../libraries/classRC__Channels.html#a6c55102c24c5a570264bf14b1bfdeb35" target="_top" xlink:title="RC_Channels::rc_channel">
<polygon fill="white" stroke="black" points="139,-126.5 139,-145.5 270,-145.5 270,-126.5 139,-126.5"/>
<text text-anchor="middle" x="204.5" y="-133.5" font-family="Helvetica,sans-Serif" font-size="10.00">RC_Channels::rc_channel</text>
</a>
</g>
</g>
<!-- Node1&#45;&gt;Node2 -->
<g id="edge1" class="edge"><title>Node1&#45;&gt;Node2</title>
<path fill="none" stroke="midnightblue" d="M72.8225,-85.2163C89.1456,-95.3363 111.749,-108.315 133,-117 138.852,-119.392 145.1,-121.573 151.368,-123.534"/>
<polygon fill="midnightblue" stroke="midnightblue" points="150.596,-126.956 161.178,-126.435 152.581,-120.243 150.596,-126.956"/>
</g>
<!-- Node3 -->
<g id="node3" class="node"><title>Node3</title>
<g id="a_node3"><a doxygen="/home/ubuntu/ardupilot/docs/tags/libraries:../libraries/" xlink:href="../libraries/classAP__HAL_1_1BetterStream.html#a1042d8b81aea5fb096d1b7431d7a9484" target="_top" xlink:title="AP_HAL::BetterStream\l::printf">
<polygon fill="white" stroke="black" points="145,-77 145,-107 264,-107 264,-77 145,-77"/>
<text text-anchor="start" x="153" y="-95" font-family="Helvetica,sans-Serif" font-size="10.00">AP_HAL::BetterStream</text>
<text text-anchor="middle" x="204.5" y="-84" font-family="Helvetica,sans-Serif" font-size="10.00">::printf</text>
</a>
</g>
</g>
<!-- Node1&#45;&gt;Node3 -->
<g id="edge2" class="edge"><title>Node1&#45;&gt;Node3</title>
<path fill="none" stroke="midnightblue" d="M97.3824,-76.8403C109.226,-78.5323 122.148,-80.3783 134.77,-82.1815"/>
<polygon fill="midnightblue" stroke="midnightblue" points="134.408,-85.6651 144.802,-83.6146 135.398,-78.7355 134.408,-85.6651"/>
</g>
<!-- Node4 -->
<g id="node4" class="node"><title>Node4</title>
<g id="a_node4"><a doxygen="/home/ubuntu/ardupilot/docs/tags/libraries:../libraries/" xlink:href="../libraries/classRC__Channel.html#a28435fa792b2a6e187eb8c08d88b929c" target="_top" xlink:title="RC_Channel::get_radio_min">
<polygon fill="white" stroke="black" points="134.5,-38.5 134.5,-57.5 274.5,-57.5 274.5,-38.5 134.5,-38.5"/>
<text text-anchor="middle" x="204.5" y="-45.5" font-family="Helvetica,sans-Serif" font-size="10.00">RC_Channel::get_radio_min</text>
</a>
</g>
</g>
<!-- Node1&#45;&gt;Node4 -->
<g id="edge3" class="edge"><title>Node1&#45;&gt;Node4</title>
<path fill="none" stroke="midnightblue" d="M97.3824,-63.1597C106.786,-61.8163 116.869,-60.3759 126.941,-58.9369"/>
<polygon fill="midnightblue" stroke="midnightblue" points="127.581,-62.3812 136.985,-57.5021 126.591,-55.4516 127.581,-62.3812"/>
</g>
<!-- Node5 -->
<g id="node5" class="node"><title>Node5</title>
<g id="a_node5"><a doxygen="/home/ubuntu/ardupilot/docs/tags/libraries:../libraries/" xlink:href="../libraries/classRC__Channel.html#a8e742b258b4b600ec69fa4c5580df20a" target="_top" xlink:title="RC_Channel::get_radio_max">
<polygon fill="white" stroke="black" points="133,-0.5 133,-19.5 276,-19.5 276,-0.5 133,-0.5"/>
<text text-anchor="middle" x="204.5" y="-7.5" font-family="Helvetica,sans-Serif" font-size="10.00">RC_Channel::get_radio_max</text>
</a>
</g>
</g>
<!-- Node1&#45;&gt;Node5 -->
<g id="edge4" class="edge"><title>Node1&#45;&gt;Node5</title>
<path fill="none" stroke="midnightblue" d="M76.7392,-54.9593C92.7772,-46.5291 113.652,-36.2791 133,-29 139.377,-26.6008 146.184,-24.3715 152.96,-22.3465"/>
<polygon fill="midnightblue" stroke="midnightblue" points="154.158,-25.6443 162.81,-19.5298 152.233,-18.914 154.158,-25.6443"/>
</g>
</g>
</svg>
