<?xml version="1.0" encoding="UTF-8" standalone="no"?>
<!DOCTYPE svg PUBLIC "-//W3C//DTD SVG 1.1//EN"
 "http://www.w3.org/Graphics/SVG/1.1/DTD/svg11.dtd">
<!-- Generated by graphviz version 2.38.0 (20140413.2041)
 -->
<!-- Title: Copter::esc_calibration_auto Pages: 1 -->
<svg width="928pt" height="154pt"
 viewBox="0.00 0.00 928.00 154.00" xmlns="http://www.w3.org/2000/svg" xmlns:xlink="http://www.w3.org/1999/xlink">
<g id="graph0" class="graph" transform="scale(1 1) rotate(0) translate(4 150)">
<title>Copter::esc_calibration_auto</title>
<polygon fill="white" stroke="none" points="-4,4 -4,-150 924,-150 924,4 -4,4"/>
<!-- Node1 -->
<g id="node1" class="node"><title>Node1</title>
<polygon fill="#bfbfbf" stroke="black" points="0,-66.5 0,-85.5 141,-85.5 141,-66.5 0,-66.5"/>
<text text-anchor="middle" x="70.5" y="-73.5" font-family="Helvetica,sans-Serif" font-size="10.00">Copter::esc_calibration_auto</text>
</g>
<!-- Node2 -->
<g id="node2" class="node"><title>Node2</title>
<g id="a_node2"><a xlink:href="classCopter.html#af0284b6bd2b24b55c38661665fc50807" target="_top" xlink:title="Copter::esc_calibration\l_startup_check">
<polygon fill="white" stroke="black" points="177,-61 177,-91 294,-91 294,-61 177,-61"/>
<text text-anchor="start" x="185" y="-79" font-family="Helvetica,sans-Serif" font-size="10.00">Copter::esc_calibration</text>
<text text-anchor="middle" x="235.5" y="-68" font-family="Helvetica,sans-Serif" font-size="10.00">_startup_check</text>
</a>
</g>
</g>
<!-- Node1&#45;&gt;Node2 -->
<g id="edge1" class="edge"><title>Node1&#45;&gt;Node2</title>
<path fill="none" stroke="midnightblue" d="M151.234,-76C159.897,-76 168.587,-76 176.912,-76"/>
<polygon fill="midnightblue" stroke="midnightblue" points="151.1,-72.5001 141.099,-76 151.099,-79.5001 151.1,-72.5001"/>
</g>
<!-- Node3 -->
<g id="node3" class="node"><title>Node3</title>
<g id="a_node3"><a xlink:href="classCopter.html#aa0807aaa2460671f21b21c7f082a297d" target="_top" xlink:title="Copter::init_rc_out">
<polygon fill="white" stroke="black" points="330,-66.5 330,-85.5 427,-85.5 427,-66.5 330,-66.5"/>
<text text-anchor="middle" x="378.5" y="-73.5" font-family="Helvetica,sans-Serif" font-size="10.00">Copter::init_rc_out</text>
</a>
</g>
</g>
<!-- Node2&#45;&gt;Node3 -->
<g id="edge2" class="edge"><title>Node2&#45;&gt;Node3</title>
<path fill="none" stroke="midnightblue" d="M304.354,-76C313.003,-76 321.705,-76 329.939,-76"/>
<polygon fill="midnightblue" stroke="midnightblue" points="304.257,-72.5001 294.257,-76 304.257,-79.5001 304.257,-72.5001"/>
</g>
<!-- Node4 -->
<g id="node4" class="node"><title>Node4</title>
<g id="a_node4"><a xlink:href="classCopter.html#abd3ea1d00d3c109e18a5ab0ae08aea4f" target="_top" xlink:title="Copter::mavlink_compassmot">
<polygon fill="white" stroke="black" points="463,-126.5 463,-145.5 610,-145.5 610,-126.5 463,-126.5"/>
<text text-anchor="middle" x="536.5" y="-133.5" font-family="Helvetica,sans-Serif" font-size="10.00">Copter::mavlink_compassmot</text>
</a>
</g>
</g>
<!-- Node3&#45;&gt;Node4 -->
<g id="edge3" class="edge"><title>Node3&#45;&gt;Node4</title>
<path fill="none" stroke="midnightblue" d="M409.49,-89.684C425.277,-96.6948 445.037,-105.17 463,-112 476.508,-117.137 491.657,-122.25 504.6,-126.429"/>
<polygon fill="midnightblue" stroke="midnightblue" points="410.783,-86.4281 400.225,-85.5358 407.922,-92.8169 410.783,-86.4281"/>
</g>
<!-- Node5 -->
<g id="node5" class="node"><title>Node5</title>
<g id="a_node5"><a xlink:href="classCopter.html#a463474e8d6d99855217b8ec3dba27d63" target="_top" xlink:title="Copter::gcs_set_mode">
<polygon fill="white" stroke="black" points="646,-44.5 646,-63.5 762,-63.5 762,-44.5 646,-44.5"/>
<text text-anchor="middle" x="704" y="-51.5" font-family="Helvetica,sans-Serif" font-size="10.00">Copter::gcs_set_mode</text>
</a>
</g>
</g>
<!-- Node3&#45;&gt;Node5 -->
<g id="edge4" class="edge"><title>Node3&#45;&gt;Node5</title>
<path fill="none" stroke="midnightblue" d="M437.661,-81.3648C484.431,-84.5732 551.719,-86.6968 610,-79 632.211,-76.0668 656.65,-69.3546 674.9,-63.6232"/>
<polygon fill="midnightblue" stroke="midnightblue" points="437.641,-77.8543 427.414,-80.622 437.135,-84.8359 437.641,-77.8543"/>
</g>
<!-- Node7 -->
<g id="node7" class="node"><title>Node7</title>
<g id="a_node7"><a xlink:href="classCopter.html#a79a1d0d0c01a287893782f396b69f662" target="_top" xlink:title="Copter::mavlink_motor\l_test_start">
<polygon fill="white" stroke="black" points="478.5,-39 478.5,-69 594.5,-69 594.5,-39 478.5,-39"/>
<text text-anchor="start" x="486.5" y="-57" font-family="Helvetica,sans-Serif" font-size="10.00">Copter::mavlink_motor</text>
<text text-anchor="middle" x="536.5" y="-46" font-family="Helvetica,sans-Serif" font-size="10.00">_test_start</text>
</a>
</g>
</g>
<!-- Node3&#45;&gt;Node7 -->
<g id="edge6" class="edge"><title>Node3&#45;&gt;Node7</title>
<path fill="none" stroke="midnightblue" d="M437.206,-67.8619C450.61,-65.9717 464.872,-63.9603 478.256,-62.0729"/>
<polygon fill="midnightblue" stroke="midnightblue" points="436.566,-64.4175 427.153,-69.2797 437.544,-71.3489 436.566,-64.4175"/>
</g>
<!-- Node8 -->
<g id="node8" class="node"><title>Node8</title>
<g id="a_node8"><a xlink:href="classCopter.html#a3dd81483501146cda2aec5d898c2592b" target="_top" xlink:title="Copter::init_ardupilot">
<polygon fill="white" stroke="black" points="483,-0.5 483,-19.5 590,-19.5 590,-0.5 483,-0.5"/>
<text text-anchor="middle" x="536.5" y="-7.5" font-family="Helvetica,sans-Serif" font-size="10.00">Copter::init_ardupilot</text>
</a>
</g>
</g>
<!-- Node3&#45;&gt;Node8 -->
<g id="edge8" class="edge"><title>Node3&#45;&gt;Node8</title>
<path fill="none" stroke="midnightblue" d="M402.532,-60.9052C418.867,-50.7399 441.601,-37.6585 463,-29 472.046,-25.3396 482.015,-22.1931 491.589,-19.5737"/>
<polygon fill="midnightblue" stroke="midnightblue" points="400.284,-58.1868 393.713,-66.498 404.032,-64.0984 400.284,-58.1868"/>
</g>
<!-- Node6 -->
<g id="node6" class="node"><title>Node6</title>
<g id="a_node6"><a xlink:href="classGCS__MAVLINK__Copter.html#afe85f88545dfa66f9100ed341cf5f79b" target="_top" xlink:title="GCS_MAVLINK_Copter\l::handleMessage">
<polygon fill="white" stroke="black" points="798,-39 798,-69 920,-69 920,-39 798,-39"/>
<text text-anchor="start" x="806" y="-57" font-family="Helvetica,sans-Serif" font-size="10.00">GCS_MAVLINK_Copter</text>
<text text-anchor="middle" x="859" y="-46" font-family="Helvetica,sans-Serif" font-size="10.00">::handleMessage</text>
</a>
</g>
</g>
<!-- Node5&#45;&gt;Node6 -->
<g id="edge5" class="edge"><title>Node5&#45;&gt;Node6</title>
<path fill="none" stroke="midnightblue" d="M772.61,-54C781.057,-54 789.651,-54 797.972,-54"/>
<polygon fill="midnightblue" stroke="midnightblue" points="772.407,-50.5001 762.407,-54 772.407,-57.5001 772.407,-50.5001"/>
</g>
<!-- Node7&#45;&gt;Node5 -->
<g id="edge7" class="edge"><title>Node7&#45;&gt;Node5</title>
<path fill="none" stroke="midnightblue" d="M605.149,-54C618.701,-54 632.812,-54 645.962,-54"/>
<polygon fill="midnightblue" stroke="midnightblue" points="604.919,-50.5001 594.919,-54 604.919,-57.5001 604.919,-50.5001"/>
</g>
<!-- Node8&#45;&gt;Node5 -->
<g id="edge10" class="edge"><title>Node8&#45;&gt;Node5</title>
<path fill="none" stroke="midnightblue" d="M583.702,-22.0615C592.439,-24.3557 601.502,-26.7443 610,-29 629.068,-34.0614 650.317,-39.7685 667.685,-44.4505"/>
<polygon fill="midnightblue" stroke="midnightblue" points="584.583,-18.6744 574.023,-19.5235 582.808,-25.4455 584.583,-18.6744"/>
</g>
<!-- Node9 -->
<g id="node9" class="node"><title>Node9</title>
<g id="a_node9"><a xlink:href="classCopter.html#ad672001a9ffbac72fe0ec2d8e336a4aa" target="_top" xlink:title="Copter::setup">
<polygon fill="white" stroke="black" points="666,-0.5 666,-19.5 742,-19.5 742,-0.5 666,-0.5"/>
<text text-anchor="middle" x="704" y="-7.5" font-family="Helvetica,sans-Serif" font-size="10.00">Copter::setup</text>
</a>
</g>
</g>
<!-- Node8&#45;&gt;Node9 -->
<g id="edge9" class="edge"><title>Node8&#45;&gt;Node9</title>
<path fill="none" stroke="midnightblue" d="M600.61,-10C622.636,-10 646.633,-10 665.855,-10"/>
<polygon fill="midnightblue" stroke="midnightblue" points="600.32,-6.5001 590.32,-10 600.32,-13.5001 600.32,-6.5001"/>
</g>
</g>
</svg>
