<?xml version="1.0" encoding="UTF-8" standalone="no"?>
<!DOCTYPE svg PUBLIC "-//W3C//DTD SVG 1.1//EN"
 "http://www.w3.org/Graphics/SVG/1.1/DTD/svg11.dtd">
<!-- Generated by graphviz version 2.38.0 (20140413.2041)
 -->
<!-- Title: Copter::update_super_simple_bearing Pages: 1 -->
<svg width="1073pt" height="166pt"
 viewBox="0.00 0.00 1073.00 166.49" xmlns="http://www.w3.org/2000/svg" xmlns:xlink="http://www.w3.org/1999/xlink">
<g id="graph0" class="graph" transform="scale(1 1) rotate(0) translate(4 162.487)">
<title>Copter::update_super_simple_bearing</title>
<polygon fill="white" stroke="none" points="-4,4 -4,-162.487 1069,-162.487 1069,4 -4,4"/>
<!-- Node1 -->
<g id="node1" class="node"><title>Node1</title>
<polygon fill="#bfbfbf" stroke="black" points="0,-17 0,-47 110,-47 110,-17 0,-17"/>
<text text-anchor="start" x="8" y="-35" font-family="Helvetica,sans-Serif" font-size="10.00">Copter::update_super</text>
<text text-anchor="middle" x="55" y="-24" font-family="Helvetica,sans-Serif" font-size="10.00">_simple_bearing</text>
</g>
<!-- Node2 -->
<g id="node2" class="node"><title>Node2</title>
<g id="a_node2"><a xlink:href="classCopter.html#aefcace28f5e2b55dc1070fce586efcfb" target="_top" xlink:title="Copter::calc_home_distance\l_and_bearing">
<polygon fill="white" stroke="black" points="146,-39 146,-69 287,-69 287,-39 146,-39"/>
<text text-anchor="start" x="154" y="-57" font-family="Helvetica,sans-Serif" font-size="10.00">Copter::calc_home_distance</text>
<text text-anchor="middle" x="216.5" y="-46" font-family="Helvetica,sans-Serif" font-size="10.00">_and_bearing</text>
</a>
</g>
</g>
<!-- Node1&#45;&gt;Node2 -->
<g id="edge1" class="edge"><title>Node1&#45;&gt;Node2</title>
<path fill="none" stroke="midnightblue" d="M120.472,-40.8927C128.807,-42.0424 137.374,-43.224 145.789,-44.3847"/>
<polygon fill="midnightblue" stroke="midnightblue" points="120.829,-37.4089 110.445,-39.5096 119.873,-44.3433 120.829,-37.4089"/>
</g>
<!-- Node9 -->
<g id="node9" class="node"><title>Node9</title>
<g id="a_node9"><a xlink:href="classCopter.html#a89b3b12b42d9363db4291d4219097af3" target="_top" xlink:title="Copter::set_simple_mode">
<polygon fill="white" stroke="black" points="152.5,-0.5 152.5,-19.5 280.5,-19.5 280.5,-0.5 152.5,-0.5"/>
<text text-anchor="middle" x="216.5" y="-7.5" font-family="Helvetica,sans-Serif" font-size="10.00">Copter::set_simple_mode</text>
</a>
</g>
</g>
<!-- Node1&#45;&gt;Node9 -->
<g id="edge12" class="edge"><title>Node1&#45;&gt;Node9</title>
<path fill="none" stroke="midnightblue" d="M120.378,-23.1203C130.883,-21.6713 141.757,-20.1714 152.235,-18.7262"/>
<polygon fill="midnightblue" stroke="midnightblue" points="119.873,-19.6567 110.445,-24.4904 120.829,-26.5911 119.873,-19.6567"/>
</g>
<!-- Node3 -->
<g id="node3" class="node"><title>Node3</title>
<g id="a_node3"><a xlink:href="classCopter.html#aeb2000c7b535bf3bf01c559e1c009844" target="_top" xlink:title="Copter::calc_distance\l_and_bearing">
<polygon fill="white" stroke="black" points="323,-70 323,-100 435,-100 435,-70 323,-70"/>
<text text-anchor="start" x="331" y="-88" font-family="Helvetica,sans-Serif" font-size="10.00">Copter::calc_distance</text>
<text text-anchor="middle" x="379" y="-77" font-family="Helvetica,sans-Serif" font-size="10.00">_and_bearing</text>
</a>
</g>
</g>
<!-- Node2&#45;&gt;Node3 -->
<g id="edge2" class="edge"><title>Node2&#45;&gt;Node3</title>
<path fill="none" stroke="midnightblue" d="M297.458,-69.4436C306.022,-71.0977 314.59,-72.7525 322.772,-74.3329"/>
<polygon fill="midnightblue" stroke="midnightblue" points="297.913,-65.9669 287.431,-67.5069 296.586,-72.8399 297.913,-65.9669"/>
</g>
<!-- Node4 -->
<g id="node4" class="node"><title>Node4</title>
<g id="a_node4"><a xlink:href="classCopter.html#a463474e8d6d99855217b8ec3dba27d63" target="_top" xlink:title="Copter::gcs_set_mode">
<polygon fill="white" stroke="black" points="791,-94.5 791,-113.5 907,-113.5 907,-94.5 791,-94.5"/>
<text text-anchor="middle" x="849" y="-101.5" font-family="Helvetica,sans-Serif" font-size="10.00">Copter::gcs_set_mode</text>
</a>
</g>
</g>
<!-- Node2&#45;&gt;Node4 -->
<g id="edge11" class="edge"><title>Node2&#45;&gt;Node4</title>
<path fill="none" stroke="midnightblue" d="M295.146,-37.0545C401.556,-17.1798 597.447,7.34083 755,-41 789.305,-51.5255 822.34,-79.4665 838.209,-94.3507"/>
<polygon fill="midnightblue" stroke="midnightblue" points="294.301,-33.6524 285.132,-38.9607 295.61,-40.5289 294.301,-33.6524"/>
</g>
<!-- Node3&#45;&gt;Node4 -->
<g id="edge3" class="edge"><title>Node3&#45;&gt;Node4</title>
<path fill="none" stroke="midnightblue" d="M419.828,-104.246C435.466,-111.103 453.768,-118.287 471,-123 593.116,-156.397 631.118,-171.096 755,-145 783.489,-138.999 813.888,-123.701 831.9,-113.584"/>
<polygon fill="midnightblue" stroke="midnightblue" points="421.025,-100.947 410.469,-100.043 418.157,-107.332 421.025,-100.947"/>
</g>
<!-- Node6 -->
<g id="node6" class="node"><title>Node6</title>
<g id="a_node6"><a xlink:href="classCopter.html#a72a557f0cc50a672db8223f628363b21" target="_top" xlink:title="Copter::init_arm_motors">
<polygon fill="white" stroke="black" points="471,-94.5 471,-113.5 593,-113.5 593,-94.5 471,-94.5"/>
<text text-anchor="middle" x="532" y="-101.5" font-family="Helvetica,sans-Serif" font-size="10.00">Copter::init_arm_motors</text>
</a>
</g>
</g>
<!-- Node3&#45;&gt;Node6 -->
<g id="edge5" class="edge"><title>Node3&#45;&gt;Node6</title>
<path fill="none" stroke="midnightblue" d="M445.51,-93.243C453.915,-94.3006 462.489,-95.3794 470.804,-96.4256"/>
<polygon fill="midnightblue" stroke="midnightblue" points="445.728,-89.7429 435.369,-91.967 444.854,-96.6881 445.728,-89.7429"/>
</g>
<!-- Node8 -->
<g id="node8" class="node"><title>Node8</title>
<g id="a_node8"><a xlink:href="classCopter.html#a8ecff7ec6118d3d783f927551879b7e9" target="_top" xlink:title="Copter::run_nav_updates">
<polygon fill="white" stroke="black" points="629,-50.5 629,-69.5 755,-69.5 755,-50.5 629,-50.5"/>
<text text-anchor="middle" x="692" y="-57.5" font-family="Helvetica,sans-Serif" font-size="10.00">Copter::run_nav_updates</text>
</a>
</g>
</g>
<!-- Node3&#45;&gt;Node8 -->
<g id="edge9" class="edge"><title>Node3&#45;&gt;Node8</title>
<path fill="none" stroke="midnightblue" d="M445.403,-79.7425C499.446,-75.3982 575.654,-69.2722 628.797,-65.0003"/>
<polygon fill="midnightblue" stroke="midnightblue" points="444.93,-76.2692 435.242,-80.5593 445.491,-83.2467 444.93,-76.2692"/>
</g>
<!-- Node5 -->
<g id="node5" class="node"><title>Node5</title>
<g id="a_node5"><a xlink:href="classGCS__MAVLINK__Copter.html#afe85f88545dfa66f9100ed341cf5f79b" target="_top" xlink:title="GCS_MAVLINK_Copter\l::handleMessage">
<polygon fill="white" stroke="black" points="943,-89 943,-119 1065,-119 1065,-89 943,-89"/>
<text text-anchor="start" x="951" y="-107" font-family="Helvetica,sans-Serif" font-size="10.00">GCS_MAVLINK_Copter</text>
<text text-anchor="middle" x="1004" y="-96" font-family="Helvetica,sans-Serif" font-size="10.00">::handleMessage</text>
</a>
</g>
</g>
<!-- Node4&#45;&gt;Node5 -->
<g id="edge4" class="edge"><title>Node4&#45;&gt;Node5</title>
<path fill="none" stroke="midnightblue" d="M917.61,-104C926.057,-104 934.651,-104 942.972,-104"/>
<polygon fill="midnightblue" stroke="midnightblue" points="917.407,-100.5 907.407,-104 917.407,-107.5 917.407,-100.5"/>
</g>
<!-- Node6&#45;&gt;Node4 -->
<g id="edge8" class="edge"><title>Node6&#45;&gt;Node4</title>
<path fill="none" stroke="midnightblue" d="M571.785,-116.503C589.095,-121.457 609.864,-126.549 629,-129 684.546,-136.114 699.482,-136.332 755,-129 777.211,-126.067 801.65,-119.355 819.9,-113.623"/>
<polygon fill="midnightblue" stroke="midnightblue" points="572.613,-113.099 562.031,-113.624 570.631,-119.812 572.613,-113.099"/>
</g>
<!-- Node7 -->
<g id="node7" class="node"><title>Node7</title>
<g id="a_node7"><a xlink:href="classCopter.html#aeda76eb57229df64b95b257218007640" target="_top" xlink:title="Copter::arm_motors\l_check">
<polygon fill="white" stroke="black" points="640,-89 640,-119 744,-119 744,-89 640,-89"/>
<text text-anchor="start" x="648" y="-107" font-family="Helvetica,sans-Serif" font-size="10.00">Copter::arm_motors</text>
<text text-anchor="middle" x="692" y="-96" font-family="Helvetica,sans-Serif" font-size="10.00">_check</text>
</a>
</g>
</g>
<!-- Node6&#45;&gt;Node7 -->
<g id="edge6" class="edge"><title>Node6&#45;&gt;Node7</title>
<path fill="none" stroke="midnightblue" d="M603.433,-104C615.745,-104 628.338,-104 639.996,-104"/>
<polygon fill="midnightblue" stroke="midnightblue" points="603.184,-100.5 593.184,-104 603.184,-107.5 603.184,-100.5"/>
</g>
<!-- Node7&#45;&gt;Node4 -->
<g id="edge7" class="edge"><title>Node7&#45;&gt;Node4</title>
<path fill="none" stroke="midnightblue" d="M754.206,-104C766.328,-104 779.007,-104 790.984,-104"/>
<polygon fill="midnightblue" stroke="midnightblue" points="754.182,-100.5 744.182,-104 754.182,-107.5 754.182,-100.5"/>
</g>
<!-- Node8&#45;&gt;Node4 -->
<g id="edge10" class="edge"><title>Node8&#45;&gt;Node4</title>
<path fill="none" stroke="midnightblue" d="M736.475,-72.3412C761.162,-79.3493 791.597,-87.9888 814.433,-94.4713"/>
<polygon fill="midnightblue" stroke="midnightblue" points="737.208,-68.9113 726.633,-69.5473 735.297,-75.6452 737.208,-68.9113"/>
</g>
</g>
</svg>
