<?xml version="1.0" encoding="UTF-8" standalone="no"?>
<!DOCTYPE svg PUBLIC "-//W3C//DTD SVG 1.1//EN"
 "http://www.w3.org/Graphics/SVG/1.1/DTD/svg11.dtd">
<!-- Generated by graphviz version 2.38.0 (20140413.2041)
 -->
<!-- Title: Copter::setup_set Pages: 1 -->
<svg width="413pt" height="39pt"
 viewBox="0.00 0.00 413.00 39.00" xmlns="http://www.w3.org/2000/svg" xmlns:xlink="http://www.w3.org/1999/xlink">
<g id="graph0" class="graph" transform="scale(1 1) rotate(0) translate(4 35)">
<title>Copter::setup_set</title>
<polygon fill="white" stroke="none" points="-4,4 -4,-35 409,-35 409,4 -4,4"/>
<!-- Node1 -->
<g id="node1" class="node"><title>Node1</title>
<polygon fill="#bfbfbf" stroke="black" points="0,-6 0,-25 95,-25 95,-6 0,-6"/>
<text text-anchor="middle" x="47.5" y="-13" font-family="Helvetica,sans-Serif" font-size="10.00">Copter::setup_set</text>
</g>
<!-- Node2 -->
<g id="node2" class="node"><title>Node2</title>
<g id="a_node2"><a xlink:href="classCopter.html#a463474e8d6d99855217b8ec3dba27d63" target="_top" xlink:title="Copter::gcs_set_mode">
<polygon fill="white" stroke="black" points="131,-6 131,-25 247,-25 247,-6 131,-6"/>
<text text-anchor="middle" x="189" y="-13" font-family="Helvetica,sans-Serif" font-size="10.00">Copter::gcs_set_mode</text>
</a>
</g>
</g>
<!-- Node1&#45;&gt;Node2 -->
<g id="edge1" class="edge"><title>Node1&#45;&gt;Node2</title>
<path fill="none" stroke="midnightblue" d="M105.42,-15.5C113.816,-15.5 122.469,-15.5 130.87,-15.5"/>
<polygon fill="midnightblue" stroke="midnightblue" points="105.34,-12.0001 95.3396,-15.5 105.34,-19.0001 105.34,-12.0001"/>
</g>
<!-- Node3 -->
<g id="node3" class="node"><title>Node3</title>
<g id="a_node3"><a xlink:href="classGCS__MAVLINK__Copter.html#afe85f88545dfa66f9100ed341cf5f79b" target="_top" xlink:title="GCS_MAVLINK_Copter\l::handleMessage">
<polygon fill="white" stroke="black" points="283,-0.5 283,-30.5 405,-30.5 405,-0.5 283,-0.5"/>
<text text-anchor="start" x="291" y="-18.5" font-family="Helvetica,sans-Serif" font-size="10.00">GCS_MAVLINK_Copter</text>
<text text-anchor="middle" x="344" y="-7.5" font-family="Helvetica,sans-Serif" font-size="10.00">::handleMessage</text>
</a>
</g>
</g>
<!-- Node2&#45;&gt;Node3 -->
<g id="edge2" class="edge"><title>Node2&#45;&gt;Node3</title>
<path fill="none" stroke="midnightblue" d="M257.61,-15.5C266.057,-15.5 274.651,-15.5 282.972,-15.5"/>
<polygon fill="midnightblue" stroke="midnightblue" points="257.407,-12.0001 247.407,-15.5 257.407,-19.0001 257.407,-12.0001"/>
</g>
</g>
</svg>
