<?xml version="1.0" encoding="UTF-8" standalone="no"?>
<!DOCTYPE svg PUBLIC "-//W3C//DTD SVG 1.1//EN"
 "http://www.w3.org/Graphics/SVG/1.1/DTD/svg11.dtd">
<!-- Generated by graphviz version 2.38.0 (20140413.2041)
 -->
<!-- Title: Copter::failsafe_radio_off_event Pages: 1 -->
<svg width="464pt" height="78pt"
 viewBox="0.00 0.00 464.00 77.50" xmlns="http://www.w3.org/2000/svg" xmlns:xlink="http://www.w3.org/1999/xlink">
<g id="graph0" class="graph" transform="scale(1 1) rotate(0) translate(4 73.5)">
<title>Copter::failsafe_radio_off_event</title>
<polygon fill="white" stroke="none" points="-4,4 -4,-73.5 460,-73.5 460,4 -4,4"/>
<!-- Node1 -->
<g id="node1" class="node"><title>Node1</title>
<polygon fill="#bfbfbf" stroke="black" points="0,-22.5 0,-52.5 110,-52.5 110,-22.5 0,-22.5"/>
<text text-anchor="start" x="8" y="-40.5" font-family="Helvetica,sans-Serif" font-size="10.00">Copter::failsafe_radio</text>
<text text-anchor="middle" x="55" y="-29.5" font-family="Helvetica,sans-Serif" font-size="10.00">_off_event</text>
</g>
<!-- Node2 -->
<g id="node2" class="node"><title>Node2</title>
<g id="a_node2"><a xlink:href="classCopter.html#aa3e931f1003741c7976eba9589c2b0bf" target="_top" xlink:title="Copter::Log_Write_Error">
<polygon fill="white" stroke="black" points="146,-28 146,-47 268,-47 268,-28 146,-28"/>
<text text-anchor="middle" x="207" y="-35" font-family="Helvetica,sans-Serif" font-size="10.00">Copter::Log_Write_Error</text>
</a>
</g>
</g>
<!-- Node1&#45;&gt;Node2 -->
<g id="edge1" class="edge"><title>Node1&#45;&gt;Node2</title>
<path fill="none" stroke="midnightblue" d="M110.153,-37.5C118.477,-37.5 127.173,-37.5 135.784,-37.5"/>
<polygon fill="midnightblue" stroke="midnightblue" points="135.827,-41.0001 145.827,-37.5 135.827,-34.0001 135.827,-41.0001"/>
</g>
<!-- Node3 -->
<g id="node3" class="node"><title>Node3</title>
<g id="a_node3"><a doxygen="/home/ubuntu/ardupilot/docs/tags/libraries:../libraries/" xlink:href="../libraries/namespaceAP__HAL.html#a7aa0ce7625c9680e30ff4a99940907a5" target="_top" xlink:title="AP_HAL::micros64">
<polygon fill="white" stroke="black" points="329.5,-50 329.5,-69 430.5,-69 430.5,-50 329.5,-50"/>
<text text-anchor="middle" x="380" y="-57" font-family="Helvetica,sans-Serif" font-size="10.00">AP_HAL::micros64</text>
</a>
</g>
</g>
<!-- Node2&#45;&gt;Node3 -->
<g id="edge2" class="edge"><title>Node2&#45;&gt;Node3</title>
<path fill="none" stroke="midnightblue" d="M268.288,-45.2564C284.851,-47.3873 302.8,-49.6965 319.328,-51.8229"/>
<polygon fill="midnightblue" stroke="midnightblue" points="319.046,-55.3153 329.411,-53.1201 319.939,-48.3726 319.046,-55.3153"/>
</g>
<!-- Node4 -->
<g id="node4" class="node"><title>Node4</title>
<g id="a_node4"><a doxygen="/home/ubuntu/ardupilot/docs/tags/libraries:../libraries/" xlink:href="../libraries/classDataFlash__Class.html#aa8ca9bfeeb14e9b57bcb702e479225be" target="_top" xlink:title="DataFlash_Class::WriteCritical\lBlock">
<polygon fill="white" stroke="black" points="304,-0.5 304,-30.5 456,-30.5 456,-0.5 304,-0.5"/>
<text text-anchor="start" x="312" y="-18.5" font-family="Helvetica,sans-Serif" font-size="10.00">DataFlash_Class::WriteCritical</text>
<text text-anchor="middle" x="380" y="-7.5" font-family="Helvetica,sans-Serif" font-size="10.00">Block</text>
</a>
</g>
</g>
<!-- Node2&#45;&gt;Node4 -->
<g id="edge3" class="edge"><title>Node2&#45;&gt;Node4</title>
<path fill="none" stroke="midnightblue" d="M268.288,-29.7436C276.582,-28.6766 285.223,-27.5649 293.859,-26.4538"/>
<polygon fill="midnightblue" stroke="midnightblue" points="294.502,-29.9 303.974,-25.1525 293.609,-22.9573 294.502,-29.9"/>
</g>
</g>
</svg>
