<?xml version="1.0" encoding="UTF-8" standalone="no"?>
<!DOCTYPE svg PUBLIC "-//W3C//DTD SVG 1.1//EN"
 "http://www.w3.org/Graphics/SVG/1.1/DTD/svg11.dtd">
<!-- Generated by graphviz version 2.38.0 (20140413.2041)
 -->
<!-- Title: Copter::auto_run Pages: 1 -->
<svg width="580pt" height="78pt"
 viewBox="0.00 0.00 580.00 77.50" xmlns="http://www.w3.org/2000/svg" xmlns:xlink="http://www.w3.org/1999/xlink">
<g id="graph0" class="graph" transform="scale(1 1) rotate(0) translate(4 73.5)">
<title>Copter::auto_run</title>
<polygon fill="white" stroke="none" points="-4,4 -4,-73.5 576,-73.5 576,4 -4,4"/>
<!-- Node1 -->
<g id="node1" class="node"><title>Node1</title>
<polygon fill="#bfbfbf" stroke="black" points="0,-28 0,-47 89,-47 89,-28 0,-28"/>
<text text-anchor="middle" x="44.5" y="-35" font-family="Helvetica,sans-Serif" font-size="10.00">Copter::auto_run</text>
</g>
<!-- Node2 -->
<g id="node2" class="node"><title>Node2</title>
<g id="a_node2"><a xlink:href="classCopter.html#a1e967ef71b5acdd8b0c83a0471bdb581" target="_top" xlink:title="Copter::update_flight_mode">
<polygon fill="white" stroke="black" points="125,-28 125,-47 262,-47 262,-28 125,-28"/>
<text text-anchor="middle" x="193.5" y="-35" font-family="Helvetica,sans-Serif" font-size="10.00">Copter::update_flight_mode</text>
</a>
</g>
</g>
<!-- Node1&#45;&gt;Node2 -->
<g id="edge1" class="edge"><title>Node1&#45;&gt;Node2</title>
<path fill="none" stroke="midnightblue" d="M99.2168,-37.5C107.601,-37.5 116.355,-37.5 124.999,-37.5"/>
<polygon fill="midnightblue" stroke="midnightblue" points="99.2069,-34.0001 89.2068,-37.5 99.2068,-41.0001 99.2069,-34.0001"/>
</g>
<!-- Node3 -->
<g id="node3" class="node"><title>Node3</title>
<g id="a_node3"><a xlink:href="classCopter.html#a9935998c549ed56b80917705ee4522fb" target="_top" xlink:title="Copter::fast_loop">
<polygon fill="white" stroke="black" points="310,-48 310,-67 402,-67 402,-48 310,-48"/>
<text text-anchor="middle" x="356" y="-55" font-family="Helvetica,sans-Serif" font-size="10.00">Copter::fast_loop</text>
</a>
</g>
</g>
<!-- Node2&#45;&gt;Node3 -->
<g id="edge2" class="edge"><title>Node2&#45;&gt;Node3</title>
<path fill="none" stroke="midnightblue" d="M272.361,-47.2023C285.208,-48.8032 298.136,-50.4142 309.828,-51.8711"/>
<polygon fill="midnightblue" stroke="midnightblue" points="272.457,-43.6873 262.101,-45.9238 271.592,-50.6336 272.457,-43.6873"/>
</g>
<!-- Node5 -->
<g id="node5" class="node"><title>Node5</title>
<g id="a_node5"><a xlink:href="classCopter.html#a463474e8d6d99855217b8ec3dba27d63" target="_top" xlink:title="Copter::gcs_set_mode">
<polygon fill="white" stroke="black" points="298,-9 298,-28 414,-28 414,-9 298,-9"/>
<text text-anchor="middle" x="356" y="-16" font-family="Helvetica,sans-Serif" font-size="10.00">Copter::gcs_set_mode</text>
</a>
</g>
</g>
<!-- Node2&#45;&gt;Node5 -->
<g id="edge4" class="edge"><title>Node2&#45;&gt;Node5</title>
<path fill="none" stroke="midnightblue" d="M272.215,-28.3001C280.867,-27.2759 289.558,-26.2471 297.885,-25.2613"/>
<polygon fill="midnightblue" stroke="midnightblue" points="271.62,-24.8459 262.101,-29.4974 272.443,-31.7974 271.62,-24.8459"/>
</g>
<!-- Node4 -->
<g id="node4" class="node"><title>Node4</title>
<g id="a_node4"><a xlink:href="classCopter.html#ac879265c540a24609ead56c389ba4b02" target="_top" xlink:title="Copter::loop">
<polygon fill="white" stroke="black" points="476,-50 476,-69 546,-69 546,-50 476,-50"/>
<text text-anchor="middle" x="511" y="-57" font-family="Helvetica,sans-Serif" font-size="10.00">Copter::loop</text>
</a>
</g>
</g>
<!-- Node3&#45;&gt;Node4 -->
<g id="edge3" class="edge"><title>Node3&#45;&gt;Node4</title>
<path fill="none" stroke="midnightblue" d="M412.299,-58.2229C433.573,-58.501 457.223,-58.8101 475.926,-59.0546"/>
<polygon fill="midnightblue" stroke="midnightblue" points="412.122,-54.7204 402.078,-58.0892 412.031,-61.7198 412.122,-54.7204"/>
</g>
<!-- Node6 -->
<g id="node6" class="node"><title>Node6</title>
<g id="a_node6"><a xlink:href="classGCS__MAVLINK__Copter.html#afe85f88545dfa66f9100ed341cf5f79b" target="_top" xlink:title="GCS_MAVLINK_Copter\l::handleMessage">
<polygon fill="white" stroke="black" points="450,-0.5 450,-30.5 572,-30.5 572,-0.5 450,-0.5"/>
<text text-anchor="start" x="458" y="-18.5" font-family="Helvetica,sans-Serif" font-size="10.00">GCS_MAVLINK_Copter</text>
<text text-anchor="middle" x="511" y="-7.5" font-family="Helvetica,sans-Serif" font-size="10.00">::handleMessage</text>
</a>
</g>
</g>
<!-- Node5&#45;&gt;Node6 -->
<g id="edge5" class="edge"><title>Node5&#45;&gt;Node6</title>
<path fill="none" stroke="midnightblue" d="M424.61,-17.1743C433.057,-17.0087 441.651,-16.8402 449.972,-16.677"/>
<polygon fill="midnightblue" stroke="midnightblue" points="424.336,-13.6789 414.407,-17.3744 424.474,-20.6776 424.336,-13.6789"/>
</g>
</g>
</svg>
