<?xml version="1.0" encoding="UTF-8" standalone="no"?>
<!DOCTYPE svg PUBLIC "-//W3C//DTD SVG 1.1//EN"
 "http://www.w3.org/Graphics/SVG/1.1/DTD/svg11.dtd">
<!-- Generated by graphviz version 2.38.0 (20140413.2041)
 -->
<!-- Title: Copter::send_fence_status Pages: 1 -->
<svg width="425pt" height="154pt"
 viewBox="0.00 0.00 425.00 154.00" xmlns="http://www.w3.org/2000/svg" xmlns:xlink="http://www.w3.org/1999/xlink">
<g id="graph0" class="graph" transform="scale(1 1) rotate(0) translate(4 150)">
<title>Copter::send_fence_status</title>
<polygon fill="white" stroke="none" points="-4,4 -4,-150 421,-150 421,4 -4,4"/>
<!-- Node1 -->
<g id="node1" class="node"><title>Node1</title>
<polygon fill="#bfbfbf" stroke="black" points="0,-61 0,-91 102,-91 102,-61 0,-61"/>
<text text-anchor="start" x="8" y="-79" font-family="Helvetica,sans-Serif" font-size="10.00">Copter::send_fence</text>
<text text-anchor="middle" x="51" y="-68" font-family="Helvetica,sans-Serif" font-size="10.00">_status</text>
</g>
<!-- Node2 -->
<g id="node2" class="node"><title>Node2</title>
<g id="a_node2"><a xlink:href="classCopter.html#a100bfd731c1a445cafe8aa0e77ab407b" target="_top" xlink:title="Copter::fence_send\l_mavlink_status">
<polygon fill="white" stroke="black" points="138,-61 138,-91 240,-91 240,-61 138,-61"/>
<text text-anchor="start" x="146" y="-79" font-family="Helvetica,sans-Serif" font-size="10.00">Copter::fence_send</text>
<text text-anchor="middle" x="189" y="-68" font-family="Helvetica,sans-Serif" font-size="10.00">_mavlink_status</text>
</a>
</g>
</g>
<!-- Node1&#45;&gt;Node2 -->
<g id="edge1" class="edge"><title>Node1&#45;&gt;Node2</title>
<path fill="none" stroke="midnightblue" d="M102.255,-76C110.539,-76 119.201,-76 127.701,-76"/>
<polygon fill="midnightblue" stroke="midnightblue" points="127.952,-79.5001 137.952,-76 127.952,-72.5001 127.952,-79.5001"/>
</g>
<!-- Node3 -->
<g id="node3" class="node"><title>Node3</title>
<g id="a_node3"><a doxygen="/home/ubuntu/ardupilot/docs/tags/libraries:../libraries/" xlink:href="../libraries/classAC__Fence.html#acdc600f19a3e4eb6de655c26f52e0968" target="_top" xlink:title="AC_Fence::enabled">
<polygon fill="white" stroke="black" points="295,-126.5 295,-145.5 398,-145.5 398,-126.5 295,-126.5"/>
<text text-anchor="middle" x="346.5" y="-133.5" font-family="Helvetica,sans-Serif" font-size="10.00">AC_Fence::enabled</text>
</a>
</g>
</g>
<!-- Node2&#45;&gt;Node3 -->
<g id="edge2" class="edge"><title>Node2&#45;&gt;Node3</title>
<path fill="none" stroke="midnightblue" d="M218.505,-91.1651C234.991,-99.5337 256.31,-109.681 276,-117 282.381,-119.372 289.19,-121.594 295.956,-123.622"/>
<polygon fill="midnightblue" stroke="midnightblue" points="295.207,-127.049 305.785,-126.451 297.143,-120.322 295.207,-127.049"/>
</g>
<!-- Node4 -->
<g id="node4" class="node"><title>Node4</title>
<g id="a_node4"><a doxygen="/home/ubuntu/ardupilot/docs/tags/libraries:../libraries/" xlink:href="../libraries/classAC__Fence.html#a57e4980284a5d418bdee8a9abcb77e68" target="_top" xlink:title="AC_Fence::get_breaches">
<polygon fill="white" stroke="black" points="282.5,-88.5 282.5,-107.5 410.5,-107.5 410.5,-88.5 282.5,-88.5"/>
<text text-anchor="middle" x="346.5" y="-95.5" font-family="Helvetica,sans-Serif" font-size="10.00">AC_Fence::get_breaches</text>
</a>
</g>
</g>
<!-- Node2&#45;&gt;Node4 -->
<g id="edge3" class="edge"><title>Node2&#45;&gt;Node4</title>
<path fill="none" stroke="midnightblue" d="M240.057,-83.082C250.389,-84.5438 261.472,-86.1118 272.431,-87.6622"/>
<polygon fill="midnightblue" stroke="midnightblue" points="272.043,-91.1421 282.434,-89.0775 273.023,-84.2111 272.043,-91.1421"/>
</g>
<!-- Node5 -->
<g id="node5" class="node"><title>Node5</title>
<g id="a_node5"><a doxygen="/home/ubuntu/ardupilot/docs/tags/libraries:../libraries/" xlink:href="../libraries/classAC__Fence.html#a4be7969293a0e57b8da59b60b6323923" target="_top" xlink:title="AC_Fence::get_breach\l_count">
<polygon fill="white" stroke="black" points="288,-39 288,-69 405,-69 405,-39 288,-39"/>
<text text-anchor="start" x="296" y="-57" font-family="Helvetica,sans-Serif" font-size="10.00">AC_Fence::get_breach</text>
<text text-anchor="middle" x="346.5" y="-46" font-family="Helvetica,sans-Serif" font-size="10.00">_count</text>
</a>
</g>
</g>
<!-- Node2&#45;&gt;Node5 -->
<g id="edge4" class="edge"><title>Node2&#45;&gt;Node5</title>
<path fill="none" stroke="midnightblue" d="M240.057,-68.918C252.107,-67.2132 265.177,-65.364 277.881,-63.5667"/>
<polygon fill="midnightblue" stroke="midnightblue" points="278.552,-67.0066 287.963,-62.1402 277.572,-60.0757 278.552,-67.0066"/>
</g>
<!-- Node6 -->
<g id="node6" class="node"><title>Node6</title>
<g id="a_node6"><a doxygen="/home/ubuntu/ardupilot/docs/tags/libraries:../libraries/" xlink:href="../libraries/classAC__Fence.html#a4894f5dd9ff8485a9ad86e18333668a0" target="_top" xlink:title="AC_Fence::get_breach_time">
<polygon fill="white" stroke="black" points="276,-0.5 276,-19.5 417,-19.5 417,-0.5 276,-0.5"/>
<text text-anchor="middle" x="346.5" y="-7.5" font-family="Helvetica,sans-Serif" font-size="10.00">AC_Fence::get_breach_time</text>
</a>
</g>
</g>
<!-- Node2&#45;&gt;Node6 -->
<g id="edge5" class="edge"><title>Node2&#45;&gt;Node6</title>
<path fill="none" stroke="midnightblue" d="M214.91,-60.8638C231.726,-51.1038 254.664,-38.6628 276,-30 282.718,-27.2723 289.942,-24.7575 297.102,-22.4983"/>
<polygon fill="midnightblue" stroke="midnightblue" points="298.209,-25.8201 306.771,-19.5801 296.187,-19.1186 298.209,-25.8201"/>
</g>
</g>
</svg>
