<?xml version="1.0" encoding="UTF-8" standalone="no"?>
<!DOCTYPE svg PUBLIC "-//W3C//DTD SVG 1.1//EN"
 "http://www.w3.org/Graphics/SVG/1.1/DTD/svg11.dtd">
<!-- Generated by graphviz version 2.38.0 (20140413.2041)
 -->
<!-- Title: Copter::calc_wp_bearing Pages: 1 -->
<svg width="314pt" height="88pt"
 viewBox="0.00 0.00 314.00 88.00" xmlns="http://www.w3.org/2000/svg" xmlns:xlink="http://www.w3.org/1999/xlink">
<g id="graph0" class="graph" transform="scale(1 1) rotate(0) translate(4 84)">
<title>Copter::calc_wp_bearing</title>
<polygon fill="white" stroke="none" points="-4,4 -4,-84 310,-84 310,4 -4,4"/>
<!-- Node1 -->
<g id="node1" class="node"><title>Node1</title>
<polygon fill="#bfbfbf" stroke="black" points="0,-30 0,-49 125,-49 125,-30 0,-30"/>
<text text-anchor="middle" x="62.5" y="-37" font-family="Helvetica,sans-Serif" font-size="10.00">Copter::calc_wp_bearing</text>
</g>
<!-- Node2 -->
<g id="node2" class="node"><title>Node2</title>
<g id="a_node2"><a doxygen="/home/ubuntu/ardupilot/docs/tags/libraries:../libraries/" xlink:href="../libraries/classAC__WPNav.html#a7f711c7661c335417cbcc28f9546688c" target="_top" xlink:title="AC_WPNav::get_loiter\l_bearing_to_target">
<polygon fill="white" stroke="black" points="175.5,-49.5 175.5,-79.5 291.5,-79.5 291.5,-49.5 175.5,-49.5"/>
<text text-anchor="start" x="183.5" y="-67.5" font-family="Helvetica,sans-Serif" font-size="10.00">AC_WPNav::get_loiter</text>
<text text-anchor="middle" x="233.5" y="-56.5" font-family="Helvetica,sans-Serif" font-size="10.00">_bearing_to_target</text>
</a>
</g>
</g>
<!-- Node1&#45;&gt;Node2 -->
<g id="edge1" class="edge"><title>Node1&#45;&gt;Node2</title>
<path fill="none" stroke="midnightblue" d="M125.47,-48.6671C138.457,-50.5883 152.21,-52.6227 165.374,-54.5702"/>
<polygon fill="midnightblue" stroke="midnightblue" points="164.9,-58.038 175.305,-56.0391 165.924,-51.1134 164.9,-58.038"/>
</g>
<!-- Node3 -->
<g id="node3" class="node"><title>Node3</title>
<g id="a_node3"><a doxygen="/home/ubuntu/ardupilot/docs/tags/libraries:../libraries/" xlink:href="../libraries/classAC__WPNav.html#aaf51adb38cdaf72ffa54d2a03a151cfd" target="_top" xlink:title="AC_WPNav::get_wp_bearing\l_to_destination">
<polygon fill="white" stroke="black" points="161,-0.5 161,-30.5 306,-30.5 306,-0.5 161,-0.5"/>
<text text-anchor="start" x="169" y="-18.5" font-family="Helvetica,sans-Serif" font-size="10.00">AC_WPNav::get_wp_bearing</text>
<text text-anchor="middle" x="233.5" y="-7.5" font-family="Helvetica,sans-Serif" font-size="10.00">_to_destination</text>
</a>
</g>
</g>
<!-- Node1&#45;&gt;Node3 -->
<g id="edge2" class="edge"><title>Node1&#45;&gt;Node3</title>
<path fill="none" stroke="midnightblue" d="M125.47,-30.6996C133.73,-29.5265 142.301,-28.3094 150.833,-27.0977"/>
<polygon fill="midnightblue" stroke="midnightblue" points="151.401,-30.5522 160.81,-25.6809 150.417,-23.6217 151.401,-30.5522"/>
</g>
</g>
</svg>
