<?xml version="1.0" encoding="UTF-8" standalone="no"?>
<!DOCTYPE svg PUBLIC "-//W3C//DTD SVG 1.1//EN"
 "http://www.w3.org/Graphics/SVG/1.1/DTD/svg11.dtd">
<!-- Generated by graphviz version 2.38.0 (20140413.2041)
 -->
<!-- Title: Copter::Log_Write_Parameter_Tuning Pages: 1 -->
<svg width="732pt" height="142pt"
 viewBox="0.00 0.00 732.00 142.00" xmlns="http://www.w3.org/2000/svg" xmlns:xlink="http://www.w3.org/1999/xlink">
<g id="graph0" class="graph" transform="scale(1 1) rotate(0) translate(4 138)">
<title>Copter::Log_Write_Parameter_Tuning</title>
<polygon fill="white" stroke="none" points="-4,4 -4,-138 728,-138 728,4 -4,4"/>
<!-- Node1 -->
<g id="node1" class="node"><title>Node1</title>
<polygon fill="#bfbfbf" stroke="black" points="0,-52 0,-82 146,-82 146,-52 0,-52"/>
<text text-anchor="start" x="8" y="-70" font-family="Helvetica,sans-Serif" font-size="10.00">Copter::Log_Write_Parameter</text>
<text text-anchor="middle" x="73" y="-59" font-family="Helvetica,sans-Serif" font-size="10.00">_Tuning</text>
</g>
<!-- Node2 -->
<g id="node2" class="node"><title>Node2</title>
<g id="a_node2"><a xlink:href="classCopter.html#a725f55c13189d9ff1f9d377cf4062dd0" target="_top" xlink:title="Copter::log_init">
<polygon fill="white" stroke="black" points="182,-76.5 182,-95.5 265,-95.5 265,-76.5 182,-76.5"/>
<text text-anchor="middle" x="223.5" y="-83.5" font-family="Helvetica,sans-Serif" font-size="10.00">Copter::log_init</text>
</a>
</g>
</g>
<!-- Node1&#45;&gt;Node2 -->
<g id="edge1" class="edge"><title>Node1&#45;&gt;Node2</title>
<path fill="none" stroke="midnightblue" d="M156.128,-77.508C165,-78.643 173.719,-79.7587 181.773,-80.7891"/>
<polygon fill="midnightblue" stroke="midnightblue" points="156.438,-74.0192 146.075,-76.2217 155.55,-80.9626 156.438,-74.0192"/>
</g>
<!-- Node7 -->
<g id="node7" class="node"><title>Node7</title>
<g id="a_node7"><a xlink:href="classCopter.html#afe92d91dd2244873ad9e15ddde2d43ba" target="_top" xlink:title="Copter::tuning">
<polygon fill="white" stroke="black" points="184.5,-38.5 184.5,-57.5 262.5,-57.5 262.5,-38.5 184.5,-38.5"/>
<text text-anchor="middle" x="223.5" y="-45.5" font-family="Helvetica,sans-Serif" font-size="10.00">Copter::tuning</text>
</a>
</g>
</g>
<!-- Node1&#45;&gt;Node7 -->
<g id="edge7" class="edge"><title>Node1&#45;&gt;Node7</title>
<path fill="none" stroke="midnightblue" d="M156.238,-56.4779C165.954,-55.2348 175.486,-54.0153 184.157,-52.9059"/>
<polygon fill="midnightblue" stroke="midnightblue" points="155.55,-53.0374 146.075,-57.7783 156.438,-59.9808 155.55,-53.0374"/>
</g>
<!-- Node3 -->
<g id="node3" class="node"><title>Node3</title>
<g id="a_node3"><a xlink:href="classCopter.html#a463474e8d6d99855217b8ec3dba27d63" target="_top" xlink:title="Copter::gcs_set_mode">
<polygon fill="white" stroke="black" points="450,-76.5 450,-95.5 566,-95.5 566,-76.5 450,-76.5"/>
<text text-anchor="middle" x="508" y="-83.5" font-family="Helvetica,sans-Serif" font-size="10.00">Copter::gcs_set_mode</text>
</a>
</g>
</g>
<!-- Node2&#45;&gt;Node3 -->
<g id="edge2" class="edge"><title>Node2&#45;&gt;Node3</title>
<path fill="none" stroke="midnightblue" d="M275.357,-86C324.47,-86 398.726,-86 449.856,-86"/>
<polygon fill="midnightblue" stroke="midnightblue" points="275.276,-82.5001 265.276,-86 275.276,-89.5001 275.276,-82.5001"/>
</g>
<!-- Node5 -->
<g id="node5" class="node"><title>Node5</title>
<g id="a_node5"><a xlink:href="classCopter.html#a3dd81483501146cda2aec5d898c2592b" target="_top" xlink:title="Copter::init_ardupilot">
<polygon fill="white" stroke="black" points="304,-114.5 304,-133.5 411,-133.5 411,-114.5 304,-114.5"/>
<text text-anchor="middle" x="357.5" y="-121.5" font-family="Helvetica,sans-Serif" font-size="10.00">Copter::init_ardupilot</text>
</a>
</g>
</g>
<!-- Node2&#45;&gt;Node5 -->
<g id="edge4" class="edge"><title>Node2&#45;&gt;Node5</title>
<path fill="none" stroke="midnightblue" d="M267.541,-98.3906C285.618,-103.594 306.319,-109.554 323.201,-114.414"/>
<polygon fill="midnightblue" stroke="midnightblue" points="268.387,-94.9921 257.809,-95.589 266.451,-101.719 268.387,-94.9921"/>
</g>
<!-- Node4 -->
<g id="node4" class="node"><title>Node4</title>
<g id="a_node4"><a xlink:href="classGCS__MAVLINK__Copter.html#afe85f88545dfa66f9100ed341cf5f79b" target="_top" xlink:title="GCS_MAVLINK_Copter\l::handleMessage">
<polygon fill="white" stroke="black" points="602,-71 602,-101 724,-101 724,-71 602,-71"/>
<text text-anchor="start" x="610" y="-89" font-family="Helvetica,sans-Serif" font-size="10.00">GCS_MAVLINK_Copter</text>
<text text-anchor="middle" x="663" y="-78" font-family="Helvetica,sans-Serif" font-size="10.00">::handleMessage</text>
</a>
</g>
</g>
<!-- Node3&#45;&gt;Node4 -->
<g id="edge3" class="edge"><title>Node3&#45;&gt;Node4</title>
<path fill="none" stroke="midnightblue" d="M576.61,-86C585.057,-86 593.651,-86 601.972,-86"/>
<polygon fill="midnightblue" stroke="midnightblue" points="576.407,-82.5001 566.407,-86 576.407,-89.5001 576.407,-82.5001"/>
</g>
<!-- Node5&#45;&gt;Node3 -->
<g id="edge5" class="edge"><title>Node5&#45;&gt;Node3</title>
<path fill="none" stroke="midnightblue" d="M405.833,-111.888C426.515,-106.596 450.419,-100.479 469.797,-95.5201"/>
<polygon fill="midnightblue" stroke="midnightblue" points="404.793,-108.541 395.973,-114.411 406.528,-115.323 404.793,-108.541"/>
</g>
<!-- Node6 -->
<g id="node6" class="node"><title>Node6</title>
<g id="a_node6"><a xlink:href="classCopter.html#ad672001a9ffbac72fe0ec2d8e336a4aa" target="_top" xlink:title="Copter::setup">
<polygon fill="white" stroke="black" points="470,-114.5 470,-133.5 546,-133.5 546,-114.5 470,-114.5"/>
<text text-anchor="middle" x="508" y="-121.5" font-family="Helvetica,sans-Serif" font-size="10.00">Copter::setup</text>
</a>
</g>
</g>
<!-- Node5&#45;&gt;Node6 -->
<g id="edge6" class="edge"><title>Node5&#45;&gt;Node6</title>
<path fill="none" stroke="midnightblue" d="M421.405,-124C437.883,-124 455.124,-124 469.779,-124"/>
<polygon fill="midnightblue" stroke="midnightblue" points="421.274,-120.5 411.274,-124 421.274,-127.5 421.274,-120.5"/>
</g>
<!-- Node7&#45;&gt;Node3 -->
<g id="edge9" class="edge"><title>Node7&#45;&gt;Node3</title>
<path fill="none" stroke="midnightblue" d="M272.632,-54.4743C321.652,-61.0682 397.658,-71.292 449.74,-78.2978"/>
<polygon fill="midnightblue" stroke="midnightblue" points="272.977,-50.9893 262.599,-53.1248 272.043,-57.9268 272.977,-50.9893"/>
</g>
<!-- Node8 -->
<g id="node8" class="node"><title>Node8</title>
<g id="a_node8"><a xlink:href="classCopter.html#a563dd88c9990c4a03ae5701fe358ffbb" target="_top" xlink:title="Copter::three_hz_loop">
<polygon fill="white" stroke="black" points="301,-0.5 301,-19.5 414,-19.5 414,-0.5 301,-0.5"/>
<text text-anchor="middle" x="357.5" y="-7.5" font-family="Helvetica,sans-Serif" font-size="10.00">Copter::three_hz_loop</text>
</a>
</g>
</g>
<!-- Node7&#45;&gt;Node8 -->
<g id="edge8" class="edge"><title>Node7&#45;&gt;Node8</title>
<path fill="none" stroke="midnightblue" d="M267.541,-35.6094C285.618,-30.4055 306.319,-24.4459 323.201,-19.5859"/>
<polygon fill="midnightblue" stroke="midnightblue" points="266.451,-32.2811 257.809,-38.411 268.387,-39.0079 266.451,-32.2811"/>
</g>
</g>
</svg>
