<?xml version="1.0" encoding="UTF-8" standalone="no"?>
<!DOCTYPE svg PUBLIC "-//W3C//DTD SVG 1.1//EN"
 "http://www.w3.org/Graphics/SVG/1.1/DTD/svg11.dtd">
<!-- Generated by graphviz version 2.38.0 (20140413.2041)
 -->
<!-- Title: Copter::get_surface_tracking_climb_rate Pages: 1 -->
<svg width="738pt" height="180pt"
 viewBox="0.00 0.00 738.00 180.00" xmlns="http://www.w3.org/2000/svg" xmlns:xlink="http://www.w3.org/1999/xlink">
<g id="graph0" class="graph" transform="scale(1 1) rotate(0) translate(4 176)">
<title>Copter::get_surface_tracking_climb_rate</title>
<polygon fill="white" stroke="none" points="-4,4 -4,-176 734,-176 734,4 -4,4"/>
<!-- Node1 -->
<g id="node1" class="node"><title>Node1</title>
<polygon fill="#bfbfbf" stroke="black" points="0,-71 0,-101 107,-101 107,-71 0,-71"/>
<text text-anchor="start" x="8" y="-89" font-family="Helvetica,sans-Serif" font-size="10.00">Copter::get_surface</text>
<text text-anchor="middle" x="53.5" y="-78" font-family="Helvetica,sans-Serif" font-size="10.00">_tracking_climb_rate</text>
</g>
<!-- Node2 -->
<g id="node2" class="node"><title>Node2</title>
<g id="a_node2"><a xlink:href="classCopter.html#ac38d223360fcc0870ec99cb2045e727a" target="_top" xlink:title="Copter::althold_run">
<polygon fill="white" stroke="black" points="145.5,-152.5 145.5,-171.5 244.5,-171.5 244.5,-152.5 145.5,-152.5"/>
<text text-anchor="middle" x="195" y="-159.5" font-family="Helvetica,sans-Serif" font-size="10.00">Copter::althold_run</text>
</a>
</g>
</g>
<!-- Node1&#45;&gt;Node2 -->
<g id="edge1" class="edge"><title>Node1&#45;&gt;Node2</title>
<path fill="none" stroke="midnightblue" d="M83.5072,-106.947C100.346,-118.521 122.267,-132.614 143,-143 149.927,-146.47 157.649,-149.667 164.946,-152.409"/>
<polygon fill="midnightblue" stroke="midnightblue" points="85.4038,-104.003 75.1982,-101.157 81.4018,-109.746 85.4038,-104.003"/>
</g>
<!-- Node8 -->
<g id="node8" class="node"><title>Node8</title>
<g id="a_node8"><a xlink:href="classCopter.html#a29281e1d4e934fea8de44ff4606729d6" target="_top" xlink:title="Copter::circle_run">
<polygon fill="white" stroke="black" points="148,-114.5 148,-133.5 242,-133.5 242,-114.5 148,-114.5"/>
<text text-anchor="middle" x="195" y="-121.5" font-family="Helvetica,sans-Serif" font-size="10.00">Copter::circle_run</text>
</a>
</g>
</g>
<!-- Node1&#45;&gt;Node8 -->
<g id="edge7" class="edge"><title>Node1&#45;&gt;Node8</title>
<path fill="none" stroke="midnightblue" d="M117.087,-103.049C131.45,-106.961 146.222,-110.985 158.933,-114.448"/>
<polygon fill="midnightblue" stroke="midnightblue" points="117.807,-99.6175 107.239,-100.366 115.967,-106.371 117.807,-99.6175"/>
</g>
<!-- Node9 -->
<g id="node9" class="node"><title>Node9</title>
<g id="a_node9"><a xlink:href="classCopter.html#a31ae6eb66b629da71efc24ce52951add" target="_top" xlink:title="Copter::loiter_run">
<polygon fill="white" stroke="black" points="149,-76.5 149,-95.5 241,-95.5 241,-76.5 149,-76.5"/>
<text text-anchor="middle" x="195" y="-83.5" font-family="Helvetica,sans-Serif" font-size="10.00">Copter::loiter_run</text>
</a>
</g>
</g>
<!-- Node1&#45;&gt;Node9 -->
<g id="edge9" class="edge"><title>Node1&#45;&gt;Node9</title>
<path fill="none" stroke="midnightblue" d="M117.349,-86C127.998,-86 138.864,-86 148.94,-86"/>
<polygon fill="midnightblue" stroke="midnightblue" points="117.239,-82.5001 107.239,-86 117.239,-89.5001 117.239,-82.5001"/>
</g>
<!-- Node10 -->
<g id="node10" class="node"><title>Node10</title>
<g id="a_node10"><a xlink:href="classCopter.html#a1d74ca65de6e88376d929bb23d842935" target="_top" xlink:title="Copter::poshold_run">
<polygon fill="white" stroke="black" points="143,-38.5 143,-57.5 247,-57.5 247,-38.5 143,-38.5"/>
<text text-anchor="middle" x="195" y="-45.5" font-family="Helvetica,sans-Serif" font-size="10.00">Copter::poshold_run</text>
</a>
</g>
</g>
<!-- Node1&#45;&gt;Node10 -->
<g id="edge11" class="edge"><title>Node1&#45;&gt;Node10</title>
<path fill="none" stroke="midnightblue" d="M117.087,-68.9513C131.45,-65.0388 146.222,-61.0147 158.933,-57.5522"/>
<polygon fill="midnightblue" stroke="midnightblue" points="115.967,-65.6286 107.239,-71.6338 117.807,-72.3825 115.967,-65.6286"/>
</g>
<!-- Node11 -->
<g id="node11" class="node"><title>Node11</title>
<g id="a_node11"><a xlink:href="classCopter.html#a86c75f6eca60029546735df983c5cfcf" target="_top" xlink:title="Copter::sport_run">
<polygon fill="white" stroke="black" points="149,-0.5 149,-19.5 241,-19.5 241,-0.5 149,-0.5"/>
<text text-anchor="middle" x="195" y="-7.5" font-family="Helvetica,sans-Serif" font-size="10.00">Copter::sport_run</text>
</a>
</g>
</g>
<!-- Node1&#45;&gt;Node11 -->
<g id="edge13" class="edge"><title>Node1&#45;&gt;Node11</title>
<path fill="none" stroke="midnightblue" d="M83.5072,-65.053C100.346,-53.479 122.267,-39.386 143,-29 149.927,-25.5298 157.649,-22.3333 164.946,-19.5912"/>
<polygon fill="midnightblue" stroke="midnightblue" points="81.4018,-62.2541 75.1982,-70.8428 85.4038,-67.9973 81.4018,-62.2541"/>
</g>
<!-- Node3 -->
<g id="node3" class="node"><title>Node3</title>
<g id="a_node3"><a xlink:href="classCopter.html#a1e967ef71b5acdd8b0c83a0471bdb581" target="_top" xlink:title="Copter::update_flight_mode">
<polygon fill="white" stroke="black" points="283,-76.5 283,-95.5 420,-95.5 420,-76.5 283,-76.5"/>
<text text-anchor="middle" x="351.5" y="-83.5" font-family="Helvetica,sans-Serif" font-size="10.00">Copter::update_flight_mode</text>
</a>
</g>
</g>
<!-- Node2&#45;&gt;Node3 -->
<g id="edge2" class="edge"><title>Node2&#45;&gt;Node3</title>
<path fill="none" stroke="midnightblue" d="M233.291,-148.833C237.949,-146.976 242.615,-145.011 247,-143 279.071,-128.291 314.768,-107.617 334.741,-95.6326"/>
<polygon fill="midnightblue" stroke="midnightblue" points="231.905,-145.616 223.829,-152.473 234.419,-152.149 231.905,-145.616"/>
</g>
<!-- Node4 -->
<g id="node4" class="node"><title>Node4</title>
<g id="a_node4"><a xlink:href="classCopter.html#a9935998c549ed56b80917705ee4522fb" target="_top" xlink:title="Copter::fast_loop">
<polygon fill="white" stroke="black" points="468,-98.5 468,-117.5 560,-117.5 560,-98.5 468,-98.5"/>
<text text-anchor="middle" x="514" y="-105.5" font-family="Helvetica,sans-Serif" font-size="10.00">Copter::fast_loop</text>
</a>
</g>
</g>
<!-- Node3&#45;&gt;Node4 -->
<g id="edge3" class="edge"><title>Node3&#45;&gt;Node4</title>
<path fill="none" stroke="midnightblue" d="M430.361,-96.6726C443.208,-98.4335 456.136,-100.206 467.828,-101.808"/>
<polygon fill="midnightblue" stroke="midnightblue" points="430.484,-93.1567 420.101,-95.2662 429.533,-100.092 430.484,-93.1567"/>
</g>
<!-- Node6 -->
<g id="node6" class="node"><title>Node6</title>
<g id="a_node6"><a xlink:href="classCopter.html#a463474e8d6d99855217b8ec3dba27d63" target="_top" xlink:title="Copter::gcs_set_mode">
<polygon fill="white" stroke="black" points="456,-57.5 456,-76.5 572,-76.5 572,-57.5 456,-57.5"/>
<text text-anchor="middle" x="514" y="-64.5" font-family="Helvetica,sans-Serif" font-size="10.00">Copter::gcs_set_mode</text>
</a>
</g>
</g>
<!-- Node3&#45;&gt;Node6 -->
<g id="edge5" class="edge"><title>Node3&#45;&gt;Node6</title>
<path fill="none" stroke="midnightblue" d="M430.215,-76.8001C438.867,-75.7759 447.558,-74.7471 455.885,-73.7613"/>
<polygon fill="midnightblue" stroke="midnightblue" points="429.62,-73.3459 420.101,-77.9974 430.443,-80.2974 429.62,-73.3459"/>
</g>
<!-- Node5 -->
<g id="node5" class="node"><title>Node5</title>
<g id="a_node5"><a xlink:href="classCopter.html#ac879265c540a24609ead56c389ba4b02" target="_top" xlink:title="Copter::loop">
<polygon fill="white" stroke="black" points="634,-100.5 634,-119.5 704,-119.5 704,-100.5 634,-100.5"/>
<text text-anchor="middle" x="669" y="-107.5" font-family="Helvetica,sans-Serif" font-size="10.00">Copter::loop</text>
</a>
</g>
</g>
<!-- Node4&#45;&gt;Node5 -->
<g id="edge4" class="edge"><title>Node4&#45;&gt;Node5</title>
<path fill="none" stroke="midnightblue" d="M570.299,-108.723C591.573,-109.001 615.223,-109.31 633.926,-109.555"/>
<polygon fill="midnightblue" stroke="midnightblue" points="570.122,-105.22 560.078,-108.589 570.031,-112.22 570.122,-105.22"/>
</g>
<!-- Node7 -->
<g id="node7" class="node"><title>Node7</title>
<g id="a_node7"><a xlink:href="classGCS__MAVLINK__Copter.html#afe85f88545dfa66f9100ed341cf5f79b" target="_top" xlink:title="GCS_MAVLINK_Copter\l::handleMessage">
<polygon fill="white" stroke="black" points="608,-51 608,-81 730,-81 730,-51 608,-51"/>
<text text-anchor="start" x="616" y="-69" font-family="Helvetica,sans-Serif" font-size="10.00">GCS_MAVLINK_Copter</text>
<text text-anchor="middle" x="669" y="-58" font-family="Helvetica,sans-Serif" font-size="10.00">::handleMessage</text>
</a>
</g>
</g>
<!-- Node6&#45;&gt;Node7 -->
<g id="edge6" class="edge"><title>Node6&#45;&gt;Node7</title>
<path fill="none" stroke="midnightblue" d="M582.61,-66.5581C591.057,-66.5029 599.651,-66.4467 607.972,-66.3923"/>
<polygon fill="midnightblue" stroke="midnightblue" points="582.384,-63.0594 572.407,-66.6248 582.43,-70.0593 582.384,-63.0594"/>
</g>
<!-- Node8&#45;&gt;Node3 -->
<g id="edge8" class="edge"><title>Node8&#45;&gt;Node3</title>
<path fill="none" stroke="midnightblue" d="M244.952,-111.96C266.536,-106.651 291.541,-100.501 311.793,-95.5201"/>
<polygon fill="midnightblue" stroke="midnightblue" points="243.862,-108.624 234.987,-114.411 245.533,-115.421 243.862,-108.624"/>
</g>
<!-- Node9&#45;&gt;Node3 -->
<g id="edge10" class="edge"><title>Node9&#45;&gt;Node3</title>
<path fill="none" stroke="midnightblue" d="M251.174,-86C261.465,-86 272.327,-86 282.94,-86"/>
<polygon fill="midnightblue" stroke="midnightblue" points="251.103,-82.5001 241.103,-86 251.103,-89.5001 251.103,-82.5001"/>
</g>
<!-- Node10&#45;&gt;Node3 -->
<g id="edge12" class="edge"><title>Node10&#45;&gt;Node3</title>
<path fill="none" stroke="midnightblue" d="M244.952,-60.04C266.536,-65.3488 291.541,-71.4988 311.793,-76.4799"/>
<polygon fill="midnightblue" stroke="midnightblue" points="245.533,-56.5787 234.987,-57.589 243.862,-63.3762 245.533,-56.5787"/>
</g>
<!-- Node11&#45;&gt;Node3 -->
<g id="edge14" class="edge"><title>Node11&#45;&gt;Node3</title>
<path fill="none" stroke="midnightblue" d="M233.291,-23.1669C237.949,-25.0238 242.615,-26.9887 247,-29 279.071,-43.7089 314.768,-64.3834 334.741,-76.3674"/>
<polygon fill="midnightblue" stroke="midnightblue" points="234.419,-19.8508 223.829,-19.5265 231.905,-26.384 234.419,-19.8508"/>
</g>
</g>
</svg>
