<?xml version="1.0" encoding="UTF-8" standalone="no"?>
<!DOCTYPE svg PUBLIC "-//W3C//DTD SVG 1.1//EN"
 "http://www.w3.org/Graphics/SVG/1.1/DTD/svg11.dtd">
<!-- Generated by graphviz version 2.38.0 (20140413.2041)
 -->
<!-- Title: Copter::auto_land_run Pages: 1 -->
<!--zoomable 78 -->
<svg id="main" version="1.1" xmlns="http://www.w3.org/2000/svg" xmlns:xlink="http://www.w3.org/1999/xlink" xml:space="preserve" onload="init(evt)">
<style type="text/css"><![CDATA[
.edge:hover path { stroke: red; }
.edge:hover polygon { stroke: red; fill: red; }
]]></style>
<script type="text/javascript"><![CDATA[
var edges = document.getElementsByTagName('g');
if (edges && edges.length) {
  for (var i=0;i<edges.length;i++) {
    if (edges[i].id.substr(0,4)=='edge') {
      edges[i].setAttribute('class','edge');
    }
  }
}
]]></script>
        <defs>
                <circle id="rim" cx="0" cy="0" r="7"/>
                <circle id="rim2" cx="0" cy="0" r="3.5"/>
                <g id="zoomPlus">
                        <use xlink:href="#rim" fill="#404040">
                                <set attributeName="fill" to="#808080" begin="zoomplus.mouseover" end="zoomplus.mouseout"/>
                        </use>
                        <path d="M-4,0h8M0,-4v8" fill="none" stroke="white" stroke-width="1.5" pointer-events="none"/>
                </g>
                <g id="zoomMin">
                        <use xlink:href="#rim" fill="#404040">
                                <set attributeName="fill" to="#808080" begin="zoomminus.mouseover" end="zoomminus.mouseout"/>
                        </use>
                        <path d="M-4,0h8" fill="none" stroke="white" stroke-width="1.5" pointer-events="none"/>
                </g>
                <g id="dirArrow">
                        <path fill="none" stroke="white" stroke-width="1.5" d="M0,-3.0v7 M-2.5,-0.5L0,-3.0L2.5,-0.5"/>
                </g>
               <g id="resetDef">
                       <use xlink:href="#rim2" fill="#404040">
                               <set attributeName="fill" to="#808080" begin="reset.mouseover" end="reset.mouseout"/>
                       </use>
               </g>
        </defs>

<script type="text/javascript">
var viewWidth = 729;
var viewHeight = 78;
var sectionId = 'dynsection-31';
</script>
<script xlink:href="svgpan.js"/>
<svg id="graph" class="graph">
<g id="viewport">
<title>Copter::auto_land_run</title>
<polygon fill="white" stroke="none" points="-4,4 -4,-73.5 725,-73.5 725,4 -4,4"/>
<!-- Node1 -->
<g id="node1" class="node"><title>Node1</title>
<polygon fill="#bfbfbf" stroke="black" points="0,-28 0,-47 113,-47 113,-28 0,-28"/>
<text text-anchor="middle" x="56.5" y="-35" font-family="Helvetica,sans-Serif" font-size="10.00">Copter::auto_land_run</text>
</g>
<!-- Node2 -->
<g id="node2" class="node"><title>Node2</title>
<g id="a_node2"><a xlink:href="classCopter.html#a0f9fe5cd7d49e5fbce6da32216c2419b" target="_top" xlink:title="Copter::auto_run">
<polygon fill="white" stroke="black" points="149,-28 149,-47 238,-47 238,-28 149,-28"/>
<text text-anchor="middle" x="193.5" y="-35" font-family="Helvetica,sans-Serif" font-size="10.00">Copter::auto_run</text>
</a>
</g>
</g>
<!-- Node1&#45;&gt;Node2 -->
<g id="edge1" class="edge"><title>Node1&#45;&gt;Node2</title>
<path fill="none" stroke="midnightblue" d="M123.325,-37.5C132.003,-37.5 140.719,-37.5 148.897,-37.5"/>
<polygon fill="midnightblue" stroke="midnightblue" points="123.189,-34.0001 113.189,-37.5 123.189,-41.0001 123.189,-34.0001"/>
</g>
<!-- Node3 -->
<g id="node3" class="node"><title>Node3</title>
<g id="a_node3"><a xlink:href="classCopter.html#a1e967ef71b5acdd8b0c83a0471bdb581" target="_top" xlink:title="Copter::update_flight_mode">
<polygon fill="white" stroke="black" points="274,-28 274,-47 411,-47 411,-28 274,-28"/>
<text text-anchor="middle" x="342.5" y="-35" font-family="Helvetica,sans-Serif" font-size="10.00">Copter::update_flight_mode</text>
</a>
</g>
</g>
<!-- Node2&#45;&gt;Node3 -->
<g id="edge2" class="edge"><title>Node2&#45;&gt;Node3</title>
<path fill="none" stroke="midnightblue" d="M248.217,-37.5C256.601,-37.5 265.355,-37.5 273.999,-37.5"/>
<polygon fill="midnightblue" stroke="midnightblue" points="248.207,-34.0001 238.207,-37.5 248.207,-41.0001 248.207,-34.0001"/>
</g>
<!-- Node4 -->
<g id="node4" class="node"><title>Node4</title>
<g id="a_node4"><a xlink:href="classCopter.html#a9935998c549ed56b80917705ee4522fb" target="_top" xlink:title="Copter::fast_loop">
<polygon fill="white" stroke="black" points="459,-48 459,-67 551,-67 551,-48 459,-48"/>
<text text-anchor="middle" x="505" y="-55" font-family="Helvetica,sans-Serif" font-size="10.00">Copter::fast_loop</text>
</a>
</g>
</g>
<!-- Node3&#45;&gt;Node4 -->
<g id="edge3" class="edge"><title>Node3&#45;&gt;Node4</title>
<path fill="none" stroke="midnightblue" d="M421.361,-47.2023C434.208,-48.8032 447.136,-50.4142 458.828,-51.8711"/>
<polygon fill="midnightblue" stroke="midnightblue" points="421.457,-43.6873 411.101,-45.9238 420.592,-50.6336 421.457,-43.6873"/>
</g>
<!-- Node6 -->
<g id="node6" class="node"><title>Node6</title>
<g id="a_node6"><a xlink:href="classCopter.html#a463474e8d6d99855217b8ec3dba27d63" target="_top" xlink:title="Copter::gcs_set_mode">
<polygon fill="white" stroke="black" points="447,-9 447,-28 563,-28 563,-9 447,-9"/>
<text text-anchor="middle" x="505" y="-16" font-family="Helvetica,sans-Serif" font-size="10.00">Copter::gcs_set_mode</text>
</a>
</g>
</g>
<!-- Node3&#45;&gt;Node6 -->
<g id="edge5" class="edge"><title>Node3&#45;&gt;Node6</title>
<path fill="none" stroke="midnightblue" d="M421.215,-28.3001C429.867,-27.2759 438.558,-26.2471 446.885,-25.2613"/>
<polygon fill="midnightblue" stroke="midnightblue" points="420.62,-24.8459 411.101,-29.4974 421.443,-31.7974 420.62,-24.8459"/>
</g>
<!-- Node5 -->
<g id="node5" class="node"><title>Node5</title>
<g id="a_node5"><a xlink:href="classCopter.html#ac879265c540a24609ead56c389ba4b02" target="_top" xlink:title="Copter::loop">
<polygon fill="white" stroke="black" points="625,-50 625,-69 695,-69 695,-50 625,-50"/>
<text text-anchor="middle" x="660" y="-57" font-family="Helvetica,sans-Serif" font-size="10.00">Copter::loop</text>
</a>
</g>
</g>
<!-- Node4&#45;&gt;Node5 -->
<g id="edge4" class="edge"><title>Node4&#45;&gt;Node5</title>
<path fill="none" stroke="midnightblue" d="M561.299,-58.2229C582.573,-58.501 606.223,-58.8101 624.926,-59.0546"/>
<polygon fill="midnightblue" stroke="midnightblue" points="561.122,-54.7204 551.078,-58.0892 561.031,-61.7198 561.122,-54.7204"/>
</g>
<!-- Node7 -->
<g id="node7" class="node"><title>Node7</title>
<g id="a_node7"><a xlink:href="classGCS__MAVLINK__Copter.html#afe85f88545dfa66f9100ed341cf5f79b" target="_top" xlink:title="GCS_MAVLINK_Copter\l::handleMessage">
<polygon fill="white" stroke="black" points="599,-0.5 599,-30.5 721,-30.5 721,-0.5 599,-0.5"/>
<text text-anchor="start" x="607" y="-18.5" font-family="Helvetica,sans-Serif" font-size="10.00">GCS_MAVLINK_Copter</text>
<text text-anchor="middle" x="660" y="-7.5" font-family="Helvetica,sans-Serif" font-size="10.00">::handleMessage</text>
</a>
</g>
</g>
<!-- Node6&#45;&gt;Node7 -->
<g id="edge6" class="edge"><title>Node6&#45;&gt;Node7</title>
<path fill="none" stroke="midnightblue" d="M573.61,-17.1743C582.057,-17.0087 590.651,-16.8402 598.972,-16.677"/>
<polygon fill="midnightblue" stroke="midnightblue" points="573.336,-13.6789 563.407,-17.3744 573.474,-20.6776 573.336,-13.6789"/>
</g>
</g>
</svg>
        <g id="navigator" transform="translate(0 0)" fill="#404254">
                <rect fill="#f2f5e9" fill-opacity="0.5" stroke="#606060" stroke-width=".5" x="0" y="0" width="60" height="60"/>
                <use id="zoomplus" xlink:href="#zoomPlus" x="17" y="9" onmousedown="handleZoom(evt,'in')"/>
                <use id="zoomminus" xlink:href="#zoomMin" x="42" y="9" onmousedown="handleZoom(evt,'out')"/>
                <use id="reset" xlink:href="#resetDef" x="30" y="36" onmousedown="handleReset()"/>
                <g id="arrowUp" xlink:href="#dirArrow" transform="translate(30 24)" onmousedown="handlePan(0,-1)">
                  <use xlink:href="#rim" fill="#404040">
                        <set attributeName="fill" to="#808080" begin="arrowUp.mouseover" end="arrowUp.mouseout"/>
                  </use>
                  <path fill="none" stroke="white" stroke-width="1.5" d="M0,-3.0v7 M-2.5,-0.5L0,-3.0L2.5,-0.5"/>
                </g>
                <g id="arrowRight" xlink:href="#dirArrow" transform="rotate(90) translate(36 -43)" onmousedown="handlePan(1,0)">
                  <use xlink:href="#rim" fill="#404040">
                        <set attributeName="fill" to="#808080" begin="arrowRight.mouseover" end="arrowRight.mouseout"/>
                  </use>
                  <path fill="none" stroke="white" stroke-width="1.5" d="M0,-3.0v7 M-2.5,-0.5L0,-3.0L2.5,-0.5"/>
                </g>
                <g id="arrowDown" xlink:href="#dirArrow" transform="rotate(180) translate(-30 -48)" onmousedown="handlePan(0,1)">
                  <use xlink:href="#rim" fill="#404040">
                        <set attributeName="fill" to="#808080" begin="arrowDown.mouseover" end="arrowDown.mouseout"/>
                  </use>
                  <path fill="none" stroke="white" stroke-width="1.5" d="M0,-3.0v7 M-2.5,-0.5L0,-3.0L2.5,-0.5"/>
                </g>
                <g id="arrowLeft" xlink:href="#dirArrow" transform="rotate(270) translate(-36 17)" onmousedown="handlePan(-1,0)">
                  <use xlink:href="#rim" fill="#404040">
                        <set attributeName="fill" to="#808080" begin="arrowLeft.mouseover" end="arrowLeft.mouseout"/>
                  </use>
                  <path fill="none" stroke="white" stroke-width="1.5" d="M0,-3.0v7 M-2.5,-0.5L0,-3.0L2.5,-0.5"/>
                </g>
        </g>
        <svg viewBox="0 0 15 15" width="100%" height="30px" preserveAspectRatio="xMaxYMin meet">
         <g id="arrow_out" transform="scale(0.3 0.3)">
          <a xlink:href="classCopter_a80a59eb03ba585a4a6e6380555e58cfa_icgraph_org.svg" target="_base">
           <rect id="button" ry="5" rx="5" y="6" x="6" height="38" width="38"
                fill="#f2f5e9" fill-opacity="0.5" stroke="#606060" stroke-width="1.0"/>
           <path id="arrow"
             d="M 11.500037,31.436501 C 11.940474,20.09759 22.043105,11.32322 32.158766,21.979434 L 37.068811,17.246167 C 37.068811,17.246167 37.088388,32 37.088388,32 L 22.160133,31.978069 C 22.160133,31.978069 26.997745,27.140456 26.997745,27.140456 C 18.528582,18.264221 13.291696,25.230495 11.500037,31.436501 z"
             style="fill:#404040;"/>
          </a>
         </g>
        </svg>
</svg>
