<?xml version="1.0" encoding="UTF-8" standalone="no"?>
<!DOCTYPE svg PUBLIC "-//W3C//DTD SVG 1.1//EN"
 "http://www.w3.org/Graphics/SVG/1.1/DTD/svg11.dtd">
<!-- Generated by graphviz version 2.38.0 (20140413.2041)
 -->
<!-- Title: Copter::run_nav_updates Pages: 1 -->
<svg width="989pt" height="499pt"
 viewBox="0.00 0.00 989.00 498.50" xmlns="http://www.w3.org/2000/svg" xmlns:xlink="http://www.w3.org/1999/xlink">
<g id="graph0" class="graph" transform="scale(1 1) rotate(0) translate(4 494.5)">
<title>Copter::run_nav_updates</title>
<polygon fill="white" stroke="none" points="-4,4 -4,-494.5 985,-494.5 985,4 -4,4"/>
<!-- Node1 -->
<g id="node1" class="node"><title>Node1</title>
<polygon fill="#bfbfbf" stroke="black" points="0,-244.5 0,-263.5 126,-263.5 126,-244.5 0,-244.5"/>
<text text-anchor="middle" x="63" y="-251.5" font-family="Helvetica,sans-Serif" font-size="10.00">Copter::run_nav_updates</text>
</g>
<!-- Node2 -->
<g id="node2" class="node"><title>Node2</title>
<g id="a_node2"><a xlink:href="classCopter.html#aeb2000c7b535bf3bf01c559e1c009844" target="_top" xlink:title="Copter::calc_distance\l_and_bearing">
<polygon fill="white" stroke="black" points="162,-278 162,-308 274,-308 274,-278 162,-278"/>
<text text-anchor="start" x="170" y="-296" font-family="Helvetica,sans-Serif" font-size="10.00">Copter::calc_distance</text>
<text text-anchor="middle" x="218" y="-285" font-family="Helvetica,sans-Serif" font-size="10.00">_and_bearing</text>
</a>
</g>
</g>
<!-- Node1&#45;&gt;Node2 -->
<g id="edge1" class="edge"><title>Node1&#45;&gt;Node2</title>
<path fill="none" stroke="midnightblue" d="M101.428,-263.54C116.588,-267.405 134.547,-271.983 151.733,-276.363"/>
<polygon fill="midnightblue" stroke="midnightblue" points="151.181,-279.834 161.736,-278.913 152.91,-273.051 151.181,-279.834"/>
</g>
<!-- Node25 -->
<g id="node25" class="node"><title>Node25</title>
<g id="a_node25"><a xlink:href="classCopter.html#a4bf8c14aac531cc945d1ee65ef9d64ac" target="_top" xlink:title="Copter::run_autopilot">
<polygon fill="white" stroke="black" points="164.5,-205.5 164.5,-224.5 271.5,-224.5 271.5,-205.5 164.5,-205.5"/>
<text text-anchor="middle" x="218" y="-212.5" font-family="Helvetica,sans-Serif" font-size="10.00">Copter::run_autopilot</text>
</a>
</g>
</g>
<!-- Node1&#45;&gt;Node25 -->
<g id="edge28" class="edge"><title>Node1&#45;&gt;Node25</title>
<path fill="none" stroke="midnightblue" d="M101.428,-244.46C122.065,-239.199 147.888,-232.617 169.887,-227.009"/>
<polygon fill="midnightblue" stroke="midnightblue" points="170.868,-230.371 179.694,-224.509 169.139,-223.588 170.868,-230.371"/>
</g>
<!-- Node3 -->
<g id="node3" class="node"><title>Node3</title>
<g id="a_node3"><a xlink:href="classCopter.html#a9e949ac0df13975657e7ebad8207727e" target="_top" xlink:title="Copter::calc_wp_distance">
<polygon fill="white" stroke="black" points="315.5,-416.5 315.5,-435.5 445.5,-435.5 445.5,-416.5 315.5,-416.5"/>
<text text-anchor="middle" x="380.5" y="-423.5" font-family="Helvetica,sans-Serif" font-size="10.00">Copter::calc_wp_distance</text>
</a>
</g>
</g>
<!-- Node2&#45;&gt;Node3 -->
<g id="edge2" class="edge"><title>Node2&#45;&gt;Node3</title>
<path fill="none" stroke="midnightblue" d="M237.411,-308.257C267.818,-333.454 328.278,-383.555 359.622,-409.528"/>
<polygon fill="midnightblue" stroke="midnightblue" points="357.708,-412.487 367.641,-416.173 362.174,-407.097 357.708,-412.487"/>
</g>
<!-- Node6 -->
<g id="node6" class="node"><title>Node6</title>
<g id="a_node6"><a xlink:href="classCopter.html#a068560ff52f759e609895b8e757e6347" target="_top" xlink:title="Copter::calc_wp_bearing">
<polygon fill="white" stroke="black" points="318,-318.5 318,-337.5 443,-337.5 443,-318.5 318,-318.5"/>
<text text-anchor="middle" x="380.5" y="-325.5" font-family="Helvetica,sans-Serif" font-size="10.00">Copter::calc_wp_bearing</text>
</a>
</g>
</g>
<!-- Node2&#45;&gt;Node6 -->
<g id="edge5" class="edge"><title>Node2&#45;&gt;Node6</title>
<path fill="none" stroke="midnightblue" d="M274.235,-305.045C290.906,-308.68 309.176,-312.665 325.749,-316.279"/>
<polygon fill="midnightblue" stroke="midnightblue" points="325.302,-319.763 335.818,-318.474 326.794,-312.924 325.302,-319.763"/>
</g>
<!-- Node9 -->
<g id="node9" class="node"><title>Node9</title>
<g id="a_node9"><a xlink:href="classCopter.html#aefcace28f5e2b55dc1070fce586efcfb" target="_top" xlink:title="Copter::calc_home_distance\l_and_bearing">
<polygon fill="white" stroke="black" points="310,-176 310,-206 451,-206 451,-176 310,-176"/>
<text text-anchor="start" x="318" y="-194" font-family="Helvetica,sans-Serif" font-size="10.00">Copter::calc_home_distance</text>
<text text-anchor="middle" x="380.5" y="-183" font-family="Helvetica,sans-Serif" font-size="10.00">_and_bearing</text>
</a>
</g>
</g>
<!-- Node2&#45;&gt;Node9 -->
<g id="edge8" class="edge"><title>Node2&#45;&gt;Node9</title>
<path fill="none" stroke="midnightblue" d="M242.682,-277.95C270.301,-260.397 316.108,-231.287 347.03,-211.635"/>
<polygon fill="midnightblue" stroke="midnightblue" points="349.158,-214.43 355.721,-206.112 345.403,-208.522 349.158,-214.43"/>
</g>
<!-- Node4 -->
<g id="node4" class="node"><title>Node4</title>
<g id="a_node4"><a doxygen="/home/ubuntu/ardupilot/docs/tags/libraries:../libraries/" xlink:href="../libraries/classAC__WPNav.html#a828016e98938c6bbb6236e0b92e20807" target="_top" xlink:title="AC_WPNav::get_loiter\l_distance_to_target">
<polygon fill="white" stroke="black" points="504,-460 504,-490 620,-490 620,-460 504,-460"/>
<text text-anchor="start" x="512" y="-478" font-family="Helvetica,sans-Serif" font-size="10.00">AC_WPNav::get_loiter</text>
<text text-anchor="middle" x="562" y="-467" font-family="Helvetica,sans-Serif" font-size="10.00">_distance_to_target</text>
</a>
</g>
</g>
<!-- Node3&#45;&gt;Node4 -->
<g id="edge3" class="edge"><title>Node3&#45;&gt;Node4</title>
<path fill="none" stroke="midnightblue" d="M416.536,-435.564C439.162,-441.74 469.29,-449.965 496.177,-457.304"/>
<polygon fill="midnightblue" stroke="midnightblue" points="495.347,-460.706 505.916,-459.963 497.19,-453.953 495.347,-460.706"/>
</g>
<!-- Node5 -->
<g id="node5" class="node"><title>Node5</title>
<g id="a_node5"><a doxygen="/home/ubuntu/ardupilot/docs/tags/libraries:../libraries/" xlink:href="../libraries/classAC__WPNav.html#a2ff059085a523215ddb8151c1835d898" target="_top" xlink:title="AC_WPNav::get_wp_distance\l_to_destination">
<polygon fill="white" stroke="black" points="487,-411 487,-441 637,-441 637,-411 487,-411"/>
<text text-anchor="start" x="495" y="-429" font-family="Helvetica,sans-Serif" font-size="10.00">AC_WPNav::get_wp_distance</text>
<text text-anchor="middle" x="562" y="-418" font-family="Helvetica,sans-Serif" font-size="10.00">_to_destination</text>
</a>
</g>
</g>
<!-- Node3&#45;&gt;Node5 -->
<g id="edge4" class="edge"><title>Node3&#45;&gt;Node5</title>
<path fill="none" stroke="midnightblue" d="M445.543,-426C455.691,-426 466.318,-426 476.841,-426"/>
<polygon fill="midnightblue" stroke="midnightblue" points="476.881,-429.5 486.881,-426 476.881,-422.5 476.881,-429.5"/>
</g>
<!-- Node7 -->
<g id="node7" class="node"><title>Node7</title>
<g id="a_node7"><a doxygen="/home/ubuntu/ardupilot/docs/tags/libraries:../libraries/" xlink:href="../libraries/classAC__WPNav.html#a7f711c7661c335417cbcc28f9546688c" target="_top" xlink:title="AC_WPNav::get_loiter\l_bearing_to_target">
<polygon fill="white" stroke="black" points="504,-362 504,-392 620,-392 620,-362 504,-362"/>
<text text-anchor="start" x="512" y="-380" font-family="Helvetica,sans-Serif" font-size="10.00">AC_WPNav::get_loiter</text>
<text text-anchor="middle" x="562" y="-369" font-family="Helvetica,sans-Serif" font-size="10.00">_bearing_to_target</text>
</a>
</g>
</g>
<!-- Node6&#45;&gt;Node7 -->
<g id="edge6" class="edge"><title>Node6&#45;&gt;Node7</title>
<path fill="none" stroke="midnightblue" d="M416.536,-337.564C439.162,-343.74 469.29,-351.965 496.177,-359.304"/>
<polygon fill="midnightblue" stroke="midnightblue" points="495.347,-362.706 505.916,-361.963 497.19,-355.953 495.347,-362.706"/>
</g>
<!-- Node8 -->
<g id="node8" class="node"><title>Node8</title>
<g id="a_node8"><a doxygen="/home/ubuntu/ardupilot/docs/tags/libraries:../libraries/" xlink:href="../libraries/classAC__WPNav.html#aaf51adb38cdaf72ffa54d2a03a151cfd" target="_top" xlink:title="AC_WPNav::get_wp_bearing\l_to_destination">
<polygon fill="white" stroke="black" points="489.5,-313 489.5,-343 634.5,-343 634.5,-313 489.5,-313"/>
<text text-anchor="start" x="497.5" y="-331" font-family="Helvetica,sans-Serif" font-size="10.00">AC_WPNav::get_wp_bearing</text>
<text text-anchor="middle" x="562" y="-320" font-family="Helvetica,sans-Serif" font-size="10.00">_to_destination</text>
</a>
</g>
</g>
<!-- Node6&#45;&gt;Node8 -->
<g id="edge7" class="edge"><title>Node6&#45;&gt;Node8</title>
<path fill="none" stroke="midnightblue" d="M443.023,-328C454.678,-328 467.04,-328 479.206,-328"/>
<polygon fill="midnightblue" stroke="midnightblue" points="479.359,-331.5 489.359,-328 479.359,-324.5 479.359,-331.5"/>
</g>
<!-- Node10 -->
<g id="node10" class="node"><title>Node10</title>
<g id="a_node10"><a xlink:href="classCopter.html#a06cf9a8d680a08e194896f711b1940cf" target="_top" xlink:title="Copter::position_ok">
<polygon fill="white" stroke="black" points="511.5,-225.5 511.5,-244.5 612.5,-244.5 612.5,-225.5 511.5,-225.5"/>
<text text-anchor="middle" x="562" y="-232.5" font-family="Helvetica,sans-Serif" font-size="10.00">Copter::position_ok</text>
</a>
</g>
</g>
<!-- Node9&#45;&gt;Node10 -->
<g id="edge9" class="edge"><title>Node9&#45;&gt;Node10</title>
<path fill="none" stroke="midnightblue" d="M442.772,-206.019C465.48,-211.586 490.902,-217.817 512.336,-223.071"/>
<polygon fill="midnightblue" stroke="midnightblue" points="511.648,-226.506 522.194,-225.488 513.314,-219.707 511.648,-226.506"/>
</g>
<!-- Node16 -->
<g id="node16" class="node"><title>Node16</title>
<g id="a_node16"><a xlink:href="classCopter.html#a386447c928be1efba668cc4e676cba77" target="_top" xlink:title="Copter::pv_location\l_to_vector">
<polygon fill="white" stroke="black" points="511.5,-176 511.5,-206 612.5,-206 612.5,-176 511.5,-176"/>
<text text-anchor="start" x="519.5" y="-194" font-family="Helvetica,sans-Serif" font-size="10.00">Copter::pv_location</text>
<text text-anchor="middle" x="562" y="-183" font-family="Helvetica,sans-Serif" font-size="10.00">_to_vector</text>
</a>
</g>
</g>
<!-- Node9&#45;&gt;Node16 -->
<g id="edge17" class="edge"><title>Node9&#45;&gt;Node16</title>
<path fill="none" stroke="midnightblue" d="M451.156,-191C467.648,-191 485.093,-191 501.107,-191"/>
<polygon fill="midnightblue" stroke="midnightblue" points="501.399,-194.5 511.399,-191 501.399,-187.5 501.399,-194.5"/>
</g>
<!-- Node19 -->
<g id="node19" class="node"><title>Node19</title>
<g id="a_node19"><a doxygen="/home/ubuntu/ardupilot/docs/tags/libraries:../libraries/" xlink:href="../libraries/classAP__AHRS.html#aea45b16e6469a3b392b8bf52fb864732" target="_top" xlink:title="AP_AHRS::get_home">
<polygon fill="white" stroke="black" points="857.5,-137.5 857.5,-156.5 970.5,-156.5 970.5,-137.5 857.5,-137.5"/>
<text text-anchor="middle" x="914" y="-144.5" font-family="Helvetica,sans-Serif" font-size="10.00">AP_AHRS::get_home</text>
</a>
</g>
</g>
<!-- Node9&#45;&gt;Node19 -->
<g id="edge22" class="edge"><title>Node9&#45;&gt;Node19</title>
<path fill="none" stroke="midnightblue" d="M436.158,-175.985C452.401,-172.084 470.315,-168.328 487,-166 613.519,-148.348 763.023,-145.86 847.046,-146.114"/>
<polygon fill="midnightblue" stroke="midnightblue" points="847.196,-149.614 857.212,-146.159 847.227,-142.614 847.196,-149.614"/>
</g>
<!-- Node20 -->
<g id="node20" class="node"><title>Node20</title>
<g id="a_node20"><a doxygen="/home/ubuntu/ardupilot/docs/tags/libraries:../libraries/" xlink:href="../libraries/classAP__InertialNav__NavEKF.html#ab0ed9ccbf6fad1a2cdae8a30a582c5ee" target="_top" xlink:title="AP_InertialNav_NavEKF\l::get_position">
<polygon fill="white" stroke="black" points="499.5,-88 499.5,-118 624.5,-118 624.5,-88 499.5,-88"/>
<text text-anchor="start" x="507.5" y="-106" font-family="Helvetica,sans-Serif" font-size="10.00">AP_InertialNav_NavEKF</text>
<text text-anchor="middle" x="562" y="-95" font-family="Helvetica,sans-Serif" font-size="10.00">::get_position</text>
</a>
</g>
</g>
<!-- Node9&#45;&gt;Node20 -->
<g id="edge23" class="edge"><title>Node9&#45;&gt;Node20</title>
<path fill="none" stroke="midnightblue" d="M431.225,-175.866C438.072,-173 444.854,-169.714 451,-166 469.576,-154.773 468.651,-144.595 487,-133 493.204,-129.08 500.006,-125.498 506.894,-122.282"/>
<polygon fill="midnightblue" stroke="midnightblue" points="508.562,-125.372 516.292,-118.127 505.731,-118.97 508.562,-125.372"/>
</g>
<!-- Node21 -->
<g id="node21" class="node"><title>Node21</title>
<g id="a_node21"><a xlink:href="classCopter.html#ad1af3b20c390e433a9644e3ef8b37de9" target="_top" xlink:title="Copter::pv_get_horizontal\l_distance_cm">
<polygon fill="white" stroke="black" points="498,-39 498,-69 626,-69 626,-39 498,-39"/>
<text text-anchor="start" x="506" y="-57" font-family="Helvetica,sans-Serif" font-size="10.00">Copter::pv_get_horizontal</text>
<text text-anchor="middle" x="562" y="-46" font-family="Helvetica,sans-Serif" font-size="10.00">_distance_cm</text>
</a>
</g>
</g>
<!-- Node9&#45;&gt;Node21 -->
<g id="edge24" class="edge"><title>Node9&#45;&gt;Node21</title>
<path fill="none" stroke="midnightblue" d="M437.164,-175.991C442.199,-173.203 446.926,-169.903 451,-166 481.516,-136.769 456.025,-106.744 487,-78 488.145,-76.9378 489.337,-75.9225 490.57,-74.9522"/>
<polygon fill="midnightblue" stroke="midnightblue" points="492.853,-77.6368 499.233,-69.1781 488.971,-71.8122 492.853,-77.6368"/>
</g>
<!-- Node23 -->
<g id="node23" class="node"><title>Node23</title>
<g id="a_node23"><a xlink:href="classCopter.html#a3255a1a5c6abe1483485e4532b87118a" target="_top" xlink:title="Copter::pv_get_bearing_cd">
<polygon fill="white" stroke="black" points="495,-0.5 495,-19.5 629,-19.5 629,-0.5 495,-0.5"/>
<text text-anchor="middle" x="562" y="-7.5" font-family="Helvetica,sans-Serif" font-size="10.00">Copter::pv_get_bearing_cd</text>
</a>
</g>
</g>
<!-- Node9&#45;&gt;Node23 -->
<g id="edge26" class="edge"><title>Node9&#45;&gt;Node23</title>
<path fill="none" stroke="midnightblue" d="M438.712,-175.924C443.255,-173.155 447.45,-169.878 451,-166 493.508,-119.561 442.358,-73.391 487,-29 488.446,-27.562 489.985,-26.2283 491.601,-24.9914"/>
<polygon fill="midnightblue" stroke="midnightblue" points="493.627,-27.8528 500.246,-19.5801 489.913,-21.9193 493.627,-27.8528"/>
</g>
<!-- Node24 -->
<g id="node24" class="node"><title>Node24</title>
<g id="a_node24"><a xlink:href="classCopter.html#a21e56313ed22aff0b6148cfc44e83e64" target="_top" xlink:title="Copter::update_super\l_simple_bearing">
<polygon fill="white" stroke="black" points="507,-264 507,-294 617,-294 617,-264 507,-264"/>
<text text-anchor="start" x="515" y="-282" font-family="Helvetica,sans-Serif" font-size="10.00">Copter::update_super</text>
<text text-anchor="middle" x="562" y="-271" font-family="Helvetica,sans-Serif" font-size="10.00">_simple_bearing</text>
</a>
</g>
</g>
<!-- Node9&#45;&gt;Node24 -->
<g id="edge27" class="edge"><title>Node9&#45;&gt;Node24</title>
<path fill="none" stroke="midnightblue" d="M403.785,-206.215C424.631,-219.979 456.972,-240.154 487,-254 491.728,-256.18 496.701,-258.268 501.741,-260.244"/>
<polygon fill="midnightblue" stroke="midnightblue" points="500.875,-263.657 511.467,-263.897 503.337,-257.104 500.875,-263.657"/>
</g>
<!-- Node11 -->
<g id="node11" class="node"><title>Node11</title>
<g id="a_node11"><a xlink:href="classCopter.html#a09f2741a18ba8ca80ee125411602d366" target="_top" xlink:title="Copter::ekf_position_ok">
<polygon fill="white" stroke="black" points="682,-301.5 682,-320.5 802,-320.5 802,-301.5 682,-301.5"/>
<text text-anchor="middle" x="742" y="-308.5" font-family="Helvetica,sans-Serif" font-size="10.00">Copter::ekf_position_ok</text>
</a>
</g>
</g>
<!-- Node10&#45;&gt;Node11 -->
<g id="edge10" class="edge"><title>Node10&#45;&gt;Node11</title>
<path fill="none" stroke="midnightblue" d="M612.702,-243.646C621.142,-246.251 629.569,-249.628 637,-254 657.051,-265.799 653.075,-279.99 673,-292 676.602,-294.171 680.46,-296.102 684.441,-297.817"/>
<polygon fill="midnightblue" stroke="midnightblue" points="683.299,-301.128 693.89,-301.441 685.806,-294.592 683.299,-301.128"/>
</g>
<!-- Node14 -->
<g id="node14" class="node"><title>Node14</title>
<g id="a_node14"><a xlink:href="classCopter.html#a48f22a85435e9ab7998e79f5acae9c10" target="_top" xlink:title="Copter::optflow_position_ok">
<polygon fill="white" stroke="black" points="673,-263.5 673,-282.5 811,-282.5 811,-263.5 673,-263.5"/>
<text text-anchor="middle" x="742" y="-270.5" font-family="Helvetica,sans-Serif" font-size="10.00">Copter::optflow_position_ok</text>
</a>
</g>
</g>
<!-- Node10&#45;&gt;Node14 -->
<g id="edge13" class="edge"><title>Node10&#45;&gt;Node14</title>
<path fill="none" stroke="midnightblue" d="M607.917,-244.589C631.829,-249.694 661.421,-256.011 686.625,-261.392"/>
<polygon fill="midnightblue" stroke="midnightblue" points="685.896,-264.815 696.406,-263.48 687.357,-257.969 685.896,-264.815"/>
</g>
<!-- Node12 -->
<g id="node12" class="node"><title>Node12</title>
<g id="a_node12"><a doxygen="/home/ubuntu/ardupilot/docs/tags/libraries:../libraries/" xlink:href="../libraries/classAP__AHRS__NavEKF.html#a7933552ae34a7fd8fdfc1e51a4e2fad6" target="_top" xlink:title="AP_AHRS_NavEKF::have\l_inertial_nav">
<polygon fill="white" stroke="black" points="847,-313 847,-343 981,-343 981,-313 847,-313"/>
<text text-anchor="start" x="855" y="-331" font-family="Helvetica,sans-Serif" font-size="10.00">AP_AHRS_NavEKF::have</text>
<text text-anchor="middle" x="914" y="-320" font-family="Helvetica,sans-Serif" font-size="10.00">_inertial_nav</text>
</a>
</g>
</g>
<!-- Node11&#45;&gt;Node12 -->
<g id="edge11" class="edge"><title>Node11&#45;&gt;Node12</title>
<path fill="none" stroke="midnightblue" d="M802.458,-316.946C813.566,-318.057 825.316,-319.232 836.846,-320.385"/>
<polygon fill="midnightblue" stroke="midnightblue" points="836.602,-323.878 846.901,-321.39 837.299,-316.912 836.602,-323.878"/>
</g>
<!-- Node13 -->
<g id="node13" class="node"><title>Node13</title>
<g id="a_node13"><a doxygen="/home/ubuntu/ardupilot/docs/tags/libraries:../libraries/" xlink:href="../libraries/classAP__InertialNav__NavEKF.html#ad6004ffb427fd086592cc1c56f5de17a" target="_top" xlink:title="AP_InertialNav_NavEKF\l::get_filter_status">
<polygon fill="white" stroke="black" points="851.5,-264 851.5,-294 976.5,-294 976.5,-264 851.5,-264"/>
<text text-anchor="start" x="859.5" y="-282" font-family="Helvetica,sans-Serif" font-size="10.00">AP_InertialNav_NavEKF</text>
<text text-anchor="middle" x="914" y="-271" font-family="Helvetica,sans-Serif" font-size="10.00">::get_filter_status</text>
</a>
</g>
</g>
<!-- Node11&#45;&gt;Node13 -->
<g id="edge12" class="edge"><title>Node11&#45;&gt;Node13</title>
<path fill="none" stroke="midnightblue" d="M793.545,-301.486C808.54,-298.663 825.256,-295.516 841.322,-292.492"/>
<polygon fill="midnightblue" stroke="midnightblue" points="842.04,-295.919 851.219,-290.629 840.745,-289.04 842.04,-295.919"/>
</g>
<!-- Node14&#45;&gt;Node12 -->
<g id="edge15" class="edge"><title>Node14&#45;&gt;Node12</title>
<path fill="none" stroke="midnightblue" d="M778.777,-282.513C789.209,-285.417 800.597,-288.715 811,-292 827.757,-297.292 845.893,-303.525 862.16,-309.305"/>
<polygon fill="midnightblue" stroke="midnightblue" points="861.423,-312.758 872.018,-312.832 863.782,-306.168 861.423,-312.758"/>
</g>
<!-- Node14&#45;&gt;Node13 -->
<g id="edge16" class="edge"><title>Node14&#45;&gt;Node13</title>
<path fill="none" stroke="midnightblue" d="M811.166,-275.406C821.038,-275.754 831.226,-276.114 841.168,-276.465"/>
<polygon fill="midnightblue" stroke="midnightblue" points="841.299,-279.971 851.416,-276.826 841.546,-272.976 841.299,-279.971"/>
</g>
<!-- Node15 -->
<g id="node15" class="node"><title>Node15</title>
<g id="a_node15"><a doxygen="/home/ubuntu/ardupilot/docs/tags/libraries:../libraries/" xlink:href="../libraries/classOpticalFlow.html#adef66cc90d87a9261c9d3454723f9455" target="_top" xlink:title="OpticalFlow::enabled">
<polygon fill="white" stroke="black" points="860,-225.5 860,-244.5 968,-244.5 968,-225.5 860,-225.5"/>
<text text-anchor="middle" x="914" y="-232.5" font-family="Helvetica,sans-Serif" font-size="10.00">OpticalFlow::enabled</text>
</a>
</g>
</g>
<!-- Node14&#45;&gt;Node15 -->
<g id="edge14" class="edge"><title>Node14&#45;&gt;Node15</title>
<path fill="none" stroke="midnightblue" d="M785.898,-263.411C808.534,-258.351 836.498,-252.1 860.429,-246.751"/>
<polygon fill="midnightblue" stroke="midnightblue" points="861.415,-250.117 870.41,-244.52 859.888,-243.286 861.415,-250.117"/>
</g>
<!-- Node17 -->
<g id="node17" class="node"><title>Node17</title>
<g id="a_node17"><a doxygen="/home/ubuntu/ardupilot/docs/tags/libraries:../libraries/" xlink:href="../libraries/classAP__InertialNav__NavEKF.html#ae87c895946085addaf80588e2dea73fa" target="_top" xlink:title="AP_InertialNav_NavEKF\l::get_origin">
<polygon fill="white" stroke="black" points="851.5,-176 851.5,-206 976.5,-206 976.5,-176 851.5,-176"/>
<text text-anchor="start" x="859.5" y="-194" font-family="Helvetica,sans-Serif" font-size="10.00">AP_InertialNav_NavEKF</text>
<text text-anchor="middle" x="914" y="-183" font-family="Helvetica,sans-Serif" font-size="10.00">::get_origin</text>
</a>
</g>
</g>
<!-- Node16&#45;&gt;Node17 -->
<g id="edge18" class="edge"><title>Node16&#45;&gt;Node17</title>
<path fill="none" stroke="midnightblue" d="M612.733,-204.222C631.478,-208.577 653.08,-212.852 673,-215 733.98,-221.575 750.076,-222.071 811,-215 823.548,-213.544 836.793,-211.112 849.434,-208.34"/>
<polygon fill="midnightblue" stroke="midnightblue" points="850.449,-211.699 859.417,-206.057 848.889,-204.875 850.449,-211.699"/>
</g>
<!-- Node18 -->
<g id="node18" class="node"><title>Node18</title>
<g id="a_node18"><a xlink:href="classCopter.html#aa8f8088a19c4bcf27db83123be9e4521" target="_top" xlink:title="Copter::pv_alt_above\l_origin">
<polygon fill="white" stroke="black" points="687,-176 687,-206 797,-206 797,-176 687,-176"/>
<text text-anchor="start" x="695" y="-194" font-family="Helvetica,sans-Serif" font-size="10.00">Copter::pv_alt_above</text>
<text text-anchor="middle" x="742" y="-183" font-family="Helvetica,sans-Serif" font-size="10.00">_origin</text>
</a>
</g>
</g>
<!-- Node16&#45;&gt;Node18 -->
<g id="edge19" class="edge"><title>Node16&#45;&gt;Node18</title>
<path fill="none" stroke="midnightblue" d="M612.583,-191C632.385,-191 655.45,-191 676.525,-191"/>
<polygon fill="midnightblue" stroke="midnightblue" points="676.688,-194.5 686.688,-191 676.687,-187.5 676.688,-194.5"/>
</g>
<!-- Node18&#45;&gt;Node17 -->
<g id="edge20" class="edge"><title>Node18&#45;&gt;Node17</title>
<path fill="none" stroke="midnightblue" d="M797.256,-191C811.231,-191 826.487,-191 841.201,-191"/>
<polygon fill="midnightblue" stroke="midnightblue" points="841.28,-194.5 851.28,-191 841.28,-187.5 841.28,-194.5"/>
</g>
<!-- Node18&#45;&gt;Node19 -->
<g id="edge21" class="edge"><title>Node18&#45;&gt;Node19</title>
<path fill="none" stroke="midnightblue" d="M797.256,-176.957C819.486,-171.204 844.958,-164.611 866.337,-159.077"/>
<polygon fill="midnightblue" stroke="midnightblue" points="867.354,-162.43 876.158,-156.536 865.6,-155.653 867.354,-162.43"/>
</g>
<!-- Node22 -->
<g id="node22" class="node"><title>Node22</title>
<g id="a_node22"><a doxygen="/home/ubuntu/ardupilot/docs/tags/libraries:../libraries/" xlink:href="../libraries/AP__Math_8h.html#a2c34476e01b9988589e9be01e6c8b5f0" target="_top" xlink:title="norm">
<polygon fill="white" stroke="black" points="723,-44.5 723,-63.5 761,-63.5 761,-44.5 723,-44.5"/>
<text text-anchor="middle" x="742" y="-51.5" font-family="Helvetica,sans-Serif" font-size="10.00">norm</text>
</a>
</g>
</g>
<!-- Node21&#45;&gt;Node22 -->
<g id="edge25" class="edge"><title>Node21&#45;&gt;Node22</title>
<path fill="none" stroke="midnightblue" d="M626.007,-54C655.534,-54 689.245,-54 712.497,-54"/>
<polygon fill="midnightblue" stroke="midnightblue" points="712.699,-57.5001 722.699,-54 712.699,-50.5001 712.699,-57.5001"/>
</g>
<!-- Node26 -->
<g id="node26" class="node"><title>Node26</title>
<g id="a_node26"><a doxygen="/home/ubuntu/ardupilot/docs/tags/libraries:../libraries/" xlink:href="../libraries/classAP__Mission.html#ad27b4531fa652b277bd9300b60ca4493" target="_top" xlink:title="AP_Mission::update">
<polygon fill="white" stroke="black" points="328.5,-137.5 328.5,-156.5 432.5,-156.5 432.5,-137.5 328.5,-137.5"/>
<text text-anchor="middle" x="380.5" y="-144.5" font-family="Helvetica,sans-Serif" font-size="10.00">AP_Mission::update</text>
</a>
</g>
</g>
<!-- Node25&#45;&gt;Node26 -->
<g id="edge29" class="edge"><title>Node25&#45;&gt;Node26</title>
<path fill="none" stroke="midnightblue" d="M234.26,-205.385C251.929,-194.588 282.177,-177.126 310,-166 315.945,-163.623 322.292,-161.436 328.641,-159.46"/>
<polygon fill="midnightblue" stroke="midnightblue" points="329.965,-162.718 338.564,-156.529 327.982,-156.005 329.965,-162.718"/>
</g>
</g>
</svg>
