<?xml version="1.0" encoding="UTF-8" standalone="no"?>
<!DOCTYPE svg PUBLIC "-//W3C//DTD SVG 1.1//EN"
 "http://www.w3.org/Graphics/SVG/1.1/DTD/svg11.dtd">
<!-- Generated by graphviz version 2.38.0 (20140413.2041)
 -->
<!-- Title: Copter::set_mode_RTL_or_land_with_pause Pages: 1 -->
<svg width="1649pt" height="571pt"
 viewBox="0.00 0.00 1649.00 571.21" xmlns="http://www.w3.org/2000/svg" xmlns:xlink="http://www.w3.org/1999/xlink">
<g id="graph0" class="graph" transform="scale(1 1) rotate(0) translate(4 567.206)">
<title>Copter::set_mode_RTL_or_land_with_pause</title>
<polygon fill="white" stroke="none" points="-4,4 -4,-567.206 1645,-567.206 1645,4 -4,4"/>
<!-- Node1 -->
<g id="node1" class="node"><title>Node1</title>
<polygon fill="#bfbfbf" stroke="black" points="0,-211.706 0,-241.706 119,-241.706 119,-211.706 0,-211.706"/>
<text text-anchor="start" x="8" y="-229.706" font-family="Helvetica,sans-Serif" font-size="10.00">Copter::set_mode_RTL</text>
<text text-anchor="middle" x="59.5" y="-218.706" font-family="Helvetica,sans-Serif" font-size="10.00">_or_land_with_pause</text>
</g>
<!-- Node2 -->
<g id="node2" class="node"><title>Node2</title>
<g id="a_node2"><a xlink:href="classCopter.html#a36e4fd8b0054e2e6420ac2ff756ed95e" target="_top" xlink:title="Copter::failsafe_battery\l_event">
<polygon fill="white" stroke="black" points="301,-401.706 301,-431.706 420,-431.706 420,-401.706 301,-401.706"/>
<text text-anchor="start" x="309" y="-419.706" font-family="Helvetica,sans-Serif" font-size="10.00">Copter::failsafe_battery</text>
<text text-anchor="middle" x="360.5" y="-408.706" font-family="Helvetica,sans-Serif" font-size="10.00">_event</text>
</a>
</g>
</g>
<!-- Node1&#45;&gt;Node2 -->
<g id="edge1" class="edge"><title>Node1&#45;&gt;Node2</title>
<path fill="none" stroke="midnightblue" d="M92.9859,-247.349C153.594,-285.863 282.574,-367.824 335.786,-401.637"/>
<polygon fill="midnightblue" stroke="midnightblue" points="94.5292,-244.183 84.212,-241.774 90.7749,-250.091 94.5292,-244.183"/>
</g>
<!-- Node8 -->
<g id="node8" class="node"><title>Node8</title>
<g id="a_node8"><a xlink:href="classCopter.html#a3e05f940683ebe911e014fff602e5571" target="_top" xlink:title="Copter::failsafe_gcs\l_check">
<polygon fill="white" stroke="black" points="456,-59.7062 456,-89.7062 560,-89.7062 560,-59.7062 456,-59.7062"/>
<text text-anchor="start" x="464" y="-77.7062" font-family="Helvetica,sans-Serif" font-size="10.00">Copter::failsafe_gcs</text>
<text text-anchor="middle" x="508" y="-66.7062" font-family="Helvetica,sans-Serif" font-size="10.00">_check</text>
</a>
</g>
</g>
<!-- Node1&#45;&gt;Node8 -->
<g id="edge7" class="edge"><title>Node1&#45;&gt;Node8</title>
<path fill="none" stroke="midnightblue" d="M96.3841,-206.525C113.744,-197.272 135.091,-186.626 155,-178.706 259.208,-137.25 386.505,-103.64 455.889,-86.6818"/>
<polygon fill="midnightblue" stroke="midnightblue" points="94.3184,-203.663 87.1848,-211.496 97.6464,-209.821 94.3184,-203.663"/>
</g>
<!-- Node10 -->
<g id="node10" class="node"><title>Node10</title>
<g id="a_node10"><a xlink:href="classCopter.html#adea90603a44dc36fc4d196277d3ebd43" target="_top" xlink:title="Copter::failsafe_radio\l_on_event">
<polygon fill="white" stroke="black" points="155,-245.706 155,-275.706 265,-275.706 265,-245.706 155,-245.706"/>
<text text-anchor="start" x="163" y="-263.706" font-family="Helvetica,sans-Serif" font-size="10.00">Copter::failsafe_radio</text>
<text text-anchor="middle" x="210" y="-252.706" font-family="Helvetica,sans-Serif" font-size="10.00">_on_event</text>
</a>
</g>
</g>
<!-- Node1&#45;&gt;Node10 -->
<g id="edge9" class="edge"><title>Node1&#45;&gt;Node10</title>
<path fill="none" stroke="midnightblue" d="M129.141,-242.422C137.68,-244.377 146.318,-246.355 154.6,-248.251"/>
<polygon fill="midnightblue" stroke="midnightblue" points="129.72,-238.964 119.191,-240.144 128.158,-245.787 129.72,-238.964"/>
</g>
<!-- Node21 -->
<g id="node21" class="node"><title>Node21</title>
<g id="a_node21"><a xlink:href="classCopter.html#a04f0ac05def12322363ffc78086cabff" target="_top" xlink:title="Copter::failsafe_terrain\l_on_event">
<polygon fill="white" stroke="black" points="729.5,-126.706 729.5,-156.706 845.5,-156.706 845.5,-126.706 729.5,-126.706"/>
<text text-anchor="start" x="737.5" y="-144.706" font-family="Helvetica,sans-Serif" font-size="10.00">Copter::failsafe_terrain</text>
<text text-anchor="middle" x="787.5" y="-133.706" font-family="Helvetica,sans-Serif" font-size="10.00">_on_event</text>
</a>
</g>
</g>
<!-- Node1&#45;&gt;Node21 -->
<g id="edge29" class="edge"><title>Node1&#45;&gt;Node21</title>
<path fill="none" stroke="midnightblue" d="M129.459,-214.378C189.899,-204.649 280.234,-192.706 359.5,-192.706 359.5,-192.706 359.5,-192.706 509,-192.706 589.334,-192.706 680.626,-171.776 735.867,-156.732"/>
<polygon fill="midnightblue" stroke="midnightblue" points="128.582,-210.975 119.278,-216.042 129.711,-217.883 128.582,-210.975"/>
</g>
<!-- Node3 -->
<g id="node3" class="node"><title>Node3</title>
<g id="a_node3"><a xlink:href="classCopter.html#afc713ac9b46532e141374d29b024ca5d" target="_top" xlink:title="Copter::read_battery">
<polygon fill="white" stroke="black" points="1038.5,-494.206 1038.5,-513.206 1144.5,-513.206 1144.5,-494.206 1038.5,-494.206"/>
<text text-anchor="middle" x="1091.5" y="-501.206" font-family="Helvetica,sans-Serif" font-size="10.00">Copter::read_battery</text>
</a>
</g>
</g>
<!-- Node2&#45;&gt;Node3 -->
<g id="edge2" class="edge"><title>Node2&#45;&gt;Node3</title>
<path fill="none" stroke="midnightblue" d="M399.266,-436.295C452.324,-461.951 552.633,-503.706 643.5,-503.706 643.5,-503.706 643.5,-503.706 788.5,-503.706 876.19,-503.706 978.203,-503.706 1038.39,-503.706"/>
<polygon fill="midnightblue" stroke="midnightblue" points="400.751,-433.125 390.232,-431.86 397.666,-439.409 400.751,-433.125"/>
</g>
<!-- Node4 -->
<g id="node4" class="node"><title>Node4</title>
<g id="a_node4"><a xlink:href="classCopter.html#a463474e8d6d99855217b8ec3dba27d63" target="_top" xlink:title="Copter::gcs_set_mode">
<polygon fill="white" stroke="black" points="1367,-254.206 1367,-273.206 1483,-273.206 1483,-254.206 1367,-254.206"/>
<text text-anchor="middle" x="1425" y="-261.206" font-family="Helvetica,sans-Serif" font-size="10.00">Copter::gcs_set_mode</text>
</a>
</g>
</g>
<!-- Node3&#45;&gt;Node4 -->
<g id="edge3" class="edge"><title>Node3&#45;&gt;Node4</title>
<path fill="none" stroke="midnightblue" d="M1149.11,-514.641C1201.32,-521.42 1278.46,-522.694 1331,-484.706 1340.4,-477.908 1403.99,-315.258 1420.23,-273.437"/>
<polygon fill="midnightblue" stroke="midnightblue" points="1149.41,-511.148 1139.02,-513.221 1148.43,-518.08 1149.41,-511.148"/>
</g>
<!-- Node6 -->
<g id="node6" class="node"><title>Node6</title>
<g id="a_node6"><a xlink:href="classCopter.html#abd3ea1d00d3c109e18a5ab0ae08aea4f" target="_top" xlink:title="Copter::mavlink_compassmot">
<polygon fill="white" stroke="black" points="1184,-456.206 1184,-475.206 1331,-475.206 1331,-456.206 1184,-456.206"/>
<text text-anchor="middle" x="1257.5" y="-463.206" font-family="Helvetica,sans-Serif" font-size="10.00">Copter::mavlink_compassmot</text>
</a>
</g>
</g>
<!-- Node3&#45;&gt;Node6 -->
<g id="edge5" class="edge"><title>Node3&#45;&gt;Node6</title>
<path fill="none" stroke="midnightblue" d="M1143.84,-491.81C1166.89,-486.469 1193.72,-480.252 1215.41,-475.226"/>
<polygon fill="midnightblue" stroke="midnightblue" points="1142.84,-488.45 1133.88,-494.117 1144.42,-495.269 1142.84,-488.45"/>
</g>
<!-- Node7 -->
<g id="node7" class="node"><title>Node7</title>
<g id="a_node7"><a xlink:href="classCopter.html#a9df230b133ae3d697cd96ae14ba4b36d" target="_top" xlink:title="Copter::update_batt\l_compass">
<polygon fill="white" stroke="black" points="1206,-532.706 1206,-562.706 1309,-562.706 1309,-532.706 1206,-532.706"/>
<text text-anchor="start" x="1214" y="-550.706" font-family="Helvetica,sans-Serif" font-size="10.00">Copter::update_batt</text>
<text text-anchor="middle" x="1257.5" y="-539.706" font-family="Helvetica,sans-Serif" font-size="10.00">_compass</text>
</a>
</g>
</g>
<!-- Node3&#45;&gt;Node7 -->
<g id="edge6" class="edge"><title>Node3&#45;&gt;Node7</title>
<path fill="none" stroke="midnightblue" d="M1137.76,-515.85C1158.85,-521.506 1184.01,-528.258 1205.74,-534.087"/>
<polygon fill="midnightblue" stroke="midnightblue" points="1138.65,-512.464 1128.09,-513.254 1136.84,-519.225 1138.65,-512.464"/>
</g>
<!-- Node5 -->
<g id="node5" class="node"><title>Node5</title>
<g id="a_node5"><a xlink:href="classGCS__MAVLINK__Copter.html#afe85f88545dfa66f9100ed341cf5f79b" target="_top" xlink:title="GCS_MAVLINK_Copter\l::handleMessage">
<polygon fill="white" stroke="black" points="1519,-248.706 1519,-278.706 1641,-278.706 1641,-248.706 1519,-248.706"/>
<text text-anchor="start" x="1527" y="-266.706" font-family="Helvetica,sans-Serif" font-size="10.00">GCS_MAVLINK_Copter</text>
<text text-anchor="middle" x="1580" y="-255.706" font-family="Helvetica,sans-Serif" font-size="10.00">::handleMessage</text>
</a>
</g>
</g>
<!-- Node4&#45;&gt;Node5 -->
<g id="edge4" class="edge"><title>Node4&#45;&gt;Node5</title>
<path fill="none" stroke="midnightblue" d="M1493.61,-263.706C1502.06,-263.706 1510.65,-263.706 1518.97,-263.706"/>
<polygon fill="midnightblue" stroke="midnightblue" points="1493.41,-260.206 1483.41,-263.706 1493.41,-267.206 1493.41,-260.206"/>
</g>
<!-- Node9 -->
<g id="node9" class="node"><title>Node9</title>
<g id="a_node9"><a xlink:href="classCopter.html#a563dd88c9990c4a03ae5701fe358ffbb" target="_top" xlink:title="Copter::three_hz_loop">
<polygon fill="white" stroke="black" points="1035,-17.2062 1035,-36.2062 1148,-36.2062 1148,-17.2062 1035,-17.2062"/>
<text text-anchor="middle" x="1091.5" y="-24.2062" font-family="Helvetica,sans-Serif" font-size="10.00">Copter::three_hz_loop</text>
</a>
</g>
</g>
<!-- Node8&#45;&gt;Node9 -->
<g id="edge8" class="edge"><title>Node8&#45;&gt;Node9</title>
<path fill="none" stroke="midnightblue" d="M566.15,-56.8118C657.455,-30.4206 841.945,13.9095 999,-4.70616 1019.12,-7.09079 1041.21,-12.3269 1058.65,-17.0927"/>
<polygon fill="midnightblue" stroke="midnightblue" points="565.162,-53.4543 556.547,-59.6213 567.127,-60.1727 565.162,-53.4543"/>
</g>
<!-- Node11 -->
<g id="node11" class="node"><title>Node11</title>
<g id="a_node11"><a xlink:href="classCopter.html#aacbcc71b75217e04fe13be6a6100cc8f" target="_top" xlink:title="Copter::set_failsafe\l_radio">
<polygon fill="white" stroke="black" points="309.5,-257.706 309.5,-287.706 411.5,-287.706 411.5,-257.706 309.5,-257.706"/>
<text text-anchor="start" x="317.5" y="-275.706" font-family="Helvetica,sans-Serif" font-size="10.00">Copter::set_failsafe</text>
<text text-anchor="middle" x="360.5" y="-264.706" font-family="Helvetica,sans-Serif" font-size="10.00">_radio</text>
</a>
</g>
</g>
<!-- Node10&#45;&gt;Node11 -->
<g id="edge10" class="edge"><title>Node10&#45;&gt;Node11</title>
<path fill="none" stroke="midnightblue" d="M275.328,-265.904C286.67,-266.821 298.327,-267.763 309.213,-268.643"/>
<polygon fill="midnightblue" stroke="midnightblue" points="275.281,-262.389 265.032,-265.072 274.718,-269.367 275.281,-262.389"/>
</g>
<!-- Node12 -->
<g id="node12" class="node"><title>Node12</title>
<g id="a_node12"><a xlink:href="classCopter.html#ac5ff97f20044374f1b4b920228ecfe0a" target="_top" xlink:title="Copter::read_radio">
<polygon fill="white" stroke="black" points="596,-336.206 596,-355.206 693,-355.206 693,-336.206 596,-336.206"/>
<text text-anchor="middle" x="644.5" y="-343.206" font-family="Helvetica,sans-Serif" font-size="10.00">Copter::read_radio</text>
</a>
</g>
</g>
<!-- Node11&#45;&gt;Node12 -->
<g id="edge11" class="edge"><title>Node11&#45;&gt;Node12</title>
<path fill="none" stroke="midnightblue" d="M421.391,-288.21C477.425,-302.715 559.357,-323.924 606.46,-336.118"/>
<polygon fill="midnightblue" stroke="midnightblue" points="422.149,-284.791 411.591,-285.673 420.395,-291.567 422.149,-284.791"/>
</g>
<!-- Node20 -->
<g id="node20" class="node"><title>Node20</title>
<g id="a_node20"><a xlink:href="classCopter.html#ac03470242d53d3cae09e11b6467e1c5d" target="_top" xlink:title="Copter::set_throttle\l_and_failsafe">
<polygon fill="white" stroke="black" points="457.5,-257.706 457.5,-287.706 558.5,-287.706 558.5,-257.706 457.5,-257.706"/>
<text text-anchor="start" x="465.5" y="-275.706" font-family="Helvetica,sans-Serif" font-size="10.00">Copter::set_throttle</text>
<text text-anchor="middle" x="508" y="-264.706" font-family="Helvetica,sans-Serif" font-size="10.00">_and_failsafe</text>
</a>
</g>
</g>
<!-- Node11&#45;&gt;Node20 -->
<g id="edge26" class="edge"><title>Node11&#45;&gt;Node20</title>
<path fill="none" stroke="midnightblue" d="M421.811,-272.706C433.632,-272.706 445.903,-272.706 457.328,-272.706"/>
<polygon fill="midnightblue" stroke="midnightblue" points="421.573,-269.206 411.573,-272.706 421.573,-276.206 421.573,-269.206"/>
</g>
<!-- Node12&#45;&gt;Node4 -->
<g id="edge22" class="edge"><title>Node12&#45;&gt;Node4</title>
<path fill="none" stroke="midnightblue" d="M681.84,-333.094C696.347,-328.517 713.306,-323.732 729,-320.706 821.237,-302.923 845.564,-301.706 939.5,-301.706 939.5,-301.706 939.5,-301.706 1092.5,-301.706 1192.28,-301.706 1307.87,-284.502 1372.81,-273.246"/>
<polygon fill="midnightblue" stroke="midnightblue" points="680.668,-329.794 672.234,-336.206 682.825,-336.454 680.668,-329.794"/>
</g>
<!-- Node12&#45;&gt;Node6 -->
<g id="edge24" class="edge"><title>Node12&#45;&gt;Node6</title>
<path fill="none" stroke="midnightblue" d="M656.673,-364.041C670.651,-385.096 696.719,-418.662 729,-433.706 807.691,-470.379 1058.32,-470.319 1183.66,-467.794"/>
<polygon fill="midnightblue" stroke="midnightblue" points="659.458,-361.9 651.123,-355.359 653.561,-365.67 659.458,-361.9"/>
</g>
<!-- Node13 -->
<g id="node13" class="node"><title>Node13</title>
<g id="a_node13"><a xlink:href="classCopter.html#ac591bd59db1512b7bc72798cd80df138" target="_top" xlink:title="Copter::esc_calibration\l_passthrough">
<polygon fill="white" stroke="black" points="729,-330.706 729,-360.706 846,-360.706 846,-330.706 729,-330.706"/>
<text text-anchor="start" x="737" y="-348.706" font-family="Helvetica,sans-Serif" font-size="10.00">Copter::esc_calibration</text>
<text text-anchor="middle" x="787.5" y="-337.706" font-family="Helvetica,sans-Serif" font-size="10.00">_passthrough</text>
</a>
</g>
</g>
<!-- Node12&#45;&gt;Node13 -->
<g id="edge12" class="edge"><title>Node12&#45;&gt;Node13</title>
<path fill="none" stroke="midnightblue" d="M703.262,-345.706C711.609,-345.706 720.202,-345.706 728.552,-345.706"/>
<polygon fill="midnightblue" stroke="midnightblue" points="703.236,-342.206 693.236,-345.706 703.236,-349.206 703.236,-342.206"/>
</g>
<!-- Node15 -->
<g id="node15" class="node"><title>Node15</title>
<g id="a_node15"><a xlink:href="classCopter.html#aa0807aaa2460671f21b21c7f082a297d" target="_top" xlink:title="Copter::init_rc_out">
<polygon fill="white" stroke="black" points="1043,-399.206 1043,-418.206 1140,-418.206 1140,-399.206 1043,-399.206"/>
<text text-anchor="middle" x="1091.5" y="-406.206" font-family="Helvetica,sans-Serif" font-size="10.00">Copter::init_rc_out</text>
</a>
</g>
</g>
<!-- Node12&#45;&gt;Node15 -->
<g id="edge23" class="edge"><title>Node12&#45;&gt;Node15</title>
<path fill="none" stroke="midnightblue" d="M661.268,-362.714C676.785,-378.094 702.019,-399.669 729,-408.706 836.418,-444.683 972.074,-429.927 1042.75,-418.094"/>
<polygon fill="midnightblue" stroke="midnightblue" points="663.565,-360.057 654.081,-355.335 658.551,-364.941 663.565,-360.057"/>
</g>
<!-- Node19 -->
<g id="node19" class="node"><title>Node19</title>
<g id="a_node19"><a xlink:href="classCopter.html#a004840e4a777ae959ec34f7da34b46c8" target="_top" xlink:title="Copter::rc_loop">
<polygon fill="white" stroke="black" points="746,-380.206 746,-399.206 829,-399.206 829,-380.206 746,-380.206"/>
<text text-anchor="middle" x="787.5" y="-387.206" font-family="Helvetica,sans-Serif" font-size="10.00">Copter::rc_loop</text>
</a>
</g>
</g>
<!-- Node12&#45;&gt;Node19 -->
<g id="edge25" class="edge"><title>Node12&#45;&gt;Node19</title>
<path fill="none" stroke="midnightblue" d="M685.648,-358.235C707.997,-365.209 735.376,-373.753 755.965,-380.177"/>
<polygon fill="midnightblue" stroke="midnightblue" points="686.684,-354.891 676.095,-355.254 684.598,-361.574 686.684,-354.891"/>
</g>
<!-- Node14 -->
<g id="node14" class="node"><title>Node14</title>
<g id="a_node14"><a xlink:href="classCopter.html#af0284b6bd2b24b55c38661665fc50807" target="_top" xlink:title="Copter::esc_calibration\l_startup_check">
<polygon fill="white" stroke="black" points="882,-349.706 882,-379.706 999,-379.706 999,-349.706 882,-349.706"/>
<text text-anchor="start" x="890" y="-367.706" font-family="Helvetica,sans-Serif" font-size="10.00">Copter::esc_calibration</text>
<text text-anchor="middle" x="940.5" y="-356.706" font-family="Helvetica,sans-Serif" font-size="10.00">_startup_check</text>
</a>
</g>
</g>
<!-- Node13&#45;&gt;Node14 -->
<g id="edge13" class="edge"><title>Node13&#45;&gt;Node14</title>
<path fill="none" stroke="midnightblue" d="M856.052,-354.206C864.678,-355.291 873.444,-356.394 881.893,-357.458"/>
<polygon fill="midnightblue" stroke="midnightblue" points="856.376,-350.719 846.017,-352.943 855.502,-357.665 856.376,-350.719"/>
</g>
<!-- Node14&#45;&gt;Node15 -->
<g id="edge14" class="edge"><title>Node14&#45;&gt;Node15</title>
<path fill="none" stroke="midnightblue" d="M1001.95,-382.558C1021.15,-388.227 1041.64,-394.277 1058.06,-399.128"/>
<polygon fill="midnightblue" stroke="midnightblue" points="1002.94,-379.201 992.361,-379.725 1000.96,-385.914 1002.94,-379.201"/>
</g>
<!-- Node15&#45;&gt;Node4 -->
<g id="edge15" class="edge"><title>Node15&#45;&gt;Node4</title>
<path fill="none" stroke="midnightblue" d="M1150.5,-409.953C1201.13,-408.637 1275.05,-400.737 1331,-369.706 1373.82,-345.959 1406.5,-294.62 1418.74,-273.295"/>
<polygon fill="midnightblue" stroke="midnightblue" points="1150.31,-406.456 1140.38,-410.137 1150.44,-413.455 1150.31,-406.456"/>
</g>
<!-- Node15&#45;&gt;Node6 -->
<g id="edge19" class="edge"><title>Node15&#45;&gt;Node6</title>
<path fill="none" stroke="midnightblue" d="M1122.5,-422.389C1140.17,-430.14 1163.09,-439.663 1184,-446.706 1194.23,-450.154 1205.45,-453.364 1215.94,-456.127"/>
<polygon fill="midnightblue" stroke="midnightblue" points="1123.83,-419.149 1113.27,-418.292 1120.99,-425.547 1123.83,-419.149"/>
</g>
<!-- Node16 -->
<g id="node16" class="node"><title>Node16</title>
<g id="a_node16"><a xlink:href="classCopter.html#a3dd81483501146cda2aec5d898c2592b" target="_top" xlink:title="Copter::init_ardupilot">
<polygon fill="white" stroke="black" points="1204,-418.206 1204,-437.206 1311,-437.206 1311,-418.206 1204,-418.206"/>
<text text-anchor="middle" x="1257.5" y="-425.206" font-family="Helvetica,sans-Serif" font-size="10.00">Copter::init_ardupilot</text>
</a>
</g>
</g>
<!-- Node15&#45;&gt;Node16 -->
<g id="edge16" class="edge"><title>Node15&#45;&gt;Node16</title>
<path fill="none" stroke="midnightblue" d="M1150.43,-415.418C1167.87,-417.438 1186.9,-419.643 1203.97,-421.62"/>
<polygon fill="midnightblue" stroke="midnightblue" points="1150.71,-411.927 1140.38,-414.253 1149.91,-418.88 1150.71,-411.927"/>
</g>
<!-- Node18 -->
<g id="node18" class="node"><title>Node18</title>
<g id="a_node18"><a xlink:href="classCopter.html#a79a1d0d0c01a287893782f396b69f662" target="_top" xlink:title="Copter::mavlink_motor\l_test_start">
<polygon fill="white" stroke="black" points="1199.5,-330.706 1199.5,-360.706 1315.5,-360.706 1315.5,-330.706 1199.5,-330.706"/>
<text text-anchor="start" x="1207.5" y="-348.706" font-family="Helvetica,sans-Serif" font-size="10.00">Copter::mavlink_motor</text>
<text text-anchor="middle" x="1257.5" y="-337.706" font-family="Helvetica,sans-Serif" font-size="10.00">_test_start</text>
</a>
</g>
</g>
<!-- Node15&#45;&gt;Node18 -->
<g id="edge20" class="edge"><title>Node15&#45;&gt;Node18</title>
<path fill="none" stroke="midnightblue" d="M1126.99,-395.456C1153.38,-385.319 1189.79,-371.333 1217.28,-360.771"/>
<polygon fill="midnightblue" stroke="midnightblue" points="1125.49,-392.285 1117.41,-399.138 1128,-398.819 1125.49,-392.285"/>
</g>
<!-- Node16&#45;&gt;Node4 -->
<g id="edge17" class="edge"><title>Node16&#45;&gt;Node4</title>
<path fill="none" stroke="midnightblue" d="M1312.65,-414.312C1319.18,-411.418 1325.48,-407.923 1331,-403.706 1378.78,-367.23 1409.88,-298.805 1420.21,-273.467"/>
<polygon fill="midnightblue" stroke="midnightblue" points="1311,-411.201 1302.99,-418.135 1313.57,-417.71 1311,-411.201"/>
</g>
<!-- Node17 -->
<g id="node17" class="node"><title>Node17</title>
<g id="a_node17"><a xlink:href="classCopter.html#ad672001a9ffbac72fe0ec2d8e336a4aa" target="_top" xlink:title="Copter::setup">
<polygon fill="white" stroke="black" points="1387,-418.206 1387,-437.206 1463,-437.206 1463,-418.206 1387,-418.206"/>
<text text-anchor="middle" x="1425" y="-425.206" font-family="Helvetica,sans-Serif" font-size="10.00">Copter::setup</text>
</a>
</g>
</g>
<!-- Node16&#45;&gt;Node17 -->
<g id="edge18" class="edge"><title>Node16&#45;&gt;Node17</title>
<path fill="none" stroke="midnightblue" d="M1321.61,-427.706C1343.64,-427.706 1367.63,-427.706 1386.86,-427.706"/>
<polygon fill="midnightblue" stroke="midnightblue" points="1321.32,-424.206 1311.32,-427.706 1321.32,-431.206 1321.32,-424.206"/>
</g>
<!-- Node18&#45;&gt;Node4 -->
<g id="edge21" class="edge"><title>Node18&#45;&gt;Node4</title>
<path fill="none" stroke="midnightblue" d="M1306.72,-326.683C1314.9,-323.193 1323.25,-319.462 1331,-315.706 1358.8,-302.239 1389.91,-284.213 1408.18,-273.308"/>
<polygon fill="midnightblue" stroke="midnightblue" points="1305.12,-323.56 1297.25,-330.655 1307.83,-330.015 1305.12,-323.56"/>
</g>
<!-- Node20&#45;&gt;Node4 -->
<g id="edge27" class="edge"><title>Node20&#45;&gt;Node4</title>
<path fill="none" stroke="midnightblue" d="M568.74,-269.649C624.926,-267.04 711.399,-263.706 786.5,-263.706 786.5,-263.706 786.5,-263.706 1092.5,-263.706 1188.76,-263.706 1300.73,-263.706 1366.81,-263.706"/>
<polygon fill="midnightblue" stroke="midnightblue" points="568.435,-266.16 558.611,-270.127 568.765,-273.152 568.435,-266.16"/>
</g>
<!-- Node20&#45;&gt;Node12 -->
<g id="edge28" class="edge"><title>Node20&#45;&gt;Node12</title>
<path fill="none" stroke="midnightblue" d="M545.735,-292.644C571.818,-306.8 605.672,-325.175 625.929,-336.17"/>
<polygon fill="midnightblue" stroke="midnightblue" points="547.327,-289.526 536.868,-287.832 543.988,-295.678 547.327,-289.526"/>
</g>
<!-- Node22 -->
<g id="node22" class="node"><title>Node22</title>
<g id="a_node22"><a xlink:href="classCopter.html#ac0bf95e686ade52db52db8444c38fdf7" target="_top" xlink:title="Copter::auto_circle\l_movetoedge_start">
<polygon fill="white" stroke="black" points="890.5,-199.706 890.5,-229.706 990.5,-229.706 990.5,-199.706 890.5,-199.706"/>
<text text-anchor="start" x="898.5" y="-217.706" font-family="Helvetica,sans-Serif" font-size="10.00">Copter::auto_circle</text>
<text text-anchor="middle" x="940.5" y="-206.706" font-family="Helvetica,sans-Serif" font-size="10.00">_movetoedge_start</text>
</a>
</g>
</g>
<!-- Node21&#45;&gt;Node22 -->
<g id="edge30" class="edge"><title>Node21&#45;&gt;Node22</title>
<path fill="none" stroke="midnightblue" d="M825.958,-161.631C842.941,-170.485 863.354,-180.878 882,-189.706 888.985,-193.014 896.519,-196.409 903.759,-199.59"/>
<polygon fill="midnightblue" stroke="midnightblue" points="827.391,-158.431 816.909,-156.891 824.143,-164.632 827.391,-158.431"/>
</g>
<!-- Node26 -->
<g id="node26" class="node"><title>Node26</title>
<g id="a_node26"><a xlink:href="classCopter.html#ac931294c224169ea64d2c693d807c7e3" target="_top" xlink:title="Copter::auto_spline\l_start">
<polygon fill="white" stroke="black" points="890,-150.706 890,-180.706 991,-180.706 991,-150.706 890,-150.706"/>
<text text-anchor="start" x="898" y="-168.706" font-family="Helvetica,sans-Serif" font-size="10.00">Copter::auto_spline</text>
<text text-anchor="middle" x="940.5" y="-157.706" font-family="Helvetica,sans-Serif" font-size="10.00">_start</text>
</a>
</g>
</g>
<!-- Node21&#45;&gt;Node26 -->
<g id="edge36" class="edge"><title>Node21&#45;&gt;Node26</title>
<path fill="none" stroke="midnightblue" d="M855.586,-152.369C867.072,-154.194 878.822,-156.062 889.753,-157.799"/>
<polygon fill="midnightblue" stroke="midnightblue" points="856.012,-148.893 845.587,-150.78 854.913,-155.806 856.012,-148.893"/>
</g>
<!-- Node28 -->
<g id="node28" class="node"><title>Node28</title>
<g id="a_node28"><a xlink:href="classCopter.html#ac2a856dddf1dd5d5dc959d793caf50d3" target="_top" xlink:title="Copter::auto_takeoff\l_start">
<polygon fill="white" stroke="black" points="887.5,-101.706 887.5,-131.706 993.5,-131.706 993.5,-101.706 887.5,-101.706"/>
<text text-anchor="start" x="895.5" y="-119.706" font-family="Helvetica,sans-Serif" font-size="10.00">Copter::auto_takeoff</text>
<text text-anchor="middle" x="940.5" y="-108.706" font-family="Helvetica,sans-Serif" font-size="10.00">_start</text>
</a>
</g>
</g>
<!-- Node21&#45;&gt;Node28 -->
<g id="edge41" class="edge"><title>Node21&#45;&gt;Node28</title>
<path fill="none" stroke="midnightblue" d="M855.662,-130.587C866.271,-128.83 877.101,-127.037 887.303,-125.348"/>
<polygon fill="midnightblue" stroke="midnightblue" points="854.881,-127.168 845.587,-132.255 856.024,-134.074 854.881,-127.168"/>
</g>
<!-- Node30 -->
<g id="node30" class="node"><title>Node30</title>
<g id="a_node30"><a xlink:href="classCopter.html#ad26dd2c64fa1c96a14f9b634d08fa3d0" target="_top" xlink:title="Copter::auto_wp_start">
<polygon fill="white" stroke="black" points="884,-14.2062 884,-33.2062 997,-33.2062 997,-14.2062 884,-14.2062"/>
<text text-anchor="middle" x="940.5" y="-21.2062" font-family="Helvetica,sans-Serif" font-size="10.00">Copter::auto_wp_start</text>
</a>
</g>
</g>
<!-- Node21&#45;&gt;Node30 -->
<g id="edge45" class="edge"><title>Node21&#45;&gt;Node30</title>
<path fill="none" stroke="midnightblue" d="M805.252,-118.114C822.245,-95.7766 850.478,-62.7575 882,-42.7062 887.943,-38.9254 894.714,-35.8223 901.473,-33.3009"/>
<polygon fill="midnightblue" stroke="midnightblue" points="802.257,-116.276 799.097,-126.389 807.873,-120.454 802.257,-116.276"/>
</g>
<!-- Node31 -->
<g id="node31" class="node"><title>Node31</title>
<g id="a_node31"><a xlink:href="classCopter.html#aa79b7d499d3969f3de9cde10c6a52fc9" target="_top" xlink:title="Copter::failsafe_terrain\l_check">
<polygon fill="white" stroke="black" points="882.5,-52.7062 882.5,-82.7062 998.5,-82.7062 998.5,-52.7062 882.5,-52.7062"/>
<text text-anchor="start" x="890.5" y="-70.7062" font-family="Helvetica,sans-Serif" font-size="10.00">Copter::failsafe_terrain</text>
<text text-anchor="middle" x="940.5" y="-59.7062" font-family="Helvetica,sans-Serif" font-size="10.00">_check</text>
</a>
</g>
</g>
<!-- Node21&#45;&gt;Node31 -->
<g id="edge46" class="edge"><title>Node21&#45;&gt;Node31</title>
<path fill="none" stroke="midnightblue" d="M824.303,-121.524C841.546,-112.072 862.637,-100.898 882,-91.7062 888.352,-88.6907 895.185,-85.6593 901.846,-82.8144"/>
<polygon fill="midnightblue" stroke="midnightblue" points="822.219,-118.677 815.156,-126.574 825.602,-124.805 822.219,-118.677"/>
</g>
<!-- Node23 -->
<g id="node23" class="node"><title>Node23</title>
<g id="a_node23"><a xlink:href="classCopter.html#aa4ac3cd31db363a144b466fea7e24042" target="_top" xlink:title="Copter::do_circle">
<polygon fill="white" stroke="black" points="1046,-178.206 1046,-197.206 1137,-197.206 1137,-178.206 1046,-178.206"/>
<text text-anchor="middle" x="1091.5" y="-185.206" font-family="Helvetica,sans-Serif" font-size="10.00">Copter::do_circle</text>
</a>
</g>
</g>
<!-- Node22&#45;&gt;Node23 -->
<g id="edge31" class="edge"><title>Node22&#45;&gt;Node23</title>
<path fill="none" stroke="midnightblue" d="M1000.91,-203.94C1015.91,-201.223 1031.75,-198.352 1045.88,-195.792"/>
<polygon fill="midnightblue" stroke="midnightblue" points="999.917,-200.563 990.701,-205.791 1001.16,-207.451 999.917,-200.563"/>
</g>
<!-- Node23&#45;&gt;Node4 -->
<g id="edge32" class="edge"><title>Node23&#45;&gt;Node4</title>
<path fill="none" stroke="midnightblue" d="M1147.21,-186.939C1196.39,-187.709 1270.04,-192.51 1331,-211.706 1361.7,-221.374 1393.63,-241.922 1410.94,-254.094"/>
<polygon fill="midnightblue" stroke="midnightblue" points="1147.14,-183.438 1137.1,-186.832 1147.06,-190.438 1147.14,-183.438"/>
</g>
<!-- Node24 -->
<g id="node24" class="node"><title>Node24</title>
<g id="a_node24"><a xlink:href="classCopter.html#a2cf235a443c7340387c4f767b4edba1d" target="_top" xlink:title="Copter::start_command">
<polygon fill="white" stroke="black" points="1198,-102.206 1198,-121.206 1317,-121.206 1317,-102.206 1198,-102.206"/>
<text text-anchor="middle" x="1257.5" y="-109.206" font-family="Helvetica,sans-Serif" font-size="10.00">Copter::start_command</text>
</a>
</g>
</g>
<!-- Node23&#45;&gt;Node24 -->
<g id="edge33" class="edge"><title>Node23&#45;&gt;Node24</title>
<path fill="none" stroke="midnightblue" d="M1132.86,-174.709C1138,-172.814 1143.16,-170.793 1148,-168.706 1181.61,-154.226 1219.04,-133.473 1239.98,-121.413"/>
<polygon fill="midnightblue" stroke="midnightblue" points="1131.32,-171.54 1123.07,-178.184 1133.66,-178.137 1131.32,-171.54"/>
</g>
<!-- Node24&#45;&gt;Node4 -->
<g id="edge35" class="edge"><title>Node24&#45;&gt;Node4</title>
<path fill="none" stroke="midnightblue" d="M1311.51,-124.902C1318.41,-127.842 1325.11,-131.404 1331,-135.706 1376.24,-168.768 1408.44,-230.419 1419.65,-254.1"/>
<polygon fill="midnightblue" stroke="midnightblue" points="1312.63,-121.583 1302.04,-121.266 1310.12,-128.118 1312.63,-121.583"/>
</g>
<!-- Node25 -->
<g id="node25" class="node"><title>Node25</title>
<g id="a_node25"><a xlink:href="classCopter.html#a42d6cd95e346fa67559b307fd3d85b82" target="_top" xlink:title="Copter::Copter">
<polygon fill="white" stroke="black" points="1384.5,-102.206 1384.5,-121.206 1465.5,-121.206 1465.5,-102.206 1384.5,-102.206"/>
<text text-anchor="middle" x="1425" y="-109.206" font-family="Helvetica,sans-Serif" font-size="10.00">Copter::Copter</text>
</a>
</g>
</g>
<!-- Node24&#45;&gt;Node25 -->
<g id="edge34" class="edge"><title>Node24&#45;&gt;Node25</title>
<path fill="none" stroke="midnightblue" d="M1327.35,-111.706C1346.76,-111.706 1367.22,-111.706 1384.29,-111.706"/>
<polygon fill="midnightblue" stroke="midnightblue" points="1327.32,-108.206 1317.32,-111.706 1327.32,-115.206 1327.32,-108.206"/>
</g>
<!-- Node26&#45;&gt;Node4 -->
<g id="edge40" class="edge"><title>Node26&#45;&gt;Node4</title>
<path fill="none" stroke="midnightblue" d="M987.826,-184.826C991.615,-186.455 995.378,-188.096 999,-189.706 1015.17,-196.894 1018.06,-201.6 1035,-206.706 1162.28,-245.066 1199.49,-230.256 1331,-249.706 1342.63,-251.426 1355.07,-253.286 1366.95,-255.071"/>
<polygon fill="midnightblue" stroke="midnightblue" points="988.989,-181.517 978.417,-180.821 986.247,-187.958 988.989,-181.517"/>
</g>
<!-- Node27 -->
<g id="node27" class="node"><title>Node27</title>
<g id="a_node27"><a xlink:href="classCopter.html#a6e67e20e61fb007cad10d25295b738af" target="_top" xlink:title="Copter::do_spline_wp">
<polygon fill="white" stroke="black" points="1036,-140.206 1036,-159.206 1147,-159.206 1147,-140.206 1036,-140.206"/>
<text text-anchor="middle" x="1091.5" y="-147.206" font-family="Helvetica,sans-Serif" font-size="10.00">Copter::do_spline_wp</text>
</a>
</g>
</g>
<!-- Node26&#45;&gt;Node27 -->
<g id="edge37" class="edge"><title>Node26&#45;&gt;Node27</title>
<path fill="none" stroke="midnightblue" d="M1001.08,-159.308C1012.6,-158.071 1024.62,-156.78 1035.97,-155.561"/>
<polygon fill="midnightblue" stroke="midnightblue" points="1000.68,-155.831 991.115,-160.378 1001.43,-162.791 1000.68,-155.831"/>
</g>
<!-- Node27&#45;&gt;Node4 -->
<g id="edge38" class="edge"><title>Node27&#45;&gt;Node4</title>
<path fill="none" stroke="midnightblue" d="M1157.73,-149.664C1207.27,-151.866 1276,-159.82 1331,-184.706 1367.67,-201.301 1401.14,-236.779 1415.96,-253.97"/>
<polygon fill="midnightblue" stroke="midnightblue" points="1157.59,-146.157 1147.47,-149.278 1157.33,-153.152 1157.59,-146.157"/>
</g>
<!-- Node27&#45;&gt;Node24 -->
<g id="edge39" class="edge"><title>Node27&#45;&gt;Node24</title>
<path fill="none" stroke="midnightblue" d="M1143.84,-137.81C1166.89,-132.469 1193.72,-126.252 1215.41,-121.226"/>
<polygon fill="midnightblue" stroke="midnightblue" points="1142.84,-134.45 1133.88,-140.117 1144.42,-141.269 1142.84,-134.45"/>
</g>
<!-- Node29 -->
<g id="node29" class="node"><title>Node29</title>
<g id="a_node29"><a xlink:href="classCopter.html#aa2a88780ff0454d3621ba51b20d35a38" target="_top" xlink:title="Copter::do_takeoff">
<polygon fill="white" stroke="black" points="1042.5,-102.206 1042.5,-121.206 1140.5,-121.206 1140.5,-102.206 1042.5,-102.206"/>
<text text-anchor="middle" x="1091.5" y="-109.206" font-family="Helvetica,sans-Serif" font-size="10.00">Copter::do_takeoff</text>
</a>
</g>
</g>
<!-- Node28&#45;&gt;Node29 -->
<g id="edge42" class="edge"><title>Node28&#45;&gt;Node29</title>
<path fill="none" stroke="midnightblue" d="M1003.76,-114.617C1016.59,-114.186 1029.92,-113.739 1042.16,-113.328"/>
<polygon fill="midnightblue" stroke="midnightblue" points="1003.49,-111.124 993.613,-114.957 1003.72,-118.12 1003.49,-111.124"/>
</g>
<!-- Node29&#45;&gt;Node4 -->
<g id="edge43" class="edge"><title>Node29&#45;&gt;Node4</title>
<path fill="none" stroke="midnightblue" d="M1124.06,-98.3329C1172.36,-80.1242 1265.83,-53.9662 1331,-92.7062 1362.37,-111.356 1407.01,-220.272 1420.2,-253.852"/>
<polygon fill="midnightblue" stroke="midnightblue" points="1122.52,-95.1791 1114.47,-102.072 1125.06,-101.701 1122.52,-95.1791"/>
</g>
<!-- Node29&#45;&gt;Node24 -->
<g id="edge44" class="edge"><title>Node29&#45;&gt;Node24</title>
<path fill="none" stroke="midnightblue" d="M1151.11,-111.706C1166.28,-111.706 1182.62,-111.706 1197.79,-111.706"/>
<polygon fill="midnightblue" stroke="midnightblue" points="1150.82,-108.206 1140.82,-111.706 1150.82,-115.206 1150.82,-108.206"/>
</g>
<!-- Node31&#45;&gt;Node9 -->
<g id="edge47" class="edge"><title>Node31&#45;&gt;Node9</title>
<path fill="none" stroke="midnightblue" d="M1006.08,-49.9346C1023.17,-45.234 1040.96,-40.3385 1055.78,-36.2606"/>
<polygon fill="midnightblue" stroke="midnightblue" points="1004.85,-46.6444 996.136,-52.6721 1006.71,-53.3935 1004.85,-46.6444"/>
</g>
</g>
</svg>
