<?xml version="1.0" encoding="UTF-8" standalone="no"?>
<!DOCTYPE svg PUBLIC "-//W3C//DTD SVG 1.1//EN"
 "http://www.w3.org/Graphics/SVG/1.1/DTD/svg11.dtd">
<!-- Generated by graphviz version 2.38.0 (20140413.2041)
 -->
<!-- Title: Copter::mavlink_motor_test_check Pages: 1 -->
<svg width="476pt" height="220pt"
 viewBox="0.00 0.00 476.00 220.00" xmlns="http://www.w3.org/2000/svg" xmlns:xlink="http://www.w3.org/1999/xlink">
<g id="graph0" class="graph" transform="scale(1 1) rotate(0) translate(4 216)">
<title>Copter::mavlink_motor_test_check</title>
<polygon fill="white" stroke="none" points="-4,4 -4,-216 472,-216 472,4 -4,4"/>
<!-- Node1 -->
<g id="node1" class="node"><title>Node1</title>
<polygon fill="#bfbfbf" stroke="black" points="0,-44.5 0,-74.5 116,-74.5 116,-44.5 0,-44.5"/>
<text text-anchor="start" x="8" y="-62.5" font-family="Helvetica,sans-Serif" font-size="10.00">Copter::mavlink_motor</text>
<text text-anchor="middle" x="58" y="-51.5" font-family="Helvetica,sans-Serif" font-size="10.00">_test_check</text>
</g>
<!-- Node2 -->
<g id="node2" class="node"><title>Node2</title>
<g id="a_node2"><a xlink:href="classAP__Arming__Copter.html#a3cfee91ce2d91772a4fa327e1f8c28ca" target="_top" xlink:title="AP_Arming_Copter::pre\l_arm_rc_checks">
<polygon fill="white" stroke="black" points="160.5,-88.5 160.5,-118.5 280.5,-118.5 280.5,-88.5 160.5,-88.5"/>
<text text-anchor="start" x="168.5" y="-106.5" font-family="Helvetica,sans-Serif" font-size="10.00">AP_Arming_Copter::pre</text>
<text text-anchor="middle" x="220.5" y="-95.5" font-family="Helvetica,sans-Serif" font-size="10.00">_arm_rc_checks</text>
</a>
</g>
</g>
<!-- Node1&#45;&gt;Node2 -->
<g id="edge1" class="edge"><title>Node1&#45;&gt;Node2</title>
<path fill="none" stroke="midnightblue" d="M113.786,-74.5192C127.013,-78.1452 141.269,-82.0534 154.898,-85.7899"/>
<polygon fill="midnightblue" stroke="midnightblue" points="154.119,-89.2053 164.689,-88.4738 155.97,-82.4544 154.119,-89.2053"/>
</g>
<!-- Node8 -->
<g id="node8" class="node"><title>Node8</title>
<g id="a_node8"><a doxygen="/home/ubuntu/ardupilot/docs/tags/libraries:../libraries/" xlink:href="../libraries/classGCS__MAVLINK.html#aa2e6d51ad904b828f1fcc2a72829fbe3" target="_top" xlink:title="GCS_MAVLINK::send_text">
<polygon fill="white" stroke="black" points="152,-50 152,-69 289,-69 289,-50 152,-50"/>
<text text-anchor="middle" x="220.5" y="-57" font-family="Helvetica,sans-Serif" font-size="10.00">GCS_MAVLINK::send_text</text>
</a>
</g>
</g>
<!-- Node1&#45;&gt;Node8 -->
<g id="edge7" class="edge"><title>Node1&#45;&gt;Node8</title>
<path fill="none" stroke="midnightblue" d="M116.038,-59.5C124.392,-59.5 133.114,-59.5 141.795,-59.5"/>
<polygon fill="midnightblue" stroke="midnightblue" points="141.944,-63.0001 151.944,-59.5 141.944,-56.0001 141.944,-63.0001"/>
</g>
<!-- Node9 -->
<g id="node9" class="node"><title>Node9</title>
<g id="a_node9"><a doxygen="/home/ubuntu/ardupilot/docs/tags/libraries:../libraries/" xlink:href="../libraries/classAP__HAL_1_1Util.html#a9cd8bcd13d4c3c74c665b0702f86451b" target="_top" xlink:title="AP_HAL::Util::safety\l_switch_state">
<polygon fill="white" stroke="black" points="166,-0.5 166,-30.5 275,-30.5 275,-0.5 166,-0.5"/>
<text text-anchor="start" x="174" y="-18.5" font-family="Helvetica,sans-Serif" font-size="10.00">AP_HAL::Util::safety</text>
<text text-anchor="middle" x="220.5" y="-7.5" font-family="Helvetica,sans-Serif" font-size="10.00">_switch_state</text>
</a>
</g>
</g>
<!-- Node1&#45;&gt;Node9 -->
<g id="edge8" class="edge"><title>Node1&#45;&gt;Node9</title>
<path fill="none" stroke="midnightblue" d="M113.786,-44.4808C127.305,-40.7746 141.899,-36.7737 155.801,-32.9626"/>
<polygon fill="midnightblue" stroke="midnightblue" points="157.057,-36.2475 165.776,-30.2281 155.206,-29.4966 157.057,-36.2475"/>
</g>
<!-- Node3 -->
<g id="node3" class="node"><title>Node3</title>
<g id="a_node3"><a xlink:href="classAP__Arming__Copter.html#aa575a3eb6a08dfe032c897b27021aae7" target="_top" xlink:title="AP_Arming_Copter::set\l_pre_arm_rc_check">
<polygon fill="white" stroke="black" points="336.5,-181.5 336.5,-211.5 456.5,-211.5 456.5,-181.5 336.5,-181.5"/>
<text text-anchor="start" x="344.5" y="-199.5" font-family="Helvetica,sans-Serif" font-size="10.00">AP_Arming_Copter::set</text>
<text text-anchor="middle" x="396.5" y="-188.5" font-family="Helvetica,sans-Serif" font-size="10.00">_pre_arm_rc_check</text>
</a>
</g>
</g>
<!-- Node2&#45;&gt;Node3 -->
<g id="edge2" class="edge"><title>Node2&#45;&gt;Node3</title>
<path fill="none" stroke="midnightblue" d="M240.797,-118.602C260.918,-133.798 293.815,-157.125 325,-172.5 328.718,-174.333 332.611,-176.084 336.576,-177.743"/>
<polygon fill="midnightblue" stroke="midnightblue" points="335.326,-181.013 345.911,-181.447 337.907,-174.506 335.326,-181.013"/>
</g>
<!-- Node4 -->
<g id="node4" class="node"><title>Node4</title>
<g id="a_node4"><a doxygen="/home/ubuntu/ardupilot/docs/tags/libraries:../libraries/" xlink:href="../libraries/classRC__Channel.html#aecef59cacbca54443b0c5d13e054284a" target="_top" xlink:title="RC_Channel::min_max\l_configured">
<polygon fill="white" stroke="black" points="337,-132.5 337,-162.5 456,-162.5 456,-132.5 337,-132.5"/>
<text text-anchor="start" x="345" y="-150.5" font-family="Helvetica,sans-Serif" font-size="10.00">RC_Channel::min_max</text>
<text text-anchor="middle" x="396.5" y="-139.5" font-family="Helvetica,sans-Serif" font-size="10.00">_configured</text>
</a>
</g>
</g>
<!-- Node2&#45;&gt;Node4 -->
<g id="edge3" class="edge"><title>Node2&#45;&gt;Node4</title>
<path fill="none" stroke="midnightblue" d="M280.894,-118.519C295.754,-122.277 311.813,-126.338 327.072,-130.196"/>
<polygon fill="midnightblue" stroke="midnightblue" points="326.41,-133.639 336.963,-132.698 328.126,-126.853 326.41,-133.639"/>
</g>
<!-- Node5 -->
<g id="node5" class="node"><title>Node5</title>
<g id="a_node5"><a doxygen="/home/ubuntu/ardupilot/docs/tags/libraries:../libraries/" xlink:href="../libraries/classRC__Channel.html#a28435fa792b2a6e187eb8c08d88b929c" target="_top" xlink:title="RC_Channel::get_radio_min">
<polygon fill="white" stroke="black" points="326.5,-94 326.5,-113 466.5,-113 466.5,-94 326.5,-94"/>
<text text-anchor="middle" x="396.5" y="-101" font-family="Helvetica,sans-Serif" font-size="10.00">RC_Channel::get_radio_min</text>
</a>
</g>
</g>
<!-- Node2&#45;&gt;Node5 -->
<g id="edge4" class="edge"><title>Node2&#45;&gt;Node5</title>
<path fill="none" stroke="midnightblue" d="M280.894,-103.5C292.24,-103.5 304.284,-103.5 316.138,-103.5"/>
<polygon fill="midnightblue" stroke="midnightblue" points="316.484,-107 326.484,-103.5 316.484,-100 316.484,-107"/>
</g>
<!-- Node6 -->
<g id="node6" class="node"><title>Node6</title>
<g id="a_node6"><a doxygen="/home/ubuntu/ardupilot/docs/tags/libraries:../libraries/" xlink:href="../libraries/classRC__Channel.html#a8e742b258b4b600ec69fa4c5580df20a" target="_top" xlink:title="RC_Channel::get_radio_max">
<polygon fill="white" stroke="black" points="325,-56 325,-75 468,-75 468,-56 325,-56"/>
<text text-anchor="middle" x="396.5" y="-63" font-family="Helvetica,sans-Serif" font-size="10.00">RC_Channel::get_radio_max</text>
</a>
</g>
</g>
<!-- Node2&#45;&gt;Node6 -->
<g id="edge5" class="edge"><title>Node2&#45;&gt;Node6</title>
<path fill="none" stroke="midnightblue" d="M280.894,-90.5288C300.68,-86.2079 322.59,-81.4228 341.909,-77.2038"/>
<polygon fill="midnightblue" stroke="midnightblue" points="342.727,-80.6076 351.75,-75.0545 341.234,-73.7688 342.727,-80.6076"/>
</g>
<!-- Node7 -->
<g id="node7" class="node"><title>Node7</title>
<g id="a_node7"><a doxygen="/home/ubuntu/ardupilot/docs/tags/libraries:../libraries/" xlink:href="../libraries/classRC__Channel.html#a8a847c3461c668af1be5bd09da151316" target="_top" xlink:title="RC_Channel::get_radio_trim">
<polygon fill="white" stroke="black" points="326.5,-18 326.5,-37 466.5,-37 466.5,-18 326.5,-18"/>
<text text-anchor="middle" x="396.5" y="-25" font-family="Helvetica,sans-Serif" font-size="10.00">RC_Channel::get_radio_trim</text>
</a>
</g>
</g>
<!-- Node2&#45;&gt;Node7 -->
<g id="edge6" class="edge"><title>Node2&#45;&gt;Node7</title>
<path fill="none" stroke="midnightblue" d="M269.023,-88.4635C275.923,-85.5542 282.786,-82.2307 289,-78.5 307.354,-67.4814 306.162,-56.6681 325,-46.5 329.239,-44.212 333.773,-42.1846 338.421,-40.3909"/>
<polygon fill="midnightblue" stroke="midnightblue" points="339.773,-43.626 348.063,-37.0285 337.468,-37.0164 339.773,-43.626"/>
</g>
</g>
</svg>
