<?xml version="1.0" encoding="UTF-8" standalone="no"?>
<!DOCTYPE svg PUBLIC "-//W3C//DTD SVG 1.1//EN"
 "http://www.w3.org/Graphics/SVG/1.1/DTD/svg11.dtd">
<!-- Generated by graphviz version 2.38.0 (20140413.2041)
 -->
<!-- Title: Copter::verify_loiter_time Pages: 1 -->
<svg width="299pt" height="78pt"
 viewBox="0.00 0.00 299.00 77.50" xmlns="http://www.w3.org/2000/svg" xmlns:xlink="http://www.w3.org/1999/xlink">
<g id="graph0" class="graph" transform="scale(1 1) rotate(0) translate(4 73.5)">
<title>Copter::verify_loiter_time</title>
<polygon fill="white" stroke="none" points="-4,4 -4,-73.5 295,-73.5 295,4 -4,4"/>
<!-- Node1 -->
<g id="node1" class="node"><title>Node1</title>
<polygon fill="#bfbfbf" stroke="black" points="0,-22.5 0,-41.5 126,-41.5 126,-22.5 0,-22.5"/>
<text text-anchor="middle" x="63" y="-29.5" font-family="Helvetica,sans-Serif" font-size="10.00">Copter::verify_loiter_time</text>
</g>
<!-- Node2 -->
<g id="node2" class="node"><title>Node2</title>
<g id="a_node2"><a doxygen="/home/ubuntu/ardupilot/docs/tags/libraries:../libraries/" xlink:href="../libraries/classAC__WPNav.html#adbec07431487eb68aa5bd5d0f8a0c9cd" target="_top" xlink:title="AC_WPNav::reached_wp\l_destination">
<polygon fill="white" stroke="black" points="162,-39 162,-69 291,-69 291,-39 162,-39"/>
<text text-anchor="start" x="170" y="-57" font-family="Helvetica,sans-Serif" font-size="10.00">AC_WPNav::reached_wp</text>
<text text-anchor="middle" x="226.5" y="-46" font-family="Helvetica,sans-Serif" font-size="10.00">_destination</text>
</a>
</g>
</g>
<!-- Node1&#45;&gt;Node2 -->
<g id="edge1" class="edge"><title>Node1&#45;&gt;Node2</title>
<path fill="none" stroke="midnightblue" d="M126.44,-40.5058C134.798,-41.6443 143.431,-42.8204 151.957,-43.9818"/>
<polygon fill="midnightblue" stroke="midnightblue" points="151.512,-47.4534 161.893,-45.3352 152.457,-40.5174 151.512,-47.4534"/>
</g>
<!-- Node3 -->
<g id="node3" class="node"><title>Node3</title>
<g id="a_node3"><a doxygen="/home/ubuntu/ardupilot/docs/tags/libraries:../libraries/" xlink:href="../libraries/namespaceAP__HAL.html#a77dffbb18891996280308e21316ec186" target="_top" xlink:title="millis">
<polygon fill="white" stroke="black" points="207,-0.5 207,-19.5 246,-19.5 246,-0.5 207,-0.5"/>
<text text-anchor="middle" x="226.5" y="-7.5" font-family="Helvetica,sans-Serif" font-size="10.00">millis</text>
</a>
</g>
</g>
<!-- Node1&#45;&gt;Node3 -->
<g id="edge2" class="edge"><title>Node1&#45;&gt;Node3</title>
<path fill="none" stroke="midnightblue" d="M126.44,-23.4942C150.705,-20.1887 177.299,-16.5661 196.817,-13.9073"/>
<polygon fill="midnightblue" stroke="midnightblue" points="197.437,-17.3553 206.873,-12.5374 196.492,-10.4193 197.437,-17.3553"/>
</g>
</g>
</svg>
