<?xml version="1.0" encoding="UTF-8" standalone="no"?>
<!DOCTYPE svg PUBLIC "-//W3C//DTD SVG 1.1//EN"
 "http://www.w3.org/Graphics/SVG/1.1/DTD/svg11.dtd">
<!-- Generated by graphviz version 2.38.0 (20140413.2041)
 -->
<!-- Title: Copter::report_flight_modes Pages: 1 -->
<svg width="568pt" height="146pt"
 viewBox="0.00 0.00 568.00 146.29" xmlns="http://www.w3.org/2000/svg" xmlns:xlink="http://www.w3.org/1999/xlink">
<g id="graph0" class="graph" transform="scale(1 1) rotate(0) translate(4 142.286)">
<title>Copter::report_flight_modes</title>
<polygon fill="white" stroke="none" points="-4,4 -4,-142.286 564,-142.286 564,4 -4,4"/>
<!-- Node1 -->
<g id="node1" class="node"><title>Node1</title>
<polygon fill="#bfbfbf" stroke="black" points="0,-72.7778 0,-102.778 103,-102.778 103,-72.7778 0,-72.7778"/>
<text text-anchor="start" x="8" y="-90.7778" font-family="Helvetica,sans-Serif" font-size="10.00">Copter::report_flight</text>
<text text-anchor="middle" x="51.5" y="-79.7778" font-family="Helvetica,sans-Serif" font-size="10.00">_modes</text>
</g>
<!-- Node2 -->
<g id="node2" class="node"><title>Node2</title>
<g id="a_node2"><a doxygen="/home/ubuntu/ardupilot/docs/tags/libraries:../libraries/" xlink:href="../libraries/classAP__HAL_1_1BetterStream.html#a1042d8b81aea5fb096d1b7431d7a9484" target="_top" xlink:title="AP_HAL::BetterStream\l::printf">
<polygon fill="white" stroke="black" points="441,-53.7778 441,-83.7778 560,-83.7778 560,-53.7778 441,-53.7778"/>
<text text-anchor="start" x="449" y="-71.7778" font-family="Helvetica,sans-Serif" font-size="10.00">AP_HAL::BetterStream</text>
<text text-anchor="middle" x="500.5" y="-60.7778" font-family="Helvetica,sans-Serif" font-size="10.00">::printf</text>
</a>
</g>
</g>
<!-- Node1&#45;&gt;Node2 -->
<g id="edge1" class="edge"><title>Node1&#45;&gt;Node2</title>
<path fill="none" stroke="midnightblue" d="M96.2236,-102.823C163.712,-123.756 296.778,-155.889 405,-125.778 430.063,-118.804 455.124,-103.193 473.135,-90.0686"/>
<polygon fill="midnightblue" stroke="midnightblue" points="475.487,-92.6794 481.379,-83.8742 471.282,-87.083 475.487,-92.6794"/>
</g>
<!-- Node3 -->
<g id="node3" class="node"><title>Node3</title>
<g id="a_node3"><a xlink:href="classCopter.html#a0f925190ad117d5b9061b8efe8d4fbef" target="_top" xlink:title="Copter::print_divider">
<polygon fill="white" stroke="black" points="290,-97.2778 290,-116.278 394,-116.278 394,-97.2778 290,-97.2778"/>
<text text-anchor="middle" x="342" y="-104.278" font-family="Helvetica,sans-Serif" font-size="10.00">Copter::print_divider</text>
</a>
</g>
</g>
<!-- Node1&#45;&gt;Node3 -->
<g id="edge2" class="edge"><title>Node1&#45;&gt;Node3</title>
<path fill="none" stroke="midnightblue" d="M103.083,-91.1091C152.321,-94.3518 227.212,-99.2839 279.786,-102.746"/>
<polygon fill="midnightblue" stroke="midnightblue" points="279.781,-106.254 289.99,-103.418 280.241,-99.2687 279.781,-106.254"/>
</g>
<!-- Node4 -->
<g id="node4" class="node"><title>Node4</title>
<g id="a_node4"><a xlink:href="classCopter.html#afc2a992887a639c243d5bc464324acc4" target="_top" xlink:title="Copter::print_switch">
<polygon fill="white" stroke="black" points="139,-59.2778 139,-78.2778 243,-78.2778 243,-59.2778 139,-59.2778"/>
<text text-anchor="middle" x="191" y="-66.2778" font-family="Helvetica,sans-Serif" font-size="10.00">Copter::print_switch</text>
</a>
</g>
</g>
<!-- Node1&#45;&gt;Node4 -->
<g id="edge4" class="edge"><title>Node1&#45;&gt;Node4</title>
<path fill="none" stroke="midnightblue" d="M103.309,-80.7569C111.667,-79.602 120.405,-78.3945 128.981,-77.2096"/>
<polygon fill="midnightblue" stroke="midnightblue" points="129.514,-80.6692 138.941,-75.8333 128.556,-73.7351 129.514,-80.6692"/>
</g>
<!-- Node6 -->
<g id="node6" class="node"><title>Node6</title>
<g id="a_node6"><a xlink:href="classCopter.html#accd6091912ae8d9818d9be5ffa1d60bf" target="_top" xlink:title="Copter::print_blanks">
<polygon fill="white" stroke="black" points="139,-2.2778 139,-21.2778 243,-21.2778 243,-2.2778 139,-2.2778"/>
<text text-anchor="middle" x="191" y="-9.2778" font-family="Helvetica,sans-Serif" font-size="10.00">Copter::print_blanks</text>
</a>
</g>
</g>
<!-- Node1&#45;&gt;Node6 -->
<g id="edge8" class="edge"><title>Node1&#45;&gt;Node6</title>
<path fill="none" stroke="midnightblue" d="M79.6656,-72.7626C103.986,-59.3198 139.429,-39.7299 163.533,-26.4066"/>
<polygon fill="midnightblue" stroke="midnightblue" points="165.422,-29.3619 172.481,-21.4611 162.036,-23.2354 165.422,-29.3619"/>
</g>
<!-- Node3&#45;&gt;Node2 -->
<g id="edge3" class="edge"><title>Node3&#45;&gt;Node2</title>
<path fill="none" stroke="midnightblue" d="M382.492,-97.1888C397.114,-93.6383 414.152,-89.5012 430.628,-85.5007"/>
<polygon fill="midnightblue" stroke="midnightblue" points="431.895,-88.7948 440.787,-83.034 430.243,-81.9925 431.895,-88.7948"/>
</g>
<!-- Node4&#45;&gt;Node2 -->
<g id="edge5" class="edge"><title>Node4&#45;&gt;Node2</title>
<path fill="none" stroke="midnightblue" d="M243.123,-68.7778C294.409,-68.7778 373.734,-68.7778 430.561,-68.7778"/>
<polygon fill="midnightblue" stroke="midnightblue" points="430.899,-72.2779 440.899,-68.7778 430.899,-65.2779 430.899,-72.2779"/>
</g>
<!-- Node5 -->
<g id="node5" class="node"><title>Node5</title>
<g id="a_node5"><a xlink:href="classCopter.html#ada2767ebfdd65319acac0963b364187a" target="_top" xlink:title="Copter::print_flight_mode">
<polygon fill="white" stroke="black" points="279,-21.2778 279,-40.2778 405,-40.2778 405,-21.2778 279,-21.2778"/>
<text text-anchor="middle" x="342" y="-28.2778" font-family="Helvetica,sans-Serif" font-size="10.00">Copter::print_flight_mode</text>
</a>
</g>
</g>
<!-- Node4&#45;&gt;Node5 -->
<g id="edge6" class="edge"><title>Node4&#45;&gt;Node5</title>
<path fill="none" stroke="midnightblue" d="M229.599,-59.1888C249.084,-54.2195 273.075,-48.1011 293.796,-42.8164"/>
<polygon fill="midnightblue" stroke="midnightblue" points="294.846,-46.1606 303.671,-40.2978 293.117,-39.3777 294.846,-46.1606"/>
</g>
<!-- Node5&#45;&gt;Node2 -->
<g id="edge7" class="edge"><title>Node5&#45;&gt;Node2</title>
<path fill="none" stroke="midnightblue" d="M382.492,-40.3668C397.114,-43.9173 414.152,-48.0544 430.628,-52.0548"/>
<polygon fill="midnightblue" stroke="midnightblue" points="430.243,-55.5631 440.787,-54.5216 431.895,-48.7608 430.243,-55.5631"/>
</g>
<!-- Node6&#45;&gt;Node2 -->
<g id="edge9" class="edge"><title>Node6&#45;&gt;Node2</title>
<path fill="none" stroke="midnightblue" d="M243.39,-4.17687C287.192,0.51817 351.383,3.14053 405,-11.7778 430.063,-18.7513 455.124,-34.3626 473.135,-47.487"/>
<polygon fill="midnightblue" stroke="midnightblue" points="471.282,-50.4726 481.379,-53.6814 475.487,-44.8762 471.282,-50.4726"/>
</g>
</g>
</svg>
