<?xml version="1.0" encoding="UTF-8" standalone="no"?>
<!DOCTYPE svg PUBLIC "-//W3C//DTD SVG 1.1//EN"
 "http://www.w3.org/Graphics/SVG/1.1/DTD/svg11.dtd">
<!-- Generated by graphviz version 2.38.0 (20140413.2041)
 -->
<!-- Title: Copter::update_optical_flow Pages: 1 -->
<svg width="513pt" height="388pt"
 viewBox="0.00 0.00 513.00 387.50" xmlns="http://www.w3.org/2000/svg" xmlns:xlink="http://www.w3.org/1999/xlink">
<g id="graph0" class="graph" transform="scale(1 1) rotate(0) translate(4 383.5)">
<title>Copter::update_optical_flow</title>
<polygon fill="white" stroke="none" points="-4,4 -4,-383.5 509,-383.5 509,4 -4,4"/>
<!-- Node1 -->
<g id="node1" class="node"><title>Node1</title>
<polygon fill="#bfbfbf" stroke="black" points="0,-175 0,-194 138,-194 138,-175 0,-175"/>
<text text-anchor="middle" x="69" y="-182" font-family="Helvetica,sans-Serif" font-size="10.00">Copter::update_optical_flow</text>
</g>
<!-- Node2 -->
<g id="node2" class="node"><title>Node2</title>
<g id="a_node2"><a doxygen="/home/ubuntu/ardupilot/docs/tags/libraries:../libraries/" xlink:href="../libraries/classOpticalFlow.html#adef66cc90d87a9261c9d3454723f9455" target="_top" xlink:title="OpticalFlow::enabled">
<polygon fill="white" stroke="black" points="378,-360 378,-379 486,-379 486,-360 378,-360"/>
<text text-anchor="middle" x="432" y="-367" font-family="Helvetica,sans-Serif" font-size="10.00">OpticalFlow::enabled</text>
</a>
</g>
</g>
<!-- Node1&#45;&gt;Node2 -->
<g id="edge1" class="edge"><title>Node1&#45;&gt;Node2</title>
<path fill="none" stroke="midnightblue" d="M74.7365,-194.215C87.2262,-218.729 123.594,-283.357 174,-314.5 233.076,-351 312.742,-363.54 367.637,-367.709"/>
<polygon fill="midnightblue" stroke="midnightblue" points="367.714,-371.222 377.93,-368.414 368.193,-364.238 367.714,-371.222"/>
</g>
<!-- Node3 -->
<g id="node3" class="node"><title>Node3</title>
<g id="a_node3"><a doxygen="/home/ubuntu/ardupilot/docs/tags/libraries:../libraries/" xlink:href="../libraries/classOpticalFlow.html#ac258809639b5a3475f5c20e552f04d18" target="_top" xlink:title="OpticalFlow::update">
<polygon fill="white" stroke="black" points="196.5,-137 196.5,-156 300.5,-156 300.5,-137 196.5,-137"/>
<text text-anchor="middle" x="248.5" y="-144" font-family="Helvetica,sans-Serif" font-size="10.00">OpticalFlow::update</text>
</a>
</g>
</g>
<!-- Node1&#45;&gt;Node3 -->
<g id="edge2" class="edge"><title>Node1&#45;&gt;Node3</title>
<path fill="none" stroke="midnightblue" d="M114.791,-174.911C138.53,-169.829 167.884,-163.545 192.944,-158.18"/>
<polygon fill="midnightblue" stroke="midnightblue" points="193.986,-161.536 203.031,-156.02 192.52,-154.691 193.986,-161.536"/>
</g>
<!-- Node4 -->
<g id="node4" class="node"><title>Node4</title>
<g id="a_node4"><a doxygen="/home/ubuntu/ardupilot/docs/tags/libraries:../libraries/" xlink:href="../libraries/classOpticalFlow.html#a0301d2c021ee1f6daef17861431862f6" target="_top" xlink:title="OpticalFlow::last_update">
<polygon fill="white" stroke="black" points="186,-99 186,-118 311,-118 311,-99 186,-99"/>
<text text-anchor="middle" x="248.5" y="-106" font-family="Helvetica,sans-Serif" font-size="10.00">OpticalFlow::last_update</text>
</a>
</g>
</g>
<!-- Node1&#45;&gt;Node4 -->
<g id="edge3" class="edge"><title>Node1&#45;&gt;Node4</title>
<path fill="none" stroke="midnightblue" d="M84.5855,-174.977C104.202,-162.534 140.501,-140.77 174,-127.5 180.175,-125.054 186.766,-122.835 193.371,-120.848"/>
<polygon fill="midnightblue" stroke="midnightblue" points="194.352,-124.208 203.011,-118.104 192.435,-117.475 194.352,-124.208"/>
</g>
<!-- Node5 -->
<g id="node5" class="node"><title>Node5</title>
<g id="a_node5"><a doxygen="/home/ubuntu/ardupilot/docs/tags/libraries:../libraries/" xlink:href="../libraries/classOpticalFlow.html#aaa2fabaf2eba2c42cfada95f4ea54884" target="_top" xlink:title="OpticalFlow::quality">
<polygon fill="white" stroke="black" points="380.5,-322 380.5,-341 483.5,-341 483.5,-322 380.5,-322"/>
<text text-anchor="middle" x="432" y="-329" font-family="Helvetica,sans-Serif" font-size="10.00">OpticalFlow::quality</text>
</a>
</g>
</g>
<!-- Node1&#45;&gt;Node5 -->
<g id="edge4" class="edge"><title>Node1&#45;&gt;Node5</title>
<path fill="none" stroke="midnightblue" d="M77.4182,-194.133C93.0049,-213.639 131.265,-257.796 174,-279.5 236.152,-311.065 315.905,-323.474 369.964,-328.349"/>
<polygon fill="midnightblue" stroke="midnightblue" points="369.826,-331.85 380.085,-329.201 370.414,-324.874 369.826,-331.85"/>
</g>
<!-- Node6 -->
<g id="node6" class="node"><title>Node6</title>
<g id="a_node6"><a doxygen="/home/ubuntu/ardupilot/docs/tags/libraries:../libraries/" xlink:href="../libraries/classOpticalFlow.html#a4dd087283914aed39380f21aff1edf16" target="_top" xlink:title="OpticalFlow::flowRate">
<polygon fill="white" stroke="black" points="375.5,-208 375.5,-227 488.5,-227 488.5,-208 375.5,-208"/>
<text text-anchor="middle" x="432" y="-215" font-family="Helvetica,sans-Serif" font-size="10.00">OpticalFlow::flowRate</text>
</a>
</g>
</g>
<!-- Node1&#45;&gt;Node6 -->
<g id="edge5" class="edge"><title>Node1&#45;&gt;Node6</title>
<path fill="none" stroke="midnightblue" d="M138.23,-191.914C150.149,-193.152 162.433,-194.393 174,-195.5 238.986,-201.718 313.299,-207.988 365.242,-212.235"/>
<polygon fill="midnightblue" stroke="midnightblue" points="365.072,-215.733 375.323,-213.057 365.641,-208.756 365.072,-215.733"/>
</g>
<!-- Node7 -->
<g id="node7" class="node"><title>Node7</title>
<g id="a_node7"><a doxygen="/home/ubuntu/ardupilot/docs/tags/libraries:../libraries/" xlink:href="../libraries/classOpticalFlow.html#ad8ac13be7fb6308e9eb0841ba9788382" target="_top" xlink:title="OpticalFlow::bodyRate">
<polygon fill="white" stroke="black" points="374,-170 374,-189 490,-189 490,-170 374,-170"/>
<text text-anchor="middle" x="432" y="-177" font-family="Helvetica,sans-Serif" font-size="10.00">OpticalFlow::bodyRate</text>
</a>
</g>
</g>
<!-- Node1&#45;&gt;Node7 -->
<g id="edge6" class="edge"><title>Node1&#45;&gt;Node7</title>
<path fill="none" stroke="midnightblue" d="M138.326,-183.554C203.035,-182.657 299.61,-181.32 363.909,-180.429"/>
<polygon fill="midnightblue" stroke="midnightblue" points="363.992,-183.929 373.942,-180.29 363.895,-176.929 363.992,-183.929"/>
</g>
<!-- Node8 -->
<g id="node8" class="node"><title>Node8</title>
<g id="a_node8"><a doxygen="/home/ubuntu/ardupilot/docs/tags/libraries:../libraries/" xlink:href="../libraries/classOpticalFlow.html#a0395f60ef41094555d146558e21059a0" target="_top" xlink:title="OpticalFlow::get_pos\l_offset">
<polygon fill="white" stroke="black" points="194,-49.5 194,-79.5 303,-79.5 303,-49.5 194,-49.5"/>
<text text-anchor="start" x="202" y="-67.5" font-family="Helvetica,sans-Serif" font-size="10.00">OpticalFlow::get_pos</text>
<text text-anchor="middle" x="248.5" y="-56.5" font-family="Helvetica,sans-Serif" font-size="10.00">_offset</text>
</a>
</g>
</g>
<!-- Node1&#45;&gt;Node8 -->
<g id="edge7" class="edge"><title>Node1&#45;&gt;Node8</title>
<path fill="none" stroke="midnightblue" d="M78.1599,-174.732C94.4949,-155.753 133.164,-113.648 174,-89.5 177.589,-87.3775 181.384,-85.4029 185.283,-83.5714"/>
<polygon fill="midnightblue" stroke="midnightblue" points="186.746,-86.7523 194.521,-79.5556 183.955,-80.3327 186.746,-86.7523"/>
</g>
<!-- Node9 -->
<g id="node9" class="node"><title>Node9</title>
<g id="a_node9"><a doxygen="/home/ubuntu/ardupilot/docs/tags/libraries:../libraries/" xlink:href="../libraries/classAP__AHRS__NavEKF.html#ad76ccff9976368f00a842595f15748a3" target="_top" xlink:title="AP_AHRS_NavEKF::writeOpt\lFlowMeas">
<polygon fill="white" stroke="black" points="174,-0.5 174,-30.5 323,-30.5 323,-0.5 174,-0.5"/>
<text text-anchor="start" x="182" y="-18.5" font-family="Helvetica,sans-Serif" font-size="10.00">AP_AHRS_NavEKF::writeOpt</text>
<text text-anchor="middle" x="248.5" y="-7.5" font-family="Helvetica,sans-Serif" font-size="10.00">FlowMeas</text>
</a>
</g>
</g>
<!-- Node1&#45;&gt;Node9 -->
<g id="edge8" class="edge"><title>Node1&#45;&gt;Node9</title>
<path fill="none" stroke="midnightblue" d="M74.2856,-174.761C86.1968,-148.809 122.263,-77.3891 174,-39.5 175.892,-38.1145 177.868,-36.8064 179.907,-35.5715"/>
<polygon fill="midnightblue" stroke="midnightblue" points="182.022,-38.41 189.196,-30.6133 178.726,-32.2348 182.022,-38.41"/>
</g>
<!-- Node10 -->
<g id="node10" class="node"><title>Node10</title>
<g id="a_node10"><a xlink:href="classCopter.html#af5cf3beb8f9e8f57392cdc8702fe595d" target="_top" xlink:title="Copter::Log_Write_Optflow">
<polygon fill="white" stroke="black" points="181,-251 181,-270 316,-270 316,-251 181,-251"/>
<text text-anchor="middle" x="248.5" y="-258" font-family="Helvetica,sans-Serif" font-size="10.00">Copter::Log_Write_Optflow</text>
</a>
</g>
</g>
<!-- Node1&#45;&gt;Node10 -->
<g id="edge9" class="edge"><title>Node1&#45;&gt;Node10</title>
<path fill="none" stroke="midnightblue" d="M87.2974,-194.143C107.643,-205.249 142.628,-223.618 174,-236.5 183.881,-240.557 194.72,-244.411 204.967,-247.796"/>
<polygon fill="midnightblue" stroke="midnightblue" points="203.968,-251.151 214.56,-250.888 206.116,-244.489 203.968,-251.151"/>
</g>
<!-- Node10&#45;&gt;Node2 -->
<g id="edge10" class="edge"><title>Node10&#45;&gt;Node2</title>
<path fill="none" stroke="midnightblue" d="M258.449,-270.238C275.954,-288.698 316.721,-328.865 359,-350.5 363.558,-352.833 368.43,-354.898 373.409,-356.724"/>
<polygon fill="midnightblue" stroke="midnightblue" points="372.467,-360.099 383.06,-359.945 374.683,-353.459 372.467,-360.099"/>
</g>
<!-- Node10&#45;&gt;Node5 -->
<g id="edge14" class="edge"><title>Node10&#45;&gt;Node5</title>
<path fill="none" stroke="midnightblue" d="M271.864,-270.1C286.517,-276.497 306.028,-285.222 323,-293.5 339.26,-301.431 342.145,-305.927 359,-312.5 365.231,-314.93 371.884,-317.154 378.534,-319.155"/>
<polygon fill="midnightblue" stroke="midnightblue" points="377.649,-322.542 388.226,-321.927 379.574,-315.812 377.649,-322.542"/>
</g>
<!-- Node10&#45;&gt;Node6 -->
<g id="edge11" class="edge"><title>Node10&#45;&gt;Node6</title>
<path fill="none" stroke="midnightblue" d="M289.781,-250.957C316.686,-244.583 352.27,-236.152 380.986,-229.349"/>
<polygon fill="midnightblue" stroke="midnightblue" points="381.908,-232.728 390.832,-227.016 380.294,-225.916 381.908,-232.728"/>
</g>
<!-- Node10&#45;&gt;Node7 -->
<g id="edge12" class="edge"><title>Node10&#45;&gt;Node7</title>
<path fill="none" stroke="midnightblue" d="M263.771,-250.824C284.114,-237.409 322.984,-213.162 359,-198.5 364.893,-196.101 371.182,-193.922 377.496,-191.967"/>
<polygon fill="midnightblue" stroke="midnightblue" points="378.767,-195.242 387.386,-189.081 376.806,-188.523 378.767,-195.242"/>
</g>
<!-- Node11 -->
<g id="node11" class="node"><title>Node11</title>
<g id="a_node11"><a doxygen="/home/ubuntu/ardupilot/docs/tags/libraries:../libraries/" xlink:href="../libraries/namespaceAP__HAL.html#a7aa0ce7625c9680e30ff4a99940907a5" target="_top" xlink:title="AP_HAL::micros64">
<polygon fill="white" stroke="black" points="381.5,-284 381.5,-303 482.5,-303 482.5,-284 381.5,-284"/>
<text text-anchor="middle" x="432" y="-291" font-family="Helvetica,sans-Serif" font-size="10.00">AP_HAL::micros64</text>
</a>
</g>
</g>
<!-- Node10&#45;&gt;Node11 -->
<g id="edge13" class="edge"><title>Node10&#45;&gt;Node11</title>
<path fill="none" stroke="midnightblue" d="M301.997,-270.045C323.696,-273.99 348.966,-278.585 371.361,-282.657"/>
<polygon fill="midnightblue" stroke="midnightblue" points="370.96,-286.141 381.425,-284.486 372.212,-279.254 370.96,-286.141"/>
</g>
<!-- Node12 -->
<g id="node12" class="node"><title>Node12</title>
<g id="a_node12"><a doxygen="/home/ubuntu/ardupilot/docs/tags/libraries:../libraries/" xlink:href="../libraries/classDataFlash__Class.html#aed2efc0f40e155bce78f0a9719279bd0" target="_top" xlink:title="DataFlash_Class::WriteBlock">
<polygon fill="white" stroke="black" points="359,-246 359,-265 505,-265 505,-246 359,-246"/>
<text text-anchor="middle" x="432" y="-253" font-family="Helvetica,sans-Serif" font-size="10.00">DataFlash_Class::WriteBlock</text>
</a>
</g>
</g>
<!-- Node10&#45;&gt;Node12 -->
<g id="edge15" class="edge"><title>Node10&#45;&gt;Node12</title>
<path fill="none" stroke="midnightblue" d="M316.053,-258.667C326.743,-258.372 337.915,-258.064 348.917,-257.761"/>
<polygon fill="midnightblue" stroke="midnightblue" points="349.053,-261.259 358.953,-257.485 348.86,-254.262 349.053,-261.259"/>
</g>
</g>
</svg>
