<?xml version="1.0" encoding="UTF-8" standalone="no"?>
<!DOCTYPE svg PUBLIC "-//W3C//DTD SVG 1.1//EN"
 "http://www.w3.org/Graphics/SVG/1.1/DTD/svg11.dtd">
<!-- Generated by graphviz version 2.38.0 (20140413.2041)
 -->
<!-- Title: AP_Arming_Copter::pre_arm_gps_checks Pages: 1 -->
<!--zoomable 215 -->
<svg id="main" version="1.1" xmlns="http://www.w3.org/2000/svg" xmlns:xlink="http://www.w3.org/1999/xlink" xml:space="preserve" onload="init(evt)">
<style type="text/css"><![CDATA[
.edge:hover path { stroke: red; }
.edge:hover polygon { stroke: red; fill: red; }
]]></style>
<script type="text/javascript"><![CDATA[
var edges = document.getElementsByTagName('g');
if (edges && edges.length) {
  for (var i=0;i<edges.length;i++) {
    if (edges[i].id.substr(0,4)=='edge') {
      edges[i].setAttribute('class','edge');
    }
  }
}
]]></script>
        <defs>
                <circle id="rim" cx="0" cy="0" r="7"/>
                <circle id="rim2" cx="0" cy="0" r="3.5"/>
                <g id="zoomPlus">
                        <use xlink:href="#rim" fill="#404040">
                                <set attributeName="fill" to="#808080" begin="zoomplus.mouseover" end="zoomplus.mouseout"/>
                        </use>
                        <path d="M-4,0h8M0,-4v8" fill="none" stroke="white" stroke-width="1.5" pointer-events="none"/>
                </g>
                <g id="zoomMin">
                        <use xlink:href="#rim" fill="#404040">
                                <set attributeName="fill" to="#808080" begin="zoomminus.mouseover" end="zoomminus.mouseout"/>
                        </use>
                        <path d="M-4,0h8" fill="none" stroke="white" stroke-width="1.5" pointer-events="none"/>
                </g>
                <g id="dirArrow">
                        <path fill="none" stroke="white" stroke-width="1.5" d="M0,-3.0v7 M-2.5,-0.5L0,-3.0L2.5,-0.5"/>
                </g>
               <g id="resetDef">
                       <use xlink:href="#rim2" fill="#404040">
                               <set attributeName="fill" to="#808080" begin="reset.mouseover" end="reset.mouseout"/>
                       </use>
               </g>
        </defs>

<script type="text/javascript">
var viewWidth = 1225;
var viewHeight = 215;
var sectionId = 'dynsection-32';
</script>
<script xlink:href="svgpan.js"/>
<svg id="graph" class="graph">
<g id="viewport">
<title>AP_Arming_Copter::pre_arm_gps_checks</title>
<polygon fill="white" stroke="none" points="-4,4 -4,-211.059 1221,-211.059 1221,4 -4,4"/>
<!-- Node1 -->
<g id="node1" class="node"><title>Node1</title>
<polygon fill="#bfbfbf" stroke="black" points="0,-88.6682 0,-118.668 120,-118.668 120,-88.6682 0,-88.6682"/>
<text text-anchor="start" x="8" y="-106.668" font-family="Helvetica,sans-Serif" font-size="10.00">AP_Arming_Copter::pre</text>
<text text-anchor="middle" x="60" y="-95.6682" font-family="Helvetica,sans-Serif" font-size="10.00">_arm_gps_checks</text>
</g>
<!-- Node2 -->
<g id="node2" class="node"><title>Node2</title>
<g id="a_node2"><a xlink:href="classAP__Arming__Copter.html#a648d42363e504b53c1c5fb837a74c83b" target="_top" xlink:title="AP_Arming_Copter::AP\l_Arming_Copter">
<polygon fill="white" stroke="black" points="646,-91.6682 646,-121.668 766,-121.668 766,-91.6682 646,-91.6682"/>
<text text-anchor="start" x="654" y="-109.668" font-family="Helvetica,sans-Serif" font-size="10.00">AP_Arming_Copter::AP</text>
<text text-anchor="middle" x="706" y="-98.6682" font-family="Helvetica,sans-Serif" font-size="10.00">_Arming_Copter</text>
</a>
</g>
</g>
<!-- Node1&#45;&gt;Node2 -->
<g id="edge1" class="edge"><title>Node1&#45;&gt;Node2</title>
<path fill="none" stroke="midnightblue" d="M130.176,-105.269C138.87,-105.428 147.641,-105.567 156,-105.668 334.222,-107.825 545.011,-107.364 645.692,-106.959"/>
<polygon fill="midnightblue" stroke="midnightblue" points="130.101,-101.767 120.036,-105.075 129.967,-108.766 130.101,-101.767"/>
</g>
<!-- Node3 -->
<g id="node3" class="node"><title>Node3</title>
<g id="a_node3"><a xlink:href="classAP__Arming__Copter.html#a0845a66a1ef204c0e376c144a4127f7a" target="_top" xlink:title="AP_Arming_Copter::arm\l_checks">
<polygon fill="white" stroke="black" points="314,-151.668 314,-181.668 437,-181.668 437,-151.668 314,-151.668"/>
<text text-anchor="start" x="322" y="-169.668" font-family="Helvetica,sans-Serif" font-size="10.00">AP_Arming_Copter::arm</text>
<text text-anchor="middle" x="375.5" y="-158.668" font-family="Helvetica,sans-Serif" font-size="10.00">_checks</text>
</a>
</g>
</g>
<!-- Node1&#45;&gt;Node3 -->
<g id="edge2" class="edge"><title>Node1&#45;&gt;Node3</title>
<path fill="none" stroke="midnightblue" d="M108.441,-122.214C123.466,-127.526 140.262,-132.894 156,-136.668 208.5,-149.259 269.452,-157.081 313.619,-161.568"/>
<polygon fill="midnightblue" stroke="midnightblue" points="109.447,-118.856 98.8522,-118.748 107.067,-125.439 109.447,-118.856"/>
</g>
<!-- Node9 -->
<g id="node9" class="node"><title>Node9</title>
<g id="a_node9"><a xlink:href="classAP__Arming__Copter.html#a9a5094e7f565bb1172636ce9653632b0" target="_top" xlink:title="AP_Arming_Copter::gps\l_checks">
<polygon fill="white" stroke="black" points="156,-25.6682 156,-55.6682 278,-55.6682 278,-25.6682 156,-25.6682"/>
<text text-anchor="start" x="164" y="-43.6682" font-family="Helvetica,sans-Serif" font-size="10.00">AP_Arming_Copter::gps</text>
<text text-anchor="middle" x="217" y="-32.6682" font-family="Helvetica,sans-Serif" font-size="10.00">_checks</text>
</a>
</g>
</g>
<!-- Node1&#45;&gt;Node9 -->
<g id="edge11" class="edge"><title>Node1&#45;&gt;Node9</title>
<path fill="none" stroke="midnightblue" d="M107.615,-84.7215C130.432,-75.4473 157.52,-64.4373 178.908,-55.7442"/>
<polygon fill="midnightblue" stroke="midnightblue" points="106.072,-81.5703 98.1264,-88.5781 108.708,-88.0551 106.072,-81.5703"/>
</g>
<!-- Node10 -->
<g id="node10" class="node"><title>Node10</title>
<g id="a_node10"><a xlink:href="classAP__Arming__Copter.html#a4d21f6e5747f95805519e52aa4ef6014" target="_top" xlink:title="AP_Arming_Copter::pre\l_arm_checks">
<polygon fill="white" stroke="black" points="315.5,-63.6682 315.5,-93.6682 435.5,-93.6682 435.5,-63.6682 315.5,-63.6682"/>
<text text-anchor="start" x="323.5" y="-81.6682" font-family="Helvetica,sans-Serif" font-size="10.00">AP_Arming_Copter::pre</text>
<text text-anchor="middle" x="375.5" y="-70.6682" font-family="Helvetica,sans-Serif" font-size="10.00">_arm_checks</text>
</a>
</g>
</g>
<!-- Node1&#45;&gt;Node10 -->
<g id="edge19" class="edge"><title>Node1&#45;&gt;Node10</title>
<path fill="none" stroke="midnightblue" d="M130.436,-98.131C185.922,-93.7063 262.842,-87.5724 315.407,-83.3805"/>
<polygon fill="midnightblue" stroke="midnightblue" points="130.026,-94.6525 120.336,-98.9365 130.582,-101.63 130.026,-94.6525"/>
</g>
<!-- Node3&#45;&gt;Node2 -->
<g id="edge10" class="edge"><title>Node3&#45;&gt;Node2</title>
<path fill="none" stroke="midnightblue" d="M421.938,-185.166C470.605,-201.963 548.937,-220.131 609,-191.668 631.833,-180.848 626.38,-164.748 645,-147.668 655.506,-138.031 668.428,-128.914 679.585,-121.734"/>
<polygon fill="midnightblue" stroke="midnightblue" points="422.912,-181.798 412.317,-181.73 420.557,-188.39 422.912,-181.798"/>
</g>
<!-- Node4 -->
<g id="node4" class="node"><title>Node4</title>
<g id="a_node4"><a xlink:href="classAP__Arming__Copter.html#a24db4e071c410c66870bb5fbc7910319" target="_top" xlink:title="AP_Arming_Copter::all\l_checks_passing">
<polygon fill="white" stroke="black" points="483,-151.668 483,-181.668 599,-181.668 599,-151.668 483,-151.668"/>
<text text-anchor="start" x="491" y="-169.668" font-family="Helvetica,sans-Serif" font-size="10.00">AP_Arming_Copter::all</text>
<text text-anchor="middle" x="541" y="-158.668" font-family="Helvetica,sans-Serif" font-size="10.00">_checks_passing</text>
</a>
</g>
</g>
<!-- Node3&#45;&gt;Node4 -->
<g id="edge3" class="edge"><title>Node3&#45;&gt;Node4</title>
<path fill="none" stroke="midnightblue" d="M447.629,-166.668C459.407,-166.668 471.483,-166.668 482.859,-166.668"/>
<polygon fill="midnightblue" stroke="midnightblue" points="447.381,-163.168 437.381,-166.668 447.381,-170.168 447.381,-163.168"/>
</g>
<!-- Node4&#45;&gt;Node2 -->
<g id="edge4" class="edge"><title>Node4&#45;&gt;Node2</title>
<path fill="none" stroke="midnightblue" d="M592.72,-147.998C615.7,-139.539 642.507,-129.672 664.164,-121.7"/>
<polygon fill="midnightblue" stroke="midnightblue" points="591.307,-144.789 583.132,-151.528 593.725,-151.358 591.307,-144.789"/>
</g>
<!-- Node5 -->
<g id="node5" class="node"><title>Node5</title>
<g id="a_node5"><a xlink:href="classCopter.html#a72a557f0cc50a672db8223f628363b21" target="_top" xlink:title="Copter::init_arm_motors">
<polygon fill="white" stroke="black" points="645,-157.168 645,-176.168 767,-176.168 767,-157.168 645,-157.168"/>
<text text-anchor="middle" x="706" y="-164.168" font-family="Helvetica,sans-Serif" font-size="10.00">Copter::init_arm_motors</text>
</a>
</g>
</g>
<!-- Node4&#45;&gt;Node5 -->
<g id="edge5" class="edge"><title>Node4&#45;&gt;Node5</title>
<path fill="none" stroke="midnightblue" d="M609.277,-166.668C621.111,-166.668 633.358,-166.668 644.978,-166.668"/>
<polygon fill="midnightblue" stroke="midnightblue" points="609.01,-163.168 599.009,-166.668 609.009,-170.168 609.01,-163.168"/>
</g>
<!-- Node6 -->
<g id="node6" class="node"><title>Node6</title>
<g id="a_node6"><a xlink:href="classCopter.html#a463474e8d6d99855217b8ec3dba27d63" target="_top" xlink:title="Copter::gcs_set_mode">
<polygon fill="white" stroke="black" points="943,-157.168 943,-176.168 1059,-176.168 1059,-157.168 943,-157.168"/>
<text text-anchor="middle" x="1001" y="-164.168" font-family="Helvetica,sans-Serif" font-size="10.00">Copter::gcs_set_mode</text>
</a>
</g>
</g>
<!-- Node5&#45;&gt;Node6 -->
<g id="edge6" class="edge"><title>Node5&#45;&gt;Node6</title>
<path fill="none" stroke="midnightblue" d="M777.278,-168.301C785.941,-168.452 794.673,-168.581 803,-168.668 849.22,-169.15 860.78,-169.165 907,-168.668 918.627,-168.543 931.07,-168.33 942.951,-168.089"/>
<polygon fill="midnightblue" stroke="midnightblue" points="777.232,-164.8 767.169,-168.114 777.103,-171.798 777.232,-164.8"/>
</g>
<!-- Node8 -->
<g id="node8" class="node"><title>Node8</title>
<g id="a_node8"><a xlink:href="classCopter.html#aeda76eb57229df64b95b257218007640" target="_top" xlink:title="Copter::arm_motors\l_check">
<polygon fill="white" stroke="black" points="803,-129.668 803,-159.668 907,-159.668 907,-129.668 803,-129.668"/>
<text text-anchor="start" x="811" y="-147.668" font-family="Helvetica,sans-Serif" font-size="10.00">Copter::arm_motors</text>
<text text-anchor="middle" x="855" y="-136.668" font-family="Helvetica,sans-Serif" font-size="10.00">_check</text>
</a>
</g>
</g>
<!-- Node5&#45;&gt;Node8 -->
<g id="edge8" class="edge"><title>Node5&#45;&gt;Node8</title>
<path fill="none" stroke="midnightblue" d="M777.199,-156.162C785.751,-154.882 794.363,-153.593 802.57,-152.365"/>
<polygon fill="midnightblue" stroke="midnightblue" points="776.586,-152.715 767.215,-157.656 777.623,-159.638 776.586,-152.715"/>
</g>
<!-- Node7 -->
<g id="node7" class="node"><title>Node7</title>
<g id="a_node7"><a xlink:href="classGCS__MAVLINK__Copter.html#afe85f88545dfa66f9100ed341cf5f79b" target="_top" xlink:title="GCS_MAVLINK_Copter\l::handleMessage">
<polygon fill="white" stroke="black" points="1095,-151.668 1095,-181.668 1217,-181.668 1217,-151.668 1095,-151.668"/>
<text text-anchor="start" x="1103" y="-169.668" font-family="Helvetica,sans-Serif" font-size="10.00">GCS_MAVLINK_Copter</text>
<text text-anchor="middle" x="1156" y="-158.668" font-family="Helvetica,sans-Serif" font-size="10.00">::handleMessage</text>
</a>
</g>
</g>
<!-- Node6&#45;&gt;Node7 -->
<g id="edge7" class="edge"><title>Node6&#45;&gt;Node7</title>
<path fill="none" stroke="midnightblue" d="M1069.61,-166.668C1078.06,-166.668 1086.65,-166.668 1094.97,-166.668"/>
<polygon fill="midnightblue" stroke="midnightblue" points="1069.41,-163.168 1059.41,-166.668 1069.41,-170.168 1069.41,-163.168"/>
</g>
<!-- Node8&#45;&gt;Node6 -->
<g id="edge9" class="edge"><title>Node8&#45;&gt;Node6</title>
<path fill="none" stroke="midnightblue" d="M917.291,-154.032C925.692,-155.316 934.291,-156.629 942.619,-157.902"/>
<polygon fill="midnightblue" stroke="midnightblue" points="917.588,-150.537 907.174,-152.487 916.531,-157.457 917.588,-150.537"/>
</g>
<!-- Node9&#45;&gt;Node2 -->
<g id="edge12" class="edge"><title>Node9&#45;&gt;Node2</title>
<path fill="none" stroke="midnightblue" d="M279.158,-23.1667C358.729,-3.77356 500.402,19.0432 609,-27.6682 630.371,-36.8607 627.296,-50.5755 645,-65.6682 656.041,-75.0807 669.271,-84.3104 680.494,-91.6221"/>
<polygon fill="midnightblue" stroke="midnightblue" points="278.15,-19.8109 269.297,-25.6305 279.847,-26.6021 278.15,-19.8109"/>
</g>
<!-- Node9&#45;&gt;Node10 -->
<g id="edge13" class="edge"><title>Node9&#45;&gt;Node10</title>
<path fill="none" stroke="midnightblue" d="M287.922,-57.6461C297.09,-59.872 306.411,-62.1354 315.376,-64.3122"/>
<polygon fill="midnightblue" stroke="midnightblue" points="288.603,-54.2097 278.059,-55.2513 286.951,-61.0121 288.603,-54.2097"/>
</g>
<!-- Node10&#45;&gt;Node2 -->
<g id="edge15" class="edge"><title>Node10&#45;&gt;Node2</title>
<path fill="none" stroke="midnightblue" d="M445.641,-84.5615C504.971,-89.6185 589.559,-96.8285 645.813,-101.623"/>
<polygon fill="midnightblue" stroke="midnightblue" points="445.87,-81.0684 435.609,-83.7064 445.275,-88.0431 445.87,-81.0684"/>
</g>
<!-- Node10&#45;&gt;Node4 -->
<g id="edge14" class="edge"><title>Node10&#45;&gt;Node4</title>
<path fill="none" stroke="midnightblue" d="M413.483,-98.5732C443.369,-114.659 484.797,-136.957 511.987,-151.591"/>
<polygon fill="midnightblue" stroke="midnightblue" points="415.071,-95.4534 404.607,-93.7959 411.753,-101.617 415.071,-95.4534"/>
</g>
<!-- Node11 -->
<g id="node11" class="node"><title>Node11</title>
<g id="a_node11"><a xlink:href="classAP__Arming__Copter.html#a6c564c58d8d7e8d539b661144d9ced28" target="_top" xlink:title="AP_Arming_Copter::update">
<polygon fill="white" stroke="black" points="473,-37.1682 473,-56.1682 609,-56.1682 609,-37.1682 473,-37.1682"/>
<text text-anchor="middle" x="541" y="-44.1682" font-family="Helvetica,sans-Serif" font-size="10.00">AP_Arming_Copter::update</text>
</a>
</g>
</g>
<!-- Node10&#45;&gt;Node11 -->
<g id="edge16" class="edge"><title>Node10&#45;&gt;Node11</title>
<path fill="none" stroke="midnightblue" d="M445.525,-65.1587C460.91,-62.1476 476.911,-59.0159 491.277,-56.2042"/>
<polygon fill="midnightblue" stroke="midnightblue" points="444.669,-61.7598 435.527,-67.1154 446.013,-68.6295 444.669,-61.7598"/>
</g>
<!-- Node11&#45;&gt;Node2 -->
<g id="edge17" class="edge"><title>Node11&#45;&gt;Node2</title>
<path fill="none" stroke="midnightblue" d="M578.634,-59.6804C588.503,-63.2159 599.168,-67.0641 609,-70.6682 627.551,-77.4686 648.063,-85.1399 665.348,-91.6484"/>
<polygon fill="midnightblue" stroke="midnightblue" points="579.685,-56.3393 569.091,-56.2696 577.329,-62.931 579.685,-56.3393"/>
</g>
<!-- Node12 -->
<g id="node12" class="node"><title>Node12</title>
<g id="a_node12"><a xlink:href="classCopter.html#a108ce4f21db1ee56d52c2bdf9a971a57" target="_top" xlink:title="Copter::one_hz_loop">
<polygon fill="white" stroke="black" points="652.5,-37.1682 652.5,-56.1682 759.5,-56.1682 759.5,-37.1682 652.5,-37.1682"/>
<text text-anchor="middle" x="706" y="-44.1682" font-family="Helvetica,sans-Serif" font-size="10.00">Copter::one_hz_loop</text>
</a>
</g>
</g>
<!-- Node11&#45;&gt;Node12 -->
<g id="edge18" class="edge"><title>Node11&#45;&gt;Node12</title>
<path fill="none" stroke="midnightblue" d="M619.429,-46.6682C630.581,-46.6682 641.835,-46.6682 652.353,-46.6682"/>
<polygon fill="midnightblue" stroke="midnightblue" points="619.239,-43.1683 609.239,-46.6682 619.239,-50.1683 619.239,-43.1683"/>
</g>
</g>
</svg>
        <g id="navigator" transform="translate(0 0)" fill="#404254">
                <rect fill="#f2f5e9" fill-opacity="0.5" stroke="#606060" stroke-width=".5" x="0" y="0" width="60" height="60"/>
                <use id="zoomplus" xlink:href="#zoomPlus" x="17" y="9" onmousedown="handleZoom(evt,'in')"/>
                <use id="zoomminus" xlink:href="#zoomMin" x="42" y="9" onmousedown="handleZoom(evt,'out')"/>
                <use id="reset" xlink:href="#resetDef" x="30" y="36" onmousedown="handleReset()"/>
                <g id="arrowUp" xlink:href="#dirArrow" transform="translate(30 24)" onmousedown="handlePan(0,-1)">
                  <use xlink:href="#rim" fill="#404040">
                        <set attributeName="fill" to="#808080" begin="arrowUp.mouseover" end="arrowUp.mouseout"/>
                  </use>
                  <path fill="none" stroke="white" stroke-width="1.5" d="M0,-3.0v7 M-2.5,-0.5L0,-3.0L2.5,-0.5"/>
                </g>
                <g id="arrowRight" xlink:href="#dirArrow" transform="rotate(90) translate(36 -43)" onmousedown="handlePan(1,0)">
                  <use xlink:href="#rim" fill="#404040">
                        <set attributeName="fill" to="#808080" begin="arrowRight.mouseover" end="arrowRight.mouseout"/>
                  </use>
                  <path fill="none" stroke="white" stroke-width="1.5" d="M0,-3.0v7 M-2.5,-0.5L0,-3.0L2.5,-0.5"/>
                </g>
                <g id="arrowDown" xlink:href="#dirArrow" transform="rotate(180) translate(-30 -48)" onmousedown="handlePan(0,1)">
                  <use xlink:href="#rim" fill="#404040">
                        <set attributeName="fill" to="#808080" begin="arrowDown.mouseover" end="arrowDown.mouseout"/>
                  </use>
                  <path fill="none" stroke="white" stroke-width="1.5" d="M0,-3.0v7 M-2.5,-0.5L0,-3.0L2.5,-0.5"/>
                </g>
                <g id="arrowLeft" xlink:href="#dirArrow" transform="rotate(270) translate(-36 17)" onmousedown="handlePan(-1,0)">
                  <use xlink:href="#rim" fill="#404040">
                        <set attributeName="fill" to="#808080" begin="arrowLeft.mouseover" end="arrowLeft.mouseout"/>
                  </use>
                  <path fill="none" stroke="white" stroke-width="1.5" d="M0,-3.0v7 M-2.5,-0.5L0,-3.0L2.5,-0.5"/>
                </g>
        </g>
        <svg viewBox="0 0 15 15" width="100%" height="30px" preserveAspectRatio="xMaxYMin meet">
         <g id="arrow_out" transform="scale(0.3 0.3)">
          <a xlink:href="classAP__Arming__Copter_a0f90a6d09c71ab38aaf0ca5c122e2568_icgraph_org.svg" target="_base">
           <rect id="button" ry="5" rx="5" y="6" x="6" height="38" width="38"
                fill="#f2f5e9" fill-opacity="0.5" stroke="#606060" stroke-width="1.0"/>
           <path id="arrow"
             d="M 11.500037,31.436501 C 11.940474,20.09759 22.043105,11.32322 32.158766,21.979434 L 37.068811,17.246167 C 37.068811,17.246167 37.088388,32 37.088388,32 L 22.160133,31.978069 C 22.160133,31.978069 26.997745,27.140456 26.997745,27.140456 C 18.528582,18.264221 13.291696,25.230495 11.500037,31.436501 z"
             style="fill:#404040;"/>
          </a>
         </g>
        </svg>
</svg>
