<?xml version="1.0" encoding="UTF-8" standalone="no"?>
<!DOCTYPE svg PUBLIC "-//W3C//DTD SVG 1.1//EN"
 "http://www.w3.org/Graphics/SVG/1.1/DTD/svg11.dtd">
<!-- Generated by graphviz version 2.38.0 (20140413.2041)
 -->
<!-- Title: Copter::landinggear_update Pages: 1 -->
<svg width="1134pt" height="424pt"
 viewBox="0.00 0.00 1134.00 423.50" xmlns="http://www.w3.org/2000/svg" xmlns:xlink="http://www.w3.org/1999/xlink">
<g id="graph0" class="graph" transform="scale(1 1) rotate(0) translate(4 419.5)">
<title>Copter::landinggear_update</title>
<polygon fill="white" stroke="none" points="-4,4 -4,-419.5 1130,-419.5 1130,4 -4,4"/>
<!-- Node1 -->
<g id="node1" class="node"><title>Node1</title>
<polygon fill="#bfbfbf" stroke="black" points="0,-292 0,-322 101,-322 101,-292 0,-292"/>
<text text-anchor="start" x="8" y="-310" font-family="Helvetica,sans-Serif" font-size="10.00">Copter::landinggear</text>
<text text-anchor="middle" x="50.5" y="-299" font-family="Helvetica,sans-Serif" font-size="10.00">_update</text>
</g>
<!-- Node2 -->
<g id="node2" class="node"><title>Node2</title>
<g id="a_node2"><a xlink:href="classCopter.html#adc461ff853d5e383df435733a7e20af0" target="_top" xlink:title="Copter::check_if_auxsw\l_mode_used">
<polygon fill="white" stroke="black" points="143.5,-385 143.5,-415 265.5,-415 265.5,-385 143.5,-385"/>
<text text-anchor="start" x="151.5" y="-403" font-family="Helvetica,sans-Serif" font-size="10.00">Copter::check_if_auxsw</text>
<text text-anchor="middle" x="204.5" y="-392" font-family="Helvetica,sans-Serif" font-size="10.00">_mode_used</text>
</a>
</g>
</g>
<!-- Node1&#45;&gt;Node2 -->
<g id="edge1" class="edge"><title>Node1&#45;&gt;Node2</title>
<path fill="none" stroke="midnightblue" d="M67.028,-322.231C83.3206,-337.529 110.238,-360.936 137,-376 140.033,-377.707 143.211,-379.331 146.463,-380.869"/>
<polygon fill="midnightblue" stroke="midnightblue" points="145.207,-384.14 155.769,-384.971 148.031,-377.735 145.207,-384.14"/>
</g>
<!-- Node3 -->
<g id="node3" class="node"><title>Node3</title>
<g id="a_node3"><a doxygen="/home/ubuntu/ardupilot/docs/tags/libraries:../libraries/" xlink:href="../libraries/classAP__LandingGear.html#a617be9f8436ce5d84ced0abb569f4beb" target="_top" xlink:title="AP_LandingGear::force\l_deploy">
<polygon fill="white" stroke="black" points="145.5,-336 145.5,-366 263.5,-366 263.5,-336 145.5,-336"/>
<text text-anchor="start" x="153.5" y="-354" font-family="Helvetica,sans-Serif" font-size="10.00">AP_LandingGear::force</text>
<text text-anchor="middle" x="204.5" y="-343" font-family="Helvetica,sans-Serif" font-size="10.00">_deploy</text>
</a>
</g>
</g>
<!-- Node1&#45;&gt;Node3 -->
<g id="edge2" class="edge"><title>Node1&#45;&gt;Node3</title>
<path fill="none" stroke="midnightblue" d="M101.27,-321.407C114.229,-325.158 128.348,-329.245 141.84,-333.151"/>
<polygon fill="midnightblue" stroke="midnightblue" points="140.95,-336.537 151.529,-335.956 142.897,-329.813 140.95,-336.537"/>
</g>
<!-- Node4 -->
<g id="node4" class="node"><title>Node4</title>
<g id="a_node4"><a doxygen="/home/ubuntu/ardupilot/docs/tags/libraries:../libraries/" xlink:href="../libraries/classAP__LandingGear.html#a15bb52d03b5bf8208eeedfc0c4d99d4b" target="_top" xlink:title="AP_LandingGear::update">
<polygon fill="white" stroke="black" points="142,-297.5 142,-316.5 267,-316.5 267,-297.5 142,-297.5"/>
<text text-anchor="middle" x="204.5" y="-304.5" font-family="Helvetica,sans-Serif" font-size="10.00">AP_LandingGear::update</text>
</a>
</g>
</g>
<!-- Node1&#45;&gt;Node4 -->
<g id="edge3" class="edge"><title>Node1&#45;&gt;Node4</title>
<path fill="none" stroke="midnightblue" d="M101.27,-307C111.011,-307 121.406,-307 131.699,-307"/>
<polygon fill="midnightblue" stroke="midnightblue" points="131.929,-310.5 141.929,-307 131.929,-303.5 131.929,-310.5"/>
</g>
<!-- Node5 -->
<g id="node5" class="node"><title>Node5</title>
<g id="a_node5"><a doxygen="/home/ubuntu/ardupilot/docs/tags/libraries:../libraries/" xlink:href="../libraries/classAP__LandingGear.html#ac4a45709823eb4ef71c2fefbf7b4bb22" target="_top" xlink:title="AP_LandingGear::deployed">
<polygon fill="white" stroke="black" points="137,-259.5 137,-278.5 272,-278.5 272,-259.5 137,-259.5"/>
<text text-anchor="middle" x="204.5" y="-266.5" font-family="Helvetica,sans-Serif" font-size="10.00">AP_LandingGear::deployed</text>
</a>
</g>
</g>
<!-- Node1&#45;&gt;Node5 -->
<g id="edge4" class="edge"><title>Node1&#45;&gt;Node5</title>
<path fill="none" stroke="midnightblue" d="M101.27,-294.557C118.641,-290.215 138.095,-285.351 155.332,-281.042"/>
<polygon fill="midnightblue" stroke="midnightblue" points="156.341,-284.398 165.193,-278.577 154.643,-277.607 156.341,-284.398"/>
</g>
<!-- Node6 -->
<g id="node6" class="node"><title>Node6</title>
<g id="a_node6"><a xlink:href="classCopter.html#a396cdbadc3706446ffae5f306dbf7944" target="_top" xlink:title="Copter::Log_Write_Event">
<polygon fill="white" stroke="black" points="141,-221.5 141,-240.5 268,-240.5 268,-221.5 141,-221.5"/>
<text text-anchor="middle" x="204.5" y="-228.5" font-family="Helvetica,sans-Serif" font-size="10.00">Copter::Log_Write_Event</text>
</a>
</g>
</g>
<!-- Node1&#45;&gt;Node6 -->
<g id="edge5" class="edge"><title>Node1&#45;&gt;Node6</title>
<path fill="none" stroke="midnightblue" d="M70.5117,-291.805C87.1961,-279.106 112.549,-261.307 137,-250 142.04,-247.669 147.43,-245.56 152.878,-243.669"/>
<polygon fill="midnightblue" stroke="midnightblue" points="154.246,-246.906 162.686,-240.5 152.094,-240.245 154.246,-246.906"/>
</g>
<!-- Node7 -->
<g id="node7" class="node"><title>Node7</title>
<g id="a_node7"><a xlink:href="classCopter.html#a4743992eae3f4241deb4f3e3a4c9b30d" target="_top" xlink:title="Copter::should_log">
<polygon fill="white" stroke="black" points="335,-259.5 335,-278.5 433,-278.5 433,-259.5 335,-259.5"/>
<text text-anchor="middle" x="384" y="-266.5" font-family="Helvetica,sans-Serif" font-size="10.00">Copter::should_log</text>
</a>
</g>
</g>
<!-- Node6&#45;&gt;Node7 -->
<g id="edge6" class="edge"><title>Node6&#45;&gt;Node7</title>
<path fill="none" stroke="midnightblue" d="M250.291,-240.589C274.03,-245.671 303.384,-251.955 328.444,-257.32"/>
<polygon fill="midnightblue" stroke="midnightblue" points="328.02,-260.809 338.531,-259.48 329.486,-253.964 328.02,-260.809"/>
</g>
<!-- Node24 -->
<g id="node24" class="node"><title>Node24</title>
<g id="a_node24"><a doxygen="/home/ubuntu/ardupilot/docs/tags/libraries:../libraries/" xlink:href="../libraries/namespaceAP__HAL.html#a7aa0ce7625c9680e30ff4a99940907a5" target="_top" xlink:title="AP_HAL::micros64">
<polygon fill="white" stroke="black" points="333.5,-221.5 333.5,-240.5 434.5,-240.5 434.5,-221.5 333.5,-221.5"/>
<text text-anchor="middle" x="384" y="-228.5" font-family="Helvetica,sans-Serif" font-size="10.00">AP_HAL::micros64</text>
</a>
</g>
</g>
<!-- Node6&#45;&gt;Node24 -->
<g id="edge24" class="edge"><title>Node6&#45;&gt;Node24</title>
<path fill="none" stroke="midnightblue" d="M268.08,-231C285.935,-231 305.342,-231 323.038,-231"/>
<polygon fill="midnightblue" stroke="midnightblue" points="323.234,-234.5 333.234,-231 323.234,-227.5 323.234,-234.5"/>
</g>
<!-- Node25 -->
<g id="node25" class="node"><title>Node25</title>
<g id="a_node25"><a doxygen="/home/ubuntu/ardupilot/docs/tags/libraries:../libraries/" xlink:href="../libraries/classDataFlash__Class.html#aa8ca9bfeeb14e9b57bcb702e479225be" target="_top" xlink:title="DataFlash_Class::WriteCritical\lBlock">
<polygon fill="white" stroke="black" points="308,-172 308,-202 460,-202 460,-172 308,-172"/>
<text text-anchor="start" x="316" y="-190" font-family="Helvetica,sans-Serif" font-size="10.00">DataFlash_Class::WriteCritical</text>
<text text-anchor="middle" x="384" y="-179" font-family="Helvetica,sans-Serif" font-size="10.00">Block</text>
</a>
</g>
</g>
<!-- Node6&#45;&gt;Node25 -->
<g id="edge25" class="edge"><title>Node6&#45;&gt;Node25</title>
<path fill="none" stroke="midnightblue" d="M244.015,-221.453C263.999,-216.499 289.051,-210.289 312.361,-204.51"/>
<polygon fill="midnightblue" stroke="midnightblue" points="313.361,-207.869 322.225,-202.065 311.677,-201.074 313.361,-207.869"/>
</g>
<!-- Node8 -->
<g id="node8" class="node"><title>Node8</title>
<g id="a_node8"><a doxygen="/home/ubuntu/ardupilot/docs/tags/libraries:../libraries/" xlink:href="../libraries/classDataFlash__Class.html#a5e32434ddf454a074dd9638d87e1d934" target="_top" xlink:title="DataFlash_Class::log\l_while_disarmed">
<polygon fill="white" stroke="black" points="496,-298 496,-328 607,-328 607,-298 496,-298"/>
<text text-anchor="start" x="504" y="-316" font-family="Helvetica,sans-Serif" font-size="10.00">DataFlash_Class::log</text>
<text text-anchor="middle" x="551.5" y="-305" font-family="Helvetica,sans-Serif" font-size="10.00">_while_disarmed</text>
</a>
</g>
</g>
<!-- Node7&#45;&gt;Node8 -->
<g id="edge7" class="edge"><title>Node7&#45;&gt;Node8</title>
<path fill="none" stroke="midnightblue" d="M420.911,-278.547C439.958,-283.611 463.942,-289.988 486.082,-295.874"/>
<polygon fill="midnightblue" stroke="midnightblue" points="485.204,-299.262 495.768,-298.449 487.003,-292.497 485.204,-299.262"/>
</g>
<!-- Node9 -->
<g id="node9" class="node"><title>Node9</title>
<g id="a_node9"><a doxygen="/home/ubuntu/ardupilot/docs/tags/libraries:../libraries/" xlink:href="../libraries/classDataFlash__Class.html#aa1dfc59b10a4b5ef3bc22ed5d5648665" target="_top" xlink:title="DataFlash_Class::logging\l_started">
<polygon fill="white" stroke="black" points="657,-284 657,-314 786,-314 786,-284 657,-284"/>
<text text-anchor="start" x="665" y="-302" font-family="Helvetica,sans-Serif" font-size="10.00">DataFlash_Class::logging</text>
<text text-anchor="middle" x="721.5" y="-291" font-family="Helvetica,sans-Serif" font-size="10.00">_started</text>
</a>
</g>
</g>
<!-- Node7&#45;&gt;Node9 -->
<g id="edge8" class="edge"><title>Node7&#45;&gt;Node9</title>
<path fill="none" stroke="midnightblue" d="M433.069,-273.298C488.879,-278.289 581.567,-286.577 646.562,-292.389"/>
<polygon fill="midnightblue" stroke="midnightblue" points="646.474,-295.895 656.746,-293.299 647.097,-288.922 646.474,-295.895"/>
</g>
<!-- Node10 -->
<g id="node10" class="node"><title>Node10</title>
<g id="a_node10"><a xlink:href="classCopter.html#a3a33c5c43740be29248b057f699f82a5" target="_top" xlink:title="Copter::start_logging">
<polygon fill="white" stroke="black" points="498,-191.5 498,-210.5 605,-210.5 605,-191.5 498,-191.5"/>
<text text-anchor="middle" x="551.5" y="-198.5" font-family="Helvetica,sans-Serif" font-size="10.00">Copter::start_logging</text>
</a>
</g>
</g>
<!-- Node7&#45;&gt;Node10 -->
<g id="edge9" class="edge"><title>Node7&#45;&gt;Node10</title>
<path fill="none" stroke="midnightblue" d="M430.386,-259.431C440.293,-256.811 450.616,-253.663 460,-250 483.811,-240.705 509.272,-226.496 527.103,-215.768"/>
<polygon fill="midnightblue" stroke="midnightblue" points="528.978,-218.724 535.683,-210.52 525.326,-212.753 528.978,-218.724"/>
</g>
<!-- Node10&#45;&gt;Node9 -->
<g id="edge22" class="edge"><title>Node10&#45;&gt;Node9</title>
<path fill="none" stroke="midnightblue" d="M561.639,-210.566C577.038,-226.168 609.743,-257.138 643,-275 646.296,-276.77 649.743,-278.432 653.273,-279.987"/>
<polygon fill="midnightblue" stroke="midnightblue" points="652.186,-283.324 662.767,-283.862 654.831,-276.843 652.186,-283.324"/>
</g>
<!-- Node11 -->
<g id="node11" class="node"><title>Node11</title>
<g id="a_node11"><a doxygen="/home/ubuntu/ardupilot/docs/tags/libraries:../libraries/" xlink:href="../libraries/classDataFlash__Class.html#a95bf3cac993c1ee326acc6447e99d875" target="_top" xlink:title="DataFlash_Class::set\l_mission">
<polygon fill="white" stroke="black" points="665.5,-235 665.5,-265 777.5,-265 777.5,-235 665.5,-235"/>
<text text-anchor="start" x="673.5" y="-253" font-family="Helvetica,sans-Serif" font-size="10.00">DataFlash_Class::set</text>
<text text-anchor="middle" x="721.5" y="-242" font-family="Helvetica,sans-Serif" font-size="10.00">_mission</text>
</a>
</g>
</g>
<!-- Node10&#45;&gt;Node11 -->
<g id="edge10" class="edge"><title>Node10&#45;&gt;Node11</title>
<path fill="none" stroke="midnightblue" d="M585.291,-210.564C606.282,-216.686 634.171,-224.821 659.167,-232.111"/>
<polygon fill="midnightblue" stroke="midnightblue" points="658.365,-235.523 668.945,-234.963 660.325,-228.803 658.365,-235.523"/>
</g>
<!-- Node12 -->
<g id="node12" class="node"><title>Node12</title>
<g id="a_node12"><a doxygen="/home/ubuntu/ardupilot/docs/tags/libraries:../libraries/" xlink:href="../libraries/classDataFlash__Class.html#abed561cc5dcbed8a208fbb13be2d436e" target="_top" xlink:title="DataFlash_Class::setVehicle\l_Startup_Log_Writer">
<polygon fill="white" stroke="black" points="649.5,-186 649.5,-216 793.5,-216 793.5,-186 649.5,-186"/>
<text text-anchor="start" x="657.5" y="-204" font-family="Helvetica,sans-Serif" font-size="10.00">DataFlash_Class::setVehicle</text>
<text text-anchor="middle" x="721.5" y="-193" font-family="Helvetica,sans-Serif" font-size="10.00">_Startup_Log_Writer</text>
</a>
</g>
</g>
<!-- Node10&#45;&gt;Node12 -->
<g id="edge11" class="edge"><title>Node10&#45;&gt;Node12</title>
<path fill="none" stroke="midnightblue" d="M605.195,-201C615.987,-201 627.583,-201 639.114,-201"/>
<polygon fill="midnightblue" stroke="midnightblue" points="639.208,-204.5 649.208,-201 639.208,-197.5 639.208,-204.5"/>
</g>
<!-- Node13 -->
<g id="node13" class="node"><title>Node13</title>
<g id="a_node13"><a xlink:href="classCopter.html#affc81dccd23c7d313a38854fe19c62b7" target="_top" xlink:title="Copter::Log_Write_Vehicle\l_Startup_Messages">
<polygon fill="white" stroke="black" points="654.5,-137 654.5,-167 788.5,-167 788.5,-137 654.5,-137"/>
<text text-anchor="start" x="662.5" y="-155" font-family="Helvetica,sans-Serif" font-size="10.00">Copter::Log_Write_Vehicle</text>
<text text-anchor="middle" x="721.5" y="-144" font-family="Helvetica,sans-Serif" font-size="10.00">_Startup_Messages</text>
</a>
</g>
</g>
<!-- Node10&#45;&gt;Node13 -->
<g id="edge12" class="edge"><title>Node10&#45;&gt;Node13</title>
<path fill="none" stroke="midnightblue" d="M585.291,-191.436C606.282,-185.314 634.171,-177.179 659.167,-169.889"/>
<polygon fill="midnightblue" stroke="midnightblue" points="660.325,-173.197 668.945,-167.037 658.365,-166.477 660.325,-173.197"/>
</g>
<!-- Node22 -->
<g id="node22" class="node"><title>Node22</title>
<g id="a_node22"><a doxygen="/home/ubuntu/ardupilot/docs/tags/libraries:../libraries/" xlink:href="../libraries/classDataFlash__Class.html#a2150c74ef2a6d77ec9ddbbf859cacd64" target="_top" xlink:title="DataFlash_Class::StartNewLog">
<polygon fill="white" stroke="black" points="644,-98.5 644,-117.5 799,-117.5 799,-98.5 644,-98.5"/>
<text text-anchor="middle" x="721.5" y="-105.5" font-family="Helvetica,sans-Serif" font-size="10.00">DataFlash_Class::StartNewLog</text>
</a>
</g>
</g>
<!-- Node10&#45;&gt;Node22 -->
<g id="edge21" class="edge"><title>Node10&#45;&gt;Node22</title>
<path fill="none" stroke="midnightblue" d="M561.574,-191.392C576.879,-175.756 609.451,-144.859 643,-128 648.622,-125.175 654.68,-122.723 660.844,-120.602"/>
<polygon fill="midnightblue" stroke="midnightblue" points="662.086,-123.88 670.569,-117.533 659.98,-117.204 662.086,-123.88"/>
</g>
<!-- Node23 -->
<g id="node23" class="node"><title>Node23</title>
<g id="a_node23"><a doxygen="/home/ubuntu/ardupilot/docs/tags/libraries:../libraries/" xlink:href="../libraries/classDataFlash__Class.html#ae85a3c49d2883b975376baaab5ab958f" target="_top" xlink:title="DataFlash_Class::EnableWrites">
<polygon fill="white" stroke="black" points="643,-60.5 643,-79.5 800,-79.5 800,-60.5 643,-60.5"/>
<text text-anchor="middle" x="721.5" y="-67.5" font-family="Helvetica,sans-Serif" font-size="10.00">DataFlash_Class::EnableWrites</text>
</a>
</g>
</g>
<!-- Node10&#45;&gt;Node23 -->
<g id="edge23" class="edge"><title>Node10&#45;&gt;Node23</title>
<path fill="none" stroke="midnightblue" d="M557.363,-191.442C568.983,-169.619 600.583,-115.937 643,-89 646.326,-86.8881 649.869,-85.0109 653.54,-83.3423"/>
<polygon fill="midnightblue" stroke="midnightblue" points="654.892,-86.5713 662.879,-79.6098 652.294,-80.0712 654.892,-86.5713"/>
</g>
<!-- Node14 -->
<g id="node14" class="node"><title>Node14</title>
<g id="a_node14"><a xlink:href="classCopter.html#a228aa1ecafb49183929a8da8045cd938" target="_top" xlink:title="Copter::get_frame_string">
<polygon fill="white" stroke="black" points="837.5,-235.5 837.5,-254.5 962.5,-254.5 962.5,-235.5 837.5,-235.5"/>
<text text-anchor="middle" x="900" y="-242.5" font-family="Helvetica,sans-Serif" font-size="10.00">Copter::get_frame_string</text>
</a>
</g>
</g>
<!-- Node13&#45;&gt;Node14 -->
<g id="edge13" class="edge"><title>Node13&#45;&gt;Node14</title>
<path fill="none" stroke="midnightblue" d="M782.345,-167.012C788.587,-169.813 794.61,-173.114 800,-177 821.921,-192.803 813.928,-210.408 836,-226 838.839,-228.005 841.892,-229.802 845.07,-231.412"/>
<polygon fill="midnightblue" stroke="midnightblue" points="843.714,-234.64 854.276,-235.471 846.538,-228.235 843.714,-234.64"/>
</g>
<!-- Node15 -->
<g id="node15" class="node"><title>Node15</title>
<g id="a_node15"><a doxygen="/home/ubuntu/ardupilot/docs/tags/libraries:../libraries/" xlink:href="../libraries/classDataFlash__Class.html#a3d24105948a2709fa0585b1c53bb7dfe" target="_top" xlink:title="DataFlash_Class::Log\l_Write_Message">
<polygon fill="white" stroke="black" points="843,-186 843,-216 957,-216 957,-186 843,-186"/>
<text text-anchor="start" x="851" y="-204" font-family="Helvetica,sans-Serif" font-size="10.00">DataFlash_Class::Log</text>
<text text-anchor="middle" x="900" y="-193" font-family="Helvetica,sans-Serif" font-size="10.00">_Write_Message</text>
</a>
</g>
</g>
<!-- Node13&#45;&gt;Node15 -->
<g id="edge14" class="edge"><title>Node13&#45;&gt;Node15</title>
<path fill="none" stroke="midnightblue" d="M776.896,-167.101C795.268,-172.202 815.947,-177.943 834.993,-183.23"/>
<polygon fill="midnightblue" stroke="midnightblue" points="834.212,-186.646 844.784,-185.948 836.084,-179.901 834.212,-186.646"/>
</g>
<!-- Node16 -->
<g id="node16" class="node"><title>Node16</title>
<g id="a_node16"><a doxygen="/home/ubuntu/ardupilot/docs/tags/libraries:../libraries/" xlink:href="../libraries/classDataFlash__Class.html#a8c36713b82ad014c02071b7de0bcfae0" target="_top" xlink:title="DataFlash_Class::Log\l_Write_Mode">
<polygon fill="white" stroke="black" points="843,-137 843,-167 957,-167 957,-137 843,-137"/>
<text text-anchor="start" x="851" y="-155" font-family="Helvetica,sans-Serif" font-size="10.00">DataFlash_Class::Log</text>
<text text-anchor="middle" x="900" y="-144" font-family="Helvetica,sans-Serif" font-size="10.00">_Write_Mode</text>
</a>
</g>
</g>
<!-- Node13&#45;&gt;Node16 -->
<g id="edge15" class="edge"><title>Node13&#45;&gt;Node16</title>
<path fill="none" stroke="midnightblue" d="M788.724,-152C803.05,-152 818.203,-152 832.538,-152"/>
<polygon fill="midnightblue" stroke="midnightblue" points="832.808,-155.5 842.808,-152 832.807,-148.5 832.808,-155.5"/>
</g>
<!-- Node17 -->
<g id="node17" class="node"><title>Node17</title>
<g id="a_node17"><a doxygen="/home/ubuntu/ardupilot/docs/tags/libraries:../libraries/" xlink:href="../libraries/classDataFlash__Class.html#aa4421dde08afcd932ccbe12aef85055d" target="_top" xlink:title="DataFlash_Class::Log\l_Write_Rally">
<polygon fill="white" stroke="black" points="843,-88 843,-118 957,-118 957,-88 843,-88"/>
<text text-anchor="start" x="851" y="-106" font-family="Helvetica,sans-Serif" font-size="10.00">DataFlash_Class::Log</text>
<text text-anchor="middle" x="900" y="-95" font-family="Helvetica,sans-Serif" font-size="10.00">_Write_Rally</text>
</a>
</g>
</g>
<!-- Node13&#45;&gt;Node17 -->
<g id="edge16" class="edge"><title>Node13&#45;&gt;Node17</title>
<path fill="none" stroke="midnightblue" d="M776.896,-136.899C795.268,-131.798 815.947,-126.057 834.993,-120.77"/>
<polygon fill="midnightblue" stroke="midnightblue" points="836.084,-124.099 844.784,-118.052 834.212,-117.354 836.084,-124.099"/>
</g>
<!-- Node18 -->
<g id="node18" class="node"><title>Node18</title>
<g id="a_node18"><a xlink:href="classCopter.html#ae637d9d35114ba86e1d3c7a726870edf" target="_top" xlink:title="Copter::Log_Write_Home\l_And_Origin">
<polygon fill="white" stroke="black" points="836,-39 836,-69 964,-69 964,-39 836,-39"/>
<text text-anchor="start" x="844" y="-57" font-family="Helvetica,sans-Serif" font-size="10.00">Copter::Log_Write_Home</text>
<text text-anchor="middle" x="900" y="-46" font-family="Helvetica,sans-Serif" font-size="10.00">_And_Origin</text>
</a>
</g>
</g>
<!-- Node13&#45;&gt;Node18 -->
<g id="edge17" class="edge"><title>Node13&#45;&gt;Node18</title>
<path fill="none" stroke="midnightblue" d="M782.345,-136.988C788.587,-134.187 794.61,-130.886 800,-127 821.921,-111.197 814.496,-94.3666 836,-78 837.816,-76.6177 839.721,-75.3068 841.691,-74.0643"/>
<polygon fill="midnightblue" stroke="midnightblue" points="843.646,-76.9809 850.668,-69.0466 840.231,-70.8707 843.646,-76.9809"/>
</g>
<!-- Node19 -->
<g id="node19" class="node"><title>Node19</title>
<g id="a_node19"><a doxygen="/home/ubuntu/ardupilot/docs/tags/libraries:../libraries/" xlink:href="../libraries/classAP__AHRS__NavEKF.html#a8e90dbad885e5d8d4efe9a34d635886a" target="_top" xlink:title="AP_AHRS_NavEKF::get\l_origin">
<polygon fill="white" stroke="black" points="1000,-88 1000,-118 1126,-118 1126,-88 1000,-88"/>
<text text-anchor="start" x="1008" y="-106" font-family="Helvetica,sans-Serif" font-size="10.00">AP_AHRS_NavEKF::get</text>
<text text-anchor="middle" x="1063" y="-95" font-family="Helvetica,sans-Serif" font-size="10.00">_origin</text>
</a>
</g>
</g>
<!-- Node18&#45;&gt;Node19 -->
<g id="edge18" class="edge"><title>Node18&#45;&gt;Node19</title>
<path fill="none" stroke="midnightblue" d="M950.619,-69.1014C967.07,-74.1083 985.549,-79.7324 1002.66,-84.939"/>
<polygon fill="midnightblue" stroke="midnightblue" points="1001.96,-88.3851 1012.54,-87.9484 1004,-81.6884 1001.96,-88.3851"/>
</g>
<!-- Node20 -->
<g id="node20" class="node"><title>Node20</title>
<g id="a_node20"><a doxygen="/home/ubuntu/ardupilot/docs/tags/libraries:../libraries/" xlink:href="../libraries/classDataFlash__Class.html#a7c9ea84e9cbfd62bac7f1fac7cafa562" target="_top" xlink:title="DataFlash_Class::Log\l_Write_Origin">
<polygon fill="white" stroke="black" points="1006,-39 1006,-69 1120,-69 1120,-39 1006,-39"/>
<text text-anchor="start" x="1014" y="-57" font-family="Helvetica,sans-Serif" font-size="10.00">DataFlash_Class::Log</text>
<text text-anchor="middle" x="1063" y="-46" font-family="Helvetica,sans-Serif" font-size="10.00">_Write_Origin</text>
</a>
</g>
</g>
<!-- Node18&#45;&gt;Node20 -->
<g id="edge19" class="edge"><title>Node18&#45;&gt;Node20</title>
<path fill="none" stroke="midnightblue" d="M964.169,-54C974.477,-54 985.182,-54 995.565,-54"/>
<polygon fill="midnightblue" stroke="midnightblue" points="995.814,-57.5001 1005.81,-54 995.814,-50.5001 995.814,-57.5001"/>
</g>
<!-- Node21 -->
<g id="node21" class="node"><title>Node21</title>
<g id="a_node21"><a doxygen="/home/ubuntu/ardupilot/docs/tags/libraries:../libraries/" xlink:href="../libraries/classAP__AHRS.html#aea45b16e6469a3b392b8bf52fb864732" target="_top" xlink:title="AP_AHRS::get_home">
<polygon fill="white" stroke="black" points="1006.5,-0.5 1006.5,-19.5 1119.5,-19.5 1119.5,-0.5 1006.5,-0.5"/>
<text text-anchor="middle" x="1063" y="-7.5" font-family="Helvetica,sans-Serif" font-size="10.00">AP_AHRS::get_home</text>
</a>
</g>
</g>
<!-- Node18&#45;&gt;Node21 -->
<g id="edge20" class="edge"><title>Node18&#45;&gt;Node21</title>
<path fill="none" stroke="midnightblue" d="M955.957,-38.9808C975.879,-33.5362 998.129,-27.4554 1017.08,-22.2751"/>
<polygon fill="midnightblue" stroke="midnightblue" points="1018.23,-25.5908 1026.95,-19.5783 1016.38,-18.8384 1018.23,-25.5908"/>
</g>
</g>
</svg>
