<?xml version="1.0" encoding="UTF-8" standalone="no"?>
<!DOCTYPE svg PUBLIC "-//W3C//DTD SVG 1.1//EN"
 "http://www.w3.org/Graphics/SVG/1.1/DTD/svg11.dtd">
<!-- Generated by graphviz version 2.38.0 (20140413.2041)
 -->
<!-- Title: Copter::guided_vel_control_run Pages: 1 -->
<svg width="269pt" height="192pt"
 viewBox="0.00 0.00 269.00 192.00" xmlns="http://www.w3.org/2000/svg" xmlns:xlink="http://www.w3.org/1999/xlink">
<g id="graph0" class="graph" transform="scale(1 1) rotate(0) translate(4 188)">
<title>Copter::guided_vel_control_run</title>
<polygon fill="white" stroke="none" points="-4,4 -4,-188 265,-188 265,4 -4,4"/>
<!-- Node1 -->
<g id="node1" class="node"><title>Node1</title>
<polygon fill="#bfbfbf" stroke="black" points="0,-77 0,-107 98,-107 98,-77 0,-77"/>
<text text-anchor="start" x="8" y="-95" font-family="Helvetica,sans-Serif" font-size="10.00">Copter::guided_vel</text>
<text text-anchor="middle" x="49" y="-84" font-family="Helvetica,sans-Serif" font-size="10.00">_control_run</text>
</g>
<!-- Node2 -->
<g id="node2" class="node"><title>Node2</title>
<g id="a_node2"><a doxygen="/home/ubuntu/ardupilot/docs/tags/libraries:../libraries/" xlink:href="../libraries/classAP__Motors.html#abb781661db2b685644795dfe8f5a655f" target="_top" xlink:title="AP_Motors::armed">
<polygon fill="white" stroke="black" points="148.5,-164.5 148.5,-183.5 246.5,-183.5 246.5,-164.5 148.5,-164.5"/>
<text text-anchor="middle" x="197.5" y="-171.5" font-family="Helvetica,sans-Serif" font-size="10.00">AP_Motors::armed</text>
</a>
</g>
</g>
<!-- Node1&#45;&gt;Node2 -->
<g id="edge1" class="edge"><title>Node1&#45;&gt;Node2</title>
<path fill="none" stroke="midnightblue" d="M66.5187,-107.171C82.6641,-121.293 108.475,-142.056 134,-155 138.5,-157.282 143.322,-159.344 148.221,-161.195"/>
<polygon fill="midnightblue" stroke="midnightblue" points="147.073,-164.501 157.667,-164.494 149.381,-157.892 147.073,-164.501"/>
</g>
<!-- Node3 -->
<g id="node3" class="node"><title>Node3</title>
<g id="a_node3"><a doxygen="/home/ubuntu/ardupilot/docs/tags/libraries:../libraries/" xlink:href="../libraries/classAP__Motors.html#a27390872b30ad525f127a67a43692408" target="_top" xlink:title="AP_Motors::get_interlock">
<polygon fill="white" stroke="black" points="134,-126.5 134,-145.5 261,-145.5 261,-126.5 134,-126.5"/>
<text text-anchor="middle" x="197.5" y="-133.5" font-family="Helvetica,sans-Serif" font-size="10.00">AP_Motors::get_interlock</text>
</a>
</g>
</g>
<!-- Node1&#45;&gt;Node3 -->
<g id="edge2" class="edge"><title>Node1&#45;&gt;Node3</title>
<path fill="none" stroke="midnightblue" d="M98.3756,-106.529C116.629,-112.012 137.221,-118.196 154.811,-123.479"/>
<polygon fill="midnightblue" stroke="midnightblue" points="154.197,-126.949 164.781,-126.473 156.21,-120.245 154.197,-126.949"/>
</g>
<!-- Node4 -->
<g id="node4" class="node"><title>Node4</title>
<g id="a_node4"><a doxygen="/home/ubuntu/ardupilot/docs/tags/libraries:../libraries/" xlink:href="../libraries/classAP__Motors.html#a991566f27a6407972932620a001fd408" target="_top" xlink:title="AP_Motors::set_desired\l_spool_state">
<polygon fill="white" stroke="black" points="136.5,-77 136.5,-107 258.5,-107 258.5,-77 136.5,-77"/>
<text text-anchor="start" x="144.5" y="-95" font-family="Helvetica,sans-Serif" font-size="10.00">AP_Motors::set_desired</text>
<text text-anchor="middle" x="197.5" y="-84" font-family="Helvetica,sans-Serif" font-size="10.00">_spool_state</text>
</a>
</g>
</g>
<!-- Node1&#45;&gt;Node4 -->
<g id="edge3" class="edge"><title>Node1&#45;&gt;Node4</title>
<path fill="none" stroke="midnightblue" d="M98.3756,-92C107.312,-92 116.808,-92 126.238,-92"/>
<polygon fill="midnightblue" stroke="midnightblue" points="126.416,-95.5001 136.416,-92 126.416,-88.5001 126.416,-95.5001"/>
</g>
<!-- Node5 -->
<g id="node5" class="node"><title>Node5</title>
<g id="a_node5"><a doxygen="/home/ubuntu/ardupilot/docs/tags/libraries:../libraries/" xlink:href="../libraries/AP__Math_8h.html#a2a12cce483e9b870da70d30406d82c60" target="_top" xlink:title="is_zero">
<polygon fill="white" stroke="black" points="173.5,-38.5 173.5,-57.5 221.5,-57.5 221.5,-38.5 173.5,-38.5"/>
<text text-anchor="middle" x="197.5" y="-45.5" font-family="Helvetica,sans-Serif" font-size="10.00">is_zero</text>
</a>
</g>
</g>
<!-- Node1&#45;&gt;Node5 -->
<g id="edge4" class="edge"><title>Node1&#45;&gt;Node5</title>
<path fill="none" stroke="midnightblue" d="M98.3756,-77.4708C119.711,-71.0629 144.241,-63.6954 163.438,-57.9298"/>
<polygon fill="midnightblue" stroke="midnightblue" points="164.652,-61.2199 173.222,-54.9913 162.638,-54.5158 164.652,-61.2199"/>
</g>
<!-- Node6 -->
<g id="node6" class="node"><title>Node6</title>
<g id="a_node6"><a doxygen="/home/ubuntu/ardupilot/docs/tags/libraries:../libraries/" xlink:href="../libraries/namespaceAP__HAL.html#a77dffbb18891996280308e21316ec186" target="_top" xlink:title="millis">
<polygon fill="white" stroke="black" points="178,-0.5 178,-19.5 217,-19.5 217,-0.5 178,-0.5"/>
<text text-anchor="middle" x="197.5" y="-7.5" font-family="Helvetica,sans-Serif" font-size="10.00">millis</text>
</a>
</g>
</g>
<!-- Node1&#45;&gt;Node6 -->
<g id="edge5" class="edge"><title>Node1&#45;&gt;Node6</title>
<path fill="none" stroke="midnightblue" d="M66.5187,-76.8293C82.6641,-62.7065 108.475,-41.9439 134,-29 144.578,-23.636 156.943,-19.4837 167.871,-16.4484"/>
<polygon fill="midnightblue" stroke="midnightblue" points="168.998,-19.772 177.802,-13.8773 167.244,-12.9954 168.998,-19.772"/>
</g>
</g>
</svg>
