<?xml version="1.0" encoding="UTF-8" standalone="no"?>
<!DOCTYPE svg PUBLIC "-//W3C//DTD SVG 1.1//EN"
 "http://www.w3.org/Graphics/SVG/1.1/DTD/svg11.dtd">
<!-- Generated by graphviz version 2.38.0 (20140413.2041)
 -->
<!-- Title: Copter::current_mode_has_user_takeoff Pages: 1 -->
<svg width="587pt" height="53pt"
 viewBox="0.00 0.00 587.00 52.50" xmlns="http://www.w3.org/2000/svg" xmlns:xlink="http://www.w3.org/1999/xlink">
<g id="graph0" class="graph" transform="scale(1 1) rotate(0) translate(4 48.5)">
<title>Copter::current_mode_has_user_takeoff</title>
<polygon fill="white" stroke="none" points="-4,4 -4,-48.5 583,-48.5 583,4 -4,4"/>
<!-- Node1 -->
<g id="node1" class="node"><title>Node1</title>
<polygon fill="#bfbfbf" stroke="black" points="0,-0.5 0,-30.5 111,-30.5 111,-0.5 0,-0.5"/>
<text text-anchor="start" x="8" y="-18.5" font-family="Helvetica,sans-Serif" font-size="10.00">Copter::current_mode</text>
<text text-anchor="middle" x="55.5" y="-7.5" font-family="Helvetica,sans-Serif" font-size="10.00">_has_user_takeoff</text>
</g>
<!-- Node2 -->
<g id="node2" class="node"><title>Node2</title>
<g id="a_node2"><a xlink:href="classCopter.html#ace953622104fb5355eb3f2bc1992440c" target="_top" xlink:title="Copter::do_user_takeoff">
<polygon fill="white" stroke="black" points="147,-25 147,-44 269,-44 269,-25 147,-25"/>
<text text-anchor="middle" x="208" y="-32" font-family="Helvetica,sans-Serif" font-size="10.00">Copter::do_user_takeoff</text>
</a>
</g>
</g>
<!-- Node1&#45;&gt;Node2 -->
<g id="edge1" class="edge"><title>Node1&#45;&gt;Node2</title>
<path fill="none" stroke="midnightblue" d="M121.185,-23.6663C129.737,-24.7458 138.473,-25.8488 146.942,-26.918"/>
<polygon fill="midnightblue" stroke="midnightblue" points="121.619,-20.1933 111.26,-22.4132 120.743,-27.1382 121.619,-20.1933"/>
</g>
<!-- Node3 -->
<g id="node3" class="node"><title>Node3</title>
<g id="a_node3"><a xlink:href="classCopter.html#a463474e8d6d99855217b8ec3dba27d63" target="_top" xlink:title="Copter::gcs_set_mode">
<polygon fill="white" stroke="black" points="305,-6 305,-25 421,-25 421,-6 305,-6"/>
<text text-anchor="middle" x="363" y="-13" font-family="Helvetica,sans-Serif" font-size="10.00">Copter::gcs_set_mode</text>
</a>
</g>
</g>
<!-- Node1&#45;&gt;Node3 -->
<g id="edge4" class="edge"><title>Node1&#45;&gt;Node3</title>
<path fill="none" stroke="midnightblue" d="M121.337,-15.5C175.71,-15.5 252.616,-15.5 304.745,-15.5"/>
<polygon fill="midnightblue" stroke="midnightblue" points="121.117,-12.0001 111.117,-15.5 121.117,-19.0001 121.117,-12.0001"/>
</g>
<!-- Node2&#45;&gt;Node3 -->
<g id="edge2" class="edge"><title>Node2&#45;&gt;Node3</title>
<path fill="none" stroke="midnightblue" d="M279.022,-25.8044C287.599,-24.7394 296.284,-23.6608 304.644,-22.6226"/>
<polygon fill="midnightblue" stroke="midnightblue" points="278.523,-22.3395 269.031,-27.0452 279.386,-29.2861 278.523,-22.3395"/>
</g>
<!-- Node4 -->
<g id="node4" class="node"><title>Node4</title>
<g id="a_node4"><a xlink:href="classGCS__MAVLINK__Copter.html#afe85f88545dfa66f9100ed341cf5f79b" target="_top" xlink:title="GCS_MAVLINK_Copter\l::handleMessage">
<polygon fill="white" stroke="black" points="457,-0.5 457,-30.5 579,-30.5 579,-0.5 457,-0.5"/>
<text text-anchor="start" x="465" y="-18.5" font-family="Helvetica,sans-Serif" font-size="10.00">GCS_MAVLINK_Copter</text>
<text text-anchor="middle" x="518" y="-7.5" font-family="Helvetica,sans-Serif" font-size="10.00">::handleMessage</text>
</a>
</g>
</g>
<!-- Node3&#45;&gt;Node4 -->
<g id="edge3" class="edge"><title>Node3&#45;&gt;Node4</title>
<path fill="none" stroke="midnightblue" d="M431.61,-15.5C440.057,-15.5 448.651,-15.5 456.972,-15.5"/>
<polygon fill="midnightblue" stroke="midnightblue" points="431.407,-12.0001 421.407,-15.5 431.407,-19.0001 431.407,-12.0001"/>
</g>
</g>
</svg>
