<?xml version="1.0" encoding="UTF-8" standalone="no"?>
<!DOCTYPE svg PUBLIC "-//W3C//DTD SVG 1.1//EN"
 "http://www.w3.org/Graphics/SVG/1.1/DTD/svg11.dtd">
<!-- Generated by graphviz version 2.38.0 (20140413.2041)
 -->
<!-- Title: Copter::Log_Write_Data Pages: 1 -->
<!--zoomable 337 -->
<svg id="main" version="1.1" xmlns="http://www.w3.org/2000/svg" xmlns:xlink="http://www.w3.org/1999/xlink" xml:space="preserve" onload="init(evt)">
<style type="text/css"><![CDATA[
.edge:hover path { stroke: red; }
.edge:hover polygon { stroke: red; fill: red; }
]]></style>
<script type="text/javascript"><![CDATA[
var edges = document.getElementsByTagName('g');
if (edges && edges.length) {
  for (var i=0;i<edges.length;i++) {
    if (edges[i].id.substr(0,4)=='edge') {
      edges[i].setAttribute('class','edge');
    }
  }
}
]]></script>
        <defs>
                <circle id="rim" cx="0" cy="0" r="7"/>
                <circle id="rim2" cx="0" cy="0" r="3.5"/>
                <g id="zoomPlus">
                        <use xlink:href="#rim" fill="#404040">
                                <set attributeName="fill" to="#808080" begin="zoomplus.mouseover" end="zoomplus.mouseout"/>
                        </use>
                        <path d="M-4,0h8M0,-4v8" fill="none" stroke="white" stroke-width="1.5" pointer-events="none"/>
                </g>
                <g id="zoomMin">
                        <use xlink:href="#rim" fill="#404040">
                                <set attributeName="fill" to="#808080" begin="zoomminus.mouseover" end="zoomminus.mouseout"/>
                        </use>
                        <path d="M-4,0h8" fill="none" stroke="white" stroke-width="1.5" pointer-events="none"/>
                </g>
                <g id="dirArrow">
                        <path fill="none" stroke="white" stroke-width="1.5" d="M0,-3.0v7 M-2.5,-0.5L0,-3.0L2.5,-0.5"/>
                </g>
               <g id="resetDef">
                       <use xlink:href="#rim2" fill="#404040">
                               <set attributeName="fill" to="#808080" begin="reset.mouseover" end="reset.mouseout"/>
                       </use>
               </g>
        </defs>

<script type="text/javascript">
var viewWidth = 984;
var viewHeight = 337;
var sectionId = 'dynsection-410';
</script>
<script xlink:href="svgpan.js"/>
<svg id="graph" class="graph">
<g id="viewport">
<title>Copter::Log_Write_Data</title>
<polygon fill="white" stroke="none" points="-4,4 -4,-332.5 980,-332.5 980,4 -4,4"/>
<!-- Node1 -->
<g id="node1" class="node"><title>Node1</title>
<polygon fill="#bfbfbf" stroke="black" points="0,-221.5 0,-240.5 122,-240.5 122,-221.5 0,-221.5"/>
<text text-anchor="middle" x="61" y="-228.5" font-family="Helvetica,sans-Serif" font-size="10.00">Copter::Log_Write_Data</text>
</g>
<!-- Node2 -->
<g id="node2" class="node"><title>Node2</title>
<g id="a_node2"><a xlink:href="classCopter.html#a4743992eae3f4241deb4f3e3a4c9b30d" target="_top" xlink:title="Copter::should_log">
<polygon fill="white" stroke="black" points="185,-259.5 185,-278.5 283,-278.5 283,-259.5 185,-259.5"/>
<text text-anchor="middle" x="234" y="-266.5" font-family="Helvetica,sans-Serif" font-size="10.00">Copter::should_log</text>
</a>
</g>
</g>
<!-- Node1&#45;&gt;Node2 -->
<g id="edge1" class="edge"><title>Node1&#45;&gt;Node2</title>
<path fill="none" stroke="midnightblue" d="M105.151,-240.589C127.919,-245.649 156.048,-251.9 180.119,-257.249"/>
<polygon fill="midnightblue" stroke="midnightblue" points="179.639,-260.727 190.16,-259.48 181.157,-253.894 179.639,-260.727"/>
</g>
<!-- Node19 -->
<g id="node19" class="node"><title>Node19</title>
<g id="a_node19"><a doxygen="/home/ubuntu/ardupilot/docs/tags/libraries:../libraries/" xlink:href="../libraries/namespaceAP__HAL.html#a7aa0ce7625c9680e30ff4a99940907a5" target="_top" xlink:title="AP_HAL::micros64">
<polygon fill="white" stroke="black" points="183.5,-221.5 183.5,-240.5 284.5,-240.5 284.5,-221.5 183.5,-221.5"/>
<text text-anchor="middle" x="234" y="-228.5" font-family="Helvetica,sans-Serif" font-size="10.00">AP_HAL::micros64</text>
</a>
</g>
</g>
<!-- Node1&#45;&gt;Node19 -->
<g id="edge19" class="edge"><title>Node1&#45;&gt;Node19</title>
<path fill="none" stroke="midnightblue" d="M122.288,-231C138.851,-231 156.8,-231 173.328,-231"/>
<polygon fill="midnightblue" stroke="midnightblue" points="173.411,-234.5 183.411,-231 173.411,-227.5 173.411,-234.5"/>
</g>
<!-- Node20 -->
<g id="node20" class="node"><title>Node20</title>
<g id="a_node20"><a doxygen="/home/ubuntu/ardupilot/docs/tags/libraries:../libraries/" xlink:href="../libraries/classDataFlash__Class.html#aa8ca9bfeeb14e9b57bcb702e479225be" target="_top" xlink:title="DataFlash_Class::WriteCritical\lBlock">
<polygon fill="white" stroke="black" points="158,-172 158,-202 310,-202 310,-172 158,-172"/>
<text text-anchor="start" x="166" y="-190" font-family="Helvetica,sans-Serif" font-size="10.00">DataFlash_Class::WriteCritical</text>
<text text-anchor="middle" x="234" y="-179" font-family="Helvetica,sans-Serif" font-size="10.00">Block</text>
</a>
</g>
</g>
<!-- Node1&#45;&gt;Node20 -->
<g id="edge20" class="edge"><title>Node1&#45;&gt;Node20</title>
<path fill="none" stroke="midnightblue" d="M99.1045,-221.453C118.271,-216.521 142.276,-210.344 164.647,-204.588"/>
<polygon fill="midnightblue" stroke="midnightblue" points="165.638,-207.947 174.451,-202.065 163.894,-201.168 165.638,-207.947"/>
</g>
<!-- Node3 -->
<g id="node3" class="node"><title>Node3</title>
<g id="a_node3"><a doxygen="/home/ubuntu/ardupilot/docs/tags/libraries:../libraries/" xlink:href="../libraries/classDataFlash__Class.html#a5e32434ddf454a074dd9638d87e1d934" target="_top" xlink:title="DataFlash_Class::log\l_while_disarmed">
<polygon fill="white" stroke="black" points="346,-298 346,-328 457,-328 457,-298 346,-298"/>
<text text-anchor="start" x="354" y="-316" font-family="Helvetica,sans-Serif" font-size="10.00">DataFlash_Class::log</text>
<text text-anchor="middle" x="401.5" y="-305" font-family="Helvetica,sans-Serif" font-size="10.00">_while_disarmed</text>
</a>
</g>
</g>
<!-- Node2&#45;&gt;Node3 -->
<g id="edge2" class="edge"><title>Node2&#45;&gt;Node3</title>
<path fill="none" stroke="midnightblue" d="M270.911,-278.547C289.958,-283.611 313.942,-289.988 336.082,-295.874"/>
<polygon fill="midnightblue" stroke="midnightblue" points="335.204,-299.262 345.768,-298.449 337.003,-292.497 335.204,-299.262"/>
</g>
<!-- Node4 -->
<g id="node4" class="node"><title>Node4</title>
<g id="a_node4"><a doxygen="/home/ubuntu/ardupilot/docs/tags/libraries:../libraries/" xlink:href="../libraries/classDataFlash__Class.html#aa1dfc59b10a4b5ef3bc22ed5d5648665" target="_top" xlink:title="DataFlash_Class::logging\l_started">
<polygon fill="white" stroke="black" points="507,-284 507,-314 636,-314 636,-284 507,-284"/>
<text text-anchor="start" x="515" y="-302" font-family="Helvetica,sans-Serif" font-size="10.00">DataFlash_Class::logging</text>
<text text-anchor="middle" x="571.5" y="-291" font-family="Helvetica,sans-Serif" font-size="10.00">_started</text>
</a>
</g>
</g>
<!-- Node2&#45;&gt;Node4 -->
<g id="edge3" class="edge"><title>Node2&#45;&gt;Node4</title>
<path fill="none" stroke="midnightblue" d="M283.069,-273.298C338.879,-278.289 431.567,-286.577 496.562,-292.389"/>
<polygon fill="midnightblue" stroke="midnightblue" points="496.474,-295.895 506.746,-293.299 497.097,-288.922 496.474,-295.895"/>
</g>
<!-- Node5 -->
<g id="node5" class="node"><title>Node5</title>
<g id="a_node5"><a xlink:href="classCopter.html#a3a33c5c43740be29248b057f699f82a5" target="_top" xlink:title="Copter::start_logging">
<polygon fill="white" stroke="black" points="348,-191.5 348,-210.5 455,-210.5 455,-191.5 348,-191.5"/>
<text text-anchor="middle" x="401.5" y="-198.5" font-family="Helvetica,sans-Serif" font-size="10.00">Copter::start_logging</text>
</a>
</g>
</g>
<!-- Node2&#45;&gt;Node5 -->
<g id="edge4" class="edge"><title>Node2&#45;&gt;Node5</title>
<path fill="none" stroke="midnightblue" d="M280.386,-259.431C290.293,-256.811 300.616,-253.663 310,-250 333.811,-240.705 359.272,-226.496 377.103,-215.768"/>
<polygon fill="midnightblue" stroke="midnightblue" points="378.978,-218.724 385.683,-210.52 375.326,-212.753 378.978,-218.724"/>
</g>
<!-- Node5&#45;&gt;Node4 -->
<g id="edge17" class="edge"><title>Node5&#45;&gt;Node4</title>
<path fill="none" stroke="midnightblue" d="M411.639,-210.566C427.038,-226.168 459.743,-257.138 493,-275 496.296,-276.77 499.743,-278.432 503.273,-279.987"/>
<polygon fill="midnightblue" stroke="midnightblue" points="502.186,-283.324 512.767,-283.862 504.831,-276.843 502.186,-283.324"/>
</g>
<!-- Node6 -->
<g id="node6" class="node"><title>Node6</title>
<g id="a_node6"><a doxygen="/home/ubuntu/ardupilot/docs/tags/libraries:../libraries/" xlink:href="../libraries/classDataFlash__Class.html#a95bf3cac993c1ee326acc6447e99d875" target="_top" xlink:title="DataFlash_Class::set\l_mission">
<polygon fill="white" stroke="black" points="515.5,-235 515.5,-265 627.5,-265 627.5,-235 515.5,-235"/>
<text text-anchor="start" x="523.5" y="-253" font-family="Helvetica,sans-Serif" font-size="10.00">DataFlash_Class::set</text>
<text text-anchor="middle" x="571.5" y="-242" font-family="Helvetica,sans-Serif" font-size="10.00">_mission</text>
</a>
</g>
</g>
<!-- Node5&#45;&gt;Node6 -->
<g id="edge5" class="edge"><title>Node5&#45;&gt;Node6</title>
<path fill="none" stroke="midnightblue" d="M435.291,-210.564C456.282,-216.686 484.171,-224.821 509.167,-232.111"/>
<polygon fill="midnightblue" stroke="midnightblue" points="508.365,-235.523 518.945,-234.963 510.325,-228.803 508.365,-235.523"/>
</g>
<!-- Node7 -->
<g id="node7" class="node"><title>Node7</title>
<g id="a_node7"><a doxygen="/home/ubuntu/ardupilot/docs/tags/libraries:../libraries/" xlink:href="../libraries/classDataFlash__Class.html#abed561cc5dcbed8a208fbb13be2d436e" target="_top" xlink:title="DataFlash_Class::setVehicle\l_Startup_Log_Writer">
<polygon fill="white" stroke="black" points="499.5,-186 499.5,-216 643.5,-216 643.5,-186 499.5,-186"/>
<text text-anchor="start" x="507.5" y="-204" font-family="Helvetica,sans-Serif" font-size="10.00">DataFlash_Class::setVehicle</text>
<text text-anchor="middle" x="571.5" y="-193" font-family="Helvetica,sans-Serif" font-size="10.00">_Startup_Log_Writer</text>
</a>
</g>
</g>
<!-- Node5&#45;&gt;Node7 -->
<g id="edge6" class="edge"><title>Node5&#45;&gt;Node7</title>
<path fill="none" stroke="midnightblue" d="M455.195,-201C465.987,-201 477.583,-201 489.114,-201"/>
<polygon fill="midnightblue" stroke="midnightblue" points="489.208,-204.5 499.208,-201 489.208,-197.5 489.208,-204.5"/>
</g>
<!-- Node8 -->
<g id="node8" class="node"><title>Node8</title>
<g id="a_node8"><a xlink:href="classCopter.html#affc81dccd23c7d313a38854fe19c62b7" target="_top" xlink:title="Copter::Log_Write_Vehicle\l_Startup_Messages">
<polygon fill="white" stroke="black" points="504.5,-137 504.5,-167 638.5,-167 638.5,-137 504.5,-137"/>
<text text-anchor="start" x="512.5" y="-155" font-family="Helvetica,sans-Serif" font-size="10.00">Copter::Log_Write_Vehicle</text>
<text text-anchor="middle" x="571.5" y="-144" font-family="Helvetica,sans-Serif" font-size="10.00">_Startup_Messages</text>
</a>
</g>
</g>
<!-- Node5&#45;&gt;Node8 -->
<g id="edge7" class="edge"><title>Node5&#45;&gt;Node8</title>
<path fill="none" stroke="midnightblue" d="M435.291,-191.436C456.282,-185.314 484.171,-177.179 509.167,-169.889"/>
<polygon fill="midnightblue" stroke="midnightblue" points="510.325,-173.197 518.945,-167.037 508.365,-166.477 510.325,-173.197"/>
</g>
<!-- Node17 -->
<g id="node17" class="node"><title>Node17</title>
<g id="a_node17"><a doxygen="/home/ubuntu/ardupilot/docs/tags/libraries:../libraries/" xlink:href="../libraries/classDataFlash__Class.html#a2150c74ef2a6d77ec9ddbbf859cacd64" target="_top" xlink:title="DataFlash_Class::StartNewLog">
<polygon fill="white" stroke="black" points="494,-98.5 494,-117.5 649,-117.5 649,-98.5 494,-98.5"/>
<text text-anchor="middle" x="571.5" y="-105.5" font-family="Helvetica,sans-Serif" font-size="10.00">DataFlash_Class::StartNewLog</text>
</a>
</g>
</g>
<!-- Node5&#45;&gt;Node17 -->
<g id="edge16" class="edge"><title>Node5&#45;&gt;Node17</title>
<path fill="none" stroke="midnightblue" d="M411.574,-191.392C426.879,-175.756 459.451,-144.859 493,-128 498.622,-125.175 504.68,-122.723 510.844,-120.602"/>
<polygon fill="midnightblue" stroke="midnightblue" points="512.086,-123.88 520.569,-117.533 509.98,-117.204 512.086,-123.88"/>
</g>
<!-- Node18 -->
<g id="node18" class="node"><title>Node18</title>
<g id="a_node18"><a doxygen="/home/ubuntu/ardupilot/docs/tags/libraries:../libraries/" xlink:href="../libraries/classDataFlash__Class.html#ae85a3c49d2883b975376baaab5ab958f" target="_top" xlink:title="DataFlash_Class::EnableWrites">
<polygon fill="white" stroke="black" points="493,-60.5 493,-79.5 650,-79.5 650,-60.5 493,-60.5"/>
<text text-anchor="middle" x="571.5" y="-67.5" font-family="Helvetica,sans-Serif" font-size="10.00">DataFlash_Class::EnableWrites</text>
</a>
</g>
</g>
<!-- Node5&#45;&gt;Node18 -->
<g id="edge18" class="edge"><title>Node5&#45;&gt;Node18</title>
<path fill="none" stroke="midnightblue" d="M407.363,-191.442C418.983,-169.619 450.583,-115.937 493,-89 496.326,-86.8881 499.869,-85.0109 503.54,-83.3423"/>
<polygon fill="midnightblue" stroke="midnightblue" points="504.892,-86.5713 512.879,-79.6098 502.294,-80.0712 504.892,-86.5713"/>
</g>
<!-- Node9 -->
<g id="node9" class="node"><title>Node9</title>
<g id="a_node9"><a xlink:href="classCopter.html#a228aa1ecafb49183929a8da8045cd938" target="_top" xlink:title="Copter::get_frame_string">
<polygon fill="white" stroke="black" points="687.5,-235.5 687.5,-254.5 812.5,-254.5 812.5,-235.5 687.5,-235.5"/>
<text text-anchor="middle" x="750" y="-242.5" font-family="Helvetica,sans-Serif" font-size="10.00">Copter::get_frame_string</text>
</a>
</g>
</g>
<!-- Node8&#45;&gt;Node9 -->
<g id="edge8" class="edge"><title>Node8&#45;&gt;Node9</title>
<path fill="none" stroke="midnightblue" d="M632.345,-167.012C638.587,-169.813 644.61,-173.114 650,-177 671.921,-192.803 663.928,-210.408 686,-226 688.839,-228.005 691.892,-229.802 695.07,-231.412"/>
<polygon fill="midnightblue" stroke="midnightblue" points="693.714,-234.64 704.276,-235.471 696.538,-228.235 693.714,-234.64"/>
</g>
<!-- Node10 -->
<g id="node10" class="node"><title>Node10</title>
<g id="a_node10"><a doxygen="/home/ubuntu/ardupilot/docs/tags/libraries:../libraries/" xlink:href="../libraries/classDataFlash__Class.html#a3d24105948a2709fa0585b1c53bb7dfe" target="_top" xlink:title="DataFlash_Class::Log\l_Write_Message">
<polygon fill="white" stroke="black" points="693,-186 693,-216 807,-216 807,-186 693,-186"/>
<text text-anchor="start" x="701" y="-204" font-family="Helvetica,sans-Serif" font-size="10.00">DataFlash_Class::Log</text>
<text text-anchor="middle" x="750" y="-193" font-family="Helvetica,sans-Serif" font-size="10.00">_Write_Message</text>
</a>
</g>
</g>
<!-- Node8&#45;&gt;Node10 -->
<g id="edge9" class="edge"><title>Node8&#45;&gt;Node10</title>
<path fill="none" stroke="midnightblue" d="M626.896,-167.101C645.268,-172.202 665.947,-177.943 684.993,-183.23"/>
<polygon fill="midnightblue" stroke="midnightblue" points="684.212,-186.646 694.784,-185.948 686.084,-179.901 684.212,-186.646"/>
</g>
<!-- Node11 -->
<g id="node11" class="node"><title>Node11</title>
<g id="a_node11"><a doxygen="/home/ubuntu/ardupilot/docs/tags/libraries:../libraries/" xlink:href="../libraries/classDataFlash__Class.html#a8c36713b82ad014c02071b7de0bcfae0" target="_top" xlink:title="DataFlash_Class::Log\l_Write_Mode">
<polygon fill="white" stroke="black" points="693,-137 693,-167 807,-167 807,-137 693,-137"/>
<text text-anchor="start" x="701" y="-155" font-family="Helvetica,sans-Serif" font-size="10.00">DataFlash_Class::Log</text>
<text text-anchor="middle" x="750" y="-144" font-family="Helvetica,sans-Serif" font-size="10.00">_Write_Mode</text>
</a>
</g>
</g>
<!-- Node8&#45;&gt;Node11 -->
<g id="edge10" class="edge"><title>Node8&#45;&gt;Node11</title>
<path fill="none" stroke="midnightblue" d="M638.724,-152C653.05,-152 668.203,-152 682.538,-152"/>
<polygon fill="midnightblue" stroke="midnightblue" points="682.808,-155.5 692.808,-152 682.807,-148.5 682.808,-155.5"/>
</g>
<!-- Node12 -->
<g id="node12" class="node"><title>Node12</title>
<g id="a_node12"><a doxygen="/home/ubuntu/ardupilot/docs/tags/libraries:../libraries/" xlink:href="../libraries/classDataFlash__Class.html#aa4421dde08afcd932ccbe12aef85055d" target="_top" xlink:title="DataFlash_Class::Log\l_Write_Rally">
<polygon fill="white" stroke="black" points="693,-88 693,-118 807,-118 807,-88 693,-88"/>
<text text-anchor="start" x="701" y="-106" font-family="Helvetica,sans-Serif" font-size="10.00">DataFlash_Class::Log</text>
<text text-anchor="middle" x="750" y="-95" font-family="Helvetica,sans-Serif" font-size="10.00">_Write_Rally</text>
</a>
</g>
</g>
<!-- Node8&#45;&gt;Node12 -->
<g id="edge11" class="edge"><title>Node8&#45;&gt;Node12</title>
<path fill="none" stroke="midnightblue" d="M626.896,-136.899C645.268,-131.798 665.947,-126.057 684.993,-120.77"/>
<polygon fill="midnightblue" stroke="midnightblue" points="686.084,-124.099 694.784,-118.052 684.212,-117.354 686.084,-124.099"/>
</g>
<!-- Node13 -->
<g id="node13" class="node"><title>Node13</title>
<g id="a_node13"><a xlink:href="classCopter.html#ae637d9d35114ba86e1d3c7a726870edf" target="_top" xlink:title="Copter::Log_Write_Home\l_And_Origin">
<polygon fill="white" stroke="black" points="686,-39 686,-69 814,-69 814,-39 686,-39"/>
<text text-anchor="start" x="694" y="-57" font-family="Helvetica,sans-Serif" font-size="10.00">Copter::Log_Write_Home</text>
<text text-anchor="middle" x="750" y="-46" font-family="Helvetica,sans-Serif" font-size="10.00">_And_Origin</text>
</a>
</g>
</g>
<!-- Node8&#45;&gt;Node13 -->
<g id="edge12" class="edge"><title>Node8&#45;&gt;Node13</title>
<path fill="none" stroke="midnightblue" d="M632.345,-136.988C638.587,-134.187 644.61,-130.886 650,-127 671.921,-111.197 664.496,-94.3666 686,-78 687.816,-76.6177 689.721,-75.3068 691.691,-74.0643"/>
<polygon fill="midnightblue" stroke="midnightblue" points="693.646,-76.9809 700.668,-69.0466 690.231,-70.8707 693.646,-76.9809"/>
</g>
<!-- Node14 -->
<g id="node14" class="node"><title>Node14</title>
<g id="a_node14"><a doxygen="/home/ubuntu/ardupilot/docs/tags/libraries:../libraries/" xlink:href="../libraries/classAP__AHRS__NavEKF.html#a8e90dbad885e5d8d4efe9a34d635886a" target="_top" xlink:title="AP_AHRS_NavEKF::get\l_origin">
<polygon fill="white" stroke="black" points="850,-88 850,-118 976,-118 976,-88 850,-88"/>
<text text-anchor="start" x="858" y="-106" font-family="Helvetica,sans-Serif" font-size="10.00">AP_AHRS_NavEKF::get</text>
<text text-anchor="middle" x="913" y="-95" font-family="Helvetica,sans-Serif" font-size="10.00">_origin</text>
</a>
</g>
</g>
<!-- Node13&#45;&gt;Node14 -->
<g id="edge13" class="edge"><title>Node13&#45;&gt;Node14</title>
<path fill="none" stroke="midnightblue" d="M800.619,-69.1014C817.07,-74.1083 835.549,-79.7324 852.657,-84.939"/>
<polygon fill="midnightblue" stroke="midnightblue" points="851.959,-88.3851 862.545,-87.9484 853.997,-81.6884 851.959,-88.3851"/>
</g>
<!-- Node15 -->
<g id="node15" class="node"><title>Node15</title>
<g id="a_node15"><a doxygen="/home/ubuntu/ardupilot/docs/tags/libraries:../libraries/" xlink:href="../libraries/classDataFlash__Class.html#a7c9ea84e9cbfd62bac7f1fac7cafa562" target="_top" xlink:title="DataFlash_Class::Log\l_Write_Origin">
<polygon fill="white" stroke="black" points="856,-39 856,-69 970,-69 970,-39 856,-39"/>
<text text-anchor="start" x="864" y="-57" font-family="Helvetica,sans-Serif" font-size="10.00">DataFlash_Class::Log</text>
<text text-anchor="middle" x="913" y="-46" font-family="Helvetica,sans-Serif" font-size="10.00">_Write_Origin</text>
</a>
</g>
</g>
<!-- Node13&#45;&gt;Node15 -->
<g id="edge14" class="edge"><title>Node13&#45;&gt;Node15</title>
<path fill="none" stroke="midnightblue" d="M814.169,-54C824.477,-54 835.182,-54 845.565,-54"/>
<polygon fill="midnightblue" stroke="midnightblue" points="845.814,-57.5001 855.814,-54 845.814,-50.5001 845.814,-57.5001"/>
</g>
<!-- Node16 -->
<g id="node16" class="node"><title>Node16</title>
<g id="a_node16"><a doxygen="/home/ubuntu/ardupilot/docs/tags/libraries:../libraries/" xlink:href="../libraries/classAP__AHRS.html#aea45b16e6469a3b392b8bf52fb864732" target="_top" xlink:title="AP_AHRS::get_home">
<polygon fill="white" stroke="black" points="856.5,-0.5 856.5,-19.5 969.5,-19.5 969.5,-0.5 856.5,-0.5"/>
<text text-anchor="middle" x="913" y="-7.5" font-family="Helvetica,sans-Serif" font-size="10.00">AP_AHRS::get_home</text>
</a>
</g>
</g>
<!-- Node13&#45;&gt;Node16 -->
<g id="edge15" class="edge"><title>Node13&#45;&gt;Node16</title>
<path fill="none" stroke="midnightblue" d="M805.957,-38.9808C825.879,-33.5362 848.129,-27.4554 867.084,-22.2751"/>
<polygon fill="midnightblue" stroke="midnightblue" points="868.229,-25.5908 876.952,-19.5783 866.383,-18.8384 868.229,-25.5908"/>
</g>
</g>
</svg>
        <g id="navigator" transform="translate(0 0)" fill="#404254">
                <rect fill="#f2f5e9" fill-opacity="0.5" stroke="#606060" stroke-width=".5" x="0" y="0" width="60" height="60"/>
                <use id="zoomplus" xlink:href="#zoomPlus" x="17" y="9" onmousedown="handleZoom(evt,'in')"/>
                <use id="zoomminus" xlink:href="#zoomMin" x="42" y="9" onmousedown="handleZoom(evt,'out')"/>
                <use id="reset" xlink:href="#resetDef" x="30" y="36" onmousedown="handleReset()"/>
                <g id="arrowUp" xlink:href="#dirArrow" transform="translate(30 24)" onmousedown="handlePan(0,-1)">
                  <use xlink:href="#rim" fill="#404040">
                        <set attributeName="fill" to="#808080" begin="arrowUp.mouseover" end="arrowUp.mouseout"/>
                  </use>
                  <path fill="none" stroke="white" stroke-width="1.5" d="M0,-3.0v7 M-2.5,-0.5L0,-3.0L2.5,-0.5"/>
                </g>
                <g id="arrowRight" xlink:href="#dirArrow" transform="rotate(90) translate(36 -43)" onmousedown="handlePan(1,0)">
                  <use xlink:href="#rim" fill="#404040">
                        <set attributeName="fill" to="#808080" begin="arrowRight.mouseover" end="arrowRight.mouseout"/>
                  </use>
                  <path fill="none" stroke="white" stroke-width="1.5" d="M0,-3.0v7 M-2.5,-0.5L0,-3.0L2.5,-0.5"/>
                </g>
                <g id="arrowDown" xlink:href="#dirArrow" transform="rotate(180) translate(-30 -48)" onmousedown="handlePan(0,1)">
                  <use xlink:href="#rim" fill="#404040">
                        <set attributeName="fill" to="#808080" begin="arrowDown.mouseover" end="arrowDown.mouseout"/>
                  </use>
                  <path fill="none" stroke="white" stroke-width="1.5" d="M0,-3.0v7 M-2.5,-0.5L0,-3.0L2.5,-0.5"/>
                </g>
                <g id="arrowLeft" xlink:href="#dirArrow" transform="rotate(270) translate(-36 17)" onmousedown="handlePan(-1,0)">
                  <use xlink:href="#rim" fill="#404040">
                        <set attributeName="fill" to="#808080" begin="arrowLeft.mouseover" end="arrowLeft.mouseout"/>
                  </use>
                  <path fill="none" stroke="white" stroke-width="1.5" d="M0,-3.0v7 M-2.5,-0.5L0,-3.0L2.5,-0.5"/>
                </g>
        </g>
        <svg viewBox="0 0 15 15" width="100%" height="30px" preserveAspectRatio="xMaxYMin meet">
         <g id="arrow_out" transform="scale(0.3 0.3)">
          <a xlink:href="classCopter_a03f3e8771105d14999d9d0c5d6e530b7_cgraph_org.svg" target="_base">
           <rect id="button" ry="5" rx="5" y="6" x="6" height="38" width="38"
                fill="#f2f5e9" fill-opacity="0.5" stroke="#606060" stroke-width="1.0"/>
           <path id="arrow"
             d="M 11.500037,31.436501 C 11.940474,20.09759 22.043105,11.32322 32.158766,21.979434 L 37.068811,17.246167 C 37.068811,17.246167 37.088388,32 37.088388,32 L 22.160133,31.978069 C 22.160133,31.978069 26.997745,27.140456 26.997745,27.140456 C 18.528582,18.264221 13.291696,25.230495 11.500037,31.436501 z"
             style="fill:#404040;"/>
          </a>
         </g>
        </svg>
</svg>
