<?xml version="1.0" encoding="UTF-8" standalone="no"?>
<!DOCTYPE svg PUBLIC "-//W3C//DTD SVG 1.1//EN"
 "http://www.w3.org/Graphics/SVG/1.1/DTD/svg11.dtd">
<!-- Generated by graphviz version 2.38.0 (20140413.2041)
 -->
<!-- Title: Copter::report_batt_monitor Pages: 1 -->
<svg width="556pt" height="53pt"
 viewBox="0.00 0.00 556.00 52.50" xmlns="http://www.w3.org/2000/svg" xmlns:xlink="http://www.w3.org/1999/xlink">
<g id="graph0" class="graph" transform="scale(1 1) rotate(0) translate(4 48.5)">
<title>Copter::report_batt_monitor</title>
<polygon fill="white" stroke="none" points="-4,4 -4,-48.5 552,-48.5 552,4 -4,4"/>
<!-- Node1 -->
<g id="node1" class="node"><title>Node1</title>
<polygon fill="#bfbfbf" stroke="black" points="0,-14 0,-44 98,-44 98,-14 0,-14"/>
<text text-anchor="start" x="8" y="-32" font-family="Helvetica,sans-Serif" font-size="10.00">Copter::report_batt</text>
<text text-anchor="middle" x="49" y="-21" font-family="Helvetica,sans-Serif" font-size="10.00">_monitor</text>
</g>
<!-- Node2 -->
<g id="node2" class="node"><title>Node2</title>
<g id="a_node2"><a xlink:href="classCopter.html#a463474e8d6d99855217b8ec3dba27d63" target="_top" xlink:title="Copter::gcs_set_mode">
<polygon fill="white" stroke="black" points="274,-19.5 274,-38.5 390,-38.5 390,-19.5 274,-19.5"/>
<text text-anchor="middle" x="332" y="-26.5" font-family="Helvetica,sans-Serif" font-size="10.00">Copter::gcs_set_mode</text>
</a>
</g>
</g>
<!-- Node1&#45;&gt;Node2 -->
<g id="edge1" class="edge"><title>Node1&#45;&gt;Node2</title>
<path fill="none" stroke="midnightblue" d="M108.331,-29C156.814,-29 225.423,-29 273.635,-29"/>
<polygon fill="midnightblue" stroke="midnightblue" points="108.306,-25.5001 98.3056,-29 108.306,-32.5001 108.306,-25.5001"/>
</g>
<!-- Node4 -->
<g id="node4" class="node"><title>Node4</title>
<g id="a_node4"><a xlink:href="classCopter.html#a56d954df2dfa944ae209f86662431f0a" target="_top" xlink:title="Copter::setup_show">
<polygon fill="white" stroke="black" points="134,-0.5 134,-19.5 238,-19.5 238,-0.5 134,-0.5"/>
<text text-anchor="middle" x="186" y="-7.5" font-family="Helvetica,sans-Serif" font-size="10.00">Copter::setup_show</text>
</a>
</g>
</g>
<!-- Node1&#45;&gt;Node4 -->
<g id="edge3" class="edge"><title>Node1&#45;&gt;Node4</title>
<path fill="none" stroke="midnightblue" d="M108.496,-20.7672C116.915,-19.5823 125.525,-18.3706 133.788,-17.2076"/>
<polygon fill="midnightblue" stroke="midnightblue" points="107.771,-17.3346 98.3568,-22.1942 108.747,-24.2663 107.771,-17.3346"/>
</g>
<!-- Node3 -->
<g id="node3" class="node"><title>Node3</title>
<g id="a_node3"><a xlink:href="classGCS__MAVLINK__Copter.html#afe85f88545dfa66f9100ed341cf5f79b" target="_top" xlink:title="GCS_MAVLINK_Copter\l::handleMessage">
<polygon fill="white" stroke="black" points="426,-14 426,-44 548,-44 548,-14 426,-14"/>
<text text-anchor="start" x="434" y="-32" font-family="Helvetica,sans-Serif" font-size="10.00">GCS_MAVLINK_Copter</text>
<text text-anchor="middle" x="487" y="-21" font-family="Helvetica,sans-Serif" font-size="10.00">::handleMessage</text>
</a>
</g>
</g>
<!-- Node2&#45;&gt;Node3 -->
<g id="edge2" class="edge"><title>Node2&#45;&gt;Node3</title>
<path fill="none" stroke="midnightblue" d="M400.61,-29C409.057,-29 417.651,-29 425.972,-29"/>
<polygon fill="midnightblue" stroke="midnightblue" points="400.407,-25.5001 390.407,-29 400.407,-32.5001 400.407,-25.5001"/>
</g>
<!-- Node4&#45;&gt;Node2 -->
<g id="edge4" class="edge"><title>Node4&#45;&gt;Node2</title>
<path fill="none" stroke="midnightblue" d="M248.291,-18.087C256.692,-19.1954 265.291,-20.3301 273.619,-21.4288"/>
<polygon fill="midnightblue" stroke="midnightblue" points="248.546,-14.5905 238.174,-16.7522 247.631,-21.5303 248.546,-14.5905"/>
</g>
</g>
</svg>
