<?xml version="1.0" encoding="UTF-8" standalone="no"?>
<!DOCTYPE svg PUBLIC "-//W3C//DTD SVG 1.1//EN"
 "http://www.w3.org/Graphics/SVG/1.1/DTD/svg11.dtd">
<!-- Generated by graphviz version 2.38.0 (20140413.2041)
 -->
<!-- Title: Copter::start_logging Pages: 1 -->
<!--zoomable 274 -->
<svg id="main" version="1.1" xmlns="http://www.w3.org/2000/svg" xmlns:xlink="http://www.w3.org/1999/xlink" xml:space="preserve" onload="init(evt)">
<style type="text/css"><![CDATA[
.edge:hover path { stroke: red; }
.edge:hover polygon { stroke: red; fill: red; }
]]></style>
<script type="text/javascript"><![CDATA[
var edges = document.getElementsByTagName('g');
if (edges && edges.length) {
  for (var i=0;i<edges.length;i++) {
    if (edges[i].id.substr(0,4)=='edge') {
      edges[i].setAttribute('class','edge');
    }
  }
}
]]></script>
        <defs>
                <circle id="rim" cx="0" cy="0" r="7"/>
                <circle id="rim2" cx="0" cy="0" r="3.5"/>
                <g id="zoomPlus">
                        <use xlink:href="#rim" fill="#404040">
                                <set attributeName="fill" to="#808080" begin="zoomplus.mouseover" end="zoomplus.mouseout"/>
                        </use>
                        <path d="M-4,0h8M0,-4v8" fill="none" stroke="white" stroke-width="1.5" pointer-events="none"/>
                </g>
                <g id="zoomMin">
                        <use xlink:href="#rim" fill="#404040">
                                <set attributeName="fill" to="#808080" begin="zoomminus.mouseover" end="zoomminus.mouseout"/>
                        </use>
                        <path d="M-4,0h8" fill="none" stroke="white" stroke-width="1.5" pointer-events="none"/>
                </g>
                <g id="dirArrow">
                        <path fill="none" stroke="white" stroke-width="1.5" d="M0,-3.0v7 M-2.5,-0.5L0,-3.0L2.5,-0.5"/>
                </g>
               <g id="resetDef">
                       <use xlink:href="#rim2" fill="#404040">
                               <set attributeName="fill" to="#808080" begin="reset.mouseover" end="reset.mouseout"/>
                       </use>
               </g>
        </defs>

<script type="text/javascript">
var viewWidth = 634;
var viewHeight = 274;
var sectionId = 'dynsection-697';
</script>
<script xlink:href="svgpan.js"/>
<svg id="graph" class="graph">
<g id="viewport">
<title>Copter::start_logging</title>
<polygon fill="white" stroke="none" points="-4,4 -4,-269.5 630,-269.5 630,4 -4,4"/>
<!-- Node1 -->
<g id="node1" class="node"><title>Node1</title>
<polygon fill="#bfbfbf" stroke="black" points="0,-120.5 0,-139.5 107,-139.5 107,-120.5 0,-120.5"/>
<text text-anchor="middle" x="53.5" y="-127.5" font-family="Helvetica,sans-Serif" font-size="10.00">Copter::start_logging</text>
</g>
<!-- Node2 -->
<g id="node2" class="node"><title>Node2</title>
<g id="a_node2"><a doxygen="/home/ubuntu/ardupilot/docs/tags/libraries:../libraries/" xlink:href="../libraries/classDataFlash__Class.html#a95bf3cac993c1ee326acc6447e99d875" target="_top" xlink:title="DataFlash_Class::set\l_mission">
<polygon fill="white" stroke="black" points="165.5,-235 165.5,-265 277.5,-265 277.5,-235 165.5,-235"/>
<text text-anchor="start" x="173.5" y="-253" font-family="Helvetica,sans-Serif" font-size="10.00">DataFlash_Class::set</text>
<text text-anchor="middle" x="221.5" y="-242" font-family="Helvetica,sans-Serif" font-size="10.00">_mission</text>
</a>
</g>
</g>
<!-- Node1&#45;&gt;Node2 -->
<g id="edge1" class="edge"><title>Node1&#45;&gt;Node2</title>
<path fill="none" stroke="midnightblue" d="M60.8134,-139.735C73.8386,-159.053 105.623,-202.401 143,-226 147.031,-228.545 151.35,-230.836 155.812,-232.897"/>
<polygon fill="midnightblue" stroke="midnightblue" points="154.547,-236.162 165.122,-236.81 157.259,-229.709 154.547,-236.162"/>
</g>
<!-- Node3 -->
<g id="node3" class="node"><title>Node3</title>
<g id="a_node3"><a doxygen="/home/ubuntu/ardupilot/docs/tags/libraries:../libraries/" xlink:href="../libraries/classDataFlash__Class.html#abed561cc5dcbed8a208fbb13be2d436e" target="_top" xlink:title="DataFlash_Class::setVehicle\l_Startup_Log_Writer">
<polygon fill="white" stroke="black" points="149.5,-186 149.5,-216 293.5,-216 293.5,-186 149.5,-186"/>
<text text-anchor="start" x="157.5" y="-204" font-family="Helvetica,sans-Serif" font-size="10.00">DataFlash_Class::setVehicle</text>
<text text-anchor="middle" x="221.5" y="-193" font-family="Helvetica,sans-Serif" font-size="10.00">_Startup_Log_Writer</text>
</a>
</g>
</g>
<!-- Node1&#45;&gt;Node3 -->
<g id="edge2" class="edge"><title>Node1&#45;&gt;Node3</title>
<path fill="none" stroke="midnightblue" d="M70.368,-139.601C87.7462,-149.834 116.658,-166.041 143,-177 147.676,-178.945 152.566,-180.817 157.52,-182.599"/>
<polygon fill="midnightblue" stroke="midnightblue" points="156.488,-185.945 167.083,-185.908 158.777,-179.33 156.488,-185.945"/>
</g>
<!-- Node4 -->
<g id="node4" class="node"><title>Node4</title>
<g id="a_node4"><a xlink:href="classCopter.html#affc81dccd23c7d313a38854fe19c62b7" target="_top" xlink:title="Copter::Log_Write_Vehicle\l_Startup_Messages">
<polygon fill="white" stroke="black" points="154.5,-137 154.5,-167 288.5,-167 288.5,-137 154.5,-137"/>
<text text-anchor="start" x="162.5" y="-155" font-family="Helvetica,sans-Serif" font-size="10.00">Copter::Log_Write_Vehicle</text>
<text text-anchor="middle" x="221.5" y="-144" font-family="Helvetica,sans-Serif" font-size="10.00">_Startup_Messages</text>
</a>
</g>
</g>
<!-- Node1&#45;&gt;Node4 -->
<g id="edge3" class="edge"><title>Node1&#45;&gt;Node4</title>
<path fill="none" stroke="midnightblue" d="M107.023,-136.961C118.866,-138.53 131.669,-140.227 144.263,-141.896"/>
<polygon fill="midnightblue" stroke="midnightblue" points="143.923,-145.382 154.296,-143.226 144.843,-138.442 143.923,-145.382"/>
</g>
<!-- Node13 -->
<g id="node13" class="node"><title>Node13</title>
<g id="a_node13"><a doxygen="/home/ubuntu/ardupilot/docs/tags/libraries:../libraries/" xlink:href="../libraries/classDataFlash__Class.html#a2150c74ef2a6d77ec9ddbbf859cacd64" target="_top" xlink:title="DataFlash_Class::StartNewLog">
<polygon fill="white" stroke="black" points="144,-98.5 144,-117.5 299,-117.5 299,-98.5 144,-98.5"/>
<text text-anchor="middle" x="221.5" y="-105.5" font-family="Helvetica,sans-Serif" font-size="10.00">DataFlash_Class::StartNewLog</text>
</a>
</g>
</g>
<!-- Node1&#45;&gt;Node13 -->
<g id="edge12" class="edge"><title>Node1&#45;&gt;Node13</title>
<path fill="none" stroke="midnightblue" d="M107.023,-123.039C117.029,-121.713 127.72,-120.296 138.392,-118.882"/>
<polygon fill="midnightblue" stroke="midnightblue" points="139.142,-122.313 148.595,-117.53 138.222,-115.374 139.142,-122.313"/>
</g>
<!-- Node14 -->
<g id="node14" class="node"><title>Node14</title>
<g id="a_node14"><a doxygen="/home/ubuntu/ardupilot/docs/tags/libraries:../libraries/" xlink:href="../libraries/classDataFlash__Class.html#aa1dfc59b10a4b5ef3bc22ed5d5648665" target="_top" xlink:title="DataFlash_Class::logging\l_started">
<polygon fill="white" stroke="black" points="157,-49 157,-79 286,-79 286,-49 157,-49"/>
<text text-anchor="start" x="165" y="-67" font-family="Helvetica,sans-Serif" font-size="10.00">DataFlash_Class::logging</text>
<text text-anchor="middle" x="221.5" y="-56" font-family="Helvetica,sans-Serif" font-size="10.00">_started</text>
</a>
</g>
</g>
<!-- Node1&#45;&gt;Node14 -->
<g id="edge13" class="edge"><title>Node1&#45;&gt;Node14</title>
<path fill="none" stroke="midnightblue" d="M73.5429,-120.356C91.27,-111.576 118.558,-98.5631 143,-89 148.789,-86.7351 154.875,-84.5108 160.986,-82.3798"/>
<polygon fill="midnightblue" stroke="midnightblue" points="162.233,-85.6527 170.571,-79.1157 159.976,-79.0265 162.233,-85.6527"/>
</g>
<!-- Node15 -->
<g id="node15" class="node"><title>Node15</title>
<g id="a_node15"><a doxygen="/home/ubuntu/ardupilot/docs/tags/libraries:../libraries/" xlink:href="../libraries/classDataFlash__Class.html#ae85a3c49d2883b975376baaab5ab958f" target="_top" xlink:title="DataFlash_Class::EnableWrites">
<polygon fill="white" stroke="black" points="143,-10.5 143,-29.5 300,-29.5 300,-10.5 143,-10.5"/>
<text text-anchor="middle" x="221.5" y="-17.5" font-family="Helvetica,sans-Serif" font-size="10.00">DataFlash_Class::EnableWrites</text>
</a>
</g>
</g>
<!-- Node1&#45;&gt;Node15 -->
<g id="edge14" class="edge"><title>Node1&#45;&gt;Node15</title>
<path fill="none" stroke="midnightblue" d="M61.0293,-120.31C74.2035,-101.547 105.895,-60.2386 143,-39 146.892,-36.772 151.04,-34.8036 155.316,-33.0649"/>
<polygon fill="midnightblue" stroke="midnightblue" points="156.624,-36.3135 164.831,-29.6136 154.237,-29.733 156.624,-36.3135"/>
</g>
<!-- Node5 -->
<g id="node5" class="node"><title>Node5</title>
<g id="a_node5"><a xlink:href="classCopter.html#a228aa1ecafb49183929a8da8045cd938" target="_top" xlink:title="Copter::get_frame_string">
<polygon fill="white" stroke="black" points="337.5,-235.5 337.5,-254.5 462.5,-254.5 462.5,-235.5 337.5,-235.5"/>
<text text-anchor="middle" x="400" y="-242.5" font-family="Helvetica,sans-Serif" font-size="10.00">Copter::get_frame_string</text>
</a>
</g>
</g>
<!-- Node4&#45;&gt;Node5 -->
<g id="edge4" class="edge"><title>Node4&#45;&gt;Node5</title>
<path fill="none" stroke="midnightblue" d="M282.345,-167.012C288.587,-169.813 294.61,-173.114 300,-177 321.921,-192.803 313.928,-210.408 336,-226 338.839,-228.005 341.892,-229.802 345.07,-231.412"/>
<polygon fill="midnightblue" stroke="midnightblue" points="343.714,-234.64 354.276,-235.471 346.538,-228.235 343.714,-234.64"/>
</g>
<!-- Node6 -->
<g id="node6" class="node"><title>Node6</title>
<g id="a_node6"><a doxygen="/home/ubuntu/ardupilot/docs/tags/libraries:../libraries/" xlink:href="../libraries/classDataFlash__Class.html#a3d24105948a2709fa0585b1c53bb7dfe" target="_top" xlink:title="DataFlash_Class::Log\l_Write_Message">
<polygon fill="white" stroke="black" points="343,-186 343,-216 457,-216 457,-186 343,-186"/>
<text text-anchor="start" x="351" y="-204" font-family="Helvetica,sans-Serif" font-size="10.00">DataFlash_Class::Log</text>
<text text-anchor="middle" x="400" y="-193" font-family="Helvetica,sans-Serif" font-size="10.00">_Write_Message</text>
</a>
</g>
</g>
<!-- Node4&#45;&gt;Node6 -->
<g id="edge5" class="edge"><title>Node4&#45;&gt;Node6</title>
<path fill="none" stroke="midnightblue" d="M276.896,-167.101C295.268,-172.202 315.947,-177.943 334.993,-183.23"/>
<polygon fill="midnightblue" stroke="midnightblue" points="334.212,-186.646 344.784,-185.948 336.084,-179.901 334.212,-186.646"/>
</g>
<!-- Node7 -->
<g id="node7" class="node"><title>Node7</title>
<g id="a_node7"><a doxygen="/home/ubuntu/ardupilot/docs/tags/libraries:../libraries/" xlink:href="../libraries/classDataFlash__Class.html#a8c36713b82ad014c02071b7de0bcfae0" target="_top" xlink:title="DataFlash_Class::Log\l_Write_Mode">
<polygon fill="white" stroke="black" points="343,-137 343,-167 457,-167 457,-137 343,-137"/>
<text text-anchor="start" x="351" y="-155" font-family="Helvetica,sans-Serif" font-size="10.00">DataFlash_Class::Log</text>
<text text-anchor="middle" x="400" y="-144" font-family="Helvetica,sans-Serif" font-size="10.00">_Write_Mode</text>
</a>
</g>
</g>
<!-- Node4&#45;&gt;Node7 -->
<g id="edge6" class="edge"><title>Node4&#45;&gt;Node7</title>
<path fill="none" stroke="midnightblue" d="M288.724,-152C303.05,-152 318.203,-152 332.538,-152"/>
<polygon fill="midnightblue" stroke="midnightblue" points="332.808,-155.5 342.808,-152 332.807,-148.5 332.808,-155.5"/>
</g>
<!-- Node8 -->
<g id="node8" class="node"><title>Node8</title>
<g id="a_node8"><a doxygen="/home/ubuntu/ardupilot/docs/tags/libraries:../libraries/" xlink:href="../libraries/classDataFlash__Class.html#aa4421dde08afcd932ccbe12aef85055d" target="_top" xlink:title="DataFlash_Class::Log\l_Write_Rally">
<polygon fill="white" stroke="black" points="343,-88 343,-118 457,-118 457,-88 343,-88"/>
<text text-anchor="start" x="351" y="-106" font-family="Helvetica,sans-Serif" font-size="10.00">DataFlash_Class::Log</text>
<text text-anchor="middle" x="400" y="-95" font-family="Helvetica,sans-Serif" font-size="10.00">_Write_Rally</text>
</a>
</g>
</g>
<!-- Node4&#45;&gt;Node8 -->
<g id="edge7" class="edge"><title>Node4&#45;&gt;Node8</title>
<path fill="none" stroke="midnightblue" d="M276.896,-136.899C295.268,-131.798 315.947,-126.057 334.993,-120.77"/>
<polygon fill="midnightblue" stroke="midnightblue" points="336.084,-124.099 344.784,-118.052 334.212,-117.354 336.084,-124.099"/>
</g>
<!-- Node9 -->
<g id="node9" class="node"><title>Node9</title>
<g id="a_node9"><a xlink:href="classCopter.html#ae637d9d35114ba86e1d3c7a726870edf" target="_top" xlink:title="Copter::Log_Write_Home\l_And_Origin">
<polygon fill="white" stroke="black" points="336,-39 336,-69 464,-69 464,-39 336,-39"/>
<text text-anchor="start" x="344" y="-57" font-family="Helvetica,sans-Serif" font-size="10.00">Copter::Log_Write_Home</text>
<text text-anchor="middle" x="400" y="-46" font-family="Helvetica,sans-Serif" font-size="10.00">_And_Origin</text>
</a>
</g>
</g>
<!-- Node4&#45;&gt;Node9 -->
<g id="edge8" class="edge"><title>Node4&#45;&gt;Node9</title>
<path fill="none" stroke="midnightblue" d="M282.306,-136.935C288.555,-134.144 294.591,-130.859 300,-127 321.709,-111.513 314.812,-95.192 336,-79 338.323,-77.2249 340.788,-75.5589 343.346,-73.9975"/>
<polygon fill="midnightblue" stroke="midnightblue" points="345.235,-76.9538 352.33,-69.0855 341.877,-70.8118 345.235,-76.9538"/>
</g>
<!-- Node10 -->
<g id="node10" class="node"><title>Node10</title>
<g id="a_node10"><a doxygen="/home/ubuntu/ardupilot/docs/tags/libraries:../libraries/" xlink:href="../libraries/classAP__AHRS__NavEKF.html#a8e90dbad885e5d8d4efe9a34d635886a" target="_top" xlink:title="AP_AHRS_NavEKF::get\l_origin">
<polygon fill="white" stroke="black" points="500,-88 500,-118 626,-118 626,-88 500,-88"/>
<text text-anchor="start" x="508" y="-106" font-family="Helvetica,sans-Serif" font-size="10.00">AP_AHRS_NavEKF::get</text>
<text text-anchor="middle" x="563" y="-95" font-family="Helvetica,sans-Serif" font-size="10.00">_origin</text>
</a>
</g>
</g>
<!-- Node9&#45;&gt;Node10 -->
<g id="edge9" class="edge"><title>Node9&#45;&gt;Node10</title>
<path fill="none" stroke="midnightblue" d="M450.619,-69.1014C467.07,-74.1083 485.549,-79.7324 502.657,-84.939"/>
<polygon fill="midnightblue" stroke="midnightblue" points="501.959,-88.3851 512.545,-87.9484 503.997,-81.6884 501.959,-88.3851"/>
</g>
<!-- Node11 -->
<g id="node11" class="node"><title>Node11</title>
<g id="a_node11"><a doxygen="/home/ubuntu/ardupilot/docs/tags/libraries:../libraries/" xlink:href="../libraries/classDataFlash__Class.html#a7c9ea84e9cbfd62bac7f1fac7cafa562" target="_top" xlink:title="DataFlash_Class::Log\l_Write_Origin">
<polygon fill="white" stroke="black" points="506,-39 506,-69 620,-69 620,-39 506,-39"/>
<text text-anchor="start" x="514" y="-57" font-family="Helvetica,sans-Serif" font-size="10.00">DataFlash_Class::Log</text>
<text text-anchor="middle" x="563" y="-46" font-family="Helvetica,sans-Serif" font-size="10.00">_Write_Origin</text>
</a>
</g>
</g>
<!-- Node9&#45;&gt;Node11 -->
<g id="edge10" class="edge"><title>Node9&#45;&gt;Node11</title>
<path fill="none" stroke="midnightblue" d="M464.169,-54C474.477,-54 485.182,-54 495.565,-54"/>
<polygon fill="midnightblue" stroke="midnightblue" points="495.814,-57.5001 505.814,-54 495.814,-50.5001 495.814,-57.5001"/>
</g>
<!-- Node12 -->
<g id="node12" class="node"><title>Node12</title>
<g id="a_node12"><a doxygen="/home/ubuntu/ardupilot/docs/tags/libraries:../libraries/" xlink:href="../libraries/classAP__AHRS.html#aea45b16e6469a3b392b8bf52fb864732" target="_top" xlink:title="AP_AHRS::get_home">
<polygon fill="white" stroke="black" points="506.5,-0.5 506.5,-19.5 619.5,-19.5 619.5,-0.5 506.5,-0.5"/>
<text text-anchor="middle" x="563" y="-7.5" font-family="Helvetica,sans-Serif" font-size="10.00">AP_AHRS::get_home</text>
</a>
</g>
</g>
<!-- Node9&#45;&gt;Node12 -->
<g id="edge11" class="edge"><title>Node9&#45;&gt;Node12</title>
<path fill="none" stroke="midnightblue" d="M455.957,-38.9808C475.879,-33.5362 498.129,-27.4554 517.084,-22.2751"/>
<polygon fill="midnightblue" stroke="midnightblue" points="518.229,-25.5908 526.952,-19.5783 516.383,-18.8384 518.229,-25.5908"/>
</g>
</g>
</svg>
        <g id="navigator" transform="translate(0 0)" fill="#404254">
                <rect fill="#f2f5e9" fill-opacity="0.5" stroke="#606060" stroke-width=".5" x="0" y="0" width="60" height="60"/>
                <use id="zoomplus" xlink:href="#zoomPlus" x="17" y="9" onmousedown="handleZoom(evt,'in')"/>
                <use id="zoomminus" xlink:href="#zoomMin" x="42" y="9" onmousedown="handleZoom(evt,'out')"/>
                <use id="reset" xlink:href="#resetDef" x="30" y="36" onmousedown="handleReset()"/>
                <g id="arrowUp" xlink:href="#dirArrow" transform="translate(30 24)" onmousedown="handlePan(0,-1)">
                  <use xlink:href="#rim" fill="#404040">
                        <set attributeName="fill" to="#808080" begin="arrowUp.mouseover" end="arrowUp.mouseout"/>
                  </use>
                  <path fill="none" stroke="white" stroke-width="1.5" d="M0,-3.0v7 M-2.5,-0.5L0,-3.0L2.5,-0.5"/>
                </g>
                <g id="arrowRight" xlink:href="#dirArrow" transform="rotate(90) translate(36 -43)" onmousedown="handlePan(1,0)">
                  <use xlink:href="#rim" fill="#404040">
                        <set attributeName="fill" to="#808080" begin="arrowRight.mouseover" end="arrowRight.mouseout"/>
                  </use>
                  <path fill="none" stroke="white" stroke-width="1.5" d="M0,-3.0v7 M-2.5,-0.5L0,-3.0L2.5,-0.5"/>
                </g>
                <g id="arrowDown" xlink:href="#dirArrow" transform="rotate(180) translate(-30 -48)" onmousedown="handlePan(0,1)">
                  <use xlink:href="#rim" fill="#404040">
                        <set attributeName="fill" to="#808080" begin="arrowDown.mouseover" end="arrowDown.mouseout"/>
                  </use>
                  <path fill="none" stroke="white" stroke-width="1.5" d="M0,-3.0v7 M-2.5,-0.5L0,-3.0L2.5,-0.5"/>
                </g>
                <g id="arrowLeft" xlink:href="#dirArrow" transform="rotate(270) translate(-36 17)" onmousedown="handlePan(-1,0)">
                  <use xlink:href="#rim" fill="#404040">
                        <set attributeName="fill" to="#808080" begin="arrowLeft.mouseover" end="arrowLeft.mouseout"/>
                  </use>
                  <path fill="none" stroke="white" stroke-width="1.5" d="M0,-3.0v7 M-2.5,-0.5L0,-3.0L2.5,-0.5"/>
                </g>
        </g>
        <svg viewBox="0 0 15 15" width="100%" height="30px" preserveAspectRatio="xMaxYMin meet">
         <g id="arrow_out" transform="scale(0.3 0.3)">
          <a xlink:href="classCopter_a3a33c5c43740be29248b057f699f82a5_cgraph_org.svg" target="_base">
           <rect id="button" ry="5" rx="5" y="6" x="6" height="38" width="38"
                fill="#f2f5e9" fill-opacity="0.5" stroke="#606060" stroke-width="1.0"/>
           <path id="arrow"
             d="M 11.500037,31.436501 C 11.940474,20.09759 22.043105,11.32322 32.158766,21.979434 L 37.068811,17.246167 C 37.068811,17.246167 37.088388,32 37.088388,32 L 22.160133,31.978069 C 22.160133,31.978069 26.997745,27.140456 26.997745,27.140456 C 18.528582,18.264221 13.291696,25.230495 11.500037,31.436501 z"
             style="fill:#404040;"/>
          </a>
         </g>
        </svg>
</svg>
