<?xml version="1.0" encoding="UTF-8" standalone="no"?>
<!DOCTYPE svg PUBLIC "-//W3C//DTD SVG 1.1//EN"
 "http://www.w3.org/Graphics/SVG/1.1/DTD/svg11.dtd">
<!-- Generated by graphviz version 2.38.0 (20140413.2041)
 -->
<!-- Title: Copter::rangefinder_alt_ok Pages: 1 -->
<svg width="1484pt" height="548pt"
 viewBox="0.00 0.00 1484.00 548.00" xmlns="http://www.w3.org/2000/svg" xmlns:xlink="http://www.w3.org/1999/xlink">
<g id="graph0" class="graph" transform="scale(1 1) rotate(0) translate(4 544)">
<title>Copter::rangefinder_alt_ok</title>
<polygon fill="white" stroke="none" points="-4,4 -4,-544 1480,-544 1480,4 -4,4"/>
<!-- Node1 -->
<g id="node1" class="node"><title>Node1</title>
<polygon fill="#bfbfbf" stroke="black" points="0,-178 0,-208 100,-208 100,-178 0,-178"/>
<text text-anchor="start" x="8" y="-196" font-family="Helvetica,sans-Serif" font-size="10.00">Copter::rangefinder</text>
<text text-anchor="middle" x="50" y="-185" font-family="Helvetica,sans-Serif" font-size="10.00">_alt_ok</text>
</g>
<!-- Node2 -->
<g id="node2" class="node"><title>Node2</title>
<g id="a_node2"><a xlink:href="classCopter.html#ac38d223360fcc0870ec99cb2045e727a" target="_top" xlink:title="Copter::althold_run">
<polygon fill="white" stroke="black" points="752,-517.5 752,-536.5 851,-536.5 851,-517.5 752,-517.5"/>
<text text-anchor="middle" x="801.5" y="-524.5" font-family="Helvetica,sans-Serif" font-size="10.00">Copter::althold_run</text>
</a>
</g>
</g>
<!-- Node1&#45;&gt;Node2 -->
<g id="edge1" class="edge"><title>Node1&#45;&gt;Node2</title>
<path fill="none" stroke="midnightblue" d="M54.2378,-218.135C61.3764,-264.62 82.321,-365.099 136,-429 203.146,-508.933 238.608,-540 343,-540 343,-540 343,-540 509,-540 594.485,-540 693.932,-534.351 751.789,-530.501"/>
<polygon fill="midnightblue" stroke="midnightblue" points="57.6735,-217.438 52.7774,-208.042 50.7457,-218.441 57.6735,-217.438"/>
</g>
<!-- Node6 -->
<g id="node6" class="node"><title>Node6</title>
<g id="a_node6"><a xlink:href="classCopter.html#a463474e8d6d99855217b8ec3dba27d63" target="_top" xlink:title="Copter::gcs_set_mode">
<polygon fill="white" stroke="black" points="1202,-79.5 1202,-98.5 1318,-98.5 1318,-79.5 1202,-79.5"/>
<text text-anchor="middle" x="1260" y="-86.5" font-family="Helvetica,sans-Serif" font-size="10.00">Copter::gcs_set_mode</text>
</a>
</g>
</g>
<!-- Node1&#45;&gt;Node6 -->
<g id="edge9" class="edge"><title>Node1&#45;&gt;Node6</title>
<path fill="none" stroke="midnightblue" d="M63.9056,-168.633C78.1774,-144.204 103.512,-107.5 136,-88 216.341,-39.7779 249.298,-48 343,-48 343,-48 343,-48 942,-48 1039.67,-48 1152.87,-67.3789 1214.09,-79.4907"/>
<polygon fill="midnightblue" stroke="midnightblue" points="60.6869,-167.215 58.8162,-177.644 66.7818,-170.658 60.6869,-167.215"/>
</g>
<!-- Node8 -->
<g id="node8" class="node"><title>Node8</title>
<g id="a_node8"><a xlink:href="classCopter.html#a29281e1d4e934fea8de44ff4606729d6" target="_top" xlink:title="Copter::circle_run">
<polygon fill="white" stroke="black" points="754.5,-467.5 754.5,-486.5 848.5,-486.5 848.5,-467.5 754.5,-467.5"/>
<text text-anchor="middle" x="801.5" y="-474.5" font-family="Helvetica,sans-Serif" font-size="10.00">Copter::circle_run</text>
</a>
</g>
</g>
<!-- Node1&#45;&gt;Node8 -->
<g id="edge7" class="edge"><title>Node1&#45;&gt;Node8</title>
<path fill="none" stroke="midnightblue" d="M60.2305,-217.713C89.3752,-290.99 186.857,-502 343,-502 343,-502 343,-502 509,-502 595.984,-502 697.035,-490.813 754.41,-483.406"/>
<polygon fill="midnightblue" stroke="midnightblue" points="63.464,-216.371 56.5727,-208.323 56.9415,-218.912 63.464,-216.371"/>
</g>
<!-- Node9 -->
<g id="node9" class="node"><title>Node9</title>
<g id="a_node9"><a xlink:href="classCopter.html#a739dde097a94b4ae0f9ffe5c3fdcb06f" target="_top" xlink:title="Copter::land_get_alt\l_above_ground">
<polygon fill="white" stroke="black" points="136,-290 136,-320 240,-320 240,-290 136,-290"/>
<text text-anchor="start" x="144" y="-308" font-family="Helvetica,sans-Serif" font-size="10.00">Copter::land_get_alt</text>
<text text-anchor="middle" x="188" y="-297" font-family="Helvetica,sans-Serif" font-size="10.00">_above_ground</text>
</a>
</g>
</g>
<!-- Node1&#45;&gt;Node9 -->
<g id="edge10" class="edge"><title>Node1&#45;&gt;Node9</title>
<path fill="none" stroke="midnightblue" d="M74.8878,-215.174C91.6383,-230.448 114.747,-250.978 136,-268 145.392,-275.522 156.129,-283.411 165.321,-289.963"/>
<polygon fill="midnightblue" stroke="midnightblue" points="76.9479,-212.314 67.2115,-208.136 72.2174,-217.474 76.9479,-212.314"/>
</g>
<!-- Node21 -->
<g id="node21" class="node"><title>Node21</title>
<g id="a_node21"><a xlink:href="classCopter.html#ab4629c368b254d1aa2a56312ba25ba69" target="_top" xlink:title="Copter::land_run_vertical\l_control">
<polygon fill="white" stroke="black" points="281.5,-290 281.5,-320 406.5,-320 406.5,-290 281.5,-290"/>
<text text-anchor="start" x="289.5" y="-308" font-family="Helvetica,sans-Serif" font-size="10.00">Copter::land_run_vertical</text>
<text text-anchor="middle" x="344" y="-297" font-family="Helvetica,sans-Serif" font-size="10.00">_control</text>
</a>
</g>
</g>
<!-- Node1&#45;&gt;Node21 -->
<g id="edge35" class="edge"><title>Node1&#45;&gt;Node21</title>
<path fill="none" stroke="midnightblue" d="M99.3107,-211.811C111.294,-216.462 124.11,-221.423 136,-226 194.155,-248.386 261.601,-274.075 303.291,-289.923"/>
<polygon fill="midnightblue" stroke="midnightblue" points="100.501,-208.519 89.912,-208.161 97.9665,-215.044 100.501,-208.519"/>
</g>
<!-- Node23 -->
<g id="node23" class="node"><title>Node23</title>
<g id="a_node23"><a xlink:href="classCopter.html#a31ae6eb66b629da71efc24ce52951add" target="_top" xlink:title="Copter::loiter_run">
<polygon fill="white" stroke="black" points="895,-202.5 895,-221.5 987,-221.5 987,-202.5 895,-202.5"/>
<text text-anchor="middle" x="941" y="-209.5" font-family="Helvetica,sans-Serif" font-size="10.00">Copter::loiter_run</text>
</a>
</g>
</g>
<!-- Node1&#45;&gt;Node23 -->
<g id="edge36" class="edge"><title>Node1&#45;&gt;Node23</title>
<path fill="none" stroke="midnightblue" d="M110.256,-199.121C169.198,-204.675 262.248,-212 343,-212 343,-212 343,-212 660,-212 742.882,-212 839.564,-212 894.9,-212"/>
<polygon fill="midnightblue" stroke="midnightblue" points="110.306,-195.61 100.018,-198.142 109.64,-202.578 110.306,-195.61"/>
</g>
<!-- Node24 -->
<g id="node24" class="node"><title>Node24</title>
<g id="a_node24"><a xlink:href="classCopter.html#a1d74ca65de6e88376d929bb23d842935" target="_top" xlink:title="Copter::poshold_run">
<polygon fill="white" stroke="black" points="136,-164.5 136,-183.5 240,-183.5 240,-164.5 136,-164.5"/>
<text text-anchor="middle" x="188" y="-171.5" font-family="Helvetica,sans-Serif" font-size="10.00">Copter::poshold_run</text>
</a>
</g>
</g>
<!-- Node1&#45;&gt;Node24 -->
<g id="edge38" class="edge"><title>Node1&#45;&gt;Node24</title>
<path fill="none" stroke="midnightblue" d="M110.012,-184.756C118.56,-183.561 127.301,-182.34 135.681,-181.17"/>
<polygon fill="midnightblue" stroke="midnightblue" points="109.519,-181.291 100.099,-186.141 110.487,-188.223 109.519,-181.291"/>
</g>
<!-- Node25 -->
<g id="node25" class="node"><title>Node25</title>
<g id="a_node25"><a xlink:href="classCopter.html#a86c75f6eca60029546735df983c5cfcf" target="_top" xlink:title="Copter::sport_run">
<polygon fill="white" stroke="black" points="142,-126.5 142,-145.5 234,-145.5 234,-126.5 142,-126.5"/>
<text text-anchor="middle" x="188" y="-133.5" font-family="Helvetica,sans-Serif" font-size="10.00">Copter::sport_run</text>
</a>
</g>
</g>
<!-- Node1&#45;&gt;Node25 -->
<g id="edge40" class="edge"><title>Node1&#45;&gt;Node25</title>
<path fill="none" stroke="midnightblue" d="M92.681,-173.73C106.399,-167.559 121.779,-160.821 136,-155 143.87,-151.779 152.51,-148.474 160.406,-145.543"/>
<polygon fill="midnightblue" stroke="midnightblue" points="91.151,-170.58 83.4846,-177.893 94.038,-176.957 91.151,-170.58"/>
</g>
<!-- Node26 -->
<g id="node26" class="node"><title>Node26</title>
<g id="a_node26"><a xlink:href="classCopter.html#aa6cba5492e9f0b4c4b9af45dcc5dcce8" target="_top" xlink:title="Copter::update_land\l_detector">
<polygon fill="white" stroke="black" points="889,-77 889,-107 993,-107 993,-77 889,-77"/>
<text text-anchor="start" x="897" y="-95" font-family="Helvetica,sans-Serif" font-size="10.00">Copter::update_land</text>
<text text-anchor="middle" x="941" y="-84" font-family="Helvetica,sans-Serif" font-size="10.00">_detector</text>
</a>
</g>
</g>
<!-- Node1&#45;&gt;Node26 -->
<g id="edge42" class="edge"><title>Node1&#45;&gt;Node26</title>
<path fill="none" stroke="midnightblue" d="M69.2305,-170.284C84.9018,-152.522 109.169,-128.908 136,-117 220.563,-79.4675 250.482,-95 343,-95 343,-95 343,-95 660,-95 739.97,-95 832.78,-93.7613 888.908,-92.8758"/>
<polygon fill="midnightblue" stroke="midnightblue" points="66.4967,-168.095 62.6568,-177.97 71.8164,-172.645 66.4967,-168.095"/>
</g>
<!-- Node28 -->
<g id="node28" class="node"><title>Node28</title>
<g id="a_node28"><a xlink:href="classCopter.html#af7ed0072a37022373819c5ba007b291c" target="_top" xlink:title="Copter::update_precland">
<polygon fill="white" stroke="black" points="282.5,-0.5 282.5,-19.5 405.5,-19.5 405.5,-0.5 282.5,-0.5"/>
<text text-anchor="middle" x="344" y="-7.5" font-family="Helvetica,sans-Serif" font-size="10.00">Copter::update_precland</text>
</a>
</g>
</g>
<!-- Node1&#45;&gt;Node28 -->
<g id="edge47" class="edge"><title>Node1&#45;&gt;Node28</title>
<path fill="none" stroke="midnightblue" d="M56.6777,-167.79C66.2688,-131.585 89.3696,-65.7405 136,-34 178.618,-4.99078 237.929,-0.840608 282.144,-2.86285"/>
<polygon fill="midnightblue" stroke="midnightblue" points="53.2593,-167.033 54.2227,-177.584 60.0492,-168.735 53.2593,-167.033"/>
</g>
<!-- Node3 -->
<g id="node3" class="node"><title>Node3</title>
<g id="a_node3"><a xlink:href="classCopter.html#a1e967ef71b5acdd8b0c83a0471bdb581" target="_top" xlink:title="Copter::update_flight_mode">
<polygon fill="white" stroke="black" points="1029,-221.5 1029,-240.5 1166,-240.5 1166,-221.5 1029,-221.5"/>
<text text-anchor="middle" x="1097.5" y="-228.5" font-family="Helvetica,sans-Serif" font-size="10.00">Copter::update_flight_mode</text>
</a>
</g>
</g>
<!-- Node2&#45;&gt;Node3 -->
<g id="edge2" class="edge"><title>Node2&#45;&gt;Node3</title>
<path fill="none" stroke="midnightblue" d="M836.503,-513.586C877.65,-495.993 947.108,-461.778 993,-415 1047.42,-359.535 1082.68,-269.748 1093.2,-240.523"/>
<polygon fill="midnightblue" stroke="midnightblue" points="835.048,-510.4 827.179,-517.495 837.755,-516.856 835.048,-510.4"/>
</g>
<!-- Node4 -->
<g id="node4" class="node"><title>Node4</title>
<g id="a_node4"><a xlink:href="classCopter.html#a9935998c549ed56b80917705ee4522fb" target="_top" xlink:title="Copter::fast_loop">
<polygon fill="white" stroke="black" points="1214,-162.5 1214,-181.5 1306,-181.5 1306,-162.5 1214,-162.5"/>
<text text-anchor="middle" x="1260" y="-169.5" font-family="Helvetica,sans-Serif" font-size="10.00">Copter::fast_loop</text>
</a>
</g>
</g>
<!-- Node3&#45;&gt;Node4 -->
<g id="edge3" class="edge"><title>Node3&#45;&gt;Node4</title>
<path fill="none" stroke="midnightblue" d="M1134.31,-217.837C1164.28,-206.818 1206.34,-191.357 1233.13,-181.509"/>
<polygon fill="midnightblue" stroke="midnightblue" points="1132.82,-214.654 1124.64,-221.389 1135.24,-221.224 1132.82,-214.654"/>
</g>
<!-- Node3&#45;&gt;Node6 -->
<g id="edge5" class="edge"><title>Node3&#45;&gt;Node6</title>
<path fill="none" stroke="midnightblue" d="M1116.98,-214.648C1150.56,-184.941 1220.62,-122.959 1247.84,-98.8715"/>
<polygon fill="midnightblue" stroke="midnightblue" points="1114.45,-212.215 1109.28,-221.462 1119.09,-217.458 1114.45,-212.215"/>
</g>
<!-- Node5 -->
<g id="node5" class="node"><title>Node5</title>
<g id="a_node5"><a xlink:href="classCopter.html#ac879265c540a24609ead56c389ba4b02" target="_top" xlink:title="Copter::loop">
<polygon fill="white" stroke="black" points="1380,-162.5 1380,-181.5 1450,-181.5 1450,-162.5 1380,-162.5"/>
<text text-anchor="middle" x="1415" y="-169.5" font-family="Helvetica,sans-Serif" font-size="10.00">Copter::loop</text>
</a>
</g>
</g>
<!-- Node4&#45;&gt;Node5 -->
<g id="edge4" class="edge"><title>Node4&#45;&gt;Node5</title>
<path fill="none" stroke="midnightblue" d="M1316.3,-172C1337.57,-172 1361.22,-172 1379.93,-172"/>
<polygon fill="midnightblue" stroke="midnightblue" points="1316.08,-168.5 1306.08,-172 1316.08,-175.5 1316.08,-168.5"/>
</g>
<!-- Node7 -->
<g id="node7" class="node"><title>Node7</title>
<g id="a_node7"><a xlink:href="classGCS__MAVLINK__Copter.html#afe85f88545dfa66f9100ed341cf5f79b" target="_top" xlink:title="GCS_MAVLINK_Copter\l::handleMessage">
<polygon fill="white" stroke="black" points="1354,-74 1354,-104 1476,-104 1476,-74 1354,-74"/>
<text text-anchor="start" x="1362" y="-92" font-family="Helvetica,sans-Serif" font-size="10.00">GCS_MAVLINK_Copter</text>
<text text-anchor="middle" x="1415" y="-81" font-family="Helvetica,sans-Serif" font-size="10.00">::handleMessage</text>
</a>
</g>
</g>
<!-- Node6&#45;&gt;Node7 -->
<g id="edge6" class="edge"><title>Node6&#45;&gt;Node7</title>
<path fill="none" stroke="midnightblue" d="M1328.61,-89C1337.06,-89 1345.65,-89 1353.97,-89"/>
<polygon fill="midnightblue" stroke="midnightblue" points="1328.41,-85.5001 1318.41,-89 1328.41,-92.5001 1328.41,-85.5001"/>
</g>
<!-- Node8&#45;&gt;Node3 -->
<g id="edge8" class="edge"><title>Node8&#45;&gt;Node3</title>
<path fill="none" stroke="midnightblue" d="M834.089,-463.288C873.977,-444.975 943.379,-409.71 993,-366 1038.21,-326.177 1077.09,-264.095 1091.02,-240.518"/>
<polygon fill="midnightblue" stroke="midnightblue" points="832.52,-460.156 824.851,-467.467 835.405,-466.534 832.52,-460.156"/>
</g>
<!-- Node10 -->
<g id="node10" class="node"><title>Node10</title>
<g id="a_node10"><a xlink:href="classCopter.html#aa04fe03f6e6107472378985f61f063a2" target="_top" xlink:title="Copter::land_run_horizontal\l_control">
<polygon fill="white" stroke="black" points="276,-342 276,-372 412,-372 412,-342 276,-342"/>
<text text-anchor="start" x="284" y="-360" font-family="Helvetica,sans-Serif" font-size="10.00">Copter::land_run_horizontal</text>
<text text-anchor="middle" x="344" y="-349" font-family="Helvetica,sans-Serif" font-size="10.00">_control</text>
</a>
</g>
</g>
<!-- Node9&#45;&gt;Node10 -->
<g id="edge11" class="edge"><title>Node9&#45;&gt;Node10</title>
<path fill="none" stroke="midnightblue" d="M243.114,-323.272C261.25,-329.396 281.248,-336.149 298.557,-341.993"/>
<polygon fill="midnightblue" stroke="midnightblue" points="244.137,-319.924 233.543,-320.041 241.898,-326.556 244.137,-319.924"/>
</g>
<!-- Node9&#45;&gt;Node21 -->
<g id="edge28" class="edge"><title>Node9&#45;&gt;Node21</title>
<path fill="none" stroke="midnightblue" d="M250.307,-305C260.489,-305 271.053,-305 281.246,-305"/>
<polygon fill="midnightblue" stroke="midnightblue" points="250.28,-301.5 240.28,-305 250.28,-308.5 250.28,-301.5"/>
</g>
<!-- Node11 -->
<g id="node11" class="node"><title>Node11</title>
<g id="a_node11"><a xlink:href="classCopter.html#a80a59eb03ba585a4a6e6380555e58cfa" target="_top" xlink:title="Copter::auto_land_run">
<polygon fill="white" stroke="black" points="451.5,-404.5 451.5,-423.5 564.5,-423.5 564.5,-404.5 451.5,-404.5"/>
<text text-anchor="middle" x="508" y="-411.5" font-family="Helvetica,sans-Serif" font-size="10.00">Copter::auto_land_run</text>
</a>
</g>
</g>
<!-- Node10&#45;&gt;Node11 -->
<g id="edge12" class="edge"><title>Node10&#45;&gt;Node11</title>
<path fill="none" stroke="midnightblue" d="M396.036,-375.539C412.591,-381.497 431.055,-388.085 448,-394 457.905,-397.458 468.774,-401.166 478.455,-404.44"/>
<polygon fill="midnightblue" stroke="midnightblue" points="397.13,-372.213 386.536,-372.113 394.756,-378.798 397.13,-372.213"/>
</g>
<!-- Node13 -->
<g id="node13" class="node"><title>Node13</title>
<g id="a_node13"><a xlink:href="classCopter.html#a5514bdb19d8d5c74bec8f16009197cc5" target="_top" xlink:title="Copter::auto_payload\l_place_run_descend">
<polygon fill="white" stroke="black" points="453,-355 453,-385 563,-385 563,-355 453,-355"/>
<text text-anchor="start" x="461" y="-373" font-family="Helvetica,sans-Serif" font-size="10.00">Copter::auto_payload</text>
<text text-anchor="middle" x="508" y="-362" font-family="Helvetica,sans-Serif" font-size="10.00">_place_run_descend</text>
</a>
</g>
</g>
<!-- Node10&#45;&gt;Node13 -->
<g id="edge15" class="edge"><title>Node10&#45;&gt;Node13</title>
<path fill="none" stroke="midnightblue" d="M422.541,-363.222C432.835,-364.049 443.205,-364.881 452.982,-365.665"/>
<polygon fill="midnightblue" stroke="midnightblue" points="422.543,-359.711 412.295,-362.4 421.983,-366.689 422.543,-359.711"/>
</g>
<!-- Node15 -->
<g id="node15" class="node"><title>Node15</title>
<g id="a_node15"><a xlink:href="classCopter.html#ab88e2a949d54adc5828e97817f0abc23" target="_top" xlink:title="Copter::auto_payload\l_place_run_loiter">
<polygon fill="white" stroke="black" points="453,-443 453,-473 563,-473 563,-443 453,-443"/>
<text text-anchor="start" x="461" y="-461" font-family="Helvetica,sans-Serif" font-size="10.00">Copter::auto_payload</text>
<text text-anchor="middle" x="508" y="-450" font-family="Helvetica,sans-Serif" font-size="10.00">_place_run_loiter</text>
</a>
</g>
</g>
<!-- Node10&#45;&gt;Node15 -->
<g id="edge18" class="edge"><title>Node10&#45;&gt;Node15</title>
<path fill="none" stroke="midnightblue" d="M370.505,-378.465C390.674,-394.77 420.004,-417.036 448,-433 454.282,-436.582 461.177,-439.957 467.969,-442.998"/>
<polygon fill="midnightblue" stroke="midnightblue" points="372.674,-375.718 362.717,-372.097 368.243,-381.137 372.674,-375.718"/>
</g>
<!-- Node16 -->
<g id="node16" class="node"><title>Node16</title>
<g id="a_node16"><a xlink:href="classCopter.html#a5456818211cacda7d964dbae51502edb" target="_top" xlink:title="Copter::land_gps_run">
<polygon fill="white" stroke="black" points="453,-278.5 453,-297.5 563,-297.5 563,-278.5 453,-278.5"/>
<text text-anchor="middle" x="508" y="-285.5" font-family="Helvetica,sans-Serif" font-size="10.00">Copter::land_gps_run</text>
</a>
</g>
</g>
<!-- Node10&#45;&gt;Node16 -->
<g id="edge20" class="edge"><title>Node10&#45;&gt;Node16</title>
<path fill="none" stroke="midnightblue" d="M393.08,-337.956C399.511,-335.104 405.965,-332.082 412,-329 428.699,-320.471 430.956,-314.818 448,-307 455.825,-303.411 464.521,-300.209 472.78,-297.504"/>
<polygon fill="midnightblue" stroke="midnightblue" points="391.516,-334.819 383.725,-341.999 394.292,-341.245 391.516,-334.819"/>
</g>
<!-- Node18 -->
<g id="node18" class="node"><title>Node18</title>
<g id="a_node18"><a xlink:href="classCopter.html#a1804d08e0ffa273db35f09792059c55a" target="_top" xlink:title="Copter::rtl_land_run">
<polygon fill="white" stroke="black" points="457,-316.5 457,-335.5 559,-335.5 559,-316.5 457,-316.5"/>
<text text-anchor="middle" x="508" y="-323.5" font-family="Helvetica,sans-Serif" font-size="10.00">Copter::rtl_land_run</text>
</a>
</g>
</g>
<!-- Node10&#45;&gt;Node18 -->
<g id="edge23" class="edge"><title>Node10&#45;&gt;Node18</title>
<path fill="none" stroke="midnightblue" d="M422.178,-342.231C433.999,-339.969 445.93,-337.686 456.959,-335.576"/>
<polygon fill="midnightblue" stroke="midnightblue" points="421.459,-338.805 412.295,-344.123 422.775,-345.681 421.459,-338.805"/>
</g>
<!-- Node12 -->
<g id="node12" class="node"><title>Node12</title>
<g id="a_node12"><a xlink:href="classCopter.html#a0f9fe5cd7d49e5fbce6da32216c2419b" target="_top" xlink:title="Copter::auto_run">
<polygon fill="white" stroke="black" points="896.5,-337.5 896.5,-356.5 985.5,-356.5 985.5,-337.5 896.5,-337.5"/>
<text text-anchor="middle" x="941" y="-344.5" font-family="Helvetica,sans-Serif" font-size="10.00">Copter::auto_run</text>
</a>
</g>
</g>
<!-- Node11&#45;&gt;Node12 -->
<g id="edge13" class="edge"><title>Node11&#45;&gt;Node12</title>
<path fill="none" stroke="midnightblue" d="M575.115,-410.239C644.893,-405.315 757.741,-394.627 853,-373 869.315,-369.296 872.975,-366.805 889,-362 894.923,-360.224 901.239,-358.35 907.337,-356.552"/>
<polygon fill="midnightblue" stroke="midnightblue" points="574.455,-406.776 564.718,-410.952 574.934,-413.759 574.455,-406.776"/>
</g>
<!-- Node12&#45;&gt;Node3 -->
<g id="edge14" class="edge"><title>Node12&#45;&gt;Node3</title>
<path fill="none" stroke="midnightblue" d="M963.29,-331.015C995.899,-306.532 1057.22,-260.495 1083.74,-240.581"/>
<polygon fill="midnightblue" stroke="midnightblue" points="960.802,-328.506 954.907,-337.309 965.005,-334.104 960.802,-328.506"/>
</g>
<!-- Node14 -->
<g id="node14" class="node"><title>Node14</title>
<g id="a_node14"><a xlink:href="classCopter.html#a3e4cd867cae6f295c3d1d968faaca94e" target="_top" xlink:title="Copter::auto_payload\l_place_run">
<polygon fill="white" stroke="black" points="604,-355 604,-385 714,-385 714,-355 604,-355"/>
<text text-anchor="start" x="612" y="-373" font-family="Helvetica,sans-Serif" font-size="10.00">Copter::auto_payload</text>
<text text-anchor="middle" x="659" y="-362" font-family="Helvetica,sans-Serif" font-size="10.00">_place_run</text>
</a>
</g>
</g>
<!-- Node13&#45;&gt;Node14 -->
<g id="edge16" class="edge"><title>Node13&#45;&gt;Node14</title>
<path fill="none" stroke="midnightblue" d="M573.281,-370C583.463,-370 593.905,-370 603.826,-370"/>
<polygon fill="midnightblue" stroke="midnightblue" points="573.214,-366.5 563.214,-370 573.214,-373.5 573.214,-366.5"/>
</g>
<!-- Node14&#45;&gt;Node12 -->
<g id="edge17" class="edge"><title>Node14&#45;&gt;Node12</title>
<path fill="none" stroke="midnightblue" d="M724.578,-364.695C777.298,-360.365 850.36,-354.363 896.395,-350.582"/>
<polygon fill="midnightblue" stroke="midnightblue" points="723.999,-361.231 714.319,-365.538 724.572,-368.208 723.999,-361.231"/>
</g>
<!-- Node15&#45;&gt;Node14 -->
<g id="edge19" class="edge"><title>Node15&#45;&gt;Node14</title>
<path fill="none" stroke="midnightblue" d="M557.207,-438.574C560.904,-436.782 564.541,-434.916 568,-433 593.695,-418.77 621.045,-398.862 638.76,-385.257"/>
<polygon fill="midnightblue" stroke="midnightblue" points="555.554,-435.483 547.957,-442.867 558.501,-441.832 555.554,-435.483"/>
</g>
<!-- Node17 -->
<g id="node17" class="node"><title>Node17</title>
<g id="a_node17"><a xlink:href="classCopter.html#a51c901bd72d5f073aa502be5177ab2fd" target="_top" xlink:title="Copter::land_run">
<polygon fill="white" stroke="black" points="614.5,-240.5 614.5,-259.5 703.5,-259.5 703.5,-240.5 614.5,-240.5"/>
<text text-anchor="middle" x="659" y="-247.5" font-family="Helvetica,sans-Serif" font-size="10.00">Copter::land_run</text>
</a>
</g>
</g>
<!-- Node16&#45;&gt;Node17 -->
<g id="edge21" class="edge"><title>Node16&#45;&gt;Node17</title>
<path fill="none" stroke="midnightblue" d="M556.492,-275.888C577.244,-270.596 601.228,-264.479 620.671,-259.52"/>
<polygon fill="midnightblue" stroke="midnightblue" points="555.424,-272.548 546.599,-278.411 557.154,-279.331 555.424,-272.548"/>
</g>
<!-- Node17&#45;&gt;Node3 -->
<g id="edge22" class="edge"><title>Node17&#45;&gt;Node3</title>
<path fill="none" stroke="midnightblue" d="M714.144,-247.643C793.735,-244.179 942.232,-237.715 1028.88,-233.943"/>
<polygon fill="midnightblue" stroke="midnightblue" points="713.69,-244.16 703.852,-248.091 713.995,-251.153 713.69,-244.16"/>
</g>
<!-- Node19 -->
<g id="node19" class="node"><title>Node19</title>
<g id="a_node19"><a xlink:href="classCopter.html#af128f1c77f0c21ae3320df8e98130e05" target="_top" xlink:title="Copter::rtl_run">
<polygon fill="white" stroke="black" points="619.5,-316.5 619.5,-335.5 698.5,-335.5 698.5,-316.5 619.5,-316.5"/>
<text text-anchor="middle" x="659" y="-323.5" font-family="Helvetica,sans-Serif" font-size="10.00">Copter::rtl_run</text>
</a>
</g>
</g>
<!-- Node18&#45;&gt;Node19 -->
<g id="edge24" class="edge"><title>Node18&#45;&gt;Node19</title>
<path fill="none" stroke="midnightblue" d="M569.336,-326C586.149,-326 603.961,-326 619.174,-326"/>
<polygon fill="midnightblue" stroke="midnightblue" points="569.029,-322.5 559.029,-326 569.029,-329.5 569.029,-322.5"/>
</g>
<!-- Node19&#45;&gt;Node3 -->
<g id="edge27" class="edge"><title>Node19&#45;&gt;Node3</title>
<path fill="none" stroke="midnightblue" d="M708.722,-315.396C794.389,-296.752 970.675,-258.385 1052.71,-240.53"/>
<polygon fill="midnightblue" stroke="midnightblue" points="707.763,-312.023 698.736,-317.569 709.252,-318.863 707.763,-312.023"/>
</g>
<!-- Node20 -->
<g id="node20" class="node"><title>Node20</title>
<g id="a_node20"><a xlink:href="classCopter.html#a36c1f3abd71427b93ecbbf073ca6d753" target="_top" xlink:title="Copter::auto_rtl_run">
<polygon fill="white" stroke="black" points="750,-317.5 750,-336.5 853,-336.5 853,-317.5 750,-317.5"/>
<text text-anchor="middle" x="801.5" y="-324.5" font-family="Helvetica,sans-Serif" font-size="10.00">Copter::auto_rtl_run</text>
</a>
</g>
</g>
<!-- Node19&#45;&gt;Node20 -->
<g id="edge25" class="edge"><title>Node19&#45;&gt;Node20</title>
<path fill="none" stroke="midnightblue" d="M709.051,-326.349C722.222,-326.443 736.489,-326.544 749.75,-326.639"/>
<polygon fill="midnightblue" stroke="midnightblue" points="708.789,-322.847 698.764,-326.276 708.739,-329.847 708.789,-322.847"/>
</g>
<!-- Node20&#45;&gt;Node12 -->
<g id="edge26" class="edge"><title>Node20&#45;&gt;Node12</title>
<path fill="none" stroke="midnightblue" d="M863.351,-335.851C874.406,-337.459 885.738,-339.107 896.181,-340.626"/>
<polygon fill="midnightblue" stroke="midnightblue" points="863.709,-332.366 853.309,-334.39 862.701,-339.293 863.709,-332.366"/>
</g>
<!-- Node21&#45;&gt;Node11 -->
<g id="edge29" class="edge"><title>Node21&#45;&gt;Node11</title>
<path fill="none" stroke="midnightblue" d="M402.715,-325.157C406.001,-327.237 409.13,-329.513 412,-332 436.083,-352.864 423.34,-373.821 448,-394 453.273,-398.315 459.524,-401.717 465.953,-404.395"/>
<polygon fill="midnightblue" stroke="midnightblue" points="404.152,-321.949 393.72,-320.095 400.719,-328.05 404.152,-321.949"/>
</g>
<!-- Node21&#45;&gt;Node13 -->
<g id="edge30" class="edge"><title>Node21&#45;&gt;Node13</title>
<path fill="none" stroke="midnightblue" d="M392.065,-323.884C416.645,-333.746 446.314,-345.65 469.35,-354.894"/>
<polygon fill="midnightblue" stroke="midnightblue" points="393.157,-320.551 382.573,-320.076 390.551,-327.048 393.157,-320.551"/>
</g>
<!-- Node21&#45;&gt;Node16 -->
<g id="edge31" class="edge"><title>Node21&#45;&gt;Node16</title>
<path fill="none" stroke="midnightblue" d="M416.797,-297.466C428.915,-296.194 441.311,-294.893 452.882,-293.679"/>
<polygon fill="midnightblue" stroke="midnightblue" points="416.287,-294 406.707,-298.525 417.018,-300.962 416.287,-294"/>
</g>
<!-- Node21&#45;&gt;Node18 -->
<g id="edge34" class="edge"><title>Node21&#45;&gt;Node18</title>
<path fill="none" stroke="midnightblue" d="M416.904,-314.321C430.357,-316.065 444.148,-317.853 456.769,-319.489"/>
<polygon fill="midnightblue" stroke="midnightblue" points="417.074,-310.814 406.707,-312.999 416.174,-317.756 417.074,-310.814"/>
</g>
<!-- Node22 -->
<g id="node22" class="node"><title>Node22</title>
<g id="a_node22"><a xlink:href="classCopter.html#ab4b9d0a886f5e899a46da4dfccb4f4dc" target="_top" xlink:title="Copter::land_nogps_run">
<polygon fill="white" stroke="black" points="448,-240.5 448,-259.5 568,-259.5 568,-240.5 448,-240.5"/>
<text text-anchor="middle" x="508" y="-247.5" font-family="Helvetica,sans-Serif" font-size="10.00">Copter::land_nogps_run</text>
</a>
</g>
</g>
<!-- Node21&#45;&gt;Node22 -->
<g id="edge32" class="edge"><title>Node21&#45;&gt;Node22</title>
<path fill="none" stroke="midnightblue" d="M397.135,-286.497C413.399,-280.801 431.419,-274.567 448,-269 457.385,-265.849 467.645,-262.509 476.938,-259.523"/>
<polygon fill="midnightblue" stroke="midnightblue" points="395.54,-283.348 387.265,-289.964 397.859,-289.953 395.54,-283.348"/>
</g>
<!-- Node22&#45;&gt;Node17 -->
<g id="edge33" class="edge"><title>Node22&#45;&gt;Node17</title>
<path fill="none" stroke="midnightblue" d="M578.537,-250C590.788,-250 603.22,-250 614.498,-250"/>
<polygon fill="midnightblue" stroke="midnightblue" points="578.317,-246.5 568.317,-250 578.317,-253.5 578.317,-246.5"/>
</g>
<!-- Node23&#45;&gt;Node3 -->
<g id="edge37" class="edge"><title>Node23&#45;&gt;Node3</title>
<path fill="none" stroke="midnightblue" d="M997.174,-218.785C1007.46,-220.051 1018.33,-221.386 1028.94,-222.692"/>
<polygon fill="midnightblue" stroke="midnightblue" points="997.456,-215.293 987.103,-217.547 996.601,-222.241 997.456,-215.293"/>
</g>
<!-- Node24&#45;&gt;Node3 -->
<g id="edge39" class="edge"><title>Node24&#45;&gt;Node3</title>
<path fill="none" stroke="midnightblue" d="M250.546,-174C314.604,-174 417.834,-174 507,-174 507,-174 507,-174 802.5,-174 887.587,-174 910.07,-173.964 993,-193 1022.29,-199.724 1054.58,-212.493 1075.18,-221.363"/>
<polygon fill="midnightblue" stroke="midnightblue" points="250.221,-170.5 240.221,-174 250.221,-177.5 250.221,-170.5"/>
</g>
<!-- Node25&#45;&gt;Node3 -->
<g id="edge41" class="edge"><title>Node25&#45;&gt;Node3</title>
<path fill="none" stroke="midnightblue" d="M244.201,-136C307.625,-136 414.827,-136 507,-136 507,-136 507,-136 802.5,-136 888.665,-136 912.131,-142.257 993,-172 1027.55,-184.709 1064.09,-208.268 1083.15,-221.445"/>
<polygon fill="midnightblue" stroke="midnightblue" points="244.026,-132.5 234.026,-136 244.026,-139.5 244.026,-132.5"/>
</g>
<!-- Node26&#45;&gt;Node6 -->
<g id="edge43" class="edge"><title>Node26&#45;&gt;Node6</title>
<path fill="none" stroke="midnightblue" d="M1003.31,-91.4197C1060.74,-90.8763 1145.88,-90.0706 1201.89,-89.5404"/>
<polygon fill="midnightblue" stroke="midnightblue" points="1003.25,-87.9201 993.284,-91.5147 1003.32,-94.9198 1003.25,-87.9201"/>
</g>
<!-- Node27 -->
<g id="node27" class="node"><title>Node27</title>
<g id="a_node27"><a xlink:href="classCopter.html#a6e6add15ee705f8dd44e43e075ffb2ec" target="_top" xlink:title="Copter::update_land\l_and_crash_detectors">
<polygon fill="white" stroke="black" points="1041,-118 1041,-148 1154,-148 1154,-118 1041,-118"/>
<text text-anchor="start" x="1049" y="-136" font-family="Helvetica,sans-Serif" font-size="10.00">Copter::update_land</text>
<text text-anchor="middle" x="1097.5" y="-125" font-family="Helvetica,sans-Serif" font-size="10.00">_and_crash_detectors</text>
</a>
</g>
</g>
<!-- Node26&#45;&gt;Node27 -->
<g id="edge44" class="edge"><title>Node26&#45;&gt;Node27</title>
<path fill="none" stroke="midnightblue" d="M1002.88,-108.155C1015.36,-111.469 1028.45,-114.941 1040.74,-118.204"/>
<polygon fill="midnightblue" stroke="midnightblue" points="1003.58,-104.721 993.017,-105.539 1001.78,-111.486 1003.58,-104.721"/>
</g>
<!-- Node27&#45;&gt;Node4 -->
<g id="edge45" class="edge"><title>Node27&#45;&gt;Node4</title>
<path fill="none" stroke="midnightblue" d="M1163.93,-148.899C1182.81,-153.486 1202.82,-158.349 1219.59,-162.423"/>
<polygon fill="midnightblue" stroke="midnightblue" points="1164.73,-145.491 1154.18,-146.531 1163.08,-152.293 1164.73,-145.491"/>
</g>
<!-- Node27&#45;&gt;Node6 -->
<g id="edge46" class="edge"><title>Node27&#45;&gt;Node6</title>
<path fill="none" stroke="midnightblue" d="M1163.05,-115.303C1183.89,-109.59 1206.2,-103.474 1224.06,-98.5783"/>
<polygon fill="midnightblue" stroke="midnightblue" points="1162,-111.961 1153.29,-117.981 1163.86,-118.712 1162,-111.961"/>
</g>
<!-- Node28&#45;&gt;Node6 -->
<g id="edge48" class="edge"><title>Node28&#45;&gt;Node6</title>
<path fill="none" stroke="midnightblue" d="M415.878,-10C479.317,-10 574.868,-10 658,-10 658,-10 658,-10 942,-10 1042.13,-10 1070.97,-2.46561 1166,-34 1197.33,-44.3978 1229.54,-66.4947 1246.61,-79.2899"/>
<polygon fill="midnightblue" stroke="midnightblue" points="415.589,-6.5001 405.589,-10 415.589,-13.5001 415.589,-6.5001"/>
</g>
</g>
</svg>
