<?xml version="1.0" encoding="UTF-8" standalone="no"?>
<!DOCTYPE svg PUBLIC "-//W3C//DTD SVG 1.1//EN"
 "http://www.w3.org/Graphics/SVG/1.1/DTD/svg11.dtd">
<!-- Generated by graphviz version 2.38.0 (20140413.2041)
 -->
<!-- Title: Copter::dump_log Pages: 1 -->
<svg width="674pt" height="85pt"
 viewBox="0.00 0.00 674.00 85.00" xmlns="http://www.w3.org/2000/svg" xmlns:xlink="http://www.w3.org/1999/xlink">
<g id="graph0" class="graph" transform="scale(1 1) rotate(0) translate(4 81)">
<title>Copter::dump_log</title>
<polygon fill="white" stroke="none" points="-4,4 -4,-81 670,-81 670,4 -4,4"/>
<!-- Node1 -->
<g id="node1" class="node"><title>Node1</title>
<polygon fill="#bfbfbf" stroke="black" points="0,-57.5 0,-76.5 94,-76.5 94,-57.5 0,-57.5"/>
<text text-anchor="middle" x="47" y="-64.5" font-family="Helvetica,sans-Serif" font-size="10.00">Copter::dump_log</text>
</g>
<!-- Node2 -->
<g id="node2" class="node"><title>Node2</title>
<g id="a_node2"><a xlink:href="classCopter.html#a463474e8d6d99855217b8ec3dba27d63" target="_top" xlink:title="Copter::gcs_set_mode">
<polygon fill="white" stroke="black" points="392,-38.5 392,-57.5 508,-57.5 508,-38.5 392,-38.5"/>
<text text-anchor="middle" x="450" y="-45.5" font-family="Helvetica,sans-Serif" font-size="10.00">Copter::gcs_set_mode</text>
</a>
</g>
</g>
<!-- Node1&#45;&gt;Node2 -->
<g id="edge1" class="edge"><title>Node1&#45;&gt;Node2</title>
<path fill="none" stroke="midnightblue" d="M104.359,-68.6443C166.224,-69.8535 268.408,-70.0974 356,-62 367.869,-60.9028 380.531,-59.2929 392.569,-57.552"/>
<polygon fill="midnightblue" stroke="midnightblue" points="104.11,-65.1384 94.0378,-68.4262 103.962,-72.1368 104.11,-65.1384"/>
</g>
<!-- Node4 -->
<g id="node4" class="node"><title>Node4</title>
<g id="a_node4"><a xlink:href="classCopter.html#a725f55c13189d9ff1f9d377cf4062dd0" target="_top" xlink:title="Copter::log_init">
<polygon fill="white" stroke="black" points="130,-38.5 130,-57.5 213,-57.5 213,-38.5 130,-38.5"/>
<text text-anchor="middle" x="171.5" y="-45.5" font-family="Helvetica,sans-Serif" font-size="10.00">Copter::log_init</text>
</a>
</g>
</g>
<!-- Node1&#45;&gt;Node4 -->
<g id="edge3" class="edge"><title>Node1&#45;&gt;Node4</title>
<path fill="none" stroke="midnightblue" d="M104.286,-58.2699C112.869,-56.9387 121.582,-55.5872 129.747,-54.3209"/>
<polygon fill="midnightblue" stroke="midnightblue" points="103.657,-54.8255 94.312,-59.8169 104.73,-61.7428 103.657,-54.8255"/>
</g>
<!-- Node3 -->
<g id="node3" class="node"><title>Node3</title>
<g id="a_node3"><a xlink:href="classGCS__MAVLINK__Copter.html#afe85f88545dfa66f9100ed341cf5f79b" target="_top" xlink:title="GCS_MAVLINK_Copter\l::handleMessage">
<polygon fill="white" stroke="black" points="544,-33 544,-63 666,-63 666,-33 544,-33"/>
<text text-anchor="start" x="552" y="-51" font-family="Helvetica,sans-Serif" font-size="10.00">GCS_MAVLINK_Copter</text>
<text text-anchor="middle" x="605" y="-40" font-family="Helvetica,sans-Serif" font-size="10.00">::handleMessage</text>
</a>
</g>
</g>
<!-- Node2&#45;&gt;Node3 -->
<g id="edge2" class="edge"><title>Node2&#45;&gt;Node3</title>
<path fill="none" stroke="midnightblue" d="M518.61,-48C527.057,-48 535.651,-48 543.972,-48"/>
<polygon fill="midnightblue" stroke="midnightblue" points="518.407,-44.5001 508.407,-48 518.407,-51.5001 518.407,-44.5001"/>
</g>
<!-- Node4&#45;&gt;Node2 -->
<g id="edge4" class="edge"><title>Node4&#45;&gt;Node2</title>
<path fill="none" stroke="midnightblue" d="M223.094,-48C270.761,-48 342.09,-48 391.802,-48"/>
<polygon fill="midnightblue" stroke="midnightblue" points="223.002,-44.5001 213.002,-48 223.002,-51.5001 223.002,-44.5001"/>
</g>
<!-- Node5 -->
<g id="node5" class="node"><title>Node5</title>
<g id="a_node5"><a xlink:href="classCopter.html#a3dd81483501146cda2aec5d898c2592b" target="_top" xlink:title="Copter::init_ardupilot">
<polygon fill="white" stroke="black" points="249,-0.5 249,-19.5 356,-19.5 356,-0.5 249,-0.5"/>
<text text-anchor="middle" x="302.5" y="-7.5" font-family="Helvetica,sans-Serif" font-size="10.00">Copter::init_ardupilot</text>
</a>
</g>
</g>
<!-- Node4&#45;&gt;Node5 -->
<g id="edge5" class="edge"><title>Node4&#45;&gt;Node5</title>
<path fill="none" stroke="midnightblue" d="M215.054,-35.4647C232.603,-30.2952 252.613,-24.4009 268.958,-19.5859"/>
<polygon fill="midnightblue" stroke="midnightblue" points="213.656,-32.2279 205.052,-38.411 215.634,-38.9426 213.656,-32.2279"/>
</g>
<!-- Node5&#45;&gt;Node2 -->
<g id="edge7" class="edge"><title>Node5&#45;&gt;Node2</title>
<path fill="none" stroke="midnightblue" d="M350.153,-22.1843C370.353,-27.46 393.648,-33.5438 412.548,-38.4799"/>
<polygon fill="midnightblue" stroke="midnightblue" points="350.776,-18.7296 340.216,-19.589 349.007,-25.5024 350.776,-18.7296"/>
</g>
<!-- Node6 -->
<g id="node6" class="node"><title>Node6</title>
<g id="a_node6"><a xlink:href="classCopter.html#ad672001a9ffbac72fe0ec2d8e336a4aa" target="_top" xlink:title="Copter::setup">
<polygon fill="white" stroke="black" points="412,-0.5 412,-19.5 488,-19.5 488,-0.5 412,-0.5"/>
<text text-anchor="middle" x="450" y="-7.5" font-family="Helvetica,sans-Serif" font-size="10.00">Copter::setup</text>
</a>
</g>
</g>
<!-- Node5&#45;&gt;Node6 -->
<g id="edge6" class="edge"><title>Node5&#45;&gt;Node6</title>
<path fill="none" stroke="midnightblue" d="M366.097,-10C381.601,-10 397.733,-10 411.601,-10"/>
<polygon fill="midnightblue" stroke="midnightblue" points="366.029,-6.5001 356.029,-10 366.029,-13.5001 366.029,-6.5001"/>
</g>
</g>
</svg>
