<?xml version="1.0" encoding="UTF-8" standalone="no"?>
<!DOCTYPE svg PUBLIC "-//W3C//DTD SVG 1.1//EN"
 "http://www.w3.org/Graphics/SVG/1.1/DTD/svg11.dtd">
<!-- Generated by graphviz version 2.38.0 (20140413.2041)
 -->
<!-- Title: Copter::auto_takeoff_set_start_alt Pages: 1 -->
<svg width="855pt" height="72pt"
 viewBox="0.00 0.00 855.00 71.50" xmlns="http://www.w3.org/2000/svg" xmlns:xlink="http://www.w3.org/1999/xlink">
<g id="graph0" class="graph" transform="scale(1 1) rotate(0) translate(4 67.5)">
<title>Copter::auto_takeoff_set_start_alt</title>
<polygon fill="white" stroke="none" points="-4,4 -4,-67.5 851,-67.5 851,4 -4,4"/>
<!-- Node1 -->
<g id="node1" class="node"><title>Node1</title>
<polygon fill="#bfbfbf" stroke="black" points="0,-19.5 0,-49.5 106,-49.5 106,-19.5 0,-19.5"/>
<text text-anchor="start" x="8" y="-37.5" font-family="Helvetica,sans-Serif" font-size="10.00">Copter::auto_takeoff</text>
<text text-anchor="middle" x="53" y="-26.5" font-family="Helvetica,sans-Serif" font-size="10.00">_set_start_alt</text>
</g>
<!-- Node2 -->
<g id="node2" class="node"><title>Node2</title>
<g id="a_node2"><a xlink:href="classCopter.html#ac2a856dddf1dd5d5dc959d793caf50d3" target="_top" xlink:title="Copter::auto_takeoff\l_start">
<polygon fill="white" stroke="black" points="142,-19.5 142,-49.5 248,-49.5 248,-19.5 142,-19.5"/>
<text text-anchor="start" x="150" y="-37.5" font-family="Helvetica,sans-Serif" font-size="10.00">Copter::auto_takeoff</text>
<text text-anchor="middle" x="195" y="-26.5" font-family="Helvetica,sans-Serif" font-size="10.00">_start</text>
</a>
</g>
</g>
<!-- Node1&#45;&gt;Node2 -->
<g id="edge1" class="edge"><title>Node1&#45;&gt;Node2</title>
<path fill="none" stroke="midnightblue" d="M116.387,-34.5C124.885,-34.5 133.534,-34.5 141.826,-34.5"/>
<polygon fill="midnightblue" stroke="midnightblue" points="116.131,-31.0001 106.131,-34.5 116.131,-38.0001 116.131,-31.0001"/>
</g>
<!-- Node3 -->
<g id="node3" class="node"><title>Node3</title>
<g id="a_node3"><a xlink:href="classCopter.html#aa2a88780ff0454d3621ba51b20d35a38" target="_top" xlink:title="Copter::do_takeoff">
<polygon fill="white" stroke="black" points="284,-25 284,-44 382,-44 382,-25 284,-25"/>
<text text-anchor="middle" x="333" y="-32" font-family="Helvetica,sans-Serif" font-size="10.00">Copter::do_takeoff</text>
</a>
</g>
</g>
<!-- Node2&#45;&gt;Node3 -->
<g id="edge2" class="edge"><title>Node2&#45;&gt;Node3</title>
<path fill="none" stroke="midnightblue" d="M258.455,-34.5C266.946,-34.5 275.552,-34.5 283.74,-34.5"/>
<polygon fill="midnightblue" stroke="midnightblue" points="258.192,-31.0001 248.192,-34.5 258.192,-38.0001 258.192,-31.0001"/>
</g>
<!-- Node4 -->
<g id="node4" class="node"><title>Node4</title>
<g id="a_node4"><a xlink:href="classCopter.html#a2cf235a443c7340387c4f767b4edba1d" target="_top" xlink:title="Copter::start_command">
<polygon fill="white" stroke="black" points="418,-44 418,-63 537,-63 537,-44 418,-44"/>
<text text-anchor="middle" x="477.5" y="-51" font-family="Helvetica,sans-Serif" font-size="10.00">Copter::start_command</text>
</a>
</g>
</g>
<!-- Node3&#45;&gt;Node4 -->
<g id="edge3" class="edge"><title>Node3&#45;&gt;Node4</title>
<path fill="none" stroke="midnightblue" d="M392.377,-42.2836C400.812,-43.4083 409.497,-44.5662 417.936,-45.6914"/>
<polygon fill="midnightblue" stroke="midnightblue" points="392.619,-38.785 382.244,-40.9325 391.694,-45.7236 392.619,-38.785"/>
</g>
<!-- Node6 -->
<g id="node6" class="node"><title>Node6</title>
<g id="a_node6"><a xlink:href="classCopter.html#a463474e8d6d99855217b8ec3dba27d63" target="_top" xlink:title="Copter::gcs_set_mode">
<polygon fill="white" stroke="black" points="573,-6 573,-25 689,-25 689,-6 573,-6"/>
<text text-anchor="middle" x="631" y="-13" font-family="Helvetica,sans-Serif" font-size="10.00">Copter::gcs_set_mode</text>
</a>
</g>
</g>
<!-- Node3&#45;&gt;Node6 -->
<g id="edge7" class="edge"><title>Node3&#45;&gt;Node6</title>
<path fill="none" stroke="midnightblue" d="M392.348,-30.7547C444.677,-27.3957 521.002,-22.4965 572.934,-19.163"/>
<polygon fill="midnightblue" stroke="midnightblue" points="391.972,-27.2716 382.216,-31.405 392.42,-34.2572 391.972,-27.2716"/>
</g>
<!-- Node5 -->
<g id="node5" class="node"><title>Node5</title>
<g id="a_node5"><a xlink:href="classCopter.html#a42d6cd95e346fa67559b307fd3d85b82" target="_top" xlink:title="Copter::Copter">
<polygon fill="white" stroke="black" points="590.5,-44 590.5,-63 671.5,-63 671.5,-44 590.5,-44"/>
<text text-anchor="middle" x="631" y="-51" font-family="Helvetica,sans-Serif" font-size="10.00">Copter::Copter</text>
</a>
</g>
</g>
<!-- Node4&#45;&gt;Node5 -->
<g id="edge4" class="edge"><title>Node4&#45;&gt;Node5</title>
<path fill="none" stroke="midnightblue" d="M547.21,-53.5C561.975,-53.5 577.1,-53.5 590.314,-53.5"/>
<polygon fill="midnightblue" stroke="midnightblue" points="547.074,-50.0001 537.074,-53.5 547.074,-57.0001 547.074,-50.0001"/>
</g>
<!-- Node4&#45;&gt;Node6 -->
<g id="edge5" class="edge"><title>Node4&#45;&gt;Node6</title>
<path fill="none" stroke="midnightblue" d="M526.502,-41.46C547.667,-36.1512 572.186,-30.0012 592.045,-25.0201"/>
<polygon fill="midnightblue" stroke="midnightblue" points="525.578,-38.0832 516.73,-43.911 527.281,-44.8729 525.578,-38.0832"/>
</g>
<!-- Node7 -->
<g id="node7" class="node"><title>Node7</title>
<g id="a_node7"><a xlink:href="classGCS__MAVLINK__Copter.html#afe85f88545dfa66f9100ed341cf5f79b" target="_top" xlink:title="GCS_MAVLINK_Copter\l::handleMessage">
<polygon fill="white" stroke="black" points="725,-0.5 725,-30.5 847,-30.5 847,-0.5 725,-0.5"/>
<text text-anchor="start" x="733" y="-18.5" font-family="Helvetica,sans-Serif" font-size="10.00">GCS_MAVLINK_Copter</text>
<text text-anchor="middle" x="786" y="-7.5" font-family="Helvetica,sans-Serif" font-size="10.00">::handleMessage</text>
</a>
</g>
</g>
<!-- Node6&#45;&gt;Node7 -->
<g id="edge6" class="edge"><title>Node6&#45;&gt;Node7</title>
<path fill="none" stroke="midnightblue" d="M699.61,-15.5C708.057,-15.5 716.651,-15.5 724.972,-15.5"/>
<polygon fill="midnightblue" stroke="midnightblue" points="699.407,-12.0001 689.407,-15.5 699.407,-19.0001 699.407,-12.0001"/>
</g>
</g>
</svg>
