<?xml version="1.0" encoding="UTF-8" standalone="no"?>
<!DOCTYPE svg PUBLIC "-//W3C//DTD SVG 1.1//EN"
 "http://www.w3.org/Graphics/SVG/1.1/DTD/svg11.dtd">
<!-- Generated by graphviz version 2.38.0 (20140413.2041)
 -->
<!-- Title: Copter::dump_log Pages: 1 -->
<!--zoomable 280 -->
<svg id="main" version="1.1" xmlns="http://www.w3.org/2000/svg" xmlns:xlink="http://www.w3.org/1999/xlink" xml:space="preserve" onload="init(evt)">
<style type="text/css"><![CDATA[
.edge:hover path { stroke: red; }
.edge:hover polygon { stroke: red; fill: red; }
]]></style>
<script type="text/javascript"><![CDATA[
var edges = document.getElementsByTagName('g');
if (edges && edges.length) {
  for (var i=0;i<edges.length;i++) {
    if (edges[i].id.substr(0,4)=='edge') {
      edges[i].setAttribute('class','edge');
    }
  }
}
]]></script>
        <defs>
                <circle id="rim" cx="0" cy="0" r="7"/>
                <circle id="rim2" cx="0" cy="0" r="3.5"/>
                <g id="zoomPlus">
                        <use xlink:href="#rim" fill="#404040">
                                <set attributeName="fill" to="#808080" begin="zoomplus.mouseover" end="zoomplus.mouseout"/>
                        </use>
                        <path d="M-4,0h8M0,-4v8" fill="none" stroke="white" stroke-width="1.5" pointer-events="none"/>
                </g>
                <g id="zoomMin">
                        <use xlink:href="#rim" fill="#404040">
                                <set attributeName="fill" to="#808080" begin="zoomminus.mouseover" end="zoomminus.mouseout"/>
                        </use>
                        <path d="M-4,0h8" fill="none" stroke="white" stroke-width="1.5" pointer-events="none"/>
                </g>
                <g id="dirArrow">
                        <path fill="none" stroke="white" stroke-width="1.5" d="M0,-3.0v7 M-2.5,-0.5L0,-3.0L2.5,-0.5"/>
                </g>
               <g id="resetDef">
                       <use xlink:href="#rim2" fill="#404040">
                               <set attributeName="fill" to="#808080" begin="reset.mouseover" end="reset.mouseout"/>
                       </use>
               </g>
        </defs>

<script type="text/javascript">
var viewWidth = 630;
var viewHeight = 280;
var sectionId = 'dynsection-199';
</script>
<script xlink:href="svgpan.js"/>
<svg id="graph" class="graph">
<g id="viewport">
<title>Copter::dump_log</title>
<polygon fill="white" stroke="none" points="-4,4 -4,-276 626,-276 626,4 -4,4"/>
<!-- Node1 -->
<g id="node1" class="node"><title>Node1</title>
<polygon fill="#bfbfbf" stroke="black" points="0,-132.5 0,-151.5 94,-151.5 94,-132.5 0,-132.5"/>
<text text-anchor="middle" x="47" y="-139.5" font-family="Helvetica,sans-Serif" font-size="10.00">Copter::dump_log</text>
</g>
<!-- Node2 -->
<g id="node2" class="node"><title>Node2</title>
<g id="a_node2"><a doxygen="/home/ubuntu/ardupilot/docs/tags/libraries:../libraries/" xlink:href="../libraries/classDataFlash__Class.html#aedc7a5055d1acfc186dbf61ef76b68c4" target="_top" xlink:title="DataFlash_Class::DumpPageInfo">
<polygon fill="white" stroke="black" points="130,-252.5 130,-271.5 294,-271.5 294,-252.5 130,-252.5"/>
<text text-anchor="middle" x="212" y="-259.5" font-family="Helvetica,sans-Serif" font-size="10.00">DataFlash_Class::DumpPageInfo</text>
</a>
</g>
</g>
<!-- Node1&#45;&gt;Node2 -->
<g id="edge1" class="edge"><title>Node1&#45;&gt;Node2</title>
<path fill="none" stroke="midnightblue" d="M53.6428,-151.789C65.3393,-171.205 94.1537,-214.72 130,-238 136.908,-242.487 144.684,-246.16 152.615,-249.16"/>
<polygon fill="midnightblue" stroke="midnightblue" points="151.721,-252.554 162.316,-252.496 153.998,-245.935 151.721,-252.554"/>
</g>
<!-- Node3 -->
<g id="node3" class="node"><title>Node3</title>
<g id="a_node3"><a doxygen="/home/ubuntu/ardupilot/docs/tags/libraries:../libraries/" xlink:href="../libraries/classAP__HAL_1_1BetterStream.html#a1042d8b81aea5fb096d1b7431d7a9484" target="_top" xlink:title="AP_HAL::BetterStream\l::printf">
<polygon fill="white" stroke="black" points="503,-171 503,-201 622,-201 622,-171 503,-171"/>
<text text-anchor="start" x="511" y="-189" font-family="Helvetica,sans-Serif" font-size="10.00">AP_HAL::BetterStream</text>
<text text-anchor="middle" x="562.5" y="-178" font-family="Helvetica,sans-Serif" font-size="10.00">::printf</text>
</a>
</g>
</g>
<!-- Node1&#45;&gt;Node3 -->
<g id="edge2" class="edge"><title>Node1&#45;&gt;Node3</title>
<path fill="none" stroke="midnightblue" d="M85.8061,-151.58C99.6475,-154.87 115.475,-158.38 130,-161 218.213,-176.914 240.55,-181.21 330,-187 390.762,-190.933 406.112,-187.322 467,-187 475.314,-186.956 484.039,-186.89 492.686,-186.813"/>
<polygon fill="midnightblue" stroke="midnightblue" points="492.807,-190.312 502.773,-186.718 492.741,-183.313 492.807,-190.312"/>
</g>
<!-- Node4 -->
<g id="node4" class="node"><title>Node4</title>
<g id="a_node4"><a xlink:href="classCopter.html#a7264ed98fa8bd56f0e1f70ba420ec728" target="_top" xlink:title="Copter::Log_Read">
<polygon fill="white" stroke="black" points="164,-132.5 164,-151.5 260,-151.5 260,-132.5 164,-132.5"/>
<text text-anchor="middle" x="212" y="-139.5" font-family="Helvetica,sans-Serif" font-size="10.00">Copter::Log_Read</text>
</a>
</g>
</g>
<!-- Node1&#45;&gt;Node4 -->
<g id="edge3" class="edge"><title>Node1&#45;&gt;Node4</title>
<path fill="none" stroke="midnightblue" d="M94.2733,-142C112.703,-142 134.109,-142 153.518,-142"/>
<polygon fill="midnightblue" stroke="midnightblue" points="153.761,-145.5 163.761,-142 153.761,-138.5 153.761,-145.5"/>
</g>
<!-- Node9 -->
<g id="node9" class="node"><title>Node9</title>
<g id="a_node9"><a doxygen="/home/ubuntu/ardupilot/docs/tags/libraries:../libraries/" xlink:href="../libraries/classDataFlash__Class.html#af47908cf2f5e1d3a89f8cb82b8cb1c56" target="_top" xlink:title="DataFlash_Class::get\l_num_logs">
<polygon fill="white" stroke="black" points="156,-83 156,-113 268,-113 268,-83 156,-83"/>
<text text-anchor="start" x="164" y="-101" font-family="Helvetica,sans-Serif" font-size="10.00">DataFlash_Class::get</text>
<text text-anchor="middle" x="212" y="-90" font-family="Helvetica,sans-Serif" font-size="10.00">_num_logs</text>
</a>
</g>
</g>
<!-- Node1&#45;&gt;Node9 -->
<g id="edge10" class="edge"><title>Node1&#45;&gt;Node9</title>
<path fill="none" stroke="midnightblue" d="M83.3686,-132.453C101.719,-127.499 124.722,-121.29 146.127,-115.512"/>
<polygon fill="midnightblue" stroke="midnightblue" points="147.084,-118.879 155.826,-112.894 145.26,-112.121 147.084,-118.879"/>
</g>
<!-- Node10 -->
<g id="node10" class="node"><title>Node10</title>
<g id="a_node10"><a doxygen="/home/ubuntu/ardupilot/docs/tags/libraries:../libraries/" xlink:href="../libraries/classDataFlash__Class.html#a744827de1cdbecafc3e984eb530ae3d5" target="_top" xlink:title="DataFlash_Class::get\l_log_boundaries">
<polygon fill="white" stroke="black" points="156,-34 156,-64 268,-64 268,-34 156,-34"/>
<text text-anchor="start" x="164" y="-52" font-family="Helvetica,sans-Serif" font-size="10.00">DataFlash_Class::get</text>
<text text-anchor="middle" x="212" y="-41" font-family="Helvetica,sans-Serif" font-size="10.00">_log_boundaries</text>
</a>
</g>
</g>
<!-- Node1&#45;&gt;Node10 -->
<g id="edge11" class="edge"><title>Node1&#45;&gt;Node10</title>
<path fill="none" stroke="midnightblue" d="M57.1196,-132.06C71.3165,-117.153 100.183,-89.0494 130,-73 135.13,-70.2389 140.617,-67.7569 146.228,-65.5338"/>
<polygon fill="midnightblue" stroke="midnightblue" points="147.569,-68.7699 155.747,-62.0334 145.153,-62.2001 147.569,-68.7699"/>
</g>
<!-- Node4&#45;&gt;Node3 -->
<g id="edge4" class="edge"><title>Node4&#45;&gt;Node3</title>
<path fill="none" stroke="midnightblue" d="M251.507,-151.533C274.218,-156.828 303.594,-163.112 330,-167 384.338,-175.001 446.384,-179.867 492.556,-182.668"/>
<polygon fill="midnightblue" stroke="midnightblue" points="492.561,-186.175 502.75,-183.269 492.973,-179.187 492.561,-186.175"/>
</g>
<!-- Node5 -->
<g id="node5" class="node"><title>Node5</title>
<g id="a_node5"><a doxygen="/home/ubuntu/ardupilot/docs/tags/libraries:../libraries/" xlink:href="../libraries/classAP__HAL_1_1Util.html#a2a2e64f649d25593951054d44c0ed53b" target="_top" xlink:title="AP_HAL::Util::available\l_memory">
<polygon fill="white" stroke="black" points="338.5,-127 338.5,-157 458.5,-157 458.5,-127 338.5,-127"/>
<text text-anchor="start" x="346.5" y="-145" font-family="Helvetica,sans-Serif" font-size="10.00">AP_HAL::Util::available</text>
<text text-anchor="middle" x="398.5" y="-134" font-family="Helvetica,sans-Serif" font-size="10.00">_memory</text>
</a>
</g>
</g>
<!-- Node4&#45;&gt;Node5 -->
<g id="edge5" class="edge"><title>Node4&#45;&gt;Node5</title>
<path fill="none" stroke="midnightblue" d="M260.035,-142C280.681,-142 305.341,-142 328.038,-142"/>
<polygon fill="midnightblue" stroke="midnightblue" points="328.307,-145.5 338.307,-142 328.307,-138.5 328.307,-145.5"/>
</g>
<!-- Node6 -->
<g id="node6" class="node"><title>Node6</title>
<g id="a_node6"><a xlink:href="classCopter.html#a228aa1ecafb49183929a8da8045cd938" target="_top" xlink:title="Copter::get_frame_string">
<polygon fill="white" stroke="black" points="336,-88.5 336,-107.5 461,-107.5 461,-88.5 336,-88.5"/>
<text text-anchor="middle" x="398.5" y="-95.5" font-family="Helvetica,sans-Serif" font-size="10.00">Copter::get_frame_string</text>
</a>
</g>
</g>
<!-- Node4&#45;&gt;Node6 -->
<g id="edge6" class="edge"><title>Node4&#45;&gt;Node6</title>
<path fill="none" stroke="midnightblue" d="M253.804,-132.484C266.669,-129.469 280.932,-126.111 294,-123 311.739,-118.777 331.174,-114.097 348.364,-109.939"/>
<polygon fill="midnightblue" stroke="midnightblue" points="349.301,-113.313 358.197,-107.558 347.654,-106.51 349.301,-113.313"/>
</g>
<!-- Node7 -->
<g id="node7" class="node"><title>Node7</title>
<g id="a_node7"><a doxygen="/home/ubuntu/ardupilot/docs/tags/libraries:../libraries/" xlink:href="../libraries/classDataFlash__Class.html#a1a8a028ab201bcd0eacb194efba0889d" target="_top" xlink:title="DataFlash_Class::LogRead\lProcess">
<polygon fill="white" stroke="black" points="330,-39 330,-69 467,-69 467,-39 330,-39"/>
<text text-anchor="start" x="338" y="-57" font-family="Helvetica,sans-Serif" font-size="10.00">DataFlash_Class::LogRead</text>
<text text-anchor="middle" x="398.5" y="-46" font-family="Helvetica,sans-Serif" font-size="10.00">Process</text>
</a>
</g>
</g>
<!-- Node4&#45;&gt;Node7 -->
<g id="edge7" class="edge"><title>Node4&#45;&gt;Node7</title>
<path fill="none" stroke="midnightblue" d="M260.042,-136.39C271.738,-133.573 283.828,-129.345 294,-123 315.438,-109.627 309.434,-93.6787 330,-79 332.645,-77.1124 335.448,-75.3504 338.351,-73.7079"/>
<polygon fill="midnightblue" stroke="midnightblue" points="339.989,-76.8015 347.3,-69.1328 336.803,-70.5688 339.989,-76.8015"/>
</g>
<!-- Node8 -->
<g id="node8" class="node"><title>Node8</title>
<g id="a_node8"><a xlink:href="classCopter.html#ada2767ebfdd65319acac0963b364187a" target="_top" xlink:title="Copter::print_flight_mode">
<polygon fill="white" stroke="black" points="335.5,-0.5 335.5,-19.5 461.5,-19.5 461.5,-0.5 335.5,-0.5"/>
<text text-anchor="middle" x="398.5" y="-7.5" font-family="Helvetica,sans-Serif" font-size="10.00">Copter::print_flight_mode</text>
</a>
</g>
</g>
<!-- Node4&#45;&gt;Node8 -->
<g id="edge8" class="edge"><title>Node4&#45;&gt;Node8</title>
<path fill="none" stroke="midnightblue" d="M260.339,-138.8C272.431,-135.995 284.642,-131.17 294,-123 327.7,-93.5778 296.955,-59.1561 330,-29 331.717,-27.4331 333.553,-25.9942 335.482,-24.673"/>
<polygon fill="midnightblue" stroke="midnightblue" points="337.463,-27.5736 344.441,-19.6016 334.015,-21.4818 337.463,-27.5736"/>
</g>
<!-- Node8&#45;&gt;Node3 -->
<g id="edge9" class="edge"><title>Node8&#45;&gt;Node3</title>
<path fill="none" stroke="midnightblue" d="M449.841,-19.5117C455.971,-21.9791 461.87,-25.0865 467,-29 512.158,-63.4487 540.291,-126.206 553.182,-161.034"/>
<polygon fill="midnightblue" stroke="midnightblue" points="550.039,-162.641 556.695,-170.883 556.632,-160.289 550.039,-162.641"/>
</g>
</g>
</svg>
        <g id="navigator" transform="translate(0 0)" fill="#404254">
                <rect fill="#f2f5e9" fill-opacity="0.5" stroke="#606060" stroke-width=".5" x="0" y="0" width="60" height="60"/>
                <use id="zoomplus" xlink:href="#zoomPlus" x="17" y="9" onmousedown="handleZoom(evt,'in')"/>
                <use id="zoomminus" xlink:href="#zoomMin" x="42" y="9" onmousedown="handleZoom(evt,'out')"/>
                <use id="reset" xlink:href="#resetDef" x="30" y="36" onmousedown="handleReset()"/>
                <g id="arrowUp" xlink:href="#dirArrow" transform="translate(30 24)" onmousedown="handlePan(0,-1)">
                  <use xlink:href="#rim" fill="#404040">
                        <set attributeName="fill" to="#808080" begin="arrowUp.mouseover" end="arrowUp.mouseout"/>
                  </use>
                  <path fill="none" stroke="white" stroke-width="1.5" d="M0,-3.0v7 M-2.5,-0.5L0,-3.0L2.5,-0.5"/>
                </g>
                <g id="arrowRight" xlink:href="#dirArrow" transform="rotate(90) translate(36 -43)" onmousedown="handlePan(1,0)">
                  <use xlink:href="#rim" fill="#404040">
                        <set attributeName="fill" to="#808080" begin="arrowRight.mouseover" end="arrowRight.mouseout"/>
                  </use>
                  <path fill="none" stroke="white" stroke-width="1.5" d="M0,-3.0v7 M-2.5,-0.5L0,-3.0L2.5,-0.5"/>
                </g>
                <g id="arrowDown" xlink:href="#dirArrow" transform="rotate(180) translate(-30 -48)" onmousedown="handlePan(0,1)">
                  <use xlink:href="#rim" fill="#404040">
                        <set attributeName="fill" to="#808080" begin="arrowDown.mouseover" end="arrowDown.mouseout"/>
                  </use>
                  <path fill="none" stroke="white" stroke-width="1.5" d="M0,-3.0v7 M-2.5,-0.5L0,-3.0L2.5,-0.5"/>
                </g>
                <g id="arrowLeft" xlink:href="#dirArrow" transform="rotate(270) translate(-36 17)" onmousedown="handlePan(-1,0)">
                  <use xlink:href="#rim" fill="#404040">
                        <set attributeName="fill" to="#808080" begin="arrowLeft.mouseover" end="arrowLeft.mouseout"/>
                  </use>
                  <path fill="none" stroke="white" stroke-width="1.5" d="M0,-3.0v7 M-2.5,-0.5L0,-3.0L2.5,-0.5"/>
                </g>
        </g>
        <svg viewBox="0 0 15 15" width="100%" height="30px" preserveAspectRatio="xMaxYMin meet">
         <g id="arrow_out" transform="scale(0.3 0.3)">
          <a xlink:href="classCopter_a1de05e61bed34148a2bd695c6569b932_cgraph_org.svg" target="_base">
           <rect id="button" ry="5" rx="5" y="6" x="6" height="38" width="38"
                fill="#f2f5e9" fill-opacity="0.5" stroke="#606060" stroke-width="1.0"/>
           <path id="arrow"
             d="M 11.500037,31.436501 C 11.940474,20.09759 22.043105,11.32322 32.158766,21.979434 L 37.068811,17.246167 C 37.068811,17.246167 37.088388,32 37.088388,32 L 22.160133,31.978069 C 22.160133,31.978069 26.997745,27.140456 26.997745,27.140456 C 18.528582,18.264221 13.291696,25.230495 11.500037,31.436501 z"
             style="fill:#404040;"/>
          </a>
         </g>
        </svg>
</svg>
