<?xml version="1.0" encoding="UTF-8" standalone="no"?>
<!DOCTYPE svg PUBLIC "-//W3C//DTD SVG 1.1//EN"
 "http://www.w3.org/Graphics/SVG/1.1/DTD/svg11.dtd">
<!-- Generated by graphviz version 2.38.0 (20140413.2041)
 -->
<!-- Title: Copter::auto_spline_start Pages: 1 -->
<!--zoomable 91 -->
<svg id="main" version="1.1" xmlns="http://www.w3.org/2000/svg" xmlns:xlink="http://www.w3.org/1999/xlink" xml:space="preserve" onload="init(evt)">
<style type="text/css"><![CDATA[
.edge:hover path { stroke: red; }
.edge:hover polygon { stroke: red; fill: red; }
]]></style>
<script type="text/javascript"><![CDATA[
var edges = document.getElementsByTagName('g');
if (edges && edges.length) {
  for (var i=0;i<edges.length;i++) {
    if (edges[i].id.substr(0,4)=='edge') {
      edges[i].setAttribute('class','edge');
    }
  }
}
]]></script>
        <defs>
                <circle id="rim" cx="0" cy="0" r="7"/>
                <circle id="rim2" cx="0" cy="0" r="3.5"/>
                <g id="zoomPlus">
                        <use xlink:href="#rim" fill="#404040">
                                <set attributeName="fill" to="#808080" begin="zoomplus.mouseover" end="zoomplus.mouseout"/>
                        </use>
                        <path d="M-4,0h8M0,-4v8" fill="none" stroke="white" stroke-width="1.5" pointer-events="none"/>
                </g>
                <g id="zoomMin">
                        <use xlink:href="#rim" fill="#404040">
                                <set attributeName="fill" to="#808080" begin="zoomminus.mouseover" end="zoomminus.mouseout"/>
                        </use>
                        <path d="M-4,0h8" fill="none" stroke="white" stroke-width="1.5" pointer-events="none"/>
                </g>
                <g id="dirArrow">
                        <path fill="none" stroke="white" stroke-width="1.5" d="M0,-3.0v7 M-2.5,-0.5L0,-3.0L2.5,-0.5"/>
                </g>
               <g id="resetDef">
                       <use xlink:href="#rim2" fill="#404040">
                               <set attributeName="fill" to="#808080" begin="reset.mouseover" end="reset.mouseout"/>
                       </use>
               </g>
        </defs>

<script type="text/javascript">
var viewWidth = 721;
var viewHeight = 91;
var sectionId = 'dynsection-62';
</script>
<script xlink:href="svgpan.js"/>
<svg id="graph" class="graph">
<g id="viewport">
<title>Copter::auto_spline_start</title>
<polygon fill="white" stroke="none" points="-4,4 -4,-86.5 717,-86.5 717,4 -4,4"/>
<!-- Node1 -->
<g id="node1" class="node"><title>Node1</title>
<polygon fill="#bfbfbf" stroke="black" points="0,-0.5 0,-30.5 101,-30.5 101,-0.5 0,-0.5"/>
<text text-anchor="start" x="8" y="-18.5" font-family="Helvetica,sans-Serif" font-size="10.00">Copter::auto_spline</text>
<text text-anchor="middle" x="50.5" y="-7.5" font-family="Helvetica,sans-Serif" font-size="10.00">_start</text>
</g>
<!-- Node2 -->
<g id="node2" class="node"><title>Node2</title>
<g id="a_node2"><a xlink:href="classCopter.html#a6e67e20e61fb007cad10d25295b738af" target="_top" xlink:title="Copter::do_spline_wp">
<polygon fill="white" stroke="black" points="137,-25 137,-44 248,-44 248,-25 137,-25"/>
<text text-anchor="middle" x="192.5" y="-32" font-family="Helvetica,sans-Serif" font-size="10.00">Copter::do_spline_wp</text>
</a>
</g>
</g>
<!-- Node1&#45;&gt;Node2 -->
<g id="edge1" class="edge"><title>Node1&#45;&gt;Node2</title>
<path fill="none" stroke="midnightblue" d="M111.369,-23.6251C119.771,-24.7654 128.372,-25.9326 136.674,-27.0593"/>
<polygon fill="midnightblue" stroke="midnightblue" points="111.633,-20.1289 101.253,-22.2522 110.691,-27.0653 111.633,-20.1289"/>
</g>
<!-- Node5 -->
<g id="node5" class="node"><title>Node5</title>
<g id="a_node5"><a xlink:href="classCopter.html#a463474e8d6d99855217b8ec3dba27d63" target="_top" xlink:title="Copter::gcs_set_mode">
<polygon fill="white" stroke="black" points="439,-25 439,-44 555,-44 555,-25 439,-25"/>
<text text-anchor="middle" x="497" y="-32" font-family="Helvetica,sans-Serif" font-size="10.00">Copter::gcs_set_mode</text>
</a>
</g>
</g>
<!-- Node1&#45;&gt;Node5 -->
<g id="edge7" class="edge"><title>Node1&#45;&gt;Node5</title>
<path fill="none" stroke="midnightblue" d="M111.304,-14.3147C150.25,-13.8352 202.155,-13.7464 248,-15.5 313.588,-18.0088 388.72,-24.2366 438.94,-28.8827"/>
<polygon fill="midnightblue" stroke="midnightblue" points="111.138,-10.8165 101.187,-14.4515 111.233,-17.8158 111.138,-10.8165"/>
</g>
<!-- Node3 -->
<g id="node3" class="node"><title>Node3</title>
<g id="a_node3"><a xlink:href="classCopter.html#a2cf235a443c7340387c4f767b4edba1d" target="_top" xlink:title="Copter::start_command">
<polygon fill="white" stroke="black" points="284,-63 284,-82 403,-82 403,-63 284,-63"/>
<text text-anchor="middle" x="343.5" y="-70" font-family="Helvetica,sans-Serif" font-size="10.00">Copter::start_command</text>
</a>
</g>
</g>
<!-- Node2&#45;&gt;Node3 -->
<g id="edge2" class="edge"><title>Node2&#45;&gt;Node3</title>
<path fill="none" stroke="midnightblue" d="M240.992,-46.6121C261.744,-51.9044 285.728,-58.0213 305.171,-62.9799"/>
<polygon fill="midnightblue" stroke="midnightblue" points="241.654,-43.1689 231.099,-44.089 239.924,-49.9518 241.654,-43.1689"/>
</g>
<!-- Node2&#45;&gt;Node5 -->
<g id="edge6" class="edge"><title>Node2&#45;&gt;Node5</title>
<path fill="none" stroke="midnightblue" d="M258.365,-34.5C311.988,-34.5 387.405,-34.5 438.8,-34.5"/>
<polygon fill="midnightblue" stroke="midnightblue" points="258.281,-31.0001 248.28,-34.5 258.28,-38.0001 258.281,-31.0001"/>
</g>
<!-- Node4 -->
<g id="node4" class="node"><title>Node4</title>
<g id="a_node4"><a xlink:href="classCopter.html#a42d6cd95e346fa67559b307fd3d85b82" target="_top" xlink:title="Copter::Copter">
<polygon fill="white" stroke="black" points="456.5,-63 456.5,-82 537.5,-82 537.5,-63 456.5,-63"/>
<text text-anchor="middle" x="497" y="-70" font-family="Helvetica,sans-Serif" font-size="10.00">Copter::Copter</text>
</a>
</g>
</g>
<!-- Node3&#45;&gt;Node4 -->
<g id="edge3" class="edge"><title>Node3&#45;&gt;Node4</title>
<path fill="none" stroke="midnightblue" d="M413.21,-72.5C427.975,-72.5 443.1,-72.5 456.314,-72.5"/>
<polygon fill="midnightblue" stroke="midnightblue" points="413.074,-69.0001 403.074,-72.5 413.074,-76.0001 413.074,-69.0001"/>
</g>
<!-- Node3&#45;&gt;Node5 -->
<g id="edge4" class="edge"><title>Node3&#45;&gt;Node5</title>
<path fill="none" stroke="midnightblue" d="M392.502,-60.46C413.667,-55.1512 438.186,-49.0012 458.045,-44.0201"/>
<polygon fill="midnightblue" stroke="midnightblue" points="391.578,-57.0832 382.73,-62.911 393.281,-63.8729 391.578,-57.0832"/>
</g>
<!-- Node6 -->
<g id="node6" class="node"><title>Node6</title>
<g id="a_node6"><a xlink:href="classGCS__MAVLINK__Copter.html#afe85f88545dfa66f9100ed341cf5f79b" target="_top" xlink:title="GCS_MAVLINK_Copter\l::handleMessage">
<polygon fill="white" stroke="black" points="591,-19.5 591,-49.5 713,-49.5 713,-19.5 591,-19.5"/>
<text text-anchor="start" x="599" y="-37.5" font-family="Helvetica,sans-Serif" font-size="10.00">GCS_MAVLINK_Copter</text>
<text text-anchor="middle" x="652" y="-26.5" font-family="Helvetica,sans-Serif" font-size="10.00">::handleMessage</text>
</a>
</g>
</g>
<!-- Node5&#45;&gt;Node6 -->
<g id="edge5" class="edge"><title>Node5&#45;&gt;Node6</title>
<path fill="none" stroke="midnightblue" d="M565.61,-34.5C574.057,-34.5 582.651,-34.5 590.972,-34.5"/>
<polygon fill="midnightblue" stroke="midnightblue" points="565.407,-31.0001 555.407,-34.5 565.407,-38.0001 565.407,-31.0001"/>
</g>
</g>
</svg>
        <g id="navigator" transform="translate(0 0)" fill="#404254">
                <rect fill="#f2f5e9" fill-opacity="0.5" stroke="#606060" stroke-width=".5" x="0" y="0" width="60" height="60"/>
                <use id="zoomplus" xlink:href="#zoomPlus" x="17" y="9" onmousedown="handleZoom(evt,'in')"/>
                <use id="zoomminus" xlink:href="#zoomMin" x="42" y="9" onmousedown="handleZoom(evt,'out')"/>
                <use id="reset" xlink:href="#resetDef" x="30" y="36" onmousedown="handleReset()"/>
                <g id="arrowUp" xlink:href="#dirArrow" transform="translate(30 24)" onmousedown="handlePan(0,-1)">
                  <use xlink:href="#rim" fill="#404040">
                        <set attributeName="fill" to="#808080" begin="arrowUp.mouseover" end="arrowUp.mouseout"/>
                  </use>
                  <path fill="none" stroke="white" stroke-width="1.5" d="M0,-3.0v7 M-2.5,-0.5L0,-3.0L2.5,-0.5"/>
                </g>
                <g id="arrowRight" xlink:href="#dirArrow" transform="rotate(90) translate(36 -43)" onmousedown="handlePan(1,0)">
                  <use xlink:href="#rim" fill="#404040">
                        <set attributeName="fill" to="#808080" begin="arrowRight.mouseover" end="arrowRight.mouseout"/>
                  </use>
                  <path fill="none" stroke="white" stroke-width="1.5" d="M0,-3.0v7 M-2.5,-0.5L0,-3.0L2.5,-0.5"/>
                </g>
                <g id="arrowDown" xlink:href="#dirArrow" transform="rotate(180) translate(-30 -48)" onmousedown="handlePan(0,1)">
                  <use xlink:href="#rim" fill="#404040">
                        <set attributeName="fill" to="#808080" begin="arrowDown.mouseover" end="arrowDown.mouseout"/>
                  </use>
                  <path fill="none" stroke="white" stroke-width="1.5" d="M0,-3.0v7 M-2.5,-0.5L0,-3.0L2.5,-0.5"/>
                </g>
                <g id="arrowLeft" xlink:href="#dirArrow" transform="rotate(270) translate(-36 17)" onmousedown="handlePan(-1,0)">
                  <use xlink:href="#rim" fill="#404040">
                        <set attributeName="fill" to="#808080" begin="arrowLeft.mouseover" end="arrowLeft.mouseout"/>
                  </use>
                  <path fill="none" stroke="white" stroke-width="1.5" d="M0,-3.0v7 M-2.5,-0.5L0,-3.0L2.5,-0.5"/>
                </g>
        </g>
        <svg viewBox="0 0 15 15" width="100%" height="30px" preserveAspectRatio="xMaxYMin meet">
         <g id="arrow_out" transform="scale(0.3 0.3)">
          <a xlink:href="classCopter_ac931294c224169ea64d2c693d807c7e3_icgraph_org.svg" target="_base">
           <rect id="button" ry="5" rx="5" y="6" x="6" height="38" width="38"
                fill="#f2f5e9" fill-opacity="0.5" stroke="#606060" stroke-width="1.0"/>
           <path id="arrow"
             d="M 11.500037,31.436501 C 11.940474,20.09759 22.043105,11.32322 32.158766,21.979434 L 37.068811,17.246167 C 37.068811,17.246167 37.088388,32 37.088388,32 L 22.160133,31.978069 C 22.160133,31.978069 26.997745,27.140456 26.997745,27.140456 C 18.528582,18.264221 13.291696,25.230495 11.500037,31.436501 z"
             style="fill:#404040;"/>
          </a>
         </g>
        </svg>
</svg>
