<?xml version="1.0" encoding="UTF-8" standalone="no"?>
<!DOCTYPE svg PUBLIC "-//W3C//DTD SVG 1.1//EN"
 "http://www.w3.org/Graphics/SVG/1.1/DTD/svg11.dtd">
<!-- Generated by graphviz version 2.38.0 (20140413.2041)
 -->
<!-- Title: AP_Arming_Copter::gps_checks Pages: 1 -->
<svg width="501pt" height="329pt"
 viewBox="0.00 0.00 501.00 329.00" xmlns="http://www.w3.org/2000/svg" xmlns:xlink="http://www.w3.org/1999/xlink">
<g id="graph0" class="graph" transform="scale(1 1) rotate(0) translate(4 325)">
<title>AP_Arming_Copter::gps_checks</title>
<polygon fill="white" stroke="none" points="-4,4 -4,-325 497,-325 497,4 -4,4"/>
<!-- Node1 -->
<g id="node1" class="node"><title>Node1</title>
<polygon fill="#bfbfbf" stroke="black" points="0,-137 0,-167 122,-167 122,-137 0,-137"/>
<text text-anchor="start" x="8" y="-155" font-family="Helvetica,sans-Serif" font-size="10.00">AP_Arming_Copter::gps</text>
<text text-anchor="middle" x="61" y="-144" font-family="Helvetica,sans-Serif" font-size="10.00">_checks</text>
</g>
<!-- Node2 -->
<g id="node2" class="node"><title>Node2</title>
<g id="a_node2"><a xlink:href="classAP__Arming__Copter.html#a0f90a6d09c71ab38aaf0ca5c122e2568" target="_top" xlink:title="AP_Arming_Copter::pre\l_arm_gps_checks">
<polygon fill="white" stroke="black" points="158,-137 158,-167 278,-167 278,-137 158,-137"/>
<text text-anchor="start" x="166" y="-155" font-family="Helvetica,sans-Serif" font-size="10.00">AP_Arming_Copter::pre</text>
<text text-anchor="middle" x="218" y="-144" font-family="Helvetica,sans-Serif" font-size="10.00">_arm_gps_checks</text>
</a>
</g>
</g>
<!-- Node1&#45;&gt;Node2 -->
<g id="edge1" class="edge"><title>Node1&#45;&gt;Node2</title>
<path fill="none" stroke="midnightblue" d="M122.371,-152C130.65,-152 139.204,-152 147.628,-152"/>
<polygon fill="midnightblue" stroke="midnightblue" points="147.812,-155.5 157.812,-152 147.812,-148.5 147.812,-155.5"/>
</g>
<!-- Node3 -->
<g id="node3" class="node"><title>Node3</title>
<g id="a_node3"><a doxygen="/home/ubuntu/ardupilot/docs/tags/libraries:../libraries/" xlink:href="../libraries/classAP__AHRS.html#a073c1681e70b1505eb1c6ffb81d93f0a" target="_top" xlink:title="AP_AHRS::healthy">
<polygon fill="white" stroke="black" points="353,-301.5 353,-320.5 454,-320.5 454,-301.5 353,-301.5"/>
<text text-anchor="middle" x="403.5" y="-308.5" font-family="Helvetica,sans-Serif" font-size="10.00">AP_AHRS::healthy</text>
</a>
</g>
</g>
<!-- Node2&#45;&gt;Node3 -->
<g id="edge2" class="edge"><title>Node2&#45;&gt;Node3</title>
<path fill="none" stroke="midnightblue" d="M224.703,-167.053C236.555,-196.175 266.746,-260.153 314,-292 322.69,-297.857 332.858,-301.952 343.145,-304.805"/>
<polygon fill="midnightblue" stroke="midnightblue" points="342.458,-308.24 352.999,-307.177 344.096,-301.434 342.458,-308.24"/>
</g>
<!-- Node4 -->
<g id="node4" class="node"><title>Node4</title>
<g id="a_node4"><a xlink:href="classAP__Arming__Copter.html#a4f4518732abf63d1ba6834f33ac61424" target="_top" xlink:title="AP_Arming_Copter::gcs\l_send_text">
<polygon fill="white" stroke="black" points="342.5,-252 342.5,-282 464.5,-282 464.5,-252 342.5,-252"/>
<text text-anchor="start" x="350.5" y="-270" font-family="Helvetica,sans-Serif" font-size="10.00">AP_Arming_Copter::gcs</text>
<text text-anchor="middle" x="403.5" y="-259" font-family="Helvetica,sans-Serif" font-size="10.00">_send_text</text>
</a>
</g>
</g>
<!-- Node2&#45;&gt;Node4 -->
<g id="edge3" class="edge"><title>Node2&#45;&gt;Node4</title>
<path fill="none" stroke="midnightblue" d="M230.781,-167.312C247.225,-187.628 279.005,-223.224 314,-243 319.867,-246.315 326.213,-249.19 332.719,-251.68"/>
<polygon fill="midnightblue" stroke="midnightblue" points="331.735,-255.044 342.33,-255.058 334.056,-248.44 331.735,-255.044"/>
</g>
<!-- Node5 -->
<g id="node5" class="node"><title>Node5</title>
<g id="a_node5"><a doxygen="/home/ubuntu/ardupilot/docs/tags/libraries:../libraries/" xlink:href="../libraries/classAP__AHRS.html#ac6ec5d9d0afa58bb4d661b7dfe635f60" target="_top" xlink:title="AP_AHRS::prearm_failure\l_reason">
<polygon fill="white" stroke="black" points="338,-203 338,-233 469,-233 469,-203 338,-203"/>
<text text-anchor="start" x="346" y="-221" font-family="Helvetica,sans-Serif" font-size="10.00">AP_AHRS::prearm_failure</text>
<text text-anchor="middle" x="403.5" y="-210" font-family="Helvetica,sans-Serif" font-size="10.00">_reason</text>
</a>
</g>
</g>
<!-- Node2&#45;&gt;Node5 -->
<g id="edge4" class="edge"><title>Node2&#45;&gt;Node5</title>
<path fill="none" stroke="midnightblue" d="M251.113,-167.118C269.325,-175.372 292.672,-185.423 314,-193 320.826,-195.425 328.013,-197.776 335.218,-200.003"/>
<polygon fill="midnightblue" stroke="midnightblue" points="334.438,-203.423 345.023,-202.958 336.458,-196.721 334.438,-203.423"/>
</g>
<!-- Node6 -->
<g id="node6" class="node"><title>Node6</title>
<g id="a_node6"><a doxygen="/home/ubuntu/ardupilot/docs/tags/libraries:../libraries/" xlink:href="../libraries/classGCS__MAVLINK.html#ae1d5ebd46ec3ddb644862c747e2968bf" target="_top" xlink:title="GCS_MAVLINK::send_statustext_all">
<polygon fill="white" stroke="black" points="314,-164.5 314,-183.5 493,-183.5 493,-164.5 314,-164.5"/>
<text text-anchor="middle" x="403.5" y="-171.5" font-family="Helvetica,sans-Serif" font-size="10.00">GCS_MAVLINK::send_statustext_all</text>
</a>
</g>
</g>
<!-- Node2&#45;&gt;Node6 -->
<g id="edge5" class="edge"><title>Node2&#45;&gt;Node6</title>
<path fill="none" stroke="midnightblue" d="M278.071,-159.082C289.284,-160.426 301.247,-161.861 313.156,-163.288"/>
<polygon fill="midnightblue" stroke="midnightblue" points="312.784,-166.769 323.129,-164.484 313.617,-159.819 312.784,-166.769"/>
</g>
<!-- Node7 -->
<g id="node7" class="node"><title>Node7</title>
<g id="a_node7"><a doxygen="/home/ubuntu/ardupilot/docs/tags/libraries:../libraries/" xlink:href="../libraries/classAP__AHRS__NavEKF.html#a8a8a068e7c75638f80416b1a8e963442" target="_top" xlink:title="AP_AHRS_NavEKF::get\l_variances">
<polygon fill="white" stroke="black" points="340.5,-115 340.5,-145 466.5,-145 466.5,-115 340.5,-115"/>
<text text-anchor="start" x="348.5" y="-133" font-family="Helvetica,sans-Serif" font-size="10.00">AP_AHRS_NavEKF::get</text>
<text text-anchor="middle" x="403.5" y="-122" font-family="Helvetica,sans-Serif" font-size="10.00">_variances</text>
</a>
</g>
</g>
<!-- Node2&#45;&gt;Node7 -->
<g id="edge6" class="edge"><title>Node2&#45;&gt;Node7</title>
<path fill="none" stroke="midnightblue" d="M278.071,-144.918C294.711,-142.923 313.002,-140.73 330.317,-138.654"/>
<polygon fill="midnightblue" stroke="midnightblue" points="330.867,-142.113 340.379,-137.448 330.034,-135.163 330.867,-142.113"/>
</g>
<!-- Node8 -->
<g id="node8" class="node"><title>Node8</title>
<g id="a_node8"><a doxygen="/home/ubuntu/ardupilot/docs/tags/libraries:../libraries/" xlink:href="../libraries/classVector3.html#ac1fd5514e368a1e1c2d13f71eda18345" target="_top" xlink:title="Vector3\&lt; float \&gt;::length">
<polygon fill="white" stroke="black" points="344,-76.5 344,-95.5 463,-95.5 463,-76.5 344,-76.5"/>
<text text-anchor="middle" x="403.5" y="-83.5" font-family="Helvetica,sans-Serif" font-size="10.00">Vector3&lt; float &gt;::length</text>
</a>
</g>
</g>
<!-- Node2&#45;&gt;Node8 -->
<g id="edge7" class="edge"><title>Node2&#45;&gt;Node8</title>
<path fill="none" stroke="midnightblue" d="M246.138,-136.797C264.763,-126.883 290.304,-114.292 314,-106 322.626,-102.982 331.887,-100.304 341.053,-97.9683"/>
<polygon fill="midnightblue" stroke="midnightblue" points="342.037,-101.331 350.927,-95.5674 340.383,-94.5293 342.037,-101.331"/>
</g>
<!-- Node9 -->
<g id="node9" class="node"><title>Node9</title>
<g id="a_node9"><a doxygen="/home/ubuntu/ardupilot/docs/tags/libraries:../libraries/" xlink:href="../libraries/classAP__AHRS.html#aea45b16e6469a3b392b8bf52fb864732" target="_top" xlink:title="AP_AHRS::get_home">
<polygon fill="white" stroke="black" points="347,-38.5 347,-57.5 460,-57.5 460,-38.5 347,-38.5"/>
<text text-anchor="middle" x="403.5" y="-45.5" font-family="Helvetica,sans-Serif" font-size="10.00">AP_AHRS::get_home</text>
</a>
</g>
</g>
<!-- Node2&#45;&gt;Node9 -->
<g id="edge8" class="edge"><title>Node2&#45;&gt;Node9</title>
<path fill="none" stroke="midnightblue" d="M231.433,-136.799C248.126,-117.455 279.679,-84.4635 314,-67 321.169,-63.3521 329.01,-60.4033 336.966,-58.02"/>
<polygon fill="midnightblue" stroke="midnightblue" points="337.956,-61.3782 346.692,-55.3843 336.125,-54.6219 337.956,-61.3782"/>
</g>
<!-- Node10 -->
<g id="node10" class="node"><title>Node10</title>
<g id="a_node10"><a doxygen="/home/ubuntu/ardupilot/docs/tags/libraries:../libraries/" xlink:href="../libraries/classAP__Arming.html#a3e31fe40e0d7d0e6befd2f82dd6b5a6d" target="_top" xlink:title="AP_Arming::gps_checks">
<polygon fill="white" stroke="black" points="341,-0.5 341,-19.5 466,-19.5 466,-0.5 341,-0.5"/>
<text text-anchor="middle" x="403.5" y="-7.5" font-family="Helvetica,sans-Serif" font-size="10.00">AP_Arming::gps_checks</text>
</a>
</g>
</g>
<!-- Node2&#45;&gt;Node10 -->
<g id="edge9" class="edge"><title>Node2&#45;&gt;Node10</title>
<path fill="none" stroke="midnightblue" d="M226.25,-136.722C239.636,-110.273 270.856,-56.1879 314,-29 319.322,-25.6461 325.144,-22.8766 331.179,-20.5906"/>
<polygon fill="midnightblue" stroke="midnightblue" points="332.418,-23.8668 340.796,-17.3819 330.203,-17.2266 332.418,-23.8668"/>
</g>
</g>
</svg>
