<?xml version="1.0" encoding="UTF-8" standalone="no"?>
<!DOCTYPE svg PUBLIC "-//W3C//DTD SVG 1.1//EN"
 "http://www.w3.org/Graphics/SVG/1.1/DTD/svg11.dtd">
<!-- Generated by graphviz version 2.38.0 (20140413.2041)
 -->
<!-- Title: Copter::do_nav_delay Pages: 1 -->
<svg width="449pt" height="161pt"
 viewBox="0.00 0.00 449.00 161.00" xmlns="http://www.w3.org/2000/svg" xmlns:xlink="http://www.w3.org/1999/xlink">
<g id="graph0" class="graph" transform="scale(1 1) rotate(0) translate(4 157)">
<title>Copter::do_nav_delay</title>
<polygon fill="white" stroke="none" points="-4,4 -4,-157 445,-157 445,4 -4,4"/>
<!-- Node1 -->
<g id="node1" class="node"><title>Node1</title>
<polygon fill="#bfbfbf" stroke="black" points="0,-95.5 0,-114.5 112,-114.5 112,-95.5 0,-95.5"/>
<text text-anchor="middle" x="56" y="-102.5" font-family="Helvetica,sans-Serif" font-size="10.00">Copter::do_nav_delay</text>
</g>
<!-- Node2 -->
<g id="node2" class="node"><title>Node2</title>
<g id="a_node2"><a doxygen="/home/ubuntu/ardupilot/docs/tags/libraries:../libraries/" xlink:href="../libraries/namespaceAP__HAL.html#a77dffbb18891996280308e21316ec186" target="_top" xlink:title="millis">
<polygon fill="white" stroke="black" points="197.5,-133.5 197.5,-152.5 236.5,-152.5 236.5,-133.5 197.5,-133.5"/>
<text text-anchor="middle" x="217" y="-140.5" font-family="Helvetica,sans-Serif" font-size="10.00">millis</text>
</a>
</g>
</g>
<!-- Node1&#45;&gt;Node2 -->
<g id="edge1" class="edge"><title>Node1&#45;&gt;Node2</title>
<path fill="none" stroke="midnightblue" d="M97.1224,-114.589C125.296,-121.322 162.298,-130.166 187.487,-136.185"/>
<polygon fill="midnightblue" stroke="midnightblue" points="186.959,-139.658 197.498,-138.578 188.586,-132.85 186.959,-139.658"/>
</g>
<!-- Node3 -->
<g id="node3" class="node"><title>Node3</title>
<g id="a_node3"><a doxygen="/home/ubuntu/ardupilot/docs/tags/libraries:../libraries/" xlink:href="../libraries/classAP__HAL_1_1Util.html#ac7161d1bc0f8e7ae7c35f1f732b3fc67" target="_top" xlink:title="AP_HAL::Util::get_time_utc">
<polygon fill="white" stroke="black" points="148,-95.5 148,-114.5 286,-114.5 286,-95.5 148,-95.5"/>
<text text-anchor="middle" x="217" y="-102.5" font-family="Helvetica,sans-Serif" font-size="10.00">AP_HAL::Util::get_time_utc</text>
</a>
</g>
</g>
<!-- Node1&#45;&gt;Node3 -->
<g id="edge2" class="edge"><title>Node1&#45;&gt;Node3</title>
<path fill="none" stroke="midnightblue" d="M112.164,-105C120.416,-105 129.055,-105 137.675,-105"/>
<polygon fill="midnightblue" stroke="midnightblue" points="137.762,-108.5 147.762,-105 137.762,-101.5 137.762,-108.5"/>
</g>
<!-- Node4 -->
<g id="node4" class="node"><title>Node4</title>
<g id="a_node4"><a xlink:href="classCopter.html#ade04c0f3d989c3b0089dc3e733ed5dfd" target="_top" xlink:title="Copter::gcs_send_text_fmt">
<polygon fill="white" stroke="black" points="149.5,-57.5 149.5,-76.5 284.5,-76.5 284.5,-57.5 149.5,-57.5"/>
<text text-anchor="middle" x="217" y="-64.5" font-family="Helvetica,sans-Serif" font-size="10.00">Copter::gcs_send_text_fmt</text>
</a>
</g>
</g>
<!-- Node1&#45;&gt;Node4 -->
<g id="edge3" class="edge"><title>Node1&#45;&gt;Node4</title>
<path fill="none" stroke="midnightblue" d="M97.1224,-95.411C118.104,-90.3965 143.982,-84.2119 166.23,-78.8947"/>
<polygon fill="midnightblue" stroke="midnightblue" points="167.254,-82.2487 176.166,-76.5201 165.626,-75.4405 167.254,-82.2487"/>
</g>
<!-- Node5 -->
<g id="node5" class="node"><title>Node5</title>
<g id="a_node5"><a doxygen="/home/ubuntu/ardupilot/docs/tags/libraries:../libraries/" xlink:href="../libraries/classAP__HAL_1_1Util.html#ac57ef0a9815cd597ad5cab5d6c31c6c8" target="_top" xlink:title="AP_HAL::Util::vsnprintf">
<polygon fill="white" stroke="black" points="322,-114.5 322,-133.5 441,-133.5 441,-114.5 322,-114.5"/>
<text text-anchor="middle" x="381.5" y="-121.5" font-family="Helvetica,sans-Serif" font-size="10.00">AP_HAL::Util::vsnprintf</text>
</a>
</g>
</g>
<!-- Node4&#45;&gt;Node5 -->
<g id="edge4" class="edge"><title>Node4&#45;&gt;Node5</title>
<path fill="none" stroke="midnightblue" d="M257.668,-76.5498C267.084,-79.2357 277.004,-82.4168 286,-86 302.808,-92.6945 305.335,-97.9576 322,-105 327.103,-107.156 332.539,-109.219 337.965,-111.137"/>
<polygon fill="midnightblue" stroke="midnightblue" points="337.051,-114.523 347.646,-114.423 339.302,-107.895 337.051,-114.523"/>
</g>
<!-- Node6 -->
<g id="node6" class="node"><title>Node6</title>
<g id="a_node6"><a xlink:href="classCopter.html#a503a0d6127a35aba92d850dca874991e" target="_top" xlink:title="Copter::gcs">
<polygon fill="white" stroke="black" points="347.5,-76.5 347.5,-95.5 415.5,-95.5 415.5,-76.5 347.5,-76.5"/>
<text text-anchor="middle" x="381.5" y="-83.5" font-family="Helvetica,sans-Serif" font-size="10.00">Copter::gcs</text>
</a>
</g>
</g>
<!-- Node4&#45;&gt;Node6 -->
<g id="edge5" class="edge"><title>Node4&#45;&gt;Node6</title>
<path fill="none" stroke="midnightblue" d="M284.564,-74.7828C302.251,-76.8509 320.899,-79.0313 337.003,-80.9142"/>
<polygon fill="midnightblue" stroke="midnightblue" points="336.843,-84.4193 347.182,-82.1044 337.656,-77.4666 336.843,-84.4193"/>
</g>
<!-- Node7 -->
<g id="node7" class="node"><title>Node7</title>
<g id="a_node7"><a doxygen="/home/ubuntu/ardupilot/docs/tags/libraries:../libraries/" xlink:href="../libraries/classGCS.html#a313e604179053ea42415b1c9289f13cd" target="_top" xlink:title="GCS::send_statustext">
<polygon fill="white" stroke="black" points="324.5,-38.5 324.5,-57.5 438.5,-57.5 438.5,-38.5 324.5,-38.5"/>
<text text-anchor="middle" x="381.5" y="-45.5" font-family="Helvetica,sans-Serif" font-size="10.00">GCS::send_statustext</text>
</a>
</g>
</g>
<!-- Node4&#45;&gt;Node7 -->
<g id="edge6" class="edge"><title>Node4&#45;&gt;Node7</title>
<path fill="none" stroke="midnightblue" d="M284.564,-59.2172C294.387,-58.0686 304.506,-56.8855 314.321,-55.7379"/>
<polygon fill="midnightblue" stroke="midnightblue" points="314.888,-59.1955 324.414,-54.5577 314.075,-52.2428 314.888,-59.1955"/>
</g>
<!-- Node8 -->
<g id="node8" class="node"><title>Node8</title>
<g id="a_node8"><a doxygen="/home/ubuntu/ardupilot/docs/tags/libraries:../libraries/" xlink:href="../libraries/classAP__Notify.html#a0f38b9b4be211e200675dd048c81f500" target="_top" xlink:title="AP_Notify::send_text">
<polygon fill="white" stroke="black" points="326.5,-0.5 326.5,-19.5 436.5,-19.5 436.5,-0.5 326.5,-0.5"/>
<text text-anchor="middle" x="381.5" y="-7.5" font-family="Helvetica,sans-Serif" font-size="10.00">AP_Notify::send_text</text>
</a>
</g>
</g>
<!-- Node4&#45;&gt;Node8 -->
<g id="edge7" class="edge"><title>Node4&#45;&gt;Node8</title>
<path fill="none" stroke="midnightblue" d="M243.552,-57.3705C264.548,-49.5287 295.105,-38.2776 322,-29 328.028,-26.9204 334.428,-24.7772 340.697,-22.7131"/>
<polygon fill="midnightblue" stroke="midnightblue" points="341.949,-25.9861 350.369,-19.5552 339.777,-19.3317 341.949,-25.9861"/>
</g>
</g>
</svg>
