<?xml version="1.0" encoding="UTF-8" standalone="no"?>
<!DOCTYPE svg PUBLIC "-//W3C//DTD SVG 1.1//EN"
 "http://www.w3.org/Graphics/SVG/1.1/DTD/svg11.dtd">
<!-- Generated by graphviz version 2.38.0 (20140413.2041)
 -->
<!-- Title: Copter::erase_logs Pages: 1 -->
<svg width="579pt" height="104pt"
 viewBox="0.00 0.00 579.00 104.00" xmlns="http://www.w3.org/2000/svg" xmlns:xlink="http://www.w3.org/1999/xlink">
<g id="graph0" class="graph" transform="scale(1 1) rotate(0) translate(4 100)">
<title>Copter::erase_logs</title>
<polygon fill="white" stroke="none" points="-4,4 -4,-100 575,-100 575,4 -4,4"/>
<!-- Node1 -->
<g id="node1" class="node"><title>Node1</title>
<polygon fill="#bfbfbf" stroke="black" points="0,-19.5 0,-38.5 99,-38.5 99,-19.5 0,-19.5"/>
<text text-anchor="middle" x="49.5" y="-26.5" font-family="Helvetica,sans-Serif" font-size="10.00">Copter::erase_logs</text>
</g>
<!-- Node2 -->
<g id="node2" class="node"><title>Node2</title>
<g id="a_node2"><a xlink:href="classCopter.html#ab85540e9112d8edf1c97a3a1b6c389ac" target="_top" xlink:title="Copter::do_erase_logs">
<polygon fill="white" stroke="black" points="135,-19.5 135,-38.5 250,-38.5 250,-19.5 135,-19.5"/>
<text text-anchor="middle" x="192.5" y="-26.5" font-family="Helvetica,sans-Serif" font-size="10.00">Copter::do_erase_logs</text>
</a>
</g>
</g>
<!-- Node1&#45;&gt;Node2 -->
<g id="edge1" class="edge"><title>Node1&#45;&gt;Node2</title>
<path fill="none" stroke="midnightblue" d="M99.0242,-29C107.269,-29 115.96,-29 124.578,-29"/>
<polygon fill="midnightblue" stroke="midnightblue" points="124.633,-32.5001 134.632,-29 124.632,-25.5001 124.633,-32.5001"/>
</g>
<!-- Node3 -->
<g id="node3" class="node"><title>Node3</title>
<g id="a_node3"><a xlink:href="classCopter.html#a73aac58305314cfc42f77e969fdbdaee" target="_top" xlink:title="Copter::gcs_send_text">
<polygon fill="white" stroke="black" points="295.5,-38.5 295.5,-57.5 411.5,-57.5 411.5,-38.5 295.5,-38.5"/>
<text text-anchor="middle" x="353.5" y="-45.5" font-family="Helvetica,sans-Serif" font-size="10.00">Copter::gcs_send_text</text>
</a>
</g>
</g>
<!-- Node2&#45;&gt;Node3 -->
<g id="edge2" class="edge"><title>Node2&#45;&gt;Node3</title>
<path fill="none" stroke="midnightblue" d="M250.005,-35.7522C261.396,-37.1134 273.477,-38.5569 285.195,-39.9572"/>
<polygon fill="midnightblue" stroke="midnightblue" points="285.028,-43.4621 295.373,-41.1735 285.859,-36.5116 285.028,-43.4621"/>
</g>
<!-- Node7 -->
<g id="node7" class="node"><title>Node7</title>
<g id="a_node7"><a doxygen="/home/ubuntu/ardupilot/docs/tags/libraries:../libraries/" xlink:href="../libraries/classDataFlash__Class.html#a53a4a975a3813e9f58ddaaa3b5865a4a" target="_top" xlink:title="DataFlash_Class::EraseAll">
<polygon fill="white" stroke="black" points="286,-0.5 286,-19.5 421,-19.5 421,-0.5 286,-0.5"/>
<text text-anchor="middle" x="353.5" y="-7.5" font-family="Helvetica,sans-Serif" font-size="10.00">DataFlash_Class::EraseAll</text>
</a>
</g>
</g>
<!-- Node2&#45;&gt;Node7 -->
<g id="edge6" class="edge"><title>Node2&#45;&gt;Node7</title>
<path fill="none" stroke="midnightblue" d="M250.005,-22.2478C258.345,-21.2512 267.055,-20.2104 275.722,-19.1748"/>
<polygon fill="midnightblue" stroke="midnightblue" points="276.337,-22.6263 285.851,-17.9644 275.506,-15.6757 276.337,-22.6263"/>
</g>
<!-- Node4 -->
<g id="node4" class="node"><title>Node4</title>
<g id="a_node4"><a xlink:href="classCopter.html#a503a0d6127a35aba92d850dca874991e" target="_top" xlink:title="Copter::gcs">
<polygon fill="white" stroke="black" points="480,-76.5 480,-95.5 548,-95.5 548,-76.5 480,-76.5"/>
<text text-anchor="middle" x="514" y="-83.5" font-family="Helvetica,sans-Serif" font-size="10.00">Copter::gcs</text>
</a>
</g>
</g>
<!-- Node3&#45;&gt;Node4 -->
<g id="edge3" class="edge"><title>Node3&#45;&gt;Node4</title>
<path fill="none" stroke="midnightblue" d="M394.496,-57.589C417.607,-63.1297 446.675,-70.0987 470.238,-75.7479"/>
<polygon fill="midnightblue" stroke="midnightblue" points="469.426,-79.1523 479.966,-78.0802 471.058,-72.3452 469.426,-79.1523"/>
</g>
<!-- Node5 -->
<g id="node5" class="node"><title>Node5</title>
<g id="a_node5"><a doxygen="/home/ubuntu/ardupilot/docs/tags/libraries:../libraries/" xlink:href="../libraries/classGCS.html#a313e604179053ea42415b1c9289f13cd" target="_top" xlink:title="GCS::send_statustext">
<polygon fill="white" stroke="black" points="457,-38.5 457,-57.5 571,-57.5 571,-38.5 457,-38.5"/>
<text text-anchor="middle" x="514" y="-45.5" font-family="Helvetica,sans-Serif" font-size="10.00">GCS::send_statustext</text>
</a>
</g>
</g>
<!-- Node3&#45;&gt;Node5 -->
<g id="edge4" class="edge"><title>Node3&#45;&gt;Node5</title>
<path fill="none" stroke="midnightblue" d="M411.722,-48C423.107,-48 435.15,-48 446.807,-48"/>
<polygon fill="midnightblue" stroke="midnightblue" points="446.924,-51.5001 456.924,-48 446.924,-44.5001 446.924,-51.5001"/>
</g>
<!-- Node6 -->
<g id="node6" class="node"><title>Node6</title>
<g id="a_node6"><a doxygen="/home/ubuntu/ardupilot/docs/tags/libraries:../libraries/" xlink:href="../libraries/classAP__Notify.html#a0f38b9b4be211e200675dd048c81f500" target="_top" xlink:title="AP_Notify::send_text">
<polygon fill="white" stroke="black" points="459,-0.5 459,-19.5 569,-19.5 569,-0.5 459,-0.5"/>
<text text-anchor="middle" x="514" y="-7.5" font-family="Helvetica,sans-Serif" font-size="10.00">AP_Notify::send_text</text>
</a>
</g>
</g>
<!-- Node3&#45;&gt;Node6 -->
<g id="edge5" class="edge"><title>Node3&#45;&gt;Node6</title>
<path fill="none" stroke="midnightblue" d="M394.496,-38.411C415.412,-33.3965 441.208,-27.2119 463.386,-21.8947"/>
<polygon fill="midnightblue" stroke="midnightblue" points="464.383,-25.2551 473.291,-19.5201 462.751,-18.448 464.383,-25.2551"/>
</g>
</g>
</svg>
