<?xml version="1.0" encoding="UTF-8" standalone="no"?>
<!DOCTYPE svg PUBLIC "-//W3C//DTD SVG 1.1//EN"
 "http://www.w3.org/Graphics/SVG/1.1/DTD/svg11.dtd">
<!-- Generated by graphviz version 2.38.0 (20140413.2041)
 -->
<!-- Title: Copter::terrain_adjusted_location Pages: 1 -->
<svg width="269pt" height="88pt"
 viewBox="0.00 0.00 269.00 88.00" xmlns="http://www.w3.org/2000/svg" xmlns:xlink="http://www.w3.org/1999/xlink">
<g id="graph0" class="graph" transform="scale(1 1) rotate(0) translate(4 84)">
<title>Copter::terrain_adjusted_location</title>
<polygon fill="white" stroke="none" points="-4,4 -4,-84 265,-84 265,4 -4,4"/>
<!-- Node1 -->
<g id="node1" class="node"><title>Node1</title>
<polygon fill="#bfbfbf" stroke="black" points="0,-24.5 0,-54.5 121,-54.5 121,-24.5 0,-24.5"/>
<text text-anchor="start" x="8" y="-42.5" font-family="Helvetica,sans-Serif" font-size="10.00">Copter::terrain_adjusted</text>
<text text-anchor="middle" x="60.5" y="-31.5" font-family="Helvetica,sans-Serif" font-size="10.00">_location</text>
</g>
<!-- Node2 -->
<g id="node2" class="node"><title>Node2</title>
<g id="a_node2"><a doxygen="/home/ubuntu/ardupilot/docs/tags/libraries:../libraries/" xlink:href="../libraries/classLocation__Class.html#a94d8de310c8bdf8441c367e90d6b3f90" target="_top" xlink:title="Location_Class::get\l_alt_cm">
<polygon fill="white" stroke="black" points="157,-49.5 157,-79.5 261,-79.5 261,-49.5 157,-49.5"/>
<text text-anchor="start" x="165" y="-67.5" font-family="Helvetica,sans-Serif" font-size="10.00">Location_Class::get</text>
<text text-anchor="middle" x="209" y="-56.5" font-family="Helvetica,sans-Serif" font-size="10.00">_alt_cm</text>
</a>
</g>
</g>
<!-- Node1&#45;&gt;Node2 -->
<g id="edge1" class="edge"><title>Node1&#45;&gt;Node2</title>
<path fill="none" stroke="midnightblue" d="M121.087,-49.6685C129.628,-51.1259 138.425,-52.6272 146.993,-54.0892"/>
<polygon fill="midnightblue" stroke="midnightblue" points="146.469,-57.5504 156.916,-55.7825 147.647,-50.6502 146.469,-57.5504"/>
</g>
<!-- Node3 -->
<g id="node3" class="node"><title>Node3</title>
<g id="a_node3"><a doxygen="/home/ubuntu/ardupilot/docs/tags/libraries:../libraries/" xlink:href="../libraries/classLocation__Class.html#aff103f070bc251c2d9cce733b4bc6027" target="_top" xlink:title="Location_Class::set\l_alt_cm">
<polygon fill="white" stroke="black" points="157,-0.5 157,-30.5 261,-30.5 261,-0.5 157,-0.5"/>
<text text-anchor="start" x="165" y="-18.5" font-family="Helvetica,sans-Serif" font-size="10.00">Location_Class::set</text>
<text text-anchor="middle" x="209" y="-7.5" font-family="Helvetica,sans-Serif" font-size="10.00">_alt_cm</text>
</a>
</g>
</g>
<!-- Node1&#45;&gt;Node3 -->
<g id="edge2" class="edge"><title>Node1&#45;&gt;Node3</title>
<path fill="none" stroke="midnightblue" d="M121.087,-29.7383C129.628,-28.3391 138.425,-26.8979 146.993,-25.4943"/>
<polygon fill="midnightblue" stroke="midnightblue" points="147.613,-28.9395 156.916,-23.8688 146.481,-22.0316 147.613,-28.9395"/>
</g>
</g>
</svg>
