<?xml version="1.0" encoding="UTF-8" standalone="no"?>
<!DOCTYPE svg PUBLIC "-//W3C//DTD SVG 1.1//EN"
 "http://www.w3.org/Graphics/SVG/1.1/DTD/svg11.dtd">
<!-- Generated by graphviz version 2.38.0 (20140413.2041)
 -->
<!-- Title: Copter::allocate_motors Pages: 1 -->
<svg width="480pt" height="740pt"
 viewBox="0.00 0.00 480.00 740.00" xmlns="http://www.w3.org/2000/svg" xmlns:xlink="http://www.w3.org/1999/xlink">
<g id="graph0" class="graph" transform="scale(1 1) rotate(0) translate(4 736)">
<title>Copter::allocate_motors</title>
<polygon fill="white" stroke="none" points="-4,4 -4,-736 476,-736 476,4 -4,4"/>
<!-- Node1 -->
<g id="node1" class="node"><title>Node1</title>
<polygon fill="#bfbfbf" stroke="black" points="0,-367 0,-386 121,-386 121,-367 0,-367"/>
<text text-anchor="middle" x="60.5" y="-374" font-family="Helvetica,sans-Serif" font-size="10.00">Copter::allocate_motors</text>
</g>
<!-- Node2 -->
<g id="node2" class="node"><title>Node2</title>
<g id="a_node2"><a doxygen="/home/ubuntu/ardupilot/docs/tags/libraries:../libraries/" xlink:href="../libraries/classAP__Param.html#a4d7af345dbbcabc337089cbebc2aea32" target="_top" xlink:title="AP_Param::set_frame\l_type_flags">
<polygon fill="white" stroke="black" points="177.5,-701.5 177.5,-731.5 290.5,-731.5 290.5,-701.5 177.5,-701.5"/>
<text text-anchor="start" x="185.5" y="-719.5" font-family="Helvetica,sans-Serif" font-size="10.00">AP_Param::set_frame</text>
<text text-anchor="middle" x="234" y="-708.5" font-family="Helvetica,sans-Serif" font-size="10.00">_type_flags</text>
</a>
</g>
</g>
<!-- Node1&#45;&gt;Node2 -->
<g id="edge1" class="edge"><title>Node1&#45;&gt;Node2</title>
<path fill="none" stroke="midnightblue" d="M61.4115,-386.024C61.5483,-428.206 67.7523,-600.136 157,-691.5 160.4,-694.981 164.293,-697.977 168.48,-700.556"/>
<polygon fill="midnightblue" stroke="midnightblue" points="166.947,-703.705 177.423,-705.286 170.22,-697.517 166.947,-703.705"/>
</g>
<!-- Node3 -->
<g id="node3" class="node"><title>Node3</title>
<g id="a_node3"><a doxygen="/home/ubuntu/ardupilot/docs/tags/libraries:../libraries/" xlink:href="../libraries/namespaceAP__HAL.html#a71832f03d849a0c088f04fc98d3c8143" target="_top" xlink:title="AP_HAL::panic">
<polygon fill="white" stroke="black" points="192,-663 192,-682 276,-682 276,-663 192,-663"/>
<text text-anchor="middle" x="234" y="-670" font-family="Helvetica,sans-Serif" font-size="10.00">AP_HAL::panic</text>
</a>
</g>
</g>
<!-- Node1&#45;&gt;Node3 -->
<g id="edge2" class="edge"><title>Node1&#45;&gt;Node3</title>
<path fill="none" stroke="midnightblue" d="M61.7102,-386.088C63.118,-425.61 73.938,-577.369 157,-653.5 164.069,-659.979 173.01,-664.331 182.254,-667.235"/>
<polygon fill="midnightblue" stroke="midnightblue" points="181.372,-670.622 191.932,-669.766 183.143,-663.85 181.372,-670.622"/>
</g>
<!-- Node4 -->
<g id="node4" class="node"><title>Node4</title>
<g id="a_node4"><a doxygen="/home/ubuntu/ardupilot/docs/tags/libraries:../libraries/" xlink:href="../libraries/classAP__Param.html#aa77bffb8e31b126d527b6b65cb430e2c" target="_top" xlink:title="AP_Param::load_object\l_from_eeprom">
<polygon fill="white" stroke="black" points="174.5,-613.5 174.5,-643.5 293.5,-643.5 293.5,-613.5 174.5,-613.5"/>
<text text-anchor="start" x="182.5" y="-631.5" font-family="Helvetica,sans-Serif" font-size="10.00">AP_Param::load_object</text>
<text text-anchor="middle" x="234" y="-620.5" font-family="Helvetica,sans-Serif" font-size="10.00">_from_eeprom</text>
</a>
</g>
</g>
<!-- Node1&#45;&gt;Node4 -->
<g id="edge3" class="edge"><title>Node1&#45;&gt;Node4</title>
<path fill="none" stroke="midnightblue" d="M62.7262,-386.319C67.6048,-421.227 88.8108,-540.586 157,-603.5 159.632,-605.928 162.505,-608.121 165.543,-610.101"/>
<polygon fill="midnightblue" stroke="midnightblue" points="164.05,-613.277 174.48,-615.137 167.486,-607.179 164.05,-613.277"/>
</g>
<!-- Node5 -->
<g id="node5" class="node"><title>Node5</title>
<g id="a_node5"><a doxygen="/home/ubuntu/ardupilot/docs/tags/libraries:../libraries/" xlink:href="../libraries/classAP__AHRS.html#a5eb8ca9ea0bad6197d98d0ee1486eb1a" target="_top" xlink:title="AP_AHRS::create_view">
<polygon fill="white" stroke="black" points="173,-575 173,-594 295,-594 295,-575 173,-575"/>
<text text-anchor="middle" x="234" y="-582" font-family="Helvetica,sans-Serif" font-size="10.00">AP_AHRS::create_view</text>
</a>
</g>
</g>
<!-- Node1&#45;&gt;Node5 -->
<g id="edge4" class="edge"><title>Node1&#45;&gt;Node5</title>
<path fill="none" stroke="midnightblue" d="M63.4042,-386.128C70.0947,-417.318 95.5273,-516.401 157,-565.5 159.092,-567.171 161.312,-568.697 163.628,-570.092"/>
<polygon fill="midnightblue" stroke="midnightblue" points="162.465,-573.427 172.965,-574.839 165.638,-567.187 162.465,-573.427"/>
</g>
<!-- Node6 -->
<g id="node6" class="node"><title>Node6</title>
<g id="a_node6"><a doxygen="/home/ubuntu/ardupilot/docs/tags/libraries:../libraries/" xlink:href="../libraries/classAP__Param.html#a5c6421e8542baeae0ce1ea0809c6448a" target="_top" xlink:title="AP_Param::reload_defaults_file">
<polygon fill="white" stroke="black" points="157,-537 157,-556 311,-556 311,-537 157,-537"/>
<text text-anchor="middle" x="234" y="-544" font-family="Helvetica,sans-Serif" font-size="10.00">AP_Param::reload_defaults_file</text>
</a>
</g>
</g>
<!-- Node1&#45;&gt;Node6 -->
<g id="edge5" class="edge"><title>Node1&#45;&gt;Node6</title>
<path fill="none" stroke="midnightblue" d="M64.6623,-386.06C74.056,-412.91 104.462,-489.521 157,-527.5 159.7,-529.452 162.58,-531.205 165.58,-532.778"/>
<polygon fill="midnightblue" stroke="midnightblue" points="164.327,-536.052 174.881,-536.98 167.209,-529.673 164.327,-536.052"/>
</g>
<!-- Node7 -->
<g id="node7" class="node"><title>Node7</title>
<g id="a_node7"><a doxygen="/home/ubuntu/ardupilot/docs/tags/libraries:../libraries/" xlink:href="../libraries/classAC__AttitudeControl.html#ad300b51e0777495496adddd1770ee920" target="_top" xlink:title="AC_AttitudeControl\l::get_rate_roll_pid">
<polygon fill="white" stroke="black" points="183.5,-487.5 183.5,-517.5 284.5,-517.5 284.5,-487.5 183.5,-487.5"/>
<text text-anchor="start" x="191.5" y="-505.5" font-family="Helvetica,sans-Serif" font-size="10.00">AC_AttitudeControl</text>
<text text-anchor="middle" x="234" y="-494.5" font-family="Helvetica,sans-Serif" font-size="10.00">::get_rate_roll_pid</text>
</a>
</g>
</g>
<!-- Node1&#45;&gt;Node7 -->
<g id="edge6" class="edge"><title>Node1&#45;&gt;Node7</title>
<path fill="none" stroke="midnightblue" d="M67.9838,-386.062C81.9463,-405.946 116.863,-452.023 157,-477.5 162.233,-480.822 167.951,-483.745 173.826,-486.308"/>
<polygon fill="midnightblue" stroke="midnightblue" points="172.556,-489.57 183.14,-490.044 175.162,-483.073 172.556,-489.57"/>
</g>
<!-- Node8 -->
<g id="node8" class="node"><title>Node8</title>
<g id="a_node8"><a doxygen="/home/ubuntu/ardupilot/docs/tags/libraries:../libraries/" xlink:href="../libraries/classAC__PID.html#ac29a8c72a8618d87886599204dcb5b79" target="_top" xlink:title="AC_PID::kP">
<polygon fill="white" stroke="black" points="198.5,-449 198.5,-468 269.5,-468 269.5,-449 198.5,-449"/>
<text text-anchor="middle" x="234" y="-456" font-family="Helvetica,sans-Serif" font-size="10.00">AC_PID::kP</text>
</a>
</g>
</g>
<!-- Node1&#45;&gt;Node8 -->
<g id="edge7" class="edge"><title>Node1&#45;&gt;Node8</title>
<path fill="none" stroke="midnightblue" d="M73.0988,-386.057C90.3521,-399.813 124.269,-425.115 157,-439.5 166.813,-443.813 177.787,-447.271 188.277,-449.992"/>
<polygon fill="midnightblue" stroke="midnightblue" points="187.59,-453.426 198.133,-452.378 189.238,-446.623 187.59,-453.426"/>
</g>
<!-- Node9 -->
<g id="node9" class="node"><title>Node9</title>
<g id="a_node9"><a doxygen="/home/ubuntu/ardupilot/docs/tags/libraries:../libraries/" xlink:href="../libraries/classAC__PID.html#a2d7be199fbc437ee472fad5a4308c668" target="_top" xlink:title="AC_PID::kD">
<polygon fill="white" stroke="black" points="198,-411 198,-430 270,-430 270,-411 198,-411"/>
<text text-anchor="middle" x="234" y="-418" font-family="Helvetica,sans-Serif" font-size="10.00">AC_PID::kD</text>
</a>
</g>
</g>
<!-- Node1&#45;&gt;Node9 -->
<g id="edge8" class="edge"><title>Node1&#45;&gt;Node9</title>
<path fill="none" stroke="midnightblue" d="M97.7545,-386.091C115.587,-390.783 137.408,-396.487 157,-401.5 166.981,-404.054 177.709,-406.76 187.869,-409.305"/>
<polygon fill="midnightblue" stroke="midnightblue" points="187.24,-412.755 197.79,-411.784 188.937,-405.964 187.24,-412.755"/>
</g>
<!-- Node10 -->
<g id="node10" class="node"><title>Node10</title>
<g id="a_node10"><a doxygen="/home/ubuntu/ardupilot/docs/tags/libraries:../libraries/" xlink:href="../libraries/classAC__AttitudeControl.html#a9e10a37d28eeb3d6476ec087b3bac3df" target="_top" xlink:title="AC_AttitudeControl\l::get_rate_pitch_pid">
<polygon fill="white" stroke="black" points="183,-361.5 183,-391.5 285,-391.5 285,-361.5 183,-361.5"/>
<text text-anchor="start" x="191" y="-379.5" font-family="Helvetica,sans-Serif" font-size="10.00">AC_AttitudeControl</text>
<text text-anchor="middle" x="234" y="-368.5" font-family="Helvetica,sans-Serif" font-size="10.00">::get_rate_pitch_pid</text>
</a>
</g>
</g>
<!-- Node1&#45;&gt;Node10 -->
<g id="edge9" class="edge"><title>Node1&#45;&gt;Node10</title>
<path fill="none" stroke="midnightblue" d="M121.001,-376.5C137.745,-376.5 155.968,-376.5 172.755,-376.5"/>
<polygon fill="midnightblue" stroke="midnightblue" points="172.996,-380 182.996,-376.5 172.996,-373 172.996,-380"/>
</g>
<!-- Node11 -->
<g id="node11" class="node"><title>Node11</title>
<g id="a_node11"><a doxygen="/home/ubuntu/ardupilot/docs/tags/libraries:../libraries/" xlink:href="../libraries/classAC__AttitudeControl.html#a9e430ac947e0924fdc83280a4ed552bf" target="_top" xlink:title="AC_AttitudeControl\l::get_rate_yaw_pid">
<polygon fill="white" stroke="black" points="183.5,-312.5 183.5,-342.5 284.5,-342.5 284.5,-312.5 183.5,-312.5"/>
<text text-anchor="start" x="191.5" y="-330.5" font-family="Helvetica,sans-Serif" font-size="10.00">AC_AttitudeControl</text>
<text text-anchor="middle" x="234" y="-319.5" font-family="Helvetica,sans-Serif" font-size="10.00">::get_rate_yaw_pid</text>
</a>
</g>
</g>
<!-- Node1&#45;&gt;Node11 -->
<g id="edge10" class="edge"><title>Node1&#45;&gt;Node11</title>
<path fill="none" stroke="midnightblue" d="M94.9741,-366.936C117.275,-360.564 147.204,-352.013 173.491,-344.502"/>
<polygon fill="midnightblue" stroke="midnightblue" points="174.711,-347.794 183.365,-341.682 172.788,-341.064 174.711,-347.794"/>
</g>
<!-- Node12 -->
<g id="node12" class="node"><title>Node12</title>
<g id="a_node12"><a doxygen="/home/ubuntu/ardupilot/docs/tags/libraries:../libraries/" xlink:href="../libraries/classAC__PID.html#af27f5e854a44864911720c12c3d1af0a" target="_top" xlink:title="AC_PID::kI">
<polygon fill="white" stroke="black" points="200,-274 200,-293 268,-293 268,-274 200,-274"/>
<text text-anchor="middle" x="234" y="-281" font-family="Helvetica,sans-Serif" font-size="10.00">AC_PID::kI</text>
</a>
</g>
</g>
<!-- Node1&#45;&gt;Node12 -->
<g id="edge11" class="edge"><title>Node1&#45;&gt;Node12</title>
<path fill="none" stroke="midnightblue" d="M71.1953,-366.937C87.5182,-351.365 122.133,-320.558 157,-303.5 167.228,-298.496 178.864,-294.63 189.903,-291.69"/>
<polygon fill="midnightblue" stroke="midnightblue" points="190.944,-295.038 199.815,-289.246 189.268,-288.242 190.944,-295.038"/>
</g>
<!-- Node13 -->
<g id="node13" class="node"><title>Node13</title>
<g id="a_node13"><a doxygen="/home/ubuntu/ardupilot/docs/tags/libraries:../libraries/" xlink:href="../libraries/classAC__PID.html#a1c7a6c6ad6f6f5a4394da332009a7e48" target="_top" xlink:title="AC_PID::filt_hz">
<polygon fill="white" stroke="black" points="191,-236 191,-255 277,-255 277,-236 191,-236"/>
<text text-anchor="middle" x="234" y="-243" font-family="Helvetica,sans-Serif" font-size="10.00">AC_PID::filt_hz</text>
</a>
</g>
</g>
<!-- Node1&#45;&gt;Node13 -->
<g id="edge12" class="edge"><title>Node1&#45;&gt;Node13</title>
<path fill="none" stroke="midnightblue" d="M66.7848,-366.959C79.3684,-345.172 113.343,-291.559 157,-264.5 164.312,-259.968 172.65,-256.516 181.061,-253.886"/>
<polygon fill="midnightblue" stroke="midnightblue" points="182.205,-257.201 190.911,-251.162 180.339,-250.454 182.205,-257.201"/>
</g>
<!-- Node14 -->
<g id="node14" class="node"><title>Node14</title>
<g id="a_node14"><a doxygen="/home/ubuntu/ardupilot/docs/tags/libraries:../libraries/" xlink:href="../libraries/classSRV__Channels.html#a2589e039cfb09e85776bf2bb3a126d4c" target="_top" xlink:title="SRV_Channels::upgrade\l_motors_servo">
<polygon fill="white" stroke="black" points="171.5,-186.5 171.5,-216.5 296.5,-216.5 296.5,-186.5 171.5,-186.5"/>
<text text-anchor="start" x="179.5" y="-204.5" font-family="Helvetica,sans-Serif" font-size="10.00">SRV_Channels::upgrade</text>
<text text-anchor="middle" x="234" y="-193.5" font-family="Helvetica,sans-Serif" font-size="10.00">_motors_servo</text>
</a>
</g>
</g>
<!-- Node1&#45;&gt;Node14 -->
<g id="edge13" class="edge"><title>Node1&#45;&gt;Node14</title>
<path fill="none" stroke="midnightblue" d="M64.9665,-366.814C74.9443,-340.303 106.305,-265.912 157,-226.5 159.313,-224.702 161.761,-223.03 164.306,-221.476"/>
<polygon fill="midnightblue" stroke="midnightblue" points="166.138,-224.465 173.276,-216.636 162.814,-218.304 166.138,-224.465"/>
</g>
<!-- Node15 -->
<g id="node15" class="node"><title>Node15</title>
<g id="a_node15"><a doxygen="/home/ubuntu/ardupilot/docs/tags/libraries:../libraries/" xlink:href="../libraries/classAP__Param.html#ab0fc2976026f41763aa102cd2e67fbb0" target="_top" xlink:title="AP_Param::convert_old\l_parameters">
<polygon fill="white" stroke="black" points="174,-137.5 174,-167.5 294,-167.5 294,-137.5 174,-137.5"/>
<text text-anchor="start" x="182" y="-155.5" font-family="Helvetica,sans-Serif" font-size="10.00">AP_Param::convert_old</text>
<text text-anchor="middle" x="234" y="-144.5" font-family="Helvetica,sans-Serif" font-size="10.00">_parameters</text>
</a>
</g>
</g>
<!-- Node1&#45;&gt;Node15 -->
<g id="edge14" class="edge"><title>Node1&#45;&gt;Node15</title>
<path fill="none" stroke="midnightblue" d="M63.3922,-366.558C70.0457,-334.314 95.378,-231.61 157,-177.5 159.505,-175.3 162.208,-173.294 165.051,-171.463"/>
<polygon fill="midnightblue" stroke="midnightblue" points="166.925,-174.424 173.936,-166.481 163.501,-168.319 166.925,-174.424"/>
</g>
<!-- Node16 -->
<g id="node16" class="node"><title>Node16</title>
<g id="a_node16"><a doxygen="/home/ubuntu/ardupilot/docs/tags/libraries:../libraries/" xlink:href="../libraries/classAP__Param.html#a654a77016ef0dadc5426cbeda0c70662" target="_top" xlink:title="AP_Param::convert_old\l_parameter">
<polygon fill="white" stroke="black" points="349.5,-71.5 349.5,-101.5 469.5,-101.5 469.5,-71.5 349.5,-71.5"/>
<text text-anchor="start" x="357.5" y="-89.5" font-family="Helvetica,sans-Serif" font-size="10.00">AP_Param::convert_old</text>
<text text-anchor="middle" x="409.5" y="-78.5" font-family="Helvetica,sans-Serif" font-size="10.00">_parameter</text>
</a>
</g>
</g>
<!-- Node1&#45;&gt;Node16 -->
<g id="edge15" class="edge"><title>Node1&#45;&gt;Node16</title>
<path fill="none" stroke="midnightblue" d="M61.9686,-366.973C64.3512,-329.701 78.3524,-192.666 157,-128.5 184.268,-106.253 274.676,-95.4394 339.277,-90.4385"/>
<polygon fill="midnightblue" stroke="midnightblue" points="339.697,-93.917 349.41,-89.6849 339.178,-86.9363 339.697,-93.917"/>
</g>
<!-- Node17 -->
<g id="node17" class="node"><title>Node17</title>
<g id="a_node17"><a doxygen="/home/ubuntu/ardupilot/docs/tags/libraries:../libraries/" xlink:href="../libraries/classAP__Param.html#a1e50b80d5b22ad64b8fac8251a4a62af" target="_top" xlink:title="AP_Param::convert_parent\l_class">
<polygon fill="white" stroke="black" points="167,-49.5 167,-79.5 301,-79.5 301,-49.5 167,-49.5"/>
<text text-anchor="start" x="175" y="-67.5" font-family="Helvetica,sans-Serif" font-size="10.00">AP_Param::convert_parent</text>
<text text-anchor="middle" x="234" y="-56.5" font-family="Helvetica,sans-Serif" font-size="10.00">_class</text>
</a>
</g>
</g>
<!-- Node1&#45;&gt;Node17 -->
<g id="edge16" class="edge"><title>Node1&#45;&gt;Node17</title>
<path fill="none" stroke="midnightblue" d="M61.9509,-366.768C64.2937,-327.288 78.2453,-177.247 157,-94.5 160.426,-90.9004 164.337,-87.7243 168.537,-84.923"/>
<polygon fill="midnightblue" stroke="midnightblue" points="170.633,-87.752 177.5,-79.684 167.101,-81.7087 170.633,-87.752"/>
</g>
<!-- Node18 -->
<g id="node18" class="node"><title>Node18</title>
<g id="a_node18"><a xlink:href="classCopter.html#a79e51b0f5d50bb6304d4047c8722768a" target="_top" xlink:title="Copter::convert_pid\l_parameters">
<polygon fill="white" stroke="black" points="183,-0.5 183,-30.5 285,-30.5 285,-0.5 183,-0.5"/>
<text text-anchor="start" x="191" y="-18.5" font-family="Helvetica,sans-Serif" font-size="10.00">Copter::convert_pid</text>
<text text-anchor="middle" x="234" y="-7.5" font-family="Helvetica,sans-Serif" font-size="10.00">_parameters</text>
</a>
</g>
</g>
<!-- Node1&#45;&gt;Node18 -->
<g id="edge17" class="edge"><title>Node1&#45;&gt;Node18</title>
<path fill="none" stroke="midnightblue" d="M61.1629,-366.898C60.1553,-322.776 61.9115,-137.459 157,-39.5 161.727,-34.6304 167.432,-30.7458 173.568,-27.6475"/>
<polygon fill="midnightblue" stroke="midnightblue" points="175.016,-30.8345 182.8,-23.6476 172.233,-24.4113 175.016,-30.8345"/>
</g>
<!-- Node18&#45;&gt;Node16 -->
<g id="edge18" class="edge"><title>Node18&#45;&gt;Node16</title>
<path fill="none" stroke="midnightblue" d="M285.234,-30.2414C293.902,-33.1034 302.768,-36.2356 311,-39.5 331.23,-47.5223 353.11,-57.9051 371.008,-66.8708"/>
<polygon fill="midnightblue" stroke="midnightblue" points="369.471,-70.0159 379.974,-71.4101 372.633,-63.7706 369.471,-70.0159"/>
</g>
<!-- Node19 -->
<g id="node19" class="node"><title>Node19</title>
<g id="a_node19"><a doxygen="/home/ubuntu/ardupilot/docs/tags/libraries:../libraries/" xlink:href="../libraries/classSRV__Channels.html#a465e1e727a9e9897cc8a4667b95b2834" target="_top" xlink:title="SRV_Channels::upgrade\l_parameters">
<polygon fill="white" stroke="black" points="347,-0.5 347,-30.5 472,-30.5 472,-0.5 347,-0.5"/>
<text text-anchor="start" x="355" y="-18.5" font-family="Helvetica,sans-Serif" font-size="10.00">SRV_Channels::upgrade</text>
<text text-anchor="middle" x="409.5" y="-7.5" font-family="Helvetica,sans-Serif" font-size="10.00">_parameters</text>
</a>
</g>
</g>
<!-- Node18&#45;&gt;Node19 -->
<g id="edge19" class="edge"><title>Node18&#45;&gt;Node19</title>
<path fill="none" stroke="midnightblue" d="M285.183,-15.5C301.246,-15.5 319.357,-15.5 336.652,-15.5"/>
<polygon fill="midnightblue" stroke="midnightblue" points="336.72,-19.0001 346.72,-15.5 336.72,-12.0001 336.72,-19.0001"/>
</g>
</g>
</svg>
