<?xml version="1.0" encoding="UTF-8" standalone="no"?>
<!DOCTYPE svg PUBLIC "-//W3C//DTD SVG 1.1//EN"
 "http://www.w3.org/Graphics/SVG/1.1/DTD/svg11.dtd">
<!-- Generated by graphviz version 2.38.0 (20140413.2041)
 -->
<!-- Title: ArduCopter/config.h Pages: 1 -->
<svg width="204pt" height="140pt"
 viewBox="0.00 0.00 204.00 140.00" xmlns="http://www.w3.org/2000/svg" xmlns:xlink="http://www.w3.org/1999/xlink">
<g id="graph0" class="graph" transform="scale(1 1) rotate(0) translate(4 136)">
<title>ArduCopter/config.h</title>
<polygon fill="white" stroke="none" points="-4,4 -4,-136 200,-136 200,4 -4,4"/>
<!-- Node1 -->
<g id="node1" class="node"><title>Node1</title>
<polygon fill="#bfbfbf" stroke="black" points="61,-112.5 61,-131.5 165,-131.5 165,-112.5 61,-112.5"/>
<text text-anchor="middle" x="113" y="-119.5" font-family="Helvetica,sans-Serif" font-size="10.00">ArduCopter/config.h</text>
</g>
<!-- Node2 -->
<g id="node2" class="node"><title>Node2</title>
<g id="a_node2"><a xlink:href="defines_8h.html" target="_top" xlink:title="defines.h">
<polygon fill="white" stroke="black" points="42,-56.5 42,-75.5 98,-75.5 98,-56.5 42,-56.5"/>
<text text-anchor="middle" x="70" y="-63.5" font-family="Helvetica,sans-Serif" font-size="10.00">defines.h</text>
</a>
</g>
</g>
<!-- Node1&#45;&gt;Node2 -->
<g id="edge1" class="edge"><title>Node1&#45;&gt;Node2</title>
<path fill="none" stroke="midnightblue" d="M105.899,-112.083C99.763,-104.377 90.7303,-93.0333 83.2608,-83.6531"/>
<polygon fill="midnightblue" stroke="midnightblue" points="85.9357,-81.3936 76.9685,-75.7511 80.4598,-85.7542 85.9357,-81.3936"/>
</g>
<!-- Node4 -->
<g id="node4" class="node"><title>Node4</title>
<g id="a_node4"><a xlink:href="APM__Config_8h.html" target="_top" xlink:title="APM_Config.h">
<polygon fill="white" stroke="black" points="116,-56.5 116,-75.5 196,-75.5 196,-56.5 116,-56.5"/>
<text text-anchor="middle" x="156" y="-63.5" font-family="Helvetica,sans-Serif" font-size="10.00">APM_Config.h</text>
</a>
</g>
</g>
<!-- Node1&#45;&gt;Node4 -->
<g id="edge3" class="edge"><title>Node1&#45;&gt;Node4</title>
<path fill="none" stroke="midnightblue" d="M120.101,-112.083C126.237,-104.377 135.27,-93.0333 142.739,-83.6531"/>
<polygon fill="midnightblue" stroke="midnightblue" points="145.54,-85.7542 149.032,-75.7511 140.064,-81.3936 145.54,-85.7542"/>
</g>
<!-- Node3 -->
<g id="node3" class="node"><title>Node3</title>
<g id="a_node3"><a doxygen="/home/ubuntu/ardupilot/docs/tags/libraries:../libraries/" xlink:href="../libraries/AP__HAL__Boards_8h.html" target="_top" xlink:title="AP_HAL/AP_HAL_Boards.h">
<polygon fill="white" stroke="black" points="0,-0.5 0,-19.5 140,-19.5 140,-0.5 0,-0.5"/>
<text text-anchor="middle" x="70" y="-7.5" font-family="Helvetica,sans-Serif" font-size="10.00">AP_HAL/AP_HAL_Boards.h</text>
</a>
</g>
</g>
<!-- Node2&#45;&gt;Node3 -->
<g id="edge2" class="edge"><title>Node2&#45;&gt;Node3</title>
<path fill="none" stroke="midnightblue" d="M70,-56.083C70,-49.0059 70,-38.8611 70,-29.9865"/>
<polygon fill="midnightblue" stroke="midnightblue" points="73.5001,-29.751 70,-19.7511 66.5001,-29.7511 73.5001,-29.751"/>
</g>
</g>
</svg>
