<?xml version="1.0" encoding="UTF-8" standalone="no"?>
<!DOCTYPE svg PUBLIC "-//W3C//DTD SVG 1.1//EN"
 "http://www.w3.org/Graphics/SVG/1.1/DTD/svg11.dtd">
<!-- Generated by graphviz version 2.38.0 (20140413.2041)
 -->
<!-- Title: libraries/AC_InputManager/AC_InputManager.h Pages: 1 -->
<svg width="294pt" height="173pt"
 viewBox="0.00 0.00 294.00 173.00" xmlns="http://www.w3.org/2000/svg" xmlns:xlink="http://www.w3.org/1999/xlink">
<g id="graph0" class="graph" transform="scale(1 1) rotate(0) translate(4 169)">
<title>libraries/AC_InputManager/AC_InputManager.h</title>
<polygon fill="white" stroke="none" points="-4,4 -4,-169 290,-169 290,4 -4,4"/>
<!-- Node1 -->
<g id="node1" class="node"><title>Node1</title>
<polygon fill="#bfbfbf" stroke="black" points="75,-134.5 75,-164.5 207,-164.5 207,-134.5 75,-134.5"/>
<text text-anchor="start" x="83" y="-152.5" font-family="Helvetica,sans-Serif" font-size="10.00">libraries/AC_InputManager</text>
<text text-anchor="middle" x="141" y="-141.5" font-family="Helvetica,sans-Serif" font-size="10.00">/AC_InputManager.h</text>
</g>
<!-- Node2 -->
<g id="node2" class="node"><title>Node2</title>
<g id="a_node2"><a xlink:href="AC__InputManager_8cpp.html" target="_top" xlink:title="libraries/AC_InputManager\l/AC_InputManager.cpp">
<polygon fill="white" stroke="black" points="0,-67.5 0,-97.5 132,-97.5 132,-67.5 0,-67.5"/>
<text text-anchor="start" x="8" y="-85.5" font-family="Helvetica,sans-Serif" font-size="10.00">libraries/AC_InputManager</text>
<text text-anchor="middle" x="66" y="-74.5" font-family="Helvetica,sans-Serif" font-size="10.00">/AC_InputManager.cpp</text>
</a>
</g>
</g>
<!-- Node1&#45;&gt;Node2 -->
<g id="edge1" class="edge"><title>Node1&#45;&gt;Node2</title>
<path fill="none" stroke="midnightblue" d="M116.882,-127.598C105.557,-117.783 92.3587,-106.344 82.2421,-97.5765"/>
<polygon fill="midnightblue" stroke="midnightblue" points="114.877,-130.492 124.726,-134.396 119.461,-125.202 114.877,-130.492"/>
</g>
<!-- Node3 -->
<g id="node3" class="node"><title>Node3</title>
<g id="a_node3"><a xlink:href="AC__InputManager__Heli_8h.html" target="_top" xlink:title="Pilot manual control input library for Conventional Helicopter. ">
<polygon fill="white" stroke="black" points="150,-67.5 150,-97.5 282,-97.5 282,-67.5 150,-67.5"/>
<text text-anchor="start" x="158" y="-85.5" font-family="Helvetica,sans-Serif" font-size="10.00">libraries/AC_InputManager</text>
<text text-anchor="middle" x="216" y="-74.5" font-family="Helvetica,sans-Serif" font-size="10.00">/AC_InputManager_Heli.h</text>
</a>
</g>
</g>
<!-- Node1&#45;&gt;Node3 -->
<g id="edge2" class="edge"><title>Node1&#45;&gt;Node3</title>
<path fill="none" stroke="midnightblue" d="M165.118,-127.598C176.443,-117.783 189.641,-106.344 199.758,-97.5765"/>
<polygon fill="midnightblue" stroke="midnightblue" points="162.539,-125.202 157.274,-134.396 167.123,-130.492 162.539,-125.202"/>
</g>
<!-- Node4 -->
<g id="node4" class="node"><title>Node4</title>
<g id="a_node4"><a xlink:href="AC__InputManager__Heli_8cpp.html" target="_top" xlink:title="libraries/AC_InputManager\l/AC_InputManager_Heli.cpp">
<polygon fill="white" stroke="black" points="146,-0.5 146,-30.5 286,-30.5 286,-0.5 146,-0.5"/>
<text text-anchor="start" x="154" y="-18.5" font-family="Helvetica,sans-Serif" font-size="10.00">libraries/AC_InputManager</text>
<text text-anchor="middle" x="216" y="-7.5" font-family="Helvetica,sans-Serif" font-size="10.00">/AC_InputManager_Heli.cpp</text>
</a>
</g>
</g>
<!-- Node3&#45;&gt;Node4 -->
<g id="edge3" class="edge"><title>Node3&#45;&gt;Node4</title>
<path fill="none" stroke="midnightblue" d="M216,-57.1081C216,-48.1539 216,-38.3227 216,-30.5765"/>
<polygon fill="midnightblue" stroke="midnightblue" points="212.5,-57.3959 216,-67.396 219.5,-57.396 212.5,-57.3959"/>
</g>
</g>
</svg>
