<?xml version="1.0" encoding="UTF-8" standalone="no"?>
<!DOCTYPE svg PUBLIC "-//W3C//DTD SVG 1.1//EN"
 "http://www.w3.org/Graphics/SVG/1.1/DTD/svg11.dtd">
<!-- Generated by graphviz version 2.38.0 (20140413.2041)
 -->
<!-- Title: libraries/AP_Mount/AP_Mount_Servo.h Pages: 1 -->
<svg width="240pt" height="106pt"
 viewBox="0.00 0.00 240.00 106.00" xmlns="http://www.w3.org/2000/svg" xmlns:xlink="http://www.w3.org/1999/xlink">
<g id="graph0" class="graph" transform="scale(1 1) rotate(0) translate(4 102)">
<title>libraries/AP_Mount/AP_Mount_Servo.h</title>
<polygon fill="white" stroke="none" points="-4,4 -4,-102 236,-102 236,4 -4,4"/>
<!-- Node1 -->
<g id="node1" class="node"><title>Node1</title>
<polygon fill="#bfbfbf" stroke="black" points="59.5,-67.5 59.5,-97.5 163.5,-97.5 163.5,-67.5 59.5,-67.5"/>
<text text-anchor="start" x="67.5" y="-85.5" font-family="Helvetica,sans-Serif" font-size="10.00">libraries/AP_Mount</text>
<text text-anchor="middle" x="111.5" y="-74.5" font-family="Helvetica,sans-Serif" font-size="10.00">/AP_Mount_Servo.h</text>
</g>
<!-- Node2 -->
<g id="node2" class="node"><title>Node2</title>
<g id="a_node2"><a xlink:href="AP__Mount_8cpp.html" target="_top" xlink:title="libraries/AP_Mount\l/AP_Mount.cpp">
<polygon fill="white" stroke="black" points="0,-0.5 0,-30.5 99,-30.5 99,-0.5 0,-0.5"/>
<text text-anchor="start" x="8" y="-18.5" font-family="Helvetica,sans-Serif" font-size="10.00">libraries/AP_Mount</text>
<text text-anchor="middle" x="49.5" y="-7.5" font-family="Helvetica,sans-Serif" font-size="10.00">/AP_Mount.cpp</text>
</a>
</g>
</g>
<!-- Node1&#45;&gt;Node2 -->
<g id="edge1" class="edge"><title>Node1&#45;&gt;Node2</title>
<path fill="none" stroke="midnightblue" d="M91.0154,-60.0243C81.778,-50.3398 71.1274,-39.1739 62.9268,-30.5765"/>
<polygon fill="midnightblue" stroke="midnightblue" points="88.6121,-62.5756 98.0469,-67.396 93.6774,-57.7441 88.6121,-62.5756"/>
</g>
<!-- Node3 -->
<g id="node3" class="node"><title>Node3</title>
<g id="a_node3"><a xlink:href="AP__Mount__Servo_8cpp.html" target="_top" xlink:title="libraries/AP_Mount\l/AP_Mount_Servo.cpp">
<polygon fill="white" stroke="black" points="117,-0.5 117,-30.5 232,-30.5 232,-0.5 117,-0.5"/>
<text text-anchor="start" x="125" y="-18.5" font-family="Helvetica,sans-Serif" font-size="10.00">libraries/AP_Mount</text>
<text text-anchor="middle" x="174.5" y="-7.5" font-family="Helvetica,sans-Serif" font-size="10.00">/AP_Mount_Servo.cpp</text>
</a>
</g>
</g>
<!-- Node1&#45;&gt;Node3 -->
<g id="edge2" class="edge"><title>Node1&#45;&gt;Node3</title>
<path fill="none" stroke="midnightblue" d="M132.315,-60.0243C141.701,-50.3398 152.524,-39.1739 160.857,-30.5765"/>
<polygon fill="midnightblue" stroke="midnightblue" points="129.617,-57.7793 125.17,-67.396 134.643,-62.6512 129.617,-57.7793"/>
</g>
</g>
</svg>
