<?xml version="1.0" encoding="UTF-8" standalone="no"?>
<!DOCTYPE svg PUBLIC "-//W3C//DTD SVG 1.1//EN"
 "http://www.w3.org/Graphics/SVG/1.1/DTD/svg11.dtd">
<!-- Generated by graphviz version 2.38.0 (20140413.2041)
 -->
<!-- Title: libraries/AP_IRLock/AP_IRLock.h Pages: 1 -->
<svg width="276pt" height="173pt"
 viewBox="0.00 0.00 276.00 173.00" xmlns="http://www.w3.org/2000/svg" xmlns:xlink="http://www.w3.org/1999/xlink">
<g id="graph0" class="graph" transform="scale(1 1) rotate(0) translate(4 169)">
<title>libraries/AP_IRLock/AP_IRLock.h</title>
<polygon fill="white" stroke="none" points="-4,4 -4,-169 272,-169 272,4 -4,4"/>
<!-- Node1 -->
<g id="node1" class="node"><title>Node1</title>
<polygon fill="#bfbfbf" stroke="black" points="76,-134.5 76,-164.5 180,-164.5 180,-134.5 76,-134.5"/>
<text text-anchor="start" x="84" y="-152.5" font-family="Helvetica,sans-Serif" font-size="10.00">libraries/AP_IRLock</text>
<text text-anchor="middle" x="128" y="-141.5" font-family="Helvetica,sans-Serif" font-size="10.00">/AP_IRLock.h</text>
</g>
<!-- Node2 -->
<g id="node2" class="node"><title>Node2</title>
<g id="a_node2"><a xlink:href="AC__PrecLand__IRLock_8h.html" target="_top" xlink:title="libraries/AC_PrecLand\l/AC_PrecLand_IRLock.h">
<polygon fill="white" stroke="black" points="65.5,-67.5 65.5,-97.5 190.5,-97.5 190.5,-67.5 65.5,-67.5"/>
<text text-anchor="start" x="73.5" y="-85.5" font-family="Helvetica,sans-Serif" font-size="10.00">libraries/AC_PrecLand</text>
<text text-anchor="middle" x="128" y="-74.5" font-family="Helvetica,sans-Serif" font-size="10.00">/AC_PrecLand_IRLock.h</text>
</a>
</g>
</g>
<!-- Node1&#45;&gt;Node2 -->
<g id="edge1" class="edge"><title>Node1&#45;&gt;Node2</title>
<path fill="none" stroke="midnightblue" d="M128,-124.108C128,-115.154 128,-105.323 128,-97.5765"/>
<polygon fill="midnightblue" stroke="midnightblue" points="124.5,-124.396 128,-134.396 131.5,-124.396 124.5,-124.396"/>
</g>
<!-- Node3 -->
<g id="node3" class="node"><title>Node3</title>
<g id="a_node3"><a xlink:href="AC__PrecLand_8cpp.html" target="_top" xlink:title="libraries/AC_PrecLand\l/AC_PrecLand.cpp">
<polygon fill="white" stroke="black" points="0,-0.5 0,-30.5 114,-30.5 114,-0.5 0,-0.5"/>
<text text-anchor="start" x="8" y="-18.5" font-family="Helvetica,sans-Serif" font-size="10.00">libraries/AC_PrecLand</text>
<text text-anchor="middle" x="57" y="-7.5" font-family="Helvetica,sans-Serif" font-size="10.00">/AC_PrecLand.cpp</text>
</a>
</g>
</g>
<!-- Node2&#45;&gt;Node3 -->
<g id="edge2" class="edge"><title>Node2&#45;&gt;Node3</title>
<path fill="none" stroke="midnightblue" d="M105.168,-60.5978C94.4477,-50.7831 81.9529,-39.3442 72.3759,-30.5765"/>
<polygon fill="midnightblue" stroke="midnightblue" points="102.855,-63.225 112.594,-67.396 107.582,-58.0618 102.855,-63.225"/>
</g>
<!-- Node4 -->
<g id="node4" class="node"><title>Node4</title>
<g id="a_node4"><a xlink:href="AC__PrecLand__IRLock_8cpp.html" target="_top" xlink:title="libraries/AC_PrecLand\l/AC_PrecLand_IRLock.cpp">
<polygon fill="white" stroke="black" points="132,-0.5 132,-30.5 268,-30.5 268,-0.5 132,-0.5"/>
<text text-anchor="start" x="140" y="-18.5" font-family="Helvetica,sans-Serif" font-size="10.00">libraries/AC_PrecLand</text>
<text text-anchor="middle" x="200" y="-7.5" font-family="Helvetica,sans-Serif" font-size="10.00">/AC_PrecLand_IRLock.cpp</text>
</a>
</g>
</g>
<!-- Node2&#45;&gt;Node4 -->
<g id="edge3" class="edge"><title>Node2&#45;&gt;Node4</title>
<path fill="none" stroke="midnightblue" d="M151.153,-60.5978C162.025,-50.7831 174.696,-39.3442 184.408,-30.5765"/>
<polygon fill="midnightblue" stroke="midnightblue" points="148.7,-58.097 143.623,-67.396 153.391,-63.2929 148.7,-58.097"/>
</g>
</g>
</svg>
