<?xml version="1.0" encoding="UTF-8" standalone="no"?>
<!DOCTYPE svg PUBLIC "-//W3C//DTD SVG 1.1//EN"
 "http://www.w3.org/Graphics/SVG/1.1/DTD/svg11.dtd">
<!-- Generated by graphviz version 2.38.0 (20140413.2041)
 -->
<!-- Title: libraries/AP_Module/AP_Module_Structures.h Pages: 1 -->
<svg width="246pt" height="117pt"
 viewBox="0.00 0.00 246.00 117.00" xmlns="http://www.w3.org/2000/svg" xmlns:xlink="http://www.w3.org/1999/xlink">
<g id="graph0" class="graph" transform="scale(1 1) rotate(0) translate(4 113)">
<title>libraries/AP_Module/AP_Module_Structures.h</title>
<polygon fill="white" stroke="none" points="-4,4 -4,-113 242,-113 242,4 -4,4"/>
<!-- Node1 -->
<g id="node1" class="node"><title>Node1</title>
<polygon fill="#bfbfbf" stroke="black" points="52,-78.5 52,-108.5 180,-108.5 180,-78.5 52,-78.5"/>
<text text-anchor="start" x="60" y="-96.5" font-family="Helvetica,sans-Serif" font-size="10.00">libraries/AP_Module</text>
<text text-anchor="middle" x="116" y="-85.5" font-family="Helvetica,sans-Serif" font-size="10.00">/AP_Module_Structures.h</text>
</g>
<!-- Node2 -->
<g id="node2" class="node"><title>Node2</title>
<g id="a_node2"><a xlink:href="AP__Module_8cpp.html" target="_top" xlink:title="libraries/AP_Module\l/AP_Module.cpp">
<polygon fill="white" stroke="black" points="0,-6 0,-36 104,-36 104,-6 0,-6"/>
<text text-anchor="start" x="8" y="-24" font-family="Helvetica,sans-Serif" font-size="10.00">libraries/AP_Module</text>
<text text-anchor="middle" x="52" y="-13" font-family="Helvetica,sans-Serif" font-size="10.00">/AP_Module.cpp</text>
</a>
</g>
</g>
<!-- Node1&#45;&gt;Node2 -->
<g id="edge1" class="edge"><title>Node1&#45;&gt;Node2</title>
<path fill="none" stroke="midnightblue" d="M96.0637,-70.5389C85.912,-59.3562 73.8626,-46.0831 64.9321,-36.2455"/>
<polygon fill="midnightblue" stroke="midnightblue" points="93.7357,-73.1816 103.049,-78.2333 98.9186,-68.4766 93.7357,-73.1816"/>
</g>
<!-- Node3 -->
<g id="node3" class="node"><title>Node3</title>
<g id="a_node3"><a xlink:href="moduletest_8c.html" target="_top" xlink:title="libraries/AP_Module\l/examples/ModuleTest\l/module/moduletest.c">
<polygon fill="white" stroke="black" points="122,-0.5 122,-41.5 238,-41.5 238,-0.5 122,-0.5"/>
<text text-anchor="start" x="130" y="-29.5" font-family="Helvetica,sans-Serif" font-size="10.00">libraries/AP_Module</text>
<text text-anchor="start" x="130" y="-18.5" font-family="Helvetica,sans-Serif" font-size="10.00">/examples/ModuleTest</text>
<text text-anchor="middle" x="180" y="-7.5" font-family="Helvetica,sans-Serif" font-size="10.00">/module/moduletest.c</text>
</a>
</g>
</g>
<!-- Node1&#45;&gt;Node3 -->
<g id="edge2" class="edge"><title>Node1&#45;&gt;Node3</title>
<path fill="none" stroke="midnightblue" d="M135.68,-70.8213C144.147,-61.4941 153.973,-50.6707 162.218,-41.5884"/>
<polygon fill="midnightblue" stroke="midnightblue" points="133.081,-68.4766 128.951,-78.2333 138.264,-73.1816 133.081,-68.4766"/>
</g>
</g>
</svg>
