<?xml version="1.0" encoding="UTF-8" standalone="no"?>
<!DOCTYPE svg PUBLIC "-//W3C//DTD SVG 1.1//EN"
 "http://www.w3.org/Graphics/SVG/1.1/DTD/svg11.dtd">
<!-- Generated by graphviz version 2.38.0 (20140413.2041)
 -->
<!-- Title: libraries/AP_Proximity/AP_Proximity_TeraRangerTower.h Pages: 1 -->
<svg width="322pt" height="106pt"
 viewBox="0.00 0.00 321.50 106.00" xmlns="http://www.w3.org/2000/svg" xmlns:xlink="http://www.w3.org/1999/xlink">
<g id="graph0" class="graph" transform="scale(1 1) rotate(0) translate(4 102)">
<title>libraries/AP_Proximity/AP_Proximity_TeraRangerTower.h</title>
<polygon fill="white" stroke="none" points="-4,4 -4,-102 317.5,-102 317.5,4 -4,4"/>
<!-- Node1 -->
<g id="node1" class="node"><title>Node1</title>
<polygon fill="#bfbfbf" stroke="black" points="54,-67.5 54,-97.5 225,-97.5 225,-67.5 54,-67.5"/>
<text text-anchor="start" x="62" y="-85.5" font-family="Helvetica,sans-Serif" font-size="10.00">libraries/AP_Proximity</text>
<text text-anchor="middle" x="139.5" y="-74.5" font-family="Helvetica,sans-Serif" font-size="10.00">/AP_Proximity_TeraRangerTower.h</text>
</g>
<!-- Node2 -->
<g id="node2" class="node"><title>Node2</title>
<g id="a_node2"><a xlink:href="AP__Proximity_8cpp.html" target="_top" xlink:title="libraries/AP_Proximity\l/AP_Proximity.cpp">
<polygon fill="white" stroke="black" points="0,-0.5 0,-30.5 113,-30.5 113,-0.5 0,-0.5"/>
<text text-anchor="start" x="8" y="-18.5" font-family="Helvetica,sans-Serif" font-size="10.00">libraries/AP_Proximity</text>
<text text-anchor="middle" x="56.5" y="-7.5" font-family="Helvetica,sans-Serif" font-size="10.00">/AP_Proximity.cpp</text>
</a>
</g>
</g>
<!-- Node1&#45;&gt;Node2 -->
<g id="edge1" class="edge"><title>Node1&#45;&gt;Node2</title>
<path fill="none" stroke="midnightblue" d="M113.537,-61.1677C100.845,-51.2283 85.8876,-39.5144 74.4746,-30.5765"/>
<polygon fill="midnightblue" stroke="midnightblue" points="111.459,-63.9859 121.49,-67.396 115.775,-58.4747 111.459,-63.9859"/>
</g>
<!-- Node3 -->
<g id="node3" class="node"><title>Node3</title>
<g id="a_node3"><a xlink:href="AP__Proximity__TeraRangerTower_8cpp.html" target="_top" xlink:title="libraries/AP_Proximity\l/AP_Proximity_TeraRangerTower.cpp">
<polygon fill="white" stroke="black" points="131.5,-0.5 131.5,-30.5 313.5,-30.5 313.5,-0.5 131.5,-0.5"/>
<text text-anchor="start" x="139.5" y="-18.5" font-family="Helvetica,sans-Serif" font-size="10.00">libraries/AP_Proximity</text>
<text text-anchor="middle" x="222.5" y="-7.5" font-family="Helvetica,sans-Serif" font-size="10.00">/AP_Proximity_TeraRangerTower.cpp</text>
</a>
</g>
</g>
<!-- Node1&#45;&gt;Node3 -->
<g id="edge2" class="edge"><title>Node1&#45;&gt;Node3</title>
<path fill="none" stroke="midnightblue" d="M165.463,-61.1677C178.155,-51.2283 193.112,-39.5144 204.525,-30.5765"/>
<polygon fill="midnightblue" stroke="midnightblue" points="163.225,-58.4747 157.51,-67.396 167.541,-63.9859 163.225,-58.4747"/>
</g>
</g>
</svg>
