<?xml version="1.0" encoding="UTF-8" standalone="no"?>
<!DOCTYPE svg PUBLIC "-//W3C//DTD SVG 1.1//EN"
 "http://www.w3.org/Graphics/SVG/1.1/DTD/svg11.dtd">
<!-- Generated by graphviz version 2.38.0 (20140413.2041)
 -->
<!-- Title: libraries/AP_Relay/AP_Relay.h Pages: 1 -->
<svg width="798pt" height="184pt"
 viewBox="0.00 0.00 797.50 184.00" xmlns="http://www.w3.org/2000/svg" xmlns:xlink="http://www.w3.org/1999/xlink">
<g id="graph0" class="graph" transform="scale(1 1) rotate(0) translate(4 180)">
<title>libraries/AP_Relay/AP_Relay.h</title>
<polygon fill="white" stroke="none" points="-4,4 -4,-180 793.5,-180 793.5,4 -4,4"/>
<!-- Node1 -->
<g id="node1" class="node"><title>Node1</title>
<polygon fill="#bfbfbf" stroke="black" points="313.5,-145.5 313.5,-175.5 411.5,-175.5 411.5,-145.5 313.5,-145.5"/>
<text text-anchor="start" x="321.5" y="-163.5" font-family="Helvetica,sans-Serif" font-size="10.00">libraries/AP_Relay</text>
<text text-anchor="middle" x="362.5" y="-152.5" font-family="Helvetica,sans-Serif" font-size="10.00">/AP_Relay.h</text>
</g>
<!-- Node2 -->
<g id="node2" class="node"><title>Node2</title>
<g id="a_node2"><a xlink:href="AP__Camera_8h.html" target="_top" xlink:title="Photo or video camera manager, with EEPROM&#45;backed storage of constants. ">
<polygon fill="white" stroke="black" points="0,-78.5 0,-108.5 107,-108.5 107,-78.5 0,-78.5"/>
<text text-anchor="start" x="8" y="-96.5" font-family="Helvetica,sans-Serif" font-size="10.00">libraries/AP_Camera</text>
<text text-anchor="middle" x="53.5" y="-85.5" font-family="Helvetica,sans-Serif" font-size="10.00">/AP_Camera.h</text>
</a>
</g>
</g>
<!-- Node1&#45;&gt;Node2 -->
<g id="edge1" class="edge"><title>Node1&#45;&gt;Node2</title>
<path fill="none" stroke="midnightblue" d="M303.038,-147.101C254.253,-136.914 183.39,-122.083 121.5,-109 116.894,-108.026 112.113,-107.013 107.318,-105.994"/>
<polygon fill="midnightblue" stroke="midnightblue" points="302.598,-150.585 313.102,-149.202 304.028,-143.732 302.598,-150.585"/>
</g>
<!-- Node3 -->
<g id="node3" class="node"><title>Node3</title>
<g id="a_node3"><a xlink:href="AP__Camera_8cpp.html" target="_top" xlink:title="libraries/AP_Camera\l/AP_Camera.cpp">
<polygon fill="white" stroke="black" points="41,-6 41,-36 148,-36 148,-6 41,-6"/>
<text text-anchor="start" x="49" y="-24" font-family="Helvetica,sans-Serif" font-size="10.00">libraries/AP_Camera</text>
<text text-anchor="middle" x="94.5" y="-13" font-family="Helvetica,sans-Serif" font-size="10.00">/AP_Camera.cpp</text>
</a>
</g>
</g>
<!-- Node1&#45;&gt;Node3 -->
<g id="edge3" class="edge"><title>Node1&#45;&gt;Node3</title>
<path fill="none" stroke="midnightblue" d="M303.027,-156.355C258.719,-151.483 198.524,-139.287 154.5,-109 127.594,-90.4889 109.096,-55.6588 100.322,-36.1527"/>
<polygon fill="midnightblue" stroke="midnightblue" points="302.777,-159.848 313.077,-157.366 303.477,-152.883 302.777,-159.848"/>
</g>
<!-- Node4 -->
<g id="node4" class="node"><title>Node4</title>
<g id="a_node4"><a xlink:href="AP__LandingGear_8cpp.html" target="_top" xlink:title="libraries/AP_LandingGear\l/AP_LandingGear.cpp">
<polygon fill="white" stroke="black" points="164,-78.5 164,-108.5 291,-108.5 291,-78.5 164,-78.5"/>
<text text-anchor="start" x="172" y="-96.5" font-family="Helvetica,sans-Serif" font-size="10.00">libraries/AP_LandingGear</text>
<text text-anchor="middle" x="227.5" y="-85.5" font-family="Helvetica,sans-Serif" font-size="10.00">/AP_LandingGear.cpp</text>
</a>
</g>
</g>
<!-- Node1&#45;&gt;Node4 -->
<g id="edge4" class="edge"><title>Node1&#45;&gt;Node4</title>
<path fill="none" stroke="midnightblue" d="M324.06,-140.992C302.662,-130.689 276.448,-118.068 256.736,-108.577"/>
<polygon fill="midnightblue" stroke="midnightblue" points="322.679,-144.211 333.207,-145.396 325.715,-137.904 322.679,-144.211"/>
</g>
<!-- Node5 -->
<g id="node5" class="node"><title>Node5</title>
<g id="a_node5"><a xlink:href="AP__Parachute_8h.html" target="_top" xlink:title="Parachute release library. ">
<polygon fill="white" stroke="black" points="347.5,-78.5 347.5,-108.5 463.5,-108.5 463.5,-78.5 347.5,-78.5"/>
<text text-anchor="start" x="355.5" y="-96.5" font-family="Helvetica,sans-Serif" font-size="10.00">libraries/AP_Parachute</text>
<text text-anchor="middle" x="405.5" y="-85.5" font-family="Helvetica,sans-Serif" font-size="10.00">/AP_Parachute.h</text>
</a>
</g>
</g>
<!-- Node1&#45;&gt;Node5 -->
<g id="edge5" class="edge"><title>Node1&#45;&gt;Node5</title>
<path fill="none" stroke="midnightblue" d="M377.473,-136.867C383.696,-127.459 390.726,-116.833 396.188,-108.577"/>
<polygon fill="midnightblue" stroke="midnightblue" points="374.429,-135.125 371.83,-145.396 380.267,-138.987 374.429,-135.125"/>
</g>
<!-- Node6 -->
<g id="node6" class="node"><title>Node6</title>
<g id="a_node6"><a xlink:href="AP__Parachute_8cpp.html" target="_top" xlink:title="libraries/AP_Parachute\l/AP_Parachute.cpp">
<polygon fill="white" stroke="black" points="267.5,-6 267.5,-36 383.5,-36 383.5,-6 267.5,-6"/>
<text text-anchor="start" x="275.5" y="-24" font-family="Helvetica,sans-Serif" font-size="10.00">libraries/AP_Parachute</text>
<text text-anchor="middle" x="325.5" y="-13" font-family="Helvetica,sans-Serif" font-size="10.00">/AP_Parachute.cpp</text>
</a>
</g>
</g>
<!-- Node1&#45;&gt;Node6 -->
<g id="edge8" class="edge"><title>Node1&#45;&gt;Node6</title>
<path fill="none" stroke="midnightblue" d="M349.678,-136.235C345.543,-127.864 341.308,-118.21 338.5,-109 330.883,-84.0208 327.641,-53.5944 326.329,-36.1432"/>
<polygon fill="midnightblue" stroke="midnightblue" points="346.697,-138.09 354.394,-145.37 352.917,-134.879 346.697,-138.09"/>
</g>
<!-- Node7 -->
<g id="node7" class="node"><title>Node7</title>
<g id="a_node7"><a xlink:href="AP__Parachute__test_8cpp.html" target="_top" xlink:title="libraries/AP_Parachute\l/examples/AP_Parachute\l_test/AP_Parachute_test.cpp">
<polygon fill="white" stroke="black" points="413,-0.5 413,-41.5 558,-41.5 558,-0.5 413,-0.5"/>
<text text-anchor="start" x="421" y="-29.5" font-family="Helvetica,sans-Serif" font-size="10.00">libraries/AP_Parachute</text>
<text text-anchor="start" x="421" y="-18.5" font-family="Helvetica,sans-Serif" font-size="10.00">/examples/AP_Parachute</text>
<text text-anchor="middle" x="485.5" y="-7.5" font-family="Helvetica,sans-Serif" font-size="10.00">_test/AP_Parachute_test.cpp</text>
</a>
</g>
</g>
<!-- Node1&#45;&gt;Node7 -->
<g id="edge9" class="edge"><title>Node1&#45;&gt;Node7</title>
<path fill="none" stroke="midnightblue" d="M421.146,-144.833C440.296,-137.201 459.866,-125.815 472.5,-109 487.086,-89.5868 488.568,-60.7276 487.598,-41.6448"/>
<polygon fill="midnightblue" stroke="midnightblue" points="419.681,-141.643 411.51,-148.388 422.104,-148.21 419.681,-141.643"/>
</g>
<!-- Node8 -->
<g id="node8" class="node"><title>Node8</title>
<g id="a_node8"><a xlink:href="AP__Relay_8cpp.html" target="_top" xlink:title="libraries/AP_Relay\l/AP_Relay.cpp">
<polygon fill="white" stroke="black" points="519.5,-78.5 519.5,-108.5 617.5,-108.5 617.5,-78.5 519.5,-78.5"/>
<text text-anchor="start" x="527.5" y="-96.5" font-family="Helvetica,sans-Serif" font-size="10.00">libraries/AP_Relay</text>
<text text-anchor="middle" x="568.5" y="-85.5" font-family="Helvetica,sans-Serif" font-size="10.00">/AP_Relay.cpp</text>
</a>
</g>
</g>
<!-- Node1&#45;&gt;Node8 -->
<g id="edge10" class="edge"><title>Node1&#45;&gt;Node8</title>
<path fill="none" stroke="midnightblue" d="M416.554,-142.444C449.946,-131.908 492.282,-118.549 523.779,-108.611"/>
<polygon fill="midnightblue" stroke="midnightblue" points="415.429,-139.129 406.945,-145.476 417.535,-145.805 415.429,-139.129"/>
</g>
<!-- Node9 -->
<g id="node9" class="node"><title>Node9</title>
<g id="a_node9"><a xlink:href="AP__ServoRelayEvents_8h.html" target="_top" xlink:title="libraries/AP_ServoRelayEvents\l/AP_ServoRelayEvents.h">
<polygon fill="white" stroke="black" points="635.5,-78.5 635.5,-108.5 789.5,-108.5 789.5,-78.5 635.5,-78.5"/>
<text text-anchor="start" x="643.5" y="-96.5" font-family="Helvetica,sans-Serif" font-size="10.00">libraries/AP_ServoRelayEvents</text>
<text text-anchor="middle" x="712.5" y="-85.5" font-family="Helvetica,sans-Serif" font-size="10.00">/AP_ServoRelayEvents.h</text>
</a>
</g>
</g>
<!-- Node1&#45;&gt;Node9 -->
<g id="edge11" class="edge"><title>Node1&#45;&gt;Node9</title>
<path fill="none" stroke="midnightblue" d="M421.481,-148.546C480.725,-137.544 572.254,-120.546 636.819,-108.555"/>
<polygon fill="midnightblue" stroke="midnightblue" points="420.727,-145.126 411.535,-150.394 422.006,-152.009 420.727,-145.126"/>
</g>
<!-- Node2&#45;&gt;Node3 -->
<g id="edge2" class="edge"><title>Node2&#45;&gt;Node3</title>
<path fill="none" stroke="midnightblue" d="M66.843,-69.5566C73.2231,-58.5859 80.6609,-45.7965 86.2154,-36.2455"/>
<polygon fill="midnightblue" stroke="midnightblue" points="63.7987,-67.8292 61.797,-78.2333 69.8498,-71.3484 63.7987,-67.8292"/>
</g>
<!-- Node5&#45;&gt;Node6 -->
<g id="edge6" class="edge"><title>Node5&#45;&gt;Node6</title>
<path fill="none" stroke="midnightblue" d="M381.629,-71.464C368.625,-60.0043 352.89,-46.137 341.392,-36.0049"/>
<polygon fill="midnightblue" stroke="midnightblue" points="379.494,-74.2476 389.311,-78.2333 384.122,-68.9958 379.494,-74.2476"/>
</g>
<!-- Node5&#45;&gt;Node7 -->
<g id="edge7" class="edge"><title>Node5&#45;&gt;Node7</title>
<path fill="none" stroke="midnightblue" d="M429.467,-71.3792C440.192,-61.9277 452.76,-50.8524 463.272,-41.5884"/>
<polygon fill="midnightblue" stroke="midnightblue" points="426.878,-68.9958 421.689,-78.2333 431.506,-74.2476 426.878,-68.9958"/>
</g>
<!-- Node10 -->
<g id="node10" class="node"><title>Node10</title>
<g id="a_node10"><a xlink:href="AP__ServoRelayEvents_8cpp.html" target="_top" xlink:title="libraries/AP_ServoRelayEvents\l/AP_ServoRelayEvents.cpp">
<polygon fill="white" stroke="black" points="635.5,-6 635.5,-36 789.5,-36 789.5,-6 635.5,-6"/>
<text text-anchor="start" x="643.5" y="-24" font-family="Helvetica,sans-Serif" font-size="10.00">libraries/AP_ServoRelayEvents</text>
<text text-anchor="middle" x="712.5" y="-13" font-family="Helvetica,sans-Serif" font-size="10.00">/AP_ServoRelayEvents.cpp</text>
</a>
</g>
</g>
<!-- Node9&#45;&gt;Node10 -->
<g id="edge12" class="edge"><title>Node9&#45;&gt;Node10</title>
<path fill="none" stroke="midnightblue" d="M712.5,-68.2317C712.5,-57.5679 712.5,-45.4145 712.5,-36.2455"/>
<polygon fill="midnightblue" stroke="midnightblue" points="709,-68.2332 712.5,-78.2333 716,-68.2333 709,-68.2332"/>
</g>
</g>
</svg>
