<?xml version="1.0" encoding="UTF-8" standalone="no"?>
<!DOCTYPE svg PUBLIC "-//W3C//DTD SVG 1.1//EN"
 "http://www.w3.org/Graphics/SVG/1.1/DTD/svg11.dtd">
<!-- Generated by graphviz version 2.38.0 (20140413.2041)
 -->
<!-- Title: libraries/AP_Math/AP_GeodesicGrid.h Pages: 1 -->
<svg width="566pt" height="106pt"
 viewBox="0.00 0.00 566.00 106.00" xmlns="http://www.w3.org/2000/svg" xmlns:xlink="http://www.w3.org/1999/xlink">
<g id="graph0" class="graph" transform="scale(1 1) rotate(0) translate(4 102)">
<title>libraries/AP_Math/AP_GeodesicGrid.h</title>
<polygon fill="white" stroke="none" points="-4,4 -4,-102 562,-102 562,4 -4,4"/>
<!-- Node1 -->
<g id="node1" class="node"><title>Node1</title>
<polygon fill="#bfbfbf" stroke="black" points="214,-67.5 214,-97.5 324,-97.5 324,-67.5 214,-67.5"/>
<text text-anchor="start" x="222" y="-85.5" font-family="Helvetica,sans-Serif" font-size="10.00">libraries/AP_Math/AP</text>
<text text-anchor="middle" x="269" y="-74.5" font-family="Helvetica,sans-Serif" font-size="10.00">_GeodesicGrid.h</text>
</g>
<!-- Node2 -->
<g id="node2" class="node"><title>Node2</title>
<g id="a_node2"><a xlink:href="CompassCalibrator_8cpp.html" target="_top" xlink:title="libraries/AP_Compass\l/CompassCalibrator.cpp">
<polygon fill="white" stroke="black" points="0,-0.5 0,-30.5 122,-30.5 122,-0.5 0,-0.5"/>
<text text-anchor="start" x="8" y="-18.5" font-family="Helvetica,sans-Serif" font-size="10.00">libraries/AP_Compass</text>
<text text-anchor="middle" x="61" y="-7.5" font-family="Helvetica,sans-Serif" font-size="10.00">/CompassCalibrator.cpp</text>
</a>
</g>
</g>
<!-- Node1&#45;&gt;Node2 -->
<g id="edge1" class="edge"><title>Node1&#45;&gt;Node2</title>
<path fill="none" stroke="midnightblue" d="M214.422,-64.4442C180.705,-53.9078 137.958,-40.5495 106.155,-30.6109"/>
<polygon fill="midnightblue" stroke="midnightblue" points="213.534,-67.8339 224.123,-67.476 215.622,-61.1525 213.534,-67.8339"/>
</g>
<!-- Node3 -->
<g id="node3" class="node"><title>Node3</title>
<g id="a_node3"><a xlink:href="AP__GeodesicGrid_8cpp.html" target="_top" xlink:title="libraries/AP_Math/AP\l_GeodesicGrid.cpp">
<polygon fill="white" stroke="black" points="140,-0.5 140,-30.5 250,-30.5 250,-0.5 140,-0.5"/>
<text text-anchor="start" x="148" y="-18.5" font-family="Helvetica,sans-Serif" font-size="10.00">libraries/AP_Math/AP</text>
<text text-anchor="middle" x="195" y="-7.5" font-family="Helvetica,sans-Serif" font-size="10.00">_GeodesicGrid.cpp</text>
</a>
</g>
</g>
<!-- Node1&#45;&gt;Node3 -->
<g id="edge2" class="edge"><title>Node1&#45;&gt;Node3</title>
<path fill="none" stroke="midnightblue" d="M245.204,-60.5978C234.03,-50.7831 221.007,-39.3442 211.026,-30.5765"/>
<polygon fill="midnightblue" stroke="midnightblue" points="243.12,-63.4261 252.943,-67.396 247.74,-58.1669 243.12,-63.4261"/>
</g>
<!-- Node4 -->
<g id="node4" class="node"><title>Node4</title>
<g id="a_node4"><a xlink:href="benchmark__geodesic__grid_8cpp.html" target="_top" xlink:title="libraries/AP_Math/benchmarks\l/benchmark_geodesic_grid.cpp">
<polygon fill="white" stroke="black" points="268,-0.5 268,-30.5 420,-30.5 420,-0.5 268,-0.5"/>
<text text-anchor="start" x="276" y="-18.5" font-family="Helvetica,sans-Serif" font-size="10.00">libraries/AP_Math/benchmarks</text>
<text text-anchor="middle" x="344" y="-7.5" font-family="Helvetica,sans-Serif" font-size="10.00">/benchmark_geodesic_grid.cpp</text>
</a>
</g>
</g>
<!-- Node1&#45;&gt;Node4 -->
<g id="edge3" class="edge"><title>Node1&#45;&gt;Node4</title>
<path fill="none" stroke="midnightblue" d="M293.118,-60.5978C304.443,-50.7831 317.641,-39.3442 327.758,-30.5765"/>
<polygon fill="midnightblue" stroke="midnightblue" points="290.539,-58.2017 285.274,-67.396 295.123,-63.4915 290.539,-58.2017"/>
</g>
<!-- Node5 -->
<g id="node5" class="node"><title>Node5</title>
<g id="a_node5"><a xlink:href="test__geodesic__grid_8cpp.html" target="_top" xlink:title="libraries/AP_Math/tests\l/test_geodesic_grid.cpp">
<polygon fill="white" stroke="black" points="438,-0.5 438,-30.5 558,-30.5 558,-0.5 438,-0.5"/>
<text text-anchor="start" x="446" y="-18.5" font-family="Helvetica,sans-Serif" font-size="10.00">libraries/AP_Math/tests</text>
<text text-anchor="middle" x="498" y="-7.5" font-family="Helvetica,sans-Serif" font-size="10.00">/test_geodesic_grid.cpp</text>
</a>
</g>
</g>
<!-- Node1&#45;&gt;Node5 -->
<g id="edge4" class="edge"><title>Node1&#45;&gt;Node5</title>
<path fill="none" stroke="midnightblue" d="M328.135,-64.7149C365.401,-54.1373 412.971,-40.6348 448.286,-30.6109"/>
<polygon fill="midnightblue" stroke="midnightblue" points="327.072,-61.3784 318.408,-67.476 328.983,-68.1124 327.072,-61.3784"/>
</g>
</g>
</svg>
