<?xml version="1.0" encoding="UTF-8" standalone="no"?>
<!DOCTYPE svg PUBLIC "-//W3C//DTD SVG 1.1//EN"
 "http://www.w3.org/Graphics/SVG/1.1/DTD/svg11.dtd">
<!-- Generated by graphviz version 2.38.0 (20140413.2041)
 -->
<!-- Title: libraries/AP_OpticalFlow/AP_OpticalFlow_SITL.h Pages: 1 -->
<svg width="286pt" height="106pt"
 viewBox="0.00 0.00 285.50 106.00" xmlns="http://www.w3.org/2000/svg" xmlns:xlink="http://www.w3.org/1999/xlink">
<g id="graph0" class="graph" transform="scale(1 1) rotate(0) translate(4 102)">
<title>libraries/AP_OpticalFlow/AP_OpticalFlow_SITL.h</title>
<polygon fill="white" stroke="none" points="-4,4 -4,-102 281.5,-102 281.5,4 -4,4"/>
<!-- Node1 -->
<g id="node1" class="node"><title>Node1</title>
<polygon fill="#bfbfbf" stroke="black" points="79,-67.5 79,-97.5 204,-97.5 204,-67.5 79,-67.5"/>
<text text-anchor="start" x="87" y="-85.5" font-family="Helvetica,sans-Serif" font-size="10.00">libraries/AP_OpticalFlow</text>
<text text-anchor="middle" x="141.5" y="-74.5" font-family="Helvetica,sans-Serif" font-size="10.00">/AP_OpticalFlow_SITL.h</text>
</g>
<!-- Node2 -->
<g id="node2" class="node"><title>Node2</title>
<g id="a_node2"><a xlink:href="AP__OpticalFlow__SITL_8cpp.html" target="_top" xlink:title="libraries/AP_OpticalFlow\l/AP_OpticalFlow_SITL.cpp">
<polygon fill="white" stroke="black" points="0,-0.5 0,-30.5 135,-30.5 135,-0.5 0,-0.5"/>
<text text-anchor="start" x="8" y="-18.5" font-family="Helvetica,sans-Serif" font-size="10.00">libraries/AP_OpticalFlow</text>
<text text-anchor="middle" x="67.5" y="-7.5" font-family="Helvetica,sans-Serif" font-size="10.00">/AP_OpticalFlow_SITL.cpp</text>
</a>
</g>
</g>
<!-- Node1&#45;&gt;Node2 -->
<g id="edge1" class="edge"><title>Node1&#45;&gt;Node2</title>
<path fill="none" stroke="midnightblue" d="M117.704,-60.5978C106.53,-50.7831 93.5072,-39.3442 83.5256,-30.5765"/>
<polygon fill="midnightblue" stroke="midnightblue" points="115.62,-63.4261 125.443,-67.396 120.24,-58.1669 115.62,-63.4261"/>
</g>
<!-- Node3 -->
<g id="node3" class="node"><title>Node3</title>
<g id="a_node3"><a xlink:href="OpticalFlow_8cpp.html" target="_top" xlink:title="libraries/AP_OpticalFlow\l/OpticalFlow.cpp">
<polygon fill="white" stroke="black" points="153.5,-0.5 153.5,-30.5 277.5,-30.5 277.5,-0.5 153.5,-0.5"/>
<text text-anchor="start" x="161.5" y="-18.5" font-family="Helvetica,sans-Serif" font-size="10.00">libraries/AP_OpticalFlow</text>
<text text-anchor="middle" x="215.5" y="-7.5" font-family="Helvetica,sans-Serif" font-size="10.00">/OpticalFlow.cpp</text>
</a>
</g>
</g>
<!-- Node1&#45;&gt;Node3 -->
<g id="edge2" class="edge"><title>Node1&#45;&gt;Node3</title>
<path fill="none" stroke="midnightblue" d="M165.296,-60.5978C176.47,-50.7831 189.493,-39.3442 199.474,-30.5765"/>
<polygon fill="midnightblue" stroke="midnightblue" points="162.76,-58.1669 157.557,-67.396 167.38,-63.4261 162.76,-58.1669"/>
</g>
</g>
</svg>
