<?xml version="1.0" encoding="UTF-8" standalone="no"?>
<!DOCTYPE svg PUBLIC "-//W3C//DTD SVG 1.1//EN"
 "http://www.w3.org/Graphics/SVG/1.1/DTD/svg11.dtd">
<!-- Generated by graphviz version 2.38.0 (20140413.2041)
 -->
<!-- Title: libraries/AP_HAL_VRBRAIN/AP_HAL_VRBRAIN.h Pages: 1 -->
<!--zoomable 240 -->
<svg id="main" version="1.1" xmlns="http://www.w3.org/2000/svg" xmlns:xlink="http://www.w3.org/1999/xlink" xml:space="preserve" onload="init(evt)">
<style type="text/css"><![CDATA[
.edge:hover path { stroke: red; }
.edge:hover polygon { stroke: red; fill: red; }
]]></style>
<script type="text/javascript"><![CDATA[
var edges = document.getElementsByTagName('g');
if (edges && edges.length) {
  for (var i=0;i<edges.length;i++) {
    if (edges[i].id.substr(0,4)=='edge') {
      edges[i].setAttribute('class','edge');
    }
  }
}
]]></script>
        <defs>
                <circle id="rim" cx="0" cy="0" r="7"/>
                <circle id="rim2" cx="0" cy="0" r="3.5"/>
                <g id="zoomPlus">
                        <use xlink:href="#rim" fill="#404040">
                                <set attributeName="fill" to="#808080" begin="zoomplus.mouseover" end="zoomplus.mouseout"/>
                        </use>
                        <path d="M-4,0h8M0,-4v8" fill="none" stroke="white" stroke-width="1.5" pointer-events="none"/>
                </g>
                <g id="zoomMin">
                        <use xlink:href="#rim" fill="#404040">
                                <set attributeName="fill" to="#808080" begin="zoomminus.mouseover" end="zoomminus.mouseout"/>
                        </use>
                        <path d="M-4,0h8" fill="none" stroke="white" stroke-width="1.5" pointer-events="none"/>
                </g>
                <g id="dirArrow">
                        <path fill="none" stroke="white" stroke-width="1.5" d="M0,-3.0v7 M-2.5,-0.5L0,-3.0L2.5,-0.5"/>
                </g>
               <g id="resetDef">
                       <use xlink:href="#rim2" fill="#404040">
                               <set attributeName="fill" to="#808080" begin="reset.mouseover" end="reset.mouseout"/>
                       </use>
               </g>
        </defs>

<script type="text/javascript">
var viewWidth = 1697;
var viewHeight = 240;
var sectionId = 'dynsection-1';
</script>
<script xlink:href="svgpan.js"/>
<svg id="graph" class="graph">
<g id="viewport">
<title>libraries/AP_HAL_VRBRAIN/AP_HAL_VRBRAIN.h</title>
<polygon fill="white" stroke="none" points="-4,4 -4,-236 1693.06,-236 1693.06,4 -4,4"/>
<!-- Node1 -->
<g id="node1" class="node"><title>Node1</title>
<polygon fill="#bfbfbf" stroke="black" points="563.063,-201.5 563.063,-231.5 706.063,-231.5 706.063,-201.5 563.063,-201.5"/>
<text text-anchor="start" x="571.063" y="-219.5" font-family="Helvetica,sans-Serif" font-size="10.00">libraries/AP_HAL_VRBRAIN</text>
<text text-anchor="middle" x="634.563" y="-208.5" font-family="Helvetica,sans-Serif" font-size="10.00">/AP_HAL_VRBRAIN.h</text>
</g>
<!-- Node2 -->
<g id="node2" class="node"><title>Node2</title>
<g id="a_node2"><a xlink:href="VRBRAIN_2AnalogIn_8h.html" target="_top" xlink:title="libraries/AP_HAL_VRBRAIN\l/AnalogIn.h">
<polygon fill="white" stroke="black" points="402.063,-134.5 402.063,-164.5 545.063,-164.5 545.063,-134.5 402.063,-134.5"/>
<text text-anchor="start" x="410.063" y="-152.5" font-family="Helvetica,sans-Serif" font-size="10.00">libraries/AP_HAL_VRBRAIN</text>
<text text-anchor="middle" x="473.563" y="-141.5" font-family="Helvetica,sans-Serif" font-size="10.00">/AnalogIn.h</text>
</a>
</g>
</g>
<!-- Node1&#45;&gt;Node2 -->
<g id="edge1" class="edge"><title>Node1&#45;&gt;Node2</title>
<path fill="none" stroke="midnightblue" d="M590.088,-197.544C564.325,-187.143 532.36,-174.238 508.43,-164.577"/>
<polygon fill="midnightblue" stroke="midnightblue" points="589.045,-200.898 599.629,-201.396 591.666,-194.407 589.045,-200.898"/>
</g>
<!-- Node4 -->
<g id="node4" class="node"><title>Node4</title>
<g id="a_node4"><a xlink:href="HAL__VRBRAIN__Class_8cpp.html" target="_top" xlink:title="libraries/AP_HAL_VRBRAIN\l/HAL_VRBRAIN_Class.cpp">
<polygon fill="white" stroke="black" points="525.063,-0.5 525.063,-30.5 668.063,-30.5 668.063,-0.5 525.063,-0.5"/>
<text text-anchor="start" x="533.063" y="-18.5" font-family="Helvetica,sans-Serif" font-size="10.00">libraries/AP_HAL_VRBRAIN</text>
<text text-anchor="middle" x="596.563" y="-7.5" font-family="Helvetica,sans-Serif" font-size="10.00">/HAL_VRBRAIN_Class.cpp</text>
</a>
</g>
</g>
<!-- Node1&#45;&gt;Node4 -->
<g id="edge13" class="edge"><title>Node1&#45;&gt;Node4</title>
<path fill="none" stroke="midnightblue" d="M552.914,-215.812C415.75,-215.102 145.888,-208.059 62.5631,-165 27.8306,-147.052 19.0595,-134.693 5.56313,-98 0.80689,-85.0692 -3.75528,-77.1486 5.56313,-67 40.0606,-29.4291 375.147,-19.7648 524.893,-17.3154"/>
<polygon fill="midnightblue" stroke="midnightblue" points="552.943,-219.312 562.957,-215.854 552.972,-212.312 552.943,-219.312"/>
</g>
<!-- Node5 -->
<g id="node5" class="node"><title>Node5</title>
<g id="a_node5"><a xlink:href="AP__HAL__VRBRAIN_2Scheduler_8cpp.html" target="_top" xlink:title="libraries/AP_HAL_VRBRAIN\l/Scheduler.cpp">
<polygon fill="white" stroke="black" points="663.063,-67.5 663.063,-97.5 806.063,-97.5 806.063,-67.5 663.063,-67.5"/>
<text text-anchor="start" x="671.063" y="-85.5" font-family="Helvetica,sans-Serif" font-size="10.00">libraries/AP_HAL_VRBRAIN</text>
<text text-anchor="middle" x="734.563" y="-74.5" font-family="Helvetica,sans-Serif" font-size="10.00">/Scheduler.cpp</text>
</a>
</g>
</g>
<!-- Node1&#45;&gt;Node5 -->
<g id="edge38" class="edge"><title>Node1&#45;&gt;Node5</title>
<path fill="none" stroke="midnightblue" d="M677.436,-196.567C691.103,-188.616 705.114,-178.119 714.563,-165 729.123,-144.784 733.156,-115.212 734.228,-97.8023"/>
<polygon fill="midnightblue" stroke="midnightblue" points="675.648,-193.556 668.555,-201.427 679.008,-199.697 675.648,-193.556"/>
</g>
<!-- Node6 -->
<g id="node6" class="node"><title>Node6</title>
<g id="a_node6"><a xlink:href="HAL__VRBRAIN__Class_8h.html" target="_top" xlink:title="libraries/AP_HAL_VRBRAIN\l/HAL_VRBRAIN_Class.h">
<polygon fill="white" stroke="black" points="72.0631,-134.5 72.0631,-164.5 215.063,-164.5 215.063,-134.5 72.0631,-134.5"/>
<text text-anchor="start" x="80.0631" y="-152.5" font-family="Helvetica,sans-Serif" font-size="10.00">libraries/AP_HAL_VRBRAIN</text>
<text text-anchor="middle" x="143.563" y="-141.5" font-family="Helvetica,sans-Serif" font-size="10.00">/HAL_VRBRAIN_Class.h</text>
</a>
</g>
</g>
<!-- Node1&#45;&gt;Node6 -->
<g id="edge5" class="edge"><title>Node1&#45;&gt;Node6</title>
<path fill="none" stroke="midnightblue" d="M552.871,-207.576C467.947,-198.562 331.525,-182.77 214.563,-165 213.586,-164.852 212.603,-164.7 211.615,-164.547"/>
<polygon fill="midnightblue" stroke="midnightblue" points="552.655,-211.072 562.967,-208.641 553.39,-204.111 552.655,-211.072"/>
</g>
<!-- Node7 -->
<g id="node7" class="node"><title>Node7</title>
<g id="a_node7"><a xlink:href="VRBRAIN_2GPIO_8h.html" target="_top" xlink:title="libraries/AP_HAL_VRBRAIN\l/GPIO.h">
<polygon fill="white" stroke="black" points="233.063,-134.5 233.063,-164.5 376.063,-164.5 376.063,-134.5 233.063,-134.5"/>
<text text-anchor="start" x="241.063" y="-152.5" font-family="Helvetica,sans-Serif" font-size="10.00">libraries/AP_HAL_VRBRAIN</text>
<text text-anchor="middle" x="304.563" y="-141.5" font-family="Helvetica,sans-Serif" font-size="10.00">/GPIO.h</text>
</a>
</g>
</g>
<!-- Node1&#45;&gt;Node7 -->
<g id="edge8" class="edge"><title>Node1&#45;&gt;Node7</title>
<path fill="none" stroke="midnightblue" d="M553.413,-199.516C499.043,-188.807 428.13,-174.839 375.919,-164.555"/>
<polygon fill="midnightblue" stroke="midnightblue" points="552.876,-202.977 563.364,-201.476 554.229,-196.109 552.876,-202.977"/>
</g>
<!-- Node10 -->
<g id="node10" class="node"><title>Node10</title>
<g id="a_node10"><a xlink:href="VRBRAIN_2UARTDriver_8h.html" target="_top" xlink:title="libraries/AP_HAL_VRBRAIN\l/UARTDriver.h">
<polygon fill="white" stroke="black" points="563.063,-134.5 563.063,-164.5 706.063,-164.5 706.063,-134.5 563.063,-134.5"/>
<text text-anchor="start" x="571.063" y="-152.5" font-family="Helvetica,sans-Serif" font-size="10.00">libraries/AP_HAL_VRBRAIN</text>
<text text-anchor="middle" x="634.563" y="-141.5" font-family="Helvetica,sans-Serif" font-size="10.00">/UARTDriver.h</text>
</a>
</g>
</g>
<!-- Node1&#45;&gt;Node10 -->
<g id="edge14" class="edge"><title>Node1&#45;&gt;Node10</title>
<path fill="none" stroke="midnightblue" d="M634.563,-191.108C634.563,-182.154 634.563,-172.323 634.563,-164.577"/>
<polygon fill="midnightblue" stroke="midnightblue" points="631.063,-191.396 634.563,-201.396 638.063,-191.396 631.063,-191.396"/>
</g>
<!-- Node12 -->
<g id="node12" class="node"><title>Node12</title>
<g id="a_node12"><a xlink:href="VRBRAIN_2RCInput_8h.html" target="_top" xlink:title="libraries/AP_HAL_VRBRAIN\l/RCInput.h">
<polygon fill="white" stroke="black" points="763.063,-134.5 763.063,-164.5 906.063,-164.5 906.063,-134.5 763.063,-134.5"/>
<text text-anchor="start" x="771.063" y="-152.5" font-family="Helvetica,sans-Serif" font-size="10.00">libraries/AP_HAL_VRBRAIN</text>
<text text-anchor="middle" x="834.563" y="-141.5" font-family="Helvetica,sans-Serif" font-size="10.00">/RCInput.h</text>
</a>
</g>
</g>
<!-- Node1&#45;&gt;Node12 -->
<g id="edge19" class="edge"><title>Node1&#45;&gt;Node12</title>
<path fill="none" stroke="midnightblue" d="M687.708,-198.228C720.061,-187.713 760.868,-174.451 791.251,-164.577"/>
<polygon fill="midnightblue" stroke="midnightblue" points="686.389,-194.976 677.96,-201.396 688.552,-201.634 686.389,-194.976"/>
</g>
<!-- Node14 -->
<g id="node14" class="node"><title>Node14</title>
<g id="a_node14"><a xlink:href="VRBRAIN_2RCOutput_8h.html" target="_top" xlink:title="libraries/AP_HAL_VRBRAIN\l/RCOutput.h">
<polygon fill="white" stroke="black" points="943.063,-134.5 943.063,-164.5 1086.06,-164.5 1086.06,-134.5 943.063,-134.5"/>
<text text-anchor="start" x="951.063" y="-152.5" font-family="Helvetica,sans-Serif" font-size="10.00">libraries/AP_HAL_VRBRAIN</text>
<text text-anchor="middle" x="1014.56" y="-141.5" font-family="Helvetica,sans-Serif" font-size="10.00">/RCOutput.h</text>
</a>
</g>
</g>
<!-- Node1&#45;&gt;Node14 -->
<g id="edge23" class="edge"><title>Node1&#45;&gt;Node14</title>
<path fill="none" stroke="midnightblue" d="M716.643,-201.46C784.046,-189.931 878.559,-173.764 942.935,-162.752"/>
<polygon fill="midnightblue" stroke="midnightblue" points="715.752,-198.062 706.485,-203.198 716.932,-204.961 715.752,-198.062"/>
</g>
<!-- Node16 -->
<g id="node16" class="node"><title>Node16</title>
<g id="a_node16"><a xlink:href="VRBRAIN_2Semaphores_8h.html" target="_top" xlink:title="libraries/AP_HAL_VRBRAIN\l/Semaphores.h">
<polygon fill="white" stroke="black" points="1385.06,-134.5 1385.06,-164.5 1528.06,-164.5 1528.06,-134.5 1385.06,-134.5"/>
<text text-anchor="start" x="1393.06" y="-152.5" font-family="Helvetica,sans-Serif" font-size="10.00">libraries/AP_HAL_VRBRAIN</text>
<text text-anchor="middle" x="1456.56" y="-141.5" font-family="Helvetica,sans-Serif" font-size="10.00">/Semaphores.h</text>
</a>
</g>
</g>
<!-- Node1&#45;&gt;Node16 -->
<g id="edge27" class="edge"><title>Node1&#45;&gt;Node16</title>
<path fill="none" stroke="midnightblue" d="M716.365,-210.479C845.639,-202.326 1105.04,-185.084 1324.56,-165 1344.19,-163.204 1365.43,-160.99 1385.02,-158.838"/>
<polygon fill="midnightblue" stroke="midnightblue" points="715.913,-207 706.152,-211.121 716.352,-213.986 715.913,-207"/>
</g>
<!-- Node21 -->
<g id="node21" class="node"><title>Node21</title>
<g id="a_node21"><a xlink:href="AP__HAL__VRBRAIN_2I2CWrapper_8h.html" target="_top" xlink:title="libraries/AP_HAL_VRBRAIN\l/I2CWrapper.h">
<polygon fill="white" stroke="black" points="1173.06,-134.5 1173.06,-164.5 1316.06,-164.5 1316.06,-134.5 1173.06,-134.5"/>
<text text-anchor="start" x="1181.06" y="-152.5" font-family="Helvetica,sans-Serif" font-size="10.00">libraries/AP_HAL_VRBRAIN</text>
<text text-anchor="middle" x="1244.56" y="-141.5" font-family="Helvetica,sans-Serif" font-size="10.00">/I2CWrapper.h</text>
</a>
</g>
</g>
<!-- Node1&#45;&gt;Node21 -->
<g id="edge34" class="edge"><title>Node1&#45;&gt;Node21</title>
<path fill="none" stroke="midnightblue" d="M716.568,-206.762C836.667,-193.964 1058.48,-170.329 1172.6,-158.169"/>
<polygon fill="midnightblue" stroke="midnightblue" points="715.904,-203.313 706.332,-207.853 716.646,-210.273 715.904,-203.313"/>
</g>
<!-- Node3 -->
<g id="node3" class="node"><title>Node3</title>
<g id="a_node3"><a xlink:href="VRBRAIN_2AnalogIn_8cpp.html" target="_top" xlink:title="libraries/AP_HAL_VRBRAIN\l/AnalogIn.cpp">
<polygon fill="white" stroke="black" points="226.063,-67.5 226.063,-97.5 369.063,-97.5 369.063,-67.5 226.063,-67.5"/>
<text text-anchor="start" x="234.063" y="-85.5" font-family="Helvetica,sans-Serif" font-size="10.00">libraries/AP_HAL_VRBRAIN</text>
<text text-anchor="middle" x="297.563" y="-74.5" font-family="Helvetica,sans-Serif" font-size="10.00">/AnalogIn.cpp</text>
</a>
</g>
</g>
<!-- Node2&#45;&gt;Node3 -->
<g id="edge2" class="edge"><title>Node2&#45;&gt;Node3</title>
<path fill="none" stroke="midnightblue" d="M425.687,-130.819C397.398,-120.371 362.069,-107.323 335.678,-97.5765"/>
<polygon fill="midnightblue" stroke="midnightblue" points="424.78,-134.215 435.374,-134.396 427.206,-127.648 424.78,-134.215"/>
</g>
<!-- Node2&#45;&gt;Node4 -->
<g id="edge3" class="edge"><title>Node2&#45;&gt;Node4</title>
<path fill="none" stroke="midnightblue" d="M502.964,-128.509C514.686,-119.834 527.899,-109.122 538.563,-98 558.996,-76.6902 577.868,-47.7427 588.242,-30.6985"/>
<polygon fill="midnightblue" stroke="midnightblue" points="500.807,-125.749 494.75,-134.441 504.906,-131.424 500.807,-125.749"/>
</g>
<!-- Node2&#45;&gt;Node5 -->
<g id="edge4" class="edge"><title>Node2&#45;&gt;Node5</title>
<path fill="none" stroke="midnightblue" d="M539.61,-132.052C582.28,-121.425 637.224,-107.741 677.902,-97.6109"/>
<polygon fill="midnightblue" stroke="midnightblue" points="538.733,-128.663 529.875,-134.476 540.424,-135.456 538.733,-128.663"/>
</g>
<!-- Node6&#45;&gt;Node1 -->
<g id="edge6" class="edge"><title>Node6&#45;&gt;Node1</title>
<path fill="none" stroke="midnightblue" d="M225.399,-163.883C227.816,-164.269 230.208,-164.642 232.563,-165 348.06,-182.548 482.533,-198.166 563.053,-207.234"/>
<polygon fill="midnightblue" stroke="midnightblue" points="225.792,-160.401 215.358,-162.237 224.66,-167.308 225.792,-160.401"/>
</g>
<!-- Node6&#45;&gt;Node4 -->
<g id="edge7" class="edge"><title>Node6&#45;&gt;Node4</title>
<path fill="none" stroke="midnightblue" d="M77.3596,-131.349C34.5018,-117.151 -8.94753,-94.8284 16.5631,-67 50.2868,-30.2125 377.185,-20.1299 524.827,-17.4429"/>
<polygon fill="midnightblue" stroke="midnightblue" points="76.4529,-134.734 87.0434,-134.43 78.5752,-128.063 76.4529,-134.734"/>
</g>
<!-- Node7&#45;&gt;Node3 -->
<g id="edge9" class="edge"><title>Node7&#45;&gt;Node3</title>
<path fill="none" stroke="midnightblue" d="M301.968,-124.403C300.995,-115.37 299.922,-105.408 299.079,-97.5765"/>
<polygon fill="midnightblue" stroke="midnightblue" points="298.494,-124.828 303.044,-134.396 305.453,-124.079 298.494,-124.828"/>
</g>
<!-- Node7&#45;&gt;Node4 -->
<g id="edge11" class="edge"><title>Node7&#45;&gt;Node4</title>
<path fill="none" stroke="midnightblue" d="M260.747,-130.005C229.403,-114.204 196.084,-90.3813 216.563,-67 236.515,-44.2212 420.162,-28.3067 524.666,-21.0094"/>
<polygon fill="midnightblue" stroke="midnightblue" points="259.392,-133.237 269.918,-134.441 262.44,-126.936 259.392,-133.237"/>
</g>
<!-- Node8 -->
<g id="node8" class="node"><title>Node8</title>
<g id="a_node8"><a xlink:href="AP__HAL__VRBRAIN_2GPIO_8cpp.html" target="_top" xlink:title="libraries/AP_HAL_VRBRAIN\l/GPIO.cpp">
<polygon fill="white" stroke="black" points="26.0631,-67.5 26.0631,-97.5 169.063,-97.5 169.063,-67.5 26.0631,-67.5"/>
<text text-anchor="start" x="34.0631" y="-85.5" font-family="Helvetica,sans-Serif" font-size="10.00">libraries/AP_HAL_VRBRAIN</text>
<text text-anchor="middle" x="97.5631" y="-74.5" font-family="Helvetica,sans-Serif" font-size="10.00">/GPIO.cpp</text>
</a>
</g>
</g>
<!-- Node7&#45;&gt;Node8 -->
<g id="edge10" class="edge"><title>Node7&#45;&gt;Node8</title>
<path fill="none" stroke="midnightblue" d="M250.247,-131.444C216.692,-120.908 174.152,-107.549 142.501,-97.6109"/>
<polygon fill="midnightblue" stroke="midnightblue" points="249.313,-134.819 259.902,-134.476 251.41,-128.141 249.313,-134.819"/>
</g>
<!-- Node9 -->
<g id="node9" class="node"><title>Node9</title>
<g id="a_node9"><a xlink:href="VRBRAIN_2UARTDriver_8cpp.html" target="_top" xlink:title="libraries/AP_HAL_VRBRAIN\l/UARTDriver.cpp">
<polygon fill="white" stroke="black" points="387.063,-67.5 387.063,-97.5 530.063,-97.5 530.063,-67.5 387.063,-67.5"/>
<text text-anchor="start" x="395.063" y="-85.5" font-family="Helvetica,sans-Serif" font-size="10.00">libraries/AP_HAL_VRBRAIN</text>
<text text-anchor="middle" x="458.563" y="-74.5" font-family="Helvetica,sans-Serif" font-size="10.00">/UARTDriver.cpp</text>
</a>
</g>
</g>
<!-- Node7&#45;&gt;Node9 -->
<g id="edge12" class="edge"><title>Node7&#45;&gt;Node9</title>
<path fill="none" stroke="midnightblue" d="M347.431,-130.407C372.017,-120.029 402.423,-107.195 425.213,-97.5765"/>
<polygon fill="midnightblue" stroke="midnightblue" points="345.831,-127.283 337.979,-134.396 348.553,-133.732 345.831,-127.283"/>
</g>
<!-- Node10&#45;&gt;Node4 -->
<g id="edge15" class="edge"><title>Node10&#45;&gt;Node4</title>
<path fill="none" stroke="midnightblue" d="M627.727,-124.754C619.821,-97.291 607.067,-52.9873 600.601,-30.5247"/>
<polygon fill="midnightblue" stroke="midnightblue" points="624.367,-125.732 630.496,-134.374 631.093,-123.796 624.367,-125.732"/>
</g>
<!-- Node10&#45;&gt;Node5 -->
<g id="edge16" class="edge"><title>Node10&#45;&gt;Node5</title>
<path fill="none" stroke="midnightblue" d="M664.973,-128.734C680.447,-118.676 698.894,-106.685 712.907,-97.5765"/>
<polygon fill="midnightblue" stroke="midnightblue" points="662.739,-126.011 656.262,-134.396 666.554,-131.881 662.739,-126.011"/>
</g>
<!-- Node10&#45;&gt;Node9 -->
<g id="edge17" class="edge"><title>Node10&#45;&gt;Node9</title>
<path fill="none" stroke="midnightblue" d="M586.687,-130.819C558.398,-120.371 523.069,-107.323 496.678,-97.5765"/>
<polygon fill="midnightblue" stroke="midnightblue" points="585.78,-134.215 596.374,-134.396 588.206,-127.648 585.78,-134.215"/>
</g>
<!-- Node11 -->
<g id="node11" class="node"><title>Node11</title>
<g id="a_node11"><a xlink:href="VRBRAIN_2Util_8cpp.html" target="_top" xlink:title="libraries/AP_HAL_VRBRAIN\l/Util.cpp">
<polygon fill="white" stroke="black" points="955.063,-0.5 955.063,-30.5 1098.06,-30.5 1098.06,-0.5 955.063,-0.5"/>
<text text-anchor="start" x="963.063" y="-18.5" font-family="Helvetica,sans-Serif" font-size="10.00">libraries/AP_HAL_VRBRAIN</text>
<text text-anchor="middle" x="1026.56" y="-7.5" font-family="Helvetica,sans-Serif" font-size="10.00">/Util.cpp</text>
</a>
</g>
</g>
<!-- Node10&#45;&gt;Node11 -->
<g id="edge18" class="edge"><title>Node10&#45;&gt;Node11</title>
<path fill="none" stroke="midnightblue" d="M633.378,-124.305C633.883,-105.872 637.841,-81.3024 653.563,-67 696.463,-27.9726 859.192,-18.7875 954.956,-16.8241"/>
<polygon fill="midnightblue" stroke="midnightblue" points="629.878,-124.338 633.417,-134.324 636.878,-124.311 629.878,-124.338"/>
</g>
<!-- Node12&#45;&gt;Node4 -->
<g id="edge20" class="edge"><title>Node12&#45;&gt;Node4</title>
<path fill="none" stroke="midnightblue" d="M835.019,-124.105C834.003,-105.94 829.574,-81.8171 814.563,-67 793.965,-46.6679 723.494,-32.8962 668.184,-24.9359"/>
<polygon fill="midnightblue" stroke="midnightblue" points="831.523,-124.344 835.275,-134.253 838.521,-124.167 831.523,-124.344"/>
</g>
<!-- Node12&#45;&gt;Node5 -->
<g id="edge22" class="edge"><title>Node12&#45;&gt;Node5</title>
<path fill="none" stroke="midnightblue" d="M804.153,-128.734C788.679,-118.676 770.232,-106.685 756.219,-97.5765"/>
<polygon fill="midnightblue" stroke="midnightblue" points="802.573,-131.881 812.865,-134.396 806.388,-126.011 802.573,-131.881"/>
</g>
<!-- Node13 -->
<g id="node13" class="node"><title>Node13</title>
<g id="a_node13"><a xlink:href="VRBRAIN_2RCInput_8cpp.html" target="_top" xlink:title="libraries/AP_HAL_VRBRAIN\l/RCInput.cpp">
<polygon fill="white" stroke="black" points="863.063,-67.5 863.063,-97.5 1006.06,-97.5 1006.06,-67.5 863.063,-67.5"/>
<text text-anchor="start" x="871.063" y="-85.5" font-family="Helvetica,sans-Serif" font-size="10.00">libraries/AP_HAL_VRBRAIN</text>
<text text-anchor="middle" x="934.563" y="-74.5" font-family="Helvetica,sans-Serif" font-size="10.00">/RCInput.cpp</text>
</a>
</g>
</g>
<!-- Node12&#45;&gt;Node13 -->
<g id="edge21" class="edge"><title>Node12&#45;&gt;Node13</title>
<path fill="none" stroke="midnightblue" d="M864.973,-128.734C880.447,-118.676 898.894,-106.685 912.907,-97.5765"/>
<polygon fill="midnightblue" stroke="midnightblue" points="862.739,-126.011 856.262,-134.396 866.554,-131.881 862.739,-126.011"/>
</g>
<!-- Node14&#45;&gt;Node4 -->
<g id="edge24" class="edge"><title>Node14&#45;&gt;Node4</title>
<path fill="none" stroke="midnightblue" d="M1022.2,-124.648C1026.35,-106.611 1028.22,-82.4007 1014.56,-67 992.016,-41.5648 781.573,-26.4315 668.173,-20.0572"/>
<polygon fill="midnightblue" stroke="midnightblue" points="1018.78,-123.878 1019.59,-134.442 1025.55,-125.681 1018.78,-123.878"/>
</g>
<!-- Node14&#45;&gt;Node5 -->
<g id="edge26" class="edge"><title>Node14&#45;&gt;Node5</title>
<path fill="none" stroke="midnightblue" d="M944.286,-132.186C898.429,-121.54 839.172,-107.784 795.349,-97.6109"/>
<polygon fill="midnightblue" stroke="midnightblue" points="943.62,-135.624 954.152,-134.476 945.203,-128.805 943.62,-135.624"/>
</g>
<!-- Node15 -->
<g id="node15" class="node"><title>Node15</title>
<g id="a_node15"><a xlink:href="VRBRAIN_2RCOutput_8cpp.html" target="_top" xlink:title="libraries/AP_HAL_VRBRAIN\l/RCOutput.cpp">
<polygon fill="white" stroke="black" points="1063.06,-67.5 1063.06,-97.5 1206.06,-97.5 1206.06,-67.5 1063.06,-67.5"/>
<text text-anchor="start" x="1071.06" y="-85.5" font-family="Helvetica,sans-Serif" font-size="10.00">libraries/AP_HAL_VRBRAIN</text>
<text text-anchor="middle" x="1134.56" y="-74.5" font-family="Helvetica,sans-Serif" font-size="10.00">/RCOutput.cpp</text>
</a>
</g>
</g>
<!-- Node14&#45;&gt;Node15 -->
<g id="edge25" class="edge"><title>Node14&#45;&gt;Node15</title>
<path fill="none" stroke="midnightblue" d="M1049.5,-129.575C1068.38,-119.35 1091.29,-106.94 1108.58,-97.5765"/>
<polygon fill="midnightblue" stroke="midnightblue" points="1047.73,-126.556 1040.6,-134.396 1051.06,-132.711 1047.73,-126.556"/>
</g>
<!-- Node17 -->
<g id="node17" class="node"><title>Node17</title>
<g id="a_node17"><a xlink:href="VRBRAIN_2Util_8h.html" target="_top" xlink:title="libraries/AP_HAL_VRBRAIN\l/Util.h">
<polygon fill="white" stroke="black" points="1546.06,-67.5 1546.06,-97.5 1689.06,-97.5 1689.06,-67.5 1546.06,-67.5"/>
<text text-anchor="start" x="1554.06" y="-85.5" font-family="Helvetica,sans-Serif" font-size="10.00">libraries/AP_HAL_VRBRAIN</text>
<text text-anchor="middle" x="1617.56" y="-74.5" font-family="Helvetica,sans-Serif" font-size="10.00">/Util.h</text>
</a>
</g>
</g>
<!-- Node16&#45;&gt;Node17 -->
<g id="edge28" class="edge"><title>Node16&#45;&gt;Node17</title>
<path fill="none" stroke="midnightblue" d="M1501.04,-130.544C1526.8,-120.143 1558.77,-107.238 1582.7,-97.5765"/>
<polygon fill="midnightblue" stroke="midnightblue" points="1499.46,-127.407 1491.5,-134.396 1502.08,-133.898 1499.46,-127.407"/>
</g>
<!-- Node20 -->
<g id="node20" class="node"><title>Node20</title>
<g id="a_node20"><a xlink:href="AP__HAL__VRBRAIN_2Semaphores_8cpp.html" target="_top" xlink:title="libraries/AP_HAL_VRBRAIN\l/Semaphores.cpp">
<polygon fill="white" stroke="black" points="1385.06,-67.5 1385.06,-97.5 1528.06,-97.5 1528.06,-67.5 1385.06,-67.5"/>
<text text-anchor="start" x="1393.06" y="-85.5" font-family="Helvetica,sans-Serif" font-size="10.00">libraries/AP_HAL_VRBRAIN</text>
<text text-anchor="middle" x="1456.56" y="-74.5" font-family="Helvetica,sans-Serif" font-size="10.00">/Semaphores.cpp</text>
</a>
</g>
</g>
<!-- Node16&#45;&gt;Node20 -->
<g id="edge33" class="edge"><title>Node16&#45;&gt;Node20</title>
<path fill="none" stroke="midnightblue" d="M1456.56,-124.108C1456.56,-115.154 1456.56,-105.323 1456.56,-97.5765"/>
<polygon fill="midnightblue" stroke="midnightblue" points="1453.06,-124.396 1456.56,-134.396 1460.06,-124.396 1453.06,-124.396"/>
</g>
<!-- Node17&#45;&gt;Node4 -->
<g id="edge29" class="edge"><title>Node17&#45;&gt;Node4</title>
<path fill="none" stroke="midnightblue" d="M1535.51,-66.9488C1416.37,-55.3054 866.604,-29.0991 668.163,-19.8218"/>
<polygon fill="midnightblue" stroke="midnightblue" points="1535.35,-70.4519 1545.67,-68.029 1536.09,-63.4912 1535.35,-70.4519"/>
</g>
<!-- Node17&#45;&gt;Node11 -->
<g id="edge32" class="edge"><title>Node17&#45;&gt;Node11</title>
<path fill="none" stroke="midnightblue" d="M1535.53,-66.7767C1374,-44.5402 1195.32,-29.2621 1098.29,-21.7501"/>
<polygon fill="midnightblue" stroke="midnightblue" points="1535.26,-70.2735 1545.65,-68.1825 1536.23,-63.3401 1535.26,-70.2735"/>
</g>
<!-- Node18 -->
<g id="node18" class="node"><title>Node18</title>
<g id="a_node18"><a xlink:href="AP__HAL__VRBRAIN_2I2CDevice_8cpp.html" target="_top" xlink:title="libraries/AP_HAL_VRBRAIN\l/I2CDevice.cpp">
<polygon fill="white" stroke="black" points="1304.06,-0.5 1304.06,-30.5 1447.06,-30.5 1447.06,-0.5 1304.06,-0.5"/>
<text text-anchor="start" x="1312.06" y="-18.5" font-family="Helvetica,sans-Serif" font-size="10.00">libraries/AP_HAL_VRBRAIN</text>
<text text-anchor="middle" x="1375.56" y="-7.5" font-family="Helvetica,sans-Serif" font-size="10.00">/I2CDevice.cpp</text>
</a>
</g>
</g>
<!-- Node17&#45;&gt;Node18 -->
<g id="edge30" class="edge"><title>Node17&#45;&gt;Node18</title>
<path fill="none" stroke="midnightblue" d="M1555.57,-64.8498C1516.12,-54.2523 1465.58,-40.6775 1428.1,-30.6109"/>
<polygon fill="midnightblue" stroke="midnightblue" points="1554.79,-68.2621 1565.35,-67.476 1556.6,-61.5017 1554.79,-68.2621"/>
</g>
<!-- Node19 -->
<g id="node19" class="node"><title>Node19</title>
<g id="a_node19"><a xlink:href="AP__HAL__VRBRAIN_2NSHShellStream_8cpp.html" target="_top" xlink:title="libraries/AP_HAL_VRBRAIN\l/NSHShellStream.cpp">
<polygon fill="white" stroke="black" points="1546.06,-0.5 1546.06,-30.5 1689.06,-30.5 1689.06,-0.5 1546.06,-0.5"/>
<text text-anchor="start" x="1554.06" y="-18.5" font-family="Helvetica,sans-Serif" font-size="10.00">libraries/AP_HAL_VRBRAIN</text>
<text text-anchor="middle" x="1617.56" y="-7.5" font-family="Helvetica,sans-Serif" font-size="10.00">/NSHShellStream.cpp</text>
</a>
</g>
</g>
<!-- Node17&#45;&gt;Node19 -->
<g id="edge31" class="edge"><title>Node17&#45;&gt;Node19</title>
<path fill="none" stroke="midnightblue" d="M1617.56,-57.1081C1617.56,-48.1539 1617.56,-38.3227 1617.56,-30.5765"/>
<polygon fill="midnightblue" stroke="midnightblue" points="1614.06,-57.3959 1617.56,-67.396 1621.06,-57.396 1614.06,-57.3959"/>
</g>
<!-- Node22 -->
<g id="node22" class="node"><title>Node22</title>
<g id="a_node22"><a xlink:href="VRBRAIN_2I2CDevice_8h.html" target="_top" xlink:title="libraries/AP_HAL_VRBRAIN\l/I2CDevice.h">
<polygon fill="white" stroke="black" points="1224.06,-67.5 1224.06,-97.5 1367.06,-97.5 1367.06,-67.5 1224.06,-67.5"/>
<text text-anchor="start" x="1232.06" y="-85.5" font-family="Helvetica,sans-Serif" font-size="10.00">libraries/AP_HAL_VRBRAIN</text>
<text text-anchor="middle" x="1295.56" y="-74.5" font-family="Helvetica,sans-Serif" font-size="10.00">/I2CDevice.h</text>
</a>
</g>
</g>
<!-- Node21&#45;&gt;Node22 -->
<g id="edge35" class="edge"><title>Node21&#45;&gt;Node22</title>
<path fill="none" stroke="midnightblue" d="M1261.87,-126.447C1269.36,-116.899 1277.91,-106.004 1284.52,-97.5765"/>
<polygon fill="midnightblue" stroke="midnightblue" points="1259.05,-124.368 1255.63,-134.396 1264.56,-128.689 1259.05,-124.368"/>
</g>
<!-- Node22&#45;&gt;Node4 -->
<g id="edge36" class="edge"><title>Node22&#45;&gt;Node4</title>
<path fill="none" stroke="midnightblue" d="M1213.65,-66.9652C1010.1,-40.9052 781.689,-26.3585 668.168,-20.1229"/>
<polygon fill="midnightblue" stroke="midnightblue" points="1213.26,-70.4444 1223.63,-68.2549 1214.16,-63.5021 1213.26,-70.4444"/>
</g>
<!-- Node22&#45;&gt;Node18 -->
<g id="edge37" class="edge"><title>Node22&#45;&gt;Node18</title>
<path fill="none" stroke="midnightblue" d="M1320.94,-60.8832C1333.09,-51.0054 1347.34,-39.4293 1358.24,-30.5765"/>
<polygon fill="midnightblue" stroke="midnightblue" points="1318.48,-58.3736 1312.92,-67.396 1322.89,-63.8064 1318.48,-58.3736"/>
</g>
</g>
</svg>
        <g id="navigator" transform="translate(0 0)" fill="#404254">
                <rect fill="#f2f5e9" fill-opacity="0.5" stroke="#606060" stroke-width=".5" x="0" y="0" width="60" height="60"/>
                <use id="zoomplus" xlink:href="#zoomPlus" x="17" y="9" onmousedown="handleZoom(evt,'in')"/>
                <use id="zoomminus" xlink:href="#zoomMin" x="42" y="9" onmousedown="handleZoom(evt,'out')"/>
                <use id="reset" xlink:href="#resetDef" x="30" y="36" onmousedown="handleReset()"/>
                <g id="arrowUp" xlink:href="#dirArrow" transform="translate(30 24)" onmousedown="handlePan(0,-1)">
                  <use xlink:href="#rim" fill="#404040">
                        <set attributeName="fill" to="#808080" begin="arrowUp.mouseover" end="arrowUp.mouseout"/>
                  </use>
                  <path fill="none" stroke="white" stroke-width="1.5" d="M0,-3.0v7 M-2.5,-0.5L0,-3.0L2.5,-0.5"/>
                </g>
                <g id="arrowRight" xlink:href="#dirArrow" transform="rotate(90) translate(36 -43)" onmousedown="handlePan(1,0)">
                  <use xlink:href="#rim" fill="#404040">
                        <set attributeName="fill" to="#808080" begin="arrowRight.mouseover" end="arrowRight.mouseout"/>
                  </use>
                  <path fill="none" stroke="white" stroke-width="1.5" d="M0,-3.0v7 M-2.5,-0.5L0,-3.0L2.5,-0.5"/>
                </g>
                <g id="arrowDown" xlink:href="#dirArrow" transform="rotate(180) translate(-30 -48)" onmousedown="handlePan(0,1)">
                  <use xlink:href="#rim" fill="#404040">
                        <set attributeName="fill" to="#808080" begin="arrowDown.mouseover" end="arrowDown.mouseout"/>
                  </use>
                  <path fill="none" stroke="white" stroke-width="1.5" d="M0,-3.0v7 M-2.5,-0.5L0,-3.0L2.5,-0.5"/>
                </g>
                <g id="arrowLeft" xlink:href="#dirArrow" transform="rotate(270) translate(-36 17)" onmousedown="handlePan(-1,0)">
                  <use xlink:href="#rim" fill="#404040">
                        <set attributeName="fill" to="#808080" begin="arrowLeft.mouseover" end="arrowLeft.mouseout"/>
                  </use>
                  <path fill="none" stroke="white" stroke-width="1.5" d="M0,-3.0v7 M-2.5,-0.5L0,-3.0L2.5,-0.5"/>
                </g>
        </g>
        <svg viewBox="0 0 15 15" width="100%" height="30px" preserveAspectRatio="xMaxYMin meet">
         <g id="arrow_out" transform="scale(0.3 0.3)">
          <a xlink:href="AP__HAL__VRBRAIN_8h__dep__incl_org.svg" target="_base">
           <rect id="button" ry="5" rx="5" y="6" x="6" height="38" width="38"
                fill="#f2f5e9" fill-opacity="0.5" stroke="#606060" stroke-width="1.0"/>
           <path id="arrow"
             d="M 11.500037,31.436501 C 11.940474,20.09759 22.043105,11.32322 32.158766,21.979434 L 37.068811,17.246167 C 37.068811,17.246167 37.088388,32 37.088388,32 L 22.160133,31.978069 C 22.160133,31.978069 26.997745,27.140456 26.997745,27.140456 C 18.528582,18.264221 13.291696,25.230495 11.500037,31.436501 z"
             style="fill:#404040;"/>
          </a>
         </g>
        </svg>
</svg>
