<?xml version="1.0" encoding="UTF-8" standalone="no"?>
<!DOCTYPE svg PUBLIC "-//W3C//DTD SVG 1.1//EN"
 "http://www.w3.org/Graphics/SVG/1.1/DTD/svg11.dtd">
<!-- Generated by graphviz version 2.38.0 (20140413.2041)
 -->
<!-- Title: libraries/AP_LeakDetector/AP_LeakDetector_Backend.h Pages: 1 -->
<svg width="567pt" height="173pt"
 viewBox="0.00 0.00 567.00 173.00" xmlns="http://www.w3.org/2000/svg" xmlns:xlink="http://www.w3.org/1999/xlink">
<g id="graph0" class="graph" transform="scale(1 1) rotate(0) translate(4 169)">
<title>libraries/AP_LeakDetector/AP_LeakDetector_Backend.h</title>
<polygon fill="white" stroke="none" points="-4,4 -4,-169 563,-169 563,4 -4,4"/>
<!-- Node1 -->
<g id="node1" class="node"><title>Node1</title>
<polygon fill="#bfbfbf" stroke="black" points="238,-134.5 238,-164.5 387,-164.5 387,-134.5 238,-134.5"/>
<text text-anchor="start" x="246" y="-152.5" font-family="Helvetica,sans-Serif" font-size="10.00">libraries/AP_LeakDetector</text>
<text text-anchor="middle" x="312.5" y="-141.5" font-family="Helvetica,sans-Serif" font-size="10.00">/AP_LeakDetector_Backend.h</text>
</g>
<!-- Node2 -->
<g id="node2" class="node"><title>Node2</title>
<g id="a_node2"><a xlink:href="AP__LeakDetector__Analog_8h.html" target="_top" xlink:title="libraries/AP_LeakDetector\l/AP_LeakDetector_Analog.h">
<polygon fill="white" stroke="black" points="85.5,-67.5 85.5,-97.5 225.5,-97.5 225.5,-67.5 85.5,-67.5"/>
<text text-anchor="start" x="93.5" y="-85.5" font-family="Helvetica,sans-Serif" font-size="10.00">libraries/AP_LeakDetector</text>
<text text-anchor="middle" x="155.5" y="-74.5" font-family="Helvetica,sans-Serif" font-size="10.00">/AP_LeakDetector_Analog.h</text>
</a>
</g>
</g>
<!-- Node1&#45;&gt;Node2 -->
<g id="edge1" class="edge"><title>Node1&#45;&gt;Node2</title>
<path fill="none" stroke="midnightblue" d="M269.13,-130.544C244.007,-120.143 212.836,-107.238 189.5,-97.5765"/>
<polygon fill="midnightblue" stroke="midnightblue" points="267.855,-133.804 278.433,-134.396 270.533,-127.337 267.855,-133.804"/>
</g>
<!-- Node5 -->
<g id="node5" class="node"><title>Node5</title>
<g id="a_node5"><a xlink:href="AP__LeakDetector__Digital_8h.html" target="_top" xlink:title="libraries/AP_LeakDetector\l/AP_LeakDetector_Digital.h">
<polygon fill="white" stroke="black" points="243.5,-67.5 243.5,-97.5 381.5,-97.5 381.5,-67.5 243.5,-67.5"/>
<text text-anchor="start" x="251.5" y="-85.5" font-family="Helvetica,sans-Serif" font-size="10.00">libraries/AP_LeakDetector</text>
<text text-anchor="middle" x="312.5" y="-74.5" font-family="Helvetica,sans-Serif" font-size="10.00">/AP_LeakDetector_Digital.h</text>
</a>
</g>
</g>
<!-- Node1&#45;&gt;Node5 -->
<g id="edge4" class="edge"><title>Node1&#45;&gt;Node5</title>
<path fill="none" stroke="midnightblue" d="M312.5,-124.108C312.5,-115.154 312.5,-105.323 312.5,-97.5765"/>
<polygon fill="midnightblue" stroke="midnightblue" points="309,-124.396 312.5,-134.396 316,-124.396 309,-124.396"/>
</g>
<!-- Node7 -->
<g id="node7" class="node"><title>Node7</title>
<g id="a_node7"><a xlink:href="AP__LeakDetector__Backend_8cpp.html" target="_top" xlink:title="libraries/AP_LeakDetector\l/AP_LeakDetector_Backend.cpp">
<polygon fill="white" stroke="black" points="400,-67.5 400,-97.5 559,-97.5 559,-67.5 400,-67.5"/>
<text text-anchor="start" x="408" y="-85.5" font-family="Helvetica,sans-Serif" font-size="10.00">libraries/AP_LeakDetector</text>
<text text-anchor="middle" x="479.5" y="-74.5" font-family="Helvetica,sans-Serif" font-size="10.00">/AP_LeakDetector_Backend.cpp</text>
</a>
</g>
</g>
<!-- Node1&#45;&gt;Node7 -->
<g id="edge7" class="edge"><title>Node1&#45;&gt;Node7</title>
<path fill="none" stroke="midnightblue" d="M358.28,-130.682C385.063,-120.257 418.402,-107.281 443.334,-97.5765"/>
<polygon fill="midnightblue" stroke="midnightblue" points="356.786,-127.507 348.737,-134.396 359.325,-134.03 356.786,-127.507"/>
</g>
<!-- Node3 -->
<g id="node3" class="node"><title>Node3</title>
<g id="a_node3"><a xlink:href="AP__LeakDetector_8cpp.html" target="_top" xlink:title="libraries/AP_LeakDetector\l/AP_LeakDetector.cpp">
<polygon fill="white" stroke="black" points="169,-0.5 169,-30.5 300,-30.5 300,-0.5 169,-0.5"/>
<text text-anchor="start" x="177" y="-18.5" font-family="Helvetica,sans-Serif" font-size="10.00">libraries/AP_LeakDetector</text>
<text text-anchor="middle" x="234.5" y="-7.5" font-family="Helvetica,sans-Serif" font-size="10.00">/AP_LeakDetector.cpp</text>
</a>
</g>
</g>
<!-- Node2&#45;&gt;Node3 -->
<g id="edge2" class="edge"><title>Node2&#45;&gt;Node3</title>
<path fill="none" stroke="midnightblue" d="M180.557,-60.8832C192.563,-51.0054 206.632,-39.4293 217.392,-30.5765"/>
<polygon fill="midnightblue" stroke="midnightblue" points="178.14,-58.3395 172.642,-67.396 182.588,-63.745 178.14,-58.3395"/>
</g>
<!-- Node4 -->
<g id="node4" class="node"><title>Node4</title>
<g id="a_node4"><a xlink:href="AP__LeakDetector__Analog_8cpp.html" target="_top" xlink:title="libraries/AP_LeakDetector\l/AP_LeakDetector_Analog.cpp">
<polygon fill="white" stroke="black" points="0,-0.5 0,-30.5 151,-30.5 151,-0.5 0,-0.5"/>
<text text-anchor="start" x="8" y="-18.5" font-family="Helvetica,sans-Serif" font-size="10.00">libraries/AP_LeakDetector</text>
<text text-anchor="middle" x="75.5" y="-7.5" font-family="Helvetica,sans-Serif" font-size="10.00">/AP_LeakDetector_Analog.cpp</text>
</a>
</g>
</g>
<!-- Node2&#45;&gt;Node4 -->
<g id="edge3" class="edge"><title>Node2&#45;&gt;Node4</title>
<path fill="none" stroke="midnightblue" d="M130.125,-60.8832C117.968,-51.0054 103.721,-39.4293 92.8249,-30.5765"/>
<polygon fill="midnightblue" stroke="midnightblue" points="128.173,-63.8064 138.141,-67.396 132.587,-58.3736 128.173,-63.8064"/>
</g>
<!-- Node5&#45;&gt;Node3 -->
<g id="edge5" class="edge"><title>Node5&#45;&gt;Node3</title>
<path fill="none" stroke="midnightblue" d="M287.76,-60.8832C275.907,-51.0054 262.015,-39.4293 251.392,-30.5765"/>
<polygon fill="midnightblue" stroke="midnightblue" points="285.652,-63.6829 295.575,-67.396 290.134,-58.3053 285.652,-63.6829"/>
</g>
<!-- Node6 -->
<g id="node6" class="node"><title>Node6</title>
<g id="a_node6"><a xlink:href="AP__LeakDetector__Digital_8cpp.html" target="_top" xlink:title="libraries/AP_LeakDetector\l/AP_LeakDetector_Digital.cpp">
<polygon fill="white" stroke="black" points="318,-0.5 318,-30.5 467,-30.5 467,-0.5 318,-0.5"/>
<text text-anchor="start" x="326" y="-18.5" font-family="Helvetica,sans-Serif" font-size="10.00">libraries/AP_LeakDetector</text>
<text text-anchor="middle" x="392.5" y="-7.5" font-family="Helvetica,sans-Serif" font-size="10.00">/AP_LeakDetector_Digital.cpp</text>
</a>
</g>
</g>
<!-- Node5&#45;&gt;Node6 -->
<g id="edge6" class="edge"><title>Node5&#45;&gt;Node6</title>
<path fill="none" stroke="midnightblue" d="M337.875,-60.8832C350.032,-51.0054 364.279,-39.4293 375.175,-30.5765"/>
<polygon fill="midnightblue" stroke="midnightblue" points="335.413,-58.3736 329.859,-67.396 339.827,-63.8064 335.413,-58.3736"/>
</g>
</g>
</svg>
