<?xml version="1.0" encoding="UTF-8" standalone="no"?>
<!DOCTYPE svg PUBLIC "-//W3C//DTD SVG 1.1//EN"
 "http://www.w3.org/Graphics/SVG/1.1/DTD/svg11.dtd">
<!-- Generated by graphviz version 2.38.0 (20140413.2041)
 -->
<!-- Title: libraries/AP_Navigation/AP_Navigation.h Pages: 1 -->
<svg width="1390pt" height="711pt"
 viewBox="0.00 0.00 1390.00 711.00" xmlns="http://www.w3.org/2000/svg" xmlns:xlink="http://www.w3.org/1999/xlink">
<g id="graph0" class="graph" transform="scale(1 1) rotate(0) translate(4 707)">
<title>libraries/AP_Navigation/AP_Navigation.h</title>
<polygon fill="white" stroke="none" points="-4,4 -4,-707 1386,-707 1386,4 -4,4"/>
<!-- Node1 -->
<g id="node1" class="node"><title>Node1</title>
<polygon fill="#bfbfbf" stroke="black" points="837.5,-672.5 837.5,-702.5 956.5,-702.5 956.5,-672.5 837.5,-672.5"/>
<text text-anchor="start" x="845.5" y="-690.5" font-family="Helvetica,sans-Serif" font-size="10.00">libraries/AP_Navigation</text>
<text text-anchor="middle" x="897" y="-679.5" font-family="Helvetica,sans-Serif" font-size="10.00">/AP_Navigation.h</text>
</g>
<!-- Node2 -->
<g id="node2" class="node"><title>Node2</title>
<g id="a_node2"><a xlink:href="AP__Common_8h.html" target="_top" xlink:title="Common definitions and utility routines for the ArduPilot libraries. ">
<polygon fill="white" stroke="black" points="824.5,-616.5 824.5,-635.5 969.5,-635.5 969.5,-616.5 824.5,-616.5"/>
<text text-anchor="middle" x="897" y="-623.5" font-family="Helvetica,sans-Serif" font-size="10.00">AP_Common/AP_Common.h</text>
</a>
</g>
</g>
<!-- Node1&#45;&gt;Node2 -->
<g id="edge1" class="edge"><title>Node1&#45;&gt;Node2</title>
<path fill="none" stroke="midnightblue" d="M897,-672.399C897,-664.466 897,-654.458 897,-645.858"/>
<polygon fill="midnightblue" stroke="midnightblue" points="900.5,-645.658 897,-635.658 893.5,-645.658 900.5,-645.658"/>
</g>
<!-- Node3 -->
<g id="node3" class="node"><title>Node3</title>
<g id="a_node3"><a xlink:href="AP__HAL__Boards_8h.html" target="_top" xlink:title="AP_HAL/AP_HAL_Boards.h">
<polygon fill="white" stroke="black" points="1176,-392.5 1176,-411.5 1316,-411.5 1316,-392.5 1176,-392.5"/>
<text text-anchor="middle" x="1246" y="-399.5" font-family="Helvetica,sans-Serif" font-size="10.00">AP_HAL/AP_HAL_Boards.h</text>
</a>
</g>
</g>
<!-- Node2&#45;&gt;Node3 -->
<g id="edge2" class="edge"><title>Node2&#45;&gt;Node3</title>
<path fill="none" stroke="midnightblue" d="M957.232,-616.455C992.38,-609.825 1036.79,-598.544 1073,-580 1142.09,-544.622 1156.55,-526.989 1207,-468 1219.4,-453.495 1230.27,-434.563 1237.36,-420.875"/>
<polygon fill="midnightblue" stroke="midnightblue" points="1240.66,-422.1 1242.01,-411.591 1234.4,-418.966 1240.66,-422.1"/>
</g>
<!-- Node4 -->
<g id="node4" class="node"><title>Node4</title>
<polygon fill="white" stroke="#bfbfbf" points="885.5,-280.5 885.5,-299.5 934.5,-299.5 934.5,-280.5 885.5,-280.5"/>
<text text-anchor="middle" x="910" y="-287.5" font-family="Helvetica,sans-Serif" font-size="10.00">stdint.h</text>
</g>
<!-- Node2&#45;&gt;Node4 -->
<g id="edge3" class="edge"><title>Node2&#45;&gt;Node4</title>
<path fill="none" stroke="midnightblue" d="M904.214,-616.449C922.921,-593.816 973.319,-529.838 999,-468 1008.76,-444.493 1008.32,-437.312 1011,-412 1014.64,-377.674 1016.73,-362.817 995,-336 981.96,-319.911 961.603,-308.849 944.08,-301.719"/>
<polygon fill="midnightblue" stroke="midnightblue" points="945.292,-298.436 934.701,-298.156 942.806,-304.98 945.292,-298.436"/>
</g>
<!-- Node5 -->
<g id="node5" class="node"><title>Node5</title>
<polygon fill="white" stroke="#bfbfbf" points="469,-504.5 469,-523.5 517,-523.5 517,-504.5 469,-504.5"/>
<text text-anchor="middle" x="493" y="-511.5" font-family="Helvetica,sans-Serif" font-size="10.00">stdlib.h</text>
</g>
<!-- Node2&#45;&gt;Node5 -->
<g id="edge4" class="edge"><title>Node2&#45;&gt;Node5</title>
<path fill="none" stroke="midnightblue" d="M862.933,-616.429C827.811,-607.537 771.492,-593.121 723,-580 653.14,-561.097 571.711,-537.78 526.905,-524.838"/>
<polygon fill="midnightblue" stroke="midnightblue" points="527.703,-521.425 517.124,-522.009 525.758,-528.15 527.703,-521.425"/>
</g>
<!-- Node6 -->
<g id="node6" class="node"><title>Node6</title>
<g id="a_node6"><a xlink:href="replace_8h.html" target="_top" xlink:title="AP_HAL_QURT/replace.h">
<polygon fill="white" stroke="black" points="732.5,-560.5 732.5,-579.5 863.5,-579.5 863.5,-560.5 732.5,-560.5"/>
<text text-anchor="middle" x="798" y="-567.5" font-family="Helvetica,sans-Serif" font-size="10.00">AP_HAL_QURT/replace.h</text>
</a>
</g>
</g>
<!-- Node2&#45;&gt;Node6 -->
<g id="edge5" class="edge"><title>Node2&#45;&gt;Node6</title>
<path fill="none" stroke="midnightblue" d="M881.094,-616.324C865.362,-607.743 841.058,-594.486 822.791,-584.522"/>
<polygon fill="midnightblue" stroke="midnightblue" points="824.322,-581.37 813.867,-579.655 820.97,-587.516 824.322,-581.37"/>
</g>
<!-- Node6&#45;&gt;Node4 -->
<g id="edge81" class="edge"><title>Node6&#45;&gt;Node4</title>
<path fill="none" stroke="midnightblue" d="M863.809,-562.083C890.267,-556.041 918.954,-544.812 938,-524 995.551,-461.114 1015.83,-411.367 976,-336 968.576,-321.953 954.579,-311.467 941.379,-304.167"/>
<polygon fill="midnightblue" stroke="midnightblue" points="942.957,-301.043 932.459,-299.618 939.777,-307.279 942.957,-301.043"/>
</g>
<!-- Node6&#45;&gt;Node5 -->
<g id="edge80" class="edge"><title>Node6&#45;&gt;Node5</title>
<path fill="none" stroke="midnightblue" d="M735.266,-560.482C682.183,-552.851 603.933,-540.61 526.949,-524.025"/>
<polygon fill="midnightblue" stroke="midnightblue" points="527.596,-520.584 517.08,-521.873 526.105,-527.423 527.596,-520.584"/>
</g>
<!-- Node7 -->
<g id="node7" class="node"><title>Node7</title>
<g id="a_node7"><a xlink:href="AP__HAL_8h.html" target="_top" xlink:title="AP_HAL/AP_HAL.h">
<polygon fill="white" stroke="black" points="535,-504.5 535,-523.5 639,-523.5 639,-504.5 535,-504.5"/>
<text text-anchor="middle" x="587" y="-511.5" font-family="Helvetica,sans-Serif" font-size="10.00">AP_HAL/AP_HAL.h</text>
</a>
</g>
</g>
<!-- Node6&#45;&gt;Node7 -->
<g id="edge6" class="edge"><title>Node6&#45;&gt;Node7</title>
<path fill="none" stroke="midnightblue" d="M764.566,-560.444C728.144,-551.122 669.77,-536.183 629.971,-525.997"/>
<polygon fill="midnightblue" stroke="midnightblue" points="630.833,-522.605 620.277,-523.516 629.097,-529.387 630.833,-522.605"/>
</g>
<!-- Node35 -->
<g id="node35" class="node"><title>Node35</title>
<polygon fill="white" stroke="#bfbfbf" points="657.5,-504.5 657.5,-523.5 706.5,-523.5 706.5,-504.5 657.5,-504.5"/>
<text text-anchor="middle" x="682" y="-511.5" font-family="Helvetica,sans-Serif" font-size="10.00">types.h</text>
</g>
<!-- Node6&#45;&gt;Node35 -->
<g id="edge82" class="edge"><title>Node6&#45;&gt;Node35</title>
<path fill="none" stroke="midnightblue" d="M779.619,-560.444C760.784,-551.675 731.269,-537.935 709.621,-527.858"/>
<polygon fill="midnightblue" stroke="midnightblue" points="710.838,-524.564 700.295,-523.516 707.883,-530.91 710.838,-524.564"/>
</g>
<!-- Node36 -->
<g id="node36" class="node"><title>Node36</title>
<polygon fill="white" stroke="#bfbfbf" points="725,-504.5 725,-523.5 793,-523.5 793,-504.5 725,-504.5"/>
<text text-anchor="middle" x="759" y="-511.5" font-family="Helvetica,sans-Serif" font-size="10.00">sys/types.h</text>
</g>
<!-- Node6&#45;&gt;Node36 -->
<g id="edge83" class="edge"><title>Node6&#45;&gt;Node36</title>
<path fill="none" stroke="midnightblue" d="M791.56,-560.083C786.051,-552.455 777.969,-541.264 771.235,-531.941"/>
<polygon fill="midnightblue" stroke="midnightblue" points="774.013,-529.809 765.32,-523.751 768.338,-533.907 774.013,-529.809"/>
</g>
<!-- Node37 -->
<g id="node37" class="node"><title>Node37</title>
<polygon fill="white" stroke="#bfbfbf" points="811.5,-504.5 811.5,-523.5 862.5,-523.5 862.5,-504.5 811.5,-504.5"/>
<text text-anchor="middle" x="837" y="-511.5" font-family="Helvetica,sans-Serif" font-size="10.00">unistd.h</text>
</g>
<!-- Node6&#45;&gt;Node37 -->
<g id="edge84" class="edge"><title>Node6&#45;&gt;Node37</title>
<path fill="none" stroke="midnightblue" d="M804.44,-560.083C809.949,-552.455 818.031,-541.264 824.765,-531.941"/>
<polygon fill="midnightblue" stroke="midnightblue" points="827.662,-533.907 830.68,-523.751 821.987,-529.809 827.662,-533.907"/>
</g>
<!-- Node38 -->
<g id="node38" class="node"><title>Node38</title>
<polygon fill="white" stroke="#bfbfbf" points="880.5,-504.5 880.5,-523.5 929.5,-523.5 929.5,-504.5 880.5,-504.5"/>
<text text-anchor="middle" x="905" y="-511.5" font-family="Helvetica,sans-Serif" font-size="10.00">dirent.h</text>
</g>
<!-- Node6&#45;&gt;Node38 -->
<g id="edge85" class="edge"><title>Node6&#45;&gt;Node38</title>
<path fill="none" stroke="midnightblue" d="M815.191,-560.324C832.351,-551.664 858.946,-538.242 878.747,-528.249"/>
<polygon fill="midnightblue" stroke="midnightblue" points="880.501,-531.285 887.851,-523.655 877.347,-525.035 880.501,-531.285"/>
</g>
<!-- Node7&#45;&gt;Node3 -->
<g id="edge12" class="edge"><title>Node7&#45;&gt;Node3</title>
<path fill="none" stroke="midnightblue" d="M639.209,-505.022C642.18,-504.653 645.126,-504.309 648,-504 765.151,-491.391 1069.02,-515.156 1177,-468 1200.7,-457.649 1221.31,-435.511 1233.68,-419.958"/>
<polygon fill="midnightblue" stroke="midnightblue" points="1236.7,-421.775 1239.98,-411.701 1231.14,-417.529 1236.7,-421.775"/>
</g>
<!-- Node7&#45;&gt;Node4 -->
<g id="edge7" class="edge"><title>Node7&#45;&gt;Node4</title>
<path fill="none" stroke="midnightblue" d="M627.22,-504.475C668.67,-495.247 730.097,-480.215 751,-468 821.088,-427.043 877.269,-344.66 899.59,-308.59"/>
<polygon fill="midnightblue" stroke="midnightblue" points="902.778,-310.083 904.972,-299.718 896.793,-306.453 902.778,-310.083"/>
</g>
<!-- Node8 -->
<g id="node8" class="node"><title>Node8</title>
<g id="a_node8"><a xlink:href="AP__HAL__Namespace_8h.html" target="_top" xlink:title="AP_HAL_Namespace.h">
<polygon fill="white" stroke="black" points="537.5,-112.5 537.5,-131.5 658.5,-131.5 658.5,-112.5 537.5,-112.5"/>
<text text-anchor="middle" x="598" y="-119.5" font-family="Helvetica,sans-Serif" font-size="10.00">AP_HAL_Namespace.h</text>
</a>
</g>
</g>
<!-- Node7&#45;&gt;Node8 -->
<g id="edge8" class="edge"><title>Node7&#45;&gt;Node8</title>
<path fill="none" stroke="midnightblue" d="M534.763,-505.251C531.799,-504.824 528.862,-504.405 526,-504 407.876,-487.293 369.723,-514.834 260,-468 180.585,-434.103 108,-433.347 108,-347 108,-347 108,-347 108,-233 108,-148.133 391.368,-128.729 527.123,-124.303"/>
<polygon fill="midnightblue" stroke="midnightblue" points="527.537,-127.792 537.425,-123.986 527.322,-120.795 527.537,-127.792"/>
</g>
<!-- Node12 -->
<g id="node12" class="node"><title>Node12</title>
<g id="a_node12"><a xlink:href="AP__HAL__Macros_8h.html" target="_top" xlink:title="AP_HAL_Macros.h">
<polygon fill="white" stroke="black" points="1056.5,-280.5 1056.5,-299.5 1157.5,-299.5 1157.5,-280.5 1056.5,-280.5"/>
<text text-anchor="middle" x="1107" y="-287.5" font-family="Helvetica,sans-Serif" font-size="10.00">AP_HAL_Macros.h</text>
</a>
</g>
</g>
<!-- Node7&#45;&gt;Node12 -->
<g id="edge13" class="edge"><title>Node7&#45;&gt;Node12</title>
<path fill="none" stroke="midnightblue" d="M639.236,-505.242C642.201,-504.818 645.138,-504.401 648,-504 768.326,-487.132 809.261,-520.156 919,-468 999.28,-429.845 1067.98,-344.611 1094.88,-308.117"/>
<polygon fill="midnightblue" stroke="midnightblue" points="1098.04,-309.722 1101.07,-299.569 1092.37,-305.617 1098.04,-309.722"/>
</g>
<!-- Node13 -->
<g id="node13" class="node"><title>Node13</title>
<g id="a_node13"><a xlink:href="AP__HAL__Main_8h.html" target="_top" xlink:title="AP_HAL_Main.h">
<polygon fill="white" stroke="black" points="609.5,-448.5 609.5,-467.5 698.5,-467.5 698.5,-448.5 609.5,-448.5"/>
<text text-anchor="middle" x="654" y="-455.5" font-family="Helvetica,sans-Serif" font-size="10.00">AP_HAL_Main.h</text>
</a>
</g>
</g>
<!-- Node7&#45;&gt;Node13 -->
<g id="edge14" class="edge"><title>Node7&#45;&gt;Node13</title>
<path fill="none" stroke="midnightblue" d="M597.765,-504.324C607.766,-496.263 622.887,-484.077 634.93,-474.369"/>
<polygon fill="midnightblue" stroke="midnightblue" points="637.45,-476.834 643.039,-467.834 633.057,-471.384 637.45,-476.834"/>
</g>
<!-- Node14 -->
<g id="node14" class="node"><title>Node14</title>
<g id="a_node14"><a xlink:href="HAL_8h.html" target="_top" xlink:title="HAL.h">
<polygon fill="white" stroke="black" points="613,-392.5 613,-411.5 657,-411.5 657,-392.5 613,-392.5"/>
<text text-anchor="middle" x="635" y="-399.5" font-family="Helvetica,sans-Serif" font-size="10.00">HAL.h</text>
</a>
</g>
</g>
<!-- Node7&#45;&gt;Node14 -->
<g id="edge78" class="edge"><title>Node7&#45;&gt;Node14</title>
<path fill="none" stroke="midnightblue" d="M587.478,-504.195C588.454,-491.319 591.379,-466.836 600,-448 604.769,-437.58 612.383,-427.381 619.294,-419.334"/>
<polygon fill="midnightblue" stroke="midnightblue" points="621.986,-421.575 626.092,-411.808 616.791,-416.883 621.986,-421.575"/>
</g>
<!-- Node15 -->
<g id="node15" class="node"><title>Node15</title>
<g id="a_node15"><a xlink:href="AnalogIn_8h.html" target="_top" xlink:title="AnalogIn.h">
<polygon fill="white" stroke="black" points="847.5,-224.5 847.5,-243.5 910.5,-243.5 910.5,-224.5 847.5,-224.5"/>
<text text-anchor="middle" x="879" y="-231.5" font-family="Helvetica,sans-Serif" font-size="10.00">AnalogIn.h</text>
</a>
</g>
</g>
<!-- Node7&#45;&gt;Node15 -->
<g id="edge59" class="edge"><title>Node7&#45;&gt;Node15</title>
<path fill="none" stroke="midnightblue" d="M639.208,-505.009C642.179,-504.644 645.126,-504.304 648,-504 895.578,-477.809 966.007,-530.475 1207,-468 1272.24,-451.088 1344,-470.395 1344,-403 1344,-403 1344,-403 1344,-345 1344,-274.782 1267.45,-299.516 1200,-280 1148.37,-265.062 995.073,-247.363 920.572,-239.339"/>
<polygon fill="midnightblue" stroke="midnightblue" points="920.916,-235.856 910.601,-238.273 920.172,-242.817 920.916,-235.856"/>
</g>
<!-- Node17 -->
<g id="node17" class="node"><title>Node17</title>
<g id="a_node17"><a xlink:href="GPIO_8h.html" target="_top" xlink:title="GPIO.h">
<polygon fill="white" stroke="black" points="464,-336.5 464,-355.5 514,-355.5 514,-336.5 464,-336.5"/>
<text text-anchor="middle" x="489" y="-343.5" font-family="Helvetica,sans-Serif" font-size="10.00">GPIO.h</text>
</a>
</g>
</g>
<!-- Node7&#45;&gt;Node17 -->
<g id="edge61" class="edge"><title>Node7&#45;&gt;Node17</title>
<path fill="none" stroke="midnightblue" d="M581.731,-504.075C566.105,-477.606 519.822,-399.209 499.16,-364.21"/>
<polygon fill="midnightblue" stroke="midnightblue" points="502.156,-362.4 494.058,-355.568 496.128,-365.959 502.156,-362.4"/>
</g>
<!-- Node18 -->
<g id="node18" class="node"><title>Node18</title>
<g id="a_node18"><a xlink:href="RCInput_8h.html" target="_top" xlink:title="RCInput.h">
<polygon fill="white" stroke="black" points="532,-336.5 532,-355.5 594,-355.5 594,-336.5 532,-336.5"/>
<text text-anchor="middle" x="563" y="-343.5" font-family="Helvetica,sans-Serif" font-size="10.00">RCInput.h</text>
</a>
</g>
</g>
<!-- Node7&#45;&gt;Node18 -->
<g id="edge62" class="edge"><title>Node7&#45;&gt;Node18</title>
<path fill="none" stroke="midnightblue" d="M585.71,-504.075C581.932,-477.945 570.838,-401.211 565.686,-365.577"/>
<polygon fill="midnightblue" stroke="midnightblue" points="569.134,-364.964 564.239,-355.568 562.206,-365.966 569.134,-364.964"/>
</g>
<!-- Node19 -->
<g id="node19" class="node"><title>Node19</title>
<g id="a_node19"><a xlink:href="RCOutput_8h.html" target="_top" xlink:title="RCOutput.h">
<polygon fill="white" stroke="black" points="650.5,-336.5 650.5,-355.5 719.5,-355.5 719.5,-336.5 650.5,-336.5"/>
<text text-anchor="middle" x="685" y="-343.5" font-family="Helvetica,sans-Serif" font-size="10.00">RCOutput.h</text>
</a>
</g>
</g>
<!-- Node7&#45;&gt;Node19 -->
<g id="edge63" class="edge"><title>Node7&#45;&gt;Node19</title>
<path fill="none" stroke="midnightblue" d="M622.495,-504.457C654.172,-496.029 697.051,-482.356 707,-468 728.902,-436.395 709.101,-389.375 695.432,-364.27"/>
<polygon fill="midnightblue" stroke="midnightblue" points="698.429,-362.46 690.425,-355.518 692.353,-365.936 698.429,-362.46"/>
</g>
<!-- Node24 -->
<g id="node24" class="node"><title>Node24</title>
<g id="a_node24"><a xlink:href="Storage_8h.html" target="_top" xlink:title="Storage.h">
<polygon fill="white" stroke="black" points="386.5,-336.5 386.5,-355.5 445.5,-355.5 445.5,-336.5 386.5,-336.5"/>
<text text-anchor="middle" x="416" y="-343.5" font-family="Helvetica,sans-Serif" font-size="10.00">Storage.h</text>
</a>
</g>
</g>
<!-- Node7&#45;&gt;Node24 -->
<g id="edge60" class="edge"><title>Node7&#45;&gt;Node24</title>
<path fill="none" stroke="midnightblue" d="M577.806,-504.075C550.19,-477.267 467.702,-397.19 432.364,-362.885"/>
<polygon fill="midnightblue" stroke="midnightblue" points="434.439,-360.022 424.826,-355.568 429.564,-365.045 434.439,-360.022"/>
</g>
<!-- Node25 -->
<g id="node25" class="node"><title>Node25</title>
<g id="a_node25"><a xlink:href="UARTDriver_8h.html" target="_top" xlink:title="UARTDriver.h">
<polygon fill="white" stroke="black" points="250.5,-336.5 250.5,-355.5 329.5,-355.5 329.5,-336.5 250.5,-336.5"/>
<text text-anchor="middle" x="290" y="-343.5" font-family="Helvetica,sans-Serif" font-size="10.00">UARTDriver.h</text>
</a>
</g>
</g>
<!-- Node7&#45;&gt;Node25 -->
<g id="edge58" class="edge"><title>Node7&#45;&gt;Node25</title>
<path fill="none" stroke="midnightblue" d="M534.868,-504.61C465.729,-493.3 351.489,-473.898 344,-468 311.424,-442.346 297.951,-392.831 292.829,-365.775"/>
<polygon fill="midnightblue" stroke="midnightblue" points="296.241,-364.961 291.115,-355.689 289.34,-366.134 296.241,-364.961"/>
</g>
<!-- Node26 -->
<g id="node26" class="node"><title>Node26</title>
<g id="a_node26"><a xlink:href="BetterStream_8h.html" target="_top" xlink:title="utility/BetterStream.h">
<polygon fill="white" stroke="black" points="194.5,-280.5 194.5,-299.5 303.5,-299.5 303.5,-280.5 194.5,-280.5"/>
<text text-anchor="middle" x="249" y="-287.5" font-family="Helvetica,sans-Serif" font-size="10.00">utility/BetterStream.h</text>
</a>
</g>
</g>
<!-- Node7&#45;&gt;Node26 -->
<g id="edge77" class="edge"><title>Node7&#45;&gt;Node26</title>
<path fill="none" stroke="midnightblue" d="M534.911,-505.148C460.569,-493.793 331.959,-473.54 323,-468 270.529,-435.553 260.171,-414.639 241,-356 236.031,-340.803 238.935,-322.688 242.562,-309.447"/>
<polygon fill="midnightblue" stroke="midnightblue" points="245.984,-310.23 245.622,-299.642 239.302,-308.145 245.984,-310.23"/>
</g>
<!-- Node28 -->
<g id="node28" class="node"><title>Node28</title>
<g id="a_node28"><a xlink:href="Stream_8h.html" target="_top" xlink:title="Stream.h">
<polygon fill="white" stroke="black" points="371,-224.5 371,-243.5 427,-243.5 427,-224.5 371,-224.5"/>
<text text-anchor="middle" x="399" y="-231.5" font-family="Helvetica,sans-Serif" font-size="10.00">Stream.h</text>
</a>
</g>
</g>
<!-- Node7&#45;&gt;Node28 -->
<g id="edge76" class="edge"><title>Node7&#45;&gt;Node28</title>
<path fill="none" stroke="midnightblue" d="M564.238,-504.389C518.409,-485.631 416.064,-436.215 377,-356 360.477,-322.071 377.257,-277.313 389.23,-252.854"/>
<polygon fill="midnightblue" stroke="midnightblue" points="392.476,-254.195 393.956,-243.704 386.257,-250.983 392.476,-254.195"/>
</g>
<!-- Node29 -->
<g id="node29" class="node"><title>Node29</title>
<g id="a_node29"><a xlink:href="Print_8h.html" target="_top" xlink:title="Print.h">
<polygon fill="white" stroke="black" points="802.5,-168.5 802.5,-187.5 847.5,-187.5 847.5,-168.5 802.5,-168.5"/>
<text text-anchor="middle" x="825" y="-175.5" font-family="Helvetica,sans-Serif" font-size="10.00">Print.h</text>
</a>
</g>
</g>
<!-- Node7&#45;&gt;Node29 -->
<g id="edge75" class="edge"><title>Node7&#45;&gt;Node29</title>
<path fill="none" stroke="midnightblue" d="M639.205,-504.985C642.177,-504.626 645.125,-504.294 648,-504 787.281,-489.768 1143.49,-510.142 1277,-468 1329.34,-451.48 1382,-457.885 1382,-403 1382,-403 1382,-403 1382,-345 1382,-234.08 1126.46,-276.056 998,-244 945.159,-230.814 886.332,-206.537 852.689,-191.674"/>
<polygon fill="midnightblue" stroke="midnightblue" points="854.05,-188.449 843.492,-187.568 851.196,-194.841 854.05,-188.449"/>
</g>
<!-- Node30 -->
<g id="node30" class="node"><title>Node30</title>
<g id="a_node30"><a xlink:href="system_8h.html" target="_top" xlink:title="system.h">
<polygon fill="white" stroke="black" points="910.5,-336.5 910.5,-355.5 967.5,-355.5 967.5,-336.5 910.5,-336.5"/>
<text text-anchor="middle" x="939" y="-343.5" font-family="Helvetica,sans-Serif" font-size="10.00">system.h</text>
</a>
</g>
</g>
<!-- Node7&#45;&gt;Node30 -->
<g id="edge79" class="edge"><title>Node7&#45;&gt;Node30</title>
<path fill="none" stroke="midnightblue" d="M639.242,-505.284C642.205,-504.849 645.14,-504.419 648,-504 703.102,-495.936 852.935,-503.308 896,-468 927.075,-442.522 935.708,-392.935 938.096,-365.821"/>
<polygon fill="midnightblue" stroke="midnightblue" points="941.597,-365.927 938.784,-355.712 934.613,-365.451 941.597,-365.927"/>
</g>
<!-- Node31 -->
<g id="node31" class="node"><title>Node31</title>
<g id="a_node31"><a xlink:href="AP__HAL_2OpticalFlow_8h.html" target="_top" xlink:title="OpticalFlow.h">
<polygon fill="white" stroke="black" points="776.5,-336.5 776.5,-355.5 853.5,-355.5 853.5,-336.5 776.5,-336.5"/>
<text text-anchor="middle" x="815" y="-343.5" font-family="Helvetica,sans-Serif" font-size="10.00">OpticalFlow.h</text>
</a>
</g>
</g>
<!-- Node7&#45;&gt;Node31 -->
<g id="edge74" class="edge"><title>Node7&#45;&gt;Node31</title>
<path fill="none" stroke="midnightblue" d="M638.076,-504.436C666.001,-497.889 700.079,-486.696 726,-468 764.277,-440.392 792.914,-391.347 806.411,-364.972"/>
<polygon fill="midnightblue" stroke="midnightblue" points="809.667,-366.284 810.973,-355.77 803.395,-363.175 809.667,-366.284"/>
</g>
<!-- Node32 -->
<g id="node32" class="node"><title>Node32</title>
<g id="a_node32"><a xlink:href="Scheduler_8h.html" target="_top" xlink:title="Scheduler.h">
<polygon fill="white" stroke="black" points="1100,-448.5 1100,-467.5 1168,-467.5 1168,-448.5 1100,-448.5"/>
<text text-anchor="middle" x="1134" y="-455.5" font-family="Helvetica,sans-Serif" font-size="10.00">Scheduler.h</text>
</a>
</g>
</g>
<!-- Node7&#45;&gt;Node32 -->
<g id="edge64" class="edge"><title>Node7&#45;&gt;Node32</title>
<path fill="none" stroke="midnightblue" d="M639.219,-505.106C642.187,-504.716 645.13,-504.344 648,-504 810.336,-484.523 1004.05,-468.842 1089.62,-462.3"/>
<polygon fill="midnightblue" stroke="midnightblue" points="1090.05,-465.778 1099.76,-461.529 1089.52,-458.798 1090.05,-465.778"/>
</g>
<!-- Node33 -->
<g id="node33" class="node"><title>Node33</title>
<g id="a_node33"><a xlink:href="Semaphores_8h.html" target="_top" xlink:title="Semaphores.h">
<polygon fill="white" stroke="black" points="0,-392.5 0,-411.5 80,-411.5 80,-392.5 0,-392.5"/>
<text text-anchor="middle" x="40" y="-399.5" font-family="Helvetica,sans-Serif" font-size="10.00">Semaphores.h</text>
</a>
</g>
</g>
<!-- Node7&#45;&gt;Node33 -->
<g id="edge69" class="edge"><title>Node7&#45;&gt;Node33</title>
<path fill="none" stroke="midnightblue" d="M534.782,-505.102C531.813,-504.713 528.87,-504.343 526,-504 351.399,-483.159 296.992,-528.808 132,-468 102.353,-457.074 73.4841,-434.05 56.219,-418.55"/>
<polygon fill="midnightblue" stroke="midnightblue" points="58.4453,-415.841 48.723,-411.631 53.6975,-420.985 58.4453,-415.841"/>
</g>
<!-- Node34 -->
<g id="node34" class="node"><title>Node34</title>
<g id="a_node34"><a xlink:href="Util_8h.html" target="_top" xlink:title="Util.h">
<polygon fill="white" stroke="black" points="136,-280.5 136,-299.5 176,-299.5 176,-280.5 136,-280.5"/>
<text text-anchor="middle" x="156" y="-287.5" font-family="Helvetica,sans-Serif" font-size="10.00">Util.h</text>
</a>
</g>
</g>
<!-- Node7&#45;&gt;Node34 -->
<g id="edge71" class="edge"><title>Node7&#45;&gt;Node34</title>
<path fill="none" stroke="midnightblue" d="M534.705,-505.175C450.066,-492.492 292.308,-468.775 291,-468 225.943,-429.44 181.464,-346.41 164.117,-309.425"/>
<polygon fill="midnightblue" stroke="midnightblue" points="167.11,-307.554 159.779,-299.906 160.741,-310.457 167.11,-307.554"/>
</g>
<!-- Node9 -->
<g id="node9" class="node"><title>Node9</title>
<polygon fill="white" stroke="#bfbfbf" points="645.5,-56.5 645.5,-75.5 694.5,-75.5 694.5,-56.5 645.5,-56.5"/>
<text text-anchor="middle" x="670" y="-63.5" font-family="Helvetica,sans-Serif" font-size="10.00">string.h</text>
</g>
<!-- Node8&#45;&gt;Node9 -->
<g id="edge9" class="edge"><title>Node8&#45;&gt;Node9</title>
<path fill="none" stroke="midnightblue" d="M609.568,-112.324C620.42,-104.185 636.881,-91.8395 649.883,-82.0874"/>
<polygon fill="midnightblue" stroke="midnightblue" points="652.321,-84.6339 658.221,-75.8339 648.121,-79.0339 652.321,-84.6339"/>
</g>
<!-- Node10 -->
<g id="node10" class="node"><title>Node10</title>
<g id="a_node10"><a xlink:href="functor_8h.html" target="_top" xlink:title="utility/functor.h">
<polygon fill="white" stroke="black" points="748.5,-56.5 748.5,-75.5 829.5,-75.5 829.5,-56.5 748.5,-56.5"/>
<text text-anchor="middle" x="789" y="-63.5" font-family="Helvetica,sans-Serif" font-size="10.00">utility/functor.h</text>
</a>
</g>
</g>
<!-- Node8&#45;&gt;Node10 -->
<g id="edge10" class="edge"><title>Node8&#45;&gt;Node10</title>
<path fill="none" stroke="midnightblue" d="M628.265,-112.444C660.955,-103.201 713.182,-88.4356 749.183,-78.2572"/>
<polygon fill="midnightblue" stroke="midnightblue" points="750.206,-81.6051 758.877,-75.5164 748.302,-74.8691 750.206,-81.6051"/>
</g>
<!-- Node11 -->
<g id="node11" class="node"><title>Node11</title>
<polygon fill="white" stroke="#bfbfbf" points="758,-0.5 758,-19.5 820,-19.5 820,-0.5 758,-0.5"/>
<text text-anchor="middle" x="789" y="-7.5" font-family="Helvetica,sans-Serif" font-size="10.00">type_traits</text>
</g>
<!-- Node10&#45;&gt;Node11 -->
<g id="edge11" class="edge"><title>Node10&#45;&gt;Node11</title>
<path fill="none" stroke="midnightblue" d="M789,-56.083C789,-49.0059 789,-38.8611 789,-29.9865"/>
<polygon fill="midnightblue" stroke="midnightblue" points="792.5,-29.751 789,-19.7511 785.5,-29.7511 792.5,-29.751"/>
</g>
<!-- Node13&#45;&gt;Node14 -->
<g id="edge15" class="edge"><title>Node13&#45;&gt;Node14</title>
<path fill="none" stroke="midnightblue" d="M650.863,-448.083C648.317,-440.849 644.644,-430.409 641.473,-421.397"/>
<polygon fill="midnightblue" stroke="midnightblue" points="644.7,-420.023 638.079,-411.751 638.097,-422.346 644.7,-420.023"/>
</g>
<!-- Node14&#45;&gt;Node8 -->
<g id="edge16" class="edge"><title>Node14&#45;&gt;Node8</title>
<path fill="none" stroke="midnightblue" d="M633.3,-392.483C629.777,-374.056 622,-329.076 622,-291 622,-291 622,-291 622,-233 622,-200.059 611.599,-162.818 604.491,-141.214"/>
<polygon fill="midnightblue" stroke="midnightblue" points="607.785,-140.028 601.237,-131.699 601.162,-142.294 607.785,-140.028"/>
</g>
<!-- Node14&#45;&gt;Node15 -->
<g id="edge17" class="edge"><title>Node14&#45;&gt;Node15</title>
<path fill="none" stroke="midnightblue" d="M656.027,-392.444C675.357,-384.207 704.491,-370.841 728,-356 780.26,-323.009 835.389,-274.947 862.276,-250.512"/>
<polygon fill="midnightblue" stroke="midnightblue" points="864.669,-253.066 869.678,-243.73 859.941,-247.905 864.669,-253.066"/>
</g>
<!-- Node14&#45;&gt;Node17 -->
<g id="edge20" class="edge"><title>Node14&#45;&gt;Node17</title>
<path fill="none" stroke="midnightblue" d="M612.826,-392.799C588.67,-383.864 549.774,-369.478 522.023,-359.214"/>
<polygon fill="midnightblue" stroke="midnightblue" points="522.944,-355.823 512.351,-355.637 520.516,-362.388 522.944,-355.823"/>
</g>
<!-- Node14&#45;&gt;Node18 -->
<g id="edge23" class="edge"><title>Node14&#45;&gt;Node18</title>
<path fill="none" stroke="midnightblue" d="M623.432,-392.324C612.58,-384.185 596.119,-371.839 583.117,-362.087"/>
<polygon fill="midnightblue" stroke="midnightblue" points="584.879,-359.034 574.779,-355.834 580.679,-364.634 584.879,-359.034"/>
</g>
<!-- Node14&#45;&gt;Node19 -->
<g id="edge25" class="edge"><title>Node14&#45;&gt;Node19</title>
<path fill="none" stroke="midnightblue" d="M643.256,-392.083C650.465,-384.298 661.11,-372.801 669.846,-363.367"/>
<polygon fill="midnightblue" stroke="midnightblue" points="672.671,-365.467 676.897,-355.751 667.535,-360.711 672.671,-365.467"/>
</g>
<!-- Node20 -->
<g id="node20" class="node"><title>Node20</title>
<g id="a_node20"><a xlink:href="SPIDevice_8h.html" target="_top" xlink:title="SPIDevice.h">
<polygon fill="white" stroke="black" points="1007,-224.5 1007,-243.5 1079,-243.5 1079,-224.5 1007,-224.5"/>
<text text-anchor="middle" x="1043" y="-231.5" font-family="Helvetica,sans-Serif" font-size="10.00">SPIDevice.h</text>
</a>
</g>
</g>
<!-- Node14&#45;&gt;Node20 -->
<g id="edge27" class="edge"><title>Node14&#45;&gt;Node20</title>
<path fill="none" stroke="midnightblue" d="M657.122,-400.628C724.165,-399.113 923.692,-391.644 976,-356 1012.1,-331.399 1030.73,-280.652 1038.49,-253.347"/>
<polygon fill="midnightblue" stroke="midnightblue" points="1041.91,-254.089 1041.09,-243.526 1035.14,-252.294 1041.91,-254.089"/>
</g>
<!-- Node14&#45;&gt;Node24 -->
<g id="edge36" class="edge"><title>Node14&#45;&gt;Node24</title>
<path fill="none" stroke="midnightblue" d="M612.796,-395.525C575.896,-386.426 501.464,-368.073 455.458,-356.729"/>
<polygon fill="midnightblue" stroke="midnightblue" points="456.083,-353.279 445.536,-354.283 454.407,-360.075 456.083,-353.279"/>
</g>
<!-- Node14&#45;&gt;Node25 -->
<g id="edge39" class="edge"><title>Node14&#45;&gt;Node25</title>
<path fill="none" stroke="midnightblue" d="M612.894,-397.54C558.35,-389.003 416.271,-366.764 340.047,-354.833"/>
<polygon fill="midnightblue" stroke="midnightblue" points="340.165,-351.309 329.744,-353.221 339.083,-358.225 340.165,-351.309"/>
</g>
<!-- Node14&#45;&gt;Node30 -->
<g id="edge53" class="edge"><title>Node14&#45;&gt;Node30</title>
<path fill="none" stroke="midnightblue" d="M657.354,-397.029C708.66,-387.916 835.396,-365.403 899.912,-353.943"/>
<polygon fill="midnightblue" stroke="midnightblue" points="900.851,-357.331 910.085,-352.136 899.626,-350.439 900.851,-357.331"/>
</g>
<!-- Node14&#45;&gt;Node31 -->
<g id="edge57" class="edge"><title>Node14&#45;&gt;Node31</title>
<path fill="none" stroke="midnightblue" d="M657.072,-394.379C686.848,-385.446 740.34,-369.398 776.737,-358.479"/>
<polygon fill="midnightblue" stroke="midnightblue" points="777.943,-361.771 786.516,-355.545 775.932,-355.066 777.943,-361.771"/>
</g>
<!-- Node15&#45;&gt;Node8 -->
<g id="edge19" class="edge"><title>Node15&#45;&gt;Node8</title>
<path fill="none" stroke="midnightblue" d="M855.653,-224.433C831.595,-215.543 793.048,-201.13 760,-188 738.522,-179.467 733.416,-176.688 712,-168 684.176,-156.713 652.386,-144.196 629.458,-135.234"/>
<polygon fill="midnightblue" stroke="midnightblue" points="630.492,-131.88 619.903,-131.505 627.946,-138.401 630.492,-131.88"/>
</g>
<!-- Node16 -->
<g id="node16" class="node"><title>Node16</title>
<polygon fill="white" stroke="#bfbfbf" points="892.5,-112.5 892.5,-131.5 951.5,-131.5 951.5,-112.5 892.5,-112.5"/>
<text text-anchor="middle" x="922" y="-119.5" font-family="Helvetica,sans-Serif" font-size="10.00">inttypes.h</text>
</g>
<!-- Node15&#45;&gt;Node16 -->
<g id="edge18" class="edge"><title>Node15&#45;&gt;Node16</title>
<path fill="none" stroke="midnightblue" d="M894.783,-224.467C907.203,-216.769 923.605,-204.179 931,-188 937.726,-173.284 934.219,-154.889 929.762,-141.427"/>
<polygon fill="midnightblue" stroke="midnightblue" points="932.958,-139.982 926.163,-131.854 926.406,-142.446 932.958,-139.982"/>
</g>
<!-- Node17&#45;&gt;Node4 -->
<g id="edge21" class="edge"><title>Node17&#45;&gt;Node4</title>
<path fill="none" stroke="midnightblue" d="M514.159,-337.911C517.125,-337.203 520.12,-336.546 523,-336 651.689,-311.615 807.119,-298.373 875.205,-293.369"/>
<polygon fill="midnightblue" stroke="midnightblue" points="875.643,-296.846 885.365,-292.636 875.139,-289.865 875.643,-296.846"/>
</g>
<!-- Node17&#45;&gt;Node8 -->
<g id="edge22" class="edge"><title>Node17&#45;&gt;Node8</title>
<path fill="none" stroke="midnightblue" d="M493.273,-336.297C509.413,-303.425 566.876,-186.391 589.118,-141.09"/>
<polygon fill="midnightblue" stroke="midnightblue" points="592.373,-142.403 593.638,-131.884 586.089,-139.318 592.373,-142.403"/>
</g>
<!-- Node18&#45;&gt;Node8 -->
<g id="edge24" class="edge"><title>Node18&#45;&gt;Node8</title>
<path fill="none" stroke="midnightblue" d="M564.372,-336.297C569.522,-303.633 587.773,-187.866 595.011,-141.957"/>
<polygon fill="midnightblue" stroke="midnightblue" points="598.499,-142.307 596.599,-131.884 591.585,-141.217 598.499,-142.307"/>
</g>
<!-- Node19&#45;&gt;Node8 -->
<g id="edge26" class="edge"><title>Node19&#45;&gt;Node8</title>
<path fill="none" stroke="midnightblue" d="M683.951,-336.409C680.45,-309.934 667.554,-227.78 636,-168 630.415,-157.42 621.998,-147.111 614.504,-139.036"/>
<polygon fill="midnightblue" stroke="midnightblue" points="616.934,-136.514 607.456,-131.777 611.911,-141.39 616.934,-136.514"/>
</g>
<!-- Node20&#45;&gt;Node8 -->
<g id="edge29" class="edge"><title>Node20&#45;&gt;Node8</title>
<path fill="none" stroke="midnightblue" d="M1006.69,-229.429C957.41,-223.917 866.994,-211.435 793,-188 772.907,-181.636 769.714,-175.456 750,-168 714.269,-154.486 672.597,-142.397 641.933,-134.161"/>
<polygon fill="midnightblue" stroke="midnightblue" points="642.543,-130.701 631.98,-131.519 640.747,-137.467 642.543,-130.701"/>
</g>
<!-- Node20&#45;&gt;Node16 -->
<g id="edge28" class="edge"><title>Node20&#45;&gt;Node16</title>
<path fill="none" stroke="midnightblue" d="M1033.51,-224.368C1013.1,-205.814 964.804,-161.913 938.981,-138.438"/>
<polygon fill="midnightblue" stroke="midnightblue" points="941.204,-135.728 931.451,-131.591 936.496,-140.908 941.204,-135.728"/>
</g>
<!-- Node21 -->
<g id="node21" class="node"><title>Node21</title>
<g id="a_node21"><a xlink:href="Device_8h.html" target="_top" xlink:title="Device.h">
<polygon fill="white" stroke="black" points="866,-168.5 866,-187.5 922,-187.5 922,-168.5 866,-168.5"/>
<text text-anchor="middle" x="894" y="-175.5" font-family="Helvetica,sans-Serif" font-size="10.00">Device.h</text>
</a>
</g>
</g>
<!-- Node20&#45;&gt;Node21 -->
<g id="edge30" class="edge"><title>Node20&#45;&gt;Node21</title>
<path fill="none" stroke="midnightblue" d="M1019.39,-224.444C994.542,-215.438 955.226,-201.189 927.246,-191.049"/>
<polygon fill="midnightblue" stroke="midnightblue" points="928.093,-187.633 917.499,-187.516 925.708,-194.214 928.093,-187.633"/>
</g>
<!-- Node22 -->
<g id="node22" class="node"><title>Node22</title>
<g id="a_node22"><a xlink:href="OwnPtr_8h.html" target="_top" xlink:title="utility/OwnPtr.h">
<polygon fill="white" stroke="black" points="1016,-168.5 1016,-187.5 1100,-187.5 1100,-168.5 1016,-168.5"/>
<text text-anchor="middle" x="1058" y="-175.5" font-family="Helvetica,sans-Serif" font-size="10.00">utility/OwnPtr.h</text>
</a>
</g>
</g>
<!-- Node20&#45;&gt;Node22 -->
<g id="edge34" class="edge"><title>Node20&#45;&gt;Node22</title>
<path fill="none" stroke="midnightblue" d="M1045.48,-224.083C1047.49,-216.849 1050.39,-206.409 1052.89,-197.397"/>
<polygon fill="midnightblue" stroke="midnightblue" points="1056.26,-198.323 1055.57,-187.751 1049.52,-196.449 1056.26,-198.323"/>
</g>
<!-- Node21&#45;&gt;Node8 -->
<g id="edge32" class="edge"><title>Node21&#45;&gt;Node8</title>
<path fill="none" stroke="midnightblue" d="M865.82,-170.128C862.516,-169.381 859.188,-168.655 856,-168 790.446,-154.533 714.986,-141.676 662.681,-133.179"/>
<polygon fill="midnightblue" stroke="midnightblue" points="662.969,-129.681 652.538,-131.539 661.852,-136.591 662.969,-129.681"/>
</g>
<!-- Node21&#45;&gt;Node10 -->
<g id="edge33" class="edge"><title>Node21&#45;&gt;Node10</title>
<path fill="none" stroke="midnightblue" d="M885.761,-168.368C868.203,-149.974 826.868,-106.671 804.322,-83.0519"/>
<polygon fill="midnightblue" stroke="midnightblue" points="806.637,-80.4083 797.201,-75.5914 801.574,-85.2417 806.637,-80.4083"/>
</g>
<!-- Node21&#45;&gt;Node16 -->
<g id="edge31" class="edge"><title>Node21&#45;&gt;Node16</title>
<path fill="none" stroke="midnightblue" d="M898.624,-168.083C902.456,-160.691 908.024,-149.953 912.765,-140.811"/>
<polygon fill="midnightblue" stroke="midnightblue" points="915.966,-142.24 917.462,-131.751 909.752,-139.018 915.966,-142.24"/>
</g>
<!-- Node23 -->
<g id="node23" class="node"><title>Node23</title>
<polygon fill="white" stroke="#bfbfbf" points="1033.5,-112.5 1033.5,-131.5 1082.5,-131.5 1082.5,-112.5 1033.5,-112.5"/>
<text text-anchor="middle" x="1058" y="-119.5" font-family="Helvetica,sans-Serif" font-size="10.00">cstddef</text>
</g>
<!-- Node22&#45;&gt;Node23 -->
<g id="edge35" class="edge"><title>Node22&#45;&gt;Node23</title>
<path fill="none" stroke="midnightblue" d="M1058,-168.083C1058,-161.006 1058,-150.861 1058,-141.986"/>
<polygon fill="midnightblue" stroke="midnightblue" points="1061.5,-141.751 1058,-131.751 1054.5,-141.751 1061.5,-141.751"/>
</g>
<!-- Node24&#45;&gt;Node4 -->
<g id="edge37" class="edge"><title>Node24&#45;&gt;Node4</title>
<path fill="none" stroke="midnightblue" d="M445.732,-337.725C448.851,-337.086 451.983,-336.495 455,-336 610.608,-310.458 798.703,-297.459 875.161,-292.917"/>
<polygon fill="midnightblue" stroke="midnightblue" points="875.415,-296.409 885.194,-292.332 875.007,-289.421 875.415,-296.409"/>
</g>
<!-- Node24&#45;&gt;Node8 -->
<g id="edge38" class="edge"><title>Node24&#45;&gt;Node8</title>
<path fill="none" stroke="midnightblue" d="M423.135,-336.297C450.368,-303.079 548.058,-183.918 584.322,-139.684"/>
<polygon fill="midnightblue" stroke="midnightblue" points="587.084,-141.836 590.717,-131.884 581.67,-137.398 587.084,-141.836"/>
</g>
<!-- Node25&#45;&gt;Node2 -->
<g id="edge41" class="edge"><title>Node25&#45;&gt;Node2</title>
<path fill="none" stroke="midnightblue" d="M288.954,-355.542C286.786,-374.018 282,-419.088 282,-457 282,-515 282,-515 282,-515 282,-568.446 646.554,-604.799 814.31,-618.698"/>
<polygon fill="midnightblue" stroke="midnightblue" points="814.087,-622.191 824.34,-619.522 814.66,-615.215 814.087,-622.191"/>
</g>
<!-- Node25&#45;&gt;Node4 -->
<g id="edge40" class="edge"><title>Node25&#45;&gt;Node4</title>
<path fill="none" stroke="midnightblue" d="M329.831,-340.72C344.636,-339.171 361.579,-337.448 377,-336 564.748,-318.365 790.009,-300.393 875.139,-293.714"/>
<polygon fill="midnightblue" stroke="midnightblue" points="875.583,-297.19 885.279,-292.92 875.036,-290.212 875.583,-297.19"/>
</g>
<!-- Node25&#45;&gt;Node8 -->
<g id="edge42" class="edge"><title>Node25&#45;&gt;Node8</title>
<path fill="none" stroke="midnightblue" d="M294.102,-336.235C304.033,-315.503 330.858,-262.319 362,-224 385.211,-195.439 390.653,-185.554 423,-168 455.109,-150.576 494.218,-139.692 527.314,-133.004"/>
<polygon fill="midnightblue" stroke="midnightblue" points="528.223,-136.393 537.378,-131.061 526.896,-129.52 528.223,-136.393"/>
</g>
<!-- Node25&#45;&gt;Node26 -->
<g id="edge43" class="edge"><title>Node25&#45;&gt;Node26</title>
<path fill="none" stroke="midnightblue" d="M283.23,-336.083C277.438,-328.455 268.942,-317.264 261.862,-307.941"/>
<polygon fill="midnightblue" stroke="midnightblue" points="264.479,-305.599 255.644,-299.751 258.904,-309.832 264.479,-305.599"/>
</g>
<!-- Node26&#45;&gt;Node2 -->
<g id="edge45" class="edge"><title>Node26&#45;&gt;Node2</title>
<path fill="none" stroke="midnightblue" d="M245.4,-299.778C241.944,-308.715 236.967,-323.058 235,-336 233.665,-344.788 233.889,-347.181 235,-356 244.631,-432.47 230.519,-463.288 278,-524 310.341,-565.353 331.703,-564.961 382,-580 460.619,-603.508 689.685,-616.392 814.159,-621.836"/>
<polygon fill="midnightblue" stroke="midnightblue" points="814.262,-625.343 824.403,-622.277 814.563,-618.35 814.262,-625.343"/>
</g>
<!-- Node26&#45;&gt;Node8 -->
<g id="edge46" class="edge"><title>Node26&#45;&gt;Node8</title>
<path fill="none" stroke="midnightblue" d="M251.182,-280.203C257.326,-257.433 277.053,-196.372 318,-168 350.979,-145.149 455.459,-133.154 527.029,-127.455"/>
<polygon fill="midnightblue" stroke="midnightblue" points="527.636,-130.919 537.337,-126.659 527.097,-123.939 527.636,-130.919"/>
</g>
<!-- Node27 -->
<g id="node27" class="node"><title>Node27</title>
<polygon fill="white" stroke="#bfbfbf" points="192,-224.5 192,-243.5 244,-243.5 244,-224.5 192,-224.5"/>
<text text-anchor="middle" x="218" y="-231.5" font-family="Helvetica,sans-Serif" font-size="10.00">stdarg.h</text>
</g>
<!-- Node26&#45;&gt;Node27 -->
<g id="edge44" class="edge"><title>Node26&#45;&gt;Node27</title>
<path fill="none" stroke="midnightblue" d="M243.881,-280.083C239.592,-272.613 233.342,-261.724 228.058,-252.52"/>
<polygon fill="midnightblue" stroke="midnightblue" points="231.038,-250.681 223.024,-243.751 224.967,-254.166 231.038,-250.681"/>
</g>
<!-- Node26&#45;&gt;Node28 -->
<g id="edge47" class="edge"><title>Node26&#45;&gt;Node28</title>
<path fill="none" stroke="midnightblue" d="M272.768,-280.444C297.893,-271.399 337.711,-257.064 365.9,-246.916"/>
<polygon fill="midnightblue" stroke="midnightblue" points="367.12,-250.197 375.343,-243.516 364.749,-243.611 367.12,-250.197"/>
</g>
<!-- Node28&#45;&gt;Node8 -->
<g id="edge48" class="edge"><title>Node28&#45;&gt;Node8</title>
<path fill="none" stroke="midnightblue" d="M403.014,-224.441C409.983,-210.513 425.646,-182.994 447,-168 471.026,-151.13 501.445,-140.496 528.675,-133.834"/>
<polygon fill="midnightblue" stroke="midnightblue" points="529.588,-137.215 538.545,-131.555 528.013,-130.395 529.588,-137.215"/>
</g>
<!-- Node28&#45;&gt;Node29 -->
<g id="edge49" class="edge"><title>Node28&#45;&gt;Node29</title>
<path fill="none" stroke="midnightblue" d="M427.281,-229.415C503.221,-219.789 711.302,-193.412 792.21,-183.156"/>
<polygon fill="midnightblue" stroke="midnightblue" points="792.835,-186.605 802.316,-181.875 791.955,-179.661 792.835,-186.605"/>
</g>
<!-- Node29&#45;&gt;Node8 -->
<g id="edge50" class="edge"><title>Node29&#45;&gt;Node8</title>
<path fill="none" stroke="midnightblue" d="M802.307,-171.457C797.58,-170.309 792.628,-169.111 788,-168 738.981,-156.234 682.798,-142.952 644.315,-133.887"/>
<polygon fill="midnightblue" stroke="midnightblue" points="644.976,-130.447 634.44,-131.561 643.371,-137.26 644.976,-130.447"/>
</g>
<!-- Node29&#45;&gt;Node9 -->
<g id="edge52" class="edge"><title>Node29&#45;&gt;Node9</title>
<path fill="none" stroke="midnightblue" d="M812.837,-168.368C786.353,-149.573 723.219,-104.768 690.479,-81.5334"/>
<polygon fill="midnightblue" stroke="midnightblue" points="692.287,-78.5246 682.106,-75.5914 688.236,-84.2332 692.287,-78.5246"/>
</g>
<!-- Node29&#45;&gt;Node16 -->
<g id="edge51" class="edge"><title>Node29&#45;&gt;Node16</title>
<path fill="none" stroke="midnightblue" d="M840.585,-168.324C855.999,-159.743 879.812,-146.486 897.71,-136.522"/>
<polygon fill="midnightblue" stroke="midnightblue" points="899.419,-139.577 906.454,-131.655 896.014,-133.461 899.419,-139.577"/>
</g>
<!-- Node30&#45;&gt;Node2 -->
<g id="edge55" class="edge"><title>Node30&#45;&gt;Node2</title>
<path fill="none" stroke="midnightblue" d="M954.687,-355.604C981.67,-371.686 1034,-409.057 1034,-457 1034,-515 1034,-515 1034,-515 1034,-566.005 975.551,-597.309 935.007,-612.889"/>
<polygon fill="midnightblue" stroke="midnightblue" points="933.566,-609.69 925.386,-616.424 935.98,-616.26 933.566,-609.69"/>
</g>
<!-- Node30&#45;&gt;Node4 -->
<g id="edge54" class="edge"><title>Node30&#45;&gt;Node4</title>
<path fill="none" stroke="midnightblue" d="M934.211,-336.083C930.242,-328.691 924.475,-317.953 919.565,-308.811"/>
<polygon fill="midnightblue" stroke="midnightblue" points="922.514,-306.905 914.7,-299.751 916.347,-310.217 922.514,-306.905"/>
</g>
<!-- Node30&#45;&gt;Node12 -->
<g id="edge56" class="edge"><title>Node30&#45;&gt;Node12</title>
<path fill="none" stroke="midnightblue" d="M965.62,-336.444C994.006,-327.32 1039.14,-312.813 1070.75,-302.651"/>
<polygon fill="midnightblue" stroke="midnightblue" points="1072.06,-305.909 1080.5,-299.516 1069.91,-299.244 1072.06,-305.909"/>
</g>
<!-- Node32&#45;&gt;Node2 -->
<g id="edge66" class="edge"><title>Node32&#45;&gt;Node2</title>
<path fill="none" stroke="midnightblue" d="M1130.38,-467.508C1120.55,-489.579 1091.17,-549.098 1048,-580 1024.33,-596.946 994.238,-607.579 967.161,-614.22"/>
<polygon fill="midnightblue" stroke="midnightblue" points="966.293,-610.828 957.338,-616.49 967.87,-617.649 966.293,-610.828"/>
</g>
<!-- Node32&#45;&gt;Node3 -->
<g id="edge67" class="edge"><title>Node32&#45;&gt;Node3</title>
<path fill="none" stroke="midnightblue" d="M1151.99,-448.324C1170.04,-439.625 1198.05,-426.12 1218.8,-416.113"/>
<polygon fill="midnightblue" stroke="midnightblue" points="1220.56,-419.15 1228.05,-411.655 1217.52,-412.845 1220.56,-419.15"/>
</g>
<!-- Node32&#45;&gt;Node4 -->
<g id="edge65" class="edge"><title>Node32&#45;&gt;Node4</title>
<path fill="none" stroke="midnightblue" d="M1133.22,-448.476C1130.73,-426.365 1120.95,-366.758 1086,-336 1046.51,-301.24 983.75,-292.674 944.818,-290.923"/>
<polygon fill="midnightblue" stroke="midnightblue" points="944.615,-287.415 934.508,-290.594 944.392,-294.412 944.615,-287.415"/>
</g>
<!-- Node32&#45;&gt;Node8 -->
<g id="edge68" class="edge"><title>Node32&#45;&gt;Node8</title>
<path fill="none" stroke="midnightblue" d="M1137.41,-448.133C1149.54,-415.878 1188.72,-305.347 1166,-280 1117.06,-225.395 908.79,-263.118 838,-244 751.279,-220.58 659.271,-163.961 618.964,-137.316"/>
<polygon fill="midnightblue" stroke="midnightblue" points="620.772,-134.314 610.513,-131.665 616.881,-140.133 620.772,-134.314"/>
</g>
<!-- Node33&#45;&gt;Node8 -->
<g id="edge70" class="edge"><title>Node33&#45;&gt;Node8</title>
<path fill="none" stroke="midnightblue" d="M41.961,-392.496C46.0269,-374.095 55,-329.162 55,-291 55,-291 55,-291 55,-233 55,-199.31 65.4509,-185.887 94,-168 129.832,-145.549 396.851,-131.415 527.04,-125.786"/>
<polygon fill="midnightblue" stroke="midnightblue" points="527.467,-129.271 537.309,-125.348 527.169,-122.278 527.467,-129.271"/>
</g>
<!-- Node34&#45;&gt;Node8 -->
<g id="edge73" class="edge"><title>Node34&#45;&gt;Node8</title>
<path fill="none" stroke="midnightblue" d="M157.581,-280.383C160.461,-266.86 167.727,-240.5 183,-224 220.266,-183.74 240.733,-184.667 293,-168 370.893,-143.161 464.417,-131.943 527.188,-126.934"/>
<polygon fill="midnightblue" stroke="midnightblue" points="527.674,-130.407 537.378,-126.154 527.14,-123.428 527.674,-130.407"/>
</g>
<!-- Node34&#45;&gt;Node27 -->
<g id="edge72" class="edge"><title>Node34&#45;&gt;Node27</title>
<path fill="none" stroke="midnightblue" d="M165.961,-280.324C175.127,-272.341 188.937,-260.313 200.028,-250.653"/>
<polygon fill="midnightblue" stroke="midnightblue" points="202.615,-253.041 207.857,-243.834 198.018,-247.762 202.615,-253.041"/>
</g>
</g>
</svg>
