<?xml version="1.0" encoding="UTF-8" standalone="no"?>
<!DOCTYPE svg PUBLIC "-//W3C//DTD SVG 1.1//EN"
 "http://www.w3.org/Graphics/SVG/1.1/DTD/svg11.dtd">
<!-- Generated by graphviz version 2.38.0 (20140413.2041)
 -->
<!-- Title: BENCHMARK Pages: 1 -->
<svg width="218pt" height="66pt"
 viewBox="0.00 0.00 218.00 66.00" xmlns="http://www.w3.org/2000/svg" xmlns:xlink="http://www.w3.org/1999/xlink">
<g id="graph0" class="graph" transform="scale(1 1) rotate(0) translate(4 62)">
<title>BENCHMARK</title>
<polygon fill="white" stroke="none" points="-4,4 -4,-62 214,-62 214,4 -4,4"/>
<!-- Node1 -->
<g id="node1" class="node"><title>Node1</title>
<polygon fill="#bfbfbf" stroke="black" points="0,-19.5 0,-38.5 82,-38.5 82,-19.5 0,-19.5"/>
<text text-anchor="middle" x="41" y="-26.5" font-family="Helvetica,sans-Serif" font-size="10.00">BENCHMARK</text>
</g>
<!-- Node2 -->
<g id="node2" class="node"><title>Node2</title>
<g id="a_node2"><a xlink:href="benchmark__videoin_8cpp.html#acb643631b8896f86f1e4c09b4ffddad4" target="_top" xlink:title="BM_Crop8bpp">
<polygon fill="white" stroke="black" points="124.5,-38.5 124.5,-57.5 203.5,-57.5 203.5,-38.5 124.5,-38.5"/>
<text text-anchor="middle" x="164" y="-45.5" font-family="Helvetica,sans-Serif" font-size="10.00">BM_Crop8bpp</text>
</a>
</g>
</g>
<!-- Node1&#45;&gt;Node2 -->
<g id="edge1" class="edge"><title>Node1&#45;&gt;Node2</title>
<path fill="none" stroke="midnightblue" d="M92.3028,-36.8988C102.929,-38.5674 113.988,-40.304 124.117,-41.8943"/>
<polygon fill="midnightblue" stroke="midnightblue" points="92.7132,-33.4204 82.2912,-35.3267 91.6272,-40.3357 92.7132,-33.4204"/>
</g>
<!-- Node3 -->
<g id="node3" class="node"><title>Node3</title>
<g id="a_node3"><a xlink:href="benchmark__videoin_8cpp.html#a63050ca5303ef2a3f1b7fa8fe3368c97" target="_top" xlink:title="BM_YuyvToGrey">
<polygon fill="white" stroke="black" points="118,-0.5 118,-19.5 210,-19.5 210,-0.5 118,-0.5"/>
<text text-anchor="middle" x="164" y="-7.5" font-family="Helvetica,sans-Serif" font-size="10.00">BM_YuyvToGrey</text>
</a>
</g>
</g>
<!-- Node1&#45;&gt;Node3 -->
<g id="edge2" class="edge"><title>Node1&#45;&gt;Node3</title>
<path fill="none" stroke="midnightblue" d="M92.4135,-21.0838C100.859,-19.7576 109.575,-18.3891 117.877,-17.0855"/>
<polygon fill="midnightblue" stroke="midnightblue" points="91.6272,-17.6643 82.2912,-22.6733 92.7132,-24.5796 91.6272,-17.6643"/>
</g>
</g>
</svg>
