<?xml version="1.0" encoding="UTF-8" standalone="no"?>
<!DOCTYPE svg PUBLIC "-//W3C//DTD SVG 1.1//EN"
 "http://www.w3.org/Graphics/SVG/1.1/DTD/svg11.dtd">
<!-- Generated by graphviz version 2.38.0 (20140413.2041)
 -->
<!-- Title: libraries/AP_HAL/utility/BetterStream.h Pages: 1 -->
<svg width="1424pt" height="599pt"
 viewBox="0.00 0.00 1424.02 599.00" xmlns="http://www.w3.org/2000/svg" xmlns:xlink="http://www.w3.org/1999/xlink">
<g id="graph0" class="graph" transform="scale(1 1) rotate(0) translate(4 595)">
<title>libraries/AP_HAL/utility/BetterStream.h</title>
<polygon fill="white" stroke="none" points="-4,4 -4,-595 1420.02,-595 1420.02,4 -4,4"/>
<!-- Node1 -->
<g id="node1" class="node"><title>Node1</title>
<polygon fill="#bfbfbf" stroke="black" points="221.019,-560.5 221.019,-590.5 339.019,-590.5 339.019,-560.5 221.019,-560.5"/>
<text text-anchor="start" x="229.019" y="-578.5" font-family="Helvetica,sans-Serif" font-size="10.00">libraries/AP_HAL/utility</text>
<text text-anchor="middle" x="280.019" y="-567.5" font-family="Helvetica,sans-Serif" font-size="10.00">/BetterStream.h</text>
</g>
<!-- Node2 -->
<g id="node2" class="node"><title>Node2</title>
<polygon fill="white" stroke="#bfbfbf" points="157.019,-280.5 157.019,-299.5 209.019,-299.5 209.019,-280.5 157.019,-280.5"/>
<text text-anchor="middle" x="183.019" y="-287.5" font-family="Helvetica,sans-Serif" font-size="10.00">stdarg.h</text>
</g>
<!-- Node1&#45;&gt;Node2 -->
<g id="edge1" class="edge"><title>Node1&#45;&gt;Node2</title>
<path fill="none" stroke="midnightblue" d="M239.066,-560.408C198.064,-543.385 141.019,-510.456 141.019,-459 141.019,-459 141.019,-459 141.019,-401 141.019,-366.412 159.366,-329.492 171.808,-308.432"/>
<polygon fill="midnightblue" stroke="midnightblue" points="174.925,-310.045 177.179,-299.692 168.961,-306.38 174.925,-310.045"/>
</g>
<!-- Node3 -->
<g id="node3" class="node"><title>Node3</title>
<g id="a_node3"><a xlink:href="AP__Common_8h.html" target="_top" xlink:title="Common definitions and utility routines for the ArduPilot libraries. ">
<polygon fill="white" stroke="black" points="1077.52,-504.5 1077.52,-523.5 1222.52,-523.5 1222.52,-504.5 1077.52,-504.5"/>
<text text-anchor="middle" x="1150.02" y="-511.5" font-family="Helvetica,sans-Serif" font-size="10.00">AP_Common/AP_Common.h</text>
</a>
</g>
</g>
<!-- Node1&#45;&gt;Node3 -->
<g id="edge2" class="edge"><title>Node1&#45;&gt;Node3</title>
<path fill="none" stroke="midnightblue" d="M339.133,-570.457C490.531,-560.103 892.559,-532.608 1067.15,-520.667"/>
<polygon fill="midnightblue" stroke="midnightblue" points="1067.57,-524.147 1077.31,-519.973 1067.1,-517.163 1067.57,-524.147"/>
</g>
<!-- Node9 -->
<g id="node9" class="node"><title>Node9</title>
<g id="a_node9"><a xlink:href="AP__HAL__Namespace_8h.html" target="_top" xlink:title="AP_HAL_Namespace.h">
<polygon fill="white" stroke="black" points="374.519,-112.5 374.519,-131.5 495.519,-131.5 495.519,-112.5 374.519,-112.5"/>
<text text-anchor="middle" x="435.019" y="-119.5" font-family="Helvetica,sans-Serif" font-size="10.00">AP_HAL_Namespace.h</text>
</a>
</g>
</g>
<!-- Node1&#45;&gt;Node9 -->
<g id="edge83" class="edge"><title>Node1&#45;&gt;Node9</title>
<path fill="none" stroke="midnightblue" d="M220.85,-574.955C138.952,-572.13 1.01851,-553.363 1.01851,-459 1.01851,-459 1.01851,-459 1.01851,-233 1.01851,-202.902 -3.05552,-187.325 20.0185,-168 33.0294,-157.103 249.254,-138.055 364.293,-128.622"/>
<polygon fill="midnightblue" stroke="midnightblue" points="364.742,-132.097 374.424,-127.795 364.172,-125.121 364.742,-132.097"/>
</g>
<!-- Node33 -->
<g id="node33" class="node"><title>Node33</title>
<g id="a_node33"><a xlink:href="Stream_8h.html" target="_top" xlink:title="utility/Stream.h">
<polygon fill="white" stroke="black" points="29.5185,-336.5 29.5185,-355.5 112.519,-355.5 112.519,-336.5 29.5185,-336.5"/>
<text text-anchor="middle" x="71.0185" y="-343.5" font-family="Helvetica,sans-Serif" font-size="10.00">utility/Stream.h</text>
</a>
</g>
</g>
<!-- Node1&#45;&gt;Node33 -->
<g id="edge84" class="edge"><title>Node1&#45;&gt;Node33</title>
<path fill="none" stroke="midnightblue" d="M220.886,-568.057C189.236,-561.701 151.785,-549.076 127.019,-524 83.2833,-479.72 73.6648,-401.533 71.5785,-365.785"/>
<polygon fill="midnightblue" stroke="midnightblue" points="75.0739,-365.601 71.1321,-355.767 68.0808,-365.913 75.0739,-365.601"/>
</g>
<!-- Node4 -->
<g id="node4" class="node"><title>Node4</title>
<g id="a_node4"><a xlink:href="AP__HAL__Boards_8h.html" target="_top" xlink:title="AP_HAL/AP_HAL_Boards.h">
<polygon fill="white" stroke="black" points="1134.02,-280.5 1134.02,-299.5 1274.02,-299.5 1274.02,-280.5 1134.02,-280.5"/>
<text text-anchor="middle" x="1204.02" y="-287.5" font-family="Helvetica,sans-Serif" font-size="10.00">AP_HAL/AP_HAL_Boards.h</text>
</a>
</g>
</g>
<!-- Node3&#45;&gt;Node4 -->
<g id="edge3" class="edge"><title>Node3&#45;&gt;Node4</title>
<path fill="none" stroke="midnightblue" d="M1158.65,-504.202C1166.44,-495.695 1177.48,-482.061 1183.02,-468 1204.43,-413.661 1205.69,-343.233 1204.87,-309.978"/>
<polygon fill="midnightblue" stroke="midnightblue" points="1208.36,-309.728 1204.52,-299.854 1201.36,-309.968 1208.36,-309.728"/>
</g>
<!-- Node5 -->
<g id="node5" class="node"><title>Node5</title>
<polygon fill="white" stroke="#bfbfbf" points="1062.52,-168.5 1062.52,-187.5 1111.52,-187.5 1111.52,-168.5 1062.52,-168.5"/>
<text text-anchor="middle" x="1087.02" y="-175.5" font-family="Helvetica,sans-Serif" font-size="10.00">stdint.h</text>
</g>
<!-- Node3&#45;&gt;Node5 -->
<g id="edge4" class="edge"><title>Node3&#45;&gt;Node5</title>
<path fill="none" stroke="midnightblue" d="M1222.7,-512.704C1301.46,-508.092 1416.02,-486.955 1416.02,-403 1416.02,-403 1416.02,-403 1416.02,-289 1416.02,-242.494 1376.38,-243.185 1334.02,-224 1263.18,-191.919 1171.11,-182.698 1121.81,-180.055"/>
<polygon fill="midnightblue" stroke="midnightblue" points="1121.83,-176.552 1111.68,-179.573 1121.5,-183.544 1121.83,-176.552"/>
</g>
<!-- Node6 -->
<g id="node6" class="node"><title>Node6</title>
<polygon fill="white" stroke="#bfbfbf" points="764.019,-392.5 764.019,-411.5 812.019,-411.5 812.019,-392.5 764.019,-392.5"/>
<text text-anchor="middle" x="788.019" y="-399.5" font-family="Helvetica,sans-Serif" font-size="10.00">stdlib.h</text>
</g>
<!-- Node3&#45;&gt;Node6 -->
<g id="edge5" class="edge"><title>Node3&#45;&gt;Node6</title>
<path fill="none" stroke="midnightblue" d="M1077.27,-507.239C1025.44,-501.439 954.833,-490.042 896.019,-468 862.816,-455.557 828.38,-432.828 807.572,-417.817"/>
<polygon fill="midnightblue" stroke="midnightblue" points="809.408,-414.822 799.278,-411.718 805.261,-420.462 809.408,-414.822"/>
</g>
<!-- Node7 -->
<g id="node7" class="node"><title>Node7</title>
<g id="a_node7"><a xlink:href="replace_8h.html" target="_top" xlink:title="AP_HAL_QURT/replace.h">
<polygon fill="white" stroke="black" points="905.519,-448.5 905.519,-467.5 1036.52,-467.5 1036.52,-448.5 905.519,-448.5"/>
<text text-anchor="middle" x="971.019" y="-455.5" font-family="Helvetica,sans-Serif" font-size="10.00">AP_HAL_QURT/replace.h</text>
</a>
</g>
</g>
<!-- Node3&#45;&gt;Node7 -->
<g id="edge6" class="edge"><title>Node3&#45;&gt;Node7</title>
<path fill="none" stroke="midnightblue" d="M1121.66,-504.444C1091.28,-495.28 1042.91,-480.688 1009.2,-470.519"/>
<polygon fill="midnightblue" stroke="midnightblue" points="1009.83,-467.054 999.249,-467.516 1007.81,-473.756 1009.83,-467.054"/>
</g>
<!-- Node7&#45;&gt;Node5 -->
<g id="edge78" class="edge"><title>Node7&#45;&gt;Node5</title>
<path fill="none" stroke="midnightblue" d="M1036.56,-451.003C1142.6,-439.467 1340.02,-409.587 1340.02,-347 1340.02,-347 1340.02,-347 1340.02,-289 1340.02,-183.098 1228.05,-216.066 1121.63,-189.405"/>
<polygon fill="midnightblue" stroke="midnightblue" points="1122.24,-185.947 1111.68,-186.727 1120.43,-192.706 1122.24,-185.947"/>
</g>
<!-- Node7&#45;&gt;Node6 -->
<g id="edge77" class="edge"><title>Node7&#45;&gt;Node6</title>
<path fill="none" stroke="midnightblue" d="M942.022,-448.444C909.366,-438.808 856.366,-423.168 821.849,-412.983"/>
<polygon fill="midnightblue" stroke="midnightblue" points="822.786,-409.61 812.204,-410.137 820.805,-416.324 822.786,-409.61"/>
</g>
<!-- Node8 -->
<g id="node8" class="node"><title>Node8</title>
<g id="a_node8"><a xlink:href="AP__HAL_8h.html" target="_top" xlink:title="AP_HAL/AP_HAL.h">
<polygon fill="white" stroke="black" points="604.019,-392.5 604.019,-411.5 708.019,-411.5 708.019,-392.5 604.019,-392.5"/>
<text text-anchor="middle" x="656.019" y="-399.5" font-family="Helvetica,sans-Serif" font-size="10.00">AP_HAL/AP_HAL.h</text>
</a>
</g>
</g>
<!-- Node7&#45;&gt;Node8 -->
<g id="edge7" class="edge"><title>Node7&#45;&gt;Node8</title>
<path fill="none" stroke="midnightblue" d="M921.106,-448.444C865.348,-438.885 775.132,-423.419 715.692,-413.23"/>
<polygon fill="midnightblue" stroke="midnightblue" points="716.145,-409.756 705.698,-411.516 714.962,-416.656 716.145,-409.756"/>
</g>
<!-- Node34 -->
<g id="node34" class="node"><title>Node34</title>
<polygon fill="white" stroke="#bfbfbf" points="830.519,-392.5 830.519,-411.5 879.519,-411.5 879.519,-392.5 830.519,-392.5"/>
<text text-anchor="middle" x="855.019" y="-399.5" font-family="Helvetica,sans-Serif" font-size="10.00">types.h</text>
</g>
<!-- Node7&#45;&gt;Node34 -->
<g id="edge79" class="edge"><title>Node7&#45;&gt;Node34</title>
<path fill="none" stroke="midnightblue" d="M952.638,-448.444C933.802,-439.675 904.287,-425.935 882.639,-415.858"/>
<polygon fill="midnightblue" stroke="midnightblue" points="883.856,-412.564 873.313,-411.516 880.902,-418.91 883.856,-412.564"/>
</g>
<!-- Node35 -->
<g id="node35" class="node"><title>Node35</title>
<polygon fill="white" stroke="#bfbfbf" points="898.019,-392.5 898.019,-411.5 966.019,-411.5 966.019,-392.5 898.019,-392.5"/>
<text text-anchor="middle" x="932.019" y="-399.5" font-family="Helvetica,sans-Serif" font-size="10.00">sys/types.h</text>
</g>
<!-- Node7&#45;&gt;Node35 -->
<g id="edge80" class="edge"><title>Node7&#45;&gt;Node35</title>
<path fill="none" stroke="midnightblue" d="M964.578,-448.083C959.07,-440.455 950.987,-429.264 944.254,-419.941"/>
<polygon fill="midnightblue" stroke="midnightblue" points="947.031,-417.809 938.339,-411.751 941.356,-421.907 947.031,-417.809"/>
</g>
<!-- Node36 -->
<g id="node36" class="node"><title>Node36</title>
<polygon fill="white" stroke="#bfbfbf" points="984.519,-392.5 984.519,-411.5 1035.52,-411.5 1035.52,-392.5 984.519,-392.5"/>
<text text-anchor="middle" x="1010.02" y="-399.5" font-family="Helvetica,sans-Serif" font-size="10.00">unistd.h</text>
</g>
<!-- Node7&#45;&gt;Node36 -->
<g id="edge81" class="edge"><title>Node7&#45;&gt;Node36</title>
<path fill="none" stroke="midnightblue" d="M977.459,-448.083C982.967,-440.455 991.05,-429.264 997.783,-419.941"/>
<polygon fill="midnightblue" stroke="midnightblue" points="1000.68,-421.907 1003.7,-411.751 995.006,-417.809 1000.68,-421.907"/>
</g>
<!-- Node37 -->
<g id="node37" class="node"><title>Node37</title>
<polygon fill="white" stroke="#bfbfbf" points="1053.52,-392.5 1053.52,-411.5 1102.52,-411.5 1102.52,-392.5 1053.52,-392.5"/>
<text text-anchor="middle" x="1078.02" y="-399.5" font-family="Helvetica,sans-Serif" font-size="10.00">dirent.h</text>
</g>
<!-- Node7&#45;&gt;Node37 -->
<g id="edge82" class="edge"><title>Node7&#45;&gt;Node37</title>
<path fill="none" stroke="midnightblue" d="M988.21,-448.324C1005.37,-439.664 1031.96,-426.242 1051.77,-416.249"/>
<polygon fill="midnightblue" stroke="midnightblue" points="1053.52,-419.285 1060.87,-411.655 1050.37,-413.035 1053.52,-419.285"/>
</g>
<!-- Node8&#45;&gt;Node1 -->
<g id="edge74" class="edge"><title>Node8&#45;&gt;Node1</title>
<path fill="none" stroke="midnightblue" d="M637.252,-411.56C579.03,-438.116 400.563,-519.517 320.1,-556.218"/>
<polygon fill="midnightblue" stroke="midnightblue" points="318.434,-553.131 310.788,-560.465 321.339,-559.5 318.434,-553.131"/>
</g>
<!-- Node8&#45;&gt;Node4 -->
<g id="edge13" class="edge"><title>Node8&#45;&gt;Node4</title>
<path fill="none" stroke="midnightblue" d="M708.237,-396.124C824.993,-385.177 1097.72,-359.342 1107.02,-356 1137.84,-344.926 1168.39,-321.941 1186.74,-306.489"/>
<polygon fill="midnightblue" stroke="midnightblue" points="1189.44,-308.783 1194.71,-299.595 1184.86,-303.488 1189.44,-308.783"/>
</g>
<!-- Node8&#45;&gt;Node5 -->
<g id="edge8" class="edge"><title>Node8&#45;&gt;Node5</title>
<path fill="none" stroke="midnightblue" d="M708.019,-396.105C779.36,-388.845 903.476,-374.113 945.019,-356 1018.38,-324.015 1050.8,-315.863 1086.02,-244 1093.08,-229.59 1092.61,-211.136 1090.79,-197.574"/>
<polygon fill="midnightblue" stroke="midnightblue" points="1094.21,-196.803 1089.08,-187.53 1087.31,-197.975 1094.21,-196.803"/>
</g>
<!-- Node8&#45;&gt;Node9 -->
<g id="edge9" class="edge"><title>Node8&#45;&gt;Node9</title>
<path fill="none" stroke="midnightblue" d="M671.164,-392.307C726.179,-359.772 908.098,-243.21 828.019,-168 805.014,-146.394 612.418,-132.615 505.641,-126.562"/>
<polygon fill="midnightblue" stroke="midnightblue" points="505.764,-123.064 495.585,-126 505.374,-130.053 505.764,-123.064"/>
</g>
<!-- Node13 -->
<g id="node13" class="node"><title>Node13</title>
<g id="a_node13"><a xlink:href="AP__HAL__Macros_8h.html" target="_top" xlink:title="AP_HAL_Macros.h">
<polygon fill="white" stroke="black" points="938.519,-168.5 938.519,-187.5 1039.52,-187.5 1039.52,-168.5 938.519,-168.5"/>
<text text-anchor="middle" x="989.019" y="-175.5" font-family="Helvetica,sans-Serif" font-size="10.00">AP_HAL_Macros.h</text>
</a>
</g>
</g>
<!-- Node8&#45;&gt;Node13 -->
<g id="edge14" class="edge"><title>Node8&#45;&gt;Node13</title>
<path fill="none" stroke="midnightblue" d="M703.626,-392.471C758.41,-382.302 842.371,-365.493 854.019,-356 903.972,-315.287 871.115,-272.086 914.019,-224 926.126,-210.43 943.32,-199.708 958.191,-192.139"/>
<polygon fill="midnightblue" stroke="midnightblue" points="960.067,-195.121 967.552,-187.622 957.024,-188.816 960.067,-195.121"/>
</g>
<!-- Node14 -->
<g id="node14" class="node"><title>Node14</title>
<g id="a_node14"><a xlink:href="AP__HAL__Main_8h.html" target="_top" xlink:title="AP_HAL_Main.h">
<polygon fill="white" stroke="black" points="541.519,-336.5 541.519,-355.5 630.519,-355.5 630.519,-336.5 541.519,-336.5"/>
<text text-anchor="middle" x="586.019" y="-343.5" font-family="Helvetica,sans-Serif" font-size="10.00">AP_HAL_Main.h</text>
</a>
</g>
</g>
<!-- Node8&#45;&gt;Node14 -->
<g id="edge15" class="edge"><title>Node8&#45;&gt;Node14</title>
<path fill="none" stroke="midnightblue" d="M644.772,-392.324C634.221,-384.185 618.218,-371.839 605.576,-362.087"/>
<polygon fill="midnightblue" stroke="midnightblue" points="607.526,-359.171 597.47,-355.834 603.25,-364.713 607.526,-359.171"/>
</g>
<!-- Node15 -->
<g id="node15" class="node"><title>Node15</title>
<g id="a_node15"><a xlink:href="HAL_8h.html" target="_top" xlink:title="HAL.h">
<polygon fill="white" stroke="black" points="601.019,-280.5 601.019,-299.5 645.019,-299.5 645.019,-280.5 601.019,-280.5"/>
<text text-anchor="middle" x="623.019" y="-287.5" font-family="Helvetica,sans-Serif" font-size="10.00">HAL.h</text>
</a>
</g>
</g>
<!-- Node8&#45;&gt;Node15 -->
<g id="edge75" class="edge"><title>Node8&#45;&gt;Node15</title>
<path fill="none" stroke="midnightblue" d="M653.947,-392.101C650.961,-379.517 645.129,-355.843 639.019,-336 636.27,-327.074 632.842,-317.291 629.866,-309.133"/>
<polygon fill="midnightblue" stroke="midnightblue" points="633.07,-307.709 626.307,-299.553 626.509,-310.146 633.07,-307.709"/>
</g>
<!-- Node16 -->
<g id="node16" class="node"><title>Node16</title>
<g id="a_node16"><a xlink:href="AnalogIn_8h.html" target="_top" xlink:title="AnalogIn.h">
<polygon fill="white" stroke="black" points="195.519,-168.5 195.519,-187.5 258.519,-187.5 258.519,-168.5 195.519,-168.5"/>
<text text-anchor="middle" x="227.019" y="-175.5" font-family="Helvetica,sans-Serif" font-size="10.00">AnalogIn.h</text>
</a>
</g>
</g>
<!-- Node8&#45;&gt;Node16 -->
<g id="edge51" class="edge"><title>Node8&#45;&gt;Node16</title>
<path fill="none" stroke="midnightblue" d="M603.991,-395.321C558.132,-389.183 490.084,-377.289 434.019,-356 341.303,-320.794 299.332,-324.22 241.019,-244 231.368,-230.724 228.119,-212.143 227.137,-198.246"/>
<polygon fill="midnightblue" stroke="midnightblue" points="230.621,-197.758 226.755,-187.894 223.626,-198.016 230.621,-197.758"/>
</g>
<!-- Node18 -->
<g id="node18" class="node"><title>Node18</title>
<g id="a_node18"><a xlink:href="GPIO_8h.html" target="_top" xlink:title="GPIO.h">
<polygon fill="white" stroke="black" points="779.019,-224.5 779.019,-243.5 829.019,-243.5 829.019,-224.5 779.019,-224.5"/>
<text text-anchor="middle" x="804.019" y="-231.5" font-family="Helvetica,sans-Serif" font-size="10.00">GPIO.h</text>
</a>
</g>
</g>
<!-- Node8&#45;&gt;Node18 -->
<g id="edge53" class="edge"><title>Node8&#45;&gt;Node18</title>
<path fill="none" stroke="midnightblue" d="M663.976,-392.075C687.776,-365.38 758.669,-285.865 789.467,-251.322"/>
<polygon fill="midnightblue" stroke="midnightblue" points="792.337,-253.361 796.379,-243.568 787.112,-248.703 792.337,-253.361"/>
</g>
<!-- Node19 -->
<g id="node19" class="node"><title>Node19</title>
<g id="a_node19"><a xlink:href="RCInput_8h.html" target="_top" xlink:title="RCInput.h">
<polygon fill="white" stroke="black" points="699.019,-224.5 699.019,-243.5 761.019,-243.5 761.019,-224.5 699.019,-224.5"/>
<text text-anchor="middle" x="730.019" y="-231.5" font-family="Helvetica,sans-Serif" font-size="10.00">RCInput.h</text>
</a>
</g>
</g>
<!-- Node8&#45;&gt;Node19 -->
<g id="edge54" class="edge"><title>Node8&#45;&gt;Node19</title>
<path fill="none" stroke="midnightblue" d="M659.997,-392.075C671.696,-365.832 706.149,-288.545 721.942,-253.117"/>
<polygon fill="midnightblue" stroke="midnightblue" points="725.324,-254.127 726.199,-243.568 718.931,-251.277 725.324,-254.127"/>
</g>
<!-- Node20 -->
<g id="node20" class="node"><title>Node20</title>
<g id="a_node20"><a xlink:href="RCOutput_8h.html" target="_top" xlink:title="RCOutput.h">
<polygon fill="white" stroke="black" points="271.519,-224.5 271.519,-243.5 340.519,-243.5 340.519,-224.5 271.519,-224.5"/>
<text text-anchor="middle" x="306.019" y="-231.5" font-family="Helvetica,sans-Serif" font-size="10.00">RCOutput.h</text>
</a>
</g>
</g>
<!-- Node8&#45;&gt;Node20 -->
<g id="edge55" class="edge"><title>Node8&#45;&gt;Node20</title>
<path fill="none" stroke="midnightblue" d="M603.748,-393.661C566.136,-387.082 514.872,-375.401 473.019,-356 412.411,-327.905 351.438,-276.488 322.828,-250.669"/>
<polygon fill="midnightblue" stroke="midnightblue" points="325.076,-247.981 315.333,-243.818 320.353,-253.148 325.076,-247.981"/>
</g>
<!-- Node25 -->
<g id="node25" class="node"><title>Node25</title>
<g id="a_node25"><a xlink:href="Storage_8h.html" target="_top" xlink:title="Storage.h">
<polygon fill="white" stroke="black" points="621.519,-224.5 621.519,-243.5 680.519,-243.5 680.519,-224.5 621.519,-224.5"/>
<text text-anchor="middle" x="651.019" y="-231.5" font-family="Helvetica,sans-Serif" font-size="10.00">Storage.h</text>
</a>
</g>
</g>
<!-- Node8&#45;&gt;Node25 -->
<g id="edge52" class="edge"><title>Node8&#45;&gt;Node25</title>
<path fill="none" stroke="midnightblue" d="M656.118,-392.168C656.237,-379.663 656.377,-356.084 656.019,-336 655.574,-311.099 655.291,-304.872 654.019,-280 653.578,-271.39 652.961,-261.861 652.402,-253.798"/>
<polygon fill="midnightblue" stroke="midnightblue" points="655.878,-253.346 651.673,-243.622 648.896,-253.847 655.878,-253.346"/>
</g>
<!-- Node26 -->
<g id="node26" class="node"><title>Node26</title>
<g id="a_node26"><a xlink:href="UARTDriver_8h.html" target="_top" xlink:title="UARTDriver.h">
<polygon fill="white" stroke="black" points="923.519,-224.5 923.519,-243.5 1002.52,-243.5 1002.52,-224.5 923.519,-224.5"/>
<text text-anchor="middle" x="963.019" y="-231.5" font-family="Helvetica,sans-Serif" font-size="10.00">UARTDriver.h</text>
</a>
</g>
</g>
<!-- Node8&#45;&gt;Node26 -->
<g id="edge50" class="edge"><title>Node8&#45;&gt;Node26</title>
<path fill="none" stroke="midnightblue" d="M708.025,-393.41C772.897,-383.586 877.149,-366.488 892.019,-356 901.537,-349.286 936.476,-285.041 953.529,-252.995"/>
<polygon fill="midnightblue" stroke="midnightblue" points="956.793,-254.31 958.382,-243.835 950.607,-251.033 956.793,-254.31"/>
</g>
<!-- Node27 -->
<g id="node27" class="node"><title>Node27</title>
<g id="a_node27"><a xlink:href="system_8h.html" target="_top" xlink:title="system.h">
<polygon fill="white" stroke="black" points="1020.52,-224.5 1020.52,-243.5 1077.52,-243.5 1077.52,-224.5 1020.52,-224.5"/>
<text text-anchor="middle" x="1049.02" y="-231.5" font-family="Helvetica,sans-Serif" font-size="10.00">system.h</text>
</a>
</g>
</g>
<!-- Node8&#45;&gt;Node27 -->
<g id="edge76" class="edge"><title>Node8&#45;&gt;Node27</title>
<path fill="none" stroke="midnightblue" d="M708.076,-395.356C772.64,-387.767 878.531,-373.218 914.019,-356 966.427,-330.572 1013.62,-278.668 1035.74,-251.86"/>
<polygon fill="midnightblue" stroke="midnightblue" points="1038.69,-253.782 1042.26,-243.805 1033.25,-249.38 1038.69,-253.782"/>
</g>
<!-- Node28 -->
<g id="node28" class="node"><title>Node28</title>
<g id="a_node28"><a xlink:href="AP__HAL_2OpticalFlow_8h.html" target="_top" xlink:title="OpticalFlow.h">
<polygon fill="white" stroke="black" points="487.519,-224.5 487.519,-243.5 564.519,-243.5 564.519,-224.5 487.519,-224.5"/>
<text text-anchor="middle" x="526.019" y="-231.5" font-family="Helvetica,sans-Serif" font-size="10.00">OpticalFlow.h</text>
</a>
</g>
</g>
<!-- Node8&#45;&gt;Node28 -->
<g id="edge66" class="edge"><title>Node8&#45;&gt;Node28</title>
<path fill="none" stroke="midnightblue" d="M603.938,-395.531C578.032,-389.933 548.753,-378.659 532.019,-356 509.815,-325.934 515.545,-279.305 521.128,-253.595"/>
<polygon fill="midnightblue" stroke="midnightblue" points="524.578,-254.217 523.506,-243.677 517.771,-252.585 524.578,-254.217"/>
</g>
<!-- Node29 -->
<g id="node29" class="node"><title>Node29</title>
<g id="a_node29"><a xlink:href="Scheduler_8h.html" target="_top" xlink:title="Scheduler.h">
<polygon fill="white" stroke="black" points="1235.02,-336.5 1235.02,-355.5 1303.02,-355.5 1303.02,-336.5 1235.02,-336.5"/>
<text text-anchor="middle" x="1269.02" y="-343.5" font-family="Helvetica,sans-Serif" font-size="10.00">Scheduler.h</text>
</a>
</g>
</g>
<!-- Node8&#45;&gt;Node29 -->
<g id="edge56" class="edge"><title>Node8&#45;&gt;Node29</title>
<path fill="none" stroke="midnightblue" d="M708.166,-396.227C723.279,-394.852 739.805,-393.357 755.019,-392 928.814,-376.492 1135.71,-358.531 1224.72,-350.828"/>
<polygon fill="midnightblue" stroke="midnightblue" points="1225.07,-354.311 1234.73,-349.962 1224.46,-347.337 1225.07,-354.311"/>
</g>
<!-- Node30 -->
<g id="node30" class="node"><title>Node30</title>
<g id="a_node30"><a xlink:href="Semaphores_8h.html" target="_top" xlink:title="Semaphores.h">
<polygon fill="white" stroke="black" points="405.019,-280.5 405.019,-299.5 485.019,-299.5 485.019,-280.5 405.019,-280.5"/>
<text text-anchor="middle" x="445.019" y="-287.5" font-family="Helvetica,sans-Serif" font-size="10.00">Semaphores.h</text>
</a>
</g>
</g>
<!-- Node8&#45;&gt;Node30 -->
<g id="edge61" class="edge"><title>Node8&#45;&gt;Node30</title>
<path fill="none" stroke="midnightblue" d="M603.985,-394.095C571.739,-387.956 530.597,-376.615 499.019,-356 480.274,-343.763 464.691,-323.023 455.16,-308.263"/>
<polygon fill="midnightblue" stroke="midnightblue" points="458.029,-306.247 449.798,-299.576 452.072,-309.924 458.029,-306.247"/>
</g>
<!-- Node31 -->
<g id="node31" class="node"><title>Node31</title>
<g id="a_node31"><a xlink:href="Util_8h.html" target="_top" xlink:title="Util.h">
<polygon fill="white" stroke="black" points="207.019,-336.5 207.019,-355.5 247.019,-355.5 247.019,-336.5 207.019,-336.5"/>
<text text-anchor="middle" x="227.019" y="-343.5" font-family="Helvetica,sans-Serif" font-size="10.00">Util.h</text>
</a>
</g>
</g>
<!-- Node8&#45;&gt;Node31 -->
<g id="edge63" class="edge"><title>Node8&#45;&gt;Node31</title>
<path fill="none" stroke="midnightblue" d="M603.898,-397.487C527.983,-391.824 382.77,-378.924 261.019,-356 259.736,-355.759 258.43,-355.495 257.115,-355.214"/>
<polygon fill="midnightblue" stroke="midnightblue" points="257.583,-351.727 247.044,-352.818 255.962,-358.537 257.583,-351.727"/>
</g>
<!-- Node32 -->
<g id="node32" class="node"><title>Node32</title>
<g id="a_node32"><a xlink:href="Print_8h.html" target="_top" xlink:title="utility/Print.h">
<polygon fill="white" stroke="black" points="29.5185,-168.5 29.5185,-187.5 100.519,-187.5 100.519,-168.5 29.5185,-168.5"/>
<text text-anchor="middle" x="65.0185" y="-175.5" font-family="Helvetica,sans-Serif" font-size="10.00">utility/Print.h</text>
</a>
</g>
</g>
<!-- Node8&#45;&gt;Node32 -->
<g id="edge67" class="edge"><title>Node8&#45;&gt;Node32</title>
<path fill="none" stroke="midnightblue" d="M603.84,-400.586C499.214,-398.998 267.829,-391.456 198.019,-356 130.355,-321.634 87.9513,-234.995 72.0916,-197.155"/>
<polygon fill="midnightblue" stroke="midnightblue" points="75.324,-195.812 68.3233,-187.86 68.8369,-198.442 75.324,-195.812"/>
</g>
<!-- Node8&#45;&gt;Node33 -->
<g id="edge71" class="edge"><title>Node8&#45;&gt;Node33</title>
<path fill="none" stroke="midnightblue" d="M603.692,-396.275C513.93,-388.153 324.819,-370.973 165.019,-356 151.361,-354.72 136.59,-353.316 122.891,-352.005"/>
<polygon fill="midnightblue" stroke="midnightblue" points="122.95,-348.494 112.662,-351.024 122.282,-355.462 122.95,-348.494"/>
</g>
<!-- Node10 -->
<g id="node10" class="node"><title>Node10</title>
<polygon fill="white" stroke="#bfbfbf" points="210.519,-56.5 210.519,-75.5 259.519,-75.5 259.519,-56.5 210.519,-56.5"/>
<text text-anchor="middle" x="235.019" y="-63.5" font-family="Helvetica,sans-Serif" font-size="10.00">string.h</text>
</g>
<!-- Node9&#45;&gt;Node10 -->
<g id="edge10" class="edge"><title>Node9&#45;&gt;Node10</title>
<path fill="none" stroke="midnightblue" d="M403.328,-112.444C366.882,-102.603 307.247,-86.5016 269.618,-76.3418"/>
<polygon fill="midnightblue" stroke="midnightblue" points="270.192,-72.8716 259.625,-73.6439 268.367,-79.6296 270.192,-72.8716"/>
</g>
<!-- Node11 -->
<g id="node11" class="node"><title>Node11</title>
<g id="a_node11"><a xlink:href="functor_8h.html" target="_top" xlink:title="utility/functor.h">
<polygon fill="white" stroke="black" points="348.519,-56.5 348.519,-75.5 429.519,-75.5 429.519,-56.5 348.519,-56.5"/>
<text text-anchor="middle" x="389.019" y="-63.5" font-family="Helvetica,sans-Serif" font-size="10.00">utility/functor.h</text>
</a>
</g>
</g>
<!-- Node9&#45;&gt;Node11 -->
<g id="edge11" class="edge"><title>Node9&#45;&gt;Node11</title>
<path fill="none" stroke="midnightblue" d="M427.423,-112.083C420.791,-104.298 410.998,-92.8015 402.96,-83.3665"/>
<polygon fill="midnightblue" stroke="midnightblue" points="405.622,-81.0939 396.473,-75.7511 400.293,-85.6332 405.622,-81.0939"/>
</g>
<!-- Node12 -->
<g id="node12" class="node"><title>Node12</title>
<polygon fill="white" stroke="#bfbfbf" points="358.019,-0.5 358.019,-19.5 420.019,-19.5 420.019,-0.5 358.019,-0.5"/>
<text text-anchor="middle" x="389.019" y="-7.5" font-family="Helvetica,sans-Serif" font-size="10.00">type_traits</text>
</g>
<!-- Node11&#45;&gt;Node12 -->
<g id="edge12" class="edge"><title>Node11&#45;&gt;Node12</title>
<path fill="none" stroke="midnightblue" d="M389.019,-56.083C389.019,-49.0059 389.019,-38.8611 389.019,-29.9865"/>
<polygon fill="midnightblue" stroke="midnightblue" points="392.519,-29.751 389.019,-19.7511 385.519,-29.7511 392.519,-29.751"/>
</g>
<!-- Node14&#45;&gt;Node15 -->
<g id="edge16" class="edge"><title>Node14&#45;&gt;Node15</title>
<path fill="none" stroke="midnightblue" d="M592.128,-336.083C597.301,-328.534 604.865,-317.495 611.213,-308.23"/>
<polygon fill="midnightblue" stroke="midnightblue" points="614.257,-309.979 617.022,-299.751 608.483,-306.022 614.257,-309.979"/>
</g>
<!-- Node15&#45;&gt;Node9 -->
<g id="edge17" class="edge"><title>Node15&#45;&gt;Node9</title>
<path fill="none" stroke="midnightblue" d="M617.548,-280.384C609.008,-267.318 591.558,-242.102 573.019,-224 536.407,-188.253 486.544,-154.86 457.866,-136.854"/>
<polygon fill="midnightblue" stroke="midnightblue" points="459.686,-133.864 449.343,-131.565 455.995,-139.812 459.686,-133.864"/>
</g>
<!-- Node15&#45;&gt;Node16 -->
<g id="edge18" class="edge"><title>Node15&#45;&gt;Node16</title>
<path fill="none" stroke="midnightblue" d="M600.88,-287.421C526.714,-281.971 290.094,-263.225 262.019,-244 246.191,-233.162 236.907,-212.778 231.925,-197.716"/>
<polygon fill="midnightblue" stroke="midnightblue" points="235.216,-196.5 229.026,-187.901 228.502,-198.483 235.216,-196.5"/>
</g>
<!-- Node15&#45;&gt;Node18 -->
<g id="edge21" class="edge"><title>Node15&#45;&gt;Node18</title>
<path fill="none" stroke="midnightblue" d="M645.213,-282.379C676.103,-273.163 732.378,-256.373 768.971,-245.456"/>
<polygon fill="midnightblue" stroke="midnightblue" points="770.15,-248.757 778.732,-242.544 768.149,-242.049 770.15,-248.757"/>
</g>
<!-- Node15&#45;&gt;Node19 -->
<g id="edge24" class="edge"><title>Node15&#45;&gt;Node19</title>
<path fill="none" stroke="midnightblue" d="M640.21,-280.324C657.369,-271.664 683.964,-258.242 703.766,-248.249"/>
<polygon fill="midnightblue" stroke="midnightblue" points="705.519,-251.285 712.87,-243.655 702.365,-245.035 705.519,-251.285"/>
</g>
<!-- Node15&#45;&gt;Node20 -->
<g id="edge26" class="edge"><title>Node15&#45;&gt;Node20</title>
<path fill="none" stroke="midnightblue" d="M600.674,-285.614C555.515,-278.709 449.938,-262.244 350.493,-244.026"/>
<polygon fill="midnightblue" stroke="midnightblue" points="351.05,-240.569 340.581,-242.2 349.782,-247.454 351.05,-240.569"/>
</g>
<!-- Node21 -->
<g id="node21" class="node"><title>Node21</title>
<g id="a_node21"><a xlink:href="SPIDevice_8h.html" target="_top" xlink:title="SPIDevice.h">
<polygon fill="white" stroke="black" points="359.019,-224.5 359.019,-243.5 431.019,-243.5 431.019,-224.5 359.019,-224.5"/>
<text text-anchor="middle" x="395.019" y="-231.5" font-family="Helvetica,sans-Serif" font-size="10.00">SPIDevice.h</text>
</a>
</g>
</g>
<!-- Node15&#45;&gt;Node21 -->
<g id="edge28" class="edge"><title>Node15&#45;&gt;Node21</title>
<path fill="none" stroke="midnightblue" d="M600.742,-283.724C563.919,-275.003 489.614,-257.404 441.113,-245.917"/>
<polygon fill="midnightblue" stroke="midnightblue" points="441.715,-242.463 431.177,-243.564 440.101,-249.274 441.715,-242.463"/>
</g>
<!-- Node15&#45;&gt;Node25 -->
<g id="edge37" class="edge"><title>Node15&#45;&gt;Node25</title>
<path fill="none" stroke="midnightblue" d="M627.642,-280.083C631.475,-272.691 637.043,-261.953 641.783,-252.811"/>
<polygon fill="midnightblue" stroke="midnightblue" points="644.985,-254.24 646.481,-243.751 638.771,-251.018 644.985,-254.24"/>
</g>
<!-- Node15&#45;&gt;Node26 -->
<g id="edge40" class="edge"><title>Node15&#45;&gt;Node26</title>
<path fill="none" stroke="midnightblue" d="M645.065,-285.499C698.893,-276.949 838.099,-254.84 913.213,-242.91"/>
<polygon fill="midnightblue" stroke="midnightblue" points="914.044,-246.322 923.371,-241.297 912.946,-239.409 914.044,-246.322"/>
</g>
<!-- Node15&#45;&gt;Node27 -->
<g id="edge45" class="edge"><title>Node15&#45;&gt;Node27</title>
<path fill="none" stroke="midnightblue" d="M645.026,-287.356C703.076,-282.83 865.258,-268.946 1010.48,-243.888"/>
<polygon fill="midnightblue" stroke="midnightblue" points="1011.21,-247.313 1020.46,-242.143 1010.01,-240.417 1011.21,-247.313"/>
</g>
<!-- Node15&#45;&gt;Node28 -->
<g id="edge49" class="edge"><title>Node15&#45;&gt;Node28</title>
<path fill="none" stroke="midnightblue" d="M607.434,-280.324C592.019,-271.743 568.206,-258.486 550.309,-248.522"/>
<polygon fill="midnightblue" stroke="midnightblue" points="552.004,-245.461 541.565,-243.655 548.599,-251.577 552.004,-245.461"/>
</g>
<!-- Node16&#45;&gt;Node9 -->
<g id="edge20" class="edge"><title>Node16&#45;&gt;Node9</title>
<path fill="none" stroke="midnightblue" d="M258.609,-168.799C294.26,-159.543 352.446,-144.437 392.171,-134.124"/>
<polygon fill="midnightblue" stroke="midnightblue" points="393.298,-137.447 402.098,-131.547 391.539,-130.672 393.298,-137.447"/>
</g>
<!-- Node17 -->
<g id="node17" class="node"><title>Node17</title>
<polygon fill="white" stroke="#bfbfbf" points="227.519,-112.5 227.519,-131.5 286.519,-131.5 286.519,-112.5 227.519,-112.5"/>
<text text-anchor="middle" x="257.019" y="-119.5" font-family="Helvetica,sans-Serif" font-size="10.00">inttypes.h</text>
</g>
<!-- Node16&#45;&gt;Node17 -->
<g id="edge19" class="edge"><title>Node16&#45;&gt;Node17</title>
<path fill="none" stroke="midnightblue" d="M231.972,-168.083C236.123,-160.613 242.172,-149.724 247.285,-140.52"/>
<polygon fill="midnightblue" stroke="midnightblue" points="250.36,-142.192 252.157,-131.751 244.241,-138.793 250.36,-142.192"/>
</g>
<!-- Node18&#45;&gt;Node5 -->
<g id="edge22" class="edge"><title>Node18&#45;&gt;Node5</title>
<path fill="none" stroke="midnightblue" d="M829.029,-228.765C873.298,-221.185 968.304,-204.54 1048.02,-188 1049.46,-187.7 1050.94,-187.388 1052.43,-187.067"/>
<polygon fill="midnightblue" stroke="midnightblue" points="1053.29,-190.461 1062.3,-184.879 1051.78,-183.627 1053.29,-190.461"/>
</g>
<!-- Node18&#45;&gt;Node9 -->
<g id="edge23" class="edge"><title>Node18&#45;&gt;Node9</title>
<path fill="none" stroke="midnightblue" d="M788.565,-224.311C763.282,-210.448 711.165,-183.329 664.019,-168 612.255,-151.17 551.757,-139.612 505.947,-132.427"/>
<polygon fill="midnightblue" stroke="midnightblue" points="506.23,-128.929 495.815,-130.871 505.168,-135.848 506.23,-128.929"/>
</g>
<!-- Node19&#45;&gt;Node9 -->
<g id="edge25" class="edge"><title>Node19&#45;&gt;Node9</title>
<path fill="none" stroke="midnightblue" d="M719.75,-224.445C702.516,-210.522 666.193,-183.01 631.019,-168 591.224,-151.019 544.027,-139.933 505.92,-133.014"/>
<polygon fill="midnightblue" stroke="midnightblue" points="506.388,-129.543 495.933,-131.258 505.176,-136.437 506.388,-129.543"/>
</g>
<!-- Node20&#45;&gt;Node9 -->
<g id="edge27" class="edge"><title>Node20&#45;&gt;Node9</title>
<path fill="none" stroke="midnightblue" d="M323.519,-224.428C339.216,-216.277 362.42,-203.049 380.019,-188 396.792,-173.657 412.707,-153.936 423.061,-139.988"/>
<polygon fill="midnightblue" stroke="midnightblue" points="425.981,-141.922 429.014,-131.771 420.313,-137.815 425.981,-141.922"/>
</g>
<!-- Node21&#45;&gt;Node9 -->
<g id="edge30" class="edge"><title>Node21&#45;&gt;Node9</title>
<path fill="none" stroke="midnightblue" d="M398.609,-224.427C402.346,-215.412 408.3,-200.789 413.019,-188 418.753,-172.457 424.749,-154.62 429.03,-141.568"/>
<polygon fill="midnightblue" stroke="midnightblue" points="432.415,-142.477 432.18,-131.885 425.758,-140.312 432.415,-142.477"/>
</g>
<!-- Node21&#45;&gt;Node17 -->
<g id="edge29" class="edge"><title>Node21&#45;&gt;Node17</title>
<path fill="none" stroke="midnightblue" d="M370.973,-224.353C351.99,-216.742 325.543,-204.328 306.019,-188 289.812,-174.446 275.823,-154.555 266.989,-140.351"/>
<polygon fill="midnightblue" stroke="midnightblue" points="269.873,-138.355 261.733,-131.574 263.868,-141.952 269.873,-138.355"/>
</g>
<!-- Node22 -->
<g id="node22" class="node"><title>Node22</title>
<g id="a_node22"><a xlink:href="Device_8h.html" target="_top" xlink:title="Device.h">
<polygon fill="white" stroke="black" points="315.019,-168.5 315.019,-187.5 371.019,-187.5 371.019,-168.5 315.019,-168.5"/>
<text text-anchor="middle" x="343.019" y="-175.5" font-family="Helvetica,sans-Serif" font-size="10.00">Device.h</text>
</a>
</g>
</g>
<!-- Node21&#45;&gt;Node22 -->
<g id="edge31" class="edge"><title>Node21&#45;&gt;Node22</title>
<path fill="none" stroke="midnightblue" d="M386.432,-224.083C378.86,-216.22 367.64,-204.569 358.504,-195.081"/>
<polygon fill="midnightblue" stroke="midnightblue" points="360.903,-192.527 351.445,-187.751 355.861,-197.382 360.903,-192.527"/>
</g>
<!-- Node23 -->
<g id="node23" class="node"><title>Node23</title>
<g id="a_node23"><a xlink:href="OwnPtr_8h.html" target="_top" xlink:title="utility/OwnPtr.h">
<polygon fill="white" stroke="black" points="735.019,-168.5 735.019,-187.5 819.019,-187.5 819.019,-168.5 735.019,-168.5"/>
<text text-anchor="middle" x="777.019" y="-175.5" font-family="Helvetica,sans-Serif" font-size="10.00">utility/OwnPtr.h</text>
</a>
</g>
</g>
<!-- Node21&#45;&gt;Node23 -->
<g id="edge35" class="edge"><title>Node21&#45;&gt;Node23</title>
<path fill="none" stroke="midnightblue" d="M431.301,-227.871C499.297,-218.259 646.119,-197.504 724.768,-186.386"/>
<polygon fill="midnightblue" stroke="midnightblue" points="725.524,-189.814 734.936,-184.949 724.544,-182.883 725.524,-189.814"/>
</g>
<!-- Node22&#45;&gt;Node9 -->
<g id="edge33" class="edge"><title>Node22&#45;&gt;Node9</title>
<path fill="none" stroke="midnightblue" d="M357.8,-168.324C372.286,-159.822 394.592,-146.729 411.512,-136.797"/>
<polygon fill="midnightblue" stroke="midnightblue" points="413.421,-139.735 420.274,-131.655 409.878,-133.698 413.421,-139.735"/>
</g>
<!-- Node22&#45;&gt;Node11 -->
<g id="edge34" class="edge"><title>Node22&#45;&gt;Node11</title>
<path fill="none" stroke="midnightblue" d="M345.434,-168.419C349.088,-155.822 356.507,-131.683 365.019,-112 369.016,-102.756 374.2,-92.842 378.726,-84.679"/>
<polygon fill="midnightblue" stroke="midnightblue" points="381.9,-86.1764 383.797,-75.7527 375.814,-82.7186 381.9,-86.1764"/>
</g>
<!-- Node22&#45;&gt;Node17 -->
<g id="edge32" class="edge"><title>Node22&#45;&gt;Node17</title>
<path fill="none" stroke="midnightblue" d="M329.201,-168.324C315.786,-159.9 295.194,-146.971 279.433,-137.074"/>
<polygon fill="midnightblue" stroke="midnightblue" points="281.132,-134.008 270.802,-131.655 277.409,-139.936 281.132,-134.008"/>
</g>
<!-- Node24 -->
<g id="node24" class="node"><title>Node24</title>
<polygon fill="white" stroke="#bfbfbf" points="752.519,-112.5 752.519,-131.5 801.519,-131.5 801.519,-112.5 752.519,-112.5"/>
<text text-anchor="middle" x="777.019" y="-119.5" font-family="Helvetica,sans-Serif" font-size="10.00">cstddef</text>
</g>
<!-- Node23&#45;&gt;Node24 -->
<g id="edge36" class="edge"><title>Node23&#45;&gt;Node24</title>
<path fill="none" stroke="midnightblue" d="M777.019,-168.083C777.019,-161.006 777.019,-150.861 777.019,-141.986"/>
<polygon fill="midnightblue" stroke="midnightblue" points="780.519,-141.751 777.019,-131.751 773.519,-141.751 780.519,-141.751"/>
</g>
<!-- Node25&#45;&gt;Node5 -->
<g id="edge38" class="edge"><title>Node25&#45;&gt;Node5</title>
<path fill="none" stroke="midnightblue" d="M680.752,-225.73C683.87,-225.09 687.002,-224.498 690.019,-224 847.799,-197.969 890.238,-214.031 1048.02,-188 1049.48,-187.76 1050.96,-187.497 1052.46,-187.218"/>
<polygon fill="midnightblue" stroke="midnightblue" points="1053.26,-190.625 1062.35,-185.188 1051.86,-183.768 1053.26,-190.625"/>
</g>
<!-- Node25&#45;&gt;Node9 -->
<g id="edge39" class="edge"><title>Node25&#45;&gt;Node9</title>
<path fill="none" stroke="midnightblue" d="M647.589,-224.362C641.561,-210.32 627.709,-182.641 607.019,-168 577.448,-147.076 538.842,-135.879 505.699,-129.889"/>
<polygon fill="midnightblue" stroke="midnightblue" points="506.047,-126.398 495.605,-128.192 504.886,-133.301 506.047,-126.398"/>
</g>
<!-- Node26&#45;&gt;Node1 -->
<g id="edge44" class="edge"><title>Node26&#45;&gt;Node1</title>
<path fill="none" stroke="midnightblue" d="M962.298,-243.687C959.935,-266.191 950.34,-326.665 914.019,-356 857.652,-401.525 822.992,-366.912 755.019,-392 737.114,-398.608 734.394,-404.104 717.019,-412 591.23,-469.16 556.822,-476.657 427.019,-524 395.61,-535.455 360.173,-547.651 331.963,-557.187"/>
<polygon fill="midnightblue" stroke="midnightblue" points="330.662,-553.932 322.304,-560.443 332.899,-560.565 330.662,-553.932"/>
</g>
<!-- Node26&#45;&gt;Node3 -->
<g id="edge42" class="edge"><title>Node26&#45;&gt;Node3</title>
<path fill="none" stroke="midnightblue" d="M974.044,-243.659C1001.24,-265.579 1072.13,-326.217 1111.02,-392 1130.69,-425.283 1141.7,-469.672 1146.69,-494.384"/>
<polygon fill="midnightblue" stroke="midnightblue" points="1143.26,-495.075 1148.57,-504.243 1150.14,-493.764 1143.26,-495.075"/>
</g>
<!-- Node26&#45;&gt;Node5 -->
<g id="edge41" class="edge"><title>Node26&#45;&gt;Node5</title>
<path fill="none" stroke="midnightblue" d="M982.667,-224.444C1002.98,-215.596 1034.92,-201.687 1058.12,-191.586"/>
<polygon fill="midnightblue" stroke="midnightblue" points="1059.69,-194.718 1067.46,-187.516 1056.9,-188.3 1059.69,-194.718"/>
</g>
<!-- Node26&#45;&gt;Node9 -->
<g id="edge43" class="edge"><title>Node26&#45;&gt;Node9</title>
<path fill="none" stroke="midnightblue" d="M954.28,-224.412C938.922,-209.917 905.441,-180.916 871.019,-168 805.947,-143.583 611.751,-131.1 505.833,-125.952"/>
<polygon fill="midnightblue" stroke="midnightblue" points="505.709,-122.442 495.554,-125.461 505.376,-129.434 505.709,-122.442"/>
</g>
<!-- Node27&#45;&gt;Node3 -->
<g id="edge47" class="edge"><title>Node27&#45;&gt;Node3</title>
<path fill="none" stroke="midnightblue" d="M1056.66,-243.749C1075.87,-266.356 1125.97,-329.335 1145.02,-392 1155.63,-426.906 1154.15,-470.083 1152.1,-494.282"/>
<polygon fill="midnightblue" stroke="midnightblue" points="1148.62,-493.951 1151.13,-504.244 1155.58,-494.631 1148.62,-493.951"/>
</g>
<!-- Node27&#45;&gt;Node5 -->
<g id="edge46" class="edge"><title>Node27&#45;&gt;Node5</title>
<path fill="none" stroke="midnightblue" d="M1055.29,-224.083C1060.66,-216.455 1068.54,-205.264 1075.1,-195.941"/>
<polygon fill="midnightblue" stroke="midnightblue" points="1077.97,-197.943 1080.86,-187.751 1072.24,-193.915 1077.97,-197.943"/>
</g>
<!-- Node27&#45;&gt;Node13 -->
<g id="edge48" class="edge"><title>Node27&#45;&gt;Node13</title>
<path fill="none" stroke="midnightblue" d="M1039.38,-224.324C1030.51,-216.341 1017.14,-204.313 1006.41,-194.653"/>
<polygon fill="midnightblue" stroke="midnightblue" points="1008.61,-191.922 998.834,-187.834 1003.93,-197.125 1008.61,-191.922"/>
</g>
<!-- Node29&#45;&gt;Node3 -->
<g id="edge58" class="edge"><title>Node29&#45;&gt;Node3</title>
<path fill="none" stroke="midnightblue" d="M1267.52,-355.554C1263.45,-376.74 1250.43,-432.495 1221.02,-468 1209.79,-481.552 1193.39,-492.322 1179.18,-499.923"/>
<polygon fill="midnightblue" stroke="midnightblue" points="1177.57,-496.815 1170.23,-504.458 1180.73,-503.059 1177.57,-496.815"/>
</g>
<!-- Node29&#45;&gt;Node4 -->
<g id="edge59" class="edge"><title>Node29&#45;&gt;Node4</title>
<path fill="none" stroke="midnightblue" d="M1258.58,-336.324C1248.87,-328.263 1234.2,-316.077 1222.52,-306.369"/>
<polygon fill="midnightblue" stroke="midnightblue" points="1224.58,-303.532 1214.65,-299.834 1220.11,-308.916 1224.58,-303.532"/>
</g>
<!-- Node29&#45;&gt;Node5 -->
<g id="edge57" class="edge"><title>Node29&#45;&gt;Node5</title>
<path fill="none" stroke="midnightblue" d="M1274.59,-336.343C1282.26,-323.224 1293.95,-297.938 1283.02,-280 1247.82,-222.265 1167.88,-196.118 1121.7,-185.456"/>
<polygon fill="midnightblue" stroke="midnightblue" points="1122.35,-182.016 1111.83,-183.295 1120.85,-188.854 1122.35,-182.016"/>
</g>
<!-- Node29&#45;&gt;Node9 -->
<g id="edge60" class="edge"><title>Node29&#45;&gt;Node9</title>
<path fill="none" stroke="midnightblue" d="M1277.81,-336.353C1289.19,-324.069 1306.69,-300.749 1299.02,-280 1266.46,-191.984 1211.29,-189.832 1120.02,-168 1004.94,-140.474 656.277,-128.576 505.614,-124.622"/>
<polygon fill="midnightblue" stroke="midnightblue" points="505.635,-121.122 495.548,-124.362 505.454,-128.12 505.635,-121.122"/>
</g>
<!-- Node30&#45;&gt;Node9 -->
<g id="edge62" class="edge"><title>Node30&#45;&gt;Node9</title>
<path fill="none" stroke="midnightblue" d="M444.481,-280.075C442.907,-253.945 438.284,-177.211 436.138,-141.577"/>
<polygon fill="midnightblue" stroke="midnightblue" points="439.63,-141.34 435.535,-131.568 432.642,-141.761 439.63,-141.34"/>
</g>
<!-- Node31&#45;&gt;Node2 -->
<g id="edge64" class="edge"><title>Node31&#45;&gt;Node2</title>
<path fill="none" stroke="midnightblue" d="M219.753,-336.083C213.474,-328.377 204.231,-317.033 196.588,-307.653"/>
<polygon fill="midnightblue" stroke="midnightblue" points="199.179,-305.293 190.149,-299.751 193.752,-309.714 199.179,-305.293"/>
</g>
<!-- Node31&#45;&gt;Node9 -->
<g id="edge65" class="edge"><title>Node31&#45;&gt;Node9</title>
<path fill="none" stroke="midnightblue" d="M227.174,-336.229C227.103,-323.394 225.825,-298.962 218.019,-280 210.405,-261.506 198.181,-262.673 191.019,-244 178.895,-212.395 164.315,-193.978 186.019,-168 208.376,-141.24 298.764,-130.364 364.206,-125.963"/>
<polygon fill="midnightblue" stroke="midnightblue" points="364.723,-129.437 374.481,-125.31 364.28,-122.451 364.723,-129.437"/>
</g>
<!-- Node32&#45;&gt;Node9 -->
<g id="edge68" class="edge"><title>Node32&#45;&gt;Node9</title>
<path fill="none" stroke="midnightblue" d="M100.769,-170.393C105.555,-169.559 110.403,-168.74 115.019,-168 200.596,-154.286 299.421,-140.736 364.34,-132.147"/>
<polygon fill="midnightblue" stroke="midnightblue" points="365.004,-135.59 374.461,-130.812 364.089,-128.65 365.004,-135.59"/>
</g>
<!-- Node32&#45;&gt;Node10 -->
<g id="edge70" class="edge"><title>Node32&#45;&gt;Node10</title>
<path fill="none" stroke="midnightblue" d="M78.3581,-168.368C107.53,-149.492 177.242,-104.385 213.016,-81.2367"/>
<polygon fill="midnightblue" stroke="midnightblue" points="215.247,-83.9625 221.741,-75.5914 211.444,-78.0855 215.247,-83.9625"/>
</g>
<!-- Node32&#45;&gt;Node17 -->
<g id="edge69" class="edge"><title>Node32&#45;&gt;Node17</title>
<path fill="none" stroke="midnightblue" d="M95.4415,-168.444C128.497,-159.147 181.421,-144.262 217.63,-134.078"/>
<polygon fill="midnightblue" stroke="midnightblue" points="218.69,-137.416 227.369,-131.339 216.795,-130.677 218.69,-137.416"/>
</g>
<!-- Node33&#45;&gt;Node9 -->
<g id="edge72" class="edge"><title>Node33&#45;&gt;Node9</title>
<path fill="none" stroke="midnightblue" d="M73.1658,-336.191C80.8205,-306.82 109.708,-211.63 172.019,-168 202.337,-146.771 297.279,-134.511 364.355,-128.295"/>
<polygon fill="midnightblue" stroke="midnightblue" points="364.806,-131.768 374.452,-127.385 364.178,-124.796 364.806,-131.768"/>
</g>
<!-- Node33&#45;&gt;Node32 -->
<g id="edge73" class="edge"><title>Node33&#45;&gt;Node32</title>
<path fill="none" stroke="midnightblue" d="M70.6959,-336.075C69.7515,-309.945 66.9779,-233.211 65.69,-197.577"/>
<polygon fill="midnightblue" stroke="midnightblue" points="69.1872,-197.435 65.3282,-187.568 62.1918,-197.688 69.1872,-197.435"/>
</g>
</g>
</svg>
