<?xml version="1.0" encoding="UTF-8" standalone="no"?>
<!DOCTYPE svg PUBLIC "-//W3C//DTD SVG 1.1//EN"
 "http://www.w3.org/Graphics/SVG/1.1/DTD/svg11.dtd">
<!-- Generated by graphviz version 2.38.0 (20140413.2041)
 -->
<!-- Title: AC_PosControl::init_vel_controller_xyz Pages: 1 -->
<!--zoomable 502 -->
<svg id="main" version="1.1" xmlns="http://www.w3.org/2000/svg" xmlns:xlink="http://www.w3.org/1999/xlink" xml:space="preserve" onload="init(evt)">
<style type="text/css"><![CDATA[
.edge:hover path { stroke: red; }
.edge:hover polygon { stroke: red; fill: red; }
]]></style>
<script type="text/javascript"><![CDATA[
var edges = document.getElementsByTagName('g');
if (edges && edges.length) {
  for (var i=0;i<edges.length;i++) {
    if (edges[i].id.substr(0,4)=='edge') {
      edges[i].setAttribute('class','edge');
    }
  }
}
]]></script>
        <defs>
                <circle id="rim" cx="0" cy="0" r="7"/>
                <circle id="rim2" cx="0" cy="0" r="3.5"/>
                <g id="zoomPlus">
                        <use xlink:href="#rim" fill="#404040">
                                <set attributeName="fill" to="#808080" begin="zoomplus.mouseover" end="zoomplus.mouseout"/>
                        </use>
                        <path d="M-4,0h8M0,-4v8" fill="none" stroke="white" stroke-width="1.5" pointer-events="none"/>
                </g>
                <g id="zoomMin">
                        <use xlink:href="#rim" fill="#404040">
                                <set attributeName="fill" to="#808080" begin="zoomminus.mouseover" end="zoomminus.mouseout"/>
                        </use>
                        <path d="M-4,0h8" fill="none" stroke="white" stroke-width="1.5" pointer-events="none"/>
                </g>
                <g id="dirArrow">
                        <path fill="none" stroke="white" stroke-width="1.5" d="M0,-3.0v7 M-2.5,-0.5L0,-3.0L2.5,-0.5"/>
                </g>
               <g id="resetDef">
                       <use xlink:href="#rim2" fill="#404040">
                               <set attributeName="fill" to="#808080" begin="reset.mouseover" end="reset.mouseout"/>
                       </use>
               </g>
        </defs>

<script type="text/javascript">
var viewWidth = 1178;
var viewHeight = 502;
var sectionId = 'dynsection-61';
</script>
<script xlink:href="svgpan.js"/>
<svg id="graph" class="graph">
<g id="viewport">
<title>AC_PosControl::init_vel_controller_xyz</title>
<polygon fill="white" stroke="none" points="-4,4 -4,-498 1174,-498 1174,4 -4,4"/>
<!-- Node1 -->
<g id="node1" class="node"><title>Node1</title>
<polygon fill="#bfbfbf" stroke="black" points="0,-384.5 0,-414.5 104,-414.5 104,-384.5 0,-384.5"/>
<text text-anchor="start" x="8" y="-402.5" font-family="Helvetica,sans-Serif" font-size="10.00">AC_PosControl::init</text>
<text text-anchor="middle" x="52" y="-391.5" font-family="Helvetica,sans-Serif" font-size="10.00">_vel_controller_xyz</text>
</g>
<!-- Node2 -->
<g id="node2" class="node"><title>Node2</title>
<g id="a_node2"><a xlink:href="classAC__PosControl.html#ac150947d527995a72dff6ad0921a1891" target="_top" xlink:title="freeze_ff_xy &#45; used to stop the feed forward being calculated during a known discontinuity ...">
<polygon fill="white" stroke="black" points="140,-343.5 140,-373.5 258,-373.5 258,-343.5 140,-343.5"/>
<text text-anchor="start" x="148" y="-361.5" font-family="Helvetica,sans-Serif" font-size="10.00">AC_PosControl::freeze</text>
<text text-anchor="middle" x="199" y="-350.5" font-family="Helvetica,sans-Serif" font-size="10.00">_ff_xy</text>
</a>
</g>
</g>
<!-- Node1&#45;&gt;Node2 -->
<g id="edge1" class="edge"><title>Node1&#45;&gt;Node2</title>
<path fill="none" stroke="midnightblue" d="M113.873,-382.288C124.177,-379.374 134.802,-376.37 144.887,-373.518"/>
<polygon fill="midnightblue" stroke="midnightblue" points="112.792,-378.956 104.122,-385.045 114.697,-385.692 112.792,-378.956"/>
</g>
<!-- Node3 -->
<g id="node3" class="node"><title>Node3</title>
<g id="a_node3"><a xlink:href="classAC__WPNav.html#a9b3fd8fd5c74d31ebffa89cdf98f570a" target="_top" xlink:title="loiter_soften_for_landing &#45; reduce response for landing ">
<polygon fill="white" stroke="black" points="294,-299.5 294,-329.5 424,-329.5 424,-299.5 294,-299.5"/>
<text text-anchor="start" x="302" y="-317.5" font-family="Helvetica,sans-Serif" font-size="10.00">AC_WPNav::loiter_soften</text>
<text text-anchor="middle" x="359" y="-306.5" font-family="Helvetica,sans-Serif" font-size="10.00">_for_landing</text>
</a>
</g>
</g>
<!-- Node2&#45;&gt;Node3 -->
<g id="edge2" class="edge"><title>Node2&#45;&gt;Node3</title>
<path fill="none" stroke="midnightblue" d="M263.57,-340.797C276.986,-337.061 291.02,-333.153 304.042,-329.526"/>
<polygon fill="midnightblue" stroke="midnightblue" points="262.627,-337.426 253.933,-343.481 264.505,-344.17 262.627,-337.426"/>
</g>
<!-- Node5 -->
<g id="node5" class="node"><title>Node5</title>
<g id="a_node5"><a xlink:href="classAC__PosControl.html#a26ec8e9313b7c01fa449ba4f2d194d28" target="_top" xlink:title="AC_PosControl::set\l_desired_velocity">
<polygon fill="white" stroke="black" points="307,-463.5 307,-493.5 411,-493.5 411,-463.5 307,-463.5"/>
<text text-anchor="start" x="315" y="-481.5" font-family="Helvetica,sans-Serif" font-size="10.00">AC_PosControl::set</text>
<text text-anchor="middle" x="359" y="-470.5" font-family="Helvetica,sans-Serif" font-size="10.00">_desired_velocity</text>
</a>
</g>
</g>
<!-- Node2&#45;&gt;Node5 -->
<g id="edge4" class="edge"><title>Node2&#45;&gt;Node5</title>
<path fill="none" stroke="midnightblue" d="M219.894,-381.358C237.829,-400.975 265.666,-429.074 294,-448.5 302.198,-454.121 311.615,-459.188 320.66,-463.489"/>
<polygon fill="midnightblue" stroke="midnightblue" points="222.362,-378.867 213.07,-373.777 217.159,-383.551 222.362,-378.867"/>
</g>
<!-- Node6 -->
<g id="node6" class="node"><title>Node6</title>
<g id="a_node6"><a xlink:href="classAC__PosControl.html#a0a3dc64da9e355dea10959cb41e6aa8b" target="_top" xlink:title="shift position target target in x, y axis ">
<polygon fill="white" stroke="black" points="304,-250.5 304,-280.5 414,-280.5 414,-250.5 304,-250.5"/>
<text text-anchor="start" x="312" y="-268.5" font-family="Helvetica,sans-Serif" font-size="10.00">AC_PosControl::shift</text>
<text text-anchor="middle" x="359" y="-257.5" font-family="Helvetica,sans-Serif" font-size="10.00">_pos_xy_target</text>
</a>
</g>
</g>
<!-- Node2&#45;&gt;Node6 -->
<g id="edge6" class="edge"><title>Node2&#45;&gt;Node6</title>
<path fill="none" stroke="midnightblue" d="M225.206,-337.024C243.438,-322.254 269.142,-302.951 294,-289.5 299.949,-286.281 306.422,-283.306 312.89,-280.625"/>
<polygon fill="midnightblue" stroke="midnightblue" points="222.886,-334.4 217.384,-343.454 227.332,-339.807 222.886,-334.4"/>
</g>
<!-- Node15 -->
<g id="node15" class="node"><title>Node15</title>
<g id="a_node15"><a xlink:href="classAC__WPNav.html#a7dc4785fbce8364d7eb3d8e2d0c1b987" target="_top" xlink:title="update_wpnav &#45; run the wp controller &#45; should be called at 100hz or higher ">
<polygon fill="white" stroke="black" points="852,-425 852,-444 992,-444 992,-425 852,-425"/>
<text text-anchor="middle" x="922" y="-432" font-family="Helvetica,sans-Serif" font-size="10.00">AC_WPNav::update_wpnav</text>
</a>
</g>
</g>
<!-- Node2&#45;&gt;Node15 -->
<g id="edge33" class="edge"><title>Node2&#45;&gt;Node15</title>
<path fill="none" stroke="midnightblue" d="M246.435,-376.956C261.396,-382.182 278.197,-387.312 294,-390.5 493.492,-430.75 735.089,-435.707 851.565,-435.432"/>
<polygon fill="midnightblue" stroke="midnightblue" points="247.493,-373.617 236.898,-373.527 245.124,-380.204 247.493,-373.617"/>
</g>
<!-- Node17 -->
<g id="node17" class="node"><title>Node17</title>
<g id="a_node17"><a xlink:href="classAC__WPNav.html#acc138e7bc6435087ab308896358de6a3" target="_top" xlink:title="update_spline &#45; update spline controller ">
<polygon fill="white" stroke="black" points="853.5,-381 853.5,-400 990.5,-400 990.5,-381 853.5,-381"/>
<text text-anchor="middle" x="922" y="-388" font-family="Helvetica,sans-Serif" font-size="10.00">AC_WPNav::update_spline</text>
</a>
</g>
</g>
<!-- Node2&#45;&gt;Node17 -->
<g id="edge32" class="edge"><title>Node2&#45;&gt;Node17</title>
<path fill="none" stroke="midnightblue" d="M268.172,-368.802C276.849,-369.856 285.622,-370.796 294,-371.5 496.935,-388.558 737.952,-390.834 853.133,-390.821"/>
<polygon fill="midnightblue" stroke="midnightblue" points="268.419,-365.305 258.058,-367.52 267.538,-372.25 268.419,-365.305"/>
</g>
<!-- Node25 -->
<g id="node25" class="node"><title>Node25</title>
<g id="a_node25"><a xlink:href="classAC__WPNav.html#a7ebe48af2381e791cbcdea94c7af2e3e" target="_top" xlink:title="AC_WPNav::shift_wp\l_origin_to_current_pos">
<polygon fill="white" stroke="black" points="678,-0.5 678,-30.5 793,-30.5 793,-0.5 678,-0.5"/>
<text text-anchor="start" x="686" y="-18.5" font-family="Helvetica,sans-Serif" font-size="10.00">AC_WPNav::shift_wp</text>
<text text-anchor="middle" x="735.5" y="-7.5" font-family="Helvetica,sans-Serif" font-size="10.00">_origin_to_current_pos</text>
</a>
</g>
</g>
<!-- Node2&#45;&gt;Node25 -->
<g id="edge31" class="edge"><title>Node2&#45;&gt;Node25</title>
<path fill="none" stroke="midnightblue" d="M214.031,-334.669C230.753,-307.575 260.656,-263.023 294,-231.5 409.279,-122.519 589.981,-57.7822 679.891,-30.5959"/>
<polygon fill="midnightblue" stroke="midnightblue" points="210.882,-333.111 208.681,-343.475 216.865,-336.746 210.882,-333.111"/>
</g>
<!-- Node4 -->
<g id="node4" class="node"><title>Node4</title>
<g id="a_node4"><a xlink:href="classAC__WPNav.html#af37186ad98df47275d15c04761f81ab4" target="_top" xlink:title="provide rangefinder altitude ">
<polygon fill="white" stroke="black" points="460,-308 460,-327 619,-327 619,-308 460,-308"/>
<text text-anchor="middle" x="539.5" y="-315" font-family="Helvetica,sans-Serif" font-size="10.00">AC_WPNav::set_rangefinder_alt</text>
</a>
</g>
</g>
<!-- Node3&#45;&gt;Node4 -->
<g id="edge3" class="edge"><title>Node3&#45;&gt;Node4</title>
<path fill="none" stroke="midnightblue" d="M434.378,-315.75C442.821,-315.892 451.447,-316.037 459.941,-316.18"/>
<polygon fill="midnightblue" stroke="midnightblue" points="434.248,-312.247 424.19,-315.579 434.13,-319.246 434.248,-312.247"/>
</g>
<!-- Node5&#45;&gt;Node1 -->
<g id="edge5" class="edge"><title>Node5&#45;&gt;Node1</title>
<path fill="none" stroke="midnightblue" d="M296.893,-462.672C240.321,-448.019 157.162,-426.48 104.05,-412.723"/>
<polygon fill="midnightblue" stroke="midnightblue" points="296.225,-466.115 306.783,-465.234 297.98,-459.338 296.225,-466.115"/>
</g>
<!-- Node7 -->
<g id="node7" class="node"><title>Node7</title>
<g id="a_node7"><a xlink:href="classAC__PosControl.html#adcd8a80dc29c0e77d0c3f225689319b9" target="_top" xlink:title="check for ekf position reset and adjust loiter or brake target position ">
<polygon fill="white" stroke="black" points="481,-258.5 481,-288.5 598,-288.5 598,-258.5 481,-258.5"/>
<text text-anchor="start" x="489" y="-276.5" font-family="Helvetica,sans-Serif" font-size="10.00">AC_PosControl::check</text>
<text text-anchor="middle" x="539.5" y="-265.5" font-family="Helvetica,sans-Serif" font-size="10.00">_for_ekf_xy_reset</text>
</a>
</g>
</g>
<!-- Node6&#45;&gt;Node7 -->
<g id="edge7" class="edge"><title>Node6&#45;&gt;Node7</title>
<path fill="none" stroke="midnightblue" d="M424.156,-268.375C442.696,-269.206 462.809,-270.108 480.922,-270.919"/>
<polygon fill="midnightblue" stroke="midnightblue" points="424.187,-264.873 414.04,-267.922 423.874,-271.866 424.187,-264.873"/>
</g>
<!-- Node19 -->
<g id="node19" class="node"><title>Node19</title>
<g id="a_node19"><a xlink:href="classAC__PosControl.html#a6b3617b946ffd6935c11a63629f186ec" target="_top" xlink:title="get_pos_target &#45; get target as position vector (from home in cm) ">
<polygon fill="white" stroke="black" points="487.5,-132.5 487.5,-162.5 591.5,-162.5 591.5,-132.5 487.5,-132.5"/>
<text text-anchor="start" x="495.5" y="-150.5" font-family="Helvetica,sans-Serif" font-size="10.00">AC_PosControl::get</text>
<text text-anchor="middle" x="539.5" y="-139.5" font-family="Helvetica,sans-Serif" font-size="10.00">_pos_target</text>
</a>
</g>
</g>
<!-- Node6&#45;&gt;Node19 -->
<g id="edge22" class="edge"><title>Node6&#45;&gt;Node19</title>
<path fill="none" stroke="midnightblue" d="M391.522,-244.662C427.085,-221.152 484.069,-183.483 515.618,-162.627"/>
<polygon fill="midnightblue" stroke="midnightblue" points="389.382,-241.881 382.97,-250.315 393.242,-247.72 389.382,-241.881"/>
</g>
<!-- Node8 -->
<g id="node8" class="node"><title>Node8</title>
<g id="a_node8"><a xlink:href="classAC__PosControl.html#ad89eec74ef77005f3f5c449da98ad12c" target="_top" xlink:title="AC_PosControl::update\l_vel_controller_xyz">
<polygon fill="white" stroke="black" points="675.5,-337.5 675.5,-367.5 795.5,-367.5 795.5,-337.5 675.5,-337.5"/>
<text text-anchor="start" x="683.5" y="-355.5" font-family="Helvetica,sans-Serif" font-size="10.00">AC_PosControl::update</text>
<text text-anchor="middle" x="735.5" y="-344.5" font-family="Helvetica,sans-Serif" font-size="10.00">_vel_controller_xyz</text>
</a>
</g>
</g>
<!-- Node7&#45;&gt;Node8 -->
<g id="edge8" class="edge"><title>Node7&#45;&gt;Node8</title>
<path fill="none" stroke="midnightblue" d="M606.45,-292.484C610.772,-294.343 614.994,-296.347 619,-298.5 637.097,-308.228 636.885,-317.805 655,-327.5 662.016,-331.255 669.687,-334.55 677.407,-337.41"/>
<polygon fill="midnightblue" stroke="midnightblue" points="607.457,-289.117 596.872,-288.646 604.853,-295.615 607.457,-289.117"/>
</g>
<!-- Node9 -->
<g id="node9" class="node"><title>Node9</title>
<g id="a_node9"><a xlink:href="classAC__PosControl.html#a497c1799c10d146b6f2e2b542889c083" target="_top" xlink:title="update_xy_controller &#45; run the horizontal position controller &#45; should be called at 100hz or higher ...">
<polygon fill="white" stroke="black" points="675.5,-288.5 675.5,-318.5 795.5,-318.5 795.5,-288.5 675.5,-288.5"/>
<text text-anchor="start" x="683.5" y="-306.5" font-family="Helvetica,sans-Serif" font-size="10.00">AC_PosControl::update</text>
<text text-anchor="middle" x="735.5" y="-295.5" font-family="Helvetica,sans-Serif" font-size="10.00">_xy_controller</text>
</a>
</g>
</g>
<!-- Node7&#45;&gt;Node9 -->
<g id="edge10" class="edge"><title>Node7&#45;&gt;Node9</title>
<path fill="none" stroke="midnightblue" d="M608.075,-283.95C629.987,-287.338 654.112,-291.069 675.361,-294.355"/>
<polygon fill="midnightblue" stroke="midnightblue" points="608.599,-280.489 598.181,-282.42 607.529,-287.407 608.599,-280.489"/>
</g>
<!-- Node8&#45;&gt;Node2 -->
<g id="edge9" class="edge"><title>Node8&#45;&gt;Node2</title>
<path fill="none" stroke="midnightblue" d="M664.823,-353.282C558.408,-354.477 357.328,-356.734 258.218,-357.846"/>
<polygon fill="midnightblue" stroke="midnightblue" points="665.171,-356.779 675.131,-353.166 665.093,-349.779 665.171,-356.779"/>
</g>
<!-- Node9&#45;&gt;Node2 -->
<g id="edge11" class="edge"><title>Node9&#45;&gt;Node2</title>
<path fill="none" stroke="midnightblue" d="M701.598,-283.424C679.189,-270.879 648.369,-255.772 619,-248.5 588.838,-241.032 322.34,-226.843 294,-240.5 249.17,-262.104 219.105,-316.639 206.583,-343.323"/>
<polygon fill="midnightblue" stroke="midnightblue" points="699.938,-286.506 710.355,-288.436 703.415,-280.431 699.938,-286.506"/>
</g>
<!-- Node10 -->
<g id="node10" class="node"><title>Node10</title>
<g id="a_node10"><a xlink:href="classAC__Circle.html#ad28205982ae7bc5f1e72f5285696c99b" target="_top" xlink:title="update &#45; update circle controller ">
<polygon fill="white" stroke="black" points="873.5,-340 873.5,-359 970.5,-359 970.5,-340 873.5,-340"/>
<text text-anchor="middle" x="922" y="-347" font-family="Helvetica,sans-Serif" font-size="10.00">AC_Circle::update</text>
</a>
</g>
</g>
<!-- Node9&#45;&gt;Node10 -->
<g id="edge12" class="edge"><title>Node9&#45;&gt;Node10</title>
<path fill="none" stroke="midnightblue" d="M805.514,-320.707C831.674,-327.229 860.499,-334.416 882.808,-339.978"/>
<polygon fill="midnightblue" stroke="midnightblue" points="806.188,-317.268 795.638,-318.244 804.494,-324.06 806.188,-317.268"/>
</g>
<!-- Node12 -->
<g id="node12" class="node"><title>Node12</title>
<g id="a_node12"><a xlink:href="classAC__WPNav.html#a0a434270245fd8641352af387700dc82" target="_top" xlink:title="update_loiter &#45; run the loiter controller &#45; should be called at 10hz ">
<polygon fill="white" stroke="black" points="856,-264 856,-283 988,-283 988,-264 856,-264"/>
<text text-anchor="middle" x="922" y="-271" font-family="Helvetica,sans-Serif" font-size="10.00">AC_WPNav::update_loiter</text>
</a>
</g>
</g>
<!-- Node9&#45;&gt;Node12 -->
<g id="edge14" class="edge"><title>Node9&#45;&gt;Node12</title>
<path fill="none" stroke="midnightblue" d="M805.588,-292.266C824.324,-289.22 844.422,-285.952 862.512,-283.01"/>
<polygon fill="midnightblue" stroke="midnightblue" points="804.947,-288.824 795.638,-293.884 806.07,-295.734 804.947,-288.824"/>
</g>
<!-- Node14 -->
<g id="node14" class="node"><title>Node14</title>
<g id="a_node14"><a xlink:href="classAC__WPNav.html#af9d3f98ad44166d4c5d072bf3ba4a3db" target="_top" xlink:title="update_brake &#45; run the brake controller &#45; should be called at 400hz ">
<polygon fill="white" stroke="black" points="854.5,-302 854.5,-321 989.5,-321 989.5,-302 854.5,-302"/>
<text text-anchor="middle" x="922" y="-309" font-family="Helvetica,sans-Serif" font-size="10.00">AC_WPNav::update_brake</text>
</a>
</g>
</g>
<!-- Node9&#45;&gt;Node14 -->
<g id="edge16" class="edge"><title>Node9&#45;&gt;Node14</title>
<path fill="none" stroke="midnightblue" d="M805.876,-306.508C821.696,-307.194 838.475,-307.922 854.186,-308.603"/>
<polygon fill="midnightblue" stroke="midnightblue" points="805.781,-303.001 795.638,-306.064 805.477,-309.994 805.781,-303.001"/>
</g>
<!-- Node9&#45;&gt;Node15 -->
<g id="edge18" class="edge"><title>Node9&#45;&gt;Node15</title>
<path fill="none" stroke="midnightblue" d="M804.731,-319.485C808.764,-321.804 812.569,-324.46 816,-327.5 845.788,-353.898 822.941,-382.301 852,-409.5 859.256,-416.291 868.495,-421.265 877.837,-424.898"/>
<polygon fill="midnightblue" stroke="midnightblue" points="806.104,-316.259 795.593,-314.926 802.979,-322.522 806.104,-316.259"/>
</g>
<!-- Node9&#45;&gt;Node17 -->
<g id="edge20" class="edge"><title>Node9&#45;&gt;Node17</title>
<path fill="none" stroke="midnightblue" d="M805.32,-321.525C809.03,-323.338 812.618,-325.324 816,-327.5 836.393,-340.621 831.709,-355.222 852,-368.5 859.996,-373.732 869.326,-377.797 878.492,-380.926"/>
<polygon fill="midnightblue" stroke="midnightblue" points="806.458,-318.202 795.896,-317.368 803.633,-324.606 806.458,-318.202"/>
</g>
<!-- Node11 -->
<g id="node11" class="node"><title>Node11</title>
<g id="a_node11"><a xlink:href="classAC__Circle.html#a176fe6b798510eb180d35f62d7f6487c" target="_top" xlink:title="get_angle_total &#45; return total angle in radians that vehicle has circled ">
<polygon fill="white" stroke="black" points="1044,-326.5 1044,-356.5 1154,-356.5 1154,-326.5 1044,-326.5"/>
<text text-anchor="start" x="1052" y="-344.5" font-family="Helvetica,sans-Serif" font-size="10.00">AC_Circle::get_angle</text>
<text text-anchor="middle" x="1099" y="-333.5" font-family="Helvetica,sans-Serif" font-size="10.00">_total</text>
</a>
</g>
</g>
<!-- Node10&#45;&gt;Node11 -->
<g id="edge13" class="edge"><title>Node10&#45;&gt;Node11</title>
<path fill="none" stroke="midnightblue" d="M980.86,-346.855C1001.12,-345.929 1023.79,-344.892 1043.75,-343.98"/>
<polygon fill="midnightblue" stroke="midnightblue" points="980.649,-343.361 970.82,-347.314 980.969,-350.354 980.649,-343.361"/>
</g>
<!-- Node13 -->
<g id="node13" class="node"><title>Node13</title>
<g id="a_node13"><a xlink:href="classAC__WPNav.html#ae34a88192799de8f2b96c8cd295bb971" target="_top" xlink:title="get_loiter_target &#45; returns loiter target position ">
<polygon fill="white" stroke="black" points="1041,-258.5 1041,-288.5 1157,-288.5 1157,-258.5 1041,-258.5"/>
<text text-anchor="start" x="1049" y="-276.5" font-family="Helvetica,sans-Serif" font-size="10.00">AC_WPNav::get_loiter</text>
<text text-anchor="middle" x="1099" y="-265.5" font-family="Helvetica,sans-Serif" font-size="10.00">_target</text>
</a>
</g>
</g>
<!-- Node12&#45;&gt;Node13 -->
<g id="edge15" class="edge"><title>Node12&#45;&gt;Node13</title>
<path fill="none" stroke="midnightblue" d="M998.42,-273.5C1012.64,-273.5 1027.3,-273.5 1040.84,-273.5"/>
<polygon fill="midnightblue" stroke="midnightblue" points="998.164,-270 988.164,-273.5 998.164,-277 998.164,-270"/>
</g>
<!-- Node14&#45;&gt;Node13 -->
<g id="edge17" class="edge"><title>Node14&#45;&gt;Node13</title>
<path fill="none" stroke="midnightblue" d="M977.154,-299.741C997.395,-295.346 1020.44,-290.342 1040.93,-285.892"/>
<polygon fill="midnightblue" stroke="midnightblue" points="976.189,-296.369 967.16,-301.911 977.675,-303.209 976.189,-296.369"/>
</g>
<!-- Node16 -->
<g id="node16" class="node"><title>Node16</title>
<g id="a_node16"><a xlink:href="classAC__WPNav.html#a4795d6f44811c6ca8b592c5cc098e0c0" target="_top" xlink:title="set_fast_waypoint &#45; set to true to ignore the waypoint radius and consider the waypoint &#39;reached&#39; the...">
<polygon fill="white" stroke="black" points="1043,-424.5 1043,-454.5 1155,-454.5 1155,-424.5 1043,-424.5"/>
<text text-anchor="start" x="1051" y="-442.5" font-family="Helvetica,sans-Serif" font-size="10.00">AC_WPNav::set_fast</text>
<text text-anchor="middle" x="1099" y="-431.5" font-family="Helvetica,sans-Serif" font-size="10.00">_waypoint</text>
</a>
</g>
</g>
<!-- Node15&#45;&gt;Node16 -->
<g id="edge19" class="edge"><title>Node15&#45;&gt;Node16</title>
<path fill="none" stroke="midnightblue" d="M1002.51,-436.772C1016.12,-437.161 1030,-437.557 1042.81,-437.923"/>
<polygon fill="midnightblue" stroke="midnightblue" points="1002.26,-433.263 992.165,-436.476 1002.06,-440.26 1002.26,-433.263"/>
</g>
<!-- Node18 -->
<g id="node18" class="node"><title>Node18</title>
<g id="a_node18"><a xlink:href="classAC__WPNav.html#a3169a6fb417742e33c3a5197bb7a6c6d" target="_top" xlink:title="reached_spline_destination &#45; true when we have come within RADIUS cm of the waypoint ...">
<polygon fill="white" stroke="black" points="1028,-375.5 1028,-405.5 1170,-405.5 1170,-375.5 1028,-375.5"/>
<text text-anchor="start" x="1036" y="-393.5" font-family="Helvetica,sans-Serif" font-size="10.00">AC_WPNav::reached_spline</text>
<text text-anchor="middle" x="1099" y="-382.5" font-family="Helvetica,sans-Serif" font-size="10.00">_destination</text>
</a>
</g>
</g>
<!-- Node17&#45;&gt;Node18 -->
<g id="edge21" class="edge"><title>Node17&#45;&gt;Node18</title>
<path fill="none" stroke="midnightblue" d="M1000.78,-390.5C1009.82,-390.5 1018.99,-390.5 1027.92,-390.5"/>
<polygon fill="midnightblue" stroke="midnightblue" points="1000.66,-387 990.66,-390.5 1000.66,-394 1000.66,-387"/>
</g>
<!-- Node19&#45;&gt;Node13 -->
<g id="edge25" class="edge"><title>Node19&#45;&gt;Node13</title>
<path fill="none" stroke="midnightblue" d="M568.193,-168.504C590.424,-184.199 623.092,-204.729 655,-215.5 797.857,-263.725 842.833,-232.522 992,-254.5 1007.91,-256.844 1025.09,-259.757 1040.89,-262.593"/>
<polygon fill="midnightblue" stroke="midnightblue" points="570.077,-165.548 559.917,-162.543 565.986,-171.228 570.077,-165.548"/>
</g>
<!-- Node20 -->
<g id="node20" class="node"><title>Node20</title>
<g id="a_node20"><a xlink:href="classAC__WPNav.html#a7f711c7661c335417cbcc28f9546688c" target="_top" xlink:title="get_loiter_bearing_to_target &#45; get bearing to loiter target in centi&#45;degrees ">
<polygon fill="white" stroke="black" points="677.5,-176.5 677.5,-206.5 793.5,-206.5 793.5,-176.5 677.5,-176.5"/>
<text text-anchor="start" x="685.5" y="-194.5" font-family="Helvetica,sans-Serif" font-size="10.00">AC_WPNav::get_loiter</text>
<text text-anchor="middle" x="735.5" y="-183.5" font-family="Helvetica,sans-Serif" font-size="10.00">_bearing_to_target</text>
</a>
</g>
</g>
<!-- Node19&#45;&gt;Node20 -->
<g id="edge23" class="edge"><title>Node19&#45;&gt;Node20</title>
<path fill="none" stroke="midnightblue" d="M601.504,-161.336C625.69,-166.821 653.354,-173.096 677.166,-178.496"/>
<polygon fill="midnightblue" stroke="midnightblue" points="602.251,-157.917 591.725,-159.118 600.703,-164.743 602.251,-157.917"/>
</g>
<!-- Node22 -->
<g id="node22" class="node"><title>Node22</title>
<g id="a_node22"><a xlink:href="classAC__Circle.html#a20eefa0e2e7172498728dbf1f5eed4af" target="_top" xlink:title="AC_Circle::init">
<polygon fill="white" stroke="black" points="695.5,-138 695.5,-157 775.5,-157 775.5,-138 695.5,-138"/>
<text text-anchor="middle" x="735.5" y="-145" font-family="Helvetica,sans-Serif" font-size="10.00">AC_Circle::init</text>
</a>
</g>
</g>
<!-- Node19&#45;&gt;Node22 -->
<g id="edge26" class="edge"><title>Node19&#45;&gt;Node22</title>
<path fill="none" stroke="midnightblue" d="M601.863,-147.5C632.44,-147.5 668.504,-147.5 695.303,-147.5"/>
<polygon fill="midnightblue" stroke="midnightblue" points="601.725,-144 591.725,-147.5 601.725,-151 601.725,-144"/>
</g>
<!-- Node23 -->
<g id="node23" class="node"><title>Node23</title>
<g id="a_node23"><a xlink:href="classAC__WPNav.html#a8caabd95cf51512456cd8d81f38dbff9" target="_top" xlink:title="AC_WPNav::set_spline\l_destination">
<polygon fill="white" stroke="black" points="675,-88.5 675,-118.5 796,-118.5 796,-88.5 675,-88.5"/>
<text text-anchor="start" x="683" y="-106.5" font-family="Helvetica,sans-Serif" font-size="10.00">AC_WPNav::set_spline</text>
<text text-anchor="middle" x="735.5" y="-95.5" font-family="Helvetica,sans-Serif" font-size="10.00">_destination</text>
</a>
</g>
</g>
<!-- Node19&#45;&gt;Node23 -->
<g id="edge27" class="edge"><title>Node19&#45;&gt;Node23</title>
<path fill="none" stroke="midnightblue" d="M601.518,-133.661C624.877,-128.363 651.48,-122.329 674.721,-117.058"/>
<polygon fill="midnightblue" stroke="midnightblue" points="600.703,-130.257 591.725,-135.882 602.251,-137.083 600.703,-130.257"/>
</g>
<!-- Node24 -->
<g id="node24" class="node"><title>Node24</title>
<g id="a_node24"><a xlink:href="classAC__WPNav.html#a38519fcac3a24cf64ec7c37e90fc3e13" target="_top" xlink:title="AC_WPNav::set_wp_destination">
<polygon fill="white" stroke="black" points="655,-50 655,-69 816,-69 816,-50 655,-50"/>
<text text-anchor="middle" x="735.5" y="-57" font-family="Helvetica,sans-Serif" font-size="10.00">AC_WPNav::set_wp_destination</text>
</a>
</g>
</g>
<!-- Node19&#45;&gt;Node24 -->
<g id="edge28" class="edge"><title>Node19&#45;&gt;Node24</title>
<path fill="none" stroke="midnightblue" d="M569.358,-126.672C591.753,-111.38 624.091,-91.1499 655,-78.5 664.193,-74.7375 674.303,-71.612 684.141,-69.0564"/>
<polygon fill="midnightblue" stroke="midnightblue" points="567.216,-123.897 560.992,-132.471 571.204,-129.65 567.216,-123.897"/>
</g>
<!-- Node19&#45;&gt;Node25 -->
<g id="edge29" class="edge"><title>Node19&#45;&gt;Node25</title>
<path fill="none" stroke="midnightblue" d="M563.796,-125.487C596.497,-94.6217 652.348,-42.0469 655,-40.5 662.123,-36.3443 670.016,-32.7998 677.982,-29.8003"/>
<polygon fill="midnightblue" stroke="midnightblue" points="561.285,-123.044 556.417,-132.454 566.091,-128.134 561.285,-123.044"/>
</g>
<!-- Node21 -->
<g id="node21" class="node"><title>Node21</title>
<g id="a_node21"><a xlink:href="classAC__WPNav.html#a828016e98938c6bbb6236e0b92e20807" target="_top" xlink:title="get_loiter_distance_to_target &#45; get horizontal distance to loiter target in cm ">
<polygon fill="white" stroke="black" points="864,-176.5 864,-206.5 980,-206.5 980,-176.5 864,-176.5"/>
<text text-anchor="start" x="872" y="-194.5" font-family="Helvetica,sans-Serif" font-size="10.00">AC_WPNav::get_loiter</text>
<text text-anchor="middle" x="922" y="-183.5" font-family="Helvetica,sans-Serif" font-size="10.00">_distance_to_target</text>
</a>
</g>
</g>
<!-- Node20&#45;&gt;Node21 -->
<g id="edge24" class="edge"><title>Node20&#45;&gt;Node21</title>
<path fill="none" stroke="midnightblue" d="M803.75,-191.5C823.461,-191.5 844.819,-191.5 863.839,-191.5"/>
<polygon fill="midnightblue" stroke="midnightblue" points="803.613,-188 793.613,-191.5 803.613,-195 803.613,-188"/>
</g>
<!-- Node26 -->
<g id="node26" class="node"><title>Node26</title>
<g id="a_node26"><a xlink:href="classAC__WPNav.html#acc07b8521654cf468b6a86fad9104a4c" target="_top" xlink:title="get origin using position vector (distance from home in cm) ">
<polygon fill="white" stroke="black" points="853.5,-6 853.5,-25 990.5,-25 990.5,-6 853.5,-6"/>
<text text-anchor="middle" x="922" y="-13" font-family="Helvetica,sans-Serif" font-size="10.00">AC_WPNav::get_wp_origin</text>
</a>
</g>
</g>
<!-- Node25&#45;&gt;Node26 -->
<g id="edge30" class="edge"><title>Node25&#45;&gt;Node26</title>
<path fill="none" stroke="midnightblue" d="M803.133,-15.5C819.508,-15.5 837.051,-15.5 853.467,-15.5"/>
<polygon fill="midnightblue" stroke="midnightblue" points="803.11,-12.0001 793.11,-15.5 803.11,-19.0001 803.11,-12.0001"/>
</g>
</g>
</svg>
        <g id="navigator" transform="translate(0 0)" fill="#404254">
                <rect fill="#f2f5e9" fill-opacity="0.5" stroke="#606060" stroke-width=".5" x="0" y="0" width="60" height="60"/>
                <use id="zoomplus" xlink:href="#zoomPlus" x="17" y="9" onmousedown="handleZoom(evt,'in')"/>
                <use id="zoomminus" xlink:href="#zoomMin" x="42" y="9" onmousedown="handleZoom(evt,'out')"/>
                <use id="reset" xlink:href="#resetDef" x="30" y="36" onmousedown="handleReset()"/>
                <g id="arrowUp" xlink:href="#dirArrow" transform="translate(30 24)" onmousedown="handlePan(0,-1)">
                  <use xlink:href="#rim" fill="#404040">
                        <set attributeName="fill" to="#808080" begin="arrowUp.mouseover" end="arrowUp.mouseout"/>
                  </use>
                  <path fill="none" stroke="white" stroke-width="1.5" d="M0,-3.0v7 M-2.5,-0.5L0,-3.0L2.5,-0.5"/>
                </g>
                <g id="arrowRight" xlink:href="#dirArrow" transform="rotate(90) translate(36 -43)" onmousedown="handlePan(1,0)">
                  <use xlink:href="#rim" fill="#404040">
                        <set attributeName="fill" to="#808080" begin="arrowRight.mouseover" end="arrowRight.mouseout"/>
                  </use>
                  <path fill="none" stroke="white" stroke-width="1.5" d="M0,-3.0v7 M-2.5,-0.5L0,-3.0L2.5,-0.5"/>
                </g>
                <g id="arrowDown" xlink:href="#dirArrow" transform="rotate(180) translate(-30 -48)" onmousedown="handlePan(0,1)">
                  <use xlink:href="#rim" fill="#404040">
                        <set attributeName="fill" to="#808080" begin="arrowDown.mouseover" end="arrowDown.mouseout"/>
                  </use>
                  <path fill="none" stroke="white" stroke-width="1.5" d="M0,-3.0v7 M-2.5,-0.5L0,-3.0L2.5,-0.5"/>
                </g>
                <g id="arrowLeft" xlink:href="#dirArrow" transform="rotate(270) translate(-36 17)" onmousedown="handlePan(-1,0)">
                  <use xlink:href="#rim" fill="#404040">
                        <set attributeName="fill" to="#808080" begin="arrowLeft.mouseover" end="arrowLeft.mouseout"/>
                  </use>
                  <path fill="none" stroke="white" stroke-width="1.5" d="M0,-3.0v7 M-2.5,-0.5L0,-3.0L2.5,-0.5"/>
                </g>
        </g>
        <svg viewBox="0 0 15 15" width="100%" height="30px" preserveAspectRatio="xMaxYMin meet">
         <g id="arrow_out" transform="scale(0.3 0.3)">
          <a xlink:href="classAC__PosControl_ae2897de0075f8f8aaa94eb7e8cad100b_icgraph_org.svg" target="_base">
           <rect id="button" ry="5" rx="5" y="6" x="6" height="38" width="38"
                fill="#f2f5e9" fill-opacity="0.5" stroke="#606060" stroke-width="1.0"/>
           <path id="arrow"
             d="M 11.500037,31.436501 C 11.940474,20.09759 22.043105,11.32322 32.158766,21.979434 L 37.068811,17.246167 C 37.068811,17.246167 37.088388,32 37.088388,32 L 22.160133,31.978069 C 22.160133,31.978069 26.997745,27.140456 26.997745,27.140456 C 18.528582,18.264221 13.291696,25.230495 11.500037,31.436501 z"
             style="fill:#404040;"/>
          </a>
         </g>
        </svg>
</svg>
