<?xml version="1.0" encoding="UTF-8" standalone="no"?>
<!DOCTYPE svg PUBLIC "-//W3C//DTD SVG 1.1//EN"
 "http://www.w3.org/Graphics/SVG/1.1/DTD/svg11.dtd">
<!-- Generated by graphviz version 2.38.0 (20140413.2041)
 -->
<!-- Title: SITL::JSBSim::update Pages: 1 -->
<svg width="954pt" height="893pt"
 viewBox="0.00 0.00 954.00 892.50" xmlns="http://www.w3.org/2000/svg" xmlns:xlink="http://www.w3.org/1999/xlink">
<g id="graph0" class="graph" transform="scale(1 1) rotate(0) translate(4 888.5)">
<title>SITL::JSBSim::update</title>
<polygon fill="white" stroke="none" points="-4,4 -4,-888.5 950,-888.5 950,4 -4,4"/>
<!-- Node1 -->
<g id="node1" class="node"><title>Node1</title>
<polygon fill="#bfbfbf" stroke="black" points="0,-249 0,-268 115,-268 115,-249 0,-249"/>
<text text-anchor="middle" x="57.5" y="-256" font-family="Helvetica,sans-Serif" font-size="10.00">SITL::JSBSim::update</text>
</g>
<!-- Node2 -->
<g id="node2" class="node"><title>Node2</title>
<g id="a_node2"><a xlink:href="classSITL_1_1JSBSim.html#aec306c89391f76a14577d56aaa71770c" target="_top" xlink:title="SITL::JSBSim::create\l_templates">
<polygon fill="white" stroke="black" points="157.5,-538.5 157.5,-568.5 270.5,-568.5 270.5,-538.5 157.5,-538.5"/>
<text text-anchor="start" x="165.5" y="-556.5" font-family="Helvetica,sans-Serif" font-size="10.00">SITL::JSBSim::create</text>
<text text-anchor="middle" x="214" y="-545.5" font-family="Helvetica,sans-Serif" font-size="10.00">_templates</text>
</a>
</g>
</g>
<!-- Node1&#45;&gt;Node2 -->
<g id="edge1" class="edge"><title>Node1&#45;&gt;Node2</title>
<path fill="none" stroke="midnightblue" d="M63.1045,-268.342C76.2593,-296.339 115.357,-378.717 151,-445.5 166.607,-474.742 185.757,-507.694 198.609,-529.424"/>
<polygon fill="midnightblue" stroke="midnightblue" points="195.755,-531.473 203.869,-538.286 201.774,-527.9 195.755,-531.473"/>
</g>
<!-- Node20 -->
<g id="node20" class="node"><title>Node20</title>
<g id="a_node20"><a xlink:href="classSITL_1_1JSBSim.html#a8759d8fa971163fa07e163edacc80d04" target="_top" xlink:title="SITL::JSBSim::start\l_JSBSim">
<polygon fill="white" stroke="black" points="161.5,-405.5 161.5,-435.5 266.5,-435.5 266.5,-405.5 161.5,-405.5"/>
<text text-anchor="start" x="169.5" y="-423.5" font-family="Helvetica,sans-Serif" font-size="10.00">SITL::JSBSim::start</text>
<text text-anchor="middle" x="214" y="-412.5" font-family="Helvetica,sans-Serif" font-size="10.00">_JSBSim</text>
</a>
</g>
</g>
<!-- Node1&#45;&gt;Node20 -->
<g id="edge19" class="edge"><title>Node1&#45;&gt;Node20</title>
<path fill="none" stroke="midnightblue" d="M64.341,-268.04C77.7764,-289.489 112.678,-342.457 151,-378.5 159.266,-386.274 169.103,-393.63 178.478,-399.948"/>
<polygon fill="midnightblue" stroke="midnightblue" points="176.612,-402.909 186.9,-405.441 180.436,-397.046 176.612,-402.909"/>
</g>
<!-- Node21 -->
<g id="node21" class="node"><title>Node21</title>
<g id="a_node21"><a xlink:href="classSITL_1_1JSBSim.html#a00cf6bb2ed2687ec6327dc2313edc8a4" target="_top" xlink:title="SITL::JSBSim::open\l_fdm_socket">
<polygon fill="white" stroke="black" points="332.5,-361.5 332.5,-391.5 439.5,-391.5 439.5,-361.5 332.5,-361.5"/>
<text text-anchor="start" x="340.5" y="-379.5" font-family="Helvetica,sans-Serif" font-size="10.00">SITL::JSBSim::open</text>
<text text-anchor="middle" x="386" y="-368.5" font-family="Helvetica,sans-Serif" font-size="10.00">_fdm_socket</text>
</a>
</g>
</g>
<!-- Node1&#45;&gt;Node21 -->
<g id="edge28" class="edge"><title>Node1&#45;&gt;Node21</title>
<path fill="none" stroke="midnightblue" d="M75.5042,-268.008C93.7741,-277.973 123.851,-293.657 151,-304.5 207.751,-327.167 274.564,-347.083 322.237,-360.189"/>
<polygon fill="midnightblue" stroke="midnightblue" points="321.54,-363.627 332.109,-362.881 323.382,-356.873 321.54,-363.627"/>
</g>
<!-- Node24 -->
<g id="node24" class="node"><title>Node24</title>
<g id="a_node24"><a xlink:href="classSITL_1_1JSBSim.html#a1180eb7c0de42526ac8b2096c6fae10a" target="_top" xlink:title="SITL::JSBSim::open\l_control_socket">
<polygon fill="white" stroke="black" points="332.5,-312.5 332.5,-342.5 439.5,-342.5 439.5,-312.5 332.5,-312.5"/>
<text text-anchor="start" x="340.5" y="-330.5" font-family="Helvetica,sans-Serif" font-size="10.00">SITL::JSBSim::open</text>
<text text-anchor="middle" x="386" y="-319.5" font-family="Helvetica,sans-Serif" font-size="10.00">_control_socket</text>
</a>
</g>
</g>
<!-- Node1&#45;&gt;Node24 -->
<g id="edge27" class="edge"><title>Node1&#45;&gt;Node24</title>
<path fill="none" stroke="midnightblue" d="M103.556,-268.022C160.346,-280.023 258.266,-300.717 322.329,-314.256"/>
<polygon fill="midnightblue" stroke="midnightblue" points="321.801,-317.721 332.308,-316.365 323.248,-310.872 321.801,-317.721"/>
</g>
<!-- Node25 -->
<g id="node25" class="node"><title>Node25</title>
<g id="a_node25"><a xlink:href="classSITL_1_1JSBSim.html#a63f89f6cd963d65191bc3ef635286dc7" target="_top" xlink:title="SITL::JSBSim::send\l_servos">
<polygon fill="white" stroke="black" points="332.5,-224.5 332.5,-254.5 439.5,-254.5 439.5,-224.5 332.5,-224.5"/>
<text text-anchor="start" x="340.5" y="-242.5" font-family="Helvetica,sans-Serif" font-size="10.00">SITL::JSBSim::send</text>
<text text-anchor="middle" x="386" y="-231.5" font-family="Helvetica,sans-Serif" font-size="10.00">_servos</text>
</a>
</g>
</g>
<!-- Node1&#45;&gt;Node25 -->
<g id="edge29" class="edge"><title>Node1&#45;&gt;Node25</title>
<path fill="none" stroke="midnightblue" d="M115.372,-255.19C173.144,-251.829 262.399,-246.635 322.213,-243.154"/>
<polygon fill="midnightblue" stroke="midnightblue" points="322.507,-246.643 332.287,-242.568 322.101,-239.654 322.507,-246.643"/>
</g>
<!-- Node32 -->
<g id="node32" class="node"><title>Node32</title>
<g id="a_node32"><a xlink:href="classSITL_1_1JSBSim.html#ac3a7a04e8c830f9be50a8d2a953833a1" target="_top" xlink:title="SITL::JSBSim::recv_fdm">
<polygon fill="white" stroke="black" points="151,-211 151,-230 277,-230 277,-211 151,-211"/>
<text text-anchor="middle" x="214" y="-218" font-family="Helvetica,sans-Serif" font-size="10.00">SITL::JSBSim::recv_fdm</text>
</a>
</g>
</g>
<!-- Node1&#45;&gt;Node32 -->
<g id="edge38" class="edge"><title>Node1&#45;&gt;Node32</title>
<path fill="none" stroke="midnightblue" d="M97.4869,-248.911C117.783,-243.919 142.793,-237.768 164.346,-232.467"/>
<polygon fill="midnightblue" stroke="midnightblue" points="165.419,-235.807 174.293,-230.02 163.747,-229.01 165.419,-235.807"/>
</g>
<!-- Node39 -->
<g id="node39" class="node"><title>Node39</title>
<g id="a_node39"><a xlink:href="classSITL_1_1Aircraft.html#ac530b1fc848bb23a0e5d55a93db7155c" target="_top" xlink:title="SITL::Aircraft::adjust\l_frame_time">
<polygon fill="white" stroke="black" points="160.5,-161.5 160.5,-191.5 267.5,-191.5 267.5,-161.5 160.5,-161.5"/>
<text text-anchor="start" x="168.5" y="-179.5" font-family="Helvetica,sans-Serif" font-size="10.00">SITL::Aircraft::adjust</text>
<text text-anchor="middle" x="214" y="-168.5" font-family="Helvetica,sans-Serif" font-size="10.00">_frame_time</text>
</a>
</g>
</g>
<!-- Node1&#45;&gt;Node39 -->
<g id="edge48" class="edge"><title>Node1&#45;&gt;Node39</title>
<path fill="none" stroke="midnightblue" d="M72.4878,-248.842C90.2395,-236.831 122.041,-216.129 151,-201.5 155.013,-199.473 159.23,-197.487 163.499,-195.576"/>
<polygon fill="midnightblue" stroke="midnightblue" points="165.077,-198.707 172.867,-191.526 162.299,-192.282 165.077,-198.707"/>
</g>
<!-- Node40 -->
<g id="node40" class="node"><title>Node40</title>
<g id="a_node40"><a xlink:href="classSITL_1_1Aircraft.html#a62156d8d68f444998c58c6270512fbd6" target="_top" xlink:title="SITL::Aircraft::sync\l_frame_time">
<polygon fill="white" stroke="black" points="163,-112.5 163,-142.5 265,-142.5 265,-112.5 163,-112.5"/>
<text text-anchor="start" x="171" y="-130.5" font-family="Helvetica,sans-Serif" font-size="10.00">SITL::Aircraft::sync</text>
<text text-anchor="middle" x="214" y="-119.5" font-family="Helvetica,sans-Serif" font-size="10.00">_frame_time</text>
</a>
</g>
</g>
<!-- Node1&#45;&gt;Node40 -->
<g id="edge49" class="edge"><title>Node1&#45;&gt;Node40</title>
<path fill="none" stroke="midnightblue" d="M64.4717,-248.823C77.6545,-228.194 111.25,-179.498 151,-151.5 153.105,-150.017 155.315,-148.61 157.594,-147.278"/>
<polygon fill="midnightblue" stroke="midnightblue" points="159.444,-150.259 166.66,-142.501 156.181,-144.066 159.444,-150.259"/>
</g>
<!-- Node42 -->
<g id="node42" class="node"><title>Node42</title>
<g id="a_node42"><a xlink:href="classSITL_1_1JSBSim.html#aa78666a26d80823afcefd4f5e879ff4c" target="_top" xlink:title="SITL::JSBSim::drain\l_control_socket">
<polygon fill="white" stroke="black" points="160.5,-63.5 160.5,-93.5 267.5,-93.5 267.5,-63.5 160.5,-63.5"/>
<text text-anchor="start" x="168.5" y="-81.5" font-family="Helvetica,sans-Serif" font-size="10.00">SITL::JSBSim::drain</text>
<text text-anchor="middle" x="214" y="-70.5" font-family="Helvetica,sans-Serif" font-size="10.00">_control_socket</text>
</a>
</g>
</g>
<!-- Node1&#45;&gt;Node42 -->
<g id="edge51" class="edge"><title>Node1&#45;&gt;Node42</title>
<path fill="none" stroke="midnightblue" d="M61.6297,-248.955C70.9041,-222.089 100.772,-145.017 151,-102.5 152.52,-101.214 154.116,-99.9916 155.772,-98.8312"/>
<polygon fill="midnightblue" stroke="midnightblue" points="157.751,-101.723 164.467,-93.5287 154.107,-95.7471 157.751,-101.723"/>
</g>
<!-- Node3 -->
<g id="node3" class="node"><title>Node3</title>
<g id="a_node3"><a xlink:href="replace_8cpp.html#a28a648dd20504ebc0c03623a28d82c93" target="_top" xlink:title="asprintf">
<polygon fill="white" stroke="black" points="542,-465 542,-484 591,-484 591,-465 542,-465"/>
<text text-anchor="middle" x="566.5" y="-472" font-family="Helvetica,sans-Serif" font-size="10.00">asprintf</text>
</a>
</g>
</g>
<!-- Node2&#45;&gt;Node3 -->
<g id="edge2" class="edge"><title>Node2&#45;&gt;Node3</title>
<path fill="none" stroke="midnightblue" d="M270.538,-540.982C344.075,-524.408 471.48,-495.691 531.878,-482.078"/>
<polygon fill="midnightblue" stroke="midnightblue" points="532.678,-485.486 541.664,-479.872 531.139,-478.657 532.678,-485.486"/>
</g>
<!-- Node5 -->
<g id="node5" class="node"><title>Node5</title>
<g id="a_node5"><a xlink:href="namespaceAP__HAL.html#a71832f03d849a0c088f04fc98d3c8143" target="_top" xlink:title="AP_HAL::panic">
<polygon fill="white" stroke="black" points="344,-563 344,-582 428,-582 428,-563 344,-563"/>
<text text-anchor="middle" x="386" y="-570" font-family="Helvetica,sans-Serif" font-size="10.00">AP_HAL::panic</text>
</a>
</g>
</g>
<!-- Node2&#45;&gt;Node5 -->
<g id="edge4" class="edge"><title>Node2&#45;&gt;Node5</title>
<path fill="none" stroke="midnightblue" d="M270.664,-559.721C290.95,-561.988 313.776,-564.54 333.667,-566.763"/>
<polygon fill="midnightblue" stroke="midnightblue" points="333.446,-570.26 343.773,-567.892 334.224,-563.303 333.446,-570.26"/>
</g>
<!-- Node14 -->
<g id="node14" class="node"><title>Node14</title>
<g id="a_node14"><a xlink:href="classMatrix3.html#a893c6a712d52e47dbb7ed2d7a548046e" target="_top" xlink:title="Matrix3::to_euler">
<polygon fill="white" stroke="black" points="341.5,-718 341.5,-737 430.5,-737 430.5,-718 341.5,-718"/>
<text text-anchor="middle" x="386" y="-725" font-family="Helvetica,sans-Serif" font-size="10.00">Matrix3::to_euler</text>
</a>
</g>
</g>
<!-- Node2&#45;&gt;Node14 -->
<g id="edge13" class="edge"><title>Node2&#45;&gt;Node14</title>
<path fill="none" stroke="midnightblue" d="M229.789,-568.637C261.349,-600.939 335.115,-676.442 368.302,-710.409"/>
<polygon fill="midnightblue" stroke="midnightblue" points="365.967,-713.027 375.458,-717.734 370.974,-708.135 365.967,-713.027"/>
</g>
<!-- Node4 -->
<g id="node4" class="node"><title>Node4</title>
<g id="a_node4"><a xlink:href="replace_8cpp.html#a4e85b35525311e653744c2bfd3e9971e" target="_top" xlink:title="vasprintf">
<polygon fill="white" stroke="black" points="711,-428 711,-447 765,-447 765,-428 711,-428"/>
<text text-anchor="middle" x="738" y="-435" font-family="Helvetica,sans-Serif" font-size="10.00">vasprintf</text>
</a>
</g>
</g>
<!-- Node3&#45;&gt;Node4 -->
<g id="edge3" class="edge"><title>Node3&#45;&gt;Node4</title>
<path fill="none" stroke="midnightblue" d="M591.068,-469.355C619.468,-463.156 667.496,-452.672 700.653,-445.434"/>
<polygon fill="midnightblue" stroke="midnightblue" points="701.829,-448.76 710.852,-443.208 700.336,-441.921 701.829,-448.76"/>
</g>
<!-- Node6 -->
<g id="node6" class="node"><title>Node6</title>
<g id="a_node6"><a xlink:href="classAP__HAL_1_1RCInput.html#a2bea13d38f2b9ae8bf5193a3a69f0a31" target="_top" xlink:title="AP_HAL::RCInput::teardown">
<polygon fill="white" stroke="black" points="495,-585 495,-604 638,-604 638,-585 495,-585"/>
<text text-anchor="middle" x="566.5" y="-592" font-family="Helvetica,sans-Serif" font-size="10.00">AP_HAL::RCInput::teardown</text>
</a>
</g>
</g>
<!-- Node5&#45;&gt;Node6 -->
<g id="edge5" class="edge"><title>Node5&#45;&gt;Node6</title>
<path fill="none" stroke="midnightblue" d="M428.4,-577.603C445.239,-579.678 465.304,-582.151 484.818,-584.556"/>
<polygon fill="midnightblue" stroke="midnightblue" points="484.599,-588.055 494.952,-585.805 485.455,-581.108 484.599,-588.055"/>
</g>
<!-- Node13 -->
<g id="node13" class="node"><title>Node13</title>
<g id="a_node13"><a xlink:href="classAP__HAL_1_1Scheduler.html#a78c4f1b1f192ac1c99544b6cc8f099b0" target="_top" xlink:title="AP_HAL::Scheduler::\ldelay_microseconds">
<polygon fill="white" stroke="black" points="511.5,-535.5 511.5,-565.5 621.5,-565.5 621.5,-535.5 511.5,-535.5"/>
<text text-anchor="start" x="519.5" y="-553.5" font-family="Helvetica,sans-Serif" font-size="10.00">AP_HAL::Scheduler::</text>
<text text-anchor="middle" x="566.5" y="-542.5" font-family="Helvetica,sans-Serif" font-size="10.00">delay_microseconds</text>
</a>
</g>
</g>
<!-- Node5&#45;&gt;Node13 -->
<g id="edge12" class="edge"><title>Node5&#45;&gt;Node13</title>
<path fill="none" stroke="midnightblue" d="M428.4,-567.397C450.028,-564.732 476.978,-561.41 501.247,-558.419"/>
<polygon fill="midnightblue" stroke="midnightblue" points="501.963,-561.857 511.46,-557.16 501.107,-554.91 501.963,-561.857"/>
</g>
<!-- Node7 -->
<g id="node7" class="node"><title>Node7</title>
<g id="a_node7"><a xlink:href="classAP__HAL_1_1RCInput.html#aee1fade33080edef83dd7db0fad0f7da" target="_top" xlink:title="AP_HAL::RCInput::new\l_input">
<polygon fill="white" stroke="black" points="677,-603.5 677,-633.5 799,-633.5 799,-603.5 677,-603.5"/>
<text text-anchor="start" x="685" y="-621.5" font-family="Helvetica,sans-Serif" font-size="10.00">AP_HAL::RCInput::new</text>
<text text-anchor="middle" x="738" y="-610.5" font-family="Helvetica,sans-Serif" font-size="10.00">_input</text>
</a>
</g>
</g>
<!-- Node6&#45;&gt;Node7 -->
<g id="edge6" class="edge"><title>Node6&#45;&gt;Node7</title>
<path fill="none" stroke="midnightblue" d="M634.978,-604.054C645.472,-605.54 656.335,-607.078 666.886,-608.572"/>
<polygon fill="midnightblue" stroke="midnightblue" points="666.493,-612.051 676.885,-609.988 667.474,-605.121 666.493,-612.051"/>
</g>
<!-- Node8 -->
<g id="node8" class="node"><title>Node8</title>
<g id="a_node8"><a xlink:href="classAP__HAL_1_1RCInput.html#ae55f959c6115c1f41783af3a2b6c4fcd" target="_top" xlink:title="AP_HAL::RCInput::num\l_channels">
<polygon fill="white" stroke="black" points="677,-554.5 677,-584.5 799,-584.5 799,-554.5 677,-554.5"/>
<text text-anchor="start" x="685" y="-572.5" font-family="Helvetica,sans-Serif" font-size="10.00">AP_HAL::RCInput::num</text>
<text text-anchor="middle" x="738" y="-561.5" font-family="Helvetica,sans-Serif" font-size="10.00">_channels</text>
</a>
</g>
</g>
<!-- Node6&#45;&gt;Node8 -->
<g id="edge7" class="edge"><title>Node6&#45;&gt;Node8</title>
<path fill="none" stroke="midnightblue" d="M632.064,-584.977C643.425,-583.302 655.299,-581.55 666.804,-579.853"/>
<polygon fill="midnightblue" stroke="midnightblue" points="667.416,-583.301 676.798,-578.379 666.394,-576.376 667.416,-583.301"/>
</g>
<!-- Node9 -->
<g id="node9" class="node"><title>Node9</title>
<g id="a_node9"><a xlink:href="classAP__HAL_1_1RCInput.html#a078fd7e6d2e6a899009ec674a8e03498" target="_top" xlink:title="AP_HAL::RCInput::read">
<polygon fill="white" stroke="black" points="677,-516 677,-535 799,-535 799,-516 677,-516"/>
<text text-anchor="middle" x="738" y="-523" font-family="Helvetica,sans-Serif" font-size="10.00">AP_HAL::RCInput::read</text>
</a>
</g>
</g>
<!-- Node6&#45;&gt;Node9 -->
<g id="edge8" class="edge"><title>Node6&#45;&gt;Node9</title>
<path fill="none" stroke="midnightblue" d="M614.462,-584.894C622.544,-582.392 630.688,-579.298 638,-575.5 656.483,-565.901 655.733,-555.505 674,-545.5 678.781,-542.882 683.956,-540.546 689.216,-538.479"/>
<polygon fill="midnightblue" stroke="midnightblue" points="690.493,-541.739 698.706,-535.045 688.111,-535.157 690.493,-541.739"/>
</g>
<!-- Node10 -->
<g id="node10" class="node"><title>Node10</title>
<g id="a_node10"><a xlink:href="classAP__HAL_1_1RCInput.html#a0989c5ca271631fe655c047d4a022a3d" target="_top" xlink:title="AP_HAL::RCInput::set\l_overrides">
<polygon fill="white" stroke="black" points="679.5,-466.5 679.5,-496.5 796.5,-496.5 796.5,-466.5 679.5,-466.5"/>
<text text-anchor="start" x="687.5" y="-484.5" font-family="Helvetica,sans-Serif" font-size="10.00">AP_HAL::RCInput::set</text>
<text text-anchor="middle" x="738" y="-473.5" font-family="Helvetica,sans-Serif" font-size="10.00">_overrides</text>
</a>
</g>
</g>
<!-- Node6&#45;&gt;Node10 -->
<g id="edge9" class="edge"><title>Node6&#45;&gt;Node10</title>
<path fill="none" stroke="midnightblue" d="M621.74,-584.95C627.585,-582.486 633.157,-579.389 638,-575.5 664.97,-553.842 648.313,-529.666 674,-506.5 675.739,-504.931 677.589,-503.455 679.522,-502.067"/>
<polygon fill="midnightblue" stroke="midnightblue" points="681.791,-504.778 688.439,-496.529 678.098,-498.832 681.791,-504.778"/>
</g>
<!-- Node11 -->
<g id="node11" class="node"><title>Node11</title>
<g id="a_node11"><a xlink:href="classAP__HAL_1_1RCInput.html#abfd037ca0989a0422a60f418d34eb7d5" target="_top" xlink:title="AP_HAL::RCInput::set\l_override">
<polygon fill="white" stroke="black" points="679.5,-701.5 679.5,-731.5 796.5,-731.5 796.5,-701.5 679.5,-701.5"/>
<text text-anchor="start" x="687.5" y="-719.5" font-family="Helvetica,sans-Serif" font-size="10.00">AP_HAL::RCInput::set</text>
<text text-anchor="middle" x="738" y="-708.5" font-family="Helvetica,sans-Serif" font-size="10.00">_override</text>
</a>
</g>
</g>
<!-- Node6&#45;&gt;Node11 -->
<g id="edge10" class="edge"><title>Node6&#45;&gt;Node11</title>
<path fill="none" stroke="midnightblue" d="M575.661,-604.151C592.349,-623.356 632.33,-666.727 674,-692.5 676.604,-694.11 679.333,-695.642 682.135,-697.095"/>
<polygon fill="midnightblue" stroke="midnightblue" points="680.736,-700.305 691.267,-701.463 683.756,-693.99 680.736,-700.305"/>
</g>
<!-- Node12 -->
<g id="node12" class="node"><title>Node12</title>
<g id="a_node12"><a xlink:href="classAP__HAL_1_1RCInput.html#ab3671bbe43fdb97c53071d7832ac256e" target="_top" xlink:title="AP_HAL::RCInput::clear\l_overrides">
<polygon fill="white" stroke="black" points="675.5,-652.5 675.5,-682.5 800.5,-682.5 800.5,-652.5 675.5,-652.5"/>
<text text-anchor="start" x="683.5" y="-670.5" font-family="Helvetica,sans-Serif" font-size="10.00">AP_HAL::RCInput::clear</text>
<text text-anchor="middle" x="738" y="-659.5" font-family="Helvetica,sans-Serif" font-size="10.00">_overrides</text>
</a>
</g>
</g>
<!-- Node6&#45;&gt;Node12 -->
<g id="edge11" class="edge"><title>Node6&#45;&gt;Node12</title>
<path fill="none" stroke="midnightblue" d="M587.343,-604.116C608.6,-614.302 643.413,-630.655 674,-643.5 678.118,-645.229 682.407,-646.976 686.726,-648.697"/>
<polygon fill="midnightblue" stroke="midnightblue" points="685.585,-652.009 696.173,-652.406 688.144,-645.493 685.585,-652.009"/>
</g>
<!-- Node15 -->
<g id="node15" class="node"><title>Node15</title>
<g id="a_node15"><a xlink:href="AP__Math_8cpp.html#a3370ada2588e54722319d65e00d8545c" target="_top" xlink:title="safe_asin">
<polygon fill="white" stroke="black" points="537,-789 537,-808 596,-808 596,-789 537,-789"/>
<text text-anchor="middle" x="566.5" y="-796" font-family="Helvetica,sans-Serif" font-size="10.00">safe_asin</text>
</a>
</g>
</g>
<!-- Node14&#45;&gt;Node15 -->
<g id="edge14" class="edge"><title>Node14&#45;&gt;Node15</title>
<path fill="none" stroke="midnightblue" d="M411.073,-737.075C442.301,-749.496 496.934,-771.227 532.143,-785.232"/>
<polygon fill="midnightblue" stroke="midnightblue" points="530.938,-788.519 541.524,-788.963 533.525,-782.015 530.938,-788.519"/>
</g>
<!-- Node16 -->
<g id="node16" class="node"><title>Node16</title>
<g id="a_node16"><a xlink:href="AP__Math_8cpp.html#acde8e5813f30717986b84509948bf530" target="_top" xlink:title="safe_asin\&lt; int \&gt;">
<polygon fill="white" stroke="black" points="694.5,-865 694.5,-884 781.5,-884 781.5,-865 694.5,-865"/>
<text text-anchor="middle" x="738" y="-872" font-family="Helvetica,sans-Serif" font-size="10.00">safe_asin&lt; int &gt;</text>
</a>
</g>
</g>
<!-- Node15&#45;&gt;Node16 -->
<g id="edge15" class="edge"><title>Node15&#45;&gt;Node16</title>
<path fill="none" stroke="midnightblue" d="M582.902,-808.005C603.198,-820.233 640.28,-841.554 674,-855.5 679.478,-857.766 685.324,-859.893 691.163,-861.846"/>
<polygon fill="midnightblue" stroke="midnightblue" points="690.327,-865.253 700.918,-864.961 692.456,-858.585 690.327,-865.253"/>
</g>
<!-- Node17 -->
<g id="node17" class="node"><title>Node17</title>
<g id="a_node17"><a xlink:href="AP__Math_8cpp.html#a6baeda4985886aba9f6d5d5008ac2b10" target="_top" xlink:title="safe_asin\&lt; short \&gt;">
<polygon fill="white" stroke="black" points="689,-827 689,-846 787,-846 787,-827 689,-827"/>
<text text-anchor="middle" x="738" y="-834" font-family="Helvetica,sans-Serif" font-size="10.00">safe_asin&lt; short &gt;</text>
</a>
</g>
</g>
<!-- Node15&#45;&gt;Node17 -->
<g id="edge16" class="edge"><title>Node15&#45;&gt;Node17</title>
<path fill="none" stroke="midnightblue" d="M596.253,-804.946C620.333,-810.345 655.329,-818.19 684.4,-824.708"/>
<polygon fill="midnightblue" stroke="midnightblue" points="683.884,-828.179 694.407,-826.951 685.415,-821.348 683.884,-828.179"/>
</g>
<!-- Node18 -->
<g id="node18" class="node"><title>Node18</title>
<g id="a_node18"><a xlink:href="AP__Math_8cpp.html#a48612e903b0ef12fa5653056a6d5b3f7" target="_top" xlink:title="safe_asin\&lt; float \&gt;">
<polygon fill="white" stroke="black" points="690.5,-789 690.5,-808 785.5,-808 785.5,-789 690.5,-789"/>
<text text-anchor="middle" x="738" y="-796" font-family="Helvetica,sans-Serif" font-size="10.00">safe_asin&lt; float &gt;</text>
</a>
</g>
</g>
<!-- Node15&#45;&gt;Node18 -->
<g id="edge17" class="edge"><title>Node15&#45;&gt;Node18</title>
<path fill="none" stroke="midnightblue" d="M596.253,-798.5C619.218,-798.5 652.112,-798.5 680.326,-798.5"/>
<polygon fill="midnightblue" stroke="midnightblue" points="680.482,-802 690.482,-798.5 680.482,-795 680.482,-802"/>
</g>
<!-- Node19 -->
<g id="node19" class="node"><title>Node19</title>
<g id="a_node19"><a xlink:href="AP__Math_8cpp.html#a9f2aae5b5adb09329c1a64b433d148dd" target="_top" xlink:title="safe_asin\&lt; double \&gt;">
<polygon fill="white" stroke="black" points="685.5,-751 685.5,-770 790.5,-770 790.5,-751 685.5,-751"/>
<text text-anchor="middle" x="738" y="-758" font-family="Helvetica,sans-Serif" font-size="10.00">safe_asin&lt; double &gt;</text>
</a>
</g>
</g>
<!-- Node15&#45;&gt;Node19 -->
<g id="edge18" class="edge"><title>Node15&#45;&gt;Node19</title>
<path fill="none" stroke="midnightblue" d="M596.253,-792.054C620.333,-786.655 655.329,-778.81 684.4,-772.292"/>
<polygon fill="midnightblue" stroke="midnightblue" points="685.415,-775.652 694.407,-770.049 683.884,-768.821 685.415,-775.652"/>
</g>
<!-- Node20&#45;&gt;Node3 -->
<g id="edge23" class="edge"><title>Node20&#45;&gt;Node3</title>
<path fill="none" stroke="midnightblue" d="M233.888,-435.604C252.681,-449.588 282.974,-469.403 313,-477.5 389.108,-498.024 482.868,-488.237 531.938,-480.593"/>
<polygon fill="midnightblue" stroke="midnightblue" points="532.685,-484.018 541.993,-478.958 531.561,-477.109 532.685,-484.018"/>
</g>
<!-- Node20&#45;&gt;Node5 -->
<g id="edge22" class="edge"><title>Node20&#45;&gt;Node5</title>
<path fill="none" stroke="midnightblue" d="M231.155,-435.629C250.463,-453.644 283.828,-484.557 313,-510.5 330.723,-526.262 351.25,-543.876 365.841,-556.29"/>
<polygon fill="midnightblue" stroke="midnightblue" points="363.791,-559.141 373.679,-562.945 368.321,-553.805 363.791,-559.141"/>
</g>
<!-- Node20&#45;&gt;Node21 -->
<g id="edge20" class="edge"><title>Node20&#45;&gt;Node21</title>
<path fill="none" stroke="midnightblue" d="M266.929,-407.059C284.476,-402.518 304.251,-397.4 322.528,-392.669"/>
<polygon fill="midnightblue" stroke="midnightblue" points="323.411,-396.056 332.215,-390.162 321.657,-389.279 323.411,-396.056"/>
</g>
<!-- Node22 -->
<g id="node22" class="node"><title>Node22</title>
<g id="a_node22"><a xlink:href="classSITL_1_1JSBSim.html#a7a215abef77dd3a3d8da5b9364a73e1b" target="_top" xlink:title="SITL::JSBSim::check\l_stdout">
<polygon fill="white" stroke="black" points="510.5,-361.5 510.5,-391.5 622.5,-391.5 622.5,-361.5 510.5,-361.5"/>
<text text-anchor="start" x="518.5" y="-379.5" font-family="Helvetica,sans-Serif" font-size="10.00">SITL::JSBSim::check</text>
<text text-anchor="middle" x="566.5" y="-368.5" font-family="Helvetica,sans-Serif" font-size="10.00">_stdout</text>
</a>
</g>
</g>
<!-- Node20&#45;&gt;Node22 -->
<g id="edge26" class="edge"><title>Node20&#45;&gt;Node22</title>
<path fill="none" stroke="midnightblue" d="M266.674,-418.768C316.245,-416.567 393.083,-411.742 459,-401.5 472.516,-399.4 486.856,-396.503 500.487,-393.424"/>
<polygon fill="midnightblue" stroke="midnightblue" points="501.313,-396.825 510.265,-391.158 499.733,-390.006 501.313,-396.825"/>
</g>
<!-- Node23 -->
<g id="node23" class="node"><title>Node23</title>
<g id="a_node23"><a xlink:href="classSITL_1_1JSBSim.html#a313cd68d8c8eb8e376efb5c5e95a119c" target="_top" xlink:title="SITL::JSBSim::expect">
<polygon fill="white" stroke="black" points="328.5,-449 328.5,-468 443.5,-468 443.5,-449 328.5,-449"/>
<text text-anchor="middle" x="386" y="-456" font-family="Helvetica,sans-Serif" font-size="10.00">SITL::JSBSim::expect</text>
</a>
</g>
</g>
<!-- Node20&#45;&gt;Node23 -->
<g id="edge24" class="edge"><title>Node20&#45;&gt;Node23</title>
<path fill="none" stroke="midnightblue" d="M266.929,-432.108C287.656,-436.741 311.49,-442.068 332.294,-446.719"/>
<polygon fill="midnightblue" stroke="midnightblue" points="331.713,-450.175 342.236,-448.941 333.24,-443.344 331.713,-450.175"/>
</g>
<!-- Node20&#45;&gt;Node24 -->
<g id="edge25" class="edge"><title>Node20&#45;&gt;Node24</title>
<path fill="none" stroke="midnightblue" d="M233.548,-405.32C252.568,-390.326 283.465,-367.518 313,-352.5 317.272,-350.328 321.776,-348.27 326.362,-346.337"/>
<polygon fill="midnightblue" stroke="midnightblue" points="327.852,-349.511 335.84,-342.55 325.255,-343.011 327.852,-349.511"/>
</g>
<!-- Node21&#45;&gt;Node22 -->
<g id="edge21" class="edge"><title>Node21&#45;&gt;Node22</title>
<path fill="none" stroke="midnightblue" d="M439.59,-376.5C458.594,-376.5 480.281,-376.5 500.239,-376.5"/>
<polygon fill="midnightblue" stroke="midnightblue" points="500.495,-380 510.495,-376.5 500.495,-373 500.495,-380"/>
</g>
<!-- Node25&#45;&gt;Node3 -->
<g id="edge36" class="edge"><title>Node25&#45;&gt;Node3</title>
<path fill="none" stroke="midnightblue" d="M409.162,-254.595C424.938,-266.329 445.628,-283.874 459,-303.5 485.127,-341.846 470.352,-362.186 495,-401.5 508.74,-423.416 529.907,-444.203 545.464,-457.949"/>
<polygon fill="midnightblue" stroke="midnightblue" points="543.585,-460.95 553.446,-464.824 548.153,-455.646 543.585,-460.95"/>
</g>
<!-- Node26 -->
<g id="node26" class="node"><title>Node26</title>
<g id="a_node26"><a xlink:href="classSITL_1_1Aircraft.html#a057713321d945fa4a97cd30fb684d15a" target="_top" xlink:title="SITL::Aircraft::filtered\l_servo_angle">
<polygon fill="white" stroke="black" points="511.5,-268.5 511.5,-298.5 621.5,-298.5 621.5,-268.5 511.5,-268.5"/>
<text text-anchor="start" x="519.5" y="-286.5" font-family="Helvetica,sans-Serif" font-size="10.00">SITL::Aircraft::filtered</text>
<text text-anchor="middle" x="566.5" y="-275.5" font-family="Helvetica,sans-Serif" font-size="10.00">_servo_angle</text>
</a>
</g>
</g>
<!-- Node25&#45;&gt;Node26 -->
<g id="edge30" class="edge"><title>Node25&#45;&gt;Node26</title>
<path fill="none" stroke="midnightblue" d="M439.59,-252.463C459.033,-257.256 481.285,-262.741 501.621,-267.754"/>
<polygon fill="midnightblue" stroke="midnightblue" points="500.882,-271.177 511.429,-270.172 502.558,-264.38 500.882,-271.177"/>
</g>
<!-- Node30 -->
<g id="node30" class="node"><title>Node30</title>
<g id="a_node30"><a xlink:href="classSITL_1_1Aircraft.html#a1e7462de0ec320a4a7731054d8ea322d" target="_top" xlink:title="SITL::Aircraft::filtered\l_servo_range">
<polygon fill="white" stroke="black" points="511.5,-180.5 511.5,-210.5 621.5,-210.5 621.5,-180.5 511.5,-180.5"/>
<text text-anchor="start" x="519.5" y="-198.5" font-family="Helvetica,sans-Serif" font-size="10.00">SITL::Aircraft::filtered</text>
<text text-anchor="middle" x="566.5" y="-187.5" font-family="Helvetica,sans-Serif" font-size="10.00">_servo_range</text>
</a>
</g>
</g>
<!-- Node25&#45;&gt;Node30 -->
<g id="edge34" class="edge"><title>Node25&#45;&gt;Node30</title>
<path fill="none" stroke="midnightblue" d="M439.59,-226.537C459.033,-221.744 481.285,-216.259 501.621,-211.246"/>
<polygon fill="midnightblue" stroke="midnightblue" points="502.558,-214.62 511.429,-208.828 500.882,-207.823 502.558,-214.62"/>
</g>
<!-- Node31 -->
<g id="node31" class="node"><title>Node31</title>
<g id="a_node31"><a xlink:href="AP__Math_8h.html#a75b14352ec1c95a8276af9a0813cfdc3" target="_top" xlink:title="radians">
<polygon fill="white" stroke="black" points="542.5,-230 542.5,-249 590.5,-249 590.5,-230 542.5,-230"/>
<text text-anchor="middle" x="566.5" y="-237" font-family="Helvetica,sans-Serif" font-size="10.00">radians</text>
</a>
</g>
</g>
<!-- Node25&#45;&gt;Node31 -->
<g id="edge37" class="edge"><title>Node25&#45;&gt;Node31</title>
<path fill="none" stroke="midnightblue" d="M439.59,-239.5C469.598,-239.5 506.298,-239.5 532.316,-239.5"/>
<polygon fill="midnightblue" stroke="midnightblue" points="532.416,-243 542.416,-239.5 532.416,-236 532.416,-243"/>
</g>
<!-- Node27 -->
<g id="node27" class="node"><title>Node27</title>
<g id="a_node27"><a xlink:href="classSITL_1_1Aircraft.html#a6e437d1e0d08e28422a0ce365d3fdc8e" target="_top" xlink:title="SITL::Aircraft::filtered_idx">
<polygon fill="white" stroke="black" points="674,-230 674,-249 802,-249 802,-230 674,-230"/>
<text text-anchor="middle" x="738" y="-237" font-family="Helvetica,sans-Serif" font-size="10.00">SITL::Aircraft::filtered_idx</text>
</a>
</g>
</g>
<!-- Node26&#45;&gt;Node27 -->
<g id="edge31" class="edge"><title>Node26&#45;&gt;Node27</title>
<path fill="none" stroke="midnightblue" d="M621.597,-269.457C643.761,-263.704 669.158,-257.111 690.475,-251.577"/>
<polygon fill="midnightblue" stroke="midnightblue" points="691.466,-254.936 700.266,-249.036 689.707,-248.161 691.466,-254.936"/>
</g>
<!-- Node28 -->
<g id="node28" class="node"><title>Node28</title>
<g id="a_node28"><a xlink:href="classLowPassFilter.html#a1cc5016de137b01080fa0a6fa7fe53cd" target="_top" xlink:title="LowPassFilter::set\l_cutoff_frequency">
<polygon fill="white" stroke="black" points="843,-246.5 843,-276.5 941,-276.5 941,-246.5 843,-246.5"/>
<text text-anchor="start" x="851" y="-264.5" font-family="Helvetica,sans-Serif" font-size="10.00">LowPassFilter::set</text>
<text text-anchor="middle" x="892" y="-253.5" font-family="Helvetica,sans-Serif" font-size="10.00">_cutoff_frequency</text>
</a>
</g>
</g>
<!-- Node27&#45;&gt;Node28 -->
<g id="edge32" class="edge"><title>Node27&#45;&gt;Node28</title>
<path fill="none" stroke="midnightblue" d="M802.141,-248.639C812.19,-250.093 822.548,-251.593 832.485,-253.031"/>
<polygon fill="midnightblue" stroke="midnightblue" points="832.258,-256.534 842.657,-254.503 833.261,-249.606 832.258,-256.534"/>
</g>
<!-- Node29 -->
<g id="node29" class="node"><title>Node29</title>
<g id="a_node29"><a xlink:href="classLowPassFilter.html#aa390849d2e18ff3287f92b89d8657841" target="_top" xlink:title="LowPassFilter::apply">
<polygon fill="white" stroke="black" points="838,-208 838,-227 946,-227 946,-208 838,-208"/>
<text text-anchor="middle" x="892" y="-215" font-family="Helvetica,sans-Serif" font-size="10.00">LowPassFilter::apply</text>
</a>
</g>
</g>
<!-- Node27&#45;&gt;Node29 -->
<g id="edge33" class="edge"><title>Node27&#45;&gt;Node29</title>
<path fill="none" stroke="midnightblue" d="M802.141,-230.361C810.701,-229.122 819.484,-227.851 828.04,-226.613"/>
<polygon fill="midnightblue" stroke="midnightblue" points="828.557,-230.074 837.953,-225.178 827.555,-223.147 828.557,-230.074"/>
</g>
<!-- Node30&#45;&gt;Node27 -->
<g id="edge35" class="edge"><title>Node30&#45;&gt;Node27</title>
<path fill="none" stroke="midnightblue" d="M621.597,-209.543C643.761,-215.296 669.158,-221.889 690.475,-227.423"/>
<polygon fill="midnightblue" stroke="midnightblue" points="689.707,-230.839 700.266,-229.964 691.466,-224.064 689.707,-230.839"/>
</g>
<!-- Node32&#45;&gt;Node22 -->
<g id="edge39" class="edge"><title>Node32&#45;&gt;Node22</title>
<path fill="none" stroke="midnightblue" d="M234.554,-230.094C254.094,-239.437 285.154,-253.636 313,-263.5 376.419,-285.965 397.962,-275.199 459,-303.5 488.492,-317.174 518.747,-338.782 539.436,-354.947"/>
<polygon fill="midnightblue" stroke="midnightblue" points="537.408,-357.805 547.416,-361.283 541.761,-352.323 537.408,-357.805"/>
</g>
<!-- Node32&#45;&gt;Node25 -->
<g id="edge40" class="edge"><title>Node32&#45;&gt;Node25</title>
<path fill="none" stroke="midnightblue" d="M277.336,-227.467C292.042,-229.111 307.724,-230.863 322.44,-232.508"/>
<polygon fill="midnightblue" stroke="midnightblue" points="322.123,-235.994 332.45,-233.627 322.9,-229.038 322.123,-235.994"/>
</g>
<!-- Node33 -->
<g id="node33" class="node"><title>Node33</title>
<g id="a_node33"><a xlink:href="classSITL_1_1FGNetFDM.html#a6676bdd26a6dfd576c0a9543c1e08c5d" target="_top" xlink:title="SITL::FGNetFDM::ByteSwap">
<polygon fill="white" stroke="black" points="313,-88 313,-107 459,-107 459,-88 313,-88"/>
<text text-anchor="middle" x="386" y="-95" font-family="Helvetica,sans-Serif" font-size="10.00">SITL::FGNetFDM::ByteSwap</text>
</a>
</g>
</g>
<!-- Node32&#45;&gt;Node33 -->
<g id="edge41" class="edge"><title>Node32&#45;&gt;Node33</title>
<path fill="none" stroke="midnightblue" d="M260.509,-210.904C266.518,-208.242 272.235,-204.842 277,-200.5 307.023,-173.143 282.249,-143.036 313,-116.5 314.97,-114.8 317.075,-113.25 319.282,-111.837"/>
<polygon fill="midnightblue" stroke="midnightblue" points="321.071,-114.849 328.228,-107.037 317.761,-108.681 321.071,-114.849"/>
</g>
<!-- Node34 -->
<g id="node34" class="node"><title>Node34</title>
<g id="a_node34"><a xlink:href="classSITL_1_1SITL.html#a03477afd4c3a2eb26d6379c41bffdee9" target="_top" xlink:title="SITL::SITL::convert\l_body_frame">
<polygon fill="white" stroke="black" points="334.5,-175.5 334.5,-205.5 437.5,-205.5 437.5,-175.5 334.5,-175.5"/>
<text text-anchor="start" x="342.5" y="-193.5" font-family="Helvetica,sans-Serif" font-size="10.00">SITL::SITL::convert</text>
<text text-anchor="middle" x="386" y="-182.5" font-family="Helvetica,sans-Serif" font-size="10.00">_body_frame</text>
</a>
</g>
</g>
<!-- Node32&#45;&gt;Node34 -->
<g id="edge42" class="edge"><title>Node32&#45;&gt;Node34</title>
<path fill="none" stroke="midnightblue" d="M269.256,-210.925C286.802,-207.829 306.368,-204.376 324.347,-201.204"/>
<polygon fill="midnightblue" stroke="midnightblue" points="325.194,-204.608 334.434,-199.423 323.978,-197.715 325.194,-204.608"/>
</g>
<!-- Node35 -->
<g id="node35" class="node"><title>Node35</title>
<g id="a_node35"><a xlink:href="classMatrix3.html#a62587bd216436f09f06b9e1330f84bc0" target="_top" xlink:title="Matrix3::from_euler">
<polygon fill="white" stroke="black" points="516,-51 516,-70 617,-70 617,-51 516,-51"/>
<text text-anchor="middle" x="566.5" y="-58" font-family="Helvetica,sans-Serif" font-size="10.00">Matrix3::from_euler</text>
</a>
</g>
</g>
<!-- Node32&#45;&gt;Node35 -->
<g id="edge43" class="edge"><title>Node32&#45;&gt;Node35</title>
<path fill="none" stroke="midnightblue" d="M261.923,-210.961C267.512,-208.29 272.736,-204.872 277,-200.5 316.47,-160.026 268.953,-113.938 313,-78.5 370.54,-32.2062 461.336,-38.9321 516.936,-49.0192"/>
<polygon fill="midnightblue" stroke="midnightblue" points="516.412,-52.4824 526.893,-50.9297 517.731,-45.6078 516.412,-52.4824"/>
</g>
<!-- Node36 -->
<g id="node36" class="node"><title>Node36</title>
<g id="a_node36"><a xlink:href="classSITL_1_1Aircraft.html#a6bf8f8d73b3cac2df90a20feff7c33ab" target="_top" xlink:title="SITL::Aircraft::update\l_mag_field_bf">
<polygon fill="white" stroke="black" points="331,-126.5 331,-156.5 441,-156.5 441,-126.5 331,-126.5"/>
<text text-anchor="start" x="339" y="-144.5" font-family="Helvetica,sans-Serif" font-size="10.00">SITL::Aircraft::update</text>
<text text-anchor="middle" x="386" y="-133.5" font-family="Helvetica,sans-Serif" font-size="10.00">_mag_field_bf</text>
</a>
</g>
</g>
<!-- Node32&#45;&gt;Node36 -->
<g id="edge44" class="edge"><title>Node32&#45;&gt;Node36</title>
<path fill="none" stroke="midnightblue" d="M253.906,-210.977C261.844,-208.212 269.926,-204.757 277,-200.5 296.121,-188.995 293.935,-177.098 313,-165.5 315.758,-163.822 318.647,-162.246 321.618,-160.767"/>
<polygon fill="midnightblue" stroke="midnightblue" points="323.075,-163.949 330.723,-156.617 320.172,-157.579 323.075,-163.949"/>
</g>
<!-- Node36&#45;&gt;Node35 -->
<g id="edge46" class="edge"><title>Node36&#45;&gt;Node35</title>
<path fill="none" stroke="midnightblue" d="M439.382,-126.375C446.199,-123.533 452.919,-120.252 459,-116.5 477.992,-104.784 475.751,-92.789 495,-81.5 500.35,-78.3625 506.207,-75.6597 512.186,-73.3395"/>
<polygon fill="midnightblue" stroke="midnightblue" points="513.367,-76.6346 521.628,-70.0011 511.033,-70.035 513.367,-76.6346"/>
</g>
<!-- Node37 -->
<g id="node37" class="node"><title>Node37</title>
<g id="a_node37"><a xlink:href="classSITL_1_1Aircraft.html#ac1bfd277815fb52895e5bc409fb69ea1" target="_top" xlink:title="SITL::Aircraft::get\l_mag_field_ef">
<polygon fill="white" stroke="black" points="519,-129.5 519,-159.5 614,-159.5 614,-129.5 519,-129.5"/>
<text text-anchor="start" x="527" y="-147.5" font-family="Helvetica,sans-Serif" font-size="10.00">SITL::Aircraft::get</text>
<text text-anchor="middle" x="566.5" y="-136.5" font-family="Helvetica,sans-Serif" font-size="10.00">_mag_field_ef</text>
</a>
</g>
</g>
<!-- Node36&#45;&gt;Node37 -->
<g id="edge45" class="edge"><title>Node36&#45;&gt;Node37</title>
<path fill="none" stroke="midnightblue" d="M441.04,-142.408C462.477,-142.769 487.142,-143.183 508.831,-143.548"/>
<polygon fill="midnightblue" stroke="midnightblue" points="508.83,-147.048 518.887,-143.717 508.947,-140.049 508.83,-147.048"/>
</g>
<!-- Node38 -->
<g id="node38" class="node"><title>Node38</title>
<g id="a_node38"><a xlink:href="classMatrix3.html#a18e2df03dec4abdf11fc9fb60ed7c226" target="_top" xlink:title="Matrix3::transposed">
<polygon fill="white" stroke="black" points="515,-91 515,-110 618,-110 618,-91 515,-91"/>
<text text-anchor="middle" x="566.5" y="-98" font-family="Helvetica,sans-Serif" font-size="10.00">Matrix3::transposed</text>
</a>
</g>
</g>
<!-- Node36&#45;&gt;Node38 -->
<g id="edge47" class="edge"><title>Node36&#45;&gt;Node38</title>
<path fill="none" stroke="midnightblue" d="M441.04,-129.087C464.28,-123.749 491.313,-117.54 514.236,-112.275"/>
<polygon fill="midnightblue" stroke="midnightblue" points="515.155,-115.655 524.117,-110.005 513.588,-108.833 515.155,-115.655"/>
</g>
<!-- Node41 -->
<g id="node41" class="node"><title>Node41</title>
<g id="a_node41"><a xlink:href="classSITL_1_1Aircraft.html#a7a3bcc97f481dd5427fc740eef5a2c4e" target="_top" xlink:title="SITL::Aircraft::get\l_wall_time_us">
<polygon fill="white" stroke="black" points="338.5,-0.5 338.5,-30.5 433.5,-30.5 433.5,-0.5 338.5,-0.5"/>
<text text-anchor="start" x="346.5" y="-18.5" font-family="Helvetica,sans-Serif" font-size="10.00">SITL::Aircraft::get</text>
<text text-anchor="middle" x="386" y="-7.5" font-family="Helvetica,sans-Serif" font-size="10.00">_wall_time_us</text>
</a>
</g>
</g>
<!-- Node40&#45;&gt;Node41 -->
<g id="edge50" class="edge"><title>Node40&#45;&gt;Node41</title>
<path fill="none" stroke="midnightblue" d="M261.856,-112.377C267.261,-109.566 272.455,-106.292 277,-102.5 300.006,-83.3034 290.105,-64.8287 313,-45.5 317.889,-41.3725 323.426,-37.7466 329.206,-34.5778"/>
<polygon fill="midnightblue" stroke="midnightblue" points="331.048,-37.5696 338.428,-29.9681 327.919,-31.3082 331.048,-37.5696"/>
</g>
</g>
</svg>
