<?xml version="1.0" encoding="UTF-8" standalone="no"?>
<!DOCTYPE svg PUBLIC "-//W3C//DTD SVG 1.1//EN"
 "http://www.w3.org/Graphics/SVG/1.1/DTD/svg11.dtd">
<!-- Generated by graphviz version 2.38.0 (20140413.2041)
 -->
<!-- Title: AP_Baro_Backend Pages: 1 -->
<svg width="585pt" height="232pt"
 viewBox="0.00 0.00 584.50 232.00" xmlns="http://www.w3.org/2000/svg" xmlns:xlink="http://www.w3.org/1999/xlink">
<g id="graph0" class="graph" transform="scale(1 1) rotate(0) translate(4 228)">
<title>AP_Baro_Backend</title>
<polygon fill="white" stroke="none" points="-4,4 -4,-228 580.5,-228 580.5,4 -4,4"/>
<!-- Node1 -->
<g id="node1" class="node"><title>Node1</title>
<polygon fill="#bfbfbf" stroke="black" points="472,-68.5 472,-87.5 571,-87.5 571,-68.5 472,-68.5"/>
<text text-anchor="middle" x="521.5" y="-75.5" font-family="Helvetica,sans-Serif" font-size="10.00">AP_Baro_Backend</text>
</g>
<!-- Node2 -->
<g id="node2" class="node"><title>Node2</title>
<g id="a_node2"><a xlink:href="classAP__Baro.html" target="_top" xlink:title="AP_Baro">
<polygon fill="white" stroke="black" points="286.5,-0.5 286.5,-19.5 342.5,-19.5 342.5,-0.5 286.5,-0.5"/>
<text text-anchor="middle" x="314.5" y="-7.5" font-family="Helvetica,sans-Serif" font-size="10.00">AP_Baro</text>
</a>
</g>
</g>
<!-- Node1&#45;&gt;Node2 -->
<g id="edge8" class="edge"><title>Node1&#45;&gt;Node2</title>
<path fill="none" stroke="#9a32cd" stroke-dasharray="5,2" d="M478.211,-65.7521C460.265,-60.8944 439.29,-54.9636 420.5,-49 391.432,-39.7742 358.429,-27.6815 337.08,-19.6418"/>
<polygon fill="#9a32cd" stroke="#9a32cd" points="477.545,-69.1972 488.11,-68.4068 479.358,-62.4361 477.545,-69.1972"/>
<text text-anchor="middle" x="437" y="-41" font-family="Helvetica,sans-Serif" font-size="10.00"> drivers</text>
</g>
<!-- Node2&#45;&gt;Node1 -->
<g id="edge1" class="edge"><title>Node2&#45;&gt;Node1</title>
<path fill="none" stroke="#9a32cd" stroke-dasharray="5,2" d="M352.991,-14.4661C382.379,-18.009 423.474,-24.9219 457.5,-38 477.418,-45.6558 498.082,-59.5082 510.361,-68.4759"/>
<polygon fill="#9a32cd" stroke="#9a32cd" points="353.058,-10.9515 342.729,-13.3081 352.273,-17.9074 353.058,-10.9515"/>
<text text-anchor="middle" x="501.5" y="-41" font-family="Helvetica,sans-Serif" font-size="10.00"> _frontend</text>
</g>
<!-- Node3 -->
<g id="node3" class="node"><title>Node3</title>
<g id="a_node3"><a xlink:href="structAP__Baro_1_1sensor.html" target="_top" xlink:title="AP_Baro::sensor">
<polygon fill="white" stroke="black" points="0,-68.5 0,-87.5 91,-87.5 91,-68.5 0,-68.5"/>
<text text-anchor="middle" x="45.5" y="-75.5" font-family="Helvetica,sans-Serif" font-size="10.00">AP_Baro::sensor</text>
</a>
</g>
</g>
<!-- Node3&#45;&gt;Node2 -->
<g id="edge2" class="edge"><title>Node3&#45;&gt;Node2</title>
<path fill="none" stroke="#9a32cd" stroke-dasharray="5,2" d="M80.1145,-65.2406C105.487,-56.8984 140.877,-45.8365 172.5,-38 211.594,-28.3119 257.484,-20.1589 286.281,-15.4242"/>
<polygon fill="#9a32cd" stroke="#9a32cd" points="78.962,-61.9353 70.572,-68.4051 81.1654,-68.5795 78.962,-61.9353"/>
<text text-anchor="middle" x="191.5" y="-41" font-family="Helvetica,sans-Serif" font-size="10.00"> sensors</text>
</g>
<!-- Node4 -->
<g id="node4" class="node"><title>Node4</title>
<g id="a_node4"><a xlink:href="classDerivativeFilter.html" target="_top" xlink:title="DerivativeFilter\&lt; float, 7 \&gt;">
<polygon fill="white" stroke="black" points="109,-68.5 109,-87.5 240,-87.5 240,-68.5 109,-68.5"/>
<text text-anchor="middle" x="174.5" y="-75.5" font-family="Helvetica,sans-Serif" font-size="10.00">DerivativeFilter&lt; float, 7 &gt;</text>
</a>
</g>
</g>
<!-- Node4&#45;&gt;Node2 -->
<g id="edge3" class="edge"><title>Node4&#45;&gt;Node2</title>
<path fill="none" stroke="#9a32cd" stroke-dasharray="5,2" d="M193.816,-62.0512C204.728,-54.1206 218.876,-44.666 232.5,-38 249.733,-29.5686 270.233,-22.8186 286.424,-18.1764"/>
<polygon fill="#9a32cd" stroke="#9a32cd" points="191.417,-59.4748 185.494,-68.2598 195.603,-65.0854 191.417,-59.4748"/>
<text text-anchor="middle" x="271.5" y="-41" font-family="Helvetica,sans-Serif" font-size="10.00"> _climb_rate_filter</text>
</g>
<!-- Node5 -->
<g id="node5" class="node"><title>Node5</title>
<g id="a_node5"><a xlink:href="classFilterWithBuffer.html" target="_top" xlink:title="FilterWithBuffer\&lt; float,\l FILTER_SIZE \&gt;">
<polygon fill="white" stroke="black" points="116.5,-136.5 116.5,-166.5 232.5,-166.5 232.5,-136.5 116.5,-136.5"/>
<text text-anchor="start" x="124.5" y="-154.5" font-family="Helvetica,sans-Serif" font-size="10.00">FilterWithBuffer&lt; float,</text>
<text text-anchor="middle" x="174.5" y="-143.5" font-family="Helvetica,sans-Serif" font-size="10.00"> FILTER_SIZE &gt;</text>
</a>
</g>
</g>
<!-- Node5&#45;&gt;Node4 -->
<g id="edge4" class="edge"><title>Node5&#45;&gt;Node4</title>
<path fill="none" stroke="midnightblue" d="M174.5,-126.357C174.5,-113.015 174.5,-97.2528 174.5,-87.6981"/>
<polygon fill="midnightblue" stroke="midnightblue" points="171,-126.374 174.5,-136.374 178,-126.374 171,-126.374"/>
</g>
<!-- Node6 -->
<g id="node6" class="node"><title>Node6</title>
<g id="a_node6"><a xlink:href="classFilter.html" target="_top" xlink:title="Filter\&lt; float \&gt;">
<polygon fill="white" stroke="black" points="137,-204.5 137,-223.5 212,-223.5 212,-204.5 137,-204.5"/>
<text text-anchor="middle" x="174.5" y="-211.5" font-family="Helvetica,sans-Serif" font-size="10.00">Filter&lt; float &gt;</text>
</a>
</g>
</g>
<!-- Node6&#45;&gt;Node5 -->
<g id="edge5" class="edge"><title>Node6&#45;&gt;Node5</title>
<path fill="none" stroke="midnightblue" d="M174.5,-194.215C174.5,-185.356 174.5,-174.958 174.5,-166.759"/>
<polygon fill="midnightblue" stroke="midnightblue" points="171,-194.332 174.5,-204.332 178,-194.332 171,-194.332"/>
</g>
<!-- Node7 -->
<g id="node7" class="node"><title>Node7</title>
<g id="a_node7"><a xlink:href="structAP__Param_1_1GroupInfo.html" target="_top" xlink:title="AP_Param::GroupInfo">
<polygon fill="white" stroke="black" points="258,-68.5 258,-87.5 371,-87.5 371,-68.5 258,-68.5"/>
<text text-anchor="middle" x="314.5" y="-75.5" font-family="Helvetica,sans-Serif" font-size="10.00">AP_Param::GroupInfo</text>
</a>
</g>
</g>
<!-- Node7&#45;&gt;Node2 -->
<g id="edge6" class="edge"><title>Node7&#45;&gt;Node2</title>
<path fill="none" stroke="#9a32cd" stroke-dasharray="5,2" d="M314.5,-58.0413C314.5,-45.4724 314.5,-29.5631 314.5,-19.8411"/>
<polygon fill="#9a32cd" stroke="#9a32cd" points="311,-58.3716 314.5,-68.3717 318,-58.3717 311,-58.3716"/>
<text text-anchor="middle" x="333.5" y="-41" font-family="Helvetica,sans-Serif" font-size="10.00"> var_info</text>
</g>
<!-- Node7&#45;&gt;Node7 -->
<g id="edge7" class="edge"><title>Node7&#45;&gt;Node7</title>
<path fill="none" stroke="#9a32cd" stroke-dasharray="5,2" d="M380.988,-82.7523C385.952,-81.6899 389,-80.1058 389,-78 389,-74.7129 381.572,-72.697 371.026,-71.9522"/>
<polygon fill="#9a32cd" stroke="#9a32cd" points="380.491,-79.2874 371.026,-84.0478 381.393,-86.229 380.491,-79.2874"/>
<text text-anchor="middle" x="421.5" y="-81" font-family="Helvetica,sans-Serif" font-size="10.00"> group_info_ptr</text>
<text text-anchor="middle" x="421.5" y="-70" font-family="Helvetica,sans-Serif" font-size="10.00">group_info</text>
</g>
<!-- Node8 -->
<g id="node8" class="node"><title>Node8</title>
<g id="a_node8"><a xlink:href="classAP__HAL_1_1Semaphore.html" target="_top" xlink:title="AP_HAL::Semaphore">
<polygon fill="white" stroke="black" points="466.5,-142 466.5,-161 576.5,-161 576.5,-142 466.5,-142"/>
<text text-anchor="middle" x="521.5" y="-149" font-family="Helvetica,sans-Serif" font-size="10.00">AP_HAL::Semaphore</text>
</a>
</g>
</g>
<!-- Node8&#45;&gt;Node1 -->
<g id="edge9" class="edge"><title>Node8&#45;&gt;Node1</title>
<path fill="none" stroke="#9a32cd" stroke-dasharray="5,2" d="M521.5,-131.594C521.5,-117.433 521.5,-98.7019 521.5,-87.839"/>
<polygon fill="#9a32cd" stroke="#9a32cd" points="518,-131.733 521.5,-141.733 525,-131.733 518,-131.733"/>
<text text-anchor="middle" x="535.5" y="-110" font-family="Helvetica,sans-Serif" font-size="10.00"> _sem</text>
</g>
</g>
</svg>
