<?xml version="1.0" encoding="UTF-8" standalone="no"?>
<!DOCTYPE svg PUBLIC "-//W3C//DTD SVG 1.1//EN"
 "http://www.w3.org/Graphics/SVG/1.1/DTD/svg11.dtd">
<!-- Generated by graphviz version 2.38.0 (20140413.2041)
 -->
<!-- Title: Linux::RCInput_PRU::init Pages: 1 -->
<svg width="622pt" height="274pt"
 viewBox="0.00 0.00 622.00 274.00" xmlns="http://www.w3.org/2000/svg" xmlns:xlink="http://www.w3.org/1999/xlink">
<g id="graph0" class="graph" transform="scale(1 1) rotate(0) translate(4 270)">
<title>Linux::RCInput_PRU::init</title>
<polygon fill="white" stroke="none" points="-4,4 -4,-270 618,-270 618,4 -4,4"/>
<!-- Node1 -->
<g id="node1" class="node"><title>Node1</title>
<polygon fill="#bfbfbf" stroke="black" points="0,-60.5 0,-90.5 110,-90.5 110,-60.5 0,-60.5"/>
<text text-anchor="start" x="8" y="-78.5" font-family="Helvetica,sans-Serif" font-size="10.00">Linux::RCInput_PRU</text>
<text text-anchor="middle" x="55" y="-67.5" font-family="Helvetica,sans-Serif" font-size="10.00">::init</text>
</g>
<!-- Node2 -->
<g id="node2" class="node"><title>Node2</title>
<g id="a_node2"><a xlink:href="namespaceAP__HAL.html#a71832f03d849a0c088f04fc98d3c8143" target="_top" xlink:title="AP_HAL::panic">
<polygon fill="white" stroke="black" points="168,-104 168,-123 252,-123 252,-104 168,-104"/>
<text text-anchor="middle" x="210" y="-111" font-family="Helvetica,sans-Serif" font-size="10.00">AP_HAL::panic</text>
</a>
</g>
</g>
<!-- Node1&#45;&gt;Node2 -->
<g id="edge1" class="edge"><title>Node1&#45;&gt;Node2</title>
<path fill="none" stroke="midnightblue" d="M110.373,-89.0044C126.875,-93.1029 144.88,-97.5747 160.936,-101.563"/>
<polygon fill="midnightblue" stroke="midnightblue" points="160.102,-104.962 170.651,-103.975 161.789,-98.1681 160.102,-104.962"/>
</g>
<!-- Node11 -->
<g id="node11" class="node"><title>Node11</title>
<g id="a_node11"><a xlink:href="classAP__HAL_1_1GPIO.html#a3dfc60214bd1aa4936d51ca72c045b95" target="_top" xlink:title="AP_HAL::GPIO::pinMode">
<polygon fill="white" stroke="black" points="146,-66 146,-85 274,-85 274,-66 146,-66"/>
<text text-anchor="middle" x="210" y="-73" font-family="Helvetica,sans-Serif" font-size="10.00">AP_HAL::GPIO::pinMode</text>
</a>
</g>
</g>
<!-- Node1&#45;&gt;Node11 -->
<g id="edge10" class="edge"><title>Node1&#45;&gt;Node11</title>
<path fill="none" stroke="midnightblue" d="M110.373,-75.5C118.645,-75.5 127.295,-75.5 135.889,-75.5"/>
<polygon fill="midnightblue" stroke="midnightblue" points="135.924,-79.0001 145.924,-75.5 135.924,-72.0001 135.924,-79.0001"/>
</g>
<!-- Node12 -->
<g id="node12" class="node"><title>Node12</title>
<g id="a_node12"><a xlink:href="classAP__HAL_1_1GPIO.html#a2b0664bdab1876e3b0bbcd9064eec88e" target="_top" xlink:title="AP_HAL::GPIO::write">
<polygon fill="white" stroke="black" points="153.5,-28 153.5,-47 266.5,-47 266.5,-28 153.5,-28"/>
<text text-anchor="middle" x="210" y="-35" font-family="Helvetica,sans-Serif" font-size="10.00">AP_HAL::GPIO::write</text>
</a>
</g>
</g>
<!-- Node1&#45;&gt;Node12 -->
<g id="edge11" class="edge"><title>Node1&#45;&gt;Node12</title>
<path fill="none" stroke="midnightblue" d="M110.373,-61.9956C126.875,-57.8971 144.88,-53.4253 160.936,-49.4374"/>
<polygon fill="midnightblue" stroke="midnightblue" points="161.789,-52.8319 170.651,-47.0246 160.102,-46.0383 161.789,-52.8319"/>
</g>
<!-- Node3 -->
<g id="node3" class="node"><title>Node3</title>
<g id="a_node3"><a xlink:href="classAP__HAL_1_1RCInput.html#a2bea13d38f2b9ae8bf5193a3a69f0a31" target="_top" xlink:title="AP_HAL::RCInput::teardown">
<polygon fill="white" stroke="black" points="310,-126 310,-145 453,-145 453,-126 310,-126"/>
<text text-anchor="middle" x="381.5" y="-133" font-family="Helvetica,sans-Serif" font-size="10.00">AP_HAL::RCInput::teardown</text>
</a>
</g>
</g>
<!-- Node2&#45;&gt;Node3 -->
<g id="edge2" class="edge"><title>Node2&#45;&gt;Node3</title>
<path fill="none" stroke="midnightblue" d="M252.031,-118.826C266.392,-120.69 283.06,-122.853 299.536,-124.991"/>
<polygon fill="midnightblue" stroke="midnightblue" points="299.381,-128.501 309.748,-126.317 300.282,-121.559 299.381,-128.501"/>
</g>
<!-- Node10 -->
<g id="node10" class="node"><title>Node10</title>
<g id="a_node10"><a xlink:href="classAP__HAL_1_1Scheduler.html#a78c4f1b1f192ac1c99544b6cc8f099b0" target="_top" xlink:title="AP_HAL::Scheduler::\ldelay_microseconds">
<polygon fill="white" stroke="black" points="326.5,-76.5 326.5,-106.5 436.5,-106.5 436.5,-76.5 326.5,-76.5"/>
<text text-anchor="start" x="334.5" y="-94.5" font-family="Helvetica,sans-Serif" font-size="10.00">AP_HAL::Scheduler::</text>
<text text-anchor="middle" x="381.5" y="-83.5" font-family="Helvetica,sans-Serif" font-size="10.00">delay_microseconds</text>
</a>
</g>
</g>
<!-- Node2&#45;&gt;Node10 -->
<g id="edge9" class="edge"><title>Node2&#45;&gt;Node10</title>
<path fill="none" stroke="midnightblue" d="M252.031,-108.174C271.316,-105.671 294.759,-102.629 316.314,-99.831"/>
<polygon fill="midnightblue" stroke="midnightblue" points="316.922,-103.281 326.389,-98.5233 316.021,-96.3397 316.922,-103.281"/>
</g>
<!-- Node4 -->
<g id="node4" class="node"><title>Node4</title>
<g id="a_node4"><a xlink:href="classAP__HAL_1_1RCInput.html#aee1fade33080edef83dd7db0fad0f7da" target="_top" xlink:title="AP_HAL::RCInput::new\l_input">
<polygon fill="white" stroke="black" points="490.5,-235.5 490.5,-265.5 612.5,-265.5 612.5,-235.5 490.5,-235.5"/>
<text text-anchor="start" x="498.5" y="-253.5" font-family="Helvetica,sans-Serif" font-size="10.00">AP_HAL::RCInput::new</text>
<text text-anchor="middle" x="551.5" y="-242.5" font-family="Helvetica,sans-Serif" font-size="10.00">_input</text>
</a>
</g>
</g>
<!-- Node3&#45;&gt;Node4 -->
<g id="edge3" class="edge"><title>Node3&#45;&gt;Node4</title>
<path fill="none" stroke="midnightblue" d="M391.629,-145.221C409.064,-163.317 448.94,-202.51 489,-226.5 491.667,-228.097 494.46,-229.625 497.321,-231.081"/>
<polygon fill="midnightblue" stroke="midnightblue" points="496.087,-234.37 506.624,-235.481 499.08,-228.042 496.087,-234.37"/>
</g>
<!-- Node5 -->
<g id="node5" class="node"><title>Node5</title>
<g id="a_node5"><a xlink:href="classAP__HAL_1_1RCInput.html#ae55f959c6115c1f41783af3a2b6c4fcd" target="_top" xlink:title="AP_HAL::RCInput::num\l_channels">
<polygon fill="white" stroke="black" points="490.5,-186.5 490.5,-216.5 612.5,-216.5 612.5,-186.5 490.5,-186.5"/>
<text text-anchor="start" x="498.5" y="-204.5" font-family="Helvetica,sans-Serif" font-size="10.00">AP_HAL::RCInput::num</text>
<text text-anchor="middle" x="551.5" y="-193.5" font-family="Helvetica,sans-Serif" font-size="10.00">_channels</text>
</a>
</g>
</g>
<!-- Node3&#45;&gt;Node5 -->
<g id="edge4" class="edge"><title>Node3&#45;&gt;Node5</title>
<path fill="none" stroke="midnightblue" d="M406.929,-145.097C431.918,-154.914 471.399,-170.425 502.64,-182.698"/>
<polygon fill="midnightblue" stroke="midnightblue" points="501.458,-185.994 512.045,-186.393 504.018,-179.479 501.458,-185.994"/>
</g>
<!-- Node6 -->
<g id="node6" class="node"><title>Node6</title>
<g id="a_node6"><a xlink:href="classAP__HAL_1_1RCInput.html#a078fd7e6d2e6a899009ec674a8e03498" target="_top" xlink:title="AP_HAL::RCInput::read">
<polygon fill="white" stroke="black" points="490.5,-148 490.5,-167 612.5,-167 612.5,-148 490.5,-148"/>
<text text-anchor="middle" x="551.5" y="-155" font-family="Helvetica,sans-Serif" font-size="10.00">AP_HAL::RCInput::read</text>
</a>
</g>
</g>
<!-- Node3&#45;&gt;Node6 -->
<g id="edge5" class="edge"><title>Node3&#45;&gt;Node6</title>
<path fill="none" stroke="midnightblue" d="M453.26,-144.766C462.251,-145.944 471.45,-147.148 480.431,-148.324"/>
<polygon fill="midnightblue" stroke="midnightblue" points="480.084,-151.809 490.454,-149.637 480.993,-144.868 480.084,-151.809"/>
</g>
<!-- Node7 -->
<g id="node7" class="node"><title>Node7</title>
<g id="a_node7"><a xlink:href="classAP__HAL_1_1RCInput.html#a0989c5ca271631fe655c047d4a022a3d" target="_top" xlink:title="AP_HAL::RCInput::set\l_overrides">
<polygon fill="white" stroke="black" points="493,-98.5 493,-128.5 610,-128.5 610,-98.5 493,-98.5"/>
<text text-anchor="start" x="501" y="-116.5" font-family="Helvetica,sans-Serif" font-size="10.00">AP_HAL::RCInput::set</text>
<text text-anchor="middle" x="551.5" y="-105.5" font-family="Helvetica,sans-Serif" font-size="10.00">_overrides</text>
</a>
</g>
</g>
<!-- Node3&#45;&gt;Node7 -->
<g id="edge6" class="edge"><title>Node3&#45;&gt;Node7</title>
<path fill="none" stroke="midnightblue" d="M453.26,-126.234C463.044,-124.953 473.073,-123.639 482.799,-122.366"/>
<polygon fill="midnightblue" stroke="midnightblue" points="483.342,-125.825 492.802,-121.056 482.433,-118.884 483.342,-125.825"/>
</g>
<!-- Node8 -->
<g id="node8" class="node"><title>Node8</title>
<g id="a_node8"><a xlink:href="classAP__HAL_1_1RCInput.html#abfd037ca0989a0422a60f418d34eb7d5" target="_top" xlink:title="AP_HAL::RCInput::set\l_override">
<polygon fill="white" stroke="black" points="493,-49.5 493,-79.5 610,-79.5 610,-49.5 493,-49.5"/>
<text text-anchor="start" x="501" y="-67.5" font-family="Helvetica,sans-Serif" font-size="10.00">AP_HAL::RCInput::set</text>
<text text-anchor="middle" x="551.5" y="-56.5" font-family="Helvetica,sans-Serif" font-size="10.00">_override</text>
</a>
</g>
</g>
<!-- Node3&#45;&gt;Node8 -->
<g id="edge7" class="edge"><title>Node3&#45;&gt;Node8</title>
<path fill="none" stroke="midnightblue" d="M428.183,-125.918C436.644,-123.386 445.251,-120.276 453,-116.5 470.979,-107.74 471.592,-99.3472 489,-89.5 492.456,-87.5449 496.096,-85.6632 499.808,-83.8706"/>
<polygon fill="midnightblue" stroke="midnightblue" points="501.482,-86.9532 509.117,-79.6071 498.568,-80.5889 501.482,-86.9532"/>
</g>
<!-- Node9 -->
<g id="node9" class="node"><title>Node9</title>
<g id="a_node9"><a xlink:href="classAP__HAL_1_1RCInput.html#ab3671bbe43fdb97c53071d7832ac256e" target="_top" xlink:title="AP_HAL::RCInput::clear\l_overrides">
<polygon fill="white" stroke="black" points="489,-0.5 489,-30.5 614,-30.5 614,-0.5 489,-0.5"/>
<text text-anchor="start" x="497" y="-18.5" font-family="Helvetica,sans-Serif" font-size="10.00">AP_HAL::RCInput::clear</text>
<text text-anchor="middle" x="551.5" y="-7.5" font-family="Helvetica,sans-Serif" font-size="10.00">_overrides</text>
</a>
</g>
</g>
<!-- Node3&#45;&gt;Node9 -->
<g id="edge8" class="edge"><title>Node3&#45;&gt;Node9</title>
<path fill="none" stroke="midnightblue" d="M437.245,-125.978C442.933,-123.506 448.33,-120.4 453,-116.5 481.686,-92.5412 461.838,-66.1746 489,-40.5 490.633,-38.9561 492.375,-37.5024 494.198,-36.134"/>
<polygon fill="midnightblue" stroke="midnightblue" points="496.148,-39.0411 502.638,-30.6665 492.342,-33.1661 496.148,-39.0411"/>
</g>
</g>
</svg>
