<?xml version="1.0" encoding="UTF-8" standalone="no"?>
<!DOCTYPE svg PUBLIC "-//W3C//DTD SVG 1.1//EN"
 "http://www.w3.org/Graphics/SVG/1.1/DTD/svg11.dtd">
<!-- Generated by graphviz version 2.38.0 (20140413.2041)
 -->
<!-- Title: NavEKF2_core::readRangeFinder Pages: 1 -->
<svg width="1407pt" height="116pt"
 viewBox="0.00 0.00 1407.00 115.50" xmlns="http://www.w3.org/2000/svg" xmlns:xlink="http://www.w3.org/1999/xlink">
<g id="graph0" class="graph" transform="scale(1 1) rotate(0) translate(4 111.5)">
<title>NavEKF2_core::readRangeFinder</title>
<polygon fill="white" stroke="none" points="-4,4 -4,-111.5 1403,-111.5 1403,4 -4,4"/>
<!-- Node1 -->
<g id="node1" class="node"><title>Node1</title>
<polygon fill="#bfbfbf" stroke="black" points="0,-19.5 0,-38.5 164,-38.5 164,-19.5 0,-19.5"/>
<text text-anchor="middle" x="82" y="-26.5" font-family="Helvetica,sans-Serif" font-size="10.00">NavEKF2_core::readRangeFinder</text>
</g>
<!-- Node2 -->
<g id="node2" class="node"><title>Node2</title>
<g id="a_node2"><a xlink:href="classNavEKF2__core.html#a862c5f00d982bd111047bd3a90d537fd" target="_top" xlink:title="NavEKF2_core::selectHeight\lForFusion">
<polygon fill="white" stroke="black" points="200,-14 200,-44 344,-44 344,-14 200,-14"/>
<text text-anchor="start" x="208" y="-32" font-family="Helvetica,sans-Serif" font-size="10.00">NavEKF2_core::selectHeight</text>
<text text-anchor="middle" x="272" y="-21" font-family="Helvetica,sans-Serif" font-size="10.00">ForFusion</text>
</a>
</g>
</g>
<!-- Node1&#45;&gt;Node2 -->
<g id="edge1" class="edge"><title>Node1&#45;&gt;Node2</title>
<path fill="none" stroke="midnightblue" d="M174.205,-29C182.846,-29 191.518,-29 199.929,-29"/>
<polygon fill="midnightblue" stroke="midnightblue" points="174.093,-25.5001 164.093,-29 174.093,-32.5001 174.093,-25.5001"/>
</g>
<!-- Node3 -->
<g id="node3" class="node"><title>Node3</title>
<g id="a_node3"><a xlink:href="classNavEKF2__core.html#aff31047fa71772bca7ce574617ede0f6" target="_top" xlink:title="NavEKF2_core::SelectVelPos\lFusion">
<polygon fill="white" stroke="black" points="380,-14 380,-44 529,-44 529,-14 380,-14"/>
<text text-anchor="start" x="388" y="-32" font-family="Helvetica,sans-Serif" font-size="10.00">NavEKF2_core::SelectVelPos</text>
<text text-anchor="middle" x="454.5" y="-21" font-family="Helvetica,sans-Serif" font-size="10.00">Fusion</text>
</a>
</g>
</g>
<!-- Node2&#45;&gt;Node3 -->
<g id="edge2" class="edge"><title>Node2&#45;&gt;Node3</title>
<path fill="none" stroke="midnightblue" d="M354.353,-29C362.836,-29 371.424,-29 379.815,-29"/>
<polygon fill="midnightblue" stroke="midnightblue" points="354.079,-25.5001 344.079,-29 354.079,-32.5001 354.079,-25.5001"/>
</g>
<!-- Node4 -->
<g id="node4" class="node"><title>Node4</title>
<g id="a_node4"><a xlink:href="classNavEKF2__core.html#a5f5c815cbd5ebba30d731f89f87726c3" target="_top" xlink:title="NavEKF2_core::UpdateFilter">
<polygon fill="white" stroke="black" points="565,-19.5 565,-38.5 708,-38.5 708,-19.5 565,-19.5"/>
<text text-anchor="middle" x="636.5" y="-26.5" font-family="Helvetica,sans-Serif" font-size="10.00">NavEKF2_core::UpdateFilter</text>
</a>
</g>
</g>
<!-- Node3&#45;&gt;Node4 -->
<g id="edge3" class="edge"><title>Node3&#45;&gt;Node4</title>
<path fill="none" stroke="midnightblue" d="M539.495,-29C547.955,-29 556.485,-29 564.786,-29"/>
<polygon fill="midnightblue" stroke="midnightblue" points="539.232,-25.5001 529.232,-29 539.232,-32.5001 539.232,-25.5001"/>
</g>
<!-- Node5 -->
<g id="node5" class="node"><title>Node5</title>
<g id="a_node5"><a xlink:href="classNavEKF2.html#a72815b1bbd9d7ceb0ff7ae52d14516df" target="_top" xlink:title="NavEKF2::UpdateFilter">
<polygon fill="white" stroke="black" points="744,-19.5 744,-38.5 863,-38.5 863,-19.5 744,-19.5"/>
<text text-anchor="middle" x="803.5" y="-26.5" font-family="Helvetica,sans-Serif" font-size="10.00">NavEKF2::UpdateFilter</text>
</a>
</g>
</g>
<!-- Node4&#45;&gt;Node5 -->
<g id="edge4" class="edge"><title>Node4&#45;&gt;Node5</title>
<path fill="none" stroke="midnightblue" d="M718.436,-29C726.985,-29 735.556,-29 743.783,-29"/>
<polygon fill="midnightblue" stroke="midnightblue" points="718.432,-25.5001 708.432,-29 718.432,-32.5001 718.432,-25.5001"/>
</g>
<!-- Node6 -->
<g id="node6" class="node"><title>Node6</title>
<g id="a_node6"><a xlink:href="classNavEKF2.html#ab18af2714c15fcf190493c01e2a28c73" target="_top" xlink:title="NavEKF2::activeCores">
<polygon fill="white" stroke="black" points="926,-38.5 926,-57.5 1044,-57.5 1044,-38.5 926,-38.5"/>
<text text-anchor="middle" x="985" y="-45.5" font-family="Helvetica,sans-Serif" font-size="10.00">NavEKF2::activeCores</text>
</a>
</g>
</g>
<!-- Node5&#45;&gt;Node6 -->
<g id="edge5" class="edge"><title>Node5&#45;&gt;Node6</title>
<path fill="none" stroke="midnightblue" d="M873.307,-36.2832C890.597,-38.1134 908.985,-40.0597 925.706,-41.8296"/>
<polygon fill="midnightblue" stroke="midnightblue" points="873.588,-32.7935 863.275,-35.2213 872.851,-39.7546 873.588,-32.7935"/>
</g>
<!-- Node10 -->
<g id="node10" class="node"><title>Node10</title>
<g id="a_node10"><a xlink:href="classAP__AHRS__NavEKF.html#a0187c6d3d4348b002a204c05d3e94b07" target="_top" xlink:title="AP_AHRS_NavEKF::update_EKF2">
<polygon fill="white" stroke="black" points="899,-0.5 899,-19.5 1071,-19.5 1071,-0.5 899,-0.5"/>
<text text-anchor="middle" x="985" y="-7.5" font-family="Helvetica,sans-Serif" font-size="10.00">AP_AHRS_NavEKF::update_EKF2</text>
</a>
</g>
</g>
<!-- Node5&#45;&gt;Node10 -->
<g id="edge9" class="edge"><title>Node5&#45;&gt;Node10</title>
<path fill="none" stroke="midnightblue" d="M873.285,-21.7191C881.612,-20.8377 890.194,-19.9293 898.722,-19.0266"/>
<polygon fill="midnightblue" stroke="midnightblue" points="872.851,-18.2454 863.275,-22.7787 873.588,-25.2065 872.851,-18.2454"/>
</g>
<!-- Node7 -->
<g id="node7" class="node"><title>Node7</title>
<g id="a_node7"><a xlink:href="classDataFlash__Class.html#a46e58faaa53c44516433f6bb7bde4163" target="_top" xlink:title="DataFlash_Class::Log\l_Write_POS">
<polygon fill="white" stroke="black" points="1122,-77 1122,-107 1236,-107 1236,-77 1122,-77"/>
<text text-anchor="start" x="1130" y="-95" font-family="Helvetica,sans-Serif" font-size="10.00">DataFlash_Class::Log</text>
<text text-anchor="middle" x="1179" y="-84" font-family="Helvetica,sans-Serif" font-size="10.00">_Write_POS</text>
</a>
</g>
</g>
<!-- Node6&#45;&gt;Node7 -->
<g id="edge6" class="edge"><title>Node6&#45;&gt;Node7</title>
<path fill="none" stroke="midnightblue" d="M1037.7,-59.8473C1063.7,-65.8059 1095.25,-73.0373 1121.85,-79.132"/>
<polygon fill="midnightblue" stroke="midnightblue" points="1038.19,-56.3696 1027.66,-57.5473 1036.63,-63.1927 1038.19,-56.3696"/>
</g>
<!-- Node9 -->
<g id="node9" class="node"><title>Node9</title>
<g id="a_node9"><a xlink:href="classGCS__MAVLINK.html#a558ba3447048b78cb9dde460053e2741" target="_top" xlink:title="GCS_MAVLINK::send_ahrs2">
<polygon fill="white" stroke="black" points="1107,-38.5 1107,-57.5 1251,-57.5 1251,-38.5 1107,-38.5"/>
<text text-anchor="middle" x="1179" y="-45.5" font-family="Helvetica,sans-Serif" font-size="10.00">GCS_MAVLINK::send_ahrs2</text>
</a>
</g>
</g>
<!-- Node6&#45;&gt;Node9 -->
<g id="edge8" class="edge"><title>Node6&#45;&gt;Node9</title>
<path fill="none" stroke="midnightblue" d="M1054.52,-48C1071.5,-48 1089.74,-48 1106.85,-48"/>
<polygon fill="midnightblue" stroke="midnightblue" points="1054.13,-44.5001 1044.13,-48 1054.13,-51.5001 1054.13,-44.5001"/>
</g>
<!-- Node8 -->
<g id="node8" class="node"><title>Node8</title>
<g id="a_node8"><a xlink:href="classDataFlash__Class.html#a7868f0e3dcef65ea5b5fcae618f4c5d4" target="_top" xlink:title="DataFlash_Class::get\l_structures">
<polygon fill="white" stroke="black" points="1287,-77 1287,-107 1399,-107 1399,-77 1287,-77"/>
<text text-anchor="start" x="1295" y="-95" font-family="Helvetica,sans-Serif" font-size="10.00">DataFlash_Class::get</text>
<text text-anchor="middle" x="1343" y="-84" font-family="Helvetica,sans-Serif" font-size="10.00">_structures</text>
</a>
</g>
</g>
<!-- Node7&#45;&gt;Node8 -->
<g id="edge7" class="edge"><title>Node7&#45;&gt;Node8</title>
<path fill="none" stroke="midnightblue" d="M1246.39,-92C1259.89,-92 1273.94,-92 1286.99,-92"/>
<polygon fill="midnightblue" stroke="midnightblue" points="1246.21,-88.5001 1236.21,-92 1246.21,-95.5001 1246.21,-88.5001"/>
</g>
<!-- Node11 -->
<g id="node11" class="node"><title>Node11</title>
<g id="a_node11"><a xlink:href="classAP__AHRS__NavEKF.html#ac8111979c5dc37a55b2c50818534ea52" target="_top" xlink:title="AP_AHRS_NavEKF::update">
<polygon fill="white" stroke="black" points="1108,-0.5 1108,-19.5 1250,-19.5 1250,-0.5 1108,-0.5"/>
<text text-anchor="middle" x="1179" y="-7.5" font-family="Helvetica,sans-Serif" font-size="10.00">AP_AHRS_NavEKF::update</text>
</a>
</g>
</g>
<!-- Node10&#45;&gt;Node11 -->
<g id="edge10" class="edge"><title>Node10&#45;&gt;Node11</title>
<path fill="none" stroke="midnightblue" d="M1081.21,-10C1090.23,-10 1099.25,-10 1107.97,-10"/>
<polygon fill="midnightblue" stroke="midnightblue" points="1081.05,-6.5001 1071.05,-10 1081.05,-13.5001 1081.05,-6.5001"/>
</g>
<!-- Node12 -->
<g id="node12" class="node"><title>Node12</title>
<g id="a_node12"><a xlink:href="AHRS__Test_8cpp.html#a0b33edabd7f1c4e4a0bf32c67269be2f" target="_top" xlink:title="loop">
<polygon fill="white" stroke="black" points="1325.5,-0.5 1325.5,-19.5 1360.5,-19.5 1360.5,-0.5 1325.5,-0.5"/>
<text text-anchor="middle" x="1343" y="-7.5" font-family="Helvetica,sans-Serif" font-size="10.00">loop</text>
</a>
</g>
</g>
<!-- Node11&#45;&gt;Node12 -->
<g id="edge11" class="edge"><title>Node11&#45;&gt;Node12</title>
<path fill="none" stroke="midnightblue" d="M1260.29,-10C1284.99,-10 1309.78,-10 1325.47,-10"/>
<polygon fill="midnightblue" stroke="midnightblue" points="1260.11,-6.5001 1250.11,-10 1260.11,-13.5001 1260.11,-6.5001"/>
</g>
</g>
</svg>
