<?xml version="1.0" encoding="UTF-8" standalone="no"?>
<!DOCTYPE svg PUBLIC "-//W3C//DTD SVG 1.1//EN"
 "http://www.w3.org/Graphics/SVG/1.1/DTD/svg11.dtd">
<!-- Generated by graphviz version 2.38.0 (20140413.2041)
 -->
<!-- Title: Linux::ToneAlarm::init Pages: 1 -->
<svg width="670pt" height="180pt"
 viewBox="0.00 0.00 670.00 180.00" xmlns="http://www.w3.org/2000/svg" xmlns:xlink="http://www.w3.org/1999/xlink">
<g id="graph0" class="graph" transform="scale(1 1) rotate(0) translate(4 176)">
<title>Linux::ToneAlarm::init</title>
<polygon fill="white" stroke="none" points="-4,4 -4,-176 666,-176 666,4 -4,4"/>
<!-- Node1 -->
<g id="node1" class="node"><title>Node1</title>
<polygon fill="#bfbfbf" stroke="black" points="0,-76.5 0,-95.5 112,-95.5 112,-76.5 0,-76.5"/>
<text text-anchor="middle" x="56" y="-83.5" font-family="Helvetica,sans-Serif" font-size="10.00">Linux::ToneAlarm::init</text>
</g>
<!-- Node2 -->
<g id="node2" class="node"><title>Node2</title>
<g id="a_node2"><a xlink:href="classAP__HAL_1_1UARTDriver.html#a6ceedc792594e59fc7d80b39a435f027" target="_top" xlink:title="AP_HAL::UARTDriver\l::printf">
<polygon fill="white" stroke="black" points="148,-71 148,-101 263,-101 263,-71 148,-71"/>
<text text-anchor="start" x="156" y="-89" font-family="Helvetica,sans-Serif" font-size="10.00">AP_HAL::UARTDriver</text>
<text text-anchor="middle" x="205.5" y="-78" font-family="Helvetica,sans-Serif" font-size="10.00">::printf</text>
</a>
</g>
</g>
<!-- Node1&#45;&gt;Node2 -->
<g id="edge1" class="edge"><title>Node1&#45;&gt;Node2</title>
<path fill="none" stroke="midnightblue" d="M112.343,-86C120.596,-86 129.177,-86 137.636,-86"/>
<polygon fill="midnightblue" stroke="midnightblue" points="137.863,-89.5001 147.863,-86 137.863,-82.5001 137.863,-89.5001"/>
</g>
<!-- Node3 -->
<g id="node3" class="node"><title>Node3</title>
<g id="a_node3"><a xlink:href="classAP__HAL_1_1UARTDriver.html#aa8abfb6d6641299472c29ac1edde559f" target="_top" xlink:title="AP_HAL::UARTDriver\l::vprintf">
<polygon fill="white" stroke="black" points="299,-71 299,-101 414,-101 414,-71 299,-71"/>
<text text-anchor="start" x="307" y="-89" font-family="Helvetica,sans-Serif" font-size="10.00">AP_HAL::UARTDriver</text>
<text text-anchor="middle" x="356.5" y="-78" font-family="Helvetica,sans-Serif" font-size="10.00">::vprintf</text>
</a>
</g>
</g>
<!-- Node2&#45;&gt;Node3 -->
<g id="edge2" class="edge"><title>Node2&#45;&gt;Node3</title>
<path fill="none" stroke="midnightblue" d="M263.256,-86C271.558,-86 280.173,-86 288.654,-86"/>
<polygon fill="midnightblue" stroke="midnightblue" points="288.902,-89.5001 298.902,-86 288.902,-82.5001 288.902,-89.5001"/>
</g>
<!-- Node4 -->
<g id="node4" class="node"><title>Node4</title>
<g id="a_node4"><a xlink:href="print__vprintf_8cpp.html#a1534eaeab54696df96975b56d9f49212" target="_top" xlink:title="print_vprintf">
<polygon fill="white" stroke="black" points="450,-76.5 450,-95.5 518,-95.5 518,-76.5 450,-76.5"/>
<text text-anchor="middle" x="484" y="-83.5" font-family="Helvetica,sans-Serif" font-size="10.00">print_vprintf</text>
</a>
</g>
</g>
<!-- Node3&#45;&gt;Node4 -->
<g id="edge3" class="edge"><title>Node3&#45;&gt;Node4</title>
<path fill="none" stroke="midnightblue" d="M414.009,-86C422.609,-86 431.367,-86 439.628,-86"/>
<polygon fill="midnightblue" stroke="midnightblue" points="439.777,-89.5001 449.777,-86 439.777,-82.5001 439.777,-89.5001"/>
</g>
<!-- Node5 -->
<g id="node5" class="node"><title>Node5</title>
<g id="a_node5"><a xlink:href="classAP__HAL_1_1Print.html#acc65391952a43334f8f5c9bef341f501" target="_top" xlink:title="AP_HAL::Print::write">
<polygon fill="white" stroke="black" points="554,-152.5 554,-171.5 662,-171.5 662,-152.5 554,-152.5"/>
<text text-anchor="middle" x="608" y="-159.5" font-family="Helvetica,sans-Serif" font-size="10.00">AP_HAL::Print::write</text>
</a>
</g>
</g>
<!-- Node4&#45;&gt;Node5 -->
<g id="edge4" class="edge"><title>Node4&#45;&gt;Node5</title>
<path fill="none" stroke="midnightblue" d="M494.47,-95.6825C507.07,-108.102 530.502,-129.629 554,-143 557.632,-145.067 561.529,-146.973 565.501,-148.715"/>
<polygon fill="midnightblue" stroke="midnightblue" points="564.233,-151.977 574.816,-152.479 566.856,-145.487 564.233,-151.977"/>
</g>
<!-- Node6 -->
<g id="node6" class="node"><title>Node6</title>
<g id="a_node6"><a xlink:href="ftoa__engine_8cpp.html#a1c28234da8f20b43c85890d4bb452947" target="_top" xlink:title="ftoa_engine">
<polygon fill="white" stroke="black" points="574.5,-114.5 574.5,-133.5 641.5,-133.5 641.5,-114.5 574.5,-114.5"/>
<text text-anchor="middle" x="608" y="-121.5" font-family="Helvetica,sans-Serif" font-size="10.00">ftoa_engine</text>
</a>
</g>
</g>
<!-- Node4&#45;&gt;Node6 -->
<g id="edge5" class="edge"><title>Node4&#45;&gt;Node6</title>
<path fill="none" stroke="midnightblue" d="M515.786,-95.589C531.101,-100.359 549.817,-106.189 566.3,-111.323"/>
<polygon fill="midnightblue" stroke="midnightblue" points="565.636,-114.782 576.224,-114.414 567.717,-108.099 565.636,-114.782"/>
</g>
<!-- Node7 -->
<g id="node7" class="node"><title>Node7</title>
<g id="a_node7"><a xlink:href="replace_8cpp.html#a880bcc7b85a09e6254691bebd5344b51" target="_top" xlink:title="strnlen">
<polygon fill="white" stroke="black" points="585,-76.5 585,-95.5 631,-95.5 631,-76.5 585,-76.5"/>
<text text-anchor="middle" x="608" y="-83.5" font-family="Helvetica,sans-Serif" font-size="10.00">strnlen</text>
</a>
</g>
</g>
<!-- Node4&#45;&gt;Node7 -->
<g id="edge6" class="edge"><title>Node4&#45;&gt;Node7</title>
<path fill="none" stroke="midnightblue" d="M518.015,-86C535.547,-86 557.016,-86 574.474,-86"/>
<polygon fill="midnightblue" stroke="midnightblue" points="574.754,-89.5001 584.754,-86 574.754,-82.5001 574.754,-89.5001"/>
</g>
<!-- Node8 -->
<g id="node8" class="node"><title>Node8</title>
<g id="a_node8"><a xlink:href="utoa__invert_8cpp.html#a34926f552460b47c414ec4d83b32815c" target="_top" xlink:title="ulltoa_invert">
<polygon fill="white" stroke="black" points="573.5,-38.5 573.5,-57.5 642.5,-57.5 642.5,-38.5 573.5,-38.5"/>
<text text-anchor="middle" x="608" y="-45.5" font-family="Helvetica,sans-Serif" font-size="10.00">ulltoa_invert</text>
</a>
</g>
</g>
<!-- Node4&#45;&gt;Node8 -->
<g id="edge7" class="edge"><title>Node4&#45;&gt;Node8</title>
<path fill="none" stroke="midnightblue" d="M515.786,-76.411C531.101,-71.6406 549.817,-65.8112 566.3,-60.6771"/>
<polygon fill="midnightblue" stroke="midnightblue" points="567.717,-63.9015 576.224,-57.5859 565.636,-57.2182 567.717,-63.9015"/>
</g>
<!-- Node9 -->
<g id="node9" class="node"><title>Node9</title>
<g id="a_node9"><a xlink:href="utoa__invert_8cpp.html#a5d99bba8e697c1e11da489d88fca8559" target="_top" xlink:title="ultoa_invert">
<polygon fill="white" stroke="black" points="574.5,-0.5 574.5,-19.5 641.5,-19.5 641.5,-0.5 574.5,-0.5"/>
<text text-anchor="middle" x="608" y="-7.5" font-family="Helvetica,sans-Serif" font-size="10.00">ultoa_invert</text>
</a>
</g>
</g>
<!-- Node4&#45;&gt;Node9 -->
<g id="edge8" class="edge"><title>Node4&#45;&gt;Node9</title>
<path fill="none" stroke="midnightblue" d="M494.47,-76.3175C507.07,-63.8984 530.502,-42.371 554,-29 557.632,-26.9334 561.529,-25.0271 565.501,-23.2853"/>
<polygon fill="midnightblue" stroke="midnightblue" points="566.856,-26.5129 574.816,-19.5214 564.233,-20.0226 566.856,-26.5129"/>
</g>
</g>
</svg>
