<?xml version="1.0" encoding="UTF-8" standalone="no"?>
<!DOCTYPE svg PUBLIC "-//W3C//DTD SVG 1.1//EN"
 "http://www.w3.org/Graphics/SVG/1.1/DTD/svg11.dtd">
<!-- Generated by graphviz version 2.38.0 (20140413.2041)
 -->
<!-- Title: Compass::_add_backend Pages: 1 -->
<svg width="2781pt" height="315pt"
 viewBox="0.00 0.00 2781.00 314.94" xmlns="http://www.w3.org/2000/svg" xmlns:xlink="http://www.w3.org/1999/xlink">
<g id="graph0" class="graph" transform="scale(1 1) rotate(0) translate(4 310.942)">
<title>Compass::_add_backend</title>
<polygon fill="white" stroke="none" points="-4,4 -4,-310.942 2777,-310.942 2777,4 -4,4"/>
<!-- Node1 -->
<g id="node1" class="node"><title>Node1</title>
<polygon fill="#bfbfbf" stroke="black" points="0,-88.5 0,-107.5 128,-107.5 128,-88.5 0,-88.5"/>
<text text-anchor="middle" x="64" y="-95.5" font-family="Helvetica,sans-Serif" font-size="10.00">Compass::_add_backend</text>
</g>
<!-- Node2 -->
<g id="node2" class="node"><title>Node2</title>
<g id="a_node2"><a xlink:href="classCompass.html#a1c48170d8c8966b22fb150b1634443ec" target="_top" xlink:title="Compass::_detect_backends">
<polygon fill="white" stroke="black" points="164,-107.5 164,-126.5 308,-126.5 308,-107.5 164,-107.5"/>
<text text-anchor="middle" x="236" y="-114.5" font-family="Helvetica,sans-Serif" font-size="10.00">Compass::_detect_backends</text>
</a>
</g>
</g>
<!-- Node1&#45;&gt;Node2 -->
<g id="edge1" class="edge"><title>Node1&#45;&gt;Node2</title>
<path fill="none" stroke="midnightblue" d="M138.493,-106.214C146.93,-107.157 155.52,-108.117 163.924,-109.056"/>
<polygon fill="midnightblue" stroke="midnightblue" points="138.629,-102.707 128.302,-105.075 137.851,-109.664 138.629,-102.707"/>
</g>
<!-- Node5 -->
<g id="node5" class="node"><title>Node5</title>
<g id="a_node5"><a xlink:href="classCompass.html#aff3220e1a557a75480e4c2dbbde72973" target="_top" xlink:title="Compass::get_offsets_max">
<polygon fill="white" stroke="black" points="344,-69.5 344,-88.5 481,-88.5 481,-69.5 344,-69.5"/>
<text text-anchor="middle" x="412.5" y="-76.5" font-family="Helvetica,sans-Serif" font-size="10.00">Compass::get_offsets_max</text>
</a>
</g>
</g>
<!-- Node1&#45;&gt;Node5 -->
<g id="edge60" class="edge"><title>Node1&#45;&gt;Node5</title>
<path fill="none" stroke="midnightblue" d="M138.427,-93.9737C199.135,-90.6448 284.662,-85.955 343.75,-82.715"/>
<polygon fill="midnightblue" stroke="midnightblue" points="137.944,-90.4948 128.151,-94.5372 138.327,-97.4843 137.944,-90.4948"/>
</g>
<!-- Node3 -->
<g id="node3" class="node"><title>Node3</title>
<g id="a_node3"><a xlink:href="classCompass.html#a190aefc281aba88c7b16e4fc58035c5e" target="_top" xlink:title="Compass::init">
<polygon fill="white" stroke="black" points="374,-107.5 374,-126.5 451,-126.5 451,-107.5 374,-107.5"/>
<text text-anchor="middle" x="412.5" y="-114.5" font-family="Helvetica,sans-Serif" font-size="10.00">Compass::init</text>
</a>
</g>
</g>
<!-- Node2&#45;&gt;Node3 -->
<g id="edge2" class="edge"><title>Node2&#45;&gt;Node3</title>
<path fill="none" stroke="midnightblue" d="M318.292,-117C337.645,-117 357.391,-117 373.697,-117"/>
<polygon fill="midnightblue" stroke="midnightblue" points="318.228,-113.5 308.228,-117 318.227,-120.5 318.228,-113.5"/>
</g>
<!-- Node2&#45;&gt;Node5 -->
<g id="edge4" class="edge"><title>Node2&#45;&gt;Node5</title>
<path fill="none" stroke="midnightblue" d="M290.969,-105.247C315.643,-99.8742 344.495,-93.5914 367.783,-88.5201"/>
<polygon fill="midnightblue" stroke="midnightblue" points="290.06,-101.863 281.034,-107.411 291.549,-108.703 290.06,-101.863"/>
</g>
<!-- Node4 -->
<g id="node4" class="node"><title>Node4</title>
<g id="a_node4"><a xlink:href="AHRS__Test_8cpp.html#a7dfd9b79bc5a37d7df40207afbc5431f" target="_top" xlink:title="setup">
<polygon fill="white" stroke="black" points="566,-107.5 566,-126.5 607,-126.5 607,-107.5 566,-107.5"/>
<text text-anchor="middle" x="586.5" y="-114.5" font-family="Helvetica,sans-Serif" font-size="10.00">setup</text>
</a>
</g>
</g>
<!-- Node3&#45;&gt;Node4 -->
<g id="edge3" class="edge"><title>Node3&#45;&gt;Node4</title>
<path fill="none" stroke="midnightblue" d="M461.595,-117C496.102,-117 540.786,-117 565.977,-117"/>
<polygon fill="midnightblue" stroke="midnightblue" points="461.246,-113.5 451.246,-117 461.246,-120.5 461.246,-113.5"/>
</g>
<!-- Node6 -->
<g id="node6" class="node"><title>Node6</title>
<g id="a_node6"><a xlink:href="classAP__Arming.html#a24332b3f5e2e233914bce12e69ae9564" target="_top" xlink:title="AP_Arming::compass\l_checks">
<polygon fill="white" stroke="black" points="1396,-29 1396,-59 1508,-59 1508,-29 1396,-29"/>
<text text-anchor="start" x="1404" y="-47" font-family="Helvetica,sans-Serif" font-size="10.00">AP_Arming::compass</text>
<text text-anchor="middle" x="1452" y="-36" font-family="Helvetica,sans-Serif" font-size="10.00">_checks</text>
</a>
</g>
</g>
<!-- Node5&#45;&gt;Node6 -->
<g id="edge5" class="edge"><title>Node5&#45;&gt;Node6</title>
<path fill="none" stroke="midnightblue" d="M448.534,-66.0674C512.465,-43.6625 652.737,-0 775,-0 775,-0 775,-0 1105,-0 1211.11,-0 1238.13,-2.76811 1343,-19 1360.31,-21.679 1378.96,-25.6123 1395.81,-29.5698"/>
<polygon fill="midnightblue" stroke="midnightblue" points="447.197,-62.8279 438.944,-69.4708 449.538,-69.4248 447.197,-62.8279"/>
</g>
<!-- Node9 -->
<g id="node9" class="node"><title>Node9</title>
<g id="a_node9"><a xlink:href="classCompass.html#a702eb9d33ff1f5ada05b67f9b2219f9a" target="_top" xlink:title="Compass::_start_calibration">
<polygon fill="white" stroke="black" points="517,-69.5 517,-88.5 656,-88.5 656,-69.5 517,-69.5"/>
<text text-anchor="middle" x="586.5" y="-76.5" font-family="Helvetica,sans-Serif" font-size="10.00">Compass::_start_calibration</text>
</a>
</g>
</g>
<!-- Node5&#45;&gt;Node9 -->
<g id="edge8" class="edge"><title>Node5&#45;&gt;Node9</title>
<path fill="none" stroke="midnightblue" d="M491.67,-72.2749C500.084,-72.2212 508.598,-72.2543 516.888,-72.3742"/>
<polygon fill="midnightblue" stroke="midnightblue" points="491.441,-68.7771 481.479,-72.3835 491.516,-75.7767 491.441,-68.7771"/>
</g>
<!-- Node7 -->
<g id="node7" class="node"><title>Node7</title>
<g id="a_node7"><a xlink:href="classAP__Arming.html#a73c03baf7f22b7124a2ac9e9286a850a" target="_top" xlink:title="AP_Arming::pre_arm\l_checks">
<polygon fill="white" stroke="black" points="1576,-29 1576,-59 1683,-59 1683,-29 1576,-29"/>
<text text-anchor="start" x="1584" y="-47" font-family="Helvetica,sans-Serif" font-size="10.00">AP_Arming::pre_arm</text>
<text text-anchor="middle" x="1629.5" y="-36" font-family="Helvetica,sans-Serif" font-size="10.00">_checks</text>
</a>
</g>
</g>
<!-- Node6&#45;&gt;Node7 -->
<g id="edge6" class="edge"><title>Node6&#45;&gt;Node7</title>
<path fill="none" stroke="midnightblue" d="M1518.12,-44C1537.11,-44 1557.62,-44 1575.75,-44"/>
<polygon fill="midnightblue" stroke="midnightblue" points="1518.05,-40.5001 1508.05,-44 1518.05,-47.5001 1518.05,-40.5001"/>
</g>
<!-- Node8 -->
<g id="node8" class="node"><title>Node8</title>
<g id="a_node8"><a xlink:href="classAP__Arming.html#a47b859d9929a736df2f08a1cad03efcb" target="_top" xlink:title="AP_Arming::arm">
<polygon fill="white" stroke="black" points="1772,-34.5 1772,-53.5 1861,-53.5 1861,-34.5 1772,-34.5"/>
<text text-anchor="middle" x="1816.5" y="-41.5" font-family="Helvetica,sans-Serif" font-size="10.00">AP_Arming::arm</text>
</a>
</g>
</g>
<!-- Node7&#45;&gt;Node8 -->
<g id="edge7" class="edge"><title>Node7&#45;&gt;Node8</title>
<path fill="none" stroke="midnightblue" d="M1693.12,-44C1719.02,-44 1748.42,-44 1771.91,-44"/>
<polygon fill="midnightblue" stroke="midnightblue" points="1693.02,-40.5001 1683.02,-44 1693.02,-47.5001 1693.02,-40.5001"/>
</g>
<!-- Node9&#45;&gt;Node5 -->
<g id="edge9" class="edge"><title>Node9&#45;&gt;Node5</title>
<path fill="none" stroke="midnightblue" d="M506.687,-85.729C498.268,-85.7783 489.757,-85.7408 481.479,-85.6165"/>
<polygon fill="midnightblue" stroke="midnightblue" points="506.924,-89.2269 516.888,-85.6258 506.853,-82.2272 506.924,-89.2269"/>
</g>
<!-- Node10 -->
<g id="node10" class="node"><title>Node10</title>
<g id="a_node10"><a xlink:href="classCompass.html#afdd4d0c78f52388a68dfc07deeec11a6" target="_top" xlink:title="Compass::_start_calibration_mask">
<polygon fill="white" stroke="black" points="692,-32.5 692,-51.5 860,-51.5 860,-32.5 692,-32.5"/>
<text text-anchor="middle" x="776" y="-39.5" font-family="Helvetica,sans-Serif" font-size="10.00">Compass::_start_calibration_mask</text>
</a>
</g>
</g>
<!-- Node9&#45;&gt;Node10 -->
<g id="edge10" class="edge"><title>Node9&#45;&gt;Node10</title>
<path fill="none" stroke="midnightblue" d="M645.859,-67.4839C671.77,-62.3706 701.91,-56.4231 726.552,-51.5604"/>
<polygon fill="midnightblue" stroke="midnightblue" points="644.919,-64.1017 635.786,-69.4716 646.274,-70.9693 644.919,-64.1017"/>
</g>
<!-- Node13 -->
<g id="node13" class="node"><title>Node13</title>
<g id="a_node13"><a xlink:href="classCompass.html#a785cd621a6ecd49077881299ff1edba7" target="_top" xlink:title="Compass::start_calibration_all">
<polygon fill="white" stroke="black" points="701.5,-70.5 701.5,-89.5 850.5,-89.5 850.5,-70.5 701.5,-70.5"/>
<text text-anchor="middle" x="776" y="-77.5" font-family="Helvetica,sans-Serif" font-size="10.00">Compass::start_calibration_all</text>
</a>
</g>
</g>
<!-- Node9&#45;&gt;Node13 -->
<g id="edge15" class="edge"><title>Node9&#45;&gt;Node13</title>
<path fill="none" stroke="midnightblue" d="M666.315,-79.4203C677.877,-79.482 689.75,-79.5453 701.206,-79.6064"/>
<polygon fill="midnightblue" stroke="midnightblue" points="666.272,-75.9202 656.253,-79.3667 666.235,-82.9201 666.272,-75.9202"/>
</g>
<!-- Node10&#45;&gt;Node5 -->
<g id="edge11" class="edge"><title>Node10&#45;&gt;Node5</title>
<path fill="none" stroke="midnightblue" d="M681.997,-45.9701C632.813,-48.7047 571.491,-53.1195 517,-60 497.969,-62.4031 477.137,-66.0312 459.184,-69.4752"/>
<polygon fill="midnightblue" stroke="midnightblue" points="682.188,-49.465 691.983,-45.4286 681.809,-42.4753 682.188,-49.465"/>
</g>
<!-- Node11 -->
<g id="node11" class="node"><title>Node11</title>
<g id="a_node11"><a xlink:href="classCompass.html#a5b92dfeb8382c411fc5cdfe2c35569b0" target="_top" xlink:title="Compass::handle_mag\l_cal_command">
<polygon fill="white" stroke="black" points="896,-29 896,-59 1013,-59 1013,-29 896,-29"/>
<text text-anchor="start" x="904" y="-47" font-family="Helvetica,sans-Serif" font-size="10.00">Compass::handle_mag</text>
<text text-anchor="middle" x="954.5" y="-36" font-family="Helvetica,sans-Serif" font-size="10.00">_cal_command</text>
</a>
</g>
</g>
<!-- Node10&#45;&gt;Node11 -->
<g id="edge12" class="edge"><title>Node10&#45;&gt;Node11</title>
<path fill="none" stroke="midnightblue" d="M870.277,-43.057C878.953,-43.1553 887.565,-43.2529 895.774,-43.3459"/>
<polygon fill="midnightblue" stroke="midnightblue" points="870.121,-39.5551 860.082,-42.9414 870.041,-46.5546 870.121,-39.5551"/>
</g>
<!-- Node12 -->
<g id="node12" class="node"><title>Node12</title>
<g id="a_node12"><a xlink:href="classCompass.html#a71d8ad1cb96263dfe4c0f712f14fac97" target="_top" xlink:title="Compass::compass_cal\l_requires_reboot">
<polygon fill="white" stroke="black" points="1208,-29 1208,-59 1330,-59 1330,-29 1208,-29"/>
<text text-anchor="start" x="1216" y="-47" font-family="Helvetica,sans-Serif" font-size="10.00">Compass::compass_cal</text>
<text text-anchor="middle" x="1269" y="-36" font-family="Helvetica,sans-Serif" font-size="10.00">_requires_reboot</text>
</a>
</g>
</g>
<!-- Node11&#45;&gt;Node12 -->
<g id="edge13" class="edge"><title>Node11&#45;&gt;Node12</title>
<path fill="none" stroke="midnightblue" d="M1023.19,-44C1078.23,-44 1155.14,-44 1207.99,-44"/>
<polygon fill="midnightblue" stroke="midnightblue" points="1023.18,-40.5001 1013.18,-44 1023.18,-47.5001 1023.18,-40.5001"/>
</g>
<!-- Node12&#45;&gt;Node6 -->
<g id="edge14" class="edge"><title>Node12&#45;&gt;Node6</title>
<path fill="none" stroke="midnightblue" d="M1340.12,-44C1358.56,-44 1378.19,-44 1395.73,-44"/>
<polygon fill="midnightblue" stroke="midnightblue" points="1340.02,-40.5001 1330.02,-44 1340.02,-47.5001 1340.02,-40.5001"/>
</g>
<!-- Node13&#45;&gt;Node11 -->
<g id="edge59" class="edge"><title>Node13&#45;&gt;Node11</title>
<path fill="none" stroke="midnightblue" d="M833.657,-68.4439C853.495,-64.3977 875.786,-59.851 895.715,-55.7862"/>
<polygon fill="midnightblue" stroke="midnightblue" points="832.934,-65.0192 823.835,-70.4472 834.333,-71.878 832.934,-65.0192"/>
</g>
<!-- Node14 -->
<g id="node14" class="node"><title>Node14</title>
<g id="a_node14"><a xlink:href="classCompass.html#a22ce936207eeda5d3fa55237271cef3e" target="_top" xlink:title="Compass::get_field">
<polygon fill="white" stroke="black" points="904,-78.5 904,-97.5 1005,-97.5 1005,-78.5 904,-78.5"/>
<text text-anchor="middle" x="954.5" y="-85.5" font-family="Helvetica,sans-Serif" font-size="10.00">Compass::get_field</text>
</a>
</g>
</g>
<!-- Node13&#45;&gt;Node14 -->
<g id="edge16" class="edge"><title>Node13&#45;&gt;Node14</title>
<path fill="none" stroke="midnightblue" d="M860.751,-83.7961C875.519,-84.4655 890.456,-85.1425 903.901,-85.7519"/>
<polygon fill="midnightblue" stroke="midnightblue" points="860.722,-80.2913 850.574,-83.3348 860.405,-87.2841 860.722,-80.2913"/>
</g>
<!-- Node14&#45;&gt;Node14 -->
<g id="edge58" class="edge"><title>Node14&#45;&gt;Node14</title>
<path fill="none" stroke="midnightblue" d="M926.874,-106.654C928.029,-111.937 937.238,-116 954.5,-116 980.805,-116 988.408,-106.565 977.311,-97.7571"/>
<polygon fill="midnightblue" stroke="midnightblue" points="930.008,-108.218 931.689,-97.7571 923.851,-104.886 930.008,-108.218"/>
</g>
<!-- Node15 -->
<g id="node15" class="node"><title>Node15</title>
<g id="a_node15"><a xlink:href="classCompass.html#a518ff958770a39bc265f93d22e071212" target="_top" xlink:title="Compass::calculate\l_heading">
<polygon fill="white" stroke="black" points="1052,-73 1052,-103 1156,-103 1156,-73 1052,-73"/>
<text text-anchor="start" x="1060" y="-91" font-family="Helvetica,sans-Serif" font-size="10.00">Compass::calculate</text>
<text text-anchor="middle" x="1104" y="-80" font-family="Helvetica,sans-Serif" font-size="10.00">_heading</text>
</a>
</g>
</g>
<!-- Node14&#45;&gt;Node15 -->
<g id="edge17" class="edge"><title>Node14&#45;&gt;Node15</title>
<path fill="none" stroke="midnightblue" d="M1015.1,-88C1027.28,-88 1039.99,-88 1051.84,-88"/>
<polygon fill="midnightblue" stroke="midnightblue" points="1015.03,-84.5001 1005.03,-88 1015.03,-91.5001 1015.03,-84.5001"/>
</g>
<!-- Node16 -->
<g id="node16" class="node"><title>Node16</title>
<g id="a_node16"><a xlink:href="classCompass.html#a59f46d32a935d4faecc4a28d262c4388" target="_top" xlink:title="Compass::consistent">
<polygon fill="white" stroke="black" points="1049,-122.5 1049,-141.5 1159,-141.5 1159,-122.5 1049,-122.5"/>
<text text-anchor="middle" x="1104" y="-129.5" font-family="Helvetica,sans-Serif" font-size="10.00">Compass::consistent</text>
</a>
</g>
</g>
<!-- Node14&#45;&gt;Node16 -->
<g id="edge18" class="edge"><title>Node14&#45;&gt;Node16</title>
<path fill="none" stroke="midnightblue" d="M997.185,-100.435C1020.62,-107.426 1049.42,-116.018 1071.06,-122.471"/>
<polygon fill="midnightblue" stroke="midnightblue" points="998.089,-97.052 987.505,-97.5473 996.088,-103.76 998.089,-97.052"/>
</g>
<!-- Node16&#45;&gt;Node6 -->
<g id="edge19" class="edge"><title>Node16&#45;&gt;Node6</title>
<path fill="none" stroke="midnightblue" d="M1152.11,-120.017C1215.64,-103.86 1328.55,-75.1446 1395.92,-58.0087"/>
<polygon fill="midnightblue" stroke="midnightblue" points="1151.19,-116.642 1142.36,-122.499 1152.91,-123.426 1151.19,-116.642"/>
</g>
<!-- Node16&#45;&gt;Node12 -->
<g id="edge20" class="edge"><title>Node16&#45;&gt;Node12</title>
<path fill="none" stroke="midnightblue" d="M1146.8,-118.542C1151.04,-116.585 1155.19,-114.406 1159,-112 1177.87,-100.09 1176.56,-89.5622 1195,-77 1205.12,-70.11 1216.9,-64.0574 1228.02,-59.0807"/>
<polygon fill="midnightblue" stroke="midnightblue" points="1145.31,-115.372 1137.45,-122.475 1148.03,-121.824 1145.31,-115.372"/>
</g>
<!-- Node17 -->
<g id="node17" class="node"><title>Node17</title>
<g id="a_node17"><a xlink:href="classNavEKF2__core.html#abf6ac301297f486d9690d97c7a19dad8" target="_top" xlink:title="NavEKF2_core::readMagData">
<polygon fill="white" stroke="black" points="1195,-235.5 1195,-254.5 1343,-254.5 1343,-235.5 1195,-235.5"/>
<text text-anchor="middle" x="1269" y="-242.5" font-family="Helvetica,sans-Serif" font-size="10.00">NavEKF2_core::readMagData</text>
</a>
</g>
</g>
<!-- Node16&#45;&gt;Node17 -->
<g id="edge21" class="edge"><title>Node16&#45;&gt;Node17</title>
<path fill="none" stroke="midnightblue" d="M1127.29,-147.456C1161.49,-171.163 1225.9,-215.813 1254.14,-235.39"/>
<polygon fill="midnightblue" stroke="midnightblue" points="1129.11,-144.455 1118.9,-141.634 1125.12,-150.208 1129.11,-144.455"/>
</g>
<!-- Node34 -->
<g id="node34" class="node"><title>Node34</title>
<g id="a_node34"><a xlink:href="classNavEKF3__core.html#a39fe9f76e9c368cba51e9af9b2367513" target="_top" xlink:title="NavEKF3_core::readMagData">
<polygon fill="white" stroke="black" points="1195,-122.5 1195,-141.5 1343,-141.5 1343,-122.5 1195,-122.5"/>
<text text-anchor="middle" x="1269" y="-129.5" font-family="Helvetica,sans-Serif" font-size="10.00">NavEKF3_core::readMagData</text>
</a>
</g>
</g>
<!-- Node16&#45;&gt;Node34 -->
<g id="edge41" class="edge"><title>Node16&#45;&gt;Node34</title>
<path fill="none" stroke="midnightblue" d="M1169.33,-132C1177.7,-132 1186.32,-132 1194.81,-132"/>
<polygon fill="midnightblue" stroke="midnightblue" points="1169.28,-128.5 1159.28,-132 1169.28,-135.5 1169.28,-128.5"/>
</g>
<!-- Node18 -->
<g id="node18" class="node"><title>Node18</title>
<g id="a_node18"><a xlink:href="classNavEKF2__core.html#a4a06ae47c3edebdecd2b179a0567f00b" target="_top" xlink:title="NavEKF2_core::Initialise\lFilterBootstrap">
<polygon fill="white" stroke="black" points="1567,-205 1567,-235 1692,-235 1692,-205 1567,-205"/>
<text text-anchor="start" x="1575" y="-223" font-family="Helvetica,sans-Serif" font-size="10.00">NavEKF2_core::Initialise</text>
<text text-anchor="middle" x="1629.5" y="-212" font-family="Helvetica,sans-Serif" font-size="10.00">FilterBootstrap</text>
</a>
</g>
</g>
<!-- Node17&#45;&gt;Node18 -->
<g id="edge22" class="edge"><title>Node17&#45;&gt;Node18</title>
<path fill="none" stroke="midnightblue" d="M1353.67,-239.165C1418.89,-234.617 1507.98,-228.405 1566.82,-224.301"/>
<polygon fill="midnightblue" stroke="midnightblue" points="1353.15,-235.693 1343.41,-239.881 1353.63,-242.676 1353.15,-235.693"/>
</g>
<!-- Node29 -->
<g id="node29" class="node"><title>Node29</title>
<g id="a_node29"><a xlink:href="classNavEKF2__core.html#af6d172634e15ba1643bf4c53c390f5e2" target="_top" xlink:title="NavEKF2_core::calcQuatAnd\lFieldStates">
<polygon fill="white" stroke="black" points="1379,-252 1379,-282 1525,-282 1525,-252 1379,-252"/>
<text text-anchor="start" x="1387" y="-270" font-family="Helvetica,sans-Serif" font-size="10.00">NavEKF2_core::calcQuatAnd</text>
<text text-anchor="middle" x="1452" y="-259" font-family="Helvetica,sans-Serif" font-size="10.00">FieldStates</text>
</a>
</g>
</g>
<!-- Node17&#45;&gt;Node29 -->
<g id="edge33" class="edge"><title>Node17&#45;&gt;Node29</title>
<path fill="none" stroke="midnightblue" d="M1353.11,-255.102C1361.69,-256.145 1370.36,-257.198 1378.81,-258.225"/>
<polygon fill="midnightblue" stroke="midnightblue" points="1353.45,-251.617 1343.1,-253.885 1352.6,-258.566 1353.45,-251.617"/>
</g>
<!-- Node31 -->
<g id="node31" class="node"><title>Node31</title>
<g id="a_node31"><a xlink:href="classNavEKF2__core.html#aa0f6cd840e93e0233f056c88ce45ef85" target="_top" xlink:title="NavEKF2_core::SelectMagFusion">
<polygon fill="white" stroke="black" points="1734,-272.5 1734,-291.5 1899,-291.5 1899,-272.5 1734,-272.5"/>
<text text-anchor="middle" x="1816.5" y="-279.5" font-family="Helvetica,sans-Serif" font-size="10.00">NavEKF2_core::SelectMagFusion</text>
</a>
</g>
</g>
<!-- Node17&#45;&gt;Node31 -->
<g id="edge40" class="edge"><title>Node17&#45;&gt;Node31</title>
<path fill="none" stroke="midnightblue" d="M1296.19,-259.476C1317.71,-270.512 1349.35,-284.831 1379,-291 1511.65,-318.603 1671.87,-303.271 1756.48,-291.504"/>
<polygon fill="midnightblue" stroke="midnightblue" points="1297.54,-256.233 1287.06,-254.678 1294.29,-262.429 1297.54,-256.233"/>
</g>
<!-- Node19 -->
<g id="node19" class="node"><title>Node19</title>
<g id="a_node19"><a xlink:href="classNavEKF2.html#a9c447b8d84abf2dfc845ddbbbad46a2b" target="_top" xlink:title="NavEKF2::InitialiseFilter">
<polygon fill="white" stroke="black" points="2114,-210.5 2114,-229.5 2237,-229.5 2237,-210.5 2114,-210.5"/>
<text text-anchor="middle" x="2175.5" y="-217.5" font-family="Helvetica,sans-Serif" font-size="10.00">NavEKF2::InitialiseFilter</text>
</a>
</g>
</g>
<!-- Node18&#45;&gt;Node19 -->
<g id="edge23" class="edge"><title>Node18&#45;&gt;Node19</title>
<path fill="none" stroke="midnightblue" d="M1702.26,-220C1810.29,-220 2012.78,-220 2113.86,-220"/>
<polygon fill="midnightblue" stroke="midnightblue" points="1702.11,-216.5 1692.11,-220 1702.11,-223.5 1702.11,-216.5"/>
</g>
<!-- Node20 -->
<g id="node20" class="node"><title>Node20</title>
<g id="a_node20"><a xlink:href="classAP__AHRS__NavEKF.html#a0187c6d3d4348b002a204c05d3e94b07" target="_top" xlink:title="AP_AHRS_NavEKF::update_EKF2">
<polygon fill="white" stroke="black" points="2273,-286.5 2273,-305.5 2445,-305.5 2445,-286.5 2273,-286.5"/>
<text text-anchor="middle" x="2359" y="-293.5" font-family="Helvetica,sans-Serif" font-size="10.00">AP_AHRS_NavEKF::update_EKF2</text>
</a>
</g>
</g>
<!-- Node19&#45;&gt;Node20 -->
<g id="edge24" class="edge"><title>Node19&#45;&gt;Node20</title>
<path fill="none" stroke="midnightblue" d="M2198,-235.382C2216.92,-248.243 2245.63,-266.173 2273,-277 2282.56,-280.783 2293.04,-283.896 2303.28,-286.43"/>
<polygon fill="midnightblue" stroke="midnightblue" points="2199.77,-232.346 2189.55,-229.529 2195.78,-238.1 2199.77,-232.346"/>
</g>
<!-- Node23 -->
<g id="node23" class="node"><title>Node23</title>
<g id="a_node23"><a xlink:href="classAP__AHRS__NavEKF.html#a532ff0df024a4537e5a108c42ba405a7" target="_top" xlink:title="AP_AHRS_NavEKF::reset">
<polygon fill="white" stroke="black" points="2292,-210.5 2292,-229.5 2426,-229.5 2426,-210.5 2292,-210.5"/>
<text text-anchor="middle" x="2359" y="-217.5" font-family="Helvetica,sans-Serif" font-size="10.00">AP_AHRS_NavEKF::reset</text>
</a>
</g>
</g>
<!-- Node19&#45;&gt;Node23 -->
<g id="edge27" class="edge"><title>Node19&#45;&gt;Node23</title>
<path fill="none" stroke="midnightblue" d="M2247.2,-220C2261.86,-220 2277.26,-220 2291.75,-220"/>
<polygon fill="midnightblue" stroke="midnightblue" points="2247.19,-216.5 2237.19,-220 2247.19,-223.5 2247.19,-216.5"/>
</g>
<!-- Node24 -->
<g id="node24" class="node"><title>Node24</title>
<g id="a_node24"><a xlink:href="classAP__AHRS__NavEKF.html#a9bd3c7f1793a48cd0d736b19fbfaf19a" target="_top" xlink:title="AP_AHRS_NavEKF::reset\l_attitude">
<polygon fill="white" stroke="black" points="2292,-161 2292,-191 2426,-191 2426,-161 2292,-161"/>
<text text-anchor="start" x="2300" y="-179" font-family="Helvetica,sans-Serif" font-size="10.00">AP_AHRS_NavEKF::reset</text>
<text text-anchor="middle" x="2359" y="-168" font-family="Helvetica,sans-Serif" font-size="10.00">_attitude</text>
</a>
</g>
</g>
<!-- Node19&#45;&gt;Node24 -->
<g id="edge28" class="edge"><title>Node19&#45;&gt;Node24</title>
<path fill="none" stroke="midnightblue" d="M2225.81,-208.045C2247.41,-202.811 2272.98,-196.611 2295.86,-191.065"/>
<polygon fill="midnightblue" stroke="midnightblue" points="2224.78,-204.695 2215.88,-210.453 2226.43,-211.498 2224.78,-204.695"/>
</g>
<!-- Node25 -->
<g id="node25" class="node"><title>Node25</title>
<g id="a_node25"><a xlink:href="classNavEKF2.html#ab18af2714c15fcf190493c01e2a28c73" target="_top" xlink:title="NavEKF2::activeCores">
<polygon fill="white" stroke="black" points="2300,-248.5 2300,-267.5 2418,-267.5 2418,-248.5 2300,-248.5"/>
<text text-anchor="middle" x="2359" y="-255.5" font-family="Helvetica,sans-Serif" font-size="10.00">NavEKF2::activeCores</text>
</a>
</g>
</g>
<!-- Node19&#45;&gt;Node25 -->
<g id="edge29" class="edge"><title>Node19&#45;&gt;Node25</title>
<path fill="none" stroke="midnightblue" d="M2232.29,-231.681C2258.03,-237.07 2288.2,-243.386 2312.53,-248.48"/>
<polygon fill="midnightblue" stroke="midnightblue" points="2232.81,-228.213 2222.3,-229.589 2231.37,-235.064 2232.81,-228.213"/>
</g>
<!-- Node21 -->
<g id="node21" class="node"><title>Node21</title>
<g id="a_node21"><a xlink:href="classAP__AHRS__NavEKF.html#ac8111979c5dc37a55b2c50818534ea52" target="_top" xlink:title="AP_AHRS_NavEKF::update">
<polygon fill="white" stroke="black" points="2482,-286.5 2482,-305.5 2624,-305.5 2624,-286.5 2482,-286.5"/>
<text text-anchor="middle" x="2553" y="-293.5" font-family="Helvetica,sans-Serif" font-size="10.00">AP_AHRS_NavEKF::update</text>
</a>
</g>
</g>
<!-- Node20&#45;&gt;Node21 -->
<g id="edge25" class="edge"><title>Node20&#45;&gt;Node21</title>
<path fill="none" stroke="midnightblue" d="M2455.21,-296C2464.23,-296 2473.25,-296 2481.97,-296"/>
<polygon fill="midnightblue" stroke="midnightblue" points="2455.05,-292.5 2445.05,-296 2455.05,-299.5 2455.05,-292.5"/>
</g>
<!-- Node22 -->
<g id="node22" class="node"><title>Node22</title>
<g id="a_node22"><a xlink:href="AHRS__Test_8cpp.html#a0b33edabd7f1c4e4a0bf32c67269be2f" target="_top" xlink:title="loop">
<polygon fill="white" stroke="black" points="2699.5,-286.5 2699.5,-305.5 2734.5,-305.5 2734.5,-286.5 2699.5,-286.5"/>
<text text-anchor="middle" x="2717" y="-293.5" font-family="Helvetica,sans-Serif" font-size="10.00">loop</text>
</a>
</g>
</g>
<!-- Node21&#45;&gt;Node22 -->
<g id="edge26" class="edge"><title>Node21&#45;&gt;Node22</title>
<path fill="none" stroke="midnightblue" d="M2634.29,-296C2658.99,-296 2683.78,-296 2699.47,-296"/>
<polygon fill="midnightblue" stroke="midnightblue" points="2634.11,-292.5 2624.11,-296 2634.11,-299.5 2634.11,-292.5"/>
</g>
<!-- Node26 -->
<g id="node26" class="node"><title>Node26</title>
<g id="a_node26"><a xlink:href="classDataFlash__Class.html#a46e58faaa53c44516433f6bb7bde4163" target="_top" xlink:title="DataFlash_Class::Log\l_Write_POS">
<polygon fill="white" stroke="black" points="2496,-139 2496,-169 2610,-169 2610,-139 2496,-139"/>
<text text-anchor="start" x="2504" y="-157" font-family="Helvetica,sans-Serif" font-size="10.00">DataFlash_Class::Log</text>
<text text-anchor="middle" x="2553" y="-146" font-family="Helvetica,sans-Serif" font-size="10.00">_Write_POS</text>
</a>
</g>
</g>
<!-- Node25&#45;&gt;Node26 -->
<g id="edge30" class="edge"><title>Node25&#45;&gt;Node26</title>
<path fill="none" stroke="midnightblue" d="M2428.18,-245.679C2433.98,-243.759 2439.67,-241.547 2445,-239 2482.25,-221.208 2518.29,-188.334 2537.56,-169.1"/>
<polygon fill="midnightblue" stroke="midnightblue" points="2426.9,-242.408 2418.33,-248.642 2428.92,-249.111 2426.9,-242.408"/>
</g>
<!-- Node28 -->
<g id="node28" class="node"><title>Node28</title>
<g id="a_node28"><a xlink:href="classGCS__MAVLINK.html#a558ba3447048b78cb9dde460053e2741" target="_top" xlink:title="GCS_MAVLINK::send_ahrs2">
<polygon fill="white" stroke="black" points="2481,-248.5 2481,-267.5 2625,-267.5 2625,-248.5 2481,-248.5"/>
<text text-anchor="middle" x="2553" y="-255.5" font-family="Helvetica,sans-Serif" font-size="10.00">GCS_MAVLINK::send_ahrs2</text>
</a>
</g>
</g>
<!-- Node25&#45;&gt;Node28 -->
<g id="edge32" class="edge"><title>Node25&#45;&gt;Node28</title>
<path fill="none" stroke="midnightblue" d="M2428.52,-258C2445.5,-258 2463.74,-258 2480.85,-258"/>
<polygon fill="midnightblue" stroke="midnightblue" points="2428.13,-254.5 2418.13,-258 2428.13,-261.5 2428.13,-254.5"/>
</g>
<!-- Node27 -->
<g id="node27" class="node"><title>Node27</title>
<g id="a_node27"><a xlink:href="classDataFlash__Class.html#a7868f0e3dcef65ea5b5fcae618f4c5d4" target="_top" xlink:title="DataFlash_Class::get\l_structures">
<polygon fill="white" stroke="black" points="2661,-139 2661,-169 2773,-169 2773,-139 2661,-139"/>
<text text-anchor="start" x="2669" y="-157" font-family="Helvetica,sans-Serif" font-size="10.00">DataFlash_Class::get</text>
<text text-anchor="middle" x="2717" y="-146" font-family="Helvetica,sans-Serif" font-size="10.00">_structures</text>
</a>
</g>
</g>
<!-- Node26&#45;&gt;Node27 -->
<g id="edge31" class="edge"><title>Node26&#45;&gt;Node27</title>
<path fill="none" stroke="midnightblue" d="M2620.39,-154C2633.89,-154 2647.94,-154 2660.99,-154"/>
<polygon fill="midnightblue" stroke="midnightblue" points="2620.21,-150.5 2610.21,-154 2620.21,-157.5 2620.21,-150.5"/>
</g>
<!-- Node30 -->
<g id="node30" class="node"><title>Node30</title>
<g id="a_node30"><a xlink:href="classNavEKF2__core.html#a3989e564224adfa26b0e32a5a03aca10" target="_top" xlink:title="NavEKF2_core::controlMag\lYawReset">
<polygon fill="white" stroke="black" points="1561,-254 1561,-284 1698,-284 1698,-254 1561,-254"/>
<text text-anchor="start" x="1569" y="-272" font-family="Helvetica,sans-Serif" font-size="10.00">NavEKF2_core::controlMag</text>
<text text-anchor="middle" x="1629.5" y="-261" font-family="Helvetica,sans-Serif" font-size="10.00">YawReset</text>
</a>
</g>
</g>
<!-- Node29&#45;&gt;Node30 -->
<g id="edge34" class="edge"><title>Node29&#45;&gt;Node30</title>
<path fill="none" stroke="midnightblue" d="M1535.19,-267.937C1543.79,-268.035 1552.46,-268.133 1560.87,-268.229"/>
<polygon fill="midnightblue" stroke="midnightblue" points="1535.18,-264.436 1525.14,-267.822 1535.1,-271.436 1535.18,-264.436"/>
</g>
<!-- Node30&#45;&gt;Node31 -->
<g id="edge35" class="edge"><title>Node30&#45;&gt;Node31</title>
<path fill="none" stroke="midnightblue" d="M1708.31,-274.468C1716.79,-275.064 1725.44,-275.671 1733.96,-276.27"/>
<polygon fill="midnightblue" stroke="midnightblue" points="1708.3,-270.958 1698.07,-273.748 1707.8,-277.941 1708.3,-270.958"/>
</g>
<!-- Node32 -->
<g id="node32" class="node"><title>Node32</title>
<g id="a_node32"><a xlink:href="classNavEKF2__core.html#a5f5c815cbd5ebba30d731f89f87726c3" target="_top" xlink:title="NavEKF2_core::UpdateFilter">
<polygon fill="white" stroke="black" points="1935,-272.5 1935,-291.5 2078,-291.5 2078,-272.5 1935,-272.5"/>
<text text-anchor="middle" x="2006.5" y="-279.5" font-family="Helvetica,sans-Serif" font-size="10.00">NavEKF2_core::UpdateFilter</text>
</a>
</g>
</g>
<!-- Node31&#45;&gt;Node32 -->
<g id="edge36" class="edge"><title>Node31&#45;&gt;Node32</title>
<path fill="none" stroke="midnightblue" d="M1909.22,-282C1917.83,-282 1926.47,-282 1934.84,-282"/>
<polygon fill="midnightblue" stroke="midnightblue" points="1909.14,-278.5 1899.14,-282 1909.14,-285.5 1909.14,-278.5"/>
</g>
<!-- Node33 -->
<g id="node33" class="node"><title>Node33</title>
<g id="a_node33"><a xlink:href="classNavEKF2.html#a72815b1bbd9d7ceb0ff7ae52d14516df" target="_top" xlink:title="NavEKF2::UpdateFilter">
<polygon fill="white" stroke="black" points="2116,-272.5 2116,-291.5 2235,-291.5 2235,-272.5 2116,-272.5"/>
<text text-anchor="middle" x="2175.5" y="-279.5" font-family="Helvetica,sans-Serif" font-size="10.00">NavEKF2::UpdateFilter</text>
</a>
</g>
</g>
<!-- Node32&#45;&gt;Node33 -->
<g id="edge37" class="edge"><title>Node32&#45;&gt;Node33</title>
<path fill="none" stroke="midnightblue" d="M2088.37,-282C2097.67,-282 2107.01,-282 2115.93,-282"/>
<polygon fill="midnightblue" stroke="midnightblue" points="2088.32,-278.5 2078.32,-282 2088.32,-285.5 2088.32,-278.5"/>
</g>
<!-- Node33&#45;&gt;Node20 -->
<g id="edge38" class="edge"><title>Node33&#45;&gt;Node20</title>
<path fill="none" stroke="midnightblue" d="M2245.2,-287.3C2254.22,-287.995 2263.55,-288.714 2272.79,-289.428"/>
<polygon fill="midnightblue" stroke="midnightblue" points="2245.42,-283.806 2235.18,-286.526 2244.88,-290.785 2245.42,-283.806"/>
</g>
<!-- Node33&#45;&gt;Node25 -->
<g id="edge39" class="edge"><title>Node33&#45;&gt;Node25</title>
<path fill="none" stroke="midnightblue" d="M2245.31,-272.902C2263.28,-270.525 2282.47,-267.987 2299.84,-265.691"/>
<polygon fill="midnightblue" stroke="midnightblue" points="2244.63,-269.46 2235.18,-274.241 2245.55,-276.4 2244.63,-269.46"/>
</g>
<!-- Node35 -->
<g id="node35" class="node"><title>Node35</title>
<g id="a_node35"><a xlink:href="classNavEKF3__core.html#aae18ada44b1b7be0d45af03391ef961a" target="_top" xlink:title="NavEKF3_core::Initialise\lFilterBootstrap">
<polygon fill="white" stroke="black" points="1944,-161 1944,-191 2069,-191 2069,-161 1944,-161"/>
<text text-anchor="start" x="1952" y="-179" font-family="Helvetica,sans-Serif" font-size="10.00">NavEKF3_core::Initialise</text>
<text text-anchor="middle" x="2006.5" y="-168" font-family="Helvetica,sans-Serif" font-size="10.00">FilterBootstrap</text>
</a>
</g>
</g>
<!-- Node34&#45;&gt;Node35 -->
<g id="edge42" class="edge"><title>Node34&#45;&gt;Node35</title>
<path fill="none" stroke="midnightblue" d="M1315.36,-143.954C1334.81,-148.567 1357.88,-153.361 1379,-156 1584.71,-181.706 1831.19,-180.229 1943.85,-177.791"/>
<polygon fill="midnightblue" stroke="midnightblue" points="1316.09,-140.53 1305.55,-141.571 1314.44,-147.332 1316.09,-140.53"/>
</g>
<!-- Node39 -->
<g id="node39" class="node"><title>Node39</title>
<g id="a_node39"><a xlink:href="classNavEKF3__core.html#a93a3f4411a8dc4df4819e13856d037d5" target="_top" xlink:title="NavEKF3_core::calcQuatAnd\lFieldStates">
<polygon fill="white" stroke="black" points="1379,-117 1379,-147 1525,-147 1525,-117 1379,-117"/>
<text text-anchor="start" x="1387" y="-135" font-family="Helvetica,sans-Serif" font-size="10.00">NavEKF3_core::calcQuatAnd</text>
<text text-anchor="middle" x="1452" y="-124" font-family="Helvetica,sans-Serif" font-size="10.00">FieldStates</text>
</a>
</g>
</g>
<!-- Node34&#45;&gt;Node39 -->
<g id="edge50" class="edge"><title>Node34&#45;&gt;Node39</title>
<path fill="none" stroke="midnightblue" d="M1353.11,-132C1361.69,-132 1370.36,-132 1378.81,-132"/>
<polygon fill="midnightblue" stroke="midnightblue" points="1353.1,-128.5 1343.1,-132 1353.1,-135.5 1353.1,-128.5"/>
</g>
<!-- Node41 -->
<g id="node41" class="node"><title>Node41</title>
<g id="a_node41"><a xlink:href="classNavEKF3__core.html#a800d407d377e6532d563c68cc3c731d8" target="_top" xlink:title="NavEKF3_core::SelectMagFusion">
<polygon fill="white" stroke="black" points="1734,-103.5 1734,-122.5 1899,-122.5 1899,-103.5 1734,-103.5"/>
<text text-anchor="middle" x="1816.5" y="-110.5" font-family="Helvetica,sans-Serif" font-size="10.00">NavEKF3_core::SelectMagFusion</text>
</a>
</g>
</g>
<!-- Node34&#45;&gt;Node41 -->
<g id="edge57" class="edge"><title>Node34&#45;&gt;Node41</title>
<path fill="none" stroke="midnightblue" d="M1312.78,-119.839C1332.72,-114.778 1356.89,-109.504 1379,-107 1502.13,-93.0608 1646.03,-99.3742 1733.94,-105.756"/>
<polygon fill="midnightblue" stroke="midnightblue" points="1311.85,-116.463 1303.06,-122.372 1313.62,-123.237 1311.85,-116.463"/>
</g>
<!-- Node36 -->
<g id="node36" class="node"><title>Node36</title>
<g id="a_node36"><a xlink:href="classNavEKF3.html#a07f064fa513fbb6e7188141904f3b5b5" target="_top" xlink:title="NavEKF3::InitialiseFilter">
<polygon fill="white" stroke="black" points="2114,-166.5 2114,-185.5 2237,-185.5 2237,-166.5 2114,-166.5"/>
<text text-anchor="middle" x="2175.5" y="-173.5" font-family="Helvetica,sans-Serif" font-size="10.00">NavEKF3::InitialiseFilter</text>
</a>
</g>
</g>
<!-- Node35&#45;&gt;Node36 -->
<g id="edge43" class="edge"><title>Node35&#45;&gt;Node36</title>
<path fill="none" stroke="midnightblue" d="M2079.25,-176C2090.79,-176 2102.63,-176 2113.88,-176"/>
<polygon fill="midnightblue" stroke="midnightblue" points="2079.21,-172.5 2069.21,-176 2079.21,-179.5 2079.21,-172.5"/>
</g>
<!-- Node36&#45;&gt;Node23 -->
<g id="edge46" class="edge"><title>Node36&#45;&gt;Node23</title>
<path fill="none" stroke="midnightblue" d="M2224.41,-188.042C2239.9,-191.903 2257.17,-196.17 2273,-200 2287.29,-203.459 2302.96,-207.168 2316.9,-210.441"/>
<polygon fill="midnightblue" stroke="midnightblue" points="2225.06,-184.599 2214.51,-185.572 2223.37,-191.39 2225.06,-184.599"/>
</g>
<!-- Node36&#45;&gt;Node24 -->
<g id="edge47" class="edge"><title>Node36&#45;&gt;Node24</title>
<path fill="none" stroke="midnightblue" d="M2247.2,-176C2261.86,-176 2277.26,-176 2291.75,-176"/>
<polygon fill="midnightblue" stroke="midnightblue" points="2247.19,-172.5 2237.19,-176 2247.19,-179.5 2247.19,-172.5"/>
</g>
<!-- Node37 -->
<g id="node37" class="node"><title>Node37</title>
<g id="a_node37"><a xlink:href="classAP__AHRS__NavEKF.html#a324160404f12959e955554f5aed26459" target="_top" xlink:title="AP_AHRS_NavEKF::update_EKF3">
<polygon fill="white" stroke="black" points="2273,-122.5 2273,-141.5 2445,-141.5 2445,-122.5 2273,-122.5"/>
<text text-anchor="middle" x="2359" y="-129.5" font-family="Helvetica,sans-Serif" font-size="10.00">AP_AHRS_NavEKF::update_EKF3</text>
</a>
</g>
</g>
<!-- Node36&#45;&gt;Node37 -->
<g id="edge44" class="edge"><title>Node36&#45;&gt;Node37</title>
<path fill="none" stroke="midnightblue" d="M2221.89,-163.906C2238,-159.702 2256.28,-155.033 2273,-151 2286.23,-147.809 2300.66,-144.513 2313.82,-141.581"/>
<polygon fill="midnightblue" stroke="midnightblue" points="2220.96,-160.532 2212.17,-166.453 2222.73,-167.303 2220.96,-160.532"/>
</g>
<!-- Node38 -->
<g id="node38" class="node"><title>Node38</title>
<g id="a_node38"><a xlink:href="classNavEKF3.html#a3e1f50ad977a17222fcd7a6851b0f2ec" target="_top" xlink:title="NavEKF3::activeCores">
<polygon fill="white" stroke="black" points="2300,-84.5 2300,-103.5 2418,-103.5 2418,-84.5 2300,-84.5"/>
<text text-anchor="middle" x="2359" y="-91.5" font-family="Helvetica,sans-Serif" font-size="10.00">NavEKF3::activeCores</text>
</a>
</g>
</g>
<!-- Node36&#45;&gt;Node38 -->
<g id="edge48" class="edge"><title>Node36&#45;&gt;Node38</title>
<path fill="none" stroke="midnightblue" d="M2198.3,-160.454C2221.75,-143.973 2257.72,-119.447 2273,-113 2282.06,-109.18 2291.99,-106.075 2301.78,-103.568"/>
<polygon fill="midnightblue" stroke="midnightblue" points="2196.14,-157.692 2190,-166.321 2200.18,-163.409 2196.14,-157.692"/>
</g>
<!-- Node37&#45;&gt;Node21 -->
<g id="edge45" class="edge"><title>Node37&#45;&gt;Node21</title>
<path fill="none" stroke="midnightblue" d="M2440.32,-147.076C2441.95,-148.293 2443.52,-149.599 2445,-151 2487.37,-190.963 2439.47,-236.165 2481,-277 2484.91,-280.847 2489.51,-283.938 2494.46,-286.418"/>
<polygon fill="midnightblue" stroke="midnightblue" points="2442,-144 2431.66,-141.703 2438.31,-149.949 2442,-144"/>
</g>
<!-- Node38&#45;&gt;Node26 -->
<g id="edge49" class="edge"><title>Node38&#45;&gt;Node26</title>
<path fill="none" stroke="midnightblue" d="M2418.43,-105.877C2427.39,-108.038 2436.48,-110.43 2445,-113 2469.19,-120.295 2495.71,-130.443 2516.3,-138.817"/>
<polygon fill="midnightblue" stroke="midnightblue" points="2418.95,-102.405 2408.42,-103.539 2417.36,-109.222 2418.95,-102.405"/>
</g>
<!-- Node40 -->
<g id="node40" class="node"><title>Node40</title>
<g id="a_node40"><a xlink:href="classNavEKF3__core.html#ae050fc8e6c45d5134f8cba8dabc719e8" target="_top" xlink:title="NavEKF3_core::controlMag\lYawReset">
<polygon fill="white" stroke="black" points="1561,-117 1561,-147 1698,-147 1698,-117 1561,-117"/>
<text text-anchor="start" x="1569" y="-135" font-family="Helvetica,sans-Serif" font-size="10.00">NavEKF3_core::controlMag</text>
<text text-anchor="middle" x="1629.5" y="-124" font-family="Helvetica,sans-Serif" font-size="10.00">YawReset</text>
</a>
</g>
</g>
<!-- Node39&#45;&gt;Node40 -->
<g id="edge51" class="edge"><title>Node39&#45;&gt;Node40</title>
<path fill="none" stroke="midnightblue" d="M1535.19,-132C1543.79,-132 1552.46,-132 1560.87,-132"/>
<polygon fill="midnightblue" stroke="midnightblue" points="1535.14,-128.5 1525.14,-132 1535.14,-135.5 1535.14,-128.5"/>
</g>
<!-- Node40&#45;&gt;Node41 -->
<g id="edge52" class="edge"><title>Node40&#45;&gt;Node41</title>
<path fill="none" stroke="midnightblue" d="M1708.03,-124.037C1716.6,-123.157 1725.34,-122.259 1733.96,-121.374"/>
<polygon fill="midnightblue" stroke="midnightblue" points="1707.66,-120.556 1698.07,-125.06 1708.38,-127.52 1707.66,-120.556"/>
</g>
<!-- Node42 -->
<g id="node42" class="node"><title>Node42</title>
<g id="a_node42"><a xlink:href="classNavEKF3__core.html#a2a7fae9e0bf2ce6fc2f9b3918dc168d3" target="_top" xlink:title="NavEKF3_core::UpdateFilter">
<polygon fill="white" stroke="black" points="1935,-103.5 1935,-122.5 2078,-122.5 2078,-103.5 1935,-103.5"/>
<text text-anchor="middle" x="2006.5" y="-110.5" font-family="Helvetica,sans-Serif" font-size="10.00">NavEKF3_core::UpdateFilter</text>
</a>
</g>
</g>
<!-- Node41&#45;&gt;Node42 -->
<g id="edge53" class="edge"><title>Node41&#45;&gt;Node42</title>
<path fill="none" stroke="midnightblue" d="M1909.22,-113C1917.83,-113 1926.47,-113 1934.84,-113"/>
<polygon fill="midnightblue" stroke="midnightblue" points="1909.14,-109.5 1899.14,-113 1909.14,-116.5 1909.14,-109.5"/>
</g>
<!-- Node43 -->
<g id="node43" class="node"><title>Node43</title>
<g id="a_node43"><a xlink:href="classNavEKF3.html#a477020fcf29376e0c2205dbf79728104" target="_top" xlink:title="NavEKF3::UpdateFilter">
<polygon fill="white" stroke="black" points="2116,-103.5 2116,-122.5 2235,-122.5 2235,-103.5 2116,-103.5"/>
<text text-anchor="middle" x="2175.5" y="-110.5" font-family="Helvetica,sans-Serif" font-size="10.00">NavEKF3::UpdateFilter</text>
</a>
</g>
</g>
<!-- Node42&#45;&gt;Node43 -->
<g id="edge54" class="edge"><title>Node42&#45;&gt;Node43</title>
<path fill="none" stroke="midnightblue" d="M2088.37,-113C2097.67,-113 2107.01,-113 2115.93,-113"/>
<polygon fill="midnightblue" stroke="midnightblue" points="2088.32,-109.5 2078.32,-113 2088.32,-116.5 2088.32,-109.5"/>
</g>
<!-- Node43&#45;&gt;Node37 -->
<g id="edge55" class="edge"><title>Node43&#45;&gt;Node37</title>
<path fill="none" stroke="midnightblue" d="M2245.2,-120.192C2254.22,-121.136 2263.55,-122.112 2272.79,-123.08"/>
<polygon fill="midnightblue" stroke="midnightblue" points="2245.49,-116.703 2235.18,-119.143 2244.76,-123.665 2245.49,-116.703"/>
</g>
<!-- Node43&#45;&gt;Node38 -->
<g id="edge56" class="edge"><title>Node43&#45;&gt;Node38</title>
<path fill="none" stroke="midnightblue" d="M2245.31,-105.797C2263.28,-103.916 2282.47,-101.906 2299.84,-100.089"/>
<polygon fill="midnightblue" stroke="midnightblue" points="2244.76,-102.335 2235.18,-106.857 2245.49,-109.297 2244.76,-102.335"/>
</g>
</g>
</svg>
