<?xml version="1.0" encoding="UTF-8" standalone="no"?>
<!DOCTYPE svg PUBLIC "-//W3C//DTD SVG 1.1//EN"
 "http://www.w3.org/Graphics/SVG/1.1/DTD/svg11.dtd">
<!-- Generated by graphviz version 2.38.0 (20140413.2041)
 -->
<!-- Title: NavEKF3_core::initialiseQuatCovariances Pages: 1 -->
<svg width="1609pt" height="336pt"
 viewBox="0.00 0.00 1609.00 335.50" xmlns="http://www.w3.org/2000/svg" xmlns:xlink="http://www.w3.org/1999/xlink">
<g id="graph0" class="graph" transform="scale(1 1) rotate(0) translate(4 331.5)">
<title>NavEKF3_core::initialiseQuatCovariances</title>
<polygon fill="white" stroke="none" points="-4,4 -4,-331.5 1605,-331.5 1605,4 -4,4"/>
<!-- Node1 -->
<g id="node1" class="node"><title>Node1</title>
<polygon fill="#bfbfbf" stroke="black" points="0,-258.5 0,-288.5 125,-288.5 125,-258.5 0,-258.5"/>
<text text-anchor="start" x="8" y="-276.5" font-family="Helvetica,sans-Serif" font-size="10.00">NavEKF3_core::initialise</text>
<text text-anchor="middle" x="62.5" y="-265.5" font-family="Helvetica,sans-Serif" font-size="10.00">QuatCovariances</text>
</g>
<!-- Node2 -->
<g id="node2" class="node"><title>Node2</title>
<g id="a_node2"><a xlink:href="classNavEKF3__core.html#ae050fc8e6c45d5134f8cba8dabc719e8" target="_top" xlink:title="NavEKF3_core::controlMag\lYawReset">
<polygon fill="white" stroke="black" points="171.5,-258.5 171.5,-288.5 308.5,-288.5 308.5,-258.5 171.5,-258.5"/>
<text text-anchor="start" x="179.5" y="-276.5" font-family="Helvetica,sans-Serif" font-size="10.00">NavEKF3_core::controlMag</text>
<text text-anchor="middle" x="240" y="-265.5" font-family="Helvetica,sans-Serif" font-size="10.00">YawReset</text>
</a>
</g>
</g>
<!-- Node1&#45;&gt;Node2 -->
<g id="edge1" class="edge"><title>Node1&#45;&gt;Node2</title>
<path fill="none" stroke="midnightblue" d="M135.649,-273.5C147.481,-273.5 159.703,-273.5 171.419,-273.5"/>
<polygon fill="midnightblue" stroke="midnightblue" points="135.375,-270 125.375,-273.5 135.375,-277 135.375,-270"/>
</g>
<!-- Node12 -->
<g id="node12" class="node"><title>Node12</title>
<g id="a_node12"><a xlink:href="classNavEKF3__core.html#a4f27a74890ed2b37858a754a05c8fc5b" target="_top" xlink:title="NavEKF3_core::CovarianceInit">
<polygon fill="white" stroke="black" points="164,-156 164,-175 316,-175 316,-156 164,-156"/>
<text text-anchor="middle" x="240" y="-163" font-family="Helvetica,sans-Serif" font-size="10.00">NavEKF3_core::CovarianceInit</text>
</a>
</g>
</g>
<!-- Node1&#45;&gt;Node12 -->
<g id="edge11" class="edge"><title>Node1&#45;&gt;Node12</title>
<path fill="none" stroke="midnightblue" d="M96.5298,-253.174C134.325,-229.916 194.659,-192.787 223.135,-175.263"/>
<polygon fill="midnightblue" stroke="midnightblue" points="94.5848,-250.261 87.9025,-258.483 98.2535,-256.223 94.5848,-250.261"/>
</g>
<!-- Node25 -->
<g id="node25" class="node"><title>Node25</title>
<g id="a_node25"><a xlink:href="classNavEKF3__core.html#a178c96e9746f94c6aff4c1af261f1a02" target="_top" xlink:title="NavEKF3_core::realignYawGPS">
<polygon fill="white" stroke="black" points="161,-308 161,-327 319,-327 319,-308 161,-308"/>
<text text-anchor="middle" x="240" y="-315" font-family="Helvetica,sans-Serif" font-size="10.00">NavEKF3_core::realignYawGPS</text>
</a>
</g>
</g>
<!-- Node1&#45;&gt;Node25 -->
<g id="edge31" class="edge"><title>Node1&#45;&gt;Node25</title>
<path fill="none" stroke="midnightblue" d="M133.198,-290.974C156.341,-296.776 181.235,-303.018 201.058,-307.988"/>
<polygon fill="midnightblue" stroke="midnightblue" points="133.957,-287.556 123.406,-288.519 132.255,-294.346 133.957,-287.556"/>
</g>
<!-- Node3 -->
<g id="node3" class="node"><title>Node3</title>
<g id="a_node3"><a xlink:href="classNavEKF3__core.html#a800d407d377e6532d563c68cc3c731d8" target="_top" xlink:title="NavEKF3_core::SelectMagFusion">
<polygon fill="white" stroke="black" points="564,-223 564,-242 729,-242 729,-223 564,-223"/>
<text text-anchor="middle" x="646.5" y="-230" font-family="Helvetica,sans-Serif" font-size="10.00">NavEKF3_core::SelectMagFusion</text>
</a>
</g>
</g>
<!-- Node2&#45;&gt;Node3 -->
<g id="edge2" class="edge"><title>Node2&#45;&gt;Node3</title>
<path fill="none" stroke="midnightblue" d="M318.779,-273.931C376.723,-273.295 457.642,-270.386 528,-260.5 557.073,-256.415 589.488,-248.424 612.896,-242.021"/>
<polygon fill="midnightblue" stroke="midnightblue" points="318.566,-270.433 308.598,-274.022 318.629,-277.433 318.566,-270.433"/>
</g>
<!-- Node4 -->
<g id="node4" class="node"><title>Node4</title>
<g id="a_node4"><a xlink:href="classNavEKF3__core.html#a2a7fae9e0bf2ce6fc2f9b3918dc168d3" target="_top" xlink:title="NavEKF3_core::UpdateFilter">
<polygon fill="white" stroke="black" points="765,-154 765,-173 908,-173 908,-154 765,-154"/>
<text text-anchor="middle" x="836.5" y="-161" font-family="Helvetica,sans-Serif" font-size="10.00">NavEKF3_core::UpdateFilter</text>
</a>
</g>
</g>
<!-- Node3&#45;&gt;Node4 -->
<g id="edge3" class="edge"><title>Node3&#45;&gt;Node4</title>
<path fill="none" stroke="midnightblue" d="M685.837,-219.651C699.499,-214.988 714.973,-209.608 729,-204.5 757.483,-194.128 789.961,-181.509 811.485,-173.034"/>
<polygon fill="midnightblue" stroke="midnightblue" points="684.598,-216.376 676.256,-222.907 686.85,-223.004 684.598,-216.376"/>
</g>
<!-- Node5 -->
<g id="node5" class="node"><title>Node5</title>
<g id="a_node5"><a xlink:href="classNavEKF3.html#a477020fcf29376e0c2205dbf79728104" target="_top" xlink:title="NavEKF3::UpdateFilter">
<polygon fill="white" stroke="black" points="946,-129 946,-148 1065,-148 1065,-129 946,-129"/>
<text text-anchor="middle" x="1005.5" y="-136" font-family="Helvetica,sans-Serif" font-size="10.00">NavEKF3::UpdateFilter</text>
</a>
</g>
</g>
<!-- Node4&#45;&gt;Node5 -->
<g id="edge4" class="edge"><title>Node4&#45;&gt;Node5</title>
<path fill="none" stroke="midnightblue" d="M911.184,-152.469C922.747,-150.739 934.563,-148.97 945.731,-147.298"/>
<polygon fill="midnightblue" stroke="midnightblue" points="910.484,-149.035 901.112,-153.977 911.52,-155.958 910.484,-149.035"/>
</g>
<!-- Node6 -->
<g id="node6" class="node"><title>Node6</title>
<g id="a_node6"><a xlink:href="classNavEKF3.html#a3e1f50ad977a17222fcd7a6851b0f2ec" target="_top" xlink:title="NavEKF3::activeCores">
<polygon fill="white" stroke="black" points="1130,-129 1130,-148 1248,-148 1248,-129 1130,-129"/>
<text text-anchor="middle" x="1189" y="-136" font-family="Helvetica,sans-Serif" font-size="10.00">NavEKF3::activeCores</text>
</a>
</g>
</g>
<!-- Node5&#45;&gt;Node6 -->
<g id="edge5" class="edge"><title>Node5&#45;&gt;Node6</title>
<path fill="none" stroke="midnightblue" d="M1075.31,-138.5C1093.28,-138.5 1112.47,-138.5 1129.84,-138.5"/>
<polygon fill="midnightblue" stroke="midnightblue" points="1075.18,-135 1065.18,-138.5 1075.18,-142 1075.18,-135"/>
</g>
<!-- Node9 -->
<g id="node9" class="node"><title>Node9</title>
<g id="a_node9"><a xlink:href="classAP__AHRS__NavEKF.html#a324160404f12959e955554f5aed26459" target="_top" xlink:title="AP_AHRS_NavEKF::update_EKF3">
<polygon fill="white" stroke="black" points="1103,-88 1103,-107 1275,-107 1275,-88 1103,-88"/>
<text text-anchor="middle" x="1189" y="-95" font-family="Helvetica,sans-Serif" font-size="10.00">AP_AHRS_NavEKF::update_EKF3</text>
</a>
</g>
</g>
<!-- Node5&#45;&gt;Node9 -->
<g id="edge8" class="edge"><title>Node5&#45;&gt;Node9</title>
<path fill="none" stroke="midnightblue" d="M1058.5,-126.753C1086.18,-120.501 1119.78,-112.911 1145.82,-107.029"/>
<polygon fill="midnightblue" stroke="midnightblue" points="1057.58,-123.373 1048.6,-128.991 1059.12,-130.201 1057.58,-123.373"/>
</g>
<!-- Node7 -->
<g id="node7" class="node"><title>Node7</title>
<g id="a_node7"><a xlink:href="classDataFlash__Class.html#a46e58faaa53c44516433f6bb7bde4163" target="_top" xlink:title="DataFlash_Class::Log\l_Write_POS">
<polygon fill="white" stroke="black" points="1325,-125.5 1325,-155.5 1439,-155.5 1439,-125.5 1325,-125.5"/>
<text text-anchor="start" x="1333" y="-143.5" font-family="Helvetica,sans-Serif" font-size="10.00">DataFlash_Class::Log</text>
<text text-anchor="middle" x="1382" y="-132.5" font-family="Helvetica,sans-Serif" font-size="10.00">_Write_POS</text>
</a>
</g>
</g>
<!-- Node6&#45;&gt;Node7 -->
<g id="edge6" class="edge"><title>Node6&#45;&gt;Node7</title>
<path fill="none" stroke="midnightblue" d="M1258.27,-139.215C1280.09,-139.443 1303.98,-139.693 1324.83,-139.912"/>
<polygon fill="midnightblue" stroke="midnightblue" points="1258.12,-135.713 1248.08,-139.108 1258.05,-142.713 1258.12,-135.713"/>
</g>
<!-- Node8 -->
<g id="node8" class="node"><title>Node8</title>
<g id="a_node8"><a xlink:href="classDataFlash__Class.html#a7868f0e3dcef65ea5b5fcae618f4c5d4" target="_top" xlink:title="DataFlash_Class::get\l_structures">
<polygon fill="white" stroke="black" points="1489,-125.5 1489,-155.5 1601,-155.5 1601,-125.5 1489,-125.5"/>
<text text-anchor="start" x="1497" y="-143.5" font-family="Helvetica,sans-Serif" font-size="10.00">DataFlash_Class::get</text>
<text text-anchor="middle" x="1545" y="-132.5" font-family="Helvetica,sans-Serif" font-size="10.00">_structures</text>
</a>
</g>
</g>
<!-- Node7&#45;&gt;Node8 -->
<g id="edge7" class="edge"><title>Node7&#45;&gt;Node8</title>
<path fill="none" stroke="midnightblue" d="M1449.63,-140.5C1462.66,-140.5 1476.2,-140.5 1488.81,-140.5"/>
<polygon fill="midnightblue" stroke="midnightblue" points="1449.31,-137 1439.31,-140.5 1449.31,-144 1449.31,-137"/>
</g>
<!-- Node10 -->
<g id="node10" class="node"><title>Node10</title>
<g id="a_node10"><a xlink:href="classAP__AHRS__NavEKF.html#ac8111979c5dc37a55b2c50818534ea52" target="_top" xlink:title="AP_AHRS_NavEKF::update">
<polygon fill="white" stroke="black" points="1311,-87 1311,-106 1453,-106 1453,-87 1311,-87"/>
<text text-anchor="middle" x="1382" y="-94" font-family="Helvetica,sans-Serif" font-size="10.00">AP_AHRS_NavEKF::update</text>
</a>
</g>
</g>
<!-- Node9&#45;&gt;Node10 -->
<g id="edge9" class="edge"><title>Node9&#45;&gt;Node10</title>
<path fill="none" stroke="midnightblue" d="M1285.27,-97.0012C1293.9,-96.956 1302.53,-96.9109 1310.87,-96.8671"/>
<polygon fill="midnightblue" stroke="midnightblue" points="1285.15,-93.5017 1275.17,-97.0541 1285.18,-100.502 1285.15,-93.5017"/>
</g>
<!-- Node11 -->
<g id="node11" class="node"><title>Node11</title>
<g id="a_node11"><a xlink:href="AHRS__Test_8cpp.html#a0b33edabd7f1c4e4a0bf32c67269be2f" target="_top" xlink:title="loop">
<polygon fill="white" stroke="black" points="1527.5,-87 1527.5,-106 1562.5,-106 1562.5,-87 1527.5,-87"/>
<text text-anchor="middle" x="1545" y="-94" font-family="Helvetica,sans-Serif" font-size="10.00">loop</text>
</a>
</g>
</g>
<!-- Node10&#45;&gt;Node11 -->
<g id="edge10" class="edge"><title>Node10&#45;&gt;Node11</title>
<path fill="none" stroke="midnightblue" d="M1463.17,-96.5C1487.48,-96.5 1511.83,-96.5 1527.35,-96.5"/>
<polygon fill="midnightblue" stroke="midnightblue" points="1463.15,-93.0001 1453.15,-96.5 1463.15,-100 1463.15,-93.0001"/>
</g>
<!-- Node13 -->
<g id="node13" class="node"><title>Node13</title>
<g id="a_node13"><a xlink:href="classNavEKF3__core.html#a28e3f859d036f39a91762f2808f3f880" target="_top" xlink:title="NavEKF3_core::FuseAirspeed">
<polygon fill="white" stroke="black" points="367,-156 367,-175 516,-175 516,-156 367,-156"/>
<text text-anchor="middle" x="441.5" y="-163" font-family="Helvetica,sans-Serif" font-size="10.00">NavEKF3_core::FuseAirspeed</text>
</a>
</g>
</g>
<!-- Node12&#45;&gt;Node13 -->
<g id="edge12" class="edge"><title>Node12&#45;&gt;Node13</title>
<path fill="none" stroke="midnightblue" d="M326.337,-165.5C339.787,-165.5 353.594,-165.5 366.753,-165.5"/>
<polygon fill="midnightblue" stroke="midnightblue" points="326.138,-162 316.138,-165.5 326.138,-169 326.138,-162"/>
</g>
<!-- Node15 -->
<g id="node15" class="node"><title>Node15</title>
<g id="a_node15"><a xlink:href="classNavEKF3__core.html#a8804c6d0e9bfc1f0fee35bbb76bc7d90" target="_top" xlink:title="NavEKF3_core::fuseEulerYaw">
<polygon fill="white" stroke="black" points="366.5,-194 366.5,-213 516.5,-213 516.5,-194 366.5,-194"/>
<text text-anchor="middle" x="441.5" y="-201" font-family="Helvetica,sans-Serif" font-size="10.00">NavEKF3_core::fuseEulerYaw</text>
</a>
</g>
</g>
<!-- Node12&#45;&gt;Node15 -->
<g id="edge15" class="edge"><title>Node12&#45;&gt;Node15</title>
<path fill="none" stroke="midnightblue" d="M300.945,-176.918C329.49,-182.355 363.237,-188.783 390.395,-193.956"/>
<polygon fill="midnightblue" stroke="midnightblue" points="301.563,-173.473 291.085,-175.04 300.253,-180.349 301.563,-173.473"/>
</g>
<!-- Node16 -->
<g id="node16" class="node"><title>Node16</title>
<g id="a_node16"><a xlink:href="classNavEKF3__core.html#a65c29d1065e003be6d6487e282c9681e" target="_top" xlink:title="NavEKF3_core::FuseMagnetometer">
<polygon fill="white" stroke="black" points="355,-232 355,-251 528,-251 528,-232 355,-232"/>
<text text-anchor="middle" x="441.5" y="-239" font-family="Helvetica,sans-Serif" font-size="10.00">NavEKF3_core::FuseMagnetometer</text>
</a>
</g>
</g>
<!-- Node12&#45;&gt;Node16 -->
<g id="edge17" class="edge"><title>Node12&#45;&gt;Node16</title>
<path fill="none" stroke="midnightblue" d="M265.964,-180.224C288.551,-192.995 323.07,-211.163 355,-222.5 365.461,-226.214 376.908,-229.355 387.928,-231.947"/>
<polygon fill="midnightblue" stroke="midnightblue" points="267.473,-177.055 257.056,-175.117 263.991,-183.128 267.473,-177.055"/>
</g>
<!-- Node17 -->
<g id="node17" class="node"><title>Node17</title>
<g id="a_node17"><a xlink:href="classNavEKF3__core.html#a99149e51e4719623c62948a32994cb33" target="_top" xlink:title="NavEKF3_core::FuseRngBcn">
<polygon fill="white" stroke="black" points="368.5,-118 368.5,-137 514.5,-137 514.5,-118 368.5,-118"/>
<text text-anchor="middle" x="441.5" y="-125" font-family="Helvetica,sans-Serif" font-size="10.00">NavEKF3_core::FuseRngBcn</text>
</a>
</g>
</g>
<!-- Node12&#45;&gt;Node17 -->
<g id="edge19" class="edge"><title>Node12&#45;&gt;Node17</title>
<path fill="none" stroke="midnightblue" d="M300.945,-154.082C329.49,-148.645 363.237,-142.217 390.395,-137.044"/>
<polygon fill="midnightblue" stroke="midnightblue" points="300.253,-150.651 291.085,-155.96 301.563,-157.527 300.253,-150.651"/>
</g>
<!-- Node19 -->
<g id="node19" class="node"><title>Node19</title>
<g id="a_node19"><a xlink:href="classNavEKF3__core.html#ab794034b31dce4e7ef45299e8aa33bb7" target="_top" xlink:title="NavEKF3_core::FuseSideslip">
<polygon fill="white" stroke="black" points="368.5,-80 368.5,-99 514.5,-99 514.5,-80 368.5,-80"/>
<text text-anchor="middle" x="441.5" y="-87" font-family="Helvetica,sans-Serif" font-size="10.00">NavEKF3_core::FuseSideslip</text>
</a>
</g>
</g>
<!-- Node12&#45;&gt;Node19 -->
<g id="edge22" class="edge"><title>Node12&#45;&gt;Node19</title>
<path fill="none" stroke="midnightblue" d="M265.964,-150.776C288.551,-138.005 323.07,-119.837 355,-108.5 365.461,-104.786 376.908,-101.645 387.928,-99.0528"/>
<polygon fill="midnightblue" stroke="midnightblue" points="263.991,-147.872 257.056,-155.883 267.473,-153.945 263.991,-147.872"/>
</g>
<!-- Node21 -->
<g id="node21" class="node"><title>Node21</title>
<g id="a_node21"><a xlink:href="classNavEKF3__core.html#aae18ada44b1b7be0d45af03391ef961a" target="_top" xlink:title="NavEKF3_core::Initialise\lFilterBootstrap">
<polygon fill="white" stroke="black" points="774,-36.5 774,-66.5 899,-66.5 899,-36.5 774,-36.5"/>
<text text-anchor="start" x="782" y="-54.5" font-family="Helvetica,sans-Serif" font-size="10.00">NavEKF3_core::Initialise</text>
<text text-anchor="middle" x="836.5" y="-43.5" font-family="Helvetica,sans-Serif" font-size="10.00">FilterBootstrap</text>
</a>
</g>
</g>
<!-- Node12&#45;&gt;Node21 -->
<g id="edge25" class="edge"><title>Node12&#45;&gt;Node21</title>
<path fill="none" stroke="midnightblue" d="M255.186,-148.068C274.852,-125.385 312.782,-86.7355 355,-70.5 496.818,-15.9618 679.849,-29.3669 773.813,-41.6738"/>
<polygon fill="midnightblue" stroke="midnightblue" points="252.35,-146.002 248.572,-155.9 257.698,-150.518 252.35,-146.002"/>
</g>
<!-- Node14 -->
<g id="node14" class="node"><title>Node14</title>
<g id="a_node14"><a xlink:href="classNavEKF3__core.html#a26f75214891e1ce1406fd8f6aea398de" target="_top" xlink:title="NavEKF3_core::SelectTasFusion">
<polygon fill="white" stroke="black" points="565,-176 565,-195 728,-195 728,-176 565,-176"/>
<text text-anchor="middle" x="646.5" y="-183" font-family="Helvetica,sans-Serif" font-size="10.00">NavEKF3_core::SelectTasFusion</text>
</a>
</g>
</g>
<!-- Node13&#45;&gt;Node14 -->
<g id="edge13" class="edge"><title>Node13&#45;&gt;Node14</title>
<path fill="none" stroke="midnightblue" d="M526.243,-173.751C539.046,-175.012 552.239,-176.312 564.971,-177.566"/>
<polygon fill="midnightblue" stroke="midnightblue" points="526.37,-170.246 516.075,-172.749 525.683,-177.212 526.37,-170.246"/>
</g>
<!-- Node14&#45;&gt;Node4 -->
<g id="edge14" class="edge"><title>Node14&#45;&gt;Node4</title>
<path fill="none" stroke="midnightblue" d="M738.155,-174.891C747.139,-173.84 756.163,-172.784 764.9,-171.762"/>
<polygon fill="midnightblue" stroke="midnightblue" points="737.572,-171.436 728.047,-176.074 738.386,-178.388 737.572,-171.436"/>
</g>
<!-- Node15&#45;&gt;Node3 -->
<g id="edge16" class="edge"><title>Node15&#45;&gt;Node3</title>
<path fill="none" stroke="midnightblue" d="M519.334,-214.476C538.875,-217.268 559.714,-220.245 578.709,-222.958"/>
<polygon fill="midnightblue" stroke="midnightblue" points="519.645,-210.985 509.251,-213.036 518.655,-217.915 519.645,-210.985"/>
</g>
<!-- Node16&#45;&gt;Node3 -->
<g id="edge18" class="edge"><title>Node16&#45;&gt;Node3</title>
<path fill="none" stroke="midnightblue" d="M538.115,-237.261C546.766,-236.877 555.473,-236.491 563.985,-236.114"/>
<polygon fill="midnightblue" stroke="midnightblue" points="537.837,-233.77 528.002,-237.709 538.147,-240.763 537.837,-233.77"/>
</g>
<!-- Node18 -->
<g id="node18" class="node"><title>Node18</title>
<g id="a_node18"><a xlink:href="classNavEKF3__core.html#ab1243cfd0f479cedb39ed8706d4256f6" target="_top" xlink:title="NavEKF3_core::SelectRngBcn\lFusion">
<polygon fill="white" stroke="black" points="570.5,-126.5 570.5,-156.5 722.5,-156.5 722.5,-126.5 570.5,-126.5"/>
<text text-anchor="start" x="578.5" y="-144.5" font-family="Helvetica,sans-Serif" font-size="10.00">NavEKF3_core::SelectRngBcn</text>
<text text-anchor="middle" x="646.5" y="-133.5" font-family="Helvetica,sans-Serif" font-size="10.00">Fusion</text>
</a>
</g>
</g>
<!-- Node17&#45;&gt;Node18 -->
<g id="edge20" class="edge"><title>Node17&#45;&gt;Node18</title>
<path fill="none" stroke="midnightblue" d="M524.896,-133.182C539.863,-134.215 555.406,-135.287 570.158,-136.304"/>
<polygon fill="midnightblue" stroke="midnightblue" points="524.859,-129.672 514.642,-132.475 524.377,-136.655 524.859,-129.672"/>
</g>
<!-- Node18&#45;&gt;Node4 -->
<g id="edge21" class="edge"><title>Node18&#45;&gt;Node4</title>
<path fill="none" stroke="midnightblue" d="M732.802,-151.482C743.497,-152.734 754.343,-154.003 764.781,-155.224"/>
<polygon fill="midnightblue" stroke="midnightblue" points="732.952,-147.976 722.613,-150.29 732.138,-154.928 732.952,-147.976"/>
</g>
<!-- Node20 -->
<g id="node20" class="node"><title>Node20</title>
<g id="a_node20"><a xlink:href="classNavEKF3__core.html#a0fa0f99fd7c7af270855172e7873eda6" target="_top" xlink:title="NavEKF3_core::SelectBeta\lFusion">
<polygon fill="white" stroke="black" points="578,-77.5 578,-107.5 715,-107.5 715,-77.5 578,-77.5"/>
<text text-anchor="start" x="586" y="-95.5" font-family="Helvetica,sans-Serif" font-size="10.00">NavEKF3_core::SelectBeta</text>
<text text-anchor="middle" x="646.5" y="-84.5" font-family="Helvetica,sans-Serif" font-size="10.00">Fusion</text>
</a>
</g>
</g>
<!-- Node19&#45;&gt;Node20 -->
<g id="edge23" class="edge"><title>Node19&#45;&gt;Node20</title>
<path fill="none" stroke="midnightblue" d="M524.863,-90.7172C542.406,-90.9764 560.74,-91.2474 577.666,-91.4975"/>
<polygon fill="midnightblue" stroke="midnightblue" points="524.692,-87.2144 514.642,-90.5661 524.589,-94.2136 524.692,-87.2144"/>
</g>
<!-- Node20&#45;&gt;Node4 -->
<g id="edge24" class="edge"><title>Node20&#45;&gt;Node4</title>
<path fill="none" stroke="midnightblue" d="M711.943,-110.633C717.743,-112.519 723.499,-114.486 729,-116.5 759.934,-127.827 794.652,-143.784 815.794,-153.883"/>
<polygon fill="midnightblue" stroke="midnightblue" points="712.77,-107.223 702.18,-107.541 710.657,-113.897 712.77,-107.223"/>
</g>
<!-- Node22 -->
<g id="node22" class="node"><title>Node22</title>
<g id="a_node22"><a xlink:href="classNavEKF3.html#a07f064fa513fbb6e7188141904f3b5b5" target="_top" xlink:title="NavEKF3::InitialiseFilter">
<polygon fill="white" stroke="black" points="944,-50 944,-69 1067,-69 1067,-50 944,-50"/>
<text text-anchor="middle" x="1005.5" y="-57" font-family="Helvetica,sans-Serif" font-size="10.00">NavEKF3::InitialiseFilter</text>
</a>
</g>
</g>
<!-- Node21&#45;&gt;Node22 -->
<g id="edge26" class="edge"><title>Node21&#45;&gt;Node22</title>
<path fill="none" stroke="midnightblue" d="M909.249,-54.9371C920.788,-55.4899 932.633,-56.0573 943.878,-56.596"/>
<polygon fill="midnightblue" stroke="midnightblue" points="909.366,-51.4388 899.21,-54.4562 909.031,-58.4308 909.366,-51.4388"/>
</g>
<!-- Node22&#45;&gt;Node6 -->
<g id="edge27" class="edge"><title>Node22&#45;&gt;Node6</title>
<path fill="none" stroke="midnightblue" d="M1028.42,-74.8711C1047.4,-87.5735 1075.97,-105.283 1103,-116.5 1115.11,-121.525 1128.67,-125.657 1141.35,-128.928"/>
<polygon fill="midnightblue" stroke="midnightblue" points="1030.16,-71.8215 1019.92,-69.0879 1026.22,-77.6082 1030.16,-71.8215"/>
</g>
<!-- Node22&#45;&gt;Node9 -->
<g id="edge30" class="edge"><title>Node22&#45;&gt;Node9</title>
<path fill="none" stroke="midnightblue" d="M1062.29,-71.181C1088.03,-76.5699 1118.2,-82.8861 1142.53,-87.9799"/>
<polygon fill="midnightblue" stroke="midnightblue" points="1062.81,-67.7126 1052.3,-69.089 1061.37,-74.564 1062.81,-67.7126"/>
</g>
<!-- Node23 -->
<g id="node23" class="node"><title>Node23</title>
<g id="a_node23"><a xlink:href="classAP__AHRS__NavEKF.html#a532ff0df024a4537e5a108c42ba405a7" target="_top" xlink:title="AP_AHRS_NavEKF::reset">
<polygon fill="white" stroke="black" points="1122,-50 1122,-69 1256,-69 1256,-50 1122,-50"/>
<text text-anchor="middle" x="1189" y="-57" font-family="Helvetica,sans-Serif" font-size="10.00">AP_AHRS_NavEKF::reset</text>
</a>
</g>
</g>
<!-- Node22&#45;&gt;Node23 -->
<g id="edge28" class="edge"><title>Node22&#45;&gt;Node23</title>
<path fill="none" stroke="midnightblue" d="M1077.2,-59.5C1091.86,-59.5 1107.26,-59.5 1121.75,-59.5"/>
<polygon fill="midnightblue" stroke="midnightblue" points="1077.19,-56.0001 1067.19,-59.5 1077.19,-63.0001 1077.19,-56.0001"/>
</g>
<!-- Node24 -->
<g id="node24" class="node"><title>Node24</title>
<g id="a_node24"><a xlink:href="classAP__AHRS__NavEKF.html#a9bd3c7f1793a48cd0d736b19fbfaf19a" target="_top" xlink:title="AP_AHRS_NavEKF::reset\l_attitude">
<polygon fill="white" stroke="black" points="1122,-0.5 1122,-30.5 1256,-30.5 1256,-0.5 1122,-0.5"/>
<text text-anchor="start" x="1130" y="-18.5" font-family="Helvetica,sans-Serif" font-size="10.00">AP_AHRS_NavEKF::reset</text>
<text text-anchor="middle" x="1189" y="-7.5" font-family="Helvetica,sans-Serif" font-size="10.00">_attitude</text>
</a>
</g>
</g>
<!-- Node22&#45;&gt;Node24 -->
<g id="edge29" class="edge"><title>Node22&#45;&gt;Node24</title>
<path fill="none" stroke="midnightblue" d="M1055.81,-47.545C1077.41,-42.3108 1102.98,-36.1107 1125.86,-30.5654"/>
<polygon fill="midnightblue" stroke="midnightblue" points="1054.78,-44.1951 1045.88,-49.9527 1056.43,-50.9981 1054.78,-44.1951"/>
</g>
<!-- Node26 -->
<g id="node26" class="node"><title>Node26</title>
<g id="a_node26"><a xlink:href="classNavEKF3__core.html#a8f4723dabc873f7112948a18b290fb01" target="_top" xlink:title="NavEKF3_core::SelectVelPos\lFusion">
<polygon fill="white" stroke="black" points="572,-281.5 572,-311.5 721,-311.5 721,-281.5 572,-281.5"/>
<text text-anchor="start" x="580" y="-299.5" font-family="Helvetica,sans-Serif" font-size="10.00">NavEKF3_core::SelectVelPos</text>
<text text-anchor="middle" x="646.5" y="-288.5" font-family="Helvetica,sans-Serif" font-size="10.00">Fusion</text>
</a>
</g>
</g>
<!-- Node25&#45;&gt;Node26 -->
<g id="edge32" class="edge"><title>Node25&#45;&gt;Node26</title>
<path fill="none" stroke="midnightblue" d="M329.507,-312.905C402.032,-309.14 503.473,-303.873 571.678,-300.333"/>
<polygon fill="midnightblue" stroke="midnightblue" points="329.276,-309.412 319.471,-313.426 329.639,-316.403 329.276,-309.412"/>
</g>
<!-- Node26&#45;&gt;Node4 -->
<g id="edge33" class="edge"><title>Node26&#45;&gt;Node4</title>
<path fill="none" stroke="midnightblue" d="M687.22,-276.488C700.797,-269.15 715.863,-260.44 729,-251.5 766.477,-225.996 806.666,-190.185 825.135,-173.187"/>
<polygon fill="midnightblue" stroke="midnightblue" points="685.288,-273.551 678.101,-281.336 688.573,-279.732 685.288,-273.551"/>
</g>
</g>
</svg>
