<?xml version="1.0" encoding="UTF-8" standalone="no"?>
<!DOCTYPE svg PUBLIC "-//W3C//DTD SVG 1.1//EN"
 "http://www.w3.org/Graphics/SVG/1.1/DTD/svg11.dtd">
<!-- Generated by graphviz version 2.38.0 (20140413.2041)
 -->
<!-- Title: AP_RPM::init Pages: 1 -->
<svg width="320pt" height="66pt"
 viewBox="0.00 0.00 320.00 66.00" xmlns="http://www.w3.org/2000/svg" xmlns:xlink="http://www.w3.org/1999/xlink">
<g id="graph0" class="graph" transform="scale(1 1) rotate(0) translate(4 62)">
<title>AP_RPM::init</title>
<polygon fill="white" stroke="none" points="-4,4 -4,-62 316,-62 316,4 -4,4"/>
<!-- Node1 -->
<g id="node1" class="node"><title>Node1</title>
<polygon fill="#bfbfbf" stroke="black" points="0,-19.5 0,-38.5 77,-38.5 77,-19.5 0,-19.5"/>
<text text-anchor="middle" x="38.5" y="-26.5" font-family="Helvetica,sans-Serif" font-size="10.00">AP_RPM::init</text>
</g>
<!-- Node2 -->
<g id="node2" class="node"><title>Node2</title>
<g id="a_node2"><a xlink:href="classAP__RPM.html#a62a1bd25e81e3d29badb6a89c2ca90ed" target="_top" xlink:title="AP_RPM::num_sensors">
<polygon fill="white" stroke="black" points="113,-0.5 113,-19.5 235,-19.5 235,-0.5 113,-0.5"/>
<text text-anchor="middle" x="174" y="-7.5" font-family="Helvetica,sans-Serif" font-size="10.00">AP_RPM::num_sensors</text>
</a>
</g>
</g>
<!-- Node1&#45;&gt;Node2 -->
<g id="edge1" class="edge"><title>Node1&#45;&gt;Node2</title>
<path fill="none" stroke="midnightblue" d="M86.9703,-22.2439C95.3207,-21.0555 104.111,-19.8044 112.755,-18.5742"/>
<polygon fill="midnightblue" stroke="midnightblue" points="86.4495,-18.7827 77.0425,-23.6569 87.4359,-25.7129 86.4495,-18.7827"/>
</g>
<!-- Node3 -->
<g id="node3" class="node"><title>Node3</title>
<g id="a_node3"><a xlink:href="RPM__generic_8cpp.html#a4fc01d736fe50cf5b977f755b675f11d" target="_top" xlink:title="setup">
<polygon fill="white" stroke="black" points="271,-38.5 271,-57.5 312,-57.5 312,-38.5 271,-38.5"/>
<text text-anchor="middle" x="291.5" y="-45.5" font-family="Helvetica,sans-Serif" font-size="10.00">setup</text>
</a>
</g>
</g>
<!-- Node1&#45;&gt;Node3 -->
<g id="edge4" class="edge"><title>Node1&#45;&gt;Node3</title>
<path fill="none" stroke="midnightblue" d="M87.3748,-32.624C142.901,-36.8271 231.809,-43.5573 270.938,-46.5192"/>
<polygon fill="midnightblue" stroke="midnightblue" points="87.3129,-29.1094 77.0772,-31.8445 86.7845,-36.0894 87.3129,-29.1094"/>
</g>
<!-- Node2&#45;&gt;Node3 -->
<g id="edge2" class="edge"><title>Node2&#45;&gt;Node3</title>
<path fill="none" stroke="midnightblue" d="M213.819,-22.7715C232.959,-29.0687 255.219,-36.3924 270.809,-41.5215"/>
<polygon fill="midnightblue" stroke="midnightblue" points="214.738,-19.3896 204.146,-19.589 212.551,-26.039 214.738,-19.3896"/>
</g>
<!-- Node4 -->
<g id="node4" class="node"><title>Node4</title>
<g id="a_node4"><a xlink:href="RPM__generic_8cpp.html#a0b33edabd7f1c4e4a0bf32c67269be2f" target="_top" xlink:title="loop">
<polygon fill="white" stroke="black" points="274,-0.5 274,-19.5 309,-19.5 309,-0.5 274,-0.5"/>
<text text-anchor="middle" x="291.5" y="-7.5" font-family="Helvetica,sans-Serif" font-size="10.00">loop</text>
</a>
</g>
</g>
<!-- Node2&#45;&gt;Node4 -->
<g id="edge3" class="edge"><title>Node2&#45;&gt;Node4</title>
<path fill="none" stroke="midnightblue" d="M245.389,-10C255.964,-10 265.944,-10 273.815,-10"/>
<polygon fill="midnightblue" stroke="midnightblue" points="245.118,-6.5001 235.118,-10 245.118,-13.5001 245.118,-6.5001"/>
</g>
</g>
</svg>
