<?xml version="1.0" encoding="UTF-8" standalone="no"?>
<!DOCTYPE svg PUBLIC "-//W3C//DTD SVG 1.1//EN"
 "http://www.w3.org/Graphics/SVG/1.1/DTD/svg11.dtd">
<!-- Generated by graphviz version 2.38.0 (20140413.2041)
 -->
<!-- Title: AP_HAL::RCOutput::set_esc_scaling Pages: 1 -->
<svg width="778pt" height="179pt"
 viewBox="0.00 0.00 778.00 178.50" xmlns="http://www.w3.org/2000/svg" xmlns:xlink="http://www.w3.org/1999/xlink">
<g id="graph0" class="graph" transform="scale(1 1) rotate(0) translate(4 174.5)">
<title>AP_HAL::RCOutput::set_esc_scaling</title>
<polygon fill="white" stroke="none" points="-4,4 -4,-174.5 774,-174.5 774,4 -4,4"/>
<!-- Node1 -->
<g id="node1" class="node"><title>Node1</title>
<polygon fill="#bfbfbf" stroke="black" points="0,-66 0,-96 125,-96 125,-66 0,-66"/>
<text text-anchor="start" x="8" y="-84" font-family="Helvetica,sans-Serif" font-size="10.00">AP_HAL::RCOutput::set</text>
<text text-anchor="middle" x="62.5" y="-73" font-family="Helvetica,sans-Serif" font-size="10.00">_esc_scaling</text>
</g>
<!-- Node2 -->
<g id="node2" class="node"><title>Node2</title>
<g id="a_node2"><a xlink:href="classLinux_1_1RCOutput__Disco.html#a3ff6ff14689673d36f3c1e4d0deb4aee" target="_top" xlink:title="Linux::RCOutput_Disco\l::set_esc_scaling">
<polygon fill="white" stroke="black" points="163,-115 163,-145 284,-145 284,-115 163,-115"/>
<text text-anchor="start" x="171" y="-133" font-family="Helvetica,sans-Serif" font-size="10.00">Linux::RCOutput_Disco</text>
<text text-anchor="middle" x="223.5" y="-122" font-family="Helvetica,sans-Serif" font-size="10.00">::set_esc_scaling</text>
</a>
</g>
</g>
<!-- Node1&#45;&gt;Node2 -->
<g id="edge1" class="edge"><title>Node1&#45;&gt;Node2</title>
<path fill="none" stroke="midnightblue" d="M122.275,-99.1129C139.178,-104.322 157.426,-109.946 173.659,-114.948"/>
<polygon fill="midnightblue" stroke="midnightblue" points="123.09,-95.7018 112.503,-96.1014 121.028,-102.391 123.09,-95.7018"/>
</g>
<!-- Node7 -->
<g id="node7" class="node"><title>Node7</title>
<g id="a_node7"><a xlink:href="classSRV__Channels.html#ab1bddb11a6e4d941f57d61d2034863c9" target="_top" xlink:title="SRV_Channels::set_esc\l_scaling_for">
<polygon fill="white" stroke="black" points="161,-66 161,-96 286,-96 286,-66 161,-66"/>
<text text-anchor="start" x="169" y="-84" font-family="Helvetica,sans-Serif" font-size="10.00">SRV_Channels::set_esc</text>
<text text-anchor="middle" x="223.5" y="-73" font-family="Helvetica,sans-Serif" font-size="10.00">_scaling_for</text>
</a>
</g>
</g>
<!-- Node1&#45;&gt;Node7 -->
<g id="edge6" class="edge"><title>Node1&#45;&gt;Node7</title>
<path fill="none" stroke="midnightblue" d="M135.592,-81C143.99,-81 152.499,-81 160.74,-81"/>
<polygon fill="midnightblue" stroke="midnightblue" points="135.429,-77.5001 125.429,-81 135.429,-84.5001 135.429,-77.5001"/>
</g>
<!-- Node8 -->
<g id="node8" class="node"><title>Node8</title>
<g id="a_node8"><a xlink:href="classAP__MotorsMulticopter.html#a3428c9a4bc4fa071ef87d01abc9a6e10" target="_top" xlink:title="AP_MotorsMulticopter\l::set_throttle_range">
<polygon fill="white" stroke="black" points="167,-17 167,-47 280,-47 280,-17 167,-17"/>
<text text-anchor="start" x="175" y="-35" font-family="Helvetica,sans-Serif" font-size="10.00">AP_MotorsMulticopter</text>
<text text-anchor="middle" x="223.5" y="-24" font-family="Helvetica,sans-Serif" font-size="10.00">::set_throttle_range</text>
</a>
</g>
</g>
<!-- Node1&#45;&gt;Node8 -->
<g id="edge7" class="edge"><title>Node1&#45;&gt;Node8</title>
<path fill="none" stroke="midnightblue" d="M122.275,-62.8871C139.178,-57.6778 157.426,-52.0543 173.659,-47.0516"/>
<polygon fill="midnightblue" stroke="midnightblue" points="121.028,-59.6086 112.503,-65.8986 123.09,-66.2982 121.028,-59.6086"/>
</g>
<!-- Node3 -->
<g id="node3" class="node"><title>Node3</title>
<g id="a_node3"><a xlink:href="classLinux_1_1RCOutput__Disco.html#a8692caab118bef928bbc9cc2a0a494b9" target="_top" xlink:title="Linux::RCOutput_Disco\l::from">
<polygon fill="white" stroke="black" points="322,-115 322,-145 443,-145 443,-115 322,-115"/>
<text text-anchor="start" x="330" y="-133" font-family="Helvetica,sans-Serif" font-size="10.00">Linux::RCOutput_Disco</text>
<text text-anchor="middle" x="382.5" y="-122" font-family="Helvetica,sans-Serif" font-size="10.00">::from</text>
</a>
</g>
</g>
<!-- Node2&#45;&gt;Node3 -->
<g id="edge2" class="edge"><title>Node2&#45;&gt;Node3</title>
<path fill="none" stroke="midnightblue" d="M294.516,-130C303.644,-130 312.927,-130 321.863,-130"/>
<polygon fill="midnightblue" stroke="midnightblue" points="294.303,-126.5 284.303,-130 294.303,-133.5 294.303,-126.5"/>
</g>
<!-- Node4 -->
<g id="node4" class="node"><title>Node4</title>
<g id="a_node4"><a xlink:href="classAP__BattMonitor__Bebop.html#a21f5d7fd4482fff9ca7d42b91770871b" target="_top" xlink:title="AP_BattMonitor_Bebop\l::read">
<polygon fill="white" stroke="black" points="481.5,-140 481.5,-170 600.5,-170 600.5,-140 481.5,-140"/>
<text text-anchor="start" x="489.5" y="-158" font-family="Helvetica,sans-Serif" font-size="10.00">AP_BattMonitor_Bebop</text>
<text text-anchor="middle" x="541" y="-147" font-family="Helvetica,sans-Serif" font-size="10.00">::read</text>
</a>
</g>
</g>
<!-- Node3&#45;&gt;Node4 -->
<g id="edge3" class="edge"><title>Node3&#45;&gt;Node4</title>
<path fill="none" stroke="midnightblue" d="M453.211,-141.136C462.601,-142.636 472.157,-144.162 481.33,-145.628"/>
<polygon fill="midnightblue" stroke="midnightblue" points="453.539,-137.644 443.112,-139.523 452.435,-144.556 453.539,-137.644"/>
</g>
<!-- Node6 -->
<g id="node6" class="node"><title>Node6</title>
<g id="a_node6"><a xlink:href="classLinux_1_1ToneAlarm__Disco.html#a4560b4c776576123f40fbd85a3f9da37" target="_top" xlink:title="Linux::ToneAlarm_Disco\l::init">
<polygon fill="white" stroke="black" points="479,-91 479,-121 603,-121 603,-91 479,-91"/>
<text text-anchor="start" x="487" y="-109" font-family="Helvetica,sans-Serif" font-size="10.00">Linux::ToneAlarm_Disco</text>
<text text-anchor="middle" x="541" y="-98" font-family="Helvetica,sans-Serif" font-size="10.00">::init</text>
</a>
</g>
</g>
<!-- Node3&#45;&gt;Node6 -->
<g id="edge5" class="edge"><title>Node3&#45;&gt;Node6</title>
<path fill="none" stroke="midnightblue" d="M453.14,-119.32C461.759,-117.999 470.52,-116.655 478.996,-115.355"/>
<polygon fill="midnightblue" stroke="midnightblue" points="452.466,-115.883 443.112,-120.858 453.527,-122.802 452.466,-115.883"/>
</g>
<!-- Node5 -->
<g id="node5" class="node"><title>Node5</title>
<g id="a_node5"><a xlink:href="classAP__BattMonitor__Bebop.html#ae3bddd45e54f95f4641bf52fa8d32f8a" target="_top" xlink:title="AP_BattMonitor_Bebop\l::~AP_BattMonitor_Bebop">
<polygon fill="white" stroke="black" points="639,-140 639,-170 770,-170 770,-140 639,-140"/>
<text text-anchor="start" x="647" y="-158" font-family="Helvetica,sans-Serif" font-size="10.00">AP_BattMonitor_Bebop</text>
<text text-anchor="middle" x="704.5" y="-147" font-family="Helvetica,sans-Serif" font-size="10.00">::~AP_BattMonitor_Bebop</text>
</a>
</g>
</g>
<!-- Node4&#45;&gt;Node5 -->
<g id="edge4" class="edge"><title>Node4&#45;&gt;Node5</title>
<path fill="none" stroke="midnightblue" d="M611.038,-155C620.241,-155 629.652,-155 638.778,-155"/>
<polygon fill="midnightblue" stroke="midnightblue" points="610.762,-151.5 600.762,-155 610.762,-158.5 610.762,-151.5"/>
</g>
<!-- Node9 -->
<g id="node9" class="node"><title>Node9</title>
<g id="a_node9"><a xlink:href="classAP__MotorsMulticopter.html#a535d1cbe6ae207e6649fc5f1007e7fbd" target="_top" xlink:title="AP_MotorsMulticopter\l::set_yaw_headroom">
<polygon fill="white" stroke="black" points="326,-39 326,-69 439,-69 439,-39 326,-39"/>
<text text-anchor="start" x="334" y="-57" font-family="Helvetica,sans-Serif" font-size="10.00">AP_MotorsMulticopter</text>
<text text-anchor="middle" x="382.5" y="-46" font-family="Helvetica,sans-Serif" font-size="10.00">::set_yaw_headroom</text>
</a>
</g>
</g>
<!-- Node8&#45;&gt;Node9 -->
<g id="edge8" class="edge"><title>Node8&#45;&gt;Node9</title>
<path fill="none" stroke="midnightblue" d="M290.513,-41.2502C302.284,-42.8997 314.44,-44.6031 325.885,-46.2069"/>
<polygon fill="midnightblue" stroke="midnightblue" points="290.683,-37.74 280.294,-39.8183 289.712,-44.6723 290.683,-37.74"/>
</g>
<!-- Node10 -->
<g id="node10" class="node"><title>Node10</title>
<g id="a_node10"><a xlink:href="AP__Motors__test_8cpp.html#a4fc01d736fe50cf5b977f755b675f11d" target="_top" xlink:title="setup">
<polygon fill="white" stroke="black" points="362,-0.5 362,-19.5 403,-19.5 403,-0.5 362,-0.5"/>
<text text-anchor="middle" x="382.5" y="-7.5" font-family="Helvetica,sans-Serif" font-size="10.00">setup</text>
</a>
</g>
</g>
<!-- Node8&#45;&gt;Node10 -->
<g id="edge9" class="edge"><title>Node8&#45;&gt;Node10</title>
<path fill="none" stroke="midnightblue" d="M290.423,-22.7623C316.172,-19.1542 343.774,-15.2864 361.757,-12.7665"/>
<polygon fill="midnightblue" stroke="midnightblue" points="289.712,-19.3277 280.294,-24.1817 290.683,-26.26 289.712,-19.3277"/>
</g>
</g>
</svg>
