<?xml version="1.0" encoding="UTF-8" standalone="no"?>
<!DOCTYPE svg PUBLIC "-//W3C//DTD SVG 1.1//EN"
 "http://www.w3.org/Graphics/SVG/1.1/DTD/svg11.dtd">
<!-- Generated by graphviz version 2.38.0 (20140413.2041)
 -->
<!-- Title: AP_UAVCAN::rco_arm_actuators Pages: 1 -->
<svg width="632pt" height="66pt"
 viewBox="0.00 0.00 632.00 66.00" xmlns="http://www.w3.org/2000/svg" xmlns:xlink="http://www.w3.org/1999/xlink">
<g id="graph0" class="graph" transform="scale(1 1) rotate(0) translate(4 62)">
<title>AP_UAVCAN::rco_arm_actuators</title>
<polygon fill="white" stroke="none" points="-4,4 -4,-62 628,-62 628,4 -4,4"/>
<!-- Node1 -->
<g id="node1" class="node"><title>Node1</title>
<polygon fill="#bfbfbf" stroke="black" points="0,-14 0,-44 119,-44 119,-14 0,-14"/>
<text text-anchor="start" x="8" y="-32" font-family="Helvetica,sans-Serif" font-size="10.00">AP_UAVCAN::rco_arm</text>
<text text-anchor="middle" x="59.5" y="-21" font-family="Helvetica,sans-Serif" font-size="10.00">_actuators</text>
</g>
<!-- Node2 -->
<g id="node2" class="node"><title>Node2</title>
<g id="a_node2"><a xlink:href="classPX4_1_1PX4RCOutput.html#acbefd801e31b8e08dfe86b386cc15188" target="_top" xlink:title="PX4::PX4RCOutput::\l_send_outputs">
<polygon fill="white" stroke="black" points="155,-14 155,-44 265,-44 265,-14 155,-14"/>
<text text-anchor="start" x="163" y="-32" font-family="Helvetica,sans-Serif" font-size="10.00">PX4::PX4RCOutput::</text>
<text text-anchor="middle" x="210" y="-21" font-family="Helvetica,sans-Serif" font-size="10.00">_send_outputs</text>
</a>
</g>
</g>
<!-- Node1&#45;&gt;Node2 -->
<g id="edge1" class="edge"><title>Node1&#45;&gt;Node2</title>
<path fill="none" stroke="midnightblue" d="M129.42,-29C137.868,-29 146.408,-29 154.6,-29"/>
<polygon fill="midnightblue" stroke="midnightblue" points="129.191,-25.5001 119.191,-29 129.191,-32.5001 129.191,-25.5001"/>
</g>
<!-- Node3 -->
<g id="node3" class="node"><title>Node3</title>
<g id="a_node3"><a xlink:href="classPX4_1_1PX4RCOutput.html#a1437805c47564fce4856328ba781a856" target="_top" xlink:title="PX4::PX4RCOutput::push">
<polygon fill="white" stroke="black" points="312,-38.5 312,-57.5 443,-57.5 443,-38.5 312,-38.5"/>
<text text-anchor="middle" x="377.5" y="-45.5" font-family="Helvetica,sans-Serif" font-size="10.00">PX4::PX4RCOutput::push</text>
</a>
</g>
</g>
<!-- Node2&#45;&gt;Node3 -->
<g id="edge2" class="edge"><title>Node2&#45;&gt;Node3</title>
<path fill="none" stroke="midnightblue" d="M275.144,-36.3639C287.176,-37.7452 299.761,-39.1901 311.81,-40.5733"/>
<polygon fill="midnightblue" stroke="midnightblue" points="275.525,-32.8848 265.191,-35.2213 274.726,-39.8391 275.525,-32.8848"/>
</g>
<!-- Node5 -->
<g id="node5" class="node"><title>Node5</title>
<g id="a_node5"><a xlink:href="classPX4_1_1PX4RCOutput.html#aa9faf25a53e8989be0de479491a7b6c8" target="_top" xlink:title="PX4::PX4RCOutput::timer_tick">
<polygon fill="white" stroke="black" points="301,-0.5 301,-19.5 454,-19.5 454,-0.5 301,-0.5"/>
<text text-anchor="middle" x="377.5" y="-7.5" font-family="Helvetica,sans-Serif" font-size="10.00">PX4::PX4RCOutput::timer_tick</text>
</a>
</g>
</g>
<!-- Node2&#45;&gt;Node5 -->
<g id="edge4" class="edge"><title>Node2&#45;&gt;Node5</title>
<path fill="none" stroke="midnightblue" d="M275.265,-21.6222C283.652,-20.6592 292.307,-19.6656 300.86,-18.6838"/>
<polygon fill="midnightblue" stroke="midnightblue" points="274.726,-18.1609 265.191,-22.7787 275.525,-25.1152 274.726,-18.1609"/>
</g>
<!-- Node4 -->
<g id="node4" class="node"><title>Node4</title>
<g id="a_node4"><a xlink:href="classPX4_1_1PX4RCOutput.html#a80a7c949d64a1bce8ddaab21a0df8bb6" target="_top" xlink:title="PX4::PX4RCOutput::scale\l_esc_to_unity">
<polygon fill="white" stroke="black" points="490,-14 490,-44 624,-44 624,-14 490,-14"/>
<text text-anchor="start" x="498" y="-32" font-family="Helvetica,sans-Serif" font-size="10.00">PX4::PX4RCOutput::scale</text>
<text text-anchor="middle" x="557" y="-21" font-family="Helvetica,sans-Serif" font-size="10.00">_esc_to_unity</text>
</a>
</g>
</g>
<!-- Node3&#45;&gt;Node4 -->
<g id="edge3" class="edge"><title>Node3&#45;&gt;Node4</title>
<path fill="none" stroke="midnightblue" d="M453.229,-40.0009C465.433,-38.6945 478,-37.3493 489.975,-36.0675"/>
<polygon fill="midnightblue" stroke="midnightblue" points="452.654,-36.5423 443.084,-41.0868 453.399,-43.5025 452.654,-36.5423"/>
</g>
<!-- Node5&#45;&gt;Node4 -->
<g id="edge5" class="edge"><title>Node5&#45;&gt;Node4</title>
<path fill="none" stroke="midnightblue" d="M464.122,-19.1652C472.748,-20.0885 481.414,-21.0161 489.792,-21.913"/>
<polygon fill="midnightblue" stroke="midnightblue" points="464.349,-15.6696 454.033,-18.0853 463.604,-22.6298 464.349,-15.6696"/>
</g>
</g>
</svg>
