<?xml version="1.0" encoding="UTF-8" standalone="no"?>
<!DOCTYPE svg PUBLIC "-//W3C//DTD SVG 1.1//EN"
 "http://www.w3.org/Graphics/SVG/1.1/DTD/svg11.dtd">
<!-- Generated by graphviz version 2.38.0 (20140413.2041)
 -->
<!-- Title: AP_Proximity_TeraRangerTower Pages: 1 -->
<!--zoomable 424 -->
<svg id="main" version="1.1" xmlns="http://www.w3.org/2000/svg" xmlns:xlink="http://www.w3.org/1999/xlink" xml:space="preserve" onload="init(evt)">
<style type="text/css"><![CDATA[
.edge:hover path { stroke: red; }
.edge:hover polygon { stroke: red; fill: red; }
]]></style>
<script type="text/javascript"><![CDATA[
var edges = document.getElementsByTagName('g');
if (edges && edges.length) {
  for (var i=0;i<edges.length;i++) {
    if (edges[i].id.substr(0,4)=='edge') {
      edges[i].setAttribute('class','edge');
    }
  }
}
]]></script>
        <defs>
                <circle id="rim" cx="0" cy="0" r="7"/>
                <circle id="rim2" cx="0" cy="0" r="3.5"/>
                <g id="zoomPlus">
                        <use xlink:href="#rim" fill="#404040">
                                <set attributeName="fill" to="#808080" begin="zoomplus.mouseover" end="zoomplus.mouseout"/>
                        </use>
                        <path d="M-4,0h8M0,-4v8" fill="none" stroke="white" stroke-width="1.5" pointer-events="none"/>
                </g>
                <g id="zoomMin">
                        <use xlink:href="#rim" fill="#404040">
                                <set attributeName="fill" to="#808080" begin="zoomminus.mouseover" end="zoomminus.mouseout"/>
                        </use>
                        <path d="M-4,0h8" fill="none" stroke="white" stroke-width="1.5" pointer-events="none"/>
                </g>
                <g id="dirArrow">
                        <path fill="none" stroke="white" stroke-width="1.5" d="M0,-3.0v7 M-2.5,-0.5L0,-3.0L2.5,-0.5"/>
                </g>
               <g id="resetDef">
                       <use xlink:href="#rim2" fill="#404040">
                               <set attributeName="fill" to="#808080" begin="reset.mouseover" end="reset.mouseout"/>
                       </use>
               </g>
        </defs>

<script type="text/javascript">
var viewWidth = 893;
var viewHeight = 424;
var sectionId = 'dynsection-1';
</script>
<script xlink:href="svgpan.js"/>
<svg id="graph" class="graph">
<g id="viewport">
<title>AP_Proximity_TeraRangerTower</title>
<polygon fill="white" stroke="none" points="-4,4 -4,-420 889,-420 889,4 -4,4"/>
<!-- Node1 -->
<g id="node1" class="node"><title>Node1</title>
<polygon fill="#bfbfbf" stroke="black" points="0,-0.5 0,-19.5 160,-19.5 160,-0.5 0,-0.5"/>
<text text-anchor="middle" x="80" y="-7.5" font-family="Helvetica,sans-Serif" font-size="10.00">AP_Proximity_TeraRangerTower</text>
</g>
<!-- Node2 -->
<g id="node2" class="node"><title>Node2</title>
<g id="a_node2"><a xlink:href="classAP__Proximity__Backend.html" target="_top" xlink:title="AP_Proximity_Backend">
<polygon fill="white" stroke="black" points="114,-67.5 114,-86.5 234,-86.5 234,-67.5 114,-67.5"/>
<text text-anchor="middle" x="174" y="-74.5" font-family="Helvetica,sans-Serif" font-size="10.00">AP_Proximity_Backend</text>
</a>
</g>
</g>
<!-- Node2&#45;&gt;Node1 -->
<g id="edge1" class="edge"><title>Node2&#45;&gt;Node1</title>
<path fill="none" stroke="midnightblue" d="M152.915,-61.4196C134.331,-48.5695 107.885,-30.2821 92.4764,-19.6273"/>
<polygon fill="midnightblue" stroke="midnightblue" points="151.107,-64.425 161.323,-67.2338 155.088,-58.6674 151.107,-64.425"/>
</g>
<!-- Node5 -->
<g id="node5" class="node"><title>Node5</title>
<g id="a_node5"><a xlink:href="classAP__Proximity.html" target="_top" xlink:title="AP_Proximity">
<polygon fill="white" stroke="black" points="271.5,-0.5 271.5,-19.5 348.5,-19.5 348.5,-0.5 271.5,-0.5"/>
<text text-anchor="middle" x="310" y="-7.5" font-family="Helvetica,sans-Serif" font-size="10.00">AP_Proximity</text>
</a>
</g>
</g>
<!-- Node2&#45;&gt;Node5 -->
<g id="edge23" class="edge"><title>Node2&#45;&gt;Node5</title>
<path fill="none" stroke="#9a32cd" stroke-dasharray="5,2" d="M170.535,-57.4139C170.315,-50.5863 171.466,-43.2502 176,-38 188.214,-23.8551 236.12,-16.8952 271.177,-13.6334"/>
<polygon fill="#9a32cd" stroke="#9a32cd" points="167.06,-57.8358 171.718,-67.3517 174.011,-57.0079 167.06,-57.8358"/>
<text text-anchor="middle" x="192.5" y="-41" font-family="Helvetica,sans-Serif" font-size="10.00"> drivers</text>
</g>
<!-- Node3 -->
<g id="node3" class="node"><title>Node3</title>
<g id="a_node3"><a xlink:href="structAP__Proximity_1_1Proximity__State.html" target="_top" xlink:title="AP_Proximity::Proximity\l_State">
<polygon fill="white" stroke="black" points="185,-145.5 185,-175.5 309,-175.5 309,-145.5 185,-145.5"/>
<text text-anchor="start" x="193" y="-163.5" font-family="Helvetica,sans-Serif" font-size="10.00">AP_Proximity::Proximity</text>
<text text-anchor="middle" x="247" y="-152.5" font-family="Helvetica,sans-Serif" font-size="10.00">_State</text>
</a>
</g>
</g>
<!-- Node3&#45;&gt;Node2 -->
<g id="edge2" class="edge"><title>Node3&#45;&gt;Node2</title>
<path fill="none" stroke="#9a32cd" stroke-dasharray="5,2" d="M238.83,-135.838C234.421,-125.511 228.182,-113.782 220,-105 212.804,-97.2758 202.895,-91.0768 194.116,-86.5763"/>
<polygon fill="#9a32cd" stroke="#9a32cd" points="235.582,-137.142 242.499,-145.167 242.096,-134.58 235.582,-137.142"/>
<text text-anchor="middle" x="247.5" y="-113.5" font-family="Helvetica,sans-Serif" font-size="10.00"> state</text>
</g>
<!-- Node3&#45;&gt;Node5 -->
<g id="edge13" class="edge"><title>Node3&#45;&gt;Node5</title>
<path fill="none" stroke="#9a32cd" stroke-dasharray="5,2" d="M259.463,-136.39C261.041,-133.259 262.594,-130.068 264,-127 282.052,-87.6105 299.974,-38.9663 306.951,-19.5693"/>
<polygon fill="#9a32cd" stroke="#9a32cd" points="256.276,-134.934 254.773,-145.422 262.488,-138.16 256.276,-134.934"/>
<text text-anchor="middle" x="301.5" y="-74.5" font-family="Helvetica,sans-Serif" font-size="10.00"> state</text>
</g>
<!-- Node4 -->
<g id="node4" class="node"><title>Node4</title>
<g id="a_node4"><a xlink:href="structVector2.html" target="_top" xlink:title="Vector2\&lt; float \&gt;">
<polygon fill="white" stroke="black" points="79.5,-151 79.5,-170 166.5,-170 166.5,-151 79.5,-151"/>
<text text-anchor="middle" x="123" y="-158" font-family="Helvetica,sans-Serif" font-size="10.00">Vector2&lt; float &gt;</text>
</a>
</g>
</g>
<!-- Node4&#45;&gt;Node2 -->
<g id="edge3" class="edge"><title>Node4&#45;&gt;Node2</title>
<path fill="none" stroke="#9a32cd" stroke-dasharray="5,2" d="M119.745,-140.618C118.814,-129.456 119.466,-115.499 126,-105 131.153,-96.7201 139.82,-90.752 148.382,-86.5678"/>
<polygon fill="#9a32cd" stroke="#9a32cd" points="116.285,-141.151 121.045,-150.616 123.226,-140.248 116.285,-141.151"/>
<text text-anchor="middle" x="173" y="-119" font-family="Helvetica,sans-Serif" font-size="10.00"> _sector_edge_vector</text>
<text text-anchor="middle" x="173" y="-108" font-family="Helvetica,sans-Serif" font-size="10.00">_boundary_point</text>
</g>
<!-- Node5&#45;&gt;Node2 -->
<g id="edge4" class="edge"><title>Node5&#45;&gt;Node2</title>
<path fill="none" stroke="#9a32cd" stroke-dasharray="5,2" d="M269.126,-22.7327C256.617,-26.9127 242.998,-32.0755 231,-38 214.151,-46.3199 196.387,-58.8449 185.256,-67.2151"/>
<polygon fill="#9a32cd" stroke="#9a32cd" points="270.423,-25.9921 278.869,-19.5953 268.278,-19.329 270.423,-25.9921"/>
<text text-anchor="middle" x="250.5" y="-41" font-family="Helvetica,sans-Serif" font-size="10.00"> frontend</text>
</g>
<!-- Node6 -->
<g id="node6" class="node"><title>Node6</title>
<g id="a_node6"><a xlink:href="classAP__SerialManager.html" target="_top" xlink:title="AP_SerialManager">
<polygon fill="white" stroke="black" points="365,-151 365,-170 463,-170 463,-151 365,-151"/>
<text text-anchor="middle" x="414" y="-158" font-family="Helvetica,sans-Serif" font-size="10.00">AP_SerialManager</text>
</a>
</g>
</g>
<!-- Node6&#45;&gt;Node5 -->
<g id="edge5" class="edge"><title>Node6&#45;&gt;Node5</title>
<path fill="none" stroke="#9a32cd" stroke-dasharray="5,2" d="M407.98,-141.499C398.819,-116.148 379.391,-69.5088 351,-38 344.268,-30.5286 335.031,-24.2084 327.029,-19.5655"/>
<polygon fill="#9a32cd" stroke="#9a32cd" points="404.679,-142.663 411.274,-150.955 411.29,-140.36 404.679,-142.663"/>
<text text-anchor="middle" x="419" y="-74.5" font-family="Helvetica,sans-Serif" font-size="10.00"> serial_manager</text>
</g>
<!-- Node12 -->
<g id="node12" class="node"><title>Node12</title>
<g id="a_node12"><a xlink:href="classRangeFinder.html" target="_top" xlink:title="RangeFinder">
<polygon fill="white" stroke="black" points="560,-67.5 560,-86.5 632,-86.5 632,-67.5 560,-67.5"/>
<text text-anchor="middle" x="596" y="-74.5" font-family="Helvetica,sans-Serif" font-size="10.00">RangeFinder</text>
</a>
</g>
</g>
<!-- Node6&#45;&gt;Node12 -->
<g id="edge15" class="edge"><title>Node6&#45;&gt;Node12</title>
<path fill="none" stroke="#9a32cd" stroke-dasharray="5,2" d="M412.357,-140.529C412.431,-128.7 414.707,-114.057 424,-105 442.779,-86.6988 515.107,-80.8026 559.775,-78.9029"/>
<polygon fill="#9a32cd" stroke="#9a32cd" points="408.87,-140.896 412.804,-150.733 415.863,-140.589 408.87,-140.896"/>
<text text-anchor="middle" x="459" y="-113.5" font-family="Helvetica,sans-Serif" font-size="10.00"> serial_manager</text>
</g>
<!-- Node7 -->
<g id="node7" class="node"><title>Node7</title>
<g id="a_node7"><a xlink:href="classAP__HAL_1_1UARTDriver.html" target="_top" xlink:title="AP_HAL::UARTDriver">
<polygon fill="white" stroke="black" points="109.5,-224.5 109.5,-243.5 224.5,-243.5 224.5,-224.5 109.5,-224.5"/>
<text text-anchor="middle" x="167" y="-231.5" font-family="Helvetica,sans-Serif" font-size="10.00">AP_HAL::UARTDriver</text>
</a>
</g>
</g>
<!-- Node7&#45;&gt;Node1 -->
<g id="edge24" class="edge"><title>Node7&#45;&gt;Node1</title>
<path fill="none" stroke="#9a32cd" stroke-dasharray="5,2" d="M127.554,-220.666C106.47,-211.833 82.3669,-197.611 70,-176 39.9246,-123.443 66.22,-45.4325 76.3938,-19.6308"/>
<polygon fill="#9a32cd" stroke="#9a32cd" points="126.388,-223.969 136.976,-224.353 128.938,-217.45 126.388,-223.969"/>
<text text-anchor="middle" x="67" y="-113.5" font-family="Helvetica,sans-Serif" font-size="10.00"> uart</text>
</g>
<!-- Node7&#45;&gt;Node6 -->
<g id="edge6" class="edge"><title>Node7&#45;&gt;Node6</title>
<path fill="none" stroke="#9a32cd" stroke-dasharray="5,2" d="M206.536,-221.555C256.154,-207.192 340.115,-182.888 384.485,-170.044"/>
<polygon fill="#9a32cd" stroke="#9a32cd" points="205.426,-218.233 196.794,-224.375 207.373,-224.957 205.426,-218.233"/>
<text text-anchor="middle" x="308" y="-197" font-family="Helvetica,sans-Serif" font-size="10.00"> uart</text>
</g>
<!-- Node8 -->
<g id="node8" class="node"><title>Node8</title>
<g id="a_node8"><a xlink:href="classAP__HAL_1_1BetterStream.html" target="_top" xlink:title="AP_HAL::BetterStream">
<polygon fill="white" stroke="black" points="107.5,-282.5 107.5,-301.5 226.5,-301.5 226.5,-282.5 107.5,-282.5"/>
<text text-anchor="middle" x="167" y="-289.5" font-family="Helvetica,sans-Serif" font-size="10.00">AP_HAL::BetterStream</text>
</a>
</g>
</g>
<!-- Node8&#45;&gt;Node7 -->
<g id="edge7" class="edge"><title>Node8&#45;&gt;Node7</title>
<path fill="none" stroke="midnightblue" d="M167,-271.953C167,-262.287 167,-251.031 167,-243.505"/>
<polygon fill="midnightblue" stroke="midnightblue" points="163.5,-272.25 167,-282.25 170.5,-272.25 163.5,-272.25"/>
</g>
<!-- Node9 -->
<g id="node9" class="node"><title>Node9</title>
<g id="a_node9"><a xlink:href="classAP__HAL_1_1Stream.html" target="_top" xlink:title="AP_HAL::Stream">
<polygon fill="white" stroke="black" points="121,-339.5 121,-358.5 213,-358.5 213,-339.5 121,-339.5"/>
<text text-anchor="middle" x="167" y="-346.5" font-family="Helvetica,sans-Serif" font-size="10.00">AP_HAL::Stream</text>
</a>
</g>
</g>
<!-- Node9&#45;&gt;Node8 -->
<g id="edge8" class="edge"><title>Node9&#45;&gt;Node8</title>
<path fill="none" stroke="midnightblue" d="M167,-329.117C167,-319.817 167,-309.056 167,-301.715"/>
<polygon fill="midnightblue" stroke="midnightblue" points="163.5,-329.406 167,-339.406 170.5,-329.406 163.5,-329.406"/>
</g>
<!-- Node10 -->
<g id="node10" class="node"><title>Node10</title>
<g id="a_node10"><a xlink:href="classAP__HAL_1_1Print.html" target="_top" xlink:title="AP_HAL::Print">
<polygon fill="white" stroke="black" points="126.5,-396.5 126.5,-415.5 207.5,-415.5 207.5,-396.5 126.5,-396.5"/>
<text text-anchor="middle" x="167" y="-403.5" font-family="Helvetica,sans-Serif" font-size="10.00">AP_HAL::Print</text>
</a>
</g>
</g>
<!-- Node10&#45;&gt;Node9 -->
<g id="edge9" class="edge"><title>Node10&#45;&gt;Node9</title>
<path fill="none" stroke="midnightblue" d="M167,-386.117C167,-376.817 167,-366.056 167,-358.715"/>
<polygon fill="midnightblue" stroke="midnightblue" points="163.5,-386.406 167,-396.406 170.5,-386.406 163.5,-386.406"/>
</g>
<!-- Node11 -->
<g id="node11" class="node"><title>Node11</title>
<g id="a_node11"><a xlink:href="structAP__Param_1_1GroupInfo.html" target="_top" xlink:title="AP_Param::GroupInfo">
<polygon fill="white" stroke="black" points="357.5,-224.5 357.5,-243.5 470.5,-243.5 470.5,-224.5 357.5,-224.5"/>
<text text-anchor="middle" x="414" y="-231.5" font-family="Helvetica,sans-Serif" font-size="10.00">AP_Param::GroupInfo</text>
</a>
</g>
</g>
<!-- Node11&#45;&gt;Node5 -->
<g id="edge12" class="edge"><title>Node11&#45;&gt;Node5</title>
<path fill="none" stroke="#9a32cd" stroke-dasharray="5,2" d="M370.324,-220.147C363.007,-216.297 356.136,-211.345 351,-205 338.98,-190.149 316.975,-55.1645 311.341,-19.5712"/>
<polygon fill="#9a32cd" stroke="#9a32cd" points="369.184,-223.475 379.733,-224.457 372.099,-217.111 369.184,-223.475"/>
<text text-anchor="middle" x="349" y="-113.5" font-family="Helvetica,sans-Serif" font-size="10.00"> var_info</text>
</g>
<!-- Node11&#45;&gt;Node6 -->
<g id="edge10" class="edge"><title>Node11&#45;&gt;Node6</title>
<path fill="none" stroke="#9a32cd" stroke-dasharray="5,2" d="M414,-214.094C414,-199.933 414,-181.202 414,-170.339"/>
<polygon fill="#9a32cd" stroke="#9a32cd" points="410.5,-214.233 414,-224.233 417.5,-214.233 410.5,-214.233"/>
<text text-anchor="middle" x="433" y="-197" font-family="Helvetica,sans-Serif" font-size="10.00"> var_info</text>
</g>
<!-- Node11&#45;&gt;Node11 -->
<g id="edge11" class="edge"><title>Node11&#45;&gt;Node11</title>
<path fill="none" stroke="#9a32cd" stroke-dasharray="5,2" d="M480.488,-237.914C485.452,-237.039 488.5,-235.734 488.5,-234 488.5,-231.293 481.072,-229.633 470.526,-229.019"/>
<polygon fill="#9a32cd" stroke="#9a32cd" points="480.096,-234.436 470.526,-238.981 480.841,-241.396 480.096,-234.436"/>
<text text-anchor="middle" x="521" y="-237" font-family="Helvetica,sans-Serif" font-size="10.00"> group_info_ptr</text>
<text text-anchor="middle" x="521" y="-226" font-family="Helvetica,sans-Serif" font-size="10.00">group_info</text>
</g>
<!-- Node11&#45;&gt;Node12 -->
<g id="edge17" class="edge"><title>Node11&#45;&gt;Node12</title>
<path fill="none" stroke="#9a32cd" stroke-dasharray="5,2" d="M437.365,-218.81C443.63,-214.638 450.255,-209.878 456,-205 483.806,-181.391 485.225,-169.773 512,-145 536.373,-122.45 567.463,-98.8668 584.146,-86.5892"/>
<polygon fill="#9a32cd" stroke="#9a32cd" points="435.111,-216.097 428.587,-224.445 438.893,-221.988 435.111,-216.097"/>
<text text-anchor="middle" x="531" y="-158" font-family="Helvetica,sans-Serif" font-size="10.00"> var_info</text>
</g>
<!-- Node12&#45;&gt;Node5 -->
<g id="edge14" class="edge"><title>Node12&#45;&gt;Node5</title>
<path fill="none" stroke="#9a32cd" stroke-dasharray="5,2" d="M549.739,-65.4861C493.535,-52.7125 399.794,-31.4077 347.743,-19.5781"/>
<polygon fill="#9a32cd" stroke="#9a32cd" points="549.251,-68.9644 559.778,-67.7677 550.802,-62.1385 549.251,-68.9644"/>
<text text-anchor="middle" x="499.5" y="-41" font-family="Helvetica,sans-Serif" font-size="10.00"> _rangefinder</text>
</g>
<!-- Node15 -->
<g id="node15" class="node"><title>Node15</title>
<g id="a_node15"><a xlink:href="classAP__RangeFinder__Backend.html" target="_top" xlink:title="AP_RangeFinder_Backend">
<polygon fill="white" stroke="black" points="636,-0.5 636,-19.5 770,-19.5 770,-0.5 636,-0.5"/>
<text text-anchor="middle" x="703" y="-7.5" font-family="Helvetica,sans-Serif" font-size="10.00">AP_RangeFinder_Backend</text>
</a>
</g>
</g>
<!-- Node12&#45;&gt;Node15 -->
<g id="edge22" class="edge"><title>Node12&#45;&gt;Node15</title>
<path fill="none" stroke="#9a32cd" stroke-dasharray="5,2" d="M598.697,-57.2008C600.555,-50.3455 603.696,-43.0461 609,-38 617.981,-29.457 629.483,-23.5906 641.339,-19.5691"/>
<polygon fill="#9a32cd" stroke="#9a32cd" points="595.222,-56.7297 596.703,-67.2205 602.087,-58.0956 595.222,-56.7297"/>
<text text-anchor="middle" x="624.5" y="-41" font-family="Helvetica,sans-Serif" font-size="10.00"> ranger</text>
</g>
<!-- Node13 -->
<g id="node13" class="node"><title>Node13</title>
<g id="a_node13"><a xlink:href="structRangeFinder_1_1RangeFinder__State.html" target="_top" xlink:title="RangeFinder::RangeFinder\l_State">
<polygon fill="white" stroke="black" points="665,-145.5 665,-175.5 799,-175.5 799,-145.5 665,-145.5"/>
<text text-anchor="start" x="673" y="-163.5" font-family="Helvetica,sans-Serif" font-size="10.00">RangeFinder::RangeFinder</text>
<text text-anchor="middle" x="732" y="-152.5" font-family="Helvetica,sans-Serif" font-size="10.00">_State</text>
</a>
</g>
</g>
<!-- Node13&#45;&gt;Node12 -->
<g id="edge16" class="edge"><title>Node13&#45;&gt;Node12</title>
<path fill="none" stroke="#9a32cd" stroke-dasharray="5,2" d="M706.402,-138.594C701.89,-134.789 697.273,-130.816 693,-127 682.449,-117.578 682.011,-112.472 670,-105 657.227,-97.0537 641.768,-90.9512 628.29,-86.5751"/>
<polygon fill="#9a32cd" stroke="#9a32cd" points="704.389,-141.473 714.311,-145.191 708.873,-136.098 704.389,-141.473"/>
<text text-anchor="middle" x="705.5" y="-113.5" font-family="Helvetica,sans-Serif" font-size="10.00"> state</text>
</g>
<!-- Node13&#45;&gt;Node15 -->
<g id="edge20" class="edge"><title>Node13&#45;&gt;Node15</title>
<path fill="none" stroke="#9a32cd" stroke-dasharray="5,2" d="M727.276,-135.308C720.697,-101.623 709.095,-42.211 704.728,-19.8464"/>
<polygon fill="#9a32cd" stroke="#9a32cd" points="723.868,-136.117 729.219,-145.261 730.738,-134.776 723.868,-136.117"/>
<text text-anchor="middle" x="729.5" y="-74.5" font-family="Helvetica,sans-Serif" font-size="10.00"> state</text>
</g>
<!-- Node14 -->
<g id="node14" class="node"><title>Node14</title>
<g id="a_node14"><a xlink:href="classVector3.html" target="_top" xlink:title="Vector3\&lt; float \&gt;">
<polygon fill="white" stroke="black" points="559.5,-151 559.5,-170 646.5,-170 646.5,-151 559.5,-151"/>
<text text-anchor="middle" x="603" y="-158" font-family="Helvetica,sans-Serif" font-size="10.00">Vector3&lt; float &gt;</text>
</a>
</g>
</g>
<!-- Node14&#45;&gt;Node12 -->
<g id="edge18" class="edge"><title>Node14&#45;&gt;Node12</title>
<path fill="none" stroke="#9a32cd" stroke-dasharray="5,2" d="M598.979,-140.611C598.181,-136.167 597.451,-131.433 597,-127 595.569,-112.948 595.573,-96.5167 595.753,-86.7001"/>
<polygon fill="#9a32cd" stroke="#9a32cd" points="595.606,-141.598 600.981,-150.728 602.473,-140.238 595.606,-141.598"/>
<text text-anchor="middle" x="633.5" y="-113.5" font-family="Helvetica,sans-Serif" font-size="10.00"> pos_offset_zero</text>
</g>
<!-- Node15&#45;&gt;Node12 -->
<g id="edge19" class="edge"><title>Node15&#45;&gt;Node12</title>
<path fill="none" stroke="#9a32cd" stroke-dasharray="5,2" d="M680.13,-24.8931C659.021,-37.7161 628.319,-56.3669 610.43,-67.2338"/>
<polygon fill="#9a32cd" stroke="#9a32cd" points="682.069,-27.8105 688.798,-19.6273 678.434,-21.8279 682.069,-27.8105"/>
<text text-anchor="middle" x="671.5" y="-41" font-family="Helvetica,sans-Serif" font-size="10.00"> drivers</text>
</g>
<!-- Node16 -->
<g id="node16" class="node"><title>Node16</title>
<g id="a_node16"><a xlink:href="classAP__HAL_1_1Semaphore.html" target="_top" xlink:title="AP_HAL::Semaphore">
<polygon fill="white" stroke="black" points="775,-67.5 775,-86.5 885,-86.5 885,-67.5 775,-67.5"/>
<text text-anchor="middle" x="830" y="-74.5" font-family="Helvetica,sans-Serif" font-size="10.00">AP_HAL::Semaphore</text>
</a>
</g>
</g>
<!-- Node16&#45;&gt;Node15 -->
<g id="edge21" class="edge"><title>Node16&#45;&gt;Node15</title>
<path fill="none" stroke="#9a32cd" stroke-dasharray="5,2" d="M804.158,-62.7739C779.004,-49.8999 741.508,-30.7086 719.934,-19.6672"/>
<polygon fill="#9a32cd" stroke="#9a32cd" points="802.639,-65.928 813.135,-67.3685 805.828,-59.6968 802.639,-65.928"/>
<text text-anchor="middle" x="788" y="-41" font-family="Helvetica,sans-Serif" font-size="10.00"> _sem</text>
</g>
</g>
</svg>
        <g id="navigator" transform="translate(0 0)" fill="#404254">
                <rect fill="#f2f5e9" fill-opacity="0.5" stroke="#606060" stroke-width=".5" x="0" y="0" width="60" height="60"/>
                <use id="zoomplus" xlink:href="#zoomPlus" x="17" y="9" onmousedown="handleZoom(evt,'in')"/>
                <use id="zoomminus" xlink:href="#zoomMin" x="42" y="9" onmousedown="handleZoom(evt,'out')"/>
                <use id="reset" xlink:href="#resetDef" x="30" y="36" onmousedown="handleReset()"/>
                <g id="arrowUp" xlink:href="#dirArrow" transform="translate(30 24)" onmousedown="handlePan(0,-1)">
                  <use xlink:href="#rim" fill="#404040">
                        <set attributeName="fill" to="#808080" begin="arrowUp.mouseover" end="arrowUp.mouseout"/>
                  </use>
                  <path fill="none" stroke="white" stroke-width="1.5" d="M0,-3.0v7 M-2.5,-0.5L0,-3.0L2.5,-0.5"/>
                </g>
                <g id="arrowRight" xlink:href="#dirArrow" transform="rotate(90) translate(36 -43)" onmousedown="handlePan(1,0)">
                  <use xlink:href="#rim" fill="#404040">
                        <set attributeName="fill" to="#808080" begin="arrowRight.mouseover" end="arrowRight.mouseout"/>
                  </use>
                  <path fill="none" stroke="white" stroke-width="1.5" d="M0,-3.0v7 M-2.5,-0.5L0,-3.0L2.5,-0.5"/>
                </g>
                <g id="arrowDown" xlink:href="#dirArrow" transform="rotate(180) translate(-30 -48)" onmousedown="handlePan(0,1)">
                  <use xlink:href="#rim" fill="#404040">
                        <set attributeName="fill" to="#808080" begin="arrowDown.mouseover" end="arrowDown.mouseout"/>
                  </use>
                  <path fill="none" stroke="white" stroke-width="1.5" d="M0,-3.0v7 M-2.5,-0.5L0,-3.0L2.5,-0.5"/>
                </g>
                <g id="arrowLeft" xlink:href="#dirArrow" transform="rotate(270) translate(-36 17)" onmousedown="handlePan(-1,0)">
                  <use xlink:href="#rim" fill="#404040">
                        <set attributeName="fill" to="#808080" begin="arrowLeft.mouseover" end="arrowLeft.mouseout"/>
                  </use>
                  <path fill="none" stroke="white" stroke-width="1.5" d="M0,-3.0v7 M-2.5,-0.5L0,-3.0L2.5,-0.5"/>
                </g>
        </g>
        <svg viewBox="0 0 15 15" width="100%" height="30px" preserveAspectRatio="xMaxYMin meet">
         <g id="arrow_out" transform="scale(0.3 0.3)">
          <a xlink:href="classAP__Proximity__TeraRangerTower__coll__graph_org.svg" target="_base">
           <rect id="button" ry="5" rx="5" y="6" x="6" height="38" width="38"
                fill="#f2f5e9" fill-opacity="0.5" stroke="#606060" stroke-width="1.0"/>
           <path id="arrow"
             d="M 11.500037,31.436501 C 11.940474,20.09759 22.043105,11.32322 32.158766,21.979434 L 37.068811,17.246167 C 37.068811,17.246167 37.088388,32 37.088388,32 L 22.160133,31.978069 C 22.160133,31.978069 26.997745,27.140456 26.997745,27.140456 C 18.528582,18.264221 13.291696,25.230495 11.500037,31.436501 z"
             style="fill:#404040;"/>
          </a>
         </g>
        </svg>
</svg>
