<?xml version="1.0" encoding="UTF-8" standalone="no"?>
<!DOCTYPE svg PUBLIC "-//W3C//DTD SVG 1.1//EN"
 "http://www.w3.org/Graphics/SVG/1.1/DTD/svg11.dtd">
<!-- Generated by graphviz version 2.38.0 (20140413.2041)
 -->
<!-- Title: HALSITL::EEPROMStorage::_eeprom_open Pages: 1 -->
<svg width="500pt" height="88pt"
 viewBox="0.00 0.00 500.00 88.00" xmlns="http://www.w3.org/2000/svg" xmlns:xlink="http://www.w3.org/1999/xlink">
<g id="graph0" class="graph" transform="scale(1 1) rotate(0) translate(4 84)">
<title>HALSITL::EEPROMStorage::_eeprom_open</title>
<polygon fill="white" stroke="none" points="-4,4 -4,-84 496,-84 496,4 -4,4"/>
<!-- Node1 -->
<g id="node1" class="node"><title>Node1</title>
<polygon fill="#bfbfbf" stroke="black" points="0,-24.5 0,-54.5 140,-54.5 140,-24.5 0,-24.5"/>
<text text-anchor="start" x="8" y="-42.5" font-family="Helvetica,sans-Serif" font-size="10.00">HALSITL::EEPROMStorage</text>
<text text-anchor="middle" x="70" y="-31.5" font-family="Helvetica,sans-Serif" font-size="10.00">::_eeprom_open</text>
</g>
<!-- Node2 -->
<g id="node2" class="node"><title>Node2</title>
<g id="a_node2"><a xlink:href="classHALSITL_1_1EEPROMStorage.html#abfdfde84eb4362daecac5d8aff3ad5a8" target="_top" xlink:title="HALSITL::EEPROMStorage\l::read_block">
<polygon fill="white" stroke="black" points="176,-49.5 176,-79.5 316,-79.5 316,-49.5 176,-49.5"/>
<text text-anchor="start" x="184" y="-67.5" font-family="Helvetica,sans-Serif" font-size="10.00">HALSITL::EEPROMStorage</text>
<text text-anchor="middle" x="246" y="-56.5" font-family="Helvetica,sans-Serif" font-size="10.00">::read_block</text>
</a>
</g>
</g>
<!-- Node1&#45;&gt;Node2 -->
<g id="edge1" class="edge"><title>Node1&#45;&gt;Node2</title>
<path fill="none" stroke="midnightblue" d="M150.035,-50.8556C158.625,-52.0898 167.319,-53.339 175.779,-54.5545"/>
<polygon fill="midnightblue" stroke="midnightblue" points="150.415,-47.3744 140.019,-49.4166 149.42,-54.3033 150.415,-47.3744"/>
</g>
<!-- Node4 -->
<g id="node4" class="node"><title>Node4</title>
<g id="a_node4"><a xlink:href="classHALSITL_1_1EEPROMStorage.html#a29de960da0f1a00f9aee3ca093c5d6f0" target="_top" xlink:title="HALSITL::EEPROMStorage\l::write_block">
<polygon fill="white" stroke="black" points="176,-0.5 176,-30.5 316,-30.5 316,-0.5 176,-0.5"/>
<text text-anchor="start" x="184" y="-18.5" font-family="Helvetica,sans-Serif" font-size="10.00">HALSITL::EEPROMStorage</text>
<text text-anchor="middle" x="246" y="-7.5" font-family="Helvetica,sans-Serif" font-size="10.00">::write_block</text>
</a>
</g>
</g>
<!-- Node1&#45;&gt;Node4 -->
<g id="edge3" class="edge"><title>Node1&#45;&gt;Node4</title>
<path fill="none" stroke="midnightblue" d="M150.035,-28.5986C158.625,-27.4138 167.319,-26.2146 175.779,-25.0477"/>
<polygon fill="midnightblue" stroke="midnightblue" points="149.447,-25.1465 140.019,-29.9801 150.404,-32.0808 149.447,-25.1465"/>
</g>
<!-- Node3 -->
<g id="node3" class="node"><title>Node3</title>
<g id="a_node3"><a xlink:href="classHALSITL_1_1EEPROMStorage.html#af7aaee3af475b7dde8476f150a7c4d89" target="_top" xlink:title="HALSITL::EEPROMStorage\l::init">
<polygon fill="white" stroke="black" points="352,-24.5 352,-54.5 492,-54.5 492,-24.5 352,-24.5"/>
<text text-anchor="start" x="360" y="-42.5" font-family="Helvetica,sans-Serif" font-size="10.00">HALSITL::EEPROMStorage</text>
<text text-anchor="middle" x="422" y="-31.5" font-family="Helvetica,sans-Serif" font-size="10.00">::init</text>
</a>
</g>
</g>
<!-- Node2&#45;&gt;Node3 -->
<g id="edge2" class="edge"><title>Node2&#45;&gt;Node3</title>
<path fill="none" stroke="midnightblue" d="M326.035,-53.1444C334.625,-51.9102 343.319,-50.661 351.779,-49.4455"/>
<polygon fill="midnightblue" stroke="midnightblue" points="325.42,-49.6967 316.019,-54.5834 326.415,-56.6256 325.42,-49.6967"/>
</g>
<!-- Node4&#45;&gt;Node3 -->
<g id="edge4" class="edge"><title>Node4&#45;&gt;Node3</title>
<path fill="none" stroke="midnightblue" d="M326.035,-26.4014C334.625,-27.5862 343.319,-28.7854 351.779,-29.9523"/>
<polygon fill="midnightblue" stroke="midnightblue" points="326.404,-22.9192 316.019,-25.0199 325.447,-29.8535 326.404,-22.9192"/>
</g>
</g>
</svg>
