<?xml version="1.0" encoding="UTF-8" standalone="no"?>
<!DOCTYPE svg PUBLIC "-//W3C//DTD SVG 1.1//EN"
 "http://www.w3.org/Graphics/SVG/1.1/DTD/svg11.dtd">
<!-- Generated by graphviz version 2.38.0 (20140413.2041)
 -->
<!-- Title: AP_TECS::_update_energies Pages: 1 -->
<svg width="463pt" height="39pt"
 viewBox="0.00 0.00 463.00 39.00" xmlns="http://www.w3.org/2000/svg" xmlns:xlink="http://www.w3.org/1999/xlink">
<g id="graph0" class="graph" transform="scale(1 1) rotate(0) translate(4 35)">
<title>AP_TECS::_update_energies</title>
<polygon fill="white" stroke="none" points="-4,4 -4,-35 459,-35 459,4 -4,4"/>
<!-- Node1 -->
<g id="node1" class="node"><title>Node1</title>
<polygon fill="#bfbfbf" stroke="black" points="0,-6 0,-25 145,-25 145,-6 0,-6"/>
<text text-anchor="middle" x="72.5" y="-13" font-family="Helvetica,sans-Serif" font-size="10.00">AP_TECS::_update_energies</text>
</g>
<!-- Node2 -->
<g id="node2" class="node"><title>Node2</title>
<g id="a_node2"><a xlink:href="classAP__TECS.html#ad9fdee521b36fe15ab8ab06a35717c5a" target="_top" xlink:title="AP_TECS::update_pitch\l_throttle">
<polygon fill="white" stroke="black" points="181,-0.5 181,-30.5 305,-30.5 305,-0.5 181,-0.5"/>
<text text-anchor="start" x="189" y="-18.5" font-family="Helvetica,sans-Serif" font-size="10.00">AP_TECS::update_pitch</text>
<text text-anchor="middle" x="243" y="-7.5" font-family="Helvetica,sans-Serif" font-size="10.00">_throttle</text>
</a>
</g>
</g>
<!-- Node1&#45;&gt;Node2 -->
<g id="edge1" class="edge"><title>Node1&#45;&gt;Node2</title>
<path fill="none" stroke="midnightblue" d="M155.467,-15.5C164.033,-15.5 172.629,-15.5 180.903,-15.5"/>
<polygon fill="midnightblue" stroke="midnightblue" points="155.448,-12.0001 145.448,-15.5 155.448,-19.0001 155.448,-12.0001"/>
</g>
<!-- Node3 -->
<g id="node3" class="node"><title>Node3</title>
<g id="a_node3"><a xlink:href="classAP__TECS.html#a01d6d2b6f4c4151838115b13020d8990" target="_top" xlink:title="AP_TECS::AP_TECS">
<polygon fill="white" stroke="black" points="341,-6 341,-25 455,-25 455,-6 341,-6"/>
<text text-anchor="middle" x="398" y="-13" font-family="Helvetica,sans-Serif" font-size="10.00">AP_TECS::AP_TECS</text>
</a>
</g>
</g>
<!-- Node2&#45;&gt;Node3 -->
<g id="edge2" class="edge"><title>Node2&#45;&gt;Node3</title>
<path fill="none" stroke="midnightblue" d="M315.537,-15.5C323.945,-15.5 332.433,-15.5 340.592,-15.5"/>
<polygon fill="midnightblue" stroke="midnightblue" points="315.349,-12.0001 305.349,-15.5 315.349,-19.0001 315.349,-12.0001"/>
</g>
</g>
</svg>
