<?xml version="1.0" encoding="UTF-8" standalone="no"?>
<!DOCTYPE svg PUBLIC "-//W3C//DTD SVG 1.1//EN"
 "http://www.w3.org/Graphics/SVG/1.1/DTD/svg11.dtd">
<!-- Generated by graphviz version 2.38.0 (20140413.2041)
 -->
<!-- Title: AP_RPM Pages: 1 -->
<svg width="337pt" height="164pt"
 viewBox="0.00 0.00 337.00 164.00" xmlns="http://www.w3.org/2000/svg" xmlns:xlink="http://www.w3.org/1999/xlink">
<g id="graph0" class="graph" transform="scale(1 1) rotate(0) translate(4 160)">
<title>AP_RPM</title>
<polygon fill="white" stroke="none" points="-4,4 -4,-160 333,-160 333,4 -4,4"/>
<!-- Node1 -->
<g id="node1" class="node"><title>Node1</title>
<polygon fill="#bfbfbf" stroke="black" points="108.5,-67.5 108.5,-86.5 166.5,-86.5 166.5,-67.5 108.5,-67.5"/>
<text text-anchor="middle" x="137.5" y="-74.5" font-family="Helvetica,sans-Serif" font-size="10.00">AP_RPM</text>
</g>
<!-- Node2 -->
<g id="node2" class="node"><title>Node2</title>
<g id="a_node2"><a xlink:href="classAP__RPM__Backend.html" target="_top" xlink:title="AP_RPM_Backend">
<polygon fill="white" stroke="black" points="40,-0.5 40,-19.5 141,-19.5 141,-0.5 40,-0.5"/>
<text text-anchor="middle" x="90.5" y="-7.5" font-family="Helvetica,sans-Serif" font-size="10.00">AP_RPM_Backend</text>
</a>
</g>
</g>
<!-- Node1&#45;&gt;Node2 -->
<g id="edge3" class="edge"><title>Node1&#45;&gt;Node2</title>
<path fill="none" stroke="#9a32cd" stroke-dasharray="5,2" d="M133.377,-57.1989C131.38,-50.7321 128.518,-43.6929 124.5,-38 119.284,-30.6103 111.487,-24.2158 104.675,-19.5073"/>
<polygon fill="#9a32cd" stroke="#9a32cd" points="130.073,-58.4012 135.97,-67.2029 136.849,-56.6445 130.073,-58.4012"/>
<text text-anchor="middle" x="147.5" y="-41" font-family="Helvetica,sans-Serif" font-size="10.00"> ap_rpm</text>
</g>
<!-- Node2&#45;&gt;Node1 -->
<g id="edge1" class="edge"><title>Node2&#45;&gt;Node1</title>
<path fill="none" stroke="#9a32cd" stroke-dasharray="5,2" d="M87.4244,-29.8156C87.2605,-36.2837 88.1478,-43.32 91.5,-49 96.3007,-57.1344 104.578,-63.073 112.8,-67.2742"/>
<polygon fill="#9a32cd" stroke="#9a32cd" points="90.9125,-30.1095 88.4432,-19.8064 83.9485,-29.4006 90.9125,-30.1095"/>
<text text-anchor="middle" x="108" y="-41" font-family="Helvetica,sans-Serif" font-size="10.00"> drivers</text>
</g>
<!-- Node3 -->
<g id="node3" class="node"><title>Node3</title>
<g id="a_node3"><a xlink:href="structAP__RPM_1_1RPM__State.html" target="_top" xlink:title="AP_RPM::RPM_State">
<polygon fill="white" stroke="black" points="0,-135.5 0,-154.5 115,-154.5 115,-135.5 0,-135.5"/>
<text text-anchor="middle" x="57.5" y="-142.5" font-family="Helvetica,sans-Serif" font-size="10.00">AP_RPM::RPM_State</text>
</a>
</g>
</g>
<!-- Node3&#45;&gt;Node1 -->
<g id="edge6" class="edge"><title>Node3&#45;&gt;Node1</title>
<path fill="none" stroke="#9a32cd" stroke-dasharray="5,2" d="M76.0039,-128.734C91.8508,-115.661 114.101,-97.3039 127.039,-86.6305"/>
<polygon fill="#9a32cd" stroke="#9a32cd" points="73.445,-126.308 67.9586,-135.372 77.8997,-131.708 73.445,-126.308"/>
<text text-anchor="middle" x="117" y="-108" font-family="Helvetica,sans-Serif" font-size="10.00"> state</text>
</g>
<!-- Node3&#45;&gt;Node2 -->
<g id="edge2" class="edge"><title>Node3&#45;&gt;Node2</title>
<path fill="none" stroke="#9a32cd" stroke-dasharray="5,2" d="M61.261,-125.465C64.5143,-109.821 69.4744,-86.8642 74.5,-67 78.7656,-50.1398 84.5219,-30.6562 87.8403,-19.6854"/>
<polygon fill="#9a32cd" stroke="#9a32cd" points="57.8011,-124.914 59.2172,-135.414 64.6579,-126.323 57.8011,-124.914"/>
<text text-anchor="middle" x="87" y="-74.5" font-family="Helvetica,sans-Serif" font-size="10.00"> state</text>
</g>
<!-- Node4 -->
<g id="node4" class="node"><title>Node4</title>
<g id="a_node4"><a xlink:href="structAP__Param_1_1GroupInfo.html" target="_top" xlink:title="AP_Param::GroupInfo">
<polygon fill="white" stroke="black" points="133,-135.5 133,-154.5 246,-154.5 246,-135.5 133,-135.5"/>
<text text-anchor="middle" x="189.5" y="-142.5" font-family="Helvetica,sans-Serif" font-size="10.00">AP_Param::GroupInfo</text>
</a>
</g>
</g>
<!-- Node4&#45;&gt;Node1 -->
<g id="edge4" class="edge"><title>Node4&#45;&gt;Node1</title>
<path fill="none" stroke="#9a32cd" stroke-dasharray="5,2" d="M176.35,-127.31C166.213,-114.444 152.594,-97.1583 144.466,-86.8411"/>
<polygon fill="#9a32cd" stroke="#9a32cd" points="173.764,-129.683 182.702,-135.372 179.262,-125.351 173.764,-129.683"/>
<text text-anchor="middle" x="185.5" y="-108" font-family="Helvetica,sans-Serif" font-size="10.00"> var_info</text>
</g>
<!-- Node4&#45;&gt;Node4 -->
<g id="edge5" class="edge"><title>Node4&#45;&gt;Node4</title>
<path fill="none" stroke="#9a32cd" stroke-dasharray="5,2" d="M255.988,-149.752C260.952,-148.69 264,-147.106 264,-145 264,-141.713 256.572,-139.697 246.026,-138.952"/>
<polygon fill="#9a32cd" stroke="#9a32cd" points="255.491,-146.287 246.026,-151.048 256.393,-153.229 255.491,-146.287"/>
<text text-anchor="middle" x="296.5" y="-148" font-family="Helvetica,sans-Serif" font-size="10.00"> group_info_ptr</text>
<text text-anchor="middle" x="296.5" y="-137" font-family="Helvetica,sans-Serif" font-size="10.00">group_info</text>
</g>
</g>
</svg>
