<?xml version="1.0" encoding="UTF-8" standalone="no"?>
<!DOCTYPE svg PUBLIC "-//W3C//DTD SVG 1.1//EN"
 "http://www.w3.org/Graphics/SVG/1.1/DTD/svg11.dtd">
<!-- Generated by graphviz version 2.38.0 (20140413.2041)
 -->
<!-- Title: SRV_Channels Pages: 1 -->
<svg width="416pt" height="175pt"
 viewBox="0.00 0.00 415.50 175.00" xmlns="http://www.w3.org/2000/svg" xmlns:xlink="http://www.w3.org/1999/xlink">
<g id="graph0" class="graph" transform="scale(1 1) rotate(0) translate(4 171)">
<title>SRV_Channels</title>
<polygon fill="white" stroke="none" points="-4,4 -4,-171 411.5,-171 411.5,4 -4,4"/>
<!-- Node1 -->
<g id="node1" class="node"><title>Node1</title>
<polygon fill="#bfbfbf" stroke="black" points="169.5,-0.5 169.5,-19.5 253.5,-19.5 253.5,-0.5 169.5,-0.5"/>
<text text-anchor="middle" x="211.5" y="-7.5" font-family="Helvetica,sans-Serif" font-size="10.00">SRV_Channels</text>
</g>
<!-- Node2 -->
<g id="node2" class="node"><title>Node2</title>
<g id="a_node2"><a xlink:href="structSRV__Channels_1_1srv__function.html" target="_top" xlink:title="SRV_Channels::srv_function">
<polygon fill="white" stroke="black" points="0,-78.5 0,-97.5 143,-97.5 143,-78.5 0,-78.5"/>
<text text-anchor="middle" x="71.5" y="-85.5" font-family="Helvetica,sans-Serif" font-size="10.00">SRV_Channels::srv_function</text>
</a>
</g>
</g>
<!-- Node2&#45;&gt;Node1 -->
<g id="edge1" class="edge"><title>Node2&#45;&gt;Node1</title>
<path fill="none" stroke="#9a32cd" stroke-dasharray="5,2" d="M84.8447,-70.6613C94.3415,-59.9971 107.954,-46.522 122.5,-38 136.71,-29.6744 153.726,-23.6969 169.055,-19.5182"/>
<polygon fill="#9a32cd" stroke="#9a32cd" points="82.012,-68.5884 78.1717,-78.4627 87.3316,-73.1385 82.012,-68.5884"/>
<text text-anchor="middle" x="144" y="-46.5" font-family="Helvetica,sans-Serif" font-size="10.00"> functions</text>
</g>
<!-- Node3 -->
<g id="node3" class="node"><title>Node3</title>
<g id="a_node3"><a xlink:href="classSRV__Channel.html" target="_top" xlink:title="SRV_Channel">
<polygon fill="white" stroke="black" points="236,-78.5 236,-97.5 315,-97.5 315,-78.5 236,-78.5"/>
<text text-anchor="middle" x="275.5" y="-85.5" font-family="Helvetica,sans-Serif" font-size="10.00">SRV_Channel</text>
</a>
</g>
</g>
<!-- Node3&#45;&gt;Node1 -->
<g id="edge2" class="edge"><title>Node3&#45;&gt;Node1</title>
<path fill="none" stroke="#9a32cd" stroke-dasharray="5,2" d="M261.557,-70.4421C248.377,-54.7918 229.124,-31.9282 218.756,-19.6165"/>
<polygon fill="#9a32cd" stroke="#9a32cd" points="259.04,-72.8872 268.158,-78.2818 264.394,-68.3782 259.04,-72.8872"/>
<text text-anchor="middle" x="282" y="-52" font-family="Helvetica,sans-Serif" font-size="10.00"> obj_channels</text>
<text text-anchor="middle" x="282" y="-41" font-family="Helvetica,sans-Serif" font-size="10.00">channels</text>
</g>
<!-- Node4 -->
<g id="node4" class="node"><title>Node4</title>
<g id="a_node4"><a xlink:href="structAP__Param_1_1GroupInfo.html" target="_top" xlink:title="AP_Param::GroupInfo">
<polygon fill="white" stroke="black" points="155,-146.5 155,-165.5 268,-165.5 268,-146.5 155,-146.5"/>
<text text-anchor="middle" x="211.5" y="-153.5" font-family="Helvetica,sans-Serif" font-size="10.00">AP_Param::GroupInfo</text>
</a>
</g>
</g>
<!-- Node4&#45;&gt;Node1 -->
<g id="edge6" class="edge"><title>Node4&#45;&gt;Node1</title>
<path fill="none" stroke="#9a32cd" stroke-dasharray="5,2" d="M202.232,-137.152C197.065,-126.181 191.151,-111.654 188.5,-98 182.843,-68.8603 198.252,-35.0516 206.574,-19.5558"/>
<polygon fill="#9a32cd" stroke="#9a32cd" points="199.254,-139.026 206.826,-146.436 205.528,-135.921 199.254,-139.026"/>
<text text-anchor="middle" x="207.5" y="-85.5" font-family="Helvetica,sans-Serif" font-size="10.00"> var_info</text>
</g>
<!-- Node4&#45;&gt;Node3 -->
<g id="edge3" class="edge"><title>Node4&#45;&gt;Node3</title>
<path fill="none" stroke="#9a32cd" stroke-dasharray="5,2" d="M226.969,-139.047C239.513,-126.111 256.73,-108.357 266.927,-97.8411"/>
<polygon fill="#9a32cd" stroke="#9a32cd" points="224.316,-136.756 219.867,-146.372 229.341,-141.629 224.316,-136.756"/>
<text text-anchor="middle" x="268.5" y="-119" font-family="Helvetica,sans-Serif" font-size="10.00"> var_info</text>
</g>
<!-- Node4&#45;&gt;Node4 -->
<g id="edge4" class="edge"><title>Node4&#45;&gt;Node4</title>
<path fill="none" stroke="#9a32cd" stroke-dasharray="5,2" d="M277.988,-160.752C282.952,-159.69 286,-158.106 286,-156 286,-152.713 278.572,-150.697 268.026,-149.952"/>
<polygon fill="#9a32cd" stroke="#9a32cd" points="277.491,-157.287 268.026,-162.048 278.393,-164.229 277.491,-157.287"/>
<text text-anchor="middle" x="318.5" y="-159" font-family="Helvetica,sans-Serif" font-size="10.00"> group_info_ptr</text>
<text text-anchor="middle" x="318.5" y="-148" font-family="Helvetica,sans-Serif" font-size="10.00">group_info</text>
</g>
<!-- Node5 -->
<g id="node5" class="node"><title>Node5</title>
<g id="a_node5"><a xlink:href="classBitmask.html" target="_top" xlink:title="Bitmask">
<polygon fill="white" stroke="black" points="333,-78.5 333,-97.5 386,-97.5 386,-78.5 333,-78.5"/>
<text text-anchor="middle" x="359.5" y="-85.5" font-family="Helvetica,sans-Serif" font-size="10.00">Bitmask</text>
</a>
</g>
</g>
<!-- Node5&#45;&gt;Node1 -->
<g id="edge5" class="edge"><title>Node5&#45;&gt;Node1</title>
<path fill="none" stroke="#9a32cd" stroke-dasharray="5,2" d="M348.414,-69.7698C340.693,-59.1073 329.477,-45.9757 316.5,-38 297.578,-26.3701 273.791,-19.725 253.644,-15.9402"/>
<polygon fill="#9a32cd" stroke="#9a32cd" points="345.721,-72.0334 354.255,-78.3125 351.5,-68.0822 345.721,-72.0334"/>
<text text-anchor="middle" x="374" y="-46.5" font-family="Helvetica,sans-Serif" font-size="10.00"> function_mask</text>
</g>
</g>
</svg>
