<?xml version="1.0" encoding="UTF-8" standalone="no"?>
<!DOCTYPE svg PUBLIC "-//W3C//DTD SVG 1.1//EN"
 "http://www.w3.org/Graphics/SVG/1.1/DTD/svg11.dtd">
<!-- Generated by graphviz version 2.38.0 (20140413.2041)
 -->
<!-- Title: AC_PID::kI Pages: 1 -->
<!--zoomable 186 -->
<svg id="main" version="1.1" xmlns="http://www.w3.org/2000/svg" xmlns:xlink="http://www.w3.org/1999/xlink" xml:space="preserve" onload="init(evt)">
<style type="text/css"><![CDATA[
.edge:hover path { stroke: red; }
.edge:hover polygon { stroke: red; fill: red; }
]]></style>
<script type="text/javascript"><![CDATA[
var edges = document.getElementsByTagName('g');
if (edges && edges.length) {
  for (var i=0;i<edges.length;i++) {
    if (edges[i].id.substr(0,4)=='edge') {
      edges[i].setAttribute('class','edge');
    }
  }
}
]]></script>
        <defs>
                <circle id="rim" cx="0" cy="0" r="7"/>
                <circle id="rim2" cx="0" cy="0" r="3.5"/>
                <g id="zoomPlus">
                        <use xlink:href="#rim" fill="#404040">
                                <set attributeName="fill" to="#808080" begin="zoomplus.mouseover" end="zoomplus.mouseout"/>
                        </use>
                        <path d="M-4,0h8M0,-4v8" fill="none" stroke="white" stroke-width="1.5" pointer-events="none"/>
                </g>
                <g id="zoomMin">
                        <use xlink:href="#rim" fill="#404040">
                                <set attributeName="fill" to="#808080" begin="zoomminus.mouseover" end="zoomminus.mouseout"/>
                        </use>
                        <path d="M-4,0h8" fill="none" stroke="white" stroke-width="1.5" pointer-events="none"/>
                </g>
                <g id="dirArrow">
                        <path fill="none" stroke="white" stroke-width="1.5" d="M0,-3.0v7 M-2.5,-0.5L0,-3.0L2.5,-0.5"/>
                </g>
               <g id="resetDef">
                       <use xlink:href="#rim2" fill="#404040">
                               <set attributeName="fill" to="#808080" begin="reset.mouseover" end="reset.mouseout"/>
                       </use>
               </g>
        </defs>

<script type="text/javascript">
var viewWidth = 878;
var viewHeight = 186;
var sectionId = 'dynsection-20';
</script>
<script xlink:href="svgpan.js"/>
<svg id="graph" class="graph">
<g id="viewport">
<title>AC_PID::kI</title>
<polygon fill="white" stroke="none" points="-4,4 -4,-182 874,-182 874,4 -4,4"/>
<!-- Node1 -->
<g id="node1" class="node"><title>Node1</title>
<polygon fill="#bfbfbf" stroke="black" points="0,-44 0,-63 68,-63 68,-44 0,-44"/>
<text text-anchor="middle" x="34" y="-51" font-family="Helvetica,sans-Serif" font-size="10.00">AC_PID::kI</text>
</g>
<!-- Node2 -->
<g id="node2" class="node"><title>Node2</title>
<g id="a_node2"><a xlink:href="AC__PID__test_8cpp.html#afe461d27b9c48d5921c00d521181f12f" target="_top" xlink:title="loop">
<polygon fill="white" stroke="black" points="104,-44 104,-63 139,-63 139,-44 104,-44"/>
<text text-anchor="middle" x="121.5" y="-51" font-family="Helvetica,sans-Serif" font-size="10.00">loop</text>
</a>
</g>
</g>
<!-- Node1&#45;&gt;Node2 -->
<g id="edge1" class="edge"><title>Node1&#45;&gt;Node2</title>
<path fill="none" stroke="midnightblue" d="M78.4572,-53.5C87.5132,-53.5 96.5269,-53.5 103.872,-53.5"/>
<polygon fill="midnightblue" stroke="midnightblue" points="78.3014,-50.0001 68.3014,-53.5 78.3013,-57.0001 78.3014,-50.0001"/>
</g>
<!-- Node3 -->
<g id="node3" class="node"><title>Node3</title>
<g id="a_node3"><a xlink:href="srxl_8cpp.html#af07d9eda0484746ac9b6908c62320131" target="_top" xlink:title="srxl_channels_get_v1v2">
<polygon fill="white" stroke="black" points="175,-63 175,-82 297,-82 297,-63 175,-63"/>
<text text-anchor="middle" x="236" y="-70" font-family="Helvetica,sans-Serif" font-size="10.00">srxl_channels_get_v1v2</text>
</a>
</g>
</g>
<!-- Node2&#45;&gt;Node3 -->
<g id="edge2" class="edge"><title>Node2&#45;&gt;Node3</title>
<path fill="none" stroke="midnightblue" d="M149.194,-58.0083C158.108,-59.5138 168.405,-61.2528 178.704,-62.9922"/>
<polygon fill="midnightblue" stroke="midnightblue" points="149.543,-54.5178 139.1,-56.3035 148.377,-61.42 149.543,-54.5178"/>
</g>
<!-- Node12 -->
<g id="node12" class="node"><title>Node12</title>
<g id="a_node12"><a xlink:href="srxl_8cpp.html#a908bd0e7f23b4226e28fca1dade3546c" target="_top" xlink:title="srxl_crc16">
<polygon fill="white" stroke="black" points="205,-25 205,-44 267,-44 267,-25 205,-25"/>
<text text-anchor="middle" x="236" y="-32" font-family="Helvetica,sans-Serif" font-size="10.00">srxl_crc16</text>
</a>
</g>
</g>
<!-- Node2&#45;&gt;Node12 -->
<g id="edge12" class="edge"><title>Node2&#45;&gt;Node12</title>
<path fill="none" stroke="midnightblue" d="M149.275,-48.978C165.96,-46.1601 187.467,-42.5279 204.764,-39.6065"/>
<polygon fill="midnightblue" stroke="midnightblue" points="148.377,-45.58 139.1,-50.6965 149.543,-52.4822 148.377,-45.58"/>
</g>
<!-- Node4 -->
<g id="node4" class="node"><title>Node4</title>
<g id="a_node4"><a xlink:href="srxl_8h.html#ac8ca847087c226aee045c95d3756f90c" target="_top" xlink:title="srxl_decode">
<polygon fill="white" stroke="black" points="333,-44 333,-63 402,-63 402,-44 333,-44"/>
<text text-anchor="middle" x="367.5" y="-51" font-family="Helvetica,sans-Serif" font-size="10.00">srxl_decode</text>
</a>
</g>
</g>
<!-- Node3&#45;&gt;Node4 -->
<g id="edge3" class="edge"><title>Node3&#45;&gt;Node4</title>
<path fill="none" stroke="midnightblue" d="M307.291,-62.187C316.208,-60.8787 324.983,-59.5912 332.935,-58.4246"/>
<polygon fill="midnightblue" stroke="midnightblue" points="306.587,-58.7528 297.201,-63.6675 307.603,-65.6787 306.587,-58.7528"/>
</g>
<!-- Node4&#45;&gt;Node4 -->
<g id="edge11" class="edge"><title>Node4&#45;&gt;Node4</title>
<path fill="none" stroke="midnightblue" d="M344.807,-72.5292C346.044,-77.628 353.609,-81.5 367.5,-81.5 389.184,-81.5 395.452,-72.0653 386.304,-63.2571"/>
<polygon fill="midnightblue" stroke="midnightblue" points="348.055,-73.8325 348.696,-63.2571 341.6,-71.1246 348.055,-73.8325"/>
</g>
<!-- Node5 -->
<g id="node5" class="node"><title>Node5</title>
<g id="a_node5"><a xlink:href="classLinux_1_1RCInput.html#a6edc4ae0ca741df8094586df888ceae1" target="_top" xlink:title="Linux::RCInput::add\l_srxl_input">
<polygon fill="white" stroke="black" points="438,-38.5 438,-68.5 542,-68.5 542,-38.5 438,-38.5"/>
<text text-anchor="start" x="446" y="-56.5" font-family="Helvetica,sans-Serif" font-size="10.00">Linux::RCInput::add</text>
<text text-anchor="middle" x="490" y="-45.5" font-family="Helvetica,sans-Serif" font-size="10.00">_srxl_input</text>
</a>
</g>
</g>
<!-- Node4&#45;&gt;Node5 -->
<g id="edge4" class="edge"><title>Node4&#45;&gt;Node5</title>
<path fill="none" stroke="midnightblue" d="M412.207,-53.5C420.443,-53.5 429.126,-53.5 437.572,-53.5"/>
<polygon fill="midnightblue" stroke="midnightblue" points="412.066,-50.0001 402.066,-53.5 412.066,-57.0001 412.066,-50.0001"/>
</g>
<!-- Node6 -->
<g id="node6" class="node"><title>Node6</title>
<g id="a_node6"><a xlink:href="classLinux_1_1RCInput.html#a0d5d4518e1ed51c95fe36a9d6ea7ecac" target="_top" xlink:title="Linux::RCInput::_timer_tick">
<polygon fill="white" stroke="black" points="578,-79 578,-98 715,-98 715,-79 578,-79"/>
<text text-anchor="middle" x="646.5" y="-86" font-family="Helvetica,sans-Serif" font-size="10.00">Linux::RCInput::_timer_tick</text>
</a>
</g>
</g>
<!-- Node5&#45;&gt;Node6 -->
<g id="edge5" class="edge"><title>Node5&#45;&gt;Node6</title>
<path fill="none" stroke="midnightblue" d="M552.024,-67.3241C569.288,-71.2352 587.685,-75.4027 603.551,-78.9969"/>
<polygon fill="midnightblue" stroke="midnightblue" points="552.543,-63.8533 542.017,-65.0573 550.997,-70.6803 552.543,-63.8533"/>
</g>
<!-- Node10 -->
<g id="node10" class="node"><title>Node10</title>
<g id="a_node10"><a xlink:href="classLinux_1_1RCInput__115200.html#a9805846609a4810fdfa92a6354f7cb45" target="_top" xlink:title="Linux::RCInput_115200\l::_timer_tick">
<polygon fill="white" stroke="black" points="587,-14.5 587,-44.5 706,-44.5 706,-14.5 587,-14.5"/>
<text text-anchor="start" x="595" y="-32.5" font-family="Helvetica,sans-Serif" font-size="10.00">Linux::RCInput_115200</text>
<text text-anchor="middle" x="646.5" y="-21.5" font-family="Helvetica,sans-Serif" font-size="10.00">::_timer_tick</text>
</a>
</g>
</g>
<!-- Node5&#45;&gt;Node10 -->
<g id="edge9" class="edge"><title>Node5&#45;&gt;Node10</title>
<path fill="none" stroke="midnightblue" d="M551.938,-44.0338C563.406,-42.2525 575.376,-40.393 586.774,-38.6224"/>
<polygon fill="midnightblue" stroke="midnightblue" points="551.361,-40.5814 542.017,-45.575 552.436,-47.4984 551.361,-40.5814"/>
</g>
<!-- Node7 -->
<g id="node7" class="node"><title>Node7</title>
<g id="a_node7"><a xlink:href="classLinux_1_1Scheduler.html#a78a6776a646f8e58f5f39cf2ce366608" target="_top" xlink:title="Linux::Scheduler::\l_timer_task">
<polygon fill="white" stroke="black" points="763,-147.5 763,-177.5 858,-177.5 858,-147.5 763,-147.5"/>
<text text-anchor="start" x="771" y="-165.5" font-family="Helvetica,sans-Serif" font-size="10.00">Linux::Scheduler::</text>
<text text-anchor="middle" x="810.5" y="-154.5" font-family="Helvetica,sans-Serif" font-size="10.00">_timer_task</text>
</a>
</g>
</g>
<!-- Node6&#45;&gt;Node7 -->
<g id="edge6" class="edge"><title>Node6&#45;&gt;Node7</title>
<path fill="none" stroke="midnightblue" d="M675.583,-102.638C696.28,-112.917 725.199,-126.988 751,-138.5 757.717,-141.497 764.925,-144.569 771.907,-147.472"/>
<polygon fill="midnightblue" stroke="midnightblue" points="676.925,-99.3955 666.414,-98.0645 673.801,-105.66 676.925,-99.3955"/>
</g>
<!-- Node8 -->
<g id="node8" class="node"><title>Node8</title>
<g id="a_node8"><a xlink:href="classLinux_1_1Scheduler.html#ab4423cb70540d467b8464d67ffd9c325" target="_top" xlink:title="Linux::Scheduler::\l_rcin_task">
<polygon fill="white" stroke="black" points="763,-98.5 763,-128.5 858,-128.5 858,-98.5 763,-98.5"/>
<text text-anchor="start" x="771" y="-116.5" font-family="Helvetica,sans-Serif" font-size="10.00">Linux::Scheduler::</text>
<text text-anchor="middle" x="810.5" y="-105.5" font-family="Helvetica,sans-Serif" font-size="10.00">_rcin_task</text>
</a>
</g>
</g>
<!-- Node6&#45;&gt;Node8 -->
<g id="edge7" class="edge"><title>Node6&#45;&gt;Node8</title>
<path fill="none" stroke="midnightblue" d="M719.331,-99.585C734.084,-101.862 749.249,-104.202 762.832,-106.298"/>
<polygon fill="midnightblue" stroke="midnightblue" points="719.624,-96.0889 709.207,-98.0227 718.557,-103.007 719.624,-96.0889"/>
</g>
<!-- Node9 -->
<g id="node9" class="node"><title>Node9</title>
<g id="a_node9"><a xlink:href="classLinux_1_1RCInput__Multi.html#a0b12cfca1c9ff9bcbf8f2818d8c1007f" target="_top" xlink:title="Linux::RCInput_Multi\l::_timer_tick">
<polygon fill="white" stroke="black" points="756,-49.5 756,-79.5 865,-79.5 865,-49.5 756,-49.5"/>
<text text-anchor="start" x="764" y="-67.5" font-family="Helvetica,sans-Serif" font-size="10.00">Linux::RCInput_Multi</text>
<text text-anchor="middle" x="810.5" y="-56.5" font-family="Helvetica,sans-Serif" font-size="10.00">::_timer_tick</text>
</a>
</g>
</g>
<!-- Node6&#45;&gt;Node9 -->
<g id="edge8" class="edge"><title>Node6&#45;&gt;Node9</title>
<path fill="none" stroke="midnightblue" d="M721.979,-77.4661C733.421,-75.771 745.037,-74.0501 755.907,-72.4397"/>
<polygon fill="midnightblue" stroke="midnightblue" points="721.371,-74.0178 711.992,-78.9456 722.397,-80.9422 721.371,-74.0178"/>
</g>
<!-- Node11 -->
<g id="node11" class="node"><title>Node11</title>
<g id="a_node11"><a xlink:href="classLinux_1_1RCInput__115200.html#a6c0a3303198514999c718a1620df9354" target="_top" xlink:title="Linux::RCInput_115200\l::RCInput_115200">
<polygon fill="white" stroke="black" points="751,-0.5 751,-30.5 870,-30.5 870,-0.5 751,-0.5"/>
<text text-anchor="start" x="759" y="-18.5" font-family="Helvetica,sans-Serif" font-size="10.00">Linux::RCInput_115200</text>
<text text-anchor="middle" x="810.5" y="-7.5" font-family="Helvetica,sans-Serif" font-size="10.00">::RCInput_115200</text>
</a>
</g>
</g>
<!-- Node10&#45;&gt;Node11 -->
<g id="edge10" class="edge"><title>Node10&#45;&gt;Node11</title>
<path fill="none" stroke="midnightblue" d="M716.415,-23.5444C727.886,-22.5531 739.687,-21.5332 750.871,-20.5667"/>
<polygon fill="midnightblue" stroke="midnightblue" points="716.105,-20.058 706.444,-24.4061 716.708,-27.032 716.105,-20.058"/>
</g>
<!-- Node12&#45;&gt;Node4 -->
<g id="edge13" class="edge"><title>Node12&#45;&gt;Node4</title>
<path fill="none" stroke="midnightblue" d="M276.935,-40.3592C294.895,-42.9942 315.855,-46.0695 332.982,-48.5823"/>
<polygon fill="midnightblue" stroke="midnightblue" points="277.438,-36.8955 267.035,-38.9067 276.421,-43.8214 277.438,-36.8955"/>
</g>
</g>
</svg>
        <g id="navigator" transform="translate(0 0)" fill="#404254">
                <rect fill="#f2f5e9" fill-opacity="0.5" stroke="#606060" stroke-width=".5" x="0" y="0" width="60" height="60"/>
                <use id="zoomplus" xlink:href="#zoomPlus" x="17" y="9" onmousedown="handleZoom(evt,'in')"/>
                <use id="zoomminus" xlink:href="#zoomMin" x="42" y="9" onmousedown="handleZoom(evt,'out')"/>
                <use id="reset" xlink:href="#resetDef" x="30" y="36" onmousedown="handleReset()"/>
                <g id="arrowUp" xlink:href="#dirArrow" transform="translate(30 24)" onmousedown="handlePan(0,-1)">
                  <use xlink:href="#rim" fill="#404040">
                        <set attributeName="fill" to="#808080" begin="arrowUp.mouseover" end="arrowUp.mouseout"/>
                  </use>
                  <path fill="none" stroke="white" stroke-width="1.5" d="M0,-3.0v7 M-2.5,-0.5L0,-3.0L2.5,-0.5"/>
                </g>
                <g id="arrowRight" xlink:href="#dirArrow" transform="rotate(90) translate(36 -43)" onmousedown="handlePan(1,0)">
                  <use xlink:href="#rim" fill="#404040">
                        <set attributeName="fill" to="#808080" begin="arrowRight.mouseover" end="arrowRight.mouseout"/>
                  </use>
                  <path fill="none" stroke="white" stroke-width="1.5" d="M0,-3.0v7 M-2.5,-0.5L0,-3.0L2.5,-0.5"/>
                </g>
                <g id="arrowDown" xlink:href="#dirArrow" transform="rotate(180) translate(-30 -48)" onmousedown="handlePan(0,1)">
                  <use xlink:href="#rim" fill="#404040">
                        <set attributeName="fill" to="#808080" begin="arrowDown.mouseover" end="arrowDown.mouseout"/>
                  </use>
                  <path fill="none" stroke="white" stroke-width="1.5" d="M0,-3.0v7 M-2.5,-0.5L0,-3.0L2.5,-0.5"/>
                </g>
                <g id="arrowLeft" xlink:href="#dirArrow" transform="rotate(270) translate(-36 17)" onmousedown="handlePan(-1,0)">
                  <use xlink:href="#rim" fill="#404040">
                        <set attributeName="fill" to="#808080" begin="arrowLeft.mouseover" end="arrowLeft.mouseout"/>
                  </use>
                  <path fill="none" stroke="white" stroke-width="1.5" d="M0,-3.0v7 M-2.5,-0.5L0,-3.0L2.5,-0.5"/>
                </g>
        </g>
        <svg viewBox="0 0 15 15" width="100%" height="30px" preserveAspectRatio="xMaxYMin meet">
         <g id="arrow_out" transform="scale(0.3 0.3)">
          <a xlink:href="classAC__PID_af27f5e854a44864911720c12c3d1af0a_icgraph_org.svg" target="_base">
           <rect id="button" ry="5" rx="5" y="6" x="6" height="38" width="38"
                fill="#f2f5e9" fill-opacity="0.5" stroke="#606060" stroke-width="1.0"/>
           <path id="arrow"
             d="M 11.500037,31.436501 C 11.940474,20.09759 22.043105,11.32322 32.158766,21.979434 L 37.068811,17.246167 C 37.068811,17.246167 37.088388,32 37.088388,32 L 22.160133,31.978069 C 22.160133,31.978069 26.997745,27.140456 26.997745,27.140456 C 18.528582,18.264221 13.291696,25.230495 11.500037,31.436501 z"
             style="fill:#404040;"/>
          </a>
         </g>
        </svg>
</svg>
