<?xml version="1.0" encoding="UTF-8" standalone="no"?>
<!DOCTYPE svg PUBLIC "-//W3C//DTD SVG 1.1//EN"
 "http://www.w3.org/Graphics/SVG/1.1/DTD/svg11.dtd">
<!-- Generated by graphviz version 2.38.0 (20140413.2041)
 -->
<!-- Title: AP_Motors::set_pitch Pages: 1 -->
<svg width="608pt" height="230pt"
 viewBox="0.00 0.00 608.00 230.00" xmlns="http://www.w3.org/2000/svg" xmlns:xlink="http://www.w3.org/1999/xlink">
<g id="graph0" class="graph" transform="scale(1 1) rotate(0) translate(4 226)">
<title>AP_Motors::set_pitch</title>
<polygon fill="white" stroke="none" points="-4,4 -4,-226 604,-226 604,4 -4,4"/>
<!-- Node1 -->
<g id="node1" class="node"><title>Node1</title>
<polygon fill="#bfbfbf" stroke="black" points="0,-98.5 0,-117.5 111,-117.5 111,-98.5 0,-98.5"/>
<text text-anchor="middle" x="55.5" y="-105.5" font-family="Helvetica,sans-Serif" font-size="10.00">AP_Motors::set_pitch</text>
</g>
<!-- Node2 -->
<g id="node2" class="node"><title>Node2</title>
<g id="a_node2"><a xlink:href="classAC__AttitudeControl__Heli.html#ae1e17847d017cc4f71e36397df689ddb" target="_top" xlink:title="AC_AttitudeControl\l_Heli::rate_bf_to_motor\l_roll_pitch">
<polygon fill="white" stroke="black" points="152,-180.5 152,-221.5 271,-221.5 271,-180.5 152,-180.5"/>
<text text-anchor="start" x="160" y="-209.5" font-family="Helvetica,sans-Serif" font-size="10.00">AC_AttitudeControl</text>
<text text-anchor="start" x="160" y="-198.5" font-family="Helvetica,sans-Serif" font-size="10.00">_Heli::rate_bf_to_motor</text>
<text text-anchor="middle" x="211.5" y="-187.5" font-family="Helvetica,sans-Serif" font-size="10.00">_roll_pitch</text>
</a>
</g>
</g>
<!-- Node1&#45;&gt;Node2 -->
<g id="edge1" class="edge"><title>Node1&#45;&gt;Node2</title>
<path fill="none" stroke="midnightblue" d="M79.4425,-123.299C97.5807,-135.249 123.648,-152.102 147,-166 155.113,-170.828 163.922,-175.832 172.324,-180.493"/>
<polygon fill="midnightblue" stroke="midnightblue" points="81.0076,-120.138 70.7365,-117.539 77.1449,-125.976 81.0076,-120.138"/>
</g>
<!-- Node3 -->
<g id="node3" class="node"><title>Node3</title>
<g id="a_node3"><a xlink:href="classAC__AttitudeControl__Heli.html#a38cb1684d4155d8f1f319d7385d3f2c6" target="_top" xlink:title="AC_AttitudeControl\l_Heli::rate_controller_run">
<polygon fill="white" stroke="black" points="314.5,-166 314.5,-196 439.5,-196 439.5,-166 314.5,-166"/>
<text text-anchor="start" x="322.5" y="-184" font-family="Helvetica,sans-Serif" font-size="10.00">AC_AttitudeControl</text>
<text text-anchor="middle" x="377" y="-173" font-family="Helvetica,sans-Serif" font-size="10.00">_Heli::rate_controller_run</text>
</a>
</g>
</g>
<!-- Node1&#45;&gt;Node3 -->
<g id="edge6" class="edge"><title>Node1&#45;&gt;Node3</title>
<path fill="none" stroke="midnightblue" d="M100.639,-120.163C115.347,-124.094 131.844,-128.371 147,-132 203.344,-145.491 267.916,-159.145 314.099,-168.601"/>
<polygon fill="midnightblue" stroke="midnightblue" points="101.346,-116.73 90.7804,-117.51 99.5269,-123.489 101.346,-116.73"/>
</g>
<!-- Node5 -->
<g id="node5" class="node"><title>Node5</title>
<g id="a_node5"><a xlink:href="classAC__AttitudeControl__Sub.html#a448de11eb6f1caa81c9195c8e958ca37" target="_top" xlink:title="AC_AttitudeControl\l_Sub::rate_controller_run">
<polygon fill="white" stroke="black" points="149,-93 149,-123 274,-123 274,-93 149,-93"/>
<text text-anchor="start" x="157" y="-111" font-family="Helvetica,sans-Serif" font-size="10.00">AC_AttitudeControl</text>
<text text-anchor="middle" x="211.5" y="-100" font-family="Helvetica,sans-Serif" font-size="10.00">_Sub::rate_controller_run</text>
</a>
</g>
</g>
<!-- Node1&#45;&gt;Node5 -->
<g id="edge4" class="edge"><title>Node1&#45;&gt;Node5</title>
<path fill="none" stroke="midnightblue" d="M121.382,-108C130.488,-108 139.826,-108 148.869,-108"/>
<polygon fill="midnightblue" stroke="midnightblue" points="121.228,-104.5 111.228,-108 121.228,-111.5 121.228,-104.5"/>
</g>
<!-- Node7 -->
<g id="node7" class="node"><title>Node7</title>
<g id="a_node7"><a xlink:href="classAC__AttitudeControl__Multi.html#a5b0f032a592442fb04a83ac254442b4c" target="_top" xlink:title="AC_AttitudeControl\l_Multi::rate_controller_run">
<polygon fill="white" stroke="black" points="147,-44 147,-74 276,-74 276,-44 147,-44"/>
<text text-anchor="start" x="155" y="-62" font-family="Helvetica,sans-Serif" font-size="10.00">AC_AttitudeControl</text>
<text text-anchor="middle" x="211.5" y="-51" font-family="Helvetica,sans-Serif" font-size="10.00">_Multi::rate_controller_run</text>
</a>
</g>
</g>
<!-- Node1&#45;&gt;Node7 -->
<g id="edge7" class="edge"><title>Node1&#45;&gt;Node7</title>
<path fill="none" stroke="midnightblue" d="M96.1985,-95.3687C116.669,-88.8554 141.776,-80.8666 163.241,-74.037"/>
<polygon fill="midnightblue" stroke="midnightblue" points="95.0264,-92.0686 86.5583,-98.436 97.1488,-98.7391 95.0264,-92.0686"/>
</g>
<!-- Node9 -->
<g id="node9" class="node"><title>Node9</title>
<g id="a_node9"><a xlink:href="AP__Motors__test_8cpp.html#a7f47bb79f883994514efee9d8de3ec0c" target="_top" xlink:title="stability_test">
<polygon fill="white" stroke="black" points="175.5,-3.5 175.5,-22.5 247.5,-22.5 247.5,-3.5 175.5,-3.5"/>
<text text-anchor="middle" x="211.5" y="-10.5" font-family="Helvetica,sans-Serif" font-size="10.00">stability_test</text>
</a>
</g>
</g>
<!-- Node1&#45;&gt;Node9 -->
<g id="edge9" class="edge"><title>Node1&#45;&gt;Node9</title>
<path fill="none" stroke="midnightblue" d="M73.7365,-90.5975C90.9651,-74.0494 118.873,-49.4537 147,-34 155.752,-29.1914 165.79,-25.2437 175.262,-22.121"/>
<polygon fill="midnightblue" stroke="midnightblue" points="70.8756,-88.5006 66.1825,-97.9994 75.7748,-93.5005 70.8756,-88.5006"/>
</g>
<!-- Node2&#45;&gt;Node3 -->
<g id="edge2" class="edge"><title>Node2&#45;&gt;Node3</title>
<path fill="none" stroke="midnightblue" d="M281.063,-192.613C292.074,-191.266 303.414,-189.879 314.254,-188.553"/>
<polygon fill="midnightblue" stroke="midnightblue" points="280.566,-189.148 271.065,-193.836 281.416,-196.096 280.566,-189.148"/>
</g>
<!-- Node4 -->
<g id="node4" class="node"><title>Node4</title>
<g id="a_node4"><a xlink:href="classAC__AttitudeControl__Heli.html#aae3cc5dc6f4db3bdb7d17b9d7f54f371" target="_top" xlink:title="AC_AttitudeControl\l_Heli::get_rate_yaw_pid">
<polygon fill="white" stroke="black" points="478,-166 478,-196 600,-196 600,-166 478,-166"/>
<text text-anchor="start" x="486" y="-184" font-family="Helvetica,sans-Serif" font-size="10.00">AC_AttitudeControl</text>
<text text-anchor="middle" x="539" y="-173" font-family="Helvetica,sans-Serif" font-size="10.00">_Heli::get_rate_yaw_pid</text>
</a>
</g>
</g>
<!-- Node3&#45;&gt;Node4 -->
<g id="edge3" class="edge"><title>Node3&#45;&gt;Node4</title>
<path fill="none" stroke="midnightblue" d="M449.918,-181C459.264,-181 468.758,-181 477.883,-181"/>
<polygon fill="midnightblue" stroke="midnightblue" points="449.86,-177.5 439.86,-181 449.86,-184.5 449.86,-177.5"/>
</g>
<!-- Node6 -->
<g id="node6" class="node"><title>Node6</title>
<g id="a_node6"><a xlink:href="classAC__AttitudeControl__Sub.html#a5d384f89e97c92b0c0d62277b2de982e" target="_top" xlink:title="AC_AttitudeControl\l_Sub::is_throttle_mix_min">
<polygon fill="white" stroke="black" points="312,-98 312,-128 442,-128 442,-98 312,-98"/>
<text text-anchor="start" x="320" y="-116" font-family="Helvetica,sans-Serif" font-size="10.00">AC_AttitudeControl</text>
<text text-anchor="middle" x="377" y="-105" font-family="Helvetica,sans-Serif" font-size="10.00">_Sub::is_throttle_mix_min</text>
</a>
</g>
</g>
<!-- Node5&#45;&gt;Node6 -->
<g id="edge5" class="edge"><title>Node5&#45;&gt;Node6</title>
<path fill="none" stroke="midnightblue" d="M284.52,-110.202C293.645,-110.481 302.934,-110.766 311.923,-111.04"/>
<polygon fill="midnightblue" stroke="midnightblue" points="284.415,-106.698 274.312,-109.89 284.201,-113.694 284.415,-106.698"/>
</g>
<!-- Node8 -->
<g id="node8" class="node"><title>Node8</title>
<g id="a_node8"><a xlink:href="classAC__AttitudeControl__Multi.html#a6318b45690210c7514bb5aae5dfd0904" target="_top" xlink:title="AC_AttitudeControl\l_Multi::is_throttle\l_mix_min">
<polygon fill="white" stroke="black" points="326.5,-38.5 326.5,-79.5 427.5,-79.5 427.5,-38.5 326.5,-38.5"/>
<text text-anchor="start" x="334.5" y="-67.5" font-family="Helvetica,sans-Serif" font-size="10.00">AC_AttitudeControl</text>
<text text-anchor="start" x="334.5" y="-56.5" font-family="Helvetica,sans-Serif" font-size="10.00">_Multi::is_throttle</text>
<text text-anchor="middle" x="377" y="-45.5" font-family="Helvetica,sans-Serif" font-size="10.00">_mix_min</text>
</a>
</g>
</g>
<!-- Node7&#45;&gt;Node8 -->
<g id="edge8" class="edge"><title>Node7&#45;&gt;Node8</title>
<path fill="none" stroke="midnightblue" d="M286.45,-59C299.984,-59 313.806,-59 326.414,-59"/>
<polygon fill="midnightblue" stroke="midnightblue" points="286.182,-55.5001 276.182,-59 286.182,-62.5001 286.182,-55.5001"/>
</g>
<!-- Node10 -->
<g id="node10" class="node"><title>Node10</title>
<g id="a_node10"><a xlink:href="AP__Motors__test_8cpp.html#afe461d27b9c48d5921c00d521181f12f" target="_top" xlink:title="loop">
<polygon fill="white" stroke="black" points="359.5,-0.5 359.5,-19.5 394.5,-19.5 394.5,-0.5 359.5,-0.5"/>
<text text-anchor="middle" x="377" y="-7.5" font-family="Helvetica,sans-Serif" font-size="10.00">loop</text>
</a>
</g>
</g>
<!-- Node9&#45;&gt;Node10 -->
<g id="edge10" class="edge"><title>Node9&#45;&gt;Node10</title>
<path fill="none" stroke="midnightblue" d="M257.692,-12.1708C291.491,-11.5506 335.789,-10.7378 359.432,-10.304"/>
<polygon fill="midnightblue" stroke="midnightblue" points="257.509,-8.67346 247.575,-12.3564 257.637,-15.6723 257.509,-8.67346"/>
</g>
</g>
</svg>
