<?xml version="1.0" encoding="UTF-8" standalone="no"?>
<!DOCTYPE svg PUBLIC "-//W3C//DTD SVG 1.1//EN"
 "http://www.w3.org/Graphics/SVG/1.1/DTD/svg11.dtd">
<!-- Generated by graphviz version 2.38.0 (20140413.2041)
 -->
<!-- Title: AP_MotorsHeli::get_rsc_setpoint Pages: 1 -->
<svg width="256pt" height="137pt"
 viewBox="0.00 0.00 256.00 137.00" xmlns="http://www.w3.org/2000/svg" xmlns:xlink="http://www.w3.org/1999/xlink">
<g id="graph0" class="graph" transform="scale(1 1) rotate(0) translate(4 133)">
<title>AP_MotorsHeli::get_rsc_setpoint</title>
<polygon fill="white" stroke="none" points="-4,4 -4,-133 252,-133 252,4 -4,4"/>
<!-- Node1 -->
<g id="node1" class="node"><title>Node1</title>
<polygon fill="#bfbfbf" stroke="black" points="0,-49.5 0,-79.5 102,-79.5 102,-49.5 0,-49.5"/>
<text text-anchor="start" x="8" y="-67.5" font-family="Helvetica,sans-Serif" font-size="10.00">AP_MotorsHeli::get</text>
<text text-anchor="middle" x="51" y="-56.5" font-family="Helvetica,sans-Serif" font-size="10.00">_rsc_setpoint</text>
</g>
<!-- Node2 -->
<g id="node2" class="node"><title>Node2</title>
<g id="a_node2"><a xlink:href="classAP__MotorsHeli.html#a86b03d21096010eaa03deaff1177ad53" target="_top" xlink:title="AP_MotorsHeli::set\l_desired_rotor_speed">
<polygon fill="white" stroke="black" points="138,-98.5 138,-128.5 248,-128.5 248,-98.5 138,-98.5"/>
<text text-anchor="start" x="146" y="-116.5" font-family="Helvetica,sans-Serif" font-size="10.00">AP_MotorsHeli::set</text>
<text text-anchor="middle" x="193" y="-105.5" font-family="Helvetica,sans-Serif" font-size="10.00">_desired_rotor_speed</text>
</a>
</g>
</g>
<!-- Node1&#45;&gt;Node2 -->
<g id="edge1" class="edge"><title>Node1&#45;&gt;Node2</title>
<path fill="none" stroke="midnightblue" d="M95.147,-79.6014C108.986,-84.4451 124.475,-89.8664 138.938,-94.9285"/>
<polygon fill="midnightblue" stroke="midnightblue" points="138.16,-98.364 148.755,-98.3641 140.472,-91.757 138.16,-98.364"/>
</g>
<!-- Node3 -->
<g id="node3" class="node"><title>Node3</title>
<g id="a_node3"><a xlink:href="classAP__MotorsHeli.html#a4068491667be0c5ed149a341c41b3ce5" target="_top" xlink:title="AP_MotorsHeli::get\l_desired_rotor_speed">
<polygon fill="white" stroke="black" points="138,-49.5 138,-79.5 248,-79.5 248,-49.5 138,-49.5"/>
<text text-anchor="start" x="146" y="-67.5" font-family="Helvetica,sans-Serif" font-size="10.00">AP_MotorsHeli::get</text>
<text text-anchor="middle" x="193" y="-56.5" font-family="Helvetica,sans-Serif" font-size="10.00">_desired_rotor_speed</text>
</a>
</g>
</g>
<!-- Node1&#45;&gt;Node3 -->
<g id="edge2" class="edge"><title>Node1&#45;&gt;Node3</title>
<path fill="none" stroke="midnightblue" d="M102.148,-64.5C110.494,-64.5 119.251,-64.5 127.887,-64.5"/>
<polygon fill="midnightblue" stroke="midnightblue" points="127.938,-68.0001 137.938,-64.5 127.938,-61.0001 127.938,-68.0001"/>
</g>
<!-- Node4 -->
<g id="node4" class="node"><title>Node4</title>
<g id="a_node4"><a xlink:href="classAP__MotorsHeli.html#a5c7b1dc6eaf90ca221d432766c766dcc" target="_top" xlink:title="AP_MotorsHeli::get\l_main_rotor_speed">
<polygon fill="white" stroke="black" points="142,-0.5 142,-30.5 244,-30.5 244,-0.5 142,-0.5"/>
<text text-anchor="start" x="150" y="-18.5" font-family="Helvetica,sans-Serif" font-size="10.00">AP_MotorsHeli::get</text>
<text text-anchor="middle" x="193" y="-7.5" font-family="Helvetica,sans-Serif" font-size="10.00">_main_rotor_speed</text>
</a>
</g>
</g>
<!-- Node1&#45;&gt;Node4 -->
<g id="edge3" class="edge"><title>Node1&#45;&gt;Node4</title>
<path fill="none" stroke="midnightblue" d="M95.147,-49.3986C108.986,-44.5549 124.475,-39.1336 138.938,-34.0715"/>
<polygon fill="midnightblue" stroke="midnightblue" points="140.472,-37.243 148.755,-30.6359 138.16,-30.636 140.472,-37.243"/>
</g>
</g>
</svg>
