<?xml version="1.0" encoding="UTF-8" standalone="no"?>
<!DOCTYPE svg PUBLIC "-//W3C//DTD SVG 1.1//EN"
 "http://www.w3.org/Graphics/SVG/1.1/DTD/svg11.dtd">
<!-- Generated by graphviz version 2.38.0 (20140413.2041)
 -->
<!-- Title: AccelCalibrator::calc_mean_squared_residuals Pages: 1 -->
<svg width="281pt" height="127pt"
 viewBox="0.00 0.00 281.00 126.50" xmlns="http://www.w3.org/2000/svg" xmlns:xlink="http://www.w3.org/1999/xlink">
<g id="graph0" class="graph" transform="scale(1 1) rotate(0) translate(4 122.5)">
<title>AccelCalibrator::calc_mean_squared_residuals</title>
<polygon fill="white" stroke="none" points="-4,4 -4,-122.5 277,-122.5 277,4 -4,4"/>
<!-- Node1 -->
<g id="node1" class="node"><title>Node1</title>
<polygon fill="#bfbfbf" stroke="black" points="0,-39 0,-69 130,-69 130,-39 0,-39"/>
<text text-anchor="start" x="8" y="-57" font-family="Helvetica,sans-Serif" font-size="10.00">AccelCalibrator::calc</text>
<text text-anchor="middle" x="65" y="-46" font-family="Helvetica,sans-Serif" font-size="10.00">_mean_squared_residuals</text>
</g>
<!-- Node2 -->
<g id="node2" class="node"><title>Node2</title>
<g id="a_node2"><a xlink:href="classAccelCalibrator.html#a97c6d873d36c2598ff8b8964b0307d8c" target="_top" xlink:title="AccelCalibrator::get\l_sample">
<polygon fill="white" stroke="black" points="168,-88 168,-118 271,-118 271,-88 168,-88"/>
<text text-anchor="start" x="176" y="-106" font-family="Helvetica,sans-Serif" font-size="10.00">AccelCalibrator::get</text>
<text text-anchor="middle" x="219.5" y="-95" font-family="Helvetica,sans-Serif" font-size="10.00">_sample</text>
</a>
</g>
</g>
<!-- Node1&#45;&gt;Node2 -->
<g id="edge1" class="edge"><title>Node1&#45;&gt;Node2</title>
<path fill="none" stroke="midnightblue" d="M112.999,-69.1014C128.436,-74.0615 145.759,-79.6274 161.835,-84.7929"/>
<polygon fill="midnightblue" stroke="midnightblue" points="161.064,-88.2215 171.656,-87.9484 163.206,-81.5571 161.064,-88.2215"/>
</g>
<!-- Node3 -->
<g id="node3" class="node"><title>Node3</title>
<g id="a_node3"><a xlink:href="classAccelCalibrator.html#a26140868d230a5c0f1f5dbf060c55904" target="_top" xlink:title="AccelCalibrator::calc\l_residual">
<polygon fill="white" stroke="black" points="166,-39 166,-69 273,-69 273,-39 166,-39"/>
<text text-anchor="start" x="174" y="-57" font-family="Helvetica,sans-Serif" font-size="10.00">AccelCalibrator::calc</text>
<text text-anchor="middle" x="219.5" y="-46" font-family="Helvetica,sans-Serif" font-size="10.00">_residual</text>
</a>
</g>
</g>
<!-- Node1&#45;&gt;Node3 -->
<g id="edge2" class="edge"><title>Node1&#45;&gt;Node3</title>
<path fill="none" stroke="midnightblue" d="M130.232,-54C138.681,-54 147.332,-54 155.756,-54"/>
<polygon fill="midnightblue" stroke="midnightblue" points="155.89,-57.5001 165.89,-54 155.89,-50.5001 155.89,-57.5001"/>
</g>
<!-- Node4 -->
<g id="node4" class="node"><title>Node4</title>
<g id="a_node4"><a xlink:href="AP__Math_8h.html#a0375e3d67fd3911cacee5c3e1408c0f2" target="_top" xlink:title="sq">
<polygon fill="white" stroke="black" points="205,-0.5 205,-19.5 234,-19.5 234,-0.5 205,-0.5"/>
<text text-anchor="middle" x="219.5" y="-7.5" font-family="Helvetica,sans-Serif" font-size="10.00">sq</text>
</a>
</g>
</g>
<!-- Node1&#45;&gt;Node4 -->
<g id="edge3" class="edge"><title>Node1&#45;&gt;Node4</title>
<path fill="none" stroke="midnightblue" d="M118.055,-38.9808C144.213,-31.4336 174.609,-22.6636 195.054,-16.7648"/>
<polygon fill="midnightblue" stroke="midnightblue" points="196.125,-20.0985 204.763,-13.9635 194.185,-13.3729 196.125,-20.0985"/>
</g>
</g>
</svg>
