<?xml version="1.0" encoding="UTF-8" standalone="no"?>
<!DOCTYPE svg PUBLIC "-//W3C//DTD SVG 1.1//EN"
 "http://www.w3.org/Graphics/SVG/1.1/DTD/svg11.dtd">
<!-- Generated by graphviz version 2.38.0 (20140413.2041)
 -->
<!-- Title: AP_Baro_MS56XX::_read_prom_word Pages: 1 -->
<!--zoomable 106 -->
<svg id="main" version="1.1" xmlns="http://www.w3.org/2000/svg" xmlns:xlink="http://www.w3.org/1999/xlink" xml:space="preserve" onload="init(evt)">
<style type="text/css"><![CDATA[
.edge:hover path { stroke: red; }
.edge:hover polygon { stroke: red; fill: red; }
]]></style>
<script type="text/javascript"><![CDATA[
var edges = document.getElementsByTagName('g');
if (edges && edges.length) {
  for (var i=0;i<edges.length;i++) {
    if (edges[i].id.substr(0,4)=='edge') {
      edges[i].setAttribute('class','edge');
    }
  }
}
]]></script>
        <defs>
                <circle id="rim" cx="0" cy="0" r="7"/>
                <circle id="rim2" cx="0" cy="0" r="3.5"/>
                <g id="zoomPlus">
                        <use xlink:href="#rim" fill="#404040">
                                <set attributeName="fill" to="#808080" begin="zoomplus.mouseover" end="zoomplus.mouseout"/>
                        </use>
                        <path d="M-4,0h8M0,-4v8" fill="none" stroke="white" stroke-width="1.5" pointer-events="none"/>
                </g>
                <g id="zoomMin">
                        <use xlink:href="#rim" fill="#404040">
                                <set attributeName="fill" to="#808080" begin="zoomminus.mouseover" end="zoomminus.mouseout"/>
                        </use>
                        <path d="M-4,0h8" fill="none" stroke="white" stroke-width="1.5" pointer-events="none"/>
                </g>
                <g id="dirArrow">
                        <path fill="none" stroke="white" stroke-width="1.5" d="M0,-3.0v7 M-2.5,-0.5L0,-3.0L2.5,-0.5"/>
                </g>
               <g id="resetDef">
                       <use xlink:href="#rim2" fill="#404040">
                               <set attributeName="fill" to="#808080" begin="reset.mouseover" end="reset.mouseout"/>
                       </use>
               </g>
        </defs>

<script type="text/javascript">
var viewWidth = 817;
var viewHeight = 106;
var sectionId = 'dynsection-21';
</script>
<script xlink:href="svgpan.js"/>
<svg id="graph" class="graph">
<g id="viewport">
<title>AP_Baro_MS56XX::_read_prom_word</title>
<polygon fill="white" stroke="none" points="-4,4 -4,-101.94 813,-101.94 813,4 -4,4"/>
<!-- Node1 -->
<g id="node1" class="node"><title>Node1</title>
<polygon fill="#bfbfbf" stroke="black" points="0,-16.5472 0,-46.5472 130,-46.5472 130,-16.5472 0,-16.5472"/>
<text text-anchor="start" x="8" y="-34.5472" font-family="Helvetica,sans-Serif" font-size="10.00">AP_Baro_MS56XX::_read</text>
<text text-anchor="middle" x="65" y="-23.5472" font-family="Helvetica,sans-Serif" font-size="10.00">_prom_word</text>
</g>
<!-- Node2 -->
<g id="node2" class="node"><title>Node2</title>
<g id="a_node2"><a xlink:href="classAP__Baro__MS56XX.html#a69cb6716c705cc2df8c4d37e95b886f8" target="_top" xlink:title="AP_Baro_MS56XX::_read\l_prom_5611">
<polygon fill="white" stroke="black" points="166,-65.5472 166,-95.5472 296,-95.5472 296,-65.5472 166,-65.5472"/>
<text text-anchor="start" x="174" y="-83.5472" font-family="Helvetica,sans-Serif" font-size="10.00">AP_Baro_MS56XX::_read</text>
<text text-anchor="middle" x="231" y="-72.5472" font-family="Helvetica,sans-Serif" font-size="10.00">_prom_5611</text>
</a>
</g>
</g>
<!-- Node1&#45;&gt;Node2 -->
<g id="edge1" class="edge"><title>Node1&#45;&gt;Node2</title>
<path fill="none" stroke="midnightblue" d="M126.134,-49.5141C143.706,-54.7642 162.723,-60.4461 179.623,-65.4956"/>
<polygon fill="midnightblue" stroke="midnightblue" points="127.127,-46.1579 116.544,-46.6486 125.123,-52.8649 127.127,-46.1579"/>
</g>
<!-- Node7 -->
<g id="node7" class="node"><title>Node7</title>
<g id="a_node7"><a xlink:href="classAP__Baro__MS56XX.html#a355a33a0b35cdf084ae22c85978492a2" target="_top" xlink:title="AP_Baro_MS56XX::~AP\l_Baro_MS56XX">
<polygon fill="white" stroke="black" points="494.5,-10.5472 494.5,-40.5472 619.5,-40.5472 619.5,-10.5472 494.5,-10.5472"/>
<text text-anchor="start" x="502.5" y="-28.5472" font-family="Helvetica,sans-Serif" font-size="10.00">AP_Baro_MS56XX::~AP</text>
<text text-anchor="middle" x="557" y="-17.5472" font-family="Helvetica,sans-Serif" font-size="10.00">_Baro_MS56XX</text>
</a>
</g>
</g>
<!-- Node1&#45;&gt;Node7 -->
<g id="edge11" class="edge"><title>Node1&#45;&gt;Node7</title>
<path fill="none" stroke="midnightblue" d="M125.776,-14.0735C138.915,-10.9449 152.837,-8.16757 166,-6.54715 281.386,7.65757 417.203,-5.69693 494.292,-16.0606"/>
<polygon fill="midnightblue" stroke="midnightblue" points="124.77,-10.7168 115.907,-16.5211 126.455,-17.511 124.77,-10.7168"/>
</g>
<!-- Node8 -->
<g id="node8" class="node"><title>Node8</title>
<g id="a_node8"><a xlink:href="classAP__Baro__MS56XX.html#a494378afab26087a53bc37def0df2950" target="_top" xlink:title="AP_Baro_MS56XX::_read\l_prom_5637">
<polygon fill="white" stroke="black" points="166,-16.5472 166,-46.5472 296,-46.5472 296,-16.5472 166,-16.5472"/>
<text text-anchor="start" x="174" y="-34.5472" font-family="Helvetica,sans-Serif" font-size="10.00">AP_Baro_MS56XX::_read</text>
<text text-anchor="middle" x="231" y="-23.5472" font-family="Helvetica,sans-Serif" font-size="10.00">_prom_5637</text>
</a>
</g>
</g>
<!-- Node1&#45;&gt;Node8 -->
<g id="edge8" class="edge"><title>Node1&#45;&gt;Node8</title>
<path fill="none" stroke="midnightblue" d="M140.564,-31.5472C149.004,-31.5472 157.549,-31.5472 165.839,-31.5472"/>
<polygon fill="midnightblue" stroke="midnightblue" points="140.346,-28.0473 130.346,-31.5472 140.346,-35.0473 140.346,-28.0473"/>
</g>
<!-- Node3 -->
<g id="node3" class="node"><title>Node3</title>
<g id="a_node3"><a xlink:href="classAP__Baro__MS56XX.html#a2f9fa10ace104137e6a0a0b4c8f4130c" target="_top" xlink:title="AP_Baro_MS56XX::_init">
<polygon fill="white" stroke="black" points="332,-54.0472 332,-73.0472 456,-73.0472 456,-54.0472 332,-54.0472"/>
<text text-anchor="middle" x="394" y="-61.0472" font-family="Helvetica,sans-Serif" font-size="10.00">AP_Baro_MS56XX::_init</text>
</a>
</g>
</g>
<!-- Node2&#45;&gt;Node3 -->
<g id="edge2" class="edge"><title>Node2&#45;&gt;Node3</title>
<path fill="none" stroke="midnightblue" d="M306.101,-72.7229C314.683,-71.8167 323.363,-70.9001 331.747,-70.0149"/>
<polygon fill="midnightblue" stroke="midnightblue" points="305.671,-69.2487 296.094,-73.7795 306.406,-76.21 305.671,-69.2487"/>
</g>
<!-- Node2&#45;&gt;Node7 -->
<g id="edge7" class="edge"><title>Node2&#45;&gt;Node7</title>
<path fill="none" stroke="midnightblue" d="M306.392,-94.5074C351.172,-99.7098 408.517,-100.6 456,-82.5472 476.01,-74.9394 473.744,-61.7277 492,-50.5472 498.002,-46.8714 504.637,-43.562 511.294,-40.6454"/>
<polygon fill="midnightblue" stroke="midnightblue" points="306.815,-91.0331 296.457,-93.2593 305.942,-97.9785 306.815,-91.0331"/>
</g>
<!-- Node4 -->
<g id="node4" class="node"><title>Node4</title>
<g id="a_node4"><a xlink:href="classAP__Baro__MS56XX.html#ad4e1780fe0c684f594cc93ec96a9c876" target="_top" xlink:title="AP_Baro_MS56XX::probe">
<polygon fill="white" stroke="black" points="492,-60.0472 492,-79.0472 622,-79.0472 622,-60.0472 492,-60.0472"/>
<text text-anchor="middle" x="557" y="-67.0472" font-family="Helvetica,sans-Serif" font-size="10.00">AP_Baro_MS56XX::probe</text>
</a>
</g>
</g>
<!-- Node3&#45;&gt;Node4 -->
<g id="edge3" class="edge"><title>Node3&#45;&gt;Node4</title>
<path fill="none" stroke="midnightblue" d="M466.539,-66.2132C474.986,-66.528 483.566,-66.8478 491.901,-67.1584"/>
<polygon fill="midnightblue" stroke="midnightblue" points="466.45,-62.7075 456.326,-65.8326 466.189,-69.7027 466.45,-62.7075"/>
</g>
<!-- Node3&#45;&gt;Node7 -->
<g id="edge6" class="edge"><title>Node3&#45;&gt;Node7</title>
<path fill="none" stroke="midnightblue" d="M445.526,-51.6218C461.012,-47.9668 478.224,-43.9042 494.365,-40.0946"/>
<polygon fill="midnightblue" stroke="midnightblue" points="444.556,-48.2545 435.627,-53.9582 446.164,-55.0673 444.556,-48.2545"/>
</g>
<!-- Node5 -->
<g id="node5" class="node"><title>Node5</title>
<g id="a_node5"><a xlink:href="classAP__Baro.html#a942db790233528bfbb4d9a07c3454360" target="_top" xlink:title="AP_Baro::init">
<polygon fill="white" stroke="black" points="658,-60.0472 658,-79.0472 732,-79.0472 732,-60.0472 658,-60.0472"/>
<text text-anchor="middle" x="695" y="-67.0472" font-family="Helvetica,sans-Serif" font-size="10.00">AP_Baro::init</text>
</a>
</g>
</g>
<!-- Node4&#45;&gt;Node5 -->
<g id="edge4" class="edge"><title>Node4&#45;&gt;Node5</title>
<path fill="none" stroke="midnightblue" d="M632.083,-69.5472C640.975,-69.5472 649.727,-69.5472 657.725,-69.5472"/>
<polygon fill="midnightblue" stroke="midnightblue" points="632.018,-66.0473 622.018,-69.5472 632.018,-73.0473 632.018,-66.0473"/>
</g>
<!-- Node6 -->
<g id="node6" class="node"><title>Node6</title>
<g id="a_node6"><a xlink:href="BARO__generic_8cpp.html#a4fc01d736fe50cf5b977f755b675f11d" target="_top" xlink:title="setup">
<polygon fill="white" stroke="black" points="768,-60.0472 768,-79.0472 809,-79.0472 809,-60.0472 768,-60.0472"/>
<text text-anchor="middle" x="788.5" y="-67.0472" font-family="Helvetica,sans-Serif" font-size="10.00">setup</text>
</a>
</g>
</g>
<!-- Node5&#45;&gt;Node6 -->
<g id="edge5" class="edge"><title>Node5&#45;&gt;Node6</title>
<path fill="none" stroke="midnightblue" d="M742.3,-69.5472C751.333,-69.5472 760.339,-69.5472 767.906,-69.5472"/>
<polygon fill="midnightblue" stroke="midnightblue" points="742.163,-66.0473 732.163,-69.5472 742.163,-73.0473 742.163,-66.0473"/>
</g>
<!-- Node8&#45;&gt;Node3 -->
<g id="edge9" class="edge"><title>Node8&#45;&gt;Node3</title>
<path fill="none" stroke="midnightblue" d="M306.126,-46.2802C319.334,-48.9054 332.772,-51.5764 345.006,-54.0081"/>
<polygon fill="midnightblue" stroke="midnightblue" points="306.585,-42.803 296.094,-44.2863 305.22,-49.6687 306.585,-42.803"/>
</g>
<!-- Node8&#45;&gt;Node7 -->
<g id="edge10" class="edge"><title>Node8&#45;&gt;Node7</title>
<path fill="none" stroke="midnightblue" d="M306.034,-30.1762C362.975,-29.1217 440.726,-27.6819 494.319,-26.6894"/>
<polygon fill="midnightblue" stroke="midnightblue" points="305.945,-26.6771 296.012,-30.3617 306.075,-33.6759 305.945,-26.6771"/>
</g>
</g>
</svg>
        <g id="navigator" transform="translate(0 0)" fill="#404254">
                <rect fill="#f2f5e9" fill-opacity="0.5" stroke="#606060" stroke-width=".5" x="0" y="0" width="60" height="60"/>
                <use id="zoomplus" xlink:href="#zoomPlus" x="17" y="9" onmousedown="handleZoom(evt,'in')"/>
                <use id="zoomminus" xlink:href="#zoomMin" x="42" y="9" onmousedown="handleZoom(evt,'out')"/>
                <use id="reset" xlink:href="#resetDef" x="30" y="36" onmousedown="handleReset()"/>
                <g id="arrowUp" xlink:href="#dirArrow" transform="translate(30 24)" onmousedown="handlePan(0,-1)">
                  <use xlink:href="#rim" fill="#404040">
                        <set attributeName="fill" to="#808080" begin="arrowUp.mouseover" end="arrowUp.mouseout"/>
                  </use>
                  <path fill="none" stroke="white" stroke-width="1.5" d="M0,-3.0v7 M-2.5,-0.5L0,-3.0L2.5,-0.5"/>
                </g>
                <g id="arrowRight" xlink:href="#dirArrow" transform="rotate(90) translate(36 -43)" onmousedown="handlePan(1,0)">
                  <use xlink:href="#rim" fill="#404040">
                        <set attributeName="fill" to="#808080" begin="arrowRight.mouseover" end="arrowRight.mouseout"/>
                  </use>
                  <path fill="none" stroke="white" stroke-width="1.5" d="M0,-3.0v7 M-2.5,-0.5L0,-3.0L2.5,-0.5"/>
                </g>
                <g id="arrowDown" xlink:href="#dirArrow" transform="rotate(180) translate(-30 -48)" onmousedown="handlePan(0,1)">
                  <use xlink:href="#rim" fill="#404040">
                        <set attributeName="fill" to="#808080" begin="arrowDown.mouseover" end="arrowDown.mouseout"/>
                  </use>
                  <path fill="none" stroke="white" stroke-width="1.5" d="M0,-3.0v7 M-2.5,-0.5L0,-3.0L2.5,-0.5"/>
                </g>
                <g id="arrowLeft" xlink:href="#dirArrow" transform="rotate(270) translate(-36 17)" onmousedown="handlePan(-1,0)">
                  <use xlink:href="#rim" fill="#404040">
                        <set attributeName="fill" to="#808080" begin="arrowLeft.mouseover" end="arrowLeft.mouseout"/>
                  </use>
                  <path fill="none" stroke="white" stroke-width="1.5" d="M0,-3.0v7 M-2.5,-0.5L0,-3.0L2.5,-0.5"/>
                </g>
        </g>
        <svg viewBox="0 0 15 15" width="100%" height="30px" preserveAspectRatio="xMaxYMin meet">
         <g id="arrow_out" transform="scale(0.3 0.3)">
          <a xlink:href="classAP__Baro__MS56XX_af5051fb5f63cb1b5ed64510b77fb2d1d_icgraph_org.svg" target="_base">
           <rect id="button" ry="5" rx="5" y="6" x="6" height="38" width="38"
                fill="#f2f5e9" fill-opacity="0.5" stroke="#606060" stroke-width="1.0"/>
           <path id="arrow"
             d="M 11.500037,31.436501 C 11.940474,20.09759 22.043105,11.32322 32.158766,21.979434 L 37.068811,17.246167 C 37.068811,17.246167 37.088388,32 37.088388,32 L 22.160133,31.978069 C 22.160133,31.978069 26.997745,27.140456 26.997745,27.140456 C 18.528582,18.264221 13.291696,25.230495 11.500037,31.436501 z"
             style="fill:#404040;"/>
          </a>
         </g>
        </svg>
</svg>
