<?xml version="1.0" encoding="UTF-8" standalone="no"?>
<!DOCTYPE svg PUBLIC "-//W3C//DTD SVG 1.1//EN"
 "http://www.w3.org/Graphics/SVG/1.1/DTD/svg11.dtd">
<!-- Generated by graphviz version 2.38.0 (20140413.2041)
 -->
<!-- Title: AP_RPM_PX4_PWM Pages: 1 -->
<svg width="496pt" height="232pt"
 viewBox="0.00 0.00 496.27 232.00" xmlns="http://www.w3.org/2000/svg" xmlns:xlink="http://www.w3.org/1999/xlink">
<g id="graph0" class="graph" transform="scale(1 1) rotate(0) translate(4 228)">
<title>AP_RPM_PX4_PWM</title>
<polygon fill="white" stroke="none" points="-4,4 -4,-228 492.269,-228 492.269,4 -4,4"/>
<!-- Node1 -->
<g id="node1" class="node"><title>Node1</title>
<polygon fill="#bfbfbf" stroke="black" points="310.269,-0.5 310.269,-19.5 422.269,-19.5 422.269,-0.5 310.269,-0.5"/>
<text text-anchor="middle" x="366.269" y="-7.5" font-family="Helvetica,sans-Serif" font-size="10.00">AP_RPM_PX4_PWM</text>
</g>
<!-- Node2 -->
<g id="node2" class="node"><title>Node2</title>
<g id="a_node2"><a xlink:href="classAP__RPM__Backend.html" target="_top" xlink:title="AP_RPM_Backend">
<polygon fill="white" stroke="black" points="253.769,-68.5 253.769,-87.5 354.769,-87.5 354.769,-68.5 253.769,-68.5"/>
<text text-anchor="middle" x="304.269" y="-75.5" font-family="Helvetica,sans-Serif" font-size="10.00">AP_RPM_Backend</text>
</a>
</g>
</g>
<!-- Node2&#45;&gt;Node1 -->
<g id="edge1" class="edge"><title>Node2&#45;&gt;Node1</title>
<path fill="none" stroke="midnightblue" d="M319.255,-61.0474C331.407,-48.1111 348.085,-30.3567 357.964,-19.8411"/>
<polygon fill="midnightblue" stroke="midnightblue" points="316.67,-58.6868 312.374,-68.3717 321.772,-63.4795 316.67,-58.6868"/>
</g>
<!-- Node4 -->
<g id="node4" class="node"><title>Node4</title>
<g id="a_node4"><a xlink:href="classAP__RPM.html" target="_top" xlink:title="AP_RPM">
<polygon fill="white" stroke="black" points="135.269,-0.5 135.269,-19.5 193.269,-19.5 193.269,-0.5 135.269,-0.5"/>
<text text-anchor="middle" x="164.269" y="-7.5" font-family="Helvetica,sans-Serif" font-size="10.00">AP_RPM</text>
</a>
</g>
</g>
<!-- Node2&#45;&gt;Node4 -->
<g id="edge4" class="edge"><title>Node2&#45;&gt;Node4</title>
<path fill="none" stroke="#9a32cd" stroke-dasharray="5,2" d="M287.301,-61.896C277.594,-53.889 264.871,-44.4111 252.269,-38 233.61,-28.5077 211.004,-21.6601 193.376,-17.2361"/>
<polygon fill="#9a32cd" stroke="#9a32cd" points="285.095,-64.6148 294.975,-68.4396 289.637,-59.2881 285.095,-64.6148"/>
<text text-anchor="middle" x="285.769" y="-41" font-family="Helvetica,sans-Serif" font-size="10.00"> drivers</text>
</g>
<!-- Node3 -->
<g id="node3" class="node"><title>Node3</title>
<g id="a_node3"><a xlink:href="structAP__RPM_1_1RPM__State.html" target="_top" xlink:title="AP_RPM::RPM_State">
<polygon fill="white" stroke="black" points="23.7689,-142 23.7689,-161 138.769,-161 138.769,-142 23.7689,-142"/>
<text text-anchor="middle" x="81.2689" y="-149" font-family="Helvetica,sans-Serif" font-size="10.00">AP_RPM::RPM_State</text>
</a>
</g>
</g>
<!-- Node3&#45;&gt;Node2 -->
<g id="edge2" class="edge"><title>Node3&#45;&gt;Node2</title>
<path fill="none" stroke="#9a32cd" stroke-dasharray="5,2" d="M117.808,-138.784C162.708,-124.388 237.814,-100.307 277.622,-87.5439"/>
<polygon fill="#9a32cd" stroke="#9a32cd" points="116.622,-135.489 108.168,-141.875 118.759,-142.155 116.622,-135.489"/>
<text text-anchor="middle" x="225.769" y="-110" font-family="Helvetica,sans-Serif" font-size="10.00"> state</text>
</g>
<!-- Node3&#45;&gt;Node4 -->
<g id="edge7" class="edge"><title>Node3&#45;&gt;Node4</title>
<path fill="none" stroke="#9a32cd" stroke-dasharray="5,2" d="M53.6713,-137.165C24.8413,-121.385 -13.7417,-93.8508 5.26888,-67 34.779,-25.3196 97.9353,-14.4418 135.157,-11.7401"/>
<polygon fill="#9a32cd" stroke="#9a32cd" points="52.1234,-140.305 62.6037,-141.859 55.3801,-134.109 52.1234,-140.305"/>
<text text-anchor="middle" x="17.7689" y="-75.5" font-family="Helvetica,sans-Serif" font-size="10.00"> state</text>
</g>
<!-- Node4&#45;&gt;Node2 -->
<g id="edge3" class="edge"><title>Node4&#45;&gt;Node2</title>
<path fill="none" stroke="#9a32cd" stroke-dasharray="5,2" d="M181.978,-26.1673C191.622,-33.8346 204.054,-42.802 216.269,-49 232.711,-57.3429 252.139,-63.8406 268.552,-68.4672"/>
<polygon fill="#9a32cd" stroke="#9a32cd" points="183.941,-23.2499 173.991,-19.6082 179.498,-28.6595 183.941,-23.2499"/>
<text text-anchor="middle" x="234.269" y="-41" font-family="Helvetica,sans-Serif" font-size="10.00"> ap_rpm</text>
</g>
<!-- Node5 -->
<g id="node5" class="node"><title>Node5</title>
<g id="a_node5"><a xlink:href="structAP__Param_1_1GroupInfo.html" target="_top" xlink:title="AP_Param::GroupInfo">
<polygon fill="white" stroke="black" points="39.7689,-68.5 39.7689,-87.5 152.769,-87.5 152.769,-68.5 39.7689,-68.5"/>
<text text-anchor="middle" x="96.2689" y="-75.5" font-family="Helvetica,sans-Serif" font-size="10.00">AP_Param::GroupInfo</text>
</a>
</g>
</g>
<!-- Node5&#45;&gt;Node4 -->
<g id="edge5" class="edge"><title>Node5&#45;&gt;Node4</title>
<path fill="none" stroke="#9a32cd" stroke-dasharray="5,2" d="M112.705,-61.0474C126.033,-48.1111 144.326,-30.3567 155.16,-19.8411"/>
<polygon fill="#9a32cd" stroke="#9a32cd" points="109.897,-58.8953 105.159,-68.3717 114.772,-63.9184 109.897,-58.8953"/>
<text text-anchor="middle" x="156.269" y="-41" font-family="Helvetica,sans-Serif" font-size="10.00"> var_info</text>
</g>
<!-- Node5&#45;&gt;Node5 -->
<g id="edge6" class="edge"><title>Node5&#45;&gt;Node5</title>
<path fill="none" stroke="#9a32cd" stroke-dasharray="5,2" d="M162.757,-82.7523C167.721,-81.6899 170.769,-80.1058 170.769,-78 170.769,-74.7129 163.341,-72.697 152.794,-71.9522"/>
<polygon fill="#9a32cd" stroke="#9a32cd" points="162.26,-79.2874 152.794,-84.0478 163.162,-86.229 162.26,-79.2874"/>
<text text-anchor="middle" x="203.269" y="-81" font-family="Helvetica,sans-Serif" font-size="10.00"> group_info_ptr</text>
<text text-anchor="middle" x="203.269" y="-70" font-family="Helvetica,sans-Serif" font-size="10.00">group_info</text>
</g>
<!-- Node6 -->
<g id="node6" class="node"><title>Node6</title>
<g id="a_node6"><a xlink:href="classModeFilter.html" target="_top" xlink:title="ModeFilter\&lt; float, 5 \&gt;">
<polygon fill="white" stroke="black" points="373.269,-68.5 373.269,-87.5 483.269,-87.5 483.269,-68.5 373.269,-68.5"/>
<text text-anchor="middle" x="428.269" y="-75.5" font-family="Helvetica,sans-Serif" font-size="10.00">ModeFilter&lt; float, 5 &gt;</text>
</a>
</g>
</g>
<!-- Node6&#45;&gt;Node1 -->
<g id="edge8" class="edge"><title>Node6&#45;&gt;Node1</title>
<path fill="none" stroke="#9a32cd" stroke-dasharray="5,2" d="M413.283,-61.0474C401.131,-48.1111 384.452,-30.3567 374.574,-19.8411"/>
<polygon fill="#9a32cd" stroke="#9a32cd" points="410.766,-63.4795 420.163,-68.3717 415.868,-58.6868 410.766,-63.4795"/>
<text text-anchor="middle" x="444.769" y="-41" font-family="Helvetica,sans-Serif" font-size="10.00"> signal_quality_filter</text>
</g>
<!-- Node7 -->
<g id="node7" class="node"><title>Node7</title>
<g id="a_node7"><a xlink:href="classFilterWithBuffer.html" target="_top" xlink:title="FilterWithBuffer\&lt; float,\l FILTER_SIZE \&gt;">
<polygon fill="white" stroke="black" points="370.269,-136.5 370.269,-166.5 486.269,-166.5 486.269,-136.5 370.269,-136.5"/>
<text text-anchor="start" x="378.269" y="-154.5" font-family="Helvetica,sans-Serif" font-size="10.00">FilterWithBuffer&lt; float,</text>
<text text-anchor="middle" x="428.269" y="-143.5" font-family="Helvetica,sans-Serif" font-size="10.00"> FILTER_SIZE &gt;</text>
</a>
</g>
</g>
<!-- Node7&#45;&gt;Node6 -->
<g id="edge9" class="edge"><title>Node7&#45;&gt;Node6</title>
<path fill="none" stroke="midnightblue" d="M428.269,-126.357C428.269,-113.015 428.269,-97.2528 428.269,-87.6981"/>
<polygon fill="midnightblue" stroke="midnightblue" points="424.769,-126.374 428.269,-136.374 431.769,-126.374 424.769,-126.374"/>
</g>
<!-- Node8 -->
<g id="node8" class="node"><title>Node8</title>
<g id="a_node8"><a xlink:href="classFilter.html" target="_top" xlink:title="Filter\&lt; float \&gt;">
<polygon fill="white" stroke="black" points="390.769,-204.5 390.769,-223.5 465.769,-223.5 465.769,-204.5 390.769,-204.5"/>
<text text-anchor="middle" x="428.269" y="-211.5" font-family="Helvetica,sans-Serif" font-size="10.00">Filter&lt; float &gt;</text>
</a>
</g>
</g>
<!-- Node8&#45;&gt;Node7 -->
<g id="edge10" class="edge"><title>Node8&#45;&gt;Node7</title>
<path fill="none" stroke="midnightblue" d="M428.269,-194.215C428.269,-185.356 428.269,-174.958 428.269,-166.759"/>
<polygon fill="midnightblue" stroke="midnightblue" points="424.769,-194.332 428.269,-204.332 431.769,-194.332 424.769,-194.332"/>
</g>
</g>
</svg>
