<?xml version="1.0" encoding="UTF-8" standalone="no"?>
<!DOCTYPE svg PUBLIC "-//W3C//DTD SVG 1.1//EN"
 "http://www.w3.org/Graphics/SVG/1.1/DTD/svg11.dtd">
<!-- Generated by graphviz version 2.38.0 (20140413.2041)
 -->
<!-- Title: AP_RangeFinder_uLanding::detect Pages: 1 -->
<svg width="757pt" height="78pt"
 viewBox="0.00 0.00 757.00 77.50" xmlns="http://www.w3.org/2000/svg" xmlns:xlink="http://www.w3.org/1999/xlink">
<g id="graph0" class="graph" transform="scale(1 1) rotate(0) translate(4 73.5)">
<title>AP_RangeFinder_uLanding::detect</title>
<polygon fill="white" stroke="none" points="-4,4 -4,-73.5 753,-73.5 753,4 -4,4"/>
<!-- Node1 -->
<g id="node1" class="node"><title>Node1</title>
<polygon fill="#bfbfbf" stroke="black" points="0,-25.5 0,-55.5 135,-55.5 135,-25.5 0,-25.5"/>
<text text-anchor="start" x="8" y="-43.5" font-family="Helvetica,sans-Serif" font-size="10.00">AP_RangeFinder_uLanding</text>
<text text-anchor="middle" x="67.5" y="-32.5" font-family="Helvetica,sans-Serif" font-size="10.00">::detect</text>
</g>
<!-- Node2 -->
<g id="node2" class="node"><title>Node2</title>
<g id="a_node2"><a xlink:href="classRangeFinder.html#a7f7f9dce880eb37d53df67cba39bdda9" target="_top" xlink:title="RangeFinder::detect\l_instance">
<polygon fill="white" stroke="black" points="171,-25.5 171,-55.5 276,-55.5 276,-25.5 171,-25.5"/>
<text text-anchor="start" x="179" y="-43.5" font-family="Helvetica,sans-Serif" font-size="10.00">RangeFinder::detect</text>
<text text-anchor="middle" x="223.5" y="-32.5" font-family="Helvetica,sans-Serif" font-size="10.00">_instance</text>
</a>
</g>
</g>
<!-- Node1&#45;&gt;Node2 -->
<g id="edge1" class="edge"><title>Node1&#45;&gt;Node2</title>
<path fill="none" stroke="midnightblue" d="M145.218,-40.5C153.818,-40.5 162.422,-40.5 170.602,-40.5"/>
<polygon fill="midnightblue" stroke="midnightblue" points="145.151,-37.0001 135.151,-40.5 145.151,-44.0001 145.151,-37.0001"/>
</g>
<!-- Node3 -->
<g id="node3" class="node"><title>Node3</title>
<g id="a_node3"><a xlink:href="classRangeFinder.html#a1c2d6a488e35a856814b5d48ca3d5d9e" target="_top" xlink:title="RangeFinder::init">
<polygon fill="white" stroke="black" points="312,-31 312,-50 403,-50 403,-31 312,-31"/>
<text text-anchor="middle" x="357.5" y="-38" font-family="Helvetica,sans-Serif" font-size="10.00">RangeFinder::init</text>
</a>
</g>
</g>
<!-- Node2&#45;&gt;Node3 -->
<g id="edge2" class="edge"><title>Node2&#45;&gt;Node3</title>
<path fill="none" stroke="midnightblue" d="M286.557,-40.5C295.039,-40.5 303.609,-40.5 311.703,-40.5"/>
<polygon fill="midnightblue" stroke="midnightblue" points="286.291,-37.0001 276.291,-40.5 286.291,-44.0001 286.291,-37.0001"/>
</g>
<!-- Node4 -->
<g id="node4" class="node"><title>Node4</title>
<g id="a_node4"><a xlink:href="RFIND__test_8cpp.html#a4fc01d736fe50cf5b977f755b675f11d" target="_top" xlink:title="setup">
<polygon fill="white" stroke="black" points="660,-50 660,-69 701,-69 701,-50 660,-50"/>
<text text-anchor="middle" x="680.5" y="-57" font-family="Helvetica,sans-Serif" font-size="10.00">setup</text>
</a>
</g>
</g>
<!-- Node3&#45;&gt;Node4 -->
<g id="edge3" class="edge"><title>Node3&#45;&gt;Node4</title>
<path fill="none" stroke="midnightblue" d="M413.5,-43.7554C486.427,-48.072 611.525,-55.4765 659.745,-58.3307"/>
<polygon fill="midnightblue" stroke="midnightblue" points="413.323,-40.2389 403.134,-43.1419 412.909,-47.2267 413.323,-40.2389"/>
</g>
<!-- Node5 -->
<g id="node5" class="node"><title>Node5</title>
<g id="a_node5"><a xlink:href="classRangeFinder.html#a95856f52f03d5234d587600faedcbfaf" target="_top" xlink:title="RangeFinder::num_sensors">
<polygon fill="white" stroke="black" points="439,-12 439,-31 576,-31 576,-12 439,-12"/>
<text text-anchor="middle" x="507.5" y="-19" font-family="Helvetica,sans-Serif" font-size="10.00">RangeFinder::num_sensors</text>
</a>
</g>
</g>
<!-- Node3&#45;&gt;Node5 -->
<g id="edge4" class="edge"><title>Node3&#45;&gt;Node5</title>
<path fill="none" stroke="midnightblue" d="M413.282,-33.4672C421.628,-32.3957 430.324,-31.2793 438.905,-30.1777"/>
<polygon fill="midnightblue" stroke="midnightblue" points="412.779,-30.0029 403.307,-34.7478 413.671,-36.9459 412.779,-30.0029"/>
</g>
<!-- Node5&#45;&gt;Node4 -->
<g id="edge6" class="edge"><title>Node5&#45;&gt;Node4</title>
<path fill="none" stroke="midnightblue" d="M561.69,-33.3199C594.915,-40.7034 635.773,-49.783 659.602,-55.0782"/>
<polygon fill="midnightblue" stroke="midnightblue" points="562.172,-29.8417 551.651,-31.089 560.653,-36.675 562.172,-29.8417"/>
</g>
<!-- Node6 -->
<g id="node6" class="node"><title>Node6</title>
<g id="a_node6"><a xlink:href="classAP__Proximity__RangeFinder.html#a00972bd55509a984f8a71c4cfdb78445" target="_top" xlink:title="AP_Proximity_RangeFinder\l::update">
<polygon fill="white" stroke="black" points="612,-0.5 612,-30.5 749,-30.5 749,-0.5 612,-0.5"/>
<text text-anchor="start" x="620" y="-18.5" font-family="Helvetica,sans-Serif" font-size="10.00">AP_Proximity_RangeFinder</text>
<text text-anchor="middle" x="680.5" y="-7.5" font-family="Helvetica,sans-Serif" font-size="10.00">::update</text>
</a>
</g>
</g>
<!-- Node5&#45;&gt;Node6 -->
<g id="edge5" class="edge"><title>Node5&#45;&gt;Node6</title>
<path fill="none" stroke="midnightblue" d="M586.1,-18.7772C594.692,-18.4757 603.391,-18.1705 611.847,-17.8738"/>
<polygon fill="midnightblue" stroke="midnightblue" points="585.955,-15.28 576.084,-19.1286 586.2,-22.2757 585.955,-15.28"/>
</g>
</g>
</svg>
