<?xml version="1.0" encoding="UTF-8" standalone="no"?>
<!DOCTYPE svg PUBLIC "-//W3C//DTD SVG 1.1//EN"
 "http://www.w3.org/Graphics/SVG/1.1/DTD/svg11.dtd">
<!-- Generated by graphviz version 2.38.0 (20140413.2041)
 -->
<!-- Title: AP_Compass_BMM150::_compensate_z Pages: 1 -->
<svg width="543pt" height="142pt"
 viewBox="0.00 0.00 543.00 142.00" xmlns="http://www.w3.org/2000/svg" xmlns:xlink="http://www.w3.org/1999/xlink">
<g id="graph0" class="graph" transform="scale(1 1) rotate(0) translate(4 138)">
<title>AP_Compass_BMM150::_compensate_z</title>
<polygon fill="white" stroke="none" points="-4,4 -4,-138 539,-138 539,4 -4,4"/>
<!-- Node1 -->
<g id="node1" class="node"><title>Node1</title>
<polygon fill="#bfbfbf" stroke="black" points="0,-52 0,-82 128,-82 128,-52 0,-52"/>
<text text-anchor="start" x="8" y="-70" font-family="Helvetica,sans-Serif" font-size="10.00">AP_Compass_BMM150::</text>
<text text-anchor="middle" x="64" y="-59" font-family="Helvetica,sans-Serif" font-size="10.00">_compensate_z</text>
</g>
<!-- Node2 -->
<g id="node2" class="node"><title>Node2</title>
<g id="a_node2"><a xlink:href="AP__Math_8h.html#a40141a958e445f6293a659e856c49f55" target="_top" xlink:title="constrain_int32">
<polygon fill="white" stroke="black" points="164,-57.5 164,-76.5 247,-76.5 247,-57.5 164,-57.5"/>
<text text-anchor="middle" x="205.5" y="-64.5" font-family="Helvetica,sans-Serif" font-size="10.00">constrain_int32</text>
</a>
</g>
</g>
<!-- Node1&#45;&gt;Node2 -->
<g id="edge1" class="edge"><title>Node1&#45;&gt;Node2</title>
<path fill="none" stroke="midnightblue" d="M128.219,-67C136.735,-67 145.382,-67 153.645,-67"/>
<polygon fill="midnightblue" stroke="midnightblue" points="153.87,-70.5001 163.87,-67 153.87,-63.5001 153.87,-70.5001"/>
</g>
<!-- Node3 -->
<g id="node3" class="node"><title>Node3</title>
<g id="a_node3"><a xlink:href="AP__Math_8h.html#a20e8f8671c282c69c1954652b6d61585" target="_top" xlink:title="constrain_value">
<polygon fill="white" stroke="black" points="283,-57.5 283,-76.5 368,-76.5 368,-57.5 283,-57.5"/>
<text text-anchor="middle" x="325.5" y="-64.5" font-family="Helvetica,sans-Serif" font-size="10.00">constrain_value</text>
</a>
</g>
</g>
<!-- Node2&#45;&gt;Node3 -->
<g id="edge2" class="edge"><title>Node2&#45;&gt;Node3</title>
<path fill="none" stroke="midnightblue" d="M247.109,-67C255.261,-67 263.933,-67 272.413,-67"/>
<polygon fill="midnightblue" stroke="midnightblue" points="272.612,-70.5001 282.612,-67 272.612,-63.5001 272.612,-70.5001"/>
</g>
<!-- Node4 -->
<g id="node4" class="node"><title>Node4</title>
<g id="a_node4"><a xlink:href="AP__Math_8cpp.html#a37e8e901754cb9c8e53a8e3030c82c50" target="_top" xlink:title="constrain_value\&lt; int \&gt;">
<polygon fill="white" stroke="black" points="413,-114.5 413,-133.5 526,-133.5 526,-114.5 413,-114.5"/>
<text text-anchor="middle" x="469.5" y="-121.5" font-family="Helvetica,sans-Serif" font-size="10.00">constrain_value&lt; int &gt;</text>
</a>
</g>
</g>
<!-- Node3&#45;&gt;Node4 -->
<g id="edge3" class="edge"><title>Node3&#45;&gt;Node4</title>
<path fill="none" stroke="midnightblue" d="M343.97,-76.6284C359.432,-84.891 382.774,-96.7384 404,-105 409.854,-107.278 416.097,-109.439 422.307,-111.429"/>
<polygon fill="midnightblue" stroke="midnightblue" points="421.389,-114.809 431.977,-114.411 423.452,-108.12 421.389,-114.809"/>
</g>
<!-- Node5 -->
<g id="node5" class="node"><title>Node5</title>
<g id="a_node5"><a xlink:href="AP__Math_8cpp.html#afdbe107ec1987d318a6347816fbf2b89" target="_top" xlink:title="constrain_value\&lt; short \&gt;">
<polygon fill="white" stroke="black" points="407,-76.5 407,-95.5 532,-95.5 532,-76.5 407,-76.5"/>
<text text-anchor="middle" x="469.5" y="-83.5" font-family="Helvetica,sans-Serif" font-size="10.00">constrain_value&lt; short &gt;</text>
</a>
</g>
</g>
<!-- Node3&#45;&gt;Node5 -->
<g id="edge4" class="edge"><title>Node3&#45;&gt;Node5</title>
<path fill="none" stroke="midnightblue" d="M368.337,-72.5979C377.323,-73.8003 387.064,-75.1036 396.821,-76.4092"/>
<polygon fill="midnightblue" stroke="midnightblue" points="396.589,-79.9093 406.965,-77.7665 397.518,-72.9711 396.589,-79.9093"/>
</g>
<!-- Node6 -->
<g id="node6" class="node"><title>Node6</title>
<g id="a_node6"><a xlink:href="AP__Math_8cpp.html#ae6c621670c214da687de21d4e3a92587" target="_top" xlink:title="constrain_value\&lt; float \&gt;">
<polygon fill="white" stroke="black" points="408.5,-38.5 408.5,-57.5 530.5,-57.5 530.5,-38.5 408.5,-38.5"/>
<text text-anchor="middle" x="469.5" y="-45.5" font-family="Helvetica,sans-Serif" font-size="10.00">constrain_value&lt; float &gt;</text>
</a>
</g>
</g>
<!-- Node3&#45;&gt;Node6 -->
<g id="edge5" class="edge"><title>Node3&#45;&gt;Node6</title>
<path fill="none" stroke="midnightblue" d="M368.337,-61.4021C377.724,-60.146 387.935,-58.7798 398.129,-57.4159"/>
<polygon fill="midnightblue" stroke="midnightblue" points="398.838,-60.8522 408.286,-56.0568 397.91,-53.9141 398.838,-60.8522"/>
</g>
<!-- Node7 -->
<g id="node7" class="node"><title>Node7</title>
<g id="a_node7"><a xlink:href="AP__Math_8cpp.html#afe3990b00e9abc43fa97dfaf8e32f5c4" target="_top" xlink:title="constrain_value\&lt; double \&gt;">
<polygon fill="white" stroke="black" points="404,-0.5 404,-19.5 535,-19.5 535,-0.5 404,-0.5"/>
<text text-anchor="middle" x="469.5" y="-7.5" font-family="Helvetica,sans-Serif" font-size="10.00">constrain_value&lt; double &gt;</text>
</a>
</g>
</g>
<!-- Node3&#45;&gt;Node7 -->
<g id="edge6" class="edge"><title>Node3&#45;&gt;Node7</title>
<path fill="none" stroke="midnightblue" d="M343.97,-57.3716C359.432,-49.109 382.774,-37.2616 404,-29 409.854,-26.7215 416.097,-24.5614 422.307,-22.5705"/>
<polygon fill="midnightblue" stroke="midnightblue" points="423.452,-25.88 431.977,-19.5887 421.389,-19.1908 423.452,-25.88"/>
</g>
</g>
</svg>
