<?xml version="1.0" encoding="UTF-8" standalone="no"?>
<!DOCTYPE svg PUBLIC "-//W3C//DTD SVG 1.1//EN"
 "http://www.w3.org/Graphics/SVG/1.1/DTD/svg11.dtd">
<!-- Generated by graphviz version 2.38.0 (20140413.2041)
 -->
<!-- Title: NavEKF3_core::readDeltaAngle Pages: 1 -->
<svg width="1220pt" height="162pt"
 viewBox="0.00 0.00 1220.00 162.00" xmlns="http://www.w3.org/2000/svg" xmlns:xlink="http://www.w3.org/1999/xlink">
<g id="graph0" class="graph" transform="scale(1 1) rotate(0) translate(4 158)">
<title>NavEKF3_core::readDeltaAngle</title>
<polygon fill="white" stroke="none" points="-4,4 -4,-158 1216,-158 1216,4 -4,4"/>
<!-- Node1 -->
<g id="node1" class="node"><title>Node1</title>
<polygon fill="#bfbfbf" stroke="black" points="0,-88 0,-107 156,-107 156,-88 0,-88"/>
<text text-anchor="middle" x="78" y="-95" font-family="Helvetica,sans-Serif" font-size="10.00">NavEKF3_core::readDeltaAngle</text>
</g>
<!-- Node2 -->
<g id="node2" class="node"><title>Node2</title>
<g id="a_node2"><a xlink:href="classNavEKF3__core.html#aece73c326fbd95e59a3fa171ac5988a3" target="_top" xlink:title="NavEKF3_core::readIMUData">
<polygon fill="white" stroke="black" points="192,-88 192,-107 340,-107 340,-88 192,-88"/>
<text text-anchor="middle" x="266" y="-95" font-family="Helvetica,sans-Serif" font-size="10.00">NavEKF3_core::readIMUData</text>
</a>
</g>
</g>
<!-- Node1&#45;&gt;Node2 -->
<g id="edge1" class="edge"><title>Node1&#45;&gt;Node2</title>
<path fill="none" stroke="midnightblue" d="M166.267,-97.5C174.828,-97.5 183.454,-97.5 191.853,-97.5"/>
<polygon fill="midnightblue" stroke="midnightblue" points="166.265,-94.0001 156.265,-97.5 166.265,-101 166.265,-94.0001"/>
</g>
<!-- Node3 -->
<g id="node3" class="node"><title>Node3</title>
<g id="a_node3"><a xlink:href="classNavEKF3__core.html#aae18ada44b1b7be0d45af03391ef961a" target="_top" xlink:title="NavEKF3_core::Initialise\lFilterBootstrap">
<polygon fill="white" stroke="black" points="385,-60.5 385,-90.5 510,-90.5 510,-60.5 385,-60.5"/>
<text text-anchor="start" x="393" y="-78.5" font-family="Helvetica,sans-Serif" font-size="10.00">NavEKF3_core::Initialise</text>
<text text-anchor="middle" x="447.5" y="-67.5" font-family="Helvetica,sans-Serif" font-size="10.00">FilterBootstrap</text>
</a>
</g>
</g>
<!-- Node2&#45;&gt;Node3 -->
<g id="edge2" class="edge"><title>Node2&#45;&gt;Node3</title>
<path fill="none" stroke="midnightblue" d="M350.181,-87.3051C361.821,-85.8784 373.61,-84.4336 384.758,-83.0673"/>
<polygon fill="midnightblue" stroke="midnightblue" points="349.509,-83.8611 340.01,-88.5518 350.361,-90.8092 349.509,-83.8611"/>
</g>
<!-- Node13 -->
<g id="node13" class="node"><title>Node13</title>
<g id="a_node13"><a xlink:href="classNavEKF3__core.html#a2a7fae9e0bf2ce6fc2f9b3918dc168d3" target="_top" xlink:title="NavEKF3_core::UpdateFilter">
<polygon fill="white" stroke="black" points="376,-110 376,-129 519,-129 519,-110 376,-110"/>
<text text-anchor="middle" x="447.5" y="-117" font-family="Helvetica,sans-Serif" font-size="10.00">NavEKF3_core::UpdateFilter</text>
</a>
</g>
</g>
<!-- Node2&#45;&gt;Node13 -->
<g id="edge12" class="edge"><title>Node2&#45;&gt;Node13</title>
<path fill="none" stroke="midnightblue" d="M350.077,-107.682C358.702,-108.739 367.41,-109.806 375.879,-110.844"/>
<polygon fill="midnightblue" stroke="midnightblue" points="350.361,-104.191 340.01,-106.448 349.509,-111.139 350.361,-104.191"/>
</g>
<!-- Node4 -->
<g id="node4" class="node"><title>Node4</title>
<g id="a_node4"><a xlink:href="classNavEKF3.html#a07f064fa513fbb6e7188141904f3b5b5" target="_top" xlink:title="NavEKF3::InitialiseFilter">
<polygon fill="white" stroke="black" points="555,-66 555,-85 678,-85 678,-66 555,-66"/>
<text text-anchor="middle" x="616.5" y="-73" font-family="Helvetica,sans-Serif" font-size="10.00">NavEKF3::InitialiseFilter</text>
</a>
</g>
</g>
<!-- Node3&#45;&gt;Node4 -->
<g id="edge3" class="edge"><title>Node3&#45;&gt;Node4</title>
<path fill="none" stroke="midnightblue" d="M520.249,-75.5C531.788,-75.5 543.633,-75.5 554.878,-75.5"/>
<polygon fill="midnightblue" stroke="midnightblue" points="520.21,-72.0001 510.21,-75.5 520.21,-79.0001 520.21,-72.0001"/>
</g>
<!-- Node5 -->
<g id="node5" class="node"><title>Node5</title>
<g id="a_node5"><a xlink:href="classNavEKF3.html#a3e1f50ad977a17222fcd7a6851b0f2ec" target="_top" xlink:title="NavEKF3::activeCores">
<polygon fill="white" stroke="black" points="741,-126 741,-145 859,-145 859,-126 741,-126"/>
<text text-anchor="middle" x="800" y="-133" font-family="Helvetica,sans-Serif" font-size="10.00">NavEKF3::activeCores</text>
</a>
</g>
</g>
<!-- Node4&#45;&gt;Node5 -->
<g id="edge4" class="edge"><title>Node4&#45;&gt;Node5</title>
<path fill="none" stroke="midnightblue" d="M650.476,-88.9421C659.426,-92.6407 669.102,-96.685 678,-100.5 694.092,-107.4 697.375,-111.008 714,-116.5 725.056,-120.152 737.15,-123.326 748.659,-125.98"/>
<polygon fill="midnightblue" stroke="midnightblue" points="651.7,-85.6609 641.12,-85.0917 649.036,-92.1341 651.7,-85.6609"/>
</g>
<!-- Node8 -->
<g id="node8" class="node"><title>Node8</title>
<g id="a_node8"><a xlink:href="classAP__AHRS__NavEKF.html#a532ff0df024a4537e5a108c42ba405a7" target="_top" xlink:title="AP_AHRS_NavEKF::reset">
<polygon fill="white" stroke="black" points="733,-50 733,-69 867,-69 867,-50 733,-50"/>
<text text-anchor="middle" x="800" y="-57" font-family="Helvetica,sans-Serif" font-size="10.00">AP_AHRS_NavEKF::reset</text>
</a>
</g>
</g>
<!-- Node4&#45;&gt;Node8 -->
<g id="edge7" class="edge"><title>Node4&#45;&gt;Node8</title>
<path fill="none" stroke="midnightblue" d="M688.201,-69.2674C702.862,-67.975 718.257,-66.6178 732.751,-65.3401"/>
<polygon fill="midnightblue" stroke="midnightblue" points="687.843,-65.7853 678.189,-70.15 688.458,-72.7582 687.843,-65.7853"/>
</g>
<!-- Node9 -->
<g id="node9" class="node"><title>Node9</title>
<g id="a_node9"><a xlink:href="classAP__AHRS__NavEKF.html#a9bd3c7f1793a48cd0d736b19fbfaf19a" target="_top" xlink:title="AP_AHRS_NavEKF::reset\l_attitude">
<polygon fill="white" stroke="black" points="733,-0.5 733,-30.5 867,-30.5 867,-0.5 733,-0.5"/>
<text text-anchor="start" x="741" y="-18.5" font-family="Helvetica,sans-Serif" font-size="10.00">AP_AHRS_NavEKF::reset</text>
<text text-anchor="middle" x="800" y="-7.5" font-family="Helvetica,sans-Serif" font-size="10.00">_attitude</text>
</a>
</g>
</g>
<!-- Node4&#45;&gt;Node9 -->
<g id="edge8" class="edge"><title>Node4&#45;&gt;Node9</title>
<path fill="none" stroke="midnightblue" d="M652.131,-62.3515C670.433,-55.5524 693.331,-47.2808 714,-40.5 724.231,-37.1437 735.222,-33.7536 745.793,-30.5993"/>
<polygon fill="midnightblue" stroke="midnightblue" points="650.891,-59.0787 642.748,-65.8576 653.341,-65.6358 650.891,-59.0787"/>
</g>
<!-- Node10 -->
<g id="node10" class="node"><title>Node10</title>
<g id="a_node10"><a xlink:href="classAP__AHRS__NavEKF.html#a324160404f12959e955554f5aed26459" target="_top" xlink:title="AP_AHRS_NavEKF::update_EKF3">
<polygon fill="white" stroke="black" points="714,-88 714,-107 886,-107 886,-88 714,-88"/>
<text text-anchor="middle" x="800" y="-95" font-family="Helvetica,sans-Serif" font-size="10.00">AP_AHRS_NavEKF::update_EKF3</text>
</a>
</g>
</g>
<!-- Node4&#45;&gt;Node10 -->
<g id="edge9" class="edge"><title>Node4&#45;&gt;Node10</title>
<path fill="none" stroke="midnightblue" d="M688.231,-84.0735C698.849,-85.3605 709.852,-86.6942 720.618,-87.9992"/>
<polygon fill="midnightblue" stroke="midnightblue" points="688.538,-80.5851 678.189,-82.8563 687.695,-87.5342 688.538,-80.5851"/>
</g>
<!-- Node6 -->
<g id="node6" class="node"><title>Node6</title>
<g id="a_node6"><a xlink:href="classDataFlash__Class.html#a46e58faaa53c44516433f6bb7bde4163" target="_top" xlink:title="DataFlash_Class::Log\l_Write_POS">
<polygon fill="white" stroke="black" points="936,-123.5 936,-153.5 1050,-153.5 1050,-123.5 936,-123.5"/>
<text text-anchor="start" x="944" y="-141.5" font-family="Helvetica,sans-Serif" font-size="10.00">DataFlash_Class::Log</text>
<text text-anchor="middle" x="993" y="-130.5" font-family="Helvetica,sans-Serif" font-size="10.00">_Write_POS</text>
</a>
</g>
</g>
<!-- Node5&#45;&gt;Node6 -->
<g id="edge5" class="edge"><title>Node5&#45;&gt;Node6</title>
<path fill="none" stroke="midnightblue" d="M869.274,-136.572C891.091,-136.915 914.977,-137.29 935.83,-137.618"/>
<polygon fill="midnightblue" stroke="midnightblue" points="869.138,-133.07 859.084,-136.412 869.028,-140.069 869.138,-133.07"/>
</g>
<!-- Node7 -->
<g id="node7" class="node"><title>Node7</title>
<g id="a_node7"><a xlink:href="classDataFlash__Class.html#a7868f0e3dcef65ea5b5fcae618f4c5d4" target="_top" xlink:title="DataFlash_Class::get\l_structures">
<polygon fill="white" stroke="black" points="1100,-123.5 1100,-153.5 1212,-153.5 1212,-123.5 1100,-123.5"/>
<text text-anchor="start" x="1108" y="-141.5" font-family="Helvetica,sans-Serif" font-size="10.00">DataFlash_Class::get</text>
<text text-anchor="middle" x="1156" y="-130.5" font-family="Helvetica,sans-Serif" font-size="10.00">_structures</text>
</a>
</g>
</g>
<!-- Node6&#45;&gt;Node7 -->
<g id="edge6" class="edge"><title>Node6&#45;&gt;Node7</title>
<path fill="none" stroke="midnightblue" d="M1060.63,-138.5C1073.66,-138.5 1087.2,-138.5 1099.81,-138.5"/>
<polygon fill="midnightblue" stroke="midnightblue" points="1060.31,-135 1050.31,-138.5 1060.31,-142 1060.31,-135"/>
</g>
<!-- Node11 -->
<g id="node11" class="node"><title>Node11</title>
<g id="a_node11"><a xlink:href="classAP__AHRS__NavEKF.html#ac8111979c5dc37a55b2c50818534ea52" target="_top" xlink:title="AP_AHRS_NavEKF::update">
<polygon fill="white" stroke="black" points="922,-85 922,-104 1064,-104 1064,-85 922,-85"/>
<text text-anchor="middle" x="993" y="-92" font-family="Helvetica,sans-Serif" font-size="10.00">AP_AHRS_NavEKF::update</text>
</a>
</g>
</g>
<!-- Node10&#45;&gt;Node11 -->
<g id="edge10" class="edge"><title>Node10&#45;&gt;Node11</title>
<path fill="none" stroke="midnightblue" d="M896.273,-96.0036C904.898,-95.8681 913.526,-95.7326 921.874,-95.6014"/>
<polygon fill="midnightblue" stroke="midnightblue" points="896.11,-92.5056 886.166,-96.1623 896.22,-99.5047 896.11,-92.5056"/>
</g>
<!-- Node12 -->
<g id="node12" class="node"><title>Node12</title>
<g id="a_node12"><a xlink:href="AHRS__Test_8cpp.html#a0b33edabd7f1c4e4a0bf32c67269be2f" target="_top" xlink:title="loop">
<polygon fill="white" stroke="black" points="1138.5,-85 1138.5,-104 1173.5,-104 1173.5,-85 1138.5,-85"/>
<text text-anchor="middle" x="1156" y="-92" font-family="Helvetica,sans-Serif" font-size="10.00">loop</text>
</a>
</g>
</g>
<!-- Node11&#45;&gt;Node12 -->
<g id="edge11" class="edge"><title>Node11&#45;&gt;Node12</title>
<path fill="none" stroke="midnightblue" d="M1074.17,-94.5C1098.48,-94.5 1122.83,-94.5 1138.35,-94.5"/>
<polygon fill="midnightblue" stroke="midnightblue" points="1074.15,-91.0001 1064.15,-94.5 1074.15,-98.0001 1074.15,-91.0001"/>
</g>
<!-- Node14 -->
<g id="node14" class="node"><title>Node14</title>
<g id="a_node14"><a xlink:href="classNavEKF3.html#a477020fcf29376e0c2205dbf79728104" target="_top" xlink:title="NavEKF3::UpdateFilter">
<polygon fill="white" stroke="black" points="557,-110 557,-129 676,-129 676,-110 557,-110"/>
<text text-anchor="middle" x="616.5" y="-117" font-family="Helvetica,sans-Serif" font-size="10.00">NavEKF3::UpdateFilter</text>
</a>
</g>
</g>
<!-- Node13&#45;&gt;Node14 -->
<g id="edge13" class="edge"><title>Node13&#45;&gt;Node14</title>
<path fill="none" stroke="midnightblue" d="M529.372,-119.5C538.669,-119.5 548.01,-119.5 556.932,-119.5"/>
<polygon fill="midnightblue" stroke="midnightblue" points="529.323,-116 519.323,-119.5 529.323,-123 529.323,-116"/>
</g>
<!-- Node14&#45;&gt;Node5 -->
<g id="edge14" class="edge"><title>Node14&#45;&gt;Node5</title>
<path fill="none" stroke="midnightblue" d="M686.305,-125.565C704.279,-127.15 723.474,-128.842 740.835,-130.373"/>
<polygon fill="midnightblue" stroke="midnightblue" points="686.446,-122.064 676.177,-124.673 685.831,-129.037 686.446,-122.064"/>
</g>
<!-- Node14&#45;&gt;Node10 -->
<g id="edge15" class="edge"><title>Node14&#45;&gt;Node10</title>
<path fill="none" stroke="midnightblue" d="M686.255,-111.166C697.396,-109.816 709.007,-108.408 720.361,-107.032"/>
<polygon fill="midnightblue" stroke="midnightblue" points="685.683,-107.71 676.177,-112.388 686.526,-114.659 685.683,-107.71"/>
</g>
</g>
</svg>
