<?xml version="1.0" encoding="UTF-8" standalone="no"?>
<!DOCTYPE svg PUBLIC "-//W3C//DTD SVG 1.1//EN"
 "http://www.w3.org/Graphics/SVG/1.1/DTD/svg11.dtd">
<!-- Generated by graphviz version 2.38.0 (20140413.2041)
 -->
<!-- Title: AP_AHRS_NavEKF::getLastPosDownReset Pages: 1 -->
<svg width="552pt" height="137pt"
 viewBox="0.00 0.00 552.00 137.00" xmlns="http://www.w3.org/2000/svg" xmlns:xlink="http://www.w3.org/1999/xlink">
<g id="graph0" class="graph" transform="scale(1 1) rotate(0) translate(4 133)">
<title>AP_AHRS_NavEKF::getLastPosDownReset</title>
<polygon fill="white" stroke="none" points="-4,4 -4,-133 548,-133 548,4 -4,4"/>
<!-- Node1 -->
<g id="node1" class="node"><title>Node1</title>
<polygon fill="#bfbfbf" stroke="black" points="0,-49.5 0,-79.5 162,-79.5 162,-49.5 0,-49.5"/>
<text text-anchor="start" x="8" y="-67.5" font-family="Helvetica,sans-Serif" font-size="10.00">AP_AHRS_NavEKF::getLastPos</text>
<text text-anchor="middle" x="81" y="-56.5" font-family="Helvetica,sans-Serif" font-size="10.00">DownReset</text>
</g>
<!-- Node2 -->
<g id="node2" class="node"><title>Node2</title>
<g id="a_node2"><a xlink:href="classAP__AHRS__NavEKF.html#a2421598bfc909c228709f99347a5fcea" target="_top" xlink:title="AP_AHRS_NavEKF::ekf_type">
<polygon fill="white" stroke="black" points="206.5,-98 206.5,-117 356.5,-117 356.5,-98 206.5,-98"/>
<text text-anchor="middle" x="281.5" y="-105" font-family="Helvetica,sans-Serif" font-size="10.00">AP_AHRS_NavEKF::ekf_type</text>
</a>
</g>
</g>
<!-- Node1&#45;&gt;Node2 -->
<g id="edge1" class="edge"><title>Node1&#45;&gt;Node2</title>
<path fill="none" stroke="midnightblue" d="M151.426,-79.5393C176.065,-84.8768 203.408,-90.7999 226.561,-95.8155"/>
<polygon fill="midnightblue" stroke="midnightblue" points="226.028,-99.2812 236.543,-97.9777 227.51,-92.4399 226.028,-99.2812"/>
</g>
<!-- Node4 -->
<g id="node4" class="node"><title>Node4</title>
<g id="a_node4"><a xlink:href="classNavEKF2.html#a988d3c0397c58361c78936a582b07e61" target="_top" xlink:title="NavEKF2::getLastPosDownReset">
<polygon fill="white" stroke="black" points="198,-55 198,-74 365,-74 365,-55 198,-55"/>
<text text-anchor="middle" x="281.5" y="-62" font-family="Helvetica,sans-Serif" font-size="10.00">NavEKF2::getLastPosDownReset</text>
</a>
</g>
</g>
<!-- Node1&#45;&gt;Node4 -->
<g id="edge3" class="edge"><title>Node1&#45;&gt;Node4</title>
<path fill="none" stroke="midnightblue" d="M162.165,-64.5C170.504,-64.5 179.028,-64.5 187.493,-64.5"/>
<polygon fill="midnightblue" stroke="midnightblue" points="187.77,-68.0001 197.77,-64.5 187.77,-61.0001 187.77,-68.0001"/>
</g>
<!-- Node6 -->
<g id="node6" class="node"><title>Node6</title>
<g id="a_node6"><a xlink:href="classNavEKF3.html#af8f633712a464fdef83c39ed1baf84cd" target="_top" xlink:title="NavEKF3::getLastPosDownReset">
<polygon fill="white" stroke="black" points="198,-12 198,-31 365,-31 365,-12 198,-12"/>
<text text-anchor="middle" x="281.5" y="-19" font-family="Helvetica,sans-Serif" font-size="10.00">NavEKF3::getLastPosDownReset</text>
</a>
</g>
</g>
<!-- Node1&#45;&gt;Node6 -->
<g id="edge5" class="edge"><title>Node1&#45;&gt;Node6</title>
<path fill="none" stroke="midnightblue" d="M151.426,-49.4607C176.065,-44.1232 203.408,-38.2001 226.561,-33.1845"/>
<polygon fill="midnightblue" stroke="midnightblue" points="227.51,-36.5601 236.543,-31.0223 226.028,-29.7188 227.51,-36.5601"/>
</g>
<!-- Node3 -->
<g id="node3" class="node"><title>Node3</title>
<g id="a_node3"><a xlink:href="classAP__AHRS__NavEKF.html#a9af775a381a41ff78ac75a06ba7b1a05" target="_top" xlink:title="AP_AHRS_NavEKF::always\l_use_EKF">
<polygon fill="white" stroke="black" points="401,-98.5 401,-128.5 544,-128.5 544,-98.5 401,-98.5"/>
<text text-anchor="start" x="409" y="-116.5" font-family="Helvetica,sans-Serif" font-size="10.00">AP_AHRS_NavEKF::always</text>
<text text-anchor="middle" x="472.5" y="-105.5" font-family="Helvetica,sans-Serif" font-size="10.00">_use_EKF</text>
</a>
</g>
</g>
<!-- Node2&#45;&gt;Node3 -->
<g id="edge2" class="edge"><title>Node2&#45;&gt;Node3</title>
<path fill="none" stroke="midnightblue" d="M356.655,-109.854C367.82,-110.209 379.381,-110.576 390.677,-110.934"/>
<polygon fill="midnightblue" stroke="midnightblue" points="390.85,-114.441 400.956,-111.261 391.073,-107.445 390.85,-114.441"/>
</g>
<!-- Node5 -->
<g id="node5" class="node"><title>Node5</title>
<g id="a_node5"><a xlink:href="classNavEKF2__core.html#af7bd98aaf07d6e87a590ed72dc986d15" target="_top" xlink:title="NavEKF2_core::getLastPos\lDownReset">
<polygon fill="white" stroke="black" points="403,-49.5 403,-79.5 542,-79.5 542,-49.5 403,-49.5"/>
<text text-anchor="start" x="411" y="-67.5" font-family="Helvetica,sans-Serif" font-size="10.00">NavEKF2_core::getLastPos</text>
<text text-anchor="middle" x="472.5" y="-56.5" font-family="Helvetica,sans-Serif" font-size="10.00">DownReset</text>
</a>
</g>
</g>
<!-- Node4&#45;&gt;Node5 -->
<g id="edge4" class="edge"><title>Node4&#45;&gt;Node5</title>
<path fill="none" stroke="midnightblue" d="M365.123,-64.5C374.289,-64.5 383.606,-64.5 392.722,-64.5"/>
<polygon fill="midnightblue" stroke="midnightblue" points="392.91,-68.0001 402.91,-64.5 392.91,-61.0001 392.91,-68.0001"/>
</g>
<!-- Node7 -->
<g id="node7" class="node"><title>Node7</title>
<g id="a_node7"><a xlink:href="classNavEKF3__core.html#a5b93c69eab4799ee20470a0843f908a1" target="_top" xlink:title="NavEKF3_core::getLastPos\lDownReset">
<polygon fill="white" stroke="black" points="403,-0.5 403,-30.5 542,-30.5 542,-0.5 403,-0.5"/>
<text text-anchor="start" x="411" y="-18.5" font-family="Helvetica,sans-Serif" font-size="10.00">NavEKF3_core::getLastPos</text>
<text text-anchor="middle" x="472.5" y="-7.5" font-family="Helvetica,sans-Serif" font-size="10.00">DownReset</text>
</a>
</g>
</g>
<!-- Node6&#45;&gt;Node7 -->
<g id="edge6" class="edge"><title>Node6&#45;&gt;Node7</title>
<path fill="none" stroke="midnightblue" d="M365.123,-18.877C374.289,-18.5861 383.606,-18.2903 392.722,-18.0009"/>
<polygon fill="midnightblue" stroke="midnightblue" points="393.026,-21.4931 402.91,-17.6775 392.804,-14.4966 393.026,-21.4931"/>
</g>
</g>
</svg>
