<?xml version="1.0" encoding="UTF-8" standalone="no"?>
<!DOCTYPE svg PUBLIC "-//W3C//DTD SVG 1.1//EN"
 "http://www.w3.org/Graphics/SVG/1.1/DTD/svg11.dtd">
<!-- Generated by graphviz version 2.38.0 (20140413.2041)
 -->
<!-- Title: HALSITL::Scheduler::suspend_timer_procs Pages: 1 -->
<svg width="534pt" height="39pt"
 viewBox="0.00 0.00 534.00 39.00" xmlns="http://www.w3.org/2000/svg" xmlns:xlink="http://www.w3.org/1999/xlink">
<g id="graph0" class="graph" transform="scale(1 1) rotate(0) translate(4 35)">
<title>HALSITL::Scheduler::suspend_timer_procs</title>
<polygon fill="white" stroke="none" points="-4,4 -4,-35 530,-35 530,4 -4,4"/>
<!-- Node1 -->
<g id="node1" class="node"><title>Node1</title>
<polygon fill="#bfbfbf" stroke="black" points="0,-0.5 0,-30.5 116,-30.5 116,-0.5 0,-0.5"/>
<text text-anchor="start" x="8" y="-18.5" font-family="Helvetica,sans-Serif" font-size="10.00">HALSITL::Scheduler</text>
<text text-anchor="middle" x="58" y="-7.5" font-family="Helvetica,sans-Serif" font-size="10.00">::suspend_timer_procs</text>
</g>
<!-- Node2 -->
<g id="node2" class="node"><title>Node2</title>
<g id="a_node2"><a xlink:href="classHALSITL_1_1Scheduler.html#a2c3ea70328333081349821921242cb39" target="_top" xlink:title="HALSITL::Scheduler\l::from">
<polygon fill="white" stroke="black" points="152,-0.5 152,-30.5 259,-30.5 259,-0.5 152,-0.5"/>
<text text-anchor="start" x="160" y="-18.5" font-family="Helvetica,sans-Serif" font-size="10.00">HALSITL::Scheduler</text>
<text text-anchor="middle" x="205.5" y="-7.5" font-family="Helvetica,sans-Serif" font-size="10.00">::from</text>
</a>
</g>
</g>
<!-- Node1&#45;&gt;Node2 -->
<g id="edge1" class="edge"><title>Node1&#45;&gt;Node2</title>
<path fill="none" stroke="midnightblue" d="M126.137,-15.5C134.764,-15.5 143.496,-15.5 151.846,-15.5"/>
<polygon fill="midnightblue" stroke="midnightblue" points="126.088,-12.0001 116.088,-15.5 126.088,-19.0001 126.088,-12.0001"/>
</g>
<!-- Node3 -->
<g id="node3" class="node"><title>Node3</title>
<g id="a_node3"><a xlink:href="classHALSITL_1_1SITL__State.html#a7059cb4e279007aae9b06757a68c15af" target="_top" xlink:title="HALSITL::SITL_State\l::init">
<polygon fill="white" stroke="black" points="295,-0.5 295,-30.5 408,-30.5 408,-0.5 295,-0.5"/>
<text text-anchor="start" x="303" y="-18.5" font-family="Helvetica,sans-Serif" font-size="10.00">HALSITL::SITL_State</text>
<text text-anchor="middle" x="351.5" y="-7.5" font-family="Helvetica,sans-Serif" font-size="10.00">::init</text>
</a>
</g>
</g>
<!-- Node2&#45;&gt;Node3 -->
<g id="edge2" class="edge"><title>Node2&#45;&gt;Node3</title>
<path fill="none" stroke="midnightblue" d="M269.473,-15.5C277.905,-15.5 286.505,-15.5 294.8,-15.5"/>
<polygon fill="midnightblue" stroke="midnightblue" points="269.303,-12.0001 259.303,-15.5 269.303,-19.0001 269.303,-12.0001"/>
</g>
<!-- Node4 -->
<g id="node4" class="node"><title>Node4</title>
<g id="a_node4"><a xlink:href="classHAL__SITL.html#add0e35ac5a212a6b187c55186c8f026a" target="_top" xlink:title="HAL_SITL::run">
<polygon fill="white" stroke="black" points="444,-6 444,-25 526,-25 526,-6 444,-6"/>
<text text-anchor="middle" x="485" y="-13" font-family="Helvetica,sans-Serif" font-size="10.00">HAL_SITL::run</text>
</a>
</g>
</g>
<!-- Node3&#45;&gt;Node4 -->
<g id="edge3" class="edge"><title>Node3&#45;&gt;Node4</title>
<path fill="none" stroke="midnightblue" d="M418.379,-15.5C427.021,-15.5 435.66,-15.5 443.7,-15.5"/>
<polygon fill="midnightblue" stroke="midnightblue" points="418.268,-12.0001 408.268,-15.5 418.268,-19.0001 418.268,-12.0001"/>
</g>
</g>
</svg>
