<?xml version="1.0" encoding="UTF-8" standalone="no"?>
<!DOCTYPE svg PUBLIC "-//W3C//DTD SVG 1.1//EN"
 "http://www.w3.org/Graphics/SVG/1.1/DTD/svg11.dtd">
<!-- Generated by graphviz version 2.38.0 (20140413.2041)
 -->
<!-- Title: Linux::UARTDriver::read Pages: 1 -->
<svg width="566pt" height="66pt"
 viewBox="0.00 0.00 566.00 66.00" xmlns="http://www.w3.org/2000/svg" xmlns:xlink="http://www.w3.org/1999/xlink">
<g id="graph0" class="graph" transform="scale(1 1) rotate(0) translate(4 62)">
<title>Linux::UARTDriver::read</title>
<polygon fill="white" stroke="none" points="-4,4 -4,-62 562,-62 562,4 -4,4"/>
<!-- Node1 -->
<g id="node1" class="node"><title>Node1</title>
<polygon fill="#bfbfbf" stroke="black" points="0,-19.5 0,-38.5 125,-38.5 125,-19.5 0,-19.5"/>
<text text-anchor="middle" x="62.5" y="-26.5" font-family="Helvetica,sans-Serif" font-size="10.00">Linux::UARTDriver::read</text>
</g>
<!-- Node2 -->
<g id="node2" class="node"><title>Node2</title>
<g id="a_node2"><a xlink:href="classByteBuffer.html#a4321015e241fb3326d190b7ee6e4faea" target="_top" xlink:title="ByteBuffer::read_byte">
<polygon fill="white" stroke="black" points="161,-19.5 161,-38.5 273,-38.5 273,-19.5 161,-19.5"/>
<text text-anchor="middle" x="217" y="-26.5" font-family="Helvetica,sans-Serif" font-size="10.00">ByteBuffer::read_byte</text>
</a>
</g>
</g>
<!-- Node1&#45;&gt;Node2 -->
<g id="edge1" class="edge"><title>Node1&#45;&gt;Node2</title>
<path fill="none" stroke="midnightblue" d="M125.088,-29C133.433,-29 142.022,-29 150.434,-29"/>
<polygon fill="midnightblue" stroke="midnightblue" points="150.578,-32.5001 160.578,-29 150.578,-25.5001 150.578,-32.5001"/>
</g>
<!-- Node3 -->
<g id="node3" class="node"><title>Node3</title>
<g id="a_node3"><a xlink:href="classByteBuffer.html#afe100bddde679bb1130338073ec5a9a9" target="_top" xlink:title="ByteBuffer::peek">
<polygon fill="white" stroke="black" points="317,-38.5 317,-57.5 407,-57.5 407,-38.5 317,-38.5"/>
<text text-anchor="middle" x="362" y="-45.5" font-family="Helvetica,sans-Serif" font-size="10.00">ByteBuffer::peek</text>
</a>
</g>
</g>
<!-- Node2&#45;&gt;Node3 -->
<g id="edge2" class="edge"><title>Node2&#45;&gt;Node3</title>
<path fill="none" stroke="midnightblue" d="M273.288,-36.3459C284.359,-37.817 295.979,-39.3608 307.006,-40.826"/>
<polygon fill="midnightblue" stroke="midnightblue" points="306.561,-44.2975 316.935,-42.1451 307.483,-37.3585 306.561,-44.2975"/>
</g>
<!-- Node5 -->
<g id="node5" class="node"><title>Node5</title>
<g id="a_node5"><a xlink:href="classByteBuffer.html#a876a74665a4f4358cf2a57941543d0d6" target="_top" xlink:title="ByteBuffer::advance">
<polygon fill="white" stroke="black" points="309,-0.5 309,-19.5 415,-19.5 415,-0.5 309,-0.5"/>
<text text-anchor="middle" x="362" y="-7.5" font-family="Helvetica,sans-Serif" font-size="10.00">ByteBuffer::advance</text>
</a>
</g>
</g>
<!-- Node2&#45;&gt;Node5 -->
<g id="edge4" class="edge"><title>Node2&#45;&gt;Node5</title>
<path fill="none" stroke="midnightblue" d="M273.288,-21.6541C281.557,-20.5553 290.132,-19.416 298.538,-18.2992"/>
<polygon fill="midnightblue" stroke="midnightblue" points="299.223,-21.739 308.675,-16.9523 298.301,-14.8 299.223,-21.739"/>
</g>
<!-- Node4 -->
<g id="node4" class="node"><title>Node4</title>
<g id="a_node4"><a xlink:href="classByteBuffer.html#aacbc04305e267a33a431f8736f8d0d5d" target="_top" xlink:title="ByteBuffer::available">
<polygon fill="white" stroke="black" points="451,-19.5 451,-38.5 558,-38.5 558,-19.5 451,-19.5"/>
<text text-anchor="middle" x="504.5" y="-26.5" font-family="Helvetica,sans-Serif" font-size="10.00">ByteBuffer::available</text>
</a>
</g>
</g>
<!-- Node3&#45;&gt;Node4 -->
<g id="edge3" class="edge"><title>Node3&#45;&gt;Node4</title>
<path fill="none" stroke="midnightblue" d="M407.07,-42.0404C417.838,-40.5842 429.564,-38.9985 441.011,-37.4505"/>
<polygon fill="midnightblue" stroke="midnightblue" points="441.528,-40.9126 450.968,-36.1039 440.589,-33.9757 441.528,-40.9126"/>
</g>
<!-- Node5&#45;&gt;Node4 -->
<g id="edge5" class="edge"><title>Node5&#45;&gt;Node4</title>
<path fill="none" stroke="midnightblue" d="M415.317,-17.0749C423.526,-18.185 432.085,-19.3425 440.504,-20.481"/>
<polygon fill="midnightblue" stroke="midnightblue" points="440.292,-23.9841 450.671,-21.8558 441.23,-17.0472 440.292,-23.9841"/>
</g>
</g>
</svg>
