<?xml version="1.0" encoding="UTF-8" standalone="no"?>
<!DOCTYPE svg PUBLIC "-//W3C//DTD SVG 1.1//EN"
 "http://www.w3.org/Graphics/SVG/1.1/DTD/svg11.dtd">
<!-- Generated by graphviz version 2.38.0 (20140413.2041)
 -->
<!-- Title: AP_Gripper::enabled Pages: 1 -->
<svg width="553pt" height="268pt"
 viewBox="0.00 0.00 553.00 268.00" xmlns="http://www.w3.org/2000/svg" xmlns:xlink="http://www.w3.org/1999/xlink">
<g id="graph0" class="graph" transform="scale(1 1) rotate(0) translate(4 264)">
<title>AP_Gripper::enabled</title>
<polygon fill="white" stroke="none" points="-4,4 -4,-264 549,-264 549,4 -4,4"/>
<!-- Node1 -->
<g id="node1" class="node"><title>Node1</title>
<polygon fill="#bfbfbf" stroke="black" points="0,-114.5 0,-133.5 107,-133.5 107,-114.5 0,-114.5"/>
<text text-anchor="middle" x="53.5" y="-121.5" font-family="Helvetica,sans-Serif" font-size="10.00">AP_Gripper::enabled</text>
</g>
<!-- Node2 -->
<g id="node2" class="node"><title>Node2</title>
<g id="a_node2"><a xlink:href="classAP__Gripper.html#a82817d48296f50234b66391d7dac76ff" target="_top" xlink:title="AP_Gripper::init">
<polygon fill="white" stroke="black" points="155,-190.5 155,-209.5 241,-209.5 241,-190.5 155,-190.5"/>
<text text-anchor="middle" x="198" y="-197.5" font-family="Helvetica,sans-Serif" font-size="10.00">AP_Gripper::init</text>
</a>
</g>
</g>
<!-- Node1&#45;&gt;Node2 -->
<g id="edge1" class="edge"><title>Node1&#45;&gt;Node2</title>
<path fill="none" stroke="midnightblue" d="M69.5546,-133.552C86.9342,-144.413 116.531,-162.397 143,-176 149.838,-179.514 157.3,-183.027 164.434,-186.239"/>
<polygon fill="midnightblue" stroke="midnightblue" points="163.309,-189.568 173.871,-190.404 166.135,-183.164 163.309,-189.568"/>
</g>
<!-- Node5 -->
<g id="node5" class="node"><title>Node5</title>
<g id="a_node5"><a xlink:href="classAP__Gripper.html#a0ab7a524f9fc267b0a68eb3076702936" target="_top" xlink:title="AP_Gripper::grab">
<polygon fill="white" stroke="black" points="298,-240.5 298,-259.5 390,-259.5 390,-240.5 298,-240.5"/>
<text text-anchor="middle" x="344" y="-247.5" font-family="Helvetica,sans-Serif" font-size="10.00">AP_Gripper::grab</text>
</a>
</g>
</g>
<!-- Node1&#45;&gt;Node5 -->
<g id="edge7" class="edge"><title>Node1&#45;&gt;Node5</title>
<path fill="none" stroke="midnightblue" d="M60.3723,-133.8C72.824,-153.616 103.962,-198.313 143,-219 187.888,-242.787 245.865,-249.593 287.829,-251.012"/>
<polygon fill="midnightblue" stroke="midnightblue" points="287.783,-254.512 297.867,-251.26 287.956,-247.514 287.783,-254.512"/>
</g>
<!-- Node6 -->
<g id="node6" class="node"><title>Node6</title>
<g id="a_node6"><a xlink:href="classAP__Gripper.html#a40b0812c1f3ddefcc90bfb6d968c244c" target="_top" xlink:title="AP_Gripper::release">
<polygon fill="white" stroke="black" points="292,-152.5 292,-171.5 396,-171.5 396,-152.5 292,-152.5"/>
<text text-anchor="middle" x="344" y="-159.5" font-family="Helvetica,sans-Serif" font-size="10.00">AP_Gripper::release</text>
</a>
</g>
</g>
<!-- Node1&#45;&gt;Node6 -->
<g id="edge8" class="edge"><title>Node1&#45;&gt;Node6</title>
<path fill="none" stroke="midnightblue" d="M107.333,-132.69C119.064,-134.526 131.444,-136.393 143,-138 189.522,-144.469 242.279,-150.756 281.924,-155.272"/>
<polygon fill="midnightblue" stroke="midnightblue" points="281.635,-158.761 291.966,-156.409 282.424,-151.806 281.635,-158.761"/>
</g>
<!-- Node7 -->
<g id="node7" class="node"><title>Node7</title>
<g id="a_node7"><a xlink:href="classAP__Gripper.html#a70dff03bb770169c694a18dfff48698a" target="_top" xlink:title="AP_Gripper::update">
<polygon fill="white" stroke="black" points="293,-114.5 293,-133.5 395,-133.5 395,-114.5 293,-114.5"/>
<text text-anchor="middle" x="344" y="-121.5" font-family="Helvetica,sans-Serif" font-size="10.00">AP_Gripper::update</text>
</a>
</g>
</g>
<!-- Node1&#45;&gt;Node7 -->
<g id="edge11" class="edge"><title>Node1&#45;&gt;Node7</title>
<path fill="none" stroke="midnightblue" d="M107.08,-124C156.6,-124 230.729,-124 282.642,-124"/>
<polygon fill="midnightblue" stroke="midnightblue" points="282.714,-127.5 292.714,-124 282.714,-120.5 282.714,-127.5"/>
</g>
<!-- Node8 -->
<g id="node8" class="node"><title>Node8</title>
<g id="a_node8"><a xlink:href="classAP__Gripper.html#a838481fa1f2044af9787c5acf38ffb0a" target="_top" xlink:title="AP_Gripper::released">
<polygon fill="white" stroke="black" points="143,-76.5 143,-95.5 253,-95.5 253,-76.5 143,-76.5"/>
<text text-anchor="middle" x="198" y="-83.5" font-family="Helvetica,sans-Serif" font-size="10.00">AP_Gripper::released</text>
</a>
</g>
</g>
<!-- Node1&#45;&gt;Node8 -->
<g id="edge9" class="edge"><title>Node1&#45;&gt;Node8</title>
<path fill="none" stroke="midnightblue" d="M90.4588,-114.411C108.939,-109.483 131.656,-103.425 151.359,-98.1709"/>
<polygon fill="midnightblue" stroke="midnightblue" points="152.292,-101.544 161.053,-95.5859 150.489,-94.7808 152.292,-101.544"/>
</g>
<!-- Node9 -->
<g id="node9" class="node"><title>Node9</title>
<g id="a_node9"><a xlink:href="classAP__Gripper.html#afa058fd1e31f0f85f0985ed83b898827" target="_top" xlink:title="AP_Gripper::grabbed">
<polygon fill="white" stroke="black" points="144.5,-38.5 144.5,-57.5 251.5,-57.5 251.5,-38.5 144.5,-38.5"/>
<text text-anchor="middle" x="198" y="-45.5" font-family="Helvetica,sans-Serif" font-size="10.00">AP_Gripper::grabbed</text>
</a>
</g>
</g>
<!-- Node1&#45;&gt;Node9 -->
<g id="edge10" class="edge"><title>Node1&#45;&gt;Node9</title>
<path fill="none" stroke="midnightblue" d="M67.4215,-114.294C84.1704,-102.045 114.603,-80.9017 143,-67 147.293,-64.8984 151.879,-62.9158 156.496,-61.0818"/>
<polygon fill="midnightblue" stroke="midnightblue" points="157.804,-64.3293 165.933,-57.5351 155.341,-57.7767 157.804,-64.3293"/>
</g>
<!-- Node10 -->
<g id="node10" class="node"><title>Node10</title>
<g id="a_node10"><a xlink:href="classAP__Gripper.html#a0e14469a55fc0a9704757598f1fbcb57" target="_top" xlink:title="AP_Gripper::valid">
<polygon fill="white" stroke="black" points="151.5,-0.5 151.5,-19.5 244.5,-19.5 244.5,-0.5 151.5,-0.5"/>
<text text-anchor="middle" x="198" y="-7.5" font-family="Helvetica,sans-Serif" font-size="10.00">AP_Gripper::valid</text>
</a>
</g>
</g>
<!-- Node1&#45;&gt;Node10 -->
<g id="edge12" class="edge"><title>Node1&#45;&gt;Node10</title>
<path fill="none" stroke="midnightblue" d="M60.9155,-114.489C74.1244,-95.5924 106.223,-53.0722 143,-29 145.958,-27.0635 149.138,-25.2983 152.419,-23.6942"/>
<polygon fill="midnightblue" stroke="midnightblue" points="154.068,-26.7935 161.839,-19.5914 151.273,-20.3758 154.068,-26.7935"/>
</g>
<!-- Node3 -->
<g id="node3" class="node"><title>Node3</title>
<g id="a_node3"><a xlink:href="classAP__Gripper__Backend.html#a17b0015139d7c536d5b9c4cd288eab10" target="_top" xlink:title="AP_Gripper_Backend\l::init">
<polygon fill="white" stroke="black" points="289,-191 289,-221 399,-221 399,-191 289,-191"/>
<text text-anchor="start" x="297" y="-209" font-family="Helvetica,sans-Serif" font-size="10.00">AP_Gripper_Backend</text>
<text text-anchor="middle" x="344" y="-198" font-family="Helvetica,sans-Serif" font-size="10.00">::init</text>
</a>
</g>
</g>
<!-- Node2&#45;&gt;Node3 -->
<g id="edge2" class="edge"><title>Node2&#45;&gt;Node3</title>
<path fill="none" stroke="midnightblue" d="M241.038,-201.752C252.829,-202.243 265.924,-202.789 278.693,-203.321"/>
<polygon fill="midnightblue" stroke="midnightblue" points="278.695,-206.824 288.832,-203.743 278.987,-199.83 278.695,-206.824"/>
</g>
<!-- Node2&#45;&gt;Node5 -->
<g id="edge4" class="edge"><title>Node2&#45;&gt;Node5</title>
<path fill="none" stroke="midnightblue" d="M226.424,-209.522C248.901,-217.327 280.932,-228.448 305.732,-237.06"/>
<polygon fill="midnightblue" stroke="midnightblue" points="304.593,-240.369 315.187,-240.343 306.889,-233.756 304.593,-240.369"/>
</g>
<!-- Node2&#45;&gt;Node6 -->
<g id="edge5" class="edge"><title>Node2&#45;&gt;Node6</title>
<path fill="none" stroke="midnightblue" d="M235.337,-190.411C254.083,-185.464 277.143,-179.379 297.107,-174.111"/>
<polygon fill="midnightblue" stroke="midnightblue" points="298.148,-177.456 306.924,-171.52 296.362,-170.688 298.148,-177.456"/>
</g>
<!-- Node2&#45;&gt;Node7 -->
<g id="edge6" class="edge"><title>Node2&#45;&gt;Node7</title>
<path fill="none" stroke="midnightblue" d="M212.168,-190.312C229.23,-178.082 260.209,-156.959 289,-143 293.301,-140.915 297.892,-138.942 302.512,-137.114"/>
<polygon fill="midnightblue" stroke="midnightblue" points="303.818,-140.362 311.952,-133.574 301.36,-133.808 303.818,-140.362"/>
</g>
<!-- Node4 -->
<g id="node4" class="node"><title>Node4</title>
<g id="a_node4"><a xlink:href="classAP__Gripper__Backend.html#a952bea8bf1a916c086cee465dc1929e8" target="_top" xlink:title="AP_Gripper_Backend\l::init_gripper">
<polygon fill="white" stroke="black" points="435,-191 435,-221 545,-221 545,-191 435,-191"/>
<text text-anchor="start" x="443" y="-209" font-family="Helvetica,sans-Serif" font-size="10.00">AP_Gripper_Backend</text>
<text text-anchor="middle" x="490" y="-198" font-family="Helvetica,sans-Serif" font-size="10.00">::init_gripper</text>
</a>
</g>
</g>
<!-- Node3&#45;&gt;Node4 -->
<g id="edge3" class="edge"><title>Node3&#45;&gt;Node4</title>
<path fill="none" stroke="midnightblue" d="M399.03,-206C407.314,-206 415.936,-206 424.42,-206"/>
<polygon fill="midnightblue" stroke="midnightblue" points="424.667,-209.5 434.667,-206 424.667,-202.5 424.667,-209.5"/>
</g>
</g>
</svg>
