<?xml version="1.0" encoding="UTF-8" standalone="no"?>
<!DOCTYPE svg PUBLIC "-//W3C//DTD SVG 1.1//EN"
 "http://www.w3.org/Graphics/SVG/1.1/DTD/svg11.dtd">
<!-- Generated by graphviz version 2.38.0 (20140413.2041)
 -->
<!-- Title: NavEKF2_core::getOriginLLH Pages: 1 -->
<svg width="1394pt" height="570pt"
 viewBox="0.00 0.00 1394.00 570.00" xmlns="http://www.w3.org/2000/svg" xmlns:xlink="http://www.w3.org/1999/xlink">
<g id="graph0" class="graph" transform="scale(1 1) rotate(0) translate(4 566)">
<title>NavEKF2_core::getOriginLLH</title>
<polygon fill="white" stroke="none" points="-4,4 -4,-566 1390,-566 1390,4 -4,4"/>
<!-- Node1 -->
<g id="node1" class="node"><title>Node1</title>
<polygon fill="#bfbfbf" stroke="black" points="0,-379 0,-398 146,-398 146,-379 0,-379"/>
<text text-anchor="middle" x="73" y="-386" font-family="Helvetica,sans-Serif" font-size="10.00">NavEKF2_core::getOriginLLH</text>
</g>
<!-- Node2 -->
<g id="node2" class="node"><title>Node2</title>
<g id="a_node2"><a xlink:href="classNavEKF2.html#a3109981c3d7b2e386da87b760ee61b30" target="_top" xlink:title="NavEKF2::getOriginLLH">
<polygon fill="white" stroke="black" points="182,-379 182,-398 304,-398 304,-379 182,-379"/>
<text text-anchor="middle" x="243" y="-386" font-family="Helvetica,sans-Serif" font-size="10.00">NavEKF2::getOriginLLH</text>
</a>
</g>
</g>
<!-- Node1&#45;&gt;Node2 -->
<g id="edge1" class="edge"><title>Node1&#45;&gt;Node2</title>
<path fill="none" stroke="midnightblue" d="M156.332,-388.5C164.972,-388.5 173.635,-388.5 181.956,-388.5"/>
<polygon fill="midnightblue" stroke="midnightblue" points="156.222,-385 146.222,-388.5 156.222,-392 156.222,-385"/>
</g>
<!-- Node3 -->
<g id="node3" class="node"><title>Node3</title>
<g id="a_node3"><a xlink:href="classNavEKF2.html#ab18af2714c15fcf190493c01e2a28c73" target="_top" xlink:title="NavEKF2::activeCores">
<polygon fill="white" stroke="black" points="344,-493 344,-512 462,-512 462,-493 344,-493"/>
<text text-anchor="middle" x="403" y="-500" font-family="Helvetica,sans-Serif" font-size="10.00">NavEKF2::activeCores</text>
</a>
</g>
</g>
<!-- Node2&#45;&gt;Node3 -->
<g id="edge2" class="edge"><title>Node2&#45;&gt;Node3</title>
<path fill="none" stroke="midnightblue" d="M265.726,-404.175C298.88,-428.097 361.131,-473.012 388.503,-492.762"/>
<polygon fill="midnightblue" stroke="midnightblue" points="267.357,-401.036 257.199,-398.023 263.261,-406.713 267.357,-401.036"/>
</g>
<!-- Node7 -->
<g id="node7" class="node"><title>Node7</title>
<g id="a_node7"><a xlink:href="classAP__AHRS__NavEKF.html#a8e90dbad885e5d8d4efe9a34d635886a" target="_top" xlink:title="AP_AHRS_NavEKF::get\l_origin">
<polygon fill="white" stroke="black" points="511,-186.5 511,-216.5 637,-216.5 637,-186.5 511,-186.5"/>
<text text-anchor="start" x="519" y="-204.5" font-family="Helvetica,sans-Serif" font-size="10.00">AP_AHRS_NavEKF::get</text>
<text text-anchor="middle" x="574" y="-193.5" font-family="Helvetica,sans-Serif" font-size="10.00">_origin</text>
</a>
</g>
</g>
<!-- Node2&#45;&gt;Node7 -->
<g id="edge6" class="edge"><title>Node2&#45;&gt;Node7</title>
<path fill="none" stroke="midnightblue" d="M269.754,-373.862C330.847,-339.137 484.066,-252.049 546.199,-216.734"/>
<polygon fill="midnightblue" stroke="midnightblue" points="267.732,-370.985 260.767,-378.97 271.191,-377.071 267.732,-370.985"/>
</g>
<!-- Node28 -->
<g id="node28" class="node"><title>Node28</title>
<g id="a_node28"><a xlink:href="classAP__AHRS__NavEKF.html#a5b5c5de012442fd1c6c2f66b5148d313" target="_top" xlink:title="AP_AHRS_NavEKF::get\l_position">
<polygon fill="white" stroke="black" points="340,-373.5 340,-403.5 466,-403.5 466,-373.5 340,-373.5"/>
<text text-anchor="start" x="348" y="-391.5" font-family="Helvetica,sans-Serif" font-size="10.00">AP_AHRS_NavEKF::get</text>
<text text-anchor="middle" x="403" y="-380.5" font-family="Helvetica,sans-Serif" font-size="10.00">_position</text>
</a>
</g>
</g>
<!-- Node2&#45;&gt;Node28 -->
<g id="edge36" class="edge"><title>Node2&#45;&gt;Node28</title>
<path fill="none" stroke="midnightblue" d="M314.437,-388.5C322.919,-388.5 331.534,-388.5 339.886,-388.5"/>
<polygon fill="midnightblue" stroke="midnightblue" points="314.184,-385 304.184,-388.5 314.184,-392 314.184,-385"/>
</g>
<!-- Node4 -->
<g id="node4" class="node"><title>Node4</title>
<g id="a_node4"><a xlink:href="classDataFlash__Class.html#a46e58faaa53c44516433f6bb7bde4163" target="_top" xlink:title="DataFlash_Class::Log\l_Write_POS">
<polygon fill="white" stroke="black" points="517,-531.5 517,-561.5 631,-561.5 631,-531.5 517,-531.5"/>
<text text-anchor="start" x="525" y="-549.5" font-family="Helvetica,sans-Serif" font-size="10.00">DataFlash_Class::Log</text>
<text text-anchor="middle" x="574" y="-538.5" font-family="Helvetica,sans-Serif" font-size="10.00">_Write_POS</text>
</a>
</g>
</g>
<!-- Node3&#45;&gt;Node4 -->
<g id="edge3" class="edge"><title>Node3&#45;&gt;Node4</title>
<path fill="none" stroke="midnightblue" d="M450.411,-514.583C470.932,-519.926 495.243,-526.256 516.782,-531.863"/>
<polygon fill="midnightblue" stroke="midnightblue" points="451.23,-511.18 440.67,-512.047 449.466,-517.954 451.23,-511.18"/>
</g>
<!-- Node6 -->
<g id="node6" class="node"><title>Node6</title>
<g id="a_node6"><a xlink:href="classGCS__MAVLINK.html#a558ba3447048b78cb9dde460053e2741" target="_top" xlink:title="GCS_MAVLINK::send_ahrs2">
<polygon fill="white" stroke="black" points="502,-493 502,-512 646,-512 646,-493 502,-493"/>
<text text-anchor="middle" x="574" y="-500" font-family="Helvetica,sans-Serif" font-size="10.00">GCS_MAVLINK::send_ahrs2</text>
</a>
</g>
</g>
<!-- Node3&#45;&gt;Node6 -->
<g id="edge5" class="edge"><title>Node3&#45;&gt;Node6</title>
<path fill="none" stroke="midnightblue" d="M472.211,-502.5C481.983,-502.5 492.057,-502.5 501.884,-502.5"/>
<polygon fill="midnightblue" stroke="midnightblue" points="472.16,-499 462.16,-502.5 472.16,-506 472.16,-499"/>
</g>
<!-- Node5 -->
<g id="node5" class="node"><title>Node5</title>
<g id="a_node5"><a xlink:href="classDataFlash__Class.html#a7868f0e3dcef65ea5b5fcae618f4c5d4" target="_top" xlink:title="DataFlash_Class::get\l_structures">
<polygon fill="white" stroke="black" points="700.5,-531.5 700.5,-561.5 812.5,-561.5 812.5,-531.5 700.5,-531.5"/>
<text text-anchor="start" x="708.5" y="-549.5" font-family="Helvetica,sans-Serif" font-size="10.00">DataFlash_Class::get</text>
<text text-anchor="middle" x="756.5" y="-538.5" font-family="Helvetica,sans-Serif" font-size="10.00">_structures</text>
</a>
</g>
</g>
<!-- Node4&#45;&gt;Node5 -->
<g id="edge4" class="edge"><title>Node4&#45;&gt;Node5</title>
<path fill="none" stroke="midnightblue" d="M641.127,-546.5C660.582,-546.5 681.652,-546.5 700.342,-546.5"/>
<polygon fill="midnightblue" stroke="midnightblue" points="641.122,-543 631.122,-546.5 641.122,-550 641.122,-543"/>
</g>
<!-- Node8 -->
<g id="node8" class="node"><title>Node8</title>
<g id="a_node8"><a xlink:href="classAP__Module.html#a9b4f06b2556a122f11b92b7b29d462c4" target="_top" xlink:title="AP_Module::call_hook\l_AHRS_update">
<polygon fill="white" stroke="black" points="699.5,-449.5 699.5,-479.5 813.5,-479.5 813.5,-449.5 699.5,-449.5"/>
<text text-anchor="start" x="707.5" y="-467.5" font-family="Helvetica,sans-Serif" font-size="10.00">AP_Module::call_hook</text>
<text text-anchor="middle" x="756.5" y="-456.5" font-family="Helvetica,sans-Serif" font-size="10.00">_AHRS_update</text>
</a>
</g>
</g>
<!-- Node7&#45;&gt;Node8 -->
<g id="edge7" class="edge"><title>Node7&#45;&gt;Node8</title>
<path fill="none" stroke="midnightblue" d="M605.148,-222.716C619.139,-233.827 635.056,-248.453 646,-264.5 672.144,-302.835 660.235,-321.52 682,-362.5 699.61,-395.656 726.735,-430.303 742.641,-449.47"/>
<polygon fill="midnightblue" stroke="midnightblue" points="607.246,-219.915 597.185,-216.596 602.981,-225.465 607.246,-219.915"/>
</g>
<!-- Node11 -->
<g id="node11" class="node"><title>Node11</title>
<g id="a_node11"><a xlink:href="classLocation__Class.html#a94d8de310c8bdf8441c367e90d6b3f90" target="_top" xlink:title="get altitude in desired frame ">
<polygon fill="white" stroke="black" points="704.5,-98.5 704.5,-128.5 808.5,-128.5 808.5,-98.5 704.5,-98.5"/>
<text text-anchor="start" x="712.5" y="-116.5" font-family="Helvetica,sans-Serif" font-size="10.00">Location_Class::get</text>
<text text-anchor="middle" x="756.5" y="-105.5" font-family="Helvetica,sans-Serif" font-size="10.00">_alt_cm</text>
</a>
</g>
</g>
<!-- Node7&#45;&gt;Node11 -->
<g id="edge10" class="edge"><title>Node7&#45;&gt;Node11</title>
<path fill="none" stroke="midnightblue" d="M609.721,-181.429C630.419,-169.781 657.378,-155.155 682,-143.5 692.962,-138.311 705.073,-133.144 716.247,-128.598"/>
<polygon fill="midnightblue" stroke="midnightblue" points="607.947,-178.412 600.971,-186.386 611.397,-184.502 607.947,-178.412"/>
</g>
<!-- Node22 -->
<g id="node22" class="node"><title>Node22</title>
<g id="a_node22"><a xlink:href="classAP__AHRS__NavEKF.html#add98225e5350abab51cccd311f5496c3" target="_top" xlink:title="AP_AHRS_NavEKF::get\l_NavEKF3_const">
<polygon fill="white" stroke="black" points="878.5,-279.5 878.5,-309.5 1004.5,-309.5 1004.5,-279.5 878.5,-279.5"/>
<text text-anchor="start" x="886.5" y="-297.5" font-family="Helvetica,sans-Serif" font-size="10.00">AP_AHRS_NavEKF::get</text>
<text text-anchor="middle" x="941.5" y="-286.5" font-family="Helvetica,sans-Serif" font-size="10.00">_NavEKF3_const</text>
</a>
</g>
</g>
<!-- Node7&#45;&gt;Node22 -->
<g id="edge24" class="edge"><title>Node7&#45;&gt;Node22</title>
<path fill="none" stroke="midnightblue" d="M617.683,-182.601C671.524,-161.875 765.032,-136.511 831,-176.5 860.579,-194.431 843.886,-219.767 867,-245.5 879.298,-259.191 896.216,-270.813 910.722,-279.298"/>
<polygon fill="midnightblue" stroke="midnightblue" points="616.111,-179.459 608.106,-186.4 618.692,-185.965 616.111,-179.459"/>
</g>
<!-- Node23 -->
<g id="node23" class="node"><title>Node23</title>
<g id="a_node23"><a xlink:href="classAP__AHRS__NavEKF.html#acf8913fdd3d47c9b2cfcdda9d4e27268" target="_top" xlink:title="AP_AHRS_NavEKF::get\l_relative_position_D_home">
<polygon fill="white" stroke="black" points="689.5,-186.5 689.5,-216.5 823.5,-216.5 823.5,-186.5 689.5,-186.5"/>
<text text-anchor="start" x="697.5" y="-204.5" font-family="Helvetica,sans-Serif" font-size="10.00">AP_AHRS_NavEKF::get</text>
<text text-anchor="middle" x="756.5" y="-193.5" font-family="Helvetica,sans-Serif" font-size="10.00">_relative_position_D_home</text>
</a>
</g>
</g>
<!-- Node7&#45;&gt;Node23 -->
<g id="edge25" class="edge"><title>Node7&#45;&gt;Node23</title>
<path fill="none" stroke="midnightblue" d="M647.123,-201.5C661.036,-201.5 675.549,-201.5 689.263,-201.5"/>
<polygon fill="midnightblue" stroke="midnightblue" points="647.118,-198 637.118,-201.5 647.118,-205 647.118,-198"/>
</g>
<!-- Node24 -->
<g id="node24" class="node"><title>Node24</title>
<g id="a_node24"><a xlink:href="classAP__AHRS__NavEKF.html#ac0db6af5f979f5111e987d2f1e608237" target="_top" xlink:title="AP_AHRS_NavEKF::get\l_relative_position_NE_home">
<polygon fill="white" stroke="black" points="686,-235.5 686,-265.5 827,-265.5 827,-235.5 686,-235.5"/>
<text text-anchor="start" x="694" y="-253.5" font-family="Helvetica,sans-Serif" font-size="10.00">AP_AHRS_NavEKF::get</text>
<text text-anchor="middle" x="756.5" y="-242.5" font-family="Helvetica,sans-Serif" font-size="10.00">_relative_position_NE_home</text>
</a>
</g>
</g>
<!-- Node7&#45;&gt;Node24 -->
<g id="edge27" class="edge"><title>Node7&#45;&gt;Node24</title>
<path fill="none" stroke="midnightblue" d="M640.38,-219.248C659.942,-224.559 681.196,-230.329 700.055,-235.448"/>
<polygon fill="midnightblue" stroke="midnightblue" points="641.196,-215.844 630.629,-216.601 639.363,-222.599 641.196,-215.844"/>
</g>
<!-- Node25 -->
<g id="node25" class="node"><title>Node25</title>
<g id="a_node25"><a xlink:href="classAP__AHRS__NavEKF.html#a9f75e1cc7913ff2b730d6fc6b3a5fa71" target="_top" xlink:title="AP_AHRS_NavEKF::get\l_relative_position_NED_home">
<polygon fill="white" stroke="black" points="682,-323.5 682,-353.5 831,-353.5 831,-323.5 682,-323.5"/>
<text text-anchor="start" x="690" y="-341.5" font-family="Helvetica,sans-Serif" font-size="10.00">AP_AHRS_NavEKF::get</text>
<text text-anchor="middle" x="756.5" y="-330.5" font-family="Helvetica,sans-Serif" font-size="10.00">_relative_position_NED_home</text>
</a>
</g>
</g>
<!-- Node7&#45;&gt;Node25 -->
<g id="edge29" class="edge"><title>Node7&#45;&gt;Node25</title>
<path fill="none" stroke="midnightblue" d="M603.324,-222.998C640.165,-250.961 703.594,-299.103 735.679,-323.456"/>
<polygon fill="midnightblue" stroke="midnightblue" points="605.088,-219.943 595.006,-216.685 600.856,-225.519 605.088,-219.943"/>
</g>
<!-- Node26 -->
<g id="node26" class="node"><title>Node26</title>
<g id="a_node26"><a xlink:href="classLocation__Class.html#a47b0c66dd700f4ea188eb8a58d886e8a" target="_top" xlink:title="Location_Class::get\l_vector_xy_from_origin_NEU">
<polygon fill="white" stroke="black" points="684,-49.5 684,-79.5 829,-79.5 829,-49.5 684,-49.5"/>
<text text-anchor="start" x="692" y="-67.5" font-family="Helvetica,sans-Serif" font-size="10.00">Location_Class::get</text>
<text text-anchor="middle" x="756.5" y="-56.5" font-family="Helvetica,sans-Serif" font-size="10.00">_vector_xy_from_origin_NEU</text>
</a>
</g>
</g>
<!-- Node7&#45;&gt;Node26 -->
<g id="edge31" class="edge"><title>Node7&#45;&gt;Node26</title>
<path fill="none" stroke="midnightblue" d="M591.499,-178.077C610.569,-152.626 644.217,-112.406 682,-88.5 687.331,-85.1266 693.183,-82.183 699.183,-79.6249"/>
<polygon fill="midnightblue" stroke="midnightblue" points="588.476,-176.281 585.379,-186.413 594.119,-180.423 588.476,-176.281"/>
</g>
<!-- Node27 -->
<g id="node27" class="node"><title>Node27</title>
<g id="a_node27"><a xlink:href="classLocation__Class.html#af3b70b24869e8e03f034dc9a61b177d0" target="_top" xlink:title="Location_Class::Location\l_Class">
<polygon fill="white" stroke="black" points="693,-0.5 693,-30.5 820,-30.5 820,-0.5 693,-0.5"/>
<text text-anchor="start" x="701" y="-18.5" font-family="Helvetica,sans-Serif" font-size="10.00">Location_Class::Location</text>
<text text-anchor="middle" x="756.5" y="-7.5" font-family="Helvetica,sans-Serif" font-size="10.00">_Class</text>
</a>
</g>
</g>
<!-- Node7&#45;&gt;Node27 -->
<g id="edge35" class="edge"><title>Node7&#45;&gt;Node27</title>
<path fill="none" stroke="midnightblue" d="M585.116,-176.455C600.712,-140.924 633.938,-76.1394 682,-39.5 686.484,-36.082 691.474,-33.1395 696.685,-30.6086"/>
<polygon fill="midnightblue" stroke="midnightblue" points="581.72,-175.495 581.016,-186.067 588.159,-178.242 581.72,-175.495"/>
</g>
<!-- Node9 -->
<g id="node9" class="node"><title>Node9</title>
<g id="a_node9"><a xlink:href="classAP__AHRS__NavEKF.html#ac8111979c5dc37a55b2c50818534ea52" target="_top" xlink:title="AP_AHRS_NavEKF::update">
<polygon fill="white" stroke="black" points="870.5,-455 870.5,-474 1012.5,-474 1012.5,-455 870.5,-455"/>
<text text-anchor="middle" x="941.5" y="-462" font-family="Helvetica,sans-Serif" font-size="10.00">AP_AHRS_NavEKF::update</text>
</a>
</g>
</g>
<!-- Node8&#45;&gt;Node9 -->
<g id="edge8" class="edge"><title>Node8&#45;&gt;Node9</title>
<path fill="none" stroke="midnightblue" d="M824.141,-464.5C839.191,-464.5 855.212,-464.5 870.399,-464.5"/>
<polygon fill="midnightblue" stroke="midnightblue" points="823.899,-461 813.899,-464.5 823.899,-468 823.899,-461"/>
</g>
<!-- Node10 -->
<g id="node10" class="node"><title>Node10</title>
<g id="a_node10"><a xlink:href="AHRS__Test_8cpp.html#a0b33edabd7f1c4e4a0bf32c67269be2f" target="_top" xlink:title="loop">
<polygon fill="white" stroke="black" points="1115,-455 1115,-474 1150,-474 1150,-455 1115,-455"/>
<text text-anchor="middle" x="1132.5" y="-462" font-family="Helvetica,sans-Serif" font-size="10.00">loop</text>
</a>
</g>
</g>
<!-- Node9&#45;&gt;Node10 -->
<g id="edge9" class="edge"><title>Node9&#45;&gt;Node10</title>
<path fill="none" stroke="midnightblue" d="M1022.69,-464.5C1057.04,-464.5 1093.97,-464.5 1114.76,-464.5"/>
<polygon fill="midnightblue" stroke="midnightblue" points="1022.61,-461 1012.61,-464.5 1022.61,-468 1022.61,-461"/>
</g>
<!-- Node12 -->
<g id="node12" class="node"><title>Node12</title>
<g id="a_node12"><a xlink:href="classLocation__Class.html#a1b58a6a4d185506e76271dee1f047836" target="_top" xlink:title="Location_Class::change\l_alt_frame">
<polygon fill="white" stroke="black" points="880.5,-118.5 880.5,-148.5 1002.5,-148.5 1002.5,-118.5 880.5,-118.5"/>
<text text-anchor="start" x="888.5" y="-136.5" font-family="Helvetica,sans-Serif" font-size="10.00">Location_Class::change</text>
<text text-anchor="middle" x="941.5" y="-125.5" font-family="Helvetica,sans-Serif" font-size="10.00">_alt_frame</text>
</a>
</g>
</g>
<!-- Node11&#45;&gt;Node12 -->
<g id="edge11" class="edge"><title>Node11&#45;&gt;Node12</title>
<path fill="none" stroke="midnightblue" d="M819.085,-120.231C838.85,-122.391 860.707,-124.78 880.367,-126.928"/>
<polygon fill="midnightblue" stroke="midnightblue" points="819.284,-116.732 808.963,-119.124 818.523,-123.69 819.284,-116.732"/>
</g>
<!-- Node15 -->
<g id="node15" class="node"><title>Node15</title>
<g id="a_node15"><a xlink:href="classLocation__Class.html#aa352d1b331237dc5b2977526d97847eb" target="_top" xlink:title="Location_Class::set\l_terrain">
<polygon fill="white" stroke="black" points="1080.5,-49.5 1080.5,-79.5 1184.5,-79.5 1184.5,-49.5 1080.5,-49.5"/>
<text text-anchor="start" x="1088.5" y="-67.5" font-family="Helvetica,sans-Serif" font-size="10.00">Location_Class::set</text>
<text text-anchor="middle" x="1132.5" y="-56.5" font-family="Helvetica,sans-Serif" font-size="10.00">_terrain</text>
</a>
</g>
</g>
<!-- Node11&#45;&gt;Node15 -->
<g id="edge23" class="edge"><title>Node11&#45;&gt;Node15</title>
<path fill="none" stroke="midnightblue" d="M818.681,-105.484C891.591,-95.9319 1012.1,-80.1434 1080.3,-71.2079"/>
<polygon fill="midnightblue" stroke="midnightblue" points="818.179,-102.02 808.719,-106.79 819.089,-108.961 818.179,-102.02"/>
</g>
<!-- Node16 -->
<g id="node16" class="node"><title>Node16</title>
<g id="a_node16"><a xlink:href="classAC__Fence.html#a1ddf2b4968acee81332875003c5ff64d" target="_top" xlink:title="AC_Fence::check_destination\l_within_fence">
<polygon fill="white" stroke="black" points="867.5,-206.5 867.5,-236.5 1015.5,-236.5 1015.5,-206.5 867.5,-206.5"/>
<text text-anchor="start" x="875.5" y="-224.5" font-family="Helvetica,sans-Serif" font-size="10.00">AC_Fence::check_destination</text>
<text text-anchor="middle" x="941.5" y="-213.5" font-family="Helvetica,sans-Serif" font-size="10.00">_within_fence</text>
</a>
</g>
</g>
<!-- Node11&#45;&gt;Node16 -->
<g id="edge15" class="edge"><title>Node11&#45;&gt;Node16</title>
<path fill="none" stroke="midnightblue" d="M815.058,-133.032C820.717,-136.095 826.151,-139.572 831,-143.5 853.127,-161.424 844.348,-179.244 867,-196.5 872.039,-200.339 877.706,-203.611 883.599,-206.394"/>
<polygon fill="midnightblue" stroke="midnightblue" points="816.545,-129.862 806.031,-128.555 813.434,-136.133 816.545,-129.862"/>
</g>
<!-- Node18 -->
<g id="node18" class="node"><title>Node18</title>
<g id="a_node18"><a xlink:href="classLocation__Class.html#a7b3175ce61dd893910c350a9dd259f49" target="_top" xlink:title="Location_Class::get\l_vector_from_origin_NEU">
<polygon fill="white" stroke="black" points="877,-30.5 877,-60.5 1006,-60.5 1006,-30.5 877,-30.5"/>
<text text-anchor="start" x="885" y="-48.5" font-family="Helvetica,sans-Serif" font-size="10.00">Location_Class::get</text>
<text text-anchor="middle" x="941.5" y="-37.5" font-family="Helvetica,sans-Serif" font-size="10.00">_vector_from_origin_NEU</text>
</a>
</g>
</g>
<!-- Node11&#45;&gt;Node18 -->
<g id="edge17" class="edge"><title>Node11&#45;&gt;Node18</title>
<path fill="none" stroke="midnightblue" d="M812.484,-95.1089C818.743,-92.9231 825.02,-90.6899 831,-88.5 855.26,-79.616 882.282,-69.0124 903.412,-60.5578"/>
<polygon fill="midnightblue" stroke="midnightblue" points="811.012,-91.9146 802.706,-98.4919 813.3,-98.5298 811.012,-91.9146"/>
</g>
<!-- Node19 -->
<g id="node19" class="node"><title>Node19</title>
<g id="a_node19"><a xlink:href="classAC__WPNav.html#a91b8fa0d48a6fb79a4d7ef38dfc11123" target="_top" xlink:title="AC_WPNav::get_vector_NEU">
<polygon fill="white" stroke="black" points="867,-168 867,-187 1016,-187 1016,-168 867,-168"/>
<text text-anchor="middle" x="941.5" y="-175" font-family="Helvetica,sans-Serif" font-size="10.00">AC_WPNav::get_vector_NEU</text>
</a>
</g>
</g>
<!-- Node11&#45;&gt;Node19 -->
<g id="edge19" class="edge"><title>Node11&#45;&gt;Node19</title>
<path fill="none" stroke="midnightblue" d="M803.594,-132.313C830.518,-143.251 860.463,-155.306 867,-157.5 878.283,-161.288 890.717,-164.884 902.098,-167.956"/>
<polygon fill="midnightblue" stroke="midnightblue" points="804.821,-129.034 794.239,-128.509 802.184,-135.518 804.821,-129.034"/>
</g>
<!-- Node13 -->
<g id="node13" class="node"><title>Node13</title>
<g id="a_node13"><a xlink:href="classAC__WPNav.html#a9f9b2b3b12fabb2f5b8026018e562d69" target="_top" xlink:title="AC_WPNav::set_spline\l_destination">
<polygon fill="white" stroke="black" points="1072,-118.5 1072,-148.5 1193,-148.5 1193,-118.5 1072,-118.5"/>
<text text-anchor="start" x="1080" y="-136.5" font-family="Helvetica,sans-Serif" font-size="10.00">AC_WPNav::set_spline</text>
<text text-anchor="middle" x="1132.5" y="-125.5" font-family="Helvetica,sans-Serif" font-size="10.00">_destination</text>
</a>
</g>
</g>
<!-- Node12&#45;&gt;Node13 -->
<g id="edge12" class="edge"><title>Node12&#45;&gt;Node13</title>
<path fill="none" stroke="midnightblue" d="M1012.6,-133.5C1032.1,-133.5 1053.09,-133.5 1071.92,-133.5"/>
<polygon fill="midnightblue" stroke="midnightblue" points="1012.56,-130 1002.56,-133.5 1012.56,-137 1012.56,-130"/>
</g>
<!-- Node12&#45;&gt;Node15 -->
<g id="edge14" class="edge"><title>Node12&#45;&gt;Node15</title>
<path fill="none" stroke="midnightblue" d="M993.52,-114.874C1023.8,-103.818 1061.71,-89.9801 1090.12,-79.607"/>
<polygon fill="midnightblue" stroke="midnightblue" points="992.17,-111.64 983.977,-118.358 994.571,-118.216 992.17,-111.64"/>
</g>
<!-- Node14 -->
<g id="node14" class="node"><title>Node14</title>
<g id="a_node14"><a xlink:href="classAC__WPNav.html#a53a3a893d06b17ff18802d838fbd6584" target="_top" xlink:title="AC_WPNav::get_yaw">
<polygon fill="white" stroke="black" points="1261,-124 1261,-143 1374,-143 1374,-124 1261,-124"/>
<text text-anchor="middle" x="1317.5" y="-131" font-family="Helvetica,sans-Serif" font-size="10.00">AC_WPNav::get_yaw</text>
</a>
</g>
</g>
<!-- Node13&#45;&gt;Node14 -->
<g id="edge13" class="edge"><title>Node13&#45;&gt;Node14</title>
<path fill="none" stroke="midnightblue" d="M1203.3,-133.5C1222.38,-133.5 1242.78,-133.5 1260.95,-133.5"/>
<polygon fill="midnightblue" stroke="midnightblue" points="1203.17,-130 1193.17,-133.5 1203.17,-137 1203.17,-130"/>
</g>
<!-- Node17 -->
<g id="node17" class="node"><title>Node17</title>
<g id="a_node17"><a xlink:href="classAC__Fence.html#acdc600f19a3e4eb6de655c26f52e0968" target="_top" xlink:title="enabled &#45; returns true if fence is enabled ">
<polygon fill="white" stroke="black" points="1081,-212 1081,-231 1184,-231 1184,-212 1081,-212"/>
<text text-anchor="middle" x="1132.5" y="-219" font-family="Helvetica,sans-Serif" font-size="10.00">AC_Fence::enabled</text>
</a>
</g>
</g>
<!-- Node16&#45;&gt;Node17 -->
<g id="edge16" class="edge"><title>Node16&#45;&gt;Node17</title>
<path fill="none" stroke="midnightblue" d="M1025.64,-221.5C1044.44,-221.5 1063.86,-221.5 1080.85,-221.5"/>
<polygon fill="midnightblue" stroke="midnightblue" points="1025.57,-218 1015.57,-221.5 1025.57,-225 1025.57,-218"/>
</g>
<!-- Node18&#45;&gt;Node15 -->
<g id="edge18" class="edge"><title>Node18&#45;&gt;Node15</title>
<path fill="none" stroke="midnightblue" d="M1016.26,-52.9153C1037.67,-55.0673 1060.57,-57.3693 1080.27,-59.3498"/>
<polygon fill="midnightblue" stroke="midnightblue" points="1016.52,-49.4239 1006.22,-51.906 1015.82,-56.3888 1016.52,-49.4239"/>
</g>
<!-- Node19&#45;&gt;Node13 -->
<g id="edge20" class="edge"><title>Node19&#45;&gt;Node13</title>
<path fill="none" stroke="midnightblue" d="M993.547,-165.616C1017.72,-159.989 1046.74,-153.233 1071.91,-147.372"/>
<polygon fill="midnightblue" stroke="midnightblue" points="992.456,-162.276 983.51,-167.953 994.043,-169.094 992.456,-162.276"/>
</g>
<!-- Node20 -->
<g id="node20" class="node"><title>Node20</title>
<g id="a_node20"><a xlink:href="classAC__WPNav.html#a7e131ba7b7deffa86cbf343c495bdf4e" target="_top" xlink:title="AC_WPNav::set_wp_destination">
<polygon fill="white" stroke="black" points="1052,-168 1052,-187 1213,-187 1213,-168 1052,-168"/>
<text text-anchor="middle" x="1132.5" y="-175" font-family="Helvetica,sans-Serif" font-size="10.00">AC_WPNav::set_wp_destination</text>
</a>
</g>
</g>
<!-- Node19&#45;&gt;Node20 -->
<g id="edge21" class="edge"><title>Node19&#45;&gt;Node20</title>
<path fill="none" stroke="midnightblue" d="M1026.36,-177.5C1034.83,-177.5 1043.41,-177.5 1051.83,-177.5"/>
<polygon fill="midnightblue" stroke="midnightblue" points="1026.11,-174 1016.11,-177.5 1026.11,-181 1026.11,-174"/>
</g>
<!-- Node21 -->
<g id="node21" class="node"><title>Node21</title>
<g id="a_node21"><a xlink:href="classAC__WPNav.html#acc07b8521654cf468b6a86fad9104a4c" target="_top" xlink:title="get origin using position vector (distance from home in cm) ">
<polygon fill="white" stroke="black" points="1249,-168 1249,-187 1386,-187 1386,-168 1249,-168"/>
<text text-anchor="middle" x="1317.5" y="-175" font-family="Helvetica,sans-Serif" font-size="10.00">AC_WPNav::get_wp_origin</text>
</a>
</g>
</g>
<!-- Node20&#45;&gt;Node21 -->
<g id="edge22" class="edge"><title>Node20&#45;&gt;Node21</title>
<path fill="none" stroke="midnightblue" d="M1223.28,-177.5C1231.85,-177.5 1240.45,-177.5 1248.77,-177.5"/>
<polygon fill="midnightblue" stroke="midnightblue" points="1223.23,-174 1213.23,-177.5 1223.23,-181 1223.23,-174"/>
</g>
<!-- Node23&#45;&gt;Node22 -->
<g id="edge26" class="edge"><title>Node23&#45;&gt;Node22</title>
<path fill="none" stroke="midnightblue" d="M818.541,-220.128C822.805,-221.826 826.996,-223.62 831,-225.5 848.39,-233.665 891.405,-261.709 918.053,-279.431"/>
<polygon fill="midnightblue" stroke="midnightblue" points="819.727,-216.835 809.136,-216.566 817.248,-223.381 819.727,-216.835"/>
</g>
<!-- Node24&#45;&gt;Node22 -->
<g id="edge28" class="edge"><title>Node24&#45;&gt;Node22</title>
<path fill="none" stroke="midnightblue" d="M829.827,-267.89C845.864,-271.746 862.725,-275.8 878.315,-279.548"/>
<polygon fill="midnightblue" stroke="midnightblue" points="830.508,-264.454 819.966,-265.519 828.871,-271.26 830.508,-264.454"/>
</g>
<!-- Node25&#45;&gt;Node22 -->
<g id="edge30" class="edge"><title>Node25&#45;&gt;Node22</title>
<path fill="none" stroke="midnightblue" d="M829.827,-321.11C845.864,-317.254 862.725,-313.2 878.315,-309.452"/>
<polygon fill="midnightblue" stroke="midnightblue" points="828.871,-317.74 819.966,-323.481 830.508,-324.546 828.871,-317.74"/>
</g>
<!-- Node26&#45;&gt;Node15 -->
<g id="edge34" class="edge"><title>Node26&#45;&gt;Node15</title>
<path fill="none" stroke="midnightblue" d="M815.11,-45.8816C820.525,-43.8394 825.894,-41.6996 831,-39.5 847.616,-32.3426 849.439,-24.8498 867,-20.5 931.28,-4.57805 950.871,-8.51467 1016,-20.5 1045.97,-26.0147 1078.23,-38.9494 1101.01,-49.3757"/>
<polygon fill="midnightblue" stroke="midnightblue" points="813.553,-42.7242 805.362,-49.444 815.956,-49.299 813.553,-42.7242"/>
</g>
<!-- Node26&#45;&gt;Node18 -->
<g id="edge32" class="edge"><title>Node26&#45;&gt;Node18</title>
<path fill="none" stroke="midnightblue" d="M839.09,-56.0289C851.715,-54.7181 864.594,-53.3809 876.752,-52.1187"/>
<polygon fill="midnightblue" stroke="midnightblue" points="838.624,-52.5584 829.039,-57.0725 839.347,-59.521 838.624,-52.5584"/>
</g>
<!-- Node26&#45;&gt;Node19 -->
<g id="edge33" class="edge"><title>Node26&#45;&gt;Node19</title>
<path fill="none" stroke="midnightblue" d="M826.188,-84.8024C827.855,-85.9673 829.464,-87.1986 831,-88.5 857.394,-110.856 840.056,-135.81 867,-157.5 872.357,-161.812 878.57,-165.198 885.07,-167.855"/>
<polygon fill="midnightblue" stroke="midnightblue" points="827.797,-81.6856 817.427,-79.5134 824.179,-87.6782 827.797,-81.6856"/>
</g>
<!-- Node28&#45;&gt;Node8 -->
<g id="edge37" class="edge"><title>Node28&#45;&gt;Node8</title>
<path fill="none" stroke="midnightblue" d="M432.113,-409.481C450.882,-422.281 476.683,-437.646 502,-445.5 567.547,-465.834 646.996,-468.476 699.274,-467.416"/>
<polygon fill="midnightblue" stroke="midnightblue" points="433.954,-406.498 423.754,-403.633 429.941,-412.234 433.954,-406.498"/>
</g>
<!-- Node29 -->
<g id="node29" class="node"><title>Node29</title>
<g id="a_node29"><a xlink:href="classAP__AHRS__NavEKF.html#a150ada6f732ef9a5ad2327047079511c" target="_top" xlink:title="AP_AHRS_NavEKF::get\l_location">
<polygon fill="white" stroke="black" points="511,-346.5 511,-376.5 637,-376.5 637,-346.5 511,-346.5"/>
<text text-anchor="start" x="519" y="-364.5" font-family="Helvetica,sans-Serif" font-size="10.00">AP_AHRS_NavEKF::get</text>
<text text-anchor="middle" x="574" y="-353.5" font-family="Helvetica,sans-Serif" font-size="10.00">_location</text>
</a>
</g>
</g>
<!-- Node28&#45;&gt;Node29 -->
<g id="edge38" class="edge"><title>Node28&#45;&gt;Node29</title>
<path fill="none" stroke="midnightblue" d="M476.412,-376.931C487.863,-375.102 499.617,-373.224 510.807,-371.436"/>
<polygon fill="midnightblue" stroke="midnightblue" points="475.772,-373.489 466.449,-378.523 476.876,-380.401 475.772,-373.489"/>
</g>
<!-- Node30 -->
<g id="node30" class="node"><title>Node30</title>
<g id="a_node30"><a xlink:href="classAP__AHRS__NavEKF.html#a1fb251549023b8cbf53ac13f223a1db2" target="_top" xlink:title="AP_AHRS_NavEKF::get\l_relative_position_NE\l_origin">
<polygon fill="white" stroke="black" points="511,-274 511,-315 637,-315 637,-274 511,-274"/>
<text text-anchor="start" x="519" y="-303" font-family="Helvetica,sans-Serif" font-size="10.00">AP_AHRS_NavEKF::get</text>
<text text-anchor="start" x="519" y="-292" font-family="Helvetica,sans-Serif" font-size="10.00">_relative_position_NE</text>
<text text-anchor="middle" x="574" y="-281" font-family="Helvetica,sans-Serif" font-size="10.00">_origin</text>
</a>
</g>
</g>
<!-- Node28&#45;&gt;Node30 -->
<g id="edge40" class="edge"><title>Node28&#45;&gt;Node30</title>
<path fill="none" stroke="midnightblue" d="M439.902,-368.531C468.121,-352.835 507.295,-331.046 535.834,-315.172"/>
<polygon fill="midnightblue" stroke="midnightblue" points="438.191,-365.478 431.153,-373.397 441.593,-371.595 438.191,-365.478"/>
</g>
<!-- Node31 -->
<g id="node31" class="node"><title>Node31</title>
<g id="a_node31"><a xlink:href="classAP__AHRS__NavEKF.html#afa4fa1dd44e6365ce70edf09fa359cb5" target="_top" xlink:title="AP_AHRS_NavEKF::get\l_relative_position_NED\l_origin">
<polygon fill="white" stroke="black" points="511,-395 511,-436 637,-436 637,-395 511,-395"/>
<text text-anchor="start" x="519" y="-424" font-family="Helvetica,sans-Serif" font-size="10.00">AP_AHRS_NavEKF::get</text>
<text text-anchor="start" x="519" y="-413" font-family="Helvetica,sans-Serif" font-size="10.00">_relative_position_NED</text>
<text text-anchor="middle" x="574" y="-402" font-family="Helvetica,sans-Serif" font-size="10.00">_origin</text>
</a>
</g>
</g>
<!-- Node28&#45;&gt;Node31 -->
<g id="edge43" class="edge"><title>Node28&#45;&gt;Node31</title>
<path fill="none" stroke="midnightblue" d="M476.412,-400.069C487.863,-401.898 499.617,-403.776 510.807,-405.564"/>
<polygon fill="midnightblue" stroke="midnightblue" points="476.876,-396.599 466.449,-398.477 475.772,-403.511 476.876,-396.599"/>
</g>
<!-- Node29&#45;&gt;Node22 -->
<g id="edge39" class="edge"><title>Node29&#45;&gt;Node22</title>
<path fill="none" stroke="midnightblue" d="M647.24,-372.346C699.34,-377.644 770.797,-379.672 831,-362.5 866.938,-352.249 902.586,-326.435 923.029,-309.725"/>
<polygon fill="midnightblue" stroke="midnightblue" points="647.406,-368.844 637.087,-371.248 646.653,-375.803 647.406,-368.844"/>
</g>
<!-- Node30&#45;&gt;Node22 -->
<g id="edge41" class="edge"><title>Node30&#45;&gt;Node22</title>
<path fill="none" stroke="midnightblue" d="M647.136,-294.5C714.657,-294.5 814.474,-294.5 878.5,-294.5"/>
<polygon fill="midnightblue" stroke="midnightblue" points="647.002,-291 637.002,-294.5 647.002,-298 647.002,-291"/>
</g>
<!-- Node30&#45;&gt;Node24 -->
<g id="edge42" class="edge"><title>Node30&#45;&gt;Node24</title>
<path fill="none" stroke="midnightblue" d="M647.16,-276.91C662.634,-273.138 678.847,-269.185 693.879,-265.521"/>
<polygon fill="midnightblue" stroke="midnightblue" points="646.004,-273.589 637.118,-279.358 647.662,-280.39 646.004,-273.589"/>
</g>
<!-- Node31&#45;&gt;Node8 -->
<g id="edge44" class="edge"><title>Node31&#45;&gt;Node8</title>
<path fill="none" stroke="midnightblue" d="M646.865,-435.009C664.627,-439.831 683.381,-444.922 700.215,-449.492"/>
<polygon fill="midnightblue" stroke="midnightblue" points="647.686,-431.605 637.118,-432.363 645.852,-438.361 647.686,-431.605"/>
</g>
<!-- Node31&#45;&gt;Node22 -->
<g id="edge45" class="edge"><title>Node31&#45;&gt;Node22</title>
<path fill="none" stroke="midnightblue" d="M647.511,-416.962C700.343,-415.563 772.587,-408.432 831,-383.5 870.88,-366.478 907.959,-330.448 927.046,-309.832"/>
<polygon fill="midnightblue" stroke="midnightblue" points="647.14,-413.469 637.213,-417.169 647.281,-420.468 647.14,-413.469"/>
</g>
<!-- Node31&#45;&gt;Node25 -->
<g id="edge46" class="edge"><title>Node31&#45;&gt;Node25</title>
<path fill="none" stroke="midnightblue" d="M633.312,-390.892C637.607,-389.07 641.872,-387.258 646,-385.5 670.934,-374.881 699.023,-362.823 720.508,-353.579"/>
<polygon fill="midnightblue" stroke="midnightblue" points="631.745,-387.755 623.903,-394.88 634.476,-394.2 631.745,-387.755"/>
</g>
</g>
</svg>
