<?xml version="1.0" encoding="UTF-8" standalone="no"?>
<!DOCTYPE svg PUBLIC "-//W3C//DTD SVG 1.1//EN"
 "http://www.w3.org/Graphics/SVG/1.1/DTD/svg11.dtd">
<!-- Generated by graphviz version 2.38.0 (20140413.2041)
 -->
<!-- Title: AP_Tuning::controller_error Pages: 1 -->
<svg width="455pt" height="39pt"
 viewBox="0.00 0.00 455.00 39.00" xmlns="http://www.w3.org/2000/svg" xmlns:xlink="http://www.w3.org/1999/xlink">
<g id="graph0" class="graph" transform="scale(1 1) rotate(0) translate(4 35)">
<title>AP_Tuning::controller_error</title>
<polygon fill="white" stroke="none" points="-4,4 -4,-35 451,-35 451,4 -4,4"/>
<!-- Node1 -->
<g id="node1" class="node"><title>Node1</title>
<polygon fill="#bfbfbf" stroke="black" points="0,-0.5 0,-30.5 110,-30.5 110,-0.5 0,-0.5"/>
<text text-anchor="start" x="8" y="-18.5" font-family="Helvetica,sans-Serif" font-size="10.00">AP_Tuning::controller</text>
<text text-anchor="middle" x="55" y="-7.5" font-family="Helvetica,sans-Serif" font-size="10.00">_error</text>
</g>
<!-- Node2 -->
<g id="node2" class="node"><title>Node2</title>
<g id="a_node2"><a xlink:href="classAP__Tuning.html#a2edf7f8bc74c25be438ec7ceacbe9267" target="_top" xlink:title="AP_Tuning::check_controller\l_error">
<polygon fill="white" stroke="black" points="146,-0.5 146,-30.5 288,-30.5 288,-0.5 146,-0.5"/>
<text text-anchor="start" x="154" y="-18.5" font-family="Helvetica,sans-Serif" font-size="10.00">AP_Tuning::check_controller</text>
<text text-anchor="middle" x="217" y="-7.5" font-family="Helvetica,sans-Serif" font-size="10.00">_error</text>
</a>
</g>
</g>
<!-- Node1&#45;&gt;Node2 -->
<g id="edge1" class="edge"><title>Node1&#45;&gt;Node2</title>
<path fill="none" stroke="midnightblue" d="M120.246,-15.5C128.626,-15.5 137.247,-15.5 145.72,-15.5"/>
<polygon fill="midnightblue" stroke="midnightblue" points="120.169,-12.0001 110.169,-15.5 120.169,-19.0001 120.169,-12.0001"/>
</g>
<!-- Node3 -->
<g id="node3" class="node"><title>Node3</title>
<g id="a_node3"><a xlink:href="classAP__Tuning.html#a26bf8c5e3711e547ce95654ca285fecb" target="_top" xlink:title="AP_Tuning::check_input">
<polygon fill="white" stroke="black" points="324,-6 324,-25 447,-25 447,-6 324,-6"/>
<text text-anchor="middle" x="385.5" y="-13" font-family="Helvetica,sans-Serif" font-size="10.00">AP_Tuning::check_input</text>
</a>
</g>
</g>
<!-- Node2&#45;&gt;Node3 -->
<g id="edge2" class="edge"><title>Node2&#45;&gt;Node3</title>
<path fill="none" stroke="midnightblue" d="M298.241,-15.5C306.892,-15.5 315.587,-15.5 323.95,-15.5"/>
<polygon fill="midnightblue" stroke="midnightblue" points="298.128,-12.0001 288.128,-15.5 298.128,-19.0001 298.128,-12.0001"/>
</g>
</g>
</svg>
