<?xml version="1.0" encoding="UTF-8" standalone="no"?>
<!DOCTYPE svg PUBLIC "-//W3C//DTD SVG 1.1//EN"
 "http://www.w3.org/Graphics/SVG/1.1/DTD/svg11.dtd">
<!-- Generated by graphviz version 2.38.0 (20140413.2041)
 -->
<!-- Title: VRBoard_LED Pages: 1 -->
<svg width="417pt" height="245pt"
 viewBox="0.00 0.00 417.00 245.00" xmlns="http://www.w3.org/2000/svg" xmlns:xlink="http://www.w3.org/1999/xlink">
<g id="graph0" class="graph" transform="scale(1 1) rotate(0) translate(4 241)">
<title>VRBoard_LED</title>
<polygon fill="white" stroke="none" points="-4,4 -4,-241 413,-241 413,4 -4,4"/>
<!-- Node1 -->
<g id="node1" class="node"><title>Node1</title>
<polygon fill="#bfbfbf" stroke="black" points="328,-217.5 328,-236.5 409,-236.5 409,-217.5 328,-217.5"/>
<text text-anchor="middle" x="368.5" y="-224.5" font-family="Helvetica,sans-Serif" font-size="10.00">VRBoard_LED</text>
</g>
<!-- Node2 -->
<g id="node2" class="node"><title>Node2</title>
<g id="a_node2"><a xlink:href="classRGBLed.html" target="_top" xlink:title="RGBLed">
<polygon fill="white" stroke="black" points="233,-217.5 233,-236.5 287,-236.5 287,-217.5 233,-217.5"/>
<text text-anchor="middle" x="260" y="-224.5" font-family="Helvetica,sans-Serif" font-size="10.00">RGBLed</text>
</a>
</g>
</g>
<!-- Node2&#45;&gt;Node1 -->
<g id="edge1" class="edge"><title>Node2&#45;&gt;Node1</title>
<path fill="none" stroke="midnightblue" d="M297.248,-227C307.018,-227 317.641,-227 327.598,-227"/>
<polygon fill="midnightblue" stroke="midnightblue" points="297.053,-223.5 287.053,-227 297.053,-230.5 297.053,-223.5"/>
</g>
<!-- Node3 -->
<g id="node3" class="node"><title>Node3</title>
<g id="a_node3"><a xlink:href="classNotifyDevice.html" target="_top" xlink:title="NotifyDevice">
<polygon fill="white" stroke="black" points="38,-191.5 38,-210.5 112,-210.5 112,-191.5 38,-191.5"/>
<text text-anchor="middle" x="75" y="-198.5" font-family="Helvetica,sans-Serif" font-size="10.00">NotifyDevice</text>
</a>
</g>
</g>
<!-- Node3&#45;&gt;Node2 -->
<g id="edge2" class="edge"><title>Node3&#45;&gt;Node2</title>
<path fill="none" stroke="midnightblue" d="M122.162,-207.559C157.225,-212.54 204.173,-219.21 232.966,-223.301"/>
<polygon fill="midnightblue" stroke="midnightblue" points="122.548,-204.078 112.155,-206.137 121.563,-211.009 122.548,-204.078"/>
</g>
<!-- Node4 -->
<g id="node4" class="node"><title>Node4</title>
<g id="a_node4"><a xlink:href="classAP__Notify.html" target="_top" xlink:title="AP_Notify">
<polygon fill="white" stroke="black" points="229,-123.5 229,-142.5 291,-142.5 291,-123.5 229,-123.5"/>
<text text-anchor="middle" x="260" y="-130.5" font-family="Helvetica,sans-Serif" font-size="10.00">AP_Notify</text>
</a>
</g>
</g>
<!-- Node3&#45;&gt;Node4 -->
<g id="edge8" class="edge"><title>Node3&#45;&gt;Node4</title>
<path fill="none" stroke="#9a32cd" stroke-dasharray="5,2" d="M122.181,-200.249C149.281,-198.196 183.492,-192.726 211,-179 228.351,-170.342 243.601,-153.237 252.035,-142.501"/>
<polygon fill="#9a32cd" stroke="#9a32cd" points="121.933,-196.758 112.172,-200.879 122.372,-203.744 121.933,-196.758"/>
<text text-anchor="middle" x="189.5" y="-196" font-family="Helvetica,sans-Serif" font-size="10.00"> _devices</text>
</g>
<!-- Node4&#45;&gt;Node3 -->
<g id="edge3" class="edge"><title>Node4&#45;&gt;Node3</title>
<path fill="none" stroke="#9a32cd" stroke-dasharray="5,2" d="M223.762,-146.094C188.07,-159.356 133.711,-179.555 101.831,-191.401"/>
<polygon fill="#9a32cd" stroke="#9a32cd" points="225.145,-149.314 233.3,-142.55 222.707,-142.752 225.145,-149.314"/>
<text text-anchor="middle" x="189.5" y="-168" font-family="Helvetica,sans-Serif" font-size="10.00"> pNotify</text>
</g>
<!-- Node5 -->
<g id="node5" class="node"><title>Node5</title>
<g id="a_node5"><a xlink:href="structAP__Notify_1_1notify__events__type.html" target="_top" xlink:title="notify_events_type &#45; bitmask of active events. ">
<polygon fill="white" stroke="black" points="0,-128.5 0,-147.5 150,-147.5 150,-128.5 0,-128.5"/>
<text text-anchor="middle" x="75" y="-135.5" font-family="Helvetica,sans-Serif" font-size="10.00">AP_Notify::notify_events_type</text>
</a>
</g>
</g>
<!-- Node5&#45;&gt;Node4 -->
<g id="edge4" class="edge"><title>Node5&#45;&gt;Node4</title>
<path fill="none" stroke="#9a32cd" stroke-dasharray="5,2" d="M160.348,-134.225C162.927,-134.144 165.483,-134.069 168,-134 188.216,-133.45 210.966,-133.2 228.662,-133.087"/>
<polygon fill="#9a32cd" stroke="#9a32cd" points="160.184,-130.728 150.307,-134.562 160.419,-137.724 160.184,-130.728"/>
<text text-anchor="middle" x="189.5" y="-137" font-family="Helvetica,sans-Serif" font-size="10.00"> events</text>
</g>
<!-- Node6 -->
<g id="node6" class="node"><title>Node6</title>
<g id="a_node6"><a xlink:href="structAP__Notify_1_1notify__flags__and__values__type.html" target="_top" xlink:title="notify_flags_type &#45; bitmask of notification flags ">
<polygon fill="white" stroke="black" points="16,-79 16,-109 134,-109 134,-79 16,-79"/>
<text text-anchor="start" x="24" y="-97" font-family="Helvetica,sans-Serif" font-size="10.00">AP_Notify::notify_flags</text>
<text text-anchor="middle" x="75" y="-86" font-family="Helvetica,sans-Serif" font-size="10.00">_and_values_type</text>
</a>
</g>
</g>
<!-- Node6&#45;&gt;Node4 -->
<g id="edge5" class="edge"><title>Node6&#45;&gt;Node4</title>
<path fill="none" stroke="#9a32cd" stroke-dasharray="5,2" d="M144.104,-105.233C165.601,-109.147 189.38,-113.859 211,-119 216.827,-120.386 223,-122.041 228.909,-123.721"/>
<polygon fill="#9a32cd" stroke="#9a32cd" points="144.541,-101.755 134.08,-103.435 143.305,-108.645 144.541,-101.755"/>
<text text-anchor="middle" x="189.5" y="-122" font-family="Helvetica,sans-Serif" font-size="10.00"> flags</text>
</g>
<!-- Node7 -->
<g id="node7" class="node"><title>Node7</title>
<g id="a_node7"><a xlink:href="structAP__Param_1_1GroupInfo.html" target="_top" xlink:title="AP_Param::GroupInfo">
<polygon fill="white" stroke="black" points="18.5,-0.5 18.5,-19.5 131.5,-19.5 131.5,-0.5 18.5,-0.5"/>
<text text-anchor="middle" x="75" y="-7.5" font-family="Helvetica,sans-Serif" font-size="10.00">AP_Param::GroupInfo</text>
</a>
</g>
</g>
<!-- Node7&#45;&gt;Node4 -->
<g id="edge6" class="edge"><title>Node7&#45;&gt;Node4</title>
<path fill="none" stroke="#9a32cd" stroke-dasharray="5,2" d="M100.665,-24.7952C128.065,-41.4408 173.398,-69.6095 211,-96 223.574,-104.825 237.418,-115.618 246.994,-123.265"/>
<polygon fill="#9a32cd" stroke="#9a32cd" points="102.465,-21.7936 92.0975,-19.6111 98.8412,-27.7826 102.465,-21.7936"/>
<text text-anchor="middle" x="189.5" y="-99" font-family="Helvetica,sans-Serif" font-size="10.00"> var_info</text>
</g>
<!-- Node7&#45;&gt;Node7 -->
<g id="edge7" class="edge"><title>Node7&#45;&gt;Node7</title>
<path fill="none" stroke="#9a32cd" stroke-dasharray="5,2" d="M53.8899,-29.4C55.2997,-34.3146 62.3364,-38 75,-38 95.2617,-38 101.119,-28.5653 92.5707,-19.7571"/>
<polygon fill="#9a32cd" stroke="#9a32cd" points="57.2693,-30.3507 57.4293,-19.7571 50.6979,-27.9387 57.2693,-30.3507"/>
<text text-anchor="middle" x="75" y="-52" font-family="Helvetica,sans-Serif" font-size="10.00"> group_info_ptr</text>
<text text-anchor="middle" x="75" y="-41" font-family="Helvetica,sans-Serif" font-size="10.00">group_info</text>
</g>
</g>
</svg>
