<?xml version="1.0" encoding="UTF-8" standalone="no"?>
<!DOCTYPE svg PUBLIC "-//W3C//DTD SVG 1.1//EN"
 "http://www.w3.org/Graphics/SVG/1.1/DTD/svg11.dtd">
<!-- Generated by graphviz version 2.38.0 (20140413.2041)
 -->
<!-- Title: AC_AttitudeControl_Heli::update_althold_lean_angle_max Pages: 1 -->
<svg width="520pt" height="142pt"
 viewBox="0.00 0.00 520.00 142.00" xmlns="http://www.w3.org/2000/svg" xmlns:xlink="http://www.w3.org/1999/xlink">
<g id="graph0" class="graph" transform="scale(1 1) rotate(0) translate(4 138)">
<title>AC_AttitudeControl_Heli::update_althold_lean_angle_max</title>
<polygon fill="white" stroke="none" points="-4,4 -4,-138 516,-138 516,4 -4,4"/>
<!-- Node1 -->
<g id="node1" class="node"><title>Node1</title>
<polygon fill="#bfbfbf" stroke="black" points="0,-46.5 0,-87.5 108,-87.5 108,-46.5 0,-46.5"/>
<text text-anchor="start" x="8" y="-75.5" font-family="Helvetica,sans-Serif" font-size="10.00">AC_AttitudeControl</text>
<text text-anchor="start" x="8" y="-64.5" font-family="Helvetica,sans-Serif" font-size="10.00">_Heli::update_althold</text>
<text text-anchor="middle" x="54" y="-53.5" font-family="Helvetica,sans-Serif" font-size="10.00">_lean_angle_max</text>
</g>
<!-- Node2 -->
<g id="node2" class="node"><title>Node2</title>
<g id="a_node2"><a xlink:href="AP__Math_8h.html#ad525609d9dba6ffa556a0fbf08a3f9b4" target="_top" xlink:title="constrain_float">
<polygon fill="white" stroke="black" points="144,-57.5 144,-76.5 224,-76.5 224,-57.5 144,-57.5"/>
<text text-anchor="middle" x="184" y="-64.5" font-family="Helvetica,sans-Serif" font-size="10.00">constrain_float</text>
</a>
</g>
</g>
<!-- Node1&#45;&gt;Node2 -->
<g id="edge1" class="edge"><title>Node1&#45;&gt;Node2</title>
<path fill="none" stroke="midnightblue" d="M108.172,-67C116.668,-67 125.427,-67 133.826,-67"/>
<polygon fill="midnightblue" stroke="midnightblue" points="133.85,-70.5001 143.85,-67 133.85,-63.5001 133.85,-70.5001"/>
</g>
<!-- Node3 -->
<g id="node3" class="node"><title>Node3</title>
<g id="a_node3"><a xlink:href="AP__Math_8h.html#a20e8f8671c282c69c1954652b6d61585" target="_top" xlink:title="constrain_value">
<polygon fill="white" stroke="black" points="260,-57.5 260,-76.5 345,-76.5 345,-57.5 260,-57.5"/>
<text text-anchor="middle" x="302.5" y="-64.5" font-family="Helvetica,sans-Serif" font-size="10.00">constrain_value</text>
</a>
</g>
</g>
<!-- Node2&#45;&gt;Node3 -->
<g id="edge2" class="edge"><title>Node2&#45;&gt;Node3</title>
<path fill="none" stroke="midnightblue" d="M224.117,-67C232.384,-67 241.229,-67 249.877,-67"/>
<polygon fill="midnightblue" stroke="midnightblue" points="249.892,-70.5001 259.892,-67 249.892,-63.5001 249.892,-70.5001"/>
</g>
<!-- Node4 -->
<g id="node4" class="node"><title>Node4</title>
<g id="a_node4"><a xlink:href="AP__Math_8cpp.html#a37e8e901754cb9c8e53a8e3030c82c50" target="_top" xlink:title="constrain_value\&lt; int \&gt;">
<polygon fill="white" stroke="black" points="390,-114.5 390,-133.5 503,-133.5 503,-114.5 390,-114.5"/>
<text text-anchor="middle" x="446.5" y="-121.5" font-family="Helvetica,sans-Serif" font-size="10.00">constrain_value&lt; int &gt;</text>
</a>
</g>
</g>
<!-- Node3&#45;&gt;Node4 -->
<g id="edge3" class="edge"><title>Node3&#45;&gt;Node4</title>
<path fill="none" stroke="midnightblue" d="M320.97,-76.6284C336.432,-84.891 359.774,-96.7384 381,-105 386.854,-107.278 393.097,-109.439 399.307,-111.429"/>
<polygon fill="midnightblue" stroke="midnightblue" points="398.389,-114.809 408.977,-114.411 400.452,-108.12 398.389,-114.809"/>
</g>
<!-- Node5 -->
<g id="node5" class="node"><title>Node5</title>
<g id="a_node5"><a xlink:href="AP__Math_8cpp.html#afdbe107ec1987d318a6347816fbf2b89" target="_top" xlink:title="constrain_value\&lt; short \&gt;">
<polygon fill="white" stroke="black" points="384,-76.5 384,-95.5 509,-95.5 509,-76.5 384,-76.5"/>
<text text-anchor="middle" x="446.5" y="-83.5" font-family="Helvetica,sans-Serif" font-size="10.00">constrain_value&lt; short &gt;</text>
</a>
</g>
</g>
<!-- Node3&#45;&gt;Node5 -->
<g id="edge4" class="edge"><title>Node3&#45;&gt;Node5</title>
<path fill="none" stroke="midnightblue" d="M345.337,-72.5979C354.323,-73.8003 364.064,-75.1036 373.821,-76.4092"/>
<polygon fill="midnightblue" stroke="midnightblue" points="373.589,-79.9093 383.965,-77.7665 374.518,-72.9711 373.589,-79.9093"/>
</g>
<!-- Node6 -->
<g id="node6" class="node"><title>Node6</title>
<g id="a_node6"><a xlink:href="AP__Math_8cpp.html#ae6c621670c214da687de21d4e3a92587" target="_top" xlink:title="constrain_value\&lt; float \&gt;">
<polygon fill="white" stroke="black" points="385.5,-38.5 385.5,-57.5 507.5,-57.5 507.5,-38.5 385.5,-38.5"/>
<text text-anchor="middle" x="446.5" y="-45.5" font-family="Helvetica,sans-Serif" font-size="10.00">constrain_value&lt; float &gt;</text>
</a>
</g>
</g>
<!-- Node3&#45;&gt;Node6 -->
<g id="edge5" class="edge"><title>Node3&#45;&gt;Node6</title>
<path fill="none" stroke="midnightblue" d="M345.337,-61.4021C354.724,-60.146 364.935,-58.7798 375.129,-57.4159"/>
<polygon fill="midnightblue" stroke="midnightblue" points="375.838,-60.8522 385.286,-56.0568 374.91,-53.9141 375.838,-60.8522"/>
</g>
<!-- Node7 -->
<g id="node7" class="node"><title>Node7</title>
<g id="a_node7"><a xlink:href="AP__Math_8cpp.html#afe3990b00e9abc43fa97dfaf8e32f5c4" target="_top" xlink:title="constrain_value\&lt; double \&gt;">
<polygon fill="white" stroke="black" points="381,-0.5 381,-19.5 512,-19.5 512,-0.5 381,-0.5"/>
<text text-anchor="middle" x="446.5" y="-7.5" font-family="Helvetica,sans-Serif" font-size="10.00">constrain_value&lt; double &gt;</text>
</a>
</g>
</g>
<!-- Node3&#45;&gt;Node7 -->
<g id="edge6" class="edge"><title>Node3&#45;&gt;Node7</title>
<path fill="none" stroke="midnightblue" d="M320.97,-57.3716C336.432,-49.109 359.774,-37.2616 381,-29 386.854,-26.7215 393.097,-24.5614 399.307,-22.5705"/>
<polygon fill="midnightblue" stroke="midnightblue" points="400.452,-25.88 408.977,-19.5887 398.389,-19.1908 400.452,-25.88"/>
</g>
</g>
</svg>
