<?xml version="1.0" encoding="UTF-8" standalone="no"?>
<!DOCTYPE svg PUBLIC "-//W3C//DTD SVG 1.1//EN"
 "http://www.w3.org/Graphics/SVG/1.1/DTD/svg11.dtd">
<!-- Generated by graphviz version 2.38.0 (20140413.2041)
 -->
<!-- Title: AP_Airspeed::get_temperature Pages: 1 -->
<svg width="311pt" height="78pt"
 viewBox="0.00 0.00 311.00 77.50" xmlns="http://www.w3.org/2000/svg" xmlns:xlink="http://www.w3.org/1999/xlink">
<g id="graph0" class="graph" transform="scale(1 1) rotate(0) translate(4 73.5)">
<title>AP_Airspeed::get_temperature</title>
<polygon fill="white" stroke="none" points="-4,4 -4,-73.5 307,-73.5 307,4 -4,4"/>
<!-- Node1 -->
<g id="node1" class="node"><title>Node1</title>
<polygon fill="#bfbfbf" stroke="black" points="0,-28 0,-47 150,-47 150,-28 0,-28"/>
<text text-anchor="middle" x="75" y="-35" font-family="Helvetica,sans-Serif" font-size="10.00">AP_Airspeed::get_temperature</text>
</g>
<!-- Node2 -->
<g id="node2" class="node"><title>Node2</title>
<g id="a_node2"><a xlink:href="classAP__Airspeed.html#a4721e9a79d9611e1f693d4850c07edc0" target="_top" xlink:title="AP_Airspeed::enabled">
<polygon fill="white" stroke="black" points="188,-50 188,-69 301,-69 301,-50 188,-50"/>
<text text-anchor="middle" x="244.5" y="-57" font-family="Helvetica,sans-Serif" font-size="10.00">AP_Airspeed::enabled</text>
</a>
</g>
</g>
<!-- Node1&#45;&gt;Node2 -->
<g id="edge1" class="edge"><title>Node1&#45;&gt;Node2</title>
<path fill="none" stroke="midnightblue" d="M148.494,-47.0216C158.168,-48.2923 168.047,-49.5898 177.601,-50.8446"/>
<polygon fill="midnightblue" stroke="midnightblue" points="177.444,-54.354 187.815,-52.1861 178.356,-47.4136 177.444,-54.354"/>
</g>
<!-- Node3 -->
<g id="node3" class="node"><title>Node3</title>
<g id="a_node3"><a xlink:href="classAP__Airspeed__Backend.html#ab0e4ed6819fefd4da1c7a8e30a595186" target="_top" xlink:title="AP_Airspeed_Backend\l::get_temperature">
<polygon fill="white" stroke="black" points="186,-0.5 186,-30.5 303,-30.5 303,-0.5 186,-0.5"/>
<text text-anchor="start" x="194" y="-18.5" font-family="Helvetica,sans-Serif" font-size="10.00">AP_Airspeed_Backend</text>
<text text-anchor="middle" x="244.5" y="-7.5" font-family="Helvetica,sans-Serif" font-size="10.00">::get_temperature</text>
</a>
</g>
</g>
<!-- Node1&#45;&gt;Node3 -->
<g id="edge2" class="edge"><title>Node1&#45;&gt;Node3</title>
<path fill="none" stroke="midnightblue" d="M148.494,-27.9784C157.552,-26.7888 166.788,-25.5756 175.77,-24.3959"/>
<polygon fill="midnightblue" stroke="midnightblue" points="176.319,-27.8539 185.778,-23.0814 175.407,-20.9135 176.319,-27.8539"/>
</g>
</g>
</svg>
