<?xml version="1.0" encoding="UTF-8" standalone="no"?>
<!DOCTYPE svg PUBLIC "-//W3C//DTD SVG 1.1//EN"
 "http://www.w3.org/Graphics/SVG/1.1/DTD/svg11.dtd">
<!-- Generated by graphviz version 2.38.0 (20140413.2041)
 -->
<!-- Title: TSYS01::_convert Pages: 1 -->
<svg width="335pt" height="47pt"
 viewBox="0.00 0.00 335.00 47.00" xmlns="http://www.w3.org/2000/svg" xmlns:xlink="http://www.w3.org/1999/xlink">
<g id="graph0" class="graph" transform="scale(1 1) rotate(0) translate(4 43)">
<title>TSYS01::_convert</title>
<polygon fill="white" stroke="none" points="-4,4 -4,-43 331,-43 331,4 -4,4"/>
<!-- Node1 -->
<g id="node1" class="node"><title>Node1</title>
<polygon fill="#bfbfbf" stroke="black" points="0,-0.5 0,-19.5 97,-19.5 97,-0.5 0,-0.5"/>
<text text-anchor="middle" x="48.5" y="-7.5" font-family="Helvetica,sans-Serif" font-size="10.00">TSYS01::_convert</text>
</g>
<!-- Node2 -->
<g id="node2" class="node"><title>Node2</title>
<g id="a_node2"><a xlink:href="classTSYS01.html#ac9b0b19764521622f799eb098956463f" target="_top" xlink:title="TSYS01::_timer">
<polygon fill="white" stroke="black" points="133,-19.5 133,-38.5 219,-38.5 219,-19.5 133,-19.5"/>
<text text-anchor="middle" x="176" y="-26.5" font-family="Helvetica,sans-Serif" font-size="10.00">TSYS01::_timer</text>
</a>
</g>
</g>
<!-- Node1&#45;&gt;Node2 -->
<g id="edge1" class="edge"><title>Node1&#45;&gt;Node2</title>
<path fill="none" stroke="midnightblue" d="M107.258,-18.7442C115.818,-20.0402 124.503,-21.355 132.67,-22.5915"/>
<polygon fill="midnightblue" stroke="midnightblue" points="107.715,-15.2737 97.3042,-17.2373 106.668,-22.1948 107.715,-15.2737"/>
</g>
<!-- Node3 -->
<g id="node3" class="node"><title>Node3</title>
<g id="a_node3"><a xlink:href="classTSYS01.html#aeeb9f8e45c008977d298085d2d12461e" target="_top" xlink:title="TSYS01::init">
<polygon fill="white" stroke="black" points="255,-0.5 255,-19.5 327,-19.5 327,-0.5 255,-0.5"/>
<text text-anchor="middle" x="291" y="-7.5" font-family="Helvetica,sans-Serif" font-size="10.00">TSYS01::init</text>
</a>
</g>
</g>
<!-- Node1&#45;&gt;Node3 -->
<g id="edge3" class="edge"><title>Node1&#45;&gt;Node3</title>
<path fill="none" stroke="midnightblue" d="M107.13,-10C153.065,-10 215.911,-10 254.685,-10"/>
<polygon fill="midnightblue" stroke="midnightblue" points="107.015,-6.5001 97.0151,-10 107.015,-13.5001 107.015,-6.5001"/>
</g>
<!-- Node2&#45;&gt;Node3 -->
<g id="edge2" class="edge"><title>Node2&#45;&gt;Node3</title>
<path fill="none" stroke="midnightblue" d="M229.194,-20.224C237.908,-18.7588 246.76,-17.2704 254.914,-15.8995"/>
<polygon fill="midnightblue" stroke="midnightblue" points="228.358,-16.8153 219.077,-21.9251 229.519,-23.7184 228.358,-16.8153"/>
</g>
</g>
</svg>
