<?xml version="1.0" encoding="UTF-8" standalone="no"?>
<!DOCTYPE svg PUBLIC "-//W3C//DTD SVG 1.1//EN"
 "http://www.w3.org/Graphics/SVG/1.1/DTD/svg11.dtd">
<!-- Generated by graphviz version 2.38.0 (20140413.2041)
 -->
<!-- Title: Compass::is_calibrating Pages: 1 -->
<svg width="2994pt" height="349pt"
 viewBox="0.00 0.00 2994.00 348.50" xmlns="http://www.w3.org/2000/svg" xmlns:xlink="http://www.w3.org/1999/xlink">
<g id="graph0" class="graph" transform="scale(1 1) rotate(0) translate(4 344.5)">
<title>Compass::is_calibrating</title>
<polygon fill="white" stroke="none" points="-4,4 -4,-344.5 2990,-344.5 2990,4 -4,4"/>
<!-- Node1 -->
<g id="node1" class="node"><title>Node1</title>
<polygon fill="#bfbfbf" stroke="black" points="0,-181 0,-200 122,-200 122,-181 0,-181"/>
<text text-anchor="middle" x="61" y="-188" font-family="Helvetica,sans-Serif" font-size="10.00">Compass::is_calibrating</text>
</g>
<!-- Node2 -->
<g id="node2" class="node"><title>Node2</title>
<g id="a_node2"><a xlink:href="classCompass.html#a659da6997da12f2a27ffd5eb45fedf8a" target="_top" xlink:title="Compass::_accept_calibration">
<polygon fill="white" stroke="black" points="158,-219 158,-238 307,-238 307,-219 158,-219"/>
<text text-anchor="middle" x="232.5" y="-226" font-family="Helvetica,sans-Serif" font-size="10.00">Compass::_accept_calibration</text>
</a>
</g>
</g>
<!-- Node1&#45;&gt;Node2 -->
<g id="edge1" class="edge"><title>Node1&#45;&gt;Node2</title>
<path fill="none" stroke="midnightblue" d="M114.742,-202.324C138.639,-207.682 166.515,-213.931 189.036,-218.98"/>
<polygon fill="midnightblue" stroke="midnightblue" points="115.295,-198.861 104.772,-200.089 113.764,-205.692 115.295,-198.861"/>
</g>
<!-- Node5 -->
<g id="node5" class="node"><title>Node5</title>
<g id="a_node5"><a xlink:href="classCompass.html#a702eb9d33ff1f5ada05b67f9b2219f9a" target="_top" xlink:title="Compass::_start_calibration">
<polygon fill="white" stroke="black" points="730,-217 730,-236 869,-236 869,-217 730,-217"/>
<text text-anchor="middle" x="799.5" y="-224" font-family="Helvetica,sans-Serif" font-size="10.00">Compass::_start_calibration</text>
</a>
</g>
</g>
<!-- Node1&#45;&gt;Node5 -->
<g id="edge63" class="edge"><title>Node1&#45;&gt;Node5</title>
<path fill="none" stroke="midnightblue" d="M132.258,-192.976C222.332,-196.249 383.332,-202.435 521,-209.5 592.221,-213.155 673.667,-218.254 729.812,-221.912"/>
<polygon fill="midnightblue" stroke="midnightblue" points="132.285,-189.474 122.165,-192.61 132.032,-196.47 132.285,-189.474"/>
</g>
<!-- Node8 -->
<g id="node8" class="node"><title>Node8</title>
<g id="a_node8"><a xlink:href="classCompass.html#a71d8ad1cb96263dfe4c0f712f14fac97" target="_top" xlink:title="Compass::compass_cal\l_requires_reboot">
<polygon fill="white" stroke="black" points="1421,-211.5 1421,-241.5 1543,-241.5 1543,-211.5 1421,-211.5"/>
<text text-anchor="start" x="1429" y="-229.5" font-family="Helvetica,sans-Serif" font-size="10.00">Compass::compass_cal</text>
<text text-anchor="middle" x="1482" y="-218.5" font-family="Helvetica,sans-Serif" font-size="10.00">_requires_reboot</text>
</a>
</g>
</g>
<!-- Node1&#45;&gt;Node8 -->
<g id="edge64" class="edge"><title>Node1&#45;&gt;Node8</title>
<path fill="none" stroke="midnightblue" d="M94.785,-177.198C158.459,-152.603 303.783,-102.5 431,-102.5 431,-102.5 431,-102.5 1168.5,-102.5 1259.34,-102.5 1297.45,-69.5971 1372,-121.5 1402.34,-142.626 1381.11,-171.119 1408,-196.5 1414.38,-202.52 1422.13,-207.405 1430.17,-211.346"/>
<polygon fill="midnightblue" stroke="midnightblue" points="93.3202,-174.013 85.2821,-180.915 95.87,-180.532 93.3202,-174.013"/>
</g>
<!-- Node9 -->
<g id="node9" class="node"><title>Node9</title>
<g id="a_node9"><a xlink:href="classAP__Arming.html#a24332b3f5e2e233914bce12e69ae9564" target="_top" xlink:title="AP_Arming::compass\l_checks">
<polygon fill="white" stroke="black" points="1609,-273.5 1609,-303.5 1721,-303.5 1721,-273.5 1609,-273.5"/>
<text text-anchor="start" x="1617" y="-291.5" font-family="Helvetica,sans-Serif" font-size="10.00">AP_Arming::compass</text>
<text text-anchor="middle" x="1665" y="-280.5" font-family="Helvetica,sans-Serif" font-size="10.00">_checks</text>
</a>
</g>
</g>
<!-- Node1&#45;&gt;Node9 -->
<g id="edge66" class="edge"><title>Node1&#45;&gt;Node9</title>
<path fill="none" stroke="midnightblue" d="M83.1542,-205.941C137.772,-244.234 289.178,-340.5 431,-340.5 431,-340.5 431,-340.5 1318,-340.5 1421.72,-340.5 1541.01,-317.366 1608.95,-301.959"/>
<polygon fill="midnightblue" stroke="midnightblue" points="85.1296,-203.051 74.9508,-200.111 81.0747,-208.757 85.1296,-203.051"/>
</g>
<!-- Node43 -->
<g id="node43" class="node"><title>Node43</title>
<g id="a_node43"><a xlink:href="classCompass.html#ab8b1d18b185660a957d2faf417e9b1dd" target="_top" xlink:title="Compass::compass_cal\l_update">
<polygon fill="white" stroke="black" points="371,-131.5 371,-161.5 493,-161.5 493,-131.5 371,-131.5"/>
<text text-anchor="start" x="379" y="-149.5" font-family="Helvetica,sans-Serif" font-size="10.00">Compass::compass_cal</text>
<text text-anchor="middle" x="432" y="-138.5" font-family="Helvetica,sans-Serif" font-size="10.00">_update</text>
</a>
</g>
</g>
<!-- Node1&#45;&gt;Node43 -->
<g id="edge65" class="edge"><title>Node1&#45;&gt;Node43</title>
<path fill="none" stroke="midnightblue" d="M132.241,-179.964C140.91,-178.75 149.654,-177.567 158,-176.5 231.073,-167.16 315.38,-158.167 370.745,-152.503"/>
<polygon fill="midnightblue" stroke="midnightblue" points="131.537,-176.529 122.127,-181.398 132.52,-183.46 131.537,-176.529"/>
</g>
<!-- Node3 -->
<g id="node3" class="node"><title>Node3</title>
<g id="a_node3"><a xlink:href="classCompass.html#a063eabf244187b5d60bb4674f09bce8e" target="_top" xlink:title="Compass::_accept_calibration_mask">
<polygon fill="white" stroke="black" points="343,-219 343,-238 521,-238 521,-219 343,-219"/>
<text text-anchor="middle" x="432" y="-226" font-family="Helvetica,sans-Serif" font-size="10.00">Compass::_accept_calibration_mask</text>
</a>
</g>
</g>
<!-- Node2&#45;&gt;Node3 -->
<g id="edge2" class="edge"><title>Node2&#45;&gt;Node3</title>
<path fill="none" stroke="midnightblue" d="M317.231,-228.5C325.659,-228.5 334.237,-228.5 342.711,-228.5"/>
<polygon fill="midnightblue" stroke="midnightblue" points="317.042,-225 307.042,-228.5 317.042,-232 317.042,-225"/>
</g>
<!-- Node4 -->
<g id="node4" class="node"><title>Node4</title>
<g id="a_node4"><a xlink:href="classCompass.html#aff3220e1a557a75480e4c2dbbde72973" target="_top" xlink:title="Compass::get_offsets_max">
<polygon fill="white" stroke="black" points="557,-255 557,-274 694,-274 694,-255 557,-255"/>
<text text-anchor="middle" x="625.5" y="-262" font-family="Helvetica,sans-Serif" font-size="10.00">Compass::get_offsets_max</text>
</a>
</g>
</g>
<!-- Node2&#45;&gt;Node4 -->
<g id="edge62" class="edge"><title>Node2&#45;&gt;Node4</title>
<path fill="none" stroke="midnightblue" d="M291.648,-239.831C308.188,-242.715 326.256,-245.548 343,-247.5 415.825,-255.99 499.774,-260.365 556.914,-262.533"/>
<polygon fill="midnightblue" stroke="midnightblue" points="292.033,-236.344 281.574,-238.035 290.804,-243.235 292.033,-236.344"/>
</g>
<!-- Node2&#45;&gt;Node43 -->
<g id="edge60" class="edge"><title>Node2&#45;&gt;Node43</title>
<path fill="none" stroke="midnightblue" d="M265.933,-215.034C301.335,-200.336 357.878,-176.859 394.727,-161.56"/>
<polygon fill="midnightblue" stroke="midnightblue" points="264.436,-211.866 256.542,-218.933 267.12,-218.331 264.436,-211.866"/>
</g>
<!-- Node3&#45;&gt;Node4 -->
<g id="edge3" class="edge"><title>Node3&#45;&gt;Node4</title>
<path fill="none" stroke="midnightblue" d="M493.594,-239.891C519.355,-244.734 549.058,-250.318 573.651,-254.941"/>
<polygon fill="midnightblue" stroke="midnightblue" points="494.039,-236.414 483.565,-238.006 492.746,-243.293 494.039,-236.414"/>
</g>
<!-- Node7 -->
<g id="node7" class="node"><title>Node7</title>
<g id="a_node7"><a xlink:href="classCompass.html#a5b92dfeb8382c411fc5cdfe2c35569b0" target="_top" xlink:title="Compass::handle_mag\l_cal_command">
<polygon fill="white" stroke="black" points="1109,-211.5 1109,-241.5 1226,-241.5 1226,-211.5 1109,-211.5"/>
<text text-anchor="start" x="1117" y="-229.5" font-family="Helvetica,sans-Serif" font-size="10.00">Compass::handle_mag</text>
<text text-anchor="middle" x="1167.5" y="-218.5" font-family="Helvetica,sans-Serif" font-size="10.00">_cal_command</text>
</a>
</g>
</g>
<!-- Node3&#45;&gt;Node7 -->
<g id="edge59" class="edge"><title>Node3&#45;&gt;Node7</title>
<path fill="none" stroke="midnightblue" d="M524.037,-217.93C648.376,-205.222 878.131,-187.901 1073,-207.5 1084.7,-208.677 1097.1,-210.662 1108.92,-212.918"/>
<polygon fill="midnightblue" stroke="midnightblue" points="523.39,-214.479 513.804,-218.99 524.112,-221.441 523.39,-214.479"/>
</g>
<!-- Node4&#45;&gt;Node5 -->
<g id="edge4" class="edge"><title>Node4&#45;&gt;Node5</title>
<path fill="none" stroke="midnightblue" d="M658.454,-252.052C678.462,-246.454 705.033,-240.17 729.65,-235.082"/>
<polygon fill="midnightblue" stroke="midnightblue" points="657.259,-248.755 648.634,-254.908 659.213,-255.476 657.259,-248.755"/>
</g>
<!-- Node4&#45;&gt;Node9 -->
<g id="edge58" class="edge"><title>Node4&#45;&gt;Node9</title>
<path fill="none" stroke="midnightblue" d="M692.675,-275.66C764.998,-286.871 884.395,-302.5 988,-302.5 988,-302.5 988,-302.5 1318,-302.5 1420.8,-302.5 1540.65,-296.253 1608.9,-292.105"/>
<polygon fill="midnightblue" stroke="midnightblue" points="692.775,-272.133 682.354,-274.04 691.69,-279.048 692.775,-272.133"/>
</g>
<!-- Node5&#45;&gt;Node4 -->
<g id="edge12" class="edge"><title>Node5&#45;&gt;Node4</title>
<path fill="none" stroke="midnightblue" d="M766.649,-238.919C746.393,-244.591 719.381,-250.97 694.479,-256.098"/>
<polygon fill="midnightblue" stroke="midnightblue" points="767.67,-242.267 776.295,-236.114 765.715,-235.546 767.67,-242.267"/>
</g>
<!-- Node6 -->
<g id="node6" class="node"><title>Node6</title>
<g id="a_node6"><a xlink:href="classCompass.html#afdd4d0c78f52388a68dfc07deeec11a6" target="_top" xlink:title="Compass::_start_calibration_mask">
<polygon fill="white" stroke="black" points="905,-255 905,-274 1073,-274 1073,-255 905,-255"/>
<text text-anchor="middle" x="989" y="-262" font-family="Helvetica,sans-Serif" font-size="10.00">Compass::_start_calibration_mask</text>
</a>
</g>
</g>
<!-- Node5&#45;&gt;Node6 -->
<g id="edge5" class="edge"><title>Node5&#45;&gt;Node6</title>
<path fill="none" stroke="midnightblue" d="M857.784,-238.11C884.451,-243.514 915.781,-249.864 941.026,-254.98"/>
<polygon fill="midnightblue" stroke="midnightblue" points="858.31,-234.645 847.814,-236.089 856.92,-241.506 858.31,-234.645"/>
</g>
<!-- Node12 -->
<g id="node12" class="node"><title>Node12</title>
<g id="a_node12"><a xlink:href="classCompass.html#a785cd621a6ecd49077881299ff1edba7" target="_top" xlink:title="Compass::start_calibration_all">
<polygon fill="white" stroke="black" points="914.5,-217 914.5,-236 1063.5,-236 1063.5,-217 914.5,-217"/>
<text text-anchor="middle" x="989" y="-224" font-family="Helvetica,sans-Serif" font-size="10.00">Compass::start_calibration_all</text>
</a>
</g>
</g>
<!-- Node5&#45;&gt;Node12 -->
<g id="edge13" class="edge"><title>Node5&#45;&gt;Node12</title>
<path fill="none" stroke="midnightblue" d="M879.315,-226.5C890.877,-226.5 902.75,-226.5 914.206,-226.5"/>
<polygon fill="midnightblue" stroke="midnightblue" points="879.253,-223 869.253,-226.5 879.253,-230 879.253,-223"/>
</g>
<!-- Node6&#45;&gt;Node4 -->
<g id="edge6" class="edge"><title>Node6&#45;&gt;Node4</title>
<path fill="none" stroke="midnightblue" d="M894.583,-264.5C831.833,-264.5 750.597,-264.5 694.071,-264.5"/>
<polygon fill="midnightblue" stroke="midnightblue" points="894.884,-268 904.884,-264.5 894.884,-261 894.884,-268"/>
</g>
<!-- Node6&#45;&gt;Node7 -->
<g id="edge7" class="edge"><title>Node6&#45;&gt;Node7</title>
<path fill="none" stroke="midnightblue" d="M1044.34,-252.801C1064.82,-248.391 1088.18,-243.363 1108.94,-238.892"/>
<polygon fill="midnightblue" stroke="midnightblue" points="1043.58,-249.385 1034.54,-254.911 1045.05,-256.228 1043.58,-249.385"/>
</g>
<!-- Node7&#45;&gt;Node8 -->
<g id="edge8" class="edge"><title>Node7&#45;&gt;Node8</title>
<path fill="none" stroke="midnightblue" d="M1236.19,-226.5C1291.23,-226.5 1368.14,-226.5 1420.99,-226.5"/>
<polygon fill="midnightblue" stroke="midnightblue" points="1236.18,-223 1226.18,-226.5 1236.18,-230 1236.18,-223"/>
</g>
<!-- Node8&#45;&gt;Node9 -->
<g id="edge9" class="edge"><title>Node8&#45;&gt;Node9</title>
<path fill="none" stroke="midnightblue" d="M1536.36,-244.779C1562.97,-253.894 1594.76,-264.784 1619.96,-273.415"/>
<polygon fill="midnightblue" stroke="midnightblue" points="1537.41,-241.438 1526.82,-241.508 1535.14,-248.06 1537.41,-241.438"/>
</g>
<!-- Node10 -->
<g id="node10" class="node"><title>Node10</title>
<g id="a_node10"><a xlink:href="classAP__Arming.html#a73c03baf7f22b7124a2ac9e9286a850a" target="_top" xlink:title="AP_Arming::pre_arm\l_checks">
<polygon fill="white" stroke="black" points="1789,-273.5 1789,-303.5 1896,-303.5 1896,-273.5 1789,-273.5"/>
<text text-anchor="start" x="1797" y="-291.5" font-family="Helvetica,sans-Serif" font-size="10.00">AP_Arming::pre_arm</text>
<text text-anchor="middle" x="1842.5" y="-280.5" font-family="Helvetica,sans-Serif" font-size="10.00">_checks</text>
</a>
</g>
</g>
<!-- Node9&#45;&gt;Node10 -->
<g id="edge10" class="edge"><title>Node9&#45;&gt;Node10</title>
<path fill="none" stroke="midnightblue" d="M1731.12,-288.5C1750.11,-288.5 1770.62,-288.5 1788.75,-288.5"/>
<polygon fill="midnightblue" stroke="midnightblue" points="1731.05,-285 1721.05,-288.5 1731.05,-292 1731.05,-285"/>
</g>
<!-- Node11 -->
<g id="node11" class="node"><title>Node11</title>
<g id="a_node11"><a xlink:href="classAP__Arming.html#a47b859d9929a736df2f08a1cad03efcb" target="_top" xlink:title="AP_Arming::arm">
<polygon fill="white" stroke="black" points="1985,-279 1985,-298 2074,-298 2074,-279 1985,-279"/>
<text text-anchor="middle" x="2029.5" y="-286" font-family="Helvetica,sans-Serif" font-size="10.00">AP_Arming::arm</text>
</a>
</g>
</g>
<!-- Node10&#45;&gt;Node11 -->
<g id="edge11" class="edge"><title>Node10&#45;&gt;Node11</title>
<path fill="none" stroke="midnightblue" d="M1906.12,-288.5C1932.02,-288.5 1961.42,-288.5 1984.91,-288.5"/>
<polygon fill="midnightblue" stroke="midnightblue" points="1906.02,-285 1896.02,-288.5 1906.02,-292 1906.02,-285"/>
</g>
<!-- Node12&#45;&gt;Node7 -->
<g id="edge57" class="edge"><title>Node12&#45;&gt;Node7</title>
<path fill="none" stroke="midnightblue" d="M1073.93,-226.5C1085.77,-226.5 1097.71,-226.5 1108.91,-226.5"/>
<polygon fill="midnightblue" stroke="midnightblue" points="1073.57,-223 1063.57,-226.5 1073.57,-230 1073.57,-223"/>
</g>
<!-- Node13 -->
<g id="node13" class="node"><title>Node13</title>
<g id="a_node13"><a xlink:href="classCompass.html#a22ce936207eeda5d3fa55237271cef3e" target="_top" xlink:title="Compass::get_field">
<polygon fill="white" stroke="black" points="1117,-137 1117,-156 1218,-156 1218,-137 1117,-137"/>
<text text-anchor="middle" x="1167.5" y="-144" font-family="Helvetica,sans-Serif" font-size="10.00">Compass::get_field</text>
</a>
</g>
</g>
<!-- Node12&#45;&gt;Node13 -->
<g id="edge14" class="edge"><title>Node12&#45;&gt;Node13</title>
<path fill="none" stroke="midnightblue" d="M1020.73,-212.57C1056.45,-196.382 1114.43,-170.1 1145.41,-156.06"/>
<polygon fill="midnightblue" stroke="midnightblue" points="1018.95,-209.534 1011.29,-216.85 1021.84,-215.91 1018.95,-209.534"/>
</g>
<!-- Node13&#45;&gt;Node13 -->
<g id="edge56" class="edge"><title>Node13&#45;&gt;Node13</title>
<path fill="none" stroke="midnightblue" d="M1139.87,-165.154C1141.03,-170.437 1150.24,-174.5 1167.5,-174.5 1193.8,-174.5 1201.41,-165.065 1190.31,-156.257"/>
<polygon fill="midnightblue" stroke="midnightblue" points="1143.01,-166.718 1144.69,-156.257 1136.85,-163.386 1143.01,-166.718"/>
</g>
<!-- Node14 -->
<g id="node14" class="node"><title>Node14</title>
<g id="a_node14"><a xlink:href="classCompass.html#a518ff958770a39bc265f93d22e071212" target="_top" xlink:title="Compass::calculate\l_heading">
<polygon fill="white" stroke="black" points="1265,-131.5 1265,-161.5 1369,-161.5 1369,-131.5 1265,-131.5"/>
<text text-anchor="start" x="1273" y="-149.5" font-family="Helvetica,sans-Serif" font-size="10.00">Compass::calculate</text>
<text text-anchor="middle" x="1317" y="-138.5" font-family="Helvetica,sans-Serif" font-size="10.00">_heading</text>
</a>
</g>
</g>
<!-- Node13&#45;&gt;Node14 -->
<g id="edge15" class="edge"><title>Node13&#45;&gt;Node14</title>
<path fill="none" stroke="midnightblue" d="M1228.1,-146.5C1240.28,-146.5 1252.99,-146.5 1264.84,-146.5"/>
<polygon fill="midnightblue" stroke="midnightblue" points="1228.03,-143 1218.03,-146.5 1228.03,-150 1228.03,-143"/>
</g>
<!-- Node15 -->
<g id="node15" class="node"><title>Node15</title>
<g id="a_node15"><a xlink:href="classCompass.html#a59f46d32a935d4faecc4a28d262c4388" target="_top" xlink:title="Compass::consistent">
<polygon fill="white" stroke="black" points="1262,-55 1262,-74 1372,-74 1372,-55 1262,-55"/>
<text text-anchor="middle" x="1317" y="-62" font-family="Helvetica,sans-Serif" font-size="10.00">Compass::consistent</text>
</a>
</g>
</g>
<!-- Node13&#45;&gt;Node15 -->
<g id="edge16" class="edge"><title>Node13&#45;&gt;Node15</title>
<path fill="none" stroke="midnightblue" d="M1194.78,-131.888C1224.88,-115.155 1273.32,-88.2273 1298.9,-74.006"/>
<polygon fill="midnightblue" stroke="midnightblue" points="1192.75,-129.015 1185.71,-136.933 1196.15,-135.133 1192.75,-129.015"/>
</g>
<!-- Node15&#45;&gt;Node8 -->
<g id="edge17" class="edge"><title>Node15&#45;&gt;Node8</title>
<path fill="none" stroke="midnightblue" d="M1359.94,-78.7386C1364.4,-81.4763 1368.55,-84.7045 1372,-88.5 1406.01,-125.961 1373.46,-159.525 1408,-196.5 1413.71,-202.608 1420.84,-207.509 1428.39,-211.43"/>
<polygon fill="midnightblue" stroke="midnightblue" points="1361.57,-75.6422 1351.09,-74.058 1358.29,-81.8292 1361.57,-75.6422"/>
</g>
<!-- Node15&#45;&gt;Node9 -->
<g id="edge18" class="edge"><title>Node15&#45;&gt;Node9</title>
<path fill="none" stroke="midnightblue" d="M1358.45,-78.5768C1363.37,-81.3718 1368.04,-84.6583 1372,-88.5 1398.53,-114.259 1379.42,-140.041 1408,-163.5 1460.49,-206.587 1500.27,-162.691 1556,-201.5 1579.07,-217.563 1570.66,-235.202 1592,-253.5 1601.28,-261.462 1612.69,-268.086 1623.67,-273.351"/>
<polygon fill="midnightblue" stroke="midnightblue" points="1359.95,-75.4119 1349.44,-74.0626 1356.81,-81.6706 1359.95,-75.4119"/>
</g>
<!-- Node16 -->
<g id="node16" class="node"><title>Node16</title>
<g id="a_node16"><a xlink:href="classNavEKF2__core.html#abf6ac301297f486d9690d97c7a19dad8" target="_top" xlink:title="NavEKF2_core::readMagData">
<polygon fill="white" stroke="black" points="1408,-135 1408,-154 1556,-154 1556,-135 1408,-135"/>
<text text-anchor="middle" x="1482" y="-142" font-family="Helvetica,sans-Serif" font-size="10.00">NavEKF2_core::readMagData</text>
</a>
</g>
</g>
<!-- Node15&#45;&gt;Node16 -->
<g id="edge19" class="edge"><title>Node15&#45;&gt;Node16</title>
<path fill="none" stroke="midnightblue" d="M1349.83,-78.2901C1357.15,-81.5594 1364.87,-85.0895 1372,-88.5 1404.43,-104.023 1441.55,-123.456 1463.03,-134.871"/>
<polygon fill="midnightblue" stroke="midnightblue" points="1350.76,-74.8734 1340.2,-74.0295 1347.93,-81.2752 1350.76,-74.8734"/>
</g>
<!-- Node33 -->
<g id="node33" class="node"><title>Node33</title>
<g id="a_node33"><a xlink:href="classNavEKF3__core.html#a39fe9f76e9c368cba51e9af9b2367513" target="_top" xlink:title="NavEKF3_core::readMagData">
<polygon fill="white" stroke="black" points="1408,-52 1408,-71 1556,-71 1556,-52 1408,-52"/>
<text text-anchor="middle" x="1482" y="-59" font-family="Helvetica,sans-Serif" font-size="10.00">NavEKF3_core::readMagData</text>
</a>
</g>
</g>
<!-- Node15&#45;&gt;Node33 -->
<g id="edge39" class="edge"><title>Node15&#45;&gt;Node33</title>
<path fill="none" stroke="midnightblue" d="M1382.33,-63.316C1390.7,-63.162 1399.32,-63.0034 1407.81,-62.847"/>
<polygon fill="midnightblue" stroke="midnightblue" points="1382.21,-59.8175 1372.28,-63.501 1382.34,-66.8163 1382.21,-59.8175"/>
</g>
<!-- Node17 -->
<g id="node17" class="node"><title>Node17</title>
<g id="a_node17"><a xlink:href="classNavEKF2__core.html#a4a06ae47c3edebdecd2b179a0567f00b" target="_top" xlink:title="NavEKF2_core::Initialise\lFilterBootstrap">
<polygon fill="white" stroke="black" points="1780,-126.5 1780,-156.5 1905,-156.5 1905,-126.5 1780,-126.5"/>
<text text-anchor="start" x="1788" y="-144.5" font-family="Helvetica,sans-Serif" font-size="10.00">NavEKF2_core::Initialise</text>
<text text-anchor="middle" x="1842.5" y="-133.5" font-family="Helvetica,sans-Serif" font-size="10.00">FilterBootstrap</text>
</a>
</g>
</g>
<!-- Node16&#45;&gt;Node17 -->
<g id="edge20" class="edge"><title>Node16&#45;&gt;Node17</title>
<path fill="none" stroke="midnightblue" d="M1566.67,-143.8C1631.89,-143.254 1720.98,-142.509 1779.82,-142.016"/>
<polygon fill="midnightblue" stroke="midnightblue" points="1566.38,-140.302 1556.41,-143.886 1566.44,-147.302 1566.38,-140.302"/>
</g>
<!-- Node28 -->
<g id="node28" class="node"><title>Node28</title>
<g id="a_node28"><a xlink:href="classNavEKF2__core.html#af6d172634e15ba1643bf4c53c390f5e2" target="_top" xlink:title="NavEKF2_core::calcQuatAnd\lFieldStates">
<polygon fill="white" stroke="black" points="1592,-214.5 1592,-244.5 1738,-244.5 1738,-214.5 1592,-214.5"/>
<text text-anchor="start" x="1600" y="-232.5" font-family="Helvetica,sans-Serif" font-size="10.00">NavEKF2_core::calcQuatAnd</text>
<text text-anchor="middle" x="1665" y="-221.5" font-family="Helvetica,sans-Serif" font-size="10.00">FieldStates</text>
</a>
</g>
</g>
<!-- Node16&#45;&gt;Node28 -->
<g id="edge31" class="edge"><title>Node16&#45;&gt;Node28</title>
<path fill="none" stroke="midnightblue" d="M1531.23,-157.363C1539.74,-160.463 1548.32,-164.161 1556,-168.5 1574.38,-178.886 1574.03,-188.412 1592,-199.5 1601.1,-205.118 1611.45,-210.125 1621.39,-214.364"/>
<polygon fill="midnightblue" stroke="midnightblue" points="1532.31,-154.032 1521.71,-154.116 1530.05,-160.657 1532.31,-154.032"/>
</g>
<!-- Node30 -->
<g id="node30" class="node"><title>Node30</title>
<g id="a_node30"><a xlink:href="classNavEKF2__core.html#aa0f6cd840e93e0233f056c88ce45ef85" target="_top" xlink:title="NavEKF2_core::SelectMagFusion">
<polygon fill="white" stroke="black" points="1947,-192 1947,-211 2112,-211 2112,-192 1947,-192"/>
<text text-anchor="middle" x="2029.5" y="-199" font-family="Helvetica,sans-Serif" font-size="10.00">NavEKF2_core::SelectMagFusion</text>
</a>
</g>
</g>
<!-- Node16&#45;&gt;Node30 -->
<g id="edge38" class="edge"><title>Node16&#45;&gt;Node30</title>
<path fill="none" stroke="midnightblue" d="M1566.39,-154.604C1575.04,-155.604 1583.69,-156.586 1592,-157.5 1715.59,-171.098 1859.06,-185.246 1946.8,-193.713"/>
<polygon fill="midnightblue" stroke="midnightblue" points="1566.61,-151.105 1556.27,-153.424 1565.8,-158.058 1566.61,-151.105"/>
</g>
<!-- Node18 -->
<g id="node18" class="node"><title>Node18</title>
<g id="a_node18"><a xlink:href="classNavEKF2.html#a9c447b8d84abf2dfc845ddbbbad46a2b" target="_top" xlink:title="NavEKF2::InitialiseFilter">
<polygon fill="white" stroke="black" points="2327,-132 2327,-151 2450,-151 2450,-132 2327,-132"/>
<text text-anchor="middle" x="2388.5" y="-139" font-family="Helvetica,sans-Serif" font-size="10.00">NavEKF2::InitialiseFilter</text>
</a>
</g>
</g>
<!-- Node17&#45;&gt;Node18 -->
<g id="edge21" class="edge"><title>Node17&#45;&gt;Node18</title>
<path fill="none" stroke="midnightblue" d="M1915.26,-141.5C2023.29,-141.5 2225.78,-141.5 2326.86,-141.5"/>
<polygon fill="midnightblue" stroke="midnightblue" points="1915.11,-138 1905.11,-141.5 1915.11,-145 1915.11,-138"/>
</g>
<!-- Node19 -->
<g id="node19" class="node"><title>Node19</title>
<g id="a_node19"><a xlink:href="classAP__AHRS__NavEKF.html#a0187c6d3d4348b002a204c05d3e94b07" target="_top" xlink:title="AP_AHRS_NavEKF::update_EKF2">
<polygon fill="white" stroke="black" points="2486,-170 2486,-189 2658,-189 2658,-170 2486,-170"/>
<text text-anchor="middle" x="2572" y="-177" font-family="Helvetica,sans-Serif" font-size="10.00">AP_AHRS_NavEKF::update_EKF2</text>
</a>
</g>
</g>
<!-- Node18&#45;&gt;Node19 -->
<g id="edge22" class="edge"><title>Node18&#45;&gt;Node19</title>
<path fill="none" stroke="midnightblue" d="M2445.29,-153.181C2471.03,-158.57 2501.2,-164.886 2525.53,-169.98"/>
<polygon fill="midnightblue" stroke="midnightblue" points="2445.81,-149.713 2435.3,-151.089 2444.37,-156.564 2445.81,-149.713"/>
</g>
<!-- Node22 -->
<g id="node22" class="node"><title>Node22</title>
<g id="a_node22"><a xlink:href="classAP__AHRS__NavEKF.html#a532ff0df024a4537e5a108c42ba405a7" target="_top" xlink:title="AP_AHRS_NavEKF::reset">
<polygon fill="white" stroke="black" points="2505,-132 2505,-151 2639,-151 2639,-132 2505,-132"/>
<text text-anchor="middle" x="2572" y="-139" font-family="Helvetica,sans-Serif" font-size="10.00">AP_AHRS_NavEKF::reset</text>
</a>
</g>
</g>
<!-- Node18&#45;&gt;Node22 -->
<g id="edge25" class="edge"><title>Node18&#45;&gt;Node22</title>
<path fill="none" stroke="midnightblue" d="M2460.2,-141.5C2474.86,-141.5 2490.26,-141.5 2504.75,-141.5"/>
<polygon fill="midnightblue" stroke="midnightblue" points="2460.19,-138 2450.19,-141.5 2460.19,-145 2460.19,-138"/>
</g>
<!-- Node23 -->
<g id="node23" class="node"><title>Node23</title>
<g id="a_node23"><a xlink:href="classAP__AHRS__NavEKF.html#a9bd3c7f1793a48cd0d736b19fbfaf19a" target="_top" xlink:title="AP_AHRS_NavEKF::reset\l_attitude">
<polygon fill="white" stroke="black" points="2505,-82.5 2505,-112.5 2639,-112.5 2639,-82.5 2505,-82.5"/>
<text text-anchor="start" x="2513" y="-100.5" font-family="Helvetica,sans-Serif" font-size="10.00">AP_AHRS_NavEKF::reset</text>
<text text-anchor="middle" x="2572" y="-89.5" font-family="Helvetica,sans-Serif" font-size="10.00">_attitude</text>
</a>
</g>
</g>
<!-- Node18&#45;&gt;Node23 -->
<g id="edge26" class="edge"><title>Node18&#45;&gt;Node23</title>
<path fill="none" stroke="midnightblue" d="M2438.81,-129.545C2460.41,-124.311 2485.98,-118.111 2508.86,-112.565"/>
<polygon fill="midnightblue" stroke="midnightblue" points="2437.78,-126.195 2428.88,-131.953 2439.43,-132.998 2437.78,-126.195"/>
</g>
<!-- Node24 -->
<g id="node24" class="node"><title>Node24</title>
<g id="a_node24"><a xlink:href="classNavEKF2.html#ab18af2714c15fcf190493c01e2a28c73" target="_top" xlink:title="NavEKF2::activeCores">
<polygon fill="white" stroke="black" points="2513,-208 2513,-227 2631,-227 2631,-208 2513,-208"/>
<text text-anchor="middle" x="2572" y="-215" font-family="Helvetica,sans-Serif" font-size="10.00">NavEKF2::activeCores</text>
</a>
</g>
</g>
<!-- Node18&#45;&gt;Node24 -->
<g id="edge27" class="edge"><title>Node18&#45;&gt;Node24</title>
<path fill="none" stroke="midnightblue" d="M2411,-156.882C2429.92,-169.743 2458.63,-187.673 2486,-198.5 2495.56,-202.283 2506.04,-205.396 2516.28,-207.93"/>
<polygon fill="midnightblue" stroke="midnightblue" points="2412.77,-153.846 2402.55,-151.029 2408.78,-159.6 2412.77,-153.846"/>
</g>
<!-- Node20 -->
<g id="node20" class="node"><title>Node20</title>
<g id="a_node20"><a xlink:href="classAP__AHRS__NavEKF.html#ac8111979c5dc37a55b2c50818534ea52" target="_top" xlink:title="AP_AHRS_NavEKF::update">
<polygon fill="white" stroke="black" points="2695,-110 2695,-129 2837,-129 2837,-110 2695,-110"/>
<text text-anchor="middle" x="2766" y="-117" font-family="Helvetica,sans-Serif" font-size="10.00">AP_AHRS_NavEKF::update</text>
</a>
</g>
</g>
<!-- Node19&#45;&gt;Node20 -->
<g id="edge23" class="edge"><title>Node19&#45;&gt;Node20</title>
<path fill="none" stroke="midnightblue" d="M2631.43,-167.623C2640.39,-165.462 2649.48,-163.07 2658,-160.5 2687.9,-151.482 2721.37,-138.104 2742.79,-129.106"/>
<polygon fill="midnightblue" stroke="midnightblue" points="2630.36,-164.278 2621.42,-169.961 2631.95,-171.095 2630.36,-164.278"/>
</g>
<!-- Node21 -->
<g id="node21" class="node"><title>Node21</title>
<g id="a_node21"><a xlink:href="AHRS__Test_8cpp.html#a0b33edabd7f1c4e4a0bf32c67269be2f" target="_top" xlink:title="loop">
<polygon fill="white" stroke="black" points="2912.5,-110 2912.5,-129 2947.5,-129 2947.5,-110 2912.5,-110"/>
<text text-anchor="middle" x="2930" y="-117" font-family="Helvetica,sans-Serif" font-size="10.00">loop</text>
</a>
</g>
</g>
<!-- Node20&#45;&gt;Node21 -->
<g id="edge24" class="edge"><title>Node20&#45;&gt;Node21</title>
<path fill="none" stroke="midnightblue" d="M2847.29,-119.5C2871.99,-119.5 2896.78,-119.5 2912.47,-119.5"/>
<polygon fill="midnightblue" stroke="midnightblue" points="2847.11,-116 2837.11,-119.5 2847.11,-123 2847.11,-116"/>
</g>
<!-- Node25 -->
<g id="node25" class="node"><title>Node25</title>
<g id="a_node25"><a xlink:href="classDataFlash__Class.html#a46e58faaa53c44516433f6bb7bde4163" target="_top" xlink:title="DataFlash_Class::Log\l_Write_POS">
<polygon fill="white" stroke="black" points="2709,-30.5 2709,-60.5 2823,-60.5 2823,-30.5 2709,-30.5"/>
<text text-anchor="start" x="2717" y="-48.5" font-family="Helvetica,sans-Serif" font-size="10.00">DataFlash_Class::Log</text>
<text text-anchor="middle" x="2766" y="-37.5" font-family="Helvetica,sans-Serif" font-size="10.00">_Write_POS</text>
</a>
</g>
</g>
<!-- Node24&#45;&gt;Node25 -->
<g id="edge28" class="edge"><title>Node24&#45;&gt;Node25</title>
<path fill="none" stroke="midnightblue" d="M2640.61,-209.195C2646.93,-206.48 2652.88,-202.985 2658,-198.5 2692.91,-167.927 2666.59,-137.942 2694,-100.5 2705.88,-84.2697 2723.82,-70.4308 2738.69,-60.6944"/>
<polygon fill="midnightblue" stroke="midnightblue" points="2639.32,-205.936 2631.12,-212.638 2641.71,-212.516 2639.32,-205.936"/>
</g>
<!-- Node27 -->
<g id="node27" class="node"><title>Node27</title>
<g id="a_node27"><a xlink:href="classGCS__MAVLINK.html#a558ba3447048b78cb9dde460053e2741" target="_top" xlink:title="GCS_MAVLINK::send_ahrs2">
<polygon fill="white" stroke="black" points="2694,-208 2694,-227 2838,-227 2838,-208 2694,-208"/>
<text text-anchor="middle" x="2766" y="-215" font-family="Helvetica,sans-Serif" font-size="10.00">GCS_MAVLINK::send_ahrs2</text>
</a>
</g>
</g>
<!-- Node24&#45;&gt;Node27 -->
<g id="edge30" class="edge"><title>Node24&#45;&gt;Node27</title>
<path fill="none" stroke="midnightblue" d="M2641.52,-217.5C2658.5,-217.5 2676.74,-217.5 2693.85,-217.5"/>
<polygon fill="midnightblue" stroke="midnightblue" points="2641.13,-214 2631.13,-217.5 2641.13,-221 2641.13,-214"/>
</g>
<!-- Node26 -->
<g id="node26" class="node"><title>Node26</title>
<g id="a_node26"><a xlink:href="classDataFlash__Class.html#a7868f0e3dcef65ea5b5fcae618f4c5d4" target="_top" xlink:title="DataFlash_Class::get\l_structures">
<polygon fill="white" stroke="black" points="2874,-30.5 2874,-60.5 2986,-60.5 2986,-30.5 2874,-30.5"/>
<text text-anchor="start" x="2882" y="-48.5" font-family="Helvetica,sans-Serif" font-size="10.00">DataFlash_Class::get</text>
<text text-anchor="middle" x="2930" y="-37.5" font-family="Helvetica,sans-Serif" font-size="10.00">_structures</text>
</a>
</g>
</g>
<!-- Node25&#45;&gt;Node26 -->
<g id="edge29" class="edge"><title>Node25&#45;&gt;Node26</title>
<path fill="none" stroke="midnightblue" d="M2833.39,-45.5C2846.89,-45.5 2860.94,-45.5 2873.99,-45.5"/>
<polygon fill="midnightblue" stroke="midnightblue" points="2833.21,-42.0001 2823.21,-45.5 2833.21,-49.0001 2833.21,-42.0001"/>
</g>
<!-- Node29 -->
<g id="node29" class="node"><title>Node29</title>
<g id="a_node29"><a xlink:href="classNavEKF2__core.html#a3989e564224adfa26b0e32a5a03aca10" target="_top" xlink:title="NavEKF2_core::controlMag\lYawReset">
<polygon fill="white" stroke="black" points="1774,-214.5 1774,-244.5 1911,-244.5 1911,-214.5 1774,-214.5"/>
<text text-anchor="start" x="1782" y="-232.5" font-family="Helvetica,sans-Serif" font-size="10.00">NavEKF2_core::controlMag</text>
<text text-anchor="middle" x="1842.5" y="-221.5" font-family="Helvetica,sans-Serif" font-size="10.00">YawReset</text>
</a>
</g>
</g>
<!-- Node28&#45;&gt;Node29 -->
<g id="edge32" class="edge"><title>Node28&#45;&gt;Node29</title>
<path fill="none" stroke="midnightblue" d="M1748.19,-229.5C1756.79,-229.5 1765.46,-229.5 1773.87,-229.5"/>
<polygon fill="midnightblue" stroke="midnightblue" points="1748.14,-226 1738.14,-229.5 1748.14,-233 1748.14,-226"/>
</g>
<!-- Node29&#45;&gt;Node30 -->
<g id="edge33" class="edge"><title>Node29&#45;&gt;Node30</title>
<path fill="none" stroke="midnightblue" d="M1921.24,-217.734C1936.07,-215.489 1951.43,-213.165 1965.72,-211.002"/>
<polygon fill="midnightblue" stroke="midnightblue" points="1920.44,-214.315 1911.07,-219.273 1921.49,-221.237 1920.44,-214.315"/>
</g>
<!-- Node31 -->
<g id="node31" class="node"><title>Node31</title>
<g id="a_node31"><a xlink:href="classNavEKF2__core.html#a5f5c815cbd5ebba30d731f89f87726c3" target="_top" xlink:title="NavEKF2_core::UpdateFilter">
<polygon fill="white" stroke="black" points="2148,-192 2148,-211 2291,-211 2291,-192 2148,-192"/>
<text text-anchor="middle" x="2219.5" y="-199" font-family="Helvetica,sans-Serif" font-size="10.00">NavEKF2_core::UpdateFilter</text>
</a>
</g>
</g>
<!-- Node30&#45;&gt;Node31 -->
<g id="edge34" class="edge"><title>Node30&#45;&gt;Node31</title>
<path fill="none" stroke="midnightblue" d="M2122.22,-201.5C2130.83,-201.5 2139.47,-201.5 2147.84,-201.5"/>
<polygon fill="midnightblue" stroke="midnightblue" points="2122.14,-198 2112.14,-201.5 2122.14,-205 2122.14,-198"/>
</g>
<!-- Node32 -->
<g id="node32" class="node"><title>Node32</title>
<g id="a_node32"><a xlink:href="classNavEKF2.html#a72815b1bbd9d7ceb0ff7ae52d14516df" target="_top" xlink:title="NavEKF2::UpdateFilter">
<polygon fill="white" stroke="black" points="2329,-192 2329,-211 2448,-211 2448,-192 2329,-192"/>
<text text-anchor="middle" x="2388.5" y="-199" font-family="Helvetica,sans-Serif" font-size="10.00">NavEKF2::UpdateFilter</text>
</a>
</g>
</g>
<!-- Node31&#45;&gt;Node32 -->
<g id="edge35" class="edge"><title>Node31&#45;&gt;Node32</title>
<path fill="none" stroke="midnightblue" d="M2301.37,-201.5C2310.67,-201.5 2320.01,-201.5 2328.93,-201.5"/>
<polygon fill="midnightblue" stroke="midnightblue" points="2301.32,-198 2291.32,-201.5 2301.32,-205 2301.32,-198"/>
</g>
<!-- Node32&#45;&gt;Node19 -->
<g id="edge36" class="edge"><title>Node32&#45;&gt;Node19</title>
<path fill="none" stroke="midnightblue" d="M2458.26,-193.166C2469.4,-191.816 2481.01,-190.408 2492.36,-189.032"/>
<polygon fill="midnightblue" stroke="midnightblue" points="2457.68,-189.71 2448.18,-194.388 2458.53,-196.659 2457.68,-189.71"/>
</g>
<!-- Node32&#45;&gt;Node24 -->
<g id="edge37" class="edge"><title>Node32&#45;&gt;Node24</title>
<path fill="none" stroke="midnightblue" d="M2458.31,-207.565C2476.28,-209.15 2495.47,-210.842 2512.84,-212.373"/>
<polygon fill="midnightblue" stroke="midnightblue" points="2458.45,-204.064 2448.18,-206.673 2457.83,-211.037 2458.45,-204.064"/>
</g>
<!-- Node34 -->
<g id="node34" class="node"><title>Node34</title>
<g id="a_node34"><a xlink:href="classNavEKF3__core.html#aae18ada44b1b7be0d45af03391ef961a" target="_top" xlink:title="NavEKF3_core::Initialise\lFilterBootstrap">
<polygon fill="white" stroke="black" points="2157,-82.5 2157,-112.5 2282,-112.5 2282,-82.5 2157,-82.5"/>
<text text-anchor="start" x="2165" y="-100.5" font-family="Helvetica,sans-Serif" font-size="10.00">NavEKF3_core::Initialise</text>
<text text-anchor="middle" x="2219.5" y="-89.5" font-family="Helvetica,sans-Serif" font-size="10.00">FilterBootstrap</text>
</a>
</g>
</g>
<!-- Node33&#45;&gt;Node34 -->
<g id="edge40" class="edge"><title>Node33&#45;&gt;Node34</title>
<path fill="none" stroke="midnightblue" d="M1566.24,-65.5741C1715.42,-72.8761 2025.04,-88.031 2156.89,-94.4845"/>
<polygon fill="midnightblue" stroke="midnightblue" points="1566.37,-62.0766 1556.21,-65.0834 1566.03,-69.0682 1566.37,-62.0766"/>
</g>
<!-- Node38 -->
<g id="node38" class="node"><title>Node38</title>
<g id="a_node38"><a xlink:href="classNavEKF3__core.html#a93a3f4411a8dc4df4819e13856d037d5" target="_top" xlink:title="NavEKF3_core::calcQuatAnd\lFieldStates">
<polygon fill="white" stroke="black" points="1592,-0.5 1592,-30.5 1738,-30.5 1738,-0.5 1592,-0.5"/>
<text text-anchor="start" x="1600" y="-18.5" font-family="Helvetica,sans-Serif" font-size="10.00">NavEKF3_core::calcQuatAnd</text>
<text text-anchor="middle" x="1665" y="-7.5" font-family="Helvetica,sans-Serif" font-size="10.00">FieldStates</text>
</a>
</g>
</g>
<!-- Node33&#45;&gt;Node38 -->
<g id="edge48" class="edge"><title>Node33&#45;&gt;Node38</title>
<path fill="none" stroke="midnightblue" d="M1530.28,-49.484C1553.07,-43.692 1580.64,-36.6855 1604.81,-30.5427"/>
<polygon fill="midnightblue" stroke="midnightblue" points="1529.33,-46.1134 1520.5,-51.9688 1531.06,-52.8977 1529.33,-46.1134"/>
</g>
<!-- Node40 -->
<g id="node40" class="node"><title>Node40</title>
<g id="a_node40"><a xlink:href="classNavEKF3__core.html#a800d407d377e6532d563c68cc3c731d8" target="_top" xlink:title="NavEKF3_core::SelectMagFusion">
<polygon fill="white" stroke="black" points="1947,-25 1947,-44 2112,-44 2112,-25 1947,-25"/>
<text text-anchor="middle" x="2029.5" y="-32" font-family="Helvetica,sans-Serif" font-size="10.00">NavEKF3_core::SelectMagFusion</text>
</a>
</g>
</g>
<!-- Node33&#45;&gt;Node40 -->
<g id="edge55" class="edge"><title>Node33&#45;&gt;Node40</title>
<path fill="none" stroke="midnightblue" d="M1566.06,-57.3888C1669.19,-52.2843 1843.99,-43.6323 1946.59,-38.5543"/>
<polygon fill="midnightblue" stroke="midnightblue" points="1565.82,-53.8965 1556,-57.8867 1566.16,-60.8879 1565.82,-53.8965"/>
</g>
<!-- Node35 -->
<g id="node35" class="node"><title>Node35</title>
<g id="a_node35"><a xlink:href="classNavEKF3.html#a07f064fa513fbb6e7188141904f3b5b5" target="_top" xlink:title="NavEKF3::InitialiseFilter">
<polygon fill="white" stroke="black" points="2327,-88 2327,-107 2450,-107 2450,-88 2327,-88"/>
<text text-anchor="middle" x="2388.5" y="-95" font-family="Helvetica,sans-Serif" font-size="10.00">NavEKF3::InitialiseFilter</text>
</a>
</g>
</g>
<!-- Node34&#45;&gt;Node35 -->
<g id="edge41" class="edge"><title>Node34&#45;&gt;Node35</title>
<path fill="none" stroke="midnightblue" d="M2292.25,-97.5C2303.79,-97.5 2315.63,-97.5 2326.88,-97.5"/>
<polygon fill="midnightblue" stroke="midnightblue" points="2292.21,-94.0001 2282.21,-97.5 2292.21,-101 2292.21,-94.0001"/>
</g>
<!-- Node35&#45;&gt;Node22 -->
<g id="edge44" class="edge"><title>Node35&#45;&gt;Node22</title>
<path fill="none" stroke="midnightblue" d="M2437.41,-109.542C2452.9,-113.403 2470.17,-117.67 2486,-121.5 2500.29,-124.959 2515.96,-128.668 2529.9,-131.941"/>
<polygon fill="midnightblue" stroke="midnightblue" points="2438.06,-106.099 2427.51,-107.072 2436.37,-112.89 2438.06,-106.099"/>
</g>
<!-- Node35&#45;&gt;Node23 -->
<g id="edge45" class="edge"><title>Node35&#45;&gt;Node23</title>
<path fill="none" stroke="midnightblue" d="M2460.2,-97.5C2474.86,-97.5 2490.26,-97.5 2504.75,-97.5"/>
<polygon fill="midnightblue" stroke="midnightblue" points="2460.19,-94.0001 2450.19,-97.5 2460.19,-101 2460.19,-94.0001"/>
</g>
<!-- Node36 -->
<g id="node36" class="node"><title>Node36</title>
<g id="a_node36"><a xlink:href="classAP__AHRS__NavEKF.html#a324160404f12959e955554f5aed26459" target="_top" xlink:title="AP_AHRS_NavEKF::update_EKF3">
<polygon fill="white" stroke="black" points="2486,-44 2486,-63 2658,-63 2658,-44 2486,-44"/>
<text text-anchor="middle" x="2572" y="-51" font-family="Helvetica,sans-Serif" font-size="10.00">AP_AHRS_NavEKF::update_EKF3</text>
</a>
</g>
</g>
<!-- Node35&#45;&gt;Node36 -->
<g id="edge42" class="edge"><title>Node35&#45;&gt;Node36</title>
<path fill="none" stroke="midnightblue" d="M2434.89,-85.4057C2451,-81.2021 2469.28,-76.533 2486,-72.5 2499.23,-69.3087 2513.66,-66.0129 2526.82,-63.0806"/>
<polygon fill="midnightblue" stroke="midnightblue" points="2433.96,-82.0315 2425.17,-87.953 2435.73,-88.8027 2433.96,-82.0315"/>
</g>
<!-- Node37 -->
<g id="node37" class="node"><title>Node37</title>
<g id="a_node37"><a xlink:href="classNavEKF3.html#a3e1f50ad977a17222fcd7a6851b0f2ec" target="_top" xlink:title="NavEKF3::activeCores">
<polygon fill="white" stroke="black" points="2513,-6 2513,-25 2631,-25 2631,-6 2513,-6"/>
<text text-anchor="middle" x="2572" y="-13" font-family="Helvetica,sans-Serif" font-size="10.00">NavEKF3::activeCores</text>
</a>
</g>
</g>
<!-- Node35&#45;&gt;Node37 -->
<g id="edge46" class="edge"><title>Node35&#45;&gt;Node37</title>
<path fill="none" stroke="midnightblue" d="M2411.3,-81.9535C2434.75,-65.4731 2470.72,-40.9466 2486,-34.5 2495.06,-30.6803 2504.99,-27.5753 2514.78,-25.0685"/>
<polygon fill="midnightblue" stroke="midnightblue" points="2409.14,-79.1919 2403,-87.8213 2413.18,-84.9086 2409.14,-79.1919"/>
</g>
<!-- Node36&#45;&gt;Node20 -->
<g id="edge43" class="edge"><title>Node36&#45;&gt;Node20</title>
<path fill="none" stroke="midnightblue" d="M2633.14,-65.4135C2641.56,-67.5239 2650.05,-69.8922 2658,-72.5 2689.81,-82.9323 2725.07,-99.4415 2746.11,-109.86"/>
<polygon fill="midnightblue" stroke="midnightblue" points="2633.87,-61.9885 2623.33,-63.0556 2632.23,-68.7948 2633.87,-61.9885"/>
</g>
<!-- Node37&#45;&gt;Node25 -->
<g id="edge47" class="edge"><title>Node37&#45;&gt;Node25</title>
<path fill="none" stroke="midnightblue" d="M2641.12,-26.1444C2663.26,-29.6024 2687.55,-33.3986 2708.72,-36.706"/>
<polygon fill="midnightblue" stroke="midnightblue" points="2641.55,-22.6682 2631.13,-24.5824 2640.47,-29.5843 2641.55,-22.6682"/>
</g>
<!-- Node39 -->
<g id="node39" class="node"><title>Node39</title>
<g id="a_node39"><a xlink:href="classNavEKF3__core.html#ae050fc8e6c45d5134f8cba8dabc719e8" target="_top" xlink:title="NavEKF3_core::controlMag\lYawReset">
<polygon fill="white" stroke="black" points="1774,-0.5 1774,-30.5 1911,-30.5 1911,-0.5 1774,-0.5"/>
<text text-anchor="start" x="1782" y="-18.5" font-family="Helvetica,sans-Serif" font-size="10.00">NavEKF3_core::controlMag</text>
<text text-anchor="middle" x="1842.5" y="-7.5" font-family="Helvetica,sans-Serif" font-size="10.00">YawReset</text>
</a>
</g>
</g>
<!-- Node38&#45;&gt;Node39 -->
<g id="edge49" class="edge"><title>Node38&#45;&gt;Node39</title>
<path fill="none" stroke="midnightblue" d="M1748.19,-15.5C1756.79,-15.5 1765.46,-15.5 1773.87,-15.5"/>
<polygon fill="midnightblue" stroke="midnightblue" points="1748.14,-12.0001 1738.14,-15.5 1748.14,-19.0001 1748.14,-12.0001"/>
</g>
<!-- Node39&#45;&gt;Node40 -->
<g id="edge50" class="edge"><title>Node39&#45;&gt;Node40</title>
<path fill="none" stroke="midnightblue" d="M1921.03,-23.4629C1929.6,-24.3428 1938.34,-25.2408 1946.96,-26.1255"/>
<polygon fill="midnightblue" stroke="midnightblue" points="1921.38,-19.9801 1911.07,-22.4401 1920.66,-26.9435 1921.38,-19.9801"/>
</g>
<!-- Node41 -->
<g id="node41" class="node"><title>Node41</title>
<g id="a_node41"><a xlink:href="classNavEKF3__core.html#a2a7fae9e0bf2ce6fc2f9b3918dc168d3" target="_top" xlink:title="NavEKF3_core::UpdateFilter">
<polygon fill="white" stroke="black" points="2148,-25 2148,-44 2291,-44 2291,-25 2148,-25"/>
<text text-anchor="middle" x="2219.5" y="-32" font-family="Helvetica,sans-Serif" font-size="10.00">NavEKF3_core::UpdateFilter</text>
</a>
</g>
</g>
<!-- Node40&#45;&gt;Node41 -->
<g id="edge51" class="edge"><title>Node40&#45;&gt;Node41</title>
<path fill="none" stroke="midnightblue" d="M2122.22,-34.5C2130.83,-34.5 2139.47,-34.5 2147.84,-34.5"/>
<polygon fill="midnightblue" stroke="midnightblue" points="2122.14,-31.0001 2112.14,-34.5 2122.14,-38.0001 2122.14,-31.0001"/>
</g>
<!-- Node42 -->
<g id="node42" class="node"><title>Node42</title>
<g id="a_node42"><a xlink:href="classNavEKF3.html#a477020fcf29376e0c2205dbf79728104" target="_top" xlink:title="NavEKF3::UpdateFilter">
<polygon fill="white" stroke="black" points="2329,-25 2329,-44 2448,-44 2448,-25 2329,-25"/>
<text text-anchor="middle" x="2388.5" y="-32" font-family="Helvetica,sans-Serif" font-size="10.00">NavEKF3::UpdateFilter</text>
</a>
</g>
</g>
<!-- Node41&#45;&gt;Node42 -->
<g id="edge52" class="edge"><title>Node41&#45;&gt;Node42</title>
<path fill="none" stroke="midnightblue" d="M2301.37,-34.5C2310.67,-34.5 2320.01,-34.5 2328.93,-34.5"/>
<polygon fill="midnightblue" stroke="midnightblue" points="2301.32,-31.0001 2291.32,-34.5 2301.32,-38.0001 2301.32,-31.0001"/>
</g>
<!-- Node42&#45;&gt;Node36 -->
<g id="edge53" class="edge"><title>Node42&#45;&gt;Node36</title>
<path fill="none" stroke="midnightblue" d="M2458.2,-41.6923C2467.22,-42.6361 2476.55,-43.6123 2485.79,-44.5805"/>
<polygon fill="midnightblue" stroke="midnightblue" points="2458.49,-38.2028 2448.18,-40.6425 2457.76,-45.1647 2458.49,-38.2028"/>
</g>
<!-- Node42&#45;&gt;Node37 -->
<g id="edge54" class="edge"><title>Node42&#45;&gt;Node37</title>
<path fill="none" stroke="midnightblue" d="M2458.31,-27.2972C2476.28,-25.4157 2495.47,-23.4063 2512.84,-21.5889"/>
<polygon fill="midnightblue" stroke="midnightblue" points="2457.76,-23.8353 2448.18,-28.3575 2458.49,-30.7972 2457.76,-23.8353"/>
</g>
<!-- Node43&#45;&gt;Node13 -->
<g id="edge61" class="edge"><title>Node43&#45;&gt;Node13</title>
<path fill="none" stroke="midnightblue" d="M503.302,-146.5C650.691,-146.5 988.944,-146.5 1116.55,-146.5"/>
<polygon fill="midnightblue" stroke="midnightblue" points="503.025,-143 493.025,-146.5 503.025,-150 503.025,-143"/>
</g>
</g>
</svg>
