<?xml version="1.0" encoding="UTF-8" standalone="no"?>
<!DOCTYPE svg PUBLIC "-//W3C//DTD SVG 1.1//EN"
 "http://www.w3.org/Graphics/SVG/1.1/DTD/svg11.dtd">
<!-- Generated by graphviz version 2.38.0 (20140413.2041)
 -->
<!-- Title: Quaternion::from_vector312 Pages: 1 -->
<svg width="308pt" height="78pt"
 viewBox="0.00 0.00 308.00 77.50" xmlns="http://www.w3.org/2000/svg" xmlns:xlink="http://www.w3.org/1999/xlink">
<g id="graph0" class="graph" transform="scale(1 1) rotate(0) translate(4 73.5)">
<title>Quaternion::from_vector312</title>
<polygon fill="white" stroke="none" points="-4,4 -4,-73.5 304,-73.5 304,4 -4,4"/>
<!-- Node1 -->
<g id="node1" class="node"><title>Node1</title>
<polygon fill="#bfbfbf" stroke="black" points="0,-28 0,-47 137,-47 137,-28 0,-28"/>
<text text-anchor="middle" x="68.5" y="-35" font-family="Helvetica,sans-Serif" font-size="10.00">Quaternion::from_vector312</text>
</g>
<!-- Node2 -->
<g id="node2" class="node"><title>Node2</title>
<g id="a_node2"><a xlink:href="classMatrix3.html#ac40446799dccb00a1a0098decf876d7b" target="_top" xlink:title="Matrix3::from_euler312">
<polygon fill="white" stroke="black" points="178.5,-50 178.5,-69 294.5,-69 294.5,-50 178.5,-50"/>
<text text-anchor="middle" x="236.5" y="-57" font-family="Helvetica,sans-Serif" font-size="10.00">Matrix3::from_euler312</text>
</a>
</g>
</g>
<!-- Node1&#45;&gt;Node2 -->
<g id="edge1" class="edge"><title>Node1&#45;&gt;Node2</title>
<path fill="none" stroke="midnightblue" d="M137.019,-46.4482C147.319,-47.8133 157.949,-49.2221 168.243,-50.5864"/>
<polygon fill="midnightblue" stroke="midnightblue" points="168.028,-54.0885 178.401,-51.9327 168.948,-47.1491 168.028,-54.0885"/>
</g>
<!-- Node3 -->
<g id="node3" class="node"><title>Node3</title>
<g id="a_node3"><a xlink:href="classQuaternion.html#a5ee01ee833114be6181887d0dcfb33b1" target="_top" xlink:title="Quaternion::from_rotation\l_matrix">
<polygon fill="white" stroke="black" points="173,-0.5 173,-30.5 300,-30.5 300,-0.5 173,-0.5"/>
<text text-anchor="start" x="181" y="-18.5" font-family="Helvetica,sans-Serif" font-size="10.00">Quaternion::from_rotation</text>
<text text-anchor="middle" x="236.5" y="-7.5" font-family="Helvetica,sans-Serif" font-size="10.00">_matrix</text>
</a>
</g>
</g>
<!-- Node1&#45;&gt;Node3 -->
<g id="edge2" class="edge"><title>Node1&#45;&gt;Node3</title>
<path fill="none" stroke="midnightblue" d="M137.019,-28.5518C145.535,-27.4231 154.276,-26.2646 162.867,-25.126"/>
<polygon fill="midnightblue" stroke="midnightblue" points="163.407,-28.5851 172.861,-23.8016 162.488,-21.6458 163.407,-28.5851"/>
</g>
</g>
</svg>
