<?xml version="1.0" encoding="UTF-8" standalone="no"?>
<!DOCTYPE svg PUBLIC "-//W3C//DTD SVG 1.1//EN"
 "http://www.w3.org/Graphics/SVG/1.1/DTD/svg11.dtd">
<!-- Generated by graphviz version 2.38.0 (20140413.2041)
 -->
<!-- Title: VRBRAIN::NSHShellStream::start_shell Pages: 1 -->
<svg width="729pt" height="208pt"
 viewBox="0.00 0.00 729.00 207.50" xmlns="http://www.w3.org/2000/svg" xmlns:xlink="http://www.w3.org/1999/xlink">
<g id="graph0" class="graph" transform="scale(1 1) rotate(0) translate(4 203.5)">
<title>VRBRAIN::NSHShellStream::start_shell</title>
<polygon fill="white" stroke="none" points="-4,4 -4,-203.5 725,-203.5 725,4 -4,4"/>
<!-- Node1 -->
<g id="node1" class="node"><title>Node1</title>
<polygon fill="#bfbfbf" stroke="black" points="0,-73.5 0,-103.5 143,-103.5 143,-73.5 0,-73.5"/>
<text text-anchor="start" x="8" y="-91.5" font-family="Helvetica,sans-Serif" font-size="10.00">VRBRAIN::NSHShellStream</text>
<text text-anchor="middle" x="71.5" y="-80.5" font-family="Helvetica,sans-Serif" font-size="10.00">::start_shell</text>
</g>
<!-- Node2 -->
<g id="node2" class="node"><title>Node2</title>
<g id="a_node2"><a xlink:href="classAP__HAL_1_1Util.html#a2a2e64f649d25593951054d44c0ed53b" target="_top" xlink:title="AP_HAL::Util::available\l_memory">
<polygon fill="white" stroke="black" points="190.5,-147.5 190.5,-177.5 310.5,-177.5 310.5,-147.5 190.5,-147.5"/>
<text text-anchor="start" x="198.5" y="-165.5" font-family="Helvetica,sans-Serif" font-size="10.00">AP_HAL::Util::available</text>
<text text-anchor="middle" x="250.5" y="-154.5" font-family="Helvetica,sans-Serif" font-size="10.00">_memory</text>
</a>
</g>
</g>
<!-- Node1&#45;&gt;Node2 -->
<g id="edge1" class="edge"><title>Node1&#45;&gt;Node2</title>
<path fill="none" stroke="midnightblue" d="M102.404,-103.628C123.536,-114.048 152.671,-127.876 179,-138.5 183.676,-140.387 188.564,-142.256 193.49,-144.069"/>
<polygon fill="midnightblue" stroke="midnightblue" points="192.37,-147.385 202.965,-147.475 194.739,-140.798 192.37,-147.385"/>
</g>
<!-- Node3 -->
<g id="node3" class="node"><title>Node3</title>
<g id="a_node3"><a xlink:href="classAP__HAL_1_1UARTDriver.html#a6ceedc792594e59fc7d80b39a435f027" target="_top" xlink:title="AP_HAL::UARTDriver\l::printf">
<polygon fill="white" stroke="black" points="193,-98.5 193,-128.5 308,-128.5 308,-98.5 193,-98.5"/>
<text text-anchor="start" x="201" y="-116.5" font-family="Helvetica,sans-Serif" font-size="10.00">AP_HAL::UARTDriver</text>
<text text-anchor="middle" x="250.5" y="-105.5" font-family="Helvetica,sans-Serif" font-size="10.00">::printf</text>
</a>
</g>
</g>
<!-- Node1&#45;&gt;Node3 -->
<g id="edge2" class="edge"><title>Node1&#45;&gt;Node3</title>
<path fill="none" stroke="midnightblue" d="M143.218,-98.4884C156.211,-100.324 169.737,-102.234 182.613,-104.053"/>
<polygon fill="midnightblue" stroke="midnightblue" points="182.385,-107.555 192.777,-105.488 183.364,-100.624 182.385,-107.555"/>
</g>
<!-- Node11 -->
<g id="node11" class="node"><title>Node11</title>
<g id="a_node11"><a xlink:href="classAP__HAL_1_1Util.html#a973ee89f8eee7af3a4d2a3eb700cbf3c" target="_top" xlink:title="AP_HAL::Util::get_soft\l_armed">
<polygon fill="white" stroke="black" points="192,-49.5 192,-79.5 309,-79.5 309,-49.5 192,-49.5"/>
<text text-anchor="start" x="200" y="-67.5" font-family="Helvetica,sans-Serif" font-size="10.00">AP_HAL::Util::get_soft</text>
<text text-anchor="middle" x="250.5" y="-56.5" font-family="Helvetica,sans-Serif" font-size="10.00">_armed</text>
</a>
</g>
</g>
<!-- Node1&#45;&gt;Node11 -->
<g id="edge10" class="edge"><title>Node1&#45;&gt;Node11</title>
<path fill="none" stroke="midnightblue" d="M143.218,-78.9111C155.983,-77.1803 169.262,-75.3797 181.934,-73.6615"/>
<polygon fill="midnightblue" stroke="midnightblue" points="182.506,-77.116 191.945,-72.304 181.566,-70.1795 182.506,-77.116"/>
</g>
<!-- Node12 -->
<g id="node12" class="node"><title>Node12</title>
<g id="a_node12"><a xlink:href="classVRBRAIN_1_1NSHShellStream.html#a4015bac2ed57e5e005ee0e0ff0848c70" target="_top" xlink:title="VRBRAIN::NSHShellStream\l::shell_thread">
<polygon fill="white" stroke="black" points="179,-0.5 179,-30.5 322,-30.5 322,-0.5 179,-0.5"/>
<text text-anchor="start" x="187" y="-18.5" font-family="Helvetica,sans-Serif" font-size="10.00">VRBRAIN::NSHShellStream</text>
<text text-anchor="middle" x="250.5" y="-7.5" font-family="Helvetica,sans-Serif" font-size="10.00">::shell_thread</text>
</a>
</g>
</g>
<!-- Node1&#45;&gt;Node12 -->
<g id="edge11" class="edge"><title>Node1&#45;&gt;Node12</title>
<path fill="none" stroke="midnightblue" d="M104.36,-73.309C125.368,-63.4991 153.596,-50.709 179,-40.5 184.404,-38.3285 190.077,-36.1507 195.761,-34.0353"/>
<polygon fill="midnightblue" stroke="midnightblue" points="197.102,-37.2716 205.289,-30.5465 194.695,-30.6984 197.102,-37.2716"/>
</g>
<!-- Node4 -->
<g id="node4" class="node"><title>Node4</title>
<g id="a_node4"><a xlink:href="classAP__HAL_1_1UARTDriver.html#aa8abfb6d6641299472c29ac1edde559f" target="_top" xlink:title="AP_HAL::UARTDriver\l::vprintf">
<polygon fill="white" stroke="black" points="358,-98.5 358,-128.5 473,-128.5 473,-98.5 358,-98.5"/>
<text text-anchor="start" x="366" y="-116.5" font-family="Helvetica,sans-Serif" font-size="10.00">AP_HAL::UARTDriver</text>
<text text-anchor="middle" x="415.5" y="-105.5" font-family="Helvetica,sans-Serif" font-size="10.00">::vprintf</text>
</a>
</g>
</g>
<!-- Node3&#45;&gt;Node4 -->
<g id="edge3" class="edge"><title>Node3&#45;&gt;Node4</title>
<path fill="none" stroke="midnightblue" d="M308.052,-113.5C320.749,-113.5 334.34,-113.5 347.419,-113.5"/>
<polygon fill="midnightblue" stroke="midnightblue" points="347.772,-117 357.772,-113.5 347.772,-110 347.772,-117"/>
</g>
<!-- Node5 -->
<g id="node5" class="node"><title>Node5</title>
<g id="a_node5"><a xlink:href="print__vprintf_8cpp.html#a1534eaeab54696df96975b56d9f49212" target="_top" xlink:title="print_vprintf">
<polygon fill="white" stroke="black" points="509,-104 509,-123 577,-123 577,-104 509,-104"/>
<text text-anchor="middle" x="543" y="-111" font-family="Helvetica,sans-Serif" font-size="10.00">print_vprintf</text>
</a>
</g>
</g>
<!-- Node4&#45;&gt;Node5 -->
<g id="edge4" class="edge"><title>Node4&#45;&gt;Node5</title>
<path fill="none" stroke="midnightblue" d="M473.009,-113.5C481.609,-113.5 490.367,-113.5 498.628,-113.5"/>
<polygon fill="midnightblue" stroke="midnightblue" points="498.777,-117 508.777,-113.5 498.777,-110 498.777,-117"/>
</g>
<!-- Node6 -->
<g id="node6" class="node"><title>Node6</title>
<g id="a_node6"><a xlink:href="classAP__HAL_1_1Print.html#acc65391952a43334f8f5c9bef341f501" target="_top" xlink:title="AP_HAL::Print::write">
<polygon fill="white" stroke="black" points="613,-180 613,-199 721,-199 721,-180 613,-180"/>
<text text-anchor="middle" x="667" y="-187" font-family="Helvetica,sans-Serif" font-size="10.00">AP_HAL::Print::write</text>
</a>
</g>
</g>
<!-- Node5&#45;&gt;Node6 -->
<g id="edge5" class="edge"><title>Node5&#45;&gt;Node6</title>
<path fill="none" stroke="midnightblue" d="M553.47,-123.183C566.07,-135.602 589.502,-157.129 613,-170.5 616.632,-172.567 620.529,-174.473 624.501,-176.215"/>
<polygon fill="midnightblue" stroke="midnightblue" points="623.233,-179.477 633.816,-179.979 625.856,-172.987 623.233,-179.477"/>
</g>
<!-- Node7 -->
<g id="node7" class="node"><title>Node7</title>
<g id="a_node7"><a xlink:href="ftoa__engine_8cpp.html#a1c28234da8f20b43c85890d4bb452947" target="_top" xlink:title="ftoa_engine">
<polygon fill="white" stroke="black" points="633.5,-142 633.5,-161 700.5,-161 700.5,-142 633.5,-142"/>
<text text-anchor="middle" x="667" y="-149" font-family="Helvetica,sans-Serif" font-size="10.00">ftoa_engine</text>
</a>
</g>
</g>
<!-- Node5&#45;&gt;Node7 -->
<g id="edge6" class="edge"><title>Node5&#45;&gt;Node7</title>
<path fill="none" stroke="midnightblue" d="M574.786,-123.089C590.101,-127.859 608.817,-133.689 625.3,-138.823"/>
<polygon fill="midnightblue" stroke="midnightblue" points="624.636,-142.282 635.224,-141.914 626.717,-135.599 624.636,-142.282"/>
</g>
<!-- Node8 -->
<g id="node8" class="node"><title>Node8</title>
<g id="a_node8"><a xlink:href="replace_8cpp.html#a880bcc7b85a09e6254691bebd5344b51" target="_top" xlink:title="strnlen">
<polygon fill="white" stroke="black" points="644,-104 644,-123 690,-123 690,-104 644,-104"/>
<text text-anchor="middle" x="667" y="-111" font-family="Helvetica,sans-Serif" font-size="10.00">strnlen</text>
</a>
</g>
</g>
<!-- Node5&#45;&gt;Node8 -->
<g id="edge7" class="edge"><title>Node5&#45;&gt;Node8</title>
<path fill="none" stroke="midnightblue" d="M577.015,-113.5C594.547,-113.5 616.016,-113.5 633.474,-113.5"/>
<polygon fill="midnightblue" stroke="midnightblue" points="633.754,-117 643.754,-113.5 633.754,-110 633.754,-117"/>
</g>
<!-- Node9 -->
<g id="node9" class="node"><title>Node9</title>
<g id="a_node9"><a xlink:href="utoa__invert_8cpp.html#a34926f552460b47c414ec4d83b32815c" target="_top" xlink:title="ulltoa_invert">
<polygon fill="white" stroke="black" points="632.5,-66 632.5,-85 701.5,-85 701.5,-66 632.5,-66"/>
<text text-anchor="middle" x="667" y="-73" font-family="Helvetica,sans-Serif" font-size="10.00">ulltoa_invert</text>
</a>
</g>
</g>
<!-- Node5&#45;&gt;Node9 -->
<g id="edge8" class="edge"><title>Node5&#45;&gt;Node9</title>
<path fill="none" stroke="midnightblue" d="M574.786,-103.911C590.101,-99.1406 608.817,-93.3112 625.3,-88.1771"/>
<polygon fill="midnightblue" stroke="midnightblue" points="626.717,-91.4015 635.224,-85.0859 624.636,-84.7182 626.717,-91.4015"/>
</g>
<!-- Node10 -->
<g id="node10" class="node"><title>Node10</title>
<g id="a_node10"><a xlink:href="utoa__invert_8cpp.html#a5d99bba8e697c1e11da489d88fca8559" target="_top" xlink:title="ultoa_invert">
<polygon fill="white" stroke="black" points="633.5,-28 633.5,-47 700.5,-47 700.5,-28 633.5,-28"/>
<text text-anchor="middle" x="667" y="-35" font-family="Helvetica,sans-Serif" font-size="10.00">ultoa_invert</text>
</a>
</g>
</g>
<!-- Node5&#45;&gt;Node10 -->
<g id="edge9" class="edge"><title>Node5&#45;&gt;Node10</title>
<path fill="none" stroke="midnightblue" d="M553.47,-103.817C566.07,-91.3984 589.502,-69.871 613,-56.5 616.632,-54.4334 620.529,-52.5271 624.501,-50.7853"/>
<polygon fill="midnightblue" stroke="midnightblue" points="625.856,-54.0129 633.816,-47.0214 623.233,-47.5226 625.856,-54.0129"/>
</g>
</g>
</svg>
