<?xml version="1.0" encoding="UTF-8" standalone="no"?>
<!DOCTYPE svg PUBLIC "-//W3C//DTD SVG 1.1//EN"
 "http://www.w3.org/Graphics/SVG/1.1/DTD/svg11.dtd">
<!-- Generated by graphviz version 2.38.0 (20140413.2041)
 -->
<!-- Title: AP_HAL::Util::snprintf Pages: 1 -->
<svg width="1549pt" height="292pt"
 viewBox="0.00 0.00 1549.00 292.00" xmlns="http://www.w3.org/2000/svg" xmlns:xlink="http://www.w3.org/1999/xlink">
<g id="graph0" class="graph" transform="scale(1 1) rotate(0) translate(4 288)">
<title>AP_HAL::Util::snprintf</title>
<polygon fill="white" stroke="none" points="-4,4 -4,-288 1545,-288 1545,4 -4,4"/>
<!-- Node1 -->
<g id="node1" class="node"><title>Node1</title>
<polygon fill="#bfbfbf" stroke="black" points="0,-110.5 0,-129.5 114,-129.5 114,-110.5 0,-110.5"/>
<text text-anchor="middle" x="57" y="-117.5" font-family="Helvetica,sans-Serif" font-size="10.00">AP_HAL::Util::snprintf</text>
</g>
<!-- Node2 -->
<g id="node2" class="node"><title>Node2</title>
<g id="a_node2"><a xlink:href="classAP__GPS.html#aace55843f717134986278eecadd14427" target="_top" xlink:title="AP_GPS::_broadcast\l_gps_type">
<polygon fill="white" stroke="black" points="169.5,-244 169.5,-274 279.5,-274 279.5,-244 169.5,-244"/>
<text text-anchor="start" x="177.5" y="-262" font-family="Helvetica,sans-Serif" font-size="10.00">AP_GPS::_broadcast</text>
<text text-anchor="middle" x="224.5" y="-251" font-family="Helvetica,sans-Serif" font-size="10.00">_gps_type</text>
</a>
</g>
</g>
<!-- Node1&#45;&gt;Node2 -->
<g id="edge1" class="edge"><title>Node1&#45;&gt;Node2</title>
<path fill="none" stroke="midnightblue" d="M72.4256,-137.464C89.6005,-157.611 119.777,-191.035 150,-215 163.751,-225.904 180.441,-236.104 194.44,-243.933"/>
<polygon fill="midnightblue" stroke="midnightblue" points="75.0156,-135.106 65.8986,-129.708 69.6599,-139.613 75.0156,-135.106"/>
</g>
<!-- Node7 -->
<g id="node7" class="node"><title>Node7</title>
<g id="a_node7"><a xlink:href="classNavEKF2__core.html#af17ad10645eedde6134e5988ed2b80b2" target="_top" xlink:title="NavEKF2_core::calcGpsGood\lToAlign">
<polygon fill="white" stroke="black" points="150,-176 150,-206 299,-206 299,-176 150,-176"/>
<text text-anchor="start" x="158" y="-194" font-family="Helvetica,sans-Serif" font-size="10.00">NavEKF2_core::calcGpsGood</text>
<text text-anchor="middle" x="224.5" y="-183" font-family="Helvetica,sans-Serif" font-size="10.00">ToAlign</text>
</a>
</g>
</g>
<!-- Node1&#45;&gt;Node7 -->
<g id="edge6" class="edge"><title>Node1&#45;&gt;Node7</title>
<path fill="none" stroke="midnightblue" d="M84.1455,-134.265C102.321,-143.884 127.269,-156.503 150,-166 158.333,-169.481 167.338,-172.853 176.093,-175.933"/>
<polygon fill="midnightblue" stroke="midnightblue" points="85.7753,-131.167 75.3061,-129.541 82.4759,-137.341 85.7753,-131.167"/>
</g>
<!-- Node23 -->
<g id="node23" class="node"><title>Node23</title>
<g id="a_node23"><a xlink:href="classNavEKF3__core.html#ab712c6228fff3e0413b5bf039755ccaf" target="_top" xlink:title="NavEKF3_core::calcGpsGood\lToAlign">
<polygon fill="white" stroke="black" points="150,-127 150,-157 299,-157 299,-127 150,-127"/>
<text text-anchor="start" x="158" y="-145" font-family="Helvetica,sans-Serif" font-size="10.00">NavEKF3_core::calcGpsGood</text>
<text text-anchor="middle" x="224.5" y="-134" font-family="Helvetica,sans-Serif" font-size="10.00">ToAlign</text>
</a>
</g>
</g>
<!-- Node1&#45;&gt;Node23 -->
<g id="edge24" class="edge"><title>Node1&#45;&gt;Node23</title>
<path fill="none" stroke="midnightblue" d="M124.203,-128.8C132.66,-129.925 141.358,-131.081 149.923,-132.219"/>
<polygon fill="midnightblue" stroke="midnightblue" points="124.405,-125.297 114.031,-127.448 123.482,-132.235 124.405,-125.297"/>
</g>
<!-- Node32 -->
<g id="node32" class="node"><title>Node32</title>
<g id="a_node32"><a xlink:href="classPX4_1_1PX4Util.html#af29335984bc4afe5f7e15b047e73f93b" target="_top" xlink:title="PX4::PX4Util::get_system_id">
<polygon fill="white" stroke="black" points="152,-88.5 152,-107.5 297,-107.5 297,-88.5 152,-88.5"/>
<text text-anchor="middle" x="224.5" y="-95.5" font-family="Helvetica,sans-Serif" font-size="10.00">PX4::PX4Util::get_system_id</text>
</a>
</g>
</g>
<!-- Node1&#45;&gt;Node32 -->
<g id="edge39" class="edge"><title>Node1&#45;&gt;Node32</title>
<path fill="none" stroke="midnightblue" d="M124.2,-111.2C133.335,-109.986 142.751,-108.734 151.977,-107.508"/>
<polygon fill="midnightblue" stroke="midnightblue" points="123.482,-107.765 114.031,-112.552 124.405,-114.703 123.482,-107.765"/>
</g>
<!-- Node33 -->
<g id="node33" class="node"><title>Node33</title>
<g id="a_node33"><a xlink:href="classVRBRAIN_1_1VRBRAINUtil.html#a76371f5082f43591e651a5fd1d18d80d" target="_top" xlink:title="VRBRAIN::VRBRAINUtil\l::get_system_id">
<polygon fill="white" stroke="black" points="160,-39 160,-69 289,-69 289,-39 160,-39"/>
<text text-anchor="start" x="168" y="-57" font-family="Helvetica,sans-Serif" font-size="10.00">VRBRAIN::VRBRAINUtil</text>
<text text-anchor="middle" x="224.5" y="-46" font-family="Helvetica,sans-Serif" font-size="10.00">::get_system_id</text>
</a>
</g>
</g>
<!-- Node1&#45;&gt;Node33 -->
<g id="edge40" class="edge"><title>Node1&#45;&gt;Node33</title>
<path fill="none" stroke="midnightblue" d="M87.5663,-105.997C105.464,-97.7287 128.845,-87.2915 150,-79 158.659,-75.6062 167.989,-72.2257 177.001,-69.0979"/>
<polygon fill="midnightblue" stroke="midnightblue" points="85.8251,-102.947 78.2363,-110.34 88.7793,-109.293 85.8251,-102.947"/>
</g>
<!-- Node34 -->
<g id="node34" class="node"><title>Node34</title>
<g id="a_node34"><a xlink:href="Printf_8cpp.html#a9960aa1a2c609afd87baf4ba2eab0fc8" target="_top" xlink:title="test_printf">
<polygon fill="white" stroke="black" points="194.5,-0.5 194.5,-19.5 254.5,-19.5 254.5,-0.5 194.5,-0.5"/>
<text text-anchor="middle" x="224.5" y="-7.5" font-family="Helvetica,sans-Serif" font-size="10.00">test_printf</text>
</a>
</g>
</g>
<!-- Node1&#45;&gt;Node34 -->
<g id="edge41" class="edge"><title>Node1&#45;&gt;Node34</title>
<path fill="none" stroke="midnightblue" d="M70.9996,-102.384C87.2038,-81.7001 116.838,-47.8312 150,-29 163.524,-21.3204 180.197,-16.6836 194.242,-13.9162"/>
<polygon fill="midnightblue" stroke="midnightblue" points="68.1962,-100.289 64.906,-110.36 73.7584,-104.539 68.1962,-100.289"/>
</g>
<!-- Node3 -->
<g id="node3" class="node"><title>Node3</title>
<g id="a_node3"><a xlink:href="classAP__GPS.html#a4bdd5c70ed358b4147a58c7d09f040dd" target="_top" xlink:title="AP_GPS::detect_instance">
<polygon fill="white" stroke="black" points="343,-259.5 343,-278.5 474,-278.5 474,-259.5 343,-259.5"/>
<text text-anchor="middle" x="408.5" y="-266.5" font-family="Helvetica,sans-Serif" font-size="10.00">AP_GPS::detect_instance</text>
</a>
</g>
</g>
<!-- Node2&#45;&gt;Node3 -->
<g id="edge2" class="edge"><title>Node2&#45;&gt;Node3</title>
<path fill="none" stroke="midnightblue" d="M289.62,-262.523C306.931,-263.474 325.668,-264.504 342.999,-265.456"/>
<polygon fill="midnightblue" stroke="midnightblue" points="289.79,-259.027 279.613,-261.973 289.406,-266.017 289.79,-259.027"/>
</g>
<!-- Node4 -->
<g id="node4" class="node"><title>Node4</title>
<g id="a_node4"><a xlink:href="classAP__GPS.html#a83302e8b52e5d01ae67375b3542eb460" target="_top" xlink:title="AP_GPS::update_instance">
<polygon fill="white" stroke="black" points="525.5,-264.5 525.5,-283.5 659.5,-283.5 659.5,-264.5 525.5,-264.5"/>
<text text-anchor="middle" x="592.5" y="-271.5" font-family="Helvetica,sans-Serif" font-size="10.00">AP_GPS::update_instance</text>
</a>
</g>
</g>
<!-- Node3&#45;&gt;Node4 -->
<g id="edge3" class="edge"><title>Node3&#45;&gt;Node4</title>
<path fill="none" stroke="midnightblue" d="M484.466,-271.059C498.071,-271.433 512.17,-271.821 525.494,-272.187"/>
<polygon fill="midnightblue" stroke="midnightblue" points="484.271,-267.553 474.179,-270.777 484.079,-274.55 484.271,-267.553"/>
</g>
<!-- Node5 -->
<g id="node5" class="node"><title>Node5</title>
<g id="a_node5"><a xlink:href="classAP__GPS.html#afe04427a47ab5e630cb979815abd911e" target="_top" xlink:title="AP_GPS::update">
<polygon fill="white" stroke="black" points="728.5,-264.5 728.5,-283.5 820.5,-283.5 820.5,-264.5 728.5,-264.5"/>
<text text-anchor="middle" x="774.5" y="-271.5" font-family="Helvetica,sans-Serif" font-size="10.00">AP_GPS::update</text>
</a>
</g>
</g>
<!-- Node4&#45;&gt;Node5 -->
<g id="edge4" class="edge"><title>Node4&#45;&gt;Node5</title>
<path fill="none" stroke="midnightblue" d="M669.543,-274C689.548,-274 710.496,-274 728.303,-274"/>
<polygon fill="midnightblue" stroke="midnightblue" points="669.503,-270.5 659.503,-274 669.503,-277.5 669.503,-270.5"/>
</g>
<!-- Node6 -->
<g id="node6" class="node"><title>Node6</title>
<g id="a_node6"><a xlink:href="GPS__AUTO__test_8cpp.html#afe461d27b9c48d5921c00d521181f12f" target="_top" xlink:title="loop">
<polygon fill="white" stroke="black" points="926,-264.5 926,-283.5 961,-283.5 961,-264.5 926,-264.5"/>
<text text-anchor="middle" x="943.5" y="-271.5" font-family="Helvetica,sans-Serif" font-size="10.00">loop</text>
</a>
</g>
</g>
<!-- Node5&#45;&gt;Node6 -->
<g id="edge5" class="edge"><title>Node5&#45;&gt;Node6</title>
<path fill="none" stroke="midnightblue" d="M830.744,-274C863.918,-274 903.838,-274 925.862,-274"/>
<polygon fill="midnightblue" stroke="midnightblue" points="830.693,-270.5 820.693,-274 830.693,-277.5 830.693,-270.5"/>
</g>
<!-- Node8 -->
<g id="node8" class="node"><title>Node8</title>
<g id="a_node8"><a xlink:href="classNavEKF2__core.html#ae325dba2deac733f1de41c5e7ee4f707" target="_top" xlink:title="NavEKF2_core::readGpsData">
<polygon fill="white" stroke="black" points="335,-181.5 335,-200.5 482,-200.5 482,-181.5 335,-181.5"/>
<text text-anchor="middle" x="408.5" y="-188.5" font-family="Helvetica,sans-Serif" font-size="10.00">NavEKF2_core::readGpsData</text>
</a>
</g>
</g>
<!-- Node7&#45;&gt;Node8 -->
<g id="edge7" class="edge"><title>Node7&#45;&gt;Node8</title>
<path fill="none" stroke="midnightblue" d="M309.069,-191C317.696,-191 326.413,-191 334.907,-191"/>
<polygon fill="midnightblue" stroke="midnightblue" points="309.002,-187.5 299.002,-191 309.002,-194.5 309.002,-187.5"/>
</g>
<!-- Node9 -->
<g id="node9" class="node"><title>Node9</title>
<g id="a_node9"><a xlink:href="classNavEKF2__core.html#a4a06ae47c3edebdecd2b179a0567f00b" target="_top" xlink:title="NavEKF2_core::Initialise\lFilterBootstrap">
<polygon fill="white" stroke="black" points="530,-166 530,-196 655,-196 655,-166 530,-166"/>
<text text-anchor="start" x="538" y="-184" font-family="Helvetica,sans-Serif" font-size="10.00">NavEKF2_core::Initialise</text>
<text text-anchor="middle" x="592.5" y="-173" font-family="Helvetica,sans-Serif" font-size="10.00">FilterBootstrap</text>
</a>
</g>
</g>
<!-- Node8&#45;&gt;Node9 -->
<g id="edge8" class="edge"><title>Node8&#45;&gt;Node9</title>
<path fill="none" stroke="midnightblue" d="M492.261,-186.453C504.867,-185.76 517.685,-185.056 529.738,-184.394"/>
<polygon fill="midnightblue" stroke="midnightblue" points="492.009,-182.961 482.216,-187.005 492.393,-189.951 492.009,-182.961"/>
</g>
<!-- Node20 -->
<g id="node20" class="node"><title>Node20</title>
<g id="a_node20"><a xlink:href="classNavEKF2__core.html#aff31047fa71772bca7ce574617ede0f6" target="_top" xlink:title="NavEKF2_core::SelectVelPos\lFusion">
<polygon fill="white" stroke="black" points="518,-215 518,-245 667,-245 667,-215 518,-215"/>
<text text-anchor="start" x="526" y="-233" font-family="Helvetica,sans-Serif" font-size="10.00">NavEKF2_core::SelectVelPos</text>
<text text-anchor="middle" x="592.5" y="-222" font-family="Helvetica,sans-Serif" font-size="10.00">Fusion</text>
</a>
</g>
</g>
<!-- Node8&#45;&gt;Node20 -->
<g id="edge19" class="edge"><title>Node8&#45;&gt;Node20</title>
<path fill="none" stroke="midnightblue" d="M464.027,-202.684C481.992,-206.534 502.229,-210.871 521.199,-214.936"/>
<polygon fill="midnightblue" stroke="midnightblue" points="464.534,-199.214 454.022,-200.54 463.067,-206.058 464.534,-199.214"/>
</g>
<!-- Node10 -->
<g id="node10" class="node"><title>Node10</title>
<g id="a_node10"><a xlink:href="classNavEKF2.html#a9c447b8d84abf2dfc845ddbbbad46a2b" target="_top" xlink:title="NavEKF2::InitialiseFilter">
<polygon fill="white" stroke="black" points="882,-171.5 882,-190.5 1005,-190.5 1005,-171.5 882,-171.5"/>
<text text-anchor="middle" x="943.5" y="-178.5" font-family="Helvetica,sans-Serif" font-size="10.00">NavEKF2::InitialiseFilter</text>
</a>
</g>
</g>
<!-- Node9&#45;&gt;Node10 -->
<g id="edge9" class="edge"><title>Node9&#45;&gt;Node10</title>
<path fill="none" stroke="midnightblue" d="M665.483,-181C729.354,-181 821.615,-181 881.817,-181"/>
<polygon fill="midnightblue" stroke="midnightblue" points="665.091,-177.5 655.091,-181 665.091,-184.5 665.091,-177.5"/>
</g>
<!-- Node11 -->
<g id="node11" class="node"><title>Node11</title>
<g id="a_node11"><a xlink:href="classNavEKF2.html#ab18af2714c15fcf190493c01e2a28c73" target="_top" xlink:title="NavEKF2::activeCores">
<polygon fill="white" stroke="black" points="1068,-253.5 1068,-272.5 1186,-272.5 1186,-253.5 1068,-253.5"/>
<text text-anchor="middle" x="1127" y="-260.5" font-family="Helvetica,sans-Serif" font-size="10.00">NavEKF2::activeCores</text>
</a>
</g>
</g>
<!-- Node10&#45;&gt;Node11 -->
<g id="edge10" class="edge"><title>Node10&#45;&gt;Node11</title>
<path fill="none" stroke="midnightblue" d="M976.614,-194.841C986.07,-199.461 996.226,-204.983 1005,-211 1022.9,-223.276 1021.76,-233.959 1041,-244 1049.31,-248.337 1058.58,-251.688 1067.86,-254.275"/>
<polygon fill="midnightblue" stroke="midnightblue" points="978.007,-191.628 967.469,-190.536 975.026,-197.962 978.007,-191.628"/>
</g>
<!-- Node15 -->
<g id="node15" class="node"><title>Node15</title>
<g id="a_node15"><a xlink:href="classAP__AHRS__NavEKF.html#a532ff0df024a4537e5a108c42ba405a7" target="_top" xlink:title="AP_AHRS_NavEKF::reset">
<polygon fill="white" stroke="black" points="1060,-127.5 1060,-146.5 1194,-146.5 1194,-127.5 1060,-127.5"/>
<text text-anchor="middle" x="1127" y="-134.5" font-family="Helvetica,sans-Serif" font-size="10.00">AP_AHRS_NavEKF::reset</text>
</a>
</g>
</g>
<!-- Node10&#45;&gt;Node15 -->
<g id="edge14" class="edge"><title>Node10&#45;&gt;Node15</title>
<path fill="none" stroke="midnightblue" d="M989.891,-168.906C1006,-164.702 1024.28,-160.033 1041,-156 1054.23,-152.809 1068.66,-149.513 1081.82,-146.581"/>
<polygon fill="midnightblue" stroke="midnightblue" points="988.96,-165.532 980.174,-171.453 990.735,-172.303 988.96,-165.532"/>
</g>
<!-- Node16 -->
<g id="node16" class="node"><title>Node16</title>
<g id="a_node16"><a xlink:href="classAP__AHRS__NavEKF.html#a9bd3c7f1793a48cd0d736b19fbfaf19a" target="_top" xlink:title="AP_AHRS_NavEKF::reset\l_attitude">
<polygon fill="white" stroke="black" points="1060,-166 1060,-196 1194,-196 1194,-166 1060,-166"/>
<text text-anchor="start" x="1068" y="-184" font-family="Helvetica,sans-Serif" font-size="10.00">AP_AHRS_NavEKF::reset</text>
<text text-anchor="middle" x="1127" y="-173" font-family="Helvetica,sans-Serif" font-size="10.00">_attitude</text>
</a>
</g>
</g>
<!-- Node10&#45;&gt;Node16 -->
<g id="edge15" class="edge"><title>Node10&#45;&gt;Node16</title>
<path fill="none" stroke="midnightblue" d="M1015.2,-181C1029.86,-181 1045.26,-181 1059.75,-181"/>
<polygon fill="midnightblue" stroke="midnightblue" points="1015.19,-177.5 1005.19,-181 1015.19,-184.5 1015.19,-177.5"/>
</g>
<!-- Node17 -->
<g id="node17" class="node"><title>Node17</title>
<g id="a_node17"><a xlink:href="classAP__AHRS__NavEKF.html#a0187c6d3d4348b002a204c05d3e94b07" target="_top" xlink:title="AP_AHRS_NavEKF::update_EKF2">
<polygon fill="white" stroke="black" points="1041,-215.5 1041,-234.5 1213,-234.5 1213,-215.5 1041,-215.5"/>
<text text-anchor="middle" x="1127" y="-222.5" font-family="Helvetica,sans-Serif" font-size="10.00">AP_AHRS_NavEKF::update_EKF2</text>
</a>
</g>
</g>
<!-- Node10&#45;&gt;Node17 -->
<g id="edge16" class="edge"><title>Node10&#45;&gt;Node17</title>
<path fill="none" stroke="midnightblue" d="M992.408,-193.042C1007.9,-196.903 1025.17,-201.17 1041,-205 1055.29,-208.459 1070.96,-212.168 1084.9,-215.441"/>
<polygon fill="midnightblue" stroke="midnightblue" points="993.064,-189.599 982.514,-190.572 991.368,-196.39 993.064,-189.599"/>
</g>
<!-- Node12 -->
<g id="node12" class="node"><title>Node12</title>
<g id="a_node12"><a xlink:href="classDataFlash__Class.html#a46e58faaa53c44516433f6bb7bde4163" target="_top" xlink:title="DataFlash_Class::Log\l_Write_POS">
<polygon fill="white" stroke="black" points="1264,-147 1264,-177 1378,-177 1378,-147 1264,-147"/>
<text text-anchor="start" x="1272" y="-165" font-family="Helvetica,sans-Serif" font-size="10.00">DataFlash_Class::Log</text>
<text text-anchor="middle" x="1321" y="-154" font-family="Helvetica,sans-Serif" font-size="10.00">_Write_POS</text>
</a>
</g>
</g>
<!-- Node11&#45;&gt;Node12 -->
<g id="edge11" class="edge"><title>Node11&#45;&gt;Node12</title>
<path fill="none" stroke="midnightblue" d="M1196.13,-250.579C1201.95,-248.68 1207.65,-246.5 1213,-244 1249.47,-226.967 1285.24,-195.806 1304.78,-177.19"/>
<polygon fill="midnightblue" stroke="midnightblue" points="1194.86,-247.306 1186.27,-253.516 1196.86,-254.014 1194.86,-247.306"/>
</g>
<!-- Node14 -->
<g id="node14" class="node"><title>Node14</title>
<g id="a_node14"><a xlink:href="classGCS__MAVLINK.html#a558ba3447048b78cb9dde460053e2741" target="_top" xlink:title="GCS_MAVLINK::send_ahrs2">
<polygon fill="white" stroke="black" points="1249,-253.5 1249,-272.5 1393,-272.5 1393,-253.5 1249,-253.5"/>
<text text-anchor="middle" x="1321" y="-260.5" font-family="Helvetica,sans-Serif" font-size="10.00">GCS_MAVLINK::send_ahrs2</text>
</a>
</g>
</g>
<!-- Node11&#45;&gt;Node14 -->
<g id="edge13" class="edge"><title>Node11&#45;&gt;Node14</title>
<path fill="none" stroke="midnightblue" d="M1196.52,-263C1213.5,-263 1231.74,-263 1248.85,-263"/>
<polygon fill="midnightblue" stroke="midnightblue" points="1196.13,-259.5 1186.13,-263 1196.13,-266.5 1196.13,-259.5"/>
</g>
<!-- Node13 -->
<g id="node13" class="node"><title>Node13</title>
<g id="a_node13"><a xlink:href="classDataFlash__Class.html#a7868f0e3dcef65ea5b5fcae618f4c5d4" target="_top" xlink:title="DataFlash_Class::get\l_structures">
<polygon fill="white" stroke="black" points="1429,-147 1429,-177 1541,-177 1541,-147 1429,-147"/>
<text text-anchor="start" x="1437" y="-165" font-family="Helvetica,sans-Serif" font-size="10.00">DataFlash_Class::get</text>
<text text-anchor="middle" x="1485" y="-154" font-family="Helvetica,sans-Serif" font-size="10.00">_structures</text>
</a>
</g>
</g>
<!-- Node12&#45;&gt;Node13 -->
<g id="edge12" class="edge"><title>Node12&#45;&gt;Node13</title>
<path fill="none" stroke="midnightblue" d="M1388.39,-162C1401.89,-162 1415.94,-162 1428.99,-162"/>
<polygon fill="midnightblue" stroke="midnightblue" points="1388.21,-158.5 1378.21,-162 1388.21,-165.5 1388.21,-158.5"/>
</g>
<!-- Node18 -->
<g id="node18" class="node"><title>Node18</title>
<g id="a_node18"><a xlink:href="classAP__AHRS__NavEKF.html#ac8111979c5dc37a55b2c50818534ea52" target="_top" xlink:title="AP_AHRS_NavEKF::update">
<polygon fill="white" stroke="black" points="1250,-80.5 1250,-99.5 1392,-99.5 1392,-80.5 1250,-80.5"/>
<text text-anchor="middle" x="1321" y="-87.5" font-family="Helvetica,sans-Serif" font-size="10.00">AP_AHRS_NavEKF::update</text>
</a>
</g>
</g>
<!-- Node17&#45;&gt;Node18 -->
<g id="edge17" class="edge"><title>Node17&#45;&gt;Node18</title>
<path fill="none" stroke="midnightblue" d="M1203.41,-211.186C1206.78,-209.366 1210,-207.313 1213,-205 1240.07,-184.101 1226.03,-162.334 1249,-137 1263.6,-120.901 1284.84,-107.794 1300.28,-99.5505"/>
<polygon fill="midnightblue" stroke="midnightblue" points="1201.77,-208.089 1194.18,-215.482 1204.72,-214.436 1201.77,-208.089"/>
</g>
<!-- Node19 -->
<g id="node19" class="node"><title>Node19</title>
<g id="a_node19"><a xlink:href="AHRS__Test_8cpp.html#a0b33edabd7f1c4e4a0bf32c67269be2f" target="_top" xlink:title="loop">
<polygon fill="white" stroke="black" points="1467.5,-80.5 1467.5,-99.5 1502.5,-99.5 1502.5,-80.5 1467.5,-80.5"/>
<text text-anchor="middle" x="1485" y="-87.5" font-family="Helvetica,sans-Serif" font-size="10.00">loop</text>
</a>
</g>
</g>
<!-- Node18&#45;&gt;Node19 -->
<g id="edge18" class="edge"><title>Node18&#45;&gt;Node19</title>
<path fill="none" stroke="midnightblue" d="M1402.29,-90C1426.99,-90 1451.78,-90 1467.47,-90"/>
<polygon fill="midnightblue" stroke="midnightblue" points="1402.11,-86.5001 1392.11,-90 1402.11,-93.5001 1402.11,-86.5001"/>
</g>
<!-- Node21 -->
<g id="node21" class="node"><title>Node21</title>
<g id="a_node21"><a xlink:href="classNavEKF2__core.html#a5f5c815cbd5ebba30d731f89f87726c3" target="_top" xlink:title="NavEKF2_core::UpdateFilter">
<polygon fill="white" stroke="black" points="703,-220.5 703,-239.5 846,-239.5 846,-220.5 703,-220.5"/>
<text text-anchor="middle" x="774.5" y="-227.5" font-family="Helvetica,sans-Serif" font-size="10.00">NavEKF2_core::UpdateFilter</text>
</a>
</g>
</g>
<!-- Node20&#45;&gt;Node21 -->
<g id="edge20" class="edge"><title>Node20&#45;&gt;Node21</title>
<path fill="none" stroke="midnightblue" d="M677.495,-230C685.955,-230 694.485,-230 702.786,-230"/>
<polygon fill="midnightblue" stroke="midnightblue" points="677.232,-226.5 667.232,-230 677.232,-233.5 677.232,-226.5"/>
</g>
<!-- Node22 -->
<g id="node22" class="node"><title>Node22</title>
<g id="a_node22"><a xlink:href="classNavEKF2.html#a72815b1bbd9d7ceb0ff7ae52d14516df" target="_top" xlink:title="NavEKF2::UpdateFilter">
<polygon fill="white" stroke="black" points="884,-220.5 884,-239.5 1003,-239.5 1003,-220.5 884,-220.5"/>
<text text-anchor="middle" x="943.5" y="-227.5" font-family="Helvetica,sans-Serif" font-size="10.00">NavEKF2::UpdateFilter</text>
</a>
</g>
</g>
<!-- Node21&#45;&gt;Node22 -->
<g id="edge21" class="edge"><title>Node21&#45;&gt;Node22</title>
<path fill="none" stroke="midnightblue" d="M856.372,-230C865.669,-230 875.01,-230 883.932,-230"/>
<polygon fill="midnightblue" stroke="midnightblue" points="856.323,-226.5 846.323,-230 856.323,-233.5 856.323,-226.5"/>
</g>
<!-- Node22&#45;&gt;Node11 -->
<g id="edge22" class="edge"><title>Node22&#45;&gt;Node11</title>
<path fill="none" stroke="midnightblue" d="M1007.1,-241.381C1028.78,-245.324 1052.85,-249.699 1073.62,-253.476"/>
<polygon fill="midnightblue" stroke="midnightblue" points="1007.46,-237.89 996.997,-239.545 1006.21,-244.777 1007.46,-237.89"/>
</g>
<!-- Node22&#45;&gt;Node17 -->
<g id="edge23" class="edge"><title>Node22&#45;&gt;Node17</title>
<path fill="none" stroke="midnightblue" d="M1013.2,-228.107C1022.22,-227.859 1031.55,-227.602 1040.79,-227.347"/>
<polygon fill="midnightblue" stroke="midnightblue" points="1013.08,-224.609 1003.18,-228.384 1013.27,-231.607 1013.08,-224.609"/>
</g>
<!-- Node24 -->
<g id="node24" class="node"><title>Node24</title>
<g id="a_node24"><a xlink:href="classNavEKF3__core.html#ac8dc281034818e5fc9b2207daa2b7c3a" target="_top" xlink:title="NavEKF3_core::readGpsData">
<polygon fill="white" stroke="black" points="335,-127.5 335,-146.5 482,-146.5 482,-127.5 335,-127.5"/>
<text text-anchor="middle" x="408.5" y="-134.5" font-family="Helvetica,sans-Serif" font-size="10.00">NavEKF3_core::readGpsData</text>
</a>
</g>
</g>
<!-- Node23&#45;&gt;Node24 -->
<g id="edge25" class="edge"><title>Node23&#45;&gt;Node24</title>
<path fill="none" stroke="midnightblue" d="M309.069,-139.704C317.696,-139.467 326.413,-139.228 334.907,-138.994"/>
<polygon fill="midnightblue" stroke="midnightblue" points="308.902,-136.207 299.002,-139.981 309.094,-143.205 308.902,-136.207"/>
</g>
<!-- Node25 -->
<g id="node25" class="node"><title>Node25</title>
<g id="a_node25"><a xlink:href="classNavEKF3__core.html#aae18ada44b1b7be0d45af03391ef961a" target="_top" xlink:title="NavEKF3_core::Initialise\lFilterBootstrap">
<polygon fill="white" stroke="black" points="712,-122 712,-152 837,-152 837,-122 712,-122"/>
<text text-anchor="start" x="720" y="-140" font-family="Helvetica,sans-Serif" font-size="10.00">NavEKF3_core::Initialise</text>
<text text-anchor="middle" x="774.5" y="-129" font-family="Helvetica,sans-Serif" font-size="10.00">FilterBootstrap</text>
</a>
</g>
</g>
<!-- Node24&#45;&gt;Node25 -->
<g id="edge26" class="edge"><title>Node24&#45;&gt;Node25</title>
<path fill="none" stroke="midnightblue" d="M492.351,-137C559.067,-137 651.367,-137 711.733,-137"/>
<polygon fill="midnightblue" stroke="midnightblue" points="492.286,-133.5 482.286,-137 492.286,-140.5 492.286,-133.5"/>
</g>
<!-- Node29 -->
<g id="node29" class="node"><title>Node29</title>
<g id="a_node29"><a xlink:href="classNavEKF3__core.html#a8f4723dabc873f7112948a18b290fb01" target="_top" xlink:title="NavEKF3_core::SelectVelPos\lFusion">
<polygon fill="white" stroke="black" points="518,-78 518,-108 667,-108 667,-78 518,-78"/>
<text text-anchor="start" x="526" y="-96" font-family="Helvetica,sans-Serif" font-size="10.00">NavEKF3_core::SelectVelPos</text>
<text text-anchor="middle" x="592.5" y="-85" font-family="Helvetica,sans-Serif" font-size="10.00">Fusion</text>
</a>
</g>
</g>
<!-- Node24&#45;&gt;Node29 -->
<g id="edge34" class="edge"><title>Node24&#45;&gt;Node29</title>
<path fill="none" stroke="midnightblue" d="M458.95,-125.045C480.601,-119.811 506.247,-113.611 529.184,-108.065"/>
<polygon fill="midnightblue" stroke="midnightblue" points="457.889,-121.701 448.991,-127.453 459.534,-128.505 457.889,-121.701"/>
</g>
<!-- Node26 -->
<g id="node26" class="node"><title>Node26</title>
<g id="a_node26"><a xlink:href="classNavEKF3.html#a07f064fa513fbb6e7188141904f3b5b5" target="_top" xlink:title="NavEKF3::InitialiseFilter">
<polygon fill="white" stroke="black" points="882,-127.5 882,-146.5 1005,-146.5 1005,-127.5 882,-127.5"/>
<text text-anchor="middle" x="943.5" y="-134.5" font-family="Helvetica,sans-Serif" font-size="10.00">NavEKF3::InitialiseFilter</text>
</a>
</g>
</g>
<!-- Node25&#45;&gt;Node26 -->
<g id="edge27" class="edge"><title>Node25&#45;&gt;Node26</title>
<path fill="none" stroke="midnightblue" d="M847.249,-137C858.788,-137 870.633,-137 881.878,-137"/>
<polygon fill="midnightblue" stroke="midnightblue" points="847.21,-133.5 837.21,-137 847.21,-140.5 847.21,-133.5"/>
</g>
<!-- Node26&#45;&gt;Node15 -->
<g id="edge30" class="edge"><title>Node26&#45;&gt;Node15</title>
<path fill="none" stroke="midnightblue" d="M1015.2,-137C1029.86,-137 1045.26,-137 1059.75,-137"/>
<polygon fill="midnightblue" stroke="midnightblue" points="1015.19,-133.5 1005.19,-137 1015.19,-140.5 1015.19,-133.5"/>
</g>
<!-- Node26&#45;&gt;Node16 -->
<g id="edge31" class="edge"><title>Node26&#45;&gt;Node16</title>
<path fill="none" stroke="midnightblue" d="M993.815,-148.955C1015.41,-154.189 1040.98,-160.389 1063.86,-165.935"/>
<polygon fill="midnightblue" stroke="midnightblue" points="994.426,-145.502 983.883,-146.547 992.777,-152.305 994.426,-145.502"/>
</g>
<!-- Node27 -->
<g id="node27" class="node"><title>Node27</title>
<g id="a_node27"><a xlink:href="classNavEKF3.html#a3e1f50ad977a17222fcd7a6851b0f2ec" target="_top" xlink:title="NavEKF3::activeCores">
<polygon fill="white" stroke="black" points="1068,-89.5 1068,-108.5 1186,-108.5 1186,-89.5 1068,-89.5"/>
<text text-anchor="middle" x="1127" y="-96.5" font-family="Helvetica,sans-Serif" font-size="10.00">NavEKF3::activeCores</text>
</a>
</g>
</g>
<!-- Node26&#45;&gt;Node27 -->
<g id="edge28" class="edge"><title>Node26&#45;&gt;Node27</title>
<path fill="none" stroke="midnightblue" d="M1000.29,-125.319C1026.03,-119.93 1056.2,-113.614 1080.53,-108.52"/>
<polygon fill="midnightblue" stroke="midnightblue" points="999.371,-121.936 990.3,-127.411 1000.81,-128.787 999.371,-121.936"/>
</g>
<!-- Node28 -->
<g id="node28" class="node"><title>Node28</title>
<g id="a_node28"><a xlink:href="classAP__AHRS__NavEKF.html#a324160404f12959e955554f5aed26459" target="_top" xlink:title="AP_AHRS_NavEKF::update_EKF3">
<polygon fill="white" stroke="black" points="1041,-51.5 1041,-70.5 1213,-70.5 1213,-51.5 1041,-51.5"/>
<text text-anchor="middle" x="1127" y="-58.5" font-family="Helvetica,sans-Serif" font-size="10.00">AP_AHRS_NavEKF::update_EKF3</text>
</a>
</g>
</g>
<!-- Node26&#45;&gt;Node28 -->
<g id="edge32" class="edge"><title>Node26&#45;&gt;Node28</title>
<path fill="none" stroke="midnightblue" d="M982.675,-123.509C990.305,-120.188 998.091,-116.324 1005,-112 1023.15,-100.642 1021.95,-89.7576 1041,-80 1048.54,-76.1403 1056.84,-73.0601 1065.22,-70.6029"/>
<polygon fill="midnightblue" stroke="midnightblue" points="981.088,-120.378 973.172,-127.421 983.752,-126.851 981.088,-120.378"/>
</g>
<!-- Node27&#45;&gt;Node12 -->
<g id="edge29" class="edge"><title>Node27&#45;&gt;Node12</title>
<path fill="none" stroke="midnightblue" d="M1187.15,-110.857C1195.88,-113.001 1204.72,-115.393 1213,-118 1238.48,-126.023 1266.37,-137.585 1287.28,-146.845"/>
<polygon fill="midnightblue" stroke="midnightblue" points="1187.91,-107.44 1177.37,-108.544 1186.3,-114.252 1187.91,-107.44"/>
</g>
<!-- Node28&#45;&gt;Node18 -->
<g id="edge33" class="edge"><title>Node28&#45;&gt;Node18</title>
<path fill="none" stroke="midnightblue" d="M1201.18,-72.0532C1219.51,-74.8225 1239.03,-77.7697 1256.83,-80.4584"/>
<polygon fill="midnightblue" stroke="midnightblue" points="1201.54,-68.5687 1191.13,-70.5359 1200.5,-75.4902 1201.54,-68.5687"/>
</g>
<!-- Node30 -->
<g id="node30" class="node"><title>Node30</title>
<g id="a_node30"><a xlink:href="classNavEKF3__core.html#a2a7fae9e0bf2ce6fc2f9b3918dc168d3" target="_top" xlink:title="NavEKF3_core::UpdateFilter">
<polygon fill="white" stroke="black" points="703,-83.5 703,-102.5 846,-102.5 846,-83.5 703,-83.5"/>
<text text-anchor="middle" x="774.5" y="-90.5" font-family="Helvetica,sans-Serif" font-size="10.00">NavEKF3_core::UpdateFilter</text>
</a>
</g>
</g>
<!-- Node29&#45;&gt;Node30 -->
<g id="edge35" class="edge"><title>Node29&#45;&gt;Node30</title>
<path fill="none" stroke="midnightblue" d="M677.495,-93C685.955,-93 694.485,-93 702.786,-93"/>
<polygon fill="midnightblue" stroke="midnightblue" points="677.232,-89.5001 667.232,-93 677.232,-96.5001 677.232,-89.5001"/>
</g>
<!-- Node31 -->
<g id="node31" class="node"><title>Node31</title>
<g id="a_node31"><a xlink:href="classNavEKF3.html#a477020fcf29376e0c2205dbf79728104" target="_top" xlink:title="NavEKF3::UpdateFilter">
<polygon fill="white" stroke="black" points="884,-83.5 884,-102.5 1003,-102.5 1003,-83.5 884,-83.5"/>
<text text-anchor="middle" x="943.5" y="-90.5" font-family="Helvetica,sans-Serif" font-size="10.00">NavEKF3::UpdateFilter</text>
</a>
</g>
</g>
<!-- Node30&#45;&gt;Node31 -->
<g id="edge36" class="edge"><title>Node30&#45;&gt;Node31</title>
<path fill="none" stroke="midnightblue" d="M856.372,-93C865.669,-93 875.01,-93 883.932,-93"/>
<polygon fill="midnightblue" stroke="midnightblue" points="856.323,-89.5001 846.323,-93 856.323,-96.5001 856.323,-89.5001"/>
</g>
<!-- Node31&#45;&gt;Node27 -->
<g id="edge37" class="edge"><title>Node31&#45;&gt;Node27</title>
<path fill="none" stroke="midnightblue" d="M1013.31,-95.2746C1031.28,-95.8687 1050.47,-96.5033 1067.84,-97.0772"/>
<polygon fill="midnightblue" stroke="midnightblue" points="1013.29,-91.7721 1003.18,-94.9397 1013.06,-98.7683 1013.29,-91.7721"/>
</g>
<!-- Node31&#45;&gt;Node28 -->
<g id="edge38" class="edge"><title>Node31&#45;&gt;Node28</title>
<path fill="none" stroke="midnightblue" d="M1008.46,-81.7235C1029.2,-78.0673 1051.98,-74.0496 1071.93,-70.533"/>
<polygon fill="midnightblue" stroke="midnightblue" points="1007.7,-78.3024 998.465,-83.4856 1008.92,-85.196 1007.7,-78.3024"/>
</g>
<!-- Node35 -->
<g id="node35" class="node"><title>Node35</title>
<g id="a_node35"><a xlink:href="Printf_8cpp.html#a0b33edabd7f1c4e4a0bf32c67269be2f" target="_top" xlink:title="loop">
<polygon fill="white" stroke="black" points="391,-0.5 391,-19.5 426,-19.5 426,-0.5 391,-0.5"/>
<text text-anchor="middle" x="408.5" y="-7.5" font-family="Helvetica,sans-Serif" font-size="10.00">loop</text>
</a>
</g>
</g>
<!-- Node34&#45;&gt;Node35 -->
<g id="edge42" class="edge"><title>Node34&#45;&gt;Node35</title>
<path fill="none" stroke="midnightblue" d="M264.768,-10C304.019,-10 362.496,-10 390.866,-10"/>
<polygon fill="midnightblue" stroke="midnightblue" points="264.741,-6.5001 254.741,-10 264.741,-13.5001 264.741,-6.5001"/>
</g>
</g>
</svg>
