<?xml version="1.0" encoding="UTF-8" standalone="no"?>
<!DOCTYPE svg PUBLIC "-//W3C//DTD SVG 1.1//EN"
 "http://www.w3.org/Graphics/SVG/1.1/DTD/svg11.dtd">
<!-- Generated by graphviz version 2.38.0 (20140413.2041)
 -->
<!-- Title: AP_HAL::UARTDriver::set_flow_control Pages: 1 -->
<!--zoomable 204 -->
<svg id="main" version="1.1" xmlns="http://www.w3.org/2000/svg" xmlns:xlink="http://www.w3.org/1999/xlink" xml:space="preserve" onload="init(evt)">
<style type="text/css"><![CDATA[
.edge:hover path { stroke: red; }
.edge:hover polygon { stroke: red; fill: red; }
]]></style>
<script type="text/javascript"><![CDATA[
var edges = document.getElementsByTagName('g');
if (edges && edges.length) {
  for (var i=0;i<edges.length;i++) {
    if (edges[i].id.substr(0,4)=='edge') {
      edges[i].setAttribute('class','edge');
    }
  }
}
]]></script>
        <defs>
                <circle id="rim" cx="0" cy="0" r="7"/>
                <circle id="rim2" cx="0" cy="0" r="3.5"/>
                <g id="zoomPlus">
                        <use xlink:href="#rim" fill="#404040">
                                <set attributeName="fill" to="#808080" begin="zoomplus.mouseover" end="zoomplus.mouseout"/>
                        </use>
                        <path d="M-4,0h8M0,-4v8" fill="none" stroke="white" stroke-width="1.5" pointer-events="none"/>
                </g>
                <g id="zoomMin">
                        <use xlink:href="#rim" fill="#404040">
                                <set attributeName="fill" to="#808080" begin="zoomminus.mouseover" end="zoomminus.mouseout"/>
                        </use>
                        <path d="M-4,0h8" fill="none" stroke="white" stroke-width="1.5" pointer-events="none"/>
                </g>
                <g id="dirArrow">
                        <path fill="none" stroke="white" stroke-width="1.5" d="M0,-3.0v7 M-2.5,-0.5L0,-3.0L2.5,-0.5"/>
                </g>
               <g id="resetDef">
                       <use xlink:href="#rim2" fill="#404040">
                               <set attributeName="fill" to="#808080" begin="reset.mouseover" end="reset.mouseout"/>
                       </use>
               </g>
        </defs>

<script type="text/javascript">
var viewWidth = 937;
var viewHeight = 204;
var sectionId = 'dynsection-11';
</script>
<script xlink:href="svgpan.js"/>
<svg id="graph" class="graph">
<g id="viewport">
<title>AP_HAL::UARTDriver::set_flow_control</title>
<polygon fill="white" stroke="none" points="-4,4 -4,-200 933,-200 933,4 -4,4"/>
<!-- Node1 -->
<g id="node1" class="node"><title>Node1</title>
<polygon fill="#bfbfbf" stroke="black" points="0,-83 0,-113 115,-113 115,-83 0,-83"/>
<text text-anchor="start" x="8" y="-101" font-family="Helvetica,sans-Serif" font-size="10.00">AP_HAL::UARTDriver</text>
<text text-anchor="middle" x="57.5" y="-90" font-family="Helvetica,sans-Serif" font-size="10.00">::set_flow_control</text>
</g>
<!-- Node2 -->
<g id="node2" class="node"><title>Node2</title>
<g id="a_node2"><a xlink:href="classAP__GPS.html#a4bdd5c70ed358b4147a58c7d09f040dd" target="_top" xlink:title="AP_GPS::detect_instance">
<polygon fill="white" stroke="black" points="155.5,-176.5 155.5,-195.5 286.5,-195.5 286.5,-176.5 155.5,-176.5"/>
<text text-anchor="middle" x="221" y="-183.5" font-family="Helvetica,sans-Serif" font-size="10.00">AP_GPS::detect_instance</text>
</a>
</g>
</g>
<!-- Node1&#45;&gt;Node2 -->
<g id="edge1" class="edge"><title>Node1&#45;&gt;Node2</title>
<path fill="none" stroke="midnightblue" d="M82.2322,-119.636C100.012,-134.821 125.559,-154.56 151,-167 158.702,-170.766 167.264,-173.882 175.664,-176.425"/>
<polygon fill="midnightblue" stroke="midnightblue" points="84.4777,-116.951 74.6379,-113.023 79.8805,-122.229 84.4777,-116.951"/>
</g>
<!-- Node6 -->
<g id="node6" class="node"><title>Node6</title>
<g id="a_node6"><a xlink:href="classGCS__MAVLINK.html#adecc982b9dd27229f29b0756733ed137" target="_top" xlink:title="GCS_MAVLINK::handle\l_serial_control">
<polygon fill="white" stroke="black" points="160,-127 160,-157 282,-157 282,-127 160,-127"/>
<text text-anchor="start" x="168" y="-145" font-family="Helvetica,sans-Serif" font-size="10.00">GCS_MAVLINK::handle</text>
<text text-anchor="middle" x="221" y="-134" font-family="Helvetica,sans-Serif" font-size="10.00">_serial_control</text>
</a>
</g>
</g>
<!-- Node1&#45;&gt;Node6 -->
<g id="edge5" class="edge"><title>Node1&#45;&gt;Node6</title>
<path fill="none" stroke="midnightblue" d="M123.478,-115.703C137.191,-119.439 151.537,-123.347 164.847,-126.974"/>
<polygon fill="midnightblue" stroke="midnightblue" points="124.196,-112.271 113.627,-113.019 122.356,-119.025 124.196,-112.271"/>
</g>
<!-- Node7 -->
<g id="node7" class="node"><title>Node7</title>
<g id="a_node7"><a xlink:href="classAP__Frsky__Telem.html#a85793f92cf5c6c01c6335db43a65579a" target="_top" xlink:title="AP_Frsky_Telem::init">
<polygon fill="white" stroke="black" points="165.5,-88.5 165.5,-107.5 276.5,-107.5 276.5,-88.5 165.5,-88.5"/>
<text text-anchor="middle" x="221" y="-95.5" font-family="Helvetica,sans-Serif" font-size="10.00">AP_Frsky_Telem::init</text>
</a>
</g>
</g>
<!-- Node1&#45;&gt;Node7 -->
<g id="edge6" class="edge"><title>Node1&#45;&gt;Node7</title>
<path fill="none" stroke="midnightblue" d="M125.495,-98C138.808,-98 152.636,-98 165.472,-98"/>
<polygon fill="midnightblue" stroke="midnightblue" points="125.439,-94.5001 115.439,-98 125.439,-101.5 125.439,-94.5001"/>
</g>
<!-- Node8 -->
<g id="node8" class="node"><title>Node8</title>
<g id="a_node8"><a xlink:href="classAP__BoardConfig.html#ab0066dbd39cdaa64ca2928026206c014" target="_top" xlink:title="AP_BoardConfig::px4\l_setup_uart">
<polygon fill="white" stroke="black" points="165.5,-39 165.5,-69 276.5,-69 276.5,-39 165.5,-39"/>
<text text-anchor="start" x="173.5" y="-57" font-family="Helvetica,sans-Serif" font-size="10.00">AP_BoardConfig::px4</text>
<text text-anchor="middle" x="221" y="-46" font-family="Helvetica,sans-Serif" font-size="10.00">_setup_uart</text>
</a>
</g>
</g>
<!-- Node1&#45;&gt;Node8 -->
<g id="edge7" class="edge"><title>Node1&#45;&gt;Node8</title>
<path fill="none" stroke="midnightblue" d="M123.588,-80.267C137.457,-76.4886 151.966,-72.5355 165.395,-68.877"/>
<polygon fill="midnightblue" stroke="midnightblue" points="122.356,-76.9751 113.627,-82.9808 124.196,-83.729 122.356,-76.9751"/>
</g>
<!-- Node16 -->
<g id="node16" class="node"><title>Node16</title>
<g id="a_node16"><a xlink:href="classGCS__MAVLINK.html#a0680c93d81d7de3273931c5bccc890f5" target="_top" xlink:title="GCS_MAVLINK::setup_uart">
<polygon fill="white" stroke="black" points="151,-0.5 151,-19.5 291,-19.5 291,-0.5 151,-0.5"/>
<text text-anchor="middle" x="221" y="-7.5" font-family="Helvetica,sans-Serif" font-size="10.00">GCS_MAVLINK::setup_uart</text>
</a>
</g>
</g>
<!-- Node1&#45;&gt;Node16 -->
<g id="edge15" class="edge"><title>Node1&#45;&gt;Node16</title>
<path fill="none" stroke="midnightblue" d="M82.995,-76.2454C100.793,-61.4138 126.04,-42.3047 151,-30 159.502,-25.8087 169.037,-22.3432 178.243,-19.5421"/>
<polygon fill="midnightblue" stroke="midnightblue" points="80.7277,-73.579 75.3697,-82.7191 85.2582,-78.9153 80.7277,-73.579"/>
</g>
<!-- Node3 -->
<g id="node3" class="node"><title>Node3</title>
<g id="a_node3"><a xlink:href="classAP__GPS.html#a83302e8b52e5d01ae67375b3542eb460" target="_top" xlink:title="AP_GPS::update_instance">
<polygon fill="white" stroke="black" points="327,-176.5 327,-195.5 461,-195.5 461,-176.5 327,-176.5"/>
<text text-anchor="middle" x="394" y="-183.5" font-family="Helvetica,sans-Serif" font-size="10.00">AP_GPS::update_instance</text>
</a>
</g>
</g>
<!-- Node2&#45;&gt;Node3 -->
<g id="edge2" class="edge"><title>Node2&#45;&gt;Node3</title>
<path fill="none" stroke="midnightblue" d="M296.932,-186C306.891,-186 317.044,-186 326.839,-186"/>
<polygon fill="midnightblue" stroke="midnightblue" points="296.648,-182.5 286.648,-186 296.648,-189.5 296.648,-182.5"/>
</g>
<!-- Node4 -->
<g id="node4" class="node"><title>Node4</title>
<g id="a_node4"><a xlink:href="classAP__GPS.html#afe04427a47ab5e630cb979815abd911e" target="_top" xlink:title="AP_GPS::update">
<polygon fill="white" stroke="black" points="505,-176.5 505,-195.5 597,-195.5 597,-176.5 505,-176.5"/>
<text text-anchor="middle" x="551" y="-183.5" font-family="Helvetica,sans-Serif" font-size="10.00">AP_GPS::update</text>
</a>
</g>
</g>
<!-- Node3&#45;&gt;Node4 -->
<g id="edge3" class="edge"><title>Node3&#45;&gt;Node4</title>
<path fill="none" stroke="midnightblue" d="M471.198,-186C482.634,-186 494.107,-186 504.622,-186"/>
<polygon fill="midnightblue" stroke="midnightblue" points="471.184,-182.5 461.184,-186 471.184,-189.5 471.184,-182.5"/>
</g>
<!-- Node5 -->
<g id="node5" class="node"><title>Node5</title>
<g id="a_node5"><a xlink:href="GPS__AUTO__test_8cpp.html#afe461d27b9c48d5921c00d521181f12f" target="_top" xlink:title="loop">
<polygon fill="white" stroke="black" points="678,-176.5 678,-195.5 713,-195.5 713,-176.5 678,-176.5"/>
<text text-anchor="middle" x="695.5" y="-183.5" font-family="Helvetica,sans-Serif" font-size="10.00">loop</text>
</a>
</g>
</g>
<!-- Node4&#45;&gt;Node5 -->
<g id="edge4" class="edge"><title>Node4&#45;&gt;Node5</title>
<path fill="none" stroke="midnightblue" d="M607.331,-186C632.587,-186 660.655,-186 677.944,-186"/>
<polygon fill="midnightblue" stroke="midnightblue" points="607.088,-182.5 597.088,-186 607.088,-189.5 607.088,-182.5"/>
</g>
<!-- Node9 -->
<g id="node9" class="node"><title>Node9</title>
<g id="a_node9"><a xlink:href="classAP__BoardConfig.html#acc8c8524ca7415a823bb446a8a09d1f1" target="_top" xlink:title="AP_BoardConfig::px4\l_setup">
<polygon fill="white" stroke="black" points="338.5,-39 338.5,-69 449.5,-69 449.5,-39 338.5,-39"/>
<text text-anchor="start" x="346.5" y="-57" font-family="Helvetica,sans-Serif" font-size="10.00">AP_BoardConfig::px4</text>
<text text-anchor="middle" x="394" y="-46" font-family="Helvetica,sans-Serif" font-size="10.00">_setup</text>
</a>
</g>
</g>
<!-- Node8&#45;&gt;Node9 -->
<g id="edge8" class="edge"><title>Node8&#45;&gt;Node9</title>
<path fill="none" stroke="midnightblue" d="M286.956,-54C303.906,-54 322.001,-54 338.356,-54"/>
<polygon fill="midnightblue" stroke="midnightblue" points="286.576,-50.5001 276.576,-54 286.576,-57.5001 286.576,-50.5001"/>
</g>
<!-- Node10 -->
<g id="node10" class="node"><title>Node10</title>
<g id="a_node10"><a xlink:href="classAP__BoardConfig.html#a53de1d2c0a124ff0d6e3455126237bb5" target="_top" xlink:title="AP_BoardConfig::init">
<polygon fill="white" stroke="black" points="497,-44.5 497,-63.5 605,-63.5 605,-44.5 497,-44.5"/>
<text text-anchor="middle" x="551" y="-51.5" font-family="Helvetica,sans-Serif" font-size="10.00">AP_BoardConfig::init</text>
</a>
</g>
</g>
<!-- Node9&#45;&gt;Node10 -->
<g id="edge9" class="edge"><title>Node9&#45;&gt;Node10</title>
<path fill="none" stroke="midnightblue" d="M459.874,-54C472.205,-54 484.975,-54 496.888,-54"/>
<polygon fill="midnightblue" stroke="midnightblue" points="459.647,-50.5001 449.647,-54 459.647,-57.5001 459.647,-50.5001"/>
</g>
<!-- Node11 -->
<g id="node11" class="node"><title>Node11</title>
<g id="a_node11"><a xlink:href="classAP__BoardConfig.html#a49a7027797d4a5fd9be56b55c85b8e90" target="_top" xlink:title="AP_BoardConfig::AP\l_BoardConfig">
<polygon fill="white" stroke="black" points="641,-83 641,-113 750,-113 750,-83 641,-83"/>
<text text-anchor="start" x="649" y="-101" font-family="Helvetica,sans-Serif" font-size="10.00">AP_BoardConfig::AP</text>
<text text-anchor="middle" x="695.5" y="-90" font-family="Helvetica,sans-Serif" font-size="10.00">_BoardConfig</text>
</a>
</g>
</g>
<!-- Node10&#45;&gt;Node11 -->
<g id="edge10" class="edge"><title>Node10&#45;&gt;Node11</title>
<path fill="none" stroke="midnightblue" d="M592.804,-66.5992C609.301,-71.6931 628.481,-77.6151 645.709,-82.9346"/>
<polygon fill="midnightblue" stroke="midnightblue" points="593.508,-63.1535 582.92,-63.5473 591.443,-69.8419 593.508,-63.1535"/>
</g>
<!-- Node12 -->
<g id="node12" class="node"><title>Node12</title>
<g id="a_node12"><a xlink:href="classSchedTest.html#ae9afb73f76391e34d47286a516fe5292" target="_top" xlink:title="SchedTest::setup">
<polygon fill="white" stroke="black" points="648.5,-44.5 648.5,-63.5 742.5,-63.5 742.5,-44.5 648.5,-44.5"/>
<text text-anchor="middle" x="695.5" y="-51.5" font-family="Helvetica,sans-Serif" font-size="10.00">SchedTest::setup</text>
</a>
</g>
</g>
<!-- Node10&#45;&gt;Node12 -->
<g id="edge11" class="edge"><title>Node10&#45;&gt;Node12</title>
<path fill="none" stroke="midnightblue" d="M615.216,-54C626.389,-54 637.83,-54 648.419,-54"/>
<polygon fill="midnightblue" stroke="midnightblue" points="615.062,-50.5001 605.062,-54 615.062,-57.5001 615.062,-50.5001"/>
</g>
<!-- Node15 -->
<g id="node15" class="node"><title>Node15</title>
<g id="a_node15"><a xlink:href="AHRS__Test_8cpp.html#a7dfd9b79bc5a37d7df40207afbc5431f" target="_top" xlink:title="setup">
<polygon fill="white" stroke="black" points="675,-6.5 675,-25.5 716,-25.5 716,-6.5 675,-6.5"/>
<text text-anchor="middle" x="695.5" y="-13.5" font-family="Helvetica,sans-Serif" font-size="10.00">setup</text>
</a>
</g>
</g>
<!-- Node10&#45;&gt;Node15 -->
<g id="edge14" class="edge"><title>Node10&#45;&gt;Node15</title>
<path fill="none" stroke="midnightblue" d="M597.645,-41.828C623.681,-34.8851 654.979,-26.539 674.808,-21.2513"/>
<polygon fill="midnightblue" stroke="midnightblue" points="596.719,-38.4525 587.959,-44.411 598.523,-45.2161 596.719,-38.4525"/>
</g>
<!-- Node13 -->
<g id="node13" class="node"><title>Node13</title>
<g id="a_node13"><a xlink:href="classSchedTest.html#ab41681c4e9b1eda12cc3f85ed89e82cf" target="_top" xlink:title="SchedTest::five_second_call">
<polygon fill="white" stroke="black" points="786,-63.5 786,-82.5 929,-82.5 929,-63.5 786,-63.5"/>
<text text-anchor="middle" x="857.5" y="-70.5" font-family="Helvetica,sans-Serif" font-size="10.00">SchedTest::five_second_call</text>
</a>
</g>
</g>
<!-- Node12&#45;&gt;Node13 -->
<g id="edge12" class="edge"><title>Node12&#45;&gt;Node13</title>
<path fill="none" stroke="midnightblue" d="M752.816,-60.6875C763.512,-61.9577 774.83,-63.3016 785.903,-64.6166"/>
<polygon fill="midnightblue" stroke="midnightblue" points="753.122,-57.1993 742.779,-59.4956 752.296,-64.1505 753.122,-57.1993"/>
</g>
<!-- Node14 -->
<g id="node14" class="node"><title>Node14</title>
<g id="a_node14"><a xlink:href="Scheduler__test_8cpp.html#a7dfd9b79bc5a37d7df40207afbc5431f" target="_top" xlink:title="setup">
<polygon fill="white" stroke="black" points="837,-25.5 837,-44.5 878,-44.5 878,-25.5 837,-25.5"/>
<text text-anchor="middle" x="857.5" y="-32.5" font-family="Helvetica,sans-Serif" font-size="10.00">setup</text>
</a>
</g>
</g>
<!-- Node12&#45;&gt;Node14 -->
<g id="edge13" class="edge"><title>Node12&#45;&gt;Node14</title>
<path fill="none" stroke="midnightblue" d="M752.899,-47.3026C782.139,-43.8304 815.999,-39.8096 836.833,-37.3354"/>
<polygon fill="midnightblue" stroke="midnightblue" points="752.296,-43.8495 742.779,-48.5044 753.122,-50.8007 752.296,-43.8495"/>
</g>
</g>
</svg>
        <g id="navigator" transform="translate(0 0)" fill="#404254">
                <rect fill="#f2f5e9" fill-opacity="0.5" stroke="#606060" stroke-width=".5" x="0" y="0" width="60" height="60"/>
                <use id="zoomplus" xlink:href="#zoomPlus" x="17" y="9" onmousedown="handleZoom(evt,'in')"/>
                <use id="zoomminus" xlink:href="#zoomMin" x="42" y="9" onmousedown="handleZoom(evt,'out')"/>
                <use id="reset" xlink:href="#resetDef" x="30" y="36" onmousedown="handleReset()"/>
                <g id="arrowUp" xlink:href="#dirArrow" transform="translate(30 24)" onmousedown="handlePan(0,-1)">
                  <use xlink:href="#rim" fill="#404040">
                        <set attributeName="fill" to="#808080" begin="arrowUp.mouseover" end="arrowUp.mouseout"/>
                  </use>
                  <path fill="none" stroke="white" stroke-width="1.5" d="M0,-3.0v7 M-2.5,-0.5L0,-3.0L2.5,-0.5"/>
                </g>
                <g id="arrowRight" xlink:href="#dirArrow" transform="rotate(90) translate(36 -43)" onmousedown="handlePan(1,0)">
                  <use xlink:href="#rim" fill="#404040">
                        <set attributeName="fill" to="#808080" begin="arrowRight.mouseover" end="arrowRight.mouseout"/>
                  </use>
                  <path fill="none" stroke="white" stroke-width="1.5" d="M0,-3.0v7 M-2.5,-0.5L0,-3.0L2.5,-0.5"/>
                </g>
                <g id="arrowDown" xlink:href="#dirArrow" transform="rotate(180) translate(-30 -48)" onmousedown="handlePan(0,1)">
                  <use xlink:href="#rim" fill="#404040">
                        <set attributeName="fill" to="#808080" begin="arrowDown.mouseover" end="arrowDown.mouseout"/>
                  </use>
                  <path fill="none" stroke="white" stroke-width="1.5" d="M0,-3.0v7 M-2.5,-0.5L0,-3.0L2.5,-0.5"/>
                </g>
                <g id="arrowLeft" xlink:href="#dirArrow" transform="rotate(270) translate(-36 17)" onmousedown="handlePan(-1,0)">
                  <use xlink:href="#rim" fill="#404040">
                        <set attributeName="fill" to="#808080" begin="arrowLeft.mouseover" end="arrowLeft.mouseout"/>
                  </use>
                  <path fill="none" stroke="white" stroke-width="1.5" d="M0,-3.0v7 M-2.5,-0.5L0,-3.0L2.5,-0.5"/>
                </g>
        </g>
        <svg viewBox="0 0 15 15" width="100%" height="30px" preserveAspectRatio="xMaxYMin meet">
         <g id="arrow_out" transform="scale(0.3 0.3)">
          <a xlink:href="classAP__HAL_1_1UARTDriver_ae831a0d75f4760267d444c522e1271a1_icgraph_org.svg" target="_base">
           <rect id="button" ry="5" rx="5" y="6" x="6" height="38" width="38"
                fill="#f2f5e9" fill-opacity="0.5" stroke="#606060" stroke-width="1.0"/>
           <path id="arrow"
             d="M 11.500037,31.436501 C 11.940474,20.09759 22.043105,11.32322 32.158766,21.979434 L 37.068811,17.246167 C 37.068811,17.246167 37.088388,32 37.088388,32 L 22.160133,31.978069 C 22.160133,31.978069 26.997745,27.140456 26.997745,27.140456 C 18.528582,18.264221 13.291696,25.230495 11.500037,31.436501 z"
             style="fill:#404040;"/>
          </a>
         </g>
        </svg>
</svg>
