<?xml version="1.0" encoding="UTF-8" standalone="no"?>
<!DOCTYPE svg PUBLIC "-//W3C//DTD SVG 1.1//EN"
 "http://www.w3.org/Graphics/SVG/1.1/DTD/svg11.dtd">
<!-- Generated by graphviz version 2.38.0 (20140413.2041)
 -->
<!-- Title: DataFlash_MAVLink::stats_reset Pages: 1 -->
<!--zoomable 133 -->
<svg id="main" version="1.1" xmlns="http://www.w3.org/2000/svg" xmlns:xlink="http://www.w3.org/1999/xlink" xml:space="preserve" onload="init(evt)">
<style type="text/css"><![CDATA[
.edge:hover path { stroke: red; }
.edge:hover polygon { stroke: red; fill: red; }
]]></style>
<script type="text/javascript"><![CDATA[
var edges = document.getElementsByTagName('g');
if (edges && edges.length) {
  for (var i=0;i<edges.length;i++) {
    if (edges[i].id.substr(0,4)=='edge') {
      edges[i].setAttribute('class','edge');
    }
  }
}
]]></script>
        <defs>
                <circle id="rim" cx="0" cy="0" r="7"/>
                <circle id="rim2" cx="0" cy="0" r="3.5"/>
                <g id="zoomPlus">
                        <use xlink:href="#rim" fill="#404040">
                                <set attributeName="fill" to="#808080" begin="zoomplus.mouseover" end="zoomplus.mouseout"/>
                        </use>
                        <path d="M-4,0h8M0,-4v8" fill="none" stroke="white" stroke-width="1.5" pointer-events="none"/>
                </g>
                <g id="zoomMin">
                        <use xlink:href="#rim" fill="#404040">
                                <set attributeName="fill" to="#808080" begin="zoomminus.mouseover" end="zoomminus.mouseout"/>
                        </use>
                        <path d="M-4,0h8" fill="none" stroke="white" stroke-width="1.5" pointer-events="none"/>
                </g>
                <g id="dirArrow">
                        <path fill="none" stroke="white" stroke-width="1.5" d="M0,-3.0v7 M-2.5,-0.5L0,-3.0L2.5,-0.5"/>
                </g>
               <g id="resetDef">
                       <use xlink:href="#rim2" fill="#404040">
                               <set attributeName="fill" to="#808080" begin="reset.mouseover" end="reset.mouseout"/>
                       </use>
               </g>
        </defs>

<script type="text/javascript">
var viewWidth = 766;
var viewHeight = 133;
var sectionId = 'dynsection-48';
</script>
<script xlink:href="svgpan.js"/>
<svg id="graph" class="graph">
<g id="viewport">
<title>DataFlash_MAVLink::stats_reset</title>
<polygon fill="white" stroke="none" points="-4,4 -4,-129 762,-129 762,4 -4,4"/>
<!-- Node1 -->
<g id="node1" class="node"><title>Node1</title>
<polygon fill="#bfbfbf" stroke="black" points="0,-24.5 0,-54.5 113,-54.5 113,-24.5 0,-24.5"/>
<text text-anchor="start" x="8" y="-42.5" font-family="Helvetica,sans-Serif" font-size="10.00">DataFlash_MAVLink::</text>
<text text-anchor="middle" x="56.5" y="-31.5" font-family="Helvetica,sans-Serif" font-size="10.00">stats_reset</text>
</g>
<!-- Node2 -->
<g id="node2" class="node"><title>Node2</title>
<g id="a_node2"><a xlink:href="classDataFlash__MAVLink.html#a16a4ec2ff971ae3ec61b3635a6cc2d96" target="_top" xlink:title="DataFlash_MAVLink::\lstats_init">
<polygon fill="white" stroke="black" points="149,-49.5 149,-79.5 262,-79.5 262,-49.5 149,-49.5"/>
<text text-anchor="start" x="157" y="-67.5" font-family="Helvetica,sans-Serif" font-size="10.00">DataFlash_MAVLink::</text>
<text text-anchor="middle" x="205.5" y="-56.5" font-family="Helvetica,sans-Serif" font-size="10.00">stats_init</text>
</a>
</g>
</g>
<!-- Node1&#45;&gt;Node2 -->
<g id="edge1" class="edge"><title>Node1&#45;&gt;Node2</title>
<path fill="none" stroke="midnightblue" d="M123.078,-50.6526C131.681,-52.1157 140.43,-53.6037 148.847,-55.0352"/>
<polygon fill="midnightblue" stroke="midnightblue" points="123.52,-47.1777 113.074,-48.9514 122.346,-54.0786 123.52,-47.1777"/>
</g>
<!-- Node8 -->
<g id="node8" class="node"><title>Node8</title>
<g id="a_node8"><a xlink:href="classDataFlash__MAVLink.html#af0e5de77619126d8d8d1dd06a389717d" target="_top" xlink:title="DataFlash_MAVLink::\lstats_log">
<polygon fill="white" stroke="black" points="149,-0.5 149,-30.5 262,-30.5 262,-0.5 149,-0.5"/>
<text text-anchor="start" x="157" y="-18.5" font-family="Helvetica,sans-Serif" font-size="10.00">DataFlash_MAVLink::</text>
<text text-anchor="middle" x="205.5" y="-7.5" font-family="Helvetica,sans-Serif" font-size="10.00">stats_log</text>
</a>
</g>
</g>
<!-- Node1&#45;&gt;Node8 -->
<g id="edge7" class="edge"><title>Node1&#45;&gt;Node8</title>
<path fill="none" stroke="midnightblue" d="M123.078,-28.7935C131.681,-27.3889 140.43,-25.9604 148.847,-24.5862"/>
<polygon fill="midnightblue" stroke="midnightblue" points="122.38,-25.361 113.074,-30.4266 123.508,-32.2695 122.38,-25.361"/>
</g>
<!-- Node3 -->
<g id="node3" class="node"><title>Node3</title>
<g id="a_node3"><a xlink:href="classDataFlash__MAVLink.html#ad85131f72fab0573d64700073517387f" target="_top" xlink:title="DataFlash_MAVLink::\lhandle_ack">
<polygon fill="white" stroke="black" points="304.5,-92.5 304.5,-122.5 417.5,-122.5 417.5,-92.5 304.5,-92.5"/>
<text text-anchor="start" x="312.5" y="-110.5" font-family="Helvetica,sans-Serif" font-size="10.00">DataFlash_MAVLink::</text>
<text text-anchor="middle" x="361" y="-99.5" font-family="Helvetica,sans-Serif" font-size="10.00">handle_ack</text>
</a>
</g>
</g>
<!-- Node2&#45;&gt;Node3 -->
<g id="edge2" class="edge"><title>Node2&#45;&gt;Node3</title>
<path fill="none" stroke="midnightblue" d="M270.16,-82.3331C282.189,-85.7028 294.66,-89.1963 306.343,-92.4692"/>
<polygon fill="midnightblue" stroke="midnightblue" points="270.76,-78.8666 260.187,-79.5393 268.872,-85.6071 270.76,-78.8666"/>
</g>
<!-- Node6 -->
<g id="node6" class="node"><title>Node6</title>
<g id="a_node6"><a xlink:href="classDataFlash__MAVLink.html#af592d8475ad88af8fb4246a4fdfcdb60" target="_top" xlink:title="DataFlash_MAVLink::Init">
<polygon fill="white" stroke="black" points="298,-52 298,-71 424,-71 424,-52 298,-52"/>
<text text-anchor="middle" x="361" y="-59" font-family="Helvetica,sans-Serif" font-size="10.00">DataFlash_MAVLink::Init</text>
</a>
</g>
</g>
<!-- Node2&#45;&gt;Node6 -->
<g id="edge5" class="edge"><title>Node2&#45;&gt;Node6</title>
<path fill="none" stroke="midnightblue" d="M272.531,-63.2095C280.971,-63.0445 289.587,-62.8762 297.961,-62.7125"/>
<polygon fill="midnightblue" stroke="midnightblue" points="272.281,-59.7136 262.351,-63.4084 272.418,-66.7123 272.281,-59.7136"/>
</g>
<!-- Node4 -->
<g id="node4" class="node"><title>Node4</title>
<g id="a_node4"><a xlink:href="classDataFlash__MAVLink.html#a45f08a678d9915f37d98b8c356c0ccba" target="_top" xlink:title="DataFlash_MAVLink::\lremote_log_block_status_msg">
<polygon fill="white" stroke="black" points="460,-94.5 460,-124.5 609,-124.5 609,-94.5 460,-94.5"/>
<text text-anchor="start" x="468" y="-112.5" font-family="Helvetica,sans-Serif" font-size="10.00">DataFlash_MAVLink::</text>
<text text-anchor="middle" x="534.5" y="-101.5" font-family="Helvetica,sans-Serif" font-size="10.00">remote_log_block_status_msg</text>
</a>
</g>
</g>
<!-- Node3&#45;&gt;Node4 -->
<g id="edge3" class="edge"><title>Node3&#45;&gt;Node4</title>
<path fill="none" stroke="midnightblue" d="M427.993,-108.27C438.468,-108.392 449.359,-108.519 459.993,-108.643"/>
<polygon fill="midnightblue" stroke="midnightblue" points="427.721,-104.766 417.681,-108.149 427.64,-111.766 427.721,-104.766"/>
</g>
<!-- Node5 -->
<g id="node5" class="node"><title>Node5</title>
<g id="a_node5"><a xlink:href="classDataFlash__MAVLink.html#a7ce5650e9a386a430ca3ba71c7f733f2" target="_top" xlink:title="DataFlash_MAVLink::\lListAvailableLogs">
<polygon fill="white" stroke="black" points="645,-94.5 645,-124.5 758,-124.5 758,-94.5 645,-94.5"/>
<text text-anchor="start" x="653" y="-112.5" font-family="Helvetica,sans-Serif" font-size="10.00">DataFlash_MAVLink::</text>
<text text-anchor="middle" x="701.5" y="-101.5" font-family="Helvetica,sans-Serif" font-size="10.00">ListAvailableLogs</text>
</a>
</g>
</g>
<!-- Node4&#45;&gt;Node5 -->
<g id="edge4" class="edge"><title>Node4&#45;&gt;Node5</title>
<path fill="none" stroke="midnightblue" d="M619.339,-109.5C627.891,-109.5 636.424,-109.5 644.57,-109.5"/>
<polygon fill="midnightblue" stroke="midnightblue" points="619.313,-106 609.313,-109.5 619.313,-113 619.313,-106"/>
</g>
<!-- Node7 -->
<g id="node7" class="node"><title>Node7</title>
<g id="a_node7"><a xlink:href="classDataFlash__MAVLink.html#a48cca0935063bb4c4ab826e2e0f7ac14" target="_top" xlink:title="DataFlash_MAVLink::\lDataFlash_MAVLink">
<polygon fill="white" stroke="black" points="478,-45.5 478,-75.5 591,-75.5 591,-45.5 478,-45.5"/>
<text text-anchor="start" x="486" y="-63.5" font-family="Helvetica,sans-Serif" font-size="10.00">DataFlash_MAVLink::</text>
<text text-anchor="middle" x="534.5" y="-52.5" font-family="Helvetica,sans-Serif" font-size="10.00">DataFlash_MAVLink</text>
</a>
</g>
</g>
<!-- Node6&#45;&gt;Node7 -->
<g id="edge6" class="edge"><title>Node6&#45;&gt;Node7</title>
<path fill="none" stroke="midnightblue" d="M434.807,-61.0755C449.254,-60.9912 464.202,-60.9041 477.96,-60.8238"/>
<polygon fill="midnightblue" stroke="midnightblue" points="434.38,-57.5778 424.401,-61.1361 434.421,-64.5777 434.38,-57.5778"/>
</g>
<!-- Node9 -->
<g id="node9" class="node"><title>Node9</title>
<g id="a_node9"><a xlink:href="classDataFlash__MAVLink.html#aff8ee53b8fbc202ef153f112dade8f21" target="_top" xlink:title="DataFlash_MAVLink::\lperiodic_1Hz">
<polygon fill="white" stroke="black" points="304.5,-0.5 304.5,-30.5 417.5,-30.5 417.5,-0.5 304.5,-0.5"/>
<text text-anchor="start" x="312.5" y="-18.5" font-family="Helvetica,sans-Serif" font-size="10.00">DataFlash_MAVLink::</text>
<text text-anchor="middle" x="361" y="-7.5" font-family="Helvetica,sans-Serif" font-size="10.00">periodic_1Hz</text>
</a>
</g>
</g>
<!-- Node8&#45;&gt;Node9 -->
<g id="edge8" class="edge"><title>Node8&#45;&gt;Node9</title>
<path fill="none" stroke="midnightblue" d="M272.458,-15.5C283.12,-15.5 294.064,-15.5 304.447,-15.5"/>
<polygon fill="midnightblue" stroke="midnightblue" points="272.351,-12.0001 262.351,-15.5 272.351,-19.0001 272.351,-12.0001"/>
</g>
</g>
</svg>
        <g id="navigator" transform="translate(0 0)" fill="#404254">
                <rect fill="#f2f5e9" fill-opacity="0.5" stroke="#606060" stroke-width=".5" x="0" y="0" width="60" height="60"/>
                <use id="zoomplus" xlink:href="#zoomPlus" x="17" y="9" onmousedown="handleZoom(evt,'in')"/>
                <use id="zoomminus" xlink:href="#zoomMin" x="42" y="9" onmousedown="handleZoom(evt,'out')"/>
                <use id="reset" xlink:href="#resetDef" x="30" y="36" onmousedown="handleReset()"/>
                <g id="arrowUp" xlink:href="#dirArrow" transform="translate(30 24)" onmousedown="handlePan(0,-1)">
                  <use xlink:href="#rim" fill="#404040">
                        <set attributeName="fill" to="#808080" begin="arrowUp.mouseover" end="arrowUp.mouseout"/>
                  </use>
                  <path fill="none" stroke="white" stroke-width="1.5" d="M0,-3.0v7 M-2.5,-0.5L0,-3.0L2.5,-0.5"/>
                </g>
                <g id="arrowRight" xlink:href="#dirArrow" transform="rotate(90) translate(36 -43)" onmousedown="handlePan(1,0)">
                  <use xlink:href="#rim" fill="#404040">
                        <set attributeName="fill" to="#808080" begin="arrowRight.mouseover" end="arrowRight.mouseout"/>
                  </use>
                  <path fill="none" stroke="white" stroke-width="1.5" d="M0,-3.0v7 M-2.5,-0.5L0,-3.0L2.5,-0.5"/>
                </g>
                <g id="arrowDown" xlink:href="#dirArrow" transform="rotate(180) translate(-30 -48)" onmousedown="handlePan(0,1)">
                  <use xlink:href="#rim" fill="#404040">
                        <set attributeName="fill" to="#808080" begin="arrowDown.mouseover" end="arrowDown.mouseout"/>
                  </use>
                  <path fill="none" stroke="white" stroke-width="1.5" d="M0,-3.0v7 M-2.5,-0.5L0,-3.0L2.5,-0.5"/>
                </g>
                <g id="arrowLeft" xlink:href="#dirArrow" transform="rotate(270) translate(-36 17)" onmousedown="handlePan(-1,0)">
                  <use xlink:href="#rim" fill="#404040">
                        <set attributeName="fill" to="#808080" begin="arrowLeft.mouseover" end="arrowLeft.mouseout"/>
                  </use>
                  <path fill="none" stroke="white" stroke-width="1.5" d="M0,-3.0v7 M-2.5,-0.5L0,-3.0L2.5,-0.5"/>
                </g>
        </g>
        <svg viewBox="0 0 15 15" width="100%" height="30px" preserveAspectRatio="xMaxYMin meet">
         <g id="arrow_out" transform="scale(0.3 0.3)">
          <a xlink:href="classDataFlash__MAVLink_a36de9539b4bfa2da0130d16bd97d6941_icgraph_org.svg" target="_base">
           <rect id="button" ry="5" rx="5" y="6" x="6" height="38" width="38"
                fill="#f2f5e9" fill-opacity="0.5" stroke="#606060" stroke-width="1.0"/>
           <path id="arrow"
             d="M 11.500037,31.436501 C 11.940474,20.09759 22.043105,11.32322 32.158766,21.979434 L 37.068811,17.246167 C 37.068811,17.246167 37.088388,32 37.088388,32 L 22.160133,31.978069 C 22.160133,31.978069 26.997745,27.140456 26.997745,27.140456 C 18.528582,18.264221 13.291696,25.230495 11.500037,31.436501 z"
             style="fill:#404040;"/>
          </a>
         </g>
        </svg>
</svg>
