<?xml version="1.0" encoding="UTF-8" standalone="no"?>
<!DOCTYPE svg PUBLIC "-//W3C//DTD SVG 1.1//EN"
 "http://www.w3.org/Graphics/SVG/1.1/DTD/svg11.dtd">
<!-- Generated by graphviz version 2.38.0 (20140413.2041)
 -->
<!-- Title: Menu::_allocate_buffers Pages: 1 -->
<svg width="264pt" height="66pt"
 viewBox="0.00 0.00 264.00 66.00" xmlns="http://www.w3.org/2000/svg" xmlns:xlink="http://www.w3.org/1999/xlink">
<g id="graph0" class="graph" transform="scale(1 1) rotate(0) translate(4 62)">
<title>Menu::_allocate_buffers</title>
<polygon fill="white" stroke="none" points="-4,4 -4,-62 260,-62 260,4 -4,4"/>
<!-- Node1 -->
<g id="node1" class="node"><title>Node1</title>
<polygon fill="#bfbfbf" stroke="black" points="0,-19.5 0,-38.5 121,-38.5 121,-19.5 0,-19.5"/>
<text text-anchor="middle" x="60.5" y="-26.5" font-family="Helvetica,sans-Serif" font-size="10.00">Menu::_allocate_buffers</text>
</g>
<!-- Node2 -->
<g id="node2" class="node"><title>Node2</title>
<g id="a_node2"><a xlink:href="classMenu.html#a5ee8a65cae6ca12d570d5f665e2c665c" target="_top" xlink:title="Menu::check_input">
<polygon fill="white" stroke="black" points="157,-38.5 157,-57.5 256,-57.5 256,-38.5 157,-38.5"/>
<text text-anchor="middle" x="206.5" y="-45.5" font-family="Helvetica,sans-Serif" font-size="10.00">Menu::check_input</text>
</a>
</g>
</g>
<!-- Node1&#45;&gt;Node2 -->
<g id="edge1" class="edge"><title>Node1&#45;&gt;Node2</title>
<path fill="none" stroke="midnightblue" d="M131.305,-38.2104C139.853,-39.3383 148.443,-40.4716 156.591,-41.5468"/>
<polygon fill="midnightblue" stroke="midnightblue" points="131.69,-34.7309 121.318,-36.8926 130.774,-41.6708 131.69,-34.7309"/>
</g>
<!-- Node3 -->
<g id="node3" class="node"><title>Node3</title>
<g id="a_node3"><a xlink:href="classMenu.html#a8424e0886499d6901c1d2406c568709c" target="_top" xlink:title="menu runner ">
<polygon fill="white" stroke="black" points="176.5,-0.5 176.5,-19.5 236.5,-19.5 236.5,-0.5 176.5,-0.5"/>
<text text-anchor="middle" x="206.5" y="-7.5" font-family="Helvetica,sans-Serif" font-size="10.00">Menu::run</text>
</a>
</g>
</g>
<!-- Node1&#45;&gt;Node3 -->
<g id="edge2" class="edge"><title>Node1&#45;&gt;Node3</title>
<path fill="none" stroke="midnightblue" d="M131.646,-19.7446C147.438,-17.661 163.348,-15.5617 176.336,-13.848"/>
<polygon fill="midnightblue" stroke="midnightblue" points="130.774,-16.3292 121.318,-21.1074 131.69,-23.2691 130.774,-16.3292"/>
</g>
</g>
</svg>
