<?xml version="1.0" encoding="UTF-8" standalone="no"?>
<!DOCTYPE svg PUBLIC "-//W3C//DTD SVG 1.1//EN"
 "http://www.w3.org/Graphics/SVG/1.1/DTD/svg11.dtd">
<!-- Generated by graphviz version 2.38.0 (20140413.2041)
 -->
<!-- Title: AP_Airspeed_MS4525::_voltage_correction Pages: 1 -->
<svg width="576pt" height="142pt"
 viewBox="0.00 0.00 576.00 142.00" xmlns="http://www.w3.org/2000/svg" xmlns:xlink="http://www.w3.org/1999/xlink">
<g id="graph0" class="graph" transform="scale(1 1) rotate(0) translate(4 138)">
<title>AP_Airspeed_MS4525::_voltage_correction</title>
<polygon fill="white" stroke="none" points="-4,4 -4,-138 572,-138 572,4 -4,4"/>
<!-- Node1 -->
<g id="node1" class="node"><title>Node1</title>
<polygon fill="#bfbfbf" stroke="black" points="0,-74 0,-104 115,-104 115,-74 0,-74"/>
<text text-anchor="start" x="8" y="-92" font-family="Helvetica,sans-Serif" font-size="10.00">AP_Airspeed_MS4525</text>
<text text-anchor="middle" x="57.5" y="-81" font-family="Helvetica,sans-Serif" font-size="10.00">::_voltage_correction</text>
</g>
<!-- Node2 -->
<g id="node2" class="node"><title>Node2</title>
<g id="a_node2"><a xlink:href="classAP__HAL_1_1AnalogIn.html#a84c87bc57f06182afc85725cafe22698" target="_top" xlink:title="AP_HAL::AnalogIn::board\l_voltage">
<polygon fill="white" stroke="black" points="151,-96 151,-126 280,-126 280,-96 151,-96"/>
<text text-anchor="start" x="159" y="-114" font-family="Helvetica,sans-Serif" font-size="10.00">AP_HAL::AnalogIn::board</text>
<text text-anchor="middle" x="215.5" y="-103" font-family="Helvetica,sans-Serif" font-size="10.00">_voltage</text>
</a>
</g>
</g>
<!-- Node1&#45;&gt;Node2 -->
<g id="edge1" class="edge"><title>Node1&#45;&gt;Node2</title>
<path fill="none" stroke="midnightblue" d="M115.261,-97.0047C123.589,-98.1792 132.266,-99.4029 140.873,-100.617"/>
<polygon fill="midnightblue" stroke="midnightblue" points="140.527,-104.102 150.918,-102.033 141.505,-97.1711 140.527,-104.102"/>
</g>
<!-- Node3 -->
<g id="node3" class="node"><title>Node3</title>
<g id="a_node3"><a xlink:href="AP__Math_8h.html#ad525609d9dba6ffa556a0fbf08a3f9b4" target="_top" xlink:title="constrain_float">
<polygon fill="white" stroke="black" points="175.5,-57.5 175.5,-76.5 255.5,-76.5 255.5,-57.5 175.5,-57.5"/>
<text text-anchor="middle" x="215.5" y="-64.5" font-family="Helvetica,sans-Serif" font-size="10.00">constrain_float</text>
</a>
</g>
</g>
<!-- Node1&#45;&gt;Node3 -->
<g id="edge2" class="edge"><title>Node1&#45;&gt;Node3</title>
<path fill="none" stroke="midnightblue" d="M115.261,-80.9953C131.555,-78.6974 149.187,-76.2108 165.005,-73.98"/>
<polygon fill="midnightblue" stroke="midnightblue" points="165.693,-77.4178 175.106,-72.5555 164.715,-70.4863 165.693,-77.4178"/>
</g>
<!-- Node4 -->
<g id="node4" class="node"><title>Node4</title>
<g id="a_node4"><a xlink:href="AP__Math_8h.html#a20e8f8671c282c69c1954652b6d61585" target="_top" xlink:title="constrain_value">
<polygon fill="white" stroke="black" points="316,-57.5 316,-76.5 401,-76.5 401,-57.5 316,-57.5"/>
<text text-anchor="middle" x="358.5" y="-64.5" font-family="Helvetica,sans-Serif" font-size="10.00">constrain_value</text>
</a>
</g>
</g>
<!-- Node3&#45;&gt;Node4 -->
<g id="edge3" class="edge"><title>Node3&#45;&gt;Node4</title>
<path fill="none" stroke="midnightblue" d="M255.776,-67C271.297,-67 289.347,-67 305.898,-67"/>
<polygon fill="midnightblue" stroke="midnightblue" points="305.973,-70.5001 315.973,-67 305.973,-63.5001 305.973,-70.5001"/>
</g>
<!-- Node5 -->
<g id="node5" class="node"><title>Node5</title>
<g id="a_node5"><a xlink:href="AP__Math_8cpp.html#a37e8e901754cb9c8e53a8e3030c82c50" target="_top" xlink:title="constrain_value\&lt; int \&gt;">
<polygon fill="white" stroke="black" points="446,-114.5 446,-133.5 559,-133.5 559,-114.5 446,-114.5"/>
<text text-anchor="middle" x="502.5" y="-121.5" font-family="Helvetica,sans-Serif" font-size="10.00">constrain_value&lt; int &gt;</text>
</a>
</g>
</g>
<!-- Node4&#45;&gt;Node5 -->
<g id="edge4" class="edge"><title>Node4&#45;&gt;Node5</title>
<path fill="none" stroke="midnightblue" d="M376.97,-76.6284C392.432,-84.891 415.774,-96.7384 437,-105 442.854,-107.278 449.097,-109.439 455.307,-111.429"/>
<polygon fill="midnightblue" stroke="midnightblue" points="454.389,-114.809 464.977,-114.411 456.452,-108.12 454.389,-114.809"/>
</g>
<!-- Node6 -->
<g id="node6" class="node"><title>Node6</title>
<g id="a_node6"><a xlink:href="AP__Math_8cpp.html#afdbe107ec1987d318a6347816fbf2b89" target="_top" xlink:title="constrain_value\&lt; short \&gt;">
<polygon fill="white" stroke="black" points="440,-76.5 440,-95.5 565,-95.5 565,-76.5 440,-76.5"/>
<text text-anchor="middle" x="502.5" y="-83.5" font-family="Helvetica,sans-Serif" font-size="10.00">constrain_value&lt; short &gt;</text>
</a>
</g>
</g>
<!-- Node4&#45;&gt;Node6 -->
<g id="edge5" class="edge"><title>Node4&#45;&gt;Node6</title>
<path fill="none" stroke="midnightblue" d="M401.337,-72.5979C410.323,-73.8003 420.064,-75.1036 429.821,-76.4092"/>
<polygon fill="midnightblue" stroke="midnightblue" points="429.589,-79.9093 439.965,-77.7665 430.518,-72.9711 429.589,-79.9093"/>
</g>
<!-- Node7 -->
<g id="node7" class="node"><title>Node7</title>
<g id="a_node7"><a xlink:href="AP__Math_8cpp.html#ae6c621670c214da687de21d4e3a92587" target="_top" xlink:title="constrain_value\&lt; float \&gt;">
<polygon fill="white" stroke="black" points="441.5,-38.5 441.5,-57.5 563.5,-57.5 563.5,-38.5 441.5,-38.5"/>
<text text-anchor="middle" x="502.5" y="-45.5" font-family="Helvetica,sans-Serif" font-size="10.00">constrain_value&lt; float &gt;</text>
</a>
</g>
</g>
<!-- Node4&#45;&gt;Node7 -->
<g id="edge6" class="edge"><title>Node4&#45;&gt;Node7</title>
<path fill="none" stroke="midnightblue" d="M401.337,-61.4021C410.724,-60.146 420.935,-58.7798 431.129,-57.4159"/>
<polygon fill="midnightblue" stroke="midnightblue" points="431.838,-60.8522 441.286,-56.0568 430.91,-53.9141 431.838,-60.8522"/>
</g>
<!-- Node8 -->
<g id="node8" class="node"><title>Node8</title>
<g id="a_node8"><a xlink:href="AP__Math_8cpp.html#afe3990b00e9abc43fa97dfaf8e32f5c4" target="_top" xlink:title="constrain_value\&lt; double \&gt;">
<polygon fill="white" stroke="black" points="437,-0.5 437,-19.5 568,-19.5 568,-0.5 437,-0.5"/>
<text text-anchor="middle" x="502.5" y="-7.5" font-family="Helvetica,sans-Serif" font-size="10.00">constrain_value&lt; double &gt;</text>
</a>
</g>
</g>
<!-- Node4&#45;&gt;Node8 -->
<g id="edge7" class="edge"><title>Node4&#45;&gt;Node8</title>
<path fill="none" stroke="midnightblue" d="M376.97,-57.3716C392.432,-49.109 415.774,-37.2616 437,-29 442.854,-26.7215 449.097,-24.5614 455.307,-22.5705"/>
<polygon fill="midnightblue" stroke="midnightblue" points="456.452,-25.88 464.977,-19.5887 454.389,-19.1908 456.452,-25.88"/>
</g>
</g>
</svg>
