<?xml version="1.0" encoding="UTF-8" standalone="no"?>
<!DOCTYPE svg PUBLIC "-//W3C//DTD SVG 1.1//EN"
 "http://www.w3.org/Graphics/SVG/1.1/DTD/svg11.dtd">
<!-- Generated by graphviz version 2.38.0 (20140413.2041)
 -->
<!-- Title: Linux::Scheduler Pages: 1 -->
<svg width="866pt" height="162pt"
 viewBox="0.00 0.00 866.00 161.50" xmlns="http://www.w3.org/2000/svg" xmlns:xlink="http://www.w3.org/1999/xlink">
<g id="graph0" class="graph" transform="scale(1 1) rotate(0) translate(4 157.5)">
<title>Linux::Scheduler</title>
<polygon fill="white" stroke="none" points="-4,4 -4,-157.5 862,-157.5 862,4 -4,4"/>
<!-- Node1 -->
<g id="node1" class="node"><title>Node1</title>
<polygon fill="#bfbfbf" stroke="black" points="502,-38.5 502,-57.5 591,-57.5 591,-38.5 502,-38.5"/>
<text text-anchor="middle" x="546.5" y="-45.5" font-family="Helvetica,sans-Serif" font-size="10.00">Linux::Scheduler</text>
</g>
<!-- Node6 -->
<g id="node6" class="node"><title>Node6</title>
<g id="a_node6"><a xlink:href="classLinux_1_1Scheduler_1_1SchedulerThread.html" target="_top" xlink:title="Linux::Scheduler::Scheduler\lThread">
<polygon fill="white" stroke="black" points="719,-97 719,-127 858,-127 858,-97 719,-97"/>
<text text-anchor="start" x="727" y="-115" font-family="Helvetica,sans-Serif" font-size="10.00">Linux::Scheduler::Scheduler</text>
<text text-anchor="middle" x="788.5" y="-104" font-family="Helvetica,sans-Serif" font-size="10.00">Thread</text>
</a>
</g>
</g>
<!-- Node1&#45;&gt;Node6 -->
<g id="edge9" class="edge"><title>Node1&#45;&gt;Node6</title>
<path fill="none" stroke="#9a32cd" stroke-dasharray="5,2" d="M568.72,-63.3082C582.629,-72.5588 601.586,-83.7373 620,-90 651.516,-100.719 688.011,-106.258 718.876,-109.102"/>
<polygon fill="#9a32cd" stroke="#9a32cd" points="570.591,-60.3478 560.365,-57.5787 566.633,-66.1208 570.591,-60.3478"/>
<text text-anchor="middle" x="660.5" y="-110" font-family="Helvetica,sans-Serif" font-size="10.00"> _sched</text>
</g>
<!-- Node2 -->
<g id="node2" class="node"><title>Node2</title>
<g id="a_node2"><a xlink:href="classAP__HAL_1_1Scheduler.html" target="_top" xlink:title="AP_HAL::Scheduler">
<polygon fill="white" stroke="black" points="240,-76.5 240,-95.5 344,-95.5 344,-76.5 240,-76.5"/>
<text text-anchor="middle" x="292" y="-83.5" font-family="Helvetica,sans-Serif" font-size="10.00">AP_HAL::Scheduler</text>
</a>
</g>
</g>
<!-- Node2&#45;&gt;Node1 -->
<g id="edge1" class="edge"><title>Node2&#45;&gt;Node1</title>
<path fill="none" stroke="midnightblue" d="M354.355,-84.9011C389.394,-83.3609 433.986,-79.8538 473,-72 489.507,-68.677 507.479,-62.7444 521.4,-57.6093"/>
<polygon fill="midnightblue" stroke="midnightblue" points="354.125,-81.4073 344.272,-85.302 354.403,-88.4018 354.125,-81.4073"/>
</g>
<!-- Node3 -->
<g id="node3" class="node"><title>Node3</title>
<g id="a_node3"><a xlink:href="classLinux_1_1Semaphore.html" target="_top" xlink:title="Linux::Semaphore">
<polygon fill="white" stroke="black" points="244.5,-38.5 244.5,-57.5 339.5,-57.5 339.5,-38.5 244.5,-38.5"/>
<text text-anchor="middle" x="292" y="-45.5" font-family="Helvetica,sans-Serif" font-size="10.00">Linux::Semaphore</text>
</a>
</g>
</g>
<!-- Node3&#45;&gt;Node1 -->
<g id="edge2" class="edge"><title>Node3&#45;&gt;Node1</title>
<path fill="none" stroke="#9a32cd" stroke-dasharray="5,2" d="M349.717,-48C395.705,-48 459.581,-48 501.7,-48"/>
<polygon fill="#9a32cd" stroke="#9a32cd" points="349.607,-44.5001 339.607,-48 349.607,-51.5001 349.607,-44.5001"/>
<text text-anchor="middle" x="432.5" y="-62" font-family="Helvetica,sans-Serif" font-size="10.00"> _io_semaphore</text>
<text text-anchor="middle" x="432.5" y="-51" font-family="Helvetica,sans-Serif" font-size="10.00">_timer_semaphore</text>
</g>
<!-- Node4 -->
<g id="node4" class="node"><title>Node4</title>
<g id="a_node4"><a xlink:href="classAP__HAL_1_1Semaphore.html" target="_top" xlink:title="AP_HAL::Semaphore">
<polygon fill="white" stroke="black" points="0,-38.5 0,-57.5 110,-57.5 110,-38.5 0,-38.5"/>
<text text-anchor="middle" x="55" y="-45.5" font-family="Helvetica,sans-Serif" font-size="10.00">AP_HAL::Semaphore</text>
</a>
</g>
</g>
<!-- Node4&#45;&gt;Node3 -->
<g id="edge3" class="edge"><title>Node4&#45;&gt;Node3</title>
<path fill="none" stroke="midnightblue" d="M120.455,-48C159.627,-48 208.755,-48 244.209,-48"/>
<polygon fill="midnightblue" stroke="midnightblue" points="120.209,-44.5001 110.209,-48 120.209,-51.5001 120.209,-44.5001"/>
</g>
<!-- Node5 -->
<g id="node5" class="node"><title>Node5</title>
<g id="a_node5"><a xlink:href="structLinux_1_1Scheduler_1_1timesliced__proc.html" target="_top" xlink:title="Linux::Scheduler::timesliced_proc">
<polygon fill="white" stroke="black" points="210,-0.5 210,-19.5 374,-19.5 374,-0.5 210,-0.5"/>
<text text-anchor="middle" x="292" y="-7.5" font-family="Helvetica,sans-Serif" font-size="10.00">Linux::Scheduler::timesliced_proc</text>
</a>
</g>
</g>
<!-- Node5&#45;&gt;Node1 -->
<g id="edge4" class="edge"><title>Node5&#45;&gt;Node1</title>
<path fill="none" stroke="#9a32cd" stroke-dasharray="5,2" d="M384.231,-20.275C412.728,-23.8549 444.231,-28.1932 473,-33 482.508,-34.5887 492.668,-36.5339 502.281,-38.4905"/>
<polygon fill="#9a32cd" stroke="#9a32cd" points="384.641,-16.7991 374.286,-19.0408 383.779,-23.7458 384.641,-16.7991"/>
<text text-anchor="middle" x="432.5" y="-36" font-family="Helvetica,sans-Serif" font-size="10.00"> _timesliced_proc</text>
</g>
<!-- Node6&#45;&gt;Node1 -->
<g id="edge5" class="edge"><title>Node6&#45;&gt;Node1</title>
<path fill="none" stroke="#9a32cd" stroke-dasharray="5,2" d="M770.007,-89.1044C754.27,-70.5493 729.317,-45.7777 701,-35 659.508,-19.2076 607.283,-29.3621 575.691,-38.4538"/>
<polygon fill="#9a32cd" stroke="#9a32cd" points="767.324,-91.3517 776.369,-96.868 772.738,-86.9149 767.324,-91.3517"/>
<text text-anchor="middle" x="660.5" y="-82" font-family="Helvetica,sans-Serif" font-size="10.00"> _uart_thread</text>
<text text-anchor="middle" x="660.5" y="-71" font-family="Helvetica,sans-Serif" font-size="10.00">_io_thread</text>
<text text-anchor="middle" x="660.5" y="-60" font-family="Helvetica,sans-Serif" font-size="10.00">_rcin_thread</text>
<text text-anchor="middle" x="660.5" y="-49" font-family="Helvetica,sans-Serif" font-size="10.00">_timer_thread</text>
<text text-anchor="middle" x="660.5" y="-38" font-family="Helvetica,sans-Serif" font-size="10.00">_tonealarm_thread</text>
</g>
<!-- Node7 -->
<g id="node7" class="node"><title>Node7</title>
<g id="a_node7"><a xlink:href="classLinux_1_1PeriodicThread.html" target="_top" xlink:title="Linux::PeriodicThread">
<polygon fill="white" stroke="black" points="491,-128.5 491,-147.5 602,-147.5 602,-128.5 491,-128.5"/>
<text text-anchor="middle" x="546.5" y="-135.5" font-family="Helvetica,sans-Serif" font-size="10.00">Linux::PeriodicThread</text>
</a>
</g>
</g>
<!-- Node7&#45;&gt;Node6 -->
<g id="edge6" class="edge"><title>Node7&#45;&gt;Node6</title>
<path fill="none" stroke="midnightblue" d="M612.499,-132.751C639.854,-130.366 672.005,-127.332 701,-124 706.724,-123.342 712.654,-122.616 718.603,-121.855"/>
<polygon fill="midnightblue" stroke="midnightblue" points="611.929,-129.287 602.267,-133.632 612.53,-136.261 611.929,-129.287"/>
</g>
<!-- Node8 -->
<g id="node8" class="node"><title>Node8</title>
<g id="a_node8"><a xlink:href="classLinux_1_1Thread.html" target="_top" xlink:title="Linux::Thread">
<polygon fill="white" stroke="black" points="254,-128.5 254,-147.5 330,-147.5 330,-128.5 254,-128.5"/>
<text text-anchor="middle" x="292" y="-135.5" font-family="Helvetica,sans-Serif" font-size="10.00">Linux::Thread</text>
</a>
</g>
</g>
<!-- Node8&#45;&gt;Node7 -->
<g id="edge7" class="edge"><title>Node8&#45;&gt;Node7</title>
<path fill="none" stroke="midnightblue" d="M340.397,-138C383.131,-138 445.966,-138 490.813,-138"/>
<polygon fill="midnightblue" stroke="midnightblue" points="340.257,-134.5 330.257,-138 340.257,-141.5 340.257,-134.5"/>
</g>
<!-- Node9 -->
<g id="node9" class="node"><title>Node9</title>
<g id="a_node9"><a xlink:href="structLinux_1_1Thread_1_1stack__debug.html" target="_top" xlink:title="Linux::Thread::stack\l_debug">
<polygon fill="white" stroke="black" points="2,-123 2,-153 108,-153 108,-123 2,-123"/>
<text text-anchor="start" x="10" y="-141" font-family="Helvetica,sans-Serif" font-size="10.00">Linux::Thread::stack</text>
<text text-anchor="middle" x="55" y="-130" font-family="Helvetica,sans-Serif" font-size="10.00">_debug</text>
</a>
</g>
</g>
<!-- Node9&#45;&gt;Node8 -->
<g id="edge8" class="edge"><title>Node9&#45;&gt;Node8</title>
<path fill="none" stroke="#9a32cd" stroke-dasharray="5,2" d="M118.282,-138C161.495,-138 217.605,-138 253.954,-138"/>
<polygon fill="#9a32cd" stroke="#9a32cd" points="118.154,-134.5 108.154,-138 118.154,-141.5 118.154,-134.5"/>
<text text-anchor="middle" x="160" y="-141" font-family="Helvetica,sans-Serif" font-size="10.00"> _stack_debug</text>
</g>
</g>
</svg>
