<?xml version="1.0" encoding="UTF-8" standalone="no"?>
<!DOCTYPE svg PUBLIC "-//W3C//DTD SVG 1.1//EN"
 "http://www.w3.org/Graphics/SVG/1.1/DTD/svg11.dtd">
<!-- Generated by graphviz version 2.38.0 (20140413.2041)
 -->
<!-- Title: AP_Proximity_LightWareSF40C::send_request_for_distance Pages: 1 -->
<svg width="527pt" height="39pt"
 viewBox="0.00 0.00 527.00 39.00" xmlns="http://www.w3.org/2000/svg" xmlns:xlink="http://www.w3.org/1999/xlink">
<g id="graph0" class="graph" transform="scale(1 1) rotate(0) translate(4 35)">
<title>AP_Proximity_LightWareSF40C::send_request_for_distance</title>
<polygon fill="white" stroke="none" points="-4,4 -4,-35 523,-35 523,4 -4,4"/>
<!-- Node1 -->
<g id="node1" class="node"><title>Node1</title>
<polygon fill="#bfbfbf" stroke="black" points="0,-0.5 0,-30.5 149,-30.5 149,-0.5 0,-0.5"/>
<text text-anchor="start" x="8" y="-18.5" font-family="Helvetica,sans-Serif" font-size="10.00">AP_Proximity_LightWareSF40</text>
<text text-anchor="middle" x="74.5" y="-7.5" font-family="Helvetica,sans-Serif" font-size="10.00">C::send_request_for_distance</text>
</g>
<!-- Node2 -->
<g id="node2" class="node"><title>Node2</title>
<g id="a_node2"><a xlink:href="classAP__Proximity__LightWareSF40C.html#a02b9d0d41f61e5562db31cfc341bef43" target="_top" xlink:title="AP_Proximity_LightWareSF40\lC::request_new_data">
<polygon fill="white" stroke="black" points="185,-0.5 185,-30.5 334,-30.5 334,-0.5 185,-0.5"/>
<text text-anchor="start" x="193" y="-18.5" font-family="Helvetica,sans-Serif" font-size="10.00">AP_Proximity_LightWareSF40</text>
<text text-anchor="middle" x="259.5" y="-7.5" font-family="Helvetica,sans-Serif" font-size="10.00">C::request_new_data</text>
</a>
</g>
</g>
<!-- Node1&#45;&gt;Node2 -->
<g id="edge1" class="edge"><title>Node1&#45;&gt;Node2</title>
<path fill="none" stroke="midnightblue" d="M159.387,-15.5C167.838,-15.5 176.376,-15.5 184.711,-15.5"/>
<polygon fill="midnightblue" stroke="midnightblue" points="159.142,-12.0001 149.142,-15.5 159.142,-19.0001 159.142,-12.0001"/>
</g>
<!-- Node3 -->
<g id="node3" class="node"><title>Node3</title>
<g id="a_node3"><a xlink:href="classAP__Proximity__LightWareSF40C.html#a18aa0409570b7f8158df3a5acff152fa" target="_top" xlink:title="AP_Proximity_LightWareSF40\lC::update">
<polygon fill="white" stroke="black" points="370,-0.5 370,-30.5 519,-30.5 519,-0.5 370,-0.5"/>
<text text-anchor="start" x="378" y="-18.5" font-family="Helvetica,sans-Serif" font-size="10.00">AP_Proximity_LightWareSF40</text>
<text text-anchor="middle" x="444.5" y="-7.5" font-family="Helvetica,sans-Serif" font-size="10.00">C::update</text>
</a>
</g>
</g>
<!-- Node2&#45;&gt;Node3 -->
<g id="edge2" class="edge"><title>Node2&#45;&gt;Node3</title>
<path fill="none" stroke="midnightblue" d="M344.387,-15.5C352.838,-15.5 361.376,-15.5 369.711,-15.5"/>
<polygon fill="midnightblue" stroke="midnightblue" points="344.142,-12.0001 334.142,-15.5 344.142,-19.0001 344.142,-12.0001"/>
</g>
</g>
</svg>
