<?xml version="1.0" encoding="UTF-8" standalone="no"?>
<!DOCTYPE svg PUBLIC "-//W3C//DTD SVG 1.1//EN"
 "http://www.w3.org/Graphics/SVG/1.1/DTD/svg11.dtd">
<!-- Generated by graphviz version 2.38.0 (20140413.2041)
 -->
<!-- Title: SITL::Aircraft::filtered_servo_angle Pages: 1 -->
<!--zoomable 128 -->
<svg id="main" version="1.1" xmlns="http://www.w3.org/2000/svg" xmlns:xlink="http://www.w3.org/1999/xlink" xml:space="preserve" onload="init(evt)">
<style type="text/css"><![CDATA[
.edge:hover path { stroke: red; }
.edge:hover polygon { stroke: red; fill: red; }
]]></style>
<script type="text/javascript"><![CDATA[
var edges = document.getElementsByTagName('g');
if (edges && edges.length) {
  for (var i=0;i<edges.length;i++) {
    if (edges[i].id.substr(0,4)=='edge') {
      edges[i].setAttribute('class','edge');
    }
  }
}
]]></script>
        <defs>
                <circle id="rim" cx="0" cy="0" r="7"/>
                <circle id="rim2" cx="0" cy="0" r="3.5"/>
                <g id="zoomPlus">
                        <use xlink:href="#rim" fill="#404040">
                                <set attributeName="fill" to="#808080" begin="zoomplus.mouseover" end="zoomplus.mouseout"/>
                        </use>
                        <path d="M-4,0h8M0,-4v8" fill="none" stroke="white" stroke-width="1.5" pointer-events="none"/>
                </g>
                <g id="zoomMin">
                        <use xlink:href="#rim" fill="#404040">
                                <set attributeName="fill" to="#808080" begin="zoomminus.mouseover" end="zoomminus.mouseout"/>
                        </use>
                        <path d="M-4,0h8" fill="none" stroke="white" stroke-width="1.5" pointer-events="none"/>
                </g>
                <g id="dirArrow">
                        <path fill="none" stroke="white" stroke-width="1.5" d="M0,-3.0v7 M-2.5,-0.5L0,-3.0L2.5,-0.5"/>
                </g>
               <g id="resetDef">
                       <use xlink:href="#rim2" fill="#404040">
                               <set attributeName="fill" to="#808080" begin="reset.mouseover" end="reset.mouseout"/>
                       </use>
               </g>
        </defs>

<script type="text/javascript">
var viewWidth = 581;
var viewHeight = 128;
var sectionId = 'dynsection-11';
</script>
<script xlink:href="svgpan.js"/>
<svg id="graph" class="graph">
<g id="viewport">
<title>SITL::Aircraft::filtered_servo_angle</title>
<polygon fill="white" stroke="none" points="-4,4 -4,-124 577,-124 577,4 -4,4"/>
<!-- Node1 -->
<g id="node1" class="node"><title>Node1</title>
<polygon fill="#bfbfbf" stroke="black" points="0,-35 0,-65 110,-65 110,-35 0,-35"/>
<text text-anchor="start" x="8" y="-53" font-family="Helvetica,sans-Serif" font-size="10.00">SITL::Aircraft::filtered</text>
<text text-anchor="middle" x="55" y="-42" font-family="Helvetica,sans-Serif" font-size="10.00">_servo_angle</text>
</g>
<!-- Node2 -->
<g id="node2" class="node"><title>Node2</title>
<g id="a_node2"><a xlink:href="classSITL_1_1Plane.html#a23a7248ca498b4b952d1673372689cb0" target="_top" xlink:title="SITL::Plane::calculate\l_forces">
<polygon fill="white" stroke="black" points="146,-60 146,-90 259,-90 259,-60 146,-60"/>
<text text-anchor="start" x="154" y="-78" font-family="Helvetica,sans-Serif" font-size="10.00">SITL::Plane::calculate</text>
<text text-anchor="middle" x="202.5" y="-67" font-family="Helvetica,sans-Serif" font-size="10.00">_forces</text>
</a>
</g>
</g>
<!-- Node1&#45;&gt;Node2 -->
<g id="edge1" class="edge"><title>Node1&#45;&gt;Node2</title>
<path fill="none" stroke="midnightblue" d="M120.128,-61.0185C128.691,-62.4898 137.415,-63.9889 145.818,-65.4326"/>
<polygon fill="midnightblue" stroke="midnightblue" points="120.627,-57.5531 110.179,-59.3091 119.442,-64.452 120.627,-57.5531"/>
</g>
<!-- Node5 -->
<g id="node5" class="node"><title>Node5</title>
<g id="a_node5"><a xlink:href="classSITL_1_1JSBSim.html#a63f89f6cd963d65191bc3ef635286dc7" target="_top" xlink:title="SITL::JSBSim::send\l_servos">
<polygon fill="white" stroke="black" points="149,-11 149,-41 256,-41 256,-11 149,-11"/>
<text text-anchor="start" x="157" y="-29" font-family="Helvetica,sans-Serif" font-size="10.00">SITL::JSBSim::send</text>
<text text-anchor="middle" x="202.5" y="-18" font-family="Helvetica,sans-Serif" font-size="10.00">_servos</text>
</a>
</g>
</g>
<!-- Node1&#45;&gt;Node5 -->
<g id="edge4" class="edge"><title>Node1&#45;&gt;Node5</title>
<path fill="none" stroke="midnightblue" d="M120.058,-39.4337C129.636,-37.8539 139.418,-36.2403 148.727,-34.7048"/>
<polygon fill="midnightblue" stroke="midnightblue" points="119.476,-35.9824 110.179,-41.0633 120.615,-42.889 119.476,-35.9824"/>
</g>
<!-- Node3 -->
<g id="node3" class="node"><title>Node3</title>
<g id="a_node3"><a xlink:href="classSITL_1_1Plane.html#a7852409df29e250b1903384d1446930c" target="_top" xlink:title="SITL::Plane::update">
<polygon fill="white" stroke="black" points="306.5,-100.5 306.5,-119.5 410.5,-119.5 410.5,-100.5 306.5,-100.5"/>
<text text-anchor="middle" x="358.5" y="-107.5" font-family="Helvetica,sans-Serif" font-size="10.00">SITL::Plane::update</text>
</a>
</g>
</g>
<!-- Node2&#45;&gt;Node3 -->
<g id="edge2" class="edge"><title>Node2&#45;&gt;Node3</title>
<path fill="none" stroke="midnightblue" d="M269.277,-89.9492C284.948,-93.5109 301.253,-97.2167 315.521,-100.459"/>
<polygon fill="midnightblue" stroke="midnightblue" points="269.625,-86.4391 259.098,-87.6358 268.073,-93.2651 269.625,-86.4391"/>
</g>
<!-- Node4 -->
<g id="node4" class="node"><title>Node4</title>
<g id="a_node4"><a xlink:href="classSITL_1_1QuadPlane.html#af9068f0de1894f5afc49481c869e3b6c" target="_top" xlink:title="SITL::QuadPlane::update">
<polygon fill="white" stroke="black" points="295,-62.5 295,-81.5 422,-81.5 422,-62.5 295,-62.5"/>
<text text-anchor="middle" x="358.5" y="-69.5" font-family="Helvetica,sans-Serif" font-size="10.00">SITL::QuadPlane::update</text>
</a>
</g>
</g>
<!-- Node2&#45;&gt;Node4 -->
<g id="edge3" class="edge"><title>Node2&#45;&gt;Node4</title>
<path fill="none" stroke="midnightblue" d="M269.333,-73.7175C277.822,-73.5522 286.497,-73.3832 294.932,-73.2189"/>
<polygon fill="midnightblue" stroke="midnightblue" points="269.027,-70.2227 259.098,-73.9169 269.164,-77.2214 269.027,-70.2227"/>
</g>
<!-- Node6 -->
<g id="node6" class="node"><title>Node6</title>
<g id="a_node6"><a xlink:href="classSITL_1_1JSBSim.html#ac3a7a04e8c830f9be50a8d2a953833a1" target="_top" xlink:title="SITL::JSBSim::recv_fdm">
<polygon fill="white" stroke="black" points="295.5,-19.5 295.5,-38.5 421.5,-38.5 421.5,-19.5 295.5,-19.5"/>
<text text-anchor="middle" x="358.5" y="-26.5" font-family="Helvetica,sans-Serif" font-size="10.00">SITL::JSBSim::recv_fdm</text>
</a>
</g>
</g>
<!-- Node5&#45;&gt;Node6 -->
<g id="edge5" class="edge"><title>Node5&#45;&gt;Node6</title>
<path fill="none" stroke="midnightblue" d="M266.313,-27.2236C275.892,-27.4102 285.775,-27.6028 295.34,-27.7891"/>
<polygon fill="midnightblue" stroke="midnightblue" points="266.134,-23.7196 256.067,-27.024 265.997,-30.7182 266.134,-23.7196"/>
</g>
<!-- Node7 -->
<g id="node7" class="node"><title>Node7</title>
<g id="a_node7"><a xlink:href="classSITL_1_1JSBSim.html#a63f34aa2eb8898513ab887f7c0c8b1bf" target="_top" xlink:title="SITL::JSBSim::update">
<polygon fill="white" stroke="black" points="458,-0.5 458,-19.5 573,-19.5 573,-0.5 458,-0.5"/>
<text text-anchor="middle" x="515.5" y="-7.5" font-family="Helvetica,sans-Serif" font-size="10.00">SITL::JSBSim::update</text>
</a>
</g>
</g>
<!-- Node5&#45;&gt;Node7 -->
<g id="edge7" class="edge"><title>Node5&#45;&gt;Node7</title>
<path fill="none" stroke="midnightblue" d="M266.002,-13.591C275.675,-12.0997 285.58,-10.8174 295,-10 350.239,-5.20672 413.592,-5.86205 457.992,-7.32084"/>
<polygon fill="midnightblue" stroke="midnightblue" points="265.344,-10.1519 256.035,-15.2101 266.467,-17.0613 265.344,-10.1519"/>
</g>
<!-- Node6&#45;&gt;Node7 -->
<g id="edge6" class="edge"><title>Node6&#45;&gt;Node7</title>
<path fill="none" stroke="midnightblue" d="M431.836,-20.133C440.569,-19.0625 449.39,-17.9812 457.853,-16.9439"/>
<polygon fill="midnightblue" stroke="midnightblue" points="431.151,-16.6907 421.651,-21.3815 432.003,-23.6387 431.151,-16.6907"/>
</g>
</g>
</svg>
        <g id="navigator" transform="translate(0 0)" fill="#404254">
                <rect fill="#f2f5e9" fill-opacity="0.5" stroke="#606060" stroke-width=".5" x="0" y="0" width="60" height="60"/>
                <use id="zoomplus" xlink:href="#zoomPlus" x="17" y="9" onmousedown="handleZoom(evt,'in')"/>
                <use id="zoomminus" xlink:href="#zoomMin" x="42" y="9" onmousedown="handleZoom(evt,'out')"/>
                <use id="reset" xlink:href="#resetDef" x="30" y="36" onmousedown="handleReset()"/>
                <g id="arrowUp" xlink:href="#dirArrow" transform="translate(30 24)" onmousedown="handlePan(0,-1)">
                  <use xlink:href="#rim" fill="#404040">
                        <set attributeName="fill" to="#808080" begin="arrowUp.mouseover" end="arrowUp.mouseout"/>
                  </use>
                  <path fill="none" stroke="white" stroke-width="1.5" d="M0,-3.0v7 M-2.5,-0.5L0,-3.0L2.5,-0.5"/>
                </g>
                <g id="arrowRight" xlink:href="#dirArrow" transform="rotate(90) translate(36 -43)" onmousedown="handlePan(1,0)">
                  <use xlink:href="#rim" fill="#404040">
                        <set attributeName="fill" to="#808080" begin="arrowRight.mouseover" end="arrowRight.mouseout"/>
                  </use>
                  <path fill="none" stroke="white" stroke-width="1.5" d="M0,-3.0v7 M-2.5,-0.5L0,-3.0L2.5,-0.5"/>
                </g>
                <g id="arrowDown" xlink:href="#dirArrow" transform="rotate(180) translate(-30 -48)" onmousedown="handlePan(0,1)">
                  <use xlink:href="#rim" fill="#404040">
                        <set attributeName="fill" to="#808080" begin="arrowDown.mouseover" end="arrowDown.mouseout"/>
                  </use>
                  <path fill="none" stroke="white" stroke-width="1.5" d="M0,-3.0v7 M-2.5,-0.5L0,-3.0L2.5,-0.5"/>
                </g>
                <g id="arrowLeft" xlink:href="#dirArrow" transform="rotate(270) translate(-36 17)" onmousedown="handlePan(-1,0)">
                  <use xlink:href="#rim" fill="#404040">
                        <set attributeName="fill" to="#808080" begin="arrowLeft.mouseover" end="arrowLeft.mouseout"/>
                  </use>
                  <path fill="none" stroke="white" stroke-width="1.5" d="M0,-3.0v7 M-2.5,-0.5L0,-3.0L2.5,-0.5"/>
                </g>
        </g>
        <svg viewBox="0 0 15 15" width="100%" height="30px" preserveAspectRatio="xMaxYMin meet">
         <g id="arrow_out" transform="scale(0.3 0.3)">
          <a xlink:href="classSITL_1_1Aircraft_a057713321d945fa4a97cd30fb684d15a_icgraph_org.svg" target="_base">
           <rect id="button" ry="5" rx="5" y="6" x="6" height="38" width="38"
                fill="#f2f5e9" fill-opacity="0.5" stroke="#606060" stroke-width="1.0"/>
           <path id="arrow"
             d="M 11.500037,31.436501 C 11.940474,20.09759 22.043105,11.32322 32.158766,21.979434 L 37.068811,17.246167 C 37.068811,17.246167 37.088388,32 37.088388,32 L 22.160133,31.978069 C 22.160133,31.978069 26.997745,27.140456 26.997745,27.140456 C 18.528582,18.264221 13.291696,25.230495 11.500037,31.436501 z"
             style="fill:#404040;"/>
          </a>
         </g>
        </svg>
</svg>
