<?xml version="1.0" encoding="UTF-8" standalone="no"?>
<!DOCTYPE svg PUBLIC "-//W3C//DTD SVG 1.1//EN"
 "http://www.w3.org/Graphics/SVG/1.1/DTD/svg11.dtd">
<!-- Generated by graphviz version 2.38.0 (20140413.2041)
 -->
<!-- Title: AP_MotorsMatrix Pages: 1 -->
<svg width="633pt" height="299pt"
 viewBox="0.00 0.00 632.50 299.00" xmlns="http://www.w3.org/2000/svg" xmlns:xlink="http://www.w3.org/1999/xlink">
<g id="graph0" class="graph" transform="scale(1 1) rotate(0) translate(4 295)">
<title>AP_MotorsMatrix</title>
<polygon fill="white" stroke="none" points="-4,4 -4,-295 628.5,-295 628.5,4 -4,4"/>
<!-- Node1 -->
<g id="node1" class="node"><title>Node1</title>
<polygon fill="#bfbfbf" stroke="black" points="286,-0.5 286,-19.5 378,-19.5 378,-0.5 286,-0.5"/>
<text text-anchor="middle" x="332" y="-7.5" font-family="Helvetica,sans-Serif" font-size="10.00">AP_MotorsMatrix</text>
</g>
<!-- Node2 -->
<g id="node2" class="node"><title>Node2</title>
<g id="a_node2"><a xlink:href="classAP__MotorsMulticopter.html" target="_top" xlink:title="AP_MotorsMulticopter">
<polygon fill="white" stroke="black" points="275.5,-57.5 275.5,-76.5 388.5,-76.5 388.5,-57.5 275.5,-57.5"/>
<text text-anchor="middle" x="332" y="-64.5" font-family="Helvetica,sans-Serif" font-size="10.00">AP_MotorsMulticopter</text>
</a>
</g>
</g>
<!-- Node2&#45;&gt;Node1 -->
<g id="edge1" class="edge"><title>Node2&#45;&gt;Node1</title>
<path fill="none" stroke="midnightblue" d="M332,-47.1166C332,-37.8173 332,-27.0557 332,-19.7149"/>
<polygon fill="midnightblue" stroke="midnightblue" points="328.5,-47.4062 332,-57.4062 335.5,-47.4063 328.5,-47.4062"/>
</g>
<!-- Node3 -->
<g id="node3" class="node"><title>Node3</title>
<g id="a_node3"><a xlink:href="classAP__Motors.html" target="_top" xlink:title="AP_Motors">
<polygon fill="white" stroke="black" points="192.5,-125.5 192.5,-144.5 257.5,-144.5 257.5,-125.5 192.5,-125.5"/>
<text text-anchor="middle" x="225" y="-132.5" font-family="Helvetica,sans-Serif" font-size="10.00">AP_Motors</text>
</a>
</g>
</g>
<!-- Node3&#45;&gt;Node2 -->
<g id="edge2" class="edge"><title>Node3&#45;&gt;Node2</title>
<path fill="none" stroke="midnightblue" d="M247.716,-119.988C269.002,-106.858 300.143,-87.6498 318.008,-76.6305"/>
<polygon fill="midnightblue" stroke="midnightblue" points="245.662,-117.143 238.988,-125.372 249.337,-123.101 245.662,-117.143"/>
</g>
<!-- Node4 -->
<g id="node4" class="node"><title>Node4</title>
<g id="a_node4"><a xlink:href="structAP__Motors_1_1AP__Motors__limit.html" target="_top" xlink:title="AP_Motors::AP_Motors\l_limit">
<polygon fill="white" stroke="black" points="0,-193.5 0,-223.5 120,-223.5 120,-193.5 0,-193.5"/>
<text text-anchor="start" x="8" y="-211.5" font-family="Helvetica,sans-Serif" font-size="10.00">AP_Motors::AP_Motors</text>
<text text-anchor="middle" x="60" y="-200.5" font-family="Helvetica,sans-Serif" font-size="10.00">_limit</text>
</a>
</g>
</g>
<!-- Node4&#45;&gt;Node3 -->
<g id="edge3" class="edge"><title>Node4&#45;&gt;Node3</title>
<path fill="none" stroke="#9a32cd" stroke-dasharray="5,2" d="M102.005,-189.298C135.003,-174.999 179.494,-155.719 204.928,-144.698"/>
<polygon fill="#9a32cd" stroke="#9a32cd" points="100.383,-186.186 92.5987,-193.374 103.166,-192.609 100.383,-186.186"/>
<text text-anchor="middle" x="169" y="-167" font-family="Helvetica,sans-Serif" font-size="10.00"> limit</text>
</g>
<!-- Node5 -->
<g id="node5" class="node"><title>Node5</title>
<g id="a_node5"><a xlink:href="classLowPassFilter.html" target="_top" xlink:title="LowPassFilter\&lt; float \&gt;">
<polygon fill="white" stroke="black" points="276,-199 276,-218 392,-218 392,-199 276,-199"/>
<text text-anchor="middle" x="334" y="-206" font-family="Helvetica,sans-Serif" font-size="10.00">LowPassFilter&lt; float &gt;</text>
</a>
</g>
</g>
<!-- Node5&#45;&gt;Node2 -->
<g id="edge7" class="edge"><title>Node5&#45;&gt;Node2</title>
<path fill="none" stroke="#9a32cd" stroke-dasharray="5,2" d="M333.729,-188.591C333.291,-158.022 332.443,-98.9338 332.125,-76.7231"/>
<polygon fill="#9a32cd" stroke="#9a32cd" points="330.232,-188.825 333.875,-198.774 337.231,-188.724 330.232,-188.825"/>
<text text-anchor="middle" x="373" y="-132.5" font-family="Helvetica,sans-Serif" font-size="10.00"> _batt_voltage_filt</text>
</g>
<!-- Node5&#45;&gt;Node3 -->
<g id="edge4" class="edge"><title>Node5&#45;&gt;Node3</title>
<path fill="none" stroke="#9a32cd" stroke-dasharray="5,2" d="M293.099,-195.357C280.139,-190.326 266.267,-183.613 255,-175 244.006,-166.595 234.913,-153.21 229.717,-144.514"/>
<polygon fill="#9a32cd" stroke="#9a32cd" points="292.179,-198.747 302.773,-198.88 294.574,-192.169 292.179,-198.747"/>
<text text-anchor="middle" x="286.5" y="-167" font-family="Helvetica,sans-Serif" font-size="10.00"> _throttle_filter</text>
</g>
<!-- Node6 -->
<g id="node6" class="node"><title>Node6</title>
<g id="a_node6"><a xlink:href="classDigitalLPF.html" target="_top" xlink:title="DigitalLPF\&lt; float \&gt;">
<polygon fill="white" stroke="black" points="284.5,-271.5 284.5,-290.5 383.5,-290.5 383.5,-271.5 284.5,-271.5"/>
<text text-anchor="middle" x="334" y="-278.5" font-family="Helvetica,sans-Serif" font-size="10.00">DigitalLPF&lt; float &gt;</text>
</a>
</g>
</g>
<!-- Node6&#45;&gt;Node5 -->
<g id="edge5" class="edge"><title>Node6&#45;&gt;Node5</title>
<path fill="none" stroke="#9a32cd" stroke-dasharray="5,2" d="M334,-260.942C334,-247.03 334,-228.82 334,-218.215"/>
<polygon fill="#9a32cd" stroke="#9a32cd" points="330.5,-261.355 334,-271.355 337.5,-261.355 330.5,-261.355"/>
<text text-anchor="middle" x="348" y="-245" font-family="Helvetica,sans-Serif" font-size="10.00"> _filter</text>
</g>
<!-- Node7 -->
<g id="node7" class="node"><title>Node7</title>
<g id="a_node7"><a xlink:href="structAP__Motors_1_1AP__Motors__flags.html" target="_top" xlink:title="AP_Motors::AP_Motors\l_flags">
<polygon fill="white" stroke="black" points="138,-193.5 138,-223.5 258,-223.5 258,-193.5 138,-193.5"/>
<text text-anchor="start" x="146" y="-211.5" font-family="Helvetica,sans-Serif" font-size="10.00">AP_Motors::AP_Motors</text>
<text text-anchor="middle" x="198" y="-200.5" font-family="Helvetica,sans-Serif" font-size="10.00">_flags</text>
</a>
</g>
</g>
<!-- Node7&#45;&gt;Node3 -->
<g id="edge6" class="edge"><title>Node7&#45;&gt;Node3</title>
<path fill="none" stroke="#9a32cd" stroke-dasharray="5,2" d="M196.97,-183.073C197.423,-176.68 198.574,-169.924 201,-164 204.009,-156.653 209.734,-149.854 214.838,-144.796"/>
<polygon fill="#9a32cd" stroke="#9a32cd" points="193.467,-183.209 196.764,-193.278 200.465,-183.35 193.467,-183.209"/>
<text text-anchor="middle" x="216" y="-167" font-family="Helvetica,sans-Serif" font-size="10.00"> _flags</text>
</g>
<!-- Node8 -->
<g id="node8" class="node"><title>Node8</title>
<g id="a_node8"><a xlink:href="structAP__Param_1_1GroupInfo.html" target="_top" xlink:title="AP_Param::GroupInfo">
<polygon fill="white" stroke="black" points="428.5,-125.5 428.5,-144.5 541.5,-144.5 541.5,-125.5 428.5,-125.5"/>
<text text-anchor="middle" x="485" y="-132.5" font-family="Helvetica,sans-Serif" font-size="10.00">AP_Param::GroupInfo</text>
</a>
</g>
</g>
<!-- Node8&#45;&gt;Node2 -->
<g id="edge8" class="edge"><title>Node8&#45;&gt;Node2</title>
<path fill="none" stroke="#9a32cd" stroke-dasharray="5,2" d="M455.738,-121.377C425.3,-108.247 378.468,-88.0452 352.007,-76.6305"/>
<polygon fill="#9a32cd" stroke="#9a32cd" points="454.429,-124.624 464.998,-125.372 457.202,-118.197 454.429,-124.624"/>
<text text-anchor="middle" x="437" y="-98" font-family="Helvetica,sans-Serif" font-size="10.00"> var_info</text>
</g>
<!-- Node8&#45;&gt;Node8 -->
<g id="edge9" class="edge"><title>Node8&#45;&gt;Node8</title>
<path fill="none" stroke="#9a32cd" stroke-dasharray="5,2" d="M551.488,-139.752C556.452,-138.69 559.5,-137.106 559.5,-135 559.5,-131.713 552.072,-129.697 541.526,-128.952"/>
<polygon fill="#9a32cd" stroke="#9a32cd" points="550.991,-136.287 541.526,-141.048 551.893,-143.229 550.991,-136.287"/>
<text text-anchor="middle" x="592" y="-138" font-family="Helvetica,sans-Serif" font-size="10.00"> group_info_ptr</text>
<text text-anchor="middle" x="592" y="-127" font-family="Helvetica,sans-Serif" font-size="10.00">group_info</text>
</g>
</g>
</svg>
