<?xml version="1.0" encoding="UTF-8" standalone="no"?>
<!DOCTYPE svg PUBLIC "-//W3C//DTD SVG 1.1//EN"
 "http://www.w3.org/Graphics/SVG/1.1/DTD/svg11.dtd">
<!-- Generated by graphviz version 2.38.0 (20140413.2041)
 -->
<!-- Title: VRBRAIN::VRBRAINAnalogSource::voltage_average_ratiometric Pages: 1 -->
<svg width="751pt" height="112pt"
 viewBox="0.00 0.00 751.00 112.00" xmlns="http://www.w3.org/2000/svg" xmlns:xlink="http://www.w3.org/1999/xlink">
<g id="graph0" class="graph" transform="scale(1 1) rotate(0) translate(4 108)">
<title>VRBRAIN::VRBRAINAnalogSource::voltage_average_ratiometric</title>
<polygon fill="white" stroke="none" points="-4,4 -4,-108 747,-108 747,4 -4,4"/>
<!-- Node1 -->
<g id="node1" class="node"><title>Node1</title>
<polygon fill="#bfbfbf" stroke="black" points="0,-51.5 0,-81.5 175,-81.5 175,-51.5 0,-51.5"/>
<text text-anchor="start" x="8" y="-69.5" font-family="Helvetica,sans-Serif" font-size="10.00">VRBRAIN::VRBRAINAnalogSource</text>
<text text-anchor="middle" x="87.5" y="-58.5" font-family="Helvetica,sans-Serif" font-size="10.00">::voltage_average_ratiometric</text>
</g>
<!-- Node2 -->
<g id="node2" class="node"><title>Node2</title>
<g id="a_node2"><a xlink:href="classVRBRAIN_1_1VRBRAINAnalogSource.html#adebcdf5de43a73f3ebdd8f1a6f2e9b5b" target="_top" xlink:title="VRBRAIN::VRBRAINAnalogSource\l::voltage_average">
<polygon fill="white" stroke="black" points="211,-29.5 211,-59.5 386,-59.5 386,-29.5 211,-29.5"/>
<text text-anchor="start" x="219" y="-47.5" font-family="Helvetica,sans-Serif" font-size="10.00">VRBRAIN::VRBRAINAnalogSource</text>
<text text-anchor="middle" x="298.5" y="-36.5" font-family="Helvetica,sans-Serif" font-size="10.00">::voltage_average</text>
</a>
</g>
</g>
<!-- Node1&#45;&gt;Node2 -->
<g id="edge1" class="edge"><title>Node1&#45;&gt;Node2</title>
<path fill="none" stroke="midnightblue" d="M175.017,-57.393C183.492,-56.5008 192.13,-55.5916 200.698,-54.6897"/>
<polygon fill="midnightblue" stroke="midnightblue" points="201.132,-58.1634 210.711,-53.6357 200.4,-51.2019 201.132,-58.1634"/>
</g>
<!-- Node3 -->
<g id="node3" class="node"><title>Node3</title>
<g id="a_node3"><a xlink:href="classVRBRAIN_1_1VRBRAINAnalogSource.html#a33bd6782b1090612272b74a229372fe3" target="_top" xlink:title="VRBRAIN::VRBRAINAnalogSource\l::_pin_scaler">
<polygon fill="white" stroke="black" points="422,-73.5 422,-103.5 597,-103.5 597,-73.5 422,-73.5"/>
<text text-anchor="start" x="430" y="-91.5" font-family="Helvetica,sans-Serif" font-size="10.00">VRBRAIN::VRBRAINAnalogSource</text>
<text text-anchor="middle" x="509.5" y="-80.5" font-family="Helvetica,sans-Serif" font-size="10.00">::_pin_scaler</text>
</a>
</g>
</g>
<!-- Node1&#45;&gt;Node3 -->
<g id="edge6" class="edge"><title>Node1&#45;&gt;Node3</title>
<path fill="none" stroke="midnightblue" d="M175.015,-71.0317C243.793,-74.6344 339.98,-79.6728 411.387,-83.4132"/>
<polygon fill="midnightblue" stroke="midnightblue" points="411.568,-86.9273 421.737,-83.9553 411.934,-79.9369 411.568,-86.9273"/>
</g>
<!-- Node2&#45;&gt;Node3 -->
<g id="edge2" class="edge"><title>Node2&#45;&gt;Node3</title>
<path fill="none" stroke="midnightblue" d="M370.841,-59.5192C388.984,-63.3388 408.615,-67.4716 427.213,-71.3869"/>
<polygon fill="midnightblue" stroke="midnightblue" points="426.619,-74.8385 437.126,-73.4738 428.061,-67.9887 426.619,-74.8385"/>
</g>
<!-- Node4 -->
<g id="node4" class="node"><title>Node4</title>
<g id="a_node4"><a xlink:href="classVRBRAIN_1_1VRBRAINAnalogSource.html#a97755c565c9b2cf9016da767d732590e" target="_top" xlink:title="VRBRAIN::VRBRAINAnalogSource\l::read_average">
<polygon fill="white" stroke="black" points="422,-24.5 422,-54.5 597,-54.5 597,-24.5 422,-24.5"/>
<text text-anchor="start" x="430" y="-42.5" font-family="Helvetica,sans-Serif" font-size="10.00">VRBRAIN::VRBRAINAnalogSource</text>
<text text-anchor="middle" x="509.5" y="-31.5" font-family="Helvetica,sans-Serif" font-size="10.00">::read_average</text>
</a>
</g>
</g>
<!-- Node2&#45;&gt;Node4 -->
<g id="edge3" class="edge"><title>Node2&#45;&gt;Node4</title>
<path fill="none" stroke="midnightblue" d="M386.017,-42.4302C394.492,-42.2275 403.13,-42.0208 411.698,-41.8158"/>
<polygon fill="midnightblue" stroke="midnightblue" points="411.798,-45.3146 421.711,-41.5763 411.63,-38.3166 411.798,-45.3146"/>
</g>
<!-- Node5 -->
<g id="node5" class="node"><title>Node5</title>
<g id="a_node5"><a xlink:href="classAP__HAL_1_1Scheduler.html#ae7d4952721abae16479fef1f0ca37145" target="_top" xlink:title="AP_HAL::Scheduler::\lsuspend_timer_procs">
<polygon fill="white" stroke="black" points="633,-49.5 633,-79.5 743,-79.5 743,-49.5 633,-49.5"/>
<text text-anchor="start" x="641" y="-67.5" font-family="Helvetica,sans-Serif" font-size="10.00">AP_HAL::Scheduler::</text>
<text text-anchor="middle" x="688" y="-56.5" font-family="Helvetica,sans-Serif" font-size="10.00">suspend_timer_procs</text>
</a>
</g>
</g>
<!-- Node4&#45;&gt;Node5 -->
<g id="edge4" class="edge"><title>Node4&#45;&gt;Node5</title>
<path fill="none" stroke="midnightblue" d="M597.199,-51.7803C605.876,-53.0093 614.573,-54.2412 622.954,-55.4284"/>
<polygon fill="midnightblue" stroke="midnightblue" points="622.607,-58.914 632.999,-56.8511 623.588,-51.9832 622.607,-58.914"/>
</g>
<!-- Node6 -->
<g id="node6" class="node"><title>Node6</title>
<g id="a_node6"><a xlink:href="classAP__HAL_1_1Scheduler.html#a7c51e7d405211cac2090dbd456223ef7" target="_top" xlink:title="AP_HAL::Scheduler::\lresume_timer_procs">
<polygon fill="white" stroke="black" points="633,-0.5 633,-30.5 743,-30.5 743,-0.5 633,-0.5"/>
<text text-anchor="start" x="641" y="-18.5" font-family="Helvetica,sans-Serif" font-size="10.00">AP_HAL::Scheduler::</text>
<text text-anchor="middle" x="688" y="-7.5" font-family="Helvetica,sans-Serif" font-size="10.00">resume_timer_procs</text>
</a>
</g>
</g>
<!-- Node4&#45;&gt;Node6 -->
<g id="edge5" class="edge"><title>Node4&#45;&gt;Node6</title>
<path fill="none" stroke="midnightblue" d="M597.199,-27.7109C605.876,-26.531 614.573,-25.3484 622.954,-24.2087"/>
<polygon fill="midnightblue" stroke="midnightblue" points="623.562,-27.6585 632.999,-22.8429 622.618,-20.7223 623.562,-27.6585"/>
</g>
</g>
</svg>
