<?xml version="1.0" encoding="UTF-8" standalone="no"?>
<!DOCTYPE svg PUBLIC "-//W3C//DTD SVG 1.1//EN"
 "http://www.w3.org/Graphics/SVG/1.1/DTD/svg11.dtd">
<!-- Generated by graphviz version 2.38.0 (20140413.2041)
 -->
<!-- Title: AP_BattMonitor_SMBus_Maxell::check_pec_support Pages: 1 -->
<svg width="469pt" height="50pt"
 viewBox="0.00 0.00 469.00 50.00" xmlns="http://www.w3.org/2000/svg" xmlns:xlink="http://www.w3.org/1999/xlink">
<g id="graph0" class="graph" transform="scale(1 1) rotate(0) translate(4 46)">
<title>AP_BattMonitor_SMBus_Maxell::check_pec_support</title>
<polygon fill="white" stroke="none" points="-4,4 -4,-46 465,-46 465,4 -4,4"/>
<!-- Node1 -->
<g id="node1" class="node"><title>Node1</title>
<polygon fill="#bfbfbf" stroke="black" points="0,-6 0,-36 141,-36 141,-6 0,-6"/>
<text text-anchor="start" x="8" y="-24" font-family="Helvetica,sans-Serif" font-size="10.00">AP_BattMonitor_SMBus</text>
<text text-anchor="middle" x="70.5" y="-13" font-family="Helvetica,sans-Serif" font-size="10.00">_Maxell::check_pec_support</text>
</g>
<!-- Node2 -->
<g id="node2" class="node"><title>Node2</title>
<g id="a_node2"><a xlink:href="classAP__BattMonitor__SMBus__Maxell.html#a9774b2c0d3b19a74ff3ef14be93508f0" target="_top" xlink:title="AP_BattMonitor_SMBus\l_Maxell::timer">
<polygon fill="white" stroke="black" points="177,-6 177,-36 300,-36 300,-6 177,-6"/>
<text text-anchor="start" x="185" y="-24" font-family="Helvetica,sans-Serif" font-size="10.00">AP_BattMonitor_SMBus</text>
<text text-anchor="middle" x="238.5" y="-13" font-family="Helvetica,sans-Serif" font-size="10.00">_Maxell::timer</text>
</a>
</g>
</g>
<!-- Node1&#45;&gt;Node2 -->
<g id="edge1" class="edge"><title>Node1&#45;&gt;Node2</title>
<path fill="none" stroke="midnightblue" d="M151.425,-21C159.985,-21 168.589,-21 176.872,-21"/>
<polygon fill="midnightblue" stroke="midnightblue" points="151.418,-17.5001 141.418,-21 151.418,-24.5001 151.418,-17.5001"/>
</g>
<!-- Node3 -->
<g id="node3" class="node"><title>Node3</title>
<g id="a_node3"><a xlink:href="classAP__BattMonitor__SMBus__Maxell.html#a5c20a1f16cd958220b062bddefdd287e" target="_top" xlink:title="AP_BattMonitor_SMBus\l_Maxell::AP_BattMonitor\l_SMBus_Maxell">
<polygon fill="white" stroke="black" points="336,-0.5 336,-41.5 461,-41.5 461,-0.5 336,-0.5"/>
<text text-anchor="start" x="344" y="-29.5" font-family="Helvetica,sans-Serif" font-size="10.00">AP_BattMonitor_SMBus</text>
<text text-anchor="start" x="344" y="-18.5" font-family="Helvetica,sans-Serif" font-size="10.00">_Maxell::AP_BattMonitor</text>
<text text-anchor="middle" x="398.5" y="-7.5" font-family="Helvetica,sans-Serif" font-size="10.00">_SMBus_Maxell</text>
</a>
</g>
</g>
<!-- Node2&#45;&gt;Node3 -->
<g id="edge2" class="edge"><title>Node2&#45;&gt;Node3</title>
<path fill="none" stroke="midnightblue" d="M310.159,-21C318.771,-21 327.518,-21 335.982,-21"/>
<polygon fill="midnightblue" stroke="midnightblue" points="310.135,-17.5001 300.135,-21 310.135,-24.5001 310.135,-17.5001"/>
</g>
</g>
</svg>
