<?xml version="1.0" encoding="UTF-8" standalone="no"?>
<!DOCTYPE svg PUBLIC "-//W3C//DTD SVG 1.1//EN"
 "http://www.w3.org/Graphics/SVG/1.1/DTD/svg11.dtd">
<!-- Generated by graphviz version 2.38.0 (20140413.2041)
 -->
<!-- Title: Linux::PWM_Sysfs::_generate_export_path Pages: 1 -->
<svg width="584pt" height="274pt"
 viewBox="0.00 0.00 584.00 274.00" xmlns="http://www.w3.org/2000/svg" xmlns:xlink="http://www.w3.org/1999/xlink">
<g id="graph0" class="graph" transform="scale(1 1) rotate(0) translate(4 270)">
<title>Linux::PWM_Sysfs::_generate_export_path</title>
<polygon fill="white" stroke="none" points="-4,4 -4,-270 580,-270 580,4 -4,4"/>
<!-- Node1 -->
<g id="node1" class="node"><title>Node1</title>
<polygon fill="#bfbfbf" stroke="black" points="0,-139.5 0,-169.5 116,-169.5 116,-139.5 0,-139.5"/>
<text text-anchor="start" x="8" y="-157.5" font-family="Helvetica,sans-Serif" font-size="10.00">Linux::PWM_Sysfs::</text>
<text text-anchor="middle" x="58" y="-146.5" font-family="Helvetica,sans-Serif" font-size="10.00">_generate_export_path</text>
</g>
<!-- Node2 -->
<g id="node2" class="node"><title>Node2</title>
<g id="a_node2"><a xlink:href="replace_8cpp.html#a28a648dd20504ebc0c03623a28d82c93" target="_top" xlink:title="asprintf">
<polygon fill="white" stroke="black" points="169.5,-164 169.5,-183 218.5,-183 218.5,-164 169.5,-164"/>
<text text-anchor="middle" x="194" y="-171" font-family="Helvetica,sans-Serif" font-size="10.00">asprintf</text>
</a>
</g>
</g>
<!-- Node1&#45;&gt;Node2 -->
<g id="edge1" class="edge"><title>Node1&#45;&gt;Node2</title>
<path fill="none" stroke="midnightblue" d="M116.217,-162.613C130.923,-164.698 146.271,-166.874 159.346,-168.728"/>
<polygon fill="midnightblue" stroke="midnightblue" points="158.896,-172.199 169.288,-170.138 159.879,-165.269 158.896,-172.199"/>
</g>
<!-- Node4 -->
<g id="node4" class="node"><title>Node4</title>
<g id="a_node4"><a xlink:href="namespaceAP__HAL.html#a71832f03d849a0c088f04fc98d3c8143" target="_top" xlink:title="AP_HAL::panic">
<polygon fill="white" stroke="black" points="152,-126 152,-145 236,-145 236,-126 152,-126"/>
<text text-anchor="middle" x="194" y="-133" font-family="Helvetica,sans-Serif" font-size="10.00">AP_HAL::panic</text>
</a>
</g>
</g>
<!-- Node1&#45;&gt;Node4 -->
<g id="edge3" class="edge"><title>Node1&#45;&gt;Node4</title>
<path fill="none" stroke="midnightblue" d="M116.217,-146.387C124.713,-145.183 133.423,-143.947 141.786,-142.762"/>
<polygon fill="midnightblue" stroke="midnightblue" points="142.367,-146.214 151.776,-141.345 141.384,-139.284 142.367,-146.214"/>
</g>
<!-- Node3 -->
<g id="node3" class="node"><title>Node3</title>
<g id="a_node3"><a xlink:href="replace_8cpp.html#a4e85b35525311e653744c2bfd3e9971e" target="_top" xlink:title="vasprintf">
<polygon fill="white" stroke="black" points="316.5,-164 316.5,-183 370.5,-183 370.5,-164 316.5,-164"/>
<text text-anchor="middle" x="343.5" y="-171" font-family="Helvetica,sans-Serif" font-size="10.00">vasprintf</text>
</a>
</g>
</g>
<!-- Node2&#45;&gt;Node3 -->
<g id="edge2" class="edge"><title>Node2&#45;&gt;Node3</title>
<path fill="none" stroke="midnightblue" d="M218.698,-173.5C242.279,-173.5 278.785,-173.5 306.055,-173.5"/>
<polygon fill="midnightblue" stroke="midnightblue" points="306.374,-177 316.374,-173.5 306.374,-170 306.374,-177"/>
</g>
<!-- Node5 -->
<g id="node5" class="node"><title>Node5</title>
<g id="a_node5"><a xlink:href="classAP__HAL_1_1RCInput.html#a2bea13d38f2b9ae8bf5193a3a69f0a31" target="_top" xlink:title="AP_HAL::RCInput::teardown">
<polygon fill="white" stroke="black" points="272,-126 272,-145 415,-145 415,-126 272,-126"/>
<text text-anchor="middle" x="343.5" y="-133" font-family="Helvetica,sans-Serif" font-size="10.00">AP_HAL::RCInput::teardown</text>
</a>
</g>
</g>
<!-- Node4&#45;&gt;Node5 -->
<g id="edge4" class="edge"><title>Node4&#45;&gt;Node5</title>
<path fill="none" stroke="midnightblue" d="M236.087,-135.5C244.2,-135.5 252.975,-135.5 261.884,-135.5"/>
<polygon fill="midnightblue" stroke="midnightblue" points="261.972,-139 271.971,-135.5 261.971,-132 261.972,-139"/>
</g>
<!-- Node12 -->
<g id="node12" class="node"><title>Node12</title>
<g id="a_node12"><a xlink:href="classAP__HAL_1_1Scheduler.html#a78c4f1b1f192ac1c99544b6cc8f099b0" target="_top" xlink:title="AP_HAL::Scheduler::\ldelay_microseconds">
<polygon fill="white" stroke="black" points="288.5,-76.5 288.5,-106.5 398.5,-106.5 398.5,-76.5 288.5,-76.5"/>
<text text-anchor="start" x="296.5" y="-94.5" font-family="Helvetica,sans-Serif" font-size="10.00">AP_HAL::Scheduler::</text>
<text text-anchor="middle" x="343.5" y="-83.5" font-family="Helvetica,sans-Serif" font-size="10.00">delay_microseconds</text>
</a>
</g>
</g>
<!-- Node4&#45;&gt;Node12 -->
<g id="edge11" class="edge"><title>Node4&#45;&gt;Node12</title>
<path fill="none" stroke="midnightblue" d="M227.005,-125.953C243.167,-121.131 263.317,-115.121 282.241,-109.476"/>
<polygon fill="midnightblue" stroke="midnightblue" points="283.415,-112.778 291.997,-106.565 281.414,-106.07 283.415,-112.778"/>
</g>
<!-- Node6 -->
<g id="node6" class="node"><title>Node6</title>
<g id="a_node6"><a xlink:href="classAP__HAL_1_1RCInput.html#aee1fade33080edef83dd7db0fad0f7da" target="_top" xlink:title="AP_HAL::RCInput::new\l_input">
<polygon fill="white" stroke="black" points="452.5,-235.5 452.5,-265.5 574.5,-265.5 574.5,-235.5 452.5,-235.5"/>
<text text-anchor="start" x="460.5" y="-253.5" font-family="Helvetica,sans-Serif" font-size="10.00">AP_HAL::RCInput::new</text>
<text text-anchor="middle" x="513.5" y="-242.5" font-family="Helvetica,sans-Serif" font-size="10.00">_input</text>
</a>
</g>
</g>
<!-- Node5&#45;&gt;Node6 -->
<g id="edge5" class="edge"><title>Node5&#45;&gt;Node6</title>
<path fill="none" stroke="midnightblue" d="M399.163,-145.121C404.866,-147.575 410.289,-150.649 415,-154.5 442.702,-177.141 424.57,-202.386 451,-226.5 452.281,-227.668 453.625,-228.782 455.02,-229.845"/>
<polygon fill="midnightblue" stroke="midnightblue" points="453.204,-232.839 463.49,-235.376 457.031,-226.978 453.204,-232.839"/>
</g>
<!-- Node7 -->
<g id="node7" class="node"><title>Node7</title>
<g id="a_node7"><a xlink:href="classAP__HAL_1_1RCInput.html#ae55f959c6115c1f41783af3a2b6c4fcd" target="_top" xlink:title="AP_HAL::RCInput::num\l_channels">
<polygon fill="white" stroke="black" points="452.5,-186.5 452.5,-216.5 574.5,-216.5 574.5,-186.5 452.5,-186.5"/>
<text text-anchor="start" x="460.5" y="-204.5" font-family="Helvetica,sans-Serif" font-size="10.00">AP_HAL::RCInput::num</text>
<text text-anchor="middle" x="513.5" y="-193.5" font-family="Helvetica,sans-Serif" font-size="10.00">_channels</text>
</a>
</g>
</g>
<!-- Node5&#45;&gt;Node7 -->
<g id="edge6" class="edge"><title>Node5&#45;&gt;Node7</title>
<path fill="none" stroke="midnightblue" d="M387.665,-145.039C396.855,-147.646 406.382,-150.796 415,-154.5 432.228,-161.904 434.259,-168.053 451,-176.5 454.986,-178.511 459.173,-180.486 463.41,-182.39"/>
<polygon fill="midnightblue" stroke="midnightblue" points="462.139,-185.654 472.706,-186.429 464.929,-179.234 462.139,-185.654"/>
</g>
<!-- Node8 -->
<g id="node8" class="node"><title>Node8</title>
<g id="a_node8"><a xlink:href="classAP__HAL_1_1RCInput.html#a078fd7e6d2e6a899009ec674a8e03498" target="_top" xlink:title="AP_HAL::RCInput::read">
<polygon fill="white" stroke="black" points="452.5,-148 452.5,-167 574.5,-167 574.5,-148 452.5,-148"/>
<text text-anchor="middle" x="513.5" y="-155" font-family="Helvetica,sans-Serif" font-size="10.00">AP_HAL::RCInput::read</text>
</a>
</g>
</g>
<!-- Node5&#45;&gt;Node8 -->
<g id="edge7" class="edge"><title>Node5&#45;&gt;Node8</title>
<path fill="none" stroke="midnightblue" d="M415.26,-144.766C424.251,-145.944 433.45,-147.148 442.431,-148.324"/>
<polygon fill="midnightblue" stroke="midnightblue" points="442.084,-151.809 452.454,-149.637 442.993,-144.868 442.084,-151.809"/>
</g>
<!-- Node9 -->
<g id="node9" class="node"><title>Node9</title>
<g id="a_node9"><a xlink:href="classAP__HAL_1_1RCInput.html#a0989c5ca271631fe655c047d4a022a3d" target="_top" xlink:title="AP_HAL::RCInput::set\l_overrides">
<polygon fill="white" stroke="black" points="455,-98.5 455,-128.5 572,-128.5 572,-98.5 455,-98.5"/>
<text text-anchor="start" x="463" y="-116.5" font-family="Helvetica,sans-Serif" font-size="10.00">AP_HAL::RCInput::set</text>
<text text-anchor="middle" x="513.5" y="-105.5" font-family="Helvetica,sans-Serif" font-size="10.00">_overrides</text>
</a>
</g>
</g>
<!-- Node5&#45;&gt;Node9 -->
<g id="edge8" class="edge"><title>Node5&#45;&gt;Node9</title>
<path fill="none" stroke="midnightblue" d="M415.26,-126.234C425.044,-124.953 435.073,-123.639 444.799,-122.366"/>
<polygon fill="midnightblue" stroke="midnightblue" points="445.342,-125.825 454.802,-121.056 444.433,-118.884 445.342,-125.825"/>
</g>
<!-- Node10 -->
<g id="node10" class="node"><title>Node10</title>
<g id="a_node10"><a xlink:href="classAP__HAL_1_1RCInput.html#abfd037ca0989a0422a60f418d34eb7d5" target="_top" xlink:title="AP_HAL::RCInput::set\l_override">
<polygon fill="white" stroke="black" points="455,-49.5 455,-79.5 572,-79.5 572,-49.5 455,-49.5"/>
<text text-anchor="start" x="463" y="-67.5" font-family="Helvetica,sans-Serif" font-size="10.00">AP_HAL::RCInput::set</text>
<text text-anchor="middle" x="513.5" y="-56.5" font-family="Helvetica,sans-Serif" font-size="10.00">_override</text>
</a>
</g>
</g>
<!-- Node5&#45;&gt;Node10 -->
<g id="edge9" class="edge"><title>Node5&#45;&gt;Node10</title>
<path fill="none" stroke="midnightblue" d="M390.183,-125.918C398.644,-123.386 407.251,-120.276 415,-116.5 432.979,-107.74 433.592,-99.3472 451,-89.5 454.456,-87.5449 458.096,-85.6632 461.808,-83.8706"/>
<polygon fill="midnightblue" stroke="midnightblue" points="463.482,-86.9532 471.117,-79.6071 460.568,-80.5889 463.482,-86.9532"/>
</g>
<!-- Node11 -->
<g id="node11" class="node"><title>Node11</title>
<g id="a_node11"><a xlink:href="classAP__HAL_1_1RCInput.html#ab3671bbe43fdb97c53071d7832ac256e" target="_top" xlink:title="AP_HAL::RCInput::clear\l_overrides">
<polygon fill="white" stroke="black" points="451,-0.5 451,-30.5 576,-30.5 576,-0.5 451,-0.5"/>
<text text-anchor="start" x="459" y="-18.5" font-family="Helvetica,sans-Serif" font-size="10.00">AP_HAL::RCInput::clear</text>
<text text-anchor="middle" x="513.5" y="-7.5" font-family="Helvetica,sans-Serif" font-size="10.00">_overrides</text>
</a>
</g>
</g>
<!-- Node5&#45;&gt;Node11 -->
<g id="edge10" class="edge"><title>Node5&#45;&gt;Node11</title>
<path fill="none" stroke="midnightblue" d="M399.245,-125.978C404.933,-123.506 410.33,-120.4 415,-116.5 443.686,-92.5412 423.838,-66.1746 451,-40.5 452.633,-38.9561 454.375,-37.5024 456.198,-36.134"/>
<polygon fill="midnightblue" stroke="midnightblue" points="458.148,-39.0411 464.638,-30.6665 454.342,-33.1661 458.148,-39.0411"/>
</g>
</g>
</svg>
