<?xml version="1.0" encoding="UTF-8" standalone="no"?>
<!DOCTYPE svg PUBLIC "-//W3C//DTD SVG 1.1//EN"
 "http://www.w3.org/Graphics/SVG/1.1/DTD/svg11.dtd">
<!-- Generated by graphviz version 2.38.0 (20140413.2041)
 -->
<!-- Title: NavEKF2::setTouchdownExpected Pages: 1 -->
<svg width="718pt" height="127pt"
 viewBox="0.00 0.00 718.00 127.00" xmlns="http://www.w3.org/2000/svg" xmlns:xlink="http://www.w3.org/1999/xlink">
<g id="graph0" class="graph" transform="scale(1 1) rotate(0) translate(4 123)">
<title>NavEKF2::setTouchdownExpected</title>
<polygon fill="white" stroke="none" points="-4,4 -4,-123 714,-123 714,4 -4,4"/>
<!-- Node1 -->
<g id="node1" class="node"><title>Node1</title>
<polygon fill="#bfbfbf" stroke="black" points="0,-28 0,-47 170,-47 170,-28 0,-28"/>
<text text-anchor="middle" x="85" y="-35" font-family="Helvetica,sans-Serif" font-size="10.00">NavEKF2::setTouchdownExpected</text>
</g>
<!-- Node2 -->
<g id="node2" class="node"><title>Node2</title>
<g id="a_node2"><a xlink:href="classNavEKF2.html#ab18af2714c15fcf190493c01e2a28c73" target="_top" xlink:title="NavEKF2::activeCores">
<polygon fill="white" stroke="black" points="235,-50 235,-69 353,-69 353,-50 235,-50"/>
<text text-anchor="middle" x="294" y="-57" font-family="Helvetica,sans-Serif" font-size="10.00">NavEKF2::activeCores</text>
</a>
</g>
</g>
<!-- Node1&#45;&gt;Node2 -->
<g id="edge1" class="edge"><title>Node1&#45;&gt;Node2</title>
<path fill="none" stroke="midnightblue" d="M180.187,-47.5102C198.818,-49.4903 217.855,-51.5136 234.857,-53.3206"/>
<polygon fill="midnightblue" stroke="midnightblue" points="180.509,-44.0248 170.195,-46.4482 179.769,-50.9856 180.509,-44.0248"/>
</g>
<!-- Node6 -->
<g id="node6" class="node"><title>Node6</title>
<g id="a_node6"><a xlink:href="classAP__AHRS__NavEKF.html#a27e21a499abb5dfd822ac87e6f89c0c1" target="_top" xlink:title="AP_AHRS_NavEKF::setTouchdown\lExpected">
<polygon fill="white" stroke="black" points="206,-0.5 206,-30.5 382,-30.5 382,-0.5 206,-0.5"/>
<text text-anchor="start" x="214" y="-18.5" font-family="Helvetica,sans-Serif" font-size="10.00">AP_AHRS_NavEKF::setTouchdown</text>
<text text-anchor="middle" x="294" y="-7.5" font-family="Helvetica,sans-Serif" font-size="10.00">Expected</text>
</a>
</g>
</g>
<!-- Node1&#45;&gt;Node6 -->
<g id="edge5" class="edge"><title>Node1&#45;&gt;Node6</title>
<path fill="none" stroke="midnightblue" d="M180.179,-27.4907C188.729,-26.5819 197.365,-25.6641 205.851,-24.7622"/>
<polygon fill="midnightblue" stroke="midnightblue" points="179.769,-24.0144 170.195,-28.5518 180.509,-30.9752 179.769,-24.0144"/>
</g>
<!-- Node3 -->
<g id="node3" class="node"><title>Node3</title>
<g id="a_node3"><a xlink:href="classDataFlash__Class.html#a46e58faaa53c44516433f6bb7bde4163" target="_top" xlink:title="DataFlash_Class::Log\l_Write_POS">
<polygon fill="white" stroke="black" points="433,-88.5 433,-118.5 547,-118.5 547,-88.5 433,-88.5"/>
<text text-anchor="start" x="441" y="-106.5" font-family="Helvetica,sans-Serif" font-size="10.00">DataFlash_Class::Log</text>
<text text-anchor="middle" x="490" y="-95.5" font-family="Helvetica,sans-Serif" font-size="10.00">_Write_POS</text>
</a>
</g>
</g>
<!-- Node2&#45;&gt;Node3 -->
<g id="edge2" class="edge"><title>Node2&#45;&gt;Node3</title>
<path fill="none" stroke="midnightblue" d="M346.968,-71.2866C373.529,-77.3107 405.879,-84.6479 432.993,-90.7974"/>
<polygon fill="midnightblue" stroke="midnightblue" points="347.622,-67.846 337.095,-69.0473 346.073,-74.6726 347.622,-67.846"/>
</g>
<!-- Node5 -->
<g id="node5" class="node"><title>Node5</title>
<g id="a_node5"><a xlink:href="classGCS__MAVLINK.html#a558ba3447048b78cb9dde460053e2741" target="_top" xlink:title="GCS_MAVLINK::send_ahrs2">
<polygon fill="white" stroke="black" points="418,-50 418,-69 562,-69 562,-50 418,-50"/>
<text text-anchor="middle" x="490" y="-57" font-family="Helvetica,sans-Serif" font-size="10.00">GCS_MAVLINK::send_ahrs2</text>
</a>
</g>
</g>
<!-- Node2&#45;&gt;Node5 -->
<g id="edge4" class="edge"><title>Node2&#45;&gt;Node5</title>
<path fill="none" stroke="midnightblue" d="M363.404,-59.5C381.028,-59.5 400.036,-59.5 417.799,-59.5"/>
<polygon fill="midnightblue" stroke="midnightblue" points="363.206,-56.0001 353.206,-59.5 363.206,-63.0001 363.206,-56.0001"/>
</g>
<!-- Node4 -->
<g id="node4" class="node"><title>Node4</title>
<g id="a_node4"><a xlink:href="classDataFlash__Class.html#a7868f0e3dcef65ea5b5fcae618f4c5d4" target="_top" xlink:title="DataFlash_Class::get\l_structures">
<polygon fill="white" stroke="black" points="598,-88.5 598,-118.5 710,-118.5 710,-88.5 598,-88.5"/>
<text text-anchor="start" x="606" y="-106.5" font-family="Helvetica,sans-Serif" font-size="10.00">DataFlash_Class::get</text>
<text text-anchor="middle" x="654" y="-95.5" font-family="Helvetica,sans-Serif" font-size="10.00">_structures</text>
</a>
</g>
</g>
<!-- Node3&#45;&gt;Node4 -->
<g id="edge3" class="edge"><title>Node3&#45;&gt;Node4</title>
<path fill="none" stroke="midnightblue" d="M557.39,-103.5C570.885,-103.5 584.94,-103.5 597.988,-103.5"/>
<polygon fill="midnightblue" stroke="midnightblue" points="557.205,-100 547.205,-103.5 557.205,-107 557.205,-100"/>
</g>
<!-- Node7 -->
<g id="node7" class="node"><title>Node7</title>
<g id="a_node7"><a xlink:href="classAP__AHRS__NavEKF.html#add98225e5350abab51cccd311f5496c3" target="_top" xlink:title="AP_AHRS_NavEKF::get\l_NavEKF3_const">
<polygon fill="white" stroke="black" points="427,-0.5 427,-30.5 553,-30.5 553,-0.5 427,-0.5"/>
<text text-anchor="start" x="435" y="-18.5" font-family="Helvetica,sans-Serif" font-size="10.00">AP_AHRS_NavEKF::get</text>
<text text-anchor="middle" x="490" y="-7.5" font-family="Helvetica,sans-Serif" font-size="10.00">_NavEKF3_const</text>
</a>
</g>
</g>
<!-- Node6&#45;&gt;Node7 -->
<g id="edge6" class="edge"><title>Node6&#45;&gt;Node7</title>
<path fill="none" stroke="midnightblue" d="M392.372,-15.5C404.113,-15.5 415.846,-15.5 426.885,-15.5"/>
<polygon fill="midnightblue" stroke="midnightblue" points="392.069,-12.0001 382.069,-15.5 392.069,-19.0001 392.069,-12.0001"/>
</g>
</g>
</svg>
