<?xml version="1.0" encoding="UTF-8" standalone="no"?>
<!DOCTYPE svg PUBLIC "-//W3C//DTD SVG 1.1//EN"
 "http://www.w3.org/Graphics/SVG/1.1/DTD/svg11.dtd">
<!-- Generated by graphviz version 2.38.0 (20140413.2041)
 -->
<!-- Title: CompassCalibrator::calc_mean_squared_residuals Pages: 1 -->
<svg width="303pt" height="127pt"
 viewBox="0.00 0.00 303.00 126.50" xmlns="http://www.w3.org/2000/svg" xmlns:xlink="http://www.w3.org/1999/xlink">
<g id="graph0" class="graph" transform="scale(1 1) rotate(0) translate(4 122.5)">
<title>CompassCalibrator::calc_mean_squared_residuals</title>
<polygon fill="white" stroke="none" points="-4,4 -4,-122.5 299,-122.5 299,4 -4,4"/>
<!-- Node1 -->
<g id="node1" class="node"><title>Node1</title>
<polygon fill="#bfbfbf" stroke="black" points="0,-39 0,-69 148,-69 148,-39 0,-39"/>
<text text-anchor="start" x="8" y="-57" font-family="Helvetica,sans-Serif" font-size="10.00">CompassCalibrator::</text>
<text text-anchor="middle" x="74" y="-46" font-family="Helvetica,sans-Serif" font-size="10.00">calc_mean_squared_residuals</text>
</g>
<!-- Node2 -->
<g id="node2" class="node"><title>Node2</title>
<g id="a_node2"><a xlink:href="classCompassCalibrator_1_1CompassSample.html#aa15059b264357a9920251a7c0c7c251a" target="_top" xlink:title="CompassCalibrator::\lCompassSample::get">
<polygon fill="white" stroke="black" points="184,-88 184,-118 295,-118 295,-88 184,-88"/>
<text text-anchor="start" x="192" y="-106" font-family="Helvetica,sans-Serif" font-size="10.00">CompassCalibrator::</text>
<text text-anchor="middle" x="239.5" y="-95" font-family="Helvetica,sans-Serif" font-size="10.00">CompassSample::get</text>
</a>
</g>
</g>
<!-- Node1&#45;&gt;Node2 -->
<g id="edge1" class="edge"><title>Node1&#45;&gt;Node2</title>
<path fill="none" stroke="midnightblue" d="M125.389,-69.1014C142.096,-74.1083 160.862,-79.7324 178.235,-84.939"/>
<polygon fill="midnightblue" stroke="midnightblue" points="177.693,-88.4302 188.277,-87.9484 179.703,-81.7249 177.693,-88.4302"/>
</g>
<!-- Node3 -->
<g id="node3" class="node"><title>Node3</title>
<g id="a_node3"><a xlink:href="classCompassCalibrator.html#ae927f4d79bb487395fb5c0558b9229b6" target="_top" xlink:title="CompassCalibrator::\lcalc_residual">
<polygon fill="white" stroke="black" points="186,-39 186,-69 293,-69 293,-39 186,-39"/>
<text text-anchor="start" x="194" y="-57" font-family="Helvetica,sans-Serif" font-size="10.00">CompassCalibrator::</text>
<text text-anchor="middle" x="239.5" y="-46" font-family="Helvetica,sans-Serif" font-size="10.00">calc_residual</text>
</a>
</g>
</g>
<!-- Node1&#45;&gt;Node3 -->
<g id="edge2" class="edge"><title>Node1&#45;&gt;Node3</title>
<path fill="none" stroke="midnightblue" d="M148.142,-54C157.409,-54 166.824,-54 175.905,-54"/>
<polygon fill="midnightblue" stroke="midnightblue" points="175.991,-57.5001 185.991,-54 175.991,-50.5001 175.991,-57.5001"/>
</g>
<!-- Node4 -->
<g id="node4" class="node"><title>Node4</title>
<g id="a_node4"><a xlink:href="AP__Math_8h.html#a0375e3d67fd3911cacee5c3e1408c0f2" target="_top" xlink:title="sq">
<polygon fill="white" stroke="black" points="225,-0.5 225,-19.5 254,-19.5 254,-0.5 225,-0.5"/>
<text text-anchor="middle" x="239.5" y="-7.5" font-family="Helvetica,sans-Serif" font-size="10.00">sq</text>
</a>
</g>
</g>
<!-- Node1&#45;&gt;Node4 -->
<g id="edge3" class="edge"><title>Node1&#45;&gt;Node4</title>
<path fill="none" stroke="midnightblue" d="M130.81,-38.9808C159.589,-31.2359 193.153,-22.2035 215.062,-16.3074"/>
<polygon fill="midnightblue" stroke="midnightblue" points="216.063,-19.6628 224.81,-13.6843 214.244,-12.9033 216.063,-19.6628"/>
</g>
</g>
</svg>
