<?xml version="1.0" encoding="UTF-8" standalone="no"?>
<!DOCTYPE svg PUBLIC "-//W3C//DTD SVG 1.1//EN"
 "http://www.w3.org/Graphics/SVG/1.1/DTD/svg11.dtd">
<!-- Generated by graphviz version 2.38.0 (20140413.2041)
 -->
<!-- Title: Linux::PollerThread::add_timer Pages: 1 -->
<svg width="391pt" height="88pt"
 viewBox="0.00 0.00 391.00 88.00" xmlns="http://www.w3.org/2000/svg" xmlns:xlink="http://www.w3.org/1999/xlink">
<g id="graph0" class="graph" transform="scale(1 1) rotate(0) translate(4 84)">
<title>Linux::PollerThread::add_timer</title>
<polygon fill="white" stroke="none" points="-4,4 -4,-84 387,-84 387,4 -4,4"/>
<!-- Node1 -->
<g id="node1" class="node"><title>Node1</title>
<polygon fill="#bfbfbf" stroke="black" points="0,-24.5 0,-54.5 101,-54.5 101,-24.5 0,-24.5"/>
<text text-anchor="start" x="8" y="-42.5" font-family="Helvetica,sans-Serif" font-size="10.00">Linux::PollerThread</text>
<text text-anchor="middle" x="50.5" y="-31.5" font-family="Helvetica,sans-Serif" font-size="10.00">::add_timer</text>
</g>
<!-- Node2 -->
<g id="node2" class="node"><title>Node2</title>
<g id="a_node2"><a xlink:href="classLinux_1_1TimerPollable.html#abf3089dab751514d048f80b98941f101" target="_top" xlink:title="Linux::TimerPollable\l::TimerPollable">
<polygon fill="white" stroke="black" points="137,-49.5 137,-79.5 242,-79.5 242,-49.5 137,-49.5"/>
<text text-anchor="start" x="145" y="-67.5" font-family="Helvetica,sans-Serif" font-size="10.00">Linux::TimerPollable</text>
<text text-anchor="middle" x="189.5" y="-56.5" font-family="Helvetica,sans-Serif" font-size="10.00">::TimerPollable</text>
</a>
</g>
</g>
<!-- Node1&#45;&gt;Node2 -->
<g id="edge1" class="edge"><title>Node1&#45;&gt;Node2</title>
<path fill="none" stroke="midnightblue" d="M101.348,-48.5963C109.596,-50.1015 118.235,-51.6779 126.735,-53.2289"/>
<polygon fill="midnightblue" stroke="midnightblue" points="126.15,-56.68 136.616,-55.0321 127.407,-49.7937 126.15,-56.68"/>
</g>
<!-- Node3 -->
<g id="node3" class="node"><title>Node3</title>
<g id="a_node3"><a xlink:href="classLinux_1_1TimerPollable.html#aede210356b091ef11f46aa73793cee69" target="_top" xlink:title="Linux::TimerPollable\l::setup_timer">
<polygon fill="white" stroke="black" points="137,-0.5 137,-30.5 242,-30.5 242,-0.5 137,-0.5"/>
<text text-anchor="start" x="145" y="-18.5" font-family="Helvetica,sans-Serif" font-size="10.00">Linux::TimerPollable</text>
<text text-anchor="middle" x="189.5" y="-7.5" font-family="Helvetica,sans-Serif" font-size="10.00">::setup_timer</text>
</a>
</g>
</g>
<!-- Node1&#45;&gt;Node3 -->
<g id="edge2" class="edge"><title>Node1&#45;&gt;Node3</title>
<path fill="none" stroke="midnightblue" d="M101.348,-30.7676C109.596,-29.3226 118.235,-27.8092 126.735,-26.3202"/>
<polygon fill="midnightblue" stroke="midnightblue" points="127.37,-29.7623 136.616,-24.5891 126.162,-22.8673 127.37,-29.7623"/>
</g>
<!-- Node4 -->
<g id="node4" class="node"><title>Node4</title>
<g id="a_node4"><a xlink:href="classLinux_1_1TimerPollable.html#ab4fdb7c8fdea2b648bbcd11a8efb787f" target="_top" xlink:title="Linux::TimerPollable\l::adjust_timer">
<polygon fill="white" stroke="black" points="278,-0.5 278,-30.5 383,-30.5 383,-0.5 278,-0.5"/>
<text text-anchor="start" x="286" y="-18.5" font-family="Helvetica,sans-Serif" font-size="10.00">Linux::TimerPollable</text>
<text text-anchor="middle" x="330.5" y="-7.5" font-family="Helvetica,sans-Serif" font-size="10.00">::adjust_timer</text>
</a>
</g>
</g>
<!-- Node3&#45;&gt;Node4 -->
<g id="edge3" class="edge"><title>Node3&#45;&gt;Node4</title>
<path fill="none" stroke="midnightblue" d="M242.258,-15.5C250.49,-15.5 259.077,-15.5 267.514,-15.5"/>
<polygon fill="midnightblue" stroke="midnightblue" points="267.698,-19.0001 277.698,-15.5 267.698,-12.0001 267.698,-19.0001"/>
</g>
</g>
</svg>
