<?xml version="1.0" encoding="UTF-8" standalone="no"?>
<!DOCTYPE svg PUBLIC "-//W3C//DTD SVG 1.1//EN"
 "http://www.w3.org/Graphics/SVG/1.1/DTD/svg11.dtd">
<!-- Generated by graphviz version 2.38.0 (20140413.2041)
 -->
<!-- Title: AP_RangeFinder_uLanding::get_reading Pages: 1 -->
<svg width="316pt" height="66pt"
 viewBox="0.00 0.00 316.00 66.00" xmlns="http://www.w3.org/2000/svg" xmlns:xlink="http://www.w3.org/1999/xlink">
<g id="graph0" class="graph" transform="scale(1 1) rotate(0) translate(4 62)">
<title>AP_RangeFinder_uLanding::get_reading</title>
<polygon fill="white" stroke="none" points="-4,4 -4,-62 312,-62 312,4 -4,4"/>
<!-- Node1 -->
<g id="node1" class="node"><title>Node1</title>
<polygon fill="#bfbfbf" stroke="black" points="0,-14 0,-44 135,-44 135,-14 0,-14"/>
<text text-anchor="start" x="8" y="-32" font-family="Helvetica,sans-Serif" font-size="10.00">AP_RangeFinder_uLanding</text>
<text text-anchor="middle" x="67.5" y="-21" font-family="Helvetica,sans-Serif" font-size="10.00">::get_reading</text>
</g>
<!-- Node2 -->
<g id="node2" class="node"><title>Node2</title>
<g id="a_node2"><a xlink:href="classAP__HAL_1_1Stream.html#ae6aa935b5bbd553a2654bfec4e14961e" target="_top" xlink:title="AP_HAL::Stream::available">
<polygon fill="white" stroke="black" points="171,-38.5 171,-57.5 308,-57.5 308,-38.5 171,-38.5"/>
<text text-anchor="middle" x="239.5" y="-45.5" font-family="Helvetica,sans-Serif" font-size="10.00">AP_HAL::Stream::available</text>
</a>
</g>
</g>
<!-- Node1&#45;&gt;Node2 -->
<g id="edge1" class="edge"><title>Node1&#45;&gt;Node2</title>
<path fill="none" stroke="midnightblue" d="M135.201,-36.4548C143.625,-37.3963 152.301,-38.366 160.876,-39.3243"/>
<polygon fill="midnightblue" stroke="midnightblue" points="160.548,-42.8094 170.875,-40.4419 161.325,-35.8527 160.548,-42.8094"/>
</g>
<!-- Node3 -->
<g id="node3" class="node"><title>Node3</title>
<g id="a_node3"><a xlink:href="classAP__HAL_1_1Stream.html#ae42ff362cc2a7e527c22f92a3740c2ac" target="_top" xlink:title="AP_HAL::Stream::read">
<polygon fill="white" stroke="black" points="181,-0.5 181,-19.5 298,-19.5 298,-0.5 181,-0.5"/>
<text text-anchor="middle" x="239.5" y="-7.5" font-family="Helvetica,sans-Serif" font-size="10.00">AP_HAL::Stream::read</text>
</a>
</g>
</g>
<!-- Node1&#45;&gt;Node3 -->
<g id="edge2" class="edge"><title>Node1&#45;&gt;Node3</title>
<path fill="none" stroke="midnightblue" d="M135.201,-21.5452C146.856,-20.2426 158.993,-18.8861 170.678,-17.5801"/>
<polygon fill="midnightblue" stroke="midnightblue" points="171.257,-21.0372 180.807,-16.4481 170.48,-14.0805 171.257,-21.0372"/>
</g>
</g>
</svg>
