<?xml version="1.0" encoding="UTF-8" standalone="no"?>
<!DOCTYPE svg PUBLIC "-//W3C//DTD SVG 1.1//EN"
 "http://www.w3.org/Graphics/SVG/1.1/DTD/svg11.dtd">
<!-- Generated by graphviz version 2.38.0 (20140413.2041)
 -->
<!-- Title: NavEKF3_core::getLastPosNorthEastReset Pages: 1 -->
<svg width="1216pt" height="109pt"
 viewBox="0.00 0.00 1216.00 109.00" xmlns="http://www.w3.org/2000/svg" xmlns:xlink="http://www.w3.org/1999/xlink">
<g id="graph0" class="graph" transform="scale(1 1) rotate(0) translate(4 105)">
<title>NavEKF3_core::getLastPosNorthEastReset</title>
<polygon fill="white" stroke="none" points="-4,4 -4,-105 1212,-105 1212,4 -4,4"/>
<!-- Node1 -->
<g id="node1" class="node"><title>Node1</title>
<polygon fill="#bfbfbf" stroke="black" points="0,-49.5 0,-79.5 139,-79.5 139,-49.5 0,-49.5"/>
<text text-anchor="start" x="8" y="-67.5" font-family="Helvetica,sans-Serif" font-size="10.00">NavEKF3_core::getLastPos</text>
<text text-anchor="middle" x="69.5" y="-56.5" font-family="Helvetica,sans-Serif" font-size="10.00">NorthEastReset</text>
</g>
<!-- Node2 -->
<g id="node2" class="node"><title>Node2</title>
<g id="a_node2"><a xlink:href="classNavEKF3.html#a48b06963494d6987aa9b204276f354e3" target="_top" xlink:title="NavEKF3::getLastPosNorth\lEastReset">
<polygon fill="white" stroke="black" points="175,-49.5 175,-79.5 314,-79.5 314,-49.5 175,-49.5"/>
<text text-anchor="start" x="183" y="-67.5" font-family="Helvetica,sans-Serif" font-size="10.00">NavEKF3::getLastPosNorth</text>
<text text-anchor="middle" x="244.5" y="-56.5" font-family="Helvetica,sans-Serif" font-size="10.00">EastReset</text>
</a>
</g>
</g>
<!-- Node1&#45;&gt;Node2 -->
<g id="edge1" class="edge"><title>Node1&#45;&gt;Node2</title>
<path fill="none" stroke="midnightblue" d="M149.594,-64.5C158.031,-64.5 166.563,-64.5 174.866,-64.5"/>
<polygon fill="midnightblue" stroke="midnightblue" points="149.371,-61.0001 139.371,-64.5 149.371,-68.0001 149.371,-61.0001"/>
</g>
<!-- Node3 -->
<g id="node3" class="node"><title>Node3</title>
<g id="a_node3"><a xlink:href="classNavEKF3.html#a3e1f50ad977a17222fcd7a6851b0f2ec" target="_top" xlink:title="NavEKF3::activeCores">
<polygon fill="white" stroke="black" points="737,-76 737,-95 855,-95 855,-76 737,-76"/>
<text text-anchor="middle" x="796" y="-83" font-family="Helvetica,sans-Serif" font-size="10.00">NavEKF3::activeCores</text>
</a>
</g>
</g>
<!-- Node2&#45;&gt;Node3 -->
<g id="edge2" class="edge"><title>Node2&#45;&gt;Node3</title>
<path fill="none" stroke="midnightblue" d="M310.259,-81.7587C323.324,-84.5641 337.03,-87.0297 350,-88.5 487.989,-104.142 651.591,-96.3389 736.807,-90.303"/>
<polygon fill="midnightblue" stroke="midnightblue" points="310.938,-78.3243 300.416,-79.5581 309.411,-85.1557 310.938,-78.3243"/>
</g>
<!-- Node6 -->
<g id="node6" class="node"><title>Node6</title>
<g id="a_node6"><a xlink:href="classAP__AHRS__NavEKF.html#a205cd2e798932a46a0651a59e8ef404a" target="_top" xlink:title="AP_AHRS_NavEKF::getLastPos\lNorthEastReset">
<polygon fill="white" stroke="black" points="350,-49.5 350,-79.5 512,-79.5 512,-49.5 350,-49.5"/>
<text text-anchor="start" x="358" y="-67.5" font-family="Helvetica,sans-Serif" font-size="10.00">AP_AHRS_NavEKF::getLastPos</text>
<text text-anchor="middle" x="431" y="-56.5" font-family="Helvetica,sans-Serif" font-size="10.00">NorthEastReset</text>
</a>
</g>
</g>
<!-- Node2&#45;&gt;Node6 -->
<g id="edge5" class="edge"><title>Node2&#45;&gt;Node6</title>
<path fill="none" stroke="midnightblue" d="M324.354,-64.5C332.755,-64.5 341.308,-64.5 349.725,-64.5"/>
<polygon fill="midnightblue" stroke="midnightblue" points="324.201,-61.0001 314.201,-64.5 324.201,-68.0001 324.201,-61.0001"/>
</g>
<!-- Node8 -->
<g id="node8" class="node"><title>Node8</title>
<g id="a_node8"><a xlink:href="classNavEKF3.html#a5271b02c055d6e3ce43fd0c8f945e652" target="_top" xlink:title="NavEKF3::updateLaneSwitch\lPosResetData">
<polygon fill="white" stroke="black" points="358,-0.5 358,-30.5 504,-30.5 504,-0.5 358,-0.5"/>
<text text-anchor="start" x="366" y="-18.5" font-family="Helvetica,sans-Serif" font-size="10.00">NavEKF3::updateLaneSwitch</text>
<text text-anchor="middle" x="431" y="-7.5" font-family="Helvetica,sans-Serif" font-size="10.00">PosResetData</text>
</a>
</g>
</g>
<!-- Node2&#45;&gt;Node8 -->
<g id="edge7" class="edge"><title>Node2&#45;&gt;Node8</title>
<path fill="none" stroke="midnightblue" d="M311.856,-46.8771C332.041,-41.5163 354.026,-35.6775 373.497,-30.5062"/>
<polygon fill="midnightblue" stroke="midnightblue" points="310.876,-43.5157 302.11,-49.4654 312.673,-50.2812 310.876,-43.5157"/>
</g>
<!-- Node4 -->
<g id="node4" class="node"><title>Node4</title>
<g id="a_node4"><a xlink:href="classDataFlash__Class.html#a46e58faaa53c44516433f6bb7bde4163" target="_top" xlink:title="DataFlash_Class::Log\l_Write_POS">
<polygon fill="white" stroke="black" points="932,-70.5 932,-100.5 1046,-100.5 1046,-70.5 932,-70.5"/>
<text text-anchor="start" x="940" y="-88.5" font-family="Helvetica,sans-Serif" font-size="10.00">DataFlash_Class::Log</text>
<text text-anchor="middle" x="989" y="-77.5" font-family="Helvetica,sans-Serif" font-size="10.00">_Write_POS</text>
</a>
</g>
</g>
<!-- Node3&#45;&gt;Node4 -->
<g id="edge3" class="edge"><title>Node3&#45;&gt;Node4</title>
<path fill="none" stroke="midnightblue" d="M865.274,-85.5C887.091,-85.5 910.977,-85.5 931.83,-85.5"/>
<polygon fill="midnightblue" stroke="midnightblue" points="865.084,-82.0001 855.084,-85.5 865.084,-89.0001 865.084,-82.0001"/>
</g>
<!-- Node5 -->
<g id="node5" class="node"><title>Node5</title>
<g id="a_node5"><a xlink:href="classDataFlash__Class.html#a7868f0e3dcef65ea5b5fcae618f4c5d4" target="_top" xlink:title="DataFlash_Class::get\l_structures">
<polygon fill="white" stroke="black" points="1096,-70.5 1096,-100.5 1208,-100.5 1208,-70.5 1096,-70.5"/>
<text text-anchor="start" x="1104" y="-88.5" font-family="Helvetica,sans-Serif" font-size="10.00">DataFlash_Class::get</text>
<text text-anchor="middle" x="1152" y="-77.5" font-family="Helvetica,sans-Serif" font-size="10.00">_structures</text>
</a>
</g>
</g>
<!-- Node4&#45;&gt;Node5 -->
<g id="edge4" class="edge"><title>Node4&#45;&gt;Node5</title>
<path fill="none" stroke="midnightblue" d="M1056.63,-85.5C1069.66,-85.5 1083.2,-85.5 1095.81,-85.5"/>
<polygon fill="midnightblue" stroke="midnightblue" points="1056.31,-82.0001 1046.31,-85.5 1056.31,-89.0001 1056.31,-82.0001"/>
</g>
<!-- Node7 -->
<g id="node7" class="node"><title>Node7</title>
<g id="a_node7"><a xlink:href="classAP__AHRS__NavEKF.html#add98225e5350abab51cccd311f5496c3" target="_top" xlink:title="AP_AHRS_NavEKF::get\l_NavEKF3_const">
<polygon fill="white" stroke="black" points="548,-49.5 548,-79.5 674,-79.5 674,-49.5 548,-49.5"/>
<text text-anchor="start" x="556" y="-67.5" font-family="Helvetica,sans-Serif" font-size="10.00">AP_AHRS_NavEKF::get</text>
<text text-anchor="middle" x="611" y="-56.5" font-family="Helvetica,sans-Serif" font-size="10.00">_NavEKF3_const</text>
</a>
</g>
</g>
<!-- Node6&#45;&gt;Node7 -->
<g id="edge6" class="edge"><title>Node6&#45;&gt;Node7</title>
<path fill="none" stroke="midnightblue" d="M522.301,-64.5C530.961,-64.5 539.604,-64.5 547.902,-64.5"/>
<polygon fill="midnightblue" stroke="midnightblue" points="522.148,-61.0001 512.148,-64.5 522.148,-68.0001 522.148,-61.0001"/>
</g>
<!-- Node9 -->
<g id="node9" class="node"><title>Node9</title>
<g id="a_node9"><a xlink:href="classNavEKF3.html#a477020fcf29376e0c2205dbf79728104" target="_top" xlink:title="NavEKF3::UpdateFilter">
<polygon fill="white" stroke="black" points="551.5,-8 551.5,-27 670.5,-27 670.5,-8 551.5,-8"/>
<text text-anchor="middle" x="611" y="-15" font-family="Helvetica,sans-Serif" font-size="10.00">NavEKF3::UpdateFilter</text>
</a>
</g>
</g>
<!-- Node8&#45;&gt;Node9 -->
<g id="edge8" class="edge"><title>Node8&#45;&gt;Node9</title>
<path fill="none" stroke="midnightblue" d="M514.161,-16.4232C526.726,-16.5643 539.473,-16.7076 551.394,-16.8415"/>
<polygon fill="midnightblue" stroke="midnightblue" points="514.182,-12.9233 504.143,-16.3106 514.103,-19.9228 514.182,-12.9233"/>
</g>
<!-- Node9&#45;&gt;Node3 -->
<g id="edge9" class="edge"><title>Node9&#45;&gt;Node3</title>
<path fill="none" stroke="midnightblue" d="M648.706,-30.3721C657.035,-33.3354 665.832,-36.4988 674,-39.5 707.33,-51.747 745.609,-66.3989 770.033,-75.8221"/>
<polygon fill="midnightblue" stroke="midnightblue" points="649.804,-27.0481 639.209,-27.0072 647.466,-33.6461 649.804,-27.0481"/>
</g>
<!-- Node10 -->
<g id="node10" class="node"><title>Node10</title>
<g id="a_node10"><a xlink:href="classAP__AHRS__NavEKF.html#a324160404f12959e955554f5aed26459" target="_top" xlink:title="AP_AHRS_NavEKF::update_EKF3">
<polygon fill="white" stroke="black" points="710,-8 710,-27 882,-27 882,-8 710,-8"/>
<text text-anchor="middle" x="796" y="-15" font-family="Helvetica,sans-Serif" font-size="10.00">AP_AHRS_NavEKF::update_EKF3</text>
</a>
</g>
</g>
<!-- Node9&#45;&gt;Node10 -->
<g id="edge10" class="edge"><title>Node9&#45;&gt;Node10</title>
<path fill="none" stroke="midnightblue" d="M680.748,-17.5C690.191,-17.5 699.98,-17.5 709.675,-17.5"/>
<polygon fill="midnightblue" stroke="midnightblue" points="680.657,-14.0001 670.657,-17.5 680.657,-21.0001 680.657,-14.0001"/>
</g>
<!-- Node11 -->
<g id="node11" class="node"><title>Node11</title>
<g id="a_node11"><a xlink:href="classAP__AHRS__NavEKF.html#ac8111979c5dc37a55b2c50818534ea52" target="_top" xlink:title="AP_AHRS_NavEKF::update">
<polygon fill="white" stroke="black" points="918,-8 918,-27 1060,-27 1060,-8 918,-8"/>
<text text-anchor="middle" x="989" y="-15" font-family="Helvetica,sans-Serif" font-size="10.00">AP_AHRS_NavEKF::update</text>
</a>
</g>
</g>
<!-- Node10&#45;&gt;Node11 -->
<g id="edge11" class="edge"><title>Node10&#45;&gt;Node11</title>
<path fill="none" stroke="midnightblue" d="M892.273,-17.5C900.898,-17.5 909.526,-17.5 917.874,-17.5"/>
<polygon fill="midnightblue" stroke="midnightblue" points="892.166,-14.0001 882.166,-17.5 892.166,-21.0001 892.166,-14.0001"/>
</g>
<!-- Node12 -->
<g id="node12" class="node"><title>Node12</title>
<g id="a_node12"><a xlink:href="AHRS__Test_8cpp.html#a0b33edabd7f1c4e4a0bf32c67269be2f" target="_top" xlink:title="loop">
<polygon fill="white" stroke="black" points="1134.5,-8 1134.5,-27 1169.5,-27 1169.5,-8 1134.5,-8"/>
<text text-anchor="middle" x="1152" y="-15" font-family="Helvetica,sans-Serif" font-size="10.00">loop</text>
</a>
</g>
</g>
<!-- Node11&#45;&gt;Node12 -->
<g id="edge12" class="edge"><title>Node11&#45;&gt;Node12</title>
<path fill="none" stroke="midnightblue" d="M1070.17,-17.5C1094.48,-17.5 1118.83,-17.5 1134.35,-17.5"/>
<polygon fill="midnightblue" stroke="midnightblue" points="1070.15,-14.0001 1060.15,-17.5 1070.15,-21.0001 1070.15,-14.0001"/>
</g>
</g>
</svg>
