<?xml version="1.0" encoding="UTF-8" standalone="no"?>
<!DOCTYPE svg PUBLIC "-//W3C//DTD SVG 1.1//EN"
 "http://www.w3.org/Graphics/SVG/1.1/DTD/svg11.dtd">
<!-- Generated by graphviz version 2.38.0 (20140413.2041)
 -->
<!-- Title: AP_Compass_HMC5843 Pages: 1 -->
<svg width="909pt" height="275pt"
 viewBox="0.00 0.00 909.00 275.00" xmlns="http://www.w3.org/2000/svg" xmlns:xlink="http://www.w3.org/1999/xlink">
<g id="graph0" class="graph" transform="scale(1 1) rotate(0) translate(4 271)">
<title>AP_Compass_HMC5843</title>
<polygon fill="white" stroke="none" points="-4,4 -4,-271 905,-271 905,4 -4,4"/>
<!-- Node1 -->
<g id="node1" class="node"><title>Node1</title>
<polygon fill="#bfbfbf" stroke="black" points="44.5,-0.5 44.5,-19.5 171.5,-19.5 171.5,-0.5 44.5,-0.5"/>
<text text-anchor="middle" x="108" y="-7.5" font-family="Helvetica,sans-Serif" font-size="10.00">AP_Compass_HMC5843</text>
</g>
<!-- Node2 -->
<g id="node2" class="node"><title>Node2</title>
<g id="a_node2"><a xlink:href="classAP__Compass__Backend.html" target="_top" xlink:title="AP_Compass_Backend">
<polygon fill="white" stroke="black" points="146.5,-68.5 146.5,-87.5 267.5,-87.5 267.5,-68.5 146.5,-68.5"/>
<text text-anchor="middle" x="207" y="-75.5" font-family="Helvetica,sans-Serif" font-size="10.00">AP_Compass_Backend</text>
</a>
</g>
</g>
<!-- Node2&#45;&gt;Node1 -->
<g id="edge1" class="edge"><title>Node2&#45;&gt;Node1</title>
<path fill="none" stroke="midnightblue" d="M185.717,-62.8113C166.029,-49.6863 137.401,-30.6004 120.946,-19.6305"/>
<polygon fill="midnightblue" stroke="midnightblue" points="183.795,-65.7368 194.057,-68.3717 187.678,-59.9124 183.795,-65.7368"/>
</g>
<!-- Node4 -->
<g id="node4" class="node"><title>Node4</title>
<g id="a_node4"><a xlink:href="classCompass.html" target="_top" xlink:title="Compass">
<polygon fill="white" stroke="black" points="447.5,-0.5 447.5,-19.5 506.5,-19.5 506.5,-0.5 447.5,-0.5"/>
<text text-anchor="middle" x="477" y="-7.5" font-family="Helvetica,sans-Serif" font-size="10.00">Compass</text>
</a>
</g>
</g>
<!-- Node2&#45;&gt;Node4 -->
<g id="edge11" class="edge"><title>Node2&#45;&gt;Node4</title>
<path fill="none" stroke="#9a32cd" stroke-dasharray="5,2" d="M222.021,-61.0482C230.807,-52.7534 242.591,-43.2709 255,-38 288.949,-23.5798 394.792,-15.6918 447.111,-12.5831"/>
<polygon fill="#9a32cd" stroke="#9a32cd" points="219.478,-58.6407 214.862,-68.177 224.418,-63.6007 219.478,-58.6407"/>
<text text-anchor="middle" x="280.5" y="-41" font-family="Helvetica,sans-Serif" font-size="10.00"> _backends</text>
</g>
<!-- Node3 -->
<g id="node3" class="node"><title>Node3</title>
<g id="a_node3"><a xlink:href="classAP__HAL_1_1Semaphore.html" target="_top" xlink:title="AP_HAL::Semaphore">
<polygon fill="white" stroke="black" points="152,-153 152,-172 262,-172 262,-153 152,-153"/>
<text text-anchor="middle" x="207" y="-160" font-family="Helvetica,sans-Serif" font-size="10.00">AP_HAL::Semaphore</text>
</a>
</g>
</g>
<!-- Node3&#45;&gt;Node2 -->
<g id="edge2" class="edge"><title>Node3&#45;&gt;Node2</title>
<path fill="none" stroke="#9a32cd" stroke-dasharray="5,2" d="M207,-142.933C207,-125.634 207,-100.611 207,-87.5955"/>
<polygon fill="#9a32cd" stroke="#9a32cd" points="203.5,-142.982 207,-152.982 210.5,-142.982 203.5,-142.982"/>
<text text-anchor="middle" x="221" y="-115.5" font-family="Helvetica,sans-Serif" font-size="10.00"> _sem</text>
</g>
<!-- Node4&#45;&gt;Node2 -->
<g id="edge3" class="edge"><title>Node4&#45;&gt;Node2</title>
<path fill="none" stroke="#9a32cd" stroke-dasharray="5,2" d="M437.416,-18.7101C412.055,-23.8076 378.486,-30.8479 349,-38 309.62,-47.5519 264.57,-60.226 235.967,-68.4945"/>
<polygon fill="#9a32cd" stroke="#9a32cd" points="438.277,-22.1074 447.399,-16.7186 436.908,-15.2427 438.277,-22.1074"/>
<text text-anchor="middle" x="373.5" y="-41" font-family="Helvetica,sans-Serif" font-size="10.00"> _compass</text>
</g>
<!-- Node5 -->
<g id="node5" class="node"><title>Node5</title>
<g id="a_node5"><a xlink:href="structAP__Param_1_1GroupInfo.html" target="_top" xlink:title="AP_Param::GroupInfo">
<polygon fill="white" stroke="black" points="285.5,-68.5 285.5,-87.5 398.5,-87.5 398.5,-68.5 285.5,-68.5"/>
<text text-anchor="middle" x="342" y="-75.5" font-family="Helvetica,sans-Serif" font-size="10.00">AP_Param::GroupInfo</text>
</a>
</g>
</g>
<!-- Node5&#45;&gt;Node4 -->
<g id="edge4" class="edge"><title>Node5&#45;&gt;Node4</title>
<path fill="none" stroke="#9a32cd" stroke-dasharray="5,2" d="M368.873,-63.8621C395.747,-50.7239 436.302,-30.8969 459.347,-19.6305"/>
<polygon fill="#9a32cd" stroke="#9a32cd" points="367.095,-60.8351 359.649,-68.3717 370.17,-67.1238 367.095,-60.8351"/>
<text text-anchor="middle" x="441" y="-41" font-family="Helvetica,sans-Serif" font-size="10.00"> var_info</text>
</g>
<!-- Node5&#45;&gt;Node5 -->
<g id="edge5" class="edge"><title>Node5&#45;&gt;Node5</title>
<path fill="none" stroke="#9a32cd" stroke-dasharray="5,2" d="M408.488,-82.7523C413.452,-81.6899 416.5,-80.1058 416.5,-78 416.5,-74.7129 409.072,-72.697 398.526,-71.9522"/>
<polygon fill="#9a32cd" stroke="#9a32cd" points="407.991,-79.2874 398.526,-84.0478 408.893,-86.229 407.991,-79.2874"/>
<text text-anchor="middle" x="449" y="-81" font-family="Helvetica,sans-Serif" font-size="10.00"> group_info_ptr</text>
<text text-anchor="middle" x="449" y="-70" font-family="Helvetica,sans-Serif" font-size="10.00">group_info</text>
</g>
<!-- Node6 -->
<g id="node6" class="node"><title>Node6</title>
<g id="a_node6"><a xlink:href="classVector3.html" target="_top" xlink:title="Vector3\&lt; float \&gt;">
<polygon fill="white" stroke="black" points="548.5,-247.5 548.5,-266.5 635.5,-266.5 635.5,-247.5 548.5,-247.5"/>
<text text-anchor="middle" x="592" y="-254.5" font-family="Helvetica,sans-Serif" font-size="10.00">Vector3&lt; float &gt;</text>
</a>
</g>
</g>
<!-- Node6&#45;&gt;Node4 -->
<g id="edge6" class="edge"><title>Node6&#45;&gt;Node4</title>
<path fill="none" stroke="#9a32cd" stroke-dasharray="5,2" d="M576.162,-239.789C562.304,-224.829 542.489,-201.445 530,-178 514.555,-149.006 487.442,-50.0496 479.346,-19.8337"/>
<polygon fill="#9a32cd" stroke="#9a32cd" points="573.746,-242.328 583.164,-247.181 578.828,-237.514 573.746,-242.328"/>
<text text-anchor="middle" x="525.5" y="-121" font-family="Helvetica,sans-Serif" font-size="10.00"> field</text>
<text text-anchor="middle" x="525.5" y="-110" font-family="Helvetica,sans-Serif" font-size="10.00">Bearth</text>
</g>
<!-- Node8 -->
<g id="node8" class="node"><title>Node8</title>
<g id="a_node8"><a xlink:href="classCompassCalibrator_1_1param__t.html" target="_top" xlink:title="CompassCalibrator::\lparam_t">
<polygon fill="white" stroke="black" points="538.5,-147.5 538.5,-177.5 645.5,-177.5 645.5,-147.5 538.5,-147.5"/>
<text text-anchor="start" x="546.5" y="-165.5" font-family="Helvetica,sans-Serif" font-size="10.00">CompassCalibrator::</text>
<text text-anchor="middle" x="592" y="-154.5" font-family="Helvetica,sans-Serif" font-size="10.00">param_t</text>
</a>
</g>
</g>
<!-- Node6&#45;&gt;Node8 -->
<g id="edge9" class="edge"><title>Node6&#45;&gt;Node8</title>
<path fill="none" stroke="#9a32cd" stroke-dasharray="5,2" d="M592,-237.287C592,-219.67 592,-193.67 592,-177.7"/>
<polygon fill="#9a32cd" stroke="#9a32cd" points="588.5,-237.464 592,-247.464 595.5,-237.464 588.5,-237.464"/>
<text text-anchor="middle" x="608.5" y="-221" font-family="Helvetica,sans-Serif" font-size="10.00"> offdiag</text>
<text text-anchor="middle" x="608.5" y="-210" font-family="Helvetica,sans-Serif" font-size="10.00">offset</text>
<text text-anchor="middle" x="608.5" y="-199" font-family="Helvetica,sans-Serif" font-size="10.00">diag</text>
</g>
<!-- Node10 -->
<g id="node10" class="node"><title>Node10</title>
<g id="a_node10"><a xlink:href="structCompass_1_1mag__state.html" target="_top" xlink:title="Compass::mag_state">
<polygon fill="white" stroke="black" points="789,-153 789,-172 899,-172 899,-153 789,-153"/>
<text text-anchor="middle" x="844" y="-160" font-family="Helvetica,sans-Serif" font-size="10.00">Compass::mag_state</text>
</a>
</g>
</g>
<!-- Node6&#45;&gt;Node10 -->
<g id="edge13" class="edge"><title>Node6&#45;&gt;Node10</title>
<path fill="none" stroke="#9a32cd" stroke-dasharray="5,2" d="M624.949,-243.906C676.72,-224.903 775.839,-188.519 820.8,-172.016"/>
<polygon fill="#9a32cd" stroke="#9a32cd" points="623.437,-240.732 615.256,-247.464 625.849,-247.303 623.437,-240.732"/>
<text text-anchor="middle" x="784" y="-215.5" font-family="Helvetica,sans-Serif" font-size="10.00"> motor_offset</text>
<text text-anchor="middle" x="784" y="-204.5" font-family="Helvetica,sans-Serif" font-size="10.00">field</text>
</g>
<!-- Node7 -->
<g id="node7" class="node"><title>Node7</title>
<g id="a_node7"><a xlink:href="classCompassCalibrator.html" target="_top" xlink:title="CompassCalibrator">
<polygon fill="white" stroke="black" points="541.5,-68.5 541.5,-87.5 642.5,-87.5 642.5,-68.5 541.5,-68.5"/>
<text text-anchor="middle" x="592" y="-75.5" font-family="Helvetica,sans-Serif" font-size="10.00">CompassCalibrator</text>
</a>
</g>
</g>
<!-- Node7&#45;&gt;Node4 -->
<g id="edge7" class="edge"><title>Node7&#45;&gt;Node4</title>
<path fill="none" stroke="#9a32cd" stroke-dasharray="5,2" d="M568.199,-63.3401C545.309,-50.2036 511.411,-30.7487 492.038,-19.6305"/>
<polygon fill="#9a32cd" stroke="#9a32cd" points="566.55,-66.4296 576.966,-68.3717 570.035,-60.3584 566.55,-66.4296"/>
<text text-anchor="middle" x="565.5" y="-41" font-family="Helvetica,sans-Serif" font-size="10.00"> _calibrator</text>
</g>
<!-- Node8&#45;&gt;Node7 -->
<g id="edge8" class="edge"><title>Node8&#45;&gt;Node7</title>
<path fill="none" stroke="#9a32cd" stroke-dasharray="5,2" d="M592,-136.951C592,-120.281 592,-99.2339 592,-87.6439"/>
<polygon fill="#9a32cd" stroke="#9a32cd" points="588.5,-137.13 592,-147.13 595.5,-137.13 588.5,-137.13"/>
<text text-anchor="middle" x="612.5" y="-115.5" font-family="Helvetica,sans-Serif" font-size="10.00"> _params</text>
</g>
<!-- Node9 -->
<g id="node9" class="node"><title>Node9</title>
<g id="a_node9"><a xlink:href="classCompassCalibrator_1_1CompassSample.html" target="_top" xlink:title="CompassCalibrator::\lCompassSample">
<polygon fill="white" stroke="black" points="663.5,-147.5 663.5,-177.5 770.5,-177.5 770.5,-147.5 663.5,-147.5"/>
<text text-anchor="start" x="671.5" y="-165.5" font-family="Helvetica,sans-Serif" font-size="10.00">CompassCalibrator::</text>
<text text-anchor="middle" x="717" y="-154.5" font-family="Helvetica,sans-Serif" font-size="10.00">CompassSample</text>
</a>
</g>
</g>
<!-- Node9&#45;&gt;Node7 -->
<g id="edge10" class="edge"><title>Node9&#45;&gt;Node7</title>
<path fill="none" stroke="#9a32cd" stroke-dasharray="5,2" d="M688.328,-141.545C673.169,-131.102 654.187,-118.194 637,-107 626.823,-100.371 615.177,-93.1339 606.282,-87.6782"/>
<polygon fill="#9a32cd" stroke="#9a32cd" points="686.553,-144.573 696.77,-147.377 690.532,-138.814 686.553,-144.573"/>
<text text-anchor="middle" x="703" y="-115.5" font-family="Helvetica,sans-Serif" font-size="10.00"> _sample_buffer</text>
</g>
<!-- Node10&#45;&gt;Node4 -->
<g id="edge12" class="edge"><title>Node10&#45;&gt;Node4</title>
<path fill="none" stroke="#9a32cd" stroke-dasharray="5,2" d="M821.091,-147.684C778.08,-122.321 681.664,-68.1768 594,-38 565.025,-28.0257 530.748,-20.6036 506.811,-16.0915"/>
<polygon fill="#9a32cd" stroke="#9a32cd" points="819.521,-150.822 829.906,-152.921 823.097,-144.804 819.521,-150.822"/>
<text text-anchor="middle" x="725.5" y="-75.5" font-family="Helvetica,sans-Serif" font-size="10.00"> _state</text>
</g>
<!-- Node11 -->
<g id="node11" class="node"><title>Node11</title>
<g id="a_node11"><a xlink:href="classVector3.html" target="_top" xlink:title="Vector3\&lt; int16_t \&gt;">
<polygon fill="white" stroke="black" points="795,-247.5 795,-266.5 893,-266.5 893,-247.5 795,-247.5"/>
<text text-anchor="middle" x="844" y="-254.5" font-family="Helvetica,sans-Serif" font-size="10.00">Vector3&lt; int16_t &gt;</text>
</a>
</g>
</g>
<!-- Node11&#45;&gt;Node10 -->
<g id="edge14" class="edge"><title>Node11&#45;&gt;Node10</title>
<path fill="none" stroke="#9a32cd" stroke-dasharray="5,2" d="M844,-237.444C844,-217.538 844,-186.8 844,-172.016"/>
<polygon fill="#9a32cd" stroke="#9a32cd" points="840.5,-237.464 844,-247.464 847.5,-237.464 840.5,-237.464"/>
<text text-anchor="middle" x="872.5" y="-210" font-family="Helvetica,sans-Serif" font-size="10.00"> mag_history</text>
</g>
<!-- Node12 -->
<g id="node12" class="node"><title>Node12</title>
<g id="a_node12"><a xlink:href="classAP__HMC5843__BusDriver.html" target="_top" xlink:title="AP_HMC5843_BusDriver">
<polygon fill="white" stroke="black" points="0,-68.5 0,-87.5 128,-87.5 128,-68.5 0,-68.5"/>
<text text-anchor="middle" x="64" y="-75.5" font-family="Helvetica,sans-Serif" font-size="10.00">AP_HMC5843_BusDriver</text>
</a>
</g>
</g>
<!-- Node12&#45;&gt;Node1 -->
<g id="edge15" class="edge"><title>Node12&#45;&gt;Node1</title>
<path fill="none" stroke="#9a32cd" stroke-dasharray="5,2" d="M75.3748,-59.9377C83.9254,-47.112 95.2939,-30.0591 102.106,-19.8411"/>
<polygon fill="#9a32cd" stroke="#9a32cd" points="72.3871,-58.1097 69.7522,-68.3717 78.2115,-61.9926 72.3871,-58.1097"/>
<text text-anchor="middle" x="102.5" y="-41" font-family="Helvetica,sans-Serif" font-size="10.00"> _bus</text>
</g>
</g>
</svg>
