<?xml version="1.0" encoding="UTF-8" standalone="no"?>
<!DOCTYPE svg PUBLIC "-//W3C//DTD SVG 1.1//EN"
 "http://www.w3.org/Graphics/SVG/1.1/DTD/svg11.dtd">
<!-- Generated by graphviz version 2.38.0 (20140413.2041)
 -->
<!-- Title: AP_InertialSensor_LSM9DS0::_register_write_g Pages: 1 -->
<!--zoomable 162 -->
<svg id="main" version="1.1" xmlns="http://www.w3.org/2000/svg" xmlns:xlink="http://www.w3.org/1999/xlink" xml:space="preserve" onload="init(evt)">
<style type="text/css"><![CDATA[
.edge:hover path { stroke: red; }
.edge:hover polygon { stroke: red; fill: red; }
]]></style>
<script type="text/javascript"><![CDATA[
var edges = document.getElementsByTagName('g');
if (edges && edges.length) {
  for (var i=0;i<edges.length;i++) {
    if (edges[i].id.substr(0,4)=='edge') {
      edges[i].setAttribute('class','edge');
    }
  }
}
]]></script>
        <defs>
                <circle id="rim" cx="0" cy="0" r="7"/>
                <circle id="rim2" cx="0" cy="0" r="3.5"/>
                <g id="zoomPlus">
                        <use xlink:href="#rim" fill="#404040">
                                <set attributeName="fill" to="#808080" begin="zoomplus.mouseover" end="zoomplus.mouseout"/>
                        </use>
                        <path d="M-4,0h8M0,-4v8" fill="none" stroke="white" stroke-width="1.5" pointer-events="none"/>
                </g>
                <g id="zoomMin">
                        <use xlink:href="#rim" fill="#404040">
                                <set attributeName="fill" to="#808080" begin="zoomminus.mouseover" end="zoomminus.mouseout"/>
                        </use>
                        <path d="M-4,0h8" fill="none" stroke="white" stroke-width="1.5" pointer-events="none"/>
                </g>
                <g id="dirArrow">
                        <path fill="none" stroke="white" stroke-width="1.5" d="M0,-3.0v7 M-2.5,-0.5L0,-3.0L2.5,-0.5"/>
                </g>
               <g id="resetDef">
                       <use xlink:href="#rim2" fill="#404040">
                               <set attributeName="fill" to="#808080" begin="reset.mouseover" end="reset.mouseout"/>
                       </use>
               </g>
        </defs>

<script type="text/javascript">
var viewWidth = 788;
var viewHeight = 162;
var sectionId = 'dynsection-30';
</script>
<script xlink:href="svgpan.js"/>
<svg id="graph" class="graph">
<g id="viewport">
<title>AP_InertialSensor_LSM9DS0::_register_write_g</title>
<polygon fill="white" stroke="none" points="-4,4 -4,-158.082 784,-158.082 784,4 -4,4"/>
<!-- Node1 -->
<g id="node1" class="node"><title>Node1</title>
<polygon fill="#bfbfbf" stroke="black" points="0,-49.5 0,-79.5 146,-79.5 146,-49.5 0,-49.5"/>
<text text-anchor="start" x="8" y="-67.5" font-family="Helvetica,sans-Serif" font-size="10.00">AP_InertialSensor_LSM9DS0</text>
<text text-anchor="middle" x="73" y="-56.5" font-family="Helvetica,sans-Serif" font-size="10.00">::_register_write_g</text>
</g>
<!-- Node2 -->
<g id="node2" class="node"><title>Node2</title>
<g id="a_node2"><a xlink:href="classAP__HAL_1_1Device.html#a450d2427d58c09d75c8268f8b808c37b" target="_top" xlink:title="AP_HAL::Device::write\l_register">
<polygon fill="white" stroke="black" points="182,-49.5 182,-79.5 301,-79.5 301,-49.5 182,-49.5"/>
<text text-anchor="start" x="190" y="-67.5" font-family="Helvetica,sans-Serif" font-size="10.00">AP_HAL::Device::write</text>
<text text-anchor="middle" x="241.5" y="-56.5" font-family="Helvetica,sans-Serif" font-size="10.00">_register</text>
</a>
</g>
</g>
<!-- Node1&#45;&gt;Node2 -->
<g id="edge1" class="edge"><title>Node1&#45;&gt;Node2</title>
<path fill="none" stroke="midnightblue" d="M146.061,-64.5C154.559,-64.5 163.215,-64.5 171.666,-64.5"/>
<polygon fill="midnightblue" stroke="midnightblue" points="171.85,-68.0001 181.85,-64.5 171.85,-61.0001 171.85,-68.0001"/>
</g>
<!-- Node3 -->
<g id="node3" class="node"><title>Node3</title>
<g id="a_node3"><a xlink:href="classAP__HAL_1_1Device.html#a44b62acec2c1c5d8bf8b9c07f5fe7192" target="_top" xlink:title="AP_HAL::Device::set\l_checked_register">
<polygon fill="white" stroke="black" points="343.5,-98.5 343.5,-128.5 454.5,-128.5 454.5,-98.5 343.5,-98.5"/>
<text text-anchor="start" x="351.5" y="-116.5" font-family="Helvetica,sans-Serif" font-size="10.00">AP_HAL::Device::set</text>
<text text-anchor="middle" x="399" y="-105.5" font-family="Helvetica,sans-Serif" font-size="10.00">_checked_register</text>
</a>
</g>
</g>
<!-- Node2&#45;&gt;Node3 -->
<g id="edge2" class="edge"><title>Node2&#45;&gt;Node3</title>
<path fill="none" stroke="midnightblue" d="M290.424,-79.6014C306.313,-84.6083 324.161,-90.2324 340.684,-95.439"/>
<polygon fill="midnightblue" stroke="midnightblue" points="339.645,-98.7811 350.234,-98.4484 341.749,-92.1047 339.645,-98.7811"/>
</g>
<!-- Node5 -->
<g id="node5" class="node"><title>Node5</title>
<g id="a_node5"><a xlink:href="classAP__HAL_1_1Device.html#a2af24b5f93b678af718b65a606e538b0" target="_top" xlink:title="AP_HAL::Device::transfer">
<polygon fill="white" stroke="black" points="649,-83 649,-102 780,-102 780,-83 649,-83"/>
<text text-anchor="middle" x="714.5" y="-90" font-family="Helvetica,sans-Serif" font-size="10.00">AP_HAL::Device::transfer</text>
</a>
</g>
</g>
<!-- Node2&#45;&gt;Node5 -->
<g id="edge4" class="edge"><title>Node2&#45;&gt;Node5</title>
<path fill="none" stroke="midnightblue" d="M255.74,-79.5126C272.556,-97.3255 303.449,-126.05 337,-137.5 458.779,-179.058 614.088,-130.919 680.728,-105.83"/>
<polygon fill="midnightblue" stroke="midnightblue" points="682.194,-109.016 690.274,-102.163 679.684,-102.482 682.194,-109.016"/>
</g>
<!-- Node6 -->
<g id="node6" class="node"><title>Node6</title>
<g id="a_node6"><a xlink:href="classAP__HAL_1_1Device.html#a4bad879386bd93b7f2340bff1437d041" target="_top" xlink:title="AP_HAL::Device::setup\l_checked_registers">
<polygon fill="white" stroke="black" points="338,-49.5 338,-79.5 460,-79.5 460,-49.5 338,-49.5"/>
<text text-anchor="start" x="346" y="-67.5" font-family="Helvetica,sans-Serif" font-size="10.00">AP_HAL::Device::setup</text>
<text text-anchor="middle" x="399" y="-56.5" font-family="Helvetica,sans-Serif" font-size="10.00">_checked_registers</text>
</a>
</g>
</g>
<!-- Node2&#45;&gt;Node6 -->
<g id="edge5" class="edge"><title>Node2&#45;&gt;Node6</title>
<path fill="none" stroke="midnightblue" d="M301.288,-64.5C309.88,-64.5 318.802,-64.5 327.597,-64.5"/>
<polygon fill="midnightblue" stroke="midnightblue" points="327.836,-68.0001 337.836,-64.5 327.836,-61.0001 327.836,-68.0001"/>
</g>
<!-- Node7 -->
<g id="node7" class="node"><title>Node7</title>
<g id="a_node7"><a xlink:href="classAP__HAL_1_1Device.html#a81202d89062b62f93bf8d13fa30a86d0" target="_top" xlink:title="AP_HAL::Device::check\l_next_register">
<polygon fill="white" stroke="black" points="337,-0.5 337,-30.5 461,-30.5 461,-0.5 337,-0.5"/>
<text text-anchor="start" x="345" y="-18.5" font-family="Helvetica,sans-Serif" font-size="10.00">AP_HAL::Device::check</text>
<text text-anchor="middle" x="399" y="-7.5" font-family="Helvetica,sans-Serif" font-size="10.00">_next_register</text>
</a>
</g>
</g>
<!-- Node2&#45;&gt;Node7 -->
<g id="edge6" class="edge"><title>Node2&#45;&gt;Node7</title>
<path fill="none" stroke="midnightblue" d="M272.851,-49.455C288.427,-43.5841 308.107,-36.9678 327.22,-31.0777"/>
<polygon fill="midnightblue" stroke="midnightblue" points="328.283,-34.413 336.837,-28.1617 326.252,-27.7142 328.283,-34.413"/>
</g>
<!-- Node4 -->
<g id="node4" class="node"><title>Node4</title>
<g id="a_node4"><a xlink:href="classAP__HAL_1_1Device.html#a682fd556614308cb02773e94ec8e4b26" target="_top" xlink:title="AP_HAL::Device::get\l_bus_id">
<polygon fill="white" stroke="black" points="499.5,-85.5 499.5,-115.5 610.5,-115.5 610.5,-85.5 499.5,-85.5"/>
<text text-anchor="start" x="507.5" y="-103.5" font-family="Helvetica,sans-Serif" font-size="10.00">AP_HAL::Device::get</text>
<text text-anchor="middle" x="555" y="-92.5" font-family="Helvetica,sans-Serif" font-size="10.00">_bus_id</text>
</a>
</g>
</g>
<!-- Node3&#45;&gt;Node4 -->
<g id="edge3" class="edge"><title>Node3&#45;&gt;Node4</title>
<path fill="none" stroke="midnightblue" d="M454.728,-108.88C465.962,-107.932 477.887,-106.925 489.43,-105.951"/>
<polygon fill="midnightblue" stroke="midnightblue" points="489.778,-109.434 499.448,-105.105 489.189,-102.459 489.778,-109.434"/>
</g>
<!-- Node7&#45;&gt;Node2 -->
<g id="edge10" class="edge"><title>Node7&#45;&gt;Node2</title>
<path fill="none" stroke="midnightblue" d="M367.461,-30.6158C351.268,-36.7127 330.678,-43.6056 310.906,-49.651"/>
<polygon fill="midnightblue" stroke="midnightblue" points="309.856,-46.3117 301.288,-52.5435 311.872,-53.0151 309.856,-46.3117"/>
</g>
<!-- Node7&#45;&gt;Node4 -->
<g id="edge9" class="edge"><title>Node7&#45;&gt;Node4</title>
<path fill="none" stroke="midnightblue" d="M441.529,-30.5062C448.145,-33.2754 454.835,-36.3086 461,-39.5 483.547,-51.1716 507.466,-66.9455 525.4,-79.5287"/>
<polygon fill="midnightblue" stroke="midnightblue" points="523.512,-82.4804 533.691,-85.4177 527.565,-76.7734 523.512,-82.4804"/>
</g>
<!-- Node8 -->
<g id="node8" class="node"><title>Node8</title>
<g id="a_node8"><a xlink:href="classAP__HAL_1_1Device.html#a66215f964cfb5c7421effdb88a749550" target="_top" xlink:title="AP_HAL::Device::read\l_registers">
<polygon fill="white" stroke="black" points="497,-12.5 497,-42.5 613,-42.5 613,-12.5 497,-12.5"/>
<text text-anchor="start" x="505" y="-30.5" font-family="Helvetica,sans-Serif" font-size="10.00">AP_HAL::Device::read</text>
<text text-anchor="middle" x="555" y="-19.5" font-family="Helvetica,sans-Serif" font-size="10.00">_registers</text>
</a>
</g>
</g>
<!-- Node7&#45;&gt;Node8 -->
<g id="edge7" class="edge"><title>Node7&#45;&gt;Node8</title>
<path fill="none" stroke="midnightblue" d="M461.307,-20.2772C469.656,-20.9277 478.261,-21.5983 486.709,-22.2565"/>
<polygon fill="midnightblue" stroke="midnightblue" points="486.664,-25.7636 496.906,-23.0511 487.208,-18.7847 486.664,-25.7636"/>
</g>
<!-- Node8&#45;&gt;Node5 -->
<g id="edge8" class="edge"><title>Node8&#45;&gt;Node5</title>
<path fill="none" stroke="midnightblue" d="M592.53,-42.5757C619.282,-53.6163 655.263,-68.4658 681.016,-79.094"/>
<polygon fill="midnightblue" stroke="midnightblue" points="679.766,-82.3643 690.345,-82.944 682.436,-75.8937 679.766,-82.3643"/>
</g>
</g>
</svg>
        <g id="navigator" transform="translate(0 0)" fill="#404254">
                <rect fill="#f2f5e9" fill-opacity="0.5" stroke="#606060" stroke-width=".5" x="0" y="0" width="60" height="60"/>
                <use id="zoomplus" xlink:href="#zoomPlus" x="17" y="9" onmousedown="handleZoom(evt,'in')"/>
                <use id="zoomminus" xlink:href="#zoomMin" x="42" y="9" onmousedown="handleZoom(evt,'out')"/>
                <use id="reset" xlink:href="#resetDef" x="30" y="36" onmousedown="handleReset()"/>
                <g id="arrowUp" xlink:href="#dirArrow" transform="translate(30 24)" onmousedown="handlePan(0,-1)">
                  <use xlink:href="#rim" fill="#404040">
                        <set attributeName="fill" to="#808080" begin="arrowUp.mouseover" end="arrowUp.mouseout"/>
                  </use>
                  <path fill="none" stroke="white" stroke-width="1.5" d="M0,-3.0v7 M-2.5,-0.5L0,-3.0L2.5,-0.5"/>
                </g>
                <g id="arrowRight" xlink:href="#dirArrow" transform="rotate(90) translate(36 -43)" onmousedown="handlePan(1,0)">
                  <use xlink:href="#rim" fill="#404040">
                        <set attributeName="fill" to="#808080" begin="arrowRight.mouseover" end="arrowRight.mouseout"/>
                  </use>
                  <path fill="none" stroke="white" stroke-width="1.5" d="M0,-3.0v7 M-2.5,-0.5L0,-3.0L2.5,-0.5"/>
                </g>
                <g id="arrowDown" xlink:href="#dirArrow" transform="rotate(180) translate(-30 -48)" onmousedown="handlePan(0,1)">
                  <use xlink:href="#rim" fill="#404040">
                        <set attributeName="fill" to="#808080" begin="arrowDown.mouseover" end="arrowDown.mouseout"/>
                  </use>
                  <path fill="none" stroke="white" stroke-width="1.5" d="M0,-3.0v7 M-2.5,-0.5L0,-3.0L2.5,-0.5"/>
                </g>
                <g id="arrowLeft" xlink:href="#dirArrow" transform="rotate(270) translate(-36 17)" onmousedown="handlePan(-1,0)">
                  <use xlink:href="#rim" fill="#404040">
                        <set attributeName="fill" to="#808080" begin="arrowLeft.mouseover" end="arrowLeft.mouseout"/>
                  </use>
                  <path fill="none" stroke="white" stroke-width="1.5" d="M0,-3.0v7 M-2.5,-0.5L0,-3.0L2.5,-0.5"/>
                </g>
        </g>
        <svg viewBox="0 0 15 15" width="100%" height="30px" preserveAspectRatio="xMaxYMin meet">
         <g id="arrow_out" transform="scale(0.3 0.3)">
          <a xlink:href="classAP__InertialSensor__LSM9DS0_ade811c5be7fd258cac5ef5a7ed65f7fc_cgraph_org.svg" target="_base">
           <rect id="button" ry="5" rx="5" y="6" x="6" height="38" width="38"
                fill="#f2f5e9" fill-opacity="0.5" stroke="#606060" stroke-width="1.0"/>
           <path id="arrow"
             d="M 11.500037,31.436501 C 11.940474,20.09759 22.043105,11.32322 32.158766,21.979434 L 37.068811,17.246167 C 37.068811,17.246167 37.088388,32 37.088388,32 L 22.160133,31.978069 C 22.160133,31.978069 26.997745,27.140456 26.997745,27.140456 C 18.528582,18.264221 13.291696,25.230495 11.500037,31.436501 z"
             style="fill:#404040;"/>
          </a>
         </g>
        </svg>
</svg>
