<?xml version="1.0" encoding="UTF-8" standalone="no"?>
<!DOCTYPE svg PUBLIC "-//W3C//DTD SVG 1.1//EN"
 "http://www.w3.org/Graphics/SVG/1.1/DTD/svg11.dtd">
<!-- Generated by graphviz version 2.38.0 (20140413.2041)
 -->
<!-- Title: AP_MotorsTri::calc_yaw_radio_output Pages: 1 -->
<svg width="300pt" height="142pt"
 viewBox="0.00 0.00 300.00 142.00" xmlns="http://www.w3.org/2000/svg" xmlns:xlink="http://www.w3.org/1999/xlink">
<g id="graph0" class="graph" transform="scale(1 1) rotate(0) translate(4 138)">
<title>AP_MotorsTri::calc_yaw_radio_output</title>
<polygon fill="white" stroke="none" points="-4,4 -4,-138 296,-138 296,4 -4,4"/>
<!-- Node1 -->
<g id="node1" class="node"><title>Node1</title>
<polygon fill="#bfbfbf" stroke="black" points="0,-52 0,-82 101,-82 101,-52 0,-52"/>
<text text-anchor="start" x="8" y="-70" font-family="Helvetica,sans-Serif" font-size="10.00">AP_MotorsTri::calc</text>
<text text-anchor="middle" x="50.5" y="-59" font-family="Helvetica,sans-Serif" font-size="10.00">_yaw_radio_output</text>
</g>
<!-- Node2 -->
<g id="node2" class="node"><title>Node2</title>
<g id="a_node2"><a xlink:href="classSRV__Channel.html#a5cad6895a86cd1f1b5e3e3dd23ebe5b0" target="_top" xlink:title="SRV_Channel::get_reversed">
<polygon fill="white" stroke="black" points="144,-114.5 144,-133.5 285,-133.5 285,-114.5 144,-114.5"/>
<text text-anchor="middle" x="214.5" y="-121.5" font-family="Helvetica,sans-Serif" font-size="10.00">SRV_Channel::get_reversed</text>
</a>
</g>
</g>
<!-- Node1&#45;&gt;Node2 -->
<g id="edge1" class="edge"><title>Node1&#45;&gt;Node2</title>
<path fill="none" stroke="midnightblue" d="M81.8479,-82.0438C97.9606,-89.6307 118.257,-98.5627 137,-105 144.199,-107.473 151.882,-109.768 159.498,-111.846"/>
<polygon fill="midnightblue" stroke="midnightblue" points="158.864,-115.298 169.425,-114.449 160.64,-108.527 158.864,-115.298"/>
</g>
<!-- Node3 -->
<g id="node3" class="node"><title>Node3</title>
<g id="a_node3"><a xlink:href="classSRV__Channel.html#a3ef1e8626df805e082f75d9de46cc105" target="_top" xlink:title="SRV_Channel::get_trim">
<polygon fill="white" stroke="black" points="154.5,-76.5 154.5,-95.5 274.5,-95.5 274.5,-76.5 154.5,-76.5"/>
<text text-anchor="middle" x="214.5" y="-83.5" font-family="Helvetica,sans-Serif" font-size="10.00">SRV_Channel::get_trim</text>
</a>
</g>
</g>
<!-- Node1&#45;&gt;Node3 -->
<g id="edge2" class="edge"><title>Node1&#45;&gt;Node3</title>
<path fill="none" stroke="midnightblue" d="M101.427,-72.8557C114.893,-74.435 129.709,-76.1727 144.034,-77.8528"/>
<polygon fill="midnightblue" stroke="midnightblue" points="144.012,-81.3741 154.352,-79.0629 144.828,-74.4217 144.012,-81.3741"/>
</g>
<!-- Node4 -->
<g id="node4" class="node"><title>Node4</title>
<g id="a_node4"><a xlink:href="classSRV__Channel.html#a07e33259e76a6863fb56394a3891bf79" target="_top" xlink:title="SRV_Channel::get_output_max">
<polygon fill="white" stroke="black" points="137,-38.5 137,-57.5 292,-57.5 292,-38.5 137,-38.5"/>
<text text-anchor="middle" x="214.5" y="-45.5" font-family="Helvetica,sans-Serif" font-size="10.00">SRV_Channel::get_output_max</text>
</a>
</g>
</g>
<!-- Node1&#45;&gt;Node4 -->
<g id="edge3" class="edge"><title>Node1&#45;&gt;Node4</title>
<path fill="none" stroke="midnightblue" d="M101.427,-61.1443C109.512,-60.1961 118.085,-59.1907 126.745,-58.175"/>
<polygon fill="midnightblue" stroke="midnightblue" points="127.404,-61.6218 136.928,-56.9807 126.588,-54.6694 127.404,-61.6218"/>
</g>
<!-- Node5 -->
<g id="node5" class="node"><title>Node5</title>
<g id="a_node5"><a xlink:href="classSRV__Channel.html#a3a465c084225682a7bf6bd5ef78a369e" target="_top" xlink:title="SRV_Channel::get_output_min">
<polygon fill="white" stroke="black" points="138.5,-0.5 138.5,-19.5 290.5,-19.5 290.5,-0.5 138.5,-0.5"/>
<text text-anchor="middle" x="214.5" y="-7.5" font-family="Helvetica,sans-Serif" font-size="10.00">SRV_Channel::get_output_min</text>
</a>
</g>
</g>
<!-- Node1&#45;&gt;Node5 -->
<g id="edge4" class="edge"><title>Node1&#45;&gt;Node5</title>
<path fill="none" stroke="midnightblue" d="M81.8479,-51.9562C97.9606,-44.3693 118.257,-35.4373 137,-29 144.199,-26.5273 151.882,-24.2322 159.498,-22.1541"/>
<polygon fill="midnightblue" stroke="midnightblue" points="160.64,-25.4731 169.425,-19.5507 158.864,-18.702 160.64,-25.4731"/>
</g>
</g>
</svg>
