<?xml version="1.0" encoding="UTF-8" standalone="no"?>
<!DOCTYPE svg PUBLIC "-//W3C//DTD SVG 1.1//EN"
 "http://www.w3.org/Graphics/SVG/1.1/DTD/svg11.dtd">
<!-- Generated by graphviz version 2.38.0 (20140413.2041)
 -->
<!-- Title: RangeFinder::voltage_mv_orient Pages: 1 -->
<svg width="290pt" height="72pt"
 viewBox="0.00 0.00 290.00 71.50" xmlns="http://www.w3.org/2000/svg" xmlns:xlink="http://www.w3.org/1999/xlink">
<g id="graph0" class="graph" transform="scale(1 1) rotate(0) translate(4 67.5)">
<title>RangeFinder::voltage_mv_orient</title>
<polygon fill="white" stroke="none" points="-4,4 -4,-67.5 286,-67.5 286,4 -4,4"/>
<!-- Node1 -->
<g id="node1" class="node"><title>Node1</title>
<polygon fill="#bfbfbf" stroke="black" points="0,-0.5 0,-30.5 110,-30.5 110,-0.5 0,-0.5"/>
<text text-anchor="start" x="8" y="-18.5" font-family="Helvetica,sans-Serif" font-size="10.00">RangeFinder::voltage</text>
<text text-anchor="middle" x="55" y="-7.5" font-family="Helvetica,sans-Serif" font-size="10.00">_mv_orient</text>
</g>
<!-- Node2 -->
<g id="node2" class="node"><title>Node2</title>
<g id="a_node2"><a xlink:href="classRangeFinder.html#a532b9699a5ac5270db1584fa7fab8a4c" target="_top" xlink:title="RangeFinder::find_instance">
<polygon fill="white" stroke="black" points="146,-44 146,-63 282,-63 282,-44 146,-44"/>
<text text-anchor="middle" x="214" y="-51" font-family="Helvetica,sans-Serif" font-size="10.00">RangeFinder::find_instance</text>
</a>
</g>
</g>
<!-- Node1&#45;&gt;Node2 -->
<g id="edge1" class="edge"><title>Node1&#45;&gt;Node2</title>
<path fill="none" stroke="midnightblue" d="M110.03,-28.5774C127.529,-32.8128 146.831,-37.4845 163.948,-41.6274"/>
<polygon fill="midnightblue" stroke="midnightblue" points="163.2,-45.0476 173.743,-43.9983 164.847,-38.244 163.2,-45.0476"/>
</g>
<!-- Node3 -->
<g id="node3" class="node"><title>Node3</title>
<g id="a_node3"><a xlink:href="classRangeFinder.html#a9ff4b63cbaf7e899f3f61488fdce8047" target="_top" xlink:title="RangeFinder::voltage_mv">
<polygon fill="white" stroke="black" points="150,-6 150,-25 278,-25 278,-6 150,-6"/>
<text text-anchor="middle" x="214" y="-13" font-family="Helvetica,sans-Serif" font-size="10.00">RangeFinder::voltage_mv</text>
</a>
</g>
</g>
<!-- Node1&#45;&gt;Node3 -->
<g id="edge2" class="edge"><title>Node1&#45;&gt;Node3</title>
<path fill="none" stroke="midnightblue" d="M110.03,-9.05034C119.677,-8.80619 129.871,-8.7109 139.944,-8.76445"/>
<polygon fill="midnightblue" stroke="midnightblue" points="139.918,-12.2643 149.953,-8.86762 139.99,-5.26463 139.918,-12.2643"/>
</g>
<!-- Node3&#45;&gt;Node1 -->
<g id="edge3" class="edge"><title>Node3&#45;&gt;Node1</title>
<path fill="none" stroke="midnightblue" d="M149.953,-22.1324C140.137,-22.2836 129.985,-22.289 120.145,-22.1487"/>
<polygon fill="midnightblue" stroke="midnightblue" points="120.097,-18.6472 110.03,-21.9497 119.96,-25.6458 120.097,-18.6472"/>
</g>
</g>
</svg>
