<?xml version="1.0" encoding="UTF-8" standalone="no"?>
<!DOCTYPE svg PUBLIC "-//W3C//DTD SVG 1.1//EN"
 "http://www.w3.org/Graphics/SVG/1.1/DTD/svg11.dtd">
<!-- Generated by graphviz version 2.38.0 (20140413.2041)
 -->
<!-- Title: AP_Param::save Pages: 1 -->
<svg width="428pt" height="214pt"
 viewBox="0.00 0.00 428.00 214.00" xmlns="http://www.w3.org/2000/svg" xmlns:xlink="http://www.w3.org/1999/xlink">
<g id="graph0" class="graph" transform="scale(1 1) rotate(0) translate(4 210)">
<title>AP_Param::save</title>
<polygon fill="white" stroke="none" points="-4,4 -4,-210 424,-210 424,4 -4,4"/>
<!-- Node1 -->
<g id="node1" class="node"><title>Node1</title>
<polygon fill="#bfbfbf" stroke="black" points="0,-88 0,-107 91,-107 91,-88 0,-88"/>
<text text-anchor="middle" x="45.5" y="-95" font-family="Helvetica,sans-Serif" font-size="10.00">AP_Param::save</text>
</g>
<!-- Node2 -->
<g id="node2" class="node"><title>Node2</title>
<g id="a_node2"><a xlink:href="classAP__Param.html#a654a77016ef0dadc5426cbeda0c70662" target="_top" xlink:title="AP_Param::convert_old\l_parameter">
<polygon fill="white" stroke="black" points="135.5,-175.5 135.5,-205.5 255.5,-205.5 255.5,-175.5 135.5,-175.5"/>
<text text-anchor="start" x="143.5" y="-193.5" font-family="Helvetica,sans-Serif" font-size="10.00">AP_Param::convert_old</text>
<text text-anchor="middle" x="195.5" y="-182.5" font-family="Helvetica,sans-Serif" font-size="10.00">_parameter</text>
</a>
</g>
</g>
<!-- Node1&#45;&gt;Node2 -->
<g id="edge1" class="edge"><title>Node1&#45;&gt;Node2</title>
<path fill="none" stroke="midnightblue" d="M62.6803,-114.571C78.0148,-129.924 102.316,-152.198 127,-166.5 132.704,-169.805 138.939,-172.77 145.241,-175.394"/>
<polygon fill="midnightblue" stroke="midnightblue" points="65.0181,-111.956 55.5241,-107.253 60.0132,-116.85 65.0181,-111.956"/>
</g>
<!-- Node4 -->
<g id="node4" class="node"><title>Node4</title>
<g id="a_node4"><a xlink:href="classGCS__MAVLINK.html#ae8138868be824c9478307c705a0e6763" target="_top" xlink:title="GCS_MAVLINK::handle\l_param_set">
<polygon fill="white" stroke="black" points="134.5,-126.5 134.5,-156.5 256.5,-156.5 256.5,-126.5 134.5,-126.5"/>
<text text-anchor="start" x="142.5" y="-144.5" font-family="Helvetica,sans-Serif" font-size="10.00">GCS_MAVLINK::handle</text>
<text text-anchor="middle" x="195.5" y="-133.5" font-family="Helvetica,sans-Serif" font-size="10.00">_param_set</text>
</a>
</g>
</g>
<!-- Node1&#45;&gt;Node4 -->
<g id="edge3" class="edge"><title>Node1&#45;&gt;Node4</title>
<path fill="none" stroke="midnightblue" d="M88.3949,-109.955C105.637,-115.081 125.764,-121.065 143.826,-126.435"/>
<polygon fill="midnightblue" stroke="midnightblue" points="89.1966,-106.542 78.6138,-107.047 87.2017,-113.252 89.1966,-106.542"/>
</g>
<!-- Node5 -->
<g id="node5" class="node"><title>Node5</title>
<g id="a_node5"><a xlink:href="classAP__ParamT.html#a25edf0e710f7be745fcf64636ba69be8" target="_top" xlink:title="AP_ParamT::set_and_save">
<polygon fill="white" stroke="black" points="127,-88 127,-107 264,-107 264,-88 127,-88"/>
<text text-anchor="middle" x="195.5" y="-95" font-family="Helvetica,sans-Serif" font-size="10.00">AP_ParamT::set_and_save</text>
</a>
</g>
</g>
<!-- Node1&#45;&gt;Node5 -->
<g id="edge4" class="edge"><title>Node1&#45;&gt;Node5</title>
<path fill="none" stroke="midnightblue" d="M101.557,-97.5C109.819,-97.5 118.419,-97.5 126.905,-97.5"/>
<polygon fill="midnightblue" stroke="midnightblue" points="101.307,-94.0001 91.3065,-97.5 101.306,-101 101.307,-94.0001"/>
</g>
<!-- Node6 -->
<g id="node6" class="node"><title>Node6</title>
<g id="a_node6"><a xlink:href="classAP__ParamV.html#ad0e5c746e1c9ae91c58e17e84f5ea390" target="_top" xlink:title="AP_ParamV::set_and_save">
<polygon fill="white" stroke="black" points="127,-50 127,-69 264,-69 264,-50 127,-50"/>
<text text-anchor="middle" x="195.5" y="-57" font-family="Helvetica,sans-Serif" font-size="10.00">AP_ParamV::set_and_save</text>
</a>
</g>
</g>
<!-- Node1&#45;&gt;Node6 -->
<g id="edge5" class="edge"><title>Node1&#45;&gt;Node6</title>
<path fill="none" stroke="midnightblue" d="M93.6735,-85.3879C114.286,-80.0956 138.109,-73.9787 157.422,-69.0201"/>
<polygon fill="midnightblue" stroke="midnightblue" points="92.662,-82.034 83.8466,-87.911 94.4029,-88.8141 92.662,-82.034"/>
</g>
<!-- Node7 -->
<g id="node7" class="node"><title>Node7</title>
<g id="a_node7"><a xlink:href="classAP__ParamT.html#a950a2a2acb4a1073314733cd0856f31f" target="_top" xlink:title="AP_ParamT::set_and\l_save_ifchanged">
<polygon fill="white" stroke="black" points="140.5,-0.5 140.5,-30.5 250.5,-30.5 250.5,-0.5 140.5,-0.5"/>
<text text-anchor="start" x="148.5" y="-18.5" font-family="Helvetica,sans-Serif" font-size="10.00">AP_ParamT::set_and</text>
<text text-anchor="middle" x="195.5" y="-7.5" font-family="Helvetica,sans-Serif" font-size="10.00">_save_ifchanged</text>
</a>
</g>
</g>
<!-- Node1&#45;&gt;Node7 -->
<g id="edge6" class="edge"><title>Node1&#45;&gt;Node7</title>
<path fill="none" stroke="midnightblue" d="M65.805,-81.6395C81.5562,-69.2526 104.763,-52.2301 127,-40.5 133.853,-36.885 141.346,-33.5546 148.766,-30.5831"/>
<polygon fill="midnightblue" stroke="midnightblue" points="63.4989,-79.0021 57.8749,-87.981 67.8707,-84.469 63.4989,-79.0021"/>
</g>
<!-- Node3 -->
<g id="node3" class="node"><title>Node3</title>
<g id="a_node3"><a xlink:href="classAP__Param.html#ab0fc2976026f41763aa102cd2e67fbb0" target="_top" xlink:title="AP_Param::convert_old\l_parameters">
<polygon fill="white" stroke="black" points="300,-175.5 300,-205.5 420,-205.5 420,-175.5 300,-175.5"/>
<text text-anchor="start" x="308" y="-193.5" font-family="Helvetica,sans-Serif" font-size="10.00">AP_Param::convert_old</text>
<text text-anchor="middle" x="360" y="-182.5" font-family="Helvetica,sans-Serif" font-size="10.00">_parameters</text>
</a>
</g>
</g>
<!-- Node2&#45;&gt;Node3 -->
<g id="edge2" class="edge"><title>Node2&#45;&gt;Node3</title>
<path fill="none" stroke="midnightblue" d="M265.911,-190.5C277.235,-190.5 288.873,-190.5 299.918,-190.5"/>
<polygon fill="midnightblue" stroke="midnightblue" points="265.626,-187 255.626,-190.5 265.626,-194 265.626,-187"/>
</g>
</g>
</svg>
