<?xml version="1.0" encoding="UTF-8" standalone="no"?>
<!DOCTYPE svg PUBLIC "-//W3C//DTD SVG 1.1//EN"
 "http://www.w3.org/Graphics/SVG/1.1/DTD/svg11.dtd">
<!-- Generated by graphviz version 2.38.0 (20140413.2041)
 -->
<!-- Title: DataFlash_Backend::get_log_info Pages: 1 -->
<svg width="1557pt" height="618pt"
 viewBox="0.00 0.00 1557.00 618.00" xmlns="http://www.w3.org/2000/svg" xmlns:xlink="http://www.w3.org/1999/xlink">
<g id="graph0" class="graph" transform="scale(1 1) rotate(0) translate(4 614)">
<title>DataFlash_Backend::get_log_info</title>
<polygon fill="white" stroke="none" points="-4,4 -4,-614 1553,-614 1553,4 -4,4"/>
<!-- Node1 -->
<g id="node1" class="node"><title>Node1</title>
<polygon fill="#bfbfbf" stroke="black" points="0,-348.5 0,-378.5 111,-378.5 111,-348.5 0,-348.5"/>
<text text-anchor="start" x="8" y="-366.5" font-family="Helvetica,sans-Serif" font-size="10.00">DataFlash_Backend::</text>
<text text-anchor="middle" x="55.5" y="-355.5" font-family="Helvetica,sans-Serif" font-size="10.00">get_log_info</text>
</g>
<!-- Node2 -->
<g id="node2" class="node"><title>Node2</title>
<g id="a_node2"><a xlink:href="classDataFlash__Class.html#a5a089c9a4b380560b8507dc8342eb247" target="_top" xlink:title="DataFlash_Class::get\l_log_info">
<polygon fill="white" stroke="black" points="147,-404.5 147,-434.5 259,-434.5 259,-404.5 147,-404.5"/>
<text text-anchor="start" x="155" y="-422.5" font-family="Helvetica,sans-Serif" font-size="10.00">DataFlash_Class::get</text>
<text text-anchor="middle" x="203" y="-411.5" font-family="Helvetica,sans-Serif" font-size="10.00">_log_info</text>
</a>
</g>
</g>
<!-- Node1&#45;&gt;Node2 -->
<g id="edge1" class="edge"><title>Node1&#45;&gt;Node2</title>
<path fill="none" stroke="midnightblue" d="M105.072,-382.194C123.875,-389.431 145.11,-397.604 162.901,-404.452"/>
<polygon fill="midnightblue" stroke="midnightblue" points="106.081,-378.833 95.4913,-378.507 103.567,-385.365 106.081,-378.833"/>
</g>
<!-- Node11 -->
<g id="node11" class="node"><title>Node11</title>
<g id="a_node11"><a xlink:href="classDataFlash__Backend.html#a5be0a9e566b2b525659756204c3353b7" target="_top" xlink:title="DataFlash_Backend::\lWriteCriticalBlock">
<polygon fill="white" stroke="black" points="147.5,-270.5 147.5,-300.5 258.5,-300.5 258.5,-270.5 147.5,-270.5"/>
<text text-anchor="start" x="155.5" y="-288.5" font-family="Helvetica,sans-Serif" font-size="10.00">DataFlash_Backend::</text>
<text text-anchor="middle" x="203" y="-277.5" font-family="Helvetica,sans-Serif" font-size="10.00">WriteCriticalBlock</text>
</a>
</g>
</g>
<!-- Node1&#45;&gt;Node11 -->
<g id="edge12" class="edge"><title>Node1&#45;&gt;Node11</title>
<path fill="none" stroke="midnightblue" d="M93.683,-343.567C118.532,-330.246 150.723,-312.989 173.536,-300.759"/>
<polygon fill="midnightblue" stroke="midnightblue" points="91.7136,-340.651 84.5539,-348.461 95.021,-346.821 91.7136,-340.651"/>
</g>
<!-- Node3 -->
<g id="node3" class="node"><title>Node3</title>
<g id="a_node3"><a xlink:href="classDataFlash__Class.html#a7868f0e3dcef65ea5b5fcae618f4c5d4" target="_top" xlink:title="DataFlash_Class::get\l_structures">
<polygon fill="white" stroke="black" points="473,-292.5 473,-322.5 585,-322.5 585,-292.5 473,-292.5"/>
<text text-anchor="start" x="481" y="-310.5" font-family="Helvetica,sans-Serif" font-size="10.00">DataFlash_Class::get</text>
<text text-anchor="middle" x="529" y="-299.5" font-family="Helvetica,sans-Serif" font-size="10.00">_structures</text>
</a>
</g>
</g>
<!-- Node2&#45;&gt;Node3 -->
<g id="edge2" class="edge"><title>Node2&#45;&gt;Node3</title>
<path fill="none" stroke="midnightblue" d="M237.26,-399.201C254.116,-389.538 275.168,-378.398 295,-370.5 353.979,-347.011 424.753,-329.259 472.706,-318.681"/>
<polygon fill="midnightblue" stroke="midnightblue" points="235.24,-396.327 228.363,-404.387 238.765,-402.375 235.24,-396.327"/>
</g>
<!-- Node4 -->
<g id="node4" class="node"><title>Node4</title>
<g id="a_node4"><a xlink:href="classGCS__MAVLINK.html#a9685f685665e932079522a281086b581" target="_top" xlink:title="GCS_MAVLINK::handle\l_log_request_data">
<polygon fill="white" stroke="black" points="649,-530.5 649,-560.5 771,-560.5 771,-530.5 649,-530.5"/>
<text text-anchor="start" x="657" y="-548.5" font-family="Helvetica,sans-Serif" font-size="10.00">GCS_MAVLINK::handle</text>
<text text-anchor="middle" x="710" y="-537.5" font-family="Helvetica,sans-Serif" font-size="10.00">_log_request_data</text>
</a>
</g>
</g>
<!-- Node2&#45;&gt;Node4 -->
<g id="edge3" class="edge"><title>Node2&#45;&gt;Node4</title>
<path fill="none" stroke="midnightblue" d="M268.84,-435.678C367.37,-460.262 553.412,-506.68 648.99,-530.527"/>
<polygon fill="midnightblue" stroke="midnightblue" points="269.555,-432.249 259.005,-433.224 267.86,-439.041 269.555,-432.249"/>
</g>
<!-- Node6 -->
<g id="node6" class="node"><title>Node6</title>
<g id="a_node6"><a xlink:href="classGCS__MAVLINK.html#add5099b4e743990e0e0de5bc607660e6" target="_top" xlink:title="GCS_MAVLINK::handle\l_log_send_listing">
<polygon fill="white" stroke="black" points="295,-517.5 295,-547.5 417,-547.5 417,-517.5 295,-517.5"/>
<text text-anchor="start" x="303" y="-535.5" font-family="Helvetica,sans-Serif" font-size="10.00">GCS_MAVLINK::handle</text>
<text text-anchor="middle" x="356" y="-524.5" font-family="Helvetica,sans-Serif" font-size="10.00">_log_send_listing</text>
</a>
</g>
</g>
<!-- Node2&#45;&gt;Node6 -->
<g id="edge5" class="edge"><title>Node2&#45;&gt;Node6</title>
<path fill="none" stroke="midnightblue" d="M225.036,-441.835C242.615,-459.69 268.93,-484.605 295,-502.5 302.969,-507.97 312.078,-513.047 320.75,-517.41"/>
<polygon fill="midnightblue" stroke="midnightblue" points="227.541,-439.391 218.063,-434.657 222.52,-444.268 227.541,-439.391"/>
</g>
<!-- Node5 -->
<g id="node5" class="node"><title>Node5</title>
<g id="a_node5"><a xlink:href="classGCS__MAVLINK.html#add8326241719712dc068a07845bf476c" target="_top" xlink:title="GCS_MAVLINK::handle\l_log_message">
<polygon fill="white" stroke="black" points="828.5,-505.5 828.5,-535.5 950.5,-535.5 950.5,-505.5 828.5,-505.5"/>
<text text-anchor="start" x="836.5" y="-523.5" font-family="Helvetica,sans-Serif" font-size="10.00">GCS_MAVLINK::handle</text>
<text text-anchor="middle" x="889.5" y="-512.5" font-family="Helvetica,sans-Serif" font-size="10.00">_log_message</text>
</a>
</g>
</g>
<!-- Node4&#45;&gt;Node5 -->
<g id="edge4" class="edge"><title>Node4&#45;&gt;Node5</title>
<path fill="none" stroke="midnightblue" d="M781.228,-535.609C796.859,-533.407 813.291,-531.093 828.468,-528.955"/>
<polygon fill="midnightblue" stroke="midnightblue" points="780.507,-532.176 771.093,-537.036 781.484,-539.107 780.507,-532.176"/>
</g>
<!-- Node7 -->
<g id="node7" class="node"><title>Node7</title>
<g id="a_node7"><a xlink:href="classGCS__MAVLINK.html#a1c015f2ab464807939761ac7d7889bd4" target="_top" xlink:title="GCS_MAVLINK::handle\l_log_request_list">
<polygon fill="white" stroke="black" points="649,-481.5 649,-511.5 771,-511.5 771,-481.5 649,-481.5"/>
<text text-anchor="start" x="657" y="-499.5" font-family="Helvetica,sans-Serif" font-size="10.00">GCS_MAVLINK::handle</text>
<text text-anchor="middle" x="710" y="-488.5" font-family="Helvetica,sans-Serif" font-size="10.00">_log_request_list</text>
</a>
</g>
</g>
<!-- Node6&#45;&gt;Node7 -->
<g id="edge6" class="edge"><title>Node6&#45;&gt;Node7</title>
<path fill="none" stroke="midnightblue" d="M427.249,-525.315C492.105,-518.682 587.411,-508.935 648.843,-502.652"/>
<polygon fill="midnightblue" stroke="midnightblue" points="426.703,-521.853 417.111,-526.352 427.415,-528.817 426.703,-521.853"/>
</g>
<!-- Node8 -->
<g id="node8" class="node"><title>Node8</title>
<g id="a_node8"><a xlink:href="classGCS__MAVLINK.html#af4f36c08fe81ee49ab53b1626d8da8ec" target="_top" xlink:title="GCS_MAVLINK::handle\l_log_send">
<polygon fill="white" stroke="black" points="468,-555.5 468,-585.5 590,-585.5 590,-555.5 468,-555.5"/>
<text text-anchor="start" x="476" y="-573.5" font-family="Helvetica,sans-Serif" font-size="10.00">GCS_MAVLINK::handle</text>
<text text-anchor="middle" x="529" y="-562.5" font-family="Helvetica,sans-Serif" font-size="10.00">_log_send</text>
</a>
</g>
</g>
<!-- Node6&#45;&gt;Node8 -->
<g id="edge8" class="edge"><title>Node6&#45;&gt;Node8</title>
<path fill="none" stroke="midnightblue" d="M427.058,-548.069C440.635,-551.086 454.748,-554.222 467.968,-557.16"/>
<polygon fill="midnightblue" stroke="midnightblue" points="427.809,-544.65 417.288,-545.897 426.291,-551.483 427.809,-544.65"/>
</g>
<!-- Node7&#45;&gt;Node5 -->
<g id="edge7" class="edge"><title>Node7&#45;&gt;Node5</title>
<path fill="none" stroke="midnightblue" d="M781.228,-505.996C796.859,-508.109 813.291,-510.331 828.468,-512.383"/>
<polygon fill="midnightblue" stroke="midnightblue" points="781.472,-502.497 771.093,-504.625 780.534,-509.434 781.472,-502.497"/>
</g>
<!-- Node8&#45;&gt;Node4 -->
<g id="edge11" class="edge"><title>Node8&#45;&gt;Node4</title>
<path fill="none" stroke="midnightblue" d="M600.454,-560.66C616.426,-558.429 633.247,-556.08 648.752,-553.915"/>
<polygon fill="midnightblue" stroke="midnightblue" points="599.522,-557.256 590.102,-562.106 600.49,-564.189 599.522,-557.256"/>
</g>
<!-- Node9 -->
<g id="node9" class="node"><title>Node9</title>
<g id="a_node9"><a xlink:href="classGCS__MAVLINK.html#a55c9fb5ae16624c1ea17d3a0bd300604" target="_top" xlink:title="GCS_MAVLINK::packet\l_overhead">
<polygon fill="white" stroke="black" points="648.5,-579.5 648.5,-609.5 771.5,-609.5 771.5,-579.5 648.5,-579.5"/>
<text text-anchor="start" x="656.5" y="-597.5" font-family="Helvetica,sans-Serif" font-size="10.00">GCS_MAVLINK::packet</text>
<text text-anchor="middle" x="710" y="-586.5" font-family="Helvetica,sans-Serif" font-size="10.00">_overhead</text>
</a>
</g>
</g>
<!-- Node8&#45;&gt;Node9 -->
<g id="edge9" class="edge"><title>Node8&#45;&gt;Node9</title>
<path fill="none" stroke="midnightblue" d="M600.397,-579.939C616.281,-582.068 633.008,-584.311 648.447,-586.381"/>
<polygon fill="midnightblue" stroke="midnightblue" points="600.479,-576.418 590.102,-578.558 599.549,-583.356 600.479,-576.418"/>
</g>
<!-- Node10 -->
<g id="node10" class="node"><title>Node10</title>
<g id="a_node10"><a xlink:href="classGCS__MAVLINK.html#a508b2da2af9a77f175c60cac467cec70" target="_top" xlink:title="Send the next pending parameter, called from deferred message handling code. ">
<polygon fill="white" stroke="black" points="827,-579.5 827,-609.5 952,-609.5 952,-579.5 827,-579.5"/>
<text text-anchor="start" x="835" y="-597.5" font-family="Helvetica,sans-Serif" font-size="10.00">GCS_MAVLINK::queued</text>
<text text-anchor="middle" x="889.5" y="-586.5" font-family="Helvetica,sans-Serif" font-size="10.00">_param_send</text>
</a>
</g>
</g>
<!-- Node9&#45;&gt;Node10 -->
<g id="edge10" class="edge"><title>Node9&#45;&gt;Node10</title>
<path fill="none" stroke="midnightblue" d="M781.802,-594.5C796.749,-594.5 812.406,-594.5 826.978,-594.5"/>
<polygon fill="midnightblue" stroke="midnightblue" points="781.589,-591 771.589,-594.5 781.589,-598 781.589,-591"/>
</g>
<!-- Node12 -->
<g id="node12" class="node"><title>Node12</title>
<g id="a_node12"><a xlink:href="classDataFlash__Backend.html#a33c4294acfcecd5db6c923de11893e45" target="_top" xlink:title="DataFlash_Backend::\lLog_Write_Format">
<polygon fill="white" stroke="black" points="300.5,-188.5 300.5,-218.5 411.5,-218.5 411.5,-188.5 300.5,-188.5"/>
<text text-anchor="start" x="308.5" y="-206.5" font-family="Helvetica,sans-Serif" font-size="10.00">DataFlash_Backend::</text>
<text text-anchor="middle" x="356" y="-195.5" font-family="Helvetica,sans-Serif" font-size="10.00">Log_Write_Format</text>
</a>
</g>
</g>
<!-- Node11&#45;&gt;Node12 -->
<g id="edge13" class="edge"><title>Node11&#45;&gt;Node12</title>
<path fill="none" stroke="midnightblue" d="M240.724,-265.557C267.387,-251.078 302.905,-231.79 327.225,-218.583"/>
<polygon fill="midnightblue" stroke="midnightblue" points="238.813,-262.612 231.696,-270.46 242.154,-268.763 238.813,-262.612"/>
</g>
<!-- Node28 -->
<g id="node28" class="node"><title>Node28</title>
<g id="a_node28"><a xlink:href="classDataFlash__Backend.html#a85713efc5d4dfb01c5ef7968f9f2842e" target="_top" xlink:title="DataFlash_Backend::\lLog_Write_Parameter">
<polygon fill="white" stroke="black" points="300.5,-100.5 300.5,-130.5 411.5,-130.5 411.5,-100.5 300.5,-100.5"/>
<text text-anchor="start" x="308.5" y="-118.5" font-family="Helvetica,sans-Serif" font-size="10.00">DataFlash_Backend::</text>
<text text-anchor="middle" x="356" y="-107.5" font-family="Helvetica,sans-Serif" font-size="10.00">Log_Write_Parameter</text>
</a>
</g>
</g>
<!-- Node11&#45;&gt;Node28 -->
<g id="edge29" class="edge"><title>Node11&#45;&gt;Node28</title>
<path fill="none" stroke="midnightblue" d="M222.827,-262.616C240.981,-240.731 269.394,-206.947 295,-178.5 310.056,-161.773 327.912,-143.175 340.208,-130.551"/>
<polygon fill="midnightblue" stroke="midnightblue" points="220.078,-260.449 216.399,-270.385 225.471,-264.912 220.078,-260.449"/>
</g>
<!-- Node30 -->
<g id="node30" class="node"><title>Node30</title>
<g id="a_node30"><a xlink:href="classDataFlash__Backend.html#a36de68caf35d162312f55f958c00fc6c" target="_top" xlink:title="DataFlash_Backend::\lLog_Write_Message">
<polygon fill="white" stroke="black" points="300.5,-380.5 300.5,-410.5 411.5,-410.5 411.5,-380.5 300.5,-380.5"/>
<text text-anchor="start" x="308.5" y="-398.5" font-family="Helvetica,sans-Serif" font-size="10.00">DataFlash_Backend::</text>
<text text-anchor="middle" x="356" y="-387.5" font-family="Helvetica,sans-Serif" font-size="10.00">Log_Write_Message</text>
</a>
</g>
</g>
<!-- Node11&#45;&gt;Node30 -->
<g id="edge33" class="edge"><title>Node11&#45;&gt;Node30</title>
<path fill="none" stroke="midnightblue" d="M232.954,-306.592C262.552,-328.154 307.801,-361.117 334.086,-380.265"/>
<polygon fill="midnightblue" stroke="midnightblue" points="234.823,-303.624 224.679,-300.564 230.701,-309.281 234.823,-303.624"/>
</g>
<!-- Node34 -->
<g id="node34" class="node"><title>Node34</title>
<g id="a_node34"><a xlink:href="classDataFlash__Class.html#af027b69eefd54b04e56a821eeda76e40" target="_top" xlink:title="DataFlash_Class::Log\l_Write_CameraInfo">
<polygon fill="white" stroke="black" points="299,-292.5 299,-322.5 413,-322.5 413,-292.5 299,-292.5"/>
<text text-anchor="start" x="307" y="-310.5" font-family="Helvetica,sans-Serif" font-size="10.00">DataFlash_Class::Log</text>
<text text-anchor="middle" x="356" y="-299.5" font-family="Helvetica,sans-Serif" font-size="10.00">_Write_CameraInfo</text>
</a>
</g>
</g>
<!-- Node11&#45;&gt;Node34 -->
<g id="edge39" class="edge"><title>Node11&#45;&gt;Node34</title>
<path fill="none" stroke="midnightblue" d="M268.479,-294.894C278.56,-296.363 288.909,-297.871 298.787,-299.31"/>
<polygon fill="midnightblue" stroke="midnightblue" points="268.915,-291.421 258.514,-293.443 267.905,-298.348 268.915,-291.421"/>
</g>
<!-- Node35 -->
<g id="node35" class="node"><title>Node35</title>
<g id="a_node35"><a xlink:href="classDataFlash__Backend.html#a09f5553f9e37e58f72cde1a95b2f20f2" target="_top" xlink:title="DataFlash_Backend::\lLog_Write_Mode">
<polygon fill="white" stroke="black" points="654.5,-254.5 654.5,-284.5 765.5,-284.5 765.5,-254.5 654.5,-254.5"/>
<text text-anchor="start" x="662.5" y="-272.5" font-family="Helvetica,sans-Serif" font-size="10.00">DataFlash_Backend::</text>
<text text-anchor="middle" x="710" y="-261.5" font-family="Helvetica,sans-Serif" font-size="10.00">Log_Write_Mode</text>
</a>
</g>
</g>
<!-- Node11&#45;&gt;Node35 -->
<g id="edge41" class="edge"><title>Node11&#45;&gt;Node35</title>
<path fill="none" stroke="midnightblue" d="M269.026,-283.344C277.757,-283.058 286.597,-282.77 295,-282.5 423.833,-278.354 575.223,-273.64 654.417,-271.187"/>
<polygon fill="midnightblue" stroke="midnightblue" points="268.737,-279.851 258.857,-283.678 268.967,-286.848 268.737,-279.851"/>
</g>
<!-- Node13 -->
<g id="node13" class="node"><title>Node13</title>
<g id="a_node13"><a xlink:href="classDataFlash__Backend.html#a0ed8c2da3963e144758e4df2f14161f8" target="_top" xlink:title="DataFlash_Backend::\lLog_Write_Emit_FMT">
<polygon fill="white" stroke="black" points="473,-166.5 473,-196.5 585,-196.5 585,-166.5 473,-166.5"/>
<text text-anchor="start" x="481" y="-184.5" font-family="Helvetica,sans-Serif" font-size="10.00">DataFlash_Backend::</text>
<text text-anchor="middle" x="529" y="-173.5" font-family="Helvetica,sans-Serif" font-size="10.00">Log_Write_Emit_FMT</text>
</a>
</g>
</g>
<!-- Node12&#45;&gt;Node13 -->
<g id="edge14" class="edge"><title>Node12&#45;&gt;Node13</title>
<path fill="none" stroke="midnightblue" d="M421.851,-195.157C438.629,-192.998 456.535,-190.694 472.769,-188.606"/>
<polygon fill="midnightblue" stroke="midnightblue" points="421.047,-191.731 411.576,-196.479 421.941,-198.674 421.047,-191.731"/>
</g>
<!-- Node16 -->
<g id="node16" class="node"><title>Node16</title>
<g id="a_node16"><a xlink:href="classDataFlash__Backend.html#acc06500874549df2b2567f069176506e" target="_top" xlink:title="DataFlash_Backend::\lremote_log_block_status_msg">
<polygon fill="white" stroke="black" points="815,-254.5 815,-284.5 964,-284.5 964,-254.5 815,-254.5"/>
<text text-anchor="start" x="823" y="-272.5" font-family="Helvetica,sans-Serif" font-size="10.00">DataFlash_Backend::</text>
<text text-anchor="middle" x="889.5" y="-261.5" font-family="Helvetica,sans-Serif" font-size="10.00">remote_log_block_status_msg</text>
</a>
</g>
</g>
<!-- Node12&#45;&gt;Node16 -->
<g id="edge17" class="edge"><title>Node12&#45;&gt;Node16</title>
<path fill="none" stroke="midnightblue" d="M421.626,-207.208C504.714,-212.563 653.273,-224.125 779,-244.5 795.361,-247.151 812.929,-250.798 829.099,-254.487"/>
<polygon fill="midnightblue" stroke="midnightblue" points="421.779,-203.711 411.578,-206.57 421.336,-210.696 421.779,-203.711"/>
</g>
<!-- Node17 -->
<g id="node17" class="node"><title>Node17</title>
<g id="a_node17"><a xlink:href="classDFMessageWriter__DFLogStart.html#a81d7ab192bff2616b7649f3d4bdf7ca7" target="_top" xlink:title="DFMessageWriter_DFLogStart\l::process">
<polygon fill="white" stroke="black" points="453,-78.5 453,-108.5 605,-108.5 605,-78.5 453,-78.5"/>
<text text-anchor="start" x="461" y="-96.5" font-family="Helvetica,sans-Serif" font-size="10.00">DFMessageWriter_DFLogStart</text>
<text text-anchor="middle" x="529" y="-85.5" font-family="Helvetica,sans-Serif" font-size="10.00">::process</text>
</a>
</g>
</g>
<!-- Node12&#45;&gt;Node17 -->
<g id="edge18" class="edge"><title>Node12&#45;&gt;Node17</title>
<path fill="none" stroke="midnightblue" d="M388.955,-182.944C422.555,-161.33 474.619,-127.839 504.591,-108.559"/>
<polygon fill="midnightblue" stroke="midnightblue" points="386.935,-180.082 380.418,-188.436 390.722,-185.969 386.935,-180.082"/>
</g>
<!-- Node14 -->
<g id="node14" class="node"><title>Node14</title>
<g id="a_node14"><a xlink:href="classDataFlash__Backend.html#a944c1f573e2cd12e7ff491d48898d446" target="_top" xlink:title="DataFlash_Backend::\lnum_dropped">
<polygon fill="white" stroke="black" points="654.5,-166.5 654.5,-196.5 765.5,-196.5 765.5,-166.5 654.5,-166.5"/>
<text text-anchor="start" x="662.5" y="-184.5" font-family="Helvetica,sans-Serif" font-size="10.00">DataFlash_Backend::</text>
<text text-anchor="middle" x="710" y="-173.5" font-family="Helvetica,sans-Serif" font-size="10.00">num_dropped</text>
</a>
</g>
</g>
<!-- Node13&#45;&gt;Node14 -->
<g id="edge15" class="edge"><title>Node13&#45;&gt;Node14</title>
<path fill="none" stroke="midnightblue" d="M595.417,-181.5C614.763,-181.5 635.731,-181.5 654.323,-181.5"/>
<polygon fill="midnightblue" stroke="midnightblue" points="595.167,-178 585.166,-181.5 595.166,-185 595.167,-178"/>
</g>
<!-- Node15 -->
<g id="node15" class="node"><title>Node15</title>
<g id="a_node15"><a xlink:href="classDataFlash__Class.html#a3b01d9a49c319ca3995df9b1649b9249" target="_top" xlink:title="DataFlash_Class::num\l_dropped">
<polygon fill="white" stroke="black" points="831,-166.5 831,-196.5 948,-196.5 948,-166.5 831,-166.5"/>
<text text-anchor="start" x="839" y="-184.5" font-family="Helvetica,sans-Serif" font-size="10.00">DataFlash_Class::num</text>
<text text-anchor="middle" x="889.5" y="-173.5" font-family="Helvetica,sans-Serif" font-size="10.00">_dropped</text>
</a>
</g>
</g>
<!-- Node14&#45;&gt;Node15 -->
<g id="edge16" class="edge"><title>Node14&#45;&gt;Node15</title>
<path fill="none" stroke="midnightblue" d="M775.84,-181.5C793.869,-181.5 813.32,-181.5 830.902,-181.5"/>
<polygon fill="midnightblue" stroke="midnightblue" points="775.704,-178 765.704,-181.5 775.704,-185 775.704,-178"/>
</g>
<!-- Node18 -->
<g id="node18" class="node"><title>Node18</title>
<g id="a_node18"><a xlink:href="classDataFlash__Backend.html#af17a5022c4e47cfdd56c1a5887e85632" target="_top" xlink:title="DataFlash_Backend::\lWriteMoreStartupMessages">
<polygon fill="white" stroke="black" points="641,-78.5 641,-108.5 779,-108.5 779,-78.5 641,-78.5"/>
<text text-anchor="start" x="649" y="-96.5" font-family="Helvetica,sans-Serif" font-size="10.00">DataFlash_Backend::</text>
<text text-anchor="middle" x="710" y="-85.5" font-family="Helvetica,sans-Serif" font-size="10.00">WriteMoreStartupMessages</text>
</a>
</g>
</g>
<!-- Node17&#45;&gt;Node18 -->
<g id="edge19" class="edge"><title>Node17&#45;&gt;Node18</title>
<path fill="none" stroke="midnightblue" d="M615.207,-93.5C623.825,-93.5 632.495,-93.5 640.899,-93.5"/>
<polygon fill="midnightblue" stroke="midnightblue" points="615.134,-90.0001 605.134,-93.5 615.134,-97.0001 615.134,-90.0001"/>
</g>
<!-- Node19 -->
<g id="node19" class="node"><title>Node19</title>
<g id="a_node19"><a xlink:href="classDataFlash__Backend.html#af5ccb067107a1ee7289ec208b5bc3bae" target="_top" xlink:title="DataFlash_Backend::\lpush_log_blocks">
<polygon fill="white" stroke="black" points="834,-98.5 834,-128.5 945,-128.5 945,-98.5 834,-98.5"/>
<text text-anchor="start" x="842" y="-116.5" font-family="Helvetica,sans-Serif" font-size="10.00">DataFlash_Backend::</text>
<text text-anchor="middle" x="889.5" y="-105.5" font-family="Helvetica,sans-Serif" font-size="10.00">push_log_blocks</text>
</a>
</g>
</g>
<!-- Node18&#45;&gt;Node19 -->
<g id="edge20" class="edge"><title>Node18&#45;&gt;Node19</title>
<path fill="none" stroke="midnightblue" d="M789.399,-102.334C804.37,-104.021 819.74,-105.752 833.773,-107.334"/>
<polygon fill="midnightblue" stroke="midnightblue" points="789.448,-98.8171 779.118,-101.175 788.664,-105.773 789.448,-98.8171"/>
</g>
<!-- Node25 -->
<g id="node25" class="node"><title>Node25</title>
<g id="a_node25"><a xlink:href="classDataFlash__MAVLink.html#a250d61a602a4792e744532d41ea38d34" target="_top" xlink:title="DataFlash_MAVLink::\lpush_log_blocks">
<polygon fill="white" stroke="black" points="833,-49.5 833,-79.5 946,-79.5 946,-49.5 833,-49.5"/>
<text text-anchor="start" x="841" y="-67.5" font-family="Helvetica,sans-Serif" font-size="10.00">DataFlash_MAVLink::</text>
<text text-anchor="middle" x="889.5" y="-56.5" font-family="Helvetica,sans-Serif" font-size="10.00">push_log_blocks</text>
</a>
</g>
</g>
<!-- Node18&#45;&gt;Node25 -->
<g id="edge26" class="edge"><title>Node18&#45;&gt;Node25</title>
<path fill="none" stroke="midnightblue" d="M789.23,-80.7187C803.956,-78.3128 819.074,-75.8428 832.931,-73.5788"/>
<polygon fill="midnightblue" stroke="midnightblue" points="788.423,-77.3041 779.118,-82.3708 789.552,-84.2125 788.423,-77.3041"/>
</g>
<!-- Node20 -->
<g id="node20" class="node"><title>Node20</title>
<g id="a_node20"><a xlink:href="classDataFlash__Backend.html#a82784dcb330ac456bbd1d3333b7c5769" target="_top" xlink:title="DataFlash_Backend::\lWriteBlockCheckStartupMessages">
<polygon fill="white" stroke="black" points="1000,-98.5 1000,-128.5 1170,-128.5 1170,-98.5 1000,-98.5"/>
<text text-anchor="start" x="1008" y="-116.5" font-family="Helvetica,sans-Serif" font-size="10.00">DataFlash_Backend::</text>
<text text-anchor="middle" x="1085" y="-105.5" font-family="Helvetica,sans-Serif" font-size="10.00">WriteBlockCheckStartupMessages</text>
</a>
</g>
</g>
<!-- Node19&#45;&gt;Node20 -->
<g id="edge21" class="edge"><title>Node19&#45;&gt;Node20</title>
<path fill="none" stroke="midnightblue" d="M955.352,-113.5C969.612,-113.5 984.913,-113.5 999.81,-113.5"/>
<polygon fill="midnightblue" stroke="midnightblue" points="955.173,-110 945.173,-113.5 955.173,-117 955.173,-110"/>
</g>
<!-- Node21 -->
<g id="node21" class="node"><title>Node21</title>
<g id="a_node21"><a xlink:href="classDataFlash__Block.html#aeb4df7ca0d756fa0f7e6d5e172b35658" target="_top" xlink:title="DataFlash_Block::WritePrioritised\lBlock">
<polygon fill="white" stroke="black" points="1206,-123.5 1206,-153.5 1370,-153.5 1370,-123.5 1206,-123.5"/>
<text text-anchor="start" x="1214" y="-141.5" font-family="Helvetica,sans-Serif" font-size="10.00">DataFlash_Block::WritePrioritised</text>
<text text-anchor="middle" x="1288" y="-130.5" font-family="Helvetica,sans-Serif" font-size="10.00">Block</text>
</a>
</g>
</g>
<!-- Node20&#45;&gt;Node21 -->
<g id="edge22" class="edge"><title>Node20&#45;&gt;Node21</title>
<path fill="none" stroke="midnightblue" d="M1180.12,-125.207C1188.71,-126.275 1197.37,-127.352 1205.83,-128.405"/>
<polygon fill="midnightblue" stroke="midnightblue" points="1180.43,-121.719 1170.08,-123.957 1179.57,-128.665 1180.43,-121.719"/>
</g>
<!-- Node23 -->
<g id="node23" class="node"><title>Node23</title>
<g id="a_node23"><a xlink:href="classDataFlash__MAVLink.html#a4451409ec8511931125181af1a2cbf00" target="_top" xlink:title="DataFlash_MAVLink::\lWritePrioritisedBlock">
<polygon fill="white" stroke="black" points="1231.5,-74.5 1231.5,-104.5 1344.5,-104.5 1344.5,-74.5 1231.5,-74.5"/>
<text text-anchor="start" x="1239.5" y="-92.5" font-family="Helvetica,sans-Serif" font-size="10.00">DataFlash_MAVLink::</text>
<text text-anchor="middle" x="1288" y="-81.5" font-family="Helvetica,sans-Serif" font-size="10.00">WritePrioritisedBlock</text>
</a>
</g>
</g>
<!-- Node20&#45;&gt;Node23 -->
<g id="edge24" class="edge"><title>Node20&#45;&gt;Node23</title>
<path fill="none" stroke="midnightblue" d="M1180.3,-102.24C1197.75,-100.157 1215.45,-98.0438 1231.28,-96.1535"/>
<polygon fill="midnightblue" stroke="midnightblue" points="1179.59,-98.7999 1170.08,-103.461 1180.42,-105.751 1179.59,-98.7999"/>
</g>
<!-- Node22 -->
<g id="node22" class="node"><title>Node22</title>
<g id="a_node22"><a xlink:href="classDataFlash__Block.html#aa7f35f8bc82176c68574db0d23c44c97" target="_top" xlink:title="DataFlash_Block::DataFlash\l_Block">
<polygon fill="white" stroke="black" points="1406,-123.5 1406,-153.5 1549,-153.5 1549,-123.5 1406,-123.5"/>
<text text-anchor="start" x="1414" y="-141.5" font-family="Helvetica,sans-Serif" font-size="10.00">DataFlash_Block::DataFlash</text>
<text text-anchor="middle" x="1477.5" y="-130.5" font-family="Helvetica,sans-Serif" font-size="10.00">_Block</text>
</a>
</g>
</g>
<!-- Node21&#45;&gt;Node22 -->
<g id="edge23" class="edge"><title>Node21&#45;&gt;Node22</title>
<path fill="none" stroke="midnightblue" d="M1380.22,-138.5C1388.82,-138.5 1397.45,-138.5 1405.82,-138.5"/>
<polygon fill="midnightblue" stroke="midnightblue" points="1380.15,-135 1370.15,-138.5 1380.15,-142 1380.15,-135"/>
</g>
<!-- Node24 -->
<g id="node24" class="node"><title>Node24</title>
<g id="a_node24"><a xlink:href="classDataFlash__MAVLink.html#a29ea50e386834a25c9605ac94218b371" target="_top" xlink:title="DataFlash_MAVLink::\llogging_started">
<polygon fill="white" stroke="black" points="1421,-74.5 1421,-104.5 1534,-104.5 1534,-74.5 1421,-74.5"/>
<text text-anchor="start" x="1429" y="-92.5" font-family="Helvetica,sans-Serif" font-size="10.00">DataFlash_MAVLink::</text>
<text text-anchor="middle" x="1477.5" y="-81.5" font-family="Helvetica,sans-Serif" font-size="10.00">logging_started</text>
</a>
</g>
</g>
<!-- Node23&#45;&gt;Node24 -->
<g id="edge25" class="edge"><title>Node23&#45;&gt;Node24</title>
<path fill="none" stroke="midnightblue" d="M1354.83,-89.5C1376.43,-89.5 1400.21,-89.5 1420.97,-89.5"/>
<polygon fill="midnightblue" stroke="midnightblue" points="1354.75,-86.0001 1344.75,-89.5 1354.75,-93.0001 1354.75,-86.0001"/>
</g>
<!-- Node26 -->
<g id="node26" class="node"><title>Node26</title>
<g id="a_node26"><a xlink:href="classDataFlash__MAVLink.html#a62e4eb460ca5b7f9ea2869763518803c" target="_top" xlink:title="DataFlash_MAVLink::\lperiodic_fullrate">
<polygon fill="white" stroke="black" points="1028.5,-0.5 1028.5,-30.5 1141.5,-30.5 1141.5,-0.5 1028.5,-0.5"/>
<text text-anchor="start" x="1036.5" y="-18.5" font-family="Helvetica,sans-Serif" font-size="10.00">DataFlash_MAVLink::</text>
<text text-anchor="middle" x="1085" y="-7.5" font-family="Helvetica,sans-Serif" font-size="10.00">periodic_fullrate</text>
</a>
</g>
</g>
<!-- Node25&#45;&gt;Node26 -->
<g id="edge27" class="edge"><title>Node25&#45;&gt;Node26</title>
<path fill="none" stroke="midnightblue" d="M956.085,-47.8918C979.566,-41.9458 1005.79,-35.3053 1028.35,-29.5923"/>
<polygon fill="midnightblue" stroke="midnightblue" points="955.043,-44.5451 946.209,-50.3929 956.762,-51.3309 955.043,-44.5451"/>
</g>
<!-- Node27 -->
<g id="node27" class="node"><title>Node27</title>
<g id="a_node27"><a xlink:href="classDataFlash__MAVLink.html#a7ce5650e9a386a430ca3ba71c7f733f2" target="_top" xlink:title="DataFlash_MAVLink::\lListAvailableLogs">
<polygon fill="white" stroke="black" points="1028.5,-49.5 1028.5,-79.5 1141.5,-79.5 1141.5,-49.5 1028.5,-49.5"/>
<text text-anchor="start" x="1036.5" y="-67.5" font-family="Helvetica,sans-Serif" font-size="10.00">DataFlash_MAVLink::</text>
<text text-anchor="middle" x="1085" y="-56.5" font-family="Helvetica,sans-Serif" font-size="10.00">ListAvailableLogs</text>
</a>
</g>
</g>
<!-- Node25&#45;&gt;Node27 -->
<g id="edge28" class="edge"><title>Node25&#45;&gt;Node27</title>
<path fill="none" stroke="midnightblue" d="M956.4,-64.5C979.8,-64.5 1005.89,-64.5 1028.35,-64.5"/>
<polygon fill="midnightblue" stroke="midnightblue" points="956.209,-61.0001 946.209,-64.5 956.209,-68.0001 956.209,-61.0001"/>
</g>
<!-- Node28&#45;&gt;Node16 -->
<g id="edge30" class="edge"><title>Node28&#45;&gt;Node16</title>
<path fill="none" stroke="midnightblue" d="M421.778,-118.889C532.385,-125.103 748.711,-139.278 779,-156.5 802.492,-169.857 796.699,-185.617 815,-205.5 831.73,-223.676 853.284,-241.936 868.717,-254.273"/>
<polygon fill="midnightblue" stroke="midnightblue" points="421.916,-115.391 411.737,-118.33 421.528,-122.381 421.916,-115.391"/>
</g>
<!-- Node28&#45;&gt;Node17 -->
<g id="edge31" class="edge"><title>Node28&#45;&gt;Node17</title>
<path fill="none" stroke="midnightblue" d="M421.585,-107.191C431.759,-105.882 442.353,-104.519 452.742,-103.182"/>
<polygon fill="midnightblue" stroke="midnightblue" points="421.047,-103.731 411.576,-108.479 421.941,-110.674 421.047,-103.731"/>
</g>
<!-- Node29 -->
<g id="node29" class="node"><title>Node29</title>
<g id="a_node29"><a xlink:href="classDataFlash__Backend.html#a76b0eff7f34874f2a35c4d6241203e6f" target="_top" xlink:title="DataFlash_Backend::\lLog_Write_Parameter">
<polygon fill="white" stroke="black" points="473.5,-29.5 473.5,-59.5 584.5,-59.5 584.5,-29.5 473.5,-29.5"/>
<text text-anchor="start" x="481.5" y="-47.5" font-family="Helvetica,sans-Serif" font-size="10.00">DataFlash_Backend::</text>
<text text-anchor="middle" x="529" y="-36.5" font-family="Helvetica,sans-Serif" font-size="10.00">Log_Write_Parameter</text>
</a>
</g>
</g>
<!-- Node28&#45;&gt;Node29 -->
<g id="edge32" class="edge"><title>Node28&#45;&gt;Node29</title>
<path fill="none" stroke="midnightblue" d="M394.384,-95.6228C411.911,-86.7136 433.245,-76.4476 453,-68.5 460.864,-65.3364 469.317,-62.2975 477.614,-59.5084"/>
<polygon fill="midnightblue" stroke="midnightblue" points="392.366,-92.7247 385.072,-100.409 395.566,-98.9504 392.366,-92.7247"/>
</g>
<!-- Node30&#45;&gt;Node16 -->
<g id="edge34" class="edge"><title>Node30&#45;&gt;Node16</title>
<path fill="none" stroke="midnightblue" d="M421.487,-378.453C432.007,-375.745 442.798,-373.011 453,-370.5 583.005,-338.503 735.544,-303.769 821.221,-284.514"/>
<polygon fill="midnightblue" stroke="midnightblue" points="420.316,-375.14 411.511,-381.033 422.069,-381.917 420.316,-375.14"/>
</g>
<!-- Node31 -->
<g id="node31" class="node"><title>Node31</title>
<g id="a_node31"><a xlink:href="classDFMessageWriter__WriteSysInfo.html#a58c7b3822a65bb8415b33960266a1e83" target="_top" xlink:title="DFMessageWriter_WriteSys\lInfo::process">
<polygon fill="white" stroke="black" points="458,-429.5 458,-459.5 600,-459.5 600,-429.5 458,-429.5"/>
<text text-anchor="start" x="466" y="-447.5" font-family="Helvetica,sans-Serif" font-size="10.00">DFMessageWriter_WriteSys</text>
<text text-anchor="middle" x="529" y="-436.5" font-family="Helvetica,sans-Serif" font-size="10.00">Info::process</text>
</a>
</g>
</g>
<!-- Node30&#45;&gt;Node31 -->
<g id="edge35" class="edge"><title>Node30&#45;&gt;Node31</title>
<path fill="none" stroke="midnightblue" d="M419.447,-413.394C437.839,-418.664 457.77,-424.376 475.473,-429.448"/>
<polygon fill="midnightblue" stroke="midnightblue" points="420.278,-409.992 409.701,-410.601 418.35,-416.721 420.278,-409.992"/>
</g>
<!-- Node32 -->
<g id="node32" class="node"><title>Node32</title>
<g id="a_node32"><a xlink:href="classDFMessageWriter__WriteEntireMission.html#a157afd1587cb4756d21bfd04bd64fdd1" target="_top" xlink:title="DFMessageWriter_WriteEntire\lMission::process">
<polygon fill="white" stroke="black" points="454,-380.5 454,-410.5 604,-410.5 604,-380.5 454,-380.5"/>
<text text-anchor="start" x="462" y="-398.5" font-family="Helvetica,sans-Serif" font-size="10.00">DFMessageWriter_WriteEntire</text>
<text text-anchor="middle" x="529" y="-387.5" font-family="Helvetica,sans-Serif" font-size="10.00">Mission::process</text>
</a>
</g>
</g>
<!-- Node30&#45;&gt;Node32 -->
<g id="edge36" class="edge"><title>Node30&#45;&gt;Node32</title>
<path fill="none" stroke="midnightblue" d="M421.889,-395.5C432.375,-395.5 443.3,-395.5 453.982,-395.5"/>
<polygon fill="midnightblue" stroke="midnightblue" points="421.576,-392 411.576,-395.5 421.576,-399 421.576,-392"/>
</g>
<!-- Node33 -->
<g id="node33" class="node"><title>Node33</title>
<g id="a_node33"><a xlink:href="classDataFlash__Backend.html#a2cf7e12a43bb8ebf9aa3ea073e544f40" target="_top" xlink:title="DataFlash_Backend::\lLog_Write_EntireMission">
<polygon fill="white" stroke="black" points="647.5,-380.5 647.5,-410.5 772.5,-410.5 772.5,-380.5 647.5,-380.5"/>
<text text-anchor="start" x="655.5" y="-398.5" font-family="Helvetica,sans-Serif" font-size="10.00">DataFlash_Backend::</text>
<text text-anchor="middle" x="710" y="-387.5" font-family="Helvetica,sans-Serif" font-size="10.00">Log_Write_EntireMission</text>
</a>
</g>
</g>
<!-- Node32&#45;&gt;Node33 -->
<g id="edge37" class="edge"><title>Node32&#45;&gt;Node33</title>
<path fill="none" stroke="midnightblue" d="M614.313,-395.5C625.49,-395.5 636.776,-395.5 647.47,-395.5"/>
<polygon fill="midnightblue" stroke="midnightblue" points="614.098,-392 604.098,-395.5 614.098,-399 614.098,-392"/>
</g>
<!-- Node33&#45;&gt;Node16 -->
<g id="edge38" class="edge"><title>Node33&#45;&gt;Node16</title>
<path fill="none" stroke="midnightblue" d="M759.618,-376.237C766.301,-372.965 772.941,-369.363 779,-365.5 816.518,-341.577 854.204,-305.173 874.095,-284.757"/>
<polygon fill="midnightblue" stroke="midnightblue" points="758.106,-373.081 750.531,-380.487 761.072,-379.421 758.106,-373.081"/>
</g>
<!-- Node34&#45;&gt;Node3 -->
<g id="edge40" class="edge"><title>Node34&#45;&gt;Node3</title>
<path fill="none" stroke="midnightblue" d="M423.468,-307.5C439.771,-307.5 457.047,-307.5 472.758,-307.5"/>
<polygon fill="midnightblue" stroke="midnightblue" points="423.466,-304 413.466,-307.5 423.466,-311 423.466,-304"/>
</g>
<!-- Node35&#45;&gt;Node16 -->
<g id="edge42" class="edge"><title>Node35&#45;&gt;Node16</title>
<path fill="none" stroke="midnightblue" d="M776.075,-269.5C788.64,-269.5 801.89,-269.5 814.71,-269.5"/>
<polygon fill="midnightblue" stroke="midnightblue" points="775.704,-266 765.704,-269.5 775.704,-273 775.704,-266"/>
</g>
</g>
</svg>
