<?xml version="1.0" encoding="UTF-8" standalone="no"?>
<!DOCTYPE svg PUBLIC "-//W3C//DTD SVG 1.1//EN"
 "http://www.w3.org/Graphics/SVG/1.1/DTD/svg11.dtd">
<!-- Generated by graphviz version 2.38.0 (20140413.2041)
 -->
<!-- Title: Linux::Storage::_storage_create Pages: 1 -->
<svg width="593pt" height="153pt"
 viewBox="0.00 0.00 593.00 153.26" xmlns="http://www.w3.org/2000/svg" xmlns:xlink="http://www.w3.org/1999/xlink">
<g id="graph0" class="graph" transform="scale(1 1) rotate(0) translate(4 149.263)">
<title>Linux::Storage::_storage_create</title>
<polygon fill="white" stroke="none" points="-4,4 -4,-149.263 589,-149.263 589,4 -4,4"/>
<!-- Node1 -->
<g id="node1" class="node"><title>Node1</title>
<polygon fill="#bfbfbf" stroke="black" points="0,-15.7631 0,-45.7631 123,-45.7631 123,-15.7631 0,-15.7631"/>
<text text-anchor="start" x="8" y="-33.7631" font-family="Helvetica,sans-Serif" font-size="10.00">Linux::Storage::_storage</text>
<text text-anchor="middle" x="61.5" y="-22.7631" font-family="Helvetica,sans-Serif" font-size="10.00">_create</text>
</g>
<!-- Node2 -->
<g id="node2" class="node"><title>Node2</title>
<g id="a_node2"><a xlink:href="classLinux_1_1Storage.html#adf6fc2369946746d00bb2a7f86410258" target="_top" xlink:title="Linux::Storage::_storage_open">
<polygon fill="white" stroke="black" points="159,-54.2631 159,-73.2631 308,-73.2631 308,-54.2631 159,-54.2631"/>
<text text-anchor="middle" x="233.5" y="-61.2631" font-family="Helvetica,sans-Serif" font-size="10.00">Linux::Storage::_storage_open</text>
</a>
</g>
</g>
<!-- Node1&#45;&gt;Node2 -->
<g id="edge1" class="edge"><title>Node1&#45;&gt;Node2</title>
<path fill="none" stroke="midnightblue" d="M133.232,-44.4934C150.129,-47.7734 167.8,-51.2037 183.471,-54.2457"/>
<polygon fill="midnightblue" stroke="midnightblue" points="133.877,-41.0535 123.394,-42.5837 132.543,-47.9252 133.877,-41.0535"/>
</g>
<!-- Node4 -->
<g id="node4" class="node"><title>Node4</title>
<g id="a_node4"><a xlink:href="classLinux_1_1Storage.html#a86b63d2045d0e5337273e21a46aae39c" target="_top" xlink:title="Linux::Storage::init">
<polygon fill="white" stroke="black" points="487,-54.2631 487,-73.2631 585,-73.2631 585,-54.2631 487,-54.2631"/>
<text text-anchor="middle" x="536" y="-61.2631" font-family="Helvetica,sans-Serif" font-size="10.00">Linux::Storage::init</text>
</a>
</g>
</g>
<!-- Node1&#45;&gt;Node4 -->
<g id="edge7" class="edge"><title>Node1&#45;&gt;Node4</title>
<path fill="none" stroke="midnightblue" d="M133.553,-16.1429C212.483,-2.65914 343.028,11.3897 451,-16.7631 478.813,-24.0151 507.171,-42.7388 522.787,-54.2454"/>
<polygon fill="midnightblue" stroke="midnightblue" points="132.485,-12.7767 123.24,-17.9518 133.694,-19.6714 132.485,-12.7767"/>
</g>
<!-- Node3 -->
<g id="node3" class="node"><title>Node3</title>
<g id="a_node3"><a xlink:href="classLinux_1_1Storage.html#a61138ade2a50e5731b493f84e7316879" target="_top" xlink:title="Linux::Storage::read\l_block">
<polygon fill="white" stroke="black" points="345.5,-114.763 345.5,-144.763 449.5,-144.763 449.5,-114.763 345.5,-114.763"/>
<text text-anchor="start" x="353.5" y="-132.763" font-family="Helvetica,sans-Serif" font-size="10.00">Linux::Storage::read</text>
<text text-anchor="middle" x="397.5" y="-121.763" font-family="Helvetica,sans-Serif" font-size="10.00">_block</text>
</a>
</g>
</g>
<!-- Node2&#45;&gt;Node3 -->
<g id="edge2" class="edge"><title>Node2&#45;&gt;Node3</title>
<path fill="none" stroke="midnightblue" d="M267.353,-77.1477C294.036,-88.0184 331.659,-103.347 359.419,-114.656"/>
<polygon fill="midnightblue" stroke="midnightblue" points="268.638,-73.8918 258.056,-73.3601 265.997,-80.3745 268.638,-73.8918"/>
</g>
<!-- Node2&#45;&gt;Node4 -->
<g id="edge6" class="edge"><title>Node2&#45;&gt;Node4</title>
<path fill="none" stroke="midnightblue" d="M318.289,-65.4504C326.972,-65.5783 335.664,-65.687 344,-65.7631 391.554,-66.1974 403.448,-66.3292 451,-65.7631 462.523,-65.626 474.934,-65.383 486.587,-65.1126"/>
<polygon fill="midnightblue" stroke="midnightblue" points="318.177,-61.9483 308.124,-65.2922 318.068,-68.9475 318.177,-61.9483"/>
</g>
<!-- Node5 -->
<g id="node5" class="node"><title>Node5</title>
<g id="a_node5"><a xlink:href="classLinux_1_1Storage.html#a353a4b0d50191bb04405a1f62b0cbe7b" target="_top" xlink:title="Linux::Storage::write\l_block">
<polygon fill="white" stroke="black" points="344,-26.7631 344,-56.7631 451,-56.7631 451,-26.7631 344,-26.7631"/>
<text text-anchor="start" x="352" y="-44.7631" font-family="Helvetica,sans-Serif" font-size="10.00">Linux::Storage::write</text>
<text text-anchor="middle" x="397.5" y="-33.7631" font-family="Helvetica,sans-Serif" font-size="10.00">_block</text>
</a>
</g>
</g>
<!-- Node2&#45;&gt;Node5 -->
<g id="edge4" class="edge"><title>Node2&#45;&gt;Node5</title>
<path fill="none" stroke="midnightblue" d="M314.541,-52.8934C324.498,-51.5413 334.473,-50.1865 343.867,-48.9109"/>
<polygon fill="midnightblue" stroke="midnightblue" points="314.051,-49.4276 304.613,-54.2416 314.993,-56.364 314.051,-49.4276"/>
</g>
<!-- Node3&#45;&gt;Node4 -->
<g id="edge3" class="edge"><title>Node3&#45;&gt;Node4</title>
<path fill="none" stroke="midnightblue" d="M439.117,-110.124C464.247,-97.9734 495.391,-82.9147 515.233,-73.321"/>
<polygon fill="midnightblue" stroke="midnightblue" points="437.295,-107.117 429.816,-114.621 440.342,-113.419 437.295,-107.117"/>
</g>
<!-- Node5&#45;&gt;Node4 -->
<g id="edge5" class="edge"><title>Node5&#45;&gt;Node4</title>
<path fill="none" stroke="midnightblue" d="M461.268,-51.8797C469.855,-53.2636 478.559,-54.6664 486.83,-55.9995"/>
<polygon fill="midnightblue" stroke="midnightblue" points="461.704,-48.4048 451.274,-50.2689 460.59,-55.3156 461.704,-48.4048"/>
</g>
</g>
</svg>
