<?xml version="1.0" encoding="UTF-8" standalone="no"?>
<!DOCTYPE svg PUBLIC "-//W3C//DTD SVG 1.1//EN"
 "http://www.w3.org/Graphics/SVG/1.1/DTD/svg11.dtd">
<!-- Generated by graphviz version 2.38.0 (20140413.2041)
 -->
<!-- Title: Linux::RPIOUARTDriver Pages: 1 -->
<svg width="391pt" height="365pt"
 viewBox="0.00 0.00 391.00 365.00" xmlns="http://www.w3.org/2000/svg" xmlns:xlink="http://www.w3.org/1999/xlink">
<g id="graph0" class="graph" transform="scale(1 1) rotate(0) translate(4 361)">
<title>Linux::RPIOUARTDriver</title>
<polygon fill="white" stroke="none" points="-4,4 -4,-361 387,-361 387,4 -4,4"/>
<!-- Node1 -->
<g id="node1" class="node"><title>Node1</title>
<polygon fill="#bfbfbf" stroke="black" points="205,-0.5 205,-19.5 330,-19.5 330,-0.5 205,-0.5"/>
<text text-anchor="middle" x="267.5" y="-7.5" font-family="Helvetica,sans-Serif" font-size="10.00">Linux::RPIOUARTDriver</text>
</g>
<!-- Node2 -->
<g id="node2" class="node"><title>Node2</title>
<g id="a_node2"><a xlink:href="classLinux_1_1UARTDriver.html" target="_top" xlink:title="Linux::UARTDriver">
<polygon fill="white" stroke="black" points="116.5,-73 116.5,-92 216.5,-92 216.5,-73 116.5,-73"/>
<text text-anchor="middle" x="166.5" y="-80" font-family="Helvetica,sans-Serif" font-size="10.00">Linux::UARTDriver</text>
</a>
</g>
</g>
<!-- Node2&#45;&gt;Node1 -->
<g id="edge1" class="edge"><title>Node2&#45;&gt;Node1</title>
<path fill="none" stroke="midnightblue" d="M187.197,-67.0528C207.588,-52.8194 238.074,-31.5399 255.014,-19.7154"/>
<polygon fill="midnightblue" stroke="midnightblue" points="185.081,-64.2616 178.885,-72.8553 189.088,-70.0015 185.081,-64.2616"/>
</g>
<!-- Node3 -->
<g id="node3" class="node"><title>Node3</title>
<g id="a_node3"><a xlink:href="classAP__HAL_1_1UARTDriver.html" target="_top" xlink:title="AP_HAL::UARTDriver">
<polygon fill="white" stroke="black" points="2,-156.5 2,-175.5 117,-175.5 117,-156.5 2,-156.5"/>
<text text-anchor="middle" x="59.5" y="-163.5" font-family="Helvetica,sans-Serif" font-size="10.00">AP_HAL::UARTDriver</text>
</a>
</g>
</g>
<!-- Node3&#45;&gt;Node2 -->
<g id="edge2" class="edge"><title>Node3&#45;&gt;Node2</title>
<path fill="none" stroke="midnightblue" d="M79.044,-150.114C101.326,-133.142 137.003,-105.967 155.131,-92.1592"/>
<polygon fill="midnightblue" stroke="midnightblue" points="76.7853,-147.434 70.9509,-156.278 81.0268,-153.003 76.7853,-147.434"/>
</g>
<!-- Node4 -->
<g id="node4" class="node"><title>Node4</title>
<g id="a_node4"><a xlink:href="classAP__HAL_1_1BetterStream.html" target="_top" xlink:title="AP_HAL::BetterStream">
<polygon fill="white" stroke="black" points="0,-223.5 0,-242.5 119,-242.5 119,-223.5 0,-223.5"/>
<text text-anchor="middle" x="59.5" y="-230.5" font-family="Helvetica,sans-Serif" font-size="10.00">AP_HAL::BetterStream</text>
</a>
</g>
</g>
<!-- Node4&#45;&gt;Node3 -->
<g id="edge3" class="edge"><title>Node4&#45;&gt;Node3</title>
<path fill="none" stroke="midnightblue" d="M59.5,-213.037C59.5,-200.67 59.5,-185.12 59.5,-175.627"/>
<polygon fill="midnightblue" stroke="midnightblue" points="56.0001,-213.234 59.5,-223.234 63.0001,-213.234 56.0001,-213.234"/>
</g>
<!-- Node5 -->
<g id="node5" class="node"><title>Node5</title>
<g id="a_node5"><a xlink:href="classAP__HAL_1_1Stream.html" target="_top" xlink:title="AP_HAL::Stream">
<polygon fill="white" stroke="black" points="13.5,-280.5 13.5,-299.5 105.5,-299.5 105.5,-280.5 13.5,-280.5"/>
<text text-anchor="middle" x="59.5" y="-287.5" font-family="Helvetica,sans-Serif" font-size="10.00">AP_HAL::Stream</text>
</a>
</g>
</g>
<!-- Node5&#45;&gt;Node4 -->
<g id="edge4" class="edge"><title>Node5&#45;&gt;Node4</title>
<path fill="none" stroke="midnightblue" d="M59.5,-270.117C59.5,-260.817 59.5,-250.056 59.5,-242.715"/>
<polygon fill="midnightblue" stroke="midnightblue" points="56.0001,-270.406 59.5,-280.406 63.0001,-270.406 56.0001,-270.406"/>
</g>
<!-- Node6 -->
<g id="node6" class="node"><title>Node6</title>
<g id="a_node6"><a xlink:href="classAP__HAL_1_1Print.html" target="_top" xlink:title="AP_HAL::Print">
<polygon fill="white" stroke="black" points="19,-337.5 19,-356.5 100,-356.5 100,-337.5 19,-337.5"/>
<text text-anchor="middle" x="59.5" y="-344.5" font-family="Helvetica,sans-Serif" font-size="10.00">AP_HAL::Print</text>
</a>
</g>
</g>
<!-- Node6&#45;&gt;Node5 -->
<g id="edge5" class="edge"><title>Node6&#45;&gt;Node5</title>
<path fill="none" stroke="midnightblue" d="M59.5,-327.117C59.5,-317.817 59.5,-307.056 59.5,-299.715"/>
<polygon fill="midnightblue" stroke="midnightblue" points="56.0001,-327.406 59.5,-337.406 63.0001,-327.406 56.0001,-327.406"/>
</g>
<!-- Node7 -->
<g id="node7" class="node"><title>Node7</title>
<g id="a_node7"><a xlink:href="classByteBuffer.html" target="_top" xlink:title="ByteBuffer">
<polygon fill="white" stroke="black" points="135,-156.5 135,-175.5 198,-175.5 198,-156.5 135,-156.5"/>
<text text-anchor="middle" x="166.5" y="-163.5" font-family="Helvetica,sans-Serif" font-size="10.00">ByteBuffer</text>
</a>
</g>
</g>
<!-- Node7&#45;&gt;Node2 -->
<g id="edge6" class="edge"><title>Node7&#45;&gt;Node2</title>
<path fill="none" stroke="#9a32cd" stroke-dasharray="5,2" d="M166.5,-145.876C166.5,-128.898 166.5,-104.867 166.5,-92.1592"/>
<polygon fill="#9a32cd" stroke="#9a32cd" points="163,-146.278 166.5,-156.278 170,-146.278 163,-146.278"/>
<text text-anchor="middle" x="187" y="-130" font-family="Helvetica,sans-Serif" font-size="10.00"> _readbuf</text>
<text text-anchor="middle" x="187" y="-119" font-family="Helvetica,sans-Serif" font-size="10.00">_writebuf</text>
</g>
<!-- Node8 -->
<g id="node8" class="node"><title>Node8</title>
<g id="a_node8"><a xlink:href="classAP__HAL_1_1OwnPtr.html" target="_top" xlink:title="AP_HAL::OwnPtr\&lt; SerialDevice \&gt;">
<polygon fill="white" stroke="black" points="216,-156.5 216,-175.5 383,-175.5 383,-156.5 216,-156.5"/>
<text text-anchor="middle" x="299.5" y="-163.5" font-family="Helvetica,sans-Serif" font-size="10.00">AP_HAL::OwnPtr&lt; SerialDevice &gt;</text>
</a>
</g>
</g>
<!-- Node8&#45;&gt;Node2 -->
<g id="edge7" class="edge"><title>Node8&#45;&gt;Node2</title>
<path fill="none" stroke="#9a32cd" stroke-dasharray="5,2" d="M276.662,-151.005C249.087,-134.108 203.563,-106.211 180.631,-92.1592"/>
<polygon fill="#9a32cd" stroke="#9a32cd" points="274.911,-154.037 285.267,-156.278 278.569,-148.069 274.911,-154.037"/>
<text text-anchor="middle" x="272" y="-124.5" font-family="Helvetica,sans-Serif" font-size="10.00"> _device</text>
</g>
<!-- Node9 -->
<g id="node9" class="node"><title>Node9</title>
<g id="a_node9"><a xlink:href="classSerialDevice.html" target="_top" xlink:title="SerialDevice">
<polygon fill="white" stroke="black" points="263.5,-223.5 263.5,-242.5 335.5,-242.5 335.5,-223.5 263.5,-223.5"/>
<text text-anchor="middle" x="299.5" y="-230.5" font-family="Helvetica,sans-Serif" font-size="10.00">SerialDevice</text>
</a>
</g>
</g>
<!-- Node9&#45;&gt;Node8 -->
<g id="edge8" class="edge"><title>Node9&#45;&gt;Node8</title>
<path fill="none" stroke="#9a32cd" stroke-dasharray="5,2" d="M299.5,-213.037C299.5,-200.67 299.5,-185.12 299.5,-175.627"/>
<polygon fill="#9a32cd" stroke="#9a32cd" points="296,-213.234 299.5,-223.234 303,-213.234 296,-213.234"/>
<text text-anchor="middle" x="309.5" y="-197" font-family="Helvetica,sans-Serif" font-size="10.00"> _ptr</text>
</g>
<!-- Node10 -->
<g id="node10" class="node"><title>Node10</title>
<g id="a_node10"><a xlink:href="classAP__HAL_1_1OwnPtr.html" target="_top" xlink:title="AP_HAL::OwnPtr\&lt; AP\l_HAL::Linux::SPIDevice \&gt;">
<polygon fill="white" stroke="black" points="235,-67.5 235,-97.5 368,-97.5 368,-67.5 235,-67.5"/>
<text text-anchor="start" x="243" y="-85.5" font-family="Helvetica,sans-Serif" font-size="10.00">AP_HAL::OwnPtr&lt; AP</text>
<text text-anchor="middle" x="301.5" y="-74.5" font-family="Helvetica,sans-Serif" font-size="10.00">_HAL::Linux::SPIDevice &gt;</text>
</a>
</g>
</g>
<!-- Node10&#45;&gt;Node1 -->
<g id="edge9" class="edge"><title>Node10&#45;&gt;Node1</title>
<path fill="none" stroke="#9a32cd" stroke-dasharray="5,2" d="M290.1,-57.8614C283.809,-44.8166 276.366,-29.3835 271.789,-19.8932"/>
<polygon fill="#9a32cd" stroke="#9a32cd" points="287.123,-59.7464 294.62,-67.2333 293.428,-56.7056 287.123,-59.7464"/>
<text text-anchor="middle" x="299" y="-41" font-family="Helvetica,sans-Serif" font-size="10.00"> _dev</text>
</g>
</g>
</svg>
