<?xml version="1.0" encoding="UTF-8" standalone="no"?>
<!DOCTYPE svg PUBLIC "-//W3C//DTD SVG 1.1//EN"
 "http://www.w3.org/Graphics/SVG/1.1/DTD/svg11.dtd">
<!-- Generated by graphviz version 2.38.0 (20140413.2041)
 -->
<!-- Title: AC_PosControl::set_speed_xy Pages: 1 -->
<svg width="781pt" height="305pt"
 viewBox="0.00 0.00 781.00 305.00" xmlns="http://www.w3.org/2000/svg" xmlns:xlink="http://www.w3.org/1999/xlink">
<g id="graph0" class="graph" transform="scale(1 1) rotate(0) translate(4 301)">
<title>AC_PosControl::set_speed_xy</title>
<polygon fill="white" stroke="none" points="-4,4 -4,-301 777,-301 777,4 -4,4"/>
<!-- Node1 -->
<g id="node1" class="node"><title>Node1</title>
<polygon fill="#bfbfbf" stroke="black" points="0,-146 0,-176 104,-176 104,-146 0,-146"/>
<text text-anchor="start" x="8" y="-164" font-family="Helvetica,sans-Serif" font-size="10.00">AC_PosControl::set</text>
<text text-anchor="middle" x="52" y="-153" font-family="Helvetica,sans-Serif" font-size="10.00">_speed_xy</text>
</g>
<!-- Node2 -->
<g id="node2" class="node"><title>Node2</title>
<g id="a_node2"><a xlink:href="classAC__WPNav.html#a3dbf7bda89b127cdc81bca29e2af25de" target="_top" xlink:title="AC_WPNav::calc_loiter\l_desired_velocity">
<polygon fill="white" stroke="black" points="159,-228 159,-258 280,-258 280,-228 159,-228"/>
<text text-anchor="start" x="167" y="-246" font-family="Helvetica,sans-Serif" font-size="10.00">AC_WPNav::calc_loiter</text>
<text text-anchor="middle" x="219.5" y="-235" font-family="Helvetica,sans-Serif" font-size="10.00">_desired_velocity</text>
</a>
</g>
</g>
<!-- Node1&#45;&gt;Node2 -->
<g id="edge1" class="edge"><title>Node1&#45;&gt;Node2</title>
<path fill="none" stroke="midnightblue" d="M84.2234,-181.461C100.478,-191.646 120.9,-203.729 140,-213 151.157,-218.415 163.559,-223.542 175.149,-227.974"/>
<polygon fill="midnightblue" stroke="midnightblue" points="85.976,-178.428 75.6566,-176.028 82.2269,-184.34 85.976,-178.428"/>
</g>
<!-- Node3 -->
<g id="node3" class="node"><title>Node3</title>
<g id="a_node3"><a xlink:href="classAC__WPNav.html#a0a434270245fd8641352af387700dc82" target="_top" xlink:title="update_loiter &#45; run the loiter controller &#45; should be called at 10hz ">
<polygon fill="white" stroke="black" points="337.5,-195.5 337.5,-214.5 469.5,-214.5 469.5,-195.5 337.5,-195.5"/>
<text text-anchor="middle" x="403.5" y="-202.5" font-family="Helvetica,sans-Serif" font-size="10.00">AC_WPNav::update_loiter</text>
</a>
</g>
</g>
<!-- Node1&#45;&gt;Node3 -->
<g id="edge14" class="edge"><title>Node1&#45;&gt;Node3</title>
<path fill="none" stroke="midnightblue" d="M114.1,-171.194C122.785,-172.537 131.612,-173.846 140,-175 207.14,-184.234 284.22,-192.802 337.401,-198.397"/>
<polygon fill="midnightblue" stroke="midnightblue" points="114.428,-167.702 104.006,-169.608 113.341,-174.618 114.428,-167.702"/>
</g>
<!-- Node5 -->
<g id="node5" class="node"><title>Node5</title>
<g id="a_node5"><a xlink:href="classAC__PosControl.html#a00403fdcd2f83a4218f58dd59db4863c" target="_top" xlink:title="AC_PosControl::get\l_accel_xy">
<polygon fill="white" stroke="black" points="167.5,-14 167.5,-44 271.5,-44 271.5,-14 167.5,-14"/>
<text text-anchor="start" x="175.5" y="-32" font-family="Helvetica,sans-Serif" font-size="10.00">AC_PosControl::get</text>
<text text-anchor="middle" x="219.5" y="-21" font-family="Helvetica,sans-Serif" font-size="10.00">_accel_xy</text>
</a>
</g>
</g>
<!-- Node1&#45;&gt;Node5 -->
<g id="edge4" class="edge"><title>Node1&#45;&gt;Node5</title>
<path fill="none" stroke="midnightblue" d="M68.0133,-137.319C83.5611,-114.483 109.788,-80.3335 140,-59 148.343,-53.1091 157.992,-48.1968 167.61,-44.1683"/>
<polygon fill="midnightblue" stroke="midnightblue" points="65.0243,-135.493 62.4018,-145.758 70.8533,-139.369 65.0243,-135.493"/>
</g>
<!-- Node10 -->
<g id="node10" class="node"><title>Node10</title>
<g id="a_node10"><a xlink:href="classAC__WPNav.html#a2ed86e41fc51c2ea822711ea95d055f0" target="_top" xlink:title="init_brake_target &#45; initializes stop position from current position and velocity ">
<polygon fill="white" stroke="black" points="344,-146 344,-176 463,-176 463,-146 344,-146"/>
<text text-anchor="start" x="352" y="-164" font-family="Helvetica,sans-Serif" font-size="10.00">AC_WPNav::init_brake</text>
<text text-anchor="middle" x="403.5" y="-153" font-family="Helvetica,sans-Serif" font-size="10.00">_target</text>
</a>
</g>
</g>
<!-- Node1&#45;&gt;Node10 -->
<g id="edge9" class="edge"><title>Node1&#45;&gt;Node10</title>
<path fill="none" stroke="midnightblue" d="M114.251,-161C178.938,-161 280.192,-161 343.87,-161"/>
<polygon fill="midnightblue" stroke="midnightblue" points="114.195,-157.5 104.195,-161 114.195,-164.5 114.195,-157.5"/>
</g>
<!-- Node11 -->
<g id="node11" class="node"><title>Node11</title>
<g id="a_node11"><a xlink:href="classAC__WPNav.html#a3bd3abac616805d338d31255d76e978e" target="_top" xlink:title="init_loiter_target in cm from home ">
<polygon fill="white" stroke="black" points="161.5,-102 161.5,-132 277.5,-132 277.5,-102 161.5,-102"/>
<text text-anchor="start" x="169.5" y="-120" font-family="Helvetica,sans-Serif" font-size="10.00">AC_WPNav::init_loiter</text>
<text text-anchor="middle" x="219.5" y="-109" font-family="Helvetica,sans-Serif" font-size="10.00">_target</text>
</a>
</g>
</g>
<!-- Node1&#45;&gt;Node11 -->
<g id="edge11" class="edge"><title>Node1&#45;&gt;Node11</title>
<path fill="none" stroke="midnightblue" d="M114.099,-144.756C129.739,-140.598 146.49,-136.145 161.894,-132.049"/>
<polygon fill="midnightblue" stroke="midnightblue" points="112.771,-141.488 104.006,-147.44 114.569,-148.253 112.771,-141.488"/>
</g>
<!-- Node12 -->
<g id="node12" class="node"><title>Node12</title>
<g id="a_node12"><a xlink:href="classAC__WPNav.html#a0ff7209545f3c7169054b2ee79cd4216" target="_top" xlink:title="set_speed_xy &#45; allows main code to pass target horizontal velocity for wp navigation ...">
<polygon fill="white" stroke="black" points="335,-85.5 335,-104.5 472,-104.5 472,-85.5 335,-85.5"/>
<text text-anchor="middle" x="403.5" y="-92.5" font-family="Helvetica,sans-Serif" font-size="10.00">AC_WPNav::set_speed_xy</text>
</a>
</g>
</g>
<!-- Node1&#45;&gt;Node12 -->
<g id="edge12" class="edge"><title>Node1&#45;&gt;Node12</title>
<path fill="none" stroke="midnightblue" d="M73.2069,-138.307C89.4086,-121.932 113.717,-101.157 140,-92 212.95,-66.5832 304.375,-76.139 357.83,-85.4984"/>
<polygon fill="midnightblue" stroke="midnightblue" points="70.3086,-136.274 65.9315,-145.923 75.37,-141.11 70.3086,-136.274"/>
</g>
<!-- Node13 -->
<g id="node13" class="node"><title>Node13</title>
<g id="a_node13"><a xlink:href="classAC__WPNav.html#a47964df8ebcc78bb101f328a23187e65" target="_top" xlink:title="AC_WPNav::wp_and_spline_init">
<polygon fill="white" stroke="black" points="140,-277.5 140,-296.5 299,-296.5 299,-277.5 140,-277.5"/>
<text text-anchor="middle" x="219.5" y="-284.5" font-family="Helvetica,sans-Serif" font-size="10.00">AC_WPNav::wp_and_spline_init</text>
</a>
</g>
</g>
<!-- Node1&#45;&gt;Node13 -->
<g id="edge15" class="edge"><title>Node1&#45;&gt;Node13</title>
<path fill="none" stroke="midnightblue" d="M65.9927,-184.789C80.6978,-209.42 106.962,-247.158 140,-268 146.167,-271.89 153.067,-274.984 160.149,-277.445"/>
<polygon fill="midnightblue" stroke="midnightblue" points="68.9736,-182.952 60.9328,-176.053 62.9163,-186.46 68.9736,-182.952"/>
</g>
<!-- Node2&#45;&gt;Node3 -->
<g id="edge2" class="edge"><title>Node2&#45;&gt;Node3</title>
<path fill="none" stroke="midnightblue" d="M289.916,-228.507C312.359,-223.821 336.661,-218.747 356.922,-214.516"/>
<polygon fill="midnightblue" stroke="midnightblue" points="289.167,-225.087 280.094,-230.557 290.598,-231.94 289.167,-225.087"/>
</g>
<!-- Node4 -->
<g id="node4" class="node"><title>Node4</title>
<g id="a_node4"><a xlink:href="classAC__WPNav.html#ae34a88192799de8f2b96c8cd295bb971" target="_top" xlink:title="get_loiter_target &#45; returns loiter target position ">
<polygon fill="white" stroke="black" points="508,-168 508,-198 624,-198 624,-168 508,-168"/>
<text text-anchor="start" x="516" y="-186" font-family="Helvetica,sans-Serif" font-size="10.00">AC_WPNav::get_loiter</text>
<text text-anchor="middle" x="566" y="-175" font-family="Helvetica,sans-Serif" font-size="10.00">_target</text>
</a>
</g>
</g>
<!-- Node3&#45;&gt;Node4 -->
<g id="edge3" class="edge"><title>Node3&#45;&gt;Node4</title>
<path fill="none" stroke="midnightblue" d="M479.893,-194.666C489.266,-193.381 498.728,-192.084 507.764,-190.845"/>
<polygon fill="midnightblue" stroke="midnightblue" points="479.214,-191.226 469.781,-196.052 480.164,-198.161 479.214,-191.226"/>
</g>
<!-- Node6 -->
<g id="node6" class="node"><title>Node6</title>
<g id="a_node6"><a xlink:href="classAC__Circle.html#a158b85e4c80f553ccce4250565a3b23f" target="_top" xlink:title="AC_Circle::calc_velocities">
<polygon fill="white" stroke="black" points="337.5,-19.5 337.5,-38.5 469.5,-38.5 469.5,-19.5 337.5,-19.5"/>
<text text-anchor="middle" x="403.5" y="-26.5" font-family="Helvetica,sans-Serif" font-size="10.00">AC_Circle::calc_velocities</text>
</a>
</g>
</g>
<!-- Node5&#45;&gt;Node6 -->
<g id="edge5" class="edge"><title>Node5&#45;&gt;Node6</title>
<path fill="none" stroke="midnightblue" d="M281.715,-29C299.622,-29 319.259,-29 337.398,-29"/>
<polygon fill="midnightblue" stroke="midnightblue" points="281.682,-25.5001 271.681,-29 281.681,-32.5001 281.682,-25.5001"/>
</g>
<!-- Node7 -->
<g id="node7" class="node"><title>Node7</title>
<g id="a_node7"><a xlink:href="classAC__Circle.html#aeecf8efd6d546820ee831e749935df8b" target="_top" xlink:title="AC_Circle::init">
<polygon fill="white" stroke="black" points="526,-38.5 526,-57.5 606,-57.5 606,-38.5 526,-38.5"/>
<text text-anchor="middle" x="566" y="-45.5" font-family="Helvetica,sans-Serif" font-size="10.00">AC_Circle::init</text>
</a>
</g>
</g>
<!-- Node6&#45;&gt;Node7 -->
<g id="edge6" class="edge"><title>Node6&#45;&gt;Node7</title>
<path fill="none" stroke="midnightblue" d="M480.066,-37.9455C495.809,-39.8091 511.793,-41.7013 525.583,-43.3338"/>
<polygon fill="midnightblue" stroke="midnightblue" points="480.124,-34.428 469.781,-36.728 479.301,-41.3794 480.124,-34.428"/>
</g>
<!-- Node8 -->
<g id="node8" class="node"><title>Node8</title>
<g id="a_node8"><a xlink:href="classAC__Circle.html#a7a8197f509233c0c0cf7a7a4de3999df" target="_top" xlink:title="set_circle_rate &#45; set circle rate in degrees per second ">
<polygon fill="white" stroke="black" points="514.5,-0.5 514.5,-19.5 617.5,-19.5 617.5,-0.5 514.5,-0.5"/>
<text text-anchor="middle" x="566" y="-7.5" font-family="Helvetica,sans-Serif" font-size="10.00">AC_Circle::set_rate</text>
</a>
</g>
</g>
<!-- Node6&#45;&gt;Node8 -->
<g id="edge7" class="edge"><title>Node6&#45;&gt;Node8</title>
<path fill="none" stroke="midnightblue" d="M479.893,-20.075C491.466,-18.7049 503.175,-17.3188 514.051,-16.0313"/>
<polygon fill="midnightblue" stroke="midnightblue" points="479.301,-16.6206 469.781,-21.272 480.124,-23.572 479.301,-16.6206"/>
</g>
<!-- Node9 -->
<g id="node9" class="node"><title>Node9</title>
<g id="a_node9"><a xlink:href="classAC__Circle.html#ae2932cb21db1c6ba406db0d835e157e3" target="_top" xlink:title="set_radius &#45; sets circle radius in cm ">
<polygon fill="white" stroke="black" points="660,-0.5 660,-19.5 773,-19.5 773,-0.5 660,-0.5"/>
<text text-anchor="middle" x="716.5" y="-7.5" font-family="Helvetica,sans-Serif" font-size="10.00">AC_Circle::set_radius</text>
</a>
</g>
</g>
<!-- Node8&#45;&gt;Node9 -->
<g id="edge8" class="edge"><title>Node8&#45;&gt;Node9</title>
<path fill="none" stroke="midnightblue" d="M627.757,-10C638.411,-10 649.448,-10 659.952,-10"/>
<polygon fill="midnightblue" stroke="midnightblue" points="627.69,-6.5001 617.69,-10 627.69,-13.5001 627.69,-6.5001"/>
</g>
<!-- Node10&#45;&gt;Node4 -->
<g id="edge10" class="edge"><title>Node10&#45;&gt;Node4</title>
<path fill="none" stroke="midnightblue" d="M473.334,-170.435C484.813,-172.009 496.611,-173.626 507.76,-175.154"/>
<polygon fill="midnightblue" stroke="midnightblue" points="473.736,-166.958 463.353,-169.067 472.785,-173.893 473.736,-166.958"/>
</g>
<!-- Node12&#45;&gt;Node4 -->
<g id="edge13" class="edge"><title>Node12&#45;&gt;Node4</title>
<path fill="none" stroke="midnightblue" d="M430.841,-109.443C460.204,-125.542 507.48,-151.462 537.359,-167.845"/>
<polygon fill="midnightblue" stroke="midnightblue" points="432.433,-106.324 421.982,-104.585 429.068,-112.462 432.433,-106.324"/>
</g>
<!-- Node13&#45;&gt;Node4 -->
<g id="edge16" class="edge"><title>Node13&#45;&gt;Node4</title>
<path fill="none" stroke="midnightblue" d="M270.236,-275.054C279.787,-272.734 289.708,-270.306 299,-268 376.001,-248.89 396.999,-249.869 472,-224 493.185,-216.693 516.238,-206.545 534.093,-198.174"/>
<polygon fill="midnightblue" stroke="midnightblue" points="269.351,-271.667 260.457,-277.424 271,-278.47 269.351,-271.667"/>
</g>
</g>
</svg>
