<?xml version="1.0" encoding="UTF-8" standalone="no"?>
<!DOCTYPE svg PUBLIC "-//W3C//DTD SVG 1.1//EN"
 "http://www.w3.org/Graphics/SVG/1.1/DTD/svg11.dtd">
<!-- Generated by graphviz version 2.38.0 (20140413.2041)
 -->
<!-- Title: AP_Compass_LSM9DS1 Pages: 1 -->
<svg width="1032pt" height="344pt"
 viewBox="0.00 0.00 1032.00 344.00" xmlns="http://www.w3.org/2000/svg" xmlns:xlink="http://www.w3.org/1999/xlink">
<g id="graph0" class="graph" transform="scale(1 1) rotate(0) translate(4 340)">
<title>AP_Compass_LSM9DS1</title>
<polygon fill="white" stroke="none" points="-4,4 -4,-340 1028,-340 1028,4 -4,4"/>
<!-- Node1 -->
<g id="node1" class="node"><title>Node1</title>
<polygon fill="#bfbfbf" stroke="black" points="896,-39.5 896,-58.5 1024,-58.5 1024,-39.5 896,-39.5"/>
<text text-anchor="middle" x="960" y="-46.5" font-family="Helvetica,sans-Serif" font-size="10.00">AP_Compass_LSM9DS1</text>
</g>
<!-- Node2 -->
<g id="node2" class="node"><title>Node2</title>
<g id="a_node2"><a xlink:href="classAP__Compass__Backend.html" target="_top" xlink:title="AP_Compass_Backend">
<polygon fill="white" stroke="black" points="688,-79.5 688,-98.5 809,-98.5 809,-79.5 688,-79.5"/>
<text text-anchor="middle" x="748.5" y="-86.5" font-family="Helvetica,sans-Serif" font-size="10.00">AP_Compass_Backend</text>
</a>
</g>
</g>
<!-- Node2&#45;&gt;Node1 -->
<g id="edge1" class="edge"><title>Node2&#45;&gt;Node1</title>
<path fill="none" stroke="midnightblue" d="M809.403,-77.5627C840.949,-71.5395 879.186,-64.2389 909.105,-58.5264"/>
<polygon fill="midnightblue" stroke="midnightblue" points="808.58,-74.1564 799.414,-79.4698 809.893,-81.0322 808.58,-74.1564"/>
</g>
<!-- Node4 -->
<g id="node4" class="node"><title>Node4</title>
<g id="a_node4"><a xlink:href="classCompass.html" target="_top" xlink:title="Compass">
<polygon fill="white" stroke="black" points="930.5,-164.5 930.5,-183.5 989.5,-183.5 989.5,-164.5 930.5,-164.5"/>
<text text-anchor="middle" x="960" y="-171.5" font-family="Helvetica,sans-Serif" font-size="10.00">Compass</text>
</a>
</g>
</g>
<!-- Node2&#45;&gt;Node4 -->
<g id="edge11" class="edge"><title>Node2&#45;&gt;Node4</title>
<path fill="none" stroke="#9a32cd" stroke-dasharray="5,2" d="M793.794,-101.419C818.888,-108.963 850.637,-119.367 878,-131 901.297,-140.904 926.901,-155.093 942.959,-164.424"/>
<polygon fill="#9a32cd" stroke="#9a32cd" points="794.761,-98.0554 784.179,-98.5702 792.773,-104.767 794.761,-98.0554"/>
<text text-anchor="middle" x="852.5" y="-134" font-family="Helvetica,sans-Serif" font-size="10.00"> _backends</text>
</g>
<!-- Node3 -->
<g id="node3" class="node"><title>Node3</title>
<g id="a_node3"><a xlink:href="classAP__HAL_1_1Semaphore.html" target="_top" xlink:title="AP_HAL::Semaphore">
<polygon fill="white" stroke="black" points="472,-58.5 472,-77.5 582,-77.5 582,-58.5 472,-58.5"/>
<text text-anchor="middle" x="527" y="-65.5" font-family="Helvetica,sans-Serif" font-size="10.00">AP_HAL::Semaphore</text>
</a>
</g>
</g>
<!-- Node3&#45;&gt;Node2 -->
<g id="edge2" class="edge"><title>Node3&#45;&gt;Node2</title>
<path fill="none" stroke="#9a32cd" stroke-dasharray="5,2" d="M592.212,-72.2766C616.595,-74.0837 644.605,-76.3797 670,-79 675.803,-79.5987 681.843,-80.2785 687.876,-80.9951"/>
<polygon fill="#9a32cd" stroke="#9a32cd" points="592.23,-68.7687 582.002,-71.5326 591.721,-75.7502 592.23,-68.7687"/>
<text text-anchor="middle" x="635" y="-82" font-family="Helvetica,sans-Serif" font-size="10.00"> _sem</text>
</g>
<!-- Node4&#45;&gt;Node2 -->
<g id="edge3" class="edge"><title>Node4&#45;&gt;Node2</title>
<path fill="none" stroke="#9a32cd" stroke-dasharray="5,2" d="M946.473,-156.289C932.25,-137.789 907.194,-109.728 878,-97 856.691,-87.7097 831.488,-84.6474 809.072,-84.2862"/>
<polygon fill="#9a32cd" stroke="#9a32cd" points="943.789,-158.544 952.556,-164.493 949.412,-154.375 943.789,-158.544"/>
<text text-anchor="middle" x="852.5" y="-100" font-family="Helvetica,sans-Serif" font-size="10.00"> _compass</text>
</g>
<!-- Node5 -->
<g id="node5" class="node"><title>Node5</title>
<g id="a_node5"><a xlink:href="structAP__Param_1_1GroupInfo.html" target="_top" xlink:title="AP_Param::GroupInfo">
<polygon fill="white" stroke="black" points="692,-276.5 692,-295.5 805,-295.5 805,-276.5 692,-276.5"/>
<text text-anchor="middle" x="748.5" y="-283.5" font-family="Helvetica,sans-Serif" font-size="10.00">AP_Param::GroupInfo</text>
</a>
</g>
</g>
<!-- Node5&#45;&gt;Node4 -->
<g id="edge4" class="edge"><title>Node5&#45;&gt;Node4</title>
<path fill="none" stroke="#9a32cd" stroke-dasharray="5,2" d="M815.387,-281.248C836.373,-277.671 859.044,-271.52 878,-261 912.826,-241.674 941.18,-202.039 953.025,-183.702"/>
<polygon fill="#9a32cd" stroke="#9a32cd" points="814.597,-277.829 805.244,-282.806 815.66,-284.747 814.597,-277.829"/>
<text text-anchor="middle" x="852.5" y="-281" font-family="Helvetica,sans-Serif" font-size="10.00"> var_info</text>
</g>
<!-- Node5&#45;&gt;Node5 -->
<g id="edge5" class="edge"><title>Node5&#45;&gt;Node5</title>
<path fill="none" stroke="#9a32cd" stroke-dasharray="5,2" d="M729.242,-305.4C730.528,-310.315 736.947,-314 748.5,-314 766.984,-314 772.328,-304.565 764.529,-295.757"/>
<polygon fill="#9a32cd" stroke="#9a32cd" points="732.614,-306.351 732.471,-295.757 725.976,-304.128 732.614,-306.351"/>
<text text-anchor="middle" x="748.5" y="-328" font-family="Helvetica,sans-Serif" font-size="10.00"> group_info_ptr</text>
<text text-anchor="middle" x="748.5" y="-317" font-family="Helvetica,sans-Serif" font-size="10.00">group_info</text>
</g>
<!-- Node6 -->
<g id="node6" class="node"><title>Node6</title>
<g id="a_node6"><a xlink:href="classVector3.html" target="_top" xlink:title="Vector3\&lt; float \&gt;">
<polygon fill="white" stroke="black" points="266,-190.5 266,-209.5 353,-209.5 353,-190.5 266,-190.5"/>
<text text-anchor="middle" x="309.5" y="-197.5" font-family="Helvetica,sans-Serif" font-size="10.00">Vector3&lt; float &gt;</text>
</a>
</g>
</g>
<!-- Node6&#45;&gt;Node4 -->
<g id="edge6" class="edge"><title>Node6&#45;&gt;Node4</title>
<path fill="none" stroke="#9a32cd" stroke-dasharray="5,2" d="M338.051,-214.052C354.423,-221.606 375.862,-230.143 396,-234 421.318,-238.849 428.232,-234.725 454,-234 611.965,-229.554 652.002,-232.013 809,-214 839.924,-210.452 847.86,-209.776 878,-202 897.306,-197.019 918.594,-189.581 934.499,-183.623"/>
<polygon fill="#9a32cd" stroke="#9a32cd" points="339.101,-210.675 328.569,-209.526 336.086,-216.992 339.101,-210.675"/>
<text text-anchor="middle" x="635" y="-244" font-family="Helvetica,sans-Serif" font-size="10.00"> field</text>
<text text-anchor="middle" x="635" y="-233" font-family="Helvetica,sans-Serif" font-size="10.00">Bearth</text>
</g>
<!-- Node8 -->
<g id="node8" class="node"><title>Node8</title>
<g id="a_node8"><a xlink:href="classCompassCalibrator_1_1param__t.html" target="_top" xlink:title="CompassCalibrator::\lparam_t">
<polygon fill="white" stroke="black" points="473.5,-185 473.5,-215 580.5,-215 580.5,-185 473.5,-185"/>
<text text-anchor="start" x="481.5" y="-203" font-family="Helvetica,sans-Serif" font-size="10.00">CompassCalibrator::</text>
<text text-anchor="middle" x="527" y="-192" font-family="Helvetica,sans-Serif" font-size="10.00">param_t</text>
</a>
</g>
</g>
<!-- Node6&#45;&gt;Node8 -->
<g id="edge9" class="edge"><title>Node6&#45;&gt;Node8</title>
<path fill="none" stroke="#9a32cd" stroke-dasharray="5,2" d="M363.124,-200C396.576,-200 439.729,-200 473.212,-200"/>
<polygon fill="#9a32cd" stroke="#9a32cd" points="363.076,-196.5 353.076,-200 363.076,-203.5 363.076,-196.5"/>
<text text-anchor="middle" x="425" y="-225" font-family="Helvetica,sans-Serif" font-size="10.00"> offdiag</text>
<text text-anchor="middle" x="425" y="-214" font-family="Helvetica,sans-Serif" font-size="10.00">offset</text>
<text text-anchor="middle" x="425" y="-203" font-family="Helvetica,sans-Serif" font-size="10.00">diag</text>
</g>
<!-- Node10 -->
<g id="node10" class="node"><title>Node10</title>
<g id="a_node10"><a xlink:href="structCompass_1_1mag__state.html" target="_top" xlink:title="Compass::mag_state">
<polygon fill="white" stroke="black" points="472,-146.5 472,-165.5 582,-165.5 582,-146.5 472,-146.5"/>
<text text-anchor="middle" x="527" y="-153.5" font-family="Helvetica,sans-Serif" font-size="10.00">Compass::mag_state</text>
</a>
</g>
</g>
<!-- Node6&#45;&gt;Node10 -->
<g id="edge13" class="edge"><title>Node6&#45;&gt;Node10</title>
<path fill="none" stroke="#9a32cd" stroke-dasharray="5,2" d="M347.778,-187.268C362.642,-182.56 379.995,-177.519 396,-174 420.701,-168.57 448.422,-164.464 471.901,-161.556"/>
<polygon fill="#9a32cd" stroke="#9a32cd" points="346.37,-184.045 337.932,-190.452 348.524,-190.705 346.37,-184.045"/>
<text text-anchor="middle" x="425" y="-188" font-family="Helvetica,sans-Serif" font-size="10.00"> motor_offset</text>
<text text-anchor="middle" x="425" y="-177" font-family="Helvetica,sans-Serif" font-size="10.00">field</text>
</g>
<!-- Node7 -->
<g id="node7" class="node"><title>Node7</title>
<g id="a_node7"><a xlink:href="classCompassCalibrator.html" target="_top" xlink:title="CompassCalibrator">
<polygon fill="white" stroke="black" points="698,-185.5 698,-204.5 799,-204.5 799,-185.5 698,-185.5"/>
<text text-anchor="middle" x="748.5" y="-192.5" font-family="Helvetica,sans-Serif" font-size="10.00">CompassCalibrator</text>
</a>
</g>
</g>
<!-- Node7&#45;&gt;Node4 -->
<g id="edge7" class="edge"><title>Node7&#45;&gt;Node4</title>
<path fill="none" stroke="#9a32cd" stroke-dasharray="5,2" d="M809.255,-189.01C848.959,-185.03 899.311,-179.983 930.333,-176.874"/>
<polygon fill="#9a32cd" stroke="#9a32cd" points="808.75,-185.543 799.149,-190.023 809.448,-192.508 808.75,-185.543"/>
<text text-anchor="middle" x="852.5" y="-190" font-family="Helvetica,sans-Serif" font-size="10.00"> _calibrator</text>
</g>
<!-- Node8&#45;&gt;Node7 -->
<g id="edge8" class="edge"><title>Node8&#45;&gt;Node7</title>
<path fill="none" stroke="#9a32cd" stroke-dasharray="5,2" d="M590.875,-198.568C624.886,-197.793 666.293,-196.85 697.989,-196.128"/>
<polygon fill="#9a32cd" stroke="#9a32cd" points="590.493,-195.075 580.576,-198.802 590.653,-202.074 590.493,-195.075"/>
<text text-anchor="middle" x="635" y="-202" font-family="Helvetica,sans-Serif" font-size="10.00"> _params</text>
</g>
<!-- Node9 -->
<g id="node9" class="node"><title>Node9</title>
<g id="a_node9"><a xlink:href="classCompassCalibrator_1_1CompassSample.html" target="_top" xlink:title="CompassCalibrator::\lCompassSample">
<polygon fill="white" stroke="black" points="473.5,-97 473.5,-127 580.5,-127 580.5,-97 473.5,-97"/>
<text text-anchor="start" x="481.5" y="-115" font-family="Helvetica,sans-Serif" font-size="10.00">CompassCalibrator::</text>
<text text-anchor="middle" x="527" y="-104" font-family="Helvetica,sans-Serif" font-size="10.00">CompassSample</text>
</a>
</g>
</g>
<!-- Node9&#45;&gt;Node7 -->
<g id="edge10" class="edge"><title>Node9&#45;&gt;Node7</title>
<path fill="none" stroke="#9a32cd" stroke-dasharray="5,2" d="M577.303,-130.643C622.228,-147.631 686.794,-172.045 722.085,-185.39"/>
<polygon fill="#9a32cd" stroke="#9a32cd" points="578.341,-127.294 567.75,-127.031 575.865,-133.841 578.341,-127.294"/>
<text text-anchor="middle" x="635" y="-167" font-family="Helvetica,sans-Serif" font-size="10.00"> _sample_buffer</text>
</g>
<!-- Node10&#45;&gt;Node4 -->
<g id="edge12" class="edge"><title>Node10&#45;&gt;Node4</title>
<path fill="none" stroke="#9a32cd" stroke-dasharray="5,2" d="M592.447,-157.553C649.415,-159.048 734.755,-161.584 809,-165 851.219,-166.942 900.072,-170.03 930.257,-172.036"/>
<polygon fill="#9a32cd" stroke="#9a32cd" points="592.237,-154.047 582.149,-157.286 592.055,-161.044 592.237,-154.047"/>
<text text-anchor="middle" x="748.5" y="-168" font-family="Helvetica,sans-Serif" font-size="10.00"> _state</text>
</g>
<!-- Node11 -->
<g id="node11" class="node"><title>Node11</title>
<g id="a_node11"><a xlink:href="classVector3.html" target="_top" xlink:title="Vector3\&lt; int16_t \&gt;">
<polygon fill="white" stroke="black" points="260.5,-111.5 260.5,-130.5 358.5,-130.5 358.5,-111.5 260.5,-111.5"/>
<text text-anchor="middle" x="309.5" y="-118.5" font-family="Helvetica,sans-Serif" font-size="10.00">Vector3&lt; int16_t &gt;</text>
</a>
</g>
</g>
<!-- Node11&#45;&gt;Node10 -->
<g id="edge14" class="edge"><title>Node11&#45;&gt;Node10</title>
<path fill="none" stroke="#9a32cd" stroke-dasharray="5,2" d="M368.981,-113C395.598,-111.466 427.092,-112.663 454,-122 463.575,-125.323 463.144,-131.071 472,-136 479.25,-140.035 487.476,-143.556 495.282,-146.472"/>
<polygon fill="#9a32cd" stroke="#9a32cd" points="368.384,-109.534 358.661,-113.743 368.887,-116.516 368.384,-109.534"/>
<text text-anchor="middle" x="425" y="-125" font-family="Helvetica,sans-Serif" font-size="10.00"> mag_history</text>
</g>
<!-- Node12 -->
<g id="node12" class="node"><title>Node12</title>
<g id="a_node12"><a xlink:href="classAP__HAL_1_1OwnPtr.html" target="_top" xlink:title="AP_HAL::OwnPtr\&lt; AP\l_HAL::Device \&gt;">
<polygon fill="white" stroke="black" points="690.5,-18 690.5,-48 806.5,-48 806.5,-18 690.5,-18"/>
<text text-anchor="start" x="698.5" y="-36" font-family="Helvetica,sans-Serif" font-size="10.00">AP_HAL::OwnPtr&lt; AP</text>
<text text-anchor="middle" x="748.5" y="-25" font-family="Helvetica,sans-Serif" font-size="10.00">_HAL::Device &gt;</text>
</a>
</g>
</g>
<!-- Node12&#45;&gt;Node1 -->
<g id="edge15" class="edge"><title>Node12&#45;&gt;Node1</title>
<path fill="none" stroke="#9a32cd" stroke-dasharray="5,2" d="M816.671,-33.6211C836.454,-34.2009 858.122,-35.2242 878,-37 885.221,-37.6451 892.78,-38.5095 900.256,-39.4801"/>
<polygon fill="#9a32cd" stroke="#9a32cd" points="816.605,-30.1183 806.517,-33.3567 816.422,-37.1159 816.605,-30.1183"/>
<text text-anchor="middle" x="852.5" y="-40" font-family="Helvetica,sans-Serif" font-size="10.00"> _dev</text>
</g>
<!-- Node13 -->
<g id="node13" class="node"><title>Node13</title>
<g id="a_node13"><a xlink:href="classAP__HAL_1_1Device.html" target="_top" xlink:title="AP_HAL::Device">
<polygon fill="white" stroke="black" points="481,-20.5 481,-39.5 573,-39.5 573,-20.5 481,-20.5"/>
<text text-anchor="middle" x="527" y="-27.5" font-family="Helvetica,sans-Serif" font-size="10.00">AP_HAL::Device</text>
</a>
</g>
</g>
<!-- Node13&#45;&gt;Node12 -->
<g id="edge16" class="edge"><title>Node13&#45;&gt;Node12</title>
<path fill="none" stroke="#9a32cd" stroke-dasharray="5,2" d="M583.485,-30.7583C616.107,-31.2042 657.277,-31.7669 690.209,-32.217"/>
<polygon fill="#9a32cd" stroke="#9a32cd" points="583.261,-27.255 573.214,-30.618 583.166,-34.2544 583.261,-27.255"/>
<text text-anchor="middle" x="635" y="-35" font-family="Helvetica,sans-Serif" font-size="10.00"> _ptr</text>
</g>
<!-- Node14 -->
<g id="node14" class="node"><title>Node14</title>
<g id="a_node14"><a xlink:href="structAP__HAL_1_1Device_1_1checkreg.html" target="_top" xlink:title="AP_HAL::Device::checkreg">
<polygon fill="white" stroke="black" points="241,-38.5 241,-57.5 378,-57.5 378,-38.5 241,-38.5"/>
<text text-anchor="middle" x="309.5" y="-45.5" font-family="Helvetica,sans-Serif" font-size="10.00">AP_HAL::Device::checkreg</text>
</a>
</g>
</g>
<!-- Node14&#45;&gt;Node13 -->
<g id="edge17" class="edge"><title>Node14&#45;&gt;Node13</title>
<path fill="none" stroke="#9a32cd" stroke-dasharray="5,2" d="M388.456,-41.4886C419.464,-38.8986 454.044,-36.0103 480.774,-33.7776"/>
<polygon fill="#9a32cd" stroke="#9a32cd" points="387.768,-38.0338 378.094,-42.3541 388.351,-45.0095 387.768,-38.0338"/>
<text text-anchor="middle" x="425" y="-44" font-family="Helvetica,sans-Serif" font-size="10.00"> regs</text>
</g>
<!-- Node15 -->
<g id="node15" class="node"><title>Node15</title>
<g id="a_node15"><a xlink:href="unionAP__HAL_1_1Device_1_1DeviceId.html" target="_top" xlink:title="AP_HAL::Device::DeviceId">
<polygon fill="white" stroke="black" points="241,-0.5 241,-19.5 378,-19.5 378,-0.5 241,-0.5"/>
<text text-anchor="middle" x="309.5" y="-7.5" font-family="Helvetica,sans-Serif" font-size="10.00">AP_HAL::Device::DeviceId</text>
</a>
</g>
</g>
<!-- Node15&#45;&gt;Node13 -->
<g id="edge18" class="edge"><title>Node15&#45;&gt;Node13</title>
<path fill="none" stroke="#9a32cd" stroke-dasharray="5,2" d="M388.065,-16.0977C409.441,-17.8839 432.627,-19.9193 454,-22 462.637,-22.8408 471.849,-23.8096 480.698,-24.7762"/>
<polygon fill="#9a32cd" stroke="#9a32cd" points="388.314,-12.6065 378.059,-15.2686 387.736,-19.5825 388.314,-12.6065"/>
<text text-anchor="middle" x="425" y="-25" font-family="Helvetica,sans-Serif" font-size="10.00"> _bus_id</text>
</g>
<!-- Node16 -->
<g id="node16" class="node"><title>Node16</title>
<g id="a_node16"><a xlink:href="structAP__HAL_1_1Device_1_1DeviceStructure.html" target="_top" xlink:title="AP_HAL::Device::DeviceStructure">
<polygon fill="white" stroke="black" points="0,-0.5 0,-19.5 168,-19.5 168,-0.5 0,-0.5"/>
<text text-anchor="middle" x="84" y="-7.5" font-family="Helvetica,sans-Serif" font-size="10.00">AP_HAL::Device::DeviceStructure</text>
</a>
</g>
</g>
<!-- Node16&#45;&gt;Node15 -->
<g id="edge19" class="edge"><title>Node16&#45;&gt;Node15</title>
<path fill="none" stroke="#9a32cd" stroke-dasharray="5,2" d="M178.426,-10C199.382,-10 221.222,-10 240.888,-10"/>
<polygon fill="#9a32cd" stroke="#9a32cd" points="178.223,-6.5001 168.223,-10 178.223,-13.5001 178.223,-6.5001"/>
<text text-anchor="middle" x="204.5" y="-13" font-family="Helvetica,sans-Serif" font-size="10.00"> devid_s</text>
</g>
</g>
</svg>
