<?xml version="1.0" encoding="UTF-8" standalone="no"?>
<!DOCTYPE svg PUBLIC "-//W3C//DTD SVG 1.1//EN"
 "http://www.w3.org/Graphics/SVG/1.1/DTD/svg11.dtd">
<!-- Generated by graphviz version 2.38.0 (20140413.2041)
 -->
<!-- Title: DataFlash_MAVLink::DataFlash_MAVLink Pages: 1 -->
<!--zoomable 443 -->
<svg id="main" version="1.1" xmlns="http://www.w3.org/2000/svg" xmlns:xlink="http://www.w3.org/1999/xlink" xml:space="preserve" onload="init(evt)">
<style type="text/css"><![CDATA[
.edge:hover path { stroke: red; }
.edge:hover polygon { stroke: red; fill: red; }
]]></style>
<script type="text/javascript"><![CDATA[
var edges = document.getElementsByTagName('g');
if (edges && edges.length) {
  for (var i=0;i<edges.length;i++) {
    if (edges[i].id.substr(0,4)=='edge') {
      edges[i].setAttribute('class','edge');
    }
  }
}
]]></script>
        <defs>
                <circle id="rim" cx="0" cy="0" r="7"/>
                <circle id="rim2" cx="0" cy="0" r="3.5"/>
                <g id="zoomPlus">
                        <use xlink:href="#rim" fill="#404040">
                                <set attributeName="fill" to="#808080" begin="zoomplus.mouseover" end="zoomplus.mouseout"/>
                        </use>
                        <path d="M-4,0h8M0,-4v8" fill="none" stroke="white" stroke-width="1.5" pointer-events="none"/>
                </g>
                <g id="zoomMin">
                        <use xlink:href="#rim" fill="#404040">
                                <set attributeName="fill" to="#808080" begin="zoomminus.mouseover" end="zoomminus.mouseout"/>
                        </use>
                        <path d="M-4,0h8" fill="none" stroke="white" stroke-width="1.5" pointer-events="none"/>
                </g>
                <g id="dirArrow">
                        <path fill="none" stroke="white" stroke-width="1.5" d="M0,-3.0v7 M-2.5,-0.5L0,-3.0L2.5,-0.5"/>
                </g>
               <g id="resetDef">
                       <use xlink:href="#rim2" fill="#404040">
                               <set attributeName="fill" to="#808080" begin="reset.mouseover" end="reset.mouseout"/>
                       </use>
               </g>
        </defs>

<script type="text/javascript">
var viewWidth = 839;
var viewHeight = 443;
var sectionId = 'dynsection-2';
</script>
<script xlink:href="svgpan.js"/>
<svg id="graph" class="graph">
<g id="viewport">
<title>DataFlash_MAVLink::DataFlash_MAVLink</title>
<polygon fill="white" stroke="none" points="-4,4 -4,-439 835,-439 835,4 -4,4"/>
<!-- Node1 -->
<g id="node1" class="node"><title>Node1</title>
<polygon fill="#bfbfbf" stroke="black" points="0,-113.5 0,-143.5 113,-143.5 113,-113.5 0,-113.5"/>
<text text-anchor="start" x="8" y="-131.5" font-family="Helvetica,sans-Serif" font-size="10.00">DataFlash_MAVLink::</text>
<text text-anchor="middle" x="56.5" y="-120.5" font-family="Helvetica,sans-Serif" font-size="10.00">DataFlash_MAVLink</text>
</g>
<!-- Node2 -->
<g id="node2" class="node"><title>Node2</title>
<g id="a_node2"><a xlink:href="classDataFlash__MAVLink.html#af592d8475ad88af8fb4246a4fdfcdb60" target="_top" xlink:title="DataFlash_MAVLink::Init">
<polygon fill="white" stroke="black" points="149,-119 149,-138 275,-138 275,-119 149,-119"/>
<text text-anchor="middle" x="212" y="-126" font-family="Helvetica,sans-Serif" font-size="10.00">DataFlash_MAVLink::Init</text>
</a>
</g>
</g>
<!-- Node1&#45;&gt;Node2 -->
<g id="edge1" class="edge"><title>Node1&#45;&gt;Node2</title>
<path fill="none" stroke="midnightblue" d="M113.351,-128.5C121.669,-128.5 130.341,-128.5 138.935,-128.5"/>
<polygon fill="midnightblue" stroke="midnightblue" points="138.961,-132 148.961,-128.5 138.961,-125 138.961,-132"/>
</g>
<!-- Node3 -->
<g id="node3" class="node"><title>Node3</title>
<g id="a_node3"><a xlink:href="classAP__HAL_1_1Util.html#a88fe04780cd5c596b3c319ca4df810bc" target="_top" xlink:title="AP_HAL::Util::new_semaphore">
<polygon fill="white" stroke="black" points="311,-225 311,-244 464,-244 464,-225 311,-225"/>
<text text-anchor="middle" x="387.5" y="-232" font-family="Helvetica,sans-Serif" font-size="10.00">AP_HAL::Util::new_semaphore</text>
</a>
</g>
</g>
<!-- Node2&#45;&gt;Node3 -->
<g id="edge2" class="edge"><title>Node2&#45;&gt;Node3</title>
<path fill="none" stroke="midnightblue" d="M221.072,-138.266C236.566,-156.355 272.382,-195.086 311,-215.5 315.328,-217.788 319.943,-219.809 324.676,-221.592"/>
<polygon fill="midnightblue" stroke="midnightblue" points="323.911,-225.028 334.505,-224.929 326.161,-218.4 323.911,-225.028"/>
</g>
<!-- Node4 -->
<g id="node4" class="node"><title>Node4</title>
<g id="a_node4"><a xlink:href="namespaceAP__HAL.html#a71832f03d849a0c088f04fc98d3c8143" target="_top" xlink:title="AP_HAL::panic">
<polygon fill="white" stroke="black" points="345.5,-187 345.5,-206 429.5,-206 429.5,-187 345.5,-187"/>
<text text-anchor="middle" x="387.5" y="-194" font-family="Helvetica,sans-Serif" font-size="10.00">AP_HAL::panic</text>
</a>
</g>
</g>
<!-- Node2&#45;&gt;Node4 -->
<g id="edge3" class="edge"><title>Node2&#45;&gt;Node4</title>
<path fill="none" stroke="midnightblue" d="M237.49,-138.099C267.586,-149.894 318.812,-169.971 352.657,-183.236"/>
<polygon fill="midnightblue" stroke="midnightblue" points="351.547,-186.56 362.134,-186.95 354.101,-180.043 351.547,-186.56"/>
</g>
<!-- Node13 -->
<g id="node13" class="node"><title>Node13</title>
<g id="a_node13"><a xlink:href="classDataFlash__Backend.html#aff10c329f79c1bdaedbc6fdf4028c2a5" target="_top" xlink:title="DataFlash_Backend::Init">
<polygon fill="white" stroke="black" points="325,-119 325,-138 450,-138 450,-119 325,-119"/>
<text text-anchor="middle" x="387.5" y="-126" font-family="Helvetica,sans-Serif" font-size="10.00">DataFlash_Backend::Init</text>
</a>
</g>
</g>
<!-- Node2&#45;&gt;Node13 -->
<g id="edge12" class="edge"><title>Node2&#45;&gt;Node13</title>
<path fill="none" stroke="midnightblue" d="M275.147,-128.5C287.884,-128.5 301.391,-128.5 314.442,-128.5"/>
<polygon fill="midnightblue" stroke="midnightblue" points="314.787,-132 324.786,-128.5 314.786,-125 314.787,-132"/>
</g>
<!-- Node18 -->
<g id="node18" class="node"><title>Node18</title>
<g id="a_node18"><a xlink:href="classDataFlash__MAVLink.html#a0d141859ebceee09785312e1418734bd" target="_top" xlink:title="DataFlash_MAVLink::\lfree_all_blocks">
<polygon fill="white" stroke="black" points="331,-69.5 331,-99.5 444,-99.5 444,-69.5 331,-69.5"/>
<text text-anchor="start" x="339" y="-87.5" font-family="Helvetica,sans-Serif" font-size="10.00">DataFlash_MAVLink::</text>
<text text-anchor="middle" x="387.5" y="-76.5" font-family="Helvetica,sans-Serif" font-size="10.00">free_all_blocks</text>
</a>
</g>
</g>
<!-- Node2&#45;&gt;Node18 -->
<g id="edge17" class="edge"><title>Node2&#45;&gt;Node18</title>
<path fill="none" stroke="midnightblue" d="M250.647,-118.953C271.14,-113.756 297.085,-107.176 320.797,-101.163"/>
<polygon fill="midnightblue" stroke="midnightblue" points="321.967,-104.477 330.8,-98.6257 320.246,-97.6914 321.967,-104.477"/>
</g>
<!-- Node19 -->
<g id="node19" class="node"><title>Node19</title>
<g id="a_node19"><a xlink:href="classDataFlash__MAVLink.html#a16a4ec2ff971ae3ec61b3635a6cc2d96" target="_top" xlink:title="DataFlash_MAVLink::\lstats_init">
<polygon fill="white" stroke="black" points="331,-18.5 331,-48.5 444,-48.5 444,-18.5 331,-18.5"/>
<text text-anchor="start" x="339" y="-36.5" font-family="Helvetica,sans-Serif" font-size="10.00">DataFlash_MAVLink::</text>
<text text-anchor="middle" x="387.5" y="-25.5" font-family="Helvetica,sans-Serif" font-size="10.00">stats_init</text>
</a>
</g>
</g>
<!-- Node2&#45;&gt;Node19 -->
<g id="edge18" class="edge"><title>Node2&#45;&gt;Node19</title>
<path fill="none" stroke="midnightblue" d="M224.379,-118.858C241.973,-104.34 277.28,-76.7373 311,-59.5 315.938,-56.976 321.175,-54.606 326.499,-52.4035"/>
<polygon fill="midnightblue" stroke="midnightblue" points="328.099,-55.5354 336.128,-48.6227 325.541,-49.0197 328.099,-55.5354"/>
</g>
<!-- Node5 -->
<g id="node5" class="node"><title>Node5</title>
<g id="a_node5"><a xlink:href="classAP__HAL_1_1RCInput.html#a2bea13d38f2b9ae8bf5193a3a69f0a31" target="_top" xlink:title="AP_HAL::RCInput::teardown">
<polygon fill="white" stroke="black" points="500,-273 500,-292 643,-292 643,-273 500,-273"/>
<text text-anchor="middle" x="571.5" y="-280" font-family="Helvetica,sans-Serif" font-size="10.00">AP_HAL::RCInput::teardown</text>
</a>
</g>
</g>
<!-- Node4&#45;&gt;Node5 -->
<g id="edge4" class="edge"><title>Node4&#45;&gt;Node5</title>
<path fill="none" stroke="midnightblue" d="M429.631,-204.364C441.005,-207.202 453.188,-210.877 464,-215.5 480.979,-222.76 521.981,-249.652 547.871,-267.08"/>
<polygon fill="midnightblue" stroke="midnightblue" points="546.089,-270.1 556.334,-272.802 550.01,-264.301 546.089,-270.1"/>
</g>
<!-- Node12 -->
<g id="node12" class="node"><title>Node12</title>
<g id="a_node12"><a xlink:href="classAP__HAL_1_1Scheduler.html#a78c4f1b1f192ac1c99544b6cc8f099b0" target="_top" xlink:title="AP_HAL::Scheduler::\ldelay_microseconds">
<polygon fill="white" stroke="black" points="516.5,-196.5 516.5,-226.5 626.5,-226.5 626.5,-196.5 516.5,-196.5"/>
<text text-anchor="start" x="524.5" y="-214.5" font-family="Helvetica,sans-Serif" font-size="10.00">AP_HAL::Scheduler::</text>
<text text-anchor="middle" x="571.5" y="-203.5" font-family="Helvetica,sans-Serif" font-size="10.00">delay_microseconds</text>
</a>
</g>
</g>
<!-- Node4&#45;&gt;Node12 -->
<g id="edge11" class="edge"><title>Node4&#45;&gt;Node12</title>
<path fill="none" stroke="midnightblue" d="M429.799,-199.904C452.29,-201.757 480.625,-204.093 505.962,-206.181"/>
<polygon fill="midnightblue" stroke="midnightblue" points="505.987,-209.695 516.241,-207.028 506.562,-202.718 505.987,-209.695"/>
</g>
<!-- Node6 -->
<g id="node6" class="node"><title>Node6</title>
<g id="a_node6"><a xlink:href="classAP__HAL_1_1RCInput.html#aee1fade33080edef83dd7db0fad0f7da" target="_top" xlink:title="AP_HAL::RCInput::new\l_input">
<polygon fill="white" stroke="black" points="694,-404.5 694,-434.5 816,-434.5 816,-404.5 694,-404.5"/>
<text text-anchor="start" x="702" y="-422.5" font-family="Helvetica,sans-Serif" font-size="10.00">AP_HAL::RCInput::new</text>
<text text-anchor="middle" x="755" y="-411.5" font-family="Helvetica,sans-Serif" font-size="10.00">_input</text>
</a>
</g>
</g>
<!-- Node5&#45;&gt;Node6 -->
<g id="edge5" class="edge"><title>Node5&#45;&gt;Node6</title>
<path fill="none" stroke="midnightblue" d="M579.011,-292.229C594.042,-313.954 633.387,-366.753 679,-395.5 681.633,-397.159 684.391,-398.714 687.231,-400.168"/>
<polygon fill="midnightblue" stroke="midnightblue" points="685.981,-403.446 696.525,-404.48 688.927,-397.097 685.981,-403.446"/>
</g>
<!-- Node7 -->
<g id="node7" class="node"><title>Node7</title>
<g id="a_node7"><a xlink:href="classAP__HAL_1_1RCInput.html#ae55f959c6115c1f41783af3a2b6c4fcd" target="_top" xlink:title="AP_HAL::RCInput::num\l_channels">
<polygon fill="white" stroke="black" points="694,-355.5 694,-385.5 816,-385.5 816,-355.5 694,-355.5"/>
<text text-anchor="start" x="702" y="-373.5" font-family="Helvetica,sans-Serif" font-size="10.00">AP_HAL::RCInput::num</text>
<text text-anchor="middle" x="755" y="-362.5" font-family="Helvetica,sans-Serif" font-size="10.00">_channels</text>
</a>
</g>
</g>
<!-- Node5&#45;&gt;Node7 -->
<g id="edge6" class="edge"><title>Node5&#45;&gt;Node7</title>
<path fill="none" stroke="midnightblue" d="M586.447,-292.062C606.311,-305.371 644.21,-329.63 679,-345.5 683.917,-347.743 689.096,-349.887 694.339,-351.91"/>
<polygon fill="midnightblue" stroke="midnightblue" points="693.212,-355.225 703.805,-355.416 695.643,-348.661 693.212,-355.225"/>
</g>
<!-- Node8 -->
<g id="node8" class="node"><title>Node8</title>
<g id="a_node8"><a xlink:href="classAP__HAL_1_1RCInput.html#a078fd7e6d2e6a899009ec674a8e03498" target="_top" xlink:title="AP_HAL::RCInput::read">
<polygon fill="white" stroke="black" points="694,-317 694,-336 816,-336 816,-317 694,-317"/>
<text text-anchor="middle" x="755" y="-324" font-family="Helvetica,sans-Serif" font-size="10.00">AP_HAL::RCInput::read</text>
</a>
</g>
</g>
<!-- Node5&#45;&gt;Node8 -->
<g id="edge7" class="edge"><title>Node5&#45;&gt;Node8</title>
<path fill="none" stroke="midnightblue" d="M611.883,-292.047C639.116,-298.649 675.55,-307.482 704.71,-314.551"/>
<polygon fill="midnightblue" stroke="midnightblue" points="704.151,-318.017 714.694,-316.971 705.8,-311.214 704.151,-318.017"/>
</g>
<!-- Node9 -->
<g id="node9" class="node"><title>Node9</title>
<g id="a_node9"><a xlink:href="classAP__HAL_1_1RCInput.html#a0989c5ca271631fe655c047d4a022a3d" target="_top" xlink:title="AP_HAL::RCInput::set\l_overrides">
<polygon fill="white" stroke="black" points="696.5,-267.5 696.5,-297.5 813.5,-297.5 813.5,-267.5 696.5,-267.5"/>
<text text-anchor="start" x="704.5" y="-285.5" font-family="Helvetica,sans-Serif" font-size="10.00">AP_HAL::RCInput::set</text>
<text text-anchor="middle" x="755" y="-274.5" font-family="Helvetica,sans-Serif" font-size="10.00">_overrides</text>
</a>
</g>
</g>
<!-- Node5&#45;&gt;Node9 -->
<g id="edge8" class="edge"><title>Node5&#45;&gt;Node9</title>
<path fill="none" stroke="midnightblue" d="M643.192,-282.5C657.369,-282.5 672.233,-282.5 686.306,-282.5"/>
<polygon fill="midnightblue" stroke="midnightblue" points="686.391,-286 696.391,-282.5 686.391,-279 686.391,-286"/>
</g>
<!-- Node10 -->
<g id="node10" class="node"><title>Node10</title>
<g id="a_node10"><a xlink:href="classAP__HAL_1_1RCInput.html#abfd037ca0989a0422a60f418d34eb7d5" target="_top" xlink:title="AP_HAL::RCInput::set\l_override">
<polygon fill="white" stroke="black" points="696.5,-218.5 696.5,-248.5 813.5,-248.5 813.5,-218.5 696.5,-218.5"/>
<text text-anchor="start" x="704.5" y="-236.5" font-family="Helvetica,sans-Serif" font-size="10.00">AP_HAL::RCInput::set</text>
<text text-anchor="middle" x="755" y="-225.5" font-family="Helvetica,sans-Serif" font-size="10.00">_override</text>
</a>
</g>
</g>
<!-- Node5&#45;&gt;Node10 -->
<g id="edge9" class="edge"><title>Node5&#45;&gt;Node10</title>
<path fill="none" stroke="midnightblue" d="M607.926,-272.936C630.804,-266.76 661.268,-258.535 688.454,-251.196"/>
<polygon fill="midnightblue" stroke="midnightblue" points="689.56,-254.522 698.302,-248.537 687.735,-247.764 689.56,-254.522"/>
</g>
<!-- Node11 -->
<g id="node11" class="node"><title>Node11</title>
<g id="a_node11"><a xlink:href="classAP__HAL_1_1RCInput.html#ab3671bbe43fdb97c53071d7832ac256e" target="_top" xlink:title="AP_HAL::RCInput::clear\l_overrides">
<polygon fill="white" stroke="black" points="692.5,-169.5 692.5,-199.5 817.5,-199.5 817.5,-169.5 692.5,-169.5"/>
<text text-anchor="start" x="700.5" y="-187.5" font-family="Helvetica,sans-Serif" font-size="10.00">AP_HAL::RCInput::clear</text>
<text text-anchor="middle" x="755" y="-176.5" font-family="Helvetica,sans-Serif" font-size="10.00">_overrides</text>
</a>
</g>
</g>
<!-- Node5&#45;&gt;Node11 -->
<g id="edge10" class="edge"><title>Node5&#45;&gt;Node11</title>
<path fill="none" stroke="midnightblue" d="M587.517,-272.834C601.902,-263.494 624.147,-248.839 643,-235.5 659.327,-223.949 661.229,-217.675 679,-208.5 682.521,-206.682 686.206,-204.968 689.973,-203.358"/>
<polygon fill="midnightblue" stroke="midnightblue" points="691.47,-206.529 699.458,-199.569 688.873,-200.029 691.47,-206.529"/>
</g>
<!-- Node14 -->
<g id="node14" class="node"><title>Node14</title>
<g id="a_node14"><a xlink:href="classDataFlash__Backend.html#a0d81b33bb8560bac27b7395e58045a76" target="_top" xlink:title="DataFlash_Backend::\lset_mission">
<polygon fill="white" stroke="black" points="516,-147.5 516,-177.5 627,-177.5 627,-147.5 516,-147.5"/>
<text text-anchor="start" x="524" y="-165.5" font-family="Helvetica,sans-Serif" font-size="10.00">DataFlash_Backend::</text>
<text text-anchor="middle" x="571.5" y="-154.5" font-family="Helvetica,sans-Serif" font-size="10.00">set_mission</text>
</a>
</g>
</g>
<!-- Node13&#45;&gt;Node14 -->
<g id="edge13" class="edge"><title>Node13&#45;&gt;Node14</title>
<path fill="none" stroke="midnightblue" d="M439.681,-138.061C460.194,-141.893 484.069,-146.354 505.766,-150.407"/>
<polygon fill="midnightblue" stroke="midnightblue" points="505.416,-153.902 515.888,-152.298 506.701,-147.021 505.416,-153.902"/>
</g>
<!-- Node16 -->
<g id="node16" class="node"><title>Node16</title>
<g id="a_node16"><a xlink:href="classDataFlash__Backend.html#a225465cb83db429757bbbf224796ed8f" target="_top" xlink:title="DataFlash_Backend::\lbufferspace_available">
<polygon fill="white" stroke="black" points="516,-98.5 516,-128.5 627,-128.5 627,-98.5 516,-98.5"/>
<text text-anchor="start" x="524" y="-116.5" font-family="Helvetica,sans-Serif" font-size="10.00">DataFlash_Backend::</text>
<text text-anchor="middle" x="571.5" y="-105.5" font-family="Helvetica,sans-Serif" font-size="10.00">bufferspace_available</text>
</a>
</g>
</g>
<!-- Node13&#45;&gt;Node16 -->
<g id="edge15" class="edge"><title>Node13&#45;&gt;Node16</title>
<path fill="none" stroke="midnightblue" d="M450.117,-123.422C468.045,-121.944 487.677,-120.326 505.79,-118.833"/>
<polygon fill="midnightblue" stroke="midnightblue" points="506.285,-122.304 515.963,-117.995 505.71,-115.328 506.285,-122.304"/>
</g>
<!-- Node17 -->
<g id="node17" class="node"><title>Node17</title>
<g id="a_node17"><a xlink:href="classDataFlash__Backend.html#a5ff05c4c6461f5bfe61798adb4205a38" target="_top" xlink:title="DataFlash_Backend::\lstart_new_log">
<polygon fill="white" stroke="black" points="516,-49.5 516,-79.5 627,-79.5 627,-49.5 516,-49.5"/>
<text text-anchor="start" x="524" y="-67.5" font-family="Helvetica,sans-Serif" font-size="10.00">DataFlash_Backend::</text>
<text text-anchor="middle" x="571.5" y="-56.5" font-family="Helvetica,sans-Serif" font-size="10.00">start_new_log</text>
</a>
</g>
</g>
<!-- Node13&#45;&gt;Node17 -->
<g id="edge16" class="edge"><title>Node13&#45;&gt;Node17</title>
<path fill="none" stroke="midnightblue" d="M431.826,-118.994C442.513,-116.114 453.812,-112.605 464,-108.5 480.977,-101.66 483.27,-95.9234 500,-88.5 504.099,-86.681 508.382,-84.9144 512.724,-83.2192"/>
<polygon fill="midnightblue" stroke="midnightblue" points="514.143,-86.4247 522.272,-79.63 511.68,-79.8723 514.143,-86.4247"/>
</g>
<!-- Node15 -->
<g id="node15" class="node"><title>Node15</title>
<g id="a_node15"><a xlink:href="classDFMessageWriter__DFLogStart.html#a8584b1fa0775b7ff593a1760f5461074" target="_top" xlink:title="DFMessageWriter_DFLogStart\l::set_mission">
<polygon fill="white" stroke="black" points="679,-120.5 679,-150.5 831,-150.5 831,-120.5 679,-120.5"/>
<text text-anchor="start" x="687" y="-138.5" font-family="Helvetica,sans-Serif" font-size="10.00">DFMessageWriter_DFLogStart</text>
<text text-anchor="middle" x="755" y="-127.5" font-family="Helvetica,sans-Serif" font-size="10.00">::set_mission</text>
</a>
</g>
</g>
<!-- Node14&#45;&gt;Node15 -->
<g id="edge14" class="edge"><title>Node14&#45;&gt;Node15</title>
<path fill="none" stroke="midnightblue" d="M627.449,-154.326C640.462,-152.39 654.645,-150.28 668.656,-148.196"/>
<polygon fill="midnightblue" stroke="midnightblue" points="669.432,-151.619 678.808,-146.686 668.402,-144.695 669.432,-151.619"/>
</g>
<!-- Node20 -->
<g id="node20" class="node"><title>Node20</title>
<g id="a_node20"><a xlink:href="classDataFlash__MAVLink.html#a36de9539b4bfa2da0130d16bd97d6941" target="_top" xlink:title="DataFlash_MAVLink::\lstats_reset">
<polygon fill="white" stroke="black" points="515,-0.5 515,-30.5 628,-30.5 628,-0.5 515,-0.5"/>
<text text-anchor="start" x="523" y="-18.5" font-family="Helvetica,sans-Serif" font-size="10.00">DataFlash_MAVLink::</text>
<text text-anchor="middle" x="571.5" y="-7.5" font-family="Helvetica,sans-Serif" font-size="10.00">stats_reset</text>
</a>
</g>
</g>
<!-- Node19&#45;&gt;Node20 -->
<g id="edge19" class="edge"><title>Node19&#45;&gt;Node20</title>
<path fill="none" stroke="midnightblue" d="M444.095,-28.0016C463.234,-26.1087 484.849,-23.971 504.721,-22.0056"/>
<polygon fill="midnightblue" stroke="midnightblue" points="505.325,-25.463 514.932,-20.9957 504.636,-18.497 505.325,-25.463"/>
</g>
</g>
</svg>
        <g id="navigator" transform="translate(0 0)" fill="#404254">
                <rect fill="#f2f5e9" fill-opacity="0.5" stroke="#606060" stroke-width=".5" x="0" y="0" width="60" height="60"/>
                <use id="zoomplus" xlink:href="#zoomPlus" x="17" y="9" onmousedown="handleZoom(evt,'in')"/>
                <use id="zoomminus" xlink:href="#zoomMin" x="42" y="9" onmousedown="handleZoom(evt,'out')"/>
                <use id="reset" xlink:href="#resetDef" x="30" y="36" onmousedown="handleReset()"/>
                <g id="arrowUp" xlink:href="#dirArrow" transform="translate(30 24)" onmousedown="handlePan(0,-1)">
                  <use xlink:href="#rim" fill="#404040">
                        <set attributeName="fill" to="#808080" begin="arrowUp.mouseover" end="arrowUp.mouseout"/>
                  </use>
                  <path fill="none" stroke="white" stroke-width="1.5" d="M0,-3.0v7 M-2.5,-0.5L0,-3.0L2.5,-0.5"/>
                </g>
                <g id="arrowRight" xlink:href="#dirArrow" transform="rotate(90) translate(36 -43)" onmousedown="handlePan(1,0)">
                  <use xlink:href="#rim" fill="#404040">
                        <set attributeName="fill" to="#808080" begin="arrowRight.mouseover" end="arrowRight.mouseout"/>
                  </use>
                  <path fill="none" stroke="white" stroke-width="1.5" d="M0,-3.0v7 M-2.5,-0.5L0,-3.0L2.5,-0.5"/>
                </g>
                <g id="arrowDown" xlink:href="#dirArrow" transform="rotate(180) translate(-30 -48)" onmousedown="handlePan(0,1)">
                  <use xlink:href="#rim" fill="#404040">
                        <set attributeName="fill" to="#808080" begin="arrowDown.mouseover" end="arrowDown.mouseout"/>
                  </use>
                  <path fill="none" stroke="white" stroke-width="1.5" d="M0,-3.0v7 M-2.5,-0.5L0,-3.0L2.5,-0.5"/>
                </g>
                <g id="arrowLeft" xlink:href="#dirArrow" transform="rotate(270) translate(-36 17)" onmousedown="handlePan(-1,0)">
                  <use xlink:href="#rim" fill="#404040">
                        <set attributeName="fill" to="#808080" begin="arrowLeft.mouseover" end="arrowLeft.mouseout"/>
                  </use>
                  <path fill="none" stroke="white" stroke-width="1.5" d="M0,-3.0v7 M-2.5,-0.5L0,-3.0L2.5,-0.5"/>
                </g>
        </g>
        <svg viewBox="0 0 15 15" width="100%" height="30px" preserveAspectRatio="xMaxYMin meet">
         <g id="arrow_out" transform="scale(0.3 0.3)">
          <a xlink:href="classDataFlash__MAVLink_a48cca0935063bb4c4ab826e2e0f7ac14_cgraph_org.svg" target="_base">
           <rect id="button" ry="5" rx="5" y="6" x="6" height="38" width="38"
                fill="#f2f5e9" fill-opacity="0.5" stroke="#606060" stroke-width="1.0"/>
           <path id="arrow"
             d="M 11.500037,31.436501 C 11.940474,20.09759 22.043105,11.32322 32.158766,21.979434 L 37.068811,17.246167 C 37.068811,17.246167 37.088388,32 37.088388,32 L 22.160133,31.978069 C 22.160133,31.978069 26.997745,27.140456 26.997745,27.140456 C 18.528582,18.264221 13.291696,25.230495 11.500037,31.436501 z"
             style="fill:#404040;"/>
          </a>
         </g>
        </svg>
</svg>
