<?xml version="1.0" encoding="UTF-8" standalone="no"?>
<!DOCTYPE svg PUBLIC "-//W3C//DTD SVG 1.1//EN"
 "http://www.w3.org/Graphics/SVG/1.1/DTD/svg11.dtd">
<!-- Generated by graphviz version 2.38.0 (20140413.2041)
 -->
<!-- Title: VRBRAIN::VRBRAINStorage::_upgrade_to_mtd Pages: 1 -->
<!--zoomable 274 -->
<svg id="main" version="1.1" xmlns="http://www.w3.org/2000/svg" xmlns:xlink="http://www.w3.org/1999/xlink" xml:space="preserve" onload="init(evt)">
<style type="text/css"><![CDATA[
.edge:hover path { stroke: red; }
.edge:hover polygon { stroke: red; fill: red; }
]]></style>
<script type="text/javascript"><![CDATA[
var edges = document.getElementsByTagName('g');
if (edges && edges.length) {
  for (var i=0;i<edges.length;i++) {
    if (edges[i].id.substr(0,4)=='edge') {
      edges[i].setAttribute('class','edge');
    }
  }
}
]]></script>
        <defs>
                <circle id="rim" cx="0" cy="0" r="7"/>
                <circle id="rim2" cx="0" cy="0" r="3.5"/>
                <g id="zoomPlus">
                        <use xlink:href="#rim" fill="#404040">
                                <set attributeName="fill" to="#808080" begin="zoomplus.mouseover" end="zoomplus.mouseout"/>
                        </use>
                        <path d="M-4,0h8M0,-4v8" fill="none" stroke="white" stroke-width="1.5" pointer-events="none"/>
                </g>
                <g id="zoomMin">
                        <use xlink:href="#rim" fill="#404040">
                                <set attributeName="fill" to="#808080" begin="zoomminus.mouseover" end="zoomminus.mouseout"/>
                        </use>
                        <path d="M-4,0h8" fill="none" stroke="white" stroke-width="1.5" pointer-events="none"/>
                </g>
                <g id="dirArrow">
                        <path fill="none" stroke="white" stroke-width="1.5" d="M0,-3.0v7 M-2.5,-0.5L0,-3.0L2.5,-0.5"/>
                </g>
               <g id="resetDef">
                       <use xlink:href="#rim2" fill="#404040">
                               <set attributeName="fill" to="#808080" begin="reset.mouseover" end="reset.mouseout"/>
                       </use>
               </g>
        </defs>

<script type="text/javascript">
var viewWidth = 680;
var viewHeight = 274;
var sectionId = 'dynsection-11';
</script>
<script xlink:href="svgpan.js"/>
<svg id="graph" class="graph">
<g id="viewport">
<title>VRBRAIN::VRBRAINStorage::_upgrade_to_mtd</title>
<polygon fill="white" stroke="none" points="-4,4 -4,-270 676,-270 676,4 -4,4"/>
<!-- Node1 -->
<g id="node1" class="node"><title>Node1</title>
<polygon fill="#bfbfbf" stroke="black" points="0,-76.5 0,-106.5 148,-106.5 148,-76.5 0,-76.5"/>
<text text-anchor="start" x="8" y="-94.5" font-family="Helvetica,sans-Serif" font-size="10.00">VRBRAIN::VRBRAINStorage</text>
<text text-anchor="middle" x="74" y="-83.5" font-family="Helvetica,sans-Serif" font-size="10.00">::_upgrade_to_mtd</text>
</g>
<!-- Node2 -->
<g id="node2" class="node"><title>Node2</title>
<g id="a_node2"><a xlink:href="namespaceAP__HAL.html#a71832f03d849a0c088f04fc98d3c8143" target="_top" xlink:title="AP_HAL::panic">
<polygon fill="white" stroke="black" points="216,-104 216,-123 300,-123 300,-104 216,-104"/>
<text text-anchor="middle" x="258" y="-111" font-family="Helvetica,sans-Serif" font-size="10.00">AP_HAL::panic</text>
</a>
</g>
</g>
<!-- Node1&#45;&gt;Node2 -->
<g id="edge1" class="edge"><title>Node1&#45;&gt;Node2</title>
<path fill="none" stroke="midnightblue" d="M148.24,-100.353C167.478,-102.679 187.819,-105.137 205.639,-107.292"/>
<polygon fill="midnightblue" stroke="midnightblue" points="205.465,-110.796 215.813,-108.521 206.305,-103.846 205.465,-110.796"/>
</g>
<!-- Node11 -->
<g id="node11" class="node"><title>Node11</title>
<g id="a_node11"><a xlink:href="classVRBRAIN_1_1VRBRAINStorage.html#aad70e18bd11ba94c698dbeec3f9bcc25" target="_top" xlink:title="VRBRAIN::VRBRAINStorage\l::bus_lock">
<polygon fill="white" stroke="black" points="184,-54.5 184,-84.5 332,-84.5 332,-54.5 184,-54.5"/>
<text text-anchor="start" x="192" y="-72.5" font-family="Helvetica,sans-Serif" font-size="10.00">VRBRAIN::VRBRAINStorage</text>
<text text-anchor="middle" x="258" y="-61.5" font-family="Helvetica,sans-Serif" font-size="10.00">::bus_lock</text>
</a>
</g>
</g>
<!-- Node1&#45;&gt;Node11 -->
<g id="edge10" class="edge"><title>Node1&#45;&gt;Node11</title>
<path fill="none" stroke="midnightblue" d="M148.24,-82.6469C156.688,-81.6256 165.349,-80.5787 173.916,-79.5432"/>
<polygon fill="midnightblue" stroke="midnightblue" points="174.403,-83.0099 183.91,-78.335 173.562,-76.0605 174.403,-83.0099"/>
</g>
<!-- Node3 -->
<g id="node3" class="node"><title>Node3</title>
<g id="a_node3"><a xlink:href="classAP__HAL_1_1RCInput.html#a2bea13d38f2b9ae8bf5193a3a69f0a31" target="_top" xlink:title="AP_HAL::RCInput::teardown">
<polygon fill="white" stroke="black" points="368,-126 368,-145 511,-145 511,-126 368,-126"/>
<text text-anchor="middle" x="439.5" y="-133" font-family="Helvetica,sans-Serif" font-size="10.00">AP_HAL::RCInput::teardown</text>
</a>
</g>
</g>
<!-- Node2&#45;&gt;Node3 -->
<g id="edge2" class="edge"><title>Node2&#45;&gt;Node3</title>
<path fill="none" stroke="midnightblue" d="M300.181,-118.547C317.359,-120.653 337.933,-123.174 357.898,-125.621"/>
<polygon fill="midnightblue" stroke="midnightblue" points="357.594,-129.11 367.945,-126.853 358.445,-122.162 357.594,-129.11"/>
</g>
<!-- Node10 -->
<g id="node10" class="node"><title>Node10</title>
<g id="a_node10"><a xlink:href="classAP__HAL_1_1Scheduler.html#a78c4f1b1f192ac1c99544b6cc8f099b0" target="_top" xlink:title="AP_HAL::Scheduler::\ldelay_microseconds">
<polygon fill="white" stroke="black" points="384.5,-76.5 384.5,-106.5 494.5,-106.5 494.5,-76.5 384.5,-76.5"/>
<text text-anchor="start" x="392.5" y="-94.5" font-family="Helvetica,sans-Serif" font-size="10.00">AP_HAL::Scheduler::</text>
<text text-anchor="middle" x="439.5" y="-83.5" font-family="Helvetica,sans-Serif" font-size="10.00">delay_microseconds</text>
</a>
</g>
</g>
<!-- Node2&#45;&gt;Node10 -->
<g id="edge9" class="edge"><title>Node2&#45;&gt;Node10</title>
<path fill="none" stroke="midnightblue" d="M300.181,-108.453C322.105,-105.766 349.562,-102.4 374.222,-99.378"/>
<polygon fill="midnightblue" stroke="midnightblue" points="374.734,-102.842 384.234,-98.151 373.883,-95.8936 374.734,-102.842"/>
</g>
<!-- Node4 -->
<g id="node4" class="node"><title>Node4</title>
<g id="a_node4"><a xlink:href="classAP__HAL_1_1RCInput.html#aee1fade33080edef83dd7db0fad0f7da" target="_top" xlink:title="AP_HAL::RCInput::new\l_input">
<polygon fill="white" stroke="black" points="548.5,-235.5 548.5,-265.5 670.5,-265.5 670.5,-235.5 548.5,-235.5"/>
<text text-anchor="start" x="556.5" y="-253.5" font-family="Helvetica,sans-Serif" font-size="10.00">AP_HAL::RCInput::new</text>
<text text-anchor="middle" x="609.5" y="-242.5" font-family="Helvetica,sans-Serif" font-size="10.00">_input</text>
</a>
</g>
</g>
<!-- Node3&#45;&gt;Node4 -->
<g id="edge3" class="edge"><title>Node3&#45;&gt;Node4</title>
<path fill="none" stroke="midnightblue" d="M449.629,-145.221C467.064,-163.317 506.94,-202.51 547,-226.5 549.667,-228.097 552.46,-229.625 555.321,-231.081"/>
<polygon fill="midnightblue" stroke="midnightblue" points="554.087,-234.37 564.624,-235.481 557.08,-228.042 554.087,-234.37"/>
</g>
<!-- Node5 -->
<g id="node5" class="node"><title>Node5</title>
<g id="a_node5"><a xlink:href="classAP__HAL_1_1RCInput.html#ae55f959c6115c1f41783af3a2b6c4fcd" target="_top" xlink:title="AP_HAL::RCInput::num\l_channels">
<polygon fill="white" stroke="black" points="548.5,-186.5 548.5,-216.5 670.5,-216.5 670.5,-186.5 548.5,-186.5"/>
<text text-anchor="start" x="556.5" y="-204.5" font-family="Helvetica,sans-Serif" font-size="10.00">AP_HAL::RCInput::num</text>
<text text-anchor="middle" x="609.5" y="-193.5" font-family="Helvetica,sans-Serif" font-size="10.00">_channels</text>
</a>
</g>
</g>
<!-- Node3&#45;&gt;Node5 -->
<g id="edge4" class="edge"><title>Node3&#45;&gt;Node5</title>
<path fill="none" stroke="midnightblue" d="M464.929,-145.097C489.918,-154.914 529.399,-170.425 560.64,-182.698"/>
<polygon fill="midnightblue" stroke="midnightblue" points="559.458,-185.994 570.045,-186.393 562.018,-179.479 559.458,-185.994"/>
</g>
<!-- Node6 -->
<g id="node6" class="node"><title>Node6</title>
<g id="a_node6"><a xlink:href="classAP__HAL_1_1RCInput.html#a078fd7e6d2e6a899009ec674a8e03498" target="_top" xlink:title="AP_HAL::RCInput::read">
<polygon fill="white" stroke="black" points="548.5,-148 548.5,-167 670.5,-167 670.5,-148 548.5,-148"/>
<text text-anchor="middle" x="609.5" y="-155" font-family="Helvetica,sans-Serif" font-size="10.00">AP_HAL::RCInput::read</text>
</a>
</g>
</g>
<!-- Node3&#45;&gt;Node6 -->
<g id="edge5" class="edge"><title>Node3&#45;&gt;Node6</title>
<path fill="none" stroke="midnightblue" d="M511.26,-144.766C520.251,-145.944 529.45,-147.148 538.431,-148.324"/>
<polygon fill="midnightblue" stroke="midnightblue" points="538.084,-151.809 548.454,-149.637 538.993,-144.868 538.084,-151.809"/>
</g>
<!-- Node7 -->
<g id="node7" class="node"><title>Node7</title>
<g id="a_node7"><a xlink:href="classAP__HAL_1_1RCInput.html#a0989c5ca271631fe655c047d4a022a3d" target="_top" xlink:title="AP_HAL::RCInput::set\l_overrides">
<polygon fill="white" stroke="black" points="551,-98.5 551,-128.5 668,-128.5 668,-98.5 551,-98.5"/>
<text text-anchor="start" x="559" y="-116.5" font-family="Helvetica,sans-Serif" font-size="10.00">AP_HAL::RCInput::set</text>
<text text-anchor="middle" x="609.5" y="-105.5" font-family="Helvetica,sans-Serif" font-size="10.00">_overrides</text>
</a>
</g>
</g>
<!-- Node3&#45;&gt;Node7 -->
<g id="edge6" class="edge"><title>Node3&#45;&gt;Node7</title>
<path fill="none" stroke="midnightblue" d="M511.26,-126.234C521.044,-124.953 531.073,-123.639 540.799,-122.366"/>
<polygon fill="midnightblue" stroke="midnightblue" points="541.342,-125.825 550.802,-121.056 540.433,-118.884 541.342,-125.825"/>
</g>
<!-- Node8 -->
<g id="node8" class="node"><title>Node8</title>
<g id="a_node8"><a xlink:href="classAP__HAL_1_1RCInput.html#abfd037ca0989a0422a60f418d34eb7d5" target="_top" xlink:title="AP_HAL::RCInput::set\l_override">
<polygon fill="white" stroke="black" points="551,-49.5 551,-79.5 668,-79.5 668,-49.5 551,-49.5"/>
<text text-anchor="start" x="559" y="-67.5" font-family="Helvetica,sans-Serif" font-size="10.00">AP_HAL::RCInput::set</text>
<text text-anchor="middle" x="609.5" y="-56.5" font-family="Helvetica,sans-Serif" font-size="10.00">_override</text>
</a>
</g>
</g>
<!-- Node3&#45;&gt;Node8 -->
<g id="edge7" class="edge"><title>Node3&#45;&gt;Node8</title>
<path fill="none" stroke="midnightblue" d="M486.183,-125.918C494.644,-123.386 503.251,-120.276 511,-116.5 528.979,-107.74 529.592,-99.3472 547,-89.5 550.456,-87.5449 554.096,-85.6632 557.808,-83.8706"/>
<polygon fill="midnightblue" stroke="midnightblue" points="559.482,-86.9532 567.117,-79.6071 556.568,-80.5889 559.482,-86.9532"/>
</g>
<!-- Node9 -->
<g id="node9" class="node"><title>Node9</title>
<g id="a_node9"><a xlink:href="classAP__HAL_1_1RCInput.html#ab3671bbe43fdb97c53071d7832ac256e" target="_top" xlink:title="AP_HAL::RCInput::clear\l_overrides">
<polygon fill="white" stroke="black" points="547,-0.5 547,-30.5 672,-30.5 672,-0.5 547,-0.5"/>
<text text-anchor="start" x="555" y="-18.5" font-family="Helvetica,sans-Serif" font-size="10.00">AP_HAL::RCInput::clear</text>
<text text-anchor="middle" x="609.5" y="-7.5" font-family="Helvetica,sans-Serif" font-size="10.00">_overrides</text>
</a>
</g>
</g>
<!-- Node3&#45;&gt;Node9 -->
<g id="edge8" class="edge"><title>Node3&#45;&gt;Node9</title>
<path fill="none" stroke="midnightblue" d="M495.245,-125.978C500.933,-123.506 506.33,-120.4 511,-116.5 539.686,-92.5412 519.838,-66.1746 547,-40.5 548.633,-38.9561 550.375,-37.5024 552.198,-36.134"/>
<polygon fill="midnightblue" stroke="midnightblue" points="554.148,-39.0411 560.638,-30.6665 550.342,-33.1661 554.148,-39.0411"/>
</g>
</g>
</svg>
        <g id="navigator" transform="translate(0 0)" fill="#404254">
                <rect fill="#f2f5e9" fill-opacity="0.5" stroke="#606060" stroke-width=".5" x="0" y="0" width="60" height="60"/>
                <use id="zoomplus" xlink:href="#zoomPlus" x="17" y="9" onmousedown="handleZoom(evt,'in')"/>
                <use id="zoomminus" xlink:href="#zoomMin" x="42" y="9" onmousedown="handleZoom(evt,'out')"/>
                <use id="reset" xlink:href="#resetDef" x="30" y="36" onmousedown="handleReset()"/>
                <g id="arrowUp" xlink:href="#dirArrow" transform="translate(30 24)" onmousedown="handlePan(0,-1)">
                  <use xlink:href="#rim" fill="#404040">
                        <set attributeName="fill" to="#808080" begin="arrowUp.mouseover" end="arrowUp.mouseout"/>
                  </use>
                  <path fill="none" stroke="white" stroke-width="1.5" d="M0,-3.0v7 M-2.5,-0.5L0,-3.0L2.5,-0.5"/>
                </g>
                <g id="arrowRight" xlink:href="#dirArrow" transform="rotate(90) translate(36 -43)" onmousedown="handlePan(1,0)">
                  <use xlink:href="#rim" fill="#404040">
                        <set attributeName="fill" to="#808080" begin="arrowRight.mouseover" end="arrowRight.mouseout"/>
                  </use>
                  <path fill="none" stroke="white" stroke-width="1.5" d="M0,-3.0v7 M-2.5,-0.5L0,-3.0L2.5,-0.5"/>
                </g>
                <g id="arrowDown" xlink:href="#dirArrow" transform="rotate(180) translate(-30 -48)" onmousedown="handlePan(0,1)">
                  <use xlink:href="#rim" fill="#404040">
                        <set attributeName="fill" to="#808080" begin="arrowDown.mouseover" end="arrowDown.mouseout"/>
                  </use>
                  <path fill="none" stroke="white" stroke-width="1.5" d="M0,-3.0v7 M-2.5,-0.5L0,-3.0L2.5,-0.5"/>
                </g>
                <g id="arrowLeft" xlink:href="#dirArrow" transform="rotate(270) translate(-36 17)" onmousedown="handlePan(-1,0)">
                  <use xlink:href="#rim" fill="#404040">
                        <set attributeName="fill" to="#808080" begin="arrowLeft.mouseover" end="arrowLeft.mouseout"/>
                  </use>
                  <path fill="none" stroke="white" stroke-width="1.5" d="M0,-3.0v7 M-2.5,-0.5L0,-3.0L2.5,-0.5"/>
                </g>
        </g>
        <svg viewBox="0 0 15 15" width="100%" height="30px" preserveAspectRatio="xMaxYMin meet">
         <g id="arrow_out" transform="scale(0.3 0.3)">
          <a xlink:href="classVRBRAIN_1_1VRBRAINStorage_a649123a2f76269f7cf7eeda0d03aa097_cgraph_org.svg" target="_base">
           <rect id="button" ry="5" rx="5" y="6" x="6" height="38" width="38"
                fill="#f2f5e9" fill-opacity="0.5" stroke="#606060" stroke-width="1.0"/>
           <path id="arrow"
             d="M 11.500037,31.436501 C 11.940474,20.09759 22.043105,11.32322 32.158766,21.979434 L 37.068811,17.246167 C 37.068811,17.246167 37.088388,32 37.088388,32 L 22.160133,31.978069 C 22.160133,31.978069 26.997745,27.140456 26.997745,27.140456 C 18.528582,18.264221 13.291696,25.230495 11.500037,31.436501 z"
             style="fill:#404040;"/>
          </a>
         </g>
        </svg>
</svg>
