<?xml version="1.0" encoding="UTF-8" standalone="no"?>
<!DOCTYPE svg PUBLIC "-//W3C//DTD SVG 1.1//EN"
 "http://www.w3.org/Graphics/SVG/1.1/DTD/svg11.dtd">
<!-- Generated by graphviz version 2.38.0 (20140413.2041)
 -->
<!-- Title: DataFlashTest_AllTypes::Log_Write_TypeMessages Pages: 1 -->
<svg width="1730pt" height="739pt"
 viewBox="0.00 0.00 1730.00 738.50" xmlns="http://www.w3.org/2000/svg" xmlns:xlink="http://www.w3.org/1999/xlink">
<g id="graph0" class="graph" transform="scale(1 1) rotate(0) translate(4 734.5)">
<title>DataFlashTest_AllTypes::Log_Write_TypeMessages</title>
<polygon fill="white" stroke="none" points="-4,4 -4,-734.5 1726,-734.5 1726,4 -4,4"/>
<!-- Node1 -->
<g id="node1" class="node"><title>Node1</title>
<polygon fill="#bfbfbf" stroke="black" points="0,-503.5 0,-533.5 139,-533.5 139,-503.5 0,-503.5"/>
<text text-anchor="start" x="8" y="-521.5" font-family="Helvetica,sans-Serif" font-size="10.00">DataFlashTest_AllTypes</text>
<text text-anchor="middle" x="69.5" y="-510.5" font-family="Helvetica,sans-Serif" font-size="10.00">::Log_Write_TypeMessages</text>
</g>
<!-- Node2 -->
<g id="node2" class="node"><title>Node2</title>
<g id="a_node2"><a xlink:href="classAP__HAL_1_1UARTDriver.html#a6ceedc792594e59fc7d80b39a435f027" target="_top" xlink:title="AP_HAL::UARTDriver\l::printf">
<polygon fill="white" stroke="black" points="809,-629.5 809,-659.5 924,-659.5 924,-629.5 809,-629.5"/>
<text text-anchor="start" x="817" y="-647.5" font-family="Helvetica,sans-Serif" font-size="10.00">AP_HAL::UARTDriver</text>
<text text-anchor="middle" x="866.5" y="-636.5" font-family="Helvetica,sans-Serif" font-size="10.00">::printf</text>
</a>
</g>
</g>
<!-- Node1&#45;&gt;Node2 -->
<g id="edge1" class="edge"><title>Node1&#45;&gt;Node2</title>
<path fill="none" stroke="midnightblue" d="M84.3575,-533.586C124.168,-575.192 244.014,-688.5 368.5,-688.5 368.5,-688.5 368.5,-688.5 528,-688.5 622.564,-688.5 730.79,-671.305 798.642,-658.413"/>
<polygon fill="midnightblue" stroke="midnightblue" points="799.607,-661.792 808.765,-656.465 798.284,-654.918 799.607,-661.792"/>
</g>
<!-- Node10 -->
<g id="node10" class="node"><title>Node10</title>
<g id="a_node10"><a xlink:href="namespaceAP__HAL.html#a7aa0ce7625c9680e30ff4a99940907a5" target="_top" xlink:title="AP_HAL::micros64">
<polygon fill="white" stroke="black" points="175,-188 175,-207 276,-207 276,-188 175,-188"/>
<text text-anchor="middle" x="225.5" y="-195" font-family="Helvetica,sans-Serif" font-size="10.00">AP_HAL::micros64</text>
</a>
</g>
</g>
<!-- Node1&#45;&gt;Node10 -->
<g id="edge9" class="edge"><title>Node1&#45;&gt;Node10</title>
<path fill="none" stroke="midnightblue" d="M77.7212,-503.448C103.021,-450.712 187.626,-274.361 215.505,-216.249"/>
<polygon fill="midnightblue" stroke="midnightblue" points="218.718,-217.643 219.888,-207.113 212.407,-214.615 218.718,-217.643"/>
</g>
<!-- Node3 -->
<g id="node3" class="node"><title>Node3</title>
<g id="a_node3"><a xlink:href="classAP__HAL_1_1UARTDriver.html#aa8abfb6d6641299472c29ac1edde559f" target="_top" xlink:title="AP_HAL::UARTDriver\l::vprintf">
<polygon fill="white" stroke="black" points="981.5,-629.5 981.5,-659.5 1096.5,-659.5 1096.5,-629.5 981.5,-629.5"/>
<text text-anchor="start" x="989.5" y="-647.5" font-family="Helvetica,sans-Serif" font-size="10.00">AP_HAL::UARTDriver</text>
<text text-anchor="middle" x="1039" y="-636.5" font-family="Helvetica,sans-Serif" font-size="10.00">::vprintf</text>
</a>
</g>
</g>
<!-- Node2&#45;&gt;Node3 -->
<g id="edge2" class="edge"><title>Node2&#45;&gt;Node3</title>
<path fill="none" stroke="midnightblue" d="M924.274,-644.5C939.372,-644.5 955.817,-644.5 971.39,-644.5"/>
<polygon fill="midnightblue" stroke="midnightblue" points="971.474,-648 981.474,-644.5 971.474,-641 971.474,-648"/>
</g>
<!-- Node4 -->
<g id="node4" class="node"><title>Node4</title>
<g id="a_node4"><a xlink:href="print__vprintf_8cpp.html#a1534eaeab54696df96975b56d9f49212" target="_top" xlink:title="print_vprintf">
<polygon fill="white" stroke="black" points="1177.5,-635 1177.5,-654 1245.5,-654 1245.5,-635 1177.5,-635"/>
<text text-anchor="middle" x="1211.5" y="-642" font-family="Helvetica,sans-Serif" font-size="10.00">print_vprintf</text>
</a>
</g>
</g>
<!-- Node3&#45;&gt;Node4 -->
<g id="edge3" class="edge"><title>Node3&#45;&gt;Node4</title>
<path fill="none" stroke="midnightblue" d="M1096.77,-644.5C1119.75,-644.5 1145.85,-644.5 1167.24,-644.5"/>
<polygon fill="midnightblue" stroke="midnightblue" points="1167.33,-648 1177.33,-644.5 1167.33,-641 1167.33,-648"/>
</g>
<!-- Node5 -->
<g id="node5" class="node"><title>Node5</title>
<g id="a_node5"><a xlink:href="classAP__HAL_1_1Print.html#acc65391952a43334f8f5c9bef341f501" target="_top" xlink:title="AP_HAL::Print::write">
<polygon fill="white" stroke="black" points="1320.5,-559 1320.5,-578 1428.5,-578 1428.5,-559 1320.5,-559"/>
<text text-anchor="middle" x="1374.5" y="-566" font-family="Helvetica,sans-Serif" font-size="10.00">AP_HAL::Print::write</text>
</a>
</g>
</g>
<!-- Node4&#45;&gt;Node5 -->
<g id="edge4" class="edge"><title>Node4&#45;&gt;Node5</title>
<path fill="none" stroke="midnightblue" d="M1228.71,-634.797C1249.25,-622.741 1285.97,-601.992 1319,-587.5 1323.75,-585.415 1328.81,-583.396 1333.86,-581.501"/>
<polygon fill="midnightblue" stroke="midnightblue" points="1335.26,-584.718 1343.48,-578.027 1332.88,-578.134 1335.26,-584.718"/>
</g>
<!-- Node6 -->
<g id="node6" class="node"><title>Node6</title>
<g id="a_node6"><a xlink:href="ftoa__engine_8cpp.html#a1c28234da8f20b43c85890d4bb452947" target="_top" xlink:title="ftoa_engine">
<polygon fill="white" stroke="black" points="1341,-711 1341,-730 1408,-730 1408,-711 1341,-711"/>
<text text-anchor="middle" x="1374.5" y="-718" font-family="Helvetica,sans-Serif" font-size="10.00">ftoa_engine</text>
</a>
</g>
</g>
<!-- Node4&#45;&gt;Node6 -->
<g id="edge5" class="edge"><title>Node4&#45;&gt;Node6</title>
<path fill="none" stroke="midnightblue" d="M1228.71,-654.203C1249.25,-666.259 1285.97,-687.008 1319,-701.5 1323.75,-703.585 1328.81,-705.604 1333.86,-707.499"/>
<polygon fill="midnightblue" stroke="midnightblue" points="1332.88,-710.866 1343.48,-710.973 1335.26,-704.282 1332.88,-710.866"/>
</g>
<!-- Node7 -->
<g id="node7" class="node"><title>Node7</title>
<g id="a_node7"><a xlink:href="replace_8cpp.html#a880bcc7b85a09e6254691bebd5344b51" target="_top" xlink:title="strnlen">
<polygon fill="white" stroke="black" points="1351.5,-673 1351.5,-692 1397.5,-692 1397.5,-673 1351.5,-673"/>
<text text-anchor="middle" x="1374.5" y="-680" font-family="Helvetica,sans-Serif" font-size="10.00">strnlen</text>
</a>
</g>
</g>
<!-- Node4&#45;&gt;Node7 -->
<g id="edge6" class="edge"><title>Node4&#45;&gt;Node7</title>
<path fill="none" stroke="midnightblue" d="M1245.86,-652.374C1273.79,-658.966 1313.41,-668.318 1341.08,-674.848"/>
<polygon fill="midnightblue" stroke="midnightblue" points="1340.51,-678.31 1351.05,-677.201 1342.12,-671.497 1340.51,-678.31"/>
</g>
<!-- Node8 -->
<g id="node8" class="node"><title>Node8</title>
<g id="a_node8"><a xlink:href="utoa__invert_8cpp.html#a34926f552460b47c414ec4d83b32815c" target="_top" xlink:title="ulltoa_invert">
<polygon fill="white" stroke="black" points="1340,-635 1340,-654 1409,-654 1409,-635 1340,-635"/>
<text text-anchor="middle" x="1374.5" y="-642" font-family="Helvetica,sans-Serif" font-size="10.00">ulltoa_invert</text>
</a>
</g>
</g>
<!-- Node4&#45;&gt;Node8 -->
<g id="edge7" class="edge"><title>Node4&#45;&gt;Node8</title>
<path fill="none" stroke="midnightblue" d="M1245.86,-644.5C1270.17,-644.5 1303.34,-644.5 1329.77,-644.5"/>
<polygon fill="midnightblue" stroke="midnightblue" points="1329.91,-648 1339.91,-644.5 1329.91,-641 1329.91,-648"/>
</g>
<!-- Node9 -->
<g id="node9" class="node"><title>Node9</title>
<g id="a_node9"><a xlink:href="utoa__invert_8cpp.html#a5d99bba8e697c1e11da489d88fca8559" target="_top" xlink:title="ultoa_invert">
<polygon fill="white" stroke="black" points="1341,-597 1341,-616 1408,-616 1408,-597 1341,-597"/>
<text text-anchor="middle" x="1374.5" y="-604" font-family="Helvetica,sans-Serif" font-size="10.00">ultoa_invert</text>
</a>
</g>
</g>
<!-- Node4&#45;&gt;Node9 -->
<g id="edge8" class="edge"><title>Node4&#45;&gt;Node9</title>
<path fill="none" stroke="midnightblue" d="M1245.86,-636.626C1270.52,-630.805 1304.31,-622.832 1330.92,-616.55"/>
<polygon fill="midnightblue" stroke="midnightblue" points="1331.81,-619.937 1340.73,-614.234 1330.2,-613.124 1331.81,-619.937"/>
</g>
<!-- Node11 -->
<g id="node11" class="node"><title>Node11</title>
<g id="a_node11"><a xlink:href="classLinux_1_1Scheduler.html#a53ecaae0fdc72f85bd57c4b0cff93653" target="_top" xlink:title="Linux::Scheduler::from">
<polygon fill="white" stroke="black" points="312,-341 312,-360 427,-360 427,-341 312,-341"/>
<text text-anchor="middle" x="369.5" y="-348" font-family="Helvetica,sans-Serif" font-size="10.00">Linux::Scheduler::from</text>
</a>
</g>
</g>
<!-- Node10&#45;&gt;Node11 -->
<g id="edge10" class="edge"><title>Node10&#45;&gt;Node11</title>
<path fill="none" stroke="midnightblue" d="M235.383,-207.071C258.892,-232.401 322.971,-301.444 352.816,-333.601"/>
<polygon fill="midnightblue" stroke="midnightblue" points="350.253,-335.984 359.621,-340.933 355.383,-331.222 350.253,-335.984"/>
</g>
<!-- Node25 -->
<g id="node25" class="node"><title>Node25</title>
<g id="a_node25"><a xlink:href="classLinux_1_1Scheduler.html#a682b4c34f330f66db5ab4aa5d96e13f9" target="_top" xlink:title="Linux::Scheduler::stopped\l_clock_usec">
<polygon fill="white" stroke="black" points="974,-0.5 974,-30.5 1104,-30.5 1104,-0.5 974,-0.5"/>
<text text-anchor="start" x="982" y="-18.5" font-family="Helvetica,sans-Serif" font-size="10.00">Linux::Scheduler::stopped</text>
<text text-anchor="middle" x="1039" y="-7.5" font-family="Helvetica,sans-Serif" font-size="10.00">_clock_usec</text>
</a>
</g>
</g>
<!-- Node10&#45;&gt;Node25 -->
<g id="edge61" class="edge"><title>Node10&#45;&gt;Node25</title>
<path fill="none" stroke="midnightblue" d="M230.971,-187.672C241.69,-165.189 271.037,-109.629 312,-79.5 392.839,-20.0426 425.65,-7.5 526,-7.5 526,-7.5 526,-7.5 694,-7.5 787.094,-7.5 894.321,-10.4645 963.977,-12.7842"/>
<polygon fill="midnightblue" stroke="midnightblue" points="963.863,-16.2823 973.976,-13.1214 964.099,-9.28627 963.863,-16.2823"/>
</g>
<!-- Node12 -->
<g id="node12" class="node"><title>Node12</title>
<g id="a_node12"><a xlink:href="classLinux_1_1Scheduler.html#a3d77c332e051c28c83fb07757e7100bd" target="_top" xlink:title="Linux::Scheduler::init">
<polygon fill="white" stroke="black" points="473,-417 473,-436 581,-436 581,-417 473,-417"/>
<text text-anchor="middle" x="527" y="-424" font-family="Helvetica,sans-Serif" font-size="10.00">Linux::Scheduler::init</text>
</a>
</g>
</g>
<!-- Node11&#45;&gt;Node12 -->
<g id="edge11" class="edge"><title>Node11&#45;&gt;Node12</title>
<path fill="none" stroke="midnightblue" d="M383.678,-360.155C401.09,-372.544 433.065,-394.039 463,-407.5 468.014,-409.755 473.37,-411.833 478.761,-413.722"/>
<polygon fill="midnightblue" stroke="midnightblue" points="477.844,-417.105 488.437,-416.914 480.037,-410.457 477.844,-417.105"/>
</g>
<!-- Node22 -->
<g id="node22" class="node"><title>Node22</title>
<g id="a_node22"><a xlink:href="classLinux_1_1Scheduler.html#a02a34a123dfebaf360f7010745e1e646" target="_top" xlink:title="Linux::Scheduler::register\l_timer_process">
<polygon fill="white" stroke="black" points="629,-493.5 629,-523.5 757,-523.5 757,-493.5 629,-493.5"/>
<text text-anchor="start" x="637" y="-511.5" font-family="Helvetica,sans-Serif" font-size="10.00">Linux::Scheduler::register</text>
<text text-anchor="middle" x="693" y="-500.5" font-family="Helvetica,sans-Serif" font-size="10.00">_timer_process</text>
</a>
</g>
</g>
<!-- Node11&#45;&gt;Node22 -->
<g id="edge41" class="edge"><title>Node11&#45;&gt;Node22</title>
<path fill="none" stroke="midnightblue" d="M374.303,-360.289C384.449,-384.951 414.724,-449.716 463,-478.5 509.684,-506.335 571.136,-513.103 618.626,-513.311"/>
<polygon fill="midnightblue" stroke="midnightblue" points="618.862,-516.81 628.844,-513.257 618.825,-509.81 618.862,-516.81"/>
</g>
<!-- Node33 -->
<g id="node33" class="node"><title>Node33</title>
<g id="a_node33"><a xlink:href="classLinux_1_1Scheduler.html#a14f3239ecbb9889823b20dc9de655c2f" target="_top" xlink:title="Linux::Scheduler::delay">
<polygon fill="white" stroke="black" points="633.5,-367 633.5,-386 752.5,-386 752.5,-367 633.5,-367"/>
<text text-anchor="middle" x="693" y="-374" font-family="Helvetica,sans-Serif" font-size="10.00">Linux::Scheduler::delay</text>
</a>
</g>
</g>
<!-- Node11&#45;&gt;Node33 -->
<g id="edge35" class="edge"><title>Node11&#45;&gt;Node33</title>
<path fill="none" stroke="midnightblue" d="M427.238,-355.088C481.911,-359.51 564.715,-366.206 623.138,-370.931"/>
<polygon fill="midnightblue" stroke="midnightblue" points="623.136,-374.442 633.386,-371.76 623.701,-367.465 623.136,-374.442"/>
</g>
<!-- Node34 -->
<g id="node34" class="node"><title>Node34</title>
<g id="a_node34"><a xlink:href="classLinux_1_1Scheduler.html#a4cffd5bcba0175bf49c7aa75ff3bf09a" target="_top" xlink:title="Linux::Scheduler::delay\l_microseconds">
<polygon fill="white" stroke="black" points="807,-464.5 807,-494.5 926,-494.5 926,-464.5 807,-464.5"/>
<text text-anchor="start" x="815" y="-482.5" font-family="Helvetica,sans-Serif" font-size="10.00">Linux::Scheduler::delay</text>
<text text-anchor="middle" x="866.5" y="-471.5" font-family="Helvetica,sans-Serif" font-size="10.00">_microseconds</text>
</a>
</g>
</g>
<!-- Node11&#45;&gt;Node34 -->
<g id="edge38" class="edge"><title>Node11&#45;&gt;Node34</title>
<path fill="none" stroke="midnightblue" d="M376.442,-360.224C389.325,-380.311 421.999,-426.122 463,-445.5 520.332,-472.596 697.534,-478.377 796.63,-479.435"/>
<polygon fill="midnightblue" stroke="midnightblue" points="796.816,-482.937 806.848,-479.531 796.882,-475.937 796.816,-482.937"/>
</g>
<!-- Node35 -->
<g id="node35" class="node"><title>Node35</title>
<g id="a_node35"><a xlink:href="classLinux_1_1Scheduler.html#a5cb50b637d5fd3e5f9220bc23db0fb3f" target="_top" xlink:title="Linux::Scheduler::register\l_delay_callback">
<polygon fill="white" stroke="black" points="463,-203.5 463,-233.5 591,-233.5 591,-203.5 463,-203.5"/>
<text text-anchor="start" x="471" y="-221.5" font-family="Helvetica,sans-Serif" font-size="10.00">Linux::Scheduler::register</text>
<text text-anchor="middle" x="527" y="-210.5" font-family="Helvetica,sans-Serif" font-size="10.00">_delay_callback</text>
</a>
</g>
</g>
<!-- Node11&#45;&gt;Node35 -->
<g id="edge40" class="edge"><title>Node11&#45;&gt;Node35</title>
<path fill="none" stroke="midnightblue" d="M377.165,-340.924C391.153,-321.395 425.399,-276.456 463,-248.5 468.04,-244.753 473.623,-241.293 479.321,-238.158"/>
<polygon fill="midnightblue" stroke="midnightblue" points="481.039,-241.21 488.31,-233.504 477.821,-234.993 481.039,-241.21"/>
</g>
<!-- Node36 -->
<g id="node36" class="node"><title>Node36</title>
<g id="a_node36"><a xlink:href="classLinux_1_1Scheduler.html#aa2be97cb8686d72cc322fb38f69a940c" target="_top" xlink:title="Linux::Scheduler::register\l_io_process">
<polygon fill="white" stroke="black" points="463,-629.5 463,-659.5 591,-659.5 591,-629.5 463,-629.5"/>
<text text-anchor="start" x="471" y="-647.5" font-family="Helvetica,sans-Serif" font-size="10.00">Linux::Scheduler::register</text>
<text text-anchor="middle" x="527" y="-636.5" font-family="Helvetica,sans-Serif" font-size="10.00">_io_process</text>
</a>
</g>
</g>
<!-- Node11&#45;&gt;Node36 -->
<g id="edge42" class="edge"><title>Node11&#45;&gt;Node36</title>
<path fill="none" stroke="midnightblue" d="M371.005,-360.04C373.523,-398.086 387.813,-540.728 463,-619.5 464.371,-620.936 465.835,-622.292 467.374,-623.571"/>
<polygon fill="midnightblue" stroke="midnightblue" points="465.411,-626.47 475.607,-629.352 469.434,-620.741 465.411,-626.47"/>
</g>
<!-- Node37 -->
<g id="node37" class="node"><title>Node37</title>
<g id="a_node37"><a xlink:href="classLinux_1_1Scheduler.html#abba967d02c28cb0b16a7cebbff9bc6d6" target="_top" xlink:title="Linux::Scheduler::suspend\l_timer_procs">
<polygon fill="white" stroke="black" points="627,-74.5 627,-104.5 759,-104.5 759,-74.5 627,-74.5"/>
<text text-anchor="start" x="635" y="-92.5" font-family="Helvetica,sans-Serif" font-size="10.00">Linux::Scheduler::suspend</text>
<text text-anchor="middle" x="693" y="-81.5" font-family="Helvetica,sans-Serif" font-size="10.00">_timer_procs</text>
</a>
</g>
</g>
<!-- Node11&#45;&gt;Node37 -->
<g id="edge44" class="edge"><title>Node11&#45;&gt;Node37</title>
<path fill="none" stroke="midnightblue" d="M370.713,-340.87C372.118,-303.234 382.758,-165.216 463,-105.5 506.43,-73.1797 568.247,-70.6539 616.709,-75.4036"/>
<polygon fill="midnightblue" stroke="midnightblue" points="616.513,-78.9031 626.837,-76.5195 617.28,-71.9452 616.513,-78.9031"/>
</g>
<!-- Node40 -->
<g id="node40" class="node"><title>Node40</title>
<g id="a_node40"><a xlink:href="classLinux_1_1Scheduler.html#aee4e701b92cb4721c4de1bfcdcded70c" target="_top" xlink:title="Linux::Scheduler::resume\l_timer_procs">
<polygon fill="white" stroke="black" points="629,-172.5 629,-202.5 757,-202.5 757,-172.5 629,-172.5"/>
<text text-anchor="start" x="637" y="-190.5" font-family="Helvetica,sans-Serif" font-size="10.00">Linux::Scheduler::resume</text>
<text text-anchor="middle" x="693" y="-179.5" font-family="Helvetica,sans-Serif" font-size="10.00">_timer_procs</text>
</a>
</g>
</g>
<!-- Node11&#45;&gt;Node40 -->
<g id="edge49" class="edge"><title>Node11&#45;&gt;Node40</title>
<path fill="none" stroke="midnightblue" d="M372.738,-340.792C379.941,-312.066 405.483,-227.377 463,-193.5 509.629,-166.036 571.387,-166.072 619.016,-172.134"/>
<polygon fill="midnightblue" stroke="midnightblue" points="618.569,-175.606 628.955,-173.511 619.53,-168.672 618.569,-175.606"/>
</g>
<!-- Node42 -->
<g id="node42" class="node"><title>Node42</title>
<g id="a_node42"><a xlink:href="classLinux_1_1Scheduler.html#af23753e7c6bfa97553db215a64235455" target="_top" xlink:title="Linux::Scheduler::in\l_timerprocess">
<polygon fill="white" stroke="black" points="475.5,-580.5 475.5,-610.5 578.5,-610.5 578.5,-580.5 475.5,-580.5"/>
<text text-anchor="start" x="483.5" y="-598.5" font-family="Helvetica,sans-Serif" font-size="10.00">Linux::Scheduler::in</text>
<text text-anchor="middle" x="527" y="-587.5" font-family="Helvetica,sans-Serif" font-size="10.00">_timerprocess</text>
</a>
</g>
</g>
<!-- Node11&#45;&gt;Node42 -->
<g id="edge51" class="edge"><title>Node11&#45;&gt;Node42</title>
<path fill="none" stroke="midnightblue" d="M371.888,-360.347C377.173,-394.304 399.08,-507.861 463,-570.5 464.605,-572.073 466.321,-573.55 468.122,-574.937"/>
<polygon fill="midnightblue" stroke="midnightblue" points="466.215,-577.872 476.489,-580.459 470.071,-572.029 466.215,-577.872"/>
</g>
<!-- Node43 -->
<g id="node43" class="node"><title>Node43</title>
<g id="a_node43"><a xlink:href="classLinux_1_1Scheduler.html#ac193459e3575c7a0588fdc72250c2044" target="_top" xlink:title="Linux::Scheduler::register\l_timer_failsafe">
<polygon fill="white" stroke="black" points="463,-531.5 463,-561.5 591,-561.5 591,-531.5 463,-531.5"/>
<text text-anchor="start" x="471" y="-549.5" font-family="Helvetica,sans-Serif" font-size="10.00">Linux::Scheduler::register</text>
<text text-anchor="middle" x="527" y="-538.5" font-family="Helvetica,sans-Serif" font-size="10.00">_timer_failsafe</text>
</a>
</g>
</g>
<!-- Node11&#45;&gt;Node43 -->
<g id="edge52" class="edge"><title>Node11&#45;&gt;Node43</title>
<path fill="none" stroke="midnightblue" d="M373.492,-360.062C382.596,-387.763 412.468,-469.101 463,-516.5 466.823,-520.086 471.153,-523.316 475.71,-526.21"/>
<polygon fill="midnightblue" stroke="midnightblue" points="474.264,-529.415 484.678,-531.362 477.751,-523.346 474.264,-529.415"/>
</g>
<!-- Node44 -->
<g id="node44" class="node"><title>Node44</title>
<g id="a_node44"><a xlink:href="classLinux_1_1Scheduler.html#ad6070a7ee637adf5101b1e6b6efbf8f6" target="_top" xlink:title="Linux::Scheduler::system\l_initialized">
<polygon fill="white" stroke="black" points="463,-291.5 463,-321.5 591,-321.5 591,-291.5 463,-291.5"/>
<text text-anchor="start" x="471" y="-309.5" font-family="Helvetica,sans-Serif" font-size="10.00">Linux::Scheduler::system</text>
<text text-anchor="middle" x="527" y="-298.5" font-family="Helvetica,sans-Serif" font-size="10.00">_initialized</text>
</a>
</g>
</g>
<!-- Node11&#45;&gt;Node44 -->
<g id="edge53" class="edge"><title>Node11&#45;&gt;Node44</title>
<path fill="none" stroke="midnightblue" d="M404.241,-340.953C421.436,-336.087 442.913,-330.01 463.021,-324.32"/>
<polygon fill="midnightblue" stroke="midnightblue" points="464.088,-327.656 472.758,-321.565 462.182,-320.92 464.088,-327.656"/>
</g>
<!-- Node46 -->
<g id="node46" class="node"><title>Node46</title>
<g id="a_node46"><a xlink:href="classLinux_1_1Scheduler.html#ae72cfa66c849ffd882ef518c35c71e69" target="_top" xlink:title="Linux::Scheduler::reboot">
<polygon fill="white" stroke="black" points="466,-379 466,-398 588,-398 588,-379 466,-379"/>
<text text-anchor="middle" x="527" y="-386" font-family="Helvetica,sans-Serif" font-size="10.00">Linux::Scheduler::reboot</text>
</a>
</g>
</g>
<!-- Node11&#45;&gt;Node46 -->
<g id="edge56" class="edge"><title>Node11&#45;&gt;Node46</title>
<path fill="none" stroke="midnightblue" d="M409.739,-360.089C430.259,-365.104 455.567,-371.288 477.325,-376.605"/>
<polygon fill="midnightblue" stroke="midnightblue" points="476.498,-380.006 487.043,-378.98 478.16,-373.206 476.498,-380.006"/>
</g>
<!-- Node47 -->
<g id="node47" class="node"><title>Node47</title>
<g id="a_node47"><a xlink:href="classLinux_1_1Scheduler.html#a392aebafcdfe9a812e4db4b7a9dcce9c" target="_top" xlink:title="Linux::Scheduler::stop\l_clock">
<polygon fill="white" stroke="black" points="470,-115.5 470,-145.5 584,-145.5 584,-115.5 470,-115.5"/>
<text text-anchor="start" x="478" y="-133.5" font-family="Helvetica,sans-Serif" font-size="10.00">Linux::Scheduler::stop</text>
<text text-anchor="middle" x="527" y="-122.5" font-family="Helvetica,sans-Serif" font-size="10.00">_clock</text>
</a>
</g>
</g>
<!-- Node11&#45;&gt;Node47 -->
<g id="edge57" class="edge"><title>Node11&#45;&gt;Node47</title>
<path fill="none" stroke="midnightblue" d="M372.755,-340.876C380.322,-310.515 407.505,-215.517 463,-160.5 466.67,-156.862 470.866,-153.603 475.311,-150.699"/>
<polygon fill="midnightblue" stroke="midnightblue" points="477.241,-153.624 484.092,-145.543 473.697,-147.588 477.241,-153.624"/>
</g>
<!-- Node13 -->
<g id="node13" class="node"><title>Node13</title>
<g id="a_node13"><a xlink:href="namespaceAP__HAL.html#a71832f03d849a0c088f04fc98d3c8143" target="_top" xlink:title="AP_HAL::panic">
<polygon fill="white" stroke="black" points="651,-329 651,-348 735,-348 735,-329 651,-329"/>
<text text-anchor="middle" x="693" y="-336" font-family="Helvetica,sans-Serif" font-size="10.00">AP_HAL::panic</text>
</a>
</g>
</g>
<!-- Node12&#45;&gt;Node13 -->
<g id="edge12" class="edge"><title>Node12&#45;&gt;Node13</title>
<path fill="none" stroke="midnightblue" d="M573.085,-416.892C579.423,-414.429 585.607,-411.349 591,-407.5 613.289,-391.593 604.643,-373.312 627,-357.5 631.439,-354.36 636.396,-351.735 641.539,-349.54"/>
<polygon fill="midnightblue" stroke="midnightblue" points="642.779,-352.813 650.924,-346.038 640.332,-346.255 642.779,-352.813"/>
</g>
<!-- Node12&#45;&gt;Node22 -->
<g id="edge21" class="edge"><title>Node12&#45;&gt;Node22</title>
<path fill="none" stroke="midnightblue" d="M547.134,-436.067C572.93,-448.965 619.47,-472.235 652.844,-488.922"/>
<polygon fill="midnightblue" stroke="midnightblue" points="651.37,-492.098 661.88,-493.44 654.501,-485.837 651.37,-492.098"/>
</g>
<!-- Node23 -->
<g id="node23" class="node"><title>Node23</title>
<g id="a_node23"><a xlink:href="classLinux_1_1Scheduler.html#a163eb7b285c95b1b1d036fc61d723910" target="_top" xlink:title="Linux::Scheduler::\l_debug_stack">
<polygon fill="white" stroke="black" points="645.5,-405.5 645.5,-435.5 740.5,-435.5 740.5,-405.5 645.5,-405.5"/>
<text text-anchor="start" x="653.5" y="-423.5" font-family="Helvetica,sans-Serif" font-size="10.00">Linux::Scheduler::</text>
<text text-anchor="middle" x="693" y="-412.5" font-family="Helvetica,sans-Serif" font-size="10.00">_debug_stack</text>
</a>
</g>
</g>
<!-- Node12&#45;&gt;Node23 -->
<g id="edge23" class="edge"><title>Node12&#45;&gt;Node23</title>
<path fill="none" stroke="midnightblue" d="M581.246,-424.552C598.525,-423.92 617.754,-423.216 635.276,-422.575"/>
<polygon fill="midnightblue" stroke="midnightblue" points="635.503,-426.069 645.368,-422.206 635.247,-419.074 635.503,-426.069"/>
</g>
<!-- Node14 -->
<g id="node14" class="node"><title>Node14</title>
<g id="a_node14"><a xlink:href="classAP__HAL_1_1RCInput.html#a2bea13d38f2b9ae8bf5193a3a69f0a31" target="_top" xlink:title="AP_HAL::RCInput::teardown">
<polygon fill="white" stroke="black" points="795,-317 795,-336 938,-336 938,-317 795,-317"/>
<text text-anchor="middle" x="866.5" y="-324" font-family="Helvetica,sans-Serif" font-size="10.00">AP_HAL::RCInput::teardown</text>
</a>
</g>
</g>
<!-- Node13&#45;&gt;Node14 -->
<g id="edge13" class="edge"><title>Node13&#45;&gt;Node14</title>
<path fill="none" stroke="midnightblue" d="M735.079,-335.626C750.072,-334.577 767.594,-333.351 784.84,-332.144"/>
<polygon fill="midnightblue" stroke="midnightblue" points="785.21,-335.627 794.941,-331.437 784.721,-328.644 785.21,-335.627"/>
</g>
<!-- Node21 -->
<g id="node21" class="node"><title>Node21</title>
<g id="a_node21"><a xlink:href="classAP__HAL_1_1Scheduler.html#a78c4f1b1f192ac1c99544b6cc8f099b0" target="_top" xlink:title="AP_HAL::Scheduler::\ldelay_microseconds">
<polygon fill="white" stroke="black" points="984,-98.5 984,-128.5 1094,-128.5 1094,-98.5 984,-98.5"/>
<text text-anchor="start" x="992" y="-116.5" font-family="Helvetica,sans-Serif" font-size="10.00">AP_HAL::Scheduler::</text>
<text text-anchor="middle" x="1039" y="-105.5" font-family="Helvetica,sans-Serif" font-size="10.00">delay_microseconds</text>
</a>
</g>
</g>
<!-- Node13&#45;&gt;Node21 -->
<g id="edge20" class="edge"><title>Node13&#45;&gt;Node21</title>
<path fill="none" stroke="midnightblue" d="M725.003,-328.953C753.383,-320.219 791.495,-308.503 795,-307.5 858.223,-289.404 891.348,-315.848 938,-269.5 981.139,-226.642 933.036,-182.441 974,-137.5 974.877,-136.538 975.796,-135.614 976.752,-134.728"/>
<polygon fill="midnightblue" stroke="midnightblue" points="978.91,-137.483 984.724,-128.626 974.656,-131.925 978.91,-137.483"/>
</g>
<!-- Node15 -->
<g id="node15" class="node"><title>Node15</title>
<g id="a_node15"><a xlink:href="classAP__HAL_1_1RCInput.html#aee1fade33080edef83dd7db0fad0f7da" target="_top" xlink:title="AP_HAL::RCInput::new\l_input">
<polygon fill="white" stroke="black" points="978,-333.5 978,-363.5 1100,-363.5 1100,-333.5 978,-333.5"/>
<text text-anchor="start" x="986" y="-351.5" font-family="Helvetica,sans-Serif" font-size="10.00">AP_HAL::RCInput::new</text>
<text text-anchor="middle" x="1039" y="-340.5" font-family="Helvetica,sans-Serif" font-size="10.00">_input</text>
</a>
</g>
</g>
<!-- Node14&#45;&gt;Node15 -->
<g id="edge14" class="edge"><title>Node14&#45;&gt;Node15</title>
<path fill="none" stroke="midnightblue" d="M938.326,-335.639C948.104,-336.901 958.144,-338.196 967.909,-339.456"/>
<polygon fill="midnightblue" stroke="midnightblue" points="967.597,-342.945 977.963,-340.753 968.493,-336.002 967.597,-342.945"/>
</g>
<!-- Node16 -->
<g id="node16" class="node"><title>Node16</title>
<g id="a_node16"><a xlink:href="classAP__HAL_1_1RCInput.html#ae55f959c6115c1f41783af3a2b6c4fcd" target="_top" xlink:title="AP_HAL::RCInput::num\l_channels">
<polygon fill="white" stroke="black" points="978,-284.5 978,-314.5 1100,-314.5 1100,-284.5 978,-284.5"/>
<text text-anchor="start" x="986" y="-302.5" font-family="Helvetica,sans-Serif" font-size="10.00">AP_HAL::RCInput::num</text>
<text text-anchor="middle" x="1039" y="-291.5" font-family="Helvetica,sans-Serif" font-size="10.00">_channels</text>
</a>
</g>
</g>
<!-- Node14&#45;&gt;Node16 -->
<g id="edge15" class="edge"><title>Node14&#45;&gt;Node16</title>
<path fill="none" stroke="midnightblue" d="M927.612,-316.981C940.6,-314.924 954.443,-312.732 967.779,-310.62"/>
<polygon fill="midnightblue" stroke="midnightblue" points="968.527,-314.045 977.856,-309.024 967.432,-307.131 968.527,-314.045"/>
</g>
<!-- Node17 -->
<g id="node17" class="node"><title>Node17</title>
<g id="a_node17"><a xlink:href="classAP__HAL_1_1RCInput.html#a078fd7e6d2e6a899009ec674a8e03498" target="_top" xlink:title="AP_HAL::RCInput::read">
<polygon fill="white" stroke="black" points="978,-246 978,-265 1100,-265 1100,-246 978,-246"/>
<text text-anchor="middle" x="1039" y="-253" font-family="Helvetica,sans-Serif" font-size="10.00">AP_HAL::RCInput::read</text>
</a>
</g>
</g>
<!-- Node14&#45;&gt;Node17 -->
<g id="edge16" class="edge"><title>Node14&#45;&gt;Node17</title>
<path fill="none" stroke="midnightblue" d="M902.891,-316.998C914.43,-313.24 927.075,-308.392 938,-302.5 955.841,-292.879 955.973,-283.767 974,-274.5 978.346,-272.266 982.995,-270.253 987.732,-268.448"/>
<polygon fill="midnightblue" stroke="midnightblue" points="989.219,-271.636 997.504,-265.032 986.909,-265.028 989.219,-271.636"/>
</g>
<!-- Node18 -->
<g id="node18" class="node"><title>Node18</title>
<g id="a_node18"><a xlink:href="classAP__HAL_1_1RCInput.html#a0989c5ca271631fe655c047d4a022a3d" target="_top" xlink:title="AP_HAL::RCInput::set\l_overrides">
<polygon fill="white" stroke="black" points="980.5,-196.5 980.5,-226.5 1097.5,-226.5 1097.5,-196.5 980.5,-196.5"/>
<text text-anchor="start" x="988.5" y="-214.5" font-family="Helvetica,sans-Serif" font-size="10.00">AP_HAL::RCInput::set</text>
<text text-anchor="middle" x="1039" y="-203.5" font-family="Helvetica,sans-Serif" font-size="10.00">_overrides</text>
</a>
</g>
</g>
<!-- Node14&#45;&gt;Node18 -->
<g id="edge17" class="edge"><title>Node14&#45;&gt;Node18</title>
<path fill="none" stroke="midnightblue" d="M911.9,-316.976C921.216,-313.515 930.483,-308.829 938,-302.5 963.56,-280.98 948.922,-258.58 974,-236.5 975.919,-234.81 977.966,-233.228 980.105,-231.747"/>
<polygon fill="midnightblue" stroke="midnightblue" points="981.994,-234.695 988.741,-226.527 978.373,-228.705 981.994,-234.695"/>
</g>
<!-- Node19 -->
<g id="node19" class="node"><title>Node19</title>
<g id="a_node19"><a xlink:href="classAP__HAL_1_1RCInput.html#abfd037ca0989a0422a60f418d34eb7d5" target="_top" xlink:title="AP_HAL::RCInput::set\l_override">
<polygon fill="white" stroke="black" points="980.5,-147.5 980.5,-177.5 1097.5,-177.5 1097.5,-147.5 980.5,-147.5"/>
<text text-anchor="start" x="988.5" y="-165.5" font-family="Helvetica,sans-Serif" font-size="10.00">AP_HAL::RCInput::set</text>
<text text-anchor="middle" x="1039" y="-154.5" font-family="Helvetica,sans-Serif" font-size="10.00">_override</text>
</a>
</g>
</g>
<!-- Node14&#45;&gt;Node19 -->
<g id="edge18" class="edge"><title>Node14&#45;&gt;Node19</title>
<path fill="none" stroke="midnightblue" d="M915.799,-316.875C924.02,-313.448 931.868,-308.801 938,-302.5 975.648,-263.814 936.949,-225.758 974,-186.5 974.916,-185.529 975.876,-184.597 976.873,-183.703"/>
<polygon fill="midnightblue" stroke="midnightblue" points="979.214,-186.323 985.157,-177.553 975.042,-180.703 979.214,-186.323"/>
</g>
<!-- Node20 -->
<g id="node20" class="node"><title>Node20</title>
<g id="a_node20"><a xlink:href="classAP__HAL_1_1RCInput.html#ab3671bbe43fdb97c53071d7832ac256e" target="_top" xlink:title="AP_HAL::RCInput::clear\l_overrides">
<polygon fill="white" stroke="black" points="976.5,-382.5 976.5,-412.5 1101.5,-412.5 1101.5,-382.5 976.5,-382.5"/>
<text text-anchor="start" x="984.5" y="-400.5" font-family="Helvetica,sans-Serif" font-size="10.00">AP_HAL::RCInput::clear</text>
<text text-anchor="middle" x="1039" y="-389.5" font-family="Helvetica,sans-Serif" font-size="10.00">_overrides</text>
</a>
</g>
</g>
<!-- Node14&#45;&gt;Node20 -->
<g id="edge19" class="edge"><title>Node14&#45;&gt;Node20</title>
<path fill="none" stroke="midnightblue" d="M889.027,-336.063C910.472,-345.527 944.382,-360.323 974,-372.5 978.841,-374.49 983.902,-376.532 988.966,-378.55"/>
<polygon fill="midnightblue" stroke="midnightblue" points="988.064,-381.958 998.651,-382.382 990.639,-375.448 988.064,-381.958"/>
</g>
<!-- Node22&#45;&gt;Node2 -->
<g id="edge22" class="edge"><title>Node22&#45;&gt;Node2</title>
<path fill="none" stroke="midnightblue" d="M713.009,-523.574C743.528,-547.776 803.565,-595.385 838.513,-623.099"/>
<polygon fill="midnightblue" stroke="midnightblue" points="836.396,-625.887 846.406,-629.358 840.745,-620.403 836.396,-625.887"/>
</g>
<!-- Node24 -->
<g id="node24" class="node"><title>Node24</title>
<g id="a_node24"><a xlink:href="namespaceAP__HAL.html#a59336c5fceaf28a76d1df1581a87a25d" target="_top" xlink:title="AP_HAL::millis64">
<polygon fill="white" stroke="black" points="819.5,-241 819.5,-260 913.5,-260 913.5,-241 819.5,-241"/>
<text text-anchor="middle" x="866.5" y="-248" font-family="Helvetica,sans-Serif" font-size="10.00">AP_HAL::millis64</text>
</a>
</g>
</g>
<!-- Node23&#45;&gt;Node24 -->
<g id="edge24" class="edge"><title>Node23&#45;&gt;Node24</title>
<path fill="none" stroke="midnightblue" d="M740.514,-408.063C747.281,-404.78 753.73,-400.66 759,-395.5 789.195,-365.937 769.778,-341.404 795,-307.5 807.448,-290.767 825.896,-276.086 840.799,-265.815"/>
<polygon fill="midnightblue" stroke="midnightblue" points="843.143,-268.46 849.535,-260.011 839.269,-262.63 843.143,-268.46"/>
</g>
<!-- Node30 -->
<g id="node30" class="node"><title>Node30</title>
<g id="a_node30"><a xlink:href="classLinux_1_1Thread.html#a6884970a0811ae21953c57fb98aa6e96" target="_top" xlink:title="Linux::Thread::get\l_stack_usage">
<polygon fill="white" stroke="black" points="1627,-480.5 1627,-510.5 1722,-510.5 1722,-480.5 1627,-480.5"/>
<text text-anchor="start" x="1635" y="-498.5" font-family="Helvetica,sans-Serif" font-size="10.00">Linux::Thread::get</text>
<text text-anchor="middle" x="1674.5" y="-487.5" font-family="Helvetica,sans-Serif" font-size="10.00">_stack_usage</text>
</a>
</g>
</g>
<!-- Node23&#45;&gt;Node30 -->
<g id="edge34" class="edge"><title>Node23&#45;&gt;Node30</title>
<path fill="none" stroke="midnightblue" d="M706.88,-435.69C724.509,-455.275 758.189,-488.584 795,-503.5 895.433,-544.198 929.635,-523.5 1038,-523.5 1038,-523.5 1038,-523.5 1375.5,-523.5 1459.87,-523.5 1557.08,-512.238 1616.92,-503.999"/>
<polygon fill="midnightblue" stroke="midnightblue" points="1617.5,-507.452 1626.92,-502.602 1616.53,-500.519 1617.5,-507.452"/>
</g>
<!-- Node24&#45;&gt;Node11 -->
<g id="edge25" class="edge"><title>Node24&#45;&gt;Node11</title>
<path fill="none" stroke="midnightblue" d="M819.362,-245.939C742.648,-240.108 585.218,-235.653 463,-281.5 433.016,-292.748 404.413,-316.85 387.156,-333.369"/>
<polygon fill="midnightblue" stroke="midnightblue" points="384.304,-331.267 379.64,-340.78 389.218,-336.252 384.304,-331.267"/>
</g>
<!-- Node24&#45;&gt;Node25 -->
<g id="edge26" class="edge"><title>Node24&#45;&gt;Node25</title>
<path fill="none" stroke="midnightblue" d="M881.402,-240.894C897.485,-229.037 923.595,-207.368 938,-182.5 970.851,-125.789 930.327,-88.3672 974,-39.5 974.867,-38.5295 975.778,-37.5981 976.726,-36.7042"/>
<polygon fill="midnightblue" stroke="midnightblue" points="978.892,-39.4535 984.651,-30.5604 974.603,-33.9213 978.892,-39.4535"/>
</g>
<!-- Node26 -->
<g id="node26" class="node"><title>Node26</title>
<g id="a_node26"><a xlink:href="classLinux_1_1Scheduler.html#a647872aff158b510c56862f51f951538" target="_top" xlink:title="Linux::Scheduler::microsleep">
<polygon fill="white" stroke="black" points="1140,-432 1140,-451 1283,-451 1283,-432 1140,-432"/>
<text text-anchor="middle" x="1211.5" y="-439" font-family="Helvetica,sans-Serif" font-size="10.00">Linux::Scheduler::microsleep</text>
</a>
</g>
</g>
<!-- Node25&#45;&gt;Node26 -->
<g id="edge27" class="edge"><title>Node25&#45;&gt;Node26</title>
<path fill="none" stroke="midnightblue" d="M1093.87,-30.5683C1097.64,-33.0978 1101.09,-36.0514 1104,-39.5 1159.1,-104.895 1118.52,-145.732 1140,-228.5 1158.88,-301.249 1189.35,-385.338 1203.21,-422.344"/>
<polygon fill="midnightblue" stroke="midnightblue" points="1200,-423.748 1206.81,-431.87 1206.55,-421.278 1200,-423.748"/>
</g>
<!-- Node27 -->
<g id="node27" class="node"><title>Node27</title>
<g id="a_node27"><a xlink:href="classLinux_1_1Scheduler.html#ab373a83d818679432520ea881044b2a7" target="_top" xlink:title="Linux::Scheduler::teardown">
<polygon fill="white" stroke="black" points="1144,-200 1144,-219 1279,-219 1279,-200 1144,-200"/>
<text text-anchor="middle" x="1211.5" y="-207" font-family="Helvetica,sans-Serif" font-size="10.00">Linux::Scheduler::teardown</text>
</a>
</g>
</g>
<!-- Node25&#45;&gt;Node27 -->
<g id="edge28" class="edge"><title>Node25&#45;&gt;Node27</title>
<path fill="none" stroke="midnightblue" d="M1090.33,-30.651C1095.21,-33.1895 1099.86,-36.1217 1104,-39.5 1155.58,-81.6313 1189.52,-155.671 1203.4,-190.445"/>
<polygon fill="midnightblue" stroke="midnightblue" points="1200.19,-191.836 1207.06,-199.898 1206.71,-189.308 1200.19,-191.836"/>
</g>
<!-- Node28 -->
<g id="node28" class="node"><title>Node28</title>
<g id="a_node28"><a xlink:href="classLinux_1_1PeriodicThread.html#a136aaf6e713f63b246fc4a2905e6e9a1" target="_top" xlink:title="Linux::PeriodicThread\l::stop">
<polygon fill="white" stroke="black" points="1319,-348.5 1319,-378.5 1430,-378.5 1430,-348.5 1319,-348.5"/>
<text text-anchor="start" x="1327" y="-366.5" font-family="Helvetica,sans-Serif" font-size="10.00">Linux::PeriodicThread</text>
<text text-anchor="middle" x="1374.5" y="-355.5" font-family="Helvetica,sans-Serif" font-size="10.00">::stop</text>
</a>
</g>
</g>
<!-- Node27&#45;&gt;Node28 -->
<g id="edge29" class="edge"><title>Node27&#45;&gt;Node28</title>
<path fill="none" stroke="midnightblue" d="M1222.57,-219.133C1247.79,-243.253 1314.17,-306.753 1349.91,-340.94"/>
<polygon fill="midnightblue" stroke="midnightblue" points="1347.82,-343.781 1357.47,-348.164 1352.66,-338.723 1347.82,-343.781"/>
</g>
<!-- Node32 -->
<g id="node32" class="node"><title>Node32</title>
<g id="a_node32"><a xlink:href="classLinux_1_1Thread.html#a32b7d184279634922e2f3b23b584fbcd" target="_top" xlink:title="Linux::Thread::join">
<polygon fill="white" stroke="black" points="1326,-200 1326,-219 1423,-219 1423,-200 1326,-200"/>
<text text-anchor="middle" x="1374.5" y="-207" font-family="Helvetica,sans-Serif" font-size="10.00">Linux::Thread::join</text>
</a>
</g>
</g>
<!-- Node27&#45;&gt;Node32 -->
<g id="edge33" class="edge"><title>Node27&#45;&gt;Node32</title>
<path fill="none" stroke="midnightblue" d="M1279.38,-209.5C1291.41,-209.5 1303.85,-209.5 1315.6,-209.5"/>
<polygon fill="midnightblue" stroke="midnightblue" points="1315.72,-213 1325.72,-209.5 1315.72,-206 1315.72,-213"/>
</g>
<!-- Node29 -->
<g id="node29" class="node"><title>Node29</title>
<g id="a_node29"><a xlink:href="classLinux_1_1Thread.html#a240d7b48a9a8eb43638f67295a1819e5" target="_top" xlink:title="Linux::Thread::is_started">
<polygon fill="white" stroke="black" points="1466,-409 1466,-428 1591,-428 1591,-409 1466,-409"/>
<text text-anchor="middle" x="1528.5" y="-416" font-family="Helvetica,sans-Serif" font-size="10.00">Linux::Thread::is_started</text>
</a>
</g>
</g>
<!-- Node28&#45;&gt;Node29 -->
<g id="edge30" class="edge"><title>Node28&#45;&gt;Node29</title>
<path fill="none" stroke="midnightblue" d="M1417.03,-378.529C1440.31,-386.952 1469.06,-397.354 1491.39,-405.436"/>
<polygon fill="midnightblue" stroke="midnightblue" points="1490.26,-408.745 1500.85,-408.857 1492.64,-402.163 1490.26,-408.745"/>
</g>
<!-- Node29&#45;&gt;Node30 -->
<g id="edge31" class="edge"><title>Node29&#45;&gt;Node30</title>
<path fill="none" stroke="midnightblue" d="M1547.45,-428.096C1569.62,-439.956 1607.93,-460.437 1636.51,-475.719"/>
<polygon fill="midnightblue" stroke="midnightblue" points="1634.94,-478.851 1645.41,-480.48 1638.24,-472.678 1634.94,-478.851"/>
</g>
<!-- Node31 -->
<g id="node31" class="node"><title>Node31</title>
<g id="a_node31"><a xlink:href="classLinux_1_1Thread.html#a8d3282b714faaf68eae534e9276419f0" target="_top" xlink:title="Linux::Thread::set\l_stack_size">
<polygon fill="white" stroke="black" points="1627,-403.5 1627,-433.5 1722,-433.5 1722,-403.5 1627,-403.5"/>
<text text-anchor="start" x="1635" y="-421.5" font-family="Helvetica,sans-Serif" font-size="10.00">Linux::Thread::set</text>
<text text-anchor="middle" x="1674.5" y="-410.5" font-family="Helvetica,sans-Serif" font-size="10.00">_stack_size</text>
</a>
</g>
</g>
<!-- Node29&#45;&gt;Node31 -->
<g id="edge32" class="edge"><title>Node29&#45;&gt;Node31</title>
<path fill="none" stroke="midnightblue" d="M1591.4,-418.5C1599.86,-418.5 1608.5,-418.5 1616.86,-418.5"/>
<polygon fill="midnightblue" stroke="midnightblue" points="1616.87,-422 1626.87,-418.5 1616.87,-415 1616.87,-422"/>
</g>
<!-- Node33&#45;&gt;Node24 -->
<g id="edge36" class="edge"><title>Node33&#45;&gt;Node24</title>
<path fill="none" stroke="midnightblue" d="M740.849,-366.921C747.271,-364.458 753.529,-361.37 759,-357.5 781.357,-341.688 776.186,-327.396 795,-307.5 809.687,-291.968 828.633,-276.874 843.185,-266.124"/>
<polygon fill="midnightblue" stroke="midnightblue" points="845.556,-268.728 851.601,-260.027 841.449,-263.059 845.556,-268.728"/>
</g>
<!-- Node33&#45;&gt;Node26 -->
<g id="edge37" class="edge"><title>Node33&#45;&gt;Node26</title>
<path fill="none" stroke="midnightblue" d="M745.699,-386.001C801.764,-396.025 893.976,-411.7 974,-421.5 1025.71,-427.833 1084.03,-432.789 1129.82,-436.183"/>
<polygon fill="midnightblue" stroke="midnightblue" points="1129.76,-439.688 1139.99,-436.927 1130.27,-432.707 1129.76,-439.688"/>
</g>
<!-- Node34&#45;&gt;Node26 -->
<g id="edge39" class="edge"><title>Node34&#45;&gt;Node26</title>
<path fill="none" stroke="midnightblue" d="M926.353,-474.015C974.235,-469.435 1043.54,-462.541 1104,-455.5 1112.55,-454.505 1121.47,-453.414 1130.36,-452.293"/>
<polygon fill="midnightblue" stroke="midnightblue" points="1130.88,-455.755 1140.36,-451.02 1130,-448.811 1130.88,-455.755"/>
</g>
<!-- Node36&#45;&gt;Node2 -->
<g id="edge43" class="edge"><title>Node36&#45;&gt;Node2</title>
<path fill="none" stroke="midnightblue" d="M591.085,-644.5C650.242,-644.5 738.388,-644.5 798.717,-644.5"/>
<polygon fill="midnightblue" stroke="midnightblue" points="798.897,-648 808.897,-644.5 798.897,-641 798.897,-648"/>
</g>
<!-- Node38 -->
<g id="node38" class="node"><title>Node38</title>
<g id="a_node38"><a xlink:href="classLinux_1_1Semaphore.html#afc4c8706abb7e68aa4001ea372dc614e" target="_top" xlink:title="Linux::Semaphore::take">
<polygon fill="white" stroke="black" points="806.5,-80 806.5,-99 926.5,-99 926.5,-80 806.5,-80"/>
<text text-anchor="middle" x="866.5" y="-87" font-family="Helvetica,sans-Serif" font-size="10.00">Linux::Semaphore::take</text>
</a>
</g>
</g>
<!-- Node37&#45;&gt;Node38 -->
<g id="edge45" class="edge"><title>Node37&#45;&gt;Node38</title>
<path fill="none" stroke="midnightblue" d="M759.326,-89.5C771.38,-89.5 784.006,-89.5 796.174,-89.5"/>
<polygon fill="midnightblue" stroke="midnightblue" points="796.265,-93.0001 806.265,-89.5 796.265,-86.0001 796.265,-93.0001"/>
</g>
<!-- Node38&#45;&gt;Node10 -->
<g id="edge47" class="edge"><title>Node38&#45;&gt;Node10</title>
<path fill="none" stroke="midnightblue" d="M833.216,-79.8728C812.275,-74.1399 784.281,-67.4274 759,-64.5 628.291,-49.3643 590,-36.077 463,-70.5 376.853,-93.8498 287.24,-153.341 247.56,-181.83"/>
<polygon fill="midnightblue" stroke="midnightblue" points="245.469,-179.023 239.437,-187.733 249.584,-184.685 245.469,-179.023"/>
</g>
<!-- Node38&#45;&gt;Node21 -->
<g id="edge48" class="edge"><title>Node38&#45;&gt;Node21</title>
<path fill="none" stroke="midnightblue" d="M926.654,-97.8267C941.881,-99.9701 958.338,-102.287 973.808,-104.464"/>
<polygon fill="midnightblue" stroke="midnightblue" points="973.418,-107.944 983.808,-105.872 974.394,-101.012 973.418,-107.944"/>
</g>
<!-- Node39 -->
<g id="node39" class="node"><title>Node39</title>
<g id="a_node39"><a xlink:href="classLinux_1_1Semaphore.html#a561b4f40f3a76335f1a686c2aed526f9" target="_top" xlink:title="Linux::Semaphore::take\l_nonblocking">
<polygon fill="white" stroke="black" points="979,-49.5 979,-79.5 1099,-79.5 1099,-49.5 979,-49.5"/>
<text text-anchor="start" x="987" y="-67.5" font-family="Helvetica,sans-Serif" font-size="10.00">Linux::Semaphore::take</text>
<text text-anchor="middle" x="1039" y="-56.5" font-family="Helvetica,sans-Serif" font-size="10.00">_nonblocking</text>
</a>
</g>
</g>
<!-- Node38&#45;&gt;Node39 -->
<g id="edge46" class="edge"><title>Node38&#45;&gt;Node39</title>
<path fill="none" stroke="midnightblue" d="M926.654,-80.8264C940.276,-78.8291 954.881,-76.6875 968.884,-74.6344"/>
<polygon fill="midnightblue" stroke="midnightblue" points="969.564,-78.0721 978.95,-73.1583 968.548,-71.1462 969.564,-78.0721"/>
</g>
<!-- Node41 -->
<g id="node41" class="node"><title>Node41</title>
<g id="a_node41"><a xlink:href="classLinux_1_1Semaphore.html#a216f91636f64b57b59d43ef64af91624" target="_top" xlink:title="Linux::Semaphore::give">
<polygon fill="white" stroke="black" points="807,-154 807,-173 926,-173 926,-154 807,-154"/>
<text text-anchor="middle" x="866.5" y="-161" font-family="Helvetica,sans-Serif" font-size="10.00">Linux::Semaphore::give</text>
</a>
</g>
</g>
<!-- Node40&#45;&gt;Node41 -->
<g id="edge50" class="edge"><title>Node40&#45;&gt;Node41</title>
<path fill="none" stroke="midnightblue" d="M757.373,-178.631C770.172,-176.84 783.687,-174.949 796.663,-173.133"/>
<polygon fill="midnightblue" stroke="midnightblue" points="797.513,-176.548 806.931,-171.696 796.542,-169.616 797.513,-176.548"/>
</g>
<!-- Node44&#45;&gt;Node13 -->
<g id="edge54" class="edge"><title>Node44&#45;&gt;Node13</title>
<path fill="none" stroke="midnightblue" d="M591.407,-318.872C607.673,-322.046 624.971,-325.421 640.551,-328.461"/>
<polygon fill="midnightblue" stroke="midnightblue" points="640.028,-331.925 650.513,-330.405 641.369,-325.055 640.028,-331.925"/>
</g>
<!-- Node45 -->
<g id="node45" class="node"><title>Node45</title>
<g id="a_node45"><a xlink:href="classLinux_1_1Scheduler.html#ac52c8da3f1f4fd79c50bd64379daf399" target="_top" xlink:title="Linux::Scheduler::\l_wait_all_threads">
<polygon fill="white" stroke="black" points="645.5,-279.5 645.5,-309.5 740.5,-309.5 740.5,-279.5 645.5,-279.5"/>
<text text-anchor="start" x="653.5" y="-297.5" font-family="Helvetica,sans-Serif" font-size="10.00">Linux::Scheduler::</text>
<text text-anchor="middle" x="693" y="-286.5" font-family="Helvetica,sans-Serif" font-size="10.00">_wait_all_threads</text>
</a>
</g>
</g>
<!-- Node44&#45;&gt;Node45 -->
<g id="edge55" class="edge"><title>Node44&#45;&gt;Node45</title>
<path fill="none" stroke="midnightblue" d="M591.407,-301.86C605.84,-300.804 621.085,-299.689 635.222,-298.654"/>
<polygon fill="midnightblue" stroke="midnightblue" points="635.575,-302.138 645.293,-297.918 635.064,-295.157 635.575,-302.138"/>
</g>
<!-- Node48 -->
<g id="node48" class="node"><title>Node48</title>
<g id="a_node48"><a xlink:href="classLinux_1_1Scheduler.html#a70b024d7d0886bf47b46cc3ee310d638" target="_top" xlink:title="Linux::Scheduler::\l_run_io">
<polygon fill="white" stroke="black" points="645.5,-123.5 645.5,-153.5 740.5,-153.5 740.5,-123.5 645.5,-123.5"/>
<text text-anchor="start" x="653.5" y="-141.5" font-family="Helvetica,sans-Serif" font-size="10.00">Linux::Scheduler::</text>
<text text-anchor="middle" x="693" y="-130.5" font-family="Helvetica,sans-Serif" font-size="10.00">_run_io</text>
</a>
</g>
</g>
<!-- Node47&#45;&gt;Node48 -->
<g id="edge58" class="edge"><title>Node47&#45;&gt;Node48</title>
<path fill="none" stroke="midnightblue" d="M584.439,-133.253C600.86,-134.054 618.799,-134.929 635.239,-135.731"/>
<polygon fill="midnightblue" stroke="midnightblue" points="635.096,-139.228 645.255,-136.22 635.437,-132.237 635.096,-139.228"/>
</g>
<!-- Node48&#45;&gt;Node38 -->
<g id="edge59" class="edge"><title>Node48&#45;&gt;Node38</title>
<path fill="none" stroke="midnightblue" d="M740.863,-125.111C766.228,-117.863 797.353,-108.97 822.154,-101.885"/>
<polygon fill="midnightblue" stroke="midnightblue" points="823.36,-105.18 832.013,-99.0677 821.436,-98.4496 823.36,-105.18"/>
</g>
<!-- Node48&#45;&gt;Node41 -->
<g id="edge60" class="edge"><title>Node48&#45;&gt;Node41</title>
<path fill="none" stroke="midnightblue" d="M740.863,-145.331C758.097,-147.844 777.989,-150.743 796.75,-153.478"/>
<polygon fill="midnightblue" stroke="midnightblue" points="796.334,-156.954 806.734,-154.934 797.344,-150.028 796.334,-156.954"/>
</g>
</g>
</svg>
