<?xml version="1.0" encoding="UTF-8" standalone="no"?>
<!DOCTYPE svg PUBLIC "-//W3C//DTD SVG 1.1//EN"
 "http://www.w3.org/Graphics/SVG/1.1/DTD/svg11.dtd">
<!-- Generated by graphviz version 2.38.0 (20140413.2041)
 -->
<!-- Title: AP_Avoidance::get_vector_perpendicular Pages: 1 -->
<svg width="636pt" height="39pt"
 viewBox="0.00 0.00 636.00 39.00" xmlns="http://www.w3.org/2000/svg" xmlns:xlink="http://www.w3.org/1999/xlink">
<g id="graph0" class="graph" transform="scale(1 1) rotate(0) translate(4 35)">
<title>AP_Avoidance::get_vector_perpendicular</title>
<polygon fill="white" stroke="none" points="-4,4 -4,-35 632,-35 632,4 -4,4"/>
<!-- Node1 -->
<g id="node1" class="node"><title>Node1</title>
<polygon fill="#bfbfbf" stroke="black" points="0,-0.5 0,-30.5 133,-30.5 133,-0.5 0,-0.5"/>
<text text-anchor="start" x="8" y="-18.5" font-family="Helvetica,sans-Serif" font-size="10.00">AP_Avoidance::get_vector</text>
<text text-anchor="middle" x="66.5" y="-7.5" font-family="Helvetica,sans-Serif" font-size="10.00">_perpendicular</text>
</g>
<!-- Node2 -->
<g id="node2" class="node"><title>Node2</title>
<g id="a_node2"><a xlink:href="classAP__Avoidance.html#ae3a540ca8d21a7850438cad1ba071a2f" target="_top" xlink:title="AP_Avoidance::mav_avoidance\l_action">
<polygon fill="white" stroke="black" points="169,-0.5 169,-30.5 324,-30.5 324,-0.5 169,-0.5"/>
<text text-anchor="start" x="177" y="-18.5" font-family="Helvetica,sans-Serif" font-size="10.00">AP_Avoidance::mav_avoidance</text>
<text text-anchor="middle" x="246.5" y="-7.5" font-family="Helvetica,sans-Serif" font-size="10.00">_action</text>
</a>
</g>
</g>
<!-- Node1&#45;&gt;Node2 -->
<g id="edge1" class="edge"><title>Node1&#45;&gt;Node2</title>
<path fill="none" stroke="midnightblue" d="M143.29,-15.5C151.793,-15.5 160.46,-15.5 168.972,-15.5"/>
<polygon fill="midnightblue" stroke="midnightblue" points="143.022,-12.0001 133.022,-15.5 143.022,-19.0001 143.022,-12.0001"/>
</g>
<!-- Node3 -->
<g id="node3" class="node"><title>Node3</title>
<g id="a_node3"><a xlink:href="classAP__Avoidance.html#adc8a3f773458736daeec7b63edd068ba" target="_top" xlink:title="AP_Avoidance::handle\l_threat_gcs_notify">
<polygon fill="white" stroke="black" points="360,-0.5 360,-30.5 476,-30.5 476,-0.5 360,-0.5"/>
<text text-anchor="start" x="368" y="-18.5" font-family="Helvetica,sans-Serif" font-size="10.00">AP_Avoidance::handle</text>
<text text-anchor="middle" x="418" y="-7.5" font-family="Helvetica,sans-Serif" font-size="10.00">_threat_gcs_notify</text>
</a>
</g>
</g>
<!-- Node2&#45;&gt;Node3 -->
<g id="edge2" class="edge"><title>Node2&#45;&gt;Node3</title>
<path fill="none" stroke="midnightblue" d="M334.469,-15.5C343.126,-15.5 351.751,-15.5 359.984,-15.5"/>
<polygon fill="midnightblue" stroke="midnightblue" points="334.315,-12.0001 324.315,-15.5 334.315,-19.0001 334.315,-12.0001"/>
</g>
<!-- Node4 -->
<g id="node4" class="node"><title>Node4</title>
<g id="a_node4"><a xlink:href="classAP__Avoidance.html#a37059296c298d5f6d9a5fb11bab4d329" target="_top" xlink:title="AP_Avoidance::update">
<polygon fill="white" stroke="black" points="512,-6 512,-25 628,-25 628,-6 512,-6"/>
<text text-anchor="middle" x="570" y="-13" font-family="Helvetica,sans-Serif" font-size="10.00">AP_Avoidance::update</text>
</a>
</g>
</g>
<!-- Node3&#45;&gt;Node4 -->
<g id="edge3" class="edge"><title>Node3&#45;&gt;Node4</title>
<path fill="none" stroke="midnightblue" d="M486.311,-15.5C494.728,-15.5 503.277,-15.5 511.525,-15.5"/>
<polygon fill="midnightblue" stroke="midnightblue" points="486.137,-12.0001 476.136,-15.5 486.136,-19.0001 486.137,-12.0001"/>
</g>
</g>
</svg>
