<?xml version="1.0" encoding="UTF-8" standalone="no"?>
<!DOCTYPE svg PUBLIC "-//W3C//DTD SVG 1.1//EN"
 "http://www.w3.org/Graphics/SVG/1.1/DTD/svg11.dtd">
<!-- Generated by graphviz version 2.38.0 (20140413.2041)
 -->
<!-- Title: AP_HAL::BetterStream::vprintf Pages: 1 -->
<svg width="318pt" height="88pt"
 viewBox="0.00 0.00 318.00 88.00" xmlns="http://www.w3.org/2000/svg" xmlns:xlink="http://www.w3.org/1999/xlink">
<g id="graph0" class="graph" transform="scale(1 1) rotate(0) translate(4 84)">
<title>AP_HAL::BetterStream::vprintf</title>
<polygon fill="white" stroke="none" points="-4,4 -4,-84 314,-84 314,4 -4,4"/>
<!-- Node1 -->
<g id="node1" class="node"><title>Node1</title>
<polygon fill="#bfbfbf" stroke="black" points="0,-24.5 0,-54.5 119,-54.5 119,-24.5 0,-24.5"/>
<text text-anchor="start" x="8" y="-42.5" font-family="Helvetica,sans-Serif" font-size="10.00">AP_HAL::BetterStream</text>
<text text-anchor="middle" x="59.5" y="-31.5" font-family="Helvetica,sans-Serif" font-size="10.00">::vprintf</text>
</g>
<!-- Node2 -->
<g id="node2" class="node"><title>Node2</title>
<g id="a_node2"><a xlink:href="classAP__HAL_1_1BetterStream.html#a3138bfb5a4685d50d9d5ec5fa0130df0" target="_top" xlink:title="AP_HAL::BetterStream\l::BetterStream">
<polygon fill="white" stroke="black" points="173,-49.5 173,-79.5 292,-79.5 292,-49.5 173,-49.5"/>
<text text-anchor="start" x="181" y="-67.5" font-family="Helvetica,sans-Serif" font-size="10.00">AP_HAL::BetterStream</text>
<text text-anchor="middle" x="232.5" y="-56.5" font-family="Helvetica,sans-Serif" font-size="10.00">::BetterStream</text>
</a>
</g>
</g>
<!-- Node1&#45;&gt;Node2 -->
<g id="edge1" class="edge"><title>Node1&#45;&gt;Node2</title>
<path fill="none" stroke="midnightblue" d="M129.642,-49.6085C143.966,-51.7026 158.926,-53.8898 172.833,-55.9229"/>
<polygon fill="midnightblue" stroke="midnightblue" points="129.75,-46.0871 119.348,-48.1036 128.737,-53.0135 129.75,-46.0871"/>
</g>
<!-- Node3 -->
<g id="node3" class="node"><title>Node3</title>
<g id="a_node3"><a xlink:href="classAP__InertialSensor__UserInteractStream.html#a93f3b9aada9c33adb827ab63c6d8262a" target="_top" xlink:title="AP_InertialSensor_UserInteract\lStream::printf">
<polygon fill="white" stroke="black" points="155,-0.5 155,-30.5 310,-30.5 310,-0.5 155,-0.5"/>
<text text-anchor="start" x="163" y="-18.5" font-family="Helvetica,sans-Serif" font-size="10.00">AP_InertialSensor_UserInteract</text>
<text text-anchor="middle" x="232.5" y="-7.5" font-family="Helvetica,sans-Serif" font-size="10.00">Stream::printf</text>
</a>
</g>
</g>
<!-- Node1&#45;&gt;Node3 -->
<g id="edge2" class="edge"><title>Node1&#45;&gt;Node3</title>
<path fill="none" stroke="midnightblue" d="M129.388,-29.8315C137.726,-28.6612 146.283,-27.4602 154.726,-26.2753"/>
<polygon fill="midnightblue" stroke="midnightblue" points="128.765,-26.3846 119.348,-31.2406 129.738,-33.3166 128.765,-26.3846"/>
</g>
</g>
</svg>
