<?xml version="1.0" encoding="UTF-8" standalone="no"?>
<!DOCTYPE svg PUBLIC "-//W3C//DTD SVG 1.1//EN"
 "http://www.w3.org/Graphics/SVG/1.1/DTD/svg11.dtd">
<!-- Generated by graphviz version 2.38.0 (20140413.2041)
 -->
<!-- Title: Linux::RCOutput_Bebop::init Pages: 1 -->
<svg width="1282pt" height="717pt"
 viewBox="0.00 0.00 1282.00 717.00" xmlns="http://www.w3.org/2000/svg" xmlns:xlink="http://www.w3.org/1999/xlink">
<g id="graph0" class="graph" transform="scale(1 1) rotate(0) translate(4 713)">
<title>Linux::RCOutput_Bebop::init</title>
<polygon fill="white" stroke="none" points="-4,4 -4,-713 1278,-713 1278,4 -4,4"/>
<!-- Node1 -->
<g id="node1" class="node"><title>Node1</title>
<polygon fill="#bfbfbf" stroke="black" points="0,-479.5 0,-509.5 123,-509.5 123,-479.5 0,-479.5"/>
<text text-anchor="start" x="8" y="-497.5" font-family="Helvetica,sans-Serif" font-size="10.00">Linux::RCOutput_Bebop</text>
<text text-anchor="middle" x="61.5" y="-486.5" font-family="Helvetica,sans-Serif" font-size="10.00">::init</text>
</g>
<!-- Node2 -->
<g id="node2" class="node"><title>Node2</title>
<g id="a_node2"><a xlink:href="classLinux_1_1RCOutput__Bebop.html#a268f09061922bcc792a67fabf70617bc" target="_top" xlink:title="Linux::RCOutput_Bebop\l::_control_thread">
<polygon fill="white" stroke="black" points="159,-364.5 159,-394.5 282,-394.5 282,-364.5 159,-364.5"/>
<text text-anchor="start" x="167" y="-382.5" font-family="Helvetica,sans-Serif" font-size="10.00">Linux::RCOutput_Bebop</text>
<text text-anchor="middle" x="220.5" y="-371.5" font-family="Helvetica,sans-Serif" font-size="10.00">::_control_thread</text>
</a>
</g>
</g>
<!-- Node1&#45;&gt;Node2 -->
<g id="edge1" class="edge"><title>Node1&#45;&gt;Node2</title>
<path fill="none" stroke="midnightblue" d="M83.025,-479.466C110.528,-459.32 159.483,-423.461 190.676,-400.613"/>
<polygon fill="midnightblue" stroke="midnightblue" points="192.971,-403.271 198.97,-394.538 188.834,-397.624 192.971,-403.271"/>
</g>
<!-- Node33 -->
<g id="node33" class="node"><title>Node33</title>
<g id="a_node33"><a xlink:href="classLinux_1_1RCOutput__Bebop.html#ab68f6278b7a4a894cbd3f6a4c8435adb" target="_top" xlink:title="Linux::RCOutput_Bebop\l::_clear_error">
<polygon fill="white" stroke="black" points="477,-479.5 477,-509.5 600,-509.5 600,-479.5 477,-479.5"/>
<text text-anchor="start" x="485" y="-497.5" font-family="Helvetica,sans-Serif" font-size="10.00">Linux::RCOutput_Bebop</text>
<text text-anchor="middle" x="538.5" y="-486.5" font-family="Helvetica,sans-Serif" font-size="10.00">::_clear_error</text>
</a>
</g>
</g>
<!-- Node1&#45;&gt;Node33 -->
<g id="edge52" class="edge"><title>Node1&#45;&gt;Node33</title>
<path fill="none" stroke="midnightblue" d="M123.142,-494.5C211.011,-494.5 373.394,-494.5 466.655,-494.5"/>
<polygon fill="midnightblue" stroke="midnightblue" points="466.845,-498 476.845,-494.5 466.845,-491 466.845,-498"/>
</g>
<!-- Node38 -->
<g id="node38" class="node"><title>Node38</title>
<g id="a_node38"><a xlink:href="classLinux_1_1RCOutput__Bebop.html#a434f7677359b941d2f3cd00f0c4884cc" target="_top" xlink:title="Linux::RCOutput_Bebop\l::_toggle_gpio">
<polygon fill="white" stroke="black" points="477,-577.5 477,-607.5 600,-607.5 600,-577.5 477,-577.5"/>
<text text-anchor="start" x="485" y="-595.5" font-family="Helvetica,sans-Serif" font-size="10.00">Linux::RCOutput_Bebop</text>
<text text-anchor="middle" x="538.5" y="-584.5" font-family="Helvetica,sans-Serif" font-size="10.00">::_toggle_gpio</text>
</a>
</g>
</g>
<!-- Node1&#45;&gt;Node38 -->
<g id="edge53" class="edge"><title>Node1&#45;&gt;Node38</title>
<path fill="none" stroke="midnightblue" d="M123.142,-507.011C211.1,-525.159 373.723,-558.71 466.939,-577.942"/>
<polygon fill="midnightblue" stroke="midnightblue" points="466.344,-581.393 476.845,-579.986 467.758,-574.537 466.344,-581.393"/>
</g>
<!-- Node3 -->
<g id="node3" class="node"><title>Node3</title>
<g id="a_node3"><a xlink:href="classLinux_1_1RCOutput__Bebop.html#a1baaeabaade1ea15e4c770c9277821cc" target="_top" xlink:title="Linux::RCOutput_Bebop\l::_run_rcout">
<polygon fill="white" stroke="black" points="318,-317.5 318,-347.5 441,-347.5 441,-317.5 318,-317.5"/>
<text text-anchor="start" x="326" y="-335.5" font-family="Helvetica,sans-Serif" font-size="10.00">Linux::RCOutput_Bebop</text>
<text text-anchor="middle" x="379.5" y="-324.5" font-family="Helvetica,sans-Serif" font-size="10.00">::_run_rcout</text>
</a>
</g>
</g>
<!-- Node2&#45;&gt;Node3 -->
<g id="edge2" class="edge"><title>Node2&#45;&gt;Node3</title>
<path fill="none" stroke="midnightblue" d="M271.607,-364.5C286.478,-360.048 302.919,-355.126 318.357,-350.505"/>
<polygon fill="midnightblue" stroke="midnightblue" points="319.754,-353.74 328.33,-347.519 317.746,-347.034 319.754,-353.74"/>
</g>
<!-- Node4 -->
<g id="node4" class="node"><title>Node4</title>
<g id="a_node4"><a xlink:href="classLinux_1_1RCOutput__Bebop.html#aa2ea705fca68e17bde411377af8a2c30" target="_top" xlink:title="Linux::RCOutput_Bebop\l::_get_info">
<polygon fill="white" stroke="black" points="477,-528.5 477,-558.5 600,-558.5 600,-528.5 477,-528.5"/>
<text text-anchor="start" x="485" y="-546.5" font-family="Helvetica,sans-Serif" font-size="10.00">Linux::RCOutput_Bebop</text>
<text text-anchor="middle" x="538.5" y="-535.5" font-family="Helvetica,sans-Serif" font-size="10.00">::_get_info</text>
</a>
</g>
</g>
<!-- Node3&#45;&gt;Node4 -->
<g id="edge3" class="edge"><title>Node3&#45;&gt;Node4</title>
<path fill="none" stroke="midnightblue" d="M384.34,-347.598C393.984,-382.603 422.441,-470.079 477,-519.5 478.295,-520.673 479.655,-521.793 481.067,-522.86"/>
<polygon fill="midnightblue" stroke="midnightblue" points="479.338,-525.911 489.631,-528.421 483.15,-520.04 479.338,-525.911"/>
</g>
<!-- Node10 -->
<g id="node10" class="node"><title>Node10</title>
<g id="a_node10"><a xlink:href="namespaceAP__HAL.html#a71832f03d849a0c088f04fc98d3c8143" target="_top" xlink:title="AP_HAL::panic">
<polygon fill="white" stroke="black" points="496.5,-206 496.5,-225 580.5,-225 580.5,-206 496.5,-206"/>
<text text-anchor="middle" x="538.5" y="-213" font-family="Helvetica,sans-Serif" font-size="10.00">AP_HAL::panic</text>
</a>
</g>
</g>
<!-- Node3&#45;&gt;Node10 -->
<g id="edge9" class="edge"><title>Node3&#45;&gt;Node10</title>
<path fill="none" stroke="midnightblue" d="M391.542,-317.286C407.883,-295.824 440.533,-256.793 477,-234.5 480.39,-232.427 484.027,-230.562 487.774,-228.885"/>
<polygon fill="midnightblue" stroke="midnightblue" points="489.251,-232.064 497.235,-225.1 486.651,-225.565 489.251,-232.064"/>
</g>
<!-- Node19 -->
<g id="node19" class="node"><title>Node19</title>
<g id="a_node19"><a xlink:href="classLinux_1_1Util.html#addd6070e02a90ee0a7063f0c3db4fecc" target="_top" xlink:title="Linux::Util::from">
<polygon fill="white" stroke="black" points="495.5,-168 495.5,-187 581.5,-187 581.5,-168 495.5,-168"/>
<text text-anchor="middle" x="538.5" y="-175" font-family="Helvetica,sans-Serif" font-size="10.00">Linux::Util::from</text>
</a>
</g>
</g>
<!-- Node3&#45;&gt;Node19 -->
<g id="edge18" class="edge"><title>Node3&#45;&gt;Node19</title>
<path fill="none" stroke="midnightblue" d="M387.15,-317.382C400.245,-289.351 432.052,-229.203 477,-196.5 479.846,-194.429 482.925,-192.58 486.133,-190.928"/>
<polygon fill="midnightblue" stroke="midnightblue" points="487.729,-194.048 495.436,-186.778 484.878,-187.656 487.729,-194.048"/>
</g>
<!-- Node21 -->
<g id="node21" class="node"><title>Node21</title>
<g id="a_node21"><a xlink:href="classLinux_1_1Util.html#a7be36bbc123b07ab7c5b5e583773f39a" target="_top" xlink:title="Linux::Util::get_hw\l_arm32">
<polygon fill="white" stroke="black" points="489.5,-118.5 489.5,-148.5 587.5,-148.5 587.5,-118.5 489.5,-118.5"/>
<text text-anchor="start" x="497.5" y="-136.5" font-family="Helvetica,sans-Serif" font-size="10.00">Linux::Util::get_hw</text>
<text text-anchor="middle" x="538.5" y="-125.5" font-family="Helvetica,sans-Serif" font-size="10.00">_arm32</text>
</a>
</g>
</g>
<!-- Node3&#45;&gt;Node21 -->
<g id="edge20" class="edge"><title>Node3&#45;&gt;Node21</title>
<path fill="none" stroke="midnightblue" d="M385.091,-317.266C395.84,-284.013 425.691,-204.246 477,-158.5 478.723,-156.964 480.554,-155.514 482.464,-154.146"/>
<polygon fill="midnightblue" stroke="midnightblue" points="484.624,-156.924 491.261,-148.666 480.923,-150.983 484.624,-156.924"/>
</g>
<!-- Node22 -->
<g id="node22" class="node"><title>Node22</title>
<g id="a_node22"><a xlink:href="sparse-endian_8h.html#a4460d76503583c1209bc0e78a5ccaefb" target="_top" xlink:title="be16toh">
<polygon fill="white" stroke="black" points="513,-80 513,-99 564,-99 564,-80 513,-80"/>
<text text-anchor="middle" x="538.5" y="-87" font-family="Helvetica,sans-Serif" font-size="10.00">be16toh</text>
</a>
</g>
</g>
<!-- Node3&#45;&gt;Node22 -->
<g id="edge21" class="edge"><title>Node3&#45;&gt;Node22</title>
<path fill="none" stroke="midnightblue" d="M382.601,-317.476C388.995,-277.437 411.927,-167.224 477,-108.5 484.203,-102 493.616,-97.7237 502.864,-94.9103"/>
<polygon fill="midnightblue" stroke="midnightblue" points="503.897,-98.2588 512.722,-92.3955 502.167,-91.476 503.897,-98.2588"/>
</g>
<!-- Node23 -->
<g id="node23" class="node"><title>Node23</title>
<g id="a_node23"><a xlink:href="sparse-endian_8h.html#ac9479471ad041b1c2674a58bf7660c6c" target="_top" xlink:title="be32toh">
<polygon fill="white" stroke="black" points="513,-441 513,-460 564,-460 564,-441 513,-441"/>
<text text-anchor="middle" x="538.5" y="-448" font-family="Helvetica,sans-Serif" font-size="10.00">be32toh</text>
</a>
</g>
</g>
<!-- Node3&#45;&gt;Node23 -->
<g id="edge22" class="edge"><title>Node3&#45;&gt;Node23</title>
<path fill="none" stroke="midnightblue" d="M391.234,-347.513C407.44,-369.121 440.196,-408.872 477,-431.5 484.904,-436.36 494.162,-440.079 503.024,-442.882"/>
<polygon fill="midnightblue" stroke="midnightblue" points="502.192,-446.284 512.769,-445.669 504.117,-439.554 502.192,-446.284"/>
</g>
<!-- Node24 -->
<g id="node24" class="node"><title>Node24</title>
<g id="a_node24"><a xlink:href="classLinux_1_1RCOutput__Bebop.html#a8608a9d1cbd2c80b1d52b7712bbb777b" target="_top" xlink:title="Linux::RCOutput_Bebop\l::_period_us_to_rpm">
<polygon fill="white" stroke="black" points="477,-244.5 477,-274.5 600,-274.5 600,-244.5 477,-244.5"/>
<text text-anchor="start" x="485" y="-262.5" font-family="Helvetica,sans-Serif" font-size="10.00">Linux::RCOutput_Bebop</text>
<text text-anchor="middle" x="538.5" y="-251.5" font-family="Helvetica,sans-Serif" font-size="10.00">::_period_us_to_rpm</text>
</a>
</g>
</g>
<!-- Node3&#45;&gt;Node24 -->
<g id="edge23" class="edge"><title>Node3&#45;&gt;Node24</title>
<path fill="none" stroke="midnightblue" d="M409.384,-317.474C428.426,-307.732 454.004,-294.955 477,-284.5 481.361,-282.517 485.927,-280.509 490.511,-278.539"/>
<polygon fill="midnightblue" stroke="midnightblue" points="492.046,-281.69 499.888,-274.565 489.315,-275.244 492.046,-281.69"/>
</g>
<!-- Node31 -->
<g id="node31" class="node"><title>Node31</title>
<g id="a_node31"><a xlink:href="classLinux_1_1RCOutput__Bebop.html#acf39e1069dc57bdadd83b83d9e0d6176" target="_top" xlink:title="Linux::RCOutput_Bebop\l::_stop_prop">
<polygon fill="white" stroke="black" points="477,-391.5 477,-421.5 600,-421.5 600,-391.5 477,-391.5"/>
<text text-anchor="start" x="485" y="-409.5" font-family="Helvetica,sans-Serif" font-size="10.00">Linux::RCOutput_Bebop</text>
<text text-anchor="middle" x="538.5" y="-398.5" font-family="Helvetica,sans-Serif" font-size="10.00">::_stop_prop</text>
</a>
</g>
</g>
<!-- Node3&#45;&gt;Node31 -->
<g id="edge30" class="edge"><title>Node3&#45;&gt;Node31</title>
<path fill="none" stroke="midnightblue" d="M408.006,-347.69C427.117,-358.011 453.308,-371.696 477,-382.5 480.759,-384.214 484.678,-385.928 488.636,-387.607"/>
<polygon fill="midnightblue" stroke="midnightblue" points="487.303,-390.844 497.88,-391.445 489.987,-384.379 487.303,-390.844"/>
</g>
<!-- Node3&#45;&gt;Node33 -->
<g id="edge35" class="edge"><title>Node3&#45;&gt;Node33</title>
<path fill="none" stroke="midnightblue" d="M387.611,-347.8C401.244,-375.616 433.601,-434.798 477,-469.5 479.058,-471.146 481.24,-472.698 483.506,-474.161"/>
<polygon fill="midnightblue" stroke="midnightblue" points="482.164,-477.427 492.58,-479.367 485.648,-471.355 482.164,-477.427"/>
</g>
<!-- Node34 -->
<g id="node34" class="node"><title>Node34</title>
<g id="a_node34"><a xlink:href="classLinux_1_1RCOutput__Bebop.html#ae64a4603212a9a18737f3fa2f7832a0d" target="_top" xlink:title="Linux::RCOutput_Bebop\l::_start_prop">
<polygon fill="white" stroke="black" points="477,-342.5 477,-372.5 600,-372.5 600,-342.5 477,-342.5"/>
<text text-anchor="start" x="485" y="-360.5" font-family="Helvetica,sans-Serif" font-size="10.00">Linux::RCOutput_Bebop</text>
<text text-anchor="middle" x="538.5" y="-349.5" font-family="Helvetica,sans-Serif" font-size="10.00">::_start_prop</text>
</a>
</g>
</g>
<!-- Node3&#45;&gt;Node34 -->
<g id="edge40" class="edge"><title>Node3&#45;&gt;Node34</title>
<path fill="none" stroke="midnightblue" d="M441.2,-342.166C449.635,-343.509 458.359,-344.898 466.955,-346.267"/>
<polygon fill="midnightblue" stroke="midnightblue" points="466.535,-349.744 476.961,-347.86 467.636,-342.831 466.535,-349.744"/>
</g>
<!-- Node35 -->
<g id="node35" class="node"><title>Node35</title>
<g id="a_node35"><a xlink:href="classLinux_1_1RCOutput__Bebop.html#a05c9035307cc4e1ae1b136469ca7c007" target="_top" xlink:title="Linux::RCOutput_Bebop\l::_set_ref_speed">
<polygon fill="white" stroke="black" points="477,-293.5 477,-323.5 600,-323.5 600,-293.5 477,-293.5"/>
<text text-anchor="start" x="485" y="-311.5" font-family="Helvetica,sans-Serif" font-size="10.00">Linux::RCOutput_Bebop</text>
<text text-anchor="middle" x="538.5" y="-300.5" font-family="Helvetica,sans-Serif" font-size="10.00">::_set_ref_speed</text>
</a>
</g>
</g>
<!-- Node3&#45;&gt;Node35 -->
<g id="edge45" class="edge"><title>Node3&#45;&gt;Node35</title>
<path fill="none" stroke="midnightblue" d="M441.2,-323.221C449.635,-321.932 458.359,-320.598 466.955,-319.284"/>
<polygon fill="midnightblue" stroke="midnightblue" points="467.605,-322.725 476.961,-317.754 466.547,-315.806 467.605,-322.725"/>
</g>
<!-- Node5 -->
<g id="node5" class="node"><title>Node5</title>
<g id="a_node5"><a xlink:href="classAP__HAL_1_1I2CDevice.html#aecaa17329f98d50d437e53507b1e5c77" target="_top" xlink:title="AP_HAL::I2CDevice::\lget_semaphore">
<polygon fill="white" stroke="black" points="651,-492.5 651,-522.5 764,-522.5 764,-492.5 651,-492.5"/>
<text text-anchor="start" x="659" y="-510.5" font-family="Helvetica,sans-Serif" font-size="10.00">AP_HAL::I2CDevice::</text>
<text text-anchor="middle" x="707.5" y="-499.5" font-family="Helvetica,sans-Serif" font-size="10.00">get_semaphore</text>
</a>
</g>
</g>
<!-- Node4&#45;&gt;Node5 -->
<g id="edge4" class="edge"><title>Node4&#45;&gt;Node5</title>
<path fill="none" stroke="midnightblue" d="M600.263,-530.401C613.417,-527.566 627.386,-524.554 640.723,-521.679"/>
<polygon fill="midnightblue" stroke="midnightblue" points="641.737,-525.041 650.774,-519.513 640.261,-518.199 641.737,-525.041"/>
</g>
<!-- Node6 -->
<g id="node6" class="node"><title>Node6</title>
<g id="a_node6"><a xlink:href="classAP__HAL_1_1Semaphore.html#abd3a0affad8bb211981a979f30386589" target="_top" xlink:title="AP_HAL::Semaphore::take">
<polygon fill="white" stroke="black" points="640,-454 640,-473 775,-473 775,-454 640,-454"/>
<text text-anchor="middle" x="707.5" y="-461" font-family="Helvetica,sans-Serif" font-size="10.00">AP_HAL::Semaphore::take</text>
</a>
</g>
</g>
<!-- Node4&#45;&gt;Node6 -->
<g id="edge5" class="edge"><title>Node4&#45;&gt;Node6</title>
<path fill="none" stroke="midnightblue" d="M583.854,-528.366C589.47,-525.746 594.996,-522.79 600,-519.5 618.908,-507.071 616.487,-494.957 636,-483.5 640.479,-480.87 645.323,-478.57 650.301,-476.562"/>
<polygon fill="midnightblue" stroke="midnightblue" points="651.773,-479.751 659.979,-473.05 649.385,-473.171 651.773,-479.751"/>
</g>
<!-- Node7 -->
<g id="node7" class="node"><title>Node7</title>
<g id="a_node7"><a xlink:href="classAP__HAL_1_1Device.html#a66215f964cfb5c7421effdb88a749550" target="_top" xlink:title="AP_HAL::Device::read\l_registers">
<polygon fill="white" stroke="black" points="983.5,-542.5 983.5,-572.5 1099.5,-572.5 1099.5,-542.5 983.5,-542.5"/>
<text text-anchor="start" x="991.5" y="-560.5" font-family="Helvetica,sans-Serif" font-size="10.00">AP_HAL::Device::read</text>
<text text-anchor="middle" x="1041.5" y="-549.5" font-family="Helvetica,sans-Serif" font-size="10.00">_registers</text>
</a>
</g>
</g>
<!-- Node4&#45;&gt;Node7 -->
<g id="edge6" class="edge"><title>Node4&#45;&gt;Node7</title>
<path fill="none" stroke="midnightblue" d="M600.432,-545.203C694.754,-547.838 875.432,-552.887 973.381,-555.624"/>
<polygon fill="midnightblue" stroke="midnightblue" points="973.368,-559.125 983.462,-555.906 973.564,-552.128 973.368,-559.125"/>
</g>
<!-- Node9 -->
<g id="node9" class="node"><title>Node9</title>
<g id="a_node9"><a xlink:href="classAP__HAL_1_1Semaphore.html#afcdbf03d5bea9d83037acc93bfaea7ce" target="_top" xlink:title="AP_HAL::Semaphore::give">
<polygon fill="white" stroke="black" points="640.5,-416 640.5,-435 774.5,-435 774.5,-416 640.5,-416"/>
<text text-anchor="middle" x="707.5" y="-423" font-family="Helvetica,sans-Serif" font-size="10.00">AP_HAL::Semaphore::give</text>
</a>
</g>
</g>
<!-- Node4&#45;&gt;Node9 -->
<g id="edge8" class="edge"><title>Node4&#45;&gt;Node9</title>
<path fill="none" stroke="midnightblue" d="M587.771,-528.359C592.19,-525.825 596.364,-522.891 600,-519.5 627.042,-494.284 607.561,-468.129 636,-444.5 638.048,-442.799 640.234,-441.249 642.522,-439.837"/>
<polygon fill="midnightblue" stroke="midnightblue" points="644.504,-442.752 651.775,-435.046 641.285,-436.536 644.504,-442.752"/>
</g>
<!-- Node8 -->
<g id="node8" class="node"><title>Node8</title>
<g id="a_node8"><a xlink:href="classAP__HAL_1_1Device.html#a2af24b5f93b678af718b65a606e538b0" target="_top" xlink:title="AP_HAL::Device::transfer">
<polygon fill="white" stroke="black" points="1143,-526 1143,-545 1274,-545 1274,-526 1143,-526"/>
<text text-anchor="middle" x="1208.5" y="-533" font-family="Helvetica,sans-Serif" font-size="10.00">AP_HAL::Device::transfer</text>
</a>
</g>
</g>
<!-- Node7&#45;&gt;Node8 -->
<g id="edge7" class="edge"><title>Node7&#45;&gt;Node8</title>
<path fill="none" stroke="midnightblue" d="M1099.75,-549.867C1110.36,-548.451 1121.6,-546.953 1132.65,-545.48"/>
<polygon fill="midnightblue" stroke="midnightblue" points="1133.28,-548.928 1142.73,-544.137 1132.35,-541.989 1133.28,-548.928"/>
</g>
<!-- Node11 -->
<g id="node11" class="node"><title>Node11</title>
<g id="a_node11"><a xlink:href="classAP__HAL_1_1RCInput.html#a2bea13d38f2b9ae8bf5193a3a69f0a31" target="_top" xlink:title="AP_HAL::RCInput::teardown">
<polygon fill="white" stroke="black" points="636,-153 636,-172 779,-172 779,-153 636,-153"/>
<text text-anchor="middle" x="707.5" y="-160" font-family="Helvetica,sans-Serif" font-size="10.00">AP_HAL::RCInput::teardown</text>
</a>
</g>
</g>
<!-- Node10&#45;&gt;Node11 -->
<g id="edge10" class="edge"><title>Node10&#45;&gt;Node11</title>
<path fill="none" stroke="midnightblue" d="M571.708,-205.979C580.904,-203.1 590.898,-199.818 600,-196.5 616.285,-190.564 619.596,-187.101 636,-181.5 642.928,-179.135 650.318,-176.87 657.609,-174.78"/>
<polygon fill="midnightblue" stroke="midnightblue" points="658.74,-178.098 667.437,-172.046 656.865,-171.354 658.74,-178.098"/>
</g>
<!-- Node18 -->
<g id="node18" class="node"><title>Node18</title>
<g id="a_node18"><a xlink:href="classAP__HAL_1_1Scheduler.html#a78c4f1b1f192ac1c99544b6cc8f099b0" target="_top" xlink:title="AP_HAL::Scheduler::\ldelay_microseconds">
<polygon fill="white" stroke="black" points="652.5,-191.5 652.5,-221.5 762.5,-221.5 762.5,-191.5 652.5,-191.5"/>
<text text-anchor="start" x="660.5" y="-209.5" font-family="Helvetica,sans-Serif" font-size="10.00">AP_HAL::Scheduler::</text>
<text text-anchor="middle" x="707.5" y="-198.5" font-family="Helvetica,sans-Serif" font-size="10.00">delay_microseconds</text>
</a>
</g>
</g>
<!-- Node10&#45;&gt;Node18 -->
<g id="edge17" class="edge"><title>Node10&#45;&gt;Node18</title>
<path fill="none" stroke="midnightblue" d="M580.781,-213.275C599.374,-212.273 621.758,-211.067 642.453,-209.952"/>
<polygon fill="midnightblue" stroke="midnightblue" points="642.656,-213.446 652.453,-209.413 642.279,-206.456 642.656,-213.446"/>
</g>
<!-- Node12 -->
<g id="node12" class="node"><title>Node12</title>
<g id="a_node12"><a xlink:href="classAP__HAL_1_1RCInput.html#aee1fade33080edef83dd7db0fad0f7da" target="_top" xlink:title="AP_HAL::RCInput::new\l_input">
<polygon fill="white" stroke="black" points="816.5,-0.5 816.5,-30.5 938.5,-30.5 938.5,-0.5 816.5,-0.5"/>
<text text-anchor="start" x="824.5" y="-18.5" font-family="Helvetica,sans-Serif" font-size="10.00">AP_HAL::RCInput::new</text>
<text text-anchor="middle" x="877.5" y="-7.5" font-family="Helvetica,sans-Serif" font-size="10.00">_input</text>
</a>
</g>
</g>
<!-- Node11&#45;&gt;Node12 -->
<g id="edge11" class="edge"><title>Node11&#45;&gt;Node12</title>
<path fill="none" stroke="midnightblue" d="M764.728,-152.983C769.944,-150.499 774.828,-147.39 779,-143.5 814.776,-110.145 781.091,-74.7516 815,-39.5 816.043,-38.4159 817.14,-37.3798 818.284,-36.3897"/>
<polygon fill="midnightblue" stroke="midnightblue" points="820.371,-39.2002 826.419,-30.5011 816.266,-33.53 820.371,-39.2002"/>
</g>
<!-- Node13 -->
<g id="node13" class="node"><title>Node13</title>
<g id="a_node13"><a xlink:href="classAP__HAL_1_1RCInput.html#ae55f959c6115c1f41783af3a2b6c4fcd" target="_top" xlink:title="AP_HAL::RCInput::num\l_channels">
<polygon fill="white" stroke="black" points="816.5,-235.5 816.5,-265.5 938.5,-265.5 938.5,-235.5 816.5,-235.5"/>
<text text-anchor="start" x="824.5" y="-253.5" font-family="Helvetica,sans-Serif" font-size="10.00">AP_HAL::RCInput::num</text>
<text text-anchor="middle" x="877.5" y="-242.5" font-family="Helvetica,sans-Serif" font-size="10.00">_channels</text>
</a>
</g>
</g>
<!-- Node11&#45;&gt;Node13 -->
<g id="edge12" class="edge"><title>Node11&#45;&gt;Node13</title>
<path fill="none" stroke="midnightblue" d="M759.441,-172.111C766.313,-174.567 773.04,-177.644 779,-181.5 800.215,-195.223 794.667,-210.5 815,-225.5 817.471,-227.323 820.094,-229.037 822.81,-230.645"/>
<polygon fill="midnightblue" stroke="midnightblue" points="821.263,-233.787 831.731,-235.426 824.569,-227.617 821.263,-233.787"/>
</g>
<!-- Node14 -->
<g id="node14" class="node"><title>Node14</title>
<g id="a_node14"><a xlink:href="classAP__HAL_1_1RCInput.html#a078fd7e6d2e6a899009ec674a8e03498" target="_top" xlink:title="AP_HAL::RCInput::read">
<polygon fill="white" stroke="black" points="816.5,-197 816.5,-216 938.5,-216 938.5,-197 816.5,-197"/>
<text text-anchor="middle" x="877.5" y="-204" font-family="Helvetica,sans-Serif" font-size="10.00">AP_HAL::RCInput::read</text>
</a>
</g>
</g>
<!-- Node11&#45;&gt;Node14 -->
<g id="edge13" class="edge"><title>Node11&#45;&gt;Node14</title>
<path fill="none" stroke="midnightblue" d="M744.953,-172.047C769.941,-178.592 803.297,-187.328 830.168,-194.365"/>
<polygon fill="midnightblue" stroke="midnightblue" points="829.557,-197.823 840.118,-196.971 831.331,-191.052 829.557,-197.823"/>
</g>
<!-- Node15 -->
<g id="node15" class="node"><title>Node15</title>
<g id="a_node15"><a xlink:href="classAP__HAL_1_1RCInput.html#a0989c5ca271631fe655c047d4a022a3d" target="_top" xlink:title="AP_HAL::RCInput::set\l_overrides">
<polygon fill="white" stroke="black" points="819,-147.5 819,-177.5 936,-177.5 936,-147.5 819,-147.5"/>
<text text-anchor="start" x="827" y="-165.5" font-family="Helvetica,sans-Serif" font-size="10.00">AP_HAL::RCInput::set</text>
<text text-anchor="middle" x="877.5" y="-154.5" font-family="Helvetica,sans-Serif" font-size="10.00">_overrides</text>
</a>
</g>
</g>
<!-- Node11&#45;&gt;Node15 -->
<g id="edge14" class="edge"><title>Node11&#45;&gt;Node15</title>
<path fill="none" stroke="midnightblue" d="M779.26,-162.5C789.044,-162.5 799.073,-162.5 808.799,-162.5"/>
<polygon fill="midnightblue" stroke="midnightblue" points="808.802,-166 818.802,-162.5 808.802,-159 808.802,-166"/>
</g>
<!-- Node16 -->
<g id="node16" class="node"><title>Node16</title>
<g id="a_node16"><a xlink:href="classAP__HAL_1_1RCInput.html#abfd037ca0989a0422a60f418d34eb7d5" target="_top" xlink:title="AP_HAL::RCInput::set\l_override">
<polygon fill="white" stroke="black" points="819,-98.5 819,-128.5 936,-128.5 936,-98.5 819,-98.5"/>
<text text-anchor="start" x="827" y="-116.5" font-family="Helvetica,sans-Serif" font-size="10.00">AP_HAL::RCInput::set</text>
<text text-anchor="middle" x="877.5" y="-105.5" font-family="Helvetica,sans-Serif" font-size="10.00">_override</text>
</a>
</g>
</g>
<!-- Node11&#45;&gt;Node16 -->
<g id="edge15" class="edge"><title>Node11&#45;&gt;Node16</title>
<path fill="none" stroke="midnightblue" d="M744.796,-152.981C755.805,-150.023 767.917,-146.698 779,-143.5 791.882,-139.784 805.671,-135.642 818.705,-131.651"/>
<polygon fill="midnightblue" stroke="midnightblue" points="819.968,-134.924 828.497,-128.638 817.909,-128.234 819.968,-134.924"/>
</g>
<!-- Node17 -->
<g id="node17" class="node"><title>Node17</title>
<g id="a_node17"><a xlink:href="classAP__HAL_1_1RCInput.html#ab3671bbe43fdb97c53071d7832ac256e" target="_top" xlink:title="AP_HAL::RCInput::clear\l_overrides">
<polygon fill="white" stroke="black" points="815,-49.5 815,-79.5 940,-79.5 940,-49.5 815,-49.5"/>
<text text-anchor="start" x="823" y="-67.5" font-family="Helvetica,sans-Serif" font-size="10.00">AP_HAL::RCInput::clear</text>
<text text-anchor="middle" x="877.5" y="-56.5" font-family="Helvetica,sans-Serif" font-size="10.00">_overrides</text>
</a>
</g>
</g>
<!-- Node11&#45;&gt;Node17 -->
<g id="edge16" class="edge"><title>Node11&#45;&gt;Node17</title>
<path fill="none" stroke="midnightblue" d="M761.288,-152.903C767.585,-150.45 773.663,-147.369 779,-143.5 802.654,-126.353 792.313,-106.908 815,-88.5 816.569,-87.2272 818.213,-86.0159 819.915,-84.8637"/>
<polygon fill="midnightblue" stroke="midnightblue" points="822.005,-87.6936 828.822,-79.5835 818.435,-81.6721 822.005,-87.6936"/>
</g>
<!-- Node20 -->
<g id="node20" class="node"><title>Node20</title>
<g id="a_node20"><a xlink:href="classLinux_1_1Util.html#ae03dc062803bf3bcda9cbd77e781c7d4" target="_top" xlink:title="Linux::Util::init">
<polygon fill="white" stroke="black" points="667.5,-115 667.5,-134 747.5,-134 747.5,-115 667.5,-115"/>
<text text-anchor="middle" x="707.5" y="-122" font-family="Helvetica,sans-Serif" font-size="10.00">Linux::Util::init</text>
</a>
</g>
</g>
<!-- Node19&#45;&gt;Node20 -->
<g id="edge19" class="edge"><title>Node19&#45;&gt;Node20</title>
<path fill="none" stroke="midnightblue" d="M569.454,-167.937C579.229,-164.726 590.11,-161.055 600,-157.5 616.155,-151.693 619.688,-148.852 636,-143.5 643.202,-141.137 650.886,-138.841 658.434,-136.71"/>
<polygon fill="midnightblue" stroke="midnightblue" points="659.515,-140.042 668.226,-134.011 657.656,-133.294 659.515,-140.042"/>
</g>
<!-- Node25 -->
<g id="node25" class="node"><title>Node25</title>
<g id="a_node25"><a xlink:href="AP__Math_8h.html#a68558c4f79a8582543daefde13c64abc" target="_top" xlink:title="constrain_int16">
<polygon fill="white" stroke="black" points="666,-241 666,-260 749,-260 749,-241 666,-241"/>
<text text-anchor="middle" x="707.5" y="-248" font-family="Helvetica,sans-Serif" font-size="10.00">constrain_int16</text>
</a>
</g>
</g>
<!-- Node24&#45;&gt;Node25 -->
<g id="edge24" class="edge"><title>Node24&#45;&gt;Node25</title>
<path fill="none" stroke="midnightblue" d="M600.263,-256.225C618.506,-255.242 638.316,-254.175 655.833,-253.231"/>
<polygon fill="midnightblue" stroke="midnightblue" points="656.055,-256.724 665.852,-252.691 655.679,-249.734 656.055,-256.724"/>
</g>
<!-- Node26 -->
<g id="node26" class="node"><title>Node26</title>
<g id="a_node26"><a xlink:href="AP__Math_8h.html#a20e8f8671c282c69c1954652b6d61585" target="_top" xlink:title="constrain_value">
<polygon fill="white" stroke="black" points="835,-285 835,-304 920,-304 920,-285 835,-285"/>
<text text-anchor="middle" x="877.5" y="-292" font-family="Helvetica,sans-Serif" font-size="10.00">constrain_value</text>
</a>
</g>
</g>
<!-- Node25&#45;&gt;Node26 -->
<g id="edge25" class="edge"><title>Node25&#45;&gt;Node26</title>
<path fill="none" stroke="midnightblue" d="M744.953,-260.047C769.941,-266.592 803.297,-275.328 830.168,-282.365"/>
<polygon fill="midnightblue" stroke="midnightblue" points="829.557,-285.823 840.118,-284.971 831.331,-279.052 829.557,-285.823"/>
</g>
<!-- Node27 -->
<g id="node27" class="node"><title>Node27</title>
<g id="a_node27"><a xlink:href="AP__Math_8cpp.html#a37e8e901754cb9c8e53a8e3030c82c50" target="_top" xlink:title="constrain_value\&lt; int \&gt;">
<polygon fill="white" stroke="black" points="985,-228 985,-247 1098,-247 1098,-228 985,-228"/>
<text text-anchor="middle" x="1041.5" y="-235" font-family="Helvetica,sans-Serif" font-size="10.00">constrain_value&lt; int &gt;</text>
</a>
</g>
</g>
<!-- Node26&#45;&gt;Node27 -->
<g id="edge26" class="edge"><title>Node26&#45;&gt;Node27</title>
<path fill="none" stroke="midnightblue" d="M911.065,-284.91C920.504,-281.862 930.754,-278.29 940,-274.5 956.552,-267.715 959.355,-263.053 976,-256.5 981.845,-254.199 988.083,-252.025 994.29,-250.028"/>
<polygon fill="midnightblue" stroke="midnightblue" points="995.437,-253.337 1003.96,-247.041 993.37,-246.649 995.437,-253.337"/>
</g>
<!-- Node28 -->
<g id="node28" class="node"><title>Node28</title>
<g id="a_node28"><a xlink:href="AP__Math_8cpp.html#afdbe107ec1987d318a6347816fbf2b89" target="_top" xlink:title="constrain_value\&lt; short \&gt;">
<polygon fill="white" stroke="black" points="979,-342 979,-361 1104,-361 1104,-342 979,-342"/>
<text text-anchor="middle" x="1041.5" y="-349" font-family="Helvetica,sans-Serif" font-size="10.00">constrain_value&lt; short &gt;</text>
</a>
</g>
</g>
<!-- Node26&#45;&gt;Node28 -->
<g id="edge27" class="edge"><title>Node26&#45;&gt;Node28</title>
<path fill="none" stroke="midnightblue" d="M901.541,-304.12C921.17,-312.161 950.211,-323.694 976,-332.5 982.532,-334.73 989.487,-336.944 996.321,-339.03"/>
<polygon fill="midnightblue" stroke="midnightblue" points="995.602,-342.467 1006.19,-341.981 997.608,-335.761 995.602,-342.467"/>
</g>
<!-- Node29 -->
<g id="node29" class="node"><title>Node29</title>
<g id="a_node29"><a xlink:href="AP__Math_8cpp.html#ae6c621670c214da687de21d4e3a92587" target="_top" xlink:title="constrain_value\&lt; float \&gt;">
<polygon fill="white" stroke="black" points="980.5,-304 980.5,-323 1102.5,-323 1102.5,-304 980.5,-304"/>
<text text-anchor="middle" x="1041.5" y="-311" font-family="Helvetica,sans-Serif" font-size="10.00">constrain_value&lt; float &gt;</text>
</a>
</g>
</g>
<!-- Node26&#45;&gt;Node29 -->
<g id="edge28" class="edge"><title>Node26&#45;&gt;Node29</title>
<path fill="none" stroke="midnightblue" d="M920.219,-299.393C935.501,-301.185 953.244,-303.266 970.332,-305.27"/>
<polygon fill="midnightblue" stroke="midnightblue" points="969.954,-308.75 980.294,-306.439 970.77,-301.798 969.954,-308.75"/>
</g>
<!-- Node30 -->
<g id="node30" class="node"><title>Node30</title>
<g id="a_node30"><a xlink:href="AP__Math_8cpp.html#afe3990b00e9abc43fa97dfaf8e32f5c4" target="_top" xlink:title="constrain_value\&lt; double \&gt;">
<polygon fill="white" stroke="black" points="976,-266 976,-285 1107,-285 1107,-266 976,-266"/>
<text text-anchor="middle" x="1041.5" y="-273" font-family="Helvetica,sans-Serif" font-size="10.00">constrain_value&lt; double &gt;</text>
</a>
</g>
</g>
<!-- Node26&#45;&gt;Node30 -->
<g id="edge29" class="edge"><title>Node26&#45;&gt;Node30</title>
<path fill="none" stroke="midnightblue" d="M920.219,-289.607C934.139,-287.974 950.1,-286.102 965.749,-284.267"/>
<polygon fill="midnightblue" stroke="midnightblue" points="966.438,-287.71 975.962,-283.069 965.623,-280.758 966.438,-287.71"/>
</g>
<!-- Node31&#45;&gt;Node5 -->
<g id="edge31" class="edge"><title>Node31&#45;&gt;Node5</title>
<path fill="none" stroke="midnightblue" d="M584.416,-421.638C589.943,-424.466 595.294,-427.741 600,-431.5 621.678,-448.816 613.887,-465.743 636,-482.5 638.457,-484.362 641.064,-486.093 643.772,-487.702"/>
<polygon fill="midnightblue" stroke="midnightblue" points="642.233,-490.847 652.708,-492.435 645.509,-484.661 642.233,-490.847"/>
</g>
<!-- Node31&#45;&gt;Node6 -->
<g id="edge32" class="edge"><title>Node31&#45;&gt;Node6</title>
<path fill="none" stroke="midnightblue" d="M576.556,-421.586C598.643,-430.48 624.546,-440.714 636,-444.5 643.113,-446.851 650.7,-449.129 658.162,-451.243"/>
<polygon fill="midnightblue" stroke="midnightblue" points="657.279,-454.63 667.85,-453.919 659.143,-447.882 657.279,-454.63"/>
</g>
<!-- Node31&#45;&gt;Node9 -->
<g id="edge34" class="edge"><title>Node31&#45;&gt;Node9</title>
<path fill="none" stroke="midnightblue" d="M600.263,-413.413C610.056,-414.527 620.3,-415.693 630.398,-416.842"/>
<polygon fill="midnightblue" stroke="midnightblue" points="630.094,-420.33 640.426,-417.983 630.886,-413.375 630.094,-420.33"/>
</g>
<!-- Node32 -->
<g id="node32" class="node"><title>Node32</title>
<g id="a_node32"><a xlink:href="classAP__HAL_1_1I2CDevice.html#a2e581ddc9b02eb73ad2fdf488fe8dc86" target="_top" xlink:title="AP_HAL::I2CDevice::\ltransfer">
<polygon fill="white" stroke="black" points="651,-366.5 651,-396.5 764,-396.5 764,-366.5 651,-366.5"/>
<text text-anchor="start" x="659" y="-384.5" font-family="Helvetica,sans-Serif" font-size="10.00">AP_HAL::I2CDevice::</text>
<text text-anchor="middle" x="707.5" y="-373.5" font-family="Helvetica,sans-Serif" font-size="10.00">transfer</text>
</a>
</g>
</g>
<!-- Node31&#45;&gt;Node32 -->
<g id="edge33" class="edge"><title>Node31&#45;&gt;Node32</title>
<path fill="none" stroke="midnightblue" d="M600.263,-397.404C613.417,-395.435 627.386,-393.343 640.723,-391.347"/>
<polygon fill="midnightblue" stroke="midnightblue" points="641.403,-394.784 650.774,-389.842 640.366,-387.861 641.403,-394.784"/>
</g>
<!-- Node33&#45;&gt;Node5 -->
<g id="edge36" class="edge"><title>Node33&#45;&gt;Node5</title>
<path fill="none" stroke="midnightblue" d="M600.263,-499.23C613.417,-500.254 627.386,-501.341 640.723,-502.38"/>
<polygon fill="midnightblue" stroke="midnightblue" points="640.533,-505.875 650.774,-503.162 641.076,-498.896 640.533,-505.875"/>
</g>
<!-- Node33&#45;&gt;Node6 -->
<g id="edge37" class="edge"><title>Node33&#45;&gt;Node6</title>
<path fill="none" stroke="midnightblue" d="M600.263,-483.221C614.888,-480.506 630.519,-477.604 645.169,-474.885"/>
<polygon fill="midnightblue" stroke="midnightblue" points="645.937,-478.302 655.131,-473.036 644.66,-471.42 645.937,-478.302"/>
</g>
<!-- Node33&#45;&gt;Node9 -->
<g id="edge39" class="edge"><title>Node33&#45;&gt;Node9</title>
<path fill="none" stroke="midnightblue" d="M579.45,-479.425C586.423,-476.391 593.515,-473.038 600,-469.5 617.1,-460.171 618.335,-452.711 636,-444.5 641.029,-442.162 646.398,-440.069 651.845,-438.204"/>
<polygon fill="midnightblue" stroke="midnightblue" points="653.197,-441.447 661.674,-435.092 651.084,-434.774 653.197,-441.447"/>
</g>
<!-- Node33&#45;&gt;Node32 -->
<g id="edge38" class="edge"><title>Node33&#45;&gt;Node32</title>
<path fill="none" stroke="midnightblue" d="M585.383,-479.448C590.631,-476.625 595.649,-473.329 600,-469.5 624.208,-448.193 611.256,-427.182 636,-406.5 638.005,-404.824 640.131,-403.257 642.346,-401.792"/>
<polygon fill="midnightblue" stroke="midnightblue" points="644.359,-404.671 651.264,-396.635 640.855,-398.611 644.359,-404.671"/>
</g>
<!-- Node34&#45;&gt;Node5 -->
<g id="edge41" class="edge"><title>Node34&#45;&gt;Node5</title>
<path fill="none" stroke="midnightblue" d="M587.256,-372.556C591.938,-375.349 596.311,-378.637 600,-382.5 632.619,-416.666 602.519,-449.179 636,-482.5 637.893,-484.384 639.936,-486.126 642.094,-487.738"/>
<polygon fill="midnightblue" stroke="midnightblue" points="640.588,-490.927 650.907,-493.328 644.337,-485.016 640.588,-490.927"/>
</g>
<!-- Node34&#45;&gt;Node6 -->
<g id="edge42" class="edge"><title>Node34&#45;&gt;Node6</title>
<path fill="none" stroke="midnightblue" d="M585.358,-372.581C590.61,-375.399 595.636,-378.686 600,-382.5 623.991,-403.47 610.711,-425.115 636,-444.5 638.437,-446.368 641.043,-448.052 643.766,-449.571"/>
<polygon fill="midnightblue" stroke="midnightblue" points="642.257,-452.729 652.789,-453.882 645.275,-446.413 642.257,-452.729"/>
</g>
<!-- Node34&#45;&gt;Node9 -->
<g id="edge44" class="edge"><title>Node34&#45;&gt;Node9</title>
<path fill="none" stroke="midnightblue" d="M579.072,-372.539C586.154,-375.599 593.382,-378.97 600,-382.5 616.968,-391.549 618.486,-398.56 636,-406.5 641.251,-408.881 646.862,-411.015 652.539,-412.916"/>
<polygon fill="midnightblue" stroke="midnightblue" points="651.515,-416.262 662.103,-415.896 653.597,-409.579 651.515,-416.262"/>
</g>
<!-- Node34&#45;&gt;Node32 -->
<g id="edge43" class="edge"><title>Node34&#45;&gt;Node32</title>
<path fill="none" stroke="midnightblue" d="M600.263,-366.232C613.417,-368.123 627.386,-370.13 640.723,-372.047"/>
<polygon fill="midnightblue" stroke="midnightblue" points="640.378,-375.533 650.774,-373.492 641.374,-368.605 640.378,-375.533"/>
</g>
<!-- Node35&#45;&gt;Node5 -->
<g id="edge48" class="edge"><title>Node35&#45;&gt;Node5</title>
<path fill="none" stroke="midnightblue" d="M588.271,-323.536C592.648,-326.323 596.674,-329.615 600,-333.5 644.305,-385.254 590.388,-431.894 636,-482.5 637.956,-484.67 640.113,-486.652 642.421,-488.462"/>
<polygon fill="midnightblue" stroke="midnightblue" points="640.498,-491.387 650.771,-493.977 644.355,-485.546 640.498,-491.387"/>
</g>
<!-- Node35&#45;&gt;Node6 -->
<g id="edge49" class="edge"><title>Node35&#45;&gt;Node6</title>
<path fill="none" stroke="midnightblue" d="M587.677,-323.62C592.224,-326.395 596.451,-329.662 600,-333.5 635.211,-371.579 598.415,-408.762 636,-444.5 637.516,-445.941 639.129,-447.276 640.821,-448.511"/>
<polygon fill="midnightblue" stroke="midnightblue" points="639.467,-451.779 649.848,-453.898 643.054,-445.768 639.467,-451.779"/>
</g>
<!-- Node35&#45;&gt;Node9 -->
<g id="edge51" class="edge"><title>Node35&#45;&gt;Node9</title>
<path fill="none" stroke="midnightblue" d="M586.223,-323.639C591.208,-326.431 595.934,-329.695 600,-333.5 626.413,-358.218 608.053,-383.531 636,-406.5 638.057,-408.19 640.25,-409.731 642.544,-411.136"/>
<polygon fill="midnightblue" stroke="midnightblue" points="641.322,-414.443 651.816,-415.905 644.524,-408.218 641.322,-414.443"/>
</g>
<!-- Node35&#45;&gt;Node32 -->
<g id="edge50" class="edge"><title>Node35&#45;&gt;Node32</title>
<path fill="none" stroke="midnightblue" d="M579.072,-323.539C586.154,-326.599 593.382,-329.97 600,-333.5 616.968,-342.549 618.753,-348.996 636,-357.5 639.718,-359.333 643.611,-361.084 647.576,-362.743"/>
<polygon fill="midnightblue" stroke="midnightblue" points="646.326,-366.013 656.911,-366.447 648.907,-359.506 646.326,-366.013"/>
</g>
<!-- Node36 -->
<g id="node36" class="node"><title>Node36</title>
<g id="a_node36"><a xlink:href="sparse-endian_8h.html#afeadfffc79afb9d2c017f0921b187204" target="_top" xlink:title="htobe16">
<polygon fill="white" stroke="black" points="682,-279 682,-298 733,-298 733,-279 682,-279"/>
<text text-anchor="middle" x="707.5" y="-286" font-family="Helvetica,sans-Serif" font-size="10.00">htobe16</text>
</a>
</g>
</g>
<!-- Node35&#45;&gt;Node36 -->
<g id="edge46" class="edge"><title>Node35&#45;&gt;Node36</title>
<path fill="none" stroke="midnightblue" d="M600.263,-301.223C624.247,-298.351 650.94,-295.154 671.57,-292.683"/>
<polygon fill="midnightblue" stroke="midnightblue" points="672.246,-296.127 681.759,-291.463 671.414,-289.177 672.246,-296.127"/>
</g>
<!-- Node37 -->
<g id="node37" class="node"><title>Node37</title>
<g id="a_node37"><a xlink:href="classLinux_1_1RCOutput__Bebop.html#a0753f720be9a7b4150fd671810784193" target="_top" xlink:title="Linux::RCOutput_Bebop\l::_checksum">
<polygon fill="white" stroke="black" points="646,-317.5 646,-347.5 769,-347.5 769,-317.5 646,-317.5"/>
<text text-anchor="start" x="654" y="-335.5" font-family="Helvetica,sans-Serif" font-size="10.00">Linux::RCOutput_Bebop</text>
<text text-anchor="middle" x="707.5" y="-324.5" font-family="Helvetica,sans-Serif" font-size="10.00">::_checksum</text>
</a>
</g>
</g>
<!-- Node35&#45;&gt;Node37 -->
<g id="edge47" class="edge"><title>Node35&#45;&gt;Node37</title>
<path fill="none" stroke="midnightblue" d="M600.263,-317.232C611.732,-318.881 623.82,-320.618 635.569,-322.306"/>
<polygon fill="midnightblue" stroke="midnightblue" points="635.386,-325.816 645.782,-323.774 636.382,-318.887 635.386,-325.816"/>
</g>
<!-- Node38&#45;&gt;Node5 -->
<g id="edge54" class="edge"><title>Node38&#45;&gt;Node5</title>
<path fill="none" stroke="midnightblue" d="M579.876,-577.413C586.666,-574.612 593.586,-571.589 600,-568.5 625.418,-556.256 653.032,-540.36 673.772,-527.864"/>
<polygon fill="midnightblue" stroke="midnightblue" points="675.769,-530.746 682.498,-522.563 672.134,-524.764 675.769,-530.746"/>
</g>
<!-- Node38&#45;&gt;Node6 -->
<g id="edge55" class="edge"><title>Node38&#45;&gt;Node6</title>
<path fill="none" stroke="midnightblue" d="M588.236,-577.357C592.51,-574.828 596.525,-571.896 600,-568.5 629.341,-539.825 605.246,-510.654 636,-483.5 638.48,-481.311 641.183,-479.36 644.039,-477.621"/>
<polygon fill="midnightblue" stroke="midnightblue" points="645.699,-480.703 652.992,-473.018 642.499,-474.478 645.699,-480.703"/>
</g>
<!-- Node38&#45;&gt;Node9 -->
<g id="edge65" class="edge"><title>Node38&#45;&gt;Node9</title>
<path fill="none" stroke="midnightblue" d="M589.247,-577.403C593.213,-574.873 596.883,-571.928 600,-568.5 638.604,-526.039 595.032,-484.685 636,-444.5 637.459,-443.069 639.014,-441.742 640.648,-440.513"/>
<polygon fill="midnightblue" stroke="midnightblue" points="642.694,-443.363 649.381,-435.145 639.029,-437.4 642.694,-443.363"/>
</g>
<!-- Node39 -->
<g id="node39" class="node"><title>Node39</title>
<g id="a_node39"><a xlink:href="classAP__HAL_1_1Device.html#a450d2427d58c09d75c8268f8b808c37b" target="_top" xlink:title="AP_HAL::Device::write\l_register">
<polygon fill="white" stroke="black" points="648,-599.5 648,-629.5 767,-629.5 767,-599.5 648,-599.5"/>
<text text-anchor="start" x="656" y="-617.5" font-family="Helvetica,sans-Serif" font-size="10.00">AP_HAL::Device::write</text>
<text text-anchor="middle" x="707.5" y="-606.5" font-family="Helvetica,sans-Serif" font-size="10.00">_register</text>
</a>
</g>
</g>
<!-- Node38&#45;&gt;Node39 -->
<g id="edge56" class="edge"><title>Node38&#45;&gt;Node39</title>
<path fill="none" stroke="midnightblue" d="M600.263,-600.505C612.358,-602.098 625.142,-603.782 637.489,-605.409"/>
<polygon fill="midnightblue" stroke="midnightblue" points="637.362,-608.922 647.734,-606.758 638.277,-601.982 637.362,-608.922"/>
</g>
<!-- Node39&#45;&gt;Node8 -->
<g id="edge59" class="edge"><title>Node39&#45;&gt;Node8</title>
<path fill="none" stroke="midnightblue" d="M742.073,-599.415C762.802,-590.487 790.106,-579.413 815,-571.5 885.067,-549.228 902.972,-542.001 976,-533.5 1033.83,-526.768 1048.78,-532.921 1107,-533.5 1115.34,-533.583 1124.07,-533.705 1132.75,-533.848"/>
<polygon fill="midnightblue" stroke="midnightblue" points="1132.84,-537.35 1142.9,-534.025 1132.96,-530.351 1132.84,-537.35"/>
</g>
<!-- Node40 -->
<g id="node40" class="node"><title>Node40</title>
<g id="a_node40"><a xlink:href="classAP__HAL_1_1Device.html#a44b62acec2c1c5d8bf8b9c07f5fe7192" target="_top" xlink:title="AP_HAL::Device::set\l_checked_register">
<polygon fill="white" stroke="black" points="822,-678.5 822,-708.5 933,-708.5 933,-678.5 822,-678.5"/>
<text text-anchor="start" x="830" y="-696.5" font-family="Helvetica,sans-Serif" font-size="10.00">AP_HAL::Device::set</text>
<text text-anchor="middle" x="877.5" y="-685.5" font-family="Helvetica,sans-Serif" font-size="10.00">_checked_register</text>
</a>
</g>
</g>
<!-- Node39&#45;&gt;Node40 -->
<g id="edge57" class="edge"><title>Node39&#45;&gt;Node40</title>
<path fill="none" stroke="midnightblue" d="M735.695,-629.546C756.988,-641.081 787.503,-657.075 815,-669.5 818.819,-671.226 822.801,-672.948 826.823,-674.632"/>
<polygon fill="midnightblue" stroke="midnightblue" points="825.638,-677.929 836.218,-678.479 828.29,-671.451 825.638,-677.929"/>
</g>
<!-- Node42 -->
<g id="node42" class="node"><title>Node42</title>
<g id="a_node42"><a xlink:href="classAP__HAL_1_1Device.html#a4bad879386bd93b7f2340bff1437d041" target="_top" xlink:title="AP_HAL::Device::setup\l_checked_registers">
<polygon fill="white" stroke="black" points="816.5,-580.5 816.5,-610.5 938.5,-610.5 938.5,-580.5 816.5,-580.5"/>
<text text-anchor="start" x="824.5" y="-598.5" font-family="Helvetica,sans-Serif" font-size="10.00">AP_HAL::Device::setup</text>
<text text-anchor="middle" x="877.5" y="-587.5" font-family="Helvetica,sans-Serif" font-size="10.00">_checked_registers</text>
</a>
</g>
</g>
<!-- Node39&#45;&gt;Node42 -->
<g id="edge60" class="edge"><title>Node39&#45;&gt;Node42</title>
<path fill="none" stroke="midnightblue" d="M767.258,-607.855C779.802,-606.436 793.173,-604.924 806.102,-603.462"/>
<polygon fill="midnightblue" stroke="midnightblue" points="806.809,-606.904 816.352,-602.302 806.022,-599.948 806.809,-606.904"/>
</g>
<!-- Node43 -->
<g id="node43" class="node"><title>Node43</title>
<g id="a_node43"><a xlink:href="classAP__HAL_1_1Device.html#a81202d89062b62f93bf8d13fa30a86d0" target="_top" xlink:title="AP_HAL::Device::check\l_next_register">
<polygon fill="white" stroke="black" points="815.5,-629.5 815.5,-659.5 939.5,-659.5 939.5,-629.5 815.5,-629.5"/>
<text text-anchor="start" x="823.5" y="-647.5" font-family="Helvetica,sans-Serif" font-size="10.00">AP_HAL::Device::check</text>
<text text-anchor="middle" x="877.5" y="-636.5" font-family="Helvetica,sans-Serif" font-size="10.00">_next_register</text>
</a>
</g>
</g>
<!-- Node39&#45;&gt;Node43 -->
<g id="edge61" class="edge"><title>Node39&#45;&gt;Node43</title>
<path fill="none" stroke="midnightblue" d="M767.258,-618.521C783.478,-621.049 801.083,-624.19 817.327,-627.452"/>
<polygon fill="midnightblue" stroke="midnightblue" points="816.74,-630.905 827.24,-629.495 818.152,-624.049 816.74,-630.905"/>
</g>
<!-- Node41 -->
<g id="node41" class="node"><title>Node41</title>
<g id="a_node41"><a xlink:href="classAP__HAL_1_1Device.html#a682fd556614308cb02773e94ec8e4b26" target="_top" xlink:title="AP_HAL::Device::get\l_bus_id">
<polygon fill="white" stroke="black" points="986,-653.5 986,-683.5 1097,-683.5 1097,-653.5 986,-653.5"/>
<text text-anchor="start" x="994" y="-671.5" font-family="Helvetica,sans-Serif" font-size="10.00">AP_HAL::Device::get</text>
<text text-anchor="middle" x="1041.5" y="-660.5" font-family="Helvetica,sans-Serif" font-size="10.00">_bus_id</text>
</a>
</g>
</g>
<!-- Node40&#45;&gt;Node41 -->
<g id="edge58" class="edge"><title>Node40&#45;&gt;Node41</title>
<path fill="none" stroke="midnightblue" d="M933.346,-685.036C947.011,-682.927 961.788,-680.647 975.876,-678.473"/>
<polygon fill="midnightblue" stroke="midnightblue" points="976.637,-681.897 985.986,-676.913 975.569,-674.979 976.637,-681.897"/>
</g>
<!-- Node43&#45;&gt;Node7 -->
<g id="edge62" class="edge"><title>Node43&#45;&gt;Node7</title>
<path fill="none" stroke="midnightblue" d="M920.317,-629.407C926.993,-626.648 933.754,-623.641 940,-620.5 964.568,-608.143 990.854,-591.534 1010.38,-578.472"/>
<polygon fill="midnightblue" stroke="midnightblue" points="1012.52,-581.249 1018.84,-572.748 1008.6,-575.45 1012.52,-581.249"/>
</g>
<!-- Node43&#45;&gt;Node39 -->
<g id="edge64" class="edge"><title>Node43&#45;&gt;Node39</title>
<path fill="none" stroke="midnightblue" d="M815.447,-640.119C799.955,-637.669 783.335,-634.689 767.925,-631.598"/>
<polygon fill="midnightblue" stroke="midnightblue" points="768.497,-628.142 757.997,-629.555 767.086,-634.999 768.497,-628.142"/>
</g>
<!-- Node43&#45;&gt;Node41 -->
<g id="edge63" class="edge"><title>Node43&#45;&gt;Node41</title>
<path fill="none" stroke="midnightblue" d="M939.745,-653.573C951.457,-655.308 963.756,-657.13 975.578,-658.882"/>
<polygon fill="midnightblue" stroke="midnightblue" points="975.413,-662.396 985.818,-660.399 976.439,-655.471 975.413,-662.396"/>
</g>
</g>
</svg>
