<?xml version="1.0" encoding="UTF-8" standalone="no"?>
<!DOCTYPE svg PUBLIC "-//W3C//DTD SVG 1.1//EN"
 "http://www.w3.org/Graphics/SVG/1.1/DTD/svg11.dtd">
<!-- Generated by graphviz version 2.38.0 (20140413.2041)
 -->
<!-- Title: AP_Landing::type_slope_is_expecting_impact Pages: 1 -->
<svg width="448pt" height="39pt"
 viewBox="0.00 0.00 448.00 39.00" xmlns="http://www.w3.org/2000/svg" xmlns:xlink="http://www.w3.org/1999/xlink">
<g id="graph0" class="graph" transform="scale(1 1) rotate(0) translate(4 35)">
<title>AP_Landing::type_slope_is_expecting_impact</title>
<polygon fill="white" stroke="none" points="-4,4 -4,-35 444,-35 444,4 -4,4"/>
<!-- Node1 -->
<g id="node1" class="node"><title>Node1</title>
<polygon fill="#bfbfbf" stroke="black" points="0,-0.5 0,-30.5 122,-30.5 122,-0.5 0,-0.5"/>
<text text-anchor="start" x="8" y="-18.5" font-family="Helvetica,sans-Serif" font-size="10.00">AP_Landing::type_slope</text>
<text text-anchor="middle" x="61" y="-7.5" font-family="Helvetica,sans-Serif" font-size="10.00">_is_expecting_impact</text>
</g>
<!-- Node2 -->
<g id="node2" class="node"><title>Node2</title>
<g id="a_node2"><a xlink:href="classAP__Landing.html#aca60df7c22cc14b50806470b2bdf163b" target="_top" xlink:title="AP_Landing::is_expecting\l_impact">
<polygon fill="white" stroke="black" points="158,-0.5 158,-30.5 288,-30.5 288,-0.5 158,-0.5"/>
<text text-anchor="start" x="166" y="-18.5" font-family="Helvetica,sans-Serif" font-size="10.00">AP_Landing::is_expecting</text>
<text text-anchor="middle" x="223" y="-7.5" font-family="Helvetica,sans-Serif" font-size="10.00">_impact</text>
</a>
</g>
</g>
<!-- Node1&#45;&gt;Node2 -->
<g id="edge1" class="edge"><title>Node1&#45;&gt;Node2</title>
<path fill="none" stroke="midnightblue" d="M132.31,-15.5C140.817,-15.5 149.472,-15.5 157.883,-15.5"/>
<polygon fill="midnightblue" stroke="midnightblue" points="132.033,-12.0001 122.033,-15.5 132.033,-19.0001 132.033,-12.0001"/>
</g>
<!-- Node3 -->
<g id="node3" class="node"><title>Node3</title>
<g id="a_node3"><a xlink:href="classAP__Landing.html#a7e905f0cb574cb49a778b18906362736" target="_top" xlink:title="AP_Landing::set_initial\l_slope">
<polygon fill="white" stroke="black" points="324,-0.5 324,-30.5 440,-30.5 440,-0.5 324,-0.5"/>
<text text-anchor="start" x="332" y="-18.5" font-family="Helvetica,sans-Serif" font-size="10.00">AP_Landing::set_initial</text>
<text text-anchor="middle" x="382" y="-7.5" font-family="Helvetica,sans-Serif" font-size="10.00">_slope</text>
</a>
</g>
</g>
<!-- Node2&#45;&gt;Node3 -->
<g id="edge2" class="edge"><title>Node2&#45;&gt;Node3</title>
<path fill="none" stroke="midnightblue" d="M298.528,-15.5C306.95,-15.5 315.433,-15.5 323.589,-15.5"/>
<polygon fill="midnightblue" stroke="midnightblue" points="298.311,-12.0001 288.311,-15.5 298.311,-19.0001 298.311,-12.0001"/>
</g>
</g>
</svg>
