<?xml version="1.0" encoding="UTF-8" standalone="no"?>
<!DOCTYPE svg PUBLIC "-//W3C//DTD SVG 1.1//EN"
 "http://www.w3.org/Graphics/SVG/1.1/DTD/svg11.dtd">
<!-- Generated by graphviz version 2.38.0 (20140413.2041)
 -->
<!-- Title: AP_GPS_Backend Pages: 1 -->
<svg width="248pt" height="522pt"
 viewBox="0.00 0.00 248.00 522.00" xmlns="http://www.w3.org/2000/svg" xmlns:xlink="http://www.w3.org/1999/xlink">
<g id="graph0" class="graph" transform="scale(1 1) rotate(0) translate(4 518)">
<title>AP_GPS_Backend</title>
<polygon fill="white" stroke="none" points="-4,4 -4,-518 244,-518 244,4 -4,4"/>
<!-- Node1 -->
<g id="node1" class="node"><title>Node1</title>
<polygon fill="#bfbfbf" stroke="black" points="0,-247.5 0,-266.5 100,-266.5 100,-247.5 0,-247.5"/>
<text text-anchor="middle" x="50" y="-254.5" font-family="Helvetica,sans-Serif" font-size="10.00">AP_GPS_Backend</text>
</g>
<!-- Node2 -->
<g id="node2" class="node"><title>Node2</title>
<g id="a_node2"><a xlink:href="classAP__GPS__ERB.html" target="_top" xlink:title="AP_GPS_ERB">
<polygon fill="white" stroke="black" points="146.5,-494.5 146.5,-513.5 229.5,-513.5 229.5,-494.5 146.5,-494.5"/>
<text text-anchor="middle" x="188" y="-501.5" font-family="Helvetica,sans-Serif" font-size="10.00">AP_GPS_ERB</text>
</a>
</g>
</g>
<!-- Node1&#45;&gt;Node2 -->
<g id="edge1" class="edge"><title>Node1&#45;&gt;Node2</title>
<path fill="none" stroke="midnightblue" d="M52.9076,-276.905C58.1266,-320.55 76.4896,-425.503 136,-485 139.876,-488.875 144.613,-491.969 149.622,-494.437"/>
<polygon fill="midnightblue" stroke="midnightblue" points="56.3639,-276.313 51.8034,-266.75 49.4049,-277.069 56.3639,-276.313"/>
</g>
<!-- Node3 -->
<g id="node3" class="node"><title>Node3</title>
<g id="a_node3"><a xlink:href="classAP__GPS__GSOF.html" target="_top" xlink:title="AP_GPS_GSOF">
<polygon fill="white" stroke="black" points="143.5,-456.5 143.5,-475.5 232.5,-475.5 232.5,-456.5 143.5,-456.5"/>
<text text-anchor="middle" x="188" y="-463.5" font-family="Helvetica,sans-Serif" font-size="10.00">AP_GPS_GSOF</text>
</a>
</g>
</g>
<!-- Node1&#45;&gt;Node3 -->
<g id="edge2" class="edge"><title>Node1&#45;&gt;Node3</title>
<path fill="none" stroke="midnightblue" d="M54.5611,-276.677C62.4502,-314.776 84.9027,-399.075 136,-447 140.135,-450.878 145.133,-453.982 150.363,-456.462"/>
<polygon fill="midnightblue" stroke="midnightblue" points="57.9888,-275.968 52.637,-266.824 51.1186,-277.309 57.9888,-275.968"/>
</g>
<!-- Node4 -->
<g id="node4" class="node"><title>Node4</title>
<g id="a_node4"><a xlink:href="classAP__GPS__MAV.html" target="_top" xlink:title="AP_GPS_MAV">
<polygon fill="white" stroke="black" points="146.5,-418.5 146.5,-437.5 229.5,-437.5 229.5,-418.5 146.5,-418.5"/>
<text text-anchor="middle" x="188" y="-425.5" font-family="Helvetica,sans-Serif" font-size="10.00">AP_GPS_MAV</text>
</a>
</g>
</g>
<!-- Node1&#45;&gt;Node4 -->
<g id="edge3" class="edge"><title>Node1&#45;&gt;Node4</title>
<path fill="none" stroke="midnightblue" d="M57.0032,-276.636C67.7642,-308.7 93.2927,-372.383 136,-409 140.519,-412.875 145.903,-415.993 151.451,-418.492"/>
<polygon fill="midnightblue" stroke="midnightblue" points="60.2041,-275.157 53.8089,-266.71 53.5406,-277.302 60.2041,-275.157"/>
</g>
<!-- Node5 -->
<g id="node5" class="node"><title>Node5</title>
<g id="a_node5"><a xlink:href="classAP__GPS__MTK.html" target="_top" xlink:title="AP_GPS_MTK">
<polygon fill="white" stroke="black" points="146.5,-380.5 146.5,-399.5 229.5,-399.5 229.5,-380.5 146.5,-380.5"/>
<text text-anchor="middle" x="188" y="-387.5" font-family="Helvetica,sans-Serif" font-size="10.00">AP_GPS_MTK</text>
</a>
</g>
</g>
<!-- Node1&#45;&gt;Node5 -->
<g id="edge4" class="edge"><title>Node1&#45;&gt;Node5</title>
<path fill="none" stroke="midnightblue" d="M60.5803,-275.897C74.1644,-300.936 101.279,-344.967 136,-371 141.065,-374.798 146.972,-377.909 152.934,-380.433"/>
<polygon fill="midnightblue" stroke="midnightblue" points="63.5075,-273.944 55.7517,-266.727 57.3136,-277.206 63.5075,-273.944"/>
</g>
<!-- Node6 -->
<g id="node6" class="node"><title>Node6</title>
<g id="a_node6"><a xlink:href="classAP__GPS__MTK19.html" target="_top" xlink:title="AP_GPS_MTK19">
<polygon fill="white" stroke="black" points="141.5,-342.5 141.5,-361.5 234.5,-361.5 234.5,-342.5 141.5,-342.5"/>
<text text-anchor="middle" x="188" y="-349.5" font-family="Helvetica,sans-Serif" font-size="10.00">AP_GPS_MTK19</text>
</a>
</g>
</g>
<!-- Node1&#45;&gt;Node6 -->
<g id="edge5" class="edge"><title>Node1&#45;&gt;Node6</title>
<path fill="none" stroke="midnightblue" d="M66.5021,-274.191C82.5118,-291.087 108.911,-316.648 136,-333 142.067,-336.662 148.956,-339.809 155.666,-342.429"/>
<polygon fill="midnightblue" stroke="midnightblue" points="68.8891,-271.618 59.5198,-266.672 63.7594,-276.381 68.8891,-271.618"/>
</g>
<!-- Node7 -->
<g id="node7" class="node"><title>Node7</title>
<g id="a_node7"><a xlink:href="classAP__GPS__NMEA.html" target="_top" xlink:title="AP_GPS_NMEA">
<polygon fill="white" stroke="black" points="142.5,-304.5 142.5,-323.5 233.5,-323.5 233.5,-304.5 142.5,-304.5"/>
<text text-anchor="middle" x="188" y="-311.5" font-family="Helvetica,sans-Serif" font-size="10.00">AP_GPS_NMEA</text>
</a>
</g>
</g>
<!-- Node1&#45;&gt;Node7 -->
<g id="edge6" class="edge"><title>Node1&#45;&gt;Node7</title>
<path fill="none" stroke="midnightblue" d="M80.9354,-270.944C97.1292,-278.344 117.541,-287.444 136,-295 143.87,-298.221 152.51,-301.526 160.406,-304.457"/>
<polygon fill="midnightblue" stroke="midnightblue" points="82.0006,-267.581 71.4527,-266.584 79.0768,-273.941 82.0006,-267.581"/>
</g>
<!-- Node8 -->
<g id="node8" class="node"><title>Node8</title>
<g id="a_node8"><a xlink:href="classAP__GPS__NOVA.html" target="_top" xlink:title="AP_GPS_NOVA">
<polygon fill="white" stroke="black" points="143,-266.5 143,-285.5 233,-285.5 233,-266.5 143,-266.5"/>
<text text-anchor="middle" x="188" y="-273.5" font-family="Helvetica,sans-Serif" font-size="10.00">AP_GPS_NOVA</text>
</a>
</g>
</g>
<!-- Node1&#45;&gt;Node8 -->
<g id="edge7" class="edge"><title>Node1&#45;&gt;Node8</title>
<path fill="none" stroke="midnightblue" d="M110.1,-265.257C121.124,-266.797 132.466,-268.381 142.939,-269.844"/>
<polygon fill="midnightblue" stroke="midnightblue" points="110.487,-261.777 100.099,-263.859 109.519,-268.709 110.487,-261.777"/>
</g>
<!-- Node9 -->
<g id="node9" class="node"><title>Node9</title>
<g id="a_node9"><a xlink:href="classAP__GPS__PX4.html" target="_top" xlink:title="AP_GPS_PX4">
<polygon fill="white" stroke="black" points="148,-228.5 148,-247.5 228,-247.5 228,-228.5 148,-228.5"/>
<text text-anchor="middle" x="188" y="-235.5" font-family="Helvetica,sans-Serif" font-size="10.00">AP_GPS_PX4</text>
</a>
</g>
</g>
<!-- Node1&#45;&gt;Node9 -->
<g id="edge8" class="edge"><title>Node1&#45;&gt;Node9</title>
<path fill="none" stroke="midnightblue" d="M110.177,-248.733C122.899,-246.955 136.039,-245.12 147.777,-243.48"/>
<polygon fill="midnightblue" stroke="midnightblue" points="109.519,-245.291 100.099,-250.141 110.487,-252.223 109.519,-245.291"/>
</g>
<!-- Node10 -->
<g id="node10" class="node"><title>Node10</title>
<g id="a_node10"><a xlink:href="classAP__GPS__QURT.html" target="_top" xlink:title="AP_GPS_QURT">
<polygon fill="white" stroke="black" points="143,-190.5 143,-209.5 233,-209.5 233,-190.5 143,-190.5"/>
<text text-anchor="middle" x="188" y="-197.5" font-family="Helvetica,sans-Serif" font-size="10.00">AP_GPS_QURT</text>
</a>
</g>
</g>
<!-- Node1&#45;&gt;Node10 -->
<g id="edge9" class="edge"><title>Node1&#45;&gt;Node10</title>
<path fill="none" stroke="midnightblue" d="M80.9354,-243.056C97.1292,-235.656 117.541,-226.556 136,-219 143.87,-215.779 152.51,-212.474 160.406,-209.543"/>
<polygon fill="midnightblue" stroke="midnightblue" points="79.0768,-240.059 71.4527,-247.416 82.0006,-246.419 79.0768,-240.059"/>
</g>
<!-- Node11 -->
<g id="node11" class="node"><title>Node11</title>
<g id="a_node11"><a xlink:href="classAP__GPS__SBF.html" target="_top" xlink:title="AP_GPS_SBF">
<polygon fill="white" stroke="black" points="147.5,-152.5 147.5,-171.5 228.5,-171.5 228.5,-152.5 147.5,-152.5"/>
<text text-anchor="middle" x="188" y="-159.5" font-family="Helvetica,sans-Serif" font-size="10.00">AP_GPS_SBF</text>
</a>
</g>
</g>
<!-- Node1&#45;&gt;Node11 -->
<g id="edge10" class="edge"><title>Node1&#45;&gt;Node11</title>
<path fill="none" stroke="midnightblue" d="M66.5021,-239.809C82.5118,-222.913 108.911,-197.352 136,-181 142.067,-177.338 148.956,-174.191 155.666,-171.571"/>
<polygon fill="midnightblue" stroke="midnightblue" points="63.7594,-237.619 59.5198,-247.328 68.8891,-242.382 63.7594,-237.619"/>
</g>
<!-- Node12 -->
<g id="node12" class="node"><title>Node12</title>
<g id="a_node12"><a xlink:href="classAP__GPS__SBP.html" target="_top" xlink:title="AP_GPS_SBP">
<polygon fill="white" stroke="black" points="147,-114.5 147,-133.5 229,-133.5 229,-114.5 147,-114.5"/>
<text text-anchor="middle" x="188" y="-121.5" font-family="Helvetica,sans-Serif" font-size="10.00">AP_GPS_SBP</text>
</a>
</g>
</g>
<!-- Node1&#45;&gt;Node12 -->
<g id="edge11" class="edge"><title>Node1&#45;&gt;Node12</title>
<path fill="none" stroke="midnightblue" d="M60.5803,-238.103C74.1644,-213.064 101.279,-169.033 136,-143 141.065,-139.202 146.972,-136.091 152.934,-133.567"/>
<polygon fill="midnightblue" stroke="midnightblue" points="57.3136,-236.794 55.7517,-247.273 63.5075,-240.056 57.3136,-236.794"/>
</g>
<!-- Node13 -->
<g id="node13" class="node"><title>Node13</title>
<g id="a_node13"><a xlink:href="classAP__GPS__SIRF.html" target="_top" xlink:title="AP_GPS_SIRF">
<polygon fill="white" stroke="black" points="145.5,-76.5 145.5,-95.5 230.5,-95.5 230.5,-76.5 145.5,-76.5"/>
<text text-anchor="middle" x="188" y="-83.5" font-family="Helvetica,sans-Serif" font-size="10.00">AP_GPS_SIRF</text>
</a>
</g>
</g>
<!-- Node1&#45;&gt;Node13 -->
<g id="edge12" class="edge"><title>Node1&#45;&gt;Node13</title>
<path fill="none" stroke="midnightblue" d="M57.0032,-237.364C67.7642,-205.3 93.2927,-141.617 136,-105 140.519,-101.125 145.903,-98.0072 151.451,-95.5077"/>
<polygon fill="midnightblue" stroke="midnightblue" points="53.5406,-236.698 53.8089,-247.29 60.2041,-238.843 53.5406,-236.698"/>
</g>
<!-- Node14 -->
<g id="node14" class="node"><title>Node14</title>
<g id="a_node14"><a xlink:href="classAP__GPS__UAVCAN.html" target="_top" xlink:title="AP_GPS_UAVCAN">
<polygon fill="white" stroke="black" points="136,-38.5 136,-57.5 240,-57.5 240,-38.5 136,-38.5"/>
<text text-anchor="middle" x="188" y="-45.5" font-family="Helvetica,sans-Serif" font-size="10.00">AP_GPS_UAVCAN</text>
</a>
</g>
</g>
<!-- Node1&#45;&gt;Node14 -->
<g id="edge13" class="edge"><title>Node1&#45;&gt;Node14</title>
<path fill="none" stroke="midnightblue" d="M54.5611,-237.323C62.4502,-199.224 84.9027,-114.925 136,-67 140.135,-63.1217 145.133,-60.0176 150.363,-57.5379"/>
<polygon fill="midnightblue" stroke="midnightblue" points="51.1186,-236.691 52.637,-247.176 57.9888,-238.032 51.1186,-236.691"/>
</g>
<!-- Node15 -->
<g id="node15" class="node"><title>Node15</title>
<g id="a_node15"><a xlink:href="classAP__GPS__UBLOX.html" target="_top" xlink:title="AP_GPS_UBLOX">
<polygon fill="white" stroke="black" points="140.5,-0.5 140.5,-19.5 235.5,-19.5 235.5,-0.5 140.5,-0.5"/>
<text text-anchor="middle" x="188" y="-7.5" font-family="Helvetica,sans-Serif" font-size="10.00">AP_GPS_UBLOX</text>
</a>
</g>
</g>
<!-- Node1&#45;&gt;Node15 -->
<g id="edge14" class="edge"><title>Node1&#45;&gt;Node15</title>
<path fill="none" stroke="midnightblue" d="M52.9076,-237.095C58.1266,-193.45 76.4896,-88.497 136,-29 139.876,-25.1253 144.613,-22.0311 149.622,-19.5625"/>
<polygon fill="midnightblue" stroke="midnightblue" points="49.4049,-236.931 51.8034,-247.25 56.3639,-237.687 49.4049,-236.931"/>
</g>
</g>
</svg>
