<?xml version="1.0" encoding="UTF-8" standalone="no"?>
<!DOCTYPE svg PUBLIC "-//W3C//DTD SVG 1.1//EN"
 "http://www.w3.org/Graphics/SVG/1.1/DTD/svg11.dtd">
<!-- Generated by graphviz version 2.38.0 (20140413.2041)
 -->
<!-- Title: SITL::Aircraft::update_mag_field_bf Pages: 1 -->
<svg width="257pt" height="116pt"
 viewBox="0.00 0.00 257.00 115.50" xmlns="http://www.w3.org/2000/svg" xmlns:xlink="http://www.w3.org/1999/xlink">
<g id="graph0" class="graph" transform="scale(1 1) rotate(0) translate(4 111.5)">
<title>SITL::Aircraft::update_mag_field_bf</title>
<polygon fill="white" stroke="none" points="-4,4 -4,-111.5 253,-111.5 253,4 -4,4"/>
<!-- Node1 -->
<g id="node1" class="node"><title>Node1</title>
<polygon fill="#bfbfbf" stroke="black" points="0,-33 0,-63 110,-63 110,-33 0,-33"/>
<text text-anchor="start" x="8" y="-51" font-family="Helvetica,sans-Serif" font-size="10.00">SITL::Aircraft::update</text>
<text text-anchor="middle" x="55" y="-40" font-family="Helvetica,sans-Serif" font-size="10.00">_mag_field_bf</text>
</g>
<!-- Node2 -->
<g id="node2" class="node"><title>Node2</title>
<g id="a_node2"><a xlink:href="classSITL_1_1Aircraft.html#ac1bfd277815fb52895e5bc409fb69ea1" target="_top" xlink:title="SITL::Aircraft::get\l_mag_field_ef">
<polygon fill="white" stroke="black" points="150,-77 150,-107 245,-107 245,-77 150,-77"/>
<text text-anchor="start" x="158" y="-95" font-family="Helvetica,sans-Serif" font-size="10.00">SITL::Aircraft::get</text>
<text text-anchor="middle" x="197.5" y="-84" font-family="Helvetica,sans-Serif" font-size="10.00">_mag_field_ef</text>
</a>
</g>
</g>
<!-- Node1&#45;&gt;Node2 -->
<g id="edge1" class="edge"><title>Node1&#45;&gt;Node2</title>
<path fill="none" stroke="midnightblue" d="M103.959,-63.0192C115.511,-66.6369 127.96,-70.5354 139.866,-74.2641"/>
<polygon fill="midnightblue" stroke="midnightblue" points="139.119,-77.6977 149.708,-77.3462 141.211,-71.0176 139.119,-77.6977"/>
</g>
<!-- Node3 -->
<g id="node3" class="node"><title>Node3</title>
<g id="a_node3"><a xlink:href="classMatrix3.html#a62587bd216436f09f06b9e1330f84bc0" target="_top" xlink:title="Matrix3::from_euler">
<polygon fill="white" stroke="black" points="147,-38.5 147,-57.5 248,-57.5 248,-38.5 147,-38.5"/>
<text text-anchor="middle" x="197.5" y="-45.5" font-family="Helvetica,sans-Serif" font-size="10.00">Matrix3::from_euler</text>
</a>
</g>
</g>
<!-- Node1&#45;&gt;Node3 -->
<g id="edge2" class="edge"><title>Node1&#45;&gt;Node3</title>
<path fill="none" stroke="midnightblue" d="M110.321,-48C118.979,-48 127.978,-48 136.754,-48"/>
<polygon fill="midnightblue" stroke="midnightblue" points="136.919,-51.5001 146.919,-48 136.919,-44.5001 136.919,-51.5001"/>
</g>
<!-- Node4 -->
<g id="node4" class="node"><title>Node4</title>
<g id="a_node4"><a xlink:href="classMatrix3.html#a18e2df03dec4abdf11fc9fb60ed7c226" target="_top" xlink:title="Matrix3::transposed">
<polygon fill="white" stroke="black" points="146,-0.5 146,-19.5 249,-19.5 249,-0.5 146,-0.5"/>
<text text-anchor="middle" x="197.5" y="-7.5" font-family="Helvetica,sans-Serif" font-size="10.00">Matrix3::transposed</text>
</a>
</g>
</g>
<!-- Node1&#45;&gt;Node4 -->
<g id="edge3" class="edge"><title>Node1&#45;&gt;Node4</title>
<path fill="none" stroke="midnightblue" d="M110.321,-33.3082C123.859,-29.6468 138.229,-25.76 151.275,-22.2315"/>
<polygon fill="midnightblue" stroke="midnightblue" points="152.219,-25.6023 160.958,-19.6128 150.391,-18.8451 152.219,-25.6023"/>
</g>
</g>
</svg>
