<?xml version="1.0" encoding="UTF-8" standalone="no"?>
<!DOCTYPE svg PUBLIC "-//W3C//DTD SVG 1.1//EN"
 "http://www.w3.org/Graphics/SVG/1.1/DTD/svg11.dtd">
<!-- Generated by graphviz version 2.38.0 (20140413.2041)
 -->
<!-- Title: SITL::QuadPlane::create Pages: 1 -->
<svg width="474pt" height="66pt"
 viewBox="0.00 0.00 474.00 66.00" xmlns="http://www.w3.org/2000/svg" xmlns:xlink="http://www.w3.org/1999/xlink">
<g id="graph0" class="graph" transform="scale(1 1) rotate(0) translate(4 62)">
<title>SITL::QuadPlane::create</title>
<polygon fill="white" stroke="none" points="-4,4 -4,-62 470,-62 470,4 -4,4"/>
<!-- Node1 -->
<g id="node1" class="node"><title>Node1</title>
<polygon fill="#bfbfbf" stroke="black" points="0,-19.5 0,-38.5 125,-38.5 125,-19.5 0,-19.5"/>
<text text-anchor="middle" x="62.5" y="-26.5" font-family="Helvetica,sans-Serif" font-size="10.00">SITL::QuadPlane::create</text>
</g>
<!-- Node2 -->
<g id="node2" class="node"><title>Node2</title>
<g id="a_node2"><a xlink:href="classSITL_1_1QuadPlane.html#a7ce13b89d96ad3cda813ef29604e1e76" target="_top" xlink:title="SITL::QuadPlane::QuadPlane">
<polygon fill="white" stroke="black" points="161,-19.5 161,-38.5 307,-38.5 307,-19.5 161,-19.5"/>
<text text-anchor="middle" x="234" y="-26.5" font-family="Helvetica,sans-Serif" font-size="10.00">SITL::QuadPlane::QuadPlane</text>
</a>
</g>
</g>
<!-- Node1&#45;&gt;Node2 -->
<g id="edge1" class="edge"><title>Node1&#45;&gt;Node2</title>
<path fill="none" stroke="midnightblue" d="M125.173,-29C133.473,-29 142.093,-29 150.68,-29"/>
<polygon fill="midnightblue" stroke="midnightblue" points="150.723,-32.5001 160.723,-29 150.723,-25.5001 150.723,-32.5001"/>
</g>
<!-- Node3 -->
<g id="node3" class="node"><title>Node3</title>
<g id="a_node3"><a xlink:href="classSITL_1_1Frame.html#ad45481981db45618022bffc4817d09eb" target="_top" xlink:title="SITL::Frame::find_frame">
<polygon fill="white" stroke="black" points="343,-38.5 343,-57.5 466,-57.5 466,-38.5 343,-38.5"/>
<text text-anchor="middle" x="404.5" y="-45.5" font-family="Helvetica,sans-Serif" font-size="10.00">SITL::Frame::find_frame</text>
</a>
</g>
</g>
<!-- Node2&#45;&gt;Node3 -->
<g id="edge2" class="edge"><title>Node2&#45;&gt;Node3</title>
<path fill="none" stroke="midnightblue" d="M307.437,-37.168C315.808,-38.1118 324.337,-39.0736 332.686,-40.015"/>
<polygon fill="midnightblue" stroke="midnightblue" points="332.428,-43.508 342.757,-41.1506 333.212,-36.5521 332.428,-43.508"/>
</g>
<!-- Node4 -->
<g id="node4" class="node"><title>Node4</title>
<g id="a_node4"><a xlink:href="classSITL_1_1Frame.html#ae4f2670ddee41221a8c3819e2c459e79" target="_top" xlink:title="SITL::Frame::init">
<polygon fill="white" stroke="black" points="359.5,-0.5 359.5,-19.5 449.5,-19.5 449.5,-0.5 359.5,-0.5"/>
<text text-anchor="middle" x="404.5" y="-7.5" font-family="Helvetica,sans-Serif" font-size="10.00">SITL::Frame::init</text>
</a>
</g>
</g>
<!-- Node2&#45;&gt;Node4 -->
<g id="edge3" class="edge"><title>Node2&#45;&gt;Node4</title>
<path fill="none" stroke="midnightblue" d="M307.437,-20.832C321.511,-19.2451 336.033,-17.6075 349.391,-16.1013"/>
<polygon fill="midnightblue" stroke="midnightblue" points="349.808,-19.5766 359.352,-14.9781 349.023,-12.6207 349.808,-19.5766"/>
</g>
</g>
</svg>
