<?xml version="1.0" encoding="UTF-8" standalone="no"?>
<!DOCTYPE svg PUBLIC "-//W3C//DTD SVG 1.1//EN"
 "http://www.w3.org/Graphics/SVG/1.1/DTD/svg11.dtd">
<!-- Generated by graphviz version 2.38.0 (20140413.2041)
 -->
<!-- Title: AP_Baro::AP_Baro Pages: 1 -->
<svg width="424pt" height="78pt"
 viewBox="0.00 0.00 424.00 77.50" xmlns="http://www.w3.org/2000/svg" xmlns:xlink="http://www.w3.org/1999/xlink">
<g id="graph0" class="graph" transform="scale(1 1) rotate(0) translate(4 73.5)">
<title>AP_Baro::AP_Baro</title>
<polygon fill="white" stroke="none" points="-4,4 -4,-73.5 420,-73.5 420,4 -4,4"/>
<!-- Node1 -->
<g id="node1" class="node"><title>Node1</title>
<polygon fill="#bfbfbf" stroke="black" points="0,-28 0,-47 101,-47 101,-28 0,-28"/>
<text text-anchor="middle" x="50.5" y="-35" font-family="Helvetica,sans-Serif" font-size="10.00">AP_Baro::AP_Baro</text>
</g>
<!-- Node2 -->
<g id="node2" class="node"><title>Node2</title>
<g id="a_node2"><a xlink:href="classAP__Param.html#a5f6dcfce1c0a79cf5bd81283e22f3201" target="_top" xlink:title="AP_Param::setup_object\l_defaults">
<polygon fill="white" stroke="black" points="137,-22.5 137,-52.5 262,-52.5 262,-22.5 137,-22.5"/>
<text text-anchor="start" x="145" y="-40.5" font-family="Helvetica,sans-Serif" font-size="10.00">AP_Param::setup_object</text>
<text text-anchor="middle" x="199.5" y="-29.5" font-family="Helvetica,sans-Serif" font-size="10.00">_defaults</text>
</a>
</g>
</g>
<!-- Node1&#45;&gt;Node2 -->
<g id="edge1" class="edge"><title>Node1&#45;&gt;Node2</title>
<path fill="none" stroke="midnightblue" d="M101.267,-37.5C109.469,-37.5 118.113,-37.5 126.724,-37.5"/>
<polygon fill="midnightblue" stroke="midnightblue" points="126.791,-41.0001 136.791,-37.5 126.791,-34.0001 126.791,-41.0001"/>
</g>
<!-- Node3 -->
<g id="node3" class="node"><title>Node3</title>
<g id="a_node3"><a xlink:href="classAP__Param.html#acd4b14f793c37f162e298761d2155ca6" target="_top" xlink:title="AP_Param::set_value">
<polygon fill="white" stroke="black" points="301,-50 301,-69 413,-69 413,-50 301,-50"/>
<text text-anchor="middle" x="357" y="-57" font-family="Helvetica,sans-Serif" font-size="10.00">AP_Param::set_value</text>
</a>
</g>
</g>
<!-- Node2&#45;&gt;Node3 -->
<g id="edge2" class="edge"><title>Node2&#45;&gt;Node3</title>
<path fill="none" stroke="midnightblue" d="M262.405,-46.2582C271.734,-47.5782 281.382,-48.9431 290.779,-50.2725"/>
<polygon fill="midnightblue" stroke="midnightblue" points="290.458,-53.762 300.85,-51.6974 291.439,-46.831 290.458,-53.762"/>
</g>
<!-- Node4 -->
<g id="node4" class="node"><title>Node4</title>
<g id="a_node4"><a xlink:href="classAP__Param.html#a7535a9b529dae326dcebb6be33dbbe9a" target="_top" xlink:title="AP_Param::get_default\l_value">
<polygon fill="white" stroke="black" points="298,-0.5 298,-30.5 416,-30.5 416,-0.5 298,-0.5"/>
<text text-anchor="start" x="306" y="-18.5" font-family="Helvetica,sans-Serif" font-size="10.00">AP_Param::get_default</text>
<text text-anchor="middle" x="357" y="-7.5" font-family="Helvetica,sans-Serif" font-size="10.00">_value</text>
</a>
</g>
</g>
<!-- Node2&#45;&gt;Node4 -->
<g id="edge3" class="edge"><title>Node2&#45;&gt;Node4</title>
<path fill="none" stroke="midnightblue" d="M262.405,-28.7418C270.714,-27.5662 279.275,-26.3549 287.687,-25.1648"/>
<polygon fill="midnightblue" stroke="midnightblue" points="288.436,-28.5938 297.847,-23.7274 287.455,-21.6629 288.436,-28.5938"/>
</g>
</g>
</svg>
