<?xml version="1.0" encoding="UTF-8" standalone="no"?>
<!DOCTYPE svg PUBLIC "-//W3C//DTD SVG 1.1//EN"
 "http://www.w3.org/Graphics/SVG/1.1/DTD/svg11.dtd">
<!-- Generated by graphviz version 2.38.0 (20140413.2041)
 -->
<!-- Title: NavEKF2::getLastVelNorthEastReset Pages: 1 -->
<!--zoomable 127 -->
<svg id="main" version="1.1" xmlns="http://www.w3.org/2000/svg" xmlns:xlink="http://www.w3.org/1999/xlink" xml:space="preserve" onload="init(evt)">
<style type="text/css"><![CDATA[
.edge:hover path { stroke: red; }
.edge:hover polygon { stroke: red; fill: red; }
]]></style>
<script type="text/javascript"><![CDATA[
var edges = document.getElementsByTagName('g');
if (edges && edges.length) {
  for (var i=0;i<edges.length;i++) {
    if (edges[i].id.substr(0,4)=='edge') {
      edges[i].setAttribute('class','edge');
    }
  }
}
]]></script>
        <defs>
                <circle id="rim" cx="0" cy="0" r="7"/>
                <circle id="rim2" cx="0" cy="0" r="3.5"/>
                <g id="zoomPlus">
                        <use xlink:href="#rim" fill="#404040">
                                <set attributeName="fill" to="#808080" begin="zoomplus.mouseover" end="zoomplus.mouseout"/>
                        </use>
                        <path d="M-4,0h8M0,-4v8" fill="none" stroke="white" stroke-width="1.5" pointer-events="none"/>
                </g>
                <g id="zoomMin">
                        <use xlink:href="#rim" fill="#404040">
                                <set attributeName="fill" to="#808080" begin="zoomminus.mouseover" end="zoomminus.mouseout"/>
                        </use>
                        <path d="M-4,0h8" fill="none" stroke="white" stroke-width="1.5" pointer-events="none"/>
                </g>
                <g id="dirArrow">
                        <path fill="none" stroke="white" stroke-width="1.5" d="M0,-3.0v7 M-2.5,-0.5L0,-3.0L2.5,-0.5"/>
                </g>
               <g id="resetDef">
                       <use xlink:href="#rim2" fill="#404040">
                               <set attributeName="fill" to="#808080" begin="reset.mouseover" end="reset.mouseout"/>
                       </use>
               </g>
        </defs>

<script type="text/javascript">
var viewWidth = 667;
var viewHeight = 127;
var sectionId = 'dynsection-41';
</script>
<script xlink:href="svgpan.js"/>
<svg id="graph" class="graph">
<g id="viewport">
<title>NavEKF2::getLastVelNorthEastReset</title>
<polygon fill="white" stroke="none" points="-4,4 -4,-123 663,-123 663,4 -4,4"/>
<!-- Node1 -->
<g id="node1" class="node"><title>Node1</title>
<polygon fill="#bfbfbf" stroke="black" points="0,-22.5 0,-52.5 136,-52.5 136,-22.5 0,-22.5"/>
<text text-anchor="start" x="8" y="-40.5" font-family="Helvetica,sans-Serif" font-size="10.00">NavEKF2::getLastVelNorth</text>
<text text-anchor="middle" x="68" y="-29.5" font-family="Helvetica,sans-Serif" font-size="10.00">EastReset</text>
</g>
<!-- Node2 -->
<g id="node2" class="node"><title>Node2</title>
<g id="a_node2"><a xlink:href="classNavEKF2.html#ab18af2714c15fcf190493c01e2a28c73" target="_top" xlink:title="NavEKF2::activeCores">
<polygon fill="white" stroke="black" points="192.5,-50 192.5,-69 310.5,-69 310.5,-50 192.5,-50"/>
<text text-anchor="middle" x="251.5" y="-57" font-family="Helvetica,sans-Serif" font-size="10.00">NavEKF2::activeCores</text>
</a>
</g>
</g>
<!-- Node1&#45;&gt;Node2 -->
<g id="edge1" class="edge"><title>Node1&#45;&gt;Node2</title>
<path fill="none" stroke="midnightblue" d="M146.147,-46.8511C161.632,-48.7281 177.658,-50.6706 192.365,-52.4534"/>
<polygon fill="midnightblue" stroke="midnightblue" points="146.417,-43.3583 136.068,-45.6295 145.574,-50.3075 146.417,-43.3583"/>
</g>
<!-- Node6 -->
<g id="node6" class="node"><title>Node6</title>
<g id="a_node6"><a xlink:href="classAP__AHRS__NavEKF.html#a7fec6813bac5fd171861c21b91d734d9" target="_top" xlink:title="AP_AHRS_NavEKF::getLastVel\lNorthEastReset">
<polygon fill="white" stroke="black" points="172,-0.5 172,-30.5 331,-30.5 331,-0.5 172,-0.5"/>
<text text-anchor="start" x="180" y="-18.5" font-family="Helvetica,sans-Serif" font-size="10.00">AP_AHRS_NavEKF::getLastVel</text>
<text text-anchor="middle" x="251.5" y="-7.5" font-family="Helvetica,sans-Serif" font-size="10.00">NorthEastReset</text>
</a>
</g>
</g>
<!-- Node1&#45;&gt;Node6 -->
<g id="edge5" class="edge"><title>Node1&#45;&gt;Node6</title>
<path fill="none" stroke="midnightblue" d="M146.258,-28.1354C154.693,-27.113 163.287,-26.0713 171.74,-25.0467"/>
<polygon fill="midnightblue" stroke="midnightblue" points="145.574,-24.6925 136.068,-29.3705 146.417,-31.6417 145.574,-24.6925"/>
</g>
<!-- Node3 -->
<g id="node3" class="node"><title>Node3</title>
<g id="a_node3"><a xlink:href="classDataFlash__Class.html#a46e58faaa53c44516433f6bb7bde4163" target="_top" xlink:title="DataFlash_Class::Log\l_Write_POS">
<polygon fill="white" stroke="black" points="382,-88.5 382,-118.5 496,-118.5 496,-88.5 382,-88.5"/>
<text text-anchor="start" x="390" y="-106.5" font-family="Helvetica,sans-Serif" font-size="10.00">DataFlash_Class::Log</text>
<text text-anchor="middle" x="439" y="-95.5" font-family="Helvetica,sans-Serif" font-size="10.00">_Write_POS</text>
</a>
</g>
</g>
<!-- Node2&#45;&gt;Node3 -->
<g id="edge2" class="edge"><title>Node2&#45;&gt;Node3</title>
<path fill="none" stroke="midnightblue" d="M302.574,-71.3774C327.101,-77.1952 356.72,-84.2207 381.996,-90.216"/>
<polygon fill="midnightblue" stroke="midnightblue" points="303.289,-67.9498 292.751,-69.0473 301.673,-74.7609 303.289,-67.9498"/>
</g>
<!-- Node5 -->
<g id="node5" class="node"><title>Node5</title>
<g id="a_node5"><a xlink:href="classGCS__MAVLINK.html#a558ba3447048b78cb9dde460053e2741" target="_top" xlink:title="GCS_MAVLINK::send_ahrs2">
<polygon fill="white" stroke="black" points="367,-50 367,-69 511,-69 511,-50 367,-50"/>
<text text-anchor="middle" x="439" y="-57" font-family="Helvetica,sans-Serif" font-size="10.00">GCS_MAVLINK::send_ahrs2</text>
</a>
</g>
</g>
<!-- Node2&#45;&gt;Node5 -->
<g id="edge4" class="edge"><title>Node2&#45;&gt;Node5</title>
<path fill="none" stroke="midnightblue" d="M320.914,-59.5C335.933,-59.5 351.867,-59.5 366.985,-59.5"/>
<polygon fill="midnightblue" stroke="midnightblue" points="320.684,-56.0001 310.684,-59.5 320.684,-63.0001 320.684,-56.0001"/>
</g>
<!-- Node4 -->
<g id="node4" class="node"><title>Node4</title>
<g id="a_node4"><a xlink:href="classDataFlash__Class.html#a7868f0e3dcef65ea5b5fcae618f4c5d4" target="_top" xlink:title="DataFlash_Class::get\l_structures">
<polygon fill="white" stroke="black" points="547,-88.5 547,-118.5 659,-118.5 659,-88.5 547,-88.5"/>
<text text-anchor="start" x="555" y="-106.5" font-family="Helvetica,sans-Serif" font-size="10.00">DataFlash_Class::get</text>
<text text-anchor="middle" x="603" y="-95.5" font-family="Helvetica,sans-Serif" font-size="10.00">_structures</text>
</a>
</g>
</g>
<!-- Node3&#45;&gt;Node4 -->
<g id="edge3" class="edge"><title>Node3&#45;&gt;Node4</title>
<path fill="none" stroke="midnightblue" d="M506.39,-103.5C519.885,-103.5 533.94,-103.5 546.988,-103.5"/>
<polygon fill="midnightblue" stroke="midnightblue" points="506.205,-100 496.205,-103.5 506.205,-107 506.205,-100"/>
</g>
<!-- Node7 -->
<g id="node7" class="node"><title>Node7</title>
<g id="a_node7"><a xlink:href="classAP__AHRS__NavEKF.html#add98225e5350abab51cccd311f5496c3" target="_top" xlink:title="AP_AHRS_NavEKF::get\l_NavEKF3_const">
<polygon fill="white" stroke="black" points="376,-0.5 376,-30.5 502,-30.5 502,-0.5 376,-0.5"/>
<text text-anchor="start" x="384" y="-18.5" font-family="Helvetica,sans-Serif" font-size="10.00">AP_AHRS_NavEKF::get</text>
<text text-anchor="middle" x="439" y="-7.5" font-family="Helvetica,sans-Serif" font-size="10.00">_NavEKF3_const</text>
</a>
</g>
</g>
<!-- Node6&#45;&gt;Node7 -->
<g id="edge6" class="edge"><title>Node6&#45;&gt;Node7</title>
<path fill="none" stroke="midnightblue" d="M341.361,-15.5C353.005,-15.5 364.73,-15.5 375.802,-15.5"/>
<polygon fill="midnightblue" stroke="midnightblue" points="341.169,-12.0001 331.169,-15.5 341.169,-19.0001 341.169,-12.0001"/>
</g>
</g>
</svg>
        <g id="navigator" transform="translate(0 0)" fill="#404254">
                <rect fill="#f2f5e9" fill-opacity="0.5" stroke="#606060" stroke-width=".5" x="0" y="0" width="60" height="60"/>
                <use id="zoomplus" xlink:href="#zoomPlus" x="17" y="9" onmousedown="handleZoom(evt,'in')"/>
                <use id="zoomminus" xlink:href="#zoomMin" x="42" y="9" onmousedown="handleZoom(evt,'out')"/>
                <use id="reset" xlink:href="#resetDef" x="30" y="36" onmousedown="handleReset()"/>
                <g id="arrowUp" xlink:href="#dirArrow" transform="translate(30 24)" onmousedown="handlePan(0,-1)">
                  <use xlink:href="#rim" fill="#404040">
                        <set attributeName="fill" to="#808080" begin="arrowUp.mouseover" end="arrowUp.mouseout"/>
                  </use>
                  <path fill="none" stroke="white" stroke-width="1.5" d="M0,-3.0v7 M-2.5,-0.5L0,-3.0L2.5,-0.5"/>
                </g>
                <g id="arrowRight" xlink:href="#dirArrow" transform="rotate(90) translate(36 -43)" onmousedown="handlePan(1,0)">
                  <use xlink:href="#rim" fill="#404040">
                        <set attributeName="fill" to="#808080" begin="arrowRight.mouseover" end="arrowRight.mouseout"/>
                  </use>
                  <path fill="none" stroke="white" stroke-width="1.5" d="M0,-3.0v7 M-2.5,-0.5L0,-3.0L2.5,-0.5"/>
                </g>
                <g id="arrowDown" xlink:href="#dirArrow" transform="rotate(180) translate(-30 -48)" onmousedown="handlePan(0,1)">
                  <use xlink:href="#rim" fill="#404040">
                        <set attributeName="fill" to="#808080" begin="arrowDown.mouseover" end="arrowDown.mouseout"/>
                  </use>
                  <path fill="none" stroke="white" stroke-width="1.5" d="M0,-3.0v7 M-2.5,-0.5L0,-3.0L2.5,-0.5"/>
                </g>
                <g id="arrowLeft" xlink:href="#dirArrow" transform="rotate(270) translate(-36 17)" onmousedown="handlePan(-1,0)">
                  <use xlink:href="#rim" fill="#404040">
                        <set attributeName="fill" to="#808080" begin="arrowLeft.mouseover" end="arrowLeft.mouseout"/>
                  </use>
                  <path fill="none" stroke="white" stroke-width="1.5" d="M0,-3.0v7 M-2.5,-0.5L0,-3.0L2.5,-0.5"/>
                </g>
        </g>
        <svg viewBox="0 0 15 15" width="100%" height="30px" preserveAspectRatio="xMaxYMin meet">
         <g id="arrow_out" transform="scale(0.3 0.3)">
          <a xlink:href="classNavEKF2_a490ffcf1cad643ae6e5828af2369c9a8_icgraph_org.svg" target="_base">
           <rect id="button" ry="5" rx="5" y="6" x="6" height="38" width="38"
                fill="#f2f5e9" fill-opacity="0.5" stroke="#606060" stroke-width="1.0"/>
           <path id="arrow"
             d="M 11.500037,31.436501 C 11.940474,20.09759 22.043105,11.32322 32.158766,21.979434 L 37.068811,17.246167 C 37.068811,17.246167 37.088388,32 37.088388,32 L 22.160133,31.978069 C 22.160133,31.978069 26.997745,27.140456 26.997745,27.140456 C 18.528582,18.264221 13.291696,25.230495 11.500037,31.436501 z"
             style="fill:#404040;"/>
          </a>
         </g>
        </svg>
</svg>
