<?xml version="1.0" encoding="UTF-8" standalone="no"?>
<!DOCTYPE svg PUBLIC "-//W3C//DTD SVG 1.1//EN"
 "http://www.w3.org/Graphics/SVG/1.1/DTD/svg11.dtd">
<!-- Generated by graphviz version 2.38.0 (20140413.2041)
 -->
<!-- Title: RangeFinder::update Pages: 1 -->
<svg width="461pt" height="94pt"
 viewBox="0.00 0.00 461.00 93.50" xmlns="http://www.w3.org/2000/svg" xmlns:xlink="http://www.w3.org/1999/xlink">
<g id="graph0" class="graph" transform="scale(1 1) rotate(0) translate(4 89.5)">
<title>RangeFinder::update</title>
<polygon fill="white" stroke="none" points="-4,4 -4,-89.5 457,-89.5 457,4 -4,4"/>
<!-- Node1 -->
<g id="node1" class="node"><title>Node1</title>
<polygon fill="#bfbfbf" stroke="black" points="0,-47 0,-66 107,-66 107,-47 0,-47"/>
<text text-anchor="middle" x="53.5" y="-54" font-family="Helvetica,sans-Serif" font-size="10.00">RangeFinder::update</text>
</g>
<!-- Node2 -->
<g id="node2" class="node"><title>Node2</title>
<g id="a_node2"><a xlink:href="RFIND__test_8cpp.html#afe461d27b9c48d5921c00d521181f12f" target="_top" xlink:title="loop">
<polygon fill="white" stroke="black" points="194,-66 194,-85 229,-85 229,-66 194,-66"/>
<text text-anchor="middle" x="211.5" y="-73" font-family="Helvetica,sans-Serif" font-size="10.00">loop</text>
</a>
</g>
</g>
<!-- Node1&#45;&gt;Node2 -->
<g id="edge1" class="edge"><title>Node1&#45;&gt;Node2</title>
<path fill="none" stroke="midnightblue" d="M117.409,-64.162C145.21,-67.548 175.671,-71.258 193.925,-73.4813"/>
<polygon fill="midnightblue" stroke="midnightblue" points="117.664,-60.6673 107.314,-62.9325 116.818,-67.616 117.664,-60.6673"/>
</g>
<!-- Node3 -->
<g id="node3" class="node"><title>Node3</title>
<g id="a_node3"><a xlink:href="classRangeFinder.html#a95856f52f03d5234d587600faedcbfaf" target="_top" xlink:title="RangeFinder::num_sensors">
<polygon fill="white" stroke="black" points="143,-28 143,-47 280,-47 280,-28 143,-28"/>
<text text-anchor="middle" x="211.5" y="-35" font-family="Helvetica,sans-Serif" font-size="10.00">RangeFinder::num_sensors</text>
</a>
</g>
</g>
<!-- Node1&#45;&gt;Node3 -->
<g id="edge2" class="edge"><title>Node1&#45;&gt;Node3</title>
<path fill="none" stroke="midnightblue" d="M117.377,-48.8419C125.747,-47.8225 134.359,-46.7736 142.806,-45.7447"/>
<polygon fill="midnightblue" stroke="midnightblue" points="116.818,-45.384 107.314,-50.0675 117.664,-52.3327 116.818,-45.384"/>
</g>
<!-- Node4 -->
<g id="node4" class="node"><title>Node4</title>
<g id="a_node4"><a xlink:href="RFIND__test_8cpp.html#a4fc01d736fe50cf5b977f755b675f11d" target="_top" xlink:title="setup">
<polygon fill="white" stroke="black" points="364,-50 364,-69 405,-69 405,-50 364,-50"/>
<text text-anchor="middle" x="384.5" y="-57" font-family="Helvetica,sans-Serif" font-size="10.00">setup</text>
</a>
</g>
</g>
<!-- Node3&#45;&gt;Node4 -->
<g id="edge3" class="edge"><title>Node3&#45;&gt;Node4</title>
<path fill="none" stroke="midnightblue" d="M290.038,-47.4756C317.244,-50.9759 345.536,-54.6157 363.764,-56.9609"/>
<polygon fill="midnightblue" stroke="midnightblue" points="290.449,-43.9997 280.084,-46.195 289.555,-50.9425 290.449,-43.9997"/>
</g>
<!-- Node5 -->
<g id="node5" class="node"><title>Node5</title>
<g id="a_node5"><a xlink:href="classAP__Proximity__RangeFinder.html#a00972bd55509a984f8a71c4cfdb78445" target="_top" xlink:title="AP_Proximity_RangeFinder\l::update">
<polygon fill="white" stroke="black" points="316,-0.5 316,-30.5 453,-30.5 453,-0.5 316,-0.5"/>
<text text-anchor="start" x="324" y="-18.5" font-family="Helvetica,sans-Serif" font-size="10.00">AP_Proximity_RangeFinder</text>
<text text-anchor="middle" x="384.5" y="-7.5" font-family="Helvetica,sans-Serif" font-size="10.00">::update</text>
</a>
</g>
</g>
<!-- Node3&#45;&gt;Node5 -->
<g id="edge4" class="edge"><title>Node3&#45;&gt;Node5</title>
<path fill="none" stroke="midnightblue" d="M290.1,-27.5164C298.692,-26.411 307.391,-25.2917 315.847,-24.2039"/>
<polygon fill="midnightblue" stroke="midnightblue" points="289.555,-24.0575 280.084,-28.805 290.449,-31.0003 289.555,-24.0575"/>
</g>
</g>
</svg>
