<?xml version="1.0" encoding="UTF-8" standalone="no"?>
<!DOCTYPE svg PUBLIC "-//W3C//DTD SVG 1.1//EN"
 "http://www.w3.org/Graphics/SVG/1.1/DTD/svg11.dtd">
<!-- Generated by graphviz version 2.38.0 (20140413.2041)
 -->
<!-- Title: NavEKF3_core::setWindMagStateLearningMode Pages: 1 -->
<svg width="1196pt" height="78pt"
 viewBox="0.00 0.00 1196.00 77.50" xmlns="http://www.w3.org/2000/svg" xmlns:xlink="http://www.w3.org/1999/xlink">
<g id="graph0" class="graph" transform="scale(1 1) rotate(0) translate(4 73.5)">
<title>NavEKF3_core::setWindMagStateLearningMode</title>
<polygon fill="white" stroke="none" points="-4,4 -4,-73.5 1192,-73.5 1192,4 -4,4"/>
<!-- Node1 -->
<g id="node1" class="node"><title>Node1</title>
<polygon fill="#bfbfbf" stroke="black" points="0,-17 0,-47 144,-47 144,-17 0,-17"/>
<text text-anchor="start" x="8" y="-35" font-family="Helvetica,sans-Serif" font-size="10.00">NavEKF3_core::setWindMag</text>
<text text-anchor="middle" x="72" y="-24" font-family="Helvetica,sans-Serif" font-size="10.00">StateLearningMode</text>
</g>
<!-- Node2 -->
<g id="node2" class="node"><title>Node2</title>
<g id="a_node2"><a xlink:href="classNavEKF3__core.html#a95c6e08d506573f77311f547a0d97fd2" target="_top" xlink:title="NavEKF3_core::controlFilter\lModes">
<polygon fill="white" stroke="black" points="180,-17 180,-47 320,-47 320,-17 180,-17"/>
<text text-anchor="start" x="188" y="-35" font-family="Helvetica,sans-Serif" font-size="10.00">NavEKF3_core::controlFilter</text>
<text text-anchor="middle" x="250" y="-24" font-family="Helvetica,sans-Serif" font-size="10.00">Modes</text>
</a>
</g>
</g>
<!-- Node1&#45;&gt;Node2 -->
<g id="edge1" class="edge"><title>Node1&#45;&gt;Node2</title>
<path fill="none" stroke="midnightblue" d="M154.141,-32C162.764,-32 171.475,-32 179.941,-32"/>
<polygon fill="midnightblue" stroke="midnightblue" points="154.079,-28.5001 144.079,-32 154.079,-35.5001 154.079,-28.5001"/>
</g>
<!-- Node3 -->
<g id="node3" class="node"><title>Node3</title>
<g id="a_node3"><a xlink:href="classNavEKF3__core.html#a2a7fae9e0bf2ce6fc2f9b3918dc168d3" target="_top" xlink:title="NavEKF3_core::UpdateFilter">
<polygon fill="white" stroke="black" points="356,-22.5 356,-41.5 499,-41.5 499,-22.5 356,-22.5"/>
<text text-anchor="middle" x="427.5" y="-29.5" font-family="Helvetica,sans-Serif" font-size="10.00">NavEKF3_core::UpdateFilter</text>
</a>
</g>
</g>
<!-- Node2&#45;&gt;Node3 -->
<g id="edge2" class="edge"><title>Node2&#45;&gt;Node3</title>
<path fill="none" stroke="midnightblue" d="M330.353,-32C338.811,-32 347.374,-32 355.723,-32"/>
<polygon fill="midnightblue" stroke="midnightblue" points="330.11,-28.5001 320.11,-32 330.11,-35.5001 330.11,-28.5001"/>
</g>
<!-- Node4 -->
<g id="node4" class="node"><title>Node4</title>
<g id="a_node4"><a xlink:href="classNavEKF3.html#a477020fcf29376e0c2205dbf79728104" target="_top" xlink:title="NavEKF3::UpdateFilter">
<polygon fill="white" stroke="black" points="535,-22.5 535,-41.5 654,-41.5 654,-22.5 535,-22.5"/>
<text text-anchor="middle" x="594.5" y="-29.5" font-family="Helvetica,sans-Serif" font-size="10.00">NavEKF3::UpdateFilter</text>
</a>
</g>
</g>
<!-- Node3&#45;&gt;Node4 -->
<g id="edge3" class="edge"><title>Node3&#45;&gt;Node4</title>
<path fill="none" stroke="midnightblue" d="M509.436,-32C517.985,-32 526.556,-32 534.783,-32"/>
<polygon fill="midnightblue" stroke="midnightblue" points="509.432,-28.5001 499.432,-32 509.432,-35.5001 509.432,-28.5001"/>
</g>
<!-- Node5 -->
<g id="node5" class="node"><title>Node5</title>
<g id="a_node5"><a xlink:href="classNavEKF3.html#a3e1f50ad977a17222fcd7a6851b0f2ec" target="_top" xlink:title="NavEKF3::activeCores">
<polygon fill="white" stroke="black" points="717,-42.5 717,-61.5 835,-61.5 835,-42.5 717,-42.5"/>
<text text-anchor="middle" x="776" y="-49.5" font-family="Helvetica,sans-Serif" font-size="10.00">NavEKF3::activeCores</text>
</a>
</g>
</g>
<!-- Node4&#45;&gt;Node5 -->
<g id="edge4" class="edge"><title>Node4&#45;&gt;Node5</title>
<path fill="none" stroke="midnightblue" d="M664.307,-39.6665C681.597,-41.593 699.985,-43.6418 716.706,-45.5048"/>
<polygon fill="midnightblue" stroke="midnightblue" points="664.601,-36.1777 654.275,-38.5487 663.826,-43.1347 664.601,-36.1777"/>
</g>
<!-- Node8 -->
<g id="node8" class="node"><title>Node8</title>
<g id="a_node8"><a xlink:href="classAP__AHRS__NavEKF.html#a324160404f12959e955554f5aed26459" target="_top" xlink:title="AP_AHRS_NavEKF::update_EKF3">
<polygon fill="white" stroke="black" points="690,-3.5 690,-22.5 862,-22.5 862,-3.5 690,-3.5"/>
<text text-anchor="middle" x="776" y="-10.5" font-family="Helvetica,sans-Serif" font-size="10.00">AP_AHRS_NavEKF::update_EKF3</text>
</a>
</g>
</g>
<!-- Node4&#45;&gt;Node8 -->
<g id="edge7" class="edge"><title>Node4&#45;&gt;Node8</title>
<path fill="none" stroke="midnightblue" d="M664.285,-24.7191C672.612,-23.8377 681.194,-22.9293 689.722,-22.0266"/>
<polygon fill="midnightblue" stroke="midnightblue" points="663.851,-21.2454 654.275,-25.7787 664.588,-28.2065 663.851,-21.2454"/>
</g>
<!-- Node6 -->
<g id="node6" class="node"><title>Node6</title>
<g id="a_node6"><a xlink:href="classDataFlash__Class.html#a46e58faaa53c44516433f6bb7bde4163" target="_top" xlink:title="DataFlash_Class::Log\l_Write_POS">
<polygon fill="white" stroke="black" points="912,-39 912,-69 1026,-69 1026,-39 912,-39"/>
<text text-anchor="start" x="920" y="-57" font-family="Helvetica,sans-Serif" font-size="10.00">DataFlash_Class::Log</text>
<text text-anchor="middle" x="969" y="-46" font-family="Helvetica,sans-Serif" font-size="10.00">_Write_POS</text>
</a>
</g>
</g>
<!-- Node5&#45;&gt;Node6 -->
<g id="edge5" class="edge"><title>Node5&#45;&gt;Node6</title>
<path fill="none" stroke="midnightblue" d="M845.274,-52.7149C867.091,-52.9434 890.977,-53.1935 911.83,-53.4118"/>
<polygon fill="midnightblue" stroke="midnightblue" points="845.12,-49.2132 835.084,-52.6082 845.047,-56.2128 845.12,-49.2132"/>
</g>
<!-- Node7 -->
<g id="node7" class="node"><title>Node7</title>
<g id="a_node7"><a xlink:href="classDataFlash__Class.html#a7868f0e3dcef65ea5b5fcae618f4c5d4" target="_top" xlink:title="DataFlash_Class::get\l_structures">
<polygon fill="white" stroke="black" points="1076,-39 1076,-69 1188,-69 1188,-39 1076,-39"/>
<text text-anchor="start" x="1084" y="-57" font-family="Helvetica,sans-Serif" font-size="10.00">DataFlash_Class::get</text>
<text text-anchor="middle" x="1132" y="-46" font-family="Helvetica,sans-Serif" font-size="10.00">_structures</text>
</a>
</g>
</g>
<!-- Node6&#45;&gt;Node7 -->
<g id="edge6" class="edge"><title>Node6&#45;&gt;Node7</title>
<path fill="none" stroke="midnightblue" d="M1036.63,-54C1049.66,-54 1063.2,-54 1075.81,-54"/>
<polygon fill="midnightblue" stroke="midnightblue" points="1036.31,-50.5001 1026.31,-54 1036.31,-57.5001 1036.31,-50.5001"/>
</g>
<!-- Node9 -->
<g id="node9" class="node"><title>Node9</title>
<g id="a_node9"><a xlink:href="classAP__AHRS__NavEKF.html#ac8111979c5dc37a55b2c50818534ea52" target="_top" xlink:title="AP_AHRS_NavEKF::update">
<polygon fill="white" stroke="black" points="898,-0.5 898,-19.5 1040,-19.5 1040,-0.5 898,-0.5"/>
<text text-anchor="middle" x="969" y="-7.5" font-family="Helvetica,sans-Serif" font-size="10.00">AP_AHRS_NavEKF::update</text>
</a>
</g>
</g>
<!-- Node8&#45;&gt;Node9 -->
<g id="edge8" class="edge"><title>Node8&#45;&gt;Node9</title>
<path fill="none" stroke="midnightblue" d="M872.273,-11.5036C880.898,-11.3681 889.526,-11.2326 897.874,-11.1014"/>
<polygon fill="midnightblue" stroke="midnightblue" points="872.11,-8.0056 862.166,-11.6623 872.22,-15.0047 872.11,-8.0056"/>
</g>
<!-- Node10 -->
<g id="node10" class="node"><title>Node10</title>
<g id="a_node10"><a xlink:href="AHRS__Test_8cpp.html#a0b33edabd7f1c4e4a0bf32c67269be2f" target="_top" xlink:title="loop">
<polygon fill="white" stroke="black" points="1114.5,-0.5 1114.5,-19.5 1149.5,-19.5 1149.5,-0.5 1114.5,-0.5"/>
<text text-anchor="middle" x="1132" y="-7.5" font-family="Helvetica,sans-Serif" font-size="10.00">loop</text>
</a>
</g>
</g>
<!-- Node9&#45;&gt;Node10 -->
<g id="edge9" class="edge"><title>Node9&#45;&gt;Node10</title>
<path fill="none" stroke="midnightblue" d="M1050.17,-10C1074.48,-10 1098.83,-10 1114.35,-10"/>
<polygon fill="midnightblue" stroke="midnightblue" points="1050.15,-6.5001 1040.15,-10 1050.15,-13.5001 1050.15,-6.5001"/>
</g>
</g>
</svg>
