<?xml version="1.0" encoding="UTF-8" standalone="no"?>
<!DOCTYPE svg PUBLIC "-//W3C//DTD SVG 1.1//EN"
 "http://www.w3.org/Graphics/SVG/1.1/DTD/svg11.dtd">
<!-- Generated by graphviz version 2.38.0 (20140413.2041)
 -->
<!-- Title: AC_AttitudeControl_Heli::set_hover_roll_trim_scalar Pages: 1 -->
<!--zoomable 207 -->
<svg id="main" version="1.1" xmlns="http://www.w3.org/2000/svg" xmlns:xlink="http://www.w3.org/1999/xlink" xml:space="preserve" onload="init(evt)">
<style type="text/css"><![CDATA[
.edge:hover path { stroke: red; }
.edge:hover polygon { stroke: red; fill: red; }
]]></style>
<script type="text/javascript"><![CDATA[
var edges = document.getElementsByTagName('g');
if (edges && edges.length) {
  for (var i=0;i<edges.length;i++) {
    if (edges[i].id.substr(0,4)=='edge') {
      edges[i].setAttribute('class','edge');
    }
  }
}
]]></script>
        <defs>
                <circle id="rim" cx="0" cy="0" r="7"/>
                <circle id="rim2" cx="0" cy="0" r="3.5"/>
                <g id="zoomPlus">
                        <use xlink:href="#rim" fill="#404040">
                                <set attributeName="fill" to="#808080" begin="zoomplus.mouseover" end="zoomplus.mouseout"/>
                        </use>
                        <path d="M-4,0h8M0,-4v8" fill="none" stroke="white" stroke-width="1.5" pointer-events="none"/>
                </g>
                <g id="zoomMin">
                        <use xlink:href="#rim" fill="#404040">
                                <set attributeName="fill" to="#808080" begin="zoomminus.mouseover" end="zoomminus.mouseout"/>
                        </use>
                        <path d="M-4,0h8" fill="none" stroke="white" stroke-width="1.5" pointer-events="none"/>
                </g>
                <g id="dirArrow">
                        <path fill="none" stroke="white" stroke-width="1.5" d="M0,-3.0v7 M-2.5,-0.5L0,-3.0L2.5,-0.5"/>
                </g>
               <g id="resetDef">
                       <use xlink:href="#rim2" fill="#404040">
                               <set attributeName="fill" to="#808080" begin="reset.mouseover" end="reset.mouseout"/>
                       </use>
               </g>
        </defs>

<script type="text/javascript">
var viewWidth = 841;
var viewHeight = 207;
var sectionId = 'dynsection-17';
</script>
<script xlink:href="svgpan.js"/>
<svg id="graph" class="graph">
<g id="viewport">
<title>AC_AttitudeControl_Heli::set_hover_roll_trim_scalar</title>
<polygon fill="white" stroke="none" points="-4,4 -4,-203 837,-203 837,4 -4,4"/>
<!-- Node1 -->
<g id="node1" class="node"><title>Node1</title>
<polygon fill="#bfbfbf" stroke="black" points="0,-110.5 0,-151.5 106,-151.5 106,-110.5 0,-110.5"/>
<text text-anchor="start" x="8" y="-139.5" font-family="Helvetica,sans-Serif" font-size="10.00">AC_AttitudeControl</text>
<text text-anchor="start" x="8" y="-128.5" font-family="Helvetica,sans-Serif" font-size="10.00">_Heli::set_hover_roll</text>
<text text-anchor="middle" x="53" y="-117.5" font-family="Helvetica,sans-Serif" font-size="10.00">_trim_scalar</text>
</g>
<!-- Node2 -->
<g id="node2" class="node"><title>Node2</title>
<g id="a_node2"><a xlink:href="AP__Math_8h.html#ad525609d9dba6ffa556a0fbf08a3f9b4" target="_top" xlink:title="constrain_float">
<polygon fill="white" stroke="black" points="456,-122.5 456,-141.5 536,-141.5 536,-122.5 456,-122.5"/>
<text text-anchor="middle" x="496" y="-129.5" font-family="Helvetica,sans-Serif" font-size="10.00">constrain_float</text>
</a>
</g>
</g>
<!-- Node1&#45;&gt;Node2 -->
<g id="edge1" class="edge"><title>Node1&#45;&gt;Node2</title>
<path fill="none" stroke="midnightblue" d="M106.043,-133.82C175.567,-137.176 302.585,-141.867 411,-138 422.187,-137.601 434.195,-136.904 445.534,-136.123"/>
<polygon fill="midnightblue" stroke="midnightblue" points="445.994,-139.599 455.716,-135.388 445.49,-132.617 445.994,-139.599"/>
</g>
<!-- Node8 -->
<g id="node8" class="node"><title>Node8</title>
<g id="a_node8"><a xlink:href="classAC__AttitudeControl__Heli.html#af86df98fd0b8a7cc1a58bdcbf44bb480" target="_top" xlink:title="AC_AttitudeControl\l_Heli::set_throttle_out">
<polygon fill="white" stroke="black" points="142,-65 142,-95 255,-95 255,-65 142,-65"/>
<text text-anchor="start" x="150" y="-83" font-family="Helvetica,sans-Serif" font-size="10.00">AC_AttitudeControl</text>
<text text-anchor="middle" x="198.5" y="-72" font-family="Helvetica,sans-Serif" font-size="10.00">_Heli::set_throttle_out</text>
</a>
</g>
</g>
<!-- Node1&#45;&gt;Node8 -->
<g id="edge7" class="edge"><title>Node1&#45;&gt;Node8</title>
<path fill="none" stroke="midnightblue" d="M106.213,-112.444C118.985,-107.904 132.65,-103.048 145.416,-98.5106"/>
<polygon fill="midnightblue" stroke="midnightblue" points="146.723,-101.761 154.973,-95.1141 144.378,-95.165 146.723,-101.761"/>
</g>
<!-- Node3 -->
<g id="node3" class="node"><title>Node3</title>
<g id="a_node3"><a xlink:href="AP__Math_8h.html#a20e8f8671c282c69c1954652b6d61585" target="_top" xlink:title="constrain_value">
<polygon fill="white" stroke="black" points="581,-122.5 581,-141.5 666,-141.5 666,-122.5 581,-122.5"/>
<text text-anchor="middle" x="623.5" y="-129.5" font-family="Helvetica,sans-Serif" font-size="10.00">constrain_value</text>
</a>
</g>
</g>
<!-- Node2&#45;&gt;Node3 -->
<g id="edge2" class="edge"><title>Node2&#45;&gt;Node3</title>
<path fill="none" stroke="midnightblue" d="M536.021,-132C547.04,-132 559.204,-132 570.843,-132"/>
<polygon fill="midnightblue" stroke="midnightblue" points="570.893,-135.5 580.893,-132 570.893,-128.5 570.893,-135.5"/>
</g>
<!-- Node4 -->
<g id="node4" class="node"><title>Node4</title>
<g id="a_node4"><a xlink:href="AP__Math_8cpp.html#a37e8e901754cb9c8e53a8e3030c82c50" target="_top" xlink:title="constrain_value\&lt; int \&gt;">
<polygon fill="white" stroke="black" points="711,-179.5 711,-198.5 824,-198.5 824,-179.5 711,-179.5"/>
<text text-anchor="middle" x="767.5" y="-186.5" font-family="Helvetica,sans-Serif" font-size="10.00">constrain_value&lt; int &gt;</text>
</a>
</g>
</g>
<!-- Node3&#45;&gt;Node4 -->
<g id="edge3" class="edge"><title>Node3&#45;&gt;Node4</title>
<path fill="none" stroke="midnightblue" d="M641.97,-141.628C657.432,-149.891 680.774,-161.738 702,-170 707.854,-172.278 714.097,-174.439 720.307,-176.429"/>
<polygon fill="midnightblue" stroke="midnightblue" points="719.389,-179.809 729.977,-179.411 721.452,-173.12 719.389,-179.809"/>
</g>
<!-- Node5 -->
<g id="node5" class="node"><title>Node5</title>
<g id="a_node5"><a xlink:href="AP__Math_8cpp.html#afdbe107ec1987d318a6347816fbf2b89" target="_top" xlink:title="constrain_value\&lt; short \&gt;">
<polygon fill="white" stroke="black" points="705,-141.5 705,-160.5 830,-160.5 830,-141.5 705,-141.5"/>
<text text-anchor="middle" x="767.5" y="-148.5" font-family="Helvetica,sans-Serif" font-size="10.00">constrain_value&lt; short &gt;</text>
</a>
</g>
</g>
<!-- Node3&#45;&gt;Node5 -->
<g id="edge4" class="edge"><title>Node3&#45;&gt;Node5</title>
<path fill="none" stroke="midnightblue" d="M666.337,-137.598C675.323,-138.8 685.064,-140.104 694.821,-141.409"/>
<polygon fill="midnightblue" stroke="midnightblue" points="694.589,-144.909 704.965,-142.766 695.518,-137.971 694.589,-144.909"/>
</g>
<!-- Node6 -->
<g id="node6" class="node"><title>Node6</title>
<g id="a_node6"><a xlink:href="AP__Math_8cpp.html#ae6c621670c214da687de21d4e3a92587" target="_top" xlink:title="constrain_value\&lt; float \&gt;">
<polygon fill="white" stroke="black" points="706.5,-103.5 706.5,-122.5 828.5,-122.5 828.5,-103.5 706.5,-103.5"/>
<text text-anchor="middle" x="767.5" y="-110.5" font-family="Helvetica,sans-Serif" font-size="10.00">constrain_value&lt; float &gt;</text>
</a>
</g>
</g>
<!-- Node3&#45;&gt;Node6 -->
<g id="edge5" class="edge"><title>Node3&#45;&gt;Node6</title>
<path fill="none" stroke="midnightblue" d="M666.337,-126.402C675.724,-125.146 685.935,-123.78 696.129,-122.416"/>
<polygon fill="midnightblue" stroke="midnightblue" points="696.838,-125.852 706.286,-121.057 695.91,-118.914 696.838,-125.852"/>
</g>
<!-- Node7 -->
<g id="node7" class="node"><title>Node7</title>
<g id="a_node7"><a xlink:href="AP__Math_8cpp.html#afe3990b00e9abc43fa97dfaf8e32f5c4" target="_top" xlink:title="constrain_value\&lt; double \&gt;">
<polygon fill="white" stroke="black" points="702,-65.5 702,-84.5 833,-84.5 833,-65.5 702,-65.5"/>
<text text-anchor="middle" x="767.5" y="-72.5" font-family="Helvetica,sans-Serif" font-size="10.00">constrain_value&lt; double &gt;</text>
</a>
</g>
</g>
<!-- Node3&#45;&gt;Node7 -->
<g id="edge6" class="edge"><title>Node3&#45;&gt;Node7</title>
<path fill="none" stroke="midnightblue" d="M641.97,-122.372C657.432,-114.109 680.774,-102.262 702,-94 707.854,-91.7215 714.097,-89.5614 720.307,-87.5705"/>
<polygon fill="midnightblue" stroke="midnightblue" points="721.452,-90.88 729.977,-84.5887 719.389,-84.1908 721.452,-90.88"/>
</g>
<!-- Node9 -->
<g id="node9" class="node"><title>Node9</title>
<g id="a_node9"><a xlink:href="classAC__AttitudeControl__Heli.html#a02619535f555b87daa6adee00cf6c3da" target="_top" xlink:title="AC_AttitudeControl\l_Heli::update_althold\l_lean_angle_max">
<polygon fill="white" stroke="black" points="297,-87.5 297,-128.5 405,-128.5 405,-87.5 297,-87.5"/>
<text text-anchor="start" x="305" y="-116.5" font-family="Helvetica,sans-Serif" font-size="10.00">AC_AttitudeControl</text>
<text text-anchor="start" x="305" y="-105.5" font-family="Helvetica,sans-Serif" font-size="10.00">_Heli::update_althold</text>
<text text-anchor="middle" x="351" y="-94.5" font-family="Helvetica,sans-Serif" font-size="10.00">_lean_angle_max</text>
</a>
</g>
</g>
<!-- Node8&#45;&gt;Node9 -->
<g id="edge8" class="edge"><title>Node8&#45;&gt;Node9</title>
<path fill="none" stroke="midnightblue" d="M255.113,-90.3466C265.393,-92.2591 276.198,-94.2694 286.686,-96.2206"/>
<polygon fill="midnightblue" stroke="midnightblue" points="286.145,-99.68 296.617,-98.0682 287.426,-92.7981 286.145,-99.68"/>
</g>
<!-- Node10 -->
<g id="node10" class="node"><title>Node10</title>
<g id="a_node10"><a xlink:href="classAP__Motors.html#a663672b4ada40c46d343e3f62b51b820" target="_top" xlink:title="AP_Motors::set_throttle\l_filter_cutoff">
<polygon fill="white" stroke="black" points="291,-39 291,-69 411,-69 411,-39 291,-39"/>
<text text-anchor="start" x="299" y="-57" font-family="Helvetica,sans-Serif" font-size="10.00">AP_Motors::set_throttle</text>
<text text-anchor="middle" x="351" y="-46" font-family="Helvetica,sans-Serif" font-size="10.00">_filter_cutoff</text>
</a>
</g>
</g>
<!-- Node8&#45;&gt;Node10 -->
<g id="edge10" class="edge"><title>Node8&#45;&gt;Node10</title>
<path fill="none" stroke="midnightblue" d="M255.113,-70.3924C263.479,-68.9472 272.192,-67.4419 280.8,-65.9549"/>
<polygon fill="midnightblue" stroke="midnightblue" points="281.57,-69.3737 290.828,-64.2224 280.378,-62.4759 281.57,-69.3737"/>
</g>
<!-- Node12 -->
<g id="node12" class="node"><title>Node12</title>
<g id="a_node12"><a xlink:href="classAP__Motors.html#a56d079ad89f5a4d2cacf014c8958a527" target="_top" xlink:title="AP_Motors::set_throttle">
<polygon fill="white" stroke="black" points="291,-0.5 291,-19.5 411,-19.5 411,-0.5 291,-0.5"/>
<text text-anchor="middle" x="351" y="-7.5" font-family="Helvetica,sans-Serif" font-size="10.00">AP_Motors::set_throttle</text>
</a>
</g>
</g>
<!-- Node8&#45;&gt;Node12 -->
<g id="edge12" class="edge"><title>Node8&#45;&gt;Node12</title>
<path fill="none" stroke="midnightblue" d="M223.684,-64.7911C241.754,-53.86 267.316,-39.2944 291,-29 296.058,-26.8016 301.455,-24.7219 306.854,-22.8015"/>
<polygon fill="midnightblue" stroke="midnightblue" points="308.155,-26.0559 316.498,-19.5256 305.904,-19.4278 308.155,-26.0559"/>
</g>
<!-- Node9&#45;&gt;Node2 -->
<g id="edge9" class="edge"><title>Node9&#45;&gt;Node2</title>
<path fill="none" stroke="midnightblue" d="M405.248,-116.937C418.406,-119.145 432.448,-121.502 445.424,-123.679"/>
<polygon fill="midnightblue" stroke="midnightblue" points="445.122,-127.178 455.564,-125.381 446.281,-120.274 445.122,-127.178"/>
</g>
<!-- Node11 -->
<g id="node11" class="node"><title>Node11</title>
<g id="a_node11"><a xlink:href="classLowPassFilter.html#a1cc5016de137b01080fa0a6fa7fe53cd" target="_top" xlink:title="LowPassFilter::set\l_cutoff_frequency">
<polygon fill="white" stroke="black" points="447,-39 447,-69 545,-69 545,-39 447,-39"/>
<text text-anchor="start" x="455" y="-57" font-family="Helvetica,sans-Serif" font-size="10.00">LowPassFilter::set</text>
<text text-anchor="middle" x="496" y="-46" font-family="Helvetica,sans-Serif" font-size="10.00">_cutoff_frequency</text>
</a>
</g>
</g>
<!-- Node10&#45;&gt;Node11 -->
<g id="edge11" class="edge"><title>Node10&#45;&gt;Node11</title>
<path fill="none" stroke="midnightblue" d="M411.403,-54C419.804,-54 428.435,-54 436.813,-54"/>
<polygon fill="midnightblue" stroke="midnightblue" points="436.875,-57.5001 446.875,-54 436.875,-50.5001 436.875,-57.5001"/>
</g>
</g>
</svg>
        <g id="navigator" transform="translate(0 0)" fill="#404254">
                <rect fill="#f2f5e9" fill-opacity="0.5" stroke="#606060" stroke-width=".5" x="0" y="0" width="60" height="60"/>
                <use id="zoomplus" xlink:href="#zoomPlus" x="17" y="9" onmousedown="handleZoom(evt,'in')"/>
                <use id="zoomminus" xlink:href="#zoomMin" x="42" y="9" onmousedown="handleZoom(evt,'out')"/>
                <use id="reset" xlink:href="#resetDef" x="30" y="36" onmousedown="handleReset()"/>
                <g id="arrowUp" xlink:href="#dirArrow" transform="translate(30 24)" onmousedown="handlePan(0,-1)">
                  <use xlink:href="#rim" fill="#404040">
                        <set attributeName="fill" to="#808080" begin="arrowUp.mouseover" end="arrowUp.mouseout"/>
                  </use>
                  <path fill="none" stroke="white" stroke-width="1.5" d="M0,-3.0v7 M-2.5,-0.5L0,-3.0L2.5,-0.5"/>
                </g>
                <g id="arrowRight" xlink:href="#dirArrow" transform="rotate(90) translate(36 -43)" onmousedown="handlePan(1,0)">
                  <use xlink:href="#rim" fill="#404040">
                        <set attributeName="fill" to="#808080" begin="arrowRight.mouseover" end="arrowRight.mouseout"/>
                  </use>
                  <path fill="none" stroke="white" stroke-width="1.5" d="M0,-3.0v7 M-2.5,-0.5L0,-3.0L2.5,-0.5"/>
                </g>
                <g id="arrowDown" xlink:href="#dirArrow" transform="rotate(180) translate(-30 -48)" onmousedown="handlePan(0,1)">
                  <use xlink:href="#rim" fill="#404040">
                        <set attributeName="fill" to="#808080" begin="arrowDown.mouseover" end="arrowDown.mouseout"/>
                  </use>
                  <path fill="none" stroke="white" stroke-width="1.5" d="M0,-3.0v7 M-2.5,-0.5L0,-3.0L2.5,-0.5"/>
                </g>
                <g id="arrowLeft" xlink:href="#dirArrow" transform="rotate(270) translate(-36 17)" onmousedown="handlePan(-1,0)">
                  <use xlink:href="#rim" fill="#404040">
                        <set attributeName="fill" to="#808080" begin="arrowLeft.mouseover" end="arrowLeft.mouseout"/>
                  </use>
                  <path fill="none" stroke="white" stroke-width="1.5" d="M0,-3.0v7 M-2.5,-0.5L0,-3.0L2.5,-0.5"/>
                </g>
        </g>
        <svg viewBox="0 0 15 15" width="100%" height="30px" preserveAspectRatio="xMaxYMin meet">
         <g id="arrow_out" transform="scale(0.3 0.3)">
          <a xlink:href="classAC__AttitudeControl__Heli_a5374f1980c33be886994a615797af75d_cgraph_org.svg" target="_base">
           <rect id="button" ry="5" rx="5" y="6" x="6" height="38" width="38"
                fill="#f2f5e9" fill-opacity="0.5" stroke="#606060" stroke-width="1.0"/>
           <path id="arrow"
             d="M 11.500037,31.436501 C 11.940474,20.09759 22.043105,11.32322 32.158766,21.979434 L 37.068811,17.246167 C 37.068811,17.246167 37.088388,32 37.088388,32 L 22.160133,31.978069 C 22.160133,31.978069 26.997745,27.140456 26.997745,27.140456 C 18.528582,18.264221 13.291696,25.230495 11.500037,31.436501 z"
             style="fill:#404040;"/>
          </a>
         </g>
        </svg>
</svg>
