<?xml version="1.0" encoding="UTF-8" standalone="no"?>
<!DOCTYPE svg PUBLIC "-//W3C//DTD SVG 1.1//EN"
 "http://www.w3.org/Graphics/SVG/1.1/DTD/svg11.dtd">
<!-- Generated by graphviz version 2.38.0 (20140413.2041)
 -->
<!-- Title: SRV_Channels::upgrade_motors_servo Pages: 1 -->
<svg width="720pt" height="192pt"
 viewBox="0.00 0.00 720.00 191.50" xmlns="http://www.w3.org/2000/svg" xmlns:xlink="http://www.w3.org/1999/xlink">
<g id="graph0" class="graph" transform="scale(1 1) rotate(0) translate(4 187.5)">
<title>SRV_Channels::upgrade_motors_servo</title>
<polygon fill="white" stroke="none" points="-4,4 -4,-187.5 716,-187.5 716,4 -4,4"/>
<!-- Node1 -->
<g id="node1" class="node"><title>Node1</title>
<polygon fill="#bfbfbf" stroke="black" points="0,-90 0,-120 125,-120 125,-90 0,-90"/>
<text text-anchor="start" x="8" y="-108" font-family="Helvetica,sans-Serif" font-size="10.00">SRV_Channels::upgrade</text>
<text text-anchor="middle" x="62.5" y="-97" font-family="Helvetica,sans-Serif" font-size="10.00">_motors_servo</text>
</g>
<!-- Node2 -->
<g id="node2" class="node"><title>Node2</title>
<g id="a_node2"><a xlink:href="classAP__Param.html#a857c14c819b6d550957d0f9c56c379d0" target="_top" xlink:title="AP_Param::find_old\l_parameter">
<polygon fill="white" stroke="black" points="161,-90 161,-120 265,-120 265,-90 161,-90"/>
<text text-anchor="start" x="169" y="-108" font-family="Helvetica,sans-Serif" font-size="10.00">AP_Param::find_old</text>
<text text-anchor="middle" x="213" y="-97" font-family="Helvetica,sans-Serif" font-size="10.00">_parameter</text>
</a>
</g>
</g>
<!-- Node1&#45;&gt;Node2 -->
<g id="edge1" class="edge"><title>Node1&#45;&gt;Node2</title>
<path fill="none" stroke="midnightblue" d="M125.187,-105C133.572,-105 142.177,-105 150.557,-105"/>
<polygon fill="midnightblue" stroke="midnightblue" points="150.638,-108.5 160.638,-105 150.638,-101.5 150.638,-108.5"/>
</g>
<!-- Node3 -->
<g id="node3" class="node"><title>Node3</title>
<g id="a_node3"><a xlink:href="classAP__Param.html#a0d927132804c19fa222b1fcb871e7009" target="_top" xlink:title="AP_Param::set_key">
<polygon fill="white" stroke="black" points="301,-152.5 301,-171.5 405,-171.5 405,-152.5 301,-152.5"/>
<text text-anchor="middle" x="353" y="-159.5" font-family="Helvetica,sans-Serif" font-size="10.00">AP_Param::set_key</text>
</a>
</g>
</g>
<!-- Node2&#45;&gt;Node3 -->
<g id="edge2" class="edge"><title>Node2&#45;&gt;Node3</title>
<path fill="none" stroke="midnightblue" d="M250.619,-120.125C271.988,-128.952 298.716,-139.992 319.363,-148.52"/>
<polygon fill="midnightblue" stroke="midnightblue" points="318.091,-151.781 328.669,-152.363 320.763,-145.311 318.091,-151.781"/>
</g>
<!-- Node4 -->
<g id="node4" class="node"><title>Node4</title>
<g id="a_node4"><a xlink:href="classAP__Param.html#aa416fb587f072ed8d8039168d122ecb4" target="_top" xlink:title="AP_Param::scan">
<polygon fill="white" stroke="black" points="307.5,-76.5 307.5,-95.5 398.5,-95.5 398.5,-76.5 307.5,-76.5"/>
<text text-anchor="middle" x="353" y="-83.5" font-family="Helvetica,sans-Serif" font-size="10.00">AP_Param::scan</text>
</a>
</g>
</g>
<!-- Node2&#45;&gt;Node4 -->
<g id="edge3" class="edge"><title>Node2&#45;&gt;Node4</title>
<path fill="none" stroke="midnightblue" d="M265.386,-97.9251C275.839,-96.4859 286.87,-94.9672 297.429,-93.5134"/>
<polygon fill="midnightblue" stroke="midnightblue" points="297.945,-96.9755 307.374,-92.1442 296.99,-90.0409 297.945,-96.9755"/>
</g>
<!-- Node6 -->
<g id="node6" class="node"><title>Node6</title>
<g id="a_node6"><a xlink:href="classStorageAccess.html#ab2a8575d541549a15645edc360fdaa91" target="_top" xlink:title="StorageAccess::read\l_block">
<polygon fill="white" stroke="black" points="445,-153 445,-183 553,-183 553,-153 445,-153"/>
<text text-anchor="start" x="453" y="-171" font-family="Helvetica,sans-Serif" font-size="10.00">StorageAccess::read</text>
<text text-anchor="middle" x="499" y="-160" font-family="Helvetica,sans-Serif" font-size="10.00">_block</text>
</a>
</g>
</g>
<!-- Node2&#45;&gt;Node6 -->
<g id="edge11" class="edge"><title>Node2&#45;&gt;Node6</title>
<path fill="none" stroke="midnightblue" d="M265.271,-114.247C303.84,-121.433 357.92,-132.001 405,-143 414.646,-145.254 424.809,-147.803 434.733,-150.391"/>
<polygon fill="midnightblue" stroke="midnightblue" points="433.986,-153.814 444.548,-152.982 435.773,-147.046 433.986,-153.814"/>
</g>
<!-- Node10 -->
<g id="node10" class="node"><title>Node10</title>
<g id="a_node10"><a xlink:href="classAP__Param.html#a2e66d023b56a62888747cbfaaef729d9" target="_top" xlink:title="AP_Param::type_size">
<polygon fill="white" stroke="black" points="443,-0.5 443,-19.5 555,-19.5 555,-0.5 443,-0.5"/>
<text text-anchor="middle" x="499" y="-7.5" font-family="Helvetica,sans-Serif" font-size="10.00">AP_Param::type_size</text>
</a>
</g>
</g>
<!-- Node2&#45;&gt;Node10 -->
<g id="edge12" class="edge"><title>Node2&#45;&gt;Node10</title>
<path fill="none" stroke="midnightblue" d="M245.823,-89.9118C262.12,-82.4909 282.399,-73.7212 301,-67 350.854,-48.9865 409.351,-32.6464 449.577,-22.1259"/>
<polygon fill="midnightblue" stroke="midnightblue" points="450.593,-25.4782 459.393,-19.5791 448.835,-18.7025 450.593,-25.4782"/>
</g>
<!-- Node5 -->
<g id="node5" class="node"><title>Node5</title>
<g id="a_node5"><a xlink:href="classStorageAccess.html#a82088aa568b13d18acc9e41a01fd1f19" target="_top" xlink:title="StorageAccess::size">
<polygon fill="white" stroke="black" points="445.5,-114.5 445.5,-133.5 552.5,-133.5 552.5,-114.5 445.5,-114.5"/>
<text text-anchor="middle" x="499" y="-121.5" font-family="Helvetica,sans-Serif" font-size="10.00">StorageAccess::size</text>
</a>
</g>
</g>
<!-- Node4&#45;&gt;Node5 -->
<g id="edge4" class="edge"><title>Node4&#45;&gt;Node5</title>
<path fill="none" stroke="midnightblue" d="M390.337,-95.589C409.083,-100.536 432.143,-106.621 452.107,-111.889"/>
<polygon fill="midnightblue" stroke="midnightblue" points="451.362,-115.312 461.924,-114.48 453.148,-108.544 451.362,-115.312"/>
</g>
<!-- Node4&#45;&gt;Node6 -->
<g id="edge5" class="edge"><title>Node4&#45;&gt;Node6</title>
<path fill="none" stroke="midnightblue" d="M378.164,-95.5692C386.931,-99.4998 396.711,-104.439 405,-110 423.025,-122.092 422.816,-131.148 441,-143 443.894,-144.886 446.954,-146.691 450.094,-148.406"/>
<polygon fill="midnightblue" stroke="midnightblue" points="448.582,-151.564 459.08,-152.991 451.764,-145.329 448.582,-151.564"/>
</g>
<!-- Node8 -->
<g id="node8" class="node"><title>Node8</title>
<g id="a_node8"><a xlink:href="classAP__Param.html#a292ed97cd29eb839a301d85690d125bd" target="_top" xlink:title="AP_Param::get_key">
<polygon fill="white" stroke="black" points="600.5,-57.5 600.5,-76.5 704.5,-76.5 704.5,-57.5 600.5,-57.5"/>
<text text-anchor="middle" x="652.5" y="-64.5" font-family="Helvetica,sans-Serif" font-size="10.00">AP_Param::get_key</text>
</a>
</g>
</g>
<!-- Node4&#45;&gt;Node8 -->
<g id="edge7" class="edge"><title>Node4&#45;&gt;Node8</title>
<path fill="none" stroke="midnightblue" d="M398.539,-83.1555C449.43,-79.9053 533.025,-74.5664 590.081,-70.9226"/>
<polygon fill="midnightblue" stroke="midnightblue" points="590.655,-74.3931 600.411,-70.2628 590.209,-67.4074 590.655,-74.3931"/>
</g>
<!-- Node9 -->
<g id="node9" class="node"><title>Node9</title>
<g id="a_node9"><a xlink:href="classAP__Param.html#aa2a6f6980713f1055fbee50f67082296" target="_top" xlink:title="AP_Param::is_sentinal">
<polygon fill="white" stroke="black" points="441,-38.5 441,-57.5 557,-57.5 557,-38.5 441,-38.5"/>
<text text-anchor="middle" x="499" y="-45.5" font-family="Helvetica,sans-Serif" font-size="10.00">AP_Param::is_sentinal</text>
</a>
</g>
</g>
<!-- Node4&#45;&gt;Node9 -->
<g id="edge8" class="edge"><title>Node4&#45;&gt;Node9</title>
<path fill="none" stroke="midnightblue" d="M390.337,-76.411C409.083,-71.4642 432.143,-65.3789 452.107,-60.1108"/>
<polygon fill="midnightblue" stroke="midnightblue" points="453.148,-63.4558 461.924,-57.5201 451.362,-56.6875 453.148,-63.4558"/>
</g>
<!-- Node4&#45;&gt;Node10 -->
<g id="edge10" class="edge"><title>Node4&#45;&gt;Node10</title>
<path fill="none" stroke="midnightblue" d="M366.356,-76.4161C382.692,-64.1035 412.72,-42.6912 441,-29 445.404,-26.8679 450.108,-24.8793 454.853,-23.0531"/>
<polygon fill="midnightblue" stroke="midnightblue" points="456.357,-26.231 464.571,-19.5388 453.977,-19.6482 456.357,-26.231"/>
</g>
<!-- Node7 -->
<g id="node7" class="node"><title>Node7</title>
<g id="a_node7"><a xlink:href="classAP__HAL_1_1Storage.html#a1c3b1e80b0bec7d4bacd3ecbefb3b3f3" target="_top" xlink:title="AP_HAL::Storage::read\l_block">
<polygon fill="white" stroke="black" points="593,-153 593,-183 712,-183 712,-153 593,-153"/>
<text text-anchor="start" x="601" y="-171" font-family="Helvetica,sans-Serif" font-size="10.00">AP_HAL::Storage::read</text>
<text text-anchor="middle" x="652.5" y="-160" font-family="Helvetica,sans-Serif" font-size="10.00">_block</text>
</a>
</g>
</g>
<!-- Node6&#45;&gt;Node7 -->
<g id="edge6" class="edge"><title>Node6&#45;&gt;Node7</title>
<path fill="none" stroke="midnightblue" d="M553.413,-168C562.897,-168 572.895,-168 582.733,-168"/>
<polygon fill="midnightblue" stroke="midnightblue" points="582.901,-171.5 592.901,-168 582.901,-164.5 582.901,-171.5"/>
</g>
<!-- Node9&#45;&gt;Node8 -->
<g id="edge9" class="edge"><title>Node9&#45;&gt;Node8</title>
<path fill="none" stroke="midnightblue" d="M557.276,-55.1831C567.944,-56.521 579.132,-57.9242 589.923,-59.2774"/>
<polygon fill="midnightblue" stroke="midnightblue" points="589.759,-62.7842 600.117,-60.5559 590.63,-55.8386 589.759,-62.7842"/>
</g>
</g>
</svg>
