<?xml version="1.0" encoding="UTF-8" standalone="no"?>
<!DOCTYPE svg PUBLIC "-//W3C//DTD SVG 1.1//EN"
 "http://www.w3.org/Graphics/SVG/1.1/DTD/svg11.dtd">
<!-- Generated by graphviz version 2.38.0 (20140413.2041)
 -->
<!-- Title: Compass::_accept_calibration Pages: 1 -->
<svg width="2836pt" height="319pt"
 viewBox="0.00 0.00 2836.00 319.00" xmlns="http://www.w3.org/2000/svg" xmlns:xlink="http://www.w3.org/1999/xlink">
<g id="graph0" class="graph" transform="scale(1 1) rotate(0) translate(4 315)">
<title>Compass::_accept_calibration</title>
<polygon fill="white" stroke="none" points="-4,4 -4,-315 2832,-315 2832,4 -4,4"/>
<!-- Node1 -->
<g id="node1" class="node"><title>Node1</title>
<polygon fill="#bfbfbf" stroke="black" points="0,-244.5 0,-263.5 149,-263.5 149,-244.5 0,-244.5"/>
<text text-anchor="middle" x="74.5" y="-251.5" font-family="Helvetica,sans-Serif" font-size="10.00">Compass::_accept_calibration</text>
</g>
<!-- Node2 -->
<g id="node2" class="node"><title>Node2</title>
<g id="a_node2"><a xlink:href="classCompass.html#a063eabf244187b5d60bb4674f09bce8e" target="_top" xlink:title="Compass::_accept_calibration_mask">
<polygon fill="white" stroke="black" points="185,-282.5 185,-301.5 363,-301.5 363,-282.5 185,-282.5"/>
<text text-anchor="middle" x="274" y="-289.5" font-family="Helvetica,sans-Serif" font-size="10.00">Compass::_accept_calibration_mask</text>
</a>
</g>
</g>
<!-- Node1&#45;&gt;Node2 -->
<g id="edge1" class="edge"><title>Node1&#45;&gt;Node2</title>
<path fill="none" stroke="midnightblue" d="M135.215,-265.489C163.395,-270.911 196.629,-277.306 223.397,-282.456"/>
<polygon fill="midnightblue" stroke="midnightblue" points="135.564,-261.992 125.083,-263.54 134.241,-268.866 135.564,-261.992"/>
</g>
<!-- Node3 -->
<g id="node3" class="node"><title>Node3</title>
<g id="a_node3"><a xlink:href="classCompass.html#aff3220e1a557a75480e4c2dbbde72973" target="_top" xlink:title="Compass::get_offsets_max">
<polygon fill="white" stroke="black" points="399,-263.5 399,-282.5 536,-282.5 536,-263.5 399,-263.5"/>
<text text-anchor="middle" x="467.5" y="-270.5" font-family="Helvetica,sans-Serif" font-size="10.00">Compass::get_offsets_max</text>
</a>
</g>
</g>
<!-- Node1&#45;&gt;Node3 -->
<g id="edge61" class="edge"><title>Node1&#45;&gt;Node3</title>
<path fill="none" stroke="midnightblue" d="M159.372,-258.076C230.898,-261.551 332.407,-266.484 398.841,-269.712"/>
<polygon fill="midnightblue" stroke="midnightblue" points="159.202,-254.563 149.044,-257.574 158.862,-261.555 159.202,-254.563"/>
</g>
<!-- Node42 -->
<g id="node42" class="node"><title>Node42</title>
<g id="a_node42"><a xlink:href="classCompass.html#ab8b1d18b185660a957d2faf417e9b1dd" target="_top" xlink:title="Compass::compass_cal\l_update">
<polygon fill="white" stroke="black" points="406.5,-191 406.5,-221 528.5,-221 528.5,-191 406.5,-191"/>
<text text-anchor="start" x="414.5" y="-209" font-family="Helvetica,sans-Serif" font-size="10.00">Compass::compass_cal</text>
<text text-anchor="middle" x="467.5" y="-198" font-family="Helvetica,sans-Serif" font-size="10.00">_update</text>
</a>
</g>
</g>
<!-- Node1&#45;&gt;Node42 -->
<g id="edge59" class="edge"><title>Node1&#45;&gt;Node42</title>
<path fill="none" stroke="midnightblue" d="M159.306,-243.712C233.611,-234.59 340.309,-221.491 406.412,-213.377"/>
<polygon fill="midnightblue" stroke="midnightblue" points="158.543,-240.279 149.044,-244.972 159.396,-247.227 158.543,-240.279"/>
</g>
<!-- Node2&#45;&gt;Node3 -->
<g id="edge2" class="edge"><title>Node2&#45;&gt;Node3</title>
<path fill="none" stroke="midnightblue" d="M373.309,-282.246C381.938,-281.39 390.539,-280.537 398.832,-279.714"/>
<polygon fill="midnightblue" stroke="midnightblue" points="372.789,-278.78 363.183,-283.251 373.48,-285.746 372.789,-278.78"/>
</g>
<!-- Node9 -->
<g id="node9" class="node"><title>Node9</title>
<g id="a_node9"><a xlink:href="classCompass.html#a5b92dfeb8382c411fc5cdfe2c35569b0" target="_top" xlink:title="Compass::handle_mag\l_cal_command">
<polygon fill="white" stroke="black" points="951,-252 951,-282 1068,-282 1068,-252 951,-252"/>
<text text-anchor="start" x="959" y="-270" font-family="Helvetica,sans-Serif" font-size="10.00">Compass::handle_mag</text>
<text text-anchor="middle" x="1009.5" y="-259" font-family="Helvetica,sans-Serif" font-size="10.00">_cal_command</text>
</a>
</g>
</g>
<!-- Node2&#45;&gt;Node9 -->
<g id="edge58" class="edge"><title>Node2&#45;&gt;Node9</title>
<path fill="none" stroke="midnightblue" d="M373.229,-299.905C499.295,-308.242 724.48,-317.031 915,-292 930.494,-289.964 947.07,-286.108 961.897,-282.023"/>
<polygon fill="midnightblue" stroke="midnightblue" points="373.42,-296.41 363.207,-299.229 372.949,-303.394 373.42,-296.41"/>
</g>
<!-- Node4 -->
<g id="node4" class="node"><title>Node4</title>
<g id="a_node4"><a xlink:href="classAP__Arming.html#a24332b3f5e2e233914bce12e69ae9564" target="_top" xlink:title="AP_Arming::compass\l_checks">
<polygon fill="white" stroke="black" points="1451,-258 1451,-288 1563,-288 1563,-258 1451,-258"/>
<text text-anchor="start" x="1459" y="-276" font-family="Helvetica,sans-Serif" font-size="10.00">AP_Arming::compass</text>
<text text-anchor="middle" x="1507" y="-265" font-family="Helvetica,sans-Serif" font-size="10.00">_checks</text>
</a>
</g>
</g>
<!-- Node3&#45;&gt;Node4 -->
<g id="edge3" class="edge"><title>Node3&#45;&gt;Node4</title>
<path fill="none" stroke="midnightblue" d="M534.675,-284.16C606.998,-295.371 726.395,-311 830,-311 830,-311 830,-311 1160,-311 1263.19,-311 1382.65,-294.095 1450.77,-282.835"/>
<polygon fill="midnightblue" stroke="midnightblue" points="534.775,-280.633 524.354,-282.54 533.69,-287.548 534.775,-280.633"/>
</g>
<!-- Node7 -->
<g id="node7" class="node"><title>Node7</title>
<g id="a_node7"><a xlink:href="classCompass.html#a702eb9d33ff1f5ada05b67f9b2219f9a" target="_top" xlink:title="Compass::_start_calibration">
<polygon fill="white" stroke="black" points="572,-225.5 572,-244.5 711,-244.5 711,-225.5 572,-225.5"/>
<text text-anchor="middle" x="641.5" y="-232.5" font-family="Helvetica,sans-Serif" font-size="10.00">Compass::_start_calibration</text>
</a>
</g>
</g>
<!-- Node3&#45;&gt;Node7 -->
<g id="edge6" class="edge"><title>Node3&#45;&gt;Node7</title>
<path fill="none" stroke="midnightblue" d="M500.454,-260.552C520.462,-254.954 547.033,-248.67 571.65,-243.582"/>
<polygon fill="midnightblue" stroke="midnightblue" points="499.259,-257.255 490.634,-263.408 501.213,-263.976 499.259,-257.255"/>
</g>
<!-- Node5 -->
<g id="node5" class="node"><title>Node5</title>
<g id="a_node5"><a xlink:href="classAP__Arming.html#a73c03baf7f22b7124a2ac9e9286a850a" target="_top" xlink:title="AP_Arming::pre_arm\l_checks">
<polygon fill="white" stroke="black" points="1631,-258 1631,-288 1738,-288 1738,-258 1631,-258"/>
<text text-anchor="start" x="1639" y="-276" font-family="Helvetica,sans-Serif" font-size="10.00">AP_Arming::pre_arm</text>
<text text-anchor="middle" x="1684.5" y="-265" font-family="Helvetica,sans-Serif" font-size="10.00">_checks</text>
</a>
</g>
</g>
<!-- Node4&#45;&gt;Node5 -->
<g id="edge4" class="edge"><title>Node4&#45;&gt;Node5</title>
<path fill="none" stroke="midnightblue" d="M1573.12,-273C1592.11,-273 1612.62,-273 1630.75,-273"/>
<polygon fill="midnightblue" stroke="midnightblue" points="1573.05,-269.5 1563.05,-273 1573.05,-276.5 1573.05,-269.5"/>
</g>
<!-- Node6 -->
<g id="node6" class="node"><title>Node6</title>
<g id="a_node6"><a xlink:href="classAP__Arming.html#a47b859d9929a736df2f08a1cad03efcb" target="_top" xlink:title="AP_Arming::arm">
<polygon fill="white" stroke="black" points="1827,-263.5 1827,-282.5 1916,-282.5 1916,-263.5 1827,-263.5"/>
<text text-anchor="middle" x="1871.5" y="-270.5" font-family="Helvetica,sans-Serif" font-size="10.00">AP_Arming::arm</text>
</a>
</g>
</g>
<!-- Node5&#45;&gt;Node6 -->
<g id="edge5" class="edge"><title>Node5&#45;&gt;Node6</title>
<path fill="none" stroke="midnightblue" d="M1748.12,-273C1774.02,-273 1803.42,-273 1826.91,-273"/>
<polygon fill="midnightblue" stroke="midnightblue" points="1748.02,-269.5 1738.02,-273 1748.02,-276.5 1748.02,-269.5"/>
</g>
<!-- Node7&#45;&gt;Node3 -->
<g id="edge7" class="edge"><title>Node7&#45;&gt;Node3</title>
<path fill="none" stroke="midnightblue" d="M608.649,-247.419C588.393,-253.091 561.381,-259.47 536.479,-264.598"/>
<polygon fill="midnightblue" stroke="midnightblue" points="609.67,-250.767 618.295,-244.614 607.715,-244.046 609.67,-250.767"/>
</g>
<!-- Node8 -->
<g id="node8" class="node"><title>Node8</title>
<g id="a_node8"><a xlink:href="classCompass.html#afdd4d0c78f52388a68dfc07deeec11a6" target="_top" xlink:title="Compass::_start_calibration_mask">
<polygon fill="white" stroke="black" points="747,-263.5 747,-282.5 915,-282.5 915,-263.5 747,-263.5"/>
<text text-anchor="middle" x="831" y="-270.5" font-family="Helvetica,sans-Serif" font-size="10.00">Compass::_start_calibration_mask</text>
</a>
</g>
</g>
<!-- Node7&#45;&gt;Node8 -->
<g id="edge8" class="edge"><title>Node7&#45;&gt;Node8</title>
<path fill="none" stroke="midnightblue" d="M699.784,-246.61C726.451,-252.014 757.781,-258.364 783.026,-263.48"/>
<polygon fill="midnightblue" stroke="midnightblue" points="700.31,-243.145 689.814,-244.589 698.92,-250.006 700.31,-243.145"/>
</g>
<!-- Node11 -->
<g id="node11" class="node"><title>Node11</title>
<g id="a_node11"><a xlink:href="classCompass.html#a785cd621a6ecd49077881299ff1edba7" target="_top" xlink:title="Compass::start_calibration_all">
<polygon fill="white" stroke="black" points="756.5,-225.5 756.5,-244.5 905.5,-244.5 905.5,-225.5 756.5,-225.5"/>
<text text-anchor="middle" x="831" y="-232.5" font-family="Helvetica,sans-Serif" font-size="10.00">Compass::start_calibration_all</text>
</a>
</g>
</g>
<!-- Node7&#45;&gt;Node11 -->
<g id="edge13" class="edge"><title>Node7&#45;&gt;Node11</title>
<path fill="none" stroke="midnightblue" d="M721.315,-235C732.877,-235 744.75,-235 756.206,-235"/>
<polygon fill="midnightblue" stroke="midnightblue" points="721.253,-231.5 711.253,-235 721.253,-238.5 721.253,-231.5"/>
</g>
<!-- Node8&#45;&gt;Node3 -->
<g id="edge9" class="edge"><title>Node8&#45;&gt;Node3</title>
<path fill="none" stroke="midnightblue" d="M736.583,-273C673.833,-273 592.597,-273 536.071,-273"/>
<polygon fill="midnightblue" stroke="midnightblue" points="736.884,-276.5 746.884,-273 736.884,-269.5 736.884,-276.5"/>
</g>
<!-- Node8&#45;&gt;Node9 -->
<g id="edge10" class="edge"><title>Node8&#45;&gt;Node9</title>
<path fill="none" stroke="midnightblue" d="M925.277,-269.829C933.953,-269.534 942.565,-269.241 950.774,-268.962"/>
<polygon fill="midnightblue" stroke="midnightblue" points="924.957,-266.338 915.082,-270.176 925.195,-273.334 924.957,-266.338"/>
</g>
<!-- Node10 -->
<g id="node10" class="node"><title>Node10</title>
<g id="a_node10"><a xlink:href="classCompass.html#a71d8ad1cb96263dfe4c0f712f14fac97" target="_top" xlink:title="Compass::compass_cal\l_requires_reboot">
<polygon fill="white" stroke="black" points="1263,-252 1263,-282 1385,-282 1385,-252 1263,-252"/>
<text text-anchor="start" x="1271" y="-270" font-family="Helvetica,sans-Serif" font-size="10.00">Compass::compass_cal</text>
<text text-anchor="middle" x="1324" y="-259" font-family="Helvetica,sans-Serif" font-size="10.00">_requires_reboot</text>
</a>
</g>
</g>
<!-- Node9&#45;&gt;Node10 -->
<g id="edge11" class="edge"><title>Node9&#45;&gt;Node10</title>
<path fill="none" stroke="midnightblue" d="M1078.19,-267C1133.23,-267 1210.14,-267 1262.99,-267"/>
<polygon fill="midnightblue" stroke="midnightblue" points="1078.18,-263.5 1068.18,-267 1078.18,-270.5 1078.18,-263.5"/>
</g>
<!-- Node10&#45;&gt;Node4 -->
<g id="edge12" class="edge"><title>Node10&#45;&gt;Node4</title>
<path fill="none" stroke="midnightblue" d="M1395.12,-269.324C1413.56,-269.936 1433.19,-270.586 1450.73,-271.168"/>
<polygon fill="midnightblue" stroke="midnightblue" points="1395.13,-265.823 1385.02,-268.99 1394.9,-272.819 1395.13,-265.823"/>
</g>
<!-- Node11&#45;&gt;Node9 -->
<g id="edge57" class="edge"><title>Node11&#45;&gt;Node9</title>
<path fill="none" stroke="midnightblue" d="M894.504,-246.332C912.895,-249.667 932.921,-253.297 950.984,-256.572"/>
<polygon fill="midnightblue" stroke="midnightblue" points="894.942,-242.855 884.478,-244.514 893.693,-249.742 894.942,-242.855"/>
</g>
<!-- Node12 -->
<g id="node12" class="node"><title>Node12</title>
<g id="a_node12"><a xlink:href="classCompass.html#a22ce936207eeda5d3fa55237271cef3e" target="_top" xlink:title="Compass::get_field">
<polygon fill="white" stroke="black" points="959,-191.5 959,-210.5 1060,-210.5 1060,-191.5 959,-191.5"/>
<text text-anchor="middle" x="1009.5" y="-198.5" font-family="Helvetica,sans-Serif" font-size="10.00">Compass::get_field</text>
</a>
</g>
</g>
<!-- Node11&#45;&gt;Node12 -->
<g id="edge14" class="edge"><title>Node11&#45;&gt;Node12</title>
<path fill="none" stroke="midnightblue" d="M891.495,-223.539C913.412,-219.317 937.984,-214.584 958.932,-210.548"/>
<polygon fill="midnightblue" stroke="midnightblue" points="890.792,-220.11 881.635,-225.439 892.116,-226.984 890.792,-220.11"/>
</g>
<!-- Node12&#45;&gt;Node12 -->
<g id="edge56" class="edge"><title>Node12&#45;&gt;Node12</title>
<path fill="none" stroke="midnightblue" d="M981.874,-219.654C983.029,-224.937 992.238,-229 1009.5,-229 1035.8,-229 1043.41,-219.565 1032.31,-210.757"/>
<polygon fill="midnightblue" stroke="midnightblue" points="985.008,-221.218 986.689,-210.757 978.851,-217.886 985.008,-221.218"/>
</g>
<!-- Node13 -->
<g id="node13" class="node"><title>Node13</title>
<g id="a_node13"><a xlink:href="classCompass.html#a518ff958770a39bc265f93d22e071212" target="_top" xlink:title="Compass::calculate\l_heading">
<polygon fill="white" stroke="black" points="1107,-153 1107,-183 1211,-183 1211,-153 1107,-153"/>
<text text-anchor="start" x="1115" y="-171" font-family="Helvetica,sans-Serif" font-size="10.00">Compass::calculate</text>
<text text-anchor="middle" x="1159" y="-160" font-family="Helvetica,sans-Serif" font-size="10.00">_heading</text>
</a>
</g>
</g>
<!-- Node12&#45;&gt;Node13 -->
<g id="edge15" class="edge"><title>Node12&#45;&gt;Node13</title>
<path fill="none" stroke="midnightblue" d="M1063.25,-189.198C1077.42,-186.027 1092.73,-182.603 1106.81,-179.452"/>
<polygon fill="midnightblue" stroke="midnightblue" points="1062.16,-185.856 1053.16,-191.455 1063.69,-192.687 1062.16,-185.856"/>
</g>
<!-- Node14 -->
<g id="node14" class="node"><title>Node14</title>
<g id="a_node14"><a xlink:href="classCompass.html#a59f46d32a935d4faecc4a28d262c4388" target="_top" xlink:title="Compass::consistent">
<polygon fill="white" stroke="black" points="1104,-202.5 1104,-221.5 1214,-221.5 1214,-202.5 1104,-202.5"/>
<text text-anchor="middle" x="1159" y="-209.5" font-family="Helvetica,sans-Serif" font-size="10.00">Compass::consistent</text>
</a>
</g>
</g>
<!-- Node12&#45;&gt;Node14 -->
<g id="edge16" class="edge"><title>Node12&#45;&gt;Node14</title>
<path fill="none" stroke="midnightblue" d="M1070.1,-205.445C1081.24,-206.275 1092.82,-207.139 1103.79,-207.957"/>
<polygon fill="midnightblue" stroke="midnightblue" points="1070.26,-201.947 1060.03,-204.693 1069.74,-208.928 1070.26,-201.947"/>
</g>
<!-- Node14&#45;&gt;Node4 -->
<g id="edge17" class="edge"><title>Node14&#45;&gt;Node4</title>
<path fill="none" stroke="midnightblue" d="M1224.24,-217.392C1272.39,-222.085 1339.73,-230.038 1398,-242 1418.45,-246.197 1440.67,-252.301 1459.61,-257.985"/>
<polygon fill="midnightblue" stroke="midnightblue" points="1224.55,-213.906 1214.27,-216.439 1223.89,-220.874 1224.55,-213.906"/>
</g>
<!-- Node14&#45;&gt;Node10 -->
<g id="edge18" class="edge"><title>Node14&#45;&gt;Node10</title>
<path fill="none" stroke="midnightblue" d="M1197.88,-224.782C1221.91,-232.891 1253.12,-243.42 1278.35,-251.935"/>
<polygon fill="midnightblue" stroke="midnightblue" points="1198.99,-221.461 1188.39,-221.58 1196.75,-228.094 1198.99,-221.461"/>
</g>
<!-- Node15 -->
<g id="node15" class="node"><title>Node15</title>
<g id="a_node15"><a xlink:href="classNavEKF2__core.html#abf6ac301297f486d9690d97c7a19dad8" target="_top" xlink:title="NavEKF2_core::readMagData">
<polygon fill="white" stroke="black" points="1250,-175.5 1250,-194.5 1398,-194.5 1398,-175.5 1250,-175.5"/>
<text text-anchor="middle" x="1324" y="-182.5" font-family="Helvetica,sans-Serif" font-size="10.00">NavEKF2_core::readMagData</text>
</a>
</g>
</g>
<!-- Node14&#45;&gt;Node15 -->
<g id="edge19" class="edge"><title>Node14&#45;&gt;Node15</title>
<path fill="none" stroke="midnightblue" d="M1224.5,-201.315C1238.08,-199.067 1252.31,-196.709 1265.61,-194.507"/>
<polygon fill="midnightblue" stroke="midnightblue" points="1223.57,-197.922 1214.28,-203.009 1224.71,-204.828 1223.57,-197.922"/>
</g>
<!-- Node32 -->
<g id="node32" class="node"><title>Node32</title>
<g id="a_node32"><a xlink:href="classNavEKF3__core.html#a39fe9f76e9c368cba51e9af9b2367513" target="_top" xlink:title="NavEKF3_core::readMagData">
<polygon fill="white" stroke="black" points="1250,-60.5 1250,-79.5 1398,-79.5 1398,-60.5 1250,-60.5"/>
<text text-anchor="middle" x="1324" y="-67.5" font-family="Helvetica,sans-Serif" font-size="10.00">NavEKF3_core::readMagData</text>
</a>
</g>
</g>
<!-- Node14&#45;&gt;Node32 -->
<g id="edge39" class="edge"><title>Node14&#45;&gt;Node32</title>
<path fill="none" stroke="midnightblue" d="M1202.79,-198.421C1206.71,-196.51 1210.51,-194.375 1214,-192 1261.41,-159.692 1301.87,-102.41 1316.83,-79.6823"/>
<polygon fill="midnightblue" stroke="midnightblue" points="1201.28,-195.262 1193.52,-202.476 1204.08,-201.675 1201.28,-195.262"/>
</g>
<!-- Node16 -->
<g id="node16" class="node"><title>Node16</title>
<g id="a_node16"><a xlink:href="classNavEKF2__core.html#a4a06ae47c3edebdecd2b179a0567f00b" target="_top" xlink:title="NavEKF2_core::Initialise\lFilterBootstrap">
<polygon fill="white" stroke="black" points="1622,-121 1622,-151 1747,-151 1747,-121 1622,-121"/>
<text text-anchor="start" x="1630" y="-139" font-family="Helvetica,sans-Serif" font-size="10.00">NavEKF2_core::Initialise</text>
<text text-anchor="middle" x="1684.5" y="-128" font-family="Helvetica,sans-Serif" font-size="10.00">FilterBootstrap</text>
</a>
</g>
</g>
<!-- Node15&#45;&gt;Node16 -->
<g id="edge20" class="edge"><title>Node15&#45;&gt;Node16</title>
<path fill="none" stroke="midnightblue" d="M1370.88,-173.086C1390.25,-168.421 1413.11,-163.386 1434,-160 1497.68,-149.679 1571.28,-143.263 1621.95,-139.691"/>
<polygon fill="midnightblue" stroke="midnightblue" points="1369.98,-169.703 1361.1,-175.482 1371.65,-176.502 1369.98,-169.703"/>
</g>
<!-- Node27 -->
<g id="node27" class="node"><title>Node27</title>
<g id="a_node27"><a xlink:href="classNavEKF2__core.html#af6d172634e15ba1643bf4c53c390f5e2" target="_top" xlink:title="NavEKF2_core::calcQuatAnd\lFieldStates">
<polygon fill="white" stroke="black" points="1434,-170 1434,-200 1580,-200 1580,-170 1434,-170"/>
<text text-anchor="start" x="1442" y="-188" font-family="Helvetica,sans-Serif" font-size="10.00">NavEKF2_core::calcQuatAnd</text>
<text text-anchor="middle" x="1507" y="-177" font-family="Helvetica,sans-Serif" font-size="10.00">FieldStates</text>
</a>
</g>
</g>
<!-- Node15&#45;&gt;Node27 -->
<g id="edge31" class="edge"><title>Node15&#45;&gt;Node27</title>
<path fill="none" stroke="midnightblue" d="M1408.11,-185C1416.69,-185 1425.36,-185 1433.81,-185"/>
<polygon fill="midnightblue" stroke="midnightblue" points="1408.1,-181.5 1398.1,-185 1408.1,-188.5 1408.1,-181.5"/>
</g>
<!-- Node29 -->
<g id="node29" class="node"><title>Node29</title>
<g id="a_node29"><a xlink:href="classNavEKF2__core.html#aa0f6cd840e93e0233f056c88ce45ef85" target="_top" xlink:title="NavEKF2_core::SelectMagFusion">
<polygon fill="white" stroke="black" points="1789,-188.5 1789,-207.5 1954,-207.5 1954,-188.5 1789,-188.5"/>
<text text-anchor="middle" x="1871.5" y="-195.5" font-family="Helvetica,sans-Serif" font-size="10.00">NavEKF2_core::SelectMagFusion</text>
</a>
</g>
</g>
<!-- Node15&#45;&gt;Node29 -->
<g id="edge38" class="edge"><title>Node15&#45;&gt;Node29</title>
<path fill="none" stroke="midnightblue" d="M1369.42,-197.067C1389.05,-201.805 1412.51,-206.662 1434,-209 1557.21,-222.404 1701.09,-214.2 1788.98,-206.521"/>
<polygon fill="midnightblue" stroke="midnightblue" points="1370.08,-193.625 1359.53,-194.615 1368.4,-200.419 1370.08,-193.625"/>
</g>
<!-- Node17 -->
<g id="node17" class="node"><title>Node17</title>
<g id="a_node17"><a xlink:href="classNavEKF2.html#a9c447b8d84abf2dfc845ddbbbad46a2b" target="_top" xlink:title="NavEKF2::InitialiseFilter">
<polygon fill="white" stroke="black" points="2169,-126.5 2169,-145.5 2292,-145.5 2292,-126.5 2169,-126.5"/>
<text text-anchor="middle" x="2230.5" y="-133.5" font-family="Helvetica,sans-Serif" font-size="10.00">NavEKF2::InitialiseFilter</text>
</a>
</g>
</g>
<!-- Node16&#45;&gt;Node17 -->
<g id="edge21" class="edge"><title>Node16&#45;&gt;Node17</title>
<path fill="none" stroke="midnightblue" d="M1757.26,-136C1865.29,-136 2067.78,-136 2168.86,-136"/>
<polygon fill="midnightblue" stroke="midnightblue" points="1757.11,-132.5 1747.11,-136 1757.11,-139.5 1757.11,-132.5"/>
</g>
<!-- Node18 -->
<g id="node18" class="node"><title>Node18</title>
<g id="a_node18"><a xlink:href="classAP__AHRS__NavEKF.html#a0187c6d3d4348b002a204c05d3e94b07" target="_top" xlink:title="AP_AHRS_NavEKF::update_EKF2">
<polygon fill="white" stroke="black" points="2328,-202.5 2328,-221.5 2500,-221.5 2500,-202.5 2328,-202.5"/>
<text text-anchor="middle" x="2414" y="-209.5" font-family="Helvetica,sans-Serif" font-size="10.00">AP_AHRS_NavEKF::update_EKF2</text>
</a>
</g>
</g>
<!-- Node17&#45;&gt;Node18 -->
<g id="edge22" class="edge"><title>Node17&#45;&gt;Node18</title>
<path fill="none" stroke="midnightblue" d="M2253,-151.382C2271.92,-164.243 2300.63,-182.173 2328,-193 2337.56,-196.783 2348.04,-199.896 2358.28,-202.43"/>
<polygon fill="midnightblue" stroke="midnightblue" points="2254.77,-148.346 2244.55,-145.529 2250.78,-154.1 2254.77,-148.346"/>
</g>
<!-- Node21 -->
<g id="node21" class="node"><title>Node21</title>
<g id="a_node21"><a xlink:href="classAP__AHRS__NavEKF.html#a532ff0df024a4537e5a108c42ba405a7" target="_top" xlink:title="AP_AHRS_NavEKF::reset">
<polygon fill="white" stroke="black" points="2347,-126.5 2347,-145.5 2481,-145.5 2481,-126.5 2347,-126.5"/>
<text text-anchor="middle" x="2414" y="-133.5" font-family="Helvetica,sans-Serif" font-size="10.00">AP_AHRS_NavEKF::reset</text>
</a>
</g>
</g>
<!-- Node17&#45;&gt;Node21 -->
<g id="edge25" class="edge"><title>Node17&#45;&gt;Node21</title>
<path fill="none" stroke="midnightblue" d="M2302.2,-136C2316.86,-136 2332.26,-136 2346.75,-136"/>
<polygon fill="midnightblue" stroke="midnightblue" points="2302.19,-132.5 2292.19,-136 2302.19,-139.5 2302.19,-132.5"/>
</g>
<!-- Node22 -->
<g id="node22" class="node"><title>Node22</title>
<g id="a_node22"><a xlink:href="classAP__AHRS__NavEKF.html#a9bd3c7f1793a48cd0d736b19fbfaf19a" target="_top" xlink:title="AP_AHRS_NavEKF::reset\l_attitude">
<polygon fill="white" stroke="black" points="2347,-77 2347,-107 2481,-107 2481,-77 2347,-77"/>
<text text-anchor="start" x="2355" y="-95" font-family="Helvetica,sans-Serif" font-size="10.00">AP_AHRS_NavEKF::reset</text>
<text text-anchor="middle" x="2414" y="-84" font-family="Helvetica,sans-Serif" font-size="10.00">_attitude</text>
</a>
</g>
</g>
<!-- Node17&#45;&gt;Node22 -->
<g id="edge26" class="edge"><title>Node17&#45;&gt;Node22</title>
<path fill="none" stroke="midnightblue" d="M2280.81,-124.045C2302.41,-118.811 2327.98,-112.611 2350.86,-107.065"/>
<polygon fill="midnightblue" stroke="midnightblue" points="2279.78,-120.695 2270.88,-126.453 2281.43,-127.498 2279.78,-120.695"/>
</g>
<!-- Node23 -->
<g id="node23" class="node"><title>Node23</title>
<g id="a_node23"><a xlink:href="classNavEKF2.html#ab18af2714c15fcf190493c01e2a28c73" target="_top" xlink:title="NavEKF2::activeCores">
<polygon fill="white" stroke="black" points="2355,-164.5 2355,-183.5 2473,-183.5 2473,-164.5 2355,-164.5"/>
<text text-anchor="middle" x="2414" y="-171.5" font-family="Helvetica,sans-Serif" font-size="10.00">NavEKF2::activeCores</text>
</a>
</g>
</g>
<!-- Node17&#45;&gt;Node23 -->
<g id="edge27" class="edge"><title>Node17&#45;&gt;Node23</title>
<path fill="none" stroke="midnightblue" d="M2287.29,-147.681C2313.03,-153.07 2343.2,-159.386 2367.53,-164.48"/>
<polygon fill="midnightblue" stroke="midnightblue" points="2287.81,-144.213 2277.3,-145.589 2286.37,-151.064 2287.81,-144.213"/>
</g>
<!-- Node19 -->
<g id="node19" class="node"><title>Node19</title>
<g id="a_node19"><a xlink:href="classAP__AHRS__NavEKF.html#ac8111979c5dc37a55b2c50818534ea52" target="_top" xlink:title="AP_AHRS_NavEKF::update">
<polygon fill="white" stroke="black" points="2537,-202.5 2537,-221.5 2679,-221.5 2679,-202.5 2537,-202.5"/>
<text text-anchor="middle" x="2608" y="-209.5" font-family="Helvetica,sans-Serif" font-size="10.00">AP_AHRS_NavEKF::update</text>
</a>
</g>
</g>
<!-- Node18&#45;&gt;Node19 -->
<g id="edge23" class="edge"><title>Node18&#45;&gt;Node19</title>
<path fill="none" stroke="midnightblue" d="M2510.21,-212C2519.23,-212 2528.25,-212 2536.97,-212"/>
<polygon fill="midnightblue" stroke="midnightblue" points="2510.05,-208.5 2500.05,-212 2510.05,-215.5 2510.05,-208.5"/>
</g>
<!-- Node20 -->
<g id="node20" class="node"><title>Node20</title>
<g id="a_node20"><a xlink:href="AHRS__Test_8cpp.html#a0b33edabd7f1c4e4a0bf32c67269be2f" target="_top" xlink:title="loop">
<polygon fill="white" stroke="black" points="2754.5,-202.5 2754.5,-221.5 2789.5,-221.5 2789.5,-202.5 2754.5,-202.5"/>
<text text-anchor="middle" x="2772" y="-209.5" font-family="Helvetica,sans-Serif" font-size="10.00">loop</text>
</a>
</g>
</g>
<!-- Node19&#45;&gt;Node20 -->
<g id="edge24" class="edge"><title>Node19&#45;&gt;Node20</title>
<path fill="none" stroke="midnightblue" d="M2689.29,-212C2713.99,-212 2738.78,-212 2754.47,-212"/>
<polygon fill="midnightblue" stroke="midnightblue" points="2689.11,-208.5 2679.11,-212 2689.11,-215.5 2689.11,-208.5"/>
</g>
<!-- Node24 -->
<g id="node24" class="node"><title>Node24</title>
<g id="a_node24"><a xlink:href="classDataFlash__Class.html#a46e58faaa53c44516433f6bb7bde4163" target="_top" xlink:title="DataFlash_Class::Log\l_Write_POS">
<polygon fill="white" stroke="black" points="2551,-55 2551,-85 2665,-85 2665,-55 2551,-55"/>
<text text-anchor="start" x="2559" y="-73" font-family="Helvetica,sans-Serif" font-size="10.00">DataFlash_Class::Log</text>
<text text-anchor="middle" x="2608" y="-62" font-family="Helvetica,sans-Serif" font-size="10.00">_Write_POS</text>
</a>
</g>
</g>
<!-- Node23&#45;&gt;Node24 -->
<g id="edge28" class="edge"><title>Node23&#45;&gt;Node24</title>
<path fill="none" stroke="midnightblue" d="M2483.18,-161.679C2488.98,-159.759 2494.67,-157.547 2500,-155 2537.25,-137.208 2573.29,-104.334 2592.56,-85.0996"/>
<polygon fill="midnightblue" stroke="midnightblue" points="2481.9,-158.408 2473.33,-164.642 2483.92,-165.111 2481.9,-158.408"/>
</g>
<!-- Node26 -->
<g id="node26" class="node"><title>Node26</title>
<g id="a_node26"><a xlink:href="classGCS__MAVLINK.html#a558ba3447048b78cb9dde460053e2741" target="_top" xlink:title="GCS_MAVLINK::send_ahrs2">
<polygon fill="white" stroke="black" points="2536,-164.5 2536,-183.5 2680,-183.5 2680,-164.5 2536,-164.5"/>
<text text-anchor="middle" x="2608" y="-171.5" font-family="Helvetica,sans-Serif" font-size="10.00">GCS_MAVLINK::send_ahrs2</text>
</a>
</g>
</g>
<!-- Node23&#45;&gt;Node26 -->
<g id="edge30" class="edge"><title>Node23&#45;&gt;Node26</title>
<path fill="none" stroke="midnightblue" d="M2483.52,-174C2500.5,-174 2518.74,-174 2535.85,-174"/>
<polygon fill="midnightblue" stroke="midnightblue" points="2483.13,-170.5 2473.13,-174 2483.13,-177.5 2483.13,-170.5"/>
</g>
<!-- Node25 -->
<g id="node25" class="node"><title>Node25</title>
<g id="a_node25"><a xlink:href="classDataFlash__Class.html#a7868f0e3dcef65ea5b5fcae618f4c5d4" target="_top" xlink:title="DataFlash_Class::get\l_structures">
<polygon fill="white" stroke="black" points="2716,-55 2716,-85 2828,-85 2828,-55 2716,-55"/>
<text text-anchor="start" x="2724" y="-73" font-family="Helvetica,sans-Serif" font-size="10.00">DataFlash_Class::get</text>
<text text-anchor="middle" x="2772" y="-62" font-family="Helvetica,sans-Serif" font-size="10.00">_structures</text>
</a>
</g>
</g>
<!-- Node24&#45;&gt;Node25 -->
<g id="edge29" class="edge"><title>Node24&#45;&gt;Node25</title>
<path fill="none" stroke="midnightblue" d="M2675.39,-70C2688.89,-70 2702.94,-70 2715.99,-70"/>
<polygon fill="midnightblue" stroke="midnightblue" points="2675.21,-66.5001 2665.21,-70 2675.21,-73.5001 2675.21,-66.5001"/>
</g>
<!-- Node28 -->
<g id="node28" class="node"><title>Node28</title>
<g id="a_node28"><a xlink:href="classNavEKF2__core.html#a3989e564224adfa26b0e32a5a03aca10" target="_top" xlink:title="NavEKF2_core::controlMag\lYawReset">
<polygon fill="white" stroke="black" points="1616,-170 1616,-200 1753,-200 1753,-170 1616,-170"/>
<text text-anchor="start" x="1624" y="-188" font-family="Helvetica,sans-Serif" font-size="10.00">NavEKF2_core::controlMag</text>
<text text-anchor="middle" x="1684.5" y="-177" font-family="Helvetica,sans-Serif" font-size="10.00">YawReset</text>
</a>
</g>
</g>
<!-- Node27&#45;&gt;Node28 -->
<g id="edge32" class="edge"><title>Node27&#45;&gt;Node28</title>
<path fill="none" stroke="midnightblue" d="M1590.19,-185C1598.79,-185 1607.46,-185 1615.87,-185"/>
<polygon fill="midnightblue" stroke="midnightblue" points="1590.14,-181.5 1580.14,-185 1590.14,-188.5 1590.14,-181.5"/>
</g>
<!-- Node28&#45;&gt;Node29 -->
<g id="edge33" class="edge"><title>Node28&#45;&gt;Node29</title>
<path fill="none" stroke="midnightblue" d="M1763.31,-190.468C1771.79,-191.064 1780.44,-191.671 1788.96,-192.27"/>
<polygon fill="midnightblue" stroke="midnightblue" points="1763.3,-186.958 1753.07,-189.748 1762.8,-193.941 1763.3,-186.958"/>
</g>
<!-- Node30 -->
<g id="node30" class="node"><title>Node30</title>
<g id="a_node30"><a xlink:href="classNavEKF2__core.html#a5f5c815cbd5ebba30d731f89f87726c3" target="_top" xlink:title="NavEKF2_core::UpdateFilter">
<polygon fill="white" stroke="black" points="1990,-188.5 1990,-207.5 2133,-207.5 2133,-188.5 1990,-188.5"/>
<text text-anchor="middle" x="2061.5" y="-195.5" font-family="Helvetica,sans-Serif" font-size="10.00">NavEKF2_core::UpdateFilter</text>
</a>
</g>
</g>
<!-- Node29&#45;&gt;Node30 -->
<g id="edge34" class="edge"><title>Node29&#45;&gt;Node30</title>
<path fill="none" stroke="midnightblue" d="M1964.22,-198C1972.83,-198 1981.47,-198 1989.84,-198"/>
<polygon fill="midnightblue" stroke="midnightblue" points="1964.14,-194.5 1954.14,-198 1964.14,-201.5 1964.14,-194.5"/>
</g>
<!-- Node31 -->
<g id="node31" class="node"><title>Node31</title>
<g id="a_node31"><a xlink:href="classNavEKF2.html#a72815b1bbd9d7ceb0ff7ae52d14516df" target="_top" xlink:title="NavEKF2::UpdateFilter">
<polygon fill="white" stroke="black" points="2171,-188.5 2171,-207.5 2290,-207.5 2290,-188.5 2171,-188.5"/>
<text text-anchor="middle" x="2230.5" y="-195.5" font-family="Helvetica,sans-Serif" font-size="10.00">NavEKF2::UpdateFilter</text>
</a>
</g>
</g>
<!-- Node30&#45;&gt;Node31 -->
<g id="edge35" class="edge"><title>Node30&#45;&gt;Node31</title>
<path fill="none" stroke="midnightblue" d="M2143.37,-198C2152.67,-198 2162.01,-198 2170.93,-198"/>
<polygon fill="midnightblue" stroke="midnightblue" points="2143.32,-194.5 2133.32,-198 2143.32,-201.5 2143.32,-194.5"/>
</g>
<!-- Node31&#45;&gt;Node18 -->
<g id="edge36" class="edge"><title>Node31&#45;&gt;Node18</title>
<path fill="none" stroke="midnightblue" d="M2300.2,-203.3C2309.22,-203.995 2318.55,-204.714 2327.79,-205.428"/>
<polygon fill="midnightblue" stroke="midnightblue" points="2300.42,-199.806 2290.18,-202.526 2299.88,-206.785 2300.42,-199.806"/>
</g>
<!-- Node31&#45;&gt;Node23 -->
<g id="edge37" class="edge"><title>Node31&#45;&gt;Node23</title>
<path fill="none" stroke="midnightblue" d="M2300.31,-188.902C2318.28,-186.525 2337.47,-183.987 2354.84,-181.691"/>
<polygon fill="midnightblue" stroke="midnightblue" points="2299.63,-185.46 2290.18,-190.241 2300.55,-192.4 2299.63,-185.46"/>
</g>
<!-- Node33 -->
<g id="node33" class="node"><title>Node33</title>
<g id="a_node33"><a xlink:href="classNavEKF3__core.html#aae18ada44b1b7be0d45af03391ef961a" target="_top" xlink:title="NavEKF3_core::Initialise\lFilterBootstrap">
<polygon fill="white" stroke="black" points="1999,-77 1999,-107 2124,-107 2124,-77 1999,-77"/>
<text text-anchor="start" x="2007" y="-95" font-family="Helvetica,sans-Serif" font-size="10.00">NavEKF3_core::Initialise</text>
<text text-anchor="middle" x="2061.5" y="-84" font-family="Helvetica,sans-Serif" font-size="10.00">FilterBootstrap</text>
</a>
</g>
</g>
<!-- Node32&#45;&gt;Node33 -->
<g id="edge40" class="edge"><title>Node32&#45;&gt;Node33</title>
<path fill="none" stroke="midnightblue" d="M1408.24,-72.4897C1557.42,-76.9521 1867.04,-86.2134 1998.89,-90.1572"/>
<polygon fill="midnightblue" stroke="midnightblue" points="1408.31,-68.9905 1398.21,-72.1899 1408.1,-75.9874 1408.31,-68.9905"/>
</g>
<!-- Node37 -->
<g id="node37" class="node"><title>Node37</title>
<g id="a_node37"><a xlink:href="classNavEKF3__core.html#a93a3f4411a8dc4df4819e13856d037d5" target="_top" xlink:title="NavEKF3_core::calcQuatAnd\lFieldStates">
<polygon fill="white" stroke="black" points="1434,-33 1434,-63 1580,-63 1580,-33 1434,-33"/>
<text text-anchor="start" x="1442" y="-51" font-family="Helvetica,sans-Serif" font-size="10.00">NavEKF3_core::calcQuatAnd</text>
<text text-anchor="middle" x="1507" y="-40" font-family="Helvetica,sans-Serif" font-size="10.00">FieldStates</text>
</a>
</g>
</g>
<!-- Node32&#45;&gt;Node37 -->
<g id="edge48" class="edge"><title>Node32&#45;&gt;Node37</title>
<path fill="none" stroke="midnightblue" d="M1408.11,-59.8982C1416.69,-58.8554 1425.36,-57.8017 1433.81,-56.775"/>
<polygon fill="midnightblue" stroke="midnightblue" points="1407.6,-56.4341 1398.1,-61.1152 1408.45,-63.3829 1407.6,-56.4341"/>
</g>
<!-- Node39 -->
<g id="node39" class="node"><title>Node39</title>
<g id="a_node39"><a xlink:href="classNavEKF3__core.html#a800d407d377e6532d563c68cc3c731d8" target="_top" xlink:title="NavEKF3_core::SelectMagFusion">
<polygon fill="white" stroke="black" points="1789,-19.5 1789,-38.5 1954,-38.5 1954,-19.5 1789,-19.5"/>
<text text-anchor="middle" x="1871.5" y="-26.5" font-family="Helvetica,sans-Serif" font-size="10.00">NavEKF3_core::SelectMagFusion</text>
</a>
</g>
</g>
<!-- Node32&#45;&gt;Node39 -->
<g id="edge55" class="edge"><title>Node32&#45;&gt;Node39</title>
<path fill="none" stroke="midnightblue" d="M1350.09,-55.6738C1371.58,-44.2765 1403.76,-29.2416 1434,-23 1563.71,3.77271 1719.73,-8.8014 1805.7,-19.4799"/>
<polygon fill="midnightblue" stroke="midnightblue" points="1348.41,-52.6044 1341.29,-60.4543 1351.75,-58.755 1348.41,-52.6044"/>
</g>
<!-- Node34 -->
<g id="node34" class="node"><title>Node34</title>
<g id="a_node34"><a xlink:href="classNavEKF3.html#a07f064fa513fbb6e7188141904f3b5b5" target="_top" xlink:title="NavEKF3::InitialiseFilter">
<polygon fill="white" stroke="black" points="2169,-82.5 2169,-101.5 2292,-101.5 2292,-82.5 2169,-82.5"/>
<text text-anchor="middle" x="2230.5" y="-89.5" font-family="Helvetica,sans-Serif" font-size="10.00">NavEKF3::InitialiseFilter</text>
</a>
</g>
</g>
<!-- Node33&#45;&gt;Node34 -->
<g id="edge41" class="edge"><title>Node33&#45;&gt;Node34</title>
<path fill="none" stroke="midnightblue" d="M2134.25,-92C2145.79,-92 2157.63,-92 2168.88,-92"/>
<polygon fill="midnightblue" stroke="midnightblue" points="2134.21,-88.5001 2124.21,-92 2134.21,-95.5001 2134.21,-88.5001"/>
</g>
<!-- Node34&#45;&gt;Node21 -->
<g id="edge44" class="edge"><title>Node34&#45;&gt;Node21</title>
<path fill="none" stroke="midnightblue" d="M2279.41,-104.042C2294.9,-107.903 2312.17,-112.17 2328,-116 2342.29,-119.459 2357.96,-123.168 2371.9,-126.441"/>
<polygon fill="midnightblue" stroke="midnightblue" points="2280.06,-100.599 2269.51,-101.572 2278.37,-107.39 2280.06,-100.599"/>
</g>
<!-- Node34&#45;&gt;Node22 -->
<g id="edge45" class="edge"><title>Node34&#45;&gt;Node22</title>
<path fill="none" stroke="midnightblue" d="M2302.2,-92C2316.86,-92 2332.26,-92 2346.75,-92"/>
<polygon fill="midnightblue" stroke="midnightblue" points="2302.19,-88.5001 2292.19,-92 2302.19,-95.5001 2302.19,-88.5001"/>
</g>
<!-- Node35 -->
<g id="node35" class="node"><title>Node35</title>
<g id="a_node35"><a xlink:href="classAP__AHRS__NavEKF.html#a324160404f12959e955554f5aed26459" target="_top" xlink:title="AP_AHRS_NavEKF::update_EKF3">
<polygon fill="white" stroke="black" points="2328,-38.5 2328,-57.5 2500,-57.5 2500,-38.5 2328,-38.5"/>
<text text-anchor="middle" x="2414" y="-45.5" font-family="Helvetica,sans-Serif" font-size="10.00">AP_AHRS_NavEKF::update_EKF3</text>
</a>
</g>
</g>
<!-- Node34&#45;&gt;Node35 -->
<g id="edge42" class="edge"><title>Node34&#45;&gt;Node35</title>
<path fill="none" stroke="midnightblue" d="M2276.89,-79.9057C2293,-75.7021 2311.28,-71.033 2328,-67 2341.23,-63.8087 2355.66,-60.5129 2368.82,-57.5806"/>
<polygon fill="midnightblue" stroke="midnightblue" points="2275.96,-76.5315 2267.17,-82.453 2277.73,-83.3027 2275.96,-76.5315"/>
</g>
<!-- Node36 -->
<g id="node36" class="node"><title>Node36</title>
<g id="a_node36"><a xlink:href="classNavEKF3.html#a3e1f50ad977a17222fcd7a6851b0f2ec" target="_top" xlink:title="NavEKF3::activeCores">
<polygon fill="white" stroke="black" points="2355,-0.5 2355,-19.5 2473,-19.5 2473,-0.5 2355,-0.5"/>
<text text-anchor="middle" x="2414" y="-7.5" font-family="Helvetica,sans-Serif" font-size="10.00">NavEKF3::activeCores</text>
</a>
</g>
</g>
<!-- Node34&#45;&gt;Node36 -->
<g id="edge46" class="edge"><title>Node34&#45;&gt;Node36</title>
<path fill="none" stroke="midnightblue" d="M2253.3,-76.4535C2276.75,-59.9731 2312.72,-35.4466 2328,-29 2337.06,-25.1803 2346.99,-22.0753 2356.78,-19.5685"/>
<polygon fill="midnightblue" stroke="midnightblue" points="2251.14,-73.6919 2245,-82.3213 2255.18,-79.4086 2251.14,-73.6919"/>
</g>
<!-- Node35&#45;&gt;Node19 -->
<g id="edge43" class="edge"><title>Node35&#45;&gt;Node19</title>
<path fill="none" stroke="midnightblue" d="M2495.32,-63.0764C2496.95,-64.2935 2498.52,-65.5993 2500,-67 2542.37,-106.963 2494.47,-152.165 2536,-193 2539.91,-196.847 2544.51,-199.938 2549.46,-202.418"/>
<polygon fill="midnightblue" stroke="midnightblue" points="2497,-60.0004 2486.66,-57.7028 2493.31,-65.9488 2497,-60.0004"/>
</g>
<!-- Node36&#45;&gt;Node24 -->
<g id="edge47" class="edge"><title>Node36&#45;&gt;Node24</title>
<path fill="none" stroke="midnightblue" d="M2473.43,-21.8775C2482.39,-24.0382 2491.48,-26.4304 2500,-29 2524.19,-36.2951 2550.71,-46.4426 2571.3,-54.8169"/>
<polygon fill="midnightblue" stroke="midnightblue" points="2473.95,-18.405 2463.42,-19.5393 2472.36,-25.2216 2473.95,-18.405"/>
</g>
<!-- Node38 -->
<g id="node38" class="node"><title>Node38</title>
<g id="a_node38"><a xlink:href="classNavEKF3__core.html#ae050fc8e6c45d5134f8cba8dabc719e8" target="_top" xlink:title="NavEKF3_core::controlMag\lYawReset">
<polygon fill="white" stroke="black" points="1616,-33 1616,-63 1753,-63 1753,-33 1616,-33"/>
<text text-anchor="start" x="1624" y="-51" font-family="Helvetica,sans-Serif" font-size="10.00">NavEKF3_core::controlMag</text>
<text text-anchor="middle" x="1684.5" y="-40" font-family="Helvetica,sans-Serif" font-size="10.00">YawReset</text>
</a>
</g>
</g>
<!-- Node37&#45;&gt;Node38 -->
<g id="edge49" class="edge"><title>Node37&#45;&gt;Node38</title>
<path fill="none" stroke="midnightblue" d="M1590.19,-48C1598.79,-48 1607.46,-48 1615.87,-48"/>
<polygon fill="midnightblue" stroke="midnightblue" points="1590.14,-44.5001 1580.14,-48 1590.14,-51.5001 1590.14,-44.5001"/>
</g>
<!-- Node38&#45;&gt;Node39 -->
<g id="edge50" class="edge"><title>Node38&#45;&gt;Node39</title>
<path fill="none" stroke="midnightblue" d="M1763.03,-40.0371C1771.6,-39.1572 1780.34,-38.2592 1788.96,-37.3745"/>
<polygon fill="midnightblue" stroke="midnightblue" points="1762.66,-36.5565 1753.07,-41.0599 1763.38,-43.5199 1762.66,-36.5565"/>
</g>
<!-- Node40 -->
<g id="node40" class="node"><title>Node40</title>
<g id="a_node40"><a xlink:href="classNavEKF3__core.html#a2a7fae9e0bf2ce6fc2f9b3918dc168d3" target="_top" xlink:title="NavEKF3_core::UpdateFilter">
<polygon fill="white" stroke="black" points="1990,-19.5 1990,-38.5 2133,-38.5 2133,-19.5 1990,-19.5"/>
<text text-anchor="middle" x="2061.5" y="-26.5" font-family="Helvetica,sans-Serif" font-size="10.00">NavEKF3_core::UpdateFilter</text>
</a>
</g>
</g>
<!-- Node39&#45;&gt;Node40 -->
<g id="edge51" class="edge"><title>Node39&#45;&gt;Node40</title>
<path fill="none" stroke="midnightblue" d="M1964.22,-29C1972.83,-29 1981.47,-29 1989.84,-29"/>
<polygon fill="midnightblue" stroke="midnightblue" points="1964.14,-25.5001 1954.14,-29 1964.14,-32.5001 1964.14,-25.5001"/>
</g>
<!-- Node41 -->
<g id="node41" class="node"><title>Node41</title>
<g id="a_node41"><a xlink:href="classNavEKF3.html#a477020fcf29376e0c2205dbf79728104" target="_top" xlink:title="NavEKF3::UpdateFilter">
<polygon fill="white" stroke="black" points="2171,-19.5 2171,-38.5 2290,-38.5 2290,-19.5 2171,-19.5"/>
<text text-anchor="middle" x="2230.5" y="-26.5" font-family="Helvetica,sans-Serif" font-size="10.00">NavEKF3::UpdateFilter</text>
</a>
</g>
</g>
<!-- Node40&#45;&gt;Node41 -->
<g id="edge52" class="edge"><title>Node40&#45;&gt;Node41</title>
<path fill="none" stroke="midnightblue" d="M2143.37,-29C2152.67,-29 2162.01,-29 2170.93,-29"/>
<polygon fill="midnightblue" stroke="midnightblue" points="2143.32,-25.5001 2133.32,-29 2143.32,-32.5001 2143.32,-25.5001"/>
</g>
<!-- Node41&#45;&gt;Node35 -->
<g id="edge53" class="edge"><title>Node41&#45;&gt;Node35</title>
<path fill="none" stroke="midnightblue" d="M2300.2,-36.1923C2309.22,-37.1361 2318.55,-38.1123 2327.79,-39.0805"/>
<polygon fill="midnightblue" stroke="midnightblue" points="2300.49,-32.7028 2290.18,-35.1425 2299.76,-39.6647 2300.49,-32.7028"/>
</g>
<!-- Node41&#45;&gt;Node36 -->
<g id="edge54" class="edge"><title>Node41&#45;&gt;Node36</title>
<path fill="none" stroke="midnightblue" d="M2300.31,-21.7972C2318.28,-19.9157 2337.47,-17.9063 2354.84,-16.0889"/>
<polygon fill="midnightblue" stroke="midnightblue" points="2299.76,-18.3353 2290.18,-22.8575 2300.49,-25.2972 2299.76,-18.3353"/>
</g>
<!-- Node42&#45;&gt;Node12 -->
<g id="edge60" class="edge"><title>Node42&#45;&gt;Node12</title>
<path fill="none" stroke="midnightblue" d="M538.686,-205.35C649.502,-204.324 862.298,-202.354 958.772,-201.46"/>
<polygon fill="midnightblue" stroke="midnightblue" points="538.58,-201.851 528.613,-205.443 538.645,-208.851 538.58,-201.851"/>
</g>
</g>
</svg>
