<?xml version="1.0" encoding="UTF-8" standalone="no"?>
<!DOCTYPE svg PUBLIC "-//W3C//DTD SVG 1.1//EN"
 "http://www.w3.org/Graphics/SVG/1.1/DTD/svg11.dtd">
<!-- Generated by graphviz version 2.38.0 (20140413.2041)
 -->
<!-- Title: VRBRAIN::I2CDevice::set_speed Pages: 1 -->
<svg width="563pt" height="88pt"
 viewBox="0.00 0.00 563.00 88.00" xmlns="http://www.w3.org/2000/svg" xmlns:xlink="http://www.w3.org/1999/xlink">
<g id="graph0" class="graph" transform="scale(1 1) rotate(0) translate(4 84)">
<title>VRBRAIN::I2CDevice::set_speed</title>
<polygon fill="white" stroke="none" points="-4,4 -4,-84 559,-84 559,4 -4,4"/>
<!-- Node1 -->
<g id="node1" class="node"><title>Node1</title>
<polygon fill="#bfbfbf" stroke="black" points="0,-24.5 0,-54.5 115,-54.5 115,-24.5 0,-24.5"/>
<text text-anchor="start" x="8" y="-42.5" font-family="Helvetica,sans-Serif" font-size="10.00">VRBRAIN::I2CDevice</text>
<text text-anchor="middle" x="57.5" y="-31.5" font-family="Helvetica,sans-Serif" font-size="10.00">::set_speed</text>
</g>
<!-- Node2 -->
<g id="node2" class="node"><title>Node2</title>
<g id="a_node2"><a xlink:href="classVRBRAIN_1_1I2CDevice.html#a0fdbf058ddfdb0f92b18d4c9b454e470" target="_top" xlink:title="VRBRAIN::I2CDevice\l::transfer">
<polygon fill="white" stroke="black" points="155,-49.5 155,-79.5 270,-79.5 270,-49.5 155,-49.5"/>
<text text-anchor="start" x="163" y="-67.5" font-family="Helvetica,sans-Serif" font-size="10.00">VRBRAIN::I2CDevice</text>
<text text-anchor="middle" x="212.5" y="-56.5" font-family="Helvetica,sans-Serif" font-size="10.00">::transfer</text>
</a>
</g>
</g>
<!-- Node1&#45;&gt;Node2 -->
<g id="edge1" class="edge"><title>Node1&#45;&gt;Node2</title>
<path fill="none" stroke="midnightblue" d="M115.037,-48.738C124.805,-50.3341 135.04,-52.0065 145.042,-53.6408"/>
<polygon fill="midnightblue" stroke="midnightblue" points="144.507,-57.0997 154.94,-55.2582 145.636,-50.1913 144.507,-57.0997"/>
</g>
<!-- Node5 -->
<g id="node5" class="node"><title>Node5</title>
<g id="a_node5"><a xlink:href="classVRBRAIN_1_1I2CDevice.html#ac29f99134d18078201771ddf943459f4" target="_top" xlink:title="VRBRAIN::I2CDevice\l::read_registers_multiple">
<polygon fill="white" stroke="black" points="151,-0.5 151,-30.5 274,-30.5 274,-0.5 151,-0.5"/>
<text text-anchor="start" x="159" y="-18.5" font-family="Helvetica,sans-Serif" font-size="10.00">VRBRAIN::I2CDevice</text>
<text text-anchor="middle" x="212.5" y="-7.5" font-family="Helvetica,sans-Serif" font-size="10.00">::read_registers_multiple</text>
</a>
</g>
</g>
<!-- Node1&#45;&gt;Node5 -->
<g id="edge4" class="edge"><title>Node1&#45;&gt;Node5</title>
<path fill="none" stroke="midnightblue" d="M115.037,-30.6315C123.419,-29.3166 132.145,-27.9478 140.772,-26.5945"/>
<polygon fill="midnightblue" stroke="midnightblue" points="141.492,-30.0246 150.829,-25.0171 140.407,-23.1091 141.492,-30.0246"/>
</g>
<!-- Node3 -->
<g id="node3" class="node"><title>Node3</title>
<g id="a_node3"><a xlink:href="classVRBRAIN_1_1VRBRAIN__I2C.html#a1873817ca177d3d99d679f438f6ed652" target="_top" xlink:title="VRBRAIN::VRBRAIN_I2C\l::do_transfer">
<polygon fill="white" stroke="black" points="310,-49.5 310,-79.5 445,-79.5 445,-49.5 310,-49.5"/>
<text text-anchor="start" x="318" y="-67.5" font-family="Helvetica,sans-Serif" font-size="10.00">VRBRAIN::VRBRAIN_I2C</text>
<text text-anchor="middle" x="377.5" y="-56.5" font-family="Helvetica,sans-Serif" font-size="10.00">::do_transfer</text>
</a>
</g>
</g>
<!-- Node2&#45;&gt;Node3 -->
<g id="edge2" class="edge"><title>Node2&#45;&gt;Node3</title>
<path fill="none" stroke="midnightblue" d="M270.052,-64.5C279.707,-64.5 289.878,-64.5 299.949,-64.5"/>
<polygon fill="midnightblue" stroke="midnightblue" points="299.963,-68.0001 309.963,-64.5 299.963,-61.0001 299.963,-68.0001"/>
</g>
<!-- Node4 -->
<g id="node4" class="node"><title>Node4</title>
<g id="a_node4"><a xlink:href="namespaceAP__HAL.html#a87c4d9884f23daecd717a2cb4fa114c1" target="_top" xlink:title="AP_HAL::init">
<polygon fill="white" stroke="black" points="481,-55 481,-74 555,-74 555,-55 481,-55"/>
<text text-anchor="middle" x="518" y="-62" font-family="Helvetica,sans-Serif" font-size="10.00">AP_HAL::init</text>
</a>
</g>
</g>
<!-- Node3&#45;&gt;Node4 -->
<g id="edge3" class="edge"><title>Node3&#45;&gt;Node4</title>
<path fill="none" stroke="midnightblue" d="M445.316,-64.5C453.876,-64.5 462.486,-64.5 470.622,-64.5"/>
<polygon fill="midnightblue" stroke="midnightblue" points="470.633,-68.0001 480.633,-64.5 470.633,-61.0001 470.633,-68.0001"/>
</g>
</g>
</svg>
