<?xml version="1.0" encoding="UTF-8" standalone="no"?>
<!DOCTYPE svg PUBLIC "-//W3C//DTD SVG 1.1//EN"
 "http://www.w3.org/Graphics/SVG/1.1/DTD/svg11.dtd">
<!-- Generated by graphviz version 2.38.0 (20140413.2041)
 -->
<!-- Title: AP_HAL::Scheduler::delay_microseconds_boost Pages: 1 -->
<svg width="298pt" height="137pt"
 viewBox="0.00 0.00 298.00 137.00" xmlns="http://www.w3.org/2000/svg" xmlns:xlink="http://www.w3.org/1999/xlink">
<g id="graph0" class="graph" transform="scale(1 1) rotate(0) translate(4 133)">
<title>AP_HAL::Scheduler::delay_microseconds_boost</title>
<polygon fill="white" stroke="none" points="-4,4 -4,-133 294,-133 294,4 -4,4"/>
<!-- Node1 -->
<g id="node1" class="node"><title>Node1</title>
<polygon fill="#bfbfbf" stroke="black" points="0,-49.5 0,-79.5 135,-79.5 135,-49.5 0,-49.5"/>
<text text-anchor="start" x="8" y="-67.5" font-family="Helvetica,sans-Serif" font-size="10.00">AP_HAL::Scheduler::</text>
<text text-anchor="middle" x="67.5" y="-56.5" font-family="Helvetica,sans-Serif" font-size="10.00">delay_microseconds_boost</text>
</g>
<!-- Node2 -->
<g id="node2" class="node"><title>Node2</title>
<g id="a_node2"><a xlink:href="classAP__HAL_1_1Scheduler.html#a78c4f1b1f192ac1c99544b6cc8f099b0" target="_top" xlink:title="AP_HAL::Scheduler::\ldelay_microseconds">
<polygon fill="white" stroke="black" points="175.5,-98.5 175.5,-128.5 285.5,-128.5 285.5,-98.5 175.5,-98.5"/>
<text text-anchor="start" x="183.5" y="-116.5" font-family="Helvetica,sans-Serif" font-size="10.00">AP_HAL::Scheduler::</text>
<text text-anchor="middle" x="230.5" y="-105.5" font-family="Helvetica,sans-Serif" font-size="10.00">delay_microseconds</text>
</a>
</g>
</g>
<!-- Node1&#45;&gt;Node2 -->
<g id="edge1" class="edge"><title>Node1&#45;&gt;Node2</title>
<path fill="none" stroke="midnightblue" d="M118.119,-79.6014C134.57,-84.6083 153.049,-90.2324 170.157,-95.439"/>
<polygon fill="midnightblue" stroke="midnightblue" points="169.459,-98.8851 180.045,-98.4484 171.497,-92.1884 169.459,-98.8851"/>
</g>
<!-- Node3 -->
<g id="node3" class="node"><title>Node3</title>
<g id="a_node3"><a xlink:href="classAP__HAL_1_1Scheduler.html#a2414a759112e5b82a5d531776ab94520" target="_top" xlink:title="AP_HAL::Scheduler::\lregister_delay_callback">
<polygon fill="white" stroke="black" points="171,-49.5 171,-79.5 290,-79.5 290,-49.5 171,-49.5"/>
<text text-anchor="start" x="179" y="-67.5" font-family="Helvetica,sans-Serif" font-size="10.00">AP_HAL::Scheduler::</text>
<text text-anchor="middle" x="230.5" y="-56.5" font-family="Helvetica,sans-Serif" font-size="10.00">register_delay_callback</text>
</a>
</g>
</g>
<!-- Node1&#45;&gt;Node3 -->
<g id="edge2" class="edge"><title>Node1&#45;&gt;Node3</title>
<path fill="none" stroke="midnightblue" d="M135.38,-64.5C143.733,-64.5 152.288,-64.5 160.67,-64.5"/>
<polygon fill="midnightblue" stroke="midnightblue" points="160.785,-68.0001 170.785,-64.5 160.784,-61.0001 160.785,-68.0001"/>
</g>
<!-- Node4 -->
<g id="node4" class="node"><title>Node4</title>
<g id="a_node4"><a xlink:href="classAP__HAL_1_1Scheduler.html#ac2c4230957d5dbd3c2fd104af2794b4f" target="_top" xlink:title="AP_HAL::Scheduler::\lregister_timer_process">
<polygon fill="white" stroke="black" points="172.5,-0.5 172.5,-30.5 288.5,-30.5 288.5,-0.5 172.5,-0.5"/>
<text text-anchor="start" x="180.5" y="-18.5" font-family="Helvetica,sans-Serif" font-size="10.00">AP_HAL::Scheduler::</text>
<text text-anchor="middle" x="230.5" y="-7.5" font-family="Helvetica,sans-Serif" font-size="10.00">register_timer_process</text>
</a>
</g>
</g>
<!-- Node1&#45;&gt;Node4 -->
<g id="edge3" class="edge"><title>Node1&#45;&gt;Node4</title>
<path fill="none" stroke="midnightblue" d="M118.119,-49.3986C134.57,-44.3917 153.049,-38.7676 170.157,-33.561"/>
<polygon fill="midnightblue" stroke="midnightblue" points="171.497,-36.8116 180.045,-30.5516 169.459,-30.1149 171.497,-36.8116"/>
</g>
</g>
</svg>
