<?xml version="1.0" encoding="UTF-8" standalone="no"?>
<!DOCTYPE svg PUBLIC "-//W3C//DTD SVG 1.1//EN"
 "http://www.w3.org/Graphics/SVG/1.1/DTD/svg11.dtd">
<!-- Generated by graphviz version 2.38.0 (20140413.2041)
 -->
<!-- Title: AP_AHRS::create_view Pages: 1 -->
<svg width="708pt" height="78pt"
 viewBox="0.00 0.00 708.00 77.50" xmlns="http://www.w3.org/2000/svg" xmlns:xlink="http://www.w3.org/1999/xlink">
<g id="graph0" class="graph" transform="scale(1 1) rotate(0) translate(4 73.5)">
<title>AP_AHRS::create_view</title>
<polygon fill="white" stroke="none" points="-4,4 -4,-73.5 704,-73.5 704,4 -4,4"/>
<!-- Node1 -->
<g id="node1" class="node"><title>Node1</title>
<polygon fill="#bfbfbf" stroke="black" points="0,-28 0,-47 122,-47 122,-28 0,-28"/>
<text text-anchor="middle" x="61" y="-35" font-family="Helvetica,sans-Serif" font-size="10.00">AP_AHRS::create_view</text>
</g>
<!-- Node2 -->
<g id="node2" class="node"><title>Node2</title>
<g id="a_node2"><a xlink:href="classAP__AHRS.html#a60cff586e3b46426dca95819225b5c30" target="_top" xlink:title="AP_AHRS::getCorrectedDelta\lVelocityNED">
<polygon fill="white" stroke="black" points="158,-22.5 158,-52.5 307,-52.5 307,-22.5 158,-22.5"/>
<text text-anchor="start" x="166" y="-40.5" font-family="Helvetica,sans-Serif" font-size="10.00">AP_AHRS::getCorrectedDelta</text>
<text text-anchor="middle" x="232.5" y="-29.5" font-family="Helvetica,sans-Serif" font-size="10.00">VelocityNED</text>
</a>
</g>
</g>
<!-- Node1&#45;&gt;Node2 -->
<g id="edge1" class="edge"><title>Node1&#45;&gt;Node2</title>
<path fill="none" stroke="midnightblue" d="M132.364,-37.5C140.764,-37.5 149.358,-37.5 157.804,-37.5"/>
<polygon fill="midnightblue" stroke="midnightblue" points="132.237,-34.0001 122.237,-37.5 132.237,-41.0001 132.237,-34.0001"/>
</g>
<!-- Node3 -->
<g id="node3" class="node"><title>Node3</title>
<g id="a_node3"><a xlink:href="classAC__PrecLand.html#ae68b8b96de87397ca1eb0eac34708e3d" target="_top" xlink:title="AC_PrecLand::update">
<polygon fill="white" stroke="black" points="371,-50 371,-69 484,-69 484,-50 371,-50"/>
<text text-anchor="middle" x="427.5" y="-57" font-family="Helvetica,sans-Serif" font-size="10.00">AC_PrecLand::update</text>
</a>
</g>
</g>
<!-- Node2&#45;&gt;Node3 -->
<g id="edge2" class="edge"><title>Node2&#45;&gt;Node3</title>
<path fill="none" stroke="midnightblue" d="M317.051,-47.0239C335.26,-49.0996 354.097,-51.2468 370.902,-53.1624"/>
<polygon fill="midnightblue" stroke="midnightblue" points="317.348,-43.5352 307.016,-45.88 316.555,-50.4901 317.348,-43.5352"/>
</g>
<!-- Node5 -->
<g id="node5" class="node"><title>Node5</title>
<g id="a_node5"><a xlink:href="classAP__AHRS__NavEKF.html#a21c35d20e8bb65fbad2c091838aff277" target="_top" xlink:title="AP_AHRS_NavEKF::getCorrected\lDeltaVelocityNED">
<polygon fill="white" stroke="black" points="343,-0.5 343,-30.5 512,-30.5 512,-0.5 343,-0.5"/>
<text text-anchor="start" x="351" y="-18.5" font-family="Helvetica,sans-Serif" font-size="10.00">AP_AHRS_NavEKF::getCorrected</text>
<text text-anchor="middle" x="427.5" y="-7.5" font-family="Helvetica,sans-Serif" font-size="10.00">DeltaVelocityNED</text>
</a>
</g>
</g>
<!-- Node2&#45;&gt;Node5 -->
<g id="edge4" class="edge"><title>Node2&#45;&gt;Node5</title>
<path fill="none" stroke="midnightblue" d="M317,-27.9819C325.574,-27.0045 334.287,-26.0113 342.863,-25.0338"/>
<polygon fill="midnightblue" stroke="midnightblue" points="316.555,-24.5099 307.016,-29.12 317.348,-31.4648 316.555,-24.5099"/>
</g>
<!-- Node4 -->
<g id="node4" class="node"><title>Node4</title>
<g id="a_node4"><a xlink:href="classAC__PrecLand.html#a2800c69257499ca69882022173d2b3f1" target="_top" xlink:title="AC_PrecLand::last_update_ms">
<polygon fill="white" stroke="black" points="548,-50 548,-69 700,-69 700,-50 548,-50"/>
<text text-anchor="middle" x="624" y="-57" font-family="Helvetica,sans-Serif" font-size="10.00">AC_PrecLand::last_update_ms</text>
</a>
</g>
</g>
<!-- Node3&#45;&gt;Node4 -->
<g id="edge3" class="edge"><title>Node3&#45;&gt;Node4</title>
<path fill="none" stroke="midnightblue" d="M494.651,-59.5C511.708,-59.5 530.193,-59.5 547.679,-59.5"/>
<polygon fill="midnightblue" stroke="midnightblue" points="494.236,-56.0001 484.236,-59.5 494.236,-63.0001 494.236,-56.0001"/>
</g>
<!-- Node6 -->
<g id="node6" class="node"><title>Node6</title>
<g id="a_node6"><a xlink:href="classAP__AHRS__NavEKF.html#add98225e5350abab51cccd311f5496c3" target="_top" xlink:title="AP_AHRS_NavEKF::get\l_NavEKF3_const">
<polygon fill="white" stroke="black" points="561,-0.5 561,-30.5 687,-30.5 687,-0.5 561,-0.5"/>
<text text-anchor="start" x="569" y="-18.5" font-family="Helvetica,sans-Serif" font-size="10.00">AP_AHRS_NavEKF::get</text>
<text text-anchor="middle" x="624" y="-7.5" font-family="Helvetica,sans-Serif" font-size="10.00">_NavEKF3_const</text>
</a>
</g>
</g>
<!-- Node5&#45;&gt;Node6 -->
<g id="edge5" class="edge"><title>Node5&#45;&gt;Node6</title>
<path fill="none" stroke="midnightblue" d="M522.139,-15.5C535.293,-15.5 548.534,-15.5 560.899,-15.5"/>
<polygon fill="midnightblue" stroke="midnightblue" points="522.114,-12.0001 512.114,-15.5 522.114,-19.0001 522.114,-12.0001"/>
</g>
</g>
</svg>
