<?xml version="1.0" encoding="UTF-8" standalone="no"?>
<!DOCTYPE svg PUBLIC "-//W3C//DTD SVG 1.1//EN"
 "http://www.w3.org/Graphics/SVG/1.1/DTD/svg11.dtd">
<!-- Generated by graphviz version 2.38.0 (20140413.2041)
 -->
<!-- Title: AP_GPS::location Pages: 1 -->
<svg width="1321pt" height="250pt"
 viewBox="0.00 0.00 1321.00 249.91" xmlns="http://www.w3.org/2000/svg" xmlns:xlink="http://www.w3.org/1999/xlink">
<g id="graph0" class="graph" transform="scale(1 1) rotate(0) translate(4 245.91)">
<title>AP_GPS::location</title>
<polygon fill="white" stroke="none" points="-4,4 -4,-245.91 1317,-245.91 1317,4 -4,4"/>
<!-- Node1 -->
<g id="node1" class="node"><title>Node1</title>
<polygon fill="#bfbfbf" stroke="black" points="0,-72.4104 0,-91.4104 96,-91.4104 96,-72.4104 0,-72.4104"/>
<text text-anchor="middle" x="48" y="-79.4104" font-family="Helvetica,sans-Serif" font-size="10.00">AP_GPS::location</text>
</g>
<!-- Node2 -->
<g id="node2" class="node"><title>Node2</title>
<g id="a_node2"><a xlink:href="classAP__GPS.html#a1c9e324f3547c4e70110f3a42e935a75" target="_top" xlink:title="AP_GPS::all_consistent">
<polygon fill="white" stroke="black" points="132,-142.41 132,-161.41 254,-161.41 254,-142.41 132,-142.41"/>
<text text-anchor="middle" x="193" y="-149.41" font-family="Helvetica,sans-Serif" font-size="10.00">AP_GPS::all_consistent</text>
</a>
</g>
</g>
<!-- Node1&#45;&gt;Node2 -->
<g id="edge1" class="edge"><title>Node1&#45;&gt;Node2</title>
<path fill="none" stroke="midnightblue" d="M72.0282,-97.1706C88.326,-107.551 110.942,-121.125 132,-130.91 141.208,-135.189 151.547,-139.105 161.014,-142.365"/>
<polygon fill="midnightblue" stroke="midnightblue" points="73.5207,-93.9679 63.222,-91.4805 69.7218,-99.8474 73.5207,-93.9679"/>
</g>
<!-- Node17 -->
<g id="node17" class="node"><title>Node17</title>
<g id="a_node17"><a xlink:href="classAP__GPS.html#a86e388032563bbd72cca1bce9ec24d17" target="_top" xlink:title="AP_GPS::calc_blended\l_state">
<polygon fill="white" stroke="black" points="658,-42.9104 658,-72.9104 777,-72.9104 777,-42.9104 658,-42.9104"/>
<text text-anchor="start" x="666" y="-60.9104" font-family="Helvetica,sans-Serif" font-size="10.00">AP_GPS::calc_blended</text>
<text text-anchor="middle" x="717.5" y="-49.9104" font-family="Helvetica,sans-Serif" font-size="10.00">_state</text>
</a>
</g>
</g>
<!-- Node1&#45;&gt;Node17 -->
<g id="edge16" class="edge"><title>Node1&#45;&gt;Node17</title>
<path fill="none" stroke="midnightblue" d="M68.4835,-66.3056C84.4869,-54.5479 108.301,-39.3838 132,-32.9104 341.224,24.2403 404.851,-5.49392 620,-32.9104 635.966,-34.945 653.067,-38.8006 668.372,-42.8857"/>
<polygon fill="midnightblue" stroke="midnightblue" points="66.2928,-63.5744 60.4467,-72.4104 70.527,-69.1486 66.2928,-63.5744"/>
</g>
<!-- Node20 -->
<g id="node20" class="node"><title>Node20</title>
<g id="a_node20"><a xlink:href="classAP__GPS.html#a559c00ff3bbc1232f68e64d29a892128" target="_top" xlink:title="AP_GPS::send_mavlink\l_gps2_raw">
<polygon fill="white" stroke="black" points="132,-91.9104 132,-121.91 254,-121.91 254,-91.9104 132,-91.9104"/>
<text text-anchor="start" x="140" y="-109.91" font-family="Helvetica,sans-Serif" font-size="10.00">AP_GPS::send_mavlink</text>
<text text-anchor="middle" x="193" y="-98.9104" font-family="Helvetica,sans-Serif" font-size="10.00">_gps2_raw</text>
</a>
</g>
</g>
<!-- Node1&#45;&gt;Node20 -->
<g id="edge19" class="edge"><title>Node1&#45;&gt;Node20</title>
<path fill="none" stroke="midnightblue" d="M106.298,-91.9275C114.697,-93.3959 123.369,-94.912 131.825,-96.3902"/>
<polygon fill="midnightblue" stroke="midnightblue" points="106.673,-88.4401 96.2199,-90.1656 105.468,-95.3356 106.673,-88.4401"/>
</g>
<!-- Node24 -->
<g id="node24" class="node"><title>Node24</title>
<g id="a_node24"><a xlink:href="classAP__GPS.html#a266ef4a39f7a303fc1905bf7f9e4ed09" target="_top" xlink:title="AP_GPS::send_mavlink\l_gps_raw">
<polygon fill="white" stroke="black" points="132,-42.9104 132,-72.9104 254,-72.9104 254,-42.9104 132,-42.9104"/>
<text text-anchor="start" x="140" y="-60.9104" font-family="Helvetica,sans-Serif" font-size="10.00">AP_GPS::send_mavlink</text>
<text text-anchor="middle" x="193" y="-49.9104" font-family="Helvetica,sans-Serif" font-size="10.00">_gps_raw</text>
</a>
</g>
</g>
<!-- Node1&#45;&gt;Node24 -->
<g id="edge26" class="edge"><title>Node1&#45;&gt;Node24</title>
<path fill="none" stroke="midnightblue" d="M106.298,-72.2941C114.697,-70.8843 123.369,-69.4289 131.825,-68.0098"/>
<polygon fill="midnightblue" stroke="midnightblue" points="105.503,-68.8784 96.2199,-73.9854 106.661,-75.7819 105.503,-68.8784"/>
</g>
<!-- Node3 -->
<g id="node3" class="node"><title>Node3</title>
<g id="a_node3"><a xlink:href="classAP__GPS.html#a29bd1717eb9dc2709ccc0f2523de8667" target="_top" xlink:title="AP_GPS::all_configured">
<polygon fill="white" stroke="black" points="307.5,-142.41 307.5,-161.41 429.5,-161.41 429.5,-142.41 307.5,-142.41"/>
<text text-anchor="middle" x="368.5" y="-149.41" font-family="Helvetica,sans-Serif" font-size="10.00">AP_GPS::all_configured</text>
</a>
</g>
</g>
<!-- Node2&#45;&gt;Node3 -->
<g id="edge2" class="edge"><title>Node2&#45;&gt;Node3</title>
<path fill="none" stroke="midnightblue" d="M264.442,-151.91C278.694,-151.91 293.555,-151.91 307.411,-151.91"/>
<polygon fill="midnightblue" stroke="midnightblue" points="264.195,-148.411 254.195,-151.91 264.195,-155.411 264.195,-148.411"/>
</g>
<!-- Node14 -->
<g id="node14" class="node"><title>Node14</title>
<g id="a_node14"><a xlink:href="classAP__Arming.html#a3e31fe40e0d7d0e6befd2f82dd6b5a6d" target="_top" xlink:title="AP_Arming::gps_checks">
<polygon fill="white" stroke="black" points="306,-183.41 306,-202.41 431,-202.41 431,-183.41 306,-183.41"/>
<text text-anchor="middle" x="368.5" y="-190.41" font-family="Helvetica,sans-Serif" font-size="10.00">AP_Arming::gps_checks</text>
</a>
</g>
</g>
<!-- Node2&#45;&gt;Node14 -->
<g id="edge13" class="edge"><title>Node2&#45;&gt;Node14</title>
<path fill="none" stroke="midnightblue" d="M244.057,-163.739C270.449,-169.976 302.396,-177.526 327.178,-183.382"/>
<polygon fill="midnightblue" stroke="midnightblue" points="244.777,-160.313 234.24,-161.42 243.167,-167.126 244.777,-160.313"/>
</g>
<!-- Node4 -->
<g id="node4" class="node"><title>Node4</title>
<g id="a_node4"><a xlink:href="classNavEKF3__core.html#a0b8f47e59f846a862b145edfaa9b7e99" target="_top" xlink:title="NavEKF3_core::setup_core">
<polygon fill="white" stroke="black" points="483,-140.41 483,-159.41 620,-159.41 620,-140.41 483,-140.41"/>
<text text-anchor="middle" x="551.5" y="-147.41" font-family="Helvetica,sans-Serif" font-size="10.00">NavEKF3_core::setup_core</text>
</a>
</g>
</g>
<!-- Node3&#45;&gt;Node4 -->
<g id="edge3" class="edge"><title>Node3&#45;&gt;Node4</title>
<path fill="none" stroke="midnightblue" d="M439.695,-151.135C453.868,-150.978 468.743,-150.814 482.828,-150.658"/>
<polygon fill="midnightblue" stroke="midnightblue" points="439.48,-147.637 429.519,-151.247 439.557,-154.636 439.48,-147.637"/>
</g>
<!-- Node5 -->
<g id="node5" class="node"><title>Node5</title>
<g id="a_node5"><a xlink:href="classNavEKF3.html#a07f064fa513fbb6e7188141904f3b5b5" target="_top" xlink:title="NavEKF3::InitialiseFilter">
<polygon fill="white" stroke="black" points="656,-140.41 656,-159.41 779,-159.41 779,-140.41 656,-140.41"/>
<text text-anchor="middle" x="717.5" y="-147.41" font-family="Helvetica,sans-Serif" font-size="10.00">NavEKF3::InitialiseFilter</text>
</a>
</g>
</g>
<!-- Node4&#45;&gt;Node5 -->
<g id="edge4" class="edge"><title>Node4&#45;&gt;Node5</title>
<path fill="none" stroke="midnightblue" d="M630.203,-149.91C638.808,-149.91 647.477,-149.91 655.829,-149.91"/>
<polygon fill="midnightblue" stroke="midnightblue" points="630.152,-146.411 620.152,-149.91 630.152,-153.411 630.152,-146.411"/>
</g>
<!-- Node6 -->
<g id="node6" class="node"><title>Node6</title>
<g id="a_node6"><a xlink:href="classAP__AHRS__NavEKF.html#a324160404f12959e955554f5aed26459" target="_top" xlink:title="AP_AHRS_NavEKF::update_EKF3">
<polygon fill="white" stroke="black" points="815,-93.4104 815,-112.41 987,-112.41 987,-93.4104 815,-93.4104"/>
<text text-anchor="middle" x="901" y="-100.41" font-family="Helvetica,sans-Serif" font-size="10.00">AP_AHRS_NavEKF::update_EKF3</text>
</a>
</g>
</g>
<!-- Node5&#45;&gt;Node6 -->
<g id="edge5" class="edge"><title>Node5&#45;&gt;Node6</title>
<path fill="none" stroke="midnightblue" d="M765.63,-137.698C781.334,-133.63 798.92,-129.074 815,-124.91 830.789,-120.822 848.229,-116.308 863.181,-112.438"/>
<polygon fill="midnightblue" stroke="midnightblue" points="764.42,-134.396 755.617,-140.292 766.176,-141.172 764.42,-134.396"/>
</g>
<!-- Node9 -->
<g id="node9" class="node"><title>Node9</title>
<g id="a_node9"><a xlink:href="classAP__AHRS__NavEKF.html#a532ff0df024a4537e5a108c42ba405a7" target="_top" xlink:title="AP_AHRS_NavEKF::reset">
<polygon fill="white" stroke="black" points="834,-222.41 834,-241.41 968,-241.41 968,-222.41 834,-222.41"/>
<text text-anchor="middle" x="901" y="-229.41" font-family="Helvetica,sans-Serif" font-size="10.00">AP_AHRS_NavEKF::reset</text>
</a>
</g>
</g>
<!-- Node5&#45;&gt;Node9 -->
<g id="edge8" class="edge"><title>Node5&#45;&gt;Node9</title>
<path fill="none" stroke="midnightblue" d="M758.356,-163.563C765.51,-166.788 772.69,-170.573 779,-174.91 798.173,-188.088 794.766,-201.428 815,-212.91 821.839,-216.791 829.406,-219.879 837.124,-222.337"/>
<polygon fill="midnightblue" stroke="midnightblue" points="759.276,-160.154 748.701,-159.516 756.57,-166.61 759.276,-160.154"/>
</g>
<!-- Node10 -->
<g id="node10" class="node"><title>Node10</title>
<g id="a_node10"><a xlink:href="classAP__AHRS__NavEKF.html#a9bd3c7f1793a48cd0d736b19fbfaf19a" target="_top" xlink:title="AP_AHRS_NavEKF::reset\l_attitude">
<polygon fill="white" stroke="black" points="834,-172.91 834,-202.91 968,-202.91 968,-172.91 834,-172.91"/>
<text text-anchor="start" x="842" y="-190.91" font-family="Helvetica,sans-Serif" font-size="10.00">AP_AHRS_NavEKF::reset</text>
<text text-anchor="middle" x="901" y="-179.91" font-family="Helvetica,sans-Serif" font-size="10.00">_attitude</text>
</a>
</g>
</g>
<!-- Node5&#45;&gt;Node10 -->
<g id="edge9" class="edge"><title>Node5&#45;&gt;Node10</title>
<path fill="none" stroke="midnightblue" d="M774.226,-161.578C793.108,-165.531 814.38,-169.985 833.985,-174.089"/>
<polygon fill="midnightblue" stroke="midnightblue" points="774.805,-158.123 764.3,-159.499 773.371,-164.974 774.805,-158.123"/>
</g>
<!-- Node11 -->
<g id="node11" class="node"><title>Node11</title>
<g id="a_node11"><a xlink:href="classNavEKF3.html#a3e1f50ad977a17222fcd7a6851b0f2ec" target="_top" xlink:title="NavEKF3::activeCores">
<polygon fill="white" stroke="black" points="842,-134.41 842,-153.41 960,-153.41 960,-134.41 842,-134.41"/>
<text text-anchor="middle" x="901" y="-141.41" font-family="Helvetica,sans-Serif" font-size="10.00">NavEKF3::activeCores</text>
</a>
</g>
</g>
<!-- Node5&#45;&gt;Node11 -->
<g id="edge10" class="edge"><title>Node5&#45;&gt;Node11</title>
<path fill="none" stroke="midnightblue" d="M789.291,-147.57C806.685,-146.995 825.108,-146.386 841.829,-145.833"/>
<polygon fill="midnightblue" stroke="midnightblue" points="789.068,-144.076 779.189,-147.904 789.299,-151.072 789.068,-144.076"/>
</g>
<!-- Node7 -->
<g id="node7" class="node"><title>Node7</title>
<g id="a_node7"><a xlink:href="classAP__AHRS__NavEKF.html#ac8111979c5dc37a55b2c50818534ea52" target="_top" xlink:title="AP_AHRS_NavEKF::update">
<polygon fill="white" stroke="black" points="1023,-92.4104 1023,-111.41 1165,-111.41 1165,-92.4104 1023,-92.4104"/>
<text text-anchor="middle" x="1094" y="-99.4104" font-family="Helvetica,sans-Serif" font-size="10.00">AP_AHRS_NavEKF::update</text>
</a>
</g>
</g>
<!-- Node6&#45;&gt;Node7 -->
<g id="edge6" class="edge"><title>Node6&#45;&gt;Node7</title>
<path fill="none" stroke="midnightblue" d="M997.273,-102.412C1005.9,-102.366 1014.53,-102.321 1022.87,-102.278"/>
<polygon fill="midnightblue" stroke="midnightblue" points="997.147,-98.9121 987.166,-102.465 997.184,-105.912 997.147,-98.9121"/>
</g>
<!-- Node8 -->
<g id="node8" class="node"><title>Node8</title>
<g id="a_node8"><a xlink:href="AHRS__Test_8cpp.html#a0b33edabd7f1c4e4a0bf32c67269be2f" target="_top" xlink:title="loop">
<polygon fill="white" stroke="black" points="1239.5,-92.4104 1239.5,-111.41 1274.5,-111.41 1274.5,-92.4104 1239.5,-92.4104"/>
<text text-anchor="middle" x="1257" y="-99.4104" font-family="Helvetica,sans-Serif" font-size="10.00">loop</text>
</a>
</g>
</g>
<!-- Node7&#45;&gt;Node8 -->
<g id="edge7" class="edge"><title>Node7&#45;&gt;Node8</title>
<path fill="none" stroke="midnightblue" d="M1175.17,-101.91C1199.48,-101.91 1223.83,-101.91 1239.35,-101.91"/>
<polygon fill="midnightblue" stroke="midnightblue" points="1175.15,-98.4105 1165.15,-101.91 1175.15,-105.411 1175.15,-98.4105"/>
</g>
<!-- Node12 -->
<g id="node12" class="node"><title>Node12</title>
<g id="a_node12"><a xlink:href="classDataFlash__Class.html#a46e58faaa53c44516433f6bb7bde4163" target="_top" xlink:title="DataFlash_Class::Log\l_Write_POS">
<polygon fill="white" stroke="black" points="1037,-130.91 1037,-160.91 1151,-160.91 1151,-130.91 1037,-130.91"/>
<text text-anchor="start" x="1045" y="-148.91" font-family="Helvetica,sans-Serif" font-size="10.00">DataFlash_Class::Log</text>
<text text-anchor="middle" x="1094" y="-137.91" font-family="Helvetica,sans-Serif" font-size="10.00">_Write_POS</text>
</a>
</g>
</g>
<!-- Node11&#45;&gt;Node12 -->
<g id="edge11" class="edge"><title>Node11&#45;&gt;Node12</title>
<path fill="none" stroke="midnightblue" d="M970.274,-144.625C992.091,-144.854 1015.98,-145.104 1036.83,-145.322"/>
<polygon fill="midnightblue" stroke="midnightblue" points="970.12,-141.124 960.084,-144.519 970.047,-148.123 970.12,-141.124"/>
</g>
<!-- Node13 -->
<g id="node13" class="node"><title>Node13</title>
<g id="a_node13"><a xlink:href="classDataFlash__Class.html#a7868f0e3dcef65ea5b5fcae618f4c5d4" target="_top" xlink:title="DataFlash_Class::get\l_structures">
<polygon fill="white" stroke="black" points="1201,-130.91 1201,-160.91 1313,-160.91 1313,-130.91 1201,-130.91"/>
<text text-anchor="start" x="1209" y="-148.91" font-family="Helvetica,sans-Serif" font-size="10.00">DataFlash_Class::get</text>
<text text-anchor="middle" x="1257" y="-137.91" font-family="Helvetica,sans-Serif" font-size="10.00">_structures</text>
</a>
</g>
</g>
<!-- Node12&#45;&gt;Node13 -->
<g id="edge12" class="edge"><title>Node12&#45;&gt;Node13</title>
<path fill="none" stroke="midnightblue" d="M1161.63,-145.91C1174.66,-145.91 1188.2,-145.91 1200.81,-145.91"/>
<polygon fill="midnightblue" stroke="midnightblue" points="1161.31,-142.411 1151.31,-145.91 1161.31,-149.411 1161.31,-142.411"/>
</g>
<!-- Node15 -->
<g id="node15" class="node"><title>Node15</title>
<g id="a_node15"><a xlink:href="classAP__Arming.html#a73c03baf7f22b7124a2ac9e9286a850a" target="_top" xlink:title="AP_Arming::pre_arm\l_checks">
<polygon fill="white" stroke="black" points="498,-178.91 498,-208.91 605,-208.91 605,-178.91 498,-178.91"/>
<text text-anchor="start" x="506" y="-196.91" font-family="Helvetica,sans-Serif" font-size="10.00">AP_Arming::pre_arm</text>
<text text-anchor="middle" x="551.5" y="-185.91" font-family="Helvetica,sans-Serif" font-size="10.00">_checks</text>
</a>
</g>
</g>
<!-- Node14&#45;&gt;Node15 -->
<g id="edge14" class="edge"><title>Node14&#45;&gt;Node15</title>
<path fill="none" stroke="midnightblue" d="M441.114,-193.306C460.06,-193.411 480.162,-193.522 497.895,-193.62"/>
<polygon fill="midnightblue" stroke="midnightblue" points="441.05,-189.806 431.031,-193.25 441.011,-196.806 441.05,-189.806"/>
</g>
<!-- Node16 -->
<g id="node16" class="node"><title>Node16</title>
<g id="a_node16"><a xlink:href="classAP__Arming.html#a47b859d9929a736df2f08a1cad03efcb" target="_top" xlink:title="AP_Arming::arm">
<polygon fill="white" stroke="black" points="673,-184.41 673,-203.41 762,-203.41 762,-184.41 673,-184.41"/>
<text text-anchor="middle" x="717.5" y="-191.41" font-family="Helvetica,sans-Serif" font-size="10.00">AP_Arming::arm</text>
</a>
</g>
</g>
<!-- Node15&#45;&gt;Node16 -->
<g id="edge15" class="edge"><title>Node15&#45;&gt;Node16</title>
<path fill="none" stroke="midnightblue" d="M615.459,-193.91C634.627,-193.91 655.264,-193.91 672.859,-193.91"/>
<polygon fill="midnightblue" stroke="midnightblue" points="615.293,-190.411 605.293,-193.91 615.293,-197.411 615.293,-190.411"/>
</g>
<!-- Node18 -->
<g id="node18" class="node"><title>Node18</title>
<g id="a_node18"><a xlink:href="classAP__GPS.html#afe04427a47ab5e630cb979815abd911e" target="_top" xlink:title="AP_GPS::update">
<polygon fill="white" stroke="black" points="855,-48.4104 855,-67.4104 947,-67.4104 947,-48.4104 855,-48.4104"/>
<text text-anchor="middle" x="901" y="-55.4104" font-family="Helvetica,sans-Serif" font-size="10.00">AP_GPS::update</text>
</a>
</g>
</g>
<!-- Node17&#45;&gt;Node18 -->
<g id="edge17" class="edge"><title>Node17&#45;&gt;Node18</title>
<path fill="none" stroke="midnightblue" d="M787.383,-57.9104C809.936,-57.9104 834.406,-57.9104 854.756,-57.9104"/>
<polygon fill="midnightblue" stroke="midnightblue" points="787.177,-54.4105 777.177,-57.9104 787.177,-61.4105 787.177,-54.4105"/>
</g>
<!-- Node19 -->
<g id="node19" class="node"><title>Node19</title>
<g id="a_node19"><a xlink:href="GPS__AUTO__test_8cpp.html#afe461d27b9c48d5921c00d521181f12f" target="_top" xlink:title="loop">
<polygon fill="white" stroke="black" points="1076.5,-48.4104 1076.5,-67.4104 1111.5,-67.4104 1111.5,-48.4104 1076.5,-48.4104"/>
<text text-anchor="middle" x="1094" y="-55.4104" font-family="Helvetica,sans-Serif" font-size="10.00">loop</text>
</a>
</g>
</g>
<!-- Node18&#45;&gt;Node19 -->
<g id="edge18" class="edge"><title>Node18&#45;&gt;Node19</title>
<path fill="none" stroke="midnightblue" d="M957.286,-57.9104C997.798,-57.9104 1050.12,-57.9104 1076.39,-57.9104"/>
<polygon fill="midnightblue" stroke="midnightblue" points="957.264,-54.4105 947.264,-57.9104 957.264,-61.4105 957.264,-54.4105"/>
</g>
<!-- Node21 -->
<g id="node21" class="node"><title>Node21</title>
<g id="a_node21"><a xlink:href="classAP__GPS.html#a5f202e859c35938c6160ad91834af86f" target="_top" xlink:title="AP_GPS::get_lag">
<polygon fill="white" stroke="black" points="321.5,-48.4104 321.5,-67.4104 415.5,-67.4104 415.5,-48.4104 321.5,-48.4104"/>
<text text-anchor="middle" x="368.5" y="-55.4104" font-family="Helvetica,sans-Serif" font-size="10.00">AP_GPS::get_lag</text>
</a>
</g>
</g>
<!-- Node20&#45;&gt;Node21 -->
<g id="edge20" class="edge"><title>Node20&#45;&gt;Node21</title>
<path fill="none" stroke="midnightblue" d="M257.239,-89.0505C283.166,-81.7281 312.124,-73.5498 333.855,-67.4124"/>
<polygon fill="midnightblue" stroke="midnightblue" points="256.144,-85.7228 247.471,-91.809 258.046,-92.4593 256.144,-85.7228"/>
</g>
<!-- Node23 -->
<g id="node23" class="node"><title>Node23</title>
<g id="a_node23"><a xlink:href="classGCS__MAVLINK.html#aa6f7ccdb5ed30bcce6499dcbf9e6d4ad" target="_top" xlink:title="GCS_MAVLINK::send_gps_raw">
<polygon fill="white" stroke="black" points="290,-104.41 290,-123.41 447,-123.41 447,-104.41 290,-104.41"/>
<text text-anchor="middle" x="368.5" y="-111.41" font-family="Helvetica,sans-Serif" font-size="10.00">GCS_MAVLINK::send_gps_raw</text>
</a>
</g>
</g>
<!-- Node20&#45;&gt;Node23 -->
<g id="edge25" class="edge"><title>Node20&#45;&gt;Node23</title>
<path fill="none" stroke="midnightblue" d="M264.362,-109.749C272.803,-110.09 281.458,-110.439 289.993,-110.783"/>
<polygon fill="midnightblue" stroke="midnightblue" points="264.328,-106.245 254.195,-109.339 264.046,-113.239 264.328,-106.245"/>
</g>
<!-- Node21&#45;&gt;Node17 -->
<g id="edge21" class="edge"><title>Node21&#45;&gt;Node17</title>
<path fill="none" stroke="midnightblue" d="M414.987,-69.7934C435.594,-74.5892 460.363,-79.5433 483,-81.9104 543.559,-88.2431 559.563,-89.3132 620,-81.9104 635.079,-80.0634 651.195,-76.6503 665.852,-72.966"/>
<polygon fill="midnightblue" stroke="midnightblue" points="415.772,-66.3826 405.233,-67.4639 414.146,-73.1911 415.772,-66.3826"/>
</g>
<!-- Node21&#45;&gt;Node21 -->
<g id="edge22" class="edge"><title>Node21&#45;&gt;Node21</title>
<path fill="none" stroke="midnightblue" d="M335.94,-76.185C336.868,-81.6514 347.722,-85.9104 368.5,-85.9104 399.426,-85.9104 408.365,-76.4757 395.318,-67.6675"/>
<polygon fill="midnightblue" stroke="midnightblue" points="338.994,-77.9159 341.682,-67.6675 333.19,-74.0032 338.994,-77.9159"/>
</g>
<!-- Node22 -->
<g id="node22" class="node"><title>Node22</title>
<g id="a_node22"><a xlink:href="classAP__GPS.html#aa36d8ba4be4745704b5b8e3845903549" target="_top" xlink:title="AP_GPS::have_vertical\l_velocity">
<polygon fill="white" stroke="black" points="491.5,-42.9104 491.5,-72.9104 611.5,-72.9104 611.5,-42.9104 491.5,-42.9104"/>
<text text-anchor="start" x="499.5" y="-60.9104" font-family="Helvetica,sans-Serif" font-size="10.00">AP_GPS::have_vertical</text>
<text text-anchor="middle" x="551.5" y="-49.9104" font-family="Helvetica,sans-Serif" font-size="10.00">_velocity</text>
</a>
</g>
</g>
<!-- Node21&#45;&gt;Node22 -->
<g id="edge23" class="edge"><title>Node21&#45;&gt;Node22</title>
<path fill="none" stroke="midnightblue" d="M425.927,-57.9104C446.745,-57.9104 470.38,-57.9104 491.426,-57.9104"/>
<polygon fill="midnightblue" stroke="midnightblue" points="425.642,-54.4105 415.642,-57.9104 425.642,-61.4105 425.642,-54.4105"/>
</g>
<!-- Node22&#45;&gt;Node17 -->
<g id="edge24" class="edge"><title>Node22&#45;&gt;Node17</title>
<path fill="none" stroke="midnightblue" d="M621.718,-57.9104C633.77,-57.9104 646.198,-57.9104 657.929,-57.9104"/>
<polygon fill="midnightblue" stroke="midnightblue" points="621.708,-54.4105 611.708,-57.9104 621.708,-61.4105 621.708,-54.4105"/>
</g>
<!-- Node24&#45;&gt;Node21 -->
<g id="edge27" class="edge"><title>Node24&#45;&gt;Node21</title>
<path fill="none" stroke="midnightblue" d="M264.412,-57.9104C283.604,-57.9104 303.903,-57.9104 321.366,-57.9104"/>
<polygon fill="midnightblue" stroke="midnightblue" points="264.195,-54.4105 254.195,-57.9104 264.195,-61.4105 264.195,-54.4105"/>
</g>
<!-- Node24&#45;&gt;Node23 -->
<g id="edge28" class="edge"><title>Node24&#45;&gt;Node23</title>
<path fill="none" stroke="midnightblue" d="M241.163,-76.7312C260.385,-84.2663 280.334,-91.8764 290,-94.9104 300.971,-98.3539 312.974,-101.562 324.187,-104.325"/>
<polygon fill="midnightblue" stroke="midnightblue" points="242.421,-73.465 231.834,-73.0586 239.857,-79.9784 242.421,-73.465"/>
</g>
</g>
</svg>
