<?xml version="1.0" encoding="UTF-8" standalone="no"?>
<!DOCTYPE svg PUBLIC "-//W3C//DTD SVG 1.1//EN"
 "http://www.w3.org/Graphics/SVG/1.1/DTD/svg11.dtd">
<!-- Generated by graphviz version 2.38.0 (20140413.2041)
 -->
<!-- Title: Linux::CameraSensor_Mt9v117::_write_reg32 Pages: 1 -->
<svg width="679pt" height="180pt"
 viewBox="0.00 0.00 679.00 180.00" xmlns="http://www.w3.org/2000/svg" xmlns:xlink="http://www.w3.org/1999/xlink">
<g id="graph0" class="graph" transform="scale(1 1) rotate(0) translate(4 176)">
<title>Linux::CameraSensor_Mt9v117::_write_reg32</title>
<polygon fill="white" stroke="none" points="-4,4 -4,-176 675,-176 675,4 -4,4"/>
<!-- Node1 -->
<g id="node1" class="node"><title>Node1</title>
<polygon fill="#bfbfbf" stroke="black" points="0,-95 0,-125 121,-125 121,-95 0,-95"/>
<text text-anchor="start" x="8" y="-113" font-family="Helvetica,sans-Serif" font-size="10.00">Linux::CameraSensor</text>
<text text-anchor="middle" x="60.5" y="-102" font-family="Helvetica,sans-Serif" font-size="10.00">_Mt9v117::_write_reg32</text>
</g>
<!-- Node2 -->
<g id="node2" class="node"><title>Node2</title>
<g id="a_node2"><a xlink:href="classAP__HAL_1_1I2CDevice.html#a2e581ddc9b02eb73ad2fdf488fe8dc86" target="_top" xlink:title="AP_HAL::I2CDevice::\ltransfer">
<polygon fill="white" stroke="black" points="158,-120 158,-150 271,-150 271,-120 158,-120"/>
<text text-anchor="start" x="166" y="-138" font-family="Helvetica,sans-Serif" font-size="10.00">AP_HAL::I2CDevice::</text>
<text text-anchor="middle" x="214.5" y="-127" font-family="Helvetica,sans-Serif" font-size="10.00">transfer</text>
</a>
</g>
</g>
<!-- Node1&#45;&gt;Node2 -->
<g id="edge1" class="edge"><title>Node1&#45;&gt;Node2</title>
<path fill="none" stroke="midnightblue" d="M121.138,-119.809C129.746,-121.225 138.649,-122.689 147.374,-124.124"/>
<polygon fill="midnightblue" stroke="midnightblue" points="147.072,-127.621 157.508,-125.791 148.209,-120.714 147.072,-127.621"/>
</g>
<!-- Node3 -->
<g id="node3" class="node"><title>Node3</title>
<g id="a_node3"><a xlink:href="classAP__HAL_1_1UARTDriver.html#a6ceedc792594e59fc7d80b39a435f027" target="_top" xlink:title="AP_HAL::UARTDriver\l::printf">
<polygon fill="white" stroke="black" points="157,-71 157,-101 272,-101 272,-71 157,-71"/>
<text text-anchor="start" x="165" y="-89" font-family="Helvetica,sans-Serif" font-size="10.00">AP_HAL::UARTDriver</text>
<text text-anchor="middle" x="214.5" y="-78" font-family="Helvetica,sans-Serif" font-size="10.00">::printf</text>
</a>
</g>
</g>
<!-- Node1&#45;&gt;Node3 -->
<g id="edge2" class="edge"><title>Node1&#45;&gt;Node3</title>
<path fill="none" stroke="midnightblue" d="M121.138,-100.583C129.416,-99.2764 137.966,-97.9264 146.37,-96.5995"/>
<polygon fill="midnightblue" stroke="midnightblue" points="147.187,-100.014 156.519,-94.997 146.096,-93.0995 147.187,-100.014"/>
</g>
<!-- Node4 -->
<g id="node4" class="node"><title>Node4</title>
<g id="a_node4"><a xlink:href="classAP__HAL_1_1UARTDriver.html#aa8abfb6d6641299472c29ac1edde559f" target="_top" xlink:title="AP_HAL::UARTDriver\l::vprintf">
<polygon fill="white" stroke="black" points="308,-71 308,-101 423,-101 423,-71 308,-71"/>
<text text-anchor="start" x="316" y="-89" font-family="Helvetica,sans-Serif" font-size="10.00">AP_HAL::UARTDriver</text>
<text text-anchor="middle" x="365.5" y="-78" font-family="Helvetica,sans-Serif" font-size="10.00">::vprintf</text>
</a>
</g>
</g>
<!-- Node3&#45;&gt;Node4 -->
<g id="edge3" class="edge"><title>Node3&#45;&gt;Node4</title>
<path fill="none" stroke="midnightblue" d="M272.256,-86C280.558,-86 289.173,-86 297.654,-86"/>
<polygon fill="midnightblue" stroke="midnightblue" points="297.902,-89.5001 307.902,-86 297.902,-82.5001 297.902,-89.5001"/>
</g>
<!-- Node5 -->
<g id="node5" class="node"><title>Node5</title>
<g id="a_node5"><a xlink:href="print__vprintf_8cpp.html#a1534eaeab54696df96975b56d9f49212" target="_top" xlink:title="print_vprintf">
<polygon fill="white" stroke="black" points="459,-76.5 459,-95.5 527,-95.5 527,-76.5 459,-76.5"/>
<text text-anchor="middle" x="493" y="-83.5" font-family="Helvetica,sans-Serif" font-size="10.00">print_vprintf</text>
</a>
</g>
</g>
<!-- Node4&#45;&gt;Node5 -->
<g id="edge4" class="edge"><title>Node4&#45;&gt;Node5</title>
<path fill="none" stroke="midnightblue" d="M423.009,-86C431.609,-86 440.367,-86 448.628,-86"/>
<polygon fill="midnightblue" stroke="midnightblue" points="448.777,-89.5001 458.777,-86 448.777,-82.5001 448.777,-89.5001"/>
</g>
<!-- Node6 -->
<g id="node6" class="node"><title>Node6</title>
<g id="a_node6"><a xlink:href="classAP__HAL_1_1Print.html#acc65391952a43334f8f5c9bef341f501" target="_top" xlink:title="AP_HAL::Print::write">
<polygon fill="white" stroke="black" points="563,-152.5 563,-171.5 671,-171.5 671,-152.5 563,-152.5"/>
<text text-anchor="middle" x="617" y="-159.5" font-family="Helvetica,sans-Serif" font-size="10.00">AP_HAL::Print::write</text>
</a>
</g>
</g>
<!-- Node5&#45;&gt;Node6 -->
<g id="edge5" class="edge"><title>Node5&#45;&gt;Node6</title>
<path fill="none" stroke="midnightblue" d="M503.47,-95.6825C516.07,-108.102 539.502,-129.629 563,-143 566.632,-145.067 570.529,-146.973 574.501,-148.715"/>
<polygon fill="midnightblue" stroke="midnightblue" points="573.233,-151.977 583.816,-152.479 575.856,-145.487 573.233,-151.977"/>
</g>
<!-- Node7 -->
<g id="node7" class="node"><title>Node7</title>
<g id="a_node7"><a xlink:href="ftoa__engine_8cpp.html#a1c28234da8f20b43c85890d4bb452947" target="_top" xlink:title="ftoa_engine">
<polygon fill="white" stroke="black" points="583.5,-114.5 583.5,-133.5 650.5,-133.5 650.5,-114.5 583.5,-114.5"/>
<text text-anchor="middle" x="617" y="-121.5" font-family="Helvetica,sans-Serif" font-size="10.00">ftoa_engine</text>
</a>
</g>
</g>
<!-- Node5&#45;&gt;Node7 -->
<g id="edge6" class="edge"><title>Node5&#45;&gt;Node7</title>
<path fill="none" stroke="midnightblue" d="M524.786,-95.589C540.101,-100.359 558.817,-106.189 575.3,-111.323"/>
<polygon fill="midnightblue" stroke="midnightblue" points="574.636,-114.782 585.224,-114.414 576.717,-108.099 574.636,-114.782"/>
</g>
<!-- Node8 -->
<g id="node8" class="node"><title>Node8</title>
<g id="a_node8"><a xlink:href="replace_8cpp.html#a880bcc7b85a09e6254691bebd5344b51" target="_top" xlink:title="strnlen">
<polygon fill="white" stroke="black" points="594,-76.5 594,-95.5 640,-95.5 640,-76.5 594,-76.5"/>
<text text-anchor="middle" x="617" y="-83.5" font-family="Helvetica,sans-Serif" font-size="10.00">strnlen</text>
</a>
</g>
</g>
<!-- Node5&#45;&gt;Node8 -->
<g id="edge7" class="edge"><title>Node5&#45;&gt;Node8</title>
<path fill="none" stroke="midnightblue" d="M527.015,-86C544.547,-86 566.016,-86 583.474,-86"/>
<polygon fill="midnightblue" stroke="midnightblue" points="583.754,-89.5001 593.754,-86 583.754,-82.5001 583.754,-89.5001"/>
</g>
<!-- Node9 -->
<g id="node9" class="node"><title>Node9</title>
<g id="a_node9"><a xlink:href="utoa__invert_8cpp.html#a34926f552460b47c414ec4d83b32815c" target="_top" xlink:title="ulltoa_invert">
<polygon fill="white" stroke="black" points="582.5,-38.5 582.5,-57.5 651.5,-57.5 651.5,-38.5 582.5,-38.5"/>
<text text-anchor="middle" x="617" y="-45.5" font-family="Helvetica,sans-Serif" font-size="10.00">ulltoa_invert</text>
</a>
</g>
</g>
<!-- Node5&#45;&gt;Node9 -->
<g id="edge8" class="edge"><title>Node5&#45;&gt;Node9</title>
<path fill="none" stroke="midnightblue" d="M524.786,-76.411C540.101,-71.6406 558.817,-65.8112 575.3,-60.6771"/>
<polygon fill="midnightblue" stroke="midnightblue" points="576.717,-63.9015 585.224,-57.5859 574.636,-57.2182 576.717,-63.9015"/>
</g>
<!-- Node10 -->
<g id="node10" class="node"><title>Node10</title>
<g id="a_node10"><a xlink:href="utoa__invert_8cpp.html#a5d99bba8e697c1e11da489d88fca8559" target="_top" xlink:title="ultoa_invert">
<polygon fill="white" stroke="black" points="583.5,-0.5 583.5,-19.5 650.5,-19.5 650.5,-0.5 583.5,-0.5"/>
<text text-anchor="middle" x="617" y="-7.5" font-family="Helvetica,sans-Serif" font-size="10.00">ultoa_invert</text>
</a>
</g>
</g>
<!-- Node5&#45;&gt;Node10 -->
<g id="edge9" class="edge"><title>Node5&#45;&gt;Node10</title>
<path fill="none" stroke="midnightblue" d="M503.47,-76.3175C516.07,-63.8984 539.502,-42.371 563,-29 566.632,-26.9334 570.529,-25.0271 574.501,-23.2853"/>
<polygon fill="midnightblue" stroke="midnightblue" points="575.856,-26.5129 583.816,-19.5214 573.233,-20.0226 575.856,-26.5129"/>
</g>
</g>
</svg>
