<?xml version="1.0" encoding="UTF-8" standalone="no"?>
<!DOCTYPE svg PUBLIC "-//W3C//DTD SVG 1.1//EN"
 "http://www.w3.org/Graphics/SVG/1.1/DTD/svg11.dtd">
<!-- Generated by graphviz version 2.38.0 (20140413.2041)
 -->
<!-- Title: AP_Camera::feedback_pin_timer Pages: 1 -->
<svg width="306pt" height="154pt"
 viewBox="0.00 0.00 306.00 153.50" xmlns="http://www.w3.org/2000/svg" xmlns:xlink="http://www.w3.org/1999/xlink">
<g id="graph0" class="graph" transform="scale(1 1) rotate(0) translate(4 149.5)">
<title>AP_Camera::feedback_pin_timer</title>
<polygon fill="white" stroke="none" points="-4,4 -4,-149.5 302,-149.5 302,4 -4,4"/>
<!-- Node1 -->
<g id="node1" class="node"><title>Node1</title>
<polygon fill="#bfbfbf" stroke="black" points="0,-52 0,-82 116,-82 116,-52 0,-52"/>
<text text-anchor="start" x="8" y="-70" font-family="Helvetica,sans-Serif" font-size="10.00">AP_Camera::feedback</text>
<text text-anchor="middle" x="58" y="-59" font-family="Helvetica,sans-Serif" font-size="10.00">_pin_timer</text>
</g>
<!-- Node2 -->
<g id="node2" class="node"><title>Node2</title>
<g id="a_node2"><a xlink:href="classAP__HAL_1_1GPIO.html#a9671bdb28184ecdf95959ff3d6b5b4bb" target="_top" xlink:title="AP_HAL::GPIO::analogPinTo\lDigitalPin">
<polygon fill="white" stroke="black" points="152,-115 152,-145 298,-145 298,-115 152,-115"/>
<text text-anchor="start" x="160" y="-133" font-family="Helvetica,sans-Serif" font-size="10.00">AP_HAL::GPIO::analogPinTo</text>
<text text-anchor="middle" x="225" y="-122" font-family="Helvetica,sans-Serif" font-size="10.00">DigitalPin</text>
</a>
</g>
</g>
<!-- Node1&#45;&gt;Node2 -->
<g id="edge1" class="edge"><title>Node1&#45;&gt;Node2</title>
<path fill="none" stroke="midnightblue" d="M94.5944,-82.0674C111.843,-89.2343 132.909,-97.7912 152,-105 157.768,-107.178 163.821,-109.391 169.865,-111.555"/>
<polygon fill="midnightblue" stroke="midnightblue" points="168.718,-114.861 179.312,-114.902 171.055,-108.263 168.718,-114.861"/>
</g>
<!-- Node3 -->
<g id="node3" class="node"><title>Node3</title>
<g id="a_node3"><a xlink:href="classAP__HAL_1_1GPIO.html#a3dfc60214bd1aa4936d51ca72c045b95" target="_top" xlink:title="AP_HAL::GPIO::pinMode">
<polygon fill="white" stroke="black" points="161,-76.5 161,-95.5 289,-95.5 289,-76.5 161,-76.5"/>
<text text-anchor="middle" x="225" y="-83.5" font-family="Helvetica,sans-Serif" font-size="10.00">AP_HAL::GPIO::pinMode</text>
</a>
</g>
</g>
<!-- Node1&#45;&gt;Node3 -->
<g id="edge2" class="edge"><title>Node1&#45;&gt;Node3</title>
<path fill="none" stroke="midnightblue" d="M116.246,-73.592C127.404,-74.8769 139.245,-76.2403 150.836,-77.5751"/>
<polygon fill="midnightblue" stroke="midnightblue" points="150.601,-81.071 160.935,-78.738 151.402,-74.117 150.601,-81.071"/>
</g>
<!-- Node4 -->
<g id="node4" class="node"><title>Node4</title>
<g id="a_node4"><a xlink:href="classAP__HAL_1_1GPIO.html#a2b0664bdab1876e3b0bbcd9064eec88e" target="_top" xlink:title="AP_HAL::GPIO::write">
<polygon fill="white" stroke="black" points="168.5,-38.5 168.5,-57.5 281.5,-57.5 281.5,-38.5 168.5,-38.5"/>
<text text-anchor="middle" x="225" y="-45.5" font-family="Helvetica,sans-Serif" font-size="10.00">AP_HAL::GPIO::write</text>
</a>
</g>
</g>
<!-- Node1&#45;&gt;Node4 -->
<g id="edge3" class="edge"><title>Node1&#45;&gt;Node4</title>
<path fill="none" stroke="midnightblue" d="M116.246,-60.408C129.803,-58.847 144.366,-57.17 158.267,-55.5693"/>
<polygon fill="midnightblue" stroke="midnightblue" points="158.713,-59.0411 168.247,-54.42 157.913,-52.087 158.713,-59.0411"/>
</g>
<!-- Node5 -->
<g id="node5" class="node"><title>Node5</title>
<g id="a_node5"><a xlink:href="classAP__HAL_1_1GPIO.html#a453e2829832c783a5337849218390efc" target="_top" xlink:title="AP_HAL::GPIO::read">
<polygon fill="white" stroke="black" points="170,-0.5 170,-19.5 280,-19.5 280,-0.5 170,-0.5"/>
<text text-anchor="middle" x="225" y="-7.5" font-family="Helvetica,sans-Serif" font-size="10.00">AP_HAL::GPIO::read</text>
</a>
</g>
</g>
<!-- Node1&#45;&gt;Node5 -->
<g id="edge4" class="edge"><title>Node1&#45;&gt;Node5</title>
<path fill="none" stroke="midnightblue" d="M93.0488,-51.8452C110.477,-44.4073 132.152,-35.6425 152,-29 159.16,-26.6036 166.801,-24.3117 174.331,-22.2014"/>
<polygon fill="midnightblue" stroke="midnightblue" points="175.385,-25.5418 184.115,-19.5382 173.547,-18.7875 175.385,-25.5418"/>
</g>
</g>
</svg>
