<?xml version="1.0" encoding="UTF-8" standalone="no"?>
<!DOCTYPE svg PUBLIC "-//W3C//DTD SVG 1.1//EN"
 "http://www.w3.org/Graphics/SVG/1.1/DTD/svg11.dtd">
<!-- Generated by graphviz version 2.38.0 (20140413.2041)
 -->
<!-- Title: AP_MotorsHeli_RSC::set_power_output_range Pages: 1 -->
<!--zoomable 171 -->
<svg id="main" version="1.1" xmlns="http://www.w3.org/2000/svg" xmlns:xlink="http://www.w3.org/1999/xlink" xml:space="preserve" onload="init(evt)">
<style type="text/css"><![CDATA[
.edge:hover path { stroke: red; }
.edge:hover polygon { stroke: red; fill: red; }
]]></style>
<script type="text/javascript"><![CDATA[
var edges = document.getElementsByTagName('g');
if (edges && edges.length) {
  for (var i=0;i<edges.length;i++) {
    if (edges[i].id.substr(0,4)=='edge') {
      edges[i].setAttribute('class','edge');
    }
  }
}
]]></script>
        <defs>
                <circle id="rim" cx="0" cy="0" r="7"/>
                <circle id="rim2" cx="0" cy="0" r="3.5"/>
                <g id="zoomPlus">
                        <use xlink:href="#rim" fill="#404040">
                                <set attributeName="fill" to="#808080" begin="zoomplus.mouseover" end="zoomplus.mouseout"/>
                        </use>
                        <path d="M-4,0h8M0,-4v8" fill="none" stroke="white" stroke-width="1.5" pointer-events="none"/>
                </g>
                <g id="zoomMin">
                        <use xlink:href="#rim" fill="#404040">
                                <set attributeName="fill" to="#808080" begin="zoomminus.mouseover" end="zoomminus.mouseout"/>
                        </use>
                        <path d="M-4,0h8" fill="none" stroke="white" stroke-width="1.5" pointer-events="none"/>
                </g>
                <g id="dirArrow">
                        <path fill="none" stroke="white" stroke-width="1.5" d="M0,-3.0v7 M-2.5,-0.5L0,-3.0L2.5,-0.5"/>
                </g>
               <g id="resetDef">
                       <use xlink:href="#rim2" fill="#404040">
                               <set attributeName="fill" to="#808080" begin="reset.mouseover" end="reset.mouseout"/>
                       </use>
               </g>
        </defs>

<script type="text/javascript">
var viewWidth = 776;
var viewHeight = 171;
var sectionId = 'dynsection-18';
</script>
<script xlink:href="svgpan.js"/>
<svg id="graph" class="graph">
<g id="viewport">
<title>AP_MotorsHeli_RSC::set_power_output_range</title>
<polygon fill="white" stroke="none" points="-4,4 -4,-167 772,-167 772,4 -4,4"/>
<!-- Node1 -->
<g id="node1" class="node"><title>Node1</title>
<polygon fill="#bfbfbf" stroke="black" points="0,-44.5 0,-74.5 123,-74.5 123,-44.5 0,-44.5"/>
<text text-anchor="start" x="8" y="-62.5" font-family="Helvetica,sans-Serif" font-size="10.00">AP_MotorsHeli_RSC::</text>
<text text-anchor="middle" x="61.5" y="-51.5" font-family="Helvetica,sans-Serif" font-size="10.00">set_power_output_range</text>
</g>
<!-- Node2 -->
<g id="node2" class="node"><title>Node2</title>
<g id="a_node2"><a xlink:href="classAP__MotorsHeli__Dual.html#a6ceac770c46717669afffc50590d93ee" target="_top" xlink:title="AP_MotorsHeli_Dual\l::calculate_armed_scalars">
<polygon fill="white" stroke="black" points="311,-88.5 311,-118.5 442,-118.5 442,-88.5 311,-88.5"/>
<text text-anchor="start" x="319" y="-106.5" font-family="Helvetica,sans-Serif" font-size="10.00">AP_MotorsHeli_Dual</text>
<text text-anchor="middle" x="376.5" y="-95.5" font-family="Helvetica,sans-Serif" font-size="10.00">::calculate_armed_scalars</text>
</a>
</g>
</g>
<!-- Node1&#45;&gt;Node2 -->
<g id="edge1" class="edge"><title>Node1&#45;&gt;Node2</title>
<path fill="none" stroke="midnightblue" d="M126.572,-76.8745C137.34,-79.3795 148.444,-81.7104 159,-83.5 209.613,-92.0808 267.552,-97.189 310.749,-100.093"/>
<polygon fill="midnightblue" stroke="midnightblue" points="127.343,-73.4603 116.803,-74.5356 125.713,-80.2679 127.343,-73.4603"/>
</g>
<!-- Node5 -->
<g id="node5" class="node"><title>Node5</title>
<g id="a_node5"><a xlink:href="classAP__MotorsHeli__Single.html#a366dcf3bdb67ab852feca02fa1cc3055" target="_top" xlink:title="AP_MotorsHeli_Single\l::calculate_armed_scalars">
<polygon fill="white" stroke="black" points="311,-0.5 311,-30.5 442,-30.5 442,-0.5 311,-0.5"/>
<text text-anchor="start" x="319" y="-18.5" font-family="Helvetica,sans-Serif" font-size="10.00">AP_MotorsHeli_Single</text>
<text text-anchor="middle" x="376.5" y="-7.5" font-family="Helvetica,sans-Serif" font-size="10.00">::calculate_armed_scalars</text>
</a>
</g>
</g>
<!-- Node1&#45;&gt;Node5 -->
<g id="edge5" class="edge"><title>Node1&#45;&gt;Node5</title>
<path fill="none" stroke="midnightblue" d="M123.995,-41.9459C135.552,-39.11 147.589,-36.4648 159,-34.5 209.57,-25.7924 267.512,-20.9744 310.72,-18.3707"/>
<polygon fill="midnightblue" stroke="midnightblue" points="122.828,-38.6308 113.99,-44.4748 124.543,-45.4174 122.828,-38.6308"/>
</g>
<!-- Node8 -->
<g id="node8" class="node"><title>Node8</title>
<g id="a_node8"><a xlink:href="classAP__MotorsHeli__RSC.html#aa5d4bbc71b96eeeff793eb3b2ccf60b9" target="_top" xlink:title="AP_MotorsHeli_RSC::\lset_runup_time">
<polygon fill="white" stroke="black" points="159,-44.5 159,-74.5 275,-74.5 275,-44.5 159,-44.5"/>
<text text-anchor="start" x="167" y="-62.5" font-family="Helvetica,sans-Serif" font-size="10.00">AP_MotorsHeli_RSC::</text>
<text text-anchor="middle" x="217" y="-51.5" font-family="Helvetica,sans-Serif" font-size="10.00">set_runup_time</text>
</a>
</g>
</g>
<!-- Node1&#45;&gt;Node8 -->
<g id="edge9" class="edge"><title>Node1&#45;&gt;Node8</title>
<path fill="none" stroke="midnightblue" d="M133.445,-59.5C141.932,-59.5 150.515,-59.5 158.774,-59.5"/>
<polygon fill="midnightblue" stroke="midnightblue" points="133.167,-56.0001 123.167,-59.5 133.167,-63.0001 133.167,-56.0001"/>
</g>
<!-- Node3 -->
<g id="node3" class="node"><title>Node3</title>
<g id="a_node3"><a xlink:href="classAP__MotorsHeli__Dual.html#a7112c1b7a86a1080a00dd3c529c17b25" target="_top" xlink:title="AP_MotorsHeli_Dual\l::calculate_scalars">
<polygon fill="white" stroke="black" points="481.5,-132.5 481.5,-162.5 589.5,-162.5 589.5,-132.5 481.5,-132.5"/>
<text text-anchor="start" x="489.5" y="-150.5" font-family="Helvetica,sans-Serif" font-size="10.00">AP_MotorsHeli_Dual</text>
<text text-anchor="middle" x="535.5" y="-139.5" font-family="Helvetica,sans-Serif" font-size="10.00">::calculate_scalars</text>
</a>
</g>
</g>
<!-- Node2&#45;&gt;Node3 -->
<g id="edge2" class="edge"><title>Node2&#45;&gt;Node3</title>
<path fill="none" stroke="midnightblue" d="M440.774,-121.233C454.257,-125.011 468.362,-128.965 481.416,-132.623"/>
<polygon fill="midnightblue" stroke="midnightblue" points="441.665,-117.848 431.091,-118.519 439.776,-124.588 441.665,-117.848"/>
</g>
<!-- Node4 -->
<g id="node4" class="node"><title>Node4</title>
<g id="a_node4"><a xlink:href="classAP__MotorsHeli__Dual.html#a91ef6ba88a438531ee10f7a0df2d4da0" target="_top" xlink:title="AP_MotorsHeli_Dual\l::rotor_speed_above\l_critical">
<polygon fill="white" stroke="black" points="644.5,-96 644.5,-137 752.5,-137 752.5,-96 644.5,-96"/>
<text text-anchor="start" x="652.5" y="-125" font-family="Helvetica,sans-Serif" font-size="10.00">AP_MotorsHeli_Dual</text>
<text text-anchor="start" x="652.5" y="-114" font-family="Helvetica,sans-Serif" font-size="10.00">::rotor_speed_above</text>
<text text-anchor="middle" x="698.5" y="-103" font-family="Helvetica,sans-Serif" font-size="10.00">_critical</text>
</a>
</g>
</g>
<!-- Node2&#45;&gt;Node4 -->
<g id="edge4" class="edge"><title>Node2&#45;&gt;Node4</title>
<path fill="none" stroke="midnightblue" d="M452.263,-106.537C511.236,-108.933 592.027,-112.215 644.49,-114.346"/>
<polygon fill="midnightblue" stroke="midnightblue" points="452.391,-103.04 442.257,-106.131 452.106,-110.034 452.391,-103.04"/>
</g>
<!-- Node3&#45;&gt;Node4 -->
<g id="edge3" class="edge"><title>Node3&#45;&gt;Node4</title>
<path fill="none" stroke="midnightblue" d="M599.738,-135.324C614.515,-132.478 630.107,-129.476 644.392,-126.726"/>
<polygon fill="midnightblue" stroke="midnightblue" points="598.821,-131.936 589.664,-137.264 600.145,-138.81 598.821,-131.936"/>
</g>
<!-- Node6 -->
<g id="node6" class="node"><title>Node6</title>
<g id="a_node6"><a xlink:href="classAP__MotorsHeli__Single.html#a7b5237d9ac4b926d7d84e1e34b18ee4f" target="_top" xlink:title="AP_MotorsHeli_Single\l::calculate_scalars">
<polygon fill="white" stroke="black" points="478,-44.5 478,-74.5 593,-74.5 593,-44.5 478,-44.5"/>
<text text-anchor="start" x="486" y="-62.5" font-family="Helvetica,sans-Serif" font-size="10.00">AP_MotorsHeli_Single</text>
<text text-anchor="middle" x="535.5" y="-51.5" font-family="Helvetica,sans-Serif" font-size="10.00">::calculate_scalars</text>
</a>
</g>
</g>
<!-- Node5&#45;&gt;Node6 -->
<g id="edge6" class="edge"><title>Node5&#45;&gt;Node6</title>
<path fill="none" stroke="midnightblue" d="M441.056,-33.3118C454.269,-37.015 468.07,-40.8827 480.884,-44.4738"/>
<polygon fill="midnightblue" stroke="midnightblue" points="441.665,-29.8477 431.091,-30.5192 439.776,-36.588 441.665,-29.8477"/>
</g>
<!-- Node7 -->
<g id="node7" class="node"><title>Node7</title>
<g id="a_node7"><a xlink:href="classAP__MotorsHeli__Single.html#ac58406ec975c076b307c6382064e89b8" target="_top" xlink:title="AP_MotorsHeli_Single\l::rotor_speed_above_critical">
<polygon fill="white" stroke="black" points="629,-30.5 629,-60.5 768,-60.5 768,-30.5 629,-30.5"/>
<text text-anchor="start" x="637" y="-48.5" font-family="Helvetica,sans-Serif" font-size="10.00">AP_MotorsHeli_Single</text>
<text text-anchor="middle" x="698.5" y="-37.5" font-family="Helvetica,sans-Serif" font-size="10.00">::rotor_speed_above_critical</text>
</a>
</g>
</g>
<!-- Node5&#45;&gt;Node7 -->
<g id="edge8" class="edge"><title>Node5&#45;&gt;Node7</title>
<path fill="none" stroke="midnightblue" d="M452.15,-21.7685C493.646,-25.3317 546.203,-29.9744 593,-34.5 604.621,-35.6238 616.963,-36.8733 628.939,-38.1152"/>
<polygon fill="midnightblue" stroke="midnightblue" points="452.383,-18.2758 442.121,-20.9099 451.786,-25.2503 452.383,-18.2758"/>
</g>
<!-- Node6&#45;&gt;Node7 -->
<g id="edge7" class="edge"><title>Node6&#45;&gt;Node7</title>
<path fill="none" stroke="midnightblue" d="M603.385,-53.6839C611.788,-52.9532 620.395,-52.2048 628.825,-51.4718"/>
<polygon fill="midnightblue" stroke="midnightblue" points="602.922,-50.2109 593.263,-54.5641 603.528,-57.1846 602.922,-50.2109"/>
</g>
<!-- Node8&#45;&gt;Node2 -->
<g id="edge10" class="edge"><title>Node8&#45;&gt;Node2</title>
<path fill="none" stroke="midnightblue" d="M281.758,-77.3118C295.014,-81.015 308.858,-84.8827 321.713,-88.4738"/>
<polygon fill="midnightblue" stroke="midnightblue" points="282.335,-73.839 271.762,-74.5192 280.452,-80.5809 282.335,-73.839"/>
</g>
<!-- Node8&#45;&gt;Node5 -->
<g id="edge11" class="edge"><title>Node8&#45;&gt;Node5</title>
<path fill="none" stroke="midnightblue" d="M281.758,-41.6882C295.014,-37.985 308.858,-34.1173 321.713,-30.5262"/>
<polygon fill="midnightblue" stroke="midnightblue" points="280.452,-38.4191 271.762,-44.4808 282.335,-45.161 280.452,-38.4191"/>
</g>
<!-- Node8&#45;&gt;Node6 -->
<g id="edge12" class="edge"><title>Node8&#45;&gt;Node6</title>
<path fill="none" stroke="midnightblue" d="M285.36,-59.5C342.625,-59.5 423.914,-59.5 477.877,-59.5"/>
<polygon fill="midnightblue" stroke="midnightblue" points="285.316,-56.0001 275.316,-59.5 285.316,-63.0001 285.316,-56.0001"/>
</g>
</g>
</svg>
        <g id="navigator" transform="translate(0 0)" fill="#404254">
                <rect fill="#f2f5e9" fill-opacity="0.5" stroke="#606060" stroke-width=".5" x="0" y="0" width="60" height="60"/>
                <use id="zoomplus" xlink:href="#zoomPlus" x="17" y="9" onmousedown="handleZoom(evt,'in')"/>
                <use id="zoomminus" xlink:href="#zoomMin" x="42" y="9" onmousedown="handleZoom(evt,'out')"/>
                <use id="reset" xlink:href="#resetDef" x="30" y="36" onmousedown="handleReset()"/>
                <g id="arrowUp" xlink:href="#dirArrow" transform="translate(30 24)" onmousedown="handlePan(0,-1)">
                  <use xlink:href="#rim" fill="#404040">
                        <set attributeName="fill" to="#808080" begin="arrowUp.mouseover" end="arrowUp.mouseout"/>
                  </use>
                  <path fill="none" stroke="white" stroke-width="1.5" d="M0,-3.0v7 M-2.5,-0.5L0,-3.0L2.5,-0.5"/>
                </g>
                <g id="arrowRight" xlink:href="#dirArrow" transform="rotate(90) translate(36 -43)" onmousedown="handlePan(1,0)">
                  <use xlink:href="#rim" fill="#404040">
                        <set attributeName="fill" to="#808080" begin="arrowRight.mouseover" end="arrowRight.mouseout"/>
                  </use>
                  <path fill="none" stroke="white" stroke-width="1.5" d="M0,-3.0v7 M-2.5,-0.5L0,-3.0L2.5,-0.5"/>
                </g>
                <g id="arrowDown" xlink:href="#dirArrow" transform="rotate(180) translate(-30 -48)" onmousedown="handlePan(0,1)">
                  <use xlink:href="#rim" fill="#404040">
                        <set attributeName="fill" to="#808080" begin="arrowDown.mouseover" end="arrowDown.mouseout"/>
                  </use>
                  <path fill="none" stroke="white" stroke-width="1.5" d="M0,-3.0v7 M-2.5,-0.5L0,-3.0L2.5,-0.5"/>
                </g>
                <g id="arrowLeft" xlink:href="#dirArrow" transform="rotate(270) translate(-36 17)" onmousedown="handlePan(-1,0)">
                  <use xlink:href="#rim" fill="#404040">
                        <set attributeName="fill" to="#808080" begin="arrowLeft.mouseover" end="arrowLeft.mouseout"/>
                  </use>
                  <path fill="none" stroke="white" stroke-width="1.5" d="M0,-3.0v7 M-2.5,-0.5L0,-3.0L2.5,-0.5"/>
                </g>
        </g>
        <svg viewBox="0 0 15 15" width="100%" height="30px" preserveAspectRatio="xMaxYMin meet">
         <g id="arrow_out" transform="scale(0.3 0.3)">
          <a xlink:href="classAP__MotorsHeli__RSC_aea809ae1bbb81ef4fc000fb25fe83886_icgraph_org.svg" target="_base">
           <rect id="button" ry="5" rx="5" y="6" x="6" height="38" width="38"
                fill="#f2f5e9" fill-opacity="0.5" stroke="#606060" stroke-width="1.0"/>
           <path id="arrow"
             d="M 11.500037,31.436501 C 11.940474,20.09759 22.043105,11.32322 32.158766,21.979434 L 37.068811,17.246167 C 37.068811,17.246167 37.088388,32 37.088388,32 L 22.160133,31.978069 C 22.160133,31.978069 26.997745,27.140456 26.997745,27.140456 C 18.528582,18.264221 13.291696,25.230495 11.500037,31.436501 z"
             style="fill:#404040;"/>
          </a>
         </g>
        </svg>
</svg>
