<?xml version="1.0" encoding="UTF-8" standalone="no"?>
<!DOCTYPE svg PUBLIC "-//W3C//DTD SVG 1.1//EN"
 "http://www.w3.org/Graphics/SVG/1.1/DTD/svg11.dtd">
<!-- Generated by graphviz version 2.38.0 (20140413.2041)
 -->
<!-- Title: AP_IRLock_I2C::sync_frame_start Pages: 1 -->
<svg width="2027pt" height="667pt"
 viewBox="0.00 0.00 2027.00 666.50" xmlns="http://www.w3.org/2000/svg" xmlns:xlink="http://www.w3.org/1999/xlink">
<g id="graph0" class="graph" transform="scale(1 1) rotate(0) translate(4 662.5)">
<title>AP_IRLock_I2C::sync_frame_start</title>
<polygon fill="white" stroke="none" points="-4,4 -4,-662.5 2023,-662.5 2023,4 -4,4"/>
<!-- Node1 -->
<g id="node1" class="node"><title>Node1</title>
<polygon fill="#bfbfbf" stroke="black" points="0,-485.5 0,-515.5 115,-515.5 115,-485.5 0,-485.5"/>
<text text-anchor="start" x="8" y="-503.5" font-family="Helvetica,sans-Serif" font-size="10.00">AP_IRLock_I2C::sync</text>
<text text-anchor="middle" x="57.5" y="-492.5" font-family="Helvetica,sans-Serif" font-size="10.00">_frame_start</text>
</g>
<!-- Node2 -->
<g id="node2" class="node"><title>Node2</title>
<g id="a_node2"><a xlink:href="classAP__HAL_1_1Device.html#a2af24b5f93b678af718b65a606e538b0" target="_top" xlink:title="AP_HAL::Device::transfer">
<polygon fill="white" stroke="black" points="151,-510 151,-529 282,-529 282,-510 151,-510"/>
<text text-anchor="middle" x="216.5" y="-517" font-family="Helvetica,sans-Serif" font-size="10.00">AP_HAL::Device::transfer</text>
</a>
</g>
</g>
<!-- Node1&#45;&gt;Node2 -->
<g id="edge1" class="edge"><title>Node1&#45;&gt;Node2</title>
<path fill="none" stroke="midnightblue" d="M115.181,-507.359C123.514,-508.368 132.203,-509.42 140.831,-510.464"/>
<polygon fill="midnightblue" stroke="midnightblue" points="140.558,-513.956 150.906,-511.683 141.399,-507.007 140.558,-513.956"/>
</g>
<!-- Node3 -->
<g id="node3" class="node"><title>Node3</title>
<g id="a_node3"><a xlink:href="namespaceAP__HAL.html#a77dffbb18891996280308e21316ec186" target="_top" xlink:title="AP_HAL::millis">
<polygon fill="white" stroke="black" points="175,-472 175,-491 258,-491 258,-472 175,-472"/>
<text text-anchor="middle" x="216.5" y="-479" font-family="Helvetica,sans-Serif" font-size="10.00">AP_HAL::millis</text>
</a>
</g>
</g>
<!-- Node1&#45;&gt;Node3 -->
<g id="edge2" class="edge"><title>Node1&#45;&gt;Node3</title>
<path fill="none" stroke="midnightblue" d="M115.181,-493.641C131.32,-491.687 148.796,-489.572 164.571,-487.663"/>
<polygon fill="midnightblue" stroke="midnightblue" points="165.153,-491.119 174.66,-486.442 164.312,-484.169 165.153,-491.119"/>
</g>
<!-- Node4 -->
<g id="node4" class="node"><title>Node4</title>
<g id="a_node4"><a xlink:href="namespaceAP__HAL.html#a59336c5fceaf28a76d1df1581a87a25d" target="_top" xlink:title="AP_HAL::millis64">
<polygon fill="white" stroke="black" points="318,-472 318,-491 412,-491 412,-472 318,-472"/>
<text text-anchor="middle" x="365" y="-479" font-family="Helvetica,sans-Serif" font-size="10.00">AP_HAL::millis64</text>
</a>
</g>
</g>
<!-- Node3&#45;&gt;Node4 -->
<g id="edge3" class="edge"><title>Node3&#45;&gt;Node4</title>
<path fill="none" stroke="midnightblue" d="M258.308,-481.5C273.663,-481.5 291.401,-481.5 307.907,-481.5"/>
<polygon fill="midnightblue" stroke="midnightblue" points="307.994,-485 317.994,-481.5 307.993,-478 307.994,-485"/>
</g>
<!-- Node5 -->
<g id="node5" class="node"><title>Node5</title>
<g id="a_node5"><a xlink:href="classLinux_1_1Scheduler.html#a53ecaae0fdc72f85bd57c4b0cff93653" target="_top" xlink:title="Linux::Scheduler::from">
<polygon fill="white" stroke="black" points="448,-344 448,-363 563,-363 563,-344 448,-344"/>
<text text-anchor="middle" x="505.5" y="-351" font-family="Helvetica,sans-Serif" font-size="10.00">Linux::Scheduler::from</text>
</a>
</g>
</g>
<!-- Node4&#45;&gt;Node5 -->
<g id="edge4" class="edge"><title>Node4&#45;&gt;Node5</title>
<path fill="none" stroke="midnightblue" d="M376.41,-471.879C399.871,-450.196 457.114,-397.294 486.478,-370.156"/>
<polygon fill="midnightblue" stroke="midnightblue" points="489.001,-372.59 493.969,-363.232 484.25,-367.449 489.001,-372.59"/>
</g>
<!-- Node36 -->
<g id="node36" class="node"><title>Node36</title>
<g id="a_node36"><a xlink:href="classLinux_1_1Scheduler.html#a682b4c34f330f66db5ab4aa5d96e13f9" target="_top" xlink:title="Linux::Scheduler::stopped\l_clock_usec">
<polygon fill="white" stroke="black" points="1271,-490.5 1271,-520.5 1401,-520.5 1401,-490.5 1271,-490.5"/>
<text text-anchor="start" x="1279" y="-508.5" font-family="Helvetica,sans-Serif" font-size="10.00">Linux::Scheduler::stopped</text>
<text text-anchor="middle" x="1336" y="-497.5" font-family="Helvetica,sans-Serif" font-size="10.00">_clock_usec</text>
</a>
</g>
</g>
<!-- Node4&#45;&gt;Node36 -->
<g id="edge62" class="edge"><title>Node4&#45;&gt;Node36</title>
<path fill="none" stroke="midnightblue" d="M378.142,-491.196C416.975,-521.196 542.599,-610.5 662,-610.5 662,-610.5 662,-610.5 1003.5,-610.5 1115.24,-610.5 1238.7,-555.608 1298.51,-525.202"/>
<polygon fill="midnightblue" stroke="midnightblue" points="1300.27,-528.235 1307.56,-520.544 1297.06,-522.012 1300.27,-528.235"/>
</g>
<!-- Node6 -->
<g id="node6" class="node"><title>Node6</title>
<g id="a_node6"><a xlink:href="classLinux_1_1Scheduler.html#a3d77c332e051c28c83fb07757e7100bd" target="_top" xlink:title="Linux::Scheduler::init">
<polygon fill="white" stroke="black" points="609,-126 609,-145 717,-145 717,-126 609,-126"/>
<text text-anchor="middle" x="663" y="-133" font-family="Helvetica,sans-Serif" font-size="10.00">Linux::Scheduler::init</text>
</a>
</g>
</g>
<!-- Node5&#45;&gt;Node6 -->
<g id="edge5" class="edge"><title>Node5&#45;&gt;Node6</title>
<path fill="none" stroke="midnightblue" d="M508.096,-343.951C513.933,-312.05 537.111,-208.159 599,-154.5 600.964,-152.797 603.076,-151.247 605.295,-149.836"/>
<polygon fill="midnightblue" stroke="midnightblue" points="607.106,-152.838 614.293,-145.053 603.82,-146.657 607.106,-152.838"/>
</g>
<!-- Node16 -->
<g id="node16" class="node"><title>Node16</title>
<g id="a_node16"><a xlink:href="classLinux_1_1Scheduler.html#a02a34a123dfebaf360f7010745e1e646" target="_top" xlink:title="Linux::Scheduler::register\l_timer_process">
<polygon fill="white" stroke="black" points="765,-98.5 765,-128.5 893,-128.5 893,-98.5 765,-98.5"/>
<text text-anchor="start" x="773" y="-116.5" font-family="Helvetica,sans-Serif" font-size="10.00">Linux::Scheduler::register</text>
<text text-anchor="middle" x="829" y="-105.5" font-family="Helvetica,sans-Serif" font-size="10.00">_timer_process</text>
</a>
</g>
</g>
<!-- Node5&#45;&gt;Node16 -->
<g id="edge33" class="edge"><title>Node5&#45;&gt;Node16</title>
<path fill="none" stroke="midnightblue" d="M506.745,-343.787C508.272,-306.48 519.307,-171.713 599,-116.5 646.852,-83.3472 714.874,-87.135 764.342,-96.4531"/>
<polygon fill="midnightblue" stroke="midnightblue" points="763.797,-99.9133 774.29,-98.4474 765.173,-93.0498 763.797,-99.9133"/>
</g>
<!-- Node27 -->
<g id="node27" class="node"><title>Node27</title>
<g id="a_node27"><a xlink:href="classLinux_1_1Scheduler.html#a14f3239ecbb9889823b20dc9de655c2f" target="_top" xlink:title="Linux::Scheduler::delay">
<polygon fill="white" stroke="black" points="603.5,-639 603.5,-658 722.5,-658 722.5,-639 603.5,-639"/>
<text text-anchor="middle" x="663" y="-646" font-family="Helvetica,sans-Serif" font-size="10.00">Linux::Scheduler::delay</text>
</a>
</g>
</g>
<!-- Node5&#45;&gt;Node27 -->
<g id="edge27" class="edge"><title>Node5&#45;&gt;Node27</title>
<path fill="none" stroke="midnightblue" d="M508.763,-363.05C516.91,-396.142 547.037,-508.158 599,-586.5 610.731,-604.186 628.173,-620.857 641.732,-632.449"/>
<polygon fill="midnightblue" stroke="midnightblue" points="639.658,-635.276 649.587,-638.973 644.131,-629.891 639.658,-635.276"/>
</g>
<!-- Node29 -->
<g id="node29" class="node"><title>Node29</title>
<g id="a_node29"><a xlink:href="classLinux_1_1Scheduler.html#a4cffd5bcba0175bf49c7aa75ff3bf09a" target="_top" xlink:title="Linux::Scheduler::delay\l_microseconds">
<polygon fill="white" stroke="black" points="1276.5,-557.5 1276.5,-587.5 1395.5,-587.5 1395.5,-557.5 1276.5,-557.5"/>
<text text-anchor="start" x="1284.5" y="-575.5" font-family="Helvetica,sans-Serif" font-size="10.00">Linux::Scheduler::delay</text>
<text text-anchor="middle" x="1336" y="-564.5" font-family="Helvetica,sans-Serif" font-size="10.00">_microseconds</text>
</a>
</g>
</g>
<!-- Node5&#45;&gt;Node29 -->
<g id="edge30" class="edge"><title>Node5&#45;&gt;Node29</title>
<path fill="none" stroke="midnightblue" d="M507.609,-363.155C511.985,-396.32 531.279,-506.149 599,-553.5 682.698,-612.021 725.873,-572.5 828,-572.5 828,-572.5 828,-572.5 1003.5,-572.5 1094.37,-572.5 1199.26,-572.5 1266.3,-572.5"/>
<polygon fill="midnightblue" stroke="midnightblue" points="1266.32,-576 1276.32,-572.5 1266.32,-569 1266.32,-576"/>
</g>
<!-- Node30 -->
<g id="node30" class="node"><title>Node30</title>
<g id="a_node30"><a xlink:href="classLinux_1_1Scheduler.html#a5cb50b637d5fd3e5f9220bc23db0fb3f" target="_top" xlink:title="Linux::Scheduler::register\l_delay_callback">
<polygon fill="white" stroke="black" points="599,-513.5 599,-543.5 727,-543.5 727,-513.5 599,-513.5"/>
<text text-anchor="start" x="607" y="-531.5" font-family="Helvetica,sans-Serif" font-size="10.00">Linux::Scheduler::register</text>
<text text-anchor="middle" x="663" y="-520.5" font-family="Helvetica,sans-Serif" font-size="10.00">_delay_callback</text>
</a>
</g>
</g>
<!-- Node5&#45;&gt;Node30 -->
<g id="edge32" class="edge"><title>Node5&#45;&gt;Node30</title>
<path fill="none" stroke="midnightblue" d="M510.432,-363.272C521.099,-388.699 552.905,-457.77 599,-498.5 603.142,-502.16 607.808,-505.468 612.681,-508.434"/>
<polygon fill="midnightblue" stroke="midnightblue" points="611.166,-511.596 621.606,-513.404 614.572,-505.481 611.166,-511.596"/>
</g>
<!-- Node31 -->
<g id="node31" class="node"><title>Node31</title>
<g id="a_node31"><a xlink:href="classLinux_1_1Scheduler.html#aa2be97cb8686d72cc322fb38f69a940c" target="_top" xlink:title="Linux::Scheduler::register\l_io_process">
<polygon fill="white" stroke="black" points="765,-49.5 765,-79.5 893,-79.5 893,-49.5 765,-49.5"/>
<text text-anchor="start" x="773" y="-67.5" font-family="Helvetica,sans-Serif" font-size="10.00">Linux::Scheduler::register</text>
<text text-anchor="middle" x="829" y="-56.5" font-family="Helvetica,sans-Serif" font-size="10.00">_io_process</text>
</a>
</g>
</g>
<!-- Node5&#45;&gt;Node31 -->
<g id="edge34" class="edge"><title>Node5&#45;&gt;Node31</title>
<path fill="none" stroke="midnightblue" d="M506.434,-343.92C506.732,-304.492 513.595,-153.682 599,-86.5 642.374,-52.3804 705.638,-48.683 754.686,-52.5074"/>
<polygon fill="midnightblue" stroke="midnightblue" points="754.65,-56.0183 764.924,-53.4294 755.278,-49.0465 754.65,-56.0183"/>
</g>
<!-- Node32 -->
<g id="node32" class="node"><title>Node32</title>
<g id="a_node32"><a xlink:href="classLinux_1_1Scheduler.html#abba967d02c28cb0b16a7cebbff9bc6d6" target="_top" xlink:title="Linux::Scheduler::suspend\l_timer_procs">
<polygon fill="white" stroke="black" points="763,-425.5 763,-455.5 895,-455.5 895,-425.5 763,-425.5"/>
<text text-anchor="start" x="771" y="-443.5" font-family="Helvetica,sans-Serif" font-size="10.00">Linux::Scheduler::suspend</text>
<text text-anchor="middle" x="829" y="-432.5" font-family="Helvetica,sans-Serif" font-size="10.00">_timer_procs</text>
</a>
</g>
</g>
<!-- Node5&#45;&gt;Node32 -->
<g id="edge36" class="edge"><title>Node5&#45;&gt;Node32</title>
<path fill="none" stroke="midnightblue" d="M514.768,-363.05C529.674,-379.494 562.877,-412.714 599,-426.5 647.781,-445.117 706.649,-448.339 752.483,-447.051"/>
<polygon fill="midnightblue" stroke="midnightblue" points="752.781,-450.543 762.649,-446.686 752.529,-443.547 752.781,-450.543"/>
</g>
<!-- Node42 -->
<g id="node42" class="node"><title>Node42</title>
<g id="a_node42"><a xlink:href="classLinux_1_1Scheduler.html#aee4e701b92cb4721c4de1bfcdcded70c" target="_top" xlink:title="Linux::Scheduler::resume\l_timer_procs">
<polygon fill="white" stroke="black" points="765,-240.5 765,-270.5 893,-270.5 893,-240.5 765,-240.5"/>
<text text-anchor="start" x="773" y="-258.5" font-family="Helvetica,sans-Serif" font-size="10.00">Linux::Scheduler::resume</text>
<text text-anchor="middle" x="829" y="-247.5" font-family="Helvetica,sans-Serif" font-size="10.00">_timer_procs</text>
</a>
</g>
</g>
<!-- Node5&#45;&gt;Node42 -->
<g id="edge50" class="edge"><title>Node5&#45;&gt;Node42</title>
<path fill="none" stroke="midnightblue" d="M510.216,-343.713C520.158,-319.121 549.993,-254.964 599,-230.5 649.899,-205.092 670.529,-223.615 727,-230.5 740.289,-232.12 754.348,-234.897 767.617,-238.026"/>
<polygon fill="midnightblue" stroke="midnightblue" points="767.039,-241.488 777.585,-240.474 768.708,-234.69 767.039,-241.488"/>
</g>
<!-- Node44 -->
<g id="node44" class="node"><title>Node44</title>
<g id="a_node44"><a xlink:href="classLinux_1_1Scheduler.html#af23753e7c6bfa97553db215a64235455" target="_top" xlink:title="Linux::Scheduler::in\l_timerprocess">
<polygon fill="white" stroke="black" points="611.5,-387.5 611.5,-417.5 714.5,-417.5 714.5,-387.5 611.5,-387.5"/>
<text text-anchor="start" x="619.5" y="-405.5" font-family="Helvetica,sans-Serif" font-size="10.00">Linux::Scheduler::in</text>
<text text-anchor="middle" x="663" y="-394.5" font-family="Helvetica,sans-Serif" font-size="10.00">_timerprocess</text>
</a>
</g>
</g>
<!-- Node5&#45;&gt;Node44 -->
<g id="edge52" class="edge"><title>Node5&#45;&gt;Node44</title>
<path fill="none" stroke="midnightblue" d="M536.851,-363.064C556.108,-369.132 581.638,-377.177 604.615,-384.417"/>
<polygon fill="midnightblue" stroke="midnightblue" points="603.691,-387.796 614.281,-387.463 605.795,-381.119 603.691,-387.796"/>
</g>
<!-- Node45 -->
<g id="node45" class="node"><title>Node45</title>
<g id="a_node45"><a xlink:href="classLinux_1_1Scheduler.html#ac193459e3575c7a0588fdc72250c2044" target="_top" xlink:title="Linux::Scheduler::register\l_timer_failsafe">
<polygon fill="white" stroke="black" points="599,-240.5 599,-270.5 727,-270.5 727,-240.5 599,-240.5"/>
<text text-anchor="start" x="607" y="-258.5" font-family="Helvetica,sans-Serif" font-size="10.00">Linux::Scheduler::register</text>
<text text-anchor="middle" x="663" y="-247.5" font-family="Helvetica,sans-Serif" font-size="10.00">_timer_failsafe</text>
</a>
</g>
</g>
<!-- Node5&#45;&gt;Node45 -->
<g id="edge53" class="edge"><title>Node5&#45;&gt;Node45</title>
<path fill="none" stroke="midnightblue" d="M516.277,-343.939C532.373,-328.62 565.971,-298.383 599,-279.5 601.845,-277.873 604.821,-276.316 607.866,-274.831"/>
<polygon fill="midnightblue" stroke="midnightblue" points="609.497,-277.934 617.144,-270.601 606.593,-271.565 609.497,-277.934"/>
</g>
<!-- Node46 -->
<g id="node46" class="node"><title>Node46</title>
<g id="a_node46"><a xlink:href="classLinux_1_1Scheduler.html#ad6070a7ee637adf5101b1e6b6efbf8f6" target="_top" xlink:title="Linux::Scheduler::system\l_initialized">
<polygon fill="white" stroke="black" points="599,-289.5 599,-319.5 727,-319.5 727,-289.5 599,-289.5"/>
<text text-anchor="start" x="607" y="-307.5" font-family="Helvetica,sans-Serif" font-size="10.00">Linux::Scheduler::system</text>
<text text-anchor="middle" x="663" y="-296.5" font-family="Helvetica,sans-Serif" font-size="10.00">_initialized</text>
</a>
</g>
</g>
<!-- Node5&#45;&gt;Node46 -->
<g id="edge54" class="edge"><title>Node5&#45;&gt;Node46</title>
<path fill="none" stroke="midnightblue" d="M536.851,-343.936C556.108,-337.868 581.638,-329.823 604.615,-322.583"/>
<polygon fill="midnightblue" stroke="midnightblue" points="605.795,-325.881 614.281,-319.537 603.691,-319.204 605.795,-325.881"/>
</g>
<!-- Node48 -->
<g id="node48" class="node"><title>Node48</title>
<g id="a_node48"><a xlink:href="classLinux_1_1Scheduler.html#ae72cfa66c849ffd882ef518c35c71e69" target="_top" xlink:title="Linux::Scheduler::reboot">
<polygon fill="white" stroke="black" points="602,-164 602,-183 724,-183 724,-164 602,-164"/>
<text text-anchor="middle" x="663" y="-171" font-family="Helvetica,sans-Serif" font-size="10.00">Linux::Scheduler::reboot</text>
</a>
</g>
</g>
<!-- Node5&#45;&gt;Node48 -->
<g id="edge57" class="edge"><title>Node5&#45;&gt;Node48</title>
<path fill="none" stroke="midnightblue" d="M509.618,-343.942C518.862,-317.039 548.659,-239.883 599,-197.5 603.818,-193.444 609.394,-190.032 615.197,-187.173"/>
<polygon fill="midnightblue" stroke="midnightblue" points="616.675,-190.347 624.426,-183.124 613.862,-183.937 616.675,-190.347"/>
</g>
<!-- Node49 -->
<g id="node49" class="node"><title>Node49</title>
<g id="a_node49"><a xlink:href="classLinux_1_1Scheduler.html#a392aebafcdfe9a812e4db4b7a9dcce9c" target="_top" xlink:title="Linux::Scheduler::stop\l_clock">
<polygon fill="white" stroke="black" points="606,-338.5 606,-368.5 720,-368.5 720,-338.5 606,-338.5"/>
<text text-anchor="start" x="614" y="-356.5" font-family="Helvetica,sans-Serif" font-size="10.00">Linux::Scheduler::stop</text>
<text text-anchor="middle" x="663" y="-345.5" font-family="Helvetica,sans-Serif" font-size="10.00">_clock</text>
</a>
</g>
</g>
<!-- Node5&#45;&gt;Node49 -->
<g id="edge58" class="edge"><title>Node5&#45;&gt;Node49</title>
<path fill="none" stroke="midnightblue" d="M563.079,-353.5C573.674,-353.5 584.837,-353.5 595.695,-353.5"/>
<polygon fill="midnightblue" stroke="midnightblue" points="595.984,-357 605.984,-353.5 595.984,-350 595.984,-357"/>
</g>
<!-- Node7 -->
<g id="node7" class="node"><title>Node7</title>
<g id="a_node7"><a xlink:href="namespaceAP__HAL.html#a71832f03d849a0c088f04fc98d3c8143" target="_top" xlink:title="AP_HAL::panic">
<polygon fill="white" stroke="black" points="787,-202 787,-221 871,-221 871,-202 787,-202"/>
<text text-anchor="middle" x="829" y="-209" font-family="Helvetica,sans-Serif" font-size="10.00">AP_HAL::panic</text>
</a>
</g>
</g>
<!-- Node6&#45;&gt;Node7 -->
<g id="edge6" class="edge"><title>Node6&#45;&gt;Node7</title>
<path fill="none" stroke="midnightblue" d="M700.469,-145.007C709.29,-147.712 718.594,-150.913 727,-154.5 754.817,-166.371 784.763,-183.936 804.763,-196.425"/>
<polygon fill="midnightblue" stroke="midnightblue" points="803.147,-199.544 813.469,-201.934 806.89,-193.629 803.147,-199.544"/>
</g>
<!-- Node6&#45;&gt;Node16 -->
<g id="edge15" class="edge"><title>Node6&#45;&gt;Node16</title>
<path fill="none" stroke="midnightblue" d="M717.246,-128.357C729.202,-126.753 742.091,-125.024 754.703,-123.333"/>
<polygon fill="midnightblue" stroke="midnightblue" points="755.289,-126.785 764.734,-121.987 754.358,-119.848 755.289,-126.785"/>
</g>
<!-- Node25 -->
<g id="node25" class="node"><title>Node25</title>
<g id="a_node25"><a xlink:href="classLinux_1_1Scheduler.html#a163eb7b285c95b1b1d036fc61d723910" target="_top" xlink:title="Linux::Scheduler::\l_debug_stack">
<polygon fill="white" stroke="black" points="781.5,-0.5 781.5,-30.5 876.5,-30.5 876.5,-0.5 781.5,-0.5"/>
<text text-anchor="start" x="789.5" y="-18.5" font-family="Helvetica,sans-Serif" font-size="10.00">Linux::Scheduler::</text>
<text text-anchor="middle" x="829" y="-7.5" font-family="Helvetica,sans-Serif" font-size="10.00">_debug_stack</text>
</a>
</g>
</g>
<!-- Node6&#45;&gt;Node25 -->
<g id="edge24" class="edge"><title>Node6&#45;&gt;Node25</title>
<path fill="none" stroke="midnightblue" d="M671.455,-125.982C686.73,-107.054 723.492,-64.3722 763,-39.5 765.939,-37.6495 769.043,-35.9111 772.236,-34.283"/>
<polygon fill="midnightblue" stroke="midnightblue" points="773.838,-37.3974 781.409,-29.9856 770.868,-31.0585 773.838,-37.3974"/>
</g>
<!-- Node8 -->
<g id="node8" class="node"><title>Node8</title>
<g id="a_node8"><a xlink:href="classAP__HAL_1_1RCInput.html#a2bea13d38f2b9ae8bf5193a3a69f0a31" target="_top" xlink:title="AP_HAL::RCInput::teardown">
<polygon fill="white" stroke="black" points="931,-202 931,-221 1074,-221 1074,-202 931,-202"/>
<text text-anchor="middle" x="1002.5" y="-209" font-family="Helvetica,sans-Serif" font-size="10.00">AP_HAL::RCInput::teardown</text>
</a>
</g>
</g>
<!-- Node7&#45;&gt;Node8 -->
<g id="edge7" class="edge"><title>Node7&#45;&gt;Node8</title>
<path fill="none" stroke="midnightblue" d="M871.079,-211.5C886.072,-211.5 903.594,-211.5 920.84,-211.5"/>
<polygon fill="midnightblue" stroke="midnightblue" points="920.941,-215 930.941,-211.5 920.941,-208 920.941,-215"/>
</g>
<!-- Node15 -->
<g id="node15" class="node"><title>Node15</title>
<g id="a_node15"><a xlink:href="classAP__HAL_1_1Scheduler.html#a78c4f1b1f192ac1c99544b6cc8f099b0" target="_top" xlink:title="AP_HAL::Scheduler::\ldelay_microseconds">
<polygon fill="white" stroke="black" points="1117.5,-379.5 1117.5,-409.5 1227.5,-409.5 1227.5,-379.5 1117.5,-379.5"/>
<text text-anchor="start" x="1125.5" y="-397.5" font-family="Helvetica,sans-Serif" font-size="10.00">AP_HAL::Scheduler::</text>
<text text-anchor="middle" x="1172.5" y="-386.5" font-family="Helvetica,sans-Serif" font-size="10.00">delay_microseconds</text>
</a>
</g>
</g>
<!-- Node7&#45;&gt;Node15 -->
<g id="edge14" class="edge"><title>Node7&#45;&gt;Node15</title>
<path fill="none" stroke="midnightblue" d="M866.811,-221.061C876.116,-223.804 886.014,-227.008 895,-230.5 977.63,-262.611 1006.57,-260.949 1074,-318.5 1095.1,-336.512 1088.27,-352.247 1110,-369.5 1112.24,-371.281 1114.63,-372.951 1117.11,-374.516"/>
<polygon fill="midnightblue" stroke="midnightblue" points="1115.41,-377.576 1125.84,-379.437 1118.85,-371.478 1115.41,-377.576"/>
</g>
<!-- Node9 -->
<g id="node9" class="node"><title>Node9</title>
<g id="a_node9"><a xlink:href="classAP__HAL_1_1RCInput.html#aee1fade33080edef83dd7db0fad0f7da" target="_top" xlink:title="AP_HAL::RCInput::new\l_input">
<polygon fill="white" stroke="black" points="1111.5,-95.5 1111.5,-125.5 1233.5,-125.5 1233.5,-95.5 1111.5,-95.5"/>
<text text-anchor="start" x="1119.5" y="-113.5" font-family="Helvetica,sans-Serif" font-size="10.00">AP_HAL::RCInput::new</text>
<text text-anchor="middle" x="1172.5" y="-102.5" font-family="Helvetica,sans-Serif" font-size="10.00">_input</text>
</a>
</g>
</g>
<!-- Node8&#45;&gt;Node9 -->
<g id="edge8" class="edge"><title>Node8&#45;&gt;Node9</title>
<path fill="none" stroke="midnightblue" d="M1014.68,-201.933C1033.4,-186.255 1072.74,-154.81 1110,-134.5 1113.06,-132.831 1116.26,-131.22 1119.53,-129.677"/>
<polygon fill="midnightblue" stroke="midnightblue" points="1121.14,-132.791 1128.84,-125.514 1118.28,-126.4 1121.14,-132.791"/>
</g>
<!-- Node10 -->
<g id="node10" class="node"><title>Node10</title>
<g id="a_node10"><a xlink:href="classAP__HAL_1_1RCInput.html#ae55f959c6115c1f41783af3a2b6c4fcd" target="_top" xlink:title="AP_HAL::RCInput::num\l_channels">
<polygon fill="white" stroke="black" points="1111.5,-330.5 1111.5,-360.5 1233.5,-360.5 1233.5,-330.5 1111.5,-330.5"/>
<text text-anchor="start" x="1119.5" y="-348.5" font-family="Helvetica,sans-Serif" font-size="10.00">AP_HAL::RCInput::num</text>
<text text-anchor="middle" x="1172.5" y="-337.5" font-family="Helvetica,sans-Serif" font-size="10.00">_channels</text>
</a>
</g>
</g>
<!-- Node8&#45;&gt;Node10 -->
<g id="edge9" class="edge"><title>Node8&#45;&gt;Node10</title>
<path fill="none" stroke="midnightblue" d="M1026.98,-221.083C1041.87,-228.069 1060.76,-238.717 1074,-252.5 1097.69,-277.157 1084.63,-297.568 1110,-320.5 1111.74,-322.07 1113.59,-323.548 1115.52,-324.939"/>
<polygon fill="midnightblue" stroke="midnightblue" points="1114.09,-328.174 1124.43,-330.495 1117.79,-322.234 1114.09,-328.174"/>
</g>
<!-- Node11 -->
<g id="node11" class="node"><title>Node11</title>
<g id="a_node11"><a xlink:href="classAP__HAL_1_1RCInput.html#a078fd7e6d2e6a899009ec674a8e03498" target="_top" xlink:title="AP_HAL::RCInput::read">
<polygon fill="white" stroke="black" points="1111.5,-292 1111.5,-311 1233.5,-311 1233.5,-292 1111.5,-292"/>
<text text-anchor="middle" x="1172.5" y="-299" font-family="Helvetica,sans-Serif" font-size="10.00">AP_HAL::RCInput::read</text>
</a>
</g>
</g>
<!-- Node8&#45;&gt;Node11 -->
<g id="edge10" class="edge"><title>Node8&#45;&gt;Node11</title>
<path fill="none" stroke="midnightblue" d="M1021.63,-221.055C1036.15,-228.938 1056.85,-240.706 1074,-252.5 1090.93,-264.142 1091.93,-271.717 1110,-281.5 1114.81,-284.106 1120.02,-286.445 1125.3,-288.524"/>
<polygon fill="midnightblue" stroke="midnightblue" points="1124.22,-291.855 1134.82,-291.986 1126.62,-285.277 1124.22,-291.855"/>
</g>
<!-- Node12 -->
<g id="node12" class="node"><title>Node12</title>
<g id="a_node12"><a xlink:href="classAP__HAL_1_1RCInput.html#a0989c5ca271631fe655c047d4a022a3d" target="_top" xlink:title="AP_HAL::RCInput::set\l_overrides">
<polygon fill="white" stroke="black" points="1114,-242.5 1114,-272.5 1231,-272.5 1231,-242.5 1114,-242.5"/>
<text text-anchor="start" x="1122" y="-260.5" font-family="Helvetica,sans-Serif" font-size="10.00">AP_HAL::RCInput::set</text>
<text text-anchor="middle" x="1172.5" y="-249.5" font-family="Helvetica,sans-Serif" font-size="10.00">_overrides</text>
</a>
</g>
</g>
<!-- Node8&#45;&gt;Node12 -->
<g id="edge11" class="edge"><title>Node8&#45;&gt;Node12</title>
<path fill="none" stroke="midnightblue" d="M1038.31,-221.031C1058.07,-226.442 1083.44,-233.389 1106.73,-239.766"/>
<polygon fill="midnightblue" stroke="midnightblue" points="1105.99,-243.192 1116.56,-242.457 1107.84,-236.441 1105.99,-243.192"/>
</g>
<!-- Node13 -->
<g id="node13" class="node"><title>Node13</title>
<g id="a_node13"><a xlink:href="classAP__HAL_1_1RCInput.html#abfd037ca0989a0422a60f418d34eb7d5" target="_top" xlink:title="AP_HAL::RCInput::set\l_override">
<polygon fill="white" stroke="black" points="1114,-193.5 1114,-223.5 1231,-223.5 1231,-193.5 1114,-193.5"/>
<text text-anchor="start" x="1122" y="-211.5" font-family="Helvetica,sans-Serif" font-size="10.00">AP_HAL::RCInput::set</text>
<text text-anchor="middle" x="1172.5" y="-200.5" font-family="Helvetica,sans-Serif" font-size="10.00">_override</text>
</a>
</g>
</g>
<!-- Node8&#45;&gt;Node13 -->
<g id="edge12" class="edge"><title>Node8&#45;&gt;Node13</title>
<path fill="none" stroke="midnightblue" d="M1074.26,-210.236C1084.04,-210.062 1094.07,-209.883 1103.8,-209.709"/>
<polygon fill="midnightblue" stroke="midnightblue" points="1103.87,-213.208 1113.8,-209.53 1103.74,-206.21 1103.87,-213.208"/>
</g>
<!-- Node14 -->
<g id="node14" class="node"><title>Node14</title>
<g id="a_node14"><a xlink:href="classAP__HAL_1_1RCInput.html#ab3671bbe43fdb97c53071d7832ac256e" target="_top" xlink:title="AP_HAL::RCInput::clear\l_overrides">
<polygon fill="white" stroke="black" points="1110,-144.5 1110,-174.5 1235,-174.5 1235,-144.5 1110,-144.5"/>
<text text-anchor="start" x="1118" y="-162.5" font-family="Helvetica,sans-Serif" font-size="10.00">AP_HAL::RCInput::clear</text>
<text text-anchor="middle" x="1172.5" y="-151.5" font-family="Helvetica,sans-Serif" font-size="10.00">_overrides</text>
</a>
</g>
</g>
<!-- Node8&#45;&gt;Node14 -->
<g id="edge13" class="edge"><title>Node8&#45;&gt;Node14</title>
<path fill="none" stroke="midnightblue" d="M1034.31,-201.962C1056.33,-195.147 1086.64,-185.767 1113.16,-177.557"/>
<polygon fill="midnightblue" stroke="midnightblue" points="1114.22,-180.892 1122.74,-174.592 1112.15,-174.205 1114.22,-180.892"/>
</g>
<!-- Node17 -->
<g id="node17" class="node"><title>Node17</title>
<g id="a_node17"><a xlink:href="classAP__HAL_1_1UARTDriver.html#a6ceedc792594e59fc7d80b39a435f027" target="_top" xlink:title="AP_HAL::UARTDriver\l::printf">
<polygon fill="white" stroke="black" points="945,-49.5 945,-79.5 1060,-79.5 1060,-49.5 945,-49.5"/>
<text text-anchor="start" x="953" y="-67.5" font-family="Helvetica,sans-Serif" font-size="10.00">AP_HAL::UARTDriver</text>
<text text-anchor="middle" x="1002.5" y="-56.5" font-family="Helvetica,sans-Serif" font-size="10.00">::printf</text>
</a>
</g>
</g>
<!-- Node16&#45;&gt;Node17 -->
<g id="edge16" class="edge"><title>Node16&#45;&gt;Node17</title>
<path fill="none" stroke="midnightblue" d="M882.855,-98.3986C900.625,-93.3215 920.616,-87.6098 939.052,-82.3423"/>
<polygon fill="midnightblue" stroke="midnightblue" points="940.166,-85.6642 948.819,-79.5516 938.243,-78.9335 940.166,-85.6642"/>
</g>
<!-- Node18 -->
<g id="node18" class="node"><title>Node18</title>
<g id="a_node18"><a xlink:href="classAP__HAL_1_1UARTDriver.html#aa8abfb6d6641299472c29ac1edde559f" target="_top" xlink:title="AP_HAL::UARTDriver\l::vprintf">
<polygon fill="white" stroke="black" points="1115,-46.5 1115,-76.5 1230,-76.5 1230,-46.5 1115,-46.5"/>
<text text-anchor="start" x="1123" y="-64.5" font-family="Helvetica,sans-Serif" font-size="10.00">AP_HAL::UARTDriver</text>
<text text-anchor="middle" x="1172.5" y="-53.5" font-family="Helvetica,sans-Serif" font-size="10.00">::vprintf</text>
</a>
</g>
</g>
<!-- Node17&#45;&gt;Node18 -->
<g id="edge17" class="edge"><title>Node17&#45;&gt;Node18</title>
<path fill="none" stroke="midnightblue" d="M1060.38,-63.4843C1074.69,-63.2288 1090.17,-62.9523 1104.91,-62.6892"/>
<polygon fill="midnightblue" stroke="midnightblue" points="1105.03,-66.1876 1114.97,-62.5095 1104.91,-59.1887 1105.03,-66.1876"/>
</g>
<!-- Node19 -->
<g id="node19" class="node"><title>Node19</title>
<g id="a_node19"><a xlink:href="print__vprintf_8cpp.html#a1534eaeab54696df96975b56d9f49212" target="_top" xlink:title="print_vprintf">
<polygon fill="white" stroke="black" points="1302,-101 1302,-120 1370,-120 1370,-101 1302,-101"/>
<text text-anchor="middle" x="1336" y="-108" font-family="Helvetica,sans-Serif" font-size="10.00">print_vprintf</text>
</a>
</g>
</g>
<!-- Node18&#45;&gt;Node19 -->
<g id="edge18" class="edge"><title>Node18&#45;&gt;Node19</title>
<path fill="none" stroke="midnightblue" d="M1223.27,-76.6014C1245.84,-83.4471 1272.2,-91.4466 1293.65,-97.9551"/>
<polygon fill="midnightblue" stroke="midnightblue" points="1292.85,-101.37 1303.44,-100.925 1294.89,-94.6719 1292.85,-101.37"/>
</g>
<!-- Node20 -->
<g id="node20" class="node"><title>Node20</title>
<g id="a_node20"><a xlink:href="classAP__HAL_1_1Print.html#acc65391952a43334f8f5c9bef341f501" target="_top" xlink:title="AP_HAL::Print::write">
<polygon fill="white" stroke="black" points="1454.5,-158 1454.5,-177 1562.5,-177 1562.5,-158 1454.5,-158"/>
<text text-anchor="middle" x="1508.5" y="-165" font-family="Helvetica,sans-Serif" font-size="10.00">AP_HAL::Print::write</text>
</a>
</g>
</g>
<!-- Node19&#45;&gt;Node20 -->
<g id="edge19" class="edge"><title>Node19&#45;&gt;Node20</title>
<path fill="none" stroke="midnightblue" d="M1360.2,-120.073C1380.32,-128.191 1410.32,-139.86 1437,-148.5 1444.21,-150.835 1451.9,-153.116 1459.45,-155.241"/>
<polygon fill="midnightblue" stroke="midnightblue" points="1458.67,-158.657 1469.24,-157.936 1460.53,-151.908 1458.67,-158.657"/>
</g>
<!-- Node21 -->
<g id="node21" class="node"><title>Node21</title>
<g id="a_node21"><a xlink:href="ftoa__engine_8cpp.html#a1c28234da8f20b43c85890d4bb452947" target="_top" xlink:title="ftoa_engine">
<polygon fill="white" stroke="black" points="1475,-120 1475,-139 1542,-139 1542,-120 1475,-120"/>
<text text-anchor="middle" x="1508.5" y="-127" font-family="Helvetica,sans-Serif" font-size="10.00">ftoa_engine</text>
</a>
</g>
</g>
<!-- Node19&#45;&gt;Node21 -->
<g id="edge20" class="edge"><title>Node19&#45;&gt;Node21</title>
<path fill="none" stroke="midnightblue" d="M1370.28,-114.208C1397.33,-117.223 1435.66,-121.494 1464.94,-124.757"/>
<polygon fill="midnightblue" stroke="midnightblue" points="1464.56,-128.236 1474.88,-125.865 1465.33,-121.279 1464.56,-128.236"/>
</g>
<!-- Node22 -->
<g id="node22" class="node"><title>Node22</title>
<g id="a_node22"><a xlink:href="replace_8cpp.html#a880bcc7b85a09e6254691bebd5344b51" target="_top" xlink:title="strnlen">
<polygon fill="white" stroke="black" points="1485.5,-82 1485.5,-101 1531.5,-101 1531.5,-82 1485.5,-82"/>
<text text-anchor="middle" x="1508.5" y="-89" font-family="Helvetica,sans-Serif" font-size="10.00">strnlen</text>
</a>
</g>
</g>
<!-- Node19&#45;&gt;Node22 -->
<g id="edge21" class="edge"><title>Node19&#45;&gt;Node22</title>
<path fill="none" stroke="midnightblue" d="M1370.28,-106.792C1400.71,-103.401 1445.42,-98.418 1475.45,-95.0711"/>
<polygon fill="midnightblue" stroke="midnightblue" points="1475.87,-98.5468 1485.42,-93.9607 1475.09,-91.5899 1475.87,-98.5468"/>
</g>
<!-- Node23 -->
<g id="node23" class="node"><title>Node23</title>
<g id="a_node23"><a xlink:href="utoa__invert_8cpp.html#a34926f552460b47c414ec4d83b32815c" target="_top" xlink:title="ulltoa_invert">
<polygon fill="white" stroke="black" points="1474,-44 1474,-63 1543,-63 1543,-44 1474,-44"/>
<text text-anchor="middle" x="1508.5" y="-51" font-family="Helvetica,sans-Serif" font-size="10.00">ulltoa_invert</text>
</a>
</g>
</g>
<!-- Node19&#45;&gt;Node23 -->
<g id="edge22" class="edge"><title>Node19&#45;&gt;Node23</title>
<path fill="none" stroke="midnightblue" d="M1360.2,-100.927C1380.32,-92.8087 1410.32,-81.1405 1437,-72.5 1445.67,-69.6907 1455.04,-66.9601 1464.02,-64.4858"/>
<polygon fill="midnightblue" stroke="midnightblue" points="1465.2,-67.793 1473.95,-61.8105 1463.38,-61.0343 1465.2,-67.793"/>
</g>
<!-- Node24 -->
<g id="node24" class="node"><title>Node24</title>
<g id="a_node24"><a xlink:href="utoa__invert_8cpp.html#a5d99bba8e697c1e11da489d88fca8559" target="_top" xlink:title="ultoa_invert">
<polygon fill="white" stroke="black" points="1475,-196 1475,-215 1542,-215 1542,-196 1475,-196"/>
<text text-anchor="middle" x="1508.5" y="-203" font-family="Helvetica,sans-Serif" font-size="10.00">ultoa_invert</text>
</a>
</g>
</g>
<!-- Node19&#45;&gt;Node24 -->
<g id="edge23" class="edge"><title>Node19&#45;&gt;Node24</title>
<path fill="none" stroke="midnightblue" d="M1346.9,-120.169C1363.91,-136.257 1400.4,-168.523 1437,-186.5 1445.78,-190.814 1455.68,-194.253 1465.22,-196.954"/>
<polygon fill="midnightblue" stroke="midnightblue" points="1464.41,-200.36 1474.97,-199.506 1466.18,-193.588 1464.41,-200.36"/>
</g>
<!-- Node25&#45;&gt;Node4 -->
<g id="edge25" class="edge"><title>Node25&#45;&gt;Node4</title>
<path fill="none" stroke="midnightblue" d="M781.461,-10.3475C731.808,-7.31931 653.019,-9.86817 599,-47.5 446.783,-153.54 385.233,-391.491 369.989,-461.663"/>
<polygon fill="midnightblue" stroke="midnightblue" points="366.497,-461.265 367.866,-471.771 373.347,-462.704 366.497,-461.265"/>
</g>
<!-- Node26 -->
<g id="node26" class="node"><title>Node26</title>
<g id="a_node26"><a xlink:href="classLinux_1_1Thread.html#a6884970a0811ae21953c57fb98aa6e96" target="_top" xlink:title="Linux::Thread::get\l_stack_usage">
<polygon fill="white" stroke="black" points="1924,-155.5 1924,-185.5 2019,-185.5 2019,-155.5 1924,-155.5"/>
<text text-anchor="start" x="1932" y="-173.5" font-family="Helvetica,sans-Serif" font-size="10.00">Linux::Thread::get</text>
<text text-anchor="middle" x="1971.5" y="-162.5" font-family="Helvetica,sans-Serif" font-size="10.00">_stack_usage</text>
</a>
</g>
</g>
<!-- Node25&#45;&gt;Node26 -->
<g id="edge26" class="edge"><title>Node25&#45;&gt;Node26</title>
<path fill="none" stroke="midnightblue" d="M876.676,-15.5C942.437,-15.5 1066.12,-15.5 1171.5,-15.5 1171.5,-15.5 1171.5,-15.5 1672.5,-15.5 1786.34,-15.5 1899.84,-105.624 1947.32,-148.429"/>
<polygon fill="midnightblue" stroke="midnightblue" points="1945.15,-151.184 1954.89,-155.356 1949.88,-146.021 1945.15,-151.184"/>
</g>
<!-- Node27&#45;&gt;Node4 -->
<g id="edge28" class="edge"><title>Node27&#45;&gt;Node4</title>
<path fill="none" stroke="midnightblue" d="M603.166,-655.581C557.251,-658.073 493.786,-654.557 448,-624.5 403.487,-595.278 380.362,-532.994 371.049,-501.144"/>
<polygon fill="midnightblue" stroke="midnightblue" points="374.354,-499.96 368.319,-491.251 367.606,-501.822 374.354,-499.96"/>
</g>
<!-- Node28 -->
<g id="node28" class="node"><title>Node28</title>
<g id="a_node28"><a xlink:href="classLinux_1_1Scheduler.html#a647872aff158b510c56862f51f951538" target="_top" xlink:title="Linux::Scheduler::microsleep">
<polygon fill="white" stroke="black" points="1437,-563 1437,-582 1580,-582 1580,-563 1437,-563"/>
<text text-anchor="middle" x="1508.5" y="-570" font-family="Helvetica,sans-Serif" font-size="10.00">Linux::Scheduler::microsleep</text>
</a>
</g>
</g>
<!-- Node27&#45;&gt;Node28 -->
<g id="edge29" class="edge"><title>Node27&#45;&gt;Node28</title>
<path fill="none" stroke="midnightblue" d="M722.532,-648.5C789.839,-648.5 903.648,-648.5 1001.5,-648.5 1001.5,-648.5 1001.5,-648.5 1173.5,-648.5 1285.37,-648.5 1413.18,-607.462 1473.1,-585.697"/>
<polygon fill="midnightblue" stroke="midnightblue" points="1474.62,-588.865 1482.8,-582.125 1472.21,-582.296 1474.62,-588.865"/>
</g>
<!-- Node29&#45;&gt;Node28 -->
<g id="edge31" class="edge"><title>Node29&#45;&gt;Node28</title>
<path fill="none" stroke="midnightblue" d="M1395.68,-572.5C1405.75,-572.5 1416.37,-572.5 1426.9,-572.5"/>
<polygon fill="midnightblue" stroke="midnightblue" points="1426.95,-576 1436.95,-572.5 1426.95,-569 1426.95,-576"/>
</g>
<!-- Node31&#45;&gt;Node17 -->
<g id="edge35" class="edge"><title>Node31&#45;&gt;Node17</title>
<path fill="none" stroke="midnightblue" d="M893.373,-64.5C906.831,-64.5 921.081,-64.5 934.663,-64.5"/>
<polygon fill="midnightblue" stroke="midnightblue" points="934.896,-68.0001 944.896,-64.5 934.896,-61.0001 934.896,-68.0001"/>
</g>
<!-- Node33 -->
<g id="node33" class="node"><title>Node33</title>
<g id="a_node33"><a xlink:href="classLinux_1_1Semaphore.html#afc4c8706abb7e68aa4001ea372dc614e" target="_top" xlink:title="Linux::Semaphore::take">
<polygon fill="white" stroke="black" points="942.5,-431 942.5,-450 1062.5,-450 1062.5,-431 942.5,-431"/>
<text text-anchor="middle" x="1002.5" y="-438" font-family="Helvetica,sans-Serif" font-size="10.00">Linux::Semaphore::take</text>
</a>
</g>
</g>
<!-- Node32&#45;&gt;Node33 -->
<g id="edge37" class="edge"><title>Node32&#45;&gt;Node33</title>
<path fill="none" stroke="midnightblue" d="M895.326,-440.5C907.38,-440.5 920.006,-440.5 932.174,-440.5"/>
<polygon fill="midnightblue" stroke="midnightblue" points="932.265,-444 942.265,-440.5 932.265,-437 932.265,-444"/>
</g>
<!-- Node33&#45;&gt;Node15 -->
<g id="edge49" class="edge"><title>Node33&#45;&gt;Node15</title>
<path fill="none" stroke="midnightblue" d="M1038.31,-430.969C1058.24,-425.512 1083.88,-418.492 1107.33,-412.072"/>
<polygon fill="midnightblue" stroke="midnightblue" points="1108.5,-415.38 1117.22,-409.363 1106.65,-408.628 1108.5,-415.38"/>
</g>
<!-- Node34 -->
<g id="node34" class="node"><title>Node34</title>
<g id="a_node34"><a xlink:href="classLinux_1_1Semaphore.html#a561b4f40f3a76335f1a686c2aed526f9" target="_top" xlink:title="Linux::Semaphore::take\l_nonblocking">
<polygon fill="white" stroke="black" points="1112.5,-428.5 1112.5,-458.5 1232.5,-458.5 1232.5,-428.5 1112.5,-428.5"/>
<text text-anchor="start" x="1120.5" y="-446.5" font-family="Helvetica,sans-Serif" font-size="10.00">Linux::Semaphore::take</text>
<text text-anchor="middle" x="1172.5" y="-435.5" font-family="Helvetica,sans-Serif" font-size="10.00">_nonblocking</text>
</a>
</g>
</g>
<!-- Node33&#45;&gt;Node34 -->
<g id="edge38" class="edge"><title>Node33&#45;&gt;Node34</title>
<path fill="none" stroke="midnightblue" d="M1062.73,-441.558C1075.4,-441.784 1088.9,-442.025 1101.92,-442.258"/>
<polygon fill="midnightblue" stroke="midnightblue" points="1102.18,-445.763 1112.24,-442.442 1102.3,-438.764 1102.18,-445.763"/>
</g>
<!-- Node35 -->
<g id="node35" class="node"><title>Node35</title>
<g id="a_node35"><a xlink:href="namespaceAP__HAL.html#a7aa0ce7625c9680e30ff4a99940907a5" target="_top" xlink:title="AP_HAL::micros64">
<polygon fill="white" stroke="black" points="1122,-478 1122,-497 1223,-497 1223,-478 1122,-478"/>
<text text-anchor="middle" x="1172.5" y="-485" font-family="Helvetica,sans-Serif" font-size="10.00">AP_HAL::micros64</text>
</a>
</g>
</g>
<!-- Node33&#45;&gt;Node35 -->
<g id="edge39" class="edge"><title>Node33&#45;&gt;Node35</title>
<path fill="none" stroke="midnightblue" d="M1037.5,-450.011C1063.37,-457.25 1099.2,-467.272 1127.3,-475.133"/>
<polygon fill="midnightblue" stroke="midnightblue" points="1126.69,-478.599 1137.27,-477.922 1128.58,-471.858 1126.69,-478.599"/>
</g>
<!-- Node35&#45;&gt;Node5 -->
<g id="edge40" class="edge"><title>Node35&#45;&gt;Node5</title>
<path fill="none" stroke="midnightblue" d="M1121.7,-496.269C1018.34,-512.005 775.492,-536.034 599,-451.5 562.28,-433.912 532.739,-394.95 517.585,-371.801"/>
<polygon fill="midnightblue" stroke="midnightblue" points="520.465,-369.808 512.159,-363.23 514.551,-373.552 520.465,-369.808"/>
</g>
<!-- Node35&#45;&gt;Node36 -->
<g id="edge41" class="edge"><title>Node35&#45;&gt;Node36</title>
<path fill="none" stroke="midnightblue" d="M1223.27,-493.047C1235.12,-494.368 1248.02,-495.805 1260.7,-497.219"/>
<polygon fill="midnightblue" stroke="midnightblue" points="1260.47,-500.715 1270.8,-498.345 1261.25,-493.758 1260.47,-500.715"/>
</g>
<!-- Node36&#45;&gt;Node28 -->
<g id="edge42" class="edge"><title>Node36&#45;&gt;Node28</title>
<path fill="none" stroke="midnightblue" d="M1375.26,-520.536C1404.77,-532.132 1445.21,-548.021 1473.57,-559.166"/>
<polygon fill="midnightblue" stroke="midnightblue" points="1472.47,-562.496 1483.06,-562.896 1475.03,-555.981 1472.47,-562.496"/>
</g>
<!-- Node37 -->
<g id="node37" class="node"><title>Node37</title>
<g id="a_node37"><a xlink:href="classLinux_1_1Scheduler.html#ab373a83d818679432520ea881044b2a7" target="_top" xlink:title="Linux::Scheduler::teardown">
<polygon fill="white" stroke="black" points="1441,-365 1441,-384 1576,-384 1576,-365 1441,-365"/>
<text text-anchor="middle" x="1508.5" y="-372" font-family="Helvetica,sans-Serif" font-size="10.00">Linux::Scheduler::teardown</text>
</a>
</g>
</g>
<!-- Node36&#45;&gt;Node37 -->
<g id="edge43" class="edge"><title>Node36&#45;&gt;Node37</title>
<path fill="none" stroke="midnightblue" d="M1356.56,-490.473C1389,-465.549 1453.64,-415.885 1486.81,-390.398"/>
<polygon fill="midnightblue" stroke="midnightblue" points="1489.1,-393.047 1494.9,-384.179 1484.84,-387.497 1489.1,-393.047"/>
</g>
<!-- Node38 -->
<g id="node38" class="node"><title>Node38</title>
<g id="a_node38"><a xlink:href="classLinux_1_1PeriodicThread.html#a136aaf6e713f63b246fc4a2905e6e9a1" target="_top" xlink:title="Linux::PeriodicThread\l::stop">
<polygon fill="white" stroke="black" points="1616,-359.5 1616,-389.5 1727,-389.5 1727,-359.5 1616,-359.5"/>
<text text-anchor="start" x="1624" y="-377.5" font-family="Helvetica,sans-Serif" font-size="10.00">Linux::PeriodicThread</text>
<text text-anchor="middle" x="1671.5" y="-366.5" font-family="Helvetica,sans-Serif" font-size="10.00">::stop</text>
</a>
</g>
</g>
<!-- Node37&#45;&gt;Node38 -->
<g id="edge44" class="edge"><title>Node37&#45;&gt;Node38</title>
<path fill="none" stroke="midnightblue" d="M1576.38,-374.5C1586.02,-374.5 1595.94,-374.5 1605.54,-374.5"/>
<polygon fill="midnightblue" stroke="midnightblue" points="1605.82,-378 1615.82,-374.5 1605.82,-371 1605.82,-378"/>
</g>
<!-- Node41 -->
<g id="node41" class="node"><title>Node41</title>
<g id="a_node41"><a xlink:href="classLinux_1_1Thread.html#a32b7d184279634922e2f3b23b584fbcd" target="_top" xlink:title="Linux::Thread::join">
<polygon fill="white" stroke="black" points="1623,-321 1623,-340 1720,-340 1720,-321 1623,-321"/>
<text text-anchor="middle" x="1671.5" y="-328" font-family="Helvetica,sans-Serif" font-size="10.00">Linux::Thread::join</text>
</a>
</g>
</g>
<!-- Node37&#45;&gt;Node41 -->
<g id="edge48" class="edge"><title>Node37&#45;&gt;Node41</title>
<path fill="none" stroke="midnightblue" d="M1544.43,-364.953C1568.28,-358.437 1600.07,-349.749 1625.76,-342.728"/>
<polygon fill="midnightblue" stroke="midnightblue" points="1626.91,-346.041 1635.63,-340.029 1625.06,-339.289 1626.91,-346.041"/>
</g>
<!-- Node39 -->
<g id="node39" class="node"><title>Node39</title>
<g id="a_node39"><a xlink:href="classLinux_1_1Thread.html#a240d7b48a9a8eb43638f67295a1819e5" target="_top" xlink:title="Linux::Thread::is_started">
<polygon fill="white" stroke="black" points="1763,-287 1763,-306 1888,-306 1888,-287 1763,-287"/>
<text text-anchor="middle" x="1825.5" y="-294" font-family="Helvetica,sans-Serif" font-size="10.00">Linux::Thread::is_started</text>
</a>
</g>
</g>
<!-- Node38&#45;&gt;Node39 -->
<g id="edge45" class="edge"><title>Node38&#45;&gt;Node39</title>
<path fill="none" stroke="midnightblue" d="M1706.39,-359.384C1713.26,-356.204 1720.39,-352.808 1727,-349.5 1751.73,-337.126 1779.37,-321.969 1798.89,-311.038"/>
<polygon fill="midnightblue" stroke="midnightblue" points="1800.77,-313.996 1807.77,-306.042 1797.34,-307.895 1800.77,-313.996"/>
</g>
<!-- Node39&#45;&gt;Node26 -->
<g id="edge46" class="edge"><title>Node39&#45;&gt;Node26</title>
<path fill="none" stroke="midnightblue" d="M1837.8,-286.613C1860.9,-266.397 1914.03,-219.913 1945.61,-192.282"/>
<polygon fill="midnightblue" stroke="midnightblue" points="1947.92,-194.91 1953.14,-185.691 1943.31,-189.642 1947.92,-194.91"/>
</g>
<!-- Node40 -->
<g id="node40" class="node"><title>Node40</title>
<g id="a_node40"><a xlink:href="classLinux_1_1Thread.html#a8d3282b714faaf68eae534e9276419f0" target="_top" xlink:title="Linux::Thread::set\l_stack_size">
<polygon fill="white" stroke="black" points="1924,-281.5 1924,-311.5 2019,-311.5 2019,-281.5 1924,-281.5"/>
<text text-anchor="start" x="1932" y="-299.5" font-family="Helvetica,sans-Serif" font-size="10.00">Linux::Thread::set</text>
<text text-anchor="middle" x="1971.5" y="-288.5" font-family="Helvetica,sans-Serif" font-size="10.00">_stack_size</text>
</a>
</g>
</g>
<!-- Node39&#45;&gt;Node40 -->
<g id="edge47" class="edge"><title>Node39&#45;&gt;Node40</title>
<path fill="none" stroke="midnightblue" d="M1888.4,-296.5C1896.86,-296.5 1905.5,-296.5 1913.86,-296.5"/>
<polygon fill="midnightblue" stroke="midnightblue" points="1913.87,-300 1923.87,-296.5 1913.87,-293 1913.87,-300"/>
</g>
<!-- Node43 -->
<g id="node43" class="node"><title>Node43</title>
<g id="a_node43"><a xlink:href="classLinux_1_1Semaphore.html#a216f91636f64b57b59d43ef64af91624" target="_top" xlink:title="Linux::Semaphore::give">
<polygon fill="white" stroke="black" points="943,-328 943,-347 1062,-347 1062,-328 943,-328"/>
<text text-anchor="middle" x="1002.5" y="-335" font-family="Helvetica,sans-Serif" font-size="10.00">Linux::Semaphore::give</text>
</a>
</g>
</g>
<!-- Node42&#45;&gt;Node43 -->
<g id="edge51" class="edge"><title>Node42&#45;&gt;Node43</title>
<path fill="none" stroke="midnightblue" d="M873.362,-270.513C880.659,-273.322 888.099,-276.367 895,-279.5 923.89,-292.617 955.672,-310.389 976.93,-322.791"/>
<polygon fill="midnightblue" stroke="midnightblue" points="975.239,-325.857 985.633,-327.911 978.789,-319.824 975.239,-325.857"/>
</g>
<!-- Node46&#45;&gt;Node7 -->
<g id="edge55" class="edge"><title>Node46&#45;&gt;Node7</title>
<path fill="none" stroke="midnightblue" d="M710.705,-289.461C716.471,-286.616 722.063,-283.311 727,-279.5 748.39,-262.986 740.862,-245.998 763,-230.5 767.454,-227.382 772.421,-224.77 777.569,-222.583"/>
<polygon fill="midnightblue" stroke="midnightblue" points="778.809,-225.857 786.961,-219.089 776.368,-219.296 778.809,-225.857"/>
</g>
<!-- Node47 -->
<g id="node47" class="node"><title>Node47</title>
<g id="a_node47"><a xlink:href="classLinux_1_1Scheduler.html#ac52c8da3f1f4fd79c50bd64379daf399" target="_top" xlink:title="Linux::Scheduler::\l_wait_all_threads">
<polygon fill="white" stroke="black" points="781.5,-289.5 781.5,-319.5 876.5,-319.5 876.5,-289.5 781.5,-289.5"/>
<text text-anchor="start" x="789.5" y="-307.5" font-family="Helvetica,sans-Serif" font-size="10.00">Linux::Scheduler::</text>
<text text-anchor="middle" x="829" y="-296.5" font-family="Helvetica,sans-Serif" font-size="10.00">_wait_all_threads</text>
</a>
</g>
</g>
<!-- Node46&#45;&gt;Node47 -->
<g id="edge56" class="edge"><title>Node46&#45;&gt;Node47</title>
<path fill="none" stroke="midnightblue" d="M727.407,-304.5C741.84,-304.5 757.085,-304.5 771.222,-304.5"/>
<polygon fill="midnightblue" stroke="midnightblue" points="771.293,-308 781.293,-304.5 771.293,-301 771.293,-308"/>
</g>
<!-- Node50 -->
<g id="node50" class="node"><title>Node50</title>
<g id="a_node50"><a xlink:href="classLinux_1_1Scheduler.html#a70b024d7d0886bf47b46cc3ee310d638" target="_top" xlink:title="Linux::Scheduler::\l_run_io">
<polygon fill="white" stroke="black" points="781.5,-338.5 781.5,-368.5 876.5,-368.5 876.5,-338.5 781.5,-338.5"/>
<text text-anchor="start" x="789.5" y="-356.5" font-family="Helvetica,sans-Serif" font-size="10.00">Linux::Scheduler::</text>
<text text-anchor="middle" x="829" y="-345.5" font-family="Helvetica,sans-Serif" font-size="10.00">_run_io</text>
</a>
</g>
</g>
<!-- Node49&#45;&gt;Node50 -->
<g id="edge59" class="edge"><title>Node49&#45;&gt;Node50</title>
<path fill="none" stroke="midnightblue" d="M720.439,-353.5C736.86,-353.5 754.799,-353.5 771.239,-353.5"/>
<polygon fill="midnightblue" stroke="midnightblue" points="771.255,-357 781.255,-353.5 771.254,-350 771.255,-357"/>
</g>
<!-- Node50&#45;&gt;Node33 -->
<g id="edge60" class="edge"><title>Node50&#45;&gt;Node33</title>
<path fill="none" stroke="midnightblue" d="M859.873,-368.654C891.879,-384.89 942.279,-410.458 973.531,-426.312"/>
<polygon fill="midnightblue" stroke="midnightblue" points="972.072,-429.496 982.574,-430.899 975.239,-423.253 972.072,-429.496"/>
</g>
<!-- Node50&#45;&gt;Node43 -->
<g id="edge61" class="edge"><title>Node50&#45;&gt;Node43</title>
<path fill="none" stroke="midnightblue" d="M876.863,-349.128C894.097,-347.52 913.989,-345.664 932.75,-343.914"/>
<polygon fill="midnightblue" stroke="midnightblue" points="933.103,-347.396 942.734,-342.983 932.452,-340.427 933.103,-347.396"/>
</g>
</g>
</svg>
