<?xml version="1.0" encoding="UTF-8" standalone="no"?>
<!DOCTYPE svg PUBLIC "-//W3C//DTD SVG 1.1//EN"
 "http://www.w3.org/Graphics/SVG/1.1/DTD/svg11.dtd">
<!-- Generated by graphviz version 2.38.0 (20140413.2041)
 -->
<!-- Title: SITL::FlightAxis::create Pages: 1 -->
<!--zoomable 477 -->
<svg id="main" version="1.1" xmlns="http://www.w3.org/2000/svg" xmlns:xlink="http://www.w3.org/1999/xlink" xml:space="preserve" onload="init(evt)">
<style type="text/css"><![CDATA[
.edge:hover path { stroke: red; }
.edge:hover polygon { stroke: red; fill: red; }
]]></style>
<script type="text/javascript"><![CDATA[
var edges = document.getElementsByTagName('g');
if (edges && edges.length) {
  for (var i=0;i<edges.length;i++) {
    if (edges[i].id.substr(0,4)=='edge') {
      edges[i].setAttribute('class','edge');
    }
  }
}
]]></script>
        <defs>
                <circle id="rim" cx="0" cy="0" r="7"/>
                <circle id="rim2" cx="0" cy="0" r="3.5"/>
                <g id="zoomPlus">
                        <use xlink:href="#rim" fill="#404040">
                                <set attributeName="fill" to="#808080" begin="zoomplus.mouseover" end="zoomplus.mouseout"/>
                        </use>
                        <path d="M-4,0h8M0,-4v8" fill="none" stroke="white" stroke-width="1.5" pointer-events="none"/>
                </g>
                <g id="zoomMin">
                        <use xlink:href="#rim" fill="#404040">
                                <set attributeName="fill" to="#808080" begin="zoomminus.mouseover" end="zoomminus.mouseout"/>
                        </use>
                        <path d="M-4,0h8" fill="none" stroke="white" stroke-width="1.5" pointer-events="none"/>
                </g>
                <g id="dirArrow">
                        <path fill="none" stroke="white" stroke-width="1.5" d="M0,-3.0v7 M-2.5,-0.5L0,-3.0L2.5,-0.5"/>
                </g>
               <g id="resetDef">
                       <use xlink:href="#rim2" fill="#404040">
                               <set attributeName="fill" to="#808080" begin="reset.mouseover" end="reset.mouseout"/>
                       </use>
               </g>
        </defs>

<script type="text/javascript">
var viewWidth = 1111;
var viewHeight = 477;
var sectionId = 'dynsection-4';
</script>
<script xlink:href="svgpan.js"/>
<svg id="graph" class="graph">
<g id="viewport">
<title>SITL::FlightAxis::create</title>
<polygon fill="white" stroke="none" points="-4,4 -4,-472.5 1107,-472.5 1107,4 -4,4"/>
<!-- Node1 -->
<g id="node1" class="node"><title>Node1</title>
<polygon fill="#bfbfbf" stroke="black" points="0,-230 0,-249 120,-249 120,-230 0,-230"/>
<text text-anchor="middle" x="60" y="-237" font-family="Helvetica,sans-Serif" font-size="10.00">SITL::FlightAxis::create</text>
</g>
<!-- Node2 -->
<g id="node2" class="node"><title>Node2</title>
<g id="a_node2"><a xlink:href="classSITL_1_1FlightAxis.html#afc9e225252f3015562d2d36619bc5021" target="_top" xlink:title="SITL::FlightAxis::FlightAxis">
<polygon fill="white" stroke="black" points="156,-230 156,-249 293,-249 293,-230 156,-230"/>
<text text-anchor="middle" x="224.5" y="-237" font-family="Helvetica,sans-Serif" font-size="10.00">SITL::FlightAxis::FlightAxis</text>
</a>
</g>
</g>
<!-- Node1&#45;&gt;Node2 -->
<g id="edge1" class="edge"><title>Node1&#45;&gt;Node2</title>
<path fill="none" stroke="midnightblue" d="M120.126,-239.5C128.475,-239.5 137.161,-239.5 145.794,-239.5"/>
<polygon fill="midnightblue" stroke="midnightblue" points="145.88,-243 155.88,-239.5 145.88,-236 145.88,-243"/>
</g>
<!-- Node3 -->
<g id="node3" class="node"><title>Node3</title>
<g id="a_node3"><a xlink:href="classAP__Param.html#a2b48c93dbe81f66160ffcd23f1d89dc4" target="_top" xlink:title="AP_Param::set_default\l_by_name">
<polygon fill="white" stroke="black" points="329,-302.5 329,-332.5 447,-332.5 447,-302.5 329,-302.5"/>
<text text-anchor="start" x="337" y="-320.5" font-family="Helvetica,sans-Serif" font-size="10.00">AP_Param::set_default</text>
<text text-anchor="middle" x="388" y="-309.5" font-family="Helvetica,sans-Serif" font-size="10.00">_by_name</text>
</a>
</g>
</g>
<!-- Node2&#45;&gt;Node3 -->
<g id="edge2" class="edge"><title>Node2&#45;&gt;Node3</title>
<path fill="none" stroke="midnightblue" d="M245.303,-249.064C270.371,-261.172 314.175,-282.328 346.462,-297.921"/>
<polygon fill="midnightblue" stroke="midnightblue" points="345.131,-301.165 355.658,-302.363 348.175,-294.862 345.131,-301.165"/>
</g>
<!-- Node10 -->
<g id="node10" class="node"><title>Node10</title>
<g id="a_node10"><a xlink:href="classMatrix3.html#a62587bd216436f09f06b9e1330f84bc0" target="_top" xlink:title="Matrix3::from_euler">
<polygon fill="white" stroke="black" points="337.5,-249 337.5,-268 438.5,-268 438.5,-249 337.5,-249"/>
<text text-anchor="middle" x="388" y="-256" font-family="Helvetica,sans-Serif" font-size="10.00">Matrix3::from_euler</text>
</a>
</g>
</g>
<!-- Node2&#45;&gt;Node10 -->
<g id="edge13" class="edge"><title>Node2&#45;&gt;Node10</title>
<path fill="none" stroke="midnightblue" d="M293.055,-247.448C304.437,-248.787 316.179,-250.168 327.343,-251.482"/>
<polygon fill="midnightblue" stroke="midnightblue" points="327.065,-254.973 337.406,-252.665 327.883,-248.021 327.065,-254.973"/>
</g>
<!-- Node11 -->
<g id="node11" class="node"><title>Node11</title>
<g id="a_node11"><a xlink:href="AP__Math_8h.html#a75b14352ec1c95a8276af9a0813cfdc3" target="_top" xlink:title="radians">
<polygon fill="white" stroke="black" points="364,-211 364,-230 412,-230 412,-211 364,-211"/>
<text text-anchor="middle" x="388" y="-218" font-family="Helvetica,sans-Serif" font-size="10.00">radians</text>
</a>
</g>
</g>
<!-- Node2&#45;&gt;Node11 -->
<g id="edge14" class="edge"><title>Node2&#45;&gt;Node11</title>
<path fill="none" stroke="midnightblue" d="M293.055,-231.552C313.956,-229.093 336.07,-226.492 353.588,-224.431"/>
<polygon fill="midnightblue" stroke="midnightblue" points="354.328,-227.868 363.85,-223.223 353.51,-220.916 354.328,-227.868"/>
</g>
<!-- Node12 -->
<g id="node12" class="node"><title>Node12</title>
<g id="a_node12"><a xlink:href="namespaceAP__HAL.html#a71832f03d849a0c088f04fc98d3c8143" target="_top" xlink:title="AP_HAL::panic">
<polygon fill="white" stroke="black" points="346,-143 346,-162 430,-162 430,-143 346,-143"/>
<text text-anchor="middle" x="388" y="-150" font-family="Helvetica,sans-Serif" font-size="10.00">AP_HAL::panic</text>
</a>
</g>
</g>
<!-- Node2&#45;&gt;Node12 -->
<g id="edge15" class="edge"><title>Node2&#45;&gt;Node12</title>
<path fill="none" stroke="midnightblue" d="M243.4,-229.857C271.655,-214.636 326.776,-184.943 359.9,-167.099"/>
<polygon fill="midnightblue" stroke="midnightblue" points="361.876,-170.01 369.019,-162.186 358.556,-163.847 361.876,-170.01"/>
</g>
<!-- Node4 -->
<g id="node4" class="node"><title>Node4</title>
<g id="a_node4"><a xlink:href="classAP__Param.html#a3e646a4ec73842265e47d9ccfe0ced9d" target="_top" xlink:title="AP_Param::find">
<polygon fill="white" stroke="black" points="511.5,-323 511.5,-342 597.5,-342 597.5,-323 511.5,-323"/>
<text text-anchor="middle" x="554.5" y="-330" font-family="Helvetica,sans-Serif" font-size="10.00">AP_Param::find</text>
</a>
</g>
</g>
<!-- Node3&#45;&gt;Node4 -->
<g id="edge3" class="edge"><title>Node3&#45;&gt;Node4</title>
<path fill="none" stroke="midnightblue" d="M447.46,-322.831C464.896,-324.421 483.893,-326.153 500.929,-327.706"/>
<polygon fill="midnightblue" stroke="midnightblue" points="500.974,-331.225 511.251,-328.647 501.61,-324.254 500.974,-331.225"/>
</g>
<!-- Node5 -->
<g id="node5" class="node"><title>Node5</title>
<g id="a_node5"><a xlink:href="replace_8cpp.html#a880bcc7b85a09e6254691bebd5344b51" target="_top" xlink:title="strnlen">
<polygon fill="white" stroke="black" points="867,-449 867,-468 913,-468 913,-449 867,-449"/>
<text text-anchor="middle" x="890" y="-456" font-family="Helvetica,sans-Serif" font-size="10.00">strnlen</text>
</a>
</g>
</g>
<!-- Node4&#45;&gt;Node5 -->
<g id="edge4" class="edge"><title>Node4&#45;&gt;Node5</title>
<path fill="none" stroke="midnightblue" d="M571.259,-342.204C591.635,-354.451 628.492,-375.592 662,-389.5 731.082,-418.174 751.431,-416.765 823,-438.5 834.113,-441.875 846.279,-445.563 857.106,-448.844"/>
<polygon fill="midnightblue" stroke="midnightblue" points="856.413,-452.291 866.998,-451.84 858.442,-445.591 856.413,-452.291"/>
</g>
<!-- Node6 -->
<g id="node6" class="node"><title>Node6</title>
<g id="a_node6"><a xlink:href="classAP__Param.html#a69baa95e011c7a8c4a29625c558c5501" target="_top" xlink:title="get group_info pointer based on flags ">
<polygon fill="white" stroke="black" points="823,-323 823,-342 957,-342 957,-323 823,-323"/>
<text text-anchor="middle" x="890" y="-330" font-family="Helvetica,sans-Serif" font-size="10.00">AP_Param::get_group_info</text>
</a>
</g>
</g>
<!-- Node4&#45;&gt;Node6 -->
<g id="edge5" class="edge"><title>Node4&#45;&gt;Node6</title>
<path fill="none" stroke="midnightblue" d="M597.738,-332.5C651.754,-332.5 746.268,-332.5 812.958,-332.5"/>
<polygon fill="midnightblue" stroke="midnightblue" points="812.999,-336 822.999,-332.5 812.999,-329 812.999,-336"/>
</g>
<!-- Node7 -->
<g id="node7" class="node"><title>Node7</title>
<g id="a_node7"><a xlink:href="classAP__Param.html#a6d02e2c94f578782f8f68ef0fec7a43d" target="_top" xlink:title="AP_Param::find_group">
<polygon fill="white" stroke="black" points="667,-361 667,-380 782,-380 782,-361 667,-361"/>
<text text-anchor="middle" x="724.5" y="-368" font-family="Helvetica,sans-Serif" font-size="10.00">AP_Param::find_group</text>
</a>
</g>
</g>
<!-- Node4&#45;&gt;Node7 -->
<g id="edge6" class="edge"><title>Node4&#45;&gt;Node7</title>
<path fill="none" stroke="midnightblue" d="M597.893,-342.089C620.263,-347.149 647.898,-353.4 671.547,-358.749"/>
<polygon fill="midnightblue" stroke="midnightblue" points="670.886,-362.187 681.411,-360.98 672.43,-355.36 670.886,-362.187"/>
</g>
<!-- Node9 -->
<g id="node9" class="node"><title>Node9</title>
<g id="a_node9"><a xlink:href="classAP__Param.html#a1dcc7820ea51e29cfb762387a9212818" target="_top" xlink:title="AP_Param::get_base">
<polygon fill="white" stroke="black" points="993,-361 993,-380 1103,-380 1103,-361 993,-361"/>
<text text-anchor="middle" x="1048" y="-368" font-family="Helvetica,sans-Serif" font-size="10.00">AP_Param::get_base</text>
</a>
</g>
</g>
<!-- Node4&#45;&gt;Node9 -->
<g id="edge12" class="edge"><title>Node4&#45;&gt;Node9</title>
<path fill="none" stroke="midnightblue" d="M592.141,-322.995C663.869,-306.067 827.147,-275.839 957,-313.5 984.227,-321.397 1011.12,-340.272 1028.31,-354.148"/>
<polygon fill="midnightblue" stroke="midnightblue" points="1026.44,-357.15 1036.37,-360.864 1030.93,-351.773 1026.44,-357.15"/>
</g>
<!-- Node7&#45;&gt;Node5 -->
<g id="edge11" class="edge"><title>Node7&#45;&gt;Node5</title>
<path fill="none" stroke="midnightblue" d="M736.759,-380.152C754.183,-394.654 789.206,-422.108 823,-438.5 833.722,-443.701 846.083,-447.881 857.188,-451.047"/>
<polygon fill="midnightblue" stroke="midnightblue" points="856.385,-454.456 866.951,-453.671 858.202,-447.695 856.385,-454.456"/>
</g>
<!-- Node7&#45;&gt;Node6 -->
<g id="edge7" class="edge"><title>Node7&#45;&gt;Node6</title>
<path fill="none" stroke="midnightblue" d="M766.758,-360.911C788.431,-355.874 815.183,-349.656 838.13,-344.323"/>
<polygon fill="midnightblue" stroke="midnightblue" points="839.091,-347.693 848.039,-342.02 837.506,-340.875 839.091,-347.693"/>
</g>
<!-- Node8 -->
<g id="node8" class="node"><title>Node8</title>
<g id="a_node8"><a xlink:href="classAP__Param.html#aa8b43d95bca6adbf5497e8102cf73857" target="_top" xlink:title="AP_Param::adjust_group\l_offset">
<polygon fill="white" stroke="black" points="827.5,-399.5 827.5,-429.5 952.5,-429.5 952.5,-399.5 827.5,-399.5"/>
<text text-anchor="start" x="835.5" y="-417.5" font-family="Helvetica,sans-Serif" font-size="10.00">AP_Param::adjust_group</text>
<text text-anchor="middle" x="890" y="-406.5" font-family="Helvetica,sans-Serif" font-size="10.00">_offset</text>
</a>
</g>
</g>
<!-- Node7&#45;&gt;Node8 -->
<g id="edge8" class="edge"><title>Node7&#45;&gt;Node8</title>
<path fill="none" stroke="midnightblue" d="M760.977,-380.047C779.221,-384.957 802.049,-391.1 823.357,-396.835"/>
<polygon fill="midnightblue" stroke="midnightblue" points="822.452,-400.216 833.018,-399.435 824.272,-393.456 822.452,-400.216"/>
</g>
<!-- Node7&#45;&gt;Node9 -->
<g id="edge10" class="edge"><title>Node7&#45;&gt;Node9</title>
<path fill="none" stroke="midnightblue" d="M782.238,-370.5C838.356,-370.5 924.113,-370.5 982.719,-370.5"/>
<polygon fill="midnightblue" stroke="midnightblue" points="982.97,-374 992.97,-370.5 982.97,-367 982.97,-374"/>
</g>
<!-- Node8&#45;&gt;Node9 -->
<g id="edge9" class="edge"><title>Node8&#45;&gt;Node9</title>
<path fill="none" stroke="midnightblue" d="M944.25,-399.481C963.464,-394.061 984.914,-388.011 1003.22,-382.847"/>
<polygon fill="midnightblue" stroke="midnightblue" points="1004.37,-386.162 1013.04,-380.078 1002.47,-379.424 1004.37,-386.162"/>
</g>
<!-- Node13 -->
<g id="node13" class="node"><title>Node13</title>
<g id="a_node13"><a xlink:href="classAP__HAL_1_1RCInput.html#a2bea13d38f2b9ae8bf5193a3a69f0a31" target="_top" xlink:title="AP_HAL::RCInput::teardown">
<polygon fill="white" stroke="black" points="483,-143 483,-162 626,-162 626,-143 483,-143"/>
<text text-anchor="middle" x="554.5" y="-150" font-family="Helvetica,sans-Serif" font-size="10.00">AP_HAL::RCInput::teardown</text>
</a>
</g>
</g>
<!-- Node12&#45;&gt;Node13 -->
<g id="edge16" class="edge"><title>Node12&#45;&gt;Node13</title>
<path fill="none" stroke="midnightblue" d="M430.086,-152.5C443.076,-152.5 457.911,-152.5 472.685,-152.5"/>
<polygon fill="midnightblue" stroke="midnightblue" points="472.88,-156 482.88,-152.5 472.88,-149 472.88,-156"/>
</g>
<!-- Node20 -->
<g id="node20" class="node"><title>Node20</title>
<g id="a_node20"><a xlink:href="classAP__HAL_1_1Scheduler.html#a78c4f1b1f192ac1c99544b6cc8f099b0" target="_top" xlink:title="AP_HAL::Scheduler::\ldelay_microseconds">
<polygon fill="white" stroke="black" points="499.5,-93.5 499.5,-123.5 609.5,-123.5 609.5,-93.5 499.5,-93.5"/>
<text text-anchor="start" x="507.5" y="-111.5" font-family="Helvetica,sans-Serif" font-size="10.00">AP_HAL::Scheduler::</text>
<text text-anchor="middle" x="554.5" y="-100.5" font-family="Helvetica,sans-Serif" font-size="10.00">delay_microseconds</text>
</a>
</g>
</g>
<!-- Node12&#45;&gt;Node20 -->
<g id="edge23" class="edge"><title>Node12&#45;&gt;Node20</title>
<path fill="none" stroke="midnightblue" d="M424.694,-142.953C443.623,-137.89 467.457,-131.514 489.461,-125.629"/>
<polygon fill="midnightblue" stroke="midnightblue" points="490.662,-128.931 499.418,-122.966 488.853,-122.169 490.662,-128.931"/>
</g>
<!-- Node14 -->
<g id="node14" class="node"><title>Node14</title>
<g id="a_node14"><a xlink:href="classAP__HAL_1_1RCInput.html#aee1fade33080edef83dd7db0fad0f7da" target="_top" xlink:title="AP_HAL::RCInput::new\l_input">
<polygon fill="white" stroke="black" points="663.5,-137.5 663.5,-167.5 785.5,-167.5 785.5,-137.5 663.5,-137.5"/>
<text text-anchor="start" x="671.5" y="-155.5" font-family="Helvetica,sans-Serif" font-size="10.00">AP_HAL::RCInput::new</text>
<text text-anchor="middle" x="724.5" y="-144.5" font-family="Helvetica,sans-Serif" font-size="10.00">_input</text>
</a>
</g>
</g>
<!-- Node13&#45;&gt;Node14 -->
<g id="edge17" class="edge"><title>Node13&#45;&gt;Node14</title>
<path fill="none" stroke="midnightblue" d="M626.26,-152.5C635.251,-152.5 644.45,-152.5 653.431,-152.5"/>
<polygon fill="midnightblue" stroke="midnightblue" points="653.454,-156 663.454,-152.5 653.454,-149 653.454,-156"/>
</g>
<!-- Node15 -->
<g id="node15" class="node"><title>Node15</title>
<g id="a_node15"><a xlink:href="classAP__HAL_1_1RCInput.html#ae55f959c6115c1f41783af3a2b6c4fcd" target="_top" xlink:title="AP_HAL::RCInput::num\l_channels">
<polygon fill="white" stroke="black" points="663.5,-88.5 663.5,-118.5 785.5,-118.5 785.5,-88.5 663.5,-88.5"/>
<text text-anchor="start" x="671.5" y="-106.5" font-family="Helvetica,sans-Serif" font-size="10.00">AP_HAL::RCInput::num</text>
<text text-anchor="middle" x="724.5" y="-95.5" font-family="Helvetica,sans-Serif" font-size="10.00">_channels</text>
</a>
</g>
</g>
<!-- Node13&#45;&gt;Node15 -->
<g id="edge18" class="edge"><title>Node13&#45;&gt;Node15</title>
<path fill="none" stroke="midnightblue" d="M589.591,-142.923C601.157,-139.649 614.149,-135.943 626,-132.5 638.177,-128.962 651.194,-125.127 663.621,-121.44"/>
<polygon fill="midnightblue" stroke="midnightblue" points="664.845,-124.728 673.434,-118.524 662.851,-118.018 664.845,-124.728"/>
</g>
<!-- Node16 -->
<g id="node16" class="node"><title>Node16</title>
<g id="a_node16"><a xlink:href="classAP__HAL_1_1RCInput.html#a078fd7e6d2e6a899009ec674a8e03498" target="_top" xlink:title="AP_HAL::RCInput::read">
<polygon fill="white" stroke="black" points="663.5,-50 663.5,-69 785.5,-69 785.5,-50 663.5,-50"/>
<text text-anchor="middle" x="724.5" y="-57" font-family="Helvetica,sans-Serif" font-size="10.00">AP_HAL::RCInput::read</text>
</a>
</g>
</g>
<!-- Node13&#45;&gt;Node16 -->
<g id="edge19" class="edge"><title>Node13&#45;&gt;Node16</title>
<path fill="none" stroke="midnightblue" d="M606.08,-142.912C613.155,-140.248 620.036,-136.845 626,-132.5 649.314,-115.516 638.885,-95.7539 662,-78.5 664.516,-76.6221 667.22,-74.9275 670.041,-73.3986"/>
<polygon fill="midnightblue" stroke="midnightblue" points="671.774,-76.4528 679.361,-69.0583 668.819,-70.1071 671.774,-76.4528"/>
</g>
<!-- Node17 -->
<g id="node17" class="node"><title>Node17</title>
<g id="a_node17"><a xlink:href="classAP__HAL_1_1RCInput.html#a0989c5ca271631fe655c047d4a022a3d" target="_top" xlink:title="AP_HAL::RCInput::set\l_overrides">
<polygon fill="white" stroke="black" points="666,-0.5 666,-30.5 783,-30.5 783,-0.5 666,-0.5"/>
<text text-anchor="start" x="674" y="-18.5" font-family="Helvetica,sans-Serif" font-size="10.00">AP_HAL::RCInput::set</text>
<text text-anchor="middle" x="724.5" y="-7.5" font-family="Helvetica,sans-Serif" font-size="10.00">_overrides</text>
</a>
</g>
</g>
<!-- Node13&#45;&gt;Node17 -->
<g id="edge20" class="edge"><title>Node13&#45;&gt;Node17</title>
<path fill="none" stroke="midnightblue" d="M609.479,-142.955C615.508,-140.279 621.196,-136.861 626,-132.5 658.51,-102.987 631.157,-71.7504 662,-40.5 663.427,-39.0542 664.949,-37.689 666.546,-36.4001"/>
<polygon fill="midnightblue" stroke="midnightblue" points="668.788,-39.1068 675.066,-30.5723 664.837,-33.329 668.788,-39.1068"/>
</g>
<!-- Node18 -->
<g id="node18" class="node"><title>Node18</title>
<g id="a_node18"><a xlink:href="classAP__HAL_1_1RCInput.html#abfd037ca0989a0422a60f418d34eb7d5" target="_top" xlink:title="AP_HAL::RCInput::set\l_override">
<polygon fill="white" stroke="black" points="666,-235.5 666,-265.5 783,-265.5 783,-235.5 666,-235.5"/>
<text text-anchor="start" x="674" y="-253.5" font-family="Helvetica,sans-Serif" font-size="10.00">AP_HAL::RCInput::set</text>
<text text-anchor="middle" x="724.5" y="-242.5" font-family="Helvetica,sans-Serif" font-size="10.00">_override</text>
</a>
</g>
</g>
<!-- Node13&#45;&gt;Node18 -->
<g id="edge21" class="edge"><title>Node13&#45;&gt;Node18</title>
<path fill="none" stroke="midnightblue" d="M567.728,-162.182C586.975,-177.114 625.873,-206.068 662,-225.5 665.711,-227.496 669.617,-229.432 673.586,-231.284"/>
<polygon fill="midnightblue" stroke="midnightblue" points="672.341,-234.562 682.899,-235.443 675.195,-228.17 672.341,-234.562"/>
</g>
<!-- Node19 -->
<g id="node19" class="node"><title>Node19</title>
<g id="a_node19"><a xlink:href="classAP__HAL_1_1RCInput.html#ab3671bbe43fdb97c53071d7832ac256e" target="_top" xlink:title="AP_HAL::RCInput::clear\l_overrides">
<polygon fill="white" stroke="black" points="662,-186.5 662,-216.5 787,-216.5 787,-186.5 662,-186.5"/>
<text text-anchor="start" x="670" y="-204.5" font-family="Helvetica,sans-Serif" font-size="10.00">AP_HAL::RCInput::clear</text>
<text text-anchor="middle" x="724.5" y="-193.5" font-family="Helvetica,sans-Serif" font-size="10.00">_overrides</text>
</a>
</g>
</g>
<!-- Node13&#45;&gt;Node19 -->
<g id="edge22" class="edge"><title>Node13&#45;&gt;Node19</title>
<path fill="none" stroke="midnightblue" d="M588.291,-162.064C609.282,-168.186 637.171,-176.321 662.167,-183.611"/>
<polygon fill="midnightblue" stroke="midnightblue" points="661.365,-187.023 671.945,-186.463 663.325,-180.303 661.365,-187.023"/>
</g>
</g>
</svg>
        <g id="navigator" transform="translate(0 0)" fill="#404254">
                <rect fill="#f2f5e9" fill-opacity="0.5" stroke="#606060" stroke-width=".5" x="0" y="0" width="60" height="60"/>
                <use id="zoomplus" xlink:href="#zoomPlus" x="17" y="9" onmousedown="handleZoom(evt,'in')"/>
                <use id="zoomminus" xlink:href="#zoomMin" x="42" y="9" onmousedown="handleZoom(evt,'out')"/>
                <use id="reset" xlink:href="#resetDef" x="30" y="36" onmousedown="handleReset()"/>
                <g id="arrowUp" xlink:href="#dirArrow" transform="translate(30 24)" onmousedown="handlePan(0,-1)">
                  <use xlink:href="#rim" fill="#404040">
                        <set attributeName="fill" to="#808080" begin="arrowUp.mouseover" end="arrowUp.mouseout"/>
                  </use>
                  <path fill="none" stroke="white" stroke-width="1.5" d="M0,-3.0v7 M-2.5,-0.5L0,-3.0L2.5,-0.5"/>
                </g>
                <g id="arrowRight" xlink:href="#dirArrow" transform="rotate(90) translate(36 -43)" onmousedown="handlePan(1,0)">
                  <use xlink:href="#rim" fill="#404040">
                        <set attributeName="fill" to="#808080" begin="arrowRight.mouseover" end="arrowRight.mouseout"/>
                  </use>
                  <path fill="none" stroke="white" stroke-width="1.5" d="M0,-3.0v7 M-2.5,-0.5L0,-3.0L2.5,-0.5"/>
                </g>
                <g id="arrowDown" xlink:href="#dirArrow" transform="rotate(180) translate(-30 -48)" onmousedown="handlePan(0,1)">
                  <use xlink:href="#rim" fill="#404040">
                        <set attributeName="fill" to="#808080" begin="arrowDown.mouseover" end="arrowDown.mouseout"/>
                  </use>
                  <path fill="none" stroke="white" stroke-width="1.5" d="M0,-3.0v7 M-2.5,-0.5L0,-3.0L2.5,-0.5"/>
                </g>
                <g id="arrowLeft" xlink:href="#dirArrow" transform="rotate(270) translate(-36 17)" onmousedown="handlePan(-1,0)">
                  <use xlink:href="#rim" fill="#404040">
                        <set attributeName="fill" to="#808080" begin="arrowLeft.mouseover" end="arrowLeft.mouseout"/>
                  </use>
                  <path fill="none" stroke="white" stroke-width="1.5" d="M0,-3.0v7 M-2.5,-0.5L0,-3.0L2.5,-0.5"/>
                </g>
        </g>
        <svg viewBox="0 0 15 15" width="100%" height="30px" preserveAspectRatio="xMaxYMin meet">
         <g id="arrow_out" transform="scale(0.3 0.3)">
          <a xlink:href="classSITL_1_1FlightAxis_ab7a4087eeadbf41e4075405074694765_cgraph_org.svg" target="_base">
           <rect id="button" ry="5" rx="5" y="6" x="6" height="38" width="38"
                fill="#f2f5e9" fill-opacity="0.5" stroke="#606060" stroke-width="1.0"/>
           <path id="arrow"
             d="M 11.500037,31.436501 C 11.940474,20.09759 22.043105,11.32322 32.158766,21.979434 L 37.068811,17.246167 C 37.068811,17.246167 37.088388,32 37.088388,32 L 22.160133,31.978069 C 22.160133,31.978069 26.997745,27.140456 26.997745,27.140456 C 18.528582,18.264221 13.291696,25.230495 11.500037,31.436501 z"
             style="fill:#404040;"/>
          </a>
         </g>
        </svg>
</svg>
