<?xml version="1.0" encoding="UTF-8" standalone="no"?>
<!DOCTYPE svg PUBLIC "-//W3C//DTD SVG 1.1//EN"
 "http://www.w3.org/Graphics/SVG/1.1/DTD/svg11.dtd">
<!-- Generated by graphviz version 2.38.0 (20140413.2041)
 -->
<!-- Title: NavEKF2_core::readAirSpdData Pages: 1 -->
<svg width="1235pt" height="116pt"
 viewBox="0.00 0.00 1235.00 115.50" xmlns="http://www.w3.org/2000/svg" xmlns:xlink="http://www.w3.org/1999/xlink">
<g id="graph0" class="graph" transform="scale(1 1) rotate(0) translate(4 111.5)">
<title>NavEKF2_core::readAirSpdData</title>
<polygon fill="white" stroke="none" points="-4,4 -4,-111.5 1231,-111.5 1231,4 -4,4"/>
<!-- Node1 -->
<g id="node1" class="node"><title>Node1</title>
<polygon fill="#bfbfbf" stroke="black" points="0,-19.5 0,-38.5 158,-38.5 158,-19.5 0,-19.5"/>
<text text-anchor="middle" x="79" y="-26.5" font-family="Helvetica,sans-Serif" font-size="10.00">NavEKF2_core::readAirSpdData</text>
</g>
<!-- Node2 -->
<g id="node2" class="node"><title>Node2</title>
<g id="a_node2"><a xlink:href="classNavEKF2__core.html#a387322a0a89407c6293e92dd5d174e12" target="_top" xlink:title="NavEKF2_core::SelectTasFusion">
<polygon fill="white" stroke="black" points="194,-19.5 194,-38.5 357,-38.5 357,-19.5 194,-19.5"/>
<text text-anchor="middle" x="275.5" y="-26.5" font-family="Helvetica,sans-Serif" font-size="10.00">NavEKF2_core::SelectTasFusion</text>
</a>
</g>
</g>
<!-- Node1&#45;&gt;Node2 -->
<g id="edge1" class="edge"><title>Node1&#45;&gt;Node2</title>
<path fill="none" stroke="midnightblue" d="M168.509,-29C176.954,-29 185.487,-29 193.852,-29"/>
<polygon fill="midnightblue" stroke="midnightblue" points="168.27,-25.5001 158.27,-29 168.27,-32.5001 168.27,-25.5001"/>
</g>
<!-- Node3 -->
<g id="node3" class="node"><title>Node3</title>
<g id="a_node3"><a xlink:href="classNavEKF2__core.html#a5f5c815cbd5ebba30d731f89f87726c3" target="_top" xlink:title="NavEKF2_core::UpdateFilter">
<polygon fill="white" stroke="black" points="393,-19.5 393,-38.5 536,-38.5 536,-19.5 393,-19.5"/>
<text text-anchor="middle" x="464.5" y="-26.5" font-family="Helvetica,sans-Serif" font-size="10.00">NavEKF2_core::UpdateFilter</text>
</a>
</g>
</g>
<!-- Node2&#45;&gt;Node3 -->
<g id="edge2" class="edge"><title>Node2&#45;&gt;Node3</title>
<path fill="none" stroke="midnightblue" d="M367.22,-29C375.814,-29 384.441,-29 392.807,-29"/>
<polygon fill="midnightblue" stroke="midnightblue" points="367.162,-25.5001 357.162,-29 367.162,-32.5001 367.162,-25.5001"/>
</g>
<!-- Node4 -->
<g id="node4" class="node"><title>Node4</title>
<g id="a_node4"><a xlink:href="classNavEKF2.html#a72815b1bbd9d7ceb0ff7ae52d14516df" target="_top" xlink:title="NavEKF2::UpdateFilter">
<polygon fill="white" stroke="black" points="572,-19.5 572,-38.5 691,-38.5 691,-19.5 572,-19.5"/>
<text text-anchor="middle" x="631.5" y="-26.5" font-family="Helvetica,sans-Serif" font-size="10.00">NavEKF2::UpdateFilter</text>
</a>
</g>
</g>
<!-- Node3&#45;&gt;Node4 -->
<g id="edge3" class="edge"><title>Node3&#45;&gt;Node4</title>
<path fill="none" stroke="midnightblue" d="M546.436,-29C554.985,-29 563.556,-29 571.783,-29"/>
<polygon fill="midnightblue" stroke="midnightblue" points="546.432,-25.5001 536.432,-29 546.432,-32.5001 546.432,-25.5001"/>
</g>
<!-- Node5 -->
<g id="node5" class="node"><title>Node5</title>
<g id="a_node5"><a xlink:href="classNavEKF2.html#ab18af2714c15fcf190493c01e2a28c73" target="_top" xlink:title="NavEKF2::activeCores">
<polygon fill="white" stroke="black" points="754,-38.5 754,-57.5 872,-57.5 872,-38.5 754,-38.5"/>
<text text-anchor="middle" x="813" y="-45.5" font-family="Helvetica,sans-Serif" font-size="10.00">NavEKF2::activeCores</text>
</a>
</g>
</g>
<!-- Node4&#45;&gt;Node5 -->
<g id="edge4" class="edge"><title>Node4&#45;&gt;Node5</title>
<path fill="none" stroke="midnightblue" d="M701.307,-36.2832C718.597,-38.1134 736.985,-40.0597 753.706,-41.8296"/>
<polygon fill="midnightblue" stroke="midnightblue" points="701.588,-32.7935 691.275,-35.2213 700.851,-39.7546 701.588,-32.7935"/>
</g>
<!-- Node9 -->
<g id="node9" class="node"><title>Node9</title>
<g id="a_node9"><a xlink:href="classAP__AHRS__NavEKF.html#a0187c6d3d4348b002a204c05d3e94b07" target="_top" xlink:title="AP_AHRS_NavEKF::update_EKF2">
<polygon fill="white" stroke="black" points="727,-0.5 727,-19.5 899,-19.5 899,-0.5 727,-0.5"/>
<text text-anchor="middle" x="813" y="-7.5" font-family="Helvetica,sans-Serif" font-size="10.00">AP_AHRS_NavEKF::update_EKF2</text>
</a>
</g>
</g>
<!-- Node4&#45;&gt;Node9 -->
<g id="edge8" class="edge"><title>Node4&#45;&gt;Node9</title>
<path fill="none" stroke="midnightblue" d="M701.285,-21.7191C709.612,-20.8377 718.194,-19.9293 726.722,-19.0266"/>
<polygon fill="midnightblue" stroke="midnightblue" points="700.851,-18.2454 691.275,-22.7787 701.588,-25.2065 700.851,-18.2454"/>
</g>
<!-- Node6 -->
<g id="node6" class="node"><title>Node6</title>
<g id="a_node6"><a xlink:href="classDataFlash__Class.html#a46e58faaa53c44516433f6bb7bde4163" target="_top" xlink:title="DataFlash_Class::Log\l_Write_POS">
<polygon fill="white" stroke="black" points="950,-77 950,-107 1064,-107 1064,-77 950,-77"/>
<text text-anchor="start" x="958" y="-95" font-family="Helvetica,sans-Serif" font-size="10.00">DataFlash_Class::Log</text>
<text text-anchor="middle" x="1007" y="-84" font-family="Helvetica,sans-Serif" font-size="10.00">_Write_POS</text>
</a>
</g>
</g>
<!-- Node5&#45;&gt;Node6 -->
<g id="edge5" class="edge"><title>Node5&#45;&gt;Node6</title>
<path fill="none" stroke="midnightblue" d="M865.697,-59.8473C891.699,-65.8059 923.254,-73.0373 949.849,-79.132"/>
<polygon fill="midnightblue" stroke="midnightblue" points="866.19,-56.3696 855.661,-57.5473 864.627,-63.1927 866.19,-56.3696"/>
</g>
<!-- Node8 -->
<g id="node8" class="node"><title>Node8</title>
<g id="a_node8"><a xlink:href="classGCS__MAVLINK.html#a558ba3447048b78cb9dde460053e2741" target="_top" xlink:title="GCS_MAVLINK::send_ahrs2">
<polygon fill="white" stroke="black" points="935,-38.5 935,-57.5 1079,-57.5 1079,-38.5 935,-38.5"/>
<text text-anchor="middle" x="1007" y="-45.5" font-family="Helvetica,sans-Serif" font-size="10.00">GCS_MAVLINK::send_ahrs2</text>
</a>
</g>
</g>
<!-- Node5&#45;&gt;Node8 -->
<g id="edge7" class="edge"><title>Node5&#45;&gt;Node8</title>
<path fill="none" stroke="midnightblue" d="M882.519,-48C899.503,-48 917.74,-48 934.846,-48"/>
<polygon fill="midnightblue" stroke="midnightblue" points="882.127,-44.5001 872.127,-48 882.127,-51.5001 882.127,-44.5001"/>
</g>
<!-- Node7 -->
<g id="node7" class="node"><title>Node7</title>
<g id="a_node7"><a xlink:href="classDataFlash__Class.html#a7868f0e3dcef65ea5b5fcae618f4c5d4" target="_top" xlink:title="DataFlash_Class::get\l_structures">
<polygon fill="white" stroke="black" points="1115,-77 1115,-107 1227,-107 1227,-77 1115,-77"/>
<text text-anchor="start" x="1123" y="-95" font-family="Helvetica,sans-Serif" font-size="10.00">DataFlash_Class::get</text>
<text text-anchor="middle" x="1171" y="-84" font-family="Helvetica,sans-Serif" font-size="10.00">_structures</text>
</a>
</g>
</g>
<!-- Node6&#45;&gt;Node7 -->
<g id="edge6" class="edge"><title>Node6&#45;&gt;Node7</title>
<path fill="none" stroke="midnightblue" d="M1074.39,-92C1087.89,-92 1101.94,-92 1114.99,-92"/>
<polygon fill="midnightblue" stroke="midnightblue" points="1074.21,-88.5001 1064.21,-92 1074.21,-95.5001 1074.21,-88.5001"/>
</g>
<!-- Node10 -->
<g id="node10" class="node"><title>Node10</title>
<g id="a_node10"><a xlink:href="classAP__AHRS__NavEKF.html#ac8111979c5dc37a55b2c50818534ea52" target="_top" xlink:title="AP_AHRS_NavEKF::update">
<polygon fill="white" stroke="black" points="936,-0.5 936,-19.5 1078,-19.5 1078,-0.5 936,-0.5"/>
<text text-anchor="middle" x="1007" y="-7.5" font-family="Helvetica,sans-Serif" font-size="10.00">AP_AHRS_NavEKF::update</text>
</a>
</g>
</g>
<!-- Node9&#45;&gt;Node10 -->
<g id="edge9" class="edge"><title>Node9&#45;&gt;Node10</title>
<path fill="none" stroke="midnightblue" d="M909.211,-10C918.227,-10 927.252,-10 935.969,-10"/>
<polygon fill="midnightblue" stroke="midnightblue" points="909.052,-6.5001 899.052,-10 909.052,-13.5001 909.052,-6.5001"/>
</g>
<!-- Node11 -->
<g id="node11" class="node"><title>Node11</title>
<g id="a_node11"><a xlink:href="AHRS__Test_8cpp.html#a0b33edabd7f1c4e4a0bf32c67269be2f" target="_top" xlink:title="loop">
<polygon fill="white" stroke="black" points="1153.5,-0.5 1153.5,-19.5 1188.5,-19.5 1188.5,-0.5 1153.5,-0.5"/>
<text text-anchor="middle" x="1171" y="-7.5" font-family="Helvetica,sans-Serif" font-size="10.00">loop</text>
</a>
</g>
</g>
<!-- Node10&#45;&gt;Node11 -->
<g id="edge10" class="edge"><title>Node10&#45;&gt;Node11</title>
<path fill="none" stroke="midnightblue" d="M1088.29,-10C1112.99,-10 1137.78,-10 1153.47,-10"/>
<polygon fill="midnightblue" stroke="midnightblue" points="1088.11,-6.5001 1078.11,-10 1088.11,-13.5001 1088.11,-6.5001"/>
</g>
</g>
</svg>
