<?xml version="1.0" encoding="UTF-8" standalone="no"?>
<!DOCTYPE svg PUBLIC "-//W3C//DTD SVG 1.1//EN"
 "http://www.w3.org/Graphics/SVG/1.1/DTD/svg11.dtd">
<!-- Generated by graphviz version 2.38.0 (20140413.2041)
 -->
<!-- Title: DataFlash_Backend::WriteCriticalBlock Pages: 1 -->
<!--zoomable 480 -->
<svg id="main" version="1.1" xmlns="http://www.w3.org/2000/svg" xmlns:xlink="http://www.w3.org/1999/xlink" xml:space="preserve" onload="init(evt)">
<style type="text/css"><![CDATA[
.edge:hover path { stroke: red; }
.edge:hover polygon { stroke: red; fill: red; }
]]></style>
<script type="text/javascript"><![CDATA[
var edges = document.getElementsByTagName('g');
if (edges && edges.length) {
  for (var i=0;i<edges.length;i++) {
    if (edges[i].id.substr(0,4)=='edge') {
      edges[i].setAttribute('class','edge');
    }
  }
}
]]></script>
        <defs>
                <circle id="rim" cx="0" cy="0" r="7"/>
                <circle id="rim2" cx="0" cy="0" r="3.5"/>
                <g id="zoomPlus">
                        <use xlink:href="#rim" fill="#404040">
                                <set attributeName="fill" to="#808080" begin="zoomplus.mouseover" end="zoomplus.mouseout"/>
                        </use>
                        <path d="M-4,0h8M0,-4v8" fill="none" stroke="white" stroke-width="1.5" pointer-events="none"/>
                </g>
                <g id="zoomMin">
                        <use xlink:href="#rim" fill="#404040">
                                <set attributeName="fill" to="#808080" begin="zoomminus.mouseover" end="zoomminus.mouseout"/>
                        </use>
                        <path d="M-4,0h8" fill="none" stroke="white" stroke-width="1.5" pointer-events="none"/>
                </g>
                <g id="dirArrow">
                        <path fill="none" stroke="white" stroke-width="1.5" d="M0,-3.0v7 M-2.5,-0.5L0,-3.0L2.5,-0.5"/>
                </g>
               <g id="resetDef">
                       <use xlink:href="#rim2" fill="#404040">
                               <set attributeName="fill" to="#808080" begin="reset.mouseover" end="reset.mouseout"/>
                       </use>
               </g>
        </defs>

<script type="text/javascript">
var viewWidth = 266;
var viewHeight = 480;
var sectionId = 'dynsection-63';
</script>
<script xlink:href="svgpan.js"/>
<svg id="graph" class="graph">
<g id="viewport">
<title>DataFlash_Backend::WriteCriticalBlock</title>
<polygon fill="white" stroke="none" points="-4,4 -4,-476 262,-476 262,4 -4,4"/>
<!-- Node1 -->
<g id="node1" class="node"><title>Node1</title>
<polygon fill="#bfbfbf" stroke="black" points="0,-220.5 0,-250.5 111,-250.5 111,-220.5 0,-220.5"/>
<text text-anchor="start" x="8" y="-238.5" font-family="Helvetica,sans-Serif" font-size="10.00">DataFlash_Backend::</text>
<text text-anchor="middle" x="55.5" y="-227.5" font-family="Helvetica,sans-Serif" font-size="10.00">WriteCriticalBlock</text>
</g>
<!-- Node2 -->
<g id="node2" class="node"><title>Node2</title>
<g id="a_node2"><a xlink:href="classDataFlash__Backend.html#a0807326aa0d3df61375bc1c949d2a125" target="_top" xlink:title="DataFlash_Backend::\lWritePrioritisedBlock">
<polygon fill="white" stroke="black" points="147,-441.5 147,-471.5 258,-471.5 258,-441.5 147,-441.5"/>
<text text-anchor="start" x="155" y="-459.5" font-family="Helvetica,sans-Serif" font-size="10.00">DataFlash_Backend::</text>
<text text-anchor="middle" x="202.5" y="-448.5" font-family="Helvetica,sans-Serif" font-size="10.00">WritePrioritisedBlock</text>
</a>
</g>
</g>
<!-- Node1&#45;&gt;Node2 -->
<g id="edge1" class="edge"><title>Node1&#45;&gt;Node2</title>
<path fill="none" stroke="midnightblue" d="M59.5887,-250.71C67.6705,-286.889 92.6823,-379.035 147,-432.5 148.082,-433.565 149.22,-434.587 150.402,-435.567"/>
<polygon fill="midnightblue" stroke="midnightblue" points="148.568,-438.556 158.761,-441.446 152.595,-432.83 148.568,-438.556"/>
</g>
<!-- Node3 -->
<g id="node3" class="node"><title>Node3</title>
<g id="a_node3"><a xlink:href="classDataFlash__Backend.html#a29851967f4a9414cbcaa1dd56cddf2ab" target="_top" xlink:title="DataFlash_Backend::\lfind_last_log">
<polygon fill="white" stroke="black" points="147,-392.5 147,-422.5 258,-422.5 258,-392.5 147,-392.5"/>
<text text-anchor="start" x="155" y="-410.5" font-family="Helvetica,sans-Serif" font-size="10.00">DataFlash_Backend::</text>
<text text-anchor="middle" x="202.5" y="-399.5" font-family="Helvetica,sans-Serif" font-size="10.00">find_last_log</text>
</a>
</g>
</g>
<!-- Node1&#45;&gt;Node3 -->
<g id="edge2" class="edge"><title>Node1&#45;&gt;Node3</title>
<path fill="none" stroke="midnightblue" d="M62.1132,-250.571C73.7208,-279.88 103.012,-345.044 147,-383.5 148.338,-384.67 149.742,-385.79 151.197,-386.863"/>
<polygon fill="midnightblue" stroke="midnightblue" points="149.678,-390.047 159.985,-392.498 153.456,-384.154 149.678,-390.047"/>
</g>
<!-- Node4 -->
<g id="node4" class="node"><title>Node4</title>
<g id="a_node4"><a xlink:href="classDataFlash__Backend.html#a61144d17b5e7643a69067739261f1836" target="_top" xlink:title="DataFlash_Backend::\lget_log_boundaries">
<polygon fill="white" stroke="black" points="147,-343.5 147,-373.5 258,-373.5 258,-343.5 147,-343.5"/>
<text text-anchor="start" x="155" y="-361.5" font-family="Helvetica,sans-Serif" font-size="10.00">DataFlash_Backend::</text>
<text text-anchor="middle" x="202.5" y="-350.5" font-family="Helvetica,sans-Serif" font-size="10.00">get_log_boundaries</text>
</a>
</g>
</g>
<!-- Node1&#45;&gt;Node4 -->
<g id="edge3" class="edge"><title>Node1&#45;&gt;Node4</title>
<path fill="none" stroke="midnightblue" d="M67.2063,-250.74C82.7263,-271.91 113.325,-310.331 147,-334.5 148.877,-335.847 150.841,-337.142 152.863,-338.383"/>
<polygon fill="midnightblue" stroke="midnightblue" points="151.57,-341.669 162.009,-343.479 154.978,-335.554 151.57,-341.669"/>
</g>
<!-- Node5 -->
<g id="node5" class="node"><title>Node5</title>
<g id="a_node5"><a xlink:href="classDataFlash__Backend.html#a145373c8f95ff9cfa79e5bff9e67e9ed" target="_top" xlink:title="DataFlash_Backend::\lget_log_info">
<polygon fill="white" stroke="black" points="147,-294.5 147,-324.5 258,-324.5 258,-294.5 147,-294.5"/>
<text text-anchor="start" x="155" y="-312.5" font-family="Helvetica,sans-Serif" font-size="10.00">DataFlash_Backend::</text>
<text text-anchor="middle" x="202.5" y="-301.5" font-family="Helvetica,sans-Serif" font-size="10.00">get_log_info</text>
</a>
</g>
</g>
<!-- Node1&#45;&gt;Node5 -->
<g id="edge4" class="edge"><title>Node1&#45;&gt;Node5</title>
<path fill="none" stroke="midnightblue" d="M82.3087,-250.57C100.237,-260.837 124.801,-274.508 147,-285.5 150.153,-287.061 153.431,-288.632 156.744,-290.181"/>
<polygon fill="midnightblue" stroke="midnightblue" points="155.555,-293.486 166.105,-294.467 158.47,-287.121 155.555,-293.486"/>
</g>
<!-- Node6 -->
<g id="node6" class="node"><title>Node6</title>
<g id="a_node6"><a xlink:href="classDataFlash__Backend.html#a228c994610423cf986a9713c5a23de7a" target="_top" xlink:title="DataFlash_Backend::\lget_log_data">
<polygon fill="white" stroke="black" points="147,-245.5 147,-275.5 258,-275.5 258,-245.5 147,-245.5"/>
<text text-anchor="start" x="155" y="-263.5" font-family="Helvetica,sans-Serif" font-size="10.00">DataFlash_Backend::</text>
<text text-anchor="middle" x="202.5" y="-252.5" font-family="Helvetica,sans-Serif" font-size="10.00">get_log_data</text>
</a>
</g>
</g>
<!-- Node1&#45;&gt;Node6 -->
<g id="edge5" class="edge"><title>Node1&#45;&gt;Node6</title>
<path fill="none" stroke="midnightblue" d="M111.318,-244.951C119.619,-246.383 128.249,-247.87 136.735,-249.334"/>
<polygon fill="midnightblue" stroke="midnightblue" points="136.155,-252.785 146.604,-251.035 137.344,-245.887 136.155,-252.785"/>
</g>
<!-- Node7 -->
<g id="node7" class="node"><title>Node7</title>
<g id="a_node7"><a xlink:href="classDataFlash__Backend.html#acab9b470d06b7aed02b34086c2cec394" target="_top" xlink:title="DataFlash_Backend::\lget_num_logs">
<polygon fill="white" stroke="black" points="147,-196.5 147,-226.5 258,-226.5 258,-196.5 147,-196.5"/>
<text text-anchor="start" x="155" y="-214.5" font-family="Helvetica,sans-Serif" font-size="10.00">DataFlash_Backend::</text>
<text text-anchor="middle" x="202.5" y="-203.5" font-family="Helvetica,sans-Serif" font-size="10.00">get_num_logs</text>
</a>
</g>
</g>
<!-- Node1&#45;&gt;Node7 -->
<g id="edge6" class="edge"><title>Node1&#45;&gt;Node7</title>
<path fill="none" stroke="midnightblue" d="M111.318,-226.427C119.619,-225.053 128.249,-223.624 136.735,-222.22"/>
<polygon fill="midnightblue" stroke="midnightblue" points="137.31,-225.672 146.604,-220.586 136.167,-218.766 137.31,-225.672"/>
</g>
<!-- Node8 -->
<g id="node8" class="node"><title>Node8</title>
<g id="a_node8"><a xlink:href="classDataFlash__Backend.html#a8f2e2e6b6ae83eaa9d41ca49a4c4f27b" target="_top" xlink:title="DataFlash_Backend::\lLogReadProcess">
<polygon fill="white" stroke="black" points="147,-147.5 147,-177.5 258,-177.5 258,-147.5 147,-147.5"/>
<text text-anchor="start" x="155" y="-165.5" font-family="Helvetica,sans-Serif" font-size="10.00">DataFlash_Backend::</text>
<text text-anchor="middle" x="202.5" y="-154.5" font-family="Helvetica,sans-Serif" font-size="10.00">LogReadProcess</text>
</a>
</g>
</g>
<!-- Node1&#45;&gt;Node8 -->
<g id="edge7" class="edge"><title>Node1&#45;&gt;Node8</title>
<path fill="none" stroke="midnightblue" d="M84.0129,-220.378C101.839,-210.713 125.633,-198.056 147,-187.5 150.78,-185.633 154.728,-183.73 158.696,-181.851"/>
<polygon fill="midnightblue" stroke="midnightblue" points="160.348,-184.942 167.922,-177.535 157.381,-178.602 160.348,-184.942"/>
</g>
<!-- Node9 -->
<g id="node9" class="node"><title>Node9</title>
<g id="a_node9"><a xlink:href="classDataFlash__Backend.html#af1409a23f3cb7edbbc16d67e610001ee" target="_top" xlink:title="DataFlash_Backend::\lDumpPageInfo">
<polygon fill="white" stroke="black" points="147,-98.5 147,-128.5 258,-128.5 258,-98.5 147,-98.5"/>
<text text-anchor="start" x="155" y="-116.5" font-family="Helvetica,sans-Serif" font-size="10.00">DataFlash_Backend::</text>
<text text-anchor="middle" x="202.5" y="-105.5" font-family="Helvetica,sans-Serif" font-size="10.00">DumpPageInfo</text>
</a>
</g>
</g>
<!-- Node1&#45;&gt;Node9 -->
<g id="edge8" class="edge"><title>Node1&#45;&gt;Node9</title>
<path fill="none" stroke="midnightblue" d="M67.5915,-220.304C83.3341,-199.593 113.942,-162.354 147,-138.5 149.453,-136.73 152.052,-135.039 154.731,-133.433"/>
<polygon fill="midnightblue" stroke="midnightblue" points="156.425,-136.496 163.485,-128.597 153.039,-130.369 156.425,-136.496"/>
</g>
<!-- Node10 -->
<g id="node10" class="node"><title>Node10</title>
<g id="a_node10"><a xlink:href="classDataFlash__Backend.html#a0b68aeeb54b214aead2d597773afcf08" target="_top" xlink:title="DataFlash_Backend::\lShowDeviceInfo">
<polygon fill="white" stroke="black" points="147,-49.5 147,-79.5 258,-79.5 258,-49.5 147,-49.5"/>
<text text-anchor="start" x="155" y="-67.5" font-family="Helvetica,sans-Serif" font-size="10.00">DataFlash_Backend::</text>
<text text-anchor="middle" x="202.5" y="-56.5" font-family="Helvetica,sans-Serif" font-size="10.00">ShowDeviceInfo</text>
</a>
</g>
</g>
<!-- Node1&#45;&gt;Node10 -->
<g id="edge9" class="edge"><title>Node1&#45;&gt;Node10</title>
<path fill="none" stroke="midnightblue" d="M62.4039,-220.245C74.3205,-191.226 103.843,-127.581 147,-89.5 148.744,-87.9611 150.599,-86.5004 152.532,-85.1159"/>
<polygon fill="midnightblue" stroke="midnightblue" points="154.808,-87.8185 161.406,-79.5283 151.078,-81.895 154.808,-87.8185"/>
</g>
<!-- Node11 -->
<g id="node11" class="node"><title>Node11</title>
<g id="a_node11"><a xlink:href="classDataFlash__Backend.html#aed6c57aa0856da0006fb9f5665147f39" target="_top" xlink:title="DataFlash_Backend::\lListAvailableLogs">
<polygon fill="white" stroke="black" points="147,-0.5 147,-30.5 258,-30.5 258,-0.5 147,-0.5"/>
<text text-anchor="start" x="155" y="-18.5" font-family="Helvetica,sans-Serif" font-size="10.00">DataFlash_Backend::</text>
<text text-anchor="middle" x="202.5" y="-7.5" font-family="Helvetica,sans-Serif" font-size="10.00">ListAvailableLogs</text>
</a>
</g>
</g>
<!-- Node1&#45;&gt;Node11 -->
<g id="edge10" class="edge"><title>Node1&#45;&gt;Node11</title>
<path fill="none" stroke="midnightblue" d="M59.6879,-220.497C67.9871,-184.8 93.4398,-93.8229 147,-40.5 148.439,-39.0678 149.974,-37.7088 151.584,-36.42"/>
<polygon fill="midnightblue" stroke="midnightblue" points="153.875,-39.0927 160.14,-30.549 149.915,-33.3207 153.875,-39.0927"/>
</g>
</g>
</svg>
        <g id="navigator" transform="translate(0 0)" fill="#404254">
                <rect fill="#f2f5e9" fill-opacity="0.5" stroke="#606060" stroke-width=".5" x="0" y="0" width="60" height="60"/>
                <use id="zoomplus" xlink:href="#zoomPlus" x="17" y="9" onmousedown="handleZoom(evt,'in')"/>
                <use id="zoomminus" xlink:href="#zoomMin" x="42" y="9" onmousedown="handleZoom(evt,'out')"/>
                <use id="reset" xlink:href="#resetDef" x="30" y="36" onmousedown="handleReset()"/>
                <g id="arrowUp" xlink:href="#dirArrow" transform="translate(30 24)" onmousedown="handlePan(0,-1)">
                  <use xlink:href="#rim" fill="#404040">
                        <set attributeName="fill" to="#808080" begin="arrowUp.mouseover" end="arrowUp.mouseout"/>
                  </use>
                  <path fill="none" stroke="white" stroke-width="1.5" d="M0,-3.0v7 M-2.5,-0.5L0,-3.0L2.5,-0.5"/>
                </g>
                <g id="arrowRight" xlink:href="#dirArrow" transform="rotate(90) translate(36 -43)" onmousedown="handlePan(1,0)">
                  <use xlink:href="#rim" fill="#404040">
                        <set attributeName="fill" to="#808080" begin="arrowRight.mouseover" end="arrowRight.mouseout"/>
                  </use>
                  <path fill="none" stroke="white" stroke-width="1.5" d="M0,-3.0v7 M-2.5,-0.5L0,-3.0L2.5,-0.5"/>
                </g>
                <g id="arrowDown" xlink:href="#dirArrow" transform="rotate(180) translate(-30 -48)" onmousedown="handlePan(0,1)">
                  <use xlink:href="#rim" fill="#404040">
                        <set attributeName="fill" to="#808080" begin="arrowDown.mouseover" end="arrowDown.mouseout"/>
                  </use>
                  <path fill="none" stroke="white" stroke-width="1.5" d="M0,-3.0v7 M-2.5,-0.5L0,-3.0L2.5,-0.5"/>
                </g>
                <g id="arrowLeft" xlink:href="#dirArrow" transform="rotate(270) translate(-36 17)" onmousedown="handlePan(-1,0)">
                  <use xlink:href="#rim" fill="#404040">
                        <set attributeName="fill" to="#808080" begin="arrowLeft.mouseover" end="arrowLeft.mouseout"/>
                  </use>
                  <path fill="none" stroke="white" stroke-width="1.5" d="M0,-3.0v7 M-2.5,-0.5L0,-3.0L2.5,-0.5"/>
                </g>
        </g>
        <svg viewBox="0 0 15 15" width="100%" height="30px" preserveAspectRatio="xMaxYMin meet">
         <g id="arrow_out" transform="scale(0.3 0.3)">
          <a xlink:href="classDataFlash__Backend_a5be0a9e566b2b525659756204c3353b7_cgraph_org.svg" target="_base">
           <rect id="button" ry="5" rx="5" y="6" x="6" height="38" width="38"
                fill="#f2f5e9" fill-opacity="0.5" stroke="#606060" stroke-width="1.0"/>
           <path id="arrow"
             d="M 11.500037,31.436501 C 11.940474,20.09759 22.043105,11.32322 32.158766,21.979434 L 37.068811,17.246167 C 37.068811,17.246167 37.088388,32 37.088388,32 L 22.160133,31.978069 C 22.160133,31.978069 26.997745,27.140456 26.997745,27.140456 C 18.528582,18.264221 13.291696,25.230495 11.500037,31.436501 z"
             style="fill:#404040;"/>
          </a>
         </g>
        </svg>
</svg>
