<?xml version="1.0" encoding="UTF-8" standalone="no"?>
<!DOCTYPE svg PUBLIC "-//W3C//DTD SVG 1.1//EN"
 "http://www.w3.org/Graphics/SVG/1.1/DTD/svg11.dtd">
<!-- Generated by graphviz version 2.38.0 (20140413.2041)
 -->
<!-- Title: AP_InertialSensor_HIL::detect Pages: 1 -->
<!--zoomable 274 -->
<svg id="main" version="1.1" xmlns="http://www.w3.org/2000/svg" xmlns:xlink="http://www.w3.org/1999/xlink" xml:space="preserve" onload="init(evt)">
<style type="text/css"><![CDATA[
.edge:hover path { stroke: red; }
.edge:hover polygon { stroke: red; fill: red; }
]]></style>
<script type="text/javascript"><![CDATA[
var edges = document.getElementsByTagName('g');
if (edges && edges.length) {
  for (var i=0;i<edges.length;i++) {
    if (edges[i].id.substr(0,4)=='edge') {
      edges[i].setAttribute('class','edge');
    }
  }
}
]]></script>
        <defs>
                <circle id="rim" cx="0" cy="0" r="7"/>
                <circle id="rim2" cx="0" cy="0" r="3.5"/>
                <g id="zoomPlus">
                        <use xlink:href="#rim" fill="#404040">
                                <set attributeName="fill" to="#808080" begin="zoomplus.mouseover" end="zoomplus.mouseout"/>
                        </use>
                        <path d="M-4,0h8M0,-4v8" fill="none" stroke="white" stroke-width="1.5" pointer-events="none"/>
                </g>
                <g id="zoomMin">
                        <use xlink:href="#rim" fill="#404040">
                                <set attributeName="fill" to="#808080" begin="zoomminus.mouseover" end="zoomminus.mouseout"/>
                        </use>
                        <path d="M-4,0h8" fill="none" stroke="white" stroke-width="1.5" pointer-events="none"/>
                </g>
                <g id="dirArrow">
                        <path fill="none" stroke="white" stroke-width="1.5" d="M0,-3.0v7 M-2.5,-0.5L0,-3.0L2.5,-0.5"/>
                </g>
               <g id="resetDef">
                       <use xlink:href="#rim2" fill="#404040">
                               <set attributeName="fill" to="#808080" begin="reset.mouseover" end="reset.mouseout"/>
                       </use>
               </g>
        </defs>

<script type="text/javascript">
var viewWidth = 879;
var viewHeight = 274;
var sectionId = 'dynsection-5';
</script>
<script xlink:href="svgpan.js"/>
<svg id="graph" class="graph">
<g id="viewport">
<title>AP_InertialSensor_HIL::detect</title>
<polygon fill="white" stroke="none" points="-4,4 -4,-270 875,-270 875,4 -4,4"/>
<!-- Node1 -->
<g id="node1" class="node"><title>Node1</title>
<polygon fill="#bfbfbf" stroke="black" points="0,-98.5 0,-128.5 116,-128.5 116,-98.5 0,-98.5"/>
<text text-anchor="start" x="8" y="-116.5" font-family="Helvetica,sans-Serif" font-size="10.00">AP_InertialSensor_HIL</text>
<text text-anchor="middle" x="58" y="-105.5" font-family="Helvetica,sans-Serif" font-size="10.00">::detect</text>
</g>
<!-- Node2 -->
<g id="node2" class="node"><title>Node2</title>
<g id="a_node2"><a xlink:href="classAP__InertialSensor__HIL.html#a9acde39917b18c364e43399f5265480a" target="_top" xlink:title="AP_InertialSensor_HIL\l::AP_InertialSensor_HIL">
<polygon fill="white" stroke="black" points="152,-123.5 152,-153.5 274,-153.5 274,-123.5 152,-123.5"/>
<text text-anchor="start" x="160" y="-141.5" font-family="Helvetica,sans-Serif" font-size="10.00">AP_InertialSensor_HIL</text>
<text text-anchor="middle" x="213" y="-130.5" font-family="Helvetica,sans-Serif" font-size="10.00">::AP_InertialSensor_HIL</text>
</a>
</g>
</g>
<!-- Node1&#45;&gt;Node2 -->
<g id="edge1" class="edge"><title>Node1&#45;&gt;Node2</title>
<path fill="none" stroke="midnightblue" d="M116.407,-122.88C124.756,-124.245 133.43,-125.662 141.994,-127.061"/>
<polygon fill="midnightblue" stroke="midnightblue" points="141.538,-130.533 151.972,-128.692 142.667,-123.625 141.538,-130.533"/>
</g>
<!-- Node3 -->
<g id="node3" class="node"><title>Node3</title>
<g id="a_node3"><a xlink:href="classAP__InertialSensor__HIL.html#a4b07d4eaf8ae80cb603617a33843afca" target="_top" xlink:title="AP_InertialSensor_HIL\l::_init_sensor">
<polygon fill="white" stroke="black" points="155,-74.5 155,-104.5 271,-104.5 271,-74.5 155,-74.5"/>
<text text-anchor="start" x="163" y="-92.5" font-family="Helvetica,sans-Serif" font-size="10.00">AP_InertialSensor_HIL</text>
<text text-anchor="middle" x="213" y="-81.5" font-family="Helvetica,sans-Serif" font-size="10.00">::_init_sensor</text>
</a>
</g>
</g>
<!-- Node1&#45;&gt;Node3 -->
<g id="edge2" class="edge"><title>Node1&#45;&gt;Node3</title>
<path fill="none" stroke="midnightblue" d="M116.407,-104.495C125.623,-103.049 135.234,-101.542 144.657,-100.064"/>
<polygon fill="midnightblue" stroke="midnightblue" points="145.443,-103.483 154.78,-98.4756 144.359,-96.5677 145.443,-103.483"/>
</g>
<!-- Node4 -->
<g id="node4" class="node"><title>Node4</title>
<g id="a_node4"><a xlink:href="classAP__InertialSensor.html#aa112654466199fa7ba51b2471fefdbd7" target="_top" xlink:title="AP_InertialSensor::\lregister_gyro">
<polygon fill="white" stroke="black" points="310,-123.5 310,-153.5 411,-153.5 411,-123.5 310,-123.5"/>
<text text-anchor="start" x="318" y="-141.5" font-family="Helvetica,sans-Serif" font-size="10.00">AP_InertialSensor::</text>
<text text-anchor="middle" x="360.5" y="-130.5" font-family="Helvetica,sans-Serif" font-size="10.00">register_gyro</text>
</a>
</g>
</g>
<!-- Node3&#45;&gt;Node4 -->
<g id="edge3" class="edge"><title>Node3&#45;&gt;Node4</title>
<path fill="none" stroke="midnightblue" d="M258.842,-104.601C273.431,-109.515 289.786,-115.022 305.002,-120.147"/>
<polygon fill="midnightblue" stroke="midnightblue" points="304.212,-123.574 314.806,-123.448 306.446,-116.94 304.212,-123.574"/>
</g>
<!-- Node14 -->
<g id="node14" class="node"><title>Node14</title>
<g id="a_node14"><a xlink:href="classAP__InertialSensor.html#a17706ae4e3ef55200ee8b1e5c4ead7ec" target="_top" xlink:title="AP_InertialSensor::\lregister_accel">
<polygon fill="white" stroke="black" points="310,-74.5 310,-104.5 411,-104.5 411,-74.5 310,-74.5"/>
<text text-anchor="start" x="318" y="-92.5" font-family="Helvetica,sans-Serif" font-size="10.00">AP_InertialSensor::</text>
<text text-anchor="middle" x="360.5" y="-81.5" font-family="Helvetica,sans-Serif" font-size="10.00">register_accel</text>
</a>
</g>
</g>
<!-- Node3&#45;&gt;Node14 -->
<g id="edge13" class="edge"><title>Node3&#45;&gt;Node14</title>
<path fill="none" stroke="midnightblue" d="M271.088,-89.5C280.443,-89.5 290.16,-89.5 299.581,-89.5"/>
<polygon fill="midnightblue" stroke="midnightblue" points="299.656,-93.0001 309.656,-89.5 299.656,-86.0001 299.656,-93.0001"/>
</g>
<!-- Node15 -->
<g id="node15" class="node"><title>Node15</title>
<g id="a_node15"><a xlink:href="classAP__InertialSensor.html#af26d20af4d59052beb786e684fdd4e65" target="_top" xlink:title="AP_InertialSensor::\lset_hil_mode">
<polygon fill="white" stroke="black" points="310,-25.5 310,-55.5 411,-55.5 411,-25.5 310,-25.5"/>
<text text-anchor="start" x="318" y="-43.5" font-family="Helvetica,sans-Serif" font-size="10.00">AP_InertialSensor::</text>
<text text-anchor="middle" x="360.5" y="-32.5" font-family="Helvetica,sans-Serif" font-size="10.00">set_hil_mode</text>
</a>
</g>
</g>
<!-- Node3&#45;&gt;Node15 -->
<g id="edge15" class="edge"><title>Node3&#45;&gt;Node15</title>
<path fill="none" stroke="midnightblue" d="M258.842,-74.3986C273.431,-69.4853 289.786,-63.9776 305.002,-58.8534"/>
<polygon fill="midnightblue" stroke="midnightblue" points="306.446,-62.0602 314.806,-55.5516 304.212,-55.4263 306.446,-62.0602"/>
</g>
<!-- Node5 -->
<g id="node5" class="node"><title>Node5</title>
<g id="a_node5"><a xlink:href="namespaceAP__HAL.html#a71832f03d849a0c088f04fc98d3c8143" target="_top" xlink:title="AP_HAL::panic">
<polygon fill="white" stroke="black" points="447,-104 447,-123 531,-123 531,-104 447,-104"/>
<text text-anchor="middle" x="489" y="-111" font-family="Helvetica,sans-Serif" font-size="10.00">AP_HAL::panic</text>
</a>
</g>
</g>
<!-- Node4&#45;&gt;Node5 -->
<g id="edge4" class="edge"><title>Node4&#45;&gt;Node5</title>
<path fill="none" stroke="midnightblue" d="M411.133,-128.691C419.499,-127.038 428.198,-125.319 436.607,-123.657"/>
<polygon fill="midnightblue" stroke="midnightblue" points="437.547,-127.039 446.679,-121.666 436.19,-120.171 437.547,-127.039"/>
</g>
<!-- Node6 -->
<g id="node6" class="node"><title>Node6</title>
<g id="a_node6"><a xlink:href="classAP__HAL_1_1RCInput.html#a2bea13d38f2b9ae8bf5193a3a69f0a31" target="_top" xlink:title="AP_HAL::RCInput::teardown">
<polygon fill="white" stroke="black" points="567,-126 567,-145 710,-145 710,-126 567,-126"/>
<text text-anchor="middle" x="638.5" y="-133" font-family="Helvetica,sans-Serif" font-size="10.00">AP_HAL::RCInput::teardown</text>
</a>
</g>
</g>
<!-- Node5&#45;&gt;Node6 -->
<g id="edge5" class="edge"><title>Node5&#45;&gt;Node6</title>
<path fill="none" stroke="midnightblue" d="M531.087,-119.628C541.203,-121.137 552.346,-122.799 563.497,-124.462"/>
<polygon fill="midnightblue" stroke="midnightblue" points="563.304,-127.972 573.711,-125.986 564.337,-121.049 563.304,-127.972"/>
</g>
<!-- Node13 -->
<g id="node13" class="node"><title>Node13</title>
<g id="a_node13"><a xlink:href="classAP__HAL_1_1Scheduler.html#a78c4f1b1f192ac1c99544b6cc8f099b0" target="_top" xlink:title="AP_HAL::Scheduler::\ldelay_microseconds">
<polygon fill="white" stroke="black" points="583.5,-76.5 583.5,-106.5 693.5,-106.5 693.5,-76.5 583.5,-76.5"/>
<text text-anchor="start" x="591.5" y="-94.5" font-family="Helvetica,sans-Serif" font-size="10.00">AP_HAL::Scheduler::</text>
<text text-anchor="middle" x="638.5" y="-83.5" font-family="Helvetica,sans-Serif" font-size="10.00">delay_microseconds</text>
</a>
</g>
</g>
<!-- Node5&#45;&gt;Node13 -->
<g id="edge12" class="edge"><title>Node5&#45;&gt;Node13</title>
<path fill="none" stroke="midnightblue" d="M531.087,-107.372C544.12,-105.428 558.858,-103.23 573.121,-101.102"/>
<polygon fill="midnightblue" stroke="midnightblue" points="574.017,-104.507 583.391,-99.5705 572.984,-97.5841 574.017,-104.507"/>
</g>
<!-- Node7 -->
<g id="node7" class="node"><title>Node7</title>
<g id="a_node7"><a xlink:href="classAP__HAL_1_1RCInput.html#aee1fade33080edef83dd7db0fad0f7da" target="_top" xlink:title="AP_HAL::RCInput::new\l_input">
<polygon fill="white" stroke="black" points="747.5,-235.5 747.5,-265.5 869.5,-265.5 869.5,-235.5 747.5,-235.5"/>
<text text-anchor="start" x="755.5" y="-253.5" font-family="Helvetica,sans-Serif" font-size="10.00">AP_HAL::RCInput::new</text>
<text text-anchor="middle" x="808.5" y="-242.5" font-family="Helvetica,sans-Serif" font-size="10.00">_input</text>
</a>
</g>
</g>
<!-- Node6&#45;&gt;Node7 -->
<g id="edge6" class="edge"><title>Node6&#45;&gt;Node7</title>
<path fill="none" stroke="midnightblue" d="M648.629,-145.221C666.064,-163.317 705.94,-202.51 746,-226.5 748.667,-228.097 751.46,-229.625 754.321,-231.081"/>
<polygon fill="midnightblue" stroke="midnightblue" points="753.087,-234.37 763.624,-235.481 756.08,-228.042 753.087,-234.37"/>
</g>
<!-- Node8 -->
<g id="node8" class="node"><title>Node8</title>
<g id="a_node8"><a xlink:href="classAP__HAL_1_1RCInput.html#ae55f959c6115c1f41783af3a2b6c4fcd" target="_top" xlink:title="AP_HAL::RCInput::num\l_channels">
<polygon fill="white" stroke="black" points="747.5,-186.5 747.5,-216.5 869.5,-216.5 869.5,-186.5 747.5,-186.5"/>
<text text-anchor="start" x="755.5" y="-204.5" font-family="Helvetica,sans-Serif" font-size="10.00">AP_HAL::RCInput::num</text>
<text text-anchor="middle" x="808.5" y="-193.5" font-family="Helvetica,sans-Serif" font-size="10.00">_channels</text>
</a>
</g>
</g>
<!-- Node6&#45;&gt;Node8 -->
<g id="edge7" class="edge"><title>Node6&#45;&gt;Node8</title>
<path fill="none" stroke="midnightblue" d="M663.929,-145.097C688.918,-154.914 728.399,-170.425 759.64,-182.698"/>
<polygon fill="midnightblue" stroke="midnightblue" points="758.458,-185.994 769.045,-186.393 761.018,-179.479 758.458,-185.994"/>
</g>
<!-- Node9 -->
<g id="node9" class="node"><title>Node9</title>
<g id="a_node9"><a xlink:href="classAP__HAL_1_1RCInput.html#a078fd7e6d2e6a899009ec674a8e03498" target="_top" xlink:title="AP_HAL::RCInput::read">
<polygon fill="white" stroke="black" points="747.5,-148 747.5,-167 869.5,-167 869.5,-148 747.5,-148"/>
<text text-anchor="middle" x="808.5" y="-155" font-family="Helvetica,sans-Serif" font-size="10.00">AP_HAL::RCInput::read</text>
</a>
</g>
</g>
<!-- Node6&#45;&gt;Node9 -->
<g id="edge8" class="edge"><title>Node6&#45;&gt;Node9</title>
<path fill="none" stroke="midnightblue" d="M710.26,-144.766C719.251,-145.944 728.45,-147.148 737.431,-148.324"/>
<polygon fill="midnightblue" stroke="midnightblue" points="737.084,-151.809 747.454,-149.637 737.993,-144.868 737.084,-151.809"/>
</g>
<!-- Node10 -->
<g id="node10" class="node"><title>Node10</title>
<g id="a_node10"><a xlink:href="classAP__HAL_1_1RCInput.html#a0989c5ca271631fe655c047d4a022a3d" target="_top" xlink:title="AP_HAL::RCInput::set\l_overrides">
<polygon fill="white" stroke="black" points="750,-98.5 750,-128.5 867,-128.5 867,-98.5 750,-98.5"/>
<text text-anchor="start" x="758" y="-116.5" font-family="Helvetica,sans-Serif" font-size="10.00">AP_HAL::RCInput::set</text>
<text text-anchor="middle" x="808.5" y="-105.5" font-family="Helvetica,sans-Serif" font-size="10.00">_overrides</text>
</a>
</g>
</g>
<!-- Node6&#45;&gt;Node10 -->
<g id="edge9" class="edge"><title>Node6&#45;&gt;Node10</title>
<path fill="none" stroke="midnightblue" d="M710.26,-126.234C720.044,-124.953 730.073,-123.639 739.799,-122.366"/>
<polygon fill="midnightblue" stroke="midnightblue" points="740.342,-125.825 749.802,-121.056 739.433,-118.884 740.342,-125.825"/>
</g>
<!-- Node11 -->
<g id="node11" class="node"><title>Node11</title>
<g id="a_node11"><a xlink:href="classAP__HAL_1_1RCInput.html#abfd037ca0989a0422a60f418d34eb7d5" target="_top" xlink:title="AP_HAL::RCInput::set\l_override">
<polygon fill="white" stroke="black" points="750,-49.5 750,-79.5 867,-79.5 867,-49.5 750,-49.5"/>
<text text-anchor="start" x="758" y="-67.5" font-family="Helvetica,sans-Serif" font-size="10.00">AP_HAL::RCInput::set</text>
<text text-anchor="middle" x="808.5" y="-56.5" font-family="Helvetica,sans-Serif" font-size="10.00">_override</text>
</a>
</g>
</g>
<!-- Node6&#45;&gt;Node11 -->
<g id="edge10" class="edge"><title>Node6&#45;&gt;Node11</title>
<path fill="none" stroke="midnightblue" d="M685.183,-125.918C693.644,-123.386 702.251,-120.276 710,-116.5 727.979,-107.74 728.592,-99.3472 746,-89.5 749.456,-87.5449 753.096,-85.6632 756.808,-83.8706"/>
<polygon fill="midnightblue" stroke="midnightblue" points="758.482,-86.9532 766.117,-79.6071 755.568,-80.5889 758.482,-86.9532"/>
</g>
<!-- Node12 -->
<g id="node12" class="node"><title>Node12</title>
<g id="a_node12"><a xlink:href="classAP__HAL_1_1RCInput.html#ab3671bbe43fdb97c53071d7832ac256e" target="_top" xlink:title="AP_HAL::RCInput::clear\l_overrides">
<polygon fill="white" stroke="black" points="746,-0.5 746,-30.5 871,-30.5 871,-0.5 746,-0.5"/>
<text text-anchor="start" x="754" y="-18.5" font-family="Helvetica,sans-Serif" font-size="10.00">AP_HAL::RCInput::clear</text>
<text text-anchor="middle" x="808.5" y="-7.5" font-family="Helvetica,sans-Serif" font-size="10.00">_overrides</text>
</a>
</g>
</g>
<!-- Node6&#45;&gt;Node12 -->
<g id="edge11" class="edge"><title>Node6&#45;&gt;Node12</title>
<path fill="none" stroke="midnightblue" d="M694.245,-125.978C699.933,-123.506 705.33,-120.4 710,-116.5 738.686,-92.5412 718.838,-66.1746 746,-40.5 747.633,-38.9561 749.375,-37.5024 751.198,-36.134"/>
<polygon fill="midnightblue" stroke="midnightblue" points="753.148,-39.0411 759.638,-30.6665 749.342,-33.1661 753.148,-39.0411"/>
</g>
<!-- Node14&#45;&gt;Node5 -->
<g id="edge14" class="edge"><title>Node14&#45;&gt;Node5</title>
<path fill="none" stroke="midnightblue" d="M411.133,-98.9166C419.499,-100.504 428.198,-102.154 436.607,-103.75"/>
<polygon fill="midnightblue" stroke="midnightblue" points="436.202,-107.235 446.679,-105.66 437.507,-100.358 436.202,-107.235"/>
</g>
</g>
</svg>
        <g id="navigator" transform="translate(0 0)" fill="#404254">
                <rect fill="#f2f5e9" fill-opacity="0.5" stroke="#606060" stroke-width=".5" x="0" y="0" width="60" height="60"/>
                <use id="zoomplus" xlink:href="#zoomPlus" x="17" y="9" onmousedown="handleZoom(evt,'in')"/>
                <use id="zoomminus" xlink:href="#zoomMin" x="42" y="9" onmousedown="handleZoom(evt,'out')"/>
                <use id="reset" xlink:href="#resetDef" x="30" y="36" onmousedown="handleReset()"/>
                <g id="arrowUp" xlink:href="#dirArrow" transform="translate(30 24)" onmousedown="handlePan(0,-1)">
                  <use xlink:href="#rim" fill="#404040">
                        <set attributeName="fill" to="#808080" begin="arrowUp.mouseover" end="arrowUp.mouseout"/>
                  </use>
                  <path fill="none" stroke="white" stroke-width="1.5" d="M0,-3.0v7 M-2.5,-0.5L0,-3.0L2.5,-0.5"/>
                </g>
                <g id="arrowRight" xlink:href="#dirArrow" transform="rotate(90) translate(36 -43)" onmousedown="handlePan(1,0)">
                  <use xlink:href="#rim" fill="#404040">
                        <set attributeName="fill" to="#808080" begin="arrowRight.mouseover" end="arrowRight.mouseout"/>
                  </use>
                  <path fill="none" stroke="white" stroke-width="1.5" d="M0,-3.0v7 M-2.5,-0.5L0,-3.0L2.5,-0.5"/>
                </g>
                <g id="arrowDown" xlink:href="#dirArrow" transform="rotate(180) translate(-30 -48)" onmousedown="handlePan(0,1)">
                  <use xlink:href="#rim" fill="#404040">
                        <set attributeName="fill" to="#808080" begin="arrowDown.mouseover" end="arrowDown.mouseout"/>
                  </use>
                  <path fill="none" stroke="white" stroke-width="1.5" d="M0,-3.0v7 M-2.5,-0.5L0,-3.0L2.5,-0.5"/>
                </g>
                <g id="arrowLeft" xlink:href="#dirArrow" transform="rotate(270) translate(-36 17)" onmousedown="handlePan(-1,0)">
                  <use xlink:href="#rim" fill="#404040">
                        <set attributeName="fill" to="#808080" begin="arrowLeft.mouseover" end="arrowLeft.mouseout"/>
                  </use>
                  <path fill="none" stroke="white" stroke-width="1.5" d="M0,-3.0v7 M-2.5,-0.5L0,-3.0L2.5,-0.5"/>
                </g>
        </g>
        <svg viewBox="0 0 15 15" width="100%" height="30px" preserveAspectRatio="xMaxYMin meet">
         <g id="arrow_out" transform="scale(0.3 0.3)">
          <a xlink:href="classAP__InertialSensor__HIL_abf98ef11debee955ccdc346e87ee520a_cgraph_org.svg" target="_base">
           <rect id="button" ry="5" rx="5" y="6" x="6" height="38" width="38"
                fill="#f2f5e9" fill-opacity="0.5" stroke="#606060" stroke-width="1.0"/>
           <path id="arrow"
             d="M 11.500037,31.436501 C 11.940474,20.09759 22.043105,11.32322 32.158766,21.979434 L 37.068811,17.246167 C 37.068811,17.246167 37.088388,32 37.088388,32 L 22.160133,31.978069 C 22.160133,31.978069 26.997745,27.140456 26.997745,27.140456 C 18.528582,18.264221 13.291696,25.230495 11.500037,31.436501 z"
             style="fill:#404040;"/>
          </a>
         </g>
        </svg>
</svg>
