<?xml version="1.0" encoding="UTF-8" standalone="no"?>
<!DOCTYPE svg PUBLIC "-//W3C//DTD SVG 1.1//EN"
 "http://www.w3.org/Graphics/SVG/1.1/DTD/svg11.dtd">
<!-- Generated by graphviz version 2.38.0 (20140413.2041)
 -->
<!-- Title: ByteBuffer::read_byte Pages: 1 -->
<svg width="1079pt" height="186pt"
 viewBox="0.00 0.00 1079.00 186.00" xmlns="http://www.w3.org/2000/svg" xmlns:xlink="http://www.w3.org/1999/xlink">
<g id="graph0" class="graph" transform="scale(1 1) rotate(0) translate(4 182)">
<title>ByteBuffer::read_byte</title>
<polygon fill="white" stroke="none" points="-4,4 -4,-182 1075,-182 1075,4 -4,4"/>
<!-- Node1 -->
<g id="node1" class="node"><title>Node1</title>
<polygon fill="#bfbfbf" stroke="black" points="-1.13687e-13,-104 -1.13687e-13,-123 112,-123 112,-104 -1.13687e-13,-104"/>
<text text-anchor="middle" x="56" y="-111" font-family="Helvetica,sans-Serif" font-size="10.00">ByteBuffer::read_byte</text>
</g>
<!-- Node2 -->
<g id="node2" class="node"><title>Node2</title>
<g id="a_node2"><a xlink:href="classPX4_1_1PX4UARTDriver.html#a6e4814e1b94bc882c0c9e7f95897152a" target="_top" xlink:title="PX4::PX4UARTDriver\l::read">
<polygon fill="white" stroke="black" points="175,-147.5 175,-177.5 289,-177.5 289,-147.5 175,-147.5"/>
<text text-anchor="start" x="183" y="-165.5" font-family="Helvetica,sans-Serif" font-size="10.00">PX4::PX4UARTDriver</text>
<text text-anchor="middle" x="232" y="-154.5" font-family="Helvetica,sans-Serif" font-size="10.00">::read</text>
</a>
</g>
</g>
<!-- Node1&#45;&gt;Node2 -->
<g id="edge1" class="edge"><title>Node1&#45;&gt;Node2</title>
<path fill="none" stroke="midnightblue" d="M100.598,-125.778C123.95,-132.354 152.91,-140.509 177.603,-147.463"/>
<polygon fill="midnightblue" stroke="midnightblue" points="101.536,-122.406 90.962,-123.064 99.6389,-129.144 101.536,-122.406"/>
</g>
<!-- Node7 -->
<g id="node7" class="node"><title>Node7</title>
<g id="a_node7"><a xlink:href="classVRBRAIN_1_1VRBRAINUARTDriver.html#a6a59afa2692575245576723f2bc8f955" target="_top" xlink:title="VRBRAIN::VRBRAINUARTDriver\l::read">
<polygon fill="white" stroke="black" points="148,-98.5 148,-128.5 316,-128.5 316,-98.5 148,-98.5"/>
<text text-anchor="start" x="156" y="-116.5" font-family="Helvetica,sans-Serif" font-size="10.00">VRBRAIN::VRBRAINUARTDriver</text>
<text text-anchor="middle" x="232" y="-105.5" font-family="Helvetica,sans-Serif" font-size="10.00">::read</text>
</a>
</g>
</g>
<!-- Node1&#45;&gt;Node7 -->
<g id="edge6" class="edge"><title>Node1&#45;&gt;Node7</title>
<path fill="none" stroke="midnightblue" d="M122.086,-113.5C130.446,-113.5 139.094,-113.5 147.695,-113.5"/>
<polygon fill="midnightblue" stroke="midnightblue" points="122.055,-110 112.055,-113.5 122.055,-117 122.055,-110"/>
</g>
<!-- Node12 -->
<g id="node12" class="node"><title>Node12</title>
<g id="a_node12"><a xlink:href="classLinux_1_1UARTDriver.html#a5f1033efb64a9e2f3c1a3010bb67f4c8" target="_top" xlink:title="Linux::UARTDriver::read">
<polygon fill="white" stroke="black" points="169.5,-59 169.5,-78 294.5,-78 294.5,-59 169.5,-59"/>
<text text-anchor="middle" x="232" y="-66" font-family="Helvetica,sans-Serif" font-size="10.00">Linux::UARTDriver::read</text>
</a>
</g>
</g>
<!-- Node1&#45;&gt;Node12 -->
<g id="edge11" class="edge"><title>Node1&#45;&gt;Node12</title>
<path fill="none" stroke="midnightblue" d="M100.666,-101.202C115.646,-97.0639 132.531,-92.4875 148,-88.5 161.779,-84.9481 176.895,-81.2477 190.409,-78.0095"/>
<polygon fill="midnightblue" stroke="midnightblue" points="99.3403,-97.9379 90.6407,-103.985 101.212,-104.683 99.3403,-97.9379"/>
</g>
<!-- Node3 -->
<g id="node3" class="node"><title>Node3</title>
<g id="a_node3"><a xlink:href="classPX4_1_1PX4UARTDriver.html#abab7e875c48a125ad33bbf6e77526678" target="_top" xlink:title="PX4::PX4UARTDriver\l::_read_fd">
<polygon fill="white" stroke="black" points="379,-147.5 379,-177.5 493,-177.5 493,-147.5 379,-147.5"/>
<text text-anchor="start" x="387" y="-165.5" font-family="Helvetica,sans-Serif" font-size="10.00">PX4::PX4UARTDriver</text>
<text text-anchor="middle" x="436" y="-154.5" font-family="Helvetica,sans-Serif" font-size="10.00">::_read_fd</text>
</a>
</g>
</g>
<!-- Node2&#45;&gt;Node3 -->
<g id="edge2" class="edge"><title>Node2&#45;&gt;Node3</title>
<path fill="none" stroke="midnightblue" d="M299.072,-162.5C324.872,-162.5 354.139,-162.5 378.891,-162.5"/>
<polygon fill="midnightblue" stroke="midnightblue" points="299,-159 289,-162.5 299,-166 299,-159"/>
</g>
<!-- Node4 -->
<g id="node4" class="node"><title>Node4</title>
<g id="a_node4"><a xlink:href="classPX4_1_1PX4UARTDriver.html#a15f4a4558c5ffa4cc27cd0371470afa4" target="_top" xlink:title="PX4::PX4UARTDriver\l::_timer_tick">
<polygon fill="white" stroke="black" points="583,-147.5 583,-177.5 697,-177.5 697,-147.5 583,-147.5"/>
<text text-anchor="start" x="591" y="-165.5" font-family="Helvetica,sans-Serif" font-size="10.00">PX4::PX4UARTDriver</text>
<text text-anchor="middle" x="640" y="-154.5" font-family="Helvetica,sans-Serif" font-size="10.00">::_timer_tick</text>
</a>
</g>
</g>
<!-- Node3&#45;&gt;Node4 -->
<g id="edge3" class="edge"><title>Node3&#45;&gt;Node4</title>
<path fill="none" stroke="midnightblue" d="M503.072,-162.5C528.872,-162.5 558.139,-162.5 582.891,-162.5"/>
<polygon fill="midnightblue" stroke="midnightblue" points="503,-159 493,-162.5 503,-166 503,-159"/>
</g>
<!-- Node5 -->
<g id="node5" class="node"><title>Node5</title>
<g id="a_node5"><a xlink:href="classPX4_1_1PX4UARTDriver.html#af53a7e0042be6c1fee55e45f7e63fe62" target="_top" xlink:title="PX4::PX4UARTDriver\l::set_device_path">
<polygon fill="white" stroke="black" points="787,-147.5 787,-177.5 901,-177.5 901,-147.5 787,-147.5"/>
<text text-anchor="start" x="795" y="-165.5" font-family="Helvetica,sans-Serif" font-size="10.00">PX4::PX4UARTDriver</text>
<text text-anchor="middle" x="844" y="-154.5" font-family="Helvetica,sans-Serif" font-size="10.00">::set_device_path</text>
</a>
</g>
</g>
<!-- Node4&#45;&gt;Node5 -->
<g id="edge4" class="edge"><title>Node4&#45;&gt;Node5</title>
<path fill="none" stroke="midnightblue" d="M707.072,-162.5C732.872,-162.5 762.139,-162.5 786.891,-162.5"/>
<polygon fill="midnightblue" stroke="midnightblue" points="707,-159 697,-162.5 707,-166 707,-159"/>
</g>
<!-- Node6 -->
<g id="node6" class="node"><title>Node6</title>
<g id="a_node6"><a xlink:href="classHAL__PX4.html#aa6fa9699a474be4e451d7135bf407259" target="_top" xlink:title="HAL_PX4::run">
<polygon fill="white" stroke="black" points="977.5,-153 977.5,-172 1057.5,-172 1057.5,-153 977.5,-153"/>
<text text-anchor="middle" x="1017.5" y="-160" font-family="Helvetica,sans-Serif" font-size="10.00">HAL_PX4::run</text>
</a>
</g>
</g>
<!-- Node5&#45;&gt;Node6 -->
<g id="edge5" class="edge"><title>Node5&#45;&gt;Node6</title>
<path fill="none" stroke="midnightblue" d="M911.258,-162.5C933.583,-162.5 957.769,-162.5 977.319,-162.5"/>
<polygon fill="midnightblue" stroke="midnightblue" points="911.156,-159 901.156,-162.5 911.155,-166 911.156,-159"/>
</g>
<!-- Node8 -->
<g id="node8" class="node"><title>Node8</title>
<g id="a_node8"><a xlink:href="classVRBRAIN_1_1VRBRAINUARTDriver.html#a0177a181f5bb9cbfda1d564f62711100" target="_top" xlink:title="VRBRAIN::VRBRAINUARTDriver\l::_read_fd">
<polygon fill="white" stroke="black" points="352,-98.5 352,-128.5 520,-128.5 520,-98.5 352,-98.5"/>
<text text-anchor="start" x="360" y="-116.5" font-family="Helvetica,sans-Serif" font-size="10.00">VRBRAIN::VRBRAINUARTDriver</text>
<text text-anchor="middle" x="436" y="-105.5" font-family="Helvetica,sans-Serif" font-size="10.00">::_read_fd</text>
</a>
</g>
</g>
<!-- Node7&#45;&gt;Node8 -->
<g id="edge7" class="edge"><title>Node7&#45;&gt;Node8</title>
<path fill="none" stroke="midnightblue" d="M326.109,-113.5C334.734,-113.5 343.435,-113.5 351.96,-113.5"/>
<polygon fill="midnightblue" stroke="midnightblue" points="326.036,-110 316.036,-113.5 326.036,-117 326.036,-110"/>
</g>
<!-- Node9 -->
<g id="node9" class="node"><title>Node9</title>
<g id="a_node9"><a xlink:href="classVRBRAIN_1_1VRBRAINUARTDriver.html#a72593c9ad60f292fe8c5b9cd5176e93b" target="_top" xlink:title="VRBRAIN::VRBRAINUARTDriver\l::_timer_tick">
<polygon fill="white" stroke="black" points="556,-98.5 556,-128.5 724,-128.5 724,-98.5 556,-98.5"/>
<text text-anchor="start" x="564" y="-116.5" font-family="Helvetica,sans-Serif" font-size="10.00">VRBRAIN::VRBRAINUARTDriver</text>
<text text-anchor="middle" x="640" y="-105.5" font-family="Helvetica,sans-Serif" font-size="10.00">::_timer_tick</text>
</a>
</g>
</g>
<!-- Node8&#45;&gt;Node9 -->
<g id="edge8" class="edge"><title>Node8&#45;&gt;Node9</title>
<path fill="none" stroke="midnightblue" d="M530.109,-113.5C538.734,-113.5 547.435,-113.5 555.96,-113.5"/>
<polygon fill="midnightblue" stroke="midnightblue" points="530.036,-110 520.036,-113.5 530.036,-117 530.036,-110"/>
</g>
<!-- Node10 -->
<g id="node10" class="node"><title>Node10</title>
<g id="a_node10"><a xlink:href="classVRBRAIN_1_1VRBRAINUARTDriver.html#aaa5e69f0f9a8ddacc82a37acc5dad411" target="_top" xlink:title="VRBRAIN::VRBRAINUARTDriver\l::set_device_path">
<polygon fill="white" stroke="black" points="760,-98.5 760,-128.5 928,-128.5 928,-98.5 760,-98.5"/>
<text text-anchor="start" x="768" y="-116.5" font-family="Helvetica,sans-Serif" font-size="10.00">VRBRAIN::VRBRAINUARTDriver</text>
<text text-anchor="middle" x="844" y="-105.5" font-family="Helvetica,sans-Serif" font-size="10.00">::set_device_path</text>
</a>
</g>
</g>
<!-- Node9&#45;&gt;Node10 -->
<g id="edge9" class="edge"><title>Node9&#45;&gt;Node10</title>
<path fill="none" stroke="midnightblue" d="M734.109,-113.5C742.734,-113.5 751.435,-113.5 759.96,-113.5"/>
<polygon fill="midnightblue" stroke="midnightblue" points="734.036,-110 724.036,-113.5 734.036,-117 734.036,-110"/>
</g>
<!-- Node11 -->
<g id="node11" class="node"><title>Node11</title>
<g id="a_node11"><a xlink:href="classHAL__VRBRAIN.html#a6bd6af4ec63788b20d4fa7794d0bb896" target="_top" xlink:title="HAL_VRBRAIN::run">
<polygon fill="white" stroke="black" points="964,-104 964,-123 1071,-123 1071,-104 964,-104"/>
<text text-anchor="middle" x="1017.5" y="-111" font-family="Helvetica,sans-Serif" font-size="10.00">HAL_VRBRAIN::run</text>
</a>
</g>
</g>
<!-- Node10&#45;&gt;Node11 -->
<g id="edge10" class="edge"><title>Node10&#45;&gt;Node11</title>
<path fill="none" stroke="midnightblue" d="M938.458,-113.5C947.14,-113.5 955.716,-113.5 963.826,-113.5"/>
<polygon fill="midnightblue" stroke="midnightblue" points="938.238,-110 928.238,-113.5 938.238,-117 938.238,-110"/>
</g>
<!-- Node13 -->
<g id="node13" class="node"><title>Node13</title>
<g id="a_node13"><a xlink:href="classLinux_1_1UARTDriver.html#aed6da29eabfa644dd9996146ac367ee9" target="_top" xlink:title="Linux::UARTDriver::from">
<polygon fill="white" stroke="black" points="373.5,-58 373.5,-77 498.5,-77 498.5,-58 373.5,-58"/>
<text text-anchor="middle" x="436" y="-65" font-family="Helvetica,sans-Serif" font-size="10.00">Linux::UARTDriver::from</text>
</a>
</g>
</g>
<!-- Node12&#45;&gt;Node13 -->
<g id="edge12" class="edge"><title>Node12&#45;&gt;Node13</title>
<path fill="none" stroke="midnightblue" d="M304.826,-68.1444C327.215,-68.0336 351.696,-67.9124 373.326,-67.8053"/>
<polygon fill="midnightblue" stroke="midnightblue" points="304.687,-64.645 294.704,-68.1945 304.722,-71.6449 304.687,-64.645"/>
</g>
<!-- Node14 -->
<g id="node14" class="node"><title>Node14</title>
<g id="a_node14"><a xlink:href="classLinux_1_1Scheduler.html#a3ebfa13ef10767a5df98effbaecf4dc6" target="_top" xlink:title="Linux::Scheduler::\l_run_uarts">
<polygon fill="white" stroke="black" points="592.5,-49.5 592.5,-79.5 687.5,-79.5 687.5,-49.5 592.5,-49.5"/>
<text text-anchor="start" x="600.5" y="-67.5" font-family="Helvetica,sans-Serif" font-size="10.00">Linux::Scheduler::</text>
<text text-anchor="middle" x="640" y="-56.5" font-family="Helvetica,sans-Serif" font-size="10.00">_run_uarts</text>
</a>
</g>
</g>
<!-- Node13&#45;&gt;Node14 -->
<g id="edge13" class="edge"><title>Node13&#45;&gt;Node14</title>
<path fill="none" stroke="midnightblue" d="M508.784,-66.4339C536.587,-66.021 567.623,-65.5601 592.419,-65.1918"/>
<polygon fill="midnightblue" stroke="midnightblue" points="508.651,-62.9354 498.704,-66.5836 508.755,-69.9346 508.651,-62.9354"/>
</g>
<!-- Node15 -->
<g id="node15" class="node"><title>Node15</title>
<g id="a_node15"><a xlink:href="classLinux_1_1Scheduler.html#a78a6776a646f8e58f5f39cf2ce366608" target="_top" xlink:title="Linux::Scheduler::\l_timer_task">
<polygon fill="white" stroke="black" points="796.5,-49.5 796.5,-79.5 891.5,-79.5 891.5,-49.5 796.5,-49.5"/>
<text text-anchor="start" x="804.5" y="-67.5" font-family="Helvetica,sans-Serif" font-size="10.00">Linux::Scheduler::</text>
<text text-anchor="middle" x="844" y="-56.5" font-family="Helvetica,sans-Serif" font-size="10.00">_timer_task</text>
</a>
</g>
</g>
<!-- Node14&#45;&gt;Node15 -->
<g id="edge14" class="edge"><title>Node14&#45;&gt;Node15</title>
<path fill="none" stroke="midnightblue" d="M697.848,-64.5C728.929,-64.5 766.955,-64.5 796.288,-64.5"/>
<polygon fill="midnightblue" stroke="midnightblue" points="697.597,-61.0001 687.597,-64.5 697.596,-68.0001 697.597,-61.0001"/>
</g>
<!-- Node16 -->
<g id="node16" class="node"><title>Node16</title>
<g id="a_node16"><a xlink:href="classLinux_1_1Scheduler.html#a12c87a7eeda735d03129826c4acb039b" target="_top" xlink:title="Linux::Scheduler::\l_uart_task">
<polygon fill="white" stroke="black" points="796.5,-0.5 796.5,-30.5 891.5,-30.5 891.5,-0.5 796.5,-0.5"/>
<text text-anchor="start" x="804.5" y="-18.5" font-family="Helvetica,sans-Serif" font-size="10.00">Linux::Scheduler::</text>
<text text-anchor="middle" x="844" y="-7.5" font-family="Helvetica,sans-Serif" font-size="10.00">_uart_task</text>
</a>
</g>
</g>
<!-- Node14&#45;&gt;Node16 -->
<g id="edge15" class="edge"><title>Node14&#45;&gt;Node16</title>
<path fill="none" stroke="midnightblue" d="M697.443,-50.8084C728.598,-43.251 766.827,-33.9775 796.288,-26.831"/>
<polygon fill="midnightblue" stroke="midnightblue" points="696.49,-47.4381 687.597,-53.1969 698.14,-54.2408 696.49,-47.4381"/>
</g>
</g>
</svg>
