<?xml version="1.0" encoding="UTF-8" standalone="no"?>
<!DOCTYPE svg PUBLIC "-//W3C//DTD SVG 1.1//EN"
 "http://www.w3.org/Graphics/SVG/1.1/DTD/svg11.dtd">
<!-- Generated by graphviz version 2.38.0 (20140413.2041)
 -->
<!-- Title: AP_FlashStorage::switch_full_sector Pages: 1 -->
<!--zoomable 138 -->
<svg id="main" version="1.1" xmlns="http://www.w3.org/2000/svg" xmlns:xlink="http://www.w3.org/1999/xlink" xml:space="preserve" onload="init(evt)">
<style type="text/css"><![CDATA[
.edge:hover path { stroke: red; }
.edge:hover polygon { stroke: red; fill: red; }
]]></style>
<script type="text/javascript"><![CDATA[
var edges = document.getElementsByTagName('g');
if (edges && edges.length) {
  for (var i=0;i<edges.length;i++) {
    if (edges[i].id.substr(0,4)=='edge') {
      edges[i].setAttribute('class','edge');
    }
  }
}
]]></script>
        <defs>
                <circle id="rim" cx="0" cy="0" r="7"/>
                <circle id="rim2" cx="0" cy="0" r="3.5"/>
                <g id="zoomPlus">
                        <use xlink:href="#rim" fill="#404040">
                                <set attributeName="fill" to="#808080" begin="zoomplus.mouseover" end="zoomplus.mouseout"/>
                        </use>
                        <path d="M-4,0h8M0,-4v8" fill="none" stroke="white" stroke-width="1.5" pointer-events="none"/>
                </g>
                <g id="zoomMin">
                        <use xlink:href="#rim" fill="#404040">
                                <set attributeName="fill" to="#808080" begin="zoomminus.mouseover" end="zoomminus.mouseout"/>
                        </use>
                        <path d="M-4,0h8" fill="none" stroke="white" stroke-width="1.5" pointer-events="none"/>
                </g>
                <g id="dirArrow">
                        <path fill="none" stroke="white" stroke-width="1.5" d="M0,-3.0v7 M-2.5,-0.5L0,-3.0L2.5,-0.5"/>
                </g>
               <g id="resetDef">
                       <use xlink:href="#rim2" fill="#404040">
                               <set attributeName="fill" to="#808080" begin="reset.mouseover" end="reset.mouseout"/>
                       </use>
               </g>
        </defs>

<script type="text/javascript">
var viewWidth = 640;
var viewHeight = 138;
var sectionId = 'dynsection-7';
</script>
<script xlink:href="svgpan.js"/>
<svg id="graph" class="graph">
<g id="viewport">
<title>AP_FlashStorage::switch_full_sector</title>
<polygon fill="white" stroke="none" points="-4,4 -4,-134.353 636,-134.353 636,4 -4,4"/>
<!-- Node1 -->
<g id="node1" class="node"><title>Node1</title>
<polygon fill="#bfbfbf" stroke="black" points="0,-45.3525 0,-75.3525 128,-75.3525 128,-45.3525 0,-45.3525"/>
<text text-anchor="start" x="8" y="-63.3525" font-family="Helvetica,sans-Serif" font-size="10.00">AP_FlashStorage::switch</text>
<text text-anchor="middle" x="64" y="-52.3525" font-family="Helvetica,sans-Serif" font-size="10.00">_full_sector</text>
</g>
<!-- Node2 -->
<g id="node2" class="node"><title>Node2</title>
<g id="a_node2"><a xlink:href="classAP__FlashStorage.html#a583ab6eb8d0903174321272fc3c39f5d" target="_top" xlink:title="AP_FlashStorage::write_all">
<polygon fill="white" stroke="black" points="164,-110.853 164,-129.853 299,-129.853 299,-110.853 164,-110.853"/>
<text text-anchor="middle" x="231.5" y="-117.853" font-family="Helvetica,sans-Serif" font-size="10.00">AP_FlashStorage::write_all</text>
</a>
</g>
</g>
<!-- Node1&#45;&gt;Node2 -->
<g id="edge1" class="edge"><title>Node1&#45;&gt;Node2</title>
<path fill="none" stroke="midnightblue" d="M106.416,-75.4383C124.147,-81.8901 145.085,-89.5004 164,-96.3525 173.867,-99.927 184.561,-103.791 194.429,-107.352"/>
<polygon fill="midnightblue" stroke="midnightblue" points="193.365,-110.689 203.96,-110.791 195.741,-104.105 193.365,-110.689"/>
</g>
<!-- Node5 -->
<g id="node5" class="node"><title>Node5</title>
<g id="a_node5"><a xlink:href="classAP__FlashStorage.html#a54f94604b92feaef993d8e1558878843" target="_top" xlink:title="AP_FlashStorage::switch\l_sectors">
<polygon fill="white" stroke="black" points="504,-23.3525 504,-53.3525 632,-53.3525 632,-23.3525 504,-23.3525"/>
<text text-anchor="start" x="512" y="-41.3525" font-family="Helvetica,sans-Serif" font-size="10.00">AP_FlashStorage::switch</text>
<text text-anchor="middle" x="568" y="-30.3525" font-family="Helvetica,sans-Serif" font-size="10.00">_sectors</text>
</a>
</g>
</g>
<!-- Node1&#45;&gt;Node5 -->
<g id="edge7" class="edge"><title>Node1&#45;&gt;Node5</title>
<path fill="none" stroke="midnightblue" d="M89.1176,-45.1589C108.512,-33.8869 136.901,-19.4585 164,-13.3525 277.126,12.1373 412.328,-5.75448 493.838,-21.6059"/>
<polygon fill="midnightblue" stroke="midnightblue" points="493.505,-25.1082 503.996,-23.6251 494.87,-18.2425 493.505,-25.1082"/>
</g>
<!-- Node6 -->
<g id="node6" class="node"><title>Node6</title>
<g id="a_node6"><a xlink:href="classAP__FlashStorage.html#aa66f357c6838db0d13a163617e60f59c" target="_top" xlink:title="AP_FlashStorage::erase\l_sector">
<polygon fill="white" stroke="black" points="170,-23.3525 170,-53.3525 293,-53.3525 293,-23.3525 170,-23.3525"/>
<text text-anchor="start" x="178" y="-41.3525" font-family="Helvetica,sans-Serif" font-size="10.00">AP_FlashStorage::erase</text>
<text text-anchor="middle" x="231.5" y="-30.3525" font-family="Helvetica,sans-Serif" font-size="10.00">_sector</text>
</a>
</g>
</g>
<!-- Node1&#45;&gt;Node6 -->
<g id="edge6" class="edge"><title>Node1&#45;&gt;Node6</title>
<path fill="none" stroke="midnightblue" d="M128.041,-51.9725C138.424,-50.5922 149.248,-49.1534 159.804,-47.7502"/>
<polygon fill="midnightblue" stroke="midnightblue" points="160.368,-51.2061 169.819,-46.4189 159.445,-44.2672 160.368,-51.2061"/>
</g>
<!-- Node3 -->
<g id="node3" class="node"><title>Node3</title>
<g id="a_node3"><a xlink:href="classAP__FlashStorage.html#a6877daae6e6716aa5fc06d919b609bd8" target="_top" xlink:title="AP_FlashStorage::all_zero">
<polygon fill="white" stroke="black" points="335,-110.853 335,-129.853 468,-129.853 468,-110.853 335,-110.853"/>
<text text-anchor="middle" x="401.5" y="-117.853" font-family="Helvetica,sans-Serif" font-size="10.00">AP_FlashStorage::all_zero</text>
</a>
</g>
</g>
<!-- Node2&#45;&gt;Node3 -->
<g id="edge2" class="edge"><title>Node2&#45;&gt;Node3</title>
<path fill="none" stroke="midnightblue" d="M299.381,-120.353C307.708,-120.353 316.269,-120.353 324.718,-120.353"/>
<polygon fill="midnightblue" stroke="midnightblue" points="324.945,-123.853 334.945,-120.353 324.945,-116.853 324.945,-123.853"/>
</g>
<!-- Node4 -->
<g id="node4" class="node"><title>Node4</title>
<g id="a_node4"><a xlink:href="classAP__FlashStorage.html#a0b06f85f5d21e01e5b2d76194bd8a075" target="_top" xlink:title="AP_FlashStorage::write">
<polygon fill="white" stroke="black" points="341.5,-72.8525 341.5,-91.8525 461.5,-91.8525 461.5,-72.8525 341.5,-72.8525"/>
<text text-anchor="middle" x="401.5" y="-79.8525" font-family="Helvetica,sans-Serif" font-size="10.00">AP_FlashStorage::write</text>
</a>
</g>
</g>
<!-- Node2&#45;&gt;Node4 -->
<g id="edge3" class="edge"><title>Node2&#45;&gt;Node4</title>
<path fill="none" stroke="midnightblue" d="M274.893,-110.764C297.263,-105.704 324.898,-99.4529 348.547,-94.1038"/>
<polygon fill="midnightblue" stroke="midnightblue" points="349.43,-97.4926 358.411,-91.8726 347.886,-90.6651 349.43,-97.4926"/>
</g>
<!-- Node4&#45;&gt;Node1 -->
<g id="edge5" class="edge"><title>Node4&#45;&gt;Node1</title>
<path fill="none" stroke="midnightblue" d="M341.335,-78.4729C284.765,-74.7634 199.305,-69.1594 138.416,-65.1667"/>
<polygon fill="midnightblue" stroke="midnightblue" points="138.313,-61.6525 128.105,-64.4906 137.855,-68.6375 138.313,-61.6525"/>
</g>
<!-- Node4&#45;&gt;Node5 -->
<g id="edge4" class="edge"><title>Node4&#45;&gt;Node5</title>
<path fill="none" stroke="midnightblue" d="M438.194,-72.8052C456.549,-67.8955 479.517,-61.7521 500.956,-56.0179"/>
<polygon fill="midnightblue" stroke="midnightblue" points="501.92,-59.383 510.676,-53.4179 500.111,-52.6208 501.92,-59.383"/>
</g>
</g>
</svg>
        <g id="navigator" transform="translate(0 0)" fill="#404254">
                <rect fill="#f2f5e9" fill-opacity="0.5" stroke="#606060" stroke-width=".5" x="0" y="0" width="60" height="60"/>
                <use id="zoomplus" xlink:href="#zoomPlus" x="17" y="9" onmousedown="handleZoom(evt,'in')"/>
                <use id="zoomminus" xlink:href="#zoomMin" x="42" y="9" onmousedown="handleZoom(evt,'out')"/>
                <use id="reset" xlink:href="#resetDef" x="30" y="36" onmousedown="handleReset()"/>
                <g id="arrowUp" xlink:href="#dirArrow" transform="translate(30 24)" onmousedown="handlePan(0,-1)">
                  <use xlink:href="#rim" fill="#404040">
                        <set attributeName="fill" to="#808080" begin="arrowUp.mouseover" end="arrowUp.mouseout"/>
                  </use>
                  <path fill="none" stroke="white" stroke-width="1.5" d="M0,-3.0v7 M-2.5,-0.5L0,-3.0L2.5,-0.5"/>
                </g>
                <g id="arrowRight" xlink:href="#dirArrow" transform="rotate(90) translate(36 -43)" onmousedown="handlePan(1,0)">
                  <use xlink:href="#rim" fill="#404040">
                        <set attributeName="fill" to="#808080" begin="arrowRight.mouseover" end="arrowRight.mouseout"/>
                  </use>
                  <path fill="none" stroke="white" stroke-width="1.5" d="M0,-3.0v7 M-2.5,-0.5L0,-3.0L2.5,-0.5"/>
                </g>
                <g id="arrowDown" xlink:href="#dirArrow" transform="rotate(180) translate(-30 -48)" onmousedown="handlePan(0,1)">
                  <use xlink:href="#rim" fill="#404040">
                        <set attributeName="fill" to="#808080" begin="arrowDown.mouseover" end="arrowDown.mouseout"/>
                  </use>
                  <path fill="none" stroke="white" stroke-width="1.5" d="M0,-3.0v7 M-2.5,-0.5L0,-3.0L2.5,-0.5"/>
                </g>
                <g id="arrowLeft" xlink:href="#dirArrow" transform="rotate(270) translate(-36 17)" onmousedown="handlePan(-1,0)">
                  <use xlink:href="#rim" fill="#404040">
                        <set attributeName="fill" to="#808080" begin="arrowLeft.mouseover" end="arrowLeft.mouseout"/>
                  </use>
                  <path fill="none" stroke="white" stroke-width="1.5" d="M0,-3.0v7 M-2.5,-0.5L0,-3.0L2.5,-0.5"/>
                </g>
        </g>
        <svg viewBox="0 0 15 15" width="100%" height="30px" preserveAspectRatio="xMaxYMin meet">
         <g id="arrow_out" transform="scale(0.3 0.3)">
          <a xlink:href="classAP__FlashStorage_a0f1fcc2a684940d96a9288c104afc98d_cgraph_org.svg" target="_base">
           <rect id="button" ry="5" rx="5" y="6" x="6" height="38" width="38"
                fill="#f2f5e9" fill-opacity="0.5" stroke="#606060" stroke-width="1.0"/>
           <path id="arrow"
             d="M 11.500037,31.436501 C 11.940474,20.09759 22.043105,11.32322 32.158766,21.979434 L 37.068811,17.246167 C 37.068811,17.246167 37.088388,32 37.088388,32 L 22.160133,31.978069 C 22.160133,31.978069 26.997745,27.140456 26.997745,27.140456 C 18.528582,18.264221 13.291696,25.230495 11.500037,31.436501 z"
             style="fill:#404040;"/>
          </a>
         </g>
        </svg>
</svg>
