<?xml version="1.0" encoding="UTF-8" standalone="no"?>
<!DOCTYPE svg PUBLIC "-//W3C//DTD SVG 1.1//EN"
 "http://www.w3.org/Graphics/SVG/1.1/DTD/svg11.dtd">
<!-- Generated by graphviz version 2.38.0 (20140413.2041)
 -->
<!-- Title: SerialDevice::open Pages: 1 -->
<!--zoomable 251 -->
<svg id="main" version="1.1" xmlns="http://www.w3.org/2000/svg" xmlns:xlink="http://www.w3.org/1999/xlink" xml:space="preserve" onload="init(evt)">
<style type="text/css"><![CDATA[
.edge:hover path { stroke: red; }
.edge:hover polygon { stroke: red; fill: red; }
]]></style>
<script type="text/javascript"><![CDATA[
var edges = document.getElementsByTagName('g');
if (edges && edges.length) {
  for (var i=0;i<edges.length;i++) {
    if (edges[i].id.substr(0,4)=='edge') {
      edges[i].setAttribute('class','edge');
    }
  }
}
]]></script>
        <defs>
                <circle id="rim" cx="0" cy="0" r="7"/>
                <circle id="rim2" cx="0" cy="0" r="3.5"/>
                <g id="zoomPlus">
                        <use xlink:href="#rim" fill="#404040">
                                <set attributeName="fill" to="#808080" begin="zoomplus.mouseover" end="zoomplus.mouseout"/>
                        </use>
                        <path d="M-4,0h8M0,-4v8" fill="none" stroke="white" stroke-width="1.5" pointer-events="none"/>
                </g>
                <g id="zoomMin">
                        <use xlink:href="#rim" fill="#404040">
                                <set attributeName="fill" to="#808080" begin="zoomminus.mouseover" end="zoomminus.mouseout"/>
                        </use>
                        <path d="M-4,0h8" fill="none" stroke="white" stroke-width="1.5" pointer-events="none"/>
                </g>
                <g id="dirArrow">
                        <path fill="none" stroke="white" stroke-width="1.5" d="M0,-3.0v7 M-2.5,-0.5L0,-3.0L2.5,-0.5"/>
                </g>
               <g id="resetDef">
                       <use xlink:href="#rim2" fill="#404040">
                               <set attributeName="fill" to="#808080" begin="reset.mouseover" end="reset.mouseout"/>
                       </use>
               </g>
        </defs>

<script type="text/javascript">
var viewWidth = 1180;
var viewHeight = 251;
var sectionId = 'dynsection-4';
</script>
<script xlink:href="svgpan.js"/>
<svg id="graph" class="graph">
<g id="viewport">
<title>SerialDevice::open</title>
<polygon fill="white" stroke="none" points="-4,4 -4,-247 1176,-247 1176,4 -4,4"/>
<!-- Node1 -->
<g id="node1" class="node"><title>Node1</title>
<polygon fill="#bfbfbf" stroke="black" points="0,-44.5 0,-63.5 99,-63.5 99,-44.5 0,-44.5"/>
<text text-anchor="middle" x="49.5" y="-51.5" font-family="Helvetica,sans-Serif" font-size="10.00">SerialDevice::open</text>
</g>
<!-- Node2 -->
<g id="node2" class="node"><title>Node2</title>
<g id="a_node2"><a xlink:href="classLinux_1_1UARTDriver.html#a6c5b8c25e9154e44794622411eda0bd4" target="_top" xlink:title="Linux::UARTDriver::\l_write_fd">
<polygon fill="white" stroke="black" points="152,-88 152,-118 258,-118 258,-88 152,-88"/>
<text text-anchor="start" x="160" y="-106" font-family="Helvetica,sans-Serif" font-size="10.00">Linux::UARTDriver::</text>
<text text-anchor="middle" x="205" y="-95" font-family="Helvetica,sans-Serif" font-size="10.00">_write_fd</text>
</a>
</g>
</g>
<!-- Node1&#45;&gt;Node2 -->
<g id="edge1" class="edge"><title>Node1&#45;&gt;Node2</title>
<path fill="none" stroke="midnightblue" d="M90.0696,-66.6313C110.473,-73.1446 135.5,-81.1334 156.894,-87.963"/>
<polygon fill="midnightblue" stroke="midnightblue" points="91.0515,-63.2708 80.4607,-63.564 88.9228,-69.9393 91.0515,-63.2708"/>
</g>
<!-- Node14 -->
<g id="node14" class="node"><title>Node14</title>
<g id="a_node14"><a xlink:href="classLinux_1_1UARTDriver.html#a3c0680a281a3832fe9bae399ef9b8854" target="_top" xlink:title="Linux::UARTDriver::\lbegin">
<polygon fill="white" stroke="black" points="152,-39 152,-69 258,-69 258,-39 152,-39"/>
<text text-anchor="start" x="160" y="-57" font-family="Helvetica,sans-Serif" font-size="10.00">Linux::UARTDriver::</text>
<text text-anchor="middle" x="205" y="-46" font-family="Helvetica,sans-Serif" font-size="10.00">begin</text>
</a>
</g>
</g>
<!-- Node1&#45;&gt;Node14 -->
<g id="edge18" class="edge"><title>Node1&#45;&gt;Node14</title>
<path fill="none" stroke="midnightblue" d="M109.108,-54C123.144,-54 138.038,-54 151.764,-54"/>
<polygon fill="midnightblue" stroke="midnightblue" points="109.068,-50.5001 99.0684,-54 109.068,-57.5001 109.068,-50.5001"/>
</g>
<!-- Node15 -->
<g id="node15" class="node"><title>Node15</title>
<g id="a_node15"><a xlink:href="classSerialDevice.html#ab69c0db44b4a369736b559ffaa014924" target="_top" xlink:title="SerialDevice::~SerialDevice">
<polygon fill="white" stroke="black" points="135,-0.5 135,-19.5 275,-19.5 275,-0.5 135,-0.5"/>
<text text-anchor="middle" x="205" y="-7.5" font-family="Helvetica,sans-Serif" font-size="10.00">SerialDevice::~SerialDevice</text>
</a>
</g>
</g>
<!-- Node1&#45;&gt;Node15 -->
<g id="edge19" class="edge"><title>Node1&#45;&gt;Node15</title>
<path fill="none" stroke="midnightblue" d="M91.8183,-41.6055C105.542,-37.5341 120.913,-33.0229 135,-29 145.992,-25.861 157.994,-22.5243 168.862,-19.5374"/>
<polygon fill="midnightblue" stroke="midnightblue" points="90.7452,-38.2731 82.1583,-44.4791 92.7412,-44.9825 90.7452,-38.2731"/>
</g>
<!-- Node3 -->
<g id="node3" class="node"><title>Node3</title>
<g id="a_node3"><a xlink:href="classLinux_1_1UARTDriver.html#a9d1e3a24e3ad028cad337132cf3a3f7f" target="_top" xlink:title="Linux::UARTDriver::\l_write_pending_bytes">
<polygon fill="white" stroke="black" points="313.5,-145 313.5,-175 424.5,-175 424.5,-145 313.5,-145"/>
<text text-anchor="start" x="321.5" y="-163" font-family="Helvetica,sans-Serif" font-size="10.00">Linux::UARTDriver::</text>
<text text-anchor="middle" x="369" y="-152" font-family="Helvetica,sans-Serif" font-size="10.00">_write_pending_bytes</text>
</a>
</g>
</g>
<!-- Node2&#45;&gt;Node3 -->
<g id="edge2" class="edge"><title>Node2&#45;&gt;Node3</title>
<path fill="none" stroke="midnightblue" d="M258.629,-121.518C280.137,-129.085 304.701,-137.728 325.093,-144.903"/>
<polygon fill="midnightblue" stroke="midnightblue" points="259.583,-118.143 248.988,-118.125 257.259,-124.746 259.583,-118.143"/>
</g>
<!-- Node12 -->
<g id="node12" class="node"><title>Node12</title>
<g id="a_node12"><a xlink:href="classLinux_1_1RPIOUARTDriver.html#a28f3b5fd255a2f51fd0bfa2189451b32" target="_top" xlink:title="Linux::RPIOUARTDriver\l::_write_fd">
<polygon fill="white" stroke="black" points="463,-74 463,-104 588,-104 588,-74 463,-74"/>
<text text-anchor="start" x="471" y="-92" font-family="Helvetica,sans-Serif" font-size="10.00">Linux::RPIOUARTDriver</text>
<text text-anchor="middle" x="525.5" y="-81" font-family="Helvetica,sans-Serif" font-size="10.00">::_write_fd</text>
</a>
</g>
</g>
<!-- Node2&#45;&gt;Node12 -->
<g id="edge15" class="edge"><title>Node2&#45;&gt;Node12</title>
<path fill="none" stroke="midnightblue" d="M268.429,-100.256C324.7,-97.7824 406.964,-94.1664 462.959,-91.7051"/>
<polygon fill="midnightblue" stroke="midnightblue" points="268.074,-96.768 258.237,-100.704 268.381,-103.761 268.074,-96.768"/>
</g>
<!-- Node13 -->
<g id="node13" class="node"><title>Node13</title>
<g id="a_node13"><a xlink:href="classLinux_1_1SPIUARTDriver.html#aac5f3f993e2270c5d99f6d46e639a8b7" target="_top" xlink:title="Linux::SPIUARTDriver\l::_write_fd">
<polygon fill="white" stroke="black" points="311,-44 311,-74 427,-74 427,-44 311,-44"/>
<text text-anchor="start" x="319" y="-62" font-family="Helvetica,sans-Serif" font-size="10.00">Linux::SPIUARTDriver</text>
<text text-anchor="middle" x="369" y="-51" font-family="Helvetica,sans-Serif" font-size="10.00">::_write_fd</text>
</a>
</g>
</g>
<!-- Node2&#45;&gt;Node13 -->
<g id="edge17" class="edge"><title>Node2&#45;&gt;Node13</title>
<path fill="none" stroke="midnightblue" d="M268.121,-86.1277C282.762,-82.1512 298.274,-77.938 312.596,-74.0481"/>
<polygon fill="midnightblue" stroke="midnightblue" points="266.883,-82.8371 258.15,-88.8359 268.717,-89.5924 266.883,-82.8371"/>
</g>
<!-- Node4 -->
<g id="node4" class="node"><title>Node4</title>
<g id="a_node4"><a xlink:href="classLinux_1_1UARTDriver.html#a0518ce1498288dc92caf6bec9ed99b1b" target="_top" xlink:title="Linux::UARTDriver::\l_timer_tick">
<polygon fill="white" stroke="black" points="472.5,-145 472.5,-175 578.5,-175 578.5,-145 472.5,-145"/>
<text text-anchor="start" x="480.5" y="-163" font-family="Helvetica,sans-Serif" font-size="10.00">Linux::UARTDriver::</text>
<text text-anchor="middle" x="525.5" y="-152" font-family="Helvetica,sans-Serif" font-size="10.00">_timer_tick</text>
</a>
</g>
</g>
<!-- Node3&#45;&gt;Node4 -->
<g id="edge3" class="edge"><title>Node3&#45;&gt;Node4</title>
<path fill="none" stroke="midnightblue" d="M435.196,-160C447.599,-160 460.427,-160 472.358,-160"/>
<polygon fill="midnightblue" stroke="midnightblue" points="434.906,-156.5 424.906,-160 434.906,-163.5 434.906,-156.5"/>
</g>
<!-- Node5 -->
<g id="node5" class="node"><title>Node5</title>
<g id="a_node5"><a xlink:href="classLinux_1_1UARTDriver.html#aed6da29eabfa644dd9996146ac367ee9" target="_top" xlink:title="Linux::UARTDriver::from">
<polygon fill="white" stroke="black" points="624,-223.5 624,-242.5 749,-242.5 749,-223.5 624,-223.5"/>
<text text-anchor="middle" x="686.5" y="-230.5" font-family="Helvetica,sans-Serif" font-size="10.00">Linux::UARTDriver::from</text>
</a>
</g>
</g>
<!-- Node3&#45;&gt;Node5 -->
<g id="edge14" class="edge"><title>Node3&#45;&gt;Node5</title>
<path fill="none" stroke="midnightblue" d="M433.677,-177.571C443.476,-180.143 453.494,-182.698 463,-185 523.108,-199.553 592.877,-214.251 638.032,-223.478"/>
<polygon fill="midnightblue" stroke="midnightblue" points="434.54,-174.179 423.977,-175.001 432.747,-180.945 434.54,-174.179"/>
</g>
<!-- Node4&#45;&gt;Node5 -->
<g id="edge4" class="edge"><title>Node4&#45;&gt;Node5</title>
<path fill="none" stroke="midnightblue" d="M563.765,-179.757C581.772,-189.038 603.809,-200.01 624,-209 635.517,-214.128 648.492,-219.28 659.545,-223.489"/>
<polygon fill="midnightblue" stroke="midnightblue" points="565.235,-176.577 554.747,-175.077 562.011,-182.79 565.235,-176.577"/>
</g>
<!-- Node6 -->
<g id="node6" class="node"><title>Node6</title>
<g id="a_node6"><a xlink:href="classLinux_1_1Scheduler.html#a3ebfa13ef10767a5df98effbaecf4dc6" target="_top" xlink:title="Linux::Scheduler::\l_run_uarts">
<polygon fill="white" stroke="black" points="946,-161 946,-191 1041,-191 1041,-161 946,-161"/>
<text text-anchor="start" x="954" y="-179" font-family="Helvetica,sans-Serif" font-size="10.00">Linux::Scheduler::</text>
<text text-anchor="middle" x="993.5" y="-168" font-family="Helvetica,sans-Serif" font-size="10.00">_run_uarts</text>
</a>
</g>
</g>
<!-- Node4&#45;&gt;Node6 -->
<g id="edge8" class="edge"><title>Node4&#45;&gt;Node6</title>
<path fill="none" stroke="midnightblue" d="M588.786,-171.709C600.448,-173.477 612.565,-175.032 624,-176 739.384,-185.765 875.818,-181.722 945.857,-178.514"/>
<polygon fill="midnightblue" stroke="midnightblue" points="589.108,-168.216 578.683,-170.109 588.012,-175.13 589.108,-168.216"/>
</g>
<!-- Node9 -->
<g id="node9" class="node"><title>Node9</title>
<g id="a_node9"><a xlink:href="classLinux_1_1RPIOUARTDriver.html#ab5553bf130bd1b133d8c03fd67b769be" target="_top" xlink:title="Linux::RPIOUARTDriver\l::_timer_tick">
<polygon fill="white" stroke="black" points="624,-136 624,-166 749,-166 749,-136 624,-136"/>
<text text-anchor="start" x="632" y="-154" font-family="Helvetica,sans-Serif" font-size="10.00">Linux::RPIOUARTDriver</text>
<text text-anchor="middle" x="686.5" y="-143" font-family="Helvetica,sans-Serif" font-size="10.00">::_timer_tick</text>
</a>
</g>
</g>
<!-- Node4&#45;&gt;Node9 -->
<g id="edge9" class="edge"><title>Node4&#45;&gt;Node9</title>
<path fill="none" stroke="midnightblue" d="M588.599,-156.485C600.202,-155.828 612.325,-155.142 623.913,-154.486"/>
<polygon fill="midnightblue" stroke="midnightblue" points="588.349,-152.993 578.563,-157.053 588.744,-159.982 588.349,-152.993"/>
</g>
<!-- Node11 -->
<g id="node11" class="node"><title>Node11</title>
<g id="a_node11"><a xlink:href="classLinux_1_1SPIUARTDriver.html#a25fbec9378c29b768394458954027ac5" target="_top" xlink:title="Linux::SPIUARTDriver\l::_timer_tick">
<polygon fill="white" stroke="black" points="628.5,-87 628.5,-117 744.5,-117 744.5,-87 628.5,-87"/>
<text text-anchor="start" x="636.5" y="-105" font-family="Helvetica,sans-Serif" font-size="10.00">Linux::SPIUARTDriver</text>
<text text-anchor="middle" x="686.5" y="-94" font-family="Helvetica,sans-Serif" font-size="10.00">::_timer_tick</text>
</a>
</g>
</g>
<!-- Node4&#45;&gt;Node11 -->
<g id="edge13" class="edge"><title>Node4&#45;&gt;Node11</title>
<path fill="none" stroke="midnightblue" d="M577.528,-141.386C599.124,-133.508 623.95,-124.452 644.347,-117.012"/>
<polygon fill="midnightblue" stroke="midnightblue" points="576.055,-138.198 567.86,-144.913 578.454,-144.774 576.055,-138.198"/>
</g>
<!-- Node5&#45;&gt;Node6 -->
<g id="edge5" class="edge"><title>Node5&#45;&gt;Node6</title>
<path fill="none" stroke="midnightblue" d="M759.237,-230.234C803.266,-227.316 860.507,-221.321 910,-209 927.215,-204.715 945.611,-197.62 960.654,-191.105"/>
<polygon fill="midnightblue" stroke="midnightblue" points="758.961,-226.744 749.199,-230.861 759.398,-233.731 758.961,-226.744"/>
</g>
<!-- Node7 -->
<g id="node7" class="node"><title>Node7</title>
<g id="a_node7"><a xlink:href="classLinux_1_1Scheduler.html#a78a6776a646f8e58f5f39cf2ce366608" target="_top" xlink:title="Linux::Scheduler::\l_timer_task">
<polygon fill="white" stroke="black" points="1077,-186 1077,-216 1172,-216 1172,-186 1077,-186"/>
<text text-anchor="start" x="1085" y="-204" font-family="Helvetica,sans-Serif" font-size="10.00">Linux::Scheduler::</text>
<text text-anchor="middle" x="1124.5" y="-193" font-family="Helvetica,sans-Serif" font-size="10.00">_timer_task</text>
</a>
</g>
</g>
<!-- Node6&#45;&gt;Node7 -->
<g id="edge6" class="edge"><title>Node6&#45;&gt;Node7</title>
<path fill="none" stroke="midnightblue" d="M1051.1,-186.969C1059.75,-188.646 1068.6,-190.36 1077,-191.988"/>
<polygon fill="midnightblue" stroke="midnightblue" points="1051.56,-183.492 1041.07,-185.026 1050.22,-190.364 1051.56,-183.492"/>
</g>
<!-- Node8 -->
<g id="node8" class="node"><title>Node8</title>
<g id="a_node8"><a xlink:href="classLinux_1_1Scheduler.html#a12c87a7eeda735d03129826c4acb039b" target="_top" xlink:title="Linux::Scheduler::\l_uart_task">
<polygon fill="white" stroke="black" points="1077,-137 1077,-167 1172,-167 1172,-137 1077,-137"/>
<text text-anchor="start" x="1085" y="-155" font-family="Helvetica,sans-Serif" font-size="10.00">Linux::Scheduler::</text>
<text text-anchor="middle" x="1124.5" y="-144" font-family="Helvetica,sans-Serif" font-size="10.00">_uart_task</text>
</a>
</g>
</g>
<!-- Node6&#45;&gt;Node8 -->
<g id="edge7" class="edge"><title>Node6&#45;&gt;Node8</title>
<path fill="none" stroke="midnightblue" d="M1051.1,-165.47C1059.75,-163.86 1068.6,-162.215 1077,-160.652"/>
<polygon fill="midnightblue" stroke="midnightblue" points="1050.26,-162.065 1041.07,-167.335 1051.54,-168.947 1050.26,-162.065"/>
</g>
<!-- Node9&#45;&gt;Node6 -->
<g id="edge10" class="edge"><title>Node9&#45;&gt;Node6</title>
<path fill="none" stroke="midnightblue" d="M759.356,-156.89C816.974,-161.613 896.155,-168.103 945.814,-172.173"/>
<polygon fill="midnightblue" stroke="midnightblue" points="759.474,-153.388 749.221,-156.059 758.902,-160.364 759.474,-153.388"/>
</g>
<!-- Node10 -->
<g id="node10" class="node"><title>Node10</title>
<g id="a_node10"><a xlink:href="classLinux_1_1RPIOUARTDriver.html#a601d17d9cac82167ead641edeed20c58" target="_top" xlink:title="Linux::RPIOUARTDriver\l::from">
<polygon fill="white" stroke="black" points="785,-98 785,-128 910,-128 910,-98 785,-98"/>
<text text-anchor="start" x="793" y="-116" font-family="Helvetica,sans-Serif" font-size="10.00">Linux::RPIOUARTDriver</text>
<text text-anchor="middle" x="847.5" y="-105" font-family="Helvetica,sans-Serif" font-size="10.00">::from</text>
</a>
</g>
</g>
<!-- Node9&#45;&gt;Node10 -->
<g id="edge11" class="edge"><title>Node9&#45;&gt;Node10</title>
<path fill="none" stroke="midnightblue" d="M759.315,-133.837C767.803,-131.808 776.408,-129.751 784.74,-127.76"/>
<polygon fill="midnightblue" stroke="midnightblue" points="758.341,-130.471 749.429,-136.199 759.969,-137.279 758.341,-130.471"/>
</g>
<!-- Node10&#45;&gt;Node6 -->
<g id="edge12" class="edge"><title>Node10&#45;&gt;Node6</title>
<path fill="none" stroke="midnightblue" d="M892.34,-132.18C913.337,-141.366 938.127,-152.212 957.791,-160.815"/>
<polygon fill="midnightblue" stroke="midnightblue" points="893.556,-128.892 882.992,-128.09 890.75,-135.305 893.556,-128.892"/>
</g>
<!-- Node12&#45;&gt;Node10 -->
<g id="edge16" class="edge"><title>Node12&#45;&gt;Node10</title>
<path fill="none" stroke="midnightblue" d="M598.328,-77.4574C642.157,-72.3875 699.157,-69.3249 749,-78 771.148,-81.8548 794.913,-90.2898 813.435,-97.9131"/>
<polygon fill="midnightblue" stroke="midnightblue" points="597.839,-73.991 588.335,-78.6741 598.685,-80.9397 597.839,-73.991"/>
</g>
</g>
</svg>
        <g id="navigator" transform="translate(0 0)" fill="#404254">
                <rect fill="#f2f5e9" fill-opacity="0.5" stroke="#606060" stroke-width=".5" x="0" y="0" width="60" height="60"/>
                <use id="zoomplus" xlink:href="#zoomPlus" x="17" y="9" onmousedown="handleZoom(evt,'in')"/>
                <use id="zoomminus" xlink:href="#zoomMin" x="42" y="9" onmousedown="handleZoom(evt,'out')"/>
                <use id="reset" xlink:href="#resetDef" x="30" y="36" onmousedown="handleReset()"/>
                <g id="arrowUp" xlink:href="#dirArrow" transform="translate(30 24)" onmousedown="handlePan(0,-1)">
                  <use xlink:href="#rim" fill="#404040">
                        <set attributeName="fill" to="#808080" begin="arrowUp.mouseover" end="arrowUp.mouseout"/>
                  </use>
                  <path fill="none" stroke="white" stroke-width="1.5" d="M0,-3.0v7 M-2.5,-0.5L0,-3.0L2.5,-0.5"/>
                </g>
                <g id="arrowRight" xlink:href="#dirArrow" transform="rotate(90) translate(36 -43)" onmousedown="handlePan(1,0)">
                  <use xlink:href="#rim" fill="#404040">
                        <set attributeName="fill" to="#808080" begin="arrowRight.mouseover" end="arrowRight.mouseout"/>
                  </use>
                  <path fill="none" stroke="white" stroke-width="1.5" d="M0,-3.0v7 M-2.5,-0.5L0,-3.0L2.5,-0.5"/>
                </g>
                <g id="arrowDown" xlink:href="#dirArrow" transform="rotate(180) translate(-30 -48)" onmousedown="handlePan(0,1)">
                  <use xlink:href="#rim" fill="#404040">
                        <set attributeName="fill" to="#808080" begin="arrowDown.mouseover" end="arrowDown.mouseout"/>
                  </use>
                  <path fill="none" stroke="white" stroke-width="1.5" d="M0,-3.0v7 M-2.5,-0.5L0,-3.0L2.5,-0.5"/>
                </g>
                <g id="arrowLeft" xlink:href="#dirArrow" transform="rotate(270) translate(-36 17)" onmousedown="handlePan(-1,0)">
                  <use xlink:href="#rim" fill="#404040">
                        <set attributeName="fill" to="#808080" begin="arrowLeft.mouseover" end="arrowLeft.mouseout"/>
                  </use>
                  <path fill="none" stroke="white" stroke-width="1.5" d="M0,-3.0v7 M-2.5,-0.5L0,-3.0L2.5,-0.5"/>
                </g>
        </g>
        <svg viewBox="0 0 15 15" width="100%" height="30px" preserveAspectRatio="xMaxYMin meet">
         <g id="arrow_out" transform="scale(0.3 0.3)">
          <a xlink:href="classSerialDevice_aaad60303d5def2e5abf4b9988e74ff2d_icgraph_org.svg" target="_base">
           <rect id="button" ry="5" rx="5" y="6" x="6" height="38" width="38"
                fill="#f2f5e9" fill-opacity="0.5" stroke="#606060" stroke-width="1.0"/>
           <path id="arrow"
             d="M 11.500037,31.436501 C 11.940474,20.09759 22.043105,11.32322 32.158766,21.979434 L 37.068811,17.246167 C 37.068811,17.246167 37.088388,32 37.088388,32 L 22.160133,31.978069 C 22.160133,31.978069 26.997745,27.140456 26.997745,27.140456 C 18.528582,18.264221 13.291696,25.230495 11.500037,31.436501 z"
             style="fill:#404040;"/>
          </a>
         </g>
        </svg>
</svg>
