<?xml version="1.0" encoding="UTF-8" standalone="no"?>
<!DOCTYPE svg PUBLIC "-//W3C//DTD SVG 1.1//EN"
 "http://www.w3.org/Graphics/SVG/1.1/DTD/svg11.dtd">
<!-- Generated by graphviz version 2.38.0 (20140413.2041)
 -->
<!-- Title: DataFlash_Backend::Log_Fill_Format Pages: 1 -->
<svg width="1366pt" height="219pt"
 viewBox="0.00 0.00 1366.00 219.00" xmlns="http://www.w3.org/2000/svg" xmlns:xlink="http://www.w3.org/1999/xlink">
<g id="graph0" class="graph" transform="scale(1 1) rotate(0) translate(4 215)">
<title>DataFlash_Backend::Log_Fill_Format</title>
<polygon fill="white" stroke="none" points="-4,4 -4,-215 1362,-215 1362,4 -4,4"/>
<!-- Node1 -->
<g id="node1" class="node"><title>Node1</title>
<polygon fill="#bfbfbf" stroke="black" points="0,-144.5 0,-174.5 111,-174.5 111,-144.5 0,-144.5"/>
<text text-anchor="start" x="8" y="-162.5" font-family="Helvetica,sans-Serif" font-size="10.00">DataFlash_Backend::</text>
<text text-anchor="middle" x="55.5" y="-151.5" font-family="Helvetica,sans-Serif" font-size="10.00">Log_Fill_Format</text>
</g>
<!-- Node2 -->
<g id="node2" class="node"><title>Node2</title>
<g id="a_node2"><a xlink:href="classDataFlash__Block.html#ad959087b563ba578079ca31141c2a492" target="_top" xlink:title="DataFlash_Block::get\l_log_data">
<polygon fill="white" stroke="black" points="147,-180.5 147,-210.5 258,-210.5 258,-180.5 147,-180.5"/>
<text text-anchor="start" x="155" y="-198.5" font-family="Helvetica,sans-Serif" font-size="10.00">DataFlash_Block::get</text>
<text text-anchor="middle" x="202.5" y="-187.5" font-family="Helvetica,sans-Serif" font-size="10.00">_log_data</text>
</a>
</g>
</g>
<!-- Node1&#45;&gt;Node2 -->
<g id="edge1" class="edge"><title>Node1&#45;&gt;Node2</title>
<path fill="none" stroke="midnightblue" d="M121.185,-175.56C129.671,-177.667 138.302,-179.809 146.604,-181.871"/>
<polygon fill="midnightblue" stroke="midnightblue" points="121.867,-172.123 111.318,-173.11 120.18,-178.917 121.867,-172.123"/>
</g>
<!-- Node4 -->
<g id="node4" class="node"><title>Node4</title>
<g id="a_node4"><a xlink:href="classDataFlash__Backend.html#a33c4294acfcecd5db6c923de11893e45" target="_top" xlink:title="DataFlash_Backend::\lLog_Write_Format">
<polygon fill="white" stroke="black" points="147,-109.5 147,-139.5 258,-139.5 258,-109.5 147,-109.5"/>
<text text-anchor="start" x="155" y="-127.5" font-family="Helvetica,sans-Serif" font-size="10.00">DataFlash_Backend::</text>
<text text-anchor="middle" x="202.5" y="-116.5" font-family="Helvetica,sans-Serif" font-size="10.00">Log_Write_Format</text>
</a>
</g>
</g>
<!-- Node1&#45;&gt;Node4 -->
<g id="edge3" class="edge"><title>Node1&#45;&gt;Node4</title>
<path fill="none" stroke="midnightblue" d="M121.185,-143.886C129.671,-141.838 138.302,-139.755 146.604,-137.751"/>
<polygon fill="midnightblue" stroke="midnightblue" points="120.218,-140.519 111.318,-146.268 121.86,-147.324 120.218,-140.519"/>
</g>
<!-- Node3 -->
<g id="node3" class="node"><title>Node3</title>
<g id="a_node3"><a xlink:href="classDataFlash__Block.html#aa7f35f8bc82176c68574db0d23c44c97" target="_top" xlink:title="DataFlash_Block::DataFlash\l_Block">
<polygon fill="white" stroke="black" points="1215,-169.5 1215,-199.5 1358,-199.5 1358,-169.5 1215,-169.5"/>
<text text-anchor="start" x="1223" y="-187.5" font-family="Helvetica,sans-Serif" font-size="10.00">DataFlash_Block::DataFlash</text>
<text text-anchor="middle" x="1286.5" y="-176.5" font-family="Helvetica,sans-Serif" font-size="10.00">_Block</text>
</a>
</g>
</g>
<!-- Node2&#45;&gt;Node3 -->
<g id="edge2" class="edge"><title>Node2&#45;&gt;Node3</title>
<path fill="none" stroke="midnightblue" d="M268.459,-198.793C338.071,-202.034 451.82,-206.5 550,-206.5 550,-206.5 550,-206.5 895,-206.5 1006.87,-206.5 1136.48,-197.388 1214.67,-190.893"/>
<polygon fill="midnightblue" stroke="midnightblue" points="268.249,-195.279 258.095,-198.304 267.919,-202.271 268.249,-195.279"/>
</g>
<!-- Node5 -->
<g id="node5" class="node"><title>Node5</title>
<g id="a_node5"><a xlink:href="classDataFlash__Backend.html#a0ed8c2da3963e144758e4df2f14161f8" target="_top" xlink:title="DataFlash_Backend::\lLog_Write_Emit_FMT">
<polygon fill="white" stroke="black" points="314,-147.5 314,-177.5 426,-177.5 426,-147.5 314,-147.5"/>
<text text-anchor="start" x="322" y="-165.5" font-family="Helvetica,sans-Serif" font-size="10.00">DataFlash_Backend::</text>
<text text-anchor="middle" x="370" y="-154.5" font-family="Helvetica,sans-Serif" font-size="10.00">Log_Write_Emit_FMT</text>
</a>
</g>
</g>
<!-- Node4&#45;&gt;Node5 -->
<g id="edge4" class="edge"><title>Node4&#45;&gt;Node5</title>
<path fill="none" stroke="midnightblue" d="M267.963,-139.301C283.119,-142.781 299.137,-146.459 313.842,-149.835"/>
<polygon fill="midnightblue" stroke="midnightblue" points="268.679,-135.875 258.15,-137.048 267.113,-142.697 268.679,-135.875"/>
</g>
<!-- Node8 -->
<g id="node8" class="node"><title>Node8</title>
<g id="a_node8"><a xlink:href="classDataFlash__Backend.html#acc06500874549df2b2567f069176506e" target="_top" xlink:title="DataFlash_Backend::\lremote_log_block_status_msg">
<polygon fill="white" stroke="black" points="295.5,-98.5 295.5,-128.5 444.5,-128.5 444.5,-98.5 295.5,-98.5"/>
<text text-anchor="start" x="303.5" y="-116.5" font-family="Helvetica,sans-Serif" font-size="10.00">DataFlash_Backend::</text>
<text text-anchor="middle" x="370" y="-105.5" font-family="Helvetica,sans-Serif" font-size="10.00">remote_log_block_status_msg</text>
</a>
</g>
</g>
<!-- Node4&#45;&gt;Node8 -->
<g id="edge7" class="edge"><title>Node4&#45;&gt;Node8</title>
<path fill="none" stroke="midnightblue" d="M268.341,-120.19C277.156,-119.604 286.256,-119 295.214,-118.404"/>
<polygon fill="midnightblue" stroke="midnightblue" points="267.895,-116.712 258.15,-120.868 268.36,-123.697 267.895,-116.712"/>
</g>
<!-- Node9 -->
<g id="node9" class="node"><title>Node9</title>
<g id="a_node9"><a xlink:href="classDFMessageWriter__DFLogStart.html#a81d7ab192bff2616b7649f3d4bdf7ca7" target="_top" xlink:title="DFMessageWriter_DFLogStart\l::process">
<polygon fill="white" stroke="black" points="294,-49.5 294,-79.5 446,-79.5 446,-49.5 294,-49.5"/>
<text text-anchor="start" x="302" y="-67.5" font-family="Helvetica,sans-Serif" font-size="10.00">DFMessageWriter_DFLogStart</text>
<text text-anchor="middle" x="370" y="-56.5" font-family="Helvetica,sans-Serif" font-size="10.00">::process</text>
</a>
</g>
</g>
<!-- Node4&#45;&gt;Node9 -->
<g id="edge8" class="edge"><title>Node4&#45;&gt;Node9</title>
<path fill="none" stroke="midnightblue" d="M249.393,-105.534C263.613,-99.8494 279.386,-93.738 294,-88.5 302.494,-85.4556 311.593,-82.3858 320.421,-79.506"/>
<polygon fill="midnightblue" stroke="midnightblue" points="247.799,-102.403 239.83,-109.385 250.414,-108.896 247.799,-102.403"/>
</g>
<!-- Node6 -->
<g id="node6" class="node"><title>Node6</title>
<g id="a_node6"><a xlink:href="classDataFlash__Backend.html#a944c1f573e2cd12e7ff491d48898d446" target="_top" xlink:title="DataFlash_Backend::\lnum_dropped">
<polygon fill="white" stroke="black" points="495.5,-147.5 495.5,-177.5 606.5,-177.5 606.5,-147.5 495.5,-147.5"/>
<text text-anchor="start" x="503.5" y="-165.5" font-family="Helvetica,sans-Serif" font-size="10.00">DataFlash_Backend::</text>
<text text-anchor="middle" x="551" y="-154.5" font-family="Helvetica,sans-Serif" font-size="10.00">num_dropped</text>
</a>
</g>
</g>
<!-- Node5&#45;&gt;Node6 -->
<g id="edge5" class="edge"><title>Node5&#45;&gt;Node6</title>
<path fill="none" stroke="midnightblue" d="M436.417,-162.5C455.763,-162.5 476.731,-162.5 495.323,-162.5"/>
<polygon fill="midnightblue" stroke="midnightblue" points="436.167,-159 426.166,-162.5 436.166,-166 436.167,-159"/>
</g>
<!-- Node7 -->
<g id="node7" class="node"><title>Node7</title>
<g id="a_node7"><a xlink:href="classDataFlash__Class.html#a3b01d9a49c319ca3995df9b1649b9249" target="_top" xlink:title="DataFlash_Class::num\l_dropped">
<polygon fill="white" stroke="black" points="656,-147.5 656,-177.5 773,-177.5 773,-147.5 656,-147.5"/>
<text text-anchor="start" x="664" y="-165.5" font-family="Helvetica,sans-Serif" font-size="10.00">DataFlash_Class::num</text>
<text text-anchor="middle" x="714.5" y="-154.5" font-family="Helvetica,sans-Serif" font-size="10.00">_dropped</text>
</a>
</g>
</g>
<!-- Node6&#45;&gt;Node7 -->
<g id="edge6" class="edge"><title>Node6&#45;&gt;Node7</title>
<path fill="none" stroke="midnightblue" d="M616.868,-162.5C629.759,-162.5 643.213,-162.5 655.843,-162.5"/>
<polygon fill="midnightblue" stroke="midnightblue" points="616.677,-159 606.677,-162.5 616.676,-166 616.677,-159"/>
</g>
<!-- Node10 -->
<g id="node10" class="node"><title>Node10</title>
<g id="a_node10"><a xlink:href="classDataFlash__Backend.html#af17a5022c4e47cfdd56c1a5887e85632" target="_top" xlink:title="DataFlash_Backend::\lWriteMoreStartupMessages">
<polygon fill="white" stroke="black" points="482,-49.5 482,-79.5 620,-79.5 620,-49.5 482,-49.5"/>
<text text-anchor="start" x="490" y="-67.5" font-family="Helvetica,sans-Serif" font-size="10.00">DataFlash_Backend::</text>
<text text-anchor="middle" x="551" y="-56.5" font-family="Helvetica,sans-Serif" font-size="10.00">WriteMoreStartupMessages</text>
</a>
</g>
</g>
<!-- Node9&#45;&gt;Node10 -->
<g id="edge9" class="edge"><title>Node9&#45;&gt;Node10</title>
<path fill="none" stroke="midnightblue" d="M456.207,-64.5C464.825,-64.5 473.495,-64.5 481.899,-64.5"/>
<polygon fill="midnightblue" stroke="midnightblue" points="456.134,-61.0001 446.134,-64.5 456.134,-68.0001 456.134,-61.0001"/>
</g>
<!-- Node11 -->
<g id="node11" class="node"><title>Node11</title>
<g id="a_node11"><a xlink:href="classDataFlash__Backend.html#af5ccb067107a1ee7289ec208b5bc3bae" target="_top" xlink:title="DataFlash_Backend::\lpush_log_blocks">
<polygon fill="white" stroke="black" points="659,-98.5 659,-128.5 770,-128.5 770,-98.5 659,-98.5"/>
<text text-anchor="start" x="667" y="-116.5" font-family="Helvetica,sans-Serif" font-size="10.00">DataFlash_Backend::</text>
<text text-anchor="middle" x="714.5" y="-105.5" font-family="Helvetica,sans-Serif" font-size="10.00">push_log_blocks</text>
</a>
</g>
</g>
<!-- Node10&#45;&gt;Node11 -->
<g id="edge10" class="edge"><title>Node10&#45;&gt;Node11</title>
<path fill="none" stroke="midnightblue" d="M611.699,-82.6129C628.868,-87.8222 647.403,-93.4457 663.891,-98.4484"/>
<polygon fill="midnightblue" stroke="midnightblue" points="612.359,-79.1556 601.773,-79.6014 610.326,-85.8541 612.359,-79.1556"/>
</g>
<!-- Node16 -->
<g id="node16" class="node"><title>Node16</title>
<g id="a_node16"><a xlink:href="classDataFlash__MAVLink.html#a250d61a602a4792e744532d41ea38d34" target="_top" xlink:title="DataFlash_MAVLink::\lpush_log_blocks">
<polygon fill="white" stroke="black" points="658,-49.5 658,-79.5 771,-79.5 771,-49.5 658,-49.5"/>
<text text-anchor="start" x="666" y="-67.5" font-family="Helvetica,sans-Serif" font-size="10.00">DataFlash_MAVLink::</text>
<text text-anchor="middle" x="714.5" y="-56.5" font-family="Helvetica,sans-Serif" font-size="10.00">push_log_blocks</text>
</a>
</g>
</g>
<!-- Node10&#45;&gt;Node16 -->
<g id="edge16" class="edge"><title>Node10&#45;&gt;Node16</title>
<path fill="none" stroke="midnightblue" d="M630.118,-64.5C639.46,-64.5 648.849,-64.5 657.785,-64.5"/>
<polygon fill="midnightblue" stroke="midnightblue" points="630.023,-61.0001 620.022,-64.5 630.022,-68.0001 630.023,-61.0001"/>
</g>
<!-- Node12 -->
<g id="node12" class="node"><title>Node12</title>
<g id="a_node12"><a xlink:href="classDataFlash__Backend.html#a82784dcb330ac456bbd1d3333b7c5769" target="_top" xlink:title="DataFlash_Backend::\lWriteBlockCheckStartupMessages">
<polygon fill="white" stroke="black" points="809,-98.5 809,-128.5 979,-128.5 979,-98.5 809,-98.5"/>
<text text-anchor="start" x="817" y="-116.5" font-family="Helvetica,sans-Serif" font-size="10.00">DataFlash_Backend::</text>
<text text-anchor="middle" x="894" y="-105.5" font-family="Helvetica,sans-Serif" font-size="10.00">WriteBlockCheckStartupMessages</text>
</a>
</g>
</g>
<!-- Node11&#45;&gt;Node12 -->
<g id="edge11" class="edge"><title>Node11&#45;&gt;Node12</title>
<path fill="none" stroke="midnightblue" d="M780.436,-113.5C789.658,-113.5 799.251,-113.5 808.774,-113.5"/>
<polygon fill="midnightblue" stroke="midnightblue" points="780.204,-110 770.204,-113.5 780.204,-117 780.204,-110"/>
</g>
<!-- Node13 -->
<g id="node13" class="node"><title>Node13</title>
<g id="a_node13"><a xlink:href="classDataFlash__Block.html#aeb4df7ca0d756fa0f7e6d5e172b35658" target="_top" xlink:title="DataFlash_Block::WritePrioritised\lBlock">
<polygon fill="white" stroke="black" points="1015,-147.5 1015,-177.5 1179,-177.5 1179,-147.5 1015,-147.5"/>
<text text-anchor="start" x="1023" y="-165.5" font-family="Helvetica,sans-Serif" font-size="10.00">DataFlash_Block::WritePrioritised</text>
<text text-anchor="middle" x="1097" y="-154.5" font-family="Helvetica,sans-Serif" font-size="10.00">Block</text>
</a>
</g>
</g>
<!-- Node12&#45;&gt;Node13 -->
<g id="edge12" class="edge"><title>Node12&#45;&gt;Node13</title>
<path fill="none" stroke="midnightblue" d="M966.391,-130.904C988.626,-136.324 1012.94,-142.252 1034.44,-147.494"/>
<polygon fill="midnightblue" stroke="midnightblue" points="967.217,-127.503 956.673,-128.535 965.559,-134.304 967.217,-127.503"/>
</g>
<!-- Node14 -->
<g id="node14" class="node"><title>Node14</title>
<g id="a_node14"><a xlink:href="classDataFlash__MAVLink.html#a4451409ec8511931125181af1a2cbf00" target="_top" xlink:title="DataFlash_MAVLink::\lWritePrioritisedBlock">
<polygon fill="white" stroke="black" points="1040.5,-98.5 1040.5,-128.5 1153.5,-128.5 1153.5,-98.5 1040.5,-98.5"/>
<text text-anchor="start" x="1048.5" y="-116.5" font-family="Helvetica,sans-Serif" font-size="10.00">DataFlash_MAVLink::</text>
<text text-anchor="middle" x="1097" y="-105.5" font-family="Helvetica,sans-Serif" font-size="10.00">WritePrioritisedBlock</text>
</a>
</g>
</g>
<!-- Node12&#45;&gt;Node14 -->
<g id="edge14" class="edge"><title>Node12&#45;&gt;Node14</title>
<path fill="none" stroke="midnightblue" d="M989.304,-113.5C1006.75,-113.5 1024.45,-113.5 1040.28,-113.5"/>
<polygon fill="midnightblue" stroke="midnightblue" points="989.078,-110 979.077,-113.5 989.077,-117 989.078,-110"/>
</g>
<!-- Node13&#45;&gt;Node3 -->
<g id="edge13" class="edge"><title>Node13&#45;&gt;Node3</title>
<path fill="none" stroke="midnightblue" d="M1189.22,-173.203C1197.82,-174.212 1206.45,-175.225 1214.82,-176.207"/>
<polygon fill="midnightblue" stroke="midnightblue" points="1189.49,-169.711 1179.15,-172.022 1188.67,-176.663 1189.49,-169.711"/>
</g>
<!-- Node15 -->
<g id="node15" class="node"><title>Node15</title>
<g id="a_node15"><a xlink:href="classDataFlash__MAVLink.html#a29ea50e386834a25c9605ac94218b371" target="_top" xlink:title="DataFlash_MAVLink::\llogging_started">
<polygon fill="white" stroke="black" points="1230,-98.5 1230,-128.5 1343,-128.5 1343,-98.5 1230,-98.5"/>
<text text-anchor="start" x="1238" y="-116.5" font-family="Helvetica,sans-Serif" font-size="10.00">DataFlash_MAVLink::</text>
<text text-anchor="middle" x="1286.5" y="-105.5" font-family="Helvetica,sans-Serif" font-size="10.00">logging_started</text>
</a>
</g>
</g>
<!-- Node14&#45;&gt;Node15 -->
<g id="edge15" class="edge"><title>Node14&#45;&gt;Node15</title>
<path fill="none" stroke="midnightblue" d="M1163.83,-113.5C1185.43,-113.5 1209.21,-113.5 1229.97,-113.5"/>
<polygon fill="midnightblue" stroke="midnightblue" points="1163.75,-110 1153.75,-113.5 1163.75,-117 1163.75,-110"/>
</g>
<!-- Node17 -->
<g id="node17" class="node"><title>Node17</title>
<g id="a_node17"><a xlink:href="classDataFlash__MAVLink.html#a62e4eb460ca5b7f9ea2869763518803c" target="_top" xlink:title="DataFlash_MAVLink::\lperiodic_fullrate">
<polygon fill="white" stroke="black" points="837.5,-49.5 837.5,-79.5 950.5,-79.5 950.5,-49.5 837.5,-49.5"/>
<text text-anchor="start" x="845.5" y="-67.5" font-family="Helvetica,sans-Serif" font-size="10.00">DataFlash_MAVLink::</text>
<text text-anchor="middle" x="894" y="-56.5" font-family="Helvetica,sans-Serif" font-size="10.00">periodic_fullrate</text>
</a>
</g>
</g>
<!-- Node16&#45;&gt;Node17 -->
<g id="edge17" class="edge"><title>Node16&#45;&gt;Node17</title>
<path fill="none" stroke="midnightblue" d="M781.23,-64.5C799.632,-64.5 819.452,-64.5 837.218,-64.5"/>
<polygon fill="midnightblue" stroke="midnightblue" points="781.175,-61.0001 771.175,-64.5 781.175,-68.0001 781.175,-61.0001"/>
</g>
<!-- Node18 -->
<g id="node18" class="node"><title>Node18</title>
<g id="a_node18"><a xlink:href="classDataFlash__MAVLink.html#a7ce5650e9a386a430ca3ba71c7f733f2" target="_top" xlink:title="DataFlash_MAVLink::\lListAvailableLogs">
<polygon fill="white" stroke="black" points="837.5,-0.5 837.5,-30.5 950.5,-30.5 950.5,-0.5 837.5,-0.5"/>
<text text-anchor="start" x="845.5" y="-18.5" font-family="Helvetica,sans-Serif" font-size="10.00">DataFlash_MAVLink::</text>
<text text-anchor="middle" x="894" y="-7.5" font-family="Helvetica,sans-Serif" font-size="10.00">ListAvailableLogs</text>
</a>
</g>
</g>
<!-- Node16&#45;&gt;Node18 -->
<g id="edge18" class="edge"><title>Node16&#45;&gt;Node18</title>
<path fill="none" stroke="midnightblue" d="M780.057,-46.6788C799.221,-41.3882 820.015,-35.6478 838.476,-30.5516"/>
<polygon fill="midnightblue" stroke="midnightblue" points="778.912,-43.3637 770.204,-49.3986 780.775,-50.1113 778.912,-43.3637"/>
</g>
</g>
</svg>
