<?xml version="1.0" encoding="UTF-8" standalone="no"?>
<!DOCTYPE svg PUBLIC "-//W3C//DTD SVG 1.1//EN"
 "http://www.w3.org/Graphics/SVG/1.1/DTD/svg11.dtd">
<!-- Generated by graphviz version 2.38.0 (20140413.2041)
 -->
<!-- Title: AP_Mission::resume Pages: 1 -->
<svg width="1159pt" height="597pt"
 viewBox="0.00 0.00 1159.00 597.00" xmlns="http://www.w3.org/2000/svg" xmlns:xlink="http://www.w3.org/1999/xlink">
<g id="graph0" class="graph" transform="scale(1 1) rotate(0) translate(4 593)">
<title>AP_Mission::resume</title>
<polygon fill="white" stroke="none" points="-4,4 -4,-593 1155,-593 1155,4 -4,4"/>
<!-- Node1 -->
<g id="node1" class="node"><title>Node1</title>
<polygon fill="#bfbfbf" stroke="black" points="0,-265 0,-284 107,-284 107,-265 0,-265"/>
<text text-anchor="middle" x="53.5" y="-272" font-family="Helvetica,sans-Serif" font-size="10.00">AP_Mission::resume</text>
</g>
<!-- Node2 -->
<g id="node2" class="node"><title>Node2</title>
<g id="a_node2"><a xlink:href="classAP__Mission.html#a05baa29469cdd5a9606903a7c6b3f3c1" target="_top" xlink:title="AP_Mission::jump_to\l_landing_sequence">
<polygon fill="white" stroke="black" points="664.5,-558.5 664.5,-588.5 774.5,-588.5 774.5,-558.5 664.5,-558.5"/>
<text text-anchor="start" x="672.5" y="-576.5" font-family="Helvetica,sans-Serif" font-size="10.00">AP_Mission::jump_to</text>
<text text-anchor="middle" x="719.5" y="-565.5" font-family="Helvetica,sans-Serif" font-size="10.00">_landing_sequence</text>
</a>
</g>
</g>
<!-- Node1&#45;&gt;Node2 -->
<g id="edge1" class="edge"><title>Node1&#45;&gt;Node2</title>
<path fill="none" stroke="midnightblue" d="M58.2411,-294.46C66.4245,-332.248 89.6239,-414.149 143,-455.5 300.827,-577.771 553.777,-582.047 664.1,-577.286"/>
<polygon fill="midnightblue" stroke="midnightblue" points="61.5865,-293.346 56.1667,-284.242 54.7264,-294.739 61.5865,-293.346"/>
</g>
<!-- Node4 -->
<g id="node4" class="node"><title>Node4</title>
<g id="a_node4"><a xlink:href="classAP__Mission.html#a3d45d873b8f9e2ebf0d020ce26db957d" target="_top" xlink:title="AP_Mission::num_commands">
<polygon fill="white" stroke="black" points="287,-265 287,-284 434,-284 434,-265 287,-265"/>
<text text-anchor="middle" x="360.5" y="-272" font-family="Helvetica,sans-Serif" font-size="10.00">AP_Mission::num_commands</text>
</a>
</g>
</g>
<!-- Node1&#45;&gt;Node4 -->
<g id="edge3" class="edge"><title>Node1&#45;&gt;Node4</title>
<path fill="none" stroke="midnightblue" d="M117.392,-276.096C125.997,-276.264 134.716,-276.406 143,-276.5 190.997,-277.042 203.002,-276.942 251,-276.5 262.586,-276.393 274.867,-276.222 286.841,-276.024"/>
<polygon fill="midnightblue" stroke="midnightblue" points="117.448,-272.597 107.378,-275.89 117.304,-279.595 117.448,-272.597"/>
</g>
<!-- Node7 -->
<g id="node7" class="node"><title>Node7</title>
<g id="a_node7"><a xlink:href="classAP__Landing.html#a23d5d937afe630bfa1d3eeea5d767e4b" target="_top" xlink:title="AP_Landing::verify\l_abort_landing">
<polygon fill="white" stroke="black" points="852.5,-458.5 852.5,-488.5 951.5,-488.5 951.5,-458.5 852.5,-458.5"/>
<text text-anchor="start" x="860.5" y="-476.5" font-family="Helvetica,sans-Serif" font-size="10.00">AP_Landing::verify</text>
<text text-anchor="middle" x="902" y="-465.5" font-family="Helvetica,sans-Serif" font-size="10.00">_abort_landing</text>
</a>
</g>
</g>
<!-- Node1&#45;&gt;Node7 -->
<g id="edge31" class="edge"><title>Node1&#45;&gt;Node7</title>
<path fill="none" stroke="midnightblue" d="M71.1131,-291.602C114.341,-334.174 235.606,-441.5 359.5,-441.5 359.5,-441.5 359.5,-441.5 536.5,-441.5 650.05,-441.5 782.738,-457.101 852.478,-466.517"/>
<polygon fill="midnightblue" stroke="midnightblue" points="73.5097,-289.048 63.9665,-284.446 68.557,-293.995 73.5097,-289.048"/>
</g>
<!-- Node20 -->
<g id="node20" class="node"><title>Node20</title>
<g id="a_node20"><a xlink:href="classMissionTest.html#af8b75f25f2b1c7fdd51ab19c4ee42ec8" target="_top" xlink:title="MissionTest::run_resume_test">
<polygon fill="white" stroke="black" points="645,-50 645,-69 794,-69 794,-50 645,-50"/>
<text text-anchor="middle" x="719.5" y="-57" font-family="Helvetica,sans-Serif" font-size="10.00">MissionTest::run_resume_test</text>
</a>
</g>
</g>
<!-- Node1&#45;&gt;Node20 -->
<g id="edge27" class="edge"><title>Node1&#45;&gt;Node20</title>
<path fill="none" stroke="midnightblue" d="M78.1388,-259.371C139.714,-220.872 311.307,-119.347 470,-78.5 527.511,-63.6967 594.783,-59.3052 644.82,-58.4162"/>
<polygon fill="midnightblue" stroke="midnightblue" points="76.1388,-256.494 69.5424,-264.785 79.8693,-262.418 76.1388,-256.494"/>
</g>
<!-- Node22 -->
<g id="node22" class="node"><title>Node22</title>
<g id="a_node22"><a xlink:href="classMissionTest.html#aa5175c099befd271fcc279deb7e28b06" target="_top" xlink:title="MissionTest::run_set\l_current_cmd_while_stopped_test">
<polygon fill="white" stroke="black" points="637,-0.5 637,-30.5 802,-30.5 802,-0.5 637,-0.5"/>
<text text-anchor="start" x="645" y="-18.5" font-family="Helvetica,sans-Serif" font-size="10.00">MissionTest::run_set</text>
<text text-anchor="middle" x="719.5" y="-7.5" font-family="Helvetica,sans-Serif" font-size="10.00">_current_cmd_while_stopped_test</text>
</a>
</g>
</g>
<!-- Node1&#45;&gt;Node22 -->
<g id="edge28" class="edge"><title>Node1&#45;&gt;Node22</title>
<path fill="none" stroke="midnightblue" d="M65.1656,-256.177C80.0666,-231.826 109.127,-188.61 143,-160.5 198.373,-114.549 218.672,-109.059 287,-86.5 405.052,-47.5243 548.629,-29.3604 636.776,-21.3308"/>
<polygon fill="midnightblue" stroke="midnightblue" points="62.138,-254.42 60.002,-264.797 68.1432,-258.017 62.138,-254.42"/>
</g>
<!-- Node25 -->
<g id="node25" class="node"><title>Node25</title>
<g id="a_node25"><a xlink:href="classAP__Mission.html#a90117c1ac074049b9f4247cebdf370a5" target="_top" xlink:title="start_or_resume &#45; if MIS_AUTORESTART=0 this will call resume(), otherwise it will call start() ...">
<polygon fill="white" stroke="black" points="143,-237.5 143,-267.5 251,-267.5 251,-237.5 143,-237.5"/>
<text text-anchor="start" x="151" y="-255.5" font-family="Helvetica,sans-Serif" font-size="10.00">AP_Mission::start_or</text>
<text text-anchor="middle" x="197" y="-244.5" font-family="Helvetica,sans-Serif" font-size="10.00">_resume</text>
</a>
</g>
</g>
<!-- Node1&#45;&gt;Node25 -->
<g id="edge29" class="edge"><title>Node1&#45;&gt;Node25</title>
<path fill="none" stroke="midnightblue" d="M117.136,-264.761C125.699,-263.43 134.422,-262.074 142.795,-260.772"/>
<polygon fill="midnightblue" stroke="midnightblue" points="116.533,-261.313 107.189,-266.308 117.608,-268.23 116.533,-261.313"/>
</g>
<!-- Node3 -->
<g id="node3" class="node"><title>Node3</title>
<g id="a_node3"><a xlink:href="classAP__Mission.html#ad7c38b95e293e4a8304ecf520842e5c7" target="_top" xlink:title="AP_Mission::last_change\l_time_ms">
<polygon fill="white" stroke="black" points="838,-526.5 838,-556.5 966,-556.5 966,-526.5 838,-526.5"/>
<text text-anchor="start" x="846" y="-544.5" font-family="Helvetica,sans-Serif" font-size="10.00">AP_Mission::last_change</text>
<text text-anchor="middle" x="902" y="-533.5" font-family="Helvetica,sans-Serif" font-size="10.00">_time_ms</text>
</a>
</g>
</g>
<!-- Node2&#45;&gt;Node3 -->
<g id="edge2" class="edge"><title>Node2&#45;&gt;Node3</title>
<path fill="none" stroke="midnightblue" d="M784.675,-562.123C802.003,-559.051 820.733,-555.73 837.997,-552.67"/>
<polygon fill="midnightblue" stroke="midnightblue" points="783.891,-558.707 774.656,-563.899 785.113,-565.599 783.891,-558.707"/>
</g>
<!-- Node5 -->
<g id="node5" class="node"><title>Node5</title>
<g id="a_node5"><a xlink:href="classAP__Mission.html#af895b228640bdf29178d44e00897d10e" target="_top" xlink:title="AP_Mission::get_landing\l_sequence_start">
<polygon fill="white" stroke="black" points="473,-481.5 473,-511.5 598,-511.5 598,-481.5 473,-481.5"/>
<text text-anchor="start" x="481" y="-499.5" font-family="Helvetica,sans-Serif" font-size="10.00">AP_Mission::get_landing</text>
<text text-anchor="middle" x="535.5" y="-488.5" font-family="Helvetica,sans-Serif" font-size="10.00">_sequence_start</text>
</a>
</g>
</g>
<!-- Node4&#45;&gt;Node5 -->
<g id="edge4" class="edge"><title>Node4&#45;&gt;Node5</title>
<path fill="none" stroke="midnightblue" d="M374.31,-292.755C394.189,-320.872 433.937,-376.265 470,-421.5 486.915,-442.717 507.52,-466.313 520.817,-481.27"/>
<polygon fill="midnightblue" stroke="midnightblue" points="376.986,-290.477 368.365,-284.319 371.265,-294.509 376.986,-290.477"/>
</g>
<!-- Node8 -->
<g id="node8" class="node"><title>Node8</title>
<g id="a_node8"><a xlink:href="classGCS__MAVLINK.html#a143a91427102a9aea995d10bad67f435" target="_top" xlink:title="GCS_MAVLINK::handle\l_mission_item">
<polygon fill="white" stroke="black" points="474.5,-382.5 474.5,-412.5 596.5,-412.5 596.5,-382.5 474.5,-382.5"/>
<text text-anchor="start" x="482.5" y="-400.5" font-family="Helvetica,sans-Serif" font-size="10.00">GCS_MAVLINK::handle</text>
<text text-anchor="middle" x="535.5" y="-389.5" font-family="Helvetica,sans-Serif" font-size="10.00">_mission_item</text>
</a>
</g>
</g>
<!-- Node4&#45;&gt;Node8 -->
<g id="edge9" class="edge"><title>Node4&#45;&gt;Node8</title>
<path fill="none" stroke="midnightblue" d="M376.822,-291.777C396.566,-313.17 432.798,-349.579 470,-372.5 476.033,-376.217 482.711,-379.548 489.416,-382.475"/>
<polygon fill="midnightblue" stroke="midnightblue" points="379.181,-289.169 369.867,-284.119 373.999,-293.875 379.181,-289.169"/>
</g>
<!-- Node9 -->
<g id="node9" class="node"><title>Node9</title>
<g id="a_node9"><a xlink:href="classGCS__MAVLINK.html#a3904d7894979bcbdc58083f39b1aa8da" target="_top" xlink:title="GCS_MAVLINK::handle\l_mission_request">
<polygon fill="white" stroke="black" points="474.5,-333.5 474.5,-363.5 596.5,-363.5 596.5,-333.5 474.5,-333.5"/>
<text text-anchor="start" x="482.5" y="-351.5" font-family="Helvetica,sans-Serif" font-size="10.00">GCS_MAVLINK::handle</text>
<text text-anchor="middle" x="535.5" y="-340.5" font-family="Helvetica,sans-Serif" font-size="10.00">_mission_request</text>
</a>
</g>
</g>
<!-- Node4&#45;&gt;Node9 -->
<g id="edge10" class="edge"><title>Node4&#45;&gt;Node9</title>
<path fill="none" stroke="midnightblue" d="M391.081,-288.384C412.788,-298.444 443.057,-312.204 470,-323.5 477.864,-326.797 486.327,-330.188 494.452,-333.367"/>
<polygon fill="midnightblue" stroke="midnightblue" points="392.296,-285.089 381.752,-284.044 389.343,-291.436 392.296,-285.089"/>
</g>
<!-- Node10 -->
<g id="node10" class="node"><title>Node10</title>
<g id="a_node10"><a xlink:href="classGCS__MAVLINK.html#a8c7b2bf35d8b3e370ba291586ea09b71" target="_top" xlink:title="GCS_MAVLINK::handle\l_mission_request_list">
<polygon fill="white" stroke="black" points="474.5,-284.5 474.5,-314.5 596.5,-314.5 596.5,-284.5 474.5,-284.5"/>
<text text-anchor="start" x="482.5" y="-302.5" font-family="Helvetica,sans-Serif" font-size="10.00">GCS_MAVLINK::handle</text>
<text text-anchor="middle" x="535.5" y="-291.5" font-family="Helvetica,sans-Serif" font-size="10.00">_mission_request_list</text>
</a>
</g>
</g>
<!-- Node4&#45;&gt;Node10 -->
<g id="edge11" class="edge"><title>Node4&#45;&gt;Node10</title>
<path fill="none" stroke="midnightblue" d="M437.661,-285.506C449.985,-287.287 462.593,-289.109 474.465,-290.824"/>
<polygon fill="midnightblue" stroke="midnightblue" points="437.795,-281.989 427.397,-284.023 436.794,-288.917 437.795,-281.989"/>
</g>
<!-- Node11 -->
<g id="node11" class="node"><title>Node11</title>
<g id="a_node11"><a xlink:href="classGCS__MAVLINK.html#add72083180081323352d4f701ae0d7d2" target="_top" xlink:title="GCS_MAVLINK::handle\l_mission_write_partial_list">
<polygon fill="white" stroke="black" points="470,-235.5 470,-265.5 601,-265.5 601,-235.5 470,-235.5"/>
<text text-anchor="start" x="478" y="-253.5" font-family="Helvetica,sans-Serif" font-size="10.00">GCS_MAVLINK::handle</text>
<text text-anchor="middle" x="535.5" y="-242.5" font-family="Helvetica,sans-Serif" font-size="10.00">_mission_write_partial_list</text>
</a>
</g>
</g>
<!-- Node4&#45;&gt;Node11 -->
<g id="edge12" class="edge"><title>Node4&#45;&gt;Node11</title>
<path fill="none" stroke="midnightblue" d="M440.518,-263.538C450.32,-262.178 460.251,-260.8 469.802,-259.475"/>
<polygon fill="midnightblue" stroke="midnightblue" points="439.795,-260.105 430.371,-264.946 440.757,-267.038 439.795,-260.105"/>
</g>
<!-- Node12 -->
<g id="node12" class="node"><title>Node12</title>
<g id="a_node12"><a xlink:href="classDataFlash__Backend.html#a570580fce5fc1f96a9cfd6bb75dd8705" target="_top" xlink:title="DataFlash_Backend::\lLog_Write_Mission_Cmd">
<polygon fill="white" stroke="black" points="472.5,-186.5 472.5,-216.5 598.5,-216.5 598.5,-186.5 472.5,-186.5"/>
<text text-anchor="start" x="480.5" y="-204.5" font-family="Helvetica,sans-Serif" font-size="10.00">DataFlash_Backend::</text>
<text text-anchor="middle" x="535.5" y="-193.5" font-family="Helvetica,sans-Serif" font-size="10.00">Log_Write_Mission_Cmd</text>
</a>
</g>
</g>
<!-- Node4&#45;&gt;Node12 -->
<g id="edge13" class="edge"><title>Node4&#45;&gt;Node12</title>
<path fill="none" stroke="midnightblue" d="M391.035,-260.506C412.72,-250.393 442.981,-236.613 470,-225.5 477.293,-222.5 485.113,-219.452 492.703,-216.58"/>
<polygon fill="midnightblue" stroke="midnightblue" points="389.288,-257.46 381.718,-264.872 392.258,-263.798 389.288,-257.46"/>
</g>
<!-- Node16 -->
<g id="node16" class="node"><title>Node16</title>
<g id="a_node16"><a xlink:href="classMissionTest.html#ab12c92170021b44ceb82f6808b92d8c7" target="_top" xlink:title="MissionTest::print\l_mission">
<polygon fill="white" stroke="black" points="488,-137.5 488,-167.5 583,-167.5 583,-137.5 488,-137.5"/>
<text text-anchor="start" x="496" y="-155.5" font-family="Helvetica,sans-Serif" font-size="10.00">MissionTest::print</text>
<text text-anchor="middle" x="535.5" y="-144.5" font-family="Helvetica,sans-Serif" font-size="10.00">_mission</text>
</a>
</g>
</g>
<!-- Node4&#45;&gt;Node16 -->
<g id="edge18" class="edge"><title>Node4&#45;&gt;Node16</title>
<path fill="none" stroke="midnightblue" d="M376.772,-257.142C396.465,-235.665 432.643,-199.168 470,-176.5 475.516,-173.153 481.575,-170.15 487.702,-167.495"/>
<polygon fill="midnightblue" stroke="midnightblue" points="373.935,-255.062 369.838,-264.833 379.133,-259.75 373.935,-255.062"/>
</g>
<!-- Node24 -->
<g id="node24" class="node"><title>Node24</title>
<g id="a_node24"><a xlink:href="classMissionTest.html#a5dcc045a9ce939fcc7b0735550f92482" target="_top" xlink:title="MissionTest::run_max\l_cmd_test">
<polygon fill="white" stroke="black" points="479,-88.5 479,-118.5 592,-118.5 592,-88.5 479,-88.5"/>
<text text-anchor="start" x="487" y="-106.5" font-family="Helvetica,sans-Serif" font-size="10.00">MissionTest::run_max</text>
<text text-anchor="middle" x="535.5" y="-95.5" font-family="Helvetica,sans-Serif" font-size="10.00">_cmd_test</text>
</a>
</g>
</g>
<!-- Node4&#45;&gt;Node24 -->
<g id="edge26" class="edge"><title>Node4&#45;&gt;Node24</title>
<path fill="none" stroke="midnightblue" d="M370.836,-255.488C386.961,-224.498 422.881,-162.993 470,-127.5 474.485,-124.121 479.498,-121.174 484.693,-118.614"/>
<polygon fill="midnightblue" stroke="midnightblue" points="367.542,-254.246 366.139,-264.747 373.785,-257.413 367.542,-254.246"/>
</g>
<!-- Node5&#45;&gt;Node2 -->
<g id="edge5" class="edge"><title>Node5&#45;&gt;Node2</title>
<path fill="none" stroke="midnightblue" d="M576.202,-516.014C594.545,-524.784 616.714,-535.041 637,-543.5 649.385,-548.665 663.009,-553.864 675.514,-558.45"/>
<polygon fill="midnightblue" stroke="midnightblue" points="577.517,-512.763 566.988,-511.581 574.482,-519.071 577.517,-512.763"/>
</g>
<!-- Node5&#45;&gt;Node3 -->
<g id="edge6" class="edge"><title>Node5&#45;&gt;Node3</title>
<path fill="none" stroke="midnightblue" d="M608.17,-505.842C617.858,-507.084 627.672,-508.331 637,-509.5 705.602,-518.094 784.28,-527.584 837.772,-533.98"/>
<polygon fill="midnightblue" stroke="midnightblue" points="608.508,-502.357 598.143,-504.553 607.615,-509.3 608.508,-502.357"/>
</g>
<!-- Node6 -->
<g id="node6" class="node"><title>Node6</title>
<g id="a_node6"><a xlink:href="classAP__Landing.html#a4cb652398231c274e6061aa6b211366b" target="_top" xlink:title="AP_Landing::restart\l_landing_sequence">
<polygon fill="white" stroke="black" points="668,-470.5 668,-500.5 771,-500.5 771,-470.5 668,-470.5"/>
<text text-anchor="start" x="676" y="-488.5" font-family="Helvetica,sans-Serif" font-size="10.00">AP_Landing::restart</text>
<text text-anchor="middle" x="719.5" y="-477.5" font-family="Helvetica,sans-Serif" font-size="10.00">_landing_sequence</text>
</a>
</g>
</g>
<!-- Node5&#45;&gt;Node6 -->
<g id="edge7" class="edge"><title>Node5&#45;&gt;Node6</title>
<path fill="none" stroke="midnightblue" d="M608.105,-492.172C628.072,-490.965 649.345,-489.68 667.833,-488.562"/>
<polygon fill="midnightblue" stroke="midnightblue" points="607.887,-488.679 598.117,-492.776 608.31,-495.666 607.887,-488.679"/>
</g>
<!-- Node6&#45;&gt;Node7 -->
<g id="edge8" class="edge"><title>Node6&#45;&gt;Node7</title>
<path fill="none" stroke="midnightblue" d="M781.336,-481.456C804.514,-479.915 830.599,-478.18 852.485,-476.725"/>
<polygon fill="midnightblue" stroke="midnightblue" points="781.005,-477.97 771.26,-482.125 781.47,-484.954 781.005,-477.97"/>
</g>
<!-- Node13 -->
<g id="node13" class="node"><title>Node13</title>
<g id="a_node13"><a xlink:href="classDataFlash__Backend.html#acc06500874549df2b2567f069176506e" target="_top" xlink:title="DataFlash_Backend::\lremote_log_block_status_msg">
<polygon fill="white" stroke="black" points="1002,-247.5 1002,-277.5 1151,-277.5 1151,-247.5 1002,-247.5"/>
<text text-anchor="start" x="1010" y="-265.5" font-family="Helvetica,sans-Serif" font-size="10.00">DataFlash_Backend::</text>
<text text-anchor="middle" x="1076.5" y="-254.5" font-family="Helvetica,sans-Serif" font-size="10.00">remote_log_block_status_msg</text>
</a>
</g>
</g>
<!-- Node12&#45;&gt;Node13 -->
<g id="edge14" class="edge"><title>Node12&#45;&gt;Node13</title>
<path fill="none" stroke="midnightblue" d="M593.97,-221.211C596.396,-222.563 598.752,-223.992 601,-225.5 620.591,-238.64 615.391,-255.039 637,-264.5 762.354,-319.384 927.86,-296.208 1015.33,-277.534"/>
<polygon fill="midnightblue" stroke="midnightblue" points="595.445,-218.035 584.942,-216.647 592.287,-224.282 595.445,-218.035"/>
</g>
<!-- Node14 -->
<g id="node14" class="node"><title>Node14</title>
<g id="a_node14"><a xlink:href="classDFMessageWriter__WriteEntireMission.html#a157afd1587cb4756d21bfd04bd64fdd1" target="_top" xlink:title="DFMessageWriter_WriteEntire\lMission::process">
<polygon fill="white" stroke="black" points="644.5,-225.5 644.5,-255.5 794.5,-255.5 794.5,-225.5 644.5,-225.5"/>
<text text-anchor="start" x="652.5" y="-243.5" font-family="Helvetica,sans-Serif" font-size="10.00">DFMessageWriter_WriteEntire</text>
<text text-anchor="middle" x="719.5" y="-232.5" font-family="Helvetica,sans-Serif" font-size="10.00">Mission::process</text>
</a>
</g>
</g>
<!-- Node12&#45;&gt;Node14 -->
<g id="edge15" class="edge"><title>Node12&#45;&gt;Node14</title>
<path fill="none" stroke="midnightblue" d="M608.496,-216.928C621.569,-219.729 635.19,-222.648 648.212,-225.438"/>
<polygon fill="midnightblue" stroke="midnightblue" points="609.136,-213.486 598.625,-214.813 607.67,-220.33 609.136,-213.486"/>
</g>
<!-- Node15 -->
<g id="node15" class="node"><title>Node15</title>
<g id="a_node15"><a xlink:href="classDataFlash__Backend.html#a2cf7e12a43bb8ebf9aa3ea073e544f40" target="_top" xlink:title="DataFlash_Backend::\lLog_Write_EntireMission">
<polygon fill="white" stroke="black" points="839.5,-225.5 839.5,-255.5 964.5,-255.5 964.5,-225.5 839.5,-225.5"/>
<text text-anchor="start" x="847.5" y="-243.5" font-family="Helvetica,sans-Serif" font-size="10.00">DataFlash_Backend::</text>
<text text-anchor="middle" x="902" y="-232.5" font-family="Helvetica,sans-Serif" font-size="10.00">Log_Write_EntireMission</text>
</a>
</g>
</g>
<!-- Node14&#45;&gt;Node15 -->
<g id="edge16" class="edge"><title>Node14&#45;&gt;Node15</title>
<path fill="none" stroke="midnightblue" d="M804.882,-240.5C816.532,-240.5 828.314,-240.5 839.445,-240.5"/>
<polygon fill="midnightblue" stroke="midnightblue" points="804.698,-237 794.698,-240.5 804.698,-244 804.698,-237"/>
</g>
<!-- Node15&#45;&gt;Node13 -->
<g id="edge17" class="edge"><title>Node15&#45;&gt;Node13</title>
<path fill="none" stroke="midnightblue" d="M974.756,-249.651C983.682,-250.79 992.822,-251.956 1001.78,-253.098"/>
<polygon fill="midnightblue" stroke="midnightblue" points="975.152,-246.174 964.789,-248.38 974.266,-253.117 975.152,-246.174"/>
</g>
<!-- Node17 -->
<g id="node17" class="node"><title>Node17</title>
<g id="a_node17"><a xlink:href="classMissionTest.html#a2161685b1b75329ff76bc4243518212d" target="_top" xlink:title="MissionTest::run_mission_test">
<polygon fill="white" stroke="black" points="644.5,-187 644.5,-206 794.5,-206 794.5,-187 644.5,-187"/>
<text text-anchor="middle" x="719.5" y="-194" font-family="Helvetica,sans-Serif" font-size="10.00">MissionTest::run_mission_test</text>
</a>
</g>
</g>
<!-- Node16&#45;&gt;Node17 -->
<g id="edge19" class="edge"><title>Node16&#45;&gt;Node17</title>
<path fill="none" stroke="midnightblue" d="M593.388,-166.253C621.26,-172.991 654.124,-180.936 679.173,-186.992"/>
<polygon fill="midnightblue" stroke="midnightblue" points="593.912,-162.779 583.37,-163.831 592.267,-169.583 593.912,-162.779"/>
</g>
<!-- Node16&#45;&gt;Node20 -->
<g id="edge22" class="edge"><title>Node16&#45;&gt;Node20</title>
<path fill="none" stroke="midnightblue" d="M592.222,-133.361C595.294,-131.559 598.247,-129.608 601,-127.5 622.456,-111.071 614.442,-93.3796 637,-78.5 642.821,-74.6601 649.325,-71.5922 656.05,-69.1418"/>
<polygon fill="midnightblue" stroke="midnightblue" points="590.531,-130.296 583.313,-138.052 593.792,-136.489 590.531,-130.296"/>
</g>
<!-- Node21 -->
<g id="node21" class="node"><title>Node21</title>
<g id="a_node21"><a xlink:href="classMissionTest.html#a16309b0065fe78128c95f5f8cc5f210e" target="_top" xlink:title="MissionTest::run_set\l_current_cmd_test">
<polygon fill="white" stroke="black" points="665.5,-137.5 665.5,-167.5 773.5,-167.5 773.5,-137.5 665.5,-137.5"/>
<text text-anchor="start" x="673.5" y="-155.5" font-family="Helvetica,sans-Serif" font-size="10.00">MissionTest::run_set</text>
<text text-anchor="middle" x="719.5" y="-144.5" font-family="Helvetica,sans-Serif" font-size="10.00">_current_cmd_test</text>
</a>
</g>
</g>
<!-- Node16&#45;&gt;Node21 -->
<g id="edge23" class="edge"><title>Node16&#45;&gt;Node21</title>
<path fill="none" stroke="midnightblue" d="M593.643,-152.5C616.572,-152.5 642.846,-152.5 665.357,-152.5"/>
<polygon fill="midnightblue" stroke="midnightblue" points="593.37,-149 583.37,-152.5 593.369,-156 593.37,-149"/>
</g>
<!-- Node16&#45;&gt;Node22 -->
<g id="edge24" class="edge"><title>Node16&#45;&gt;Node22</title>
<path fill="none" stroke="midnightblue" d="M592.117,-134.612C595.309,-132.493 598.308,-130.132 601,-127.5 630.922,-98.246 606.043,-68.656 637,-40.5 641.27,-36.6163 646.131,-33.3358 651.303,-30.5647"/>
<polygon fill="midnightblue" stroke="midnightblue" points="590.232,-131.659 583.3,-139.672 593.716,-137.73 590.232,-131.659"/>
</g>
<!-- Node23 -->
<g id="node23" class="node"><title>Node23</title>
<g id="a_node23"><a xlink:href="classMissionTest.html#a4b79b27fab75a4a63dc41e09a16a5442" target="_top" xlink:title="MissionTest::run_replace\l_cmd_test">
<polygon fill="white" stroke="black" points="656.5,-88.5 656.5,-118.5 782.5,-118.5 782.5,-88.5 656.5,-88.5"/>
<text text-anchor="start" x="664.5" y="-106.5" font-family="Helvetica,sans-Serif" font-size="10.00">MissionTest::run_replace</text>
<text text-anchor="middle" x="719.5" y="-95.5" font-family="Helvetica,sans-Serif" font-size="10.00">_cmd_test</text>
</a>
</g>
</g>
<!-- Node16&#45;&gt;Node23 -->
<g id="edge25" class="edge"><title>Node16&#45;&gt;Node23</title>
<path fill="none" stroke="midnightblue" d="M593.29,-137.21C615.414,-131.254 640.696,-124.447 662.723,-118.517"/>
<polygon fill="midnightblue" stroke="midnightblue" points="592.116,-133.902 583.37,-139.881 593.936,-140.661 592.116,-133.902"/>
</g>
<!-- Node18 -->
<g id="node18" class="node"><title>Node18</title>
<g id="a_node18"><a xlink:href="classMissionTest.html#ab2537e6e678a9468a69cd09f0296aeca" target="_top" xlink:title="MissionTest::loop">
<polygon fill="white" stroke="black" points="855,-187 855,-206 949,-206 949,-187 855,-187"/>
<text text-anchor="middle" x="902" y="-194" font-family="Helvetica,sans-Serif" font-size="10.00">MissionTest::loop</text>
</a>
</g>
</g>
<!-- Node17&#45;&gt;Node18 -->
<g id="edge20" class="edge"><title>Node17&#45;&gt;Node18</title>
<path fill="none" stroke="midnightblue" d="M804.82,-196.5C822.102,-196.5 839.675,-196.5 854.99,-196.5"/>
<polygon fill="midnightblue" stroke="midnightblue" points="804.698,-193 794.698,-196.5 804.698,-200 804.698,-193"/>
</g>
<!-- Node19 -->
<g id="node19" class="node"><title>Node19</title>
<g id="a_node19"><a xlink:href="AP__Mission__test_8cpp.html#a0b33edabd7f1c4e4a0bf32c67269be2f" target="_top" xlink:title="loop">
<polygon fill="white" stroke="black" points="1059,-187 1059,-206 1094,-206 1094,-187 1059,-187"/>
<text text-anchor="middle" x="1076.5" y="-194" font-family="Helvetica,sans-Serif" font-size="10.00">loop</text>
</a>
</g>
</g>
<!-- Node18&#45;&gt;Node19 -->
<g id="edge21" class="edge"><title>Node18&#45;&gt;Node19</title>
<path fill="none" stroke="midnightblue" d="M959.23,-196.5C993.822,-196.5 1035.77,-196.5 1058.64,-196.5"/>
<polygon fill="midnightblue" stroke="midnightblue" points="959.227,-193 949.227,-196.5 959.227,-200 959.227,-193"/>
</g>
<!-- Node25&#45;&gt;Node4 -->
<g id="edge30" class="edge"><title>Node25&#45;&gt;Node4</title>
<path fill="none" stroke="midnightblue" d="M261.243,-261.115C270.519,-262.379 280.12,-263.687 289.521,-264.967"/>
<polygon fill="midnightblue" stroke="midnightblue" points="261.71,-257.646 251.329,-259.765 260.765,-264.582 261.71,-257.646"/>
</g>
</g>
</svg>
