<?xml version="1.0" encoding="UTF-8" standalone="no"?>
<!DOCTYPE svg PUBLIC "-//W3C//DTD SVG 1.1//EN"
 "http://www.w3.org/Graphics/SVG/1.1/DTD/svg11.dtd">
<!-- Generated by graphviz version 2.38.0 (20140413.2041)
 -->
<!-- Title: QURT::UARTDriver::set_blocking_writes Pages: 1 -->
<svg width="419pt" height="39pt"
 viewBox="0.00 0.00 419.00 39.00" xmlns="http://www.w3.org/2000/svg" xmlns:xlink="http://www.w3.org/1999/xlink">
<g id="graph0" class="graph" transform="scale(1 1) rotate(0) translate(4 35)">
<title>QURT::UARTDriver::set_blocking_writes</title>
<polygon fill="white" stroke="none" points="-4,4 -4,-35 415,-35 415,4 -4,4"/>
<!-- Node1 -->
<g id="node1" class="node"><title>Node1</title>
<polygon fill="#bfbfbf" stroke="black" points="0,-0.5 0,-30.5 125,-30.5 125,-0.5 0,-0.5"/>
<text text-anchor="start" x="8" y="-18.5" font-family="Helvetica,sans-Serif" font-size="10.00">QURT::UARTDriver::set</text>
<text text-anchor="middle" x="62.5" y="-7.5" font-family="Helvetica,sans-Serif" font-size="10.00">_blocking_writes</text>
</g>
<!-- Node2 -->
<g id="node2" class="node"><title>Node2</title>
<g id="a_node2"><a xlink:href="classQURT_1_1UARTDriver.html#a3ca00c6a7a812429fd68b04ba8b7fc1f" target="_top" xlink:title="QURT::UARTDriver::set\l_device_path">
<polygon fill="white" stroke="black" points="161,-0.5 161,-30.5 286,-30.5 286,-0.5 161,-0.5"/>
<text text-anchor="start" x="169" y="-18.5" font-family="Helvetica,sans-Serif" font-size="10.00">QURT::UARTDriver::set</text>
<text text-anchor="middle" x="223.5" y="-7.5" font-family="Helvetica,sans-Serif" font-size="10.00">_device_path</text>
</a>
</g>
</g>
<!-- Node1&#45;&gt;Node2 -->
<g id="edge1" class="edge"><title>Node1&#45;&gt;Node2</title>
<path fill="none" stroke="midnightblue" d="M135.592,-15.5C143.99,-15.5 152.499,-15.5 160.74,-15.5"/>
<polygon fill="midnightblue" stroke="midnightblue" points="135.429,-12.0001 125.429,-15.5 135.429,-19.0001 135.429,-12.0001"/>
</g>
<!-- Node3 -->
<g id="node3" class="node"><title>Node3</title>
<g id="a_node3"><a xlink:href="classHAL__QURT.html#a7cb90b613730829561df2721e90f6994" target="_top" xlink:title="HAL_QURT::run">
<polygon fill="white" stroke="black" points="322,-6 322,-25 411,-25 411,-6 322,-6"/>
<text text-anchor="middle" x="366.5" y="-13" font-family="Helvetica,sans-Serif" font-size="10.00">HAL_QURT::run</text>
</a>
</g>
</g>
<!-- Node2&#45;&gt;Node3 -->
<g id="edge2" class="edge"><title>Node2&#45;&gt;Node3</title>
<path fill="none" stroke="midnightblue" d="M296.508,-15.5C305.18,-15.5 313.822,-15.5 321.908,-15.5"/>
<polygon fill="midnightblue" stroke="midnightblue" points="296.345,-12.0001 286.345,-15.5 296.345,-19.0001 296.345,-12.0001"/>
</g>
</g>
</svg>
