<?xml version="1.0" encoding="UTF-8" standalone="no"?>
<!DOCTYPE svg PUBLIC "-//W3C//DTD SVG 1.1//EN"
 "http://www.w3.org/Graphics/SVG/1.1/DTD/svg11.dtd">
<!-- Generated by graphviz version 2.38.0 (20140413.2041)
 -->
<!-- Title: AP_MotorsHeli_Dual::calculate_roll_pitch_collective_factors Pages: 1 -->
<svg width="200pt" height="50pt"
 viewBox="0.00 0.00 200.00 50.00" xmlns="http://www.w3.org/2000/svg" xmlns:xlink="http://www.w3.org/1999/xlink">
<g id="graph0" class="graph" transform="scale(1 1) rotate(0) translate(4 46)">
<title>AP_MotorsHeli_Dual::calculate_roll_pitch_collective_factors</title>
<polygon fill="white" stroke="none" points="-4,4 -4,-46 196,-46 196,4 -4,4"/>
<!-- Node1 -->
<g id="node1" class="node"><title>Node1</title>
<polygon fill="#bfbfbf" stroke="black" points="0,-0.5 0,-41.5 108,-41.5 108,-0.5 0,-0.5"/>
<text text-anchor="start" x="8" y="-29.5" font-family="Helvetica,sans-Serif" font-size="10.00">AP_MotorsHeli_Dual</text>
<text text-anchor="start" x="8" y="-18.5" font-family="Helvetica,sans-Serif" font-size="10.00">::calculate_roll_pitch</text>
<text text-anchor="middle" x="54" y="-7.5" font-family="Helvetica,sans-Serif" font-size="10.00">_collective_factors</text>
</g>
<!-- Node2 -->
<g id="node2" class="node"><title>Node2</title>
<g id="a_node2"><a xlink:href="AP__Math_8h.html#a75b14352ec1c95a8276af9a0813cfdc3" target="_top" xlink:title="radians">
<polygon fill="white" stroke="black" points="144,-11.5 144,-30.5 192,-30.5 192,-11.5 144,-11.5"/>
<text text-anchor="middle" x="168" y="-18.5" font-family="Helvetica,sans-Serif" font-size="10.00">radians</text>
</a>
</g>
</g>
<!-- Node1&#45;&gt;Node2 -->
<g id="edge1" class="edge"><title>Node1&#45;&gt;Node2</title>
<path fill="none" stroke="midnightblue" d="M108.048,-21C116.776,-21 125.599,-21 133.667,-21"/>
<polygon fill="midnightblue" stroke="midnightblue" points="133.767,-24.5001 143.767,-21 133.767,-17.5001 133.767,-24.5001"/>
</g>
</g>
</svg>
