<?xml version="1.0" encoding="UTF-8" standalone="no"?>
<!DOCTYPE svg PUBLIC "-//W3C//DTD SVG 1.1//EN"
 "http://www.w3.org/Graphics/SVG/1.1/DTD/svg11.dtd">
<!-- Generated by graphviz version 2.38.0 (20140413.2041)
 -->
<!-- Title: AP_Proximity_Backend::init_boundary Pages: 1 -->
<svg width="683pt" height="137pt"
 viewBox="0.00 0.00 683.00 137.00" xmlns="http://www.w3.org/2000/svg" xmlns:xlink="http://www.w3.org/1999/xlink">
<g id="graph0" class="graph" transform="scale(1 1) rotate(0) translate(4 133)">
<title>AP_Proximity_Backend::init_boundary</title>
<polygon fill="white" stroke="none" points="-4,4 -4,-133 679,-133 679,4 -4,4"/>
<!-- Node1 -->
<g id="node1" class="node"><title>Node1</title>
<polygon fill="#bfbfbf" stroke="black" points="0,-49.5 0,-79.5 120,-79.5 120,-49.5 0,-49.5"/>
<text text-anchor="start" x="8" y="-67.5" font-family="Helvetica,sans-Serif" font-size="10.00">AP_Proximity_Backend</text>
<text text-anchor="middle" x="60" y="-56.5" font-family="Helvetica,sans-Serif" font-size="10.00">::init_boundary</text>
</g>
<!-- Node2 -->
<g id="node2" class="node"><title>Node2</title>
<g id="a_node2"><a xlink:href="classAP__Proximity__Backend.html#a6c2ac5cb9e98c0da0c9e3e9cd947f4dc" target="_top" xlink:title="AP_Proximity_Backend\l::AP_Proximity_Backend">
<polygon fill="white" stroke="black" points="167.5,-98.5 167.5,-128.5 293.5,-128.5 293.5,-98.5 167.5,-98.5"/>
<text text-anchor="start" x="175.5" y="-116.5" font-family="Helvetica,sans-Serif" font-size="10.00">AP_Proximity_Backend</text>
<text text-anchor="middle" x="230.5" y="-105.5" font-family="Helvetica,sans-Serif" font-size="10.00">::AP_Proximity_Backend</text>
</a>
</g>
</g>
<!-- Node1&#45;&gt;Node2 -->
<g id="edge1" class="edge"><title>Node1&#45;&gt;Node2</title>
<path fill="none" stroke="midnightblue" d="M122.534,-82.3941C140.657,-87.6644 160.296,-93.3755 177.741,-98.4484"/>
<polygon fill="midnightblue" stroke="midnightblue" points="123.51,-79.0331 112.93,-79.6014 121.555,-85.7546 123.51,-79.0331"/>
</g>
<!-- Node3 -->
<g id="node3" class="node"><title>Node3</title>
<g id="a_node3"><a xlink:href="classAP__Proximity__Backend.html#a752b6f958a876a540db7c794a20cee4f" target="_top" xlink:title="AP_Proximity_Backend\l::handle_msg">
<polygon fill="white" stroke="black" points="170.5,-49.5 170.5,-79.5 290.5,-79.5 290.5,-49.5 170.5,-49.5"/>
<text text-anchor="start" x="178.5" y="-67.5" font-family="Helvetica,sans-Serif" font-size="10.00">AP_Proximity_Backend</text>
<text text-anchor="middle" x="230.5" y="-56.5" font-family="Helvetica,sans-Serif" font-size="10.00">::handle_msg</text>
</a>
</g>
</g>
<!-- Node1&#45;&gt;Node3 -->
<g id="edge2" class="edge"><title>Node1&#45;&gt;Node3</title>
<path fill="none" stroke="midnightblue" d="M130.424,-64.5C143.682,-64.5 157.446,-64.5 170.346,-64.5"/>
<polygon fill="midnightblue" stroke="midnightblue" points="130.407,-61.0001 120.407,-64.5 130.407,-68.0001 130.407,-61.0001"/>
</g>
<!-- Node5 -->
<g id="node5" class="node"><title>Node5</title>
<g id="a_node5"><a xlink:href="classAP__Proximity__LightWareSF40C.html#a352a1e0704cc1321d2dd6768af5fa28a" target="_top" xlink:title="AP_Proximity_LightWareSF40\lC::init_sectors">
<polygon fill="white" stroke="black" points="156,-0.5 156,-30.5 305,-30.5 305,-0.5 156,-0.5"/>
<text text-anchor="start" x="164" y="-18.5" font-family="Helvetica,sans-Serif" font-size="10.00">AP_Proximity_LightWareSF40</text>
<text text-anchor="middle" x="230.5" y="-7.5" font-family="Helvetica,sans-Serif" font-size="10.00">C::init_sectors</text>
</a>
</g>
</g>
<!-- Node1&#45;&gt;Node5 -->
<g id="edge4" class="edge"><title>Node1&#45;&gt;Node5</title>
<path fill="none" stroke="midnightblue" d="M122.534,-46.6059C140.657,-41.3356 160.296,-35.6245 177.741,-30.5516"/>
<polygon fill="midnightblue" stroke="midnightblue" points="121.555,-43.2454 112.93,-49.3986 123.51,-49.9669 121.555,-43.2454"/>
</g>
<!-- Node4 -->
<g id="node4" class="node"><title>Node4</title>
<g id="a_node4"><a xlink:href="classAP__Proximity.html#ace9bc2a217e4700cd8a324f2ebcf4c71" target="_top" xlink:title="AP_Proximity::handle_msg">
<polygon fill="white" stroke="black" points="348,-55 348,-74 483,-74 483,-55 348,-55"/>
<text text-anchor="middle" x="415.5" y="-62" font-family="Helvetica,sans-Serif" font-size="10.00">AP_Proximity::handle_msg</text>
</a>
</g>
</g>
<!-- Node3&#45;&gt;Node4 -->
<g id="edge3" class="edge"><title>Node3&#45;&gt;Node4</title>
<path fill="none" stroke="midnightblue" d="M300.684,-64.5C316.165,-64.5 332.553,-64.5 347.926,-64.5"/>
<polygon fill="midnightblue" stroke="midnightblue" points="300.662,-61.0001 290.662,-64.5 300.662,-68.0001 300.662,-61.0001"/>
</g>
<!-- Node6 -->
<g id="node6" class="node"><title>Node6</title>
<g id="a_node6"><a xlink:href="classAP__Proximity__LightWareSF40C.html#ad1302483409899abe3a4812e7b81bf8c" target="_top" xlink:title="AP_Proximity_LightWareSF40\lC::initialise">
<polygon fill="white" stroke="black" points="341,-0.5 341,-30.5 490,-30.5 490,-0.5 341,-0.5"/>
<text text-anchor="start" x="349" y="-18.5" font-family="Helvetica,sans-Serif" font-size="10.00">AP_Proximity_LightWareSF40</text>
<text text-anchor="middle" x="415.5" y="-7.5" font-family="Helvetica,sans-Serif" font-size="10.00">C::initialise</text>
</a>
</g>
</g>
<!-- Node5&#45;&gt;Node6 -->
<g id="edge5" class="edge"><title>Node5&#45;&gt;Node6</title>
<path fill="none" stroke="midnightblue" d="M315.387,-15.5C323.838,-15.5 332.376,-15.5 340.711,-15.5"/>
<polygon fill="midnightblue" stroke="midnightblue" points="315.142,-12.0001 305.142,-15.5 315.142,-19.0001 315.142,-12.0001"/>
</g>
<!-- Node7 -->
<g id="node7" class="node"><title>Node7</title>
<g id="a_node7"><a xlink:href="classAP__Proximity__LightWareSF40C.html#a18aa0409570b7f8158df3a5acff152fa" target="_top" xlink:title="AP_Proximity_LightWareSF40\lC::update">
<polygon fill="white" stroke="black" points="526,-0.5 526,-30.5 675,-30.5 675,-0.5 526,-0.5"/>
<text text-anchor="start" x="534" y="-18.5" font-family="Helvetica,sans-Serif" font-size="10.00">AP_Proximity_LightWareSF40</text>
<text text-anchor="middle" x="600.5" y="-7.5" font-family="Helvetica,sans-Serif" font-size="10.00">C::update</text>
</a>
</g>
</g>
<!-- Node6&#45;&gt;Node7 -->
<g id="edge6" class="edge"><title>Node6&#45;&gt;Node7</title>
<path fill="none" stroke="midnightblue" d="M500.387,-15.5C508.838,-15.5 517.376,-15.5 525.711,-15.5"/>
<polygon fill="midnightblue" stroke="midnightblue" points="500.142,-12.0001 490.142,-15.5 500.142,-19.0001 500.142,-12.0001"/>
</g>
</g>
</svg>
