<?xml version="1.0" encoding="UTF-8" standalone="no"?>
<!DOCTYPE svg PUBLIC "-//W3C//DTD SVG 1.1//EN"
 "http://www.w3.org/Graphics/SVG/1.1/DTD/svg11.dtd">
<!-- Generated by graphviz version 2.38.0 (20140413.2041)
 -->
<!-- Title: NavEKF3_core::getLastPosDownReset Pages: 1 -->
<svg width="1244pt" height="109pt"
 viewBox="0.00 0.00 1244.00 109.00" xmlns="http://www.w3.org/2000/svg" xmlns:xlink="http://www.w3.org/1999/xlink">
<g id="graph0" class="graph" transform="scale(1 1) rotate(0) translate(4 105)">
<title>NavEKF3_core::getLastPosDownReset</title>
<polygon fill="white" stroke="none" points="-4,4 -4,-105 1240,-105 1240,4 -4,4"/>
<!-- Node1 -->
<g id="node1" class="node"><title>Node1</title>
<polygon fill="#bfbfbf" stroke="black" points="0,-49.5 0,-79.5 139,-79.5 139,-49.5 0,-49.5"/>
<text text-anchor="start" x="8" y="-67.5" font-family="Helvetica,sans-Serif" font-size="10.00">NavEKF3_core::getLastPos</text>
<text text-anchor="middle" x="69.5" y="-56.5" font-family="Helvetica,sans-Serif" font-size="10.00">DownReset</text>
</g>
<!-- Node2 -->
<g id="node2" class="node"><title>Node2</title>
<g id="a_node2"><a xlink:href="classNavEKF3.html#af8f633712a464fdef83c39ed1baf84cd" target="_top" xlink:title="NavEKF3::getLastPosDownReset">
<polygon fill="white" stroke="black" points="175,-55 175,-74 342,-74 342,-55 175,-55"/>
<text text-anchor="middle" x="258.5" y="-62" font-family="Helvetica,sans-Serif" font-size="10.00">NavEKF3::getLastPosDownReset</text>
</a>
</g>
</g>
<!-- Node1&#45;&gt;Node2 -->
<g id="edge1" class="edge"><title>Node1&#45;&gt;Node2</title>
<path fill="none" stroke="midnightblue" d="M149.315,-64.5C157.797,-64.5 166.445,-64.5 174.969,-64.5"/>
<polygon fill="midnightblue" stroke="midnightblue" points="149.07,-61.0001 139.07,-64.5 149.07,-68.0001 149.07,-61.0001"/>
</g>
<!-- Node3 -->
<g id="node3" class="node"><title>Node3</title>
<g id="a_node3"><a xlink:href="classNavEKF3.html#a3e1f50ad977a17222fcd7a6851b0f2ec" target="_top" xlink:title="NavEKF3::activeCores">
<polygon fill="white" stroke="black" points="765,-76 765,-95 883,-95 883,-76 765,-76"/>
<text text-anchor="middle" x="824" y="-83" font-family="Helvetica,sans-Serif" font-size="10.00">NavEKF3::activeCores</text>
</a>
</g>
</g>
<!-- Node2&#45;&gt;Node3 -->
<g id="edge2" class="edge"><title>Node2&#45;&gt;Node3</title>
<path fill="none" stroke="midnightblue" d="M306.727,-76.3186C328.306,-81.1349 354.29,-86.1231 378,-88.5 516.18,-102.352 679.705,-95.2728 764.858,-89.8266"/>
<polygon fill="midnightblue" stroke="midnightblue" points="307.362,-72.8734 296.833,-74.0543 305.8,-79.697 307.362,-72.8734"/>
</g>
<!-- Node6 -->
<g id="node6" class="node"><title>Node6</title>
<g id="a_node6"><a xlink:href="classAP__AHRS__NavEKF.html#a209b8748bce962101b0e99ca6fc3d06f" target="_top" xlink:title="AP_AHRS_NavEKF::getLastPos\lDownReset">
<polygon fill="white" stroke="black" points="378,-49.5 378,-79.5 540,-79.5 540,-49.5 378,-49.5"/>
<text text-anchor="start" x="386" y="-67.5" font-family="Helvetica,sans-Serif" font-size="10.00">AP_AHRS_NavEKF::getLastPos</text>
<text text-anchor="middle" x="459" y="-56.5" font-family="Helvetica,sans-Serif" font-size="10.00">DownReset</text>
</a>
</g>
</g>
<!-- Node2&#45;&gt;Node6 -->
<g id="edge5" class="edge"><title>Node2&#45;&gt;Node6</title>
<path fill="none" stroke="midnightblue" d="M352.268,-64.5C360.845,-64.5 369.488,-64.5 377.937,-64.5"/>
<polygon fill="midnightblue" stroke="midnightblue" points="352.245,-61.0001 342.244,-64.5 352.244,-68.0001 352.245,-61.0001"/>
</g>
<!-- Node8 -->
<g id="node8" class="node"><title>Node8</title>
<g id="a_node8"><a xlink:href="classNavEKF3.html#a596ddb5682513eba0ca4c608012fa0ee" target="_top" xlink:title="NavEKF3::updateLaneSwitch\lPosDownResetData">
<polygon fill="white" stroke="black" points="386,-0.5 386,-30.5 532,-30.5 532,-0.5 386,-0.5"/>
<text text-anchor="start" x="394" y="-18.5" font-family="Helvetica,sans-Serif" font-size="10.00">NavEKF3::updateLaneSwitch</text>
<text text-anchor="middle" x="459" y="-7.5" font-family="Helvetica,sans-Serif" font-size="10.00">PosDownResetData</text>
</a>
</g>
</g>
<!-- Node2&#45;&gt;Node8 -->
<g id="edge7" class="edge"><title>Node2&#45;&gt;Node8</title>
<path fill="none" stroke="midnightblue" d="M308.17,-52.4858C334.991,-45.865 368.538,-37.5839 397.085,-30.537"/>
<polygon fill="midnightblue" stroke="midnightblue" points="307.114,-49.1413 298.244,-54.936 308.791,-55.9373 307.114,-49.1413"/>
</g>
<!-- Node4 -->
<g id="node4" class="node"><title>Node4</title>
<g id="a_node4"><a xlink:href="classDataFlash__Class.html#a46e58faaa53c44516433f6bb7bde4163" target="_top" xlink:title="DataFlash_Class::Log\l_Write_POS">
<polygon fill="white" stroke="black" points="960,-70.5 960,-100.5 1074,-100.5 1074,-70.5 960,-70.5"/>
<text text-anchor="start" x="968" y="-88.5" font-family="Helvetica,sans-Serif" font-size="10.00">DataFlash_Class::Log</text>
<text text-anchor="middle" x="1017" y="-77.5" font-family="Helvetica,sans-Serif" font-size="10.00">_Write_POS</text>
</a>
</g>
</g>
<!-- Node3&#45;&gt;Node4 -->
<g id="edge3" class="edge"><title>Node3&#45;&gt;Node4</title>
<path fill="none" stroke="midnightblue" d="M893.274,-85.5C915.091,-85.5 938.977,-85.5 959.83,-85.5"/>
<polygon fill="midnightblue" stroke="midnightblue" points="893.084,-82.0001 883.084,-85.5 893.084,-89.0001 893.084,-82.0001"/>
</g>
<!-- Node5 -->
<g id="node5" class="node"><title>Node5</title>
<g id="a_node5"><a xlink:href="classDataFlash__Class.html#a7868f0e3dcef65ea5b5fcae618f4c5d4" target="_top" xlink:title="DataFlash_Class::get\l_structures">
<polygon fill="white" stroke="black" points="1124,-70.5 1124,-100.5 1236,-100.5 1236,-70.5 1124,-70.5"/>
<text text-anchor="start" x="1132" y="-88.5" font-family="Helvetica,sans-Serif" font-size="10.00">DataFlash_Class::get</text>
<text text-anchor="middle" x="1180" y="-77.5" font-family="Helvetica,sans-Serif" font-size="10.00">_structures</text>
</a>
</g>
</g>
<!-- Node4&#45;&gt;Node5 -->
<g id="edge4" class="edge"><title>Node4&#45;&gt;Node5</title>
<path fill="none" stroke="midnightblue" d="M1084.63,-85.5C1097.66,-85.5 1111.2,-85.5 1123.81,-85.5"/>
<polygon fill="midnightblue" stroke="midnightblue" points="1084.31,-82.0001 1074.31,-85.5 1084.31,-89.0001 1084.31,-82.0001"/>
</g>
<!-- Node7 -->
<g id="node7" class="node"><title>Node7</title>
<g id="a_node7"><a xlink:href="classAP__AHRS__NavEKF.html#add98225e5350abab51cccd311f5496c3" target="_top" xlink:title="AP_AHRS_NavEKF::get\l_NavEKF3_const">
<polygon fill="white" stroke="black" points="576,-49.5 576,-79.5 702,-79.5 702,-49.5 576,-49.5"/>
<text text-anchor="start" x="584" y="-67.5" font-family="Helvetica,sans-Serif" font-size="10.00">AP_AHRS_NavEKF::get</text>
<text text-anchor="middle" x="639" y="-56.5" font-family="Helvetica,sans-Serif" font-size="10.00">_NavEKF3_const</text>
</a>
</g>
</g>
<!-- Node6&#45;&gt;Node7 -->
<g id="edge6" class="edge"><title>Node6&#45;&gt;Node7</title>
<path fill="none" stroke="midnightblue" d="M550.301,-64.5C558.961,-64.5 567.604,-64.5 575.902,-64.5"/>
<polygon fill="midnightblue" stroke="midnightblue" points="550.148,-61.0001 540.148,-64.5 550.148,-68.0001 550.148,-61.0001"/>
</g>
<!-- Node9 -->
<g id="node9" class="node"><title>Node9</title>
<g id="a_node9"><a xlink:href="classNavEKF3.html#a477020fcf29376e0c2205dbf79728104" target="_top" xlink:title="NavEKF3::UpdateFilter">
<polygon fill="white" stroke="black" points="579.5,-8 579.5,-27 698.5,-27 698.5,-8 579.5,-8"/>
<text text-anchor="middle" x="639" y="-15" font-family="Helvetica,sans-Serif" font-size="10.00">NavEKF3::UpdateFilter</text>
</a>
</g>
</g>
<!-- Node8&#45;&gt;Node9 -->
<g id="edge8" class="edge"><title>Node8&#45;&gt;Node9</title>
<path fill="none" stroke="midnightblue" d="M542.161,-16.4232C554.726,-16.5643 567.473,-16.7076 579.394,-16.8415"/>
<polygon fill="midnightblue" stroke="midnightblue" points="542.182,-12.9233 532.143,-16.3106 542.103,-19.9228 542.182,-12.9233"/>
</g>
<!-- Node9&#45;&gt;Node3 -->
<g id="edge9" class="edge"><title>Node9&#45;&gt;Node3</title>
<path fill="none" stroke="midnightblue" d="M676.706,-30.3721C685.035,-33.3354 693.832,-36.4988 702,-39.5 735.33,-51.747 773.609,-66.3989 798.033,-75.8221"/>
<polygon fill="midnightblue" stroke="midnightblue" points="677.804,-27.0481 667.209,-27.0072 675.466,-33.6461 677.804,-27.0481"/>
</g>
<!-- Node10 -->
<g id="node10" class="node"><title>Node10</title>
<g id="a_node10"><a xlink:href="classAP__AHRS__NavEKF.html#a324160404f12959e955554f5aed26459" target="_top" xlink:title="AP_AHRS_NavEKF::update_EKF3">
<polygon fill="white" stroke="black" points="738,-8 738,-27 910,-27 910,-8 738,-8"/>
<text text-anchor="middle" x="824" y="-15" font-family="Helvetica,sans-Serif" font-size="10.00">AP_AHRS_NavEKF::update_EKF3</text>
</a>
</g>
</g>
<!-- Node9&#45;&gt;Node10 -->
<g id="edge10" class="edge"><title>Node9&#45;&gt;Node10</title>
<path fill="none" stroke="midnightblue" d="M708.748,-17.5C718.191,-17.5 727.98,-17.5 737.675,-17.5"/>
<polygon fill="midnightblue" stroke="midnightblue" points="708.657,-14.0001 698.657,-17.5 708.657,-21.0001 708.657,-14.0001"/>
</g>
<!-- Node11 -->
<g id="node11" class="node"><title>Node11</title>
<g id="a_node11"><a xlink:href="classAP__AHRS__NavEKF.html#ac8111979c5dc37a55b2c50818534ea52" target="_top" xlink:title="AP_AHRS_NavEKF::update">
<polygon fill="white" stroke="black" points="946,-8 946,-27 1088,-27 1088,-8 946,-8"/>
<text text-anchor="middle" x="1017" y="-15" font-family="Helvetica,sans-Serif" font-size="10.00">AP_AHRS_NavEKF::update</text>
</a>
</g>
</g>
<!-- Node10&#45;&gt;Node11 -->
<g id="edge11" class="edge"><title>Node10&#45;&gt;Node11</title>
<path fill="none" stroke="midnightblue" d="M920.273,-17.5C928.898,-17.5 937.526,-17.5 945.874,-17.5"/>
<polygon fill="midnightblue" stroke="midnightblue" points="920.166,-14.0001 910.166,-17.5 920.166,-21.0001 920.166,-14.0001"/>
</g>
<!-- Node12 -->
<g id="node12" class="node"><title>Node12</title>
<g id="a_node12"><a xlink:href="AHRS__Test_8cpp.html#a0b33edabd7f1c4e4a0bf32c67269be2f" target="_top" xlink:title="loop">
<polygon fill="white" stroke="black" points="1162.5,-8 1162.5,-27 1197.5,-27 1197.5,-8 1162.5,-8"/>
<text text-anchor="middle" x="1180" y="-15" font-family="Helvetica,sans-Serif" font-size="10.00">loop</text>
</a>
</g>
</g>
<!-- Node11&#45;&gt;Node12 -->
<g id="edge12" class="edge"><title>Node11&#45;&gt;Node12</title>
<path fill="none" stroke="midnightblue" d="M1098.17,-17.5C1122.48,-17.5 1146.83,-17.5 1162.35,-17.5"/>
<polygon fill="midnightblue" stroke="midnightblue" points="1098.15,-14.0001 1088.15,-17.5 1098.15,-21.0001 1098.15,-14.0001"/>
</g>
</g>
</svg>
