<?xml version="1.0" encoding="UTF-8" standalone="no"?>
<!DOCTYPE svg PUBLIC "-//W3C//DTD SVG 1.1//EN"
 "http://www.w3.org/Graphics/SVG/1.1/DTD/svg11.dtd">
<!-- Generated by graphviz version 2.38.0 (20140413.2041)
 -->
<!-- Title: AP_AHRS_NavEKF::get_relative_position_NED_origin Pages: 1 -->
<svg width="568pt" height="127pt"
 viewBox="0.00 0.00 568.00 127.00" xmlns="http://www.w3.org/2000/svg" xmlns:xlink="http://www.w3.org/1999/xlink">
<g id="graph0" class="graph" transform="scale(1 1) rotate(0) translate(4 123)">
<title>AP_AHRS_NavEKF::get_relative_position_NED_origin</title>
<polygon fill="white" stroke="none" points="-4,4 -4,-123 564,-123 564,4 -4,4"/>
<!-- Node1 -->
<g id="node1" class="node"><title>Node1</title>
<polygon fill="#bfbfbf" stroke="black" points="0,-39 0,-80 126,-80 126,-39 0,-39"/>
<text text-anchor="start" x="8" y="-68" font-family="Helvetica,sans-Serif" font-size="10.00">AP_AHRS_NavEKF::get</text>
<text text-anchor="start" x="8" y="-57" font-family="Helvetica,sans-Serif" font-size="10.00">_relative_position_NED</text>
<text text-anchor="middle" x="63" y="-46" font-family="Helvetica,sans-Serif" font-size="10.00">_origin</text>
</g>
<!-- Node2 -->
<g id="node2" class="node"><title>Node2</title>
<g id="a_node2"><a xlink:href="classAP__Module.html#a9b4f06b2556a122f11b92b7b29d462c4" target="_top" xlink:title="AP_Module::call_hook\l_AHRS_update">
<polygon fill="white" stroke="black" points="179.5,-88.5 179.5,-118.5 293.5,-118.5 293.5,-88.5 179.5,-88.5"/>
<text text-anchor="start" x="187.5" y="-106.5" font-family="Helvetica,sans-Serif" font-size="10.00">AP_Module::call_hook</text>
<text text-anchor="middle" x="236.5" y="-95.5" font-family="Helvetica,sans-Serif" font-size="10.00">_AHRS_update</text>
</a>
</g>
</g>
<!-- Node1&#45;&gt;Node2 -->
<g id="edge1" class="edge"><title>Node1&#45;&gt;Node2</title>
<path fill="none" stroke="midnightblue" d="M136.276,-78.0432C150.691,-81.7414 165.627,-85.5734 179.399,-89.1068"/>
<polygon fill="midnightblue" stroke="midnightblue" points="136.957,-74.6045 126.401,-75.5095 135.217,-81.3849 136.957,-74.6045"/>
</g>
<!-- Node5 -->
<g id="node5" class="node"><title>Node5</title>
<g id="a_node5"><a xlink:href="classAP__AHRS__NavEKF.html#add98225e5350abab51cccd311f5496c3" target="_top" xlink:title="AP_AHRS_NavEKF::get\l_NavEKF3_const">
<polygon fill="white" stroke="black" points="355,-22.5 355,-52.5 481,-52.5 481,-22.5 355,-22.5"/>
<text text-anchor="start" x="363" y="-40.5" font-family="Helvetica,sans-Serif" font-size="10.00">AP_AHRS_NavEKF::get</text>
<text text-anchor="middle" x="418" y="-29.5" font-family="Helvetica,sans-Serif" font-size="10.00">_NavEKF3_const</text>
</a>
</g>
</g>
<!-- Node1&#45;&gt;Node5 -->
<g id="edge4" class="edge"><title>Node1&#45;&gt;Node5</title>
<path fill="none" stroke="midnightblue" d="M136.362,-54.9902C200.667,-50.9825 293.684,-45.1854 354.733,-41.3806"/>
<polygon fill="midnightblue" stroke="midnightblue" points="136.06,-51.5021 126.297,-55.6175 136.495,-58.4886 136.06,-51.5021"/>
</g>
<!-- Node6 -->
<g id="node6" class="node"><title>Node6</title>
<g id="a_node6"><a xlink:href="classAP__AHRS__NavEKF.html#a9f75e1cc7913ff2b730d6fc6b3a5fa71" target="_top" xlink:title="AP_AHRS_NavEKF::get\l_relative_position_NED_home">
<polygon fill="white" stroke="black" points="162,-0.5 162,-30.5 311,-30.5 311,-0.5 162,-0.5"/>
<text text-anchor="start" x="170" y="-18.5" font-family="Helvetica,sans-Serif" font-size="10.00">AP_AHRS_NavEKF::get</text>
<text text-anchor="middle" x="236.5" y="-7.5" font-family="Helvetica,sans-Serif" font-size="10.00">_relative_position_NED_home</text>
</a>
</g>
</g>
<!-- Node1&#45;&gt;Node6 -->
<g id="edge5" class="edge"><title>Node1&#45;&gt;Node6</title>
<path fill="none" stroke="midnightblue" d="M136.175,-40.9828C149.739,-37.5028 163.768,-33.9035 176.858,-30.5452"/>
<polygon fill="midnightblue" stroke="midnightblue" points="135.217,-37.6151 126.401,-43.4905 136.957,-44.3955 135.217,-37.6151"/>
</g>
<!-- Node3 -->
<g id="node3" class="node"><title>Node3</title>
<g id="a_node3"><a xlink:href="classAP__AHRS__NavEKF.html#ac8111979c5dc37a55b2c50818534ea52" target="_top" xlink:title="AP_AHRS_NavEKF::update">
<polygon fill="white" stroke="black" points="347,-94 347,-113 489,-113 489,-94 347,-94"/>
<text text-anchor="middle" x="418" y="-101" font-family="Helvetica,sans-Serif" font-size="10.00">AP_AHRS_NavEKF::update</text>
</a>
</g>
</g>
<!-- Node2&#45;&gt;Node3 -->
<g id="edge2" class="edge"><title>Node2&#45;&gt;Node3</title>
<path fill="none" stroke="midnightblue" d="M303.871,-103.5C317.928,-103.5 332.807,-103.5 346.994,-103.5"/>
<polygon fill="midnightblue" stroke="midnightblue" points="303.802,-100 293.802,-103.5 303.802,-107 303.802,-100"/>
</g>
<!-- Node4 -->
<g id="node4" class="node"><title>Node4</title>
<g id="a_node4"><a xlink:href="AHRS__Test_8cpp.html#a0b33edabd7f1c4e4a0bf32c67269be2f" target="_top" xlink:title="loop">
<polygon fill="white" stroke="black" points="525,-94 525,-113 560,-113 560,-94 525,-94"/>
<text text-anchor="middle" x="542.5" y="-101" font-family="Helvetica,sans-Serif" font-size="10.00">loop</text>
</a>
</g>
</g>
<!-- Node3&#45;&gt;Node4 -->
<g id="edge3" class="edge"><title>Node3&#45;&gt;Node4</title>
<path fill="none" stroke="midnightblue" d="M499.29,-103.5C508.785,-103.5 517.602,-103.5 524.696,-103.5"/>
<polygon fill="midnightblue" stroke="midnightblue" points="499.194,-100 489.194,-103.5 499.194,-107 499.194,-100"/>
</g>
<!-- Node6&#45;&gt;Node5 -->
<g id="edge6" class="edge"><title>Node6&#45;&gt;Node5</title>
<path fill="none" stroke="midnightblue" d="M320.97,-25.7303C332.345,-27.1245 343.855,-28.5352 354.765,-29.8723"/>
<polygon fill="midnightblue" stroke="midnightblue" points="321.379,-22.2543 311.027,-24.5117 320.527,-29.2023 321.379,-22.2543"/>
</g>
</g>
</svg>
