<?xml version="1.0" encoding="UTF-8" standalone="no"?>
<!DOCTYPE svg PUBLIC "-//W3C//DTD SVG 1.1//EN"
 "http://www.w3.org/Graphics/SVG/1.1/DTD/svg11.dtd">
<!-- Generated by graphviz version 2.38.0 (20140413.2041)
 -->
<!-- Title: AP_Mission::read_cmd_from_storage Pages: 1 -->
<svg width="598pt" height="154pt"
 viewBox="0.00 0.00 598.00 153.50" xmlns="http://www.w3.org/2000/svg" xmlns:xlink="http://www.w3.org/1999/xlink">
<g id="graph0" class="graph" transform="scale(1 1) rotate(0) translate(4 149.5)">
<title>AP_Mission::read_cmd_from_storage</title>
<polygon fill="white" stroke="none" points="-4,4 -4,-149.5 594,-149.5 594,4 -4,4"/>
<!-- Node1 -->
<g id="node1" class="node"><title>Node1</title>
<polygon fill="#bfbfbf" stroke="black" points="0,-63.5 0,-93.5 118,-93.5 118,-63.5 0,-63.5"/>
<text text-anchor="start" x="8" y="-81.5" font-family="Helvetica,sans-Serif" font-size="10.00">AP_Mission::read_cmd</text>
<text text-anchor="middle" x="59" y="-70.5" font-family="Helvetica,sans-Serif" font-size="10.00">_from_storage</text>
</g>
<!-- Node2 -->
<g id="node2" class="node"><title>Node2</title>
<g id="a_node2"><a xlink:href="classAP__AHRS.html#aea45b16e6469a3b392b8bf52fb864732" target="_top" xlink:title="AP_AHRS::get_home">
<polygon fill="white" stroke="black" points="163.5,-126 163.5,-145 276.5,-145 276.5,-126 163.5,-126"/>
<text text-anchor="middle" x="220" y="-133" font-family="Helvetica,sans-Serif" font-size="10.00">AP_AHRS::get_home</text>
</a>
</g>
</g>
<!-- Node1&#45;&gt;Node2 -->
<g id="edge1" class="edge"><title>Node1&#45;&gt;Node2</title>
<path fill="none" stroke="midnightblue" d="M94.9479,-93.596C112.51,-100.933 134.213,-109.628 154,-116.5 160.492,-118.755 167.408,-120.97 174.216,-123.047"/>
<polygon fill="midnightblue" stroke="midnightblue" points="173.468,-126.476 184.052,-125.979 175.468,-119.768 173.468,-126.476"/>
</g>
<!-- Node4 -->
<g id="node4" class="node"><title>Node4</title>
<g id="a_node4"><a xlink:href="classStorageAccess.html#a9a3fc24569bd437ffcb41de520bb3955" target="_top" xlink:title="StorageAccess::read_byte">
<polygon fill="white" stroke="black" points="154,-88 154,-107 286,-107 286,-88 154,-88"/>
<text text-anchor="middle" x="220" y="-95" font-family="Helvetica,sans-Serif" font-size="10.00">StorageAccess::read_byte</text>
</a>
</g>
</g>
<!-- Node1&#45;&gt;Node4 -->
<g id="edge3" class="edge"><title>Node1&#45;&gt;Node4</title>
<path fill="none" stroke="midnightblue" d="M118.303,-85.467C126.648,-86.4642 135.329,-87.5016 143.941,-88.5306"/>
<polygon fill="midnightblue" stroke="midnightblue" points="143.649,-92.0206 153.994,-89.7319 144.479,-85.07 143.649,-92.0206"/>
</g>
<!-- Node5 -->
<g id="node5" class="node"><title>Node5</title>
<g id="a_node5"><a xlink:href="classStorageAccess.html#ab2a8575d541549a15645edc360fdaa91" target="_top" xlink:title="StorageAccess::read\l_block">
<polygon fill="white" stroke="black" points="324.5,-44.5 324.5,-74.5 432.5,-74.5 432.5,-44.5 324.5,-44.5"/>
<text text-anchor="start" x="332.5" y="-62.5" font-family="Helvetica,sans-Serif" font-size="10.00">StorageAccess::read</text>
<text text-anchor="middle" x="378.5" y="-51.5" font-family="Helvetica,sans-Serif" font-size="10.00">_block</text>
</a>
</g>
</g>
<!-- Node1&#45;&gt;Node5 -->
<g id="edge8" class="edge"><title>Node1&#45;&gt;Node5</title>
<path fill="none" stroke="midnightblue" d="M118.234,-75.0151C173.797,-71.6901 257.266,-66.6951 314.392,-63.2765"/>
<polygon fill="midnightblue" stroke="midnightblue" points="314.613,-66.7697 324.386,-62.6785 314.194,-59.7822 314.613,-66.7697"/>
</g>
<!-- Node7 -->
<g id="node7" class="node"><title>Node7</title>
<g id="a_node7"><a xlink:href="classStorageAccess.html#ac7ca06ca086f97a302e94ecaf9b18b80" target="_top" xlink:title="StorageAccess::read\l_uint16">
<polygon fill="white" stroke="black" points="166,-0.5 166,-30.5 274,-30.5 274,-0.5 166,-0.5"/>
<text text-anchor="start" x="174" y="-18.5" font-family="Helvetica,sans-Serif" font-size="10.00">StorageAccess::read</text>
<text text-anchor="middle" x="220" y="-7.5" font-family="Helvetica,sans-Serif" font-size="10.00">_uint16</text>
</a>
</g>
</g>
<!-- Node1&#45;&gt;Node7 -->
<g id="edge6" class="edge"><title>Node1&#45;&gt;Node7</title>
<path fill="none" stroke="midnightblue" d="M98.0845,-63.4099C120.128,-54.6755 148.067,-43.6057 171.533,-34.3076"/>
<polygon fill="midnightblue" stroke="midnightblue" points="172.944,-37.5136 180.951,-30.576 170.365,-31.0058 172.944,-37.5136"/>
</g>
<!-- Node3 -->
<g id="node3" class="node"><title>Node3</title>
<g id="a_node3"><a xlink:href="classAP__AHRS.html#a702b6313fff141dced78533a4d258ab0" target="_top" xlink:title="AP_AHRS::set_home">
<polygon fill="white" stroke="black" points="322,-126 322,-145 435,-145 435,-126 322,-126"/>
<text text-anchor="middle" x="378.5" y="-133" font-family="Helvetica,sans-Serif" font-size="10.00">AP_AHRS::set_home</text>
</a>
</g>
</g>
<!-- Node2&#45;&gt;Node3 -->
<g id="edge2" class="edge"><title>Node2&#45;&gt;Node3</title>
<path fill="none" stroke="midnightblue" d="M276.617,-135.5C287.965,-135.5 300.007,-135.5 311.672,-135.5"/>
<polygon fill="midnightblue" stroke="midnightblue" points="311.799,-139 321.799,-135.5 311.799,-132 311.799,-139"/>
</g>
<!-- Node4&#45;&gt;Node5 -->
<g id="edge4" class="edge"><title>Node4&#45;&gt;Node5</title>
<path fill="none" stroke="midnightblue" d="M260.492,-87.911C276.917,-83.9226 296.391,-79.1941 314.692,-74.7505"/>
<polygon fill="midnightblue" stroke="midnightblue" points="315.529,-78.1491 324.421,-72.3883 313.877,-71.3467 315.529,-78.1491"/>
</g>
<!-- Node6 -->
<g id="node6" class="node"><title>Node6</title>
<g id="a_node6"><a xlink:href="classAP__HAL_1_1Storage.html#a1c3b1e80b0bec7d4bacd3ecbefb3b3f3" target="_top" xlink:title="AP_HAL::Storage::read\l_block">
<polygon fill="white" stroke="black" points="471,-44.5 471,-74.5 590,-74.5 590,-44.5 471,-44.5"/>
<text text-anchor="start" x="479" y="-62.5" font-family="Helvetica,sans-Serif" font-size="10.00">AP_HAL::Storage::read</text>
<text text-anchor="middle" x="530.5" y="-51.5" font-family="Helvetica,sans-Serif" font-size="10.00">_block</text>
</a>
</g>
</g>
<!-- Node5&#45;&gt;Node6 -->
<g id="edge5" class="edge"><title>Node5&#45;&gt;Node6</title>
<path fill="none" stroke="midnightblue" d="M432.807,-59.5C441.835,-59.5 451.323,-59.5 460.681,-59.5"/>
<polygon fill="midnightblue" stroke="midnightblue" points="460.757,-63.0001 470.757,-59.5 460.757,-56.0001 460.757,-63.0001"/>
</g>
<!-- Node7&#45;&gt;Node5 -->
<g id="edge7" class="edge"><title>Node7&#45;&gt;Node5</title>
<path fill="none" stroke="midnightblue" d="M274.421,-30.5192C287.263,-34.1299 301.101,-38.0203 314.339,-41.7424"/>
<polygon fill="midnightblue" stroke="midnightblue" points="313.746,-45.2112 324.32,-44.5484 315.641,-38.4724 313.746,-45.2112"/>
</g>
</g>
</svg>
