<?xml version="1.0" encoding="UTF-8" standalone="no"?>
<!DOCTYPE svg PUBLIC "-//W3C//DTD SVG 1.1//EN"
 "http://www.w3.org/Graphics/SVG/1.1/DTD/svg11.dtd">
<!-- Generated by graphviz version 2.38.0 (20140413.2041)
 -->
<!-- Title: DataFlash_Block::NeedPrep Pages: 1 -->
<svg width="707pt" height="104pt"
 viewBox="0.00 0.00 707.00 104.00" xmlns="http://www.w3.org/2000/svg" xmlns:xlink="http://www.w3.org/1999/xlink">
<g id="graph0" class="graph" transform="scale(1 1) rotate(0) translate(4 100)">
<title>DataFlash_Block::NeedPrep</title>
<polygon fill="white" stroke="none" points="-4,4 -4,-100 703,-100 703,4 -4,4"/>
<!-- Node1 -->
<g id="node1" class="node"><title>Node1</title>
<polygon fill="#bfbfbf" stroke="black" points="0,-38.5 0,-57.5 141,-57.5 141,-38.5 0,-38.5"/>
<text text-anchor="middle" x="70.5" y="-45.5" font-family="Helvetica,sans-Serif" font-size="10.00">DataFlash_Block::NeedPrep</text>
</g>
<!-- Node2 -->
<g id="node2" class="node"><title>Node2</title>
<g id="a_node2"><a xlink:href="classDataFlash__Block.html#aaa5ab749b4efb155c6e3f145b987421b" target="_top" xlink:title="DataFlash_Block::NeedErase">
<polygon fill="white" stroke="black" points="177,-38.5 177,-57.5 323,-57.5 323,-38.5 177,-38.5"/>
<text text-anchor="middle" x="250" y="-45.5" font-family="Helvetica,sans-Serif" font-size="10.00">DataFlash_Block::NeedErase</text>
</a>
</g>
</g>
<!-- Node1&#45;&gt;Node2 -->
<g id="edge1" class="edge"><title>Node1&#45;&gt;Node2</title>
<path fill="none" stroke="midnightblue" d="M141.143,-48C149.59,-48 158.279,-48 166.885,-48"/>
<polygon fill="midnightblue" stroke="midnightblue" points="166.929,-51.5001 176.929,-48 166.929,-44.5001 166.929,-51.5001"/>
</g>
<!-- Node3 -->
<g id="node3" class="node"><title>Node3</title>
<g id="a_node3"><a xlink:href="classDataFlash__Block.html#a7e3413fd597032d4f4692129d2c5d076" target="_top" xlink:title="DataFlash_Block::StartRead">
<polygon fill="white" stroke="black" points="361,-57.5 361,-76.5 503,-76.5 503,-57.5 361,-57.5"/>
<text text-anchor="middle" x="432" y="-64.5" font-family="Helvetica,sans-Serif" font-size="10.00">DataFlash_Block::StartRead</text>
</a>
</g>
</g>
<!-- Node2&#45;&gt;Node3 -->
<g id="edge2" class="edge"><title>Node2&#45;&gt;Node3</title>
<path fill="none" stroke="midnightblue" d="M323.176,-55.6185C332.298,-56.5814 341.674,-57.5712 350.91,-58.5461"/>
<polygon fill="midnightblue" stroke="midnightblue" points="350.545,-62.0269 360.858,-59.5961 351.28,-55.0656 350.545,-62.0269"/>
</g>
<!-- Node7 -->
<g id="node7" class="node"><title>Node7</title>
<g id="a_node7"><a xlink:href="classDataFlash__Block.html#a7809250b6f04b49cd4f1773bc3d245bf" target="_top" xlink:title="DataFlash_Block::ReadBlock">
<polygon fill="white" stroke="black" points="359,-19.5 359,-38.5 505,-38.5 505,-19.5 359,-19.5"/>
<text text-anchor="middle" x="432" y="-26.5" font-family="Helvetica,sans-Serif" font-size="10.00">DataFlash_Block::ReadBlock</text>
</a>
</g>
</g>
<!-- Node2&#45;&gt;Node7 -->
<g id="edge6" class="edge"><title>Node2&#45;&gt;Node7</title>
<path fill="none" stroke="midnightblue" d="M323.176,-40.3815C331.612,-39.491 340.265,-38.5776 348.824,-37.6742"/>
<polygon fill="midnightblue" stroke="midnightblue" points="349.231,-41.1507 358.808,-36.6203 348.496,-34.1894 349.231,-41.1507"/>
</g>
<!-- Node4 -->
<g id="node4" class="node"><title>Node4</title>
<g id="a_node4"><a xlink:href="classDataFlash__Block.html#a5adc35354a63752dc3c855b18e83c175" target="_top" xlink:title="DataFlash_Block::WaitReady">
<polygon fill="white" stroke="black" points="547,-76.5 547,-95.5 693,-95.5 693,-76.5 547,-76.5"/>
<text text-anchor="middle" x="620" y="-83.5" font-family="Helvetica,sans-Serif" font-size="10.00">DataFlash_Block::WaitReady</text>
</a>
</g>
</g>
<!-- Node3&#45;&gt;Node4 -->
<g id="edge3" class="edge"><title>Node3&#45;&gt;Node4</title>
<path fill="none" stroke="midnightblue" d="M503.054,-74.156C514.013,-75.2755 525.426,-76.4413 536.63,-77.5858"/>
<polygon fill="midnightblue" stroke="midnightblue" points="536.538,-81.0946 546.842,-78.629 537.249,-74.1308 536.538,-81.0946"/>
</g>
<!-- Node5 -->
<g id="node5" class="node"><title>Node5</title>
<g id="a_node5"><a xlink:href="classDataFlash__Block.html#a0bc13dd2c8ec2d928e3409c431fb1430" target="_top" xlink:title="DataFlash_Block::PageToBuffer">
<polygon fill="white" stroke="black" points="541,-38.5 541,-57.5 699,-57.5 699,-38.5 541,-38.5"/>
<text text-anchor="middle" x="620" y="-45.5" font-family="Helvetica,sans-Serif" font-size="10.00">DataFlash_Block::PageToBuffer</text>
</a>
</g>
</g>
<!-- Node3&#45;&gt;Node5 -->
<g id="edge4" class="edge"><title>Node3&#45;&gt;Node5</title>
<path fill="none" stroke="midnightblue" d="M503.054,-59.844C512.129,-58.917 521.515,-57.9582 530.836,-57.006"/>
<polygon fill="midnightblue" stroke="midnightblue" points="531.314,-60.4755 540.907,-55.9773 530.603,-53.5117 531.314,-60.4755"/>
</g>
<!-- Node6 -->
<g id="node6" class="node"><title>Node6</title>
<g id="a_node6"><a xlink:href="classDataFlash__Block.html#a4ba0e8bf9f8028d04422e8688efff2c2" target="_top" xlink:title="DataFlash_Block::BlockRead">
<polygon fill="white" stroke="black" points="547,-0.5 547,-19.5 693,-19.5 693,-0.5 547,-0.5"/>
<text text-anchor="middle" x="620" y="-7.5" font-family="Helvetica,sans-Serif" font-size="10.00">DataFlash_Block::BlockRead</text>
</a>
</g>
</g>
<!-- Node3&#45;&gt;Node6 -->
<g id="edge5" class="edge"><title>Node3&#45;&gt;Node6</title>
<path fill="none" stroke="midnightblue" d="M475.774,-57.4272C485.517,-54.7764 495.726,-51.6165 505,-48 521.855,-41.4272 524.083,-35.4118 541,-29 547.72,-26.453 554.897,-24.1613 562.075,-22.1252"/>
<polygon fill="midnightblue" stroke="midnightblue" points="563.071,-25.4819 571.821,-19.5073 561.255,-18.7216 563.071,-25.4819"/>
</g>
<!-- Node7&#45;&gt;Node4 -->
<g id="edge7" class="edge"><title>Node7&#45;&gt;Node4</title>
<path fill="none" stroke="midnightblue" d="M475.774,-38.5728C485.517,-41.2236 495.726,-44.3835 505,-48 521.855,-54.5728 524.083,-60.5882 541,-67 547.72,-69.547 554.897,-71.8387 562.075,-73.8748"/>
<polygon fill="midnightblue" stroke="midnightblue" points="561.255,-77.2784 571.821,-76.4927 563.071,-70.5181 561.255,-77.2784"/>
</g>
<!-- Node7&#45;&gt;Node5 -->
<g id="edge9" class="edge"><title>Node7&#45;&gt;Node5</title>
<path fill="none" stroke="midnightblue" d="M505.179,-36.3731C513.546,-37.2278 522.15,-38.1067 530.701,-38.9802"/>
<polygon fill="midnightblue" stroke="midnightblue" points="530.393,-42.4669 540.697,-40.0013 531.105,-35.5031 530.393,-42.4669"/>
</g>
<!-- Node7&#45;&gt;Node6 -->
<g id="edge8" class="edge"><title>Node7&#45;&gt;Node6</title>
<path fill="none" stroke="midnightblue" d="M505.179,-21.6269C515.548,-20.5677 526.282,-19.4712 536.827,-18.394"/>
<polygon fill="midnightblue" stroke="midnightblue" points="537.269,-21.8671 546.862,-17.3689 536.558,-14.9034 537.269,-21.8671"/>
</g>
</g>
</svg>
