<?xml version="1.0" encoding="UTF-8" standalone="no"?>
<!DOCTYPE svg PUBLIC "-//W3C//DTD SVG 1.1//EN"
 "http://www.w3.org/Graphics/SVG/1.1/DTD/svg11.dtd">
<!-- Generated by graphviz version 2.38.0 (20140413.2041)
 -->
<!-- Title: PX4::PX4RCInput::set_override Pages: 1 -->
<svg width="436pt" height="88pt"
 viewBox="0.00 0.00 436.00 88.00" xmlns="http://www.w3.org/2000/svg" xmlns:xlink="http://www.w3.org/1999/xlink">
<g id="graph0" class="graph" transform="scale(1 1) rotate(0) translate(4 84)">
<title>PX4::PX4RCInput::set_override</title>
<polygon fill="white" stroke="none" points="-4,4 -4,-84 432,-84 432,4 -4,4"/>
<!-- Node1 -->
<g id="node1" class="node"><title>Node1</title>
<polygon fill="#bfbfbf" stroke="black" points="0,-24.5 0,-54.5 116,-54.5 116,-24.5 0,-24.5"/>
<text text-anchor="start" x="8" y="-42.5" font-family="Helvetica,sans-Serif" font-size="10.00">PX4::PX4RCInput::set</text>
<text text-anchor="middle" x="58" y="-31.5" font-family="Helvetica,sans-Serif" font-size="10.00">_override</text>
</g>
<!-- Node2 -->
<g id="node2" class="node"><title>Node2</title>
<g id="a_node2"><a xlink:href="classPX4_1_1PX4RCInput.html#a44d27f9b3587511bbd8b20a288a39cc8" target="_top" xlink:title="PX4::PX4RCInput::clear\l_overrides">
<polygon fill="white" stroke="black" points="152,-49.5 152,-79.5 276,-79.5 276,-49.5 152,-49.5"/>
<text text-anchor="start" x="160" y="-67.5" font-family="Helvetica,sans-Serif" font-size="10.00">PX4::PX4RCInput::clear</text>
<text text-anchor="middle" x="214" y="-56.5" font-family="Helvetica,sans-Serif" font-size="10.00">_overrides</text>
</a>
</g>
</g>
<!-- Node1&#45;&gt;Node2 -->
<g id="edge1" class="edge"><title>Node1&#45;&gt;Node2</title>
<path fill="none" stroke="midnightblue" d="M126.283,-50.4226C134.836,-51.811 143.551,-53.2257 151.997,-54.5969"/>
<polygon fill="midnightblue" stroke="midnightblue" points="126.776,-46.9568 116.344,-48.8091 125.654,-53.8663 126.776,-46.9568"/>
</g>
<!-- Node4 -->
<g id="node4" class="node"><title>Node4</title>
<g id="a_node4"><a xlink:href="classPX4_1_1PX4RCInput.html#a8ad75c49e0f7243649b3c581b20abf33" target="_top" xlink:title="PX4::PX4RCInput::set\l_overrides">
<polygon fill="white" stroke="black" points="156,-0.5 156,-30.5 272,-30.5 272,-0.5 156,-0.5"/>
<text text-anchor="start" x="164" y="-18.5" font-family="Helvetica,sans-Serif" font-size="10.00">PX4::PX4RCInput::set</text>
<text text-anchor="middle" x="214" y="-7.5" font-family="Helvetica,sans-Serif" font-size="10.00">_overrides</text>
</a>
</g>
</g>
<!-- Node1&#45;&gt;Node4 -->
<g id="edge3" class="edge"><title>Node1&#45;&gt;Node4</title>
<path fill="none" stroke="midnightblue" d="M126.462,-28.9865C136.27,-27.458 146.287,-25.8968 155.865,-24.4042"/>
<polygon fill="midnightblue" stroke="midnightblue" points="125.686,-25.5651 116.344,-30.5633 126.764,-32.4816 125.686,-25.5651"/>
</g>
<!-- Node3 -->
<g id="node3" class="node"><title>Node3</title>
<g id="a_node3"><a xlink:href="classPX4_1_1PX4RCInput.html#a78f6074566d14584339dde830915c4b7" target="_top" xlink:title="PX4::PX4RCInput::init">
<polygon fill="white" stroke="black" points="312,-55 312,-74 428,-74 428,-55 312,-55"/>
<text text-anchor="middle" x="370" y="-62" font-family="Helvetica,sans-Serif" font-size="10.00">PX4::PX4RCInput::init</text>
</a>
</g>
</g>
<!-- Node2&#45;&gt;Node3 -->
<g id="edge2" class="edge"><title>Node2&#45;&gt;Node3</title>
<path fill="none" stroke="midnightblue" d="M286.31,-64.5C294.891,-64.5 303.565,-64.5 311.906,-64.5"/>
<polygon fill="midnightblue" stroke="midnightblue" points="286.307,-61.0001 276.307,-64.5 286.307,-68.0001 286.307,-61.0001"/>
</g>
</g>
</svg>
