<?xml version="1.0" encoding="UTF-8" standalone="no"?>
<!DOCTYPE svg PUBLIC "-//W3C//DTD SVG 1.1//EN"
 "http://www.w3.org/Graphics/SVG/1.1/DTD/svg11.dtd">
<!-- Generated by graphviz version 2.38.0 (20140413.2041)
 -->
<!-- Title: Linux::ToneAlarm_Raspilot::_set_pwm0_period Pages: 1 -->
<svg width="719pt" height="142pt"
 viewBox="0.00 0.00 719.00 142.00" xmlns="http://www.w3.org/2000/svg" xmlns:xlink="http://www.w3.org/1999/xlink">
<g id="graph0" class="graph" transform="scale(1 1) rotate(0) translate(4 138)">
<title>Linux::ToneAlarm_Raspilot::_set_pwm0_period</title>
<polygon fill="white" stroke="none" points="-4,4 -4,-138 715,-138 715,4 -4,4"/>
<!-- Node1 -->
<g id="node1" class="node"><title>Node1</title>
<polygon fill="#bfbfbf" stroke="black" points="0,-52 0,-82 134,-82 134,-52 0,-52"/>
<text text-anchor="start" x="8" y="-70" font-family="Helvetica,sans-Serif" font-size="10.00">Linux::ToneAlarm_Raspilot</text>
<text text-anchor="middle" x="67" y="-59" font-family="Helvetica,sans-Serif" font-size="10.00">::_set_pwm0_period</text>
</g>
<!-- Node2 -->
<g id="node2" class="node"><title>Node2</title>
<g id="a_node2"><a xlink:href="classLinux_1_1ToneAlarm__Raspilot.html#a81a3719683af1625d3151d218e468275" target="_top" xlink:title="Linux::ToneAlarm_Raspilot\l::_set_pwm0_duty">
<polygon fill="white" stroke="black" points="170,-52 170,-82 304,-82 304,-52 170,-52"/>
<text text-anchor="start" x="178" y="-70" font-family="Helvetica,sans-Serif" font-size="10.00">Linux::ToneAlarm_Raspilot</text>
<text text-anchor="middle" x="237" y="-59" font-family="Helvetica,sans-Serif" font-size="10.00">::_set_pwm0_duty</text>
</a>
</g>
</g>
<!-- Node1&#45;&gt;Node2 -->
<g id="edge1" class="edge"><title>Node1&#45;&gt;Node2</title>
<path fill="none" stroke="midnightblue" d="M134.398,-67C142.679,-67 151.199,-67 159.616,-67"/>
<polygon fill="midnightblue" stroke="midnightblue" points="159.809,-70.5001 169.809,-67 159.809,-63.5001 159.809,-70.5001"/>
</g>
<!-- Node3 -->
<g id="node3" class="node"><title>Node3</title>
<g id="a_node3"><a xlink:href="AP__Math_8h.html#a40141a958e445f6293a659e856c49f55" target="_top" xlink:title="constrain_int32">
<polygon fill="white" stroke="black" points="340,-57.5 340,-76.5 423,-76.5 423,-57.5 340,-57.5"/>
<text text-anchor="middle" x="381.5" y="-64.5" font-family="Helvetica,sans-Serif" font-size="10.00">constrain_int32</text>
</a>
</g>
</g>
<!-- Node2&#45;&gt;Node3 -->
<g id="edge2" class="edge"><title>Node2&#45;&gt;Node3</title>
<path fill="none" stroke="midnightblue" d="M304.244,-67C312.727,-67 321.306,-67 329.495,-67"/>
<polygon fill="midnightblue" stroke="midnightblue" points="329.624,-70.5001 339.623,-67 329.623,-63.5001 329.624,-70.5001"/>
</g>
<!-- Node4 -->
<g id="node4" class="node"><title>Node4</title>
<g id="a_node4"><a xlink:href="AP__Math_8h.html#a20e8f8671c282c69c1954652b6d61585" target="_top" xlink:title="constrain_value">
<polygon fill="white" stroke="black" points="459,-57.5 459,-76.5 544,-76.5 544,-57.5 459,-57.5"/>
<text text-anchor="middle" x="501.5" y="-64.5" font-family="Helvetica,sans-Serif" font-size="10.00">constrain_value</text>
</a>
</g>
</g>
<!-- Node3&#45;&gt;Node4 -->
<g id="edge3" class="edge"><title>Node3&#45;&gt;Node4</title>
<path fill="none" stroke="midnightblue" d="M423.109,-67C431.261,-67 439.933,-67 448.413,-67"/>
<polygon fill="midnightblue" stroke="midnightblue" points="448.612,-70.5001 458.612,-67 448.612,-63.5001 448.612,-70.5001"/>
</g>
<!-- Node5 -->
<g id="node5" class="node"><title>Node5</title>
<g id="a_node5"><a xlink:href="AP__Math_8cpp.html#a37e8e901754cb9c8e53a8e3030c82c50" target="_top" xlink:title="constrain_value\&lt; int \&gt;">
<polygon fill="white" stroke="black" points="589,-114.5 589,-133.5 702,-133.5 702,-114.5 589,-114.5"/>
<text text-anchor="middle" x="645.5" y="-121.5" font-family="Helvetica,sans-Serif" font-size="10.00">constrain_value&lt; int &gt;</text>
</a>
</g>
</g>
<!-- Node4&#45;&gt;Node5 -->
<g id="edge4" class="edge"><title>Node4&#45;&gt;Node5</title>
<path fill="none" stroke="midnightblue" d="M519.97,-76.6284C535.432,-84.891 558.774,-96.7384 580,-105 585.854,-107.278 592.097,-109.439 598.307,-111.429"/>
<polygon fill="midnightblue" stroke="midnightblue" points="597.389,-114.809 607.977,-114.411 599.452,-108.12 597.389,-114.809"/>
</g>
<!-- Node6 -->
<g id="node6" class="node"><title>Node6</title>
<g id="a_node6"><a xlink:href="AP__Math_8cpp.html#afdbe107ec1987d318a6347816fbf2b89" target="_top" xlink:title="constrain_value\&lt; short \&gt;">
<polygon fill="white" stroke="black" points="583,-76.5 583,-95.5 708,-95.5 708,-76.5 583,-76.5"/>
<text text-anchor="middle" x="645.5" y="-83.5" font-family="Helvetica,sans-Serif" font-size="10.00">constrain_value&lt; short &gt;</text>
</a>
</g>
</g>
<!-- Node4&#45;&gt;Node6 -->
<g id="edge5" class="edge"><title>Node4&#45;&gt;Node6</title>
<path fill="none" stroke="midnightblue" d="M544.337,-72.5979C553.323,-73.8003 563.064,-75.1036 572.821,-76.4092"/>
<polygon fill="midnightblue" stroke="midnightblue" points="572.589,-79.9093 582.965,-77.7665 573.518,-72.9711 572.589,-79.9093"/>
</g>
<!-- Node7 -->
<g id="node7" class="node"><title>Node7</title>
<g id="a_node7"><a xlink:href="AP__Math_8cpp.html#ae6c621670c214da687de21d4e3a92587" target="_top" xlink:title="constrain_value\&lt; float \&gt;">
<polygon fill="white" stroke="black" points="584.5,-38.5 584.5,-57.5 706.5,-57.5 706.5,-38.5 584.5,-38.5"/>
<text text-anchor="middle" x="645.5" y="-45.5" font-family="Helvetica,sans-Serif" font-size="10.00">constrain_value&lt; float &gt;</text>
</a>
</g>
</g>
<!-- Node4&#45;&gt;Node7 -->
<g id="edge6" class="edge"><title>Node4&#45;&gt;Node7</title>
<path fill="none" stroke="midnightblue" d="M544.337,-61.4021C553.724,-60.146 563.935,-58.7798 574.129,-57.4159"/>
<polygon fill="midnightblue" stroke="midnightblue" points="574.838,-60.8522 584.286,-56.0568 573.91,-53.9141 574.838,-60.8522"/>
</g>
<!-- Node8 -->
<g id="node8" class="node"><title>Node8</title>
<g id="a_node8"><a xlink:href="AP__Math_8cpp.html#afe3990b00e9abc43fa97dfaf8e32f5c4" target="_top" xlink:title="constrain_value\&lt; double \&gt;">
<polygon fill="white" stroke="black" points="580,-0.5 580,-19.5 711,-19.5 711,-0.5 580,-0.5"/>
<text text-anchor="middle" x="645.5" y="-7.5" font-family="Helvetica,sans-Serif" font-size="10.00">constrain_value&lt; double &gt;</text>
</a>
</g>
</g>
<!-- Node4&#45;&gt;Node8 -->
<g id="edge7" class="edge"><title>Node4&#45;&gt;Node8</title>
<path fill="none" stroke="midnightblue" d="M519.97,-57.3716C535.432,-49.109 558.774,-37.2616 580,-29 585.854,-26.7215 592.097,-24.5614 598.307,-22.5705"/>
<polygon fill="midnightblue" stroke="midnightblue" points="599.452,-25.88 607.977,-19.5887 597.389,-19.1908 599.452,-25.88"/>
</g>
</g>
</svg>
