<?xml version="1.0" encoding="UTF-8" standalone="no"?>
<!DOCTYPE svg PUBLIC "-//W3C//DTD SVG 1.1//EN"
 "http://www.w3.org/Graphics/SVG/1.1/DTD/svg11.dtd">
<!-- Generated by graphviz version 2.38.0 (20140413.2041)
 -->
<!-- Title: AC_PosControl::shift_alt_target Pages: 1 -->
<!--zoomable 596 -->
<svg id="main" version="1.1" xmlns="http://www.w3.org/2000/svg" xmlns:xlink="http://www.w3.org/1999/xlink" xml:space="preserve" onload="init(evt)">
<style type="text/css"><![CDATA[
.edge:hover path { stroke: red; }
.edge:hover polygon { stroke: red; fill: red; }
]]></style>
<script type="text/javascript"><![CDATA[
var edges = document.getElementsByTagName('g');
if (edges && edges.length) {
  for (var i=0;i<edges.length;i++) {
    if (edges[i].id.substr(0,4)=='edge') {
      edges[i].setAttribute('class','edge');
    }
  }
}
]]></script>
        <defs>
                <circle id="rim" cx="0" cy="0" r="7"/>
                <circle id="rim2" cx="0" cy="0" r="3.5"/>
                <g id="zoomPlus">
                        <use xlink:href="#rim" fill="#404040">
                                <set attributeName="fill" to="#808080" begin="zoomplus.mouseover" end="zoomplus.mouseout"/>
                        </use>
                        <path d="M-4,0h8M0,-4v8" fill="none" stroke="white" stroke-width="1.5" pointer-events="none"/>
                </g>
                <g id="zoomMin">
                        <use xlink:href="#rim" fill="#404040">
                                <set attributeName="fill" to="#808080" begin="zoomminus.mouseover" end="zoomminus.mouseout"/>
                        </use>
                        <path d="M-4,0h8" fill="none" stroke="white" stroke-width="1.5" pointer-events="none"/>
                </g>
                <g id="dirArrow">
                        <path fill="none" stroke="white" stroke-width="1.5" d="M0,-3.0v7 M-2.5,-0.5L0,-3.0L2.5,-0.5"/>
                </g>
               <g id="resetDef">
                       <use xlink:href="#rim2" fill="#404040">
                               <set attributeName="fill" to="#808080" begin="reset.mouseover" end="reset.mouseout"/>
                       </use>
               </g>
        </defs>

<script type="text/javascript">
var viewWidth = 1684;
var viewHeight = 596;
var sectionId = 'dynsection-112';
</script>
<script xlink:href="svgpan.js"/>
<svg id="graph" class="graph">
<g id="viewport">
<title>AC_PosControl::shift_alt_target</title>
<polygon fill="white" stroke="none" points="-4,4 -4,-591.5 1680,-591.5 1680,4 -4,4"/>
<!-- Node1 -->
<g id="node1" class="node"><title>Node1</title>
<polygon fill="#bfbfbf" stroke="black" points="0,-96 0,-126 110,-126 110,-96 0,-96"/>
<text text-anchor="start" x="8" y="-114" font-family="Helvetica,sans-Serif" font-size="10.00">AC_PosControl::shift</text>
<text text-anchor="middle" x="55" y="-103" font-family="Helvetica,sans-Serif" font-size="10.00">_alt_target</text>
</g>
<!-- Node2 -->
<g id="node2" class="node"><title>Node2</title>
<g id="a_node2"><a xlink:href="classAC__PosControl.html#a6e28625ae3a633cd363c467f71d089a3" target="_top" xlink:title="check for ekf position reset and adjust loiter or brake target position ">
<polygon fill="white" stroke="black" points="151,-121 151,-151 268,-151 268,-121 151,-121"/>
<text text-anchor="start" x="159" y="-139" font-family="Helvetica,sans-Serif" font-size="10.00">AC_PosControl::check</text>
<text text-anchor="middle" x="209.5" y="-128" font-family="Helvetica,sans-Serif" font-size="10.00">_for_ekf_z_reset</text>
</a>
</g>
</g>
<!-- Node1&#45;&gt;Node2 -->
<g id="edge1" class="edge"><title>Node1&#45;&gt;Node2</title>
<path fill="none" stroke="midnightblue" d="M120.236,-121.531C130.402,-123.197 140.86,-124.912 150.863,-126.551"/>
<polygon fill="midnightblue" stroke="midnightblue" points="120.63,-118.048 110.195,-119.884 119.497,-124.956 120.63,-118.048"/>
</g>
<!-- Node32 -->
<g id="node32" class="node"><title>Node32</title>
<g id="a_node32"><a xlink:href="classAC__PosControl.html#aad49fb4ca95f76231c9645c6cfee937d" target="_top" xlink:title="set_alt_target_to_current_alt &#45; set altitude target to current altitude ">
<polygon fill="white" stroke="black" points="146,-72 146,-102 273,-102 273,-72 146,-72"/>
<text text-anchor="start" x="154" y="-90" font-family="Helvetica,sans-Serif" font-size="10.00">AC_PosControl::set</text>
<text text-anchor="middle" x="209.5" y="-79" font-family="Helvetica,sans-Serif" font-size="10.00">_alt_target_to_current_alt</text>
</a>
</g>
</g>
<!-- Node1&#45;&gt;Node32 -->
<g id="edge40" class="edge"><title>Node1&#45;&gt;Node32</title>
<path fill="none" stroke="midnightblue" d="M120.096,-100.913C128.634,-99.5691 137.381,-98.1925 145.893,-96.8529"/>
<polygon fill="midnightblue" stroke="midnightblue" points="119.529,-97.4588 110.195,-102.471 120.618,-104.374 119.529,-97.4588"/>
</g>
<!-- Node3 -->
<g id="node3" class="node"><title>Node3</title>
<g id="a_node3"><a xlink:href="classAC__PosControl.html#af9c555a3b07ea1420ea28e7333379941" target="_top" xlink:title="update_z_controller &#45; fly to altitude in cm above home ">
<polygon fill="white" stroke="black" points="309,-121 309,-151 429,-151 429,-121 309,-121"/>
<text text-anchor="start" x="317" y="-139" font-family="Helvetica,sans-Serif" font-size="10.00">AC_PosControl::update</text>
<text text-anchor="middle" x="369" y="-128" font-family="Helvetica,sans-Serif" font-size="10.00">_z_controller</text>
</a>
</g>
</g>
<!-- Node2&#45;&gt;Node3 -->
<g id="edge2" class="edge"><title>Node2&#45;&gt;Node3</title>
<path fill="none" stroke="midnightblue" d="M278.33,-136C288.516,-136 298.951,-136 308.934,-136"/>
<polygon fill="midnightblue" stroke="midnightblue" points="278.253,-132.5 268.253,-136 278.253,-139.5 278.253,-132.5"/>
</g>
<!-- Node4 -->
<g id="node4" class="node"><title>Node4</title>
<g id="a_node4"><a xlink:href="classAC__PosControl.html#ad89eec74ef77005f3f5c449da98ad12c" target="_top" xlink:title="AC_PosControl::update\l_vel_controller_xyz">
<polygon fill="white" stroke="black" points="465,-228 465,-258 585,-258 585,-228 465,-228"/>
<text text-anchor="start" x="473" y="-246" font-family="Helvetica,sans-Serif" font-size="10.00">AC_PosControl::update</text>
<text text-anchor="middle" x="525" y="-235" font-family="Helvetica,sans-Serif" font-size="10.00">_vel_controller_xyz</text>
</a>
</g>
</g>
<!-- Node3&#45;&gt;Node4 -->
<g id="edge3" class="edge"><title>Node3&#45;&gt;Node4</title>
<path fill="none" stroke="midnightblue" d="M400.164,-156.958C430.247,-177.86 475.711,-209.449 502.373,-227.973"/>
<polygon fill="midnightblue" stroke="midnightblue" points="401.947,-153.935 391.738,-151.104 397.953,-159.684 401.947,-153.935"/>
</g>
<!-- Node30 -->
<g id="node30" class="node"><title>Node30</title>
<g id="a_node30"><a xlink:href="classAC__PosControl.html#a9113b44ed876dd2d9a326eb59f3d625a" target="_top" xlink:title="AC_PosControl::get\l_alt_target">
<polygon fill="white" stroke="black" points="473,-33 473,-63 577,-63 577,-33 473,-33"/>
<text text-anchor="start" x="481" y="-51" font-family="Helvetica,sans-Serif" font-size="10.00">AC_PosControl::get</text>
<text text-anchor="middle" x="525" y="-40" font-family="Helvetica,sans-Serif" font-size="10.00">_alt_target</text>
</a>
</g>
</g>
<!-- Node3&#45;&gt;Node30 -->
<g id="edge37" class="edge"><title>Node3&#45;&gt;Node30</title>
<path fill="none" stroke="midnightblue" d="M405.198,-115.887C433.32,-99.8173 472.115,-77.6485 497.615,-63.0773"/>
<polygon fill="midnightblue" stroke="midnightblue" points="403.419,-112.872 396.474,-120.872 406.892,-118.95 403.419,-112.872"/>
</g>
<!-- Node5 -->
<g id="node5" class="node"><title>Node5</title>
<g id="a_node5"><a xlink:href="classAC__PosControl.html#ac150947d527995a72dff6ad0921a1891" target="_top" xlink:title="freeze_ff_xy &#45; used to stop the feed forward being calculated during a known discontinuity ...">
<polygon fill="white" stroke="black" points="633.5,-228 633.5,-258 751.5,-258 751.5,-228 633.5,-228"/>
<text text-anchor="start" x="641.5" y="-246" font-family="Helvetica,sans-Serif" font-size="10.00">AC_PosControl::freeze</text>
<text text-anchor="middle" x="692.5" y="-235" font-family="Helvetica,sans-Serif" font-size="10.00">_ff_xy</text>
</a>
</g>
</g>
<!-- Node4&#45;&gt;Node5 -->
<g id="edge4" class="edge"><title>Node4&#45;&gt;Node5</title>
<path fill="none" stroke="midnightblue" d="M595.341,-243C608.029,-243 621.149,-243 633.464,-243"/>
<polygon fill="midnightblue" stroke="midnightblue" points="595.282,-239.5 585.282,-243 595.282,-246.5 595.282,-239.5"/>
</g>
<!-- Node6 -->
<g id="node6" class="node"><title>Node6</title>
<g id="a_node6"><a xlink:href="classAC__WPNav.html#a9b3fd8fd5c74d31ebffa89cdf98f570a" target="_top" xlink:title="loiter_soften_for_landing &#45; reduce response for landing ">
<polygon fill="white" stroke="black" points="800,-165 800,-195 930,-195 930,-165 800,-165"/>
<text text-anchor="start" x="808" y="-183" font-family="Helvetica,sans-Serif" font-size="10.00">AC_WPNav::loiter_soften</text>
<text text-anchor="middle" x="865" y="-172" font-family="Helvetica,sans-Serif" font-size="10.00">_for_landing</text>
</a>
</g>
</g>
<!-- Node5&#45;&gt;Node6 -->
<g id="edge5" class="edge"><title>Node5&#45;&gt;Node6</title>
<path fill="none" stroke="midnightblue" d="M743.77,-224.425C769.076,-215.074 799.357,-203.886 823.199,-195.076"/>
<polygon fill="midnightblue" stroke="midnightblue" points="742.506,-221.161 734.339,-227.91 744.932,-227.727 742.506,-221.161"/>
</g>
<!-- Node8 -->
<g id="node8" class="node"><title>Node8</title>
<g id="a_node8"><a xlink:href="classAC__PosControl.html#a26ec8e9313b7c01fa449ba4f2d194d28" target="_top" xlink:title="AC_PosControl::set\l_desired_velocity">
<polygon fill="white" stroke="black" points="813,-77 813,-107 917,-107 917,-77 813,-77"/>
<text text-anchor="start" x="821" y="-95" font-family="Helvetica,sans-Serif" font-size="10.00">AC_PosControl::set</text>
<text text-anchor="middle" x="865" y="-84" font-family="Helvetica,sans-Serif" font-size="10.00">_desired_velocity</text>
</a>
</g>
</g>
<!-- Node5&#45;&gt;Node8 -->
<g id="edge7" class="edge"><title>Node5&#45;&gt;Node8</title>
<path fill="none" stroke="midnightblue" d="M709.574,-219.517C728.642,-193.05 762.593,-150.066 800,-122 807.656,-116.256 816.588,-111.227 825.308,-107.01"/>
<polygon fill="midnightblue" stroke="midnightblue" points="706.621,-217.631 703.695,-227.814 712.332,-221.678 706.621,-217.631"/>
</g>
<!-- Node10 -->
<g id="node10" class="node"><title>Node10</title>
<g id="a_node10"><a xlink:href="classAC__PosControl.html#a0a3dc64da9e355dea10959cb41e6aa8b" target="_top" xlink:title="shift position target target in x, y axis ">
<polygon fill="white" stroke="black" points="810,-332 810,-362 920,-362 920,-332 810,-332"/>
<text text-anchor="start" x="818" y="-350" font-family="Helvetica,sans-Serif" font-size="10.00">AC_PosControl::shift</text>
<text text-anchor="middle" x="865" y="-339" font-family="Helvetica,sans-Serif" font-size="10.00">_pos_xy_target</text>
</a>
</g>
</g>
<!-- Node5&#45;&gt;Node10 -->
<g id="edge10" class="edge"><title>Node5&#45;&gt;Node10</title>
<path fill="none" stroke="midnightblue" d="M721.4,-264.332C742.401,-279.901 772.225,-300.994 800,-317 809.144,-322.269 819.367,-327.384 828.912,-331.853"/>
<polygon fill="midnightblue" stroke="midnightblue" points="723.355,-261.423 713.25,-258.238 719.163,-267.029 723.355,-261.423"/>
</g>
<!-- Node18 -->
<g id="node18" class="node"><title>Node18</title>
<g id="a_node18"><a xlink:href="classAC__WPNav.html#a7dc4785fbce8364d7eb3d8e2d0c1b987" target="_top" xlink:title="update_wpnav &#45; run the wp controller &#45; should be called at 100hz or higher ">
<polygon fill="white" stroke="black" points="1358,-228.5 1358,-247.5 1498,-247.5 1498,-228.5 1358,-228.5"/>
<text text-anchor="middle" x="1428" y="-235.5" font-family="Helvetica,sans-Serif" font-size="10.00">AC_WPNav::update_wpnav</text>
</a>
</g>
</g>
<!-- Node5&#45;&gt;Node18 -->
<g id="edge36" class="edge"><title>Node5&#45;&gt;Node18</title>
<path fill="none" stroke="midnightblue" d="M761.803,-242.534C901.279,-241.584 1217.47,-239.428 1357.74,-238.472"/>
<polygon fill="midnightblue" stroke="midnightblue" points="761.645,-239.035 751.67,-242.603 761.693,-246.035 761.645,-239.035"/>
</g>
<!-- Node20 -->
<g id="node20" class="node"><title>Node20</title>
<g id="a_node20"><a xlink:href="classAC__WPNav.html#acc138e7bc6435087ab308896358de6a3" target="_top" xlink:title="update_spline &#45; update spline controller ">
<polygon fill="white" stroke="black" points="1359.5,-190.5 1359.5,-209.5 1496.5,-209.5 1496.5,-190.5 1359.5,-190.5"/>
<text text-anchor="middle" x="1428" y="-197.5" font-family="Helvetica,sans-Serif" font-size="10.00">AC_WPNav::update_spline</text>
</a>
</g>
</g>
<!-- Node5&#45;&gt;Node20 -->
<g id="edge35" class="edge"><title>Node5&#45;&gt;Node20</title>
<path fill="none" stroke="midnightblue" d="M761.843,-238.994C901.883,-230.784 1219.95,-212.138 1359.38,-203.964"/>
<polygon fill="midnightblue" stroke="midnightblue" points="761.448,-235.511 751.67,-239.59 761.857,-242.499 761.448,-235.511"/>
</g>
<!-- Node28 -->
<g id="node28" class="node"><title>Node28</title>
<g id="a_node28"><a xlink:href="classAC__WPNav.html#a7ebe48af2381e791cbcdea94c7af2e3e" target="_top" xlink:title="AC_WPNav::shift_wp\l_origin_to_current_pos">
<polygon fill="white" stroke="black" points="1184,-557 1184,-587 1299,-587 1299,-557 1184,-557"/>
<text text-anchor="start" x="1192" y="-575" font-family="Helvetica,sans-Serif" font-size="10.00">AC_WPNav::shift_wp</text>
<text text-anchor="middle" x="1241.5" y="-564" font-family="Helvetica,sans-Serif" font-size="10.00">_origin_to_current_pos</text>
</a>
</g>
</g>
<!-- Node5&#45;&gt;Node28 -->
<g id="edge34" class="edge"><title>Node5&#45;&gt;Node28</title>
<path fill="none" stroke="midnightblue" d="M708.457,-266.744C727.098,-294.817 761.262,-341.56 800,-372 922.834,-468.522 1099.71,-530.364 1187.26,-556.967"/>
<polygon fill="midnightblue" stroke="midnightblue" points="711.361,-264.79 702.964,-258.33 705.5,-268.616 711.361,-264.79"/>
</g>
<!-- Node7 -->
<g id="node7" class="node"><title>Node7</title>
<g id="a_node7"><a xlink:href="classAC__WPNav.html#af37186ad98df47275d15c04761f81ab4" target="_top" xlink:title="provide rangefinder altitude ">
<polygon fill="white" stroke="black" points="966,-170.5 966,-189.5 1125,-189.5 1125,-170.5 966,-170.5"/>
<text text-anchor="middle" x="1045.5" y="-177.5" font-family="Helvetica,sans-Serif" font-size="10.00">AC_WPNav::set_rangefinder_alt</text>
</a>
</g>
</g>
<!-- Node6&#45;&gt;Node7 -->
<g id="edge6" class="edge"><title>Node6&#45;&gt;Node7</title>
<path fill="none" stroke="midnightblue" d="M940.378,-180C948.821,-180 957.447,-180 965.941,-180"/>
<polygon fill="midnightblue" stroke="midnightblue" points="940.19,-176.5 930.19,-180 940.19,-183.5 940.19,-176.5"/>
</g>
<!-- Node9 -->
<g id="node9" class="node"><title>Node9</title>
<g id="a_node9"><a xlink:href="classAC__PosControl.html#ae2897de0075f8f8aaa94eb7e8cad100b" target="_top" xlink:title="xyz velocity controller ">
<polygon fill="white" stroke="black" points="993.5,-99 993.5,-129 1097.5,-129 1097.5,-99 993.5,-99"/>
<text text-anchor="start" x="1001.5" y="-117" font-family="Helvetica,sans-Serif" font-size="10.00">AC_PosControl::init</text>
<text text-anchor="middle" x="1045.5" y="-106" font-family="Helvetica,sans-Serif" font-size="10.00">_vel_controller_xyz</text>
</a>
</g>
</g>
<!-- Node8&#45;&gt;Node9 -->
<g id="edge8" class="edge"><title>Node8&#45;&gt;Node9</title>
<path fill="none" stroke="midnightblue" d="M927.183,-99.5407C948.73,-102.196 972.708,-105.152 993.342,-107.695"/>
<polygon fill="midnightblue" stroke="midnightblue" points="927.504,-96.0539 917.151,-98.3043 926.648,-103.001 927.504,-96.0539"/>
</g>
<!-- Node9&#45;&gt;Node5 -->
<g id="edge9" class="edge"><title>Node9&#45;&gt;Node5</title>
<path fill="none" stroke="midnightblue" d="M982.864,-115.525C931.808,-118.815 858.422,-128.322 800,-155 761.601,-172.534 725.662,-207.553 706.951,-227.727"/>
<polygon fill="midnightblue" stroke="midnightblue" points="983.307,-119.005 993.087,-114.93 982.9,-112.017 983.307,-119.005"/>
</g>
<!-- Node11 -->
<g id="node11" class="node"><title>Node11</title>
<g id="a_node11"><a xlink:href="classAC__PosControl.html#adcd8a80dc29c0e77d0c3f225689319b9" target="_top" xlink:title="check for ekf position reset and adjust loiter or brake target position ">
<polygon fill="white" stroke="black" points="987,-332 987,-362 1104,-362 1104,-332 987,-332"/>
<text text-anchor="start" x="995" y="-350" font-family="Helvetica,sans-Serif" font-size="10.00">AC_PosControl::check</text>
<text text-anchor="middle" x="1045.5" y="-339" font-family="Helvetica,sans-Serif" font-size="10.00">_for_ekf_xy_reset</text>
</a>
</g>
</g>
<!-- Node10&#45;&gt;Node11 -->
<g id="edge11" class="edge"><title>Node10&#45;&gt;Node11</title>
<path fill="none" stroke="midnightblue" d="M930.156,-347C948.696,-347 968.809,-347 986.922,-347"/>
<polygon fill="midnightblue" stroke="midnightblue" points="930.04,-343.5 920.04,-347 930.04,-350.5 930.04,-343.5"/>
</g>
<!-- Node22 -->
<g id="node22" class="node"><title>Node22</title>
<g id="a_node22"><a xlink:href="classAC__PosControl.html#a6b3617b946ffd6935c11a63629f186ec" target="_top" xlink:title="get_pos_target &#45; get target as position vector (from home in cm) ">
<polygon fill="white" stroke="black" points="993.5,-381 993.5,-411 1097.5,-411 1097.5,-381 993.5,-381"/>
<text text-anchor="start" x="1001.5" y="-399" font-family="Helvetica,sans-Serif" font-size="10.00">AC_PosControl::get</text>
<text text-anchor="middle" x="1045.5" y="-388" font-family="Helvetica,sans-Serif" font-size="10.00">_pos_target</text>
</a>
</g>
</g>
<!-- Node10&#45;&gt;Node22 -->
<g id="edge25" class="edge"><title>Node10&#45;&gt;Node22</title>
<path fill="none" stroke="midnightblue" d="M929.787,-364.51C950.667,-370.242 973.575,-376.53 993.393,-381.971"/>
<polygon fill="midnightblue" stroke="midnightblue" points="930.61,-361.107 920.04,-361.835 928.757,-367.857 930.61,-361.107"/>
</g>
<!-- Node11&#45;&gt;Node4 -->
<g id="edge12" class="edge"><title>Node11&#45;&gt;Node4</title>
<path fill="none" stroke="midnightblue" d="M981.485,-364.424C931.718,-375.56 860.773,-385.591 800,-372 700.458,-349.739 594.432,-287.135 548.914,-258.117"/>
<polygon fill="midnightblue" stroke="midnightblue" points="982.507,-367.78 991.46,-362.114 980.928,-360.96 982.507,-367.78"/>
</g>
<!-- Node12 -->
<g id="node12" class="node"><title>Node12</title>
<g id="a_node12"><a xlink:href="classAC__PosControl.html#a497c1799c10d146b6f2e2b542889c083" target="_top" xlink:title="update_xy_controller &#45; run the horizontal position controller &#45; should be called at 100hz or higher ...">
<polygon fill="white" stroke="black" points="1181.5,-291 1181.5,-321 1301.5,-321 1301.5,-291 1181.5,-291"/>
<text text-anchor="start" x="1189.5" y="-309" font-family="Helvetica,sans-Serif" font-size="10.00">AC_PosControl::update</text>
<text text-anchor="middle" x="1241.5" y="-298" font-family="Helvetica,sans-Serif" font-size="10.00">_xy_controller</text>
</a>
</g>
</g>
<!-- Node11&#45;&gt;Node12 -->
<g id="edge13" class="edge"><title>Node11&#45;&gt;Node12</title>
<path fill="none" stroke="midnightblue" d="M1114.07,-332.719C1135.99,-328.088 1160.11,-322.989 1181.36,-318.498"/>
<polygon fill="midnightblue" stroke="midnightblue" points="1113.24,-329.317 1104.18,-334.81 1114.69,-336.166 1113.24,-329.317"/>
</g>
<!-- Node12&#45;&gt;Node5 -->
<g id="edge14" class="edge"><title>Node12&#45;&gt;Node5</title>
<path fill="none" stroke="midnightblue" d="M1171.12,-306.23C1083.8,-305.39 929.568,-300.145 800,-276 777.831,-271.869 753.783,-264.663 734.158,-258.037"/>
<polygon fill="midnightblue" stroke="midnightblue" points="1171.14,-309.731 1181.17,-306.31 1171.2,-302.731 1171.14,-309.731"/>
</g>
<!-- Node13 -->
<g id="node13" class="node"><title>Node13</title>
<g id="a_node13"><a xlink:href="classAC__Circle.html#ad28205982ae7bc5f1e72f5285696c99b" target="_top" xlink:title="update &#45; update circle controller ">
<polygon fill="white" stroke="black" points="1379.5,-89.5 1379.5,-108.5 1476.5,-108.5 1476.5,-89.5 1379.5,-89.5"/>
<text text-anchor="middle" x="1428" y="-96.5" font-family="Helvetica,sans-Serif" font-size="10.00">AC_Circle::update</text>
</a>
</g>
</g>
<!-- Node12&#45;&gt;Node13 -->
<g id="edge15" class="edge"><title>Node12&#45;&gt;Node13</title>
<path fill="none" stroke="midnightblue" d="M1262.74,-283.292C1302.79,-238.362 1390.66,-139.774 1418.42,-108.629"/>
<polygon fill="midnightblue" stroke="midnightblue" points="1260.11,-280.985 1256.07,-290.779 1265.33,-285.642 1260.11,-280.985"/>
</g>
<!-- Node15 -->
<g id="node15" class="node"><title>Node15</title>
<g id="a_node15"><a xlink:href="classAC__WPNav.html#a0a434270245fd8641352af387700dc82" target="_top" xlink:title="update_loiter &#45; run the loiter controller &#45; should be called at 10hz ">
<polygon fill="white" stroke="black" points="1362,-304.5 1362,-323.5 1494,-323.5 1494,-304.5 1362,-304.5"/>
<text text-anchor="middle" x="1428" y="-311.5" font-family="Helvetica,sans-Serif" font-size="10.00">AC_WPNav::update_loiter</text>
</a>
</g>
</g>
<!-- Node12&#45;&gt;Node15 -->
<g id="edge17" class="edge"><title>Node12&#45;&gt;Node15</title>
<path fill="none" stroke="midnightblue" d="M1311.7,-309.001C1328.12,-309.713 1345.58,-310.469 1361.81,-311.173"/>
<polygon fill="midnightblue" stroke="midnightblue" points="1311.78,-305.501 1301.64,-308.564 1311.48,-312.494 1311.78,-305.501"/>
</g>
<!-- Node17 -->
<g id="node17" class="node"><title>Node17</title>
<g id="a_node17"><a xlink:href="classAC__WPNav.html#af9d3f98ad44166d4c5d072bf3ba4a3db" target="_top" xlink:title="update_brake &#45; run the brake controller &#45; should be called at 400hz ">
<polygon fill="white" stroke="black" points="1360.5,-266.5 1360.5,-285.5 1495.5,-285.5 1495.5,-266.5 1360.5,-266.5"/>
<text text-anchor="middle" x="1428" y="-273.5" font-family="Helvetica,sans-Serif" font-size="10.00">AC_WPNav::update_brake</text>
</a>
</g>
</g>
<!-- Node12&#45;&gt;Node17 -->
<g id="edge19" class="edge"><title>Node12&#45;&gt;Node17</title>
<path fill="none" stroke="midnightblue" d="M1311.59,-294.766C1330.32,-291.72 1350.42,-288.452 1368.51,-285.51"/>
<polygon fill="midnightblue" stroke="midnightblue" points="1310.95,-291.324 1301.64,-296.384 1312.07,-298.234 1310.95,-291.324"/>
</g>
<!-- Node12&#45;&gt;Node18 -->
<g id="edge21" class="edge"><title>Node12&#45;&gt;Node18</title>
<path fill="none" stroke="midnightblue" d="M1294.81,-287.326C1303.95,-283.759 1313.31,-279.912 1322,-276 1338.5,-268.57 1341.18,-263.663 1358,-257 1367.13,-253.385 1377.19,-250.192 1386.74,-247.504"/>
<polygon fill="midnightblue" stroke="midnightblue" points="1293.48,-284.086 1285.4,-290.931 1295.99,-290.623 1293.48,-284.086"/>
</g>
<!-- Node12&#45;&gt;Node20 -->
<g id="edge23" class="edge"><title>Node12&#45;&gt;Node20</title>
<path fill="none" stroke="midnightblue" d="M1265.96,-284.068C1288.12,-264.434 1323.09,-236.171 1358,-219 1365.69,-215.216 1374.25,-212.091 1382.65,-209.546"/>
<polygon fill="midnightblue" stroke="midnightblue" points="1263.49,-281.583 1258.39,-290.874 1268.17,-286.786 1263.49,-281.583"/>
</g>
<!-- Node14 -->
<g id="node14" class="node"><title>Node14</title>
<g id="a_node14"><a xlink:href="classAC__Circle.html#a176fe6b798510eb180d35f62d7f6487c" target="_top" xlink:title="get_angle_total &#45; return total angle in radians that vehicle has circled ">
<polygon fill="white" stroke="black" points="1550,-84 1550,-114 1660,-114 1660,-84 1550,-84"/>
<text text-anchor="start" x="1558" y="-102" font-family="Helvetica,sans-Serif" font-size="10.00">AC_Circle::get_angle</text>
<text text-anchor="middle" x="1605" y="-91" font-family="Helvetica,sans-Serif" font-size="10.00">_total</text>
</a>
</g>
</g>
<!-- Node13&#45;&gt;Node14 -->
<g id="edge16" class="edge"><title>Node13&#45;&gt;Node14</title>
<path fill="none" stroke="midnightblue" d="M1486.86,-99C1507.12,-99 1529.79,-99 1549.75,-99"/>
<polygon fill="midnightblue" stroke="midnightblue" points="1486.82,-95.5001 1476.82,-99 1486.82,-102.5 1486.82,-95.5001"/>
</g>
<!-- Node16 -->
<g id="node16" class="node"><title>Node16</title>
<g id="a_node16"><a xlink:href="classAC__WPNav.html#ae34a88192799de8f2b96c8cd295bb971" target="_top" xlink:title="get_loiter_target &#45; returns loiter target position ">
<polygon fill="white" stroke="black" points="1547,-299 1547,-329 1663,-329 1663,-299 1547,-299"/>
<text text-anchor="start" x="1555" y="-317" font-family="Helvetica,sans-Serif" font-size="10.00">AC_WPNav::get_loiter</text>
<text text-anchor="middle" x="1605" y="-306" font-family="Helvetica,sans-Serif" font-size="10.00">_target</text>
</a>
</g>
</g>
<!-- Node15&#45;&gt;Node16 -->
<g id="edge18" class="edge"><title>Node15&#45;&gt;Node16</title>
<path fill="none" stroke="midnightblue" d="M1504.42,-314C1518.64,-314 1533.3,-314 1546.84,-314"/>
<polygon fill="midnightblue" stroke="midnightblue" points="1504.16,-310.5 1494.16,-314 1504.16,-317.5 1504.16,-310.5"/>
</g>
<!-- Node17&#45;&gt;Node16 -->
<g id="edge20" class="edge"><title>Node17&#45;&gt;Node16</title>
<path fill="none" stroke="midnightblue" d="M1483.15,-287.759C1503.4,-292.154 1526.44,-297.158 1546.93,-301.608"/>
<polygon fill="midnightblue" stroke="midnightblue" points="1483.67,-284.291 1473.16,-285.589 1482.19,-291.131 1483.67,-284.291"/>
</g>
<!-- Node19 -->
<g id="node19" class="node"><title>Node19</title>
<g id="a_node19"><a xlink:href="classAC__WPNav.html#a4795d6f44811c6ca8b592c5cc098e0c0" target="_top" xlink:title="set_fast_waypoint &#45; set to true to ignore the waypoint radius and consider the waypoint &#39;reached&#39; the...">
<polygon fill="white" stroke="black" points="1549,-229 1549,-259 1661,-259 1661,-229 1549,-229"/>
<text text-anchor="start" x="1557" y="-247" font-family="Helvetica,sans-Serif" font-size="10.00">AC_WPNav::set_fast</text>
<text text-anchor="middle" x="1605" y="-236" font-family="Helvetica,sans-Serif" font-size="10.00">_waypoint</text>
</a>
</g>
</g>
<!-- Node18&#45;&gt;Node19 -->
<g id="edge22" class="edge"><title>Node18&#45;&gt;Node19</title>
<path fill="none" stroke="midnightblue" d="M1508.51,-240.726C1522.12,-241.193 1536,-241.669 1548.81,-242.108"/>
<polygon fill="midnightblue" stroke="midnightblue" points="1508.28,-237.216 1498.16,-240.371 1508.04,-244.212 1508.28,-237.216"/>
</g>
<!-- Node21 -->
<g id="node21" class="node"><title>Node21</title>
<g id="a_node21"><a xlink:href="classAC__WPNav.html#a3169a6fb417742e33c3a5197bb7a6c6d" target="_top" xlink:title="reached_spline_destination &#45; true when we have come within RADIUS cm of the waypoint ...">
<polygon fill="white" stroke="black" points="1534,-180 1534,-210 1676,-210 1676,-180 1534,-180"/>
<text text-anchor="start" x="1542" y="-198" font-family="Helvetica,sans-Serif" font-size="10.00">AC_WPNav::reached_spline</text>
<text text-anchor="middle" x="1605" y="-187" font-family="Helvetica,sans-Serif" font-size="10.00">_destination</text>
</a>
</g>
</g>
<!-- Node20&#45;&gt;Node21 -->
<g id="edge24" class="edge"><title>Node20&#45;&gt;Node21</title>
<path fill="none" stroke="midnightblue" d="M1506.78,-197.778C1515.82,-197.52 1524.99,-197.257 1533.92,-197.002"/>
<polygon fill="midnightblue" stroke="midnightblue" points="1506.56,-194.283 1496.66,-198.067 1506.76,-201.28 1506.56,-194.283"/>
</g>
<!-- Node22&#45;&gt;Node16 -->
<g id="edge28" class="edge"><title>Node22&#45;&gt;Node16</title>
<path fill="none" stroke="midnightblue" d="M1107.55,-382.125C1124.77,-378.505 1143.57,-374.829 1161,-372 1309.83,-347.842 1348.83,-354.978 1498,-333 1513.91,-330.656 1531.09,-327.743 1546.89,-324.907"/>
<polygon fill="midnightblue" stroke="midnightblue" points="1106.66,-378.736 1097.61,-384.244 1108.12,-385.582 1106.66,-378.736"/>
</g>
<!-- Node23 -->
<g id="node23" class="node"><title>Node23</title>
<g id="a_node23"><a xlink:href="classAC__WPNav.html#a7f711c7661c335417cbcc28f9546688c" target="_top" xlink:title="get_loiter_bearing_to_target &#45; get bearing to loiter target in centi&#45;degrees ">
<polygon fill="white" stroke="black" points="1183.5,-381 1183.5,-411 1299.5,-411 1299.5,-381 1183.5,-381"/>
<text text-anchor="start" x="1191.5" y="-399" font-family="Helvetica,sans-Serif" font-size="10.00">AC_WPNav::get_loiter</text>
<text text-anchor="middle" x="1241.5" y="-388" font-family="Helvetica,sans-Serif" font-size="10.00">_bearing_to_target</text>
</a>
</g>
</g>
<!-- Node22&#45;&gt;Node23 -->
<g id="edge26" class="edge"><title>Node22&#45;&gt;Node23</title>
<path fill="none" stroke="midnightblue" d="M1107.83,-396C1131.94,-396 1159.46,-396 1183.17,-396"/>
<polygon fill="midnightblue" stroke="midnightblue" points="1107.73,-392.5 1097.72,-396 1107.72,-399.5 1107.73,-392.5"/>
</g>
<!-- Node25 -->
<g id="node25" class="node"><title>Node25</title>
<g id="a_node25"><a xlink:href="classAC__Circle.html#a20eefa0e2e7172498728dbf1f5eed4af" target="_top" xlink:title="AC_Circle::init">
<polygon fill="white" stroke="black" points="1201.5,-518.5 1201.5,-537.5 1281.5,-537.5 1281.5,-518.5 1201.5,-518.5"/>
<text text-anchor="middle" x="1241.5" y="-525.5" font-family="Helvetica,sans-Serif" font-size="10.00">AC_Circle::init</text>
</a>
</g>
</g>
<!-- Node22&#45;&gt;Node25 -->
<g id="edge29" class="edge"><title>Node22&#45;&gt;Node25</title>
<path fill="none" stroke="midnightblue" d="M1106.87,-413.178C1113.48,-416.708 1119.71,-420.938 1125,-426 1154.05,-453.797 1130.2,-483.156 1161,-509 1172.2,-518.395 1187.25,-523.305 1201.25,-525.819"/>
<polygon fill="midnightblue" stroke="midnightblue" points="1108.22,-409.945 1097.69,-408.786 1105.2,-416.259 1108.22,-409.945"/>
</g>
<!-- Node26 -->
<g id="node26" class="node"><title>Node26</title>
<g id="a_node26"><a xlink:href="classAC__WPNav.html#a8caabd95cf51512456cd8d81f38dbff9" target="_top" xlink:title="AC_WPNav::set_spline\l_destination">
<polygon fill="white" stroke="black" points="1181,-469 1181,-499 1302,-499 1302,-469 1181,-469"/>
<text text-anchor="start" x="1189" y="-487" font-family="Helvetica,sans-Serif" font-size="10.00">AC_WPNav::set_spline</text>
<text text-anchor="middle" x="1241.5" y="-476" font-family="Helvetica,sans-Serif" font-size="10.00">_destination</text>
</a>
</g>
</g>
<!-- Node22&#45;&gt;Node26 -->
<g id="edge30" class="edge"><title>Node22&#45;&gt;Node26</title>
<path fill="none" stroke="midnightblue" d="M1104,-415.056C1111.28,-418.305 1118.45,-421.956 1125,-426 1143.46,-437.41 1142.2,-448.153 1161,-459 1167.52,-462.76 1174.67,-466.024 1181.92,-468.838"/>
<polygon fill="midnightblue" stroke="midnightblue" points="1105.35,-411.826 1094.77,-411.158 1102.62,-418.274 1105.35,-411.826"/>
</g>
<!-- Node27 -->
<g id="node27" class="node"><title>Node27</title>
<g id="a_node27"><a xlink:href="classAC__WPNav.html#a38519fcac3a24cf64ec7c37e90fc3e13" target="_top" xlink:title="AC_WPNav::set_wp_destination">
<polygon fill="white" stroke="black" points="1161,-430.5 1161,-449.5 1322,-449.5 1322,-430.5 1161,-430.5"/>
<text text-anchor="middle" x="1241.5" y="-437.5" font-family="Helvetica,sans-Serif" font-size="10.00">AC_WPNav::set_wp_destination</text>
</a>
</g>
</g>
<!-- Node22&#45;&gt;Node27 -->
<g id="edge31" class="edge"><title>Node22&#45;&gt;Node27</title>
<path fill="none" stroke="midnightblue" d="M1107.54,-409.844C1137.13,-416.555 1171.91,-424.444 1198.48,-430.47"/>
<polygon fill="midnightblue" stroke="midnightblue" points="1108.25,-406.417 1097.72,-407.618 1106.7,-413.243 1108.25,-406.417"/>
</g>
<!-- Node22&#45;&gt;Node28 -->
<g id="edge32" class="edge"><title>Node22&#45;&gt;Node28</title>
<path fill="none" stroke="midnightblue" d="M1106.94,-412.283C1113.65,-415.971 1119.89,-420.483 1125,-426 1163.14,-467.15 1121.63,-507.02 1161,-547 1167.4,-553.495 1175.46,-558.307 1183.98,-561.872"/>
<polygon fill="midnightblue" stroke="midnightblue" points="1108.11,-408.956 1097.58,-407.749 1105.05,-415.257 1108.11,-408.956"/>
</g>
<!-- Node24 -->
<g id="node24" class="node"><title>Node24</title>
<g id="a_node24"><a xlink:href="classAC__WPNav.html#a828016e98938c6bbb6236e0b92e20807" target="_top" xlink:title="get_loiter_distance_to_target &#45; get horizontal distance to loiter target in cm ">
<polygon fill="white" stroke="black" points="1370,-381 1370,-411 1486,-411 1486,-381 1370,-381"/>
<text text-anchor="start" x="1378" y="-399" font-family="Helvetica,sans-Serif" font-size="10.00">AC_WPNav::get_loiter</text>
<text text-anchor="middle" x="1428" y="-388" font-family="Helvetica,sans-Serif" font-size="10.00">_distance_to_target</text>
</a>
</g>
</g>
<!-- Node23&#45;&gt;Node24 -->
<g id="edge27" class="edge"><title>Node23&#45;&gt;Node24</title>
<path fill="none" stroke="midnightblue" d="M1309.75,-396C1329.46,-396 1350.82,-396 1369.84,-396"/>
<polygon fill="midnightblue" stroke="midnightblue" points="1309.61,-392.5 1299.61,-396 1309.61,-399.5 1309.61,-392.5"/>
</g>
<!-- Node29 -->
<g id="node29" class="node"><title>Node29</title>
<g id="a_node29"><a xlink:href="classAC__WPNav.html#acc07b8521654cf468b6a86fad9104a4c" target="_top" xlink:title="get origin using position vector (distance from home in cm) ">
<polygon fill="white" stroke="black" points="1359.5,-562.5 1359.5,-581.5 1496.5,-581.5 1496.5,-562.5 1359.5,-562.5"/>
<text text-anchor="middle" x="1428" y="-569.5" font-family="Helvetica,sans-Serif" font-size="10.00">AC_WPNav::get_wp_origin</text>
</a>
</g>
</g>
<!-- Node28&#45;&gt;Node29 -->
<g id="edge33" class="edge"><title>Node28&#45;&gt;Node29</title>
<path fill="none" stroke="midnightblue" d="M1309.13,-572C1325.51,-572 1343.05,-572 1359.47,-572"/>
<polygon fill="midnightblue" stroke="midnightblue" points="1309.11,-568.5 1299.11,-572 1309.11,-575.5 1309.11,-568.5"/>
</g>
<!-- Node30&#45;&gt;Node13 -->
<g id="edge39" class="edge"><title>Node30&#45;&gt;Node13</title>
<path fill="none" stroke="midnightblue" d="M587.319,-48C655.038,-48 767.3,-48 864,-48 864,-48 864,-48 1046.5,-48 1169.97,-48 1313.99,-74.7059 1384.17,-89.4671"/>
<polygon fill="midnightblue" stroke="midnightblue" points="587.25,-44.5001 577.25,-48 587.25,-51.5001 587.25,-44.5001"/>
</g>
<!-- Node31 -->
<g id="node31" class="node"><title>Node31</title>
<g id="a_node31"><a xlink:href="classAC__WPNav.html#a8542028b741ca81881b9e00d42cc2eea" target="_top" xlink:title="get_desired_alt &#45; get desired altitude (in cm above home) from loiter or wp controller which should b...">
<polygon fill="white" stroke="black" points="621,-0.5 621,-19.5 764,-19.5 764,-0.5 621,-0.5"/>
<text text-anchor="middle" x="692.5" y="-7.5" font-family="Helvetica,sans-Serif" font-size="10.00">AC_WPNav::get_desired_alt</text>
</a>
</g>
</g>
<!-- Node30&#45;&gt;Node31 -->
<g id="edge38" class="edge"><title>Node30&#45;&gt;Node31</title>
<path fill="none" stroke="midnightblue" d="M586.829,-34.0332C607.877,-29.2004 630.965,-23.8993 650.088,-19.5084"/>
<polygon fill="midnightblue" stroke="midnightblue" points="585.969,-30.6395 577.006,-36.2887 587.536,-37.462 585.969,-30.6395"/>
</g>
</g>
</svg>
        <g id="navigator" transform="translate(0 0)" fill="#404254">
                <rect fill="#f2f5e9" fill-opacity="0.5" stroke="#606060" stroke-width=".5" x="0" y="0" width="60" height="60"/>
                <use id="zoomplus" xlink:href="#zoomPlus" x="17" y="9" onmousedown="handleZoom(evt,'in')"/>
                <use id="zoomminus" xlink:href="#zoomMin" x="42" y="9" onmousedown="handleZoom(evt,'out')"/>
                <use id="reset" xlink:href="#resetDef" x="30" y="36" onmousedown="handleReset()"/>
                <g id="arrowUp" xlink:href="#dirArrow" transform="translate(30 24)" onmousedown="handlePan(0,-1)">
                  <use xlink:href="#rim" fill="#404040">
                        <set attributeName="fill" to="#808080" begin="arrowUp.mouseover" end="arrowUp.mouseout"/>
                  </use>
                  <path fill="none" stroke="white" stroke-width="1.5" d="M0,-3.0v7 M-2.5,-0.5L0,-3.0L2.5,-0.5"/>
                </g>
                <g id="arrowRight" xlink:href="#dirArrow" transform="rotate(90) translate(36 -43)" onmousedown="handlePan(1,0)">
                  <use xlink:href="#rim" fill="#404040">
                        <set attributeName="fill" to="#808080" begin="arrowRight.mouseover" end="arrowRight.mouseout"/>
                  </use>
                  <path fill="none" stroke="white" stroke-width="1.5" d="M0,-3.0v7 M-2.5,-0.5L0,-3.0L2.5,-0.5"/>
                </g>
                <g id="arrowDown" xlink:href="#dirArrow" transform="rotate(180) translate(-30 -48)" onmousedown="handlePan(0,1)">
                  <use xlink:href="#rim" fill="#404040">
                        <set attributeName="fill" to="#808080" begin="arrowDown.mouseover" end="arrowDown.mouseout"/>
                  </use>
                  <path fill="none" stroke="white" stroke-width="1.5" d="M0,-3.0v7 M-2.5,-0.5L0,-3.0L2.5,-0.5"/>
                </g>
                <g id="arrowLeft" xlink:href="#dirArrow" transform="rotate(270) translate(-36 17)" onmousedown="handlePan(-1,0)">
                  <use xlink:href="#rim" fill="#404040">
                        <set attributeName="fill" to="#808080" begin="arrowLeft.mouseover" end="arrowLeft.mouseout"/>
                  </use>
                  <path fill="none" stroke="white" stroke-width="1.5" d="M0,-3.0v7 M-2.5,-0.5L0,-3.0L2.5,-0.5"/>
                </g>
        </g>
        <svg viewBox="0 0 15 15" width="100%" height="30px" preserveAspectRatio="xMaxYMin meet">
         <g id="arrow_out" transform="scale(0.3 0.3)">
          <a xlink:href="classAC__PosControl_add9f8e5a5f3e35c0e99ddc3af4d9090b_icgraph_org.svg" target="_base">
           <rect id="button" ry="5" rx="5" y="6" x="6" height="38" width="38"
                fill="#f2f5e9" fill-opacity="0.5" stroke="#606060" stroke-width="1.0"/>
           <path id="arrow"
             d="M 11.500037,31.436501 C 11.940474,20.09759 22.043105,11.32322 32.158766,21.979434 L 37.068811,17.246167 C 37.068811,17.246167 37.088388,32 37.088388,32 L 22.160133,31.978069 C 22.160133,31.978069 26.997745,27.140456 26.997745,27.140456 C 18.528582,18.264221 13.291696,25.230495 11.500037,31.436501 z"
             style="fill:#404040;"/>
          </a>
         </g>
        </svg>
</svg>
