<?xml version="1.0" encoding="UTF-8" standalone="no"?>
<!DOCTYPE svg PUBLIC "-//W3C//DTD SVG 1.1//EN"
 "http://www.w3.org/Graphics/SVG/1.1/DTD/svg11.dtd">
<!-- Generated by graphviz version 2.38.0 (20140413.2041)
 -->
<!-- Title: PX4::PX4UARTDriver::set_flow_control Pages: 1 -->
<svg width="700pt" height="88pt"
 viewBox="0.00 0.00 700.00 88.00" xmlns="http://www.w3.org/2000/svg" xmlns:xlink="http://www.w3.org/1999/xlink">
<g id="graph0" class="graph" transform="scale(1 1) rotate(0) translate(4 84)">
<title>PX4::PX4UARTDriver::set_flow_control</title>
<polygon fill="white" stroke="none" points="-4,4 -4,-84 696,-84 696,4 -4,4"/>
<!-- Node1 -->
<g id="node1" class="node"><title>Node1</title>
<polygon fill="#bfbfbf" stroke="black" points="0,-24.5 0,-54.5 114,-54.5 114,-24.5 0,-24.5"/>
<text text-anchor="start" x="8" y="-42.5" font-family="Helvetica,sans-Serif" font-size="10.00">PX4::PX4UARTDriver</text>
<text text-anchor="middle" x="57" y="-31.5" font-family="Helvetica,sans-Serif" font-size="10.00">::set_flow_control</text>
</g>
<!-- Node2 -->
<g id="node2" class="node"><title>Node2</title>
<g id="a_node2"><a xlink:href="classPX4_1_1PX4UARTDriver.html#af8ad884e2f3a1df81b2bee2d3bf527d3" target="_top" xlink:title="PX4::PX4UARTDriver\l::_get_fd">
<polygon fill="white" stroke="black" points="150,-49.5 150,-79.5 264,-79.5 264,-49.5 150,-49.5"/>
<text text-anchor="start" x="158" y="-67.5" font-family="Helvetica,sans-Serif" font-size="10.00">PX4::PX4UARTDriver</text>
<text text-anchor="middle" x="207" y="-56.5" font-family="Helvetica,sans-Serif" font-size="10.00">::_get_fd</text>
</a>
</g>
</g>
<!-- Node1&#45;&gt;Node2 -->
<g id="edge1" class="edge"><title>Node1&#45;&gt;Node2</title>
<path fill="none" stroke="midnightblue" d="M124.28,-50.696C132.796,-52.1344 141.449,-53.5961 149.782,-55.0037"/>
<polygon fill="midnightblue" stroke="midnightblue" points="124.818,-47.2373 114.375,-49.0227 123.652,-54.1395 124.818,-47.2373"/>
</g>
<!-- Node4 -->
<g id="node4" class="node"><title>Node4</title>
<g id="a_node4"><a xlink:href="classPX4_1_1PX4UARTDriver.html#a999818ba89f3849918b43fb38dd3e836" target="_top" xlink:title="PX4::PX4UARTDriver\l::_write_fd">
<polygon fill="white" stroke="black" points="150,-0.5 150,-30.5 264,-30.5 264,-0.5 150,-0.5"/>
<text text-anchor="start" x="158" y="-18.5" font-family="Helvetica,sans-Serif" font-size="10.00">PX4::PX4UARTDriver</text>
<text text-anchor="middle" x="207" y="-7.5" font-family="Helvetica,sans-Serif" font-size="10.00">::_write_fd</text>
</a>
</g>
</g>
<!-- Node1&#45;&gt;Node4 -->
<g id="edge3" class="edge"><title>Node1&#45;&gt;Node4</title>
<path fill="none" stroke="midnightblue" d="M124.28,-28.7519C132.796,-27.371 141.449,-25.9678 149.782,-24.6164"/>
<polygon fill="midnightblue" stroke="midnightblue" points="123.685,-25.3025 114.375,-30.3582 124.806,-32.2122 123.685,-25.3025"/>
</g>
<!-- Node3 -->
<g id="node3" class="node"><title>Node3</title>
<g id="a_node3"><a xlink:href="classPX4_1_1PX4Util.html#a2a8d803cc36dfe0ae0f712771c803be0" target="_top" xlink:title="PX4::PX4Util::run_debug\l_shell">
<polygon fill="white" stroke="black" points="300,-49.5 300,-79.5 426,-79.5 426,-49.5 300,-49.5"/>
<text text-anchor="start" x="308" y="-67.5" font-family="Helvetica,sans-Serif" font-size="10.00">PX4::PX4Util::run_debug</text>
<text text-anchor="middle" x="363" y="-56.5" font-family="Helvetica,sans-Serif" font-size="10.00">_shell</text>
</a>
</g>
</g>
<!-- Node2&#45;&gt;Node3 -->
<g id="edge2" class="edge"><title>Node2&#45;&gt;Node3</title>
<path fill="none" stroke="midnightblue" d="M274.246,-64.5C282.713,-64.5 291.358,-64.5 299.759,-64.5"/>
<polygon fill="midnightblue" stroke="midnightblue" points="274.033,-61.0001 264.033,-64.5 274.033,-68.0001 274.033,-61.0001"/>
</g>
<!-- Node5 -->
<g id="node5" class="node"><title>Node5</title>
<g id="a_node5"><a xlink:href="classPX4_1_1PX4UARTDriver.html#a15f4a4558c5ffa4cc27cd0371470afa4" target="_top" xlink:title="PX4::PX4UARTDriver\l::_timer_tick">
<polygon fill="white" stroke="black" points="306,-0.5 306,-30.5 420,-30.5 420,-0.5 306,-0.5"/>
<text text-anchor="start" x="314" y="-18.5" font-family="Helvetica,sans-Serif" font-size="10.00">PX4::PX4UARTDriver</text>
<text text-anchor="middle" x="363" y="-7.5" font-family="Helvetica,sans-Serif" font-size="10.00">::_timer_tick</text>
</a>
</g>
</g>
<!-- Node4&#45;&gt;Node5 -->
<g id="edge4" class="edge"><title>Node4&#45;&gt;Node5</title>
<path fill="none" stroke="midnightblue" d="M274.045,-15.5C284.605,-15.5 295.446,-15.5 305.75,-15.5"/>
<polygon fill="midnightblue" stroke="midnightblue" points="274.033,-12.0001 264.033,-15.5 274.033,-19.0001 274.033,-12.0001"/>
</g>
<!-- Node6 -->
<g id="node6" class="node"><title>Node6</title>
<g id="a_node6"><a xlink:href="classPX4_1_1PX4UARTDriver.html#af53a7e0042be6c1fee55e45f7e63fe62" target="_top" xlink:title="PX4::PX4UARTDriver\l::set_device_path">
<polygon fill="white" stroke="black" points="462,-0.5 462,-30.5 576,-30.5 576,-0.5 462,-0.5"/>
<text text-anchor="start" x="470" y="-18.5" font-family="Helvetica,sans-Serif" font-size="10.00">PX4::PX4UARTDriver</text>
<text text-anchor="middle" x="519" y="-7.5" font-family="Helvetica,sans-Serif" font-size="10.00">::set_device_path</text>
</a>
</g>
</g>
<!-- Node5&#45;&gt;Node6 -->
<g id="edge5" class="edge"><title>Node5&#45;&gt;Node6</title>
<path fill="none" stroke="midnightblue" d="M430.045,-15.5C440.605,-15.5 451.446,-15.5 461.75,-15.5"/>
<polygon fill="midnightblue" stroke="midnightblue" points="430.033,-12.0001 420.033,-15.5 430.033,-19.0001 430.033,-12.0001"/>
</g>
<!-- Node7 -->
<g id="node7" class="node"><title>Node7</title>
<g id="a_node7"><a xlink:href="classHAL__PX4.html#aa6fa9699a474be4e451d7135bf407259" target="_top" xlink:title="HAL_PX4::run">
<polygon fill="white" stroke="black" points="612,-6 612,-25 692,-25 692,-6 612,-6"/>
<text text-anchor="middle" x="652" y="-13" font-family="Helvetica,sans-Serif" font-size="10.00">HAL_PX4::run</text>
</a>
</g>
</g>
<!-- Node6&#45;&gt;Node7 -->
<g id="edge6" class="edge"><title>Node6&#45;&gt;Node7</title>
<path fill="none" stroke="midnightblue" d="M586.442,-15.5C595.09,-15.5 603.717,-15.5 611.718,-15.5"/>
<polygon fill="midnightblue" stroke="midnightblue" points="586.316,-12.0001 576.316,-15.5 586.316,-19.0001 586.316,-12.0001"/>
</g>
</g>
</svg>
