<?xml version="1.0" encoding="UTF-8" standalone="no"?>
<!DOCTYPE svg PUBLIC "-//W3C//DTD SVG 1.1//EN"
 "http://www.w3.org/Graphics/SVG/1.1/DTD/svg11.dtd">
<!-- Generated by graphviz version 2.38.0 (20140413.2041)
 -->
<!-- Title: Linux::RCOutput_AioPRU::init Pages: 1 -->
<svg width="766pt" height="274pt"
 viewBox="0.00 0.00 766.00 274.00" xmlns="http://www.w3.org/2000/svg" xmlns:xlink="http://www.w3.org/1999/xlink">
<g id="graph0" class="graph" transform="scale(1 1) rotate(0) translate(4 270)">
<title>Linux::RCOutput_AioPRU::init</title>
<polygon fill="white" stroke="none" points="-4,4 -4,-270 762,-270 762,4 -4,4"/>
<!-- Node1 -->
<g id="node1" class="node"><title>Node1</title>
<polygon fill="#bfbfbf" stroke="black" points="0,-76.5 0,-106.5 131,-106.5 131,-76.5 0,-76.5"/>
<text text-anchor="start" x="8" y="-94.5" font-family="Helvetica,sans-Serif" font-size="10.00">Linux::RCOutput_AioPRU</text>
<text text-anchor="middle" x="65.5" y="-83.5" font-family="Helvetica,sans-Serif" font-size="10.00">::init</text>
</g>
<!-- Node2 -->
<g id="node2" class="node"><title>Node2</title>
<g id="a_node2"><a xlink:href="RCOutput__AioPRU_8cpp.html#ae38f8ce16efbab679639a983f769906a" target="_top" xlink:title="catch_sigbus">
<polygon fill="white" stroke="black" points="195.5,-104 195.5,-123 269.5,-123 269.5,-104 195.5,-104"/>
<text text-anchor="middle" x="232.5" y="-111" font-family="Helvetica,sans-Serif" font-size="10.00">catch_sigbus</text>
</a>
</g>
</g>
<!-- Node1&#45;&gt;Node2 -->
<g id="edge1" class="edge"><title>Node1&#45;&gt;Node2</title>
<path fill="none" stroke="midnightblue" d="M131.239,-100.132C149.332,-102.544 168.623,-105.116 185.4,-107.353"/>
<polygon fill="midnightblue" stroke="midnightblue" points="185.114,-110.846 195.489,-108.699 186.039,-103.908 185.114,-110.846"/>
</g>
<!-- Node12 -->
<g id="node12" class="node"><title>Node12</title>
<g id="a_node12"><a xlink:href="classLinux_1_1RCOutput__AioPRU.html#afde9e2d67eb0bca1da5b2ca8132e2c81" target="_top" xlink:title="Linux::RCOutput_AioPRU\l::set_freq">
<polygon fill="white" stroke="black" points="167,-54.5 167,-84.5 298,-84.5 298,-54.5 167,-54.5"/>
<text text-anchor="start" x="175" y="-72.5" font-family="Helvetica,sans-Serif" font-size="10.00">Linux::RCOutput_AioPRU</text>
<text text-anchor="middle" x="232.5" y="-61.5" font-family="Helvetica,sans-Serif" font-size="10.00">::set_freq</text>
</a>
</g>
</g>
<!-- Node1&#45;&gt;Node12 -->
<g id="edge11" class="edge"><title>Node1&#45;&gt;Node12</title>
<path fill="none" stroke="midnightblue" d="M131.239,-82.8682C139.675,-81.7434 148.371,-80.5839 156.951,-79.4399"/>
<polygon fill="midnightblue" stroke="midnightblue" points="157.498,-82.898 166.948,-78.1069 156.573,-75.9594 157.498,-82.898"/>
</g>
<!-- Node3 -->
<g id="node3" class="node"><title>Node3</title>
<g id="a_node3"><a xlink:href="namespaceAP__HAL.html#a71832f03d849a0c088f04fc98d3c8143" target="_top" xlink:title="AP_HAL::panic">
<polygon fill="white" stroke="black" points="334,-104 334,-123 418,-123 418,-104 334,-104"/>
<text text-anchor="middle" x="376" y="-111" font-family="Helvetica,sans-Serif" font-size="10.00">AP_HAL::panic</text>
</a>
</g>
</g>
<!-- Node2&#45;&gt;Node3 -->
<g id="edge2" class="edge"><title>Node2&#45;&gt;Node3</title>
<path fill="none" stroke="midnightblue" d="M269.573,-113.5C286.077,-113.5 305.925,-113.5 323.928,-113.5"/>
<polygon fill="midnightblue" stroke="midnightblue" points="323.989,-117 333.989,-113.5 323.989,-110 323.989,-117"/>
</g>
<!-- Node4 -->
<g id="node4" class="node"><title>Node4</title>
<g id="a_node4"><a xlink:href="classAP__HAL_1_1RCInput.html#a2bea13d38f2b9ae8bf5193a3a69f0a31" target="_top" xlink:title="AP_HAL::RCInput::teardown">
<polygon fill="white" stroke="black" points="454,-126 454,-145 597,-145 597,-126 454,-126"/>
<text text-anchor="middle" x="525.5" y="-133" font-family="Helvetica,sans-Serif" font-size="10.00">AP_HAL::RCInput::teardown</text>
</a>
</g>
</g>
<!-- Node3&#45;&gt;Node4 -->
<g id="edge3" class="edge"><title>Node3&#45;&gt;Node4</title>
<path fill="none" stroke="midnightblue" d="M418.087,-119.628C428.203,-121.137 439.346,-122.799 450.497,-124.462"/>
<polygon fill="midnightblue" stroke="midnightblue" points="450.304,-127.972 460.711,-125.986 451.337,-121.049 450.304,-127.972"/>
</g>
<!-- Node11 -->
<g id="node11" class="node"><title>Node11</title>
<g id="a_node11"><a xlink:href="classAP__HAL_1_1Scheduler.html#a78c4f1b1f192ac1c99544b6cc8f099b0" target="_top" xlink:title="AP_HAL::Scheduler::\ldelay_microseconds">
<polygon fill="white" stroke="black" points="470.5,-76.5 470.5,-106.5 580.5,-106.5 580.5,-76.5 470.5,-76.5"/>
<text text-anchor="start" x="478.5" y="-94.5" font-family="Helvetica,sans-Serif" font-size="10.00">AP_HAL::Scheduler::</text>
<text text-anchor="middle" x="525.5" y="-83.5" font-family="Helvetica,sans-Serif" font-size="10.00">delay_microseconds</text>
</a>
</g>
</g>
<!-- Node3&#45;&gt;Node11 -->
<g id="edge10" class="edge"><title>Node3&#45;&gt;Node11</title>
<path fill="none" stroke="midnightblue" d="M418.087,-107.372C431.12,-105.428 445.858,-103.23 460.121,-101.102"/>
<polygon fill="midnightblue" stroke="midnightblue" points="461.017,-104.507 470.391,-99.5705 459.984,-97.5841 461.017,-104.507"/>
</g>
<!-- Node5 -->
<g id="node5" class="node"><title>Node5</title>
<g id="a_node5"><a xlink:href="classAP__HAL_1_1RCInput.html#aee1fade33080edef83dd7db0fad0f7da" target="_top" xlink:title="AP_HAL::RCInput::new\l_input">
<polygon fill="white" stroke="black" points="634.5,-235.5 634.5,-265.5 756.5,-265.5 756.5,-235.5 634.5,-235.5"/>
<text text-anchor="start" x="642.5" y="-253.5" font-family="Helvetica,sans-Serif" font-size="10.00">AP_HAL::RCInput::new</text>
<text text-anchor="middle" x="695.5" y="-242.5" font-family="Helvetica,sans-Serif" font-size="10.00">_input</text>
</a>
</g>
</g>
<!-- Node4&#45;&gt;Node5 -->
<g id="edge4" class="edge"><title>Node4&#45;&gt;Node5</title>
<path fill="none" stroke="midnightblue" d="M535.629,-145.221C553.064,-163.317 592.94,-202.51 633,-226.5 635.667,-228.097 638.46,-229.625 641.321,-231.081"/>
<polygon fill="midnightblue" stroke="midnightblue" points="640.087,-234.37 650.624,-235.481 643.08,-228.042 640.087,-234.37"/>
</g>
<!-- Node6 -->
<g id="node6" class="node"><title>Node6</title>
<g id="a_node6"><a xlink:href="classAP__HAL_1_1RCInput.html#ae55f959c6115c1f41783af3a2b6c4fcd" target="_top" xlink:title="AP_HAL::RCInput::num\l_channels">
<polygon fill="white" stroke="black" points="634.5,-186.5 634.5,-216.5 756.5,-216.5 756.5,-186.5 634.5,-186.5"/>
<text text-anchor="start" x="642.5" y="-204.5" font-family="Helvetica,sans-Serif" font-size="10.00">AP_HAL::RCInput::num</text>
<text text-anchor="middle" x="695.5" y="-193.5" font-family="Helvetica,sans-Serif" font-size="10.00">_channels</text>
</a>
</g>
</g>
<!-- Node4&#45;&gt;Node6 -->
<g id="edge5" class="edge"><title>Node4&#45;&gt;Node6</title>
<path fill="none" stroke="midnightblue" d="M550.929,-145.097C575.918,-154.914 615.399,-170.425 646.64,-182.698"/>
<polygon fill="midnightblue" stroke="midnightblue" points="645.458,-185.994 656.045,-186.393 648.018,-179.479 645.458,-185.994"/>
</g>
<!-- Node7 -->
<g id="node7" class="node"><title>Node7</title>
<g id="a_node7"><a xlink:href="classAP__HAL_1_1RCInput.html#a078fd7e6d2e6a899009ec674a8e03498" target="_top" xlink:title="AP_HAL::RCInput::read">
<polygon fill="white" stroke="black" points="634.5,-148 634.5,-167 756.5,-167 756.5,-148 634.5,-148"/>
<text text-anchor="middle" x="695.5" y="-155" font-family="Helvetica,sans-Serif" font-size="10.00">AP_HAL::RCInput::read</text>
</a>
</g>
</g>
<!-- Node4&#45;&gt;Node7 -->
<g id="edge6" class="edge"><title>Node4&#45;&gt;Node7</title>
<path fill="none" stroke="midnightblue" d="M597.26,-144.766C606.251,-145.944 615.45,-147.148 624.431,-148.324"/>
<polygon fill="midnightblue" stroke="midnightblue" points="624.084,-151.809 634.454,-149.637 624.993,-144.868 624.084,-151.809"/>
</g>
<!-- Node8 -->
<g id="node8" class="node"><title>Node8</title>
<g id="a_node8"><a xlink:href="classAP__HAL_1_1RCInput.html#a0989c5ca271631fe655c047d4a022a3d" target="_top" xlink:title="AP_HAL::RCInput::set\l_overrides">
<polygon fill="white" stroke="black" points="637,-98.5 637,-128.5 754,-128.5 754,-98.5 637,-98.5"/>
<text text-anchor="start" x="645" y="-116.5" font-family="Helvetica,sans-Serif" font-size="10.00">AP_HAL::RCInput::set</text>
<text text-anchor="middle" x="695.5" y="-105.5" font-family="Helvetica,sans-Serif" font-size="10.00">_overrides</text>
</a>
</g>
</g>
<!-- Node4&#45;&gt;Node8 -->
<g id="edge7" class="edge"><title>Node4&#45;&gt;Node8</title>
<path fill="none" stroke="midnightblue" d="M597.26,-126.234C607.044,-124.953 617.073,-123.639 626.799,-122.366"/>
<polygon fill="midnightblue" stroke="midnightblue" points="627.342,-125.825 636.802,-121.056 626.433,-118.884 627.342,-125.825"/>
</g>
<!-- Node9 -->
<g id="node9" class="node"><title>Node9</title>
<g id="a_node9"><a xlink:href="classAP__HAL_1_1RCInput.html#abfd037ca0989a0422a60f418d34eb7d5" target="_top" xlink:title="AP_HAL::RCInput::set\l_override">
<polygon fill="white" stroke="black" points="637,-49.5 637,-79.5 754,-79.5 754,-49.5 637,-49.5"/>
<text text-anchor="start" x="645" y="-67.5" font-family="Helvetica,sans-Serif" font-size="10.00">AP_HAL::RCInput::set</text>
<text text-anchor="middle" x="695.5" y="-56.5" font-family="Helvetica,sans-Serif" font-size="10.00">_override</text>
</a>
</g>
</g>
<!-- Node4&#45;&gt;Node9 -->
<g id="edge8" class="edge"><title>Node4&#45;&gt;Node9</title>
<path fill="none" stroke="midnightblue" d="M572.183,-125.918C580.644,-123.386 589.251,-120.276 597,-116.5 614.979,-107.74 615.592,-99.3472 633,-89.5 636.456,-87.5449 640.096,-85.6632 643.808,-83.8706"/>
<polygon fill="midnightblue" stroke="midnightblue" points="645.482,-86.9532 653.117,-79.6071 642.568,-80.5889 645.482,-86.9532"/>
</g>
<!-- Node10 -->
<g id="node10" class="node"><title>Node10</title>
<g id="a_node10"><a xlink:href="classAP__HAL_1_1RCInput.html#ab3671bbe43fdb97c53071d7832ac256e" target="_top" xlink:title="AP_HAL::RCInput::clear\l_overrides">
<polygon fill="white" stroke="black" points="633,-0.5 633,-30.5 758,-30.5 758,-0.5 633,-0.5"/>
<text text-anchor="start" x="641" y="-18.5" font-family="Helvetica,sans-Serif" font-size="10.00">AP_HAL::RCInput::clear</text>
<text text-anchor="middle" x="695.5" y="-7.5" font-family="Helvetica,sans-Serif" font-size="10.00">_overrides</text>
</a>
</g>
</g>
<!-- Node4&#45;&gt;Node10 -->
<g id="edge9" class="edge"><title>Node4&#45;&gt;Node10</title>
<path fill="none" stroke="midnightblue" d="M581.245,-125.978C586.933,-123.506 592.33,-120.4 597,-116.5 625.686,-92.5412 605.838,-66.1746 633,-40.5 634.633,-38.9561 636.375,-37.5024 638.198,-36.134"/>
<polygon fill="midnightblue" stroke="midnightblue" points="640.148,-39.0411 646.638,-30.6665 636.342,-33.1661 640.148,-39.0411"/>
</g>
</g>
</svg>
