<?xml version="1.0" encoding="UTF-8" standalone="no"?>
<!DOCTYPE svg PUBLIC "-//W3C//DTD SVG 1.1//EN"
 "http://www.w3.org/Graphics/SVG/1.1/DTD/svg11.dtd">
<!-- Generated by graphviz version 2.38.0 (20140413.2041)
 -->
<!-- Title: AuxiliaryBus::_instantiate_slave Pages: 1 -->
<svg width="437pt" height="50pt"
 viewBox="0.00 0.00 437.00 50.00" xmlns="http://www.w3.org/2000/svg" xmlns:xlink="http://www.w3.org/1999/xlink">
<g id="graph0" class="graph" transform="scale(1 1) rotate(0) translate(4 46)">
<title>AuxiliaryBus::_instantiate_slave</title>
<polygon fill="white" stroke="none" points="-4,4 -4,-46 433,-46 433,4 -4,4"/>
<!-- Node1 -->
<g id="node1" class="node"><title>Node1</title>
<polygon fill="#bfbfbf" stroke="black" points="0,-6 0,-36 128,-36 128,-6 0,-6"/>
<text text-anchor="start" x="8" y="-24" font-family="Helvetica,sans-Serif" font-size="10.00">AuxiliaryBus::_instantiate</text>
<text text-anchor="middle" x="64" y="-13" font-family="Helvetica,sans-Serif" font-size="10.00">_slave</text>
</g>
<!-- Node2 -->
<g id="node2" class="node"><title>Node2</title>
<g id="a_node2"><a xlink:href="classAuxiliaryBus.html#ad29c7f5c2163db6c9f484bff45af9fac" target="_top" xlink:title="AuxiliaryBus::request\l_next_slave">
<polygon fill="white" stroke="black" points="164,-6 164,-36 274,-36 274,-6 164,-6"/>
<text text-anchor="start" x="172" y="-24" font-family="Helvetica,sans-Serif" font-size="10.00">AuxiliaryBus::request</text>
<text text-anchor="middle" x="219" y="-13" font-family="Helvetica,sans-Serif" font-size="10.00">_next_slave</text>
</a>
</g>
</g>
<!-- Node1&#45;&gt;Node2 -->
<g id="edge1" class="edge"><title>Node1&#45;&gt;Node2</title>
<path fill="none" stroke="midnightblue" d="M138.194,-21C146.825,-21 155.513,-21 163.816,-21"/>
<polygon fill="midnightblue" stroke="midnightblue" points="138.114,-17.5001 128.114,-21 138.114,-24.5001 138.114,-17.5001"/>
</g>
<!-- Node3 -->
<g id="node3" class="node"><title>Node3</title>
<g id="a_node3"><a xlink:href="classAP__AK8963__BusDriver__Auxiliary.html#ae2a9c85ebb96b5f2a230918d7bb1e494" target="_top" xlink:title="AP_AK8963_BusDriver\l_Auxiliary::AP_AK8963\l_BusDriver_Auxiliary">
<polygon fill="white" stroke="black" points="310,-0.5 310,-41.5 429,-41.5 429,-0.5 310,-0.5"/>
<text text-anchor="start" x="318" y="-29.5" font-family="Helvetica,sans-Serif" font-size="10.00">AP_AK8963_BusDriver</text>
<text text-anchor="start" x="318" y="-18.5" font-family="Helvetica,sans-Serif" font-size="10.00">_Auxiliary::AP_AK8963</text>
<text text-anchor="middle" x="369.5" y="-7.5" font-family="Helvetica,sans-Serif" font-size="10.00">_BusDriver_Auxiliary</text>
</a>
</g>
</g>
<!-- Node2&#45;&gt;Node3 -->
<g id="edge2" class="edge"><title>Node2&#45;&gt;Node3</title>
<path fill="none" stroke="midnightblue" d="M284.041,-21C292.665,-21 301.477,-21 309.998,-21"/>
<polygon fill="midnightblue" stroke="midnightblue" points="284.032,-17.5001 274.032,-21 284.032,-24.5001 284.032,-17.5001"/>
</g>
</g>
</svg>
