<?xml version="1.0" encoding="UTF-8" standalone="no"?>
<!DOCTYPE svg PUBLIC "-//W3C//DTD SVG 1.1//EN"
 "http://www.w3.org/Graphics/SVG/1.1/DTD/svg11.dtd">
<!-- Generated by graphviz version 2.38.0 (20140413.2041)
 -->
<!-- Title: VRBRAIN::VRBRAINUtil::run_debug_shell Pages: 1 -->
<!--zoomable 180 -->
<svg id="main" version="1.1" xmlns="http://www.w3.org/2000/svg" xmlns:xlink="http://www.w3.org/1999/xlink" xml:space="preserve" onload="init(evt)">
<style type="text/css"><![CDATA[
.edge:hover path { stroke: red; }
.edge:hover polygon { stroke: red; fill: red; }
]]></style>
<script type="text/javascript"><![CDATA[
var edges = document.getElementsByTagName('g');
if (edges && edges.length) {
  for (var i=0;i<edges.length;i++) {
    if (edges[i].id.substr(0,4)=='edge') {
      edges[i].setAttribute('class','edge');
    }
  }
}
]]></script>
        <defs>
                <circle id="rim" cx="0" cy="0" r="7"/>
                <circle id="rim2" cx="0" cy="0" r="3.5"/>
                <g id="zoomPlus">
                        <use xlink:href="#rim" fill="#404040">
                                <set attributeName="fill" to="#808080" begin="zoomplus.mouseover" end="zoomplus.mouseout"/>
                        </use>
                        <path d="M-4,0h8M0,-4v8" fill="none" stroke="white" stroke-width="1.5" pointer-events="none"/>
                </g>
                <g id="zoomMin">
                        <use xlink:href="#rim" fill="#404040">
                                <set attributeName="fill" to="#808080" begin="zoomminus.mouseover" end="zoomminus.mouseout"/>
                        </use>
                        <path d="M-4,0h8" fill="none" stroke="white" stroke-width="1.5" pointer-events="none"/>
                </g>
                <g id="dirArrow">
                        <path fill="none" stroke="white" stroke-width="1.5" d="M0,-3.0v7 M-2.5,-0.5L0,-3.0L2.5,-0.5"/>
                </g>
               <g id="resetDef">
                       <use xlink:href="#rim2" fill="#404040">
                               <set attributeName="fill" to="#808080" begin="reset.mouseover" end="reset.mouseout"/>
                       </use>
               </g>
        </defs>

<script type="text/javascript">
var viewWidth = 793;
var viewHeight = 180;
var sectionId = 'dynsection-3';
</script>
<script xlink:href="svgpan.js"/>
<svg id="graph" class="graph">
<g id="viewport">
<title>VRBRAIN::VRBRAINUtil::run_debug_shell</title>
<polygon fill="white" stroke="none" points="-4,4 -4,-176 789,-176 789,4 -4,4"/>
<!-- Node1 -->
<g id="node1" class="node"><title>Node1</title>
<polygon fill="#bfbfbf" stroke="black" points="0,-95 0,-125 129,-125 129,-95 0,-95"/>
<text text-anchor="start" x="8" y="-113" font-family="Helvetica,sans-Serif" font-size="10.00">VRBRAIN::VRBRAINUtil</text>
<text text-anchor="middle" x="64.5" y="-102" font-family="Helvetica,sans-Serif" font-size="10.00">::run_debug_shell</text>
</g>
<!-- Node2 -->
<g id="node2" class="node"><title>Node2</title>
<g id="a_node2"><a xlink:href="classVRBRAIN_1_1VRBRAINUARTDriver.html#a04fbd9e03b1de3c675151da28c74a1bb" target="_top" xlink:title="VRBRAIN::VRBRAINUARTDriver\l::_get_fd">
<polygon fill="white" stroke="black" points="165,-120 165,-150 333,-150 333,-120 165,-120"/>
<text text-anchor="start" x="173" y="-138" font-family="Helvetica,sans-Serif" font-size="10.00">VRBRAIN::VRBRAINUARTDriver</text>
<text text-anchor="middle" x="249" y="-127" font-family="Helvetica,sans-Serif" font-size="10.00">::_get_fd</text>
</a>
</g>
</g>
<!-- Node1&#45;&gt;Node2 -->
<g id="edge1" class="edge"><title>Node1&#45;&gt;Node2</title>
<path fill="none" stroke="midnightblue" d="M129.073,-118.709C137.354,-119.843 145.971,-121.023 154.614,-122.207"/>
<polygon fill="midnightblue" stroke="midnightblue" points="154.37,-125.707 164.753,-123.596 155.32,-118.771 154.37,-125.707"/>
</g>
<!-- Node4 -->
<g id="node4" class="node"><title>Node4</title>
<g id="a_node4"><a xlink:href="classAP__HAL_1_1UARTDriver.html#a6ceedc792594e59fc7d80b39a435f027" target="_top" xlink:title="AP_HAL::UARTDriver\l::printf">
<polygon fill="white" stroke="black" points="191.5,-71 191.5,-101 306.5,-101 306.5,-71 191.5,-71"/>
<text text-anchor="start" x="199.5" y="-89" font-family="Helvetica,sans-Serif" font-size="10.00">AP_HAL::UARTDriver</text>
<text text-anchor="middle" x="249" y="-78" font-family="Helvetica,sans-Serif" font-size="10.00">::printf</text>
</a>
</g>
</g>
<!-- Node1&#45;&gt;Node4 -->
<g id="edge3" class="edge"><title>Node1&#45;&gt;Node4</title>
<path fill="none" stroke="midnightblue" d="M129.073,-101.64C145.856,-99.4327 164.017,-97.0443 180.976,-94.8141"/>
<polygon fill="midnightblue" stroke="midnightblue" points="181.898,-98.2231 191.356,-93.4491 180.985,-91.2829 181.898,-98.2231"/>
</g>
<!-- Node3 -->
<g id="node3" class="node"><title>Node3</title>
<g id="a_node3"><a xlink:href="classVRBRAIN_1_1VRBRAINUARTDriver.html#ac2d3e54d60efa5307f5f38d3bd4c30d4" target="_top" xlink:title="VRBRAIN::VRBRAINUARTDriver\l::set_flow_control">
<polygon fill="white" stroke="black" points="369,-120 369,-150 537,-150 537,-120 369,-120"/>
<text text-anchor="start" x="377" y="-138" font-family="Helvetica,sans-Serif" font-size="10.00">VRBRAIN::VRBRAINUARTDriver</text>
<text text-anchor="middle" x="453" y="-127" font-family="Helvetica,sans-Serif" font-size="10.00">::set_flow_control</text>
</a>
</g>
</g>
<!-- Node2&#45;&gt;Node3 -->
<g id="edge2" class="edge"><title>Node2&#45;&gt;Node3</title>
<path fill="none" stroke="midnightblue" d="M333.036,-135C341.561,-135 350.262,-135 358.887,-135"/>
<polygon fill="midnightblue" stroke="midnightblue" points="358.96,-138.5 368.96,-135 358.96,-131.5 358.96,-138.5"/>
</g>
<!-- Node5 -->
<g id="node5" class="node"><title>Node5</title>
<g id="a_node5"><a xlink:href="classAP__HAL_1_1UARTDriver.html#aa8abfb6d6641299472c29ac1edde559f" target="_top" xlink:title="AP_HAL::UARTDriver\l::vprintf">
<polygon fill="white" stroke="black" points="395.5,-71 395.5,-101 510.5,-101 510.5,-71 395.5,-71"/>
<text text-anchor="start" x="403.5" y="-89" font-family="Helvetica,sans-Serif" font-size="10.00">AP_HAL::UARTDriver</text>
<text text-anchor="middle" x="453" y="-78" font-family="Helvetica,sans-Serif" font-size="10.00">::vprintf</text>
</a>
</g>
</g>
<!-- Node4&#45;&gt;Node5 -->
<g id="edge4" class="edge"><title>Node4&#45;&gt;Node5</title>
<path fill="none" stroke="midnightblue" d="M306.537,-86C330.952,-86 359.697,-86 385.159,-86"/>
<polygon fill="midnightblue" stroke="midnightblue" points="385.477,-89.5001 395.477,-86 385.477,-82.5001 385.477,-89.5001"/>
</g>
<!-- Node6 -->
<g id="node6" class="node"><title>Node6</title>
<g id="a_node6"><a xlink:href="print__vprintf_8cpp.html#a1534eaeab54696df96975b56d9f49212" target="_top" xlink:title="print_vprintf">
<polygon fill="white" stroke="black" points="573,-76.5 573,-95.5 641,-95.5 641,-76.5 573,-76.5"/>
<text text-anchor="middle" x="607" y="-83.5" font-family="Helvetica,sans-Serif" font-size="10.00">print_vprintf</text>
</a>
</g>
</g>
<!-- Node5&#45;&gt;Node6 -->
<g id="edge5" class="edge"><title>Node5&#45;&gt;Node6</title>
<path fill="none" stroke="midnightblue" d="M510.599,-86C527.77,-86 546.358,-86 562.525,-86"/>
<polygon fill="midnightblue" stroke="midnightblue" points="562.76,-89.5001 572.76,-86 562.76,-82.5001 562.76,-89.5001"/>
</g>
<!-- Node7 -->
<g id="node7" class="node"><title>Node7</title>
<g id="a_node7"><a xlink:href="classAP__HAL_1_1Print.html#acc65391952a43334f8f5c9bef341f501" target="_top" xlink:title="AP_HAL::Print::write">
<polygon fill="white" stroke="black" points="677,-152.5 677,-171.5 785,-171.5 785,-152.5 677,-152.5"/>
<text text-anchor="middle" x="731" y="-159.5" font-family="Helvetica,sans-Serif" font-size="10.00">AP_HAL::Print::write</text>
</a>
</g>
</g>
<!-- Node6&#45;&gt;Node7 -->
<g id="edge6" class="edge"><title>Node6&#45;&gt;Node7</title>
<path fill="none" stroke="midnightblue" d="M617.47,-95.6825C630.07,-108.102 653.502,-129.629 677,-143 680.632,-145.067 684.529,-146.973 688.501,-148.715"/>
<polygon fill="midnightblue" stroke="midnightblue" points="687.233,-151.977 697.816,-152.479 689.856,-145.487 687.233,-151.977"/>
</g>
<!-- Node8 -->
<g id="node8" class="node"><title>Node8</title>
<g id="a_node8"><a xlink:href="ftoa__engine_8cpp.html#a1c28234da8f20b43c85890d4bb452947" target="_top" xlink:title="ftoa_engine">
<polygon fill="white" stroke="black" points="697.5,-114.5 697.5,-133.5 764.5,-133.5 764.5,-114.5 697.5,-114.5"/>
<text text-anchor="middle" x="731" y="-121.5" font-family="Helvetica,sans-Serif" font-size="10.00">ftoa_engine</text>
</a>
</g>
</g>
<!-- Node6&#45;&gt;Node8 -->
<g id="edge7" class="edge"><title>Node6&#45;&gt;Node8</title>
<path fill="none" stroke="midnightblue" d="M638.786,-95.589C654.101,-100.359 672.817,-106.189 689.3,-111.323"/>
<polygon fill="midnightblue" stroke="midnightblue" points="688.636,-114.782 699.224,-114.414 690.717,-108.099 688.636,-114.782"/>
</g>
<!-- Node9 -->
<g id="node9" class="node"><title>Node9</title>
<g id="a_node9"><a xlink:href="replace_8cpp.html#a880bcc7b85a09e6254691bebd5344b51" target="_top" xlink:title="strnlen">
<polygon fill="white" stroke="black" points="708,-76.5 708,-95.5 754,-95.5 754,-76.5 708,-76.5"/>
<text text-anchor="middle" x="731" y="-83.5" font-family="Helvetica,sans-Serif" font-size="10.00">strnlen</text>
</a>
</g>
</g>
<!-- Node6&#45;&gt;Node9 -->
<g id="edge8" class="edge"><title>Node6&#45;&gt;Node9</title>
<path fill="none" stroke="midnightblue" d="M641.015,-86C658.547,-86 680.016,-86 697.474,-86"/>
<polygon fill="midnightblue" stroke="midnightblue" points="697.754,-89.5001 707.754,-86 697.754,-82.5001 697.754,-89.5001"/>
</g>
<!-- Node10 -->
<g id="node10" class="node"><title>Node10</title>
<g id="a_node10"><a xlink:href="utoa__invert_8cpp.html#a34926f552460b47c414ec4d83b32815c" target="_top" xlink:title="ulltoa_invert">
<polygon fill="white" stroke="black" points="696.5,-38.5 696.5,-57.5 765.5,-57.5 765.5,-38.5 696.5,-38.5"/>
<text text-anchor="middle" x="731" y="-45.5" font-family="Helvetica,sans-Serif" font-size="10.00">ulltoa_invert</text>
</a>
</g>
</g>
<!-- Node6&#45;&gt;Node10 -->
<g id="edge9" class="edge"><title>Node6&#45;&gt;Node10</title>
<path fill="none" stroke="midnightblue" d="M638.786,-76.411C654.101,-71.6406 672.817,-65.8112 689.3,-60.6771"/>
<polygon fill="midnightblue" stroke="midnightblue" points="690.717,-63.9015 699.224,-57.5859 688.636,-57.2182 690.717,-63.9015"/>
</g>
<!-- Node11 -->
<g id="node11" class="node"><title>Node11</title>
<g id="a_node11"><a xlink:href="utoa__invert_8cpp.html#a5d99bba8e697c1e11da489d88fca8559" target="_top" xlink:title="ultoa_invert">
<polygon fill="white" stroke="black" points="697.5,-0.5 697.5,-19.5 764.5,-19.5 764.5,-0.5 697.5,-0.5"/>
<text text-anchor="middle" x="731" y="-7.5" font-family="Helvetica,sans-Serif" font-size="10.00">ultoa_invert</text>
</a>
</g>
</g>
<!-- Node6&#45;&gt;Node11 -->
<g id="edge10" class="edge"><title>Node6&#45;&gt;Node11</title>
<path fill="none" stroke="midnightblue" d="M617.47,-76.3175C630.07,-63.8984 653.502,-42.371 677,-29 680.632,-26.9334 684.529,-25.0271 688.501,-23.2853"/>
<polygon fill="midnightblue" stroke="midnightblue" points="689.856,-26.5129 697.816,-19.5214 687.233,-20.0226 689.856,-26.5129"/>
</g>
</g>
</svg>
        <g id="navigator" transform="translate(0 0)" fill="#404254">
                <rect fill="#f2f5e9" fill-opacity="0.5" stroke="#606060" stroke-width=".5" x="0" y="0" width="60" height="60"/>
                <use id="zoomplus" xlink:href="#zoomPlus" x="17" y="9" onmousedown="handleZoom(evt,'in')"/>
                <use id="zoomminus" xlink:href="#zoomMin" x="42" y="9" onmousedown="handleZoom(evt,'out')"/>
                <use id="reset" xlink:href="#resetDef" x="30" y="36" onmousedown="handleReset()"/>
                <g id="arrowUp" xlink:href="#dirArrow" transform="translate(30 24)" onmousedown="handlePan(0,-1)">
                  <use xlink:href="#rim" fill="#404040">
                        <set attributeName="fill" to="#808080" begin="arrowUp.mouseover" end="arrowUp.mouseout"/>
                  </use>
                  <path fill="none" stroke="white" stroke-width="1.5" d="M0,-3.0v7 M-2.5,-0.5L0,-3.0L2.5,-0.5"/>
                </g>
                <g id="arrowRight" xlink:href="#dirArrow" transform="rotate(90) translate(36 -43)" onmousedown="handlePan(1,0)">
                  <use xlink:href="#rim" fill="#404040">
                        <set attributeName="fill" to="#808080" begin="arrowRight.mouseover" end="arrowRight.mouseout"/>
                  </use>
                  <path fill="none" stroke="white" stroke-width="1.5" d="M0,-3.0v7 M-2.5,-0.5L0,-3.0L2.5,-0.5"/>
                </g>
                <g id="arrowDown" xlink:href="#dirArrow" transform="rotate(180) translate(-30 -48)" onmousedown="handlePan(0,1)">
                  <use xlink:href="#rim" fill="#404040">
                        <set attributeName="fill" to="#808080" begin="arrowDown.mouseover" end="arrowDown.mouseout"/>
                  </use>
                  <path fill="none" stroke="white" stroke-width="1.5" d="M0,-3.0v7 M-2.5,-0.5L0,-3.0L2.5,-0.5"/>
                </g>
                <g id="arrowLeft" xlink:href="#dirArrow" transform="rotate(270) translate(-36 17)" onmousedown="handlePan(-1,0)">
                  <use xlink:href="#rim" fill="#404040">
                        <set attributeName="fill" to="#808080" begin="arrowLeft.mouseover" end="arrowLeft.mouseout"/>
                  </use>
                  <path fill="none" stroke="white" stroke-width="1.5" d="M0,-3.0v7 M-2.5,-0.5L0,-3.0L2.5,-0.5"/>
                </g>
        </g>
        <svg viewBox="0 0 15 15" width="100%" height="30px" preserveAspectRatio="xMaxYMin meet">
         <g id="arrow_out" transform="scale(0.3 0.3)">
          <a xlink:href="classVRBRAIN_1_1VRBRAINUtil_addd008a84b78f105b085124d1a9ad237_cgraph_org.svg" target="_base">
           <rect id="button" ry="5" rx="5" y="6" x="6" height="38" width="38"
                fill="#f2f5e9" fill-opacity="0.5" stroke="#606060" stroke-width="1.0"/>
           <path id="arrow"
             d="M 11.500037,31.436501 C 11.940474,20.09759 22.043105,11.32322 32.158766,21.979434 L 37.068811,17.246167 C 37.068811,17.246167 37.088388,32 37.088388,32 L 22.160133,31.978069 C 22.160133,31.978069 26.997745,27.140456 26.997745,27.140456 C 18.528582,18.264221 13.291696,25.230495 11.500037,31.436501 z"
             style="fill:#404040;"/>
          </a>
         </g>
        </svg>
</svg>
