<?xml version="1.0" encoding="UTF-8" standalone="no"?>
<!DOCTYPE svg PUBLIC "-//W3C//DTD SVG 1.1//EN"
 "http://www.w3.org/Graphics/SVG/1.1/DTD/svg11.dtd">
<!-- Generated by graphviz version 2.38.0 (20140413.2041)
 -->
<!-- Title: SITL::JSBSim::recv_fdm Pages: 1 -->
<!--zoomable 325 -->
<svg id="main" version="1.1" xmlns="http://www.w3.org/2000/svg" xmlns:xlink="http://www.w3.org/1999/xlink" xml:space="preserve" onload="init(evt)">
<style type="text/css"><![CDATA[
.edge:hover path { stroke: red; }
.edge:hover polygon { stroke: red; fill: red; }
]]></style>
<script type="text/javascript"><![CDATA[
var edges = document.getElementsByTagName('g');
if (edges && edges.length) {
  for (var i=0;i<edges.length;i++) {
    if (edges[i].id.substr(0,4)=='edge') {
      edges[i].setAttribute('class','edge');
    }
  }
}
]]></script>
        <defs>
                <circle id="rim" cx="0" cy="0" r="7"/>
                <circle id="rim2" cx="0" cy="0" r="3.5"/>
                <g id="zoomPlus">
                        <use xlink:href="#rim" fill="#404040">
                                <set attributeName="fill" to="#808080" begin="zoomplus.mouseover" end="zoomplus.mouseout"/>
                        </use>
                        <path d="M-4,0h8M0,-4v8" fill="none" stroke="white" stroke-width="1.5" pointer-events="none"/>
                </g>
                <g id="zoomMin">
                        <use xlink:href="#rim" fill="#404040">
                                <set attributeName="fill" to="#808080" begin="zoomminus.mouseover" end="zoomminus.mouseout"/>
                        </use>
                        <path d="M-4,0h8" fill="none" stroke="white" stroke-width="1.5" pointer-events="none"/>
                </g>
                <g id="dirArrow">
                        <path fill="none" stroke="white" stroke-width="1.5" d="M0,-3.0v7 M-2.5,-0.5L0,-3.0L2.5,-0.5"/>
                </g>
               <g id="resetDef">
                       <use xlink:href="#rim2" fill="#404040">
                               <set attributeName="fill" to="#808080" begin="reset.mouseover" end="reset.mouseout"/>
                       </use>
               </g>
        </defs>

<script type="text/javascript">
var viewWidth = 770;
var viewHeight = 325;
var sectionId = 'dynsection-12';
</script>
<script xlink:href="svgpan.js"/>
<svg id="graph" class="graph">
<g id="viewport">
<title>SITL::JSBSim::recv_fdm</title>
<polygon fill="white" stroke="none" points="-4,4 -4,-320.5 766,-320.5 766,4 -4,4"/>
<!-- Node1 -->
<g id="node1" class="node"><title>Node1</title>
<polygon fill="#bfbfbf" stroke="black" points="0,-154.5 0,-173.5 126,-173.5 126,-154.5 0,-154.5"/>
<text text-anchor="middle" x="63" y="-161.5" font-family="Helvetica,sans-Serif" font-size="10.00">SITL::JSBSim::recv_fdm</text>
</g>
<!-- Node2 -->
<g id="node2" class="node"><title>Node2</title>
<g id="a_node2"><a xlink:href="classSITL_1_1JSBSim.html#a7a215abef77dd3a3d8da5b9364a73e1b" target="_top" xlink:title="SITL::JSBSim::check\l_stdout">
<polygon fill="white" stroke="black" points="179,-264 179,-294 291,-294 291,-264 179,-264"/>
<text text-anchor="start" x="187" y="-282" font-family="Helvetica,sans-Serif" font-size="10.00">SITL::JSBSim::check</text>
<text text-anchor="middle" x="235" y="-271" font-family="Helvetica,sans-Serif" font-size="10.00">_stdout</text>
</a>
</g>
</g>
<!-- Node1&#45;&gt;Node2 -->
<g id="edge1" class="edge"><title>Node1&#45;&gt;Node2</title>
<path fill="none" stroke="midnightblue" d="M71.8805,-173.67C87.3267,-192.032 123.452,-232.151 162,-255 164.834,-256.68 167.8,-258.26 170.848,-259.745"/>
<polygon fill="midnightblue" stroke="midnightblue" points="169.618,-263.029 180.176,-263.914 172.475,-256.638 169.618,-263.029"/>
</g>
<!-- Node3 -->
<g id="node3" class="node"><title>Node3</title>
<g id="a_node3"><a xlink:href="classSITL_1_1JSBSim.html#a63f89f6cd963d65191bc3ef635286dc7" target="_top" xlink:title="SITL::JSBSim::send\l_servos">
<polygon fill="white" stroke="black" points="181.5,-215 181.5,-245 288.5,-245 288.5,-215 181.5,-215"/>
<text text-anchor="start" x="189.5" y="-233" font-family="Helvetica,sans-Serif" font-size="10.00">SITL::JSBSim::send</text>
<text text-anchor="middle" x="235" y="-222" font-family="Helvetica,sans-Serif" font-size="10.00">_servos</text>
</a>
</g>
</g>
<!-- Node1&#45;&gt;Node3 -->
<g id="edge2" class="edge"><title>Node1&#45;&gt;Node3</title>
<path fill="none" stroke="midnightblue" d="M85.6411,-173.509C105.396,-182.08 135.471,-194.856 162,-205 167.759,-207.202 173.806,-209.431 179.847,-211.603"/>
<polygon fill="midnightblue" stroke="midnightblue" points="178.696,-214.909 189.291,-214.959 181.04,-208.313 178.696,-214.909"/>
</g>
<!-- Node12 -->
<g id="node12" class="node"><title>Node12</title>
<g id="a_node12"><a xlink:href="classSITL_1_1FGNetFDM.html#a6676bdd26a6dfd576c0a9543c1e08c5d" target="_top" xlink:title="SITL::FGNetFDM::ByteSwap">
<polygon fill="white" stroke="black" points="162,-176.5 162,-195.5 308,-195.5 308,-176.5 162,-176.5"/>
<text text-anchor="middle" x="235" y="-183.5" font-family="Helvetica,sans-Serif" font-size="10.00">SITL::FGNetFDM::ByteSwap</text>
</a>
</g>
</g>
<!-- Node1&#45;&gt;Node12 -->
<g id="edge12" class="edge"><title>Node1&#45;&gt;Node12</title>
<path fill="none" stroke="midnightblue" d="M126.336,-172.067C134.646,-173.142 143.267,-174.258 151.849,-175.369"/>
<polygon fill="midnightblue" stroke="midnightblue" points="151.519,-178.855 161.885,-176.668 152.417,-171.913 151.519,-178.855"/>
</g>
<!-- Node13 -->
<g id="node13" class="node"><title>Node13</title>
<g id="a_node13"><a xlink:href="classSITL_1_1SITL.html#a03477afd4c3a2eb26d6379c41bffdee9" target="_top" xlink:title="SITL::SITL::convert\l_body_frame">
<polygon fill="white" stroke="black" points="183.5,-127 183.5,-157 286.5,-157 286.5,-127 183.5,-127"/>
<text text-anchor="start" x="191.5" y="-145" font-family="Helvetica,sans-Serif" font-size="10.00">SITL::SITL::convert</text>
<text text-anchor="middle" x="235" y="-134" font-family="Helvetica,sans-Serif" font-size="10.00">_body_frame</text>
</a>
</g>
</g>
<!-- Node1&#45;&gt;Node13 -->
<g id="edge13" class="edge"><title>Node1&#45;&gt;Node13</title>
<path fill="none" stroke="midnightblue" d="M126.336,-155.933C141.581,-153.96 157.875,-151.851 173.054,-149.887"/>
<polygon fill="midnightblue" stroke="midnightblue" points="173.89,-153.308 183.358,-148.554 172.991,-146.366 173.89,-153.308"/>
</g>
<!-- Node14 -->
<g id="node14" class="node"><title>Node14</title>
<g id="a_node14"><a xlink:href="classMatrix3.html#a62587bd216436f09f06b9e1330f84bc0" target="_top" xlink:title="Matrix3::from_euler">
<polygon fill="white" stroke="black" points="348.5,-88.5 348.5,-107.5 449.5,-107.5 449.5,-88.5 348.5,-88.5"/>
<text text-anchor="middle" x="399" y="-95.5" font-family="Helvetica,sans-Serif" font-size="10.00">Matrix3::from_euler</text>
</a>
</g>
</g>
<!-- Node1&#45;&gt;Node14 -->
<g id="edge14" class="edge"><title>Node1&#45;&gt;Node14</title>
<path fill="none" stroke="midnightblue" d="M79.2636,-154.483C97.9771,-143.345 131.031,-125.363 162,-117 220.413,-101.225 289.678,-97.3096 338.003,-96.8306"/>
<polygon fill="midnightblue" stroke="midnightblue" points="338.308,-100.329 348.29,-96.7773 338.272,-93.3292 338.308,-100.329"/>
</g>
<!-- Node15 -->
<g id="node15" class="node"><title>Node15</title>
<g id="a_node15"><a xlink:href="classSITL_1_1Aircraft.html#a6bf8f8d73b3cac2df90a20feff7c33ab" target="_top" xlink:title="SITL::Aircraft::update\l_mag_field_bf">
<polygon fill="white" stroke="black" points="180,-39 180,-69 290,-69 290,-39 180,-39"/>
<text text-anchor="start" x="188" y="-57" font-family="Helvetica,sans-Serif" font-size="10.00">SITL::Aircraft::update</text>
<text text-anchor="middle" x="235" y="-46" font-family="Helvetica,sans-Serif" font-size="10.00">_mag_field_bf</text>
</a>
</g>
</g>
<!-- Node1&#45;&gt;Node15 -->
<g id="edge15" class="edge"><title>Node1&#45;&gt;Node15</title>
<path fill="none" stroke="midnightblue" d="M73.8417,-154.297C90.7159,-138.064 126.767,-105.106 162,-84 168.389,-80.1726 175.357,-76.6051 182.358,-73.3625"/>
<polygon fill="midnightblue" stroke="midnightblue" points="184.15,-76.3969 191.877,-69.1481 181.316,-69.9962 184.15,-76.3969"/>
</g>
<!-- Node4 -->
<g id="node4" class="node"><title>Node4</title>
<g id="a_node4"><a xlink:href="classSITL_1_1Aircraft.html#a057713321d945fa4a97cd30fb684d15a" target="_top" xlink:title="SITL::Aircraft::filtered\l_servo_angle">
<polygon fill="white" stroke="black" points="344,-286 344,-316 454,-316 454,-286 344,-286"/>
<text text-anchor="start" x="352" y="-304" font-family="Helvetica,sans-Serif" font-size="10.00">SITL::Aircraft::filtered</text>
<text text-anchor="middle" x="399" y="-293" font-family="Helvetica,sans-Serif" font-size="10.00">_servo_angle</text>
</a>
</g>
</g>
<!-- Node3&#45;&gt;Node4 -->
<g id="edge3" class="edge"><title>Node3&#45;&gt;Node4</title>
<path fill="none" stroke="midnightblue" d="M284.213,-245.131C292.275,-248.117 300.463,-251.439 308,-255 324.954,-263.01 327.397,-268.285 344,-277 346.907,-278.526 349.931,-280.045 352.997,-281.536"/>
<polygon fill="midnightblue" stroke="midnightblue" points="351.71,-284.799 362.248,-285.9 354.697,-278.468 351.71,-284.799"/>
</g>
<!-- Node8 -->
<g id="node8" class="node"><title>Node8</title>
<g id="a_node8"><a xlink:href="classSITL_1_1Aircraft.html#a1e7462de0ec320a4a7731054d8ea322d" target="_top" xlink:title="SITL::Aircraft::filtered\l_servo_range">
<polygon fill="white" stroke="black" points="344,-237 344,-267 454,-267 454,-237 344,-237"/>
<text text-anchor="start" x="352" y="-255" font-family="Helvetica,sans-Serif" font-size="10.00">SITL::Aircraft::filtered</text>
<text text-anchor="middle" x="399" y="-244" font-family="Helvetica,sans-Serif" font-size="10.00">_servo_range</text>
</a>
</g>
</g>
<!-- Node3&#45;&gt;Node8 -->
<g id="edge7" class="edge"><title>Node3&#45;&gt;Node8</title>
<path fill="none" stroke="midnightblue" d="M288.597,-237.143C302.934,-239.09 318.631,-241.222 333.546,-243.247"/>
<polygon fill="midnightblue" stroke="midnightblue" points="333.341,-246.751 343.721,-244.629 334.283,-239.815 333.341,-246.751"/>
</g>
<!-- Node9 -->
<g id="node9" class="node"><title>Node9</title>
<g id="a_node9"><a xlink:href="replace_8cpp.html#a28a648dd20504ebc0c03623a28d82c93" target="_top" xlink:title="asprintf">
<polygon fill="white" stroke="black" points="374.5,-198.5 374.5,-217.5 423.5,-217.5 423.5,-198.5 374.5,-198.5"/>
<text text-anchor="middle" x="399" y="-205.5" font-family="Helvetica,sans-Serif" font-size="10.00">asprintf</text>
</a>
</g>
</g>
<!-- Node3&#45;&gt;Node9 -->
<g id="edge9" class="edge"><title>Node3&#45;&gt;Node9</title>
<path fill="none" stroke="midnightblue" d="M288.597,-222.857C313.368,-219.493 342.198,-215.578 364.042,-212.612"/>
<polygon fill="midnightblue" stroke="midnightblue" points="364.718,-216.052 374.156,-211.238 363.776,-209.116 364.718,-216.052"/>
</g>
<!-- Node11 -->
<g id="node11" class="node"><title>Node11</title>
<g id="a_node11"><a xlink:href="AP__Math_8h.html#a75b14352ec1c95a8276af9a0813cfdc3" target="_top" xlink:title="radians">
<polygon fill="white" stroke="black" points="375,-160.5 375,-179.5 423,-179.5 423,-160.5 375,-160.5"/>
<text text-anchor="middle" x="399" y="-167.5" font-family="Helvetica,sans-Serif" font-size="10.00">radians</text>
</a>
</g>
</g>
<!-- Node3&#45;&gt;Node11 -->
<g id="edge11" class="edge"><title>Node3&#45;&gt;Node11</title>
<path fill="none" stroke="midnightblue" d="M281.151,-214.975C290.099,-211.814 299.385,-208.403 308,-205 324.285,-198.567 327.729,-195.466 344,-189 350.764,-186.312 358.077,-183.607 365.072,-181.115"/>
<polygon fill="midnightblue" stroke="midnightblue" points="366.709,-184.25 374.991,-177.642 364.396,-177.643 366.709,-184.25"/>
</g>
<!-- Node5 -->
<g id="node5" class="node"><title>Node5</title>
<g id="a_node5"><a xlink:href="classSITL_1_1Aircraft.html#a6e437d1e0d08e28422a0ce365d3fdc8e" target="_top" xlink:title="SITL::Aircraft::filtered_idx">
<polygon fill="white" stroke="black" points="490,-266.5 490,-285.5 618,-285.5 618,-266.5 490,-266.5"/>
<text text-anchor="middle" x="554" y="-273.5" font-family="Helvetica,sans-Serif" font-size="10.00">SITL::Aircraft::filtered_idx</text>
</a>
</g>
</g>
<!-- Node4&#45;&gt;Node5 -->
<g id="edge4" class="edge"><title>Node4&#45;&gt;Node5</title>
<path fill="none" stroke="midnightblue" d="M454.373,-292.116C464.165,-290.516 474.485,-288.829 484.614,-287.174"/>
<polygon fill="midnightblue" stroke="midnightblue" points="485.348,-290.601 494.653,-285.534 484.219,-283.692 485.348,-290.601"/>
</g>
<!-- Node6 -->
<g id="node6" class="node"><title>Node6</title>
<g id="a_node6"><a xlink:href="classLowPassFilter.html#a1cc5016de137b01080fa0a6fa7fe53cd" target="_top" xlink:title="LowPassFilter::set\l_cutoff_frequency">
<polygon fill="white" stroke="black" points="659,-283 659,-313 757,-313 757,-283 659,-283"/>
<text text-anchor="start" x="667" y="-301" font-family="Helvetica,sans-Serif" font-size="10.00">LowPassFilter::set</text>
<text text-anchor="middle" x="708" y="-290" font-family="Helvetica,sans-Serif" font-size="10.00">_cutoff_frequency</text>
</a>
</g>
</g>
<!-- Node5&#45;&gt;Node6 -->
<g id="edge5" class="edge"><title>Node5&#45;&gt;Node6</title>
<path fill="none" stroke="midnightblue" d="M618.141,-285.139C628.19,-286.593 638.548,-288.093 648.485,-289.531"/>
<polygon fill="midnightblue" stroke="midnightblue" points="648.258,-293.034 658.657,-291.003 649.261,-286.106 648.258,-293.034"/>
</g>
<!-- Node7 -->
<g id="node7" class="node"><title>Node7</title>
<g id="a_node7"><a xlink:href="classLowPassFilter.html#aa390849d2e18ff3287f92b89d8657841" target="_top" xlink:title="LowPassFilter::apply">
<polygon fill="white" stroke="black" points="654,-244.5 654,-263.5 762,-263.5 762,-244.5 654,-244.5"/>
<text text-anchor="middle" x="708" y="-251.5" font-family="Helvetica,sans-Serif" font-size="10.00">LowPassFilter::apply</text>
</a>
</g>
</g>
<!-- Node5&#45;&gt;Node7 -->
<g id="edge6" class="edge"><title>Node5&#45;&gt;Node7</title>
<path fill="none" stroke="midnightblue" d="M618.141,-266.861C626.701,-265.622 635.484,-264.351 644.04,-263.113"/>
<polygon fill="midnightblue" stroke="midnightblue" points="644.557,-266.574 653.953,-261.678 643.555,-259.647 644.557,-266.574"/>
</g>
<!-- Node8&#45;&gt;Node5 -->
<g id="edge8" class="edge"><title>Node8&#45;&gt;Node5</title>
<path fill="none" stroke="midnightblue" d="M454.373,-260.529C463.393,-261.944 472.862,-263.429 482.216,-264.897"/>
<polygon fill="midnightblue" stroke="midnightblue" points="481.874,-268.386 492.295,-266.478 482.958,-261.47 481.874,-268.386"/>
</g>
<!-- Node10 -->
<g id="node10" class="node"><title>Node10</title>
<g id="a_node10"><a xlink:href="replace_8cpp.html#a4e85b35525311e653744c2bfd3e9971e" target="_top" xlink:title="vasprintf">
<polygon fill="white" stroke="black" points="527,-198.5 527,-217.5 581,-217.5 581,-198.5 527,-198.5"/>
<text text-anchor="middle" x="554" y="-205.5" font-family="Helvetica,sans-Serif" font-size="10.00">vasprintf</text>
</a>
</g>
</g>
<!-- Node9&#45;&gt;Node10 -->
<g id="edge10" class="edge"><title>Node9&#45;&gt;Node10</title>
<path fill="none" stroke="midnightblue" d="M423.571,-208C448.431,-208 487.919,-208 516.746,-208"/>
<polygon fill="midnightblue" stroke="midnightblue" points="516.838,-211.5 526.838,-208 516.838,-204.5 516.838,-211.5"/>
</g>
<!-- Node15&#45;&gt;Node14 -->
<g id="edge17" class="edge"><title>Node15&#45;&gt;Node14</title>
<path fill="none" stroke="midnightblue" d="M290.394,-68.7738C310.746,-74.3013 333.618,-80.5136 353.025,-85.7847"/>
<polygon fill="midnightblue" stroke="midnightblue" points="352.259,-89.2032 362.827,-88.4467 354.094,-82.4479 352.259,-89.2032"/>
</g>
<!-- Node16 -->
<g id="node16" class="node"><title>Node16</title>
<g id="a_node16"><a xlink:href="classSITL_1_1Aircraft.html#ac1bfd277815fb52895e5bc409fb69ea1" target="_top" xlink:title="SITL::Aircraft::get\l_mag_field_ef">
<polygon fill="white" stroke="black" points="351.5,-39 351.5,-69 446.5,-69 446.5,-39 351.5,-39"/>
<text text-anchor="start" x="359.5" y="-57" font-family="Helvetica,sans-Serif" font-size="10.00">SITL::Aircraft::get</text>
<text text-anchor="middle" x="399" y="-46" font-family="Helvetica,sans-Serif" font-size="10.00">_mag_field_ef</text>
</a>
</g>
</g>
<!-- Node15&#45;&gt;Node16 -->
<g id="edge16" class="edge"><title>Node15&#45;&gt;Node16</title>
<path fill="none" stroke="midnightblue" d="M290.394,-54C306.76,-54 324.756,-54 341.27,-54"/>
<polygon fill="midnightblue" stroke="midnightblue" points="341.332,-57.5001 351.332,-54 341.332,-50.5001 341.332,-57.5001"/>
</g>
<!-- Node17 -->
<g id="node17" class="node"><title>Node17</title>
<g id="a_node17"><a xlink:href="classMatrix3.html#a18e2df03dec4abdf11fc9fb60ed7c226" target="_top" xlink:title="Matrix3::transposed">
<polygon fill="white" stroke="black" points="347.5,-0.5 347.5,-19.5 450.5,-19.5 450.5,-0.5 347.5,-0.5"/>
<text text-anchor="middle" x="399" y="-7.5" font-family="Helvetica,sans-Serif" font-size="10.00">Matrix3::transposed</text>
</a>
</g>
</g>
<!-- Node15&#45;&gt;Node17 -->
<g id="edge18" class="edge"><title>Node15&#45;&gt;Node17</title>
<path fill="none" stroke="midnightblue" d="M290.394,-39.2262C310.746,-33.6987 333.618,-27.4864 353.025,-22.2153"/>
<polygon fill="midnightblue" stroke="midnightblue" points="354.094,-25.5521 362.827,-19.5533 352.259,-18.7968 354.094,-25.5521"/>
</g>
</g>
</svg>
        <g id="navigator" transform="translate(0 0)" fill="#404254">
                <rect fill="#f2f5e9" fill-opacity="0.5" stroke="#606060" stroke-width=".5" x="0" y="0" width="60" height="60"/>
                <use id="zoomplus" xlink:href="#zoomPlus" x="17" y="9" onmousedown="handleZoom(evt,'in')"/>
                <use id="zoomminus" xlink:href="#zoomMin" x="42" y="9" onmousedown="handleZoom(evt,'out')"/>
                <use id="reset" xlink:href="#resetDef" x="30" y="36" onmousedown="handleReset()"/>
                <g id="arrowUp" xlink:href="#dirArrow" transform="translate(30 24)" onmousedown="handlePan(0,-1)">
                  <use xlink:href="#rim" fill="#404040">
                        <set attributeName="fill" to="#808080" begin="arrowUp.mouseover" end="arrowUp.mouseout"/>
                  </use>
                  <path fill="none" stroke="white" stroke-width="1.5" d="M0,-3.0v7 M-2.5,-0.5L0,-3.0L2.5,-0.5"/>
                </g>
                <g id="arrowRight" xlink:href="#dirArrow" transform="rotate(90) translate(36 -43)" onmousedown="handlePan(1,0)">
                  <use xlink:href="#rim" fill="#404040">
                        <set attributeName="fill" to="#808080" begin="arrowRight.mouseover" end="arrowRight.mouseout"/>
                  </use>
                  <path fill="none" stroke="white" stroke-width="1.5" d="M0,-3.0v7 M-2.5,-0.5L0,-3.0L2.5,-0.5"/>
                </g>
                <g id="arrowDown" xlink:href="#dirArrow" transform="rotate(180) translate(-30 -48)" onmousedown="handlePan(0,1)">
                  <use xlink:href="#rim" fill="#404040">
                        <set attributeName="fill" to="#808080" begin="arrowDown.mouseover" end="arrowDown.mouseout"/>
                  </use>
                  <path fill="none" stroke="white" stroke-width="1.5" d="M0,-3.0v7 M-2.5,-0.5L0,-3.0L2.5,-0.5"/>
                </g>
                <g id="arrowLeft" xlink:href="#dirArrow" transform="rotate(270) translate(-36 17)" onmousedown="handlePan(-1,0)">
                  <use xlink:href="#rim" fill="#404040">
                        <set attributeName="fill" to="#808080" begin="arrowLeft.mouseover" end="arrowLeft.mouseout"/>
                  </use>
                  <path fill="none" stroke="white" stroke-width="1.5" d="M0,-3.0v7 M-2.5,-0.5L0,-3.0L2.5,-0.5"/>
                </g>
        </g>
        <svg viewBox="0 0 15 15" width="100%" height="30px" preserveAspectRatio="xMaxYMin meet">
         <g id="arrow_out" transform="scale(0.3 0.3)">
          <a xlink:href="classSITL_1_1JSBSim_ac3a7a04e8c830f9be50a8d2a953833a1_cgraph_org.svg" target="_base">
           <rect id="button" ry="5" rx="5" y="6" x="6" height="38" width="38"
                fill="#f2f5e9" fill-opacity="0.5" stroke="#606060" stroke-width="1.0"/>
           <path id="arrow"
             d="M 11.500037,31.436501 C 11.940474,20.09759 22.043105,11.32322 32.158766,21.979434 L 37.068811,17.246167 C 37.068811,17.246167 37.088388,32 37.088388,32 L 22.160133,31.978069 C 22.160133,31.978069 26.997745,27.140456 26.997745,27.140456 C 18.528582,18.264221 13.291696,25.230495 11.500037,31.436501 z"
             style="fill:#404040;"/>
          </a>
         </g>
        </svg>
</svg>
