<?xml version="1.0" encoding="UTF-8" standalone="no"?>
<!DOCTYPE svg PUBLIC "-//W3C//DTD SVG 1.1//EN"
 "http://www.w3.org/Graphics/SVG/1.1/DTD/svg11.dtd">
<!-- Generated by graphviz version 2.38.0 (20140413.2041)
 -->
<!-- Title: AP_GPS::get_lag Pages: 1 -->
<!--zoomable 113 -->
<svg id="main" version="1.1" xmlns="http://www.w3.org/2000/svg" xmlns:xlink="http://www.w3.org/1999/xlink" xml:space="preserve" onload="init(evt)">
<style type="text/css"><![CDATA[
.edge:hover path { stroke: red; }
.edge:hover polygon { stroke: red; fill: red; }
]]></style>
<script type="text/javascript"><![CDATA[
var edges = document.getElementsByTagName('g');
if (edges && edges.length) {
  for (var i=0;i<edges.length;i++) {
    if (edges[i].id.substr(0,4)=='edge') {
      edges[i].setAttribute('class','edge');
    }
  }
}
]]></script>
        <defs>
                <circle id="rim" cx="0" cy="0" r="7"/>
                <circle id="rim2" cx="0" cy="0" r="3.5"/>
                <g id="zoomPlus">
                        <use xlink:href="#rim" fill="#404040">
                                <set attributeName="fill" to="#808080" begin="zoomplus.mouseover" end="zoomplus.mouseout"/>
                        </use>
                        <path d="M-4,0h8M0,-4v8" fill="none" stroke="white" stroke-width="1.5" pointer-events="none"/>
                </g>
                <g id="zoomMin">
                        <use xlink:href="#rim" fill="#404040">
                                <set attributeName="fill" to="#808080" begin="zoomminus.mouseover" end="zoomminus.mouseout"/>
                        </use>
                        <path d="M-4,0h8" fill="none" stroke="white" stroke-width="1.5" pointer-events="none"/>
                </g>
                <g id="dirArrow">
                        <path fill="none" stroke="white" stroke-width="1.5" d="M0,-3.0v7 M-2.5,-0.5L0,-3.0L2.5,-0.5"/>
                </g>
               <g id="resetDef">
                       <use xlink:href="#rim2" fill="#404040">
                               <set attributeName="fill" to="#808080" begin="reset.mouseover" end="reset.mouseout"/>
                       </use>
               </g>
        </defs>

<script type="text/javascript">
var viewWidth = 626;
var viewHeight = 113;
var sectionId = 'dynsection-21';
</script>
<script xlink:href="svgpan.js"/>
<svg id="graph" class="graph">
<g id="viewport">
<title>AP_GPS::get_lag</title>
<polygon fill="white" stroke="none" points="-4,4 -4,-108.5 622,-108.5 622,4 -4,4"/>
<!-- Node1 -->
<g id="node1" class="node"><title>Node1</title>
<polygon fill="#bfbfbf" stroke="black" points="0,-38.5 0,-57.5 94,-57.5 94,-38.5 0,-38.5"/>
<text text-anchor="middle" x="47" y="-45.5" font-family="Helvetica,sans-Serif" font-size="10.00">AP_GPS::get_lag</text>
</g>
<!-- Node2 -->
<g id="node2" class="node"><title>Node2</title>
<g id="a_node2"><a xlink:href="classAP__GPS.html#ae306f6cf545ee9f1f61cc38301ef76ca" target="_top" xlink:title="AP_GPS::status">
<polygon fill="white" stroke="black" points="154,-77.5 154,-96.5 243,-96.5 243,-77.5 154,-77.5"/>
<text text-anchor="middle" x="198.5" y="-84.5" font-family="Helvetica,sans-Serif" font-size="10.00">AP_GPS::status</text>
</a>
</g>
</g>
<!-- Node1&#45;&gt;Node2 -->
<g id="edge1" class="edge"><title>Node1&#45;&gt;Node2</title>
<path fill="none" stroke="midnightblue" d="M84.5718,-57.5405C104.646,-62.7772 129.742,-69.3239 151.174,-74.915"/>
<polygon fill="midnightblue" stroke="midnightblue" points="150.487,-78.3529 161.047,-77.4905 152.254,-71.5796 150.487,-78.3529"/>
</g>
<!-- Node5 -->
<g id="node5" class="node"><title>Node5</title>
<g id="a_node5"><a xlink:href="classAP__GPS.html#a426838d7c62143a122f9483e75ac2d03" target="_top" xlink:title="AP_GPS::get_rate_ms">
<polygon fill="white" stroke="black" points="140.5,-38.5 140.5,-57.5 256.5,-57.5 256.5,-38.5 140.5,-38.5"/>
<text text-anchor="middle" x="198.5" y="-45.5" font-family="Helvetica,sans-Serif" font-size="10.00">AP_GPS::get_rate_ms</text>
</a>
</g>
</g>
<!-- Node1&#45;&gt;Node5 -->
<g id="edge4" class="edge"><title>Node1&#45;&gt;Node5</title>
<path fill="none" stroke="midnightblue" d="M94.0748,-48C105.469,-48 117.912,-48 130.092,-48"/>
<polygon fill="midnightblue" stroke="midnightblue" points="130.232,-51.5001 140.232,-48 130.232,-44.5001 130.232,-51.5001"/>
</g>
<!-- Node7 -->
<g id="node7" class="node"><title>Node7</title>
<g id="a_node7"><a xlink:href="classAP__GPS__Backend.html#a20f5916fb991396f34d08ad60a15d5ea" target="_top" xlink:title="AP_GPS_Backend::get_lag">
<polygon fill="white" stroke="black" points="130,-0.5 130,-19.5 267,-19.5 267,-0.5 130,-0.5"/>
<text text-anchor="middle" x="198.5" y="-7.5" font-family="Helvetica,sans-Serif" font-size="10.00">AP_GPS_Backend::get_lag</text>
</a>
</g>
</g>
<!-- Node1&#45;&gt;Node7 -->
<g id="edge6" class="edge"><title>Node1&#45;&gt;Node7</title>
<path fill="none" stroke="midnightblue" d="M85.7252,-38.411C105.276,-33.4417 129.347,-27.3233 150.137,-22.0387"/>
<polygon fill="midnightblue" stroke="midnightblue" points="151.217,-25.3757 160.046,-19.5201 149.492,-18.5915 151.217,-25.3757"/>
</g>
<!-- Node3 -->
<g id="node3" class="node"><title>Node3</title>
<g id="a_node3"><a xlink:href="classAP__GPS.html#a28239e96e836d57525366b6529b76a51" target="_top" xlink:title="AP_GPS::highest_supported\l_status">
<polygon fill="white" stroke="black" points="303,-74 303,-104 445,-104 445,-74 303,-74"/>
<text text-anchor="start" x="311" y="-92" font-family="Helvetica,sans-Serif" font-size="10.00">AP_GPS::highest_supported</text>
<text text-anchor="middle" x="374" y="-81" font-family="Helvetica,sans-Serif" font-size="10.00">_status</text>
</a>
</g>
</g>
<!-- Node2&#45;&gt;Node3 -->
<g id="edge2" class="edge"><title>Node2&#45;&gt;Node3</title>
<path fill="none" stroke="midnightblue" d="M243.281,-87.5047C258.245,-87.6772 275.491,-87.876 292.422,-88.0711"/>
<polygon fill="midnightblue" stroke="midnightblue" points="292.86,-91.5763 302.9,-88.1919 292.941,-84.5768 292.86,-91.5763"/>
</g>
<!-- Node4 -->
<g id="node4" class="node"><title>Node4</title>
<g id="a_node4"><a xlink:href="classAP__GPS__Backend.html#a8c5b16c4ac289e283effa184eb9df9c8" target="_top" xlink:title="AP_GPS_Backend::highest\l_supported_status">
<polygon fill="white" stroke="black" points="481,-74 481,-104 618,-104 618,-74 481,-74"/>
<text text-anchor="start" x="489" y="-92" font-family="Helvetica,sans-Serif" font-size="10.00">AP_GPS_Backend::highest</text>
<text text-anchor="middle" x="549.5" y="-81" font-family="Helvetica,sans-Serif" font-size="10.00">_supported_status</text>
</a>
</g>
</g>
<!-- Node3&#45;&gt;Node4 -->
<g id="edge3" class="edge"><title>Node3&#45;&gt;Node4</title>
<path fill="none" stroke="midnightblue" d="M445.069,-89C453.586,-89 462.326,-89 470.944,-89"/>
<polygon fill="midnightblue" stroke="midnightblue" points="470.984,-92.5001 480.984,-89 470.984,-85.5001 470.984,-92.5001"/>
</g>
<!-- Node6 -->
<g id="node6" class="node"><title>Node6</title>
<g id="a_node6"><a xlink:href="AP__Math_8h.html#a6b187a3fa1e9f663e89175e7e8e213d6" target="_top" xlink:title="MIN">
<polygon fill="white" stroke="black" points="356.5,-35.5 356.5,-54.5 391.5,-54.5 391.5,-35.5 356.5,-35.5"/>
<text text-anchor="middle" x="374" y="-42.5" font-family="Helvetica,sans-Serif" font-size="10.00">MIN</text>
</a>
</g>
</g>
<!-- Node5&#45;&gt;Node6 -->
<g id="edge5" class="edge"><title>Node5&#45;&gt;Node6</title>
<path fill="none" stroke="midnightblue" d="M256.791,-47.0094C286.921,-46.4884 322.43,-45.8744 346.195,-45.4635"/>
<polygon fill="midnightblue" stroke="midnightblue" points="346.288,-48.9625 356.226,-45.29 346.167,-41.9635 346.288,-48.9625"/>
</g>
</g>
</svg>
        <g id="navigator" transform="translate(0 0)" fill="#404254">
                <rect fill="#f2f5e9" fill-opacity="0.5" stroke="#606060" stroke-width=".5" x="0" y="0" width="60" height="60"/>
                <use id="zoomplus" xlink:href="#zoomPlus" x="17" y="9" onmousedown="handleZoom(evt,'in')"/>
                <use id="zoomminus" xlink:href="#zoomMin" x="42" y="9" onmousedown="handleZoom(evt,'out')"/>
                <use id="reset" xlink:href="#resetDef" x="30" y="36" onmousedown="handleReset()"/>
                <g id="arrowUp" xlink:href="#dirArrow" transform="translate(30 24)" onmousedown="handlePan(0,-1)">
                  <use xlink:href="#rim" fill="#404040">
                        <set attributeName="fill" to="#808080" begin="arrowUp.mouseover" end="arrowUp.mouseout"/>
                  </use>
                  <path fill="none" stroke="white" stroke-width="1.5" d="M0,-3.0v7 M-2.5,-0.5L0,-3.0L2.5,-0.5"/>
                </g>
                <g id="arrowRight" xlink:href="#dirArrow" transform="rotate(90) translate(36 -43)" onmousedown="handlePan(1,0)">
                  <use xlink:href="#rim" fill="#404040">
                        <set attributeName="fill" to="#808080" begin="arrowRight.mouseover" end="arrowRight.mouseout"/>
                  </use>
                  <path fill="none" stroke="white" stroke-width="1.5" d="M0,-3.0v7 M-2.5,-0.5L0,-3.0L2.5,-0.5"/>
                </g>
                <g id="arrowDown" xlink:href="#dirArrow" transform="rotate(180) translate(-30 -48)" onmousedown="handlePan(0,1)">
                  <use xlink:href="#rim" fill="#404040">
                        <set attributeName="fill" to="#808080" begin="arrowDown.mouseover" end="arrowDown.mouseout"/>
                  </use>
                  <path fill="none" stroke="white" stroke-width="1.5" d="M0,-3.0v7 M-2.5,-0.5L0,-3.0L2.5,-0.5"/>
                </g>
                <g id="arrowLeft" xlink:href="#dirArrow" transform="rotate(270) translate(-36 17)" onmousedown="handlePan(-1,0)">
                  <use xlink:href="#rim" fill="#404040">
                        <set attributeName="fill" to="#808080" begin="arrowLeft.mouseover" end="arrowLeft.mouseout"/>
                  </use>
                  <path fill="none" stroke="white" stroke-width="1.5" d="M0,-3.0v7 M-2.5,-0.5L0,-3.0L2.5,-0.5"/>
                </g>
        </g>
        <svg viewBox="0 0 15 15" width="100%" height="30px" preserveAspectRatio="xMaxYMin meet">
         <g id="arrow_out" transform="scale(0.3 0.3)">
          <a xlink:href="classAP__GPS_a61c1db6ef1f2784f243f8724ba956a31_cgraph_org.svg" target="_base">
           <rect id="button" ry="5" rx="5" y="6" x="6" height="38" width="38"
                fill="#f2f5e9" fill-opacity="0.5" stroke="#606060" stroke-width="1.0"/>
           <path id="arrow"
             d="M 11.500037,31.436501 C 11.940474,20.09759 22.043105,11.32322 32.158766,21.979434 L 37.068811,17.246167 C 37.068811,17.246167 37.088388,32 37.088388,32 L 22.160133,31.978069 C 22.160133,31.978069 26.997745,27.140456 26.997745,27.140456 C 18.528582,18.264221 13.291696,25.230495 11.500037,31.436501 z"
             style="fill:#404040;"/>
          </a>
         </g>
        </svg>
</svg>
