<?xml version="1.0" encoding="UTF-8" standalone="no"?>
<!DOCTYPE svg PUBLIC "-//W3C//DTD SVG 1.1//EN"
 "http://www.w3.org/Graphics/SVG/1.1/DTD/svg11.dtd">
<!-- Generated by graphviz version 2.38.0 (20140413.2041)
 -->
<!-- Title: AP_GPS::have_vertical_velocity Pages: 1 -->
<svg width="1555pt" height="281pt"
 viewBox="0.00 0.00 1555.00 281.00" xmlns="http://www.w3.org/2000/svg" xmlns:xlink="http://www.w3.org/1999/xlink">
<g id="graph0" class="graph" transform="scale(1 1) rotate(0) translate(4 277)">
<title>AP_GPS::have_vertical_velocity</title>
<polygon fill="white" stroke="none" points="-4,4 -4,-277 1551,-277 1551,4 -4,4"/>
<!-- Node1 -->
<g id="node1" class="node"><title>Node1</title>
<polygon fill="#bfbfbf" stroke="black" points="0,-112 0,-142 120,-142 120,-112 0,-112"/>
<text text-anchor="start" x="8" y="-130" font-family="Helvetica,sans-Serif" font-size="10.00">AP_GPS::have_vertical</text>
<text text-anchor="middle" x="60" y="-119" font-family="Helvetica,sans-Serif" font-size="10.00">_velocity</text>
</g>
<!-- Node2 -->
<g id="node2" class="node"><title>Node2</title>
<g id="a_node2"><a xlink:href="classNavEKF2__core.html#af17ad10645eedde6134e5988ed2b80b2" target="_top" xlink:title="NavEKF2_core::calcGpsGood\lToAlign">
<polygon fill="white" stroke="black" points="156,-68 156,-98 305,-98 305,-68 156,-68"/>
<text text-anchor="start" x="164" y="-86" font-family="Helvetica,sans-Serif" font-size="10.00">NavEKF2_core::calcGpsGood</text>
<text text-anchor="middle" x="230.5" y="-75" font-family="Helvetica,sans-Serif" font-size="10.00">ToAlign</text>
</a>
</g>
</g>
<!-- Node1&#45;&gt;Node2 -->
<g id="edge1" class="edge"><title>Node1&#45;&gt;Node2</title>
<path fill="none" stroke="midnightblue" d="M128.378,-109.406C142.811,-105.637 157.934,-101.688 171.956,-98.0262"/>
<polygon fill="midnightblue" stroke="midnightblue" points="127.308,-106.068 118.517,-111.981 129.077,-112.841 127.308,-106.068"/>
</g>
<!-- Node3 -->
<g id="node3" class="node"><title>Node3</title>
<g id="a_node3"><a xlink:href="classNavEKF2__core.html#ae325dba2deac733f1de41c5e7ee4f707" target="_top" xlink:title="NavEKF2_core::readGpsData">
<polygon fill="white" stroke="black" points="341,-97.5 341,-116.5 488,-116.5 488,-97.5 341,-97.5"/>
<text text-anchor="middle" x="414.5" y="-104.5" font-family="Helvetica,sans-Serif" font-size="10.00">NavEKF2_core::readGpsData</text>
</a>
</g>
</g>
<!-- Node1&#45;&gt;Node3 -->
<g id="edge44" class="edge"><title>Node1&#45;&gt;Node3</title>
<path fill="none" stroke="midnightblue" d="M130.263,-123.07C191.037,-119.622 279.11,-114.625 340.866,-111.121"/>
<polygon fill="midnightblue" stroke="midnightblue" points="129.786,-119.592 120.001,-123.652 130.183,-126.58 129.786,-119.592"/>
</g>
<!-- Node18 -->
<g id="node18" class="node"><title>Node18</title>
<g id="a_node18"><a xlink:href="classNavEKF3__core.html#ab712c6228fff3e0413b5bf039755ccaf" target="_top" xlink:title="NavEKF3_core::calcGpsGood\lToAlign">
<polygon fill="white" stroke="black" points="156,-156 156,-186 305,-186 305,-156 156,-156"/>
<text text-anchor="start" x="164" y="-174" font-family="Helvetica,sans-Serif" font-size="10.00">NavEKF3_core::calcGpsGood</text>
<text text-anchor="middle" x="230.5" y="-163" font-family="Helvetica,sans-Serif" font-size="10.00">ToAlign</text>
</a>
</g>
</g>
<!-- Node1&#45;&gt;Node18 -->
<g id="edge19" class="edge"><title>Node1&#45;&gt;Node18</title>
<path fill="none" stroke="midnightblue" d="M128.378,-144.594C142.811,-148.363 157.934,-152.312 171.956,-155.974"/>
<polygon fill="midnightblue" stroke="midnightblue" points="129.077,-141.159 118.517,-142.019 127.308,-147.932 129.077,-141.159"/>
</g>
<!-- Node19 -->
<g id="node19" class="node"><title>Node19</title>
<g id="a_node19"><a xlink:href="classNavEKF3__core.html#ac8dc281034818e5fc9b2207daa2b7c3a" target="_top" xlink:title="NavEKF3_core::readGpsData">
<polygon fill="white" stroke="black" points="341,-196.5 341,-215.5 488,-215.5 488,-196.5 341,-196.5"/>
<text text-anchor="middle" x="414.5" y="-203.5" font-family="Helvetica,sans-Serif" font-size="10.00">NavEKF3_core::readGpsData</text>
</a>
</g>
</g>
<!-- Node1&#45;&gt;Node19 -->
<g id="edge45" class="edge"><title>Node1&#45;&gt;Node19</title>
<path fill="none" stroke="midnightblue" d="M83.802,-149.208C101.798,-165.169 128.396,-185.484 156,-195 215.858,-215.635 288.215,-216.819 340.966,-213.751"/>
<polygon fill="midnightblue" stroke="midnightblue" points="85.911,-146.394 76.1664,-142.236 81.1908,-151.563 85.911,-146.394"/>
</g>
<!-- Node27 -->
<g id="node27" class="node"><title>Node27</title>
<g id="a_node27"><a xlink:href="classDataFlash__Class.html#a8a9087dec83092f0ea67b6741ff9f32e" target="_top" xlink:title="DataFlash_Class::Log\l_Write_GPS">
<polygon fill="white" stroke="black" points="541.5,-24 541.5,-54 655.5,-54 655.5,-24 541.5,-24"/>
<text text-anchor="start" x="549.5" y="-42" font-family="Helvetica,sans-Serif" font-size="10.00">DataFlash_Class::Log</text>
<text text-anchor="middle" x="598.5" y="-31" font-family="Helvetica,sans-Serif" font-size="10.00">_Write_GPS</text>
</a>
</g>
</g>
<!-- Node1&#45;&gt;Node27 -->
<g id="edge34" class="edge"><title>Node1&#45;&gt;Node27</title>
<path fill="none" stroke="midnightblue" d="M83.4189,-104.762C101.387,-88.5258 128.126,-67.7219 156,-58 287.842,-12.016 455.369,-21.8123 541.205,-31.3181"/>
<polygon fill="midnightblue" stroke="midnightblue" points="80.7444,-102.47 75.808,-111.845 85.513,-107.595 80.7444,-102.47"/>
</g>
<!-- Node2&#45;&gt;Node3 -->
<g id="edge2" class="edge"><title>Node2&#45;&gt;Node3</title>
<path fill="none" stroke="midnightblue" d="M315.154,-94.0313C323.853,-95.1785 332.643,-96.3376 341.202,-97.4662"/>
<polygon fill="midnightblue" stroke="midnightblue" points="315.374,-90.53 305.002,-92.6925 314.458,-97.4699 315.374,-90.53"/>
</g>
<!-- Node4 -->
<g id="node4" class="node"><title>Node4</title>
<g id="a_node4"><a xlink:href="classNavEKF2__core.html#a4a06ae47c3edebdecd2b179a0567f00b" target="_top" xlink:title="NavEKF2_core::Initialise\lFilterBootstrap">
<polygon fill="white" stroke="black" points="536,-122 536,-152 661,-152 661,-122 536,-122"/>
<text text-anchor="start" x="544" y="-140" font-family="Helvetica,sans-Serif" font-size="10.00">NavEKF2_core::Initialise</text>
<text text-anchor="middle" x="598.5" y="-129" font-family="Helvetica,sans-Serif" font-size="10.00">FilterBootstrap</text>
</a>
</g>
</g>
<!-- Node3&#45;&gt;Node4 -->
<g id="edge3" class="edge"><title>Node3&#45;&gt;Node4</title>
<path fill="none" stroke="midnightblue" d="M483.298,-118.176C500.485,-121.008 518.854,-124.036 535.725,-126.817"/>
<polygon fill="midnightblue" stroke="midnightblue" points="483.772,-114.706 473.336,-116.533 482.634,-121.613 483.772,-114.706"/>
</g>
<!-- Node15 -->
<g id="node15" class="node"><title>Node15</title>
<g id="a_node15"><a xlink:href="classNavEKF2__core.html#aff31047fa71772bca7ce574617ede0f6" target="_top" xlink:title="NavEKF2_core::SelectVelPos\lFusion">
<polygon fill="white" stroke="black" points="524,-73 524,-103 673,-103 673,-73 524,-73"/>
<text text-anchor="start" x="532" y="-91" font-family="Helvetica,sans-Serif" font-size="10.00">NavEKF2_core::SelectVelPos</text>
<text text-anchor="middle" x="598.5" y="-80" font-family="Helvetica,sans-Serif" font-size="10.00">Fusion</text>
</a>
</g>
</g>
<!-- Node3&#45;&gt;Node15 -->
<g id="edge14" class="edge"><title>Node3&#45;&gt;Node15</title>
<path fill="none" stroke="midnightblue" d="M498.433,-98.3422C506.863,-97.4621 515.387,-96.5723 523.71,-95.7033"/>
<polygon fill="midnightblue" stroke="midnightblue" points="497.798,-94.8893 488.216,-99.4088 498.525,-101.851 497.798,-94.8893"/>
</g>
<!-- Node5 -->
<g id="node5" class="node"><title>Node5</title>
<g id="a_node5"><a xlink:href="classNavEKF2.html#a9c447b8d84abf2dfc845ddbbbad46a2b" target="_top" xlink:title="NavEKF2::InitialiseFilter">
<polygon fill="white" stroke="black" points="888,-113.5 888,-132.5 1011,-132.5 1011,-113.5 888,-113.5"/>
<text text-anchor="middle" x="949.5" y="-120.5" font-family="Helvetica,sans-Serif" font-size="10.00">NavEKF2::InitialiseFilter</text>
</a>
</g>
</g>
<!-- Node4&#45;&gt;Node5 -->
<g id="edge4" class="edge"><title>Node4&#45;&gt;Node5</title>
<path fill="none" stroke="midnightblue" d="M671.089,-134.128C734.973,-131.566 827.491,-127.854 887.817,-125.434"/>
<polygon fill="midnightblue" stroke="midnightblue" points="670.942,-130.631 661.091,-134.529 671.223,-137.626 670.942,-130.631"/>
</g>
<!-- Node6 -->
<g id="node6" class="node"><title>Node6</title>
<g id="a_node6"><a xlink:href="classAP__AHRS__NavEKF.html#a0187c6d3d4348b002a204c05d3e94b07" target="_top" xlink:title="AP_AHRS_NavEKF::update_EKF2">
<polygon fill="white" stroke="black" points="1047,-72.5 1047,-91.5 1219,-91.5 1219,-72.5 1047,-72.5"/>
<text text-anchor="middle" x="1133" y="-79.5" font-family="Helvetica,sans-Serif" font-size="10.00">AP_AHRS_NavEKF::update_EKF2</text>
</a>
</g>
</g>
<!-- Node5&#45;&gt;Node6 -->
<g id="edge5" class="edge"><title>Node5&#45;&gt;Node6</title>
<path fill="none" stroke="midnightblue" d="M1002.11,-111.193C1016.62,-107.882 1032.43,-104.29 1047,-101 1060.72,-97.9032 1075.69,-94.549 1089.19,-91.533"/>
<polygon fill="midnightblue" stroke="midnightblue" points="1001.26,-107.795 992.291,-113.432 1002.82,-114.62 1001.26,-107.795"/>
</g>
<!-- Node9 -->
<g id="node9" class="node"><title>Node9</title>
<g id="a_node9"><a xlink:href="classAP__AHRS__NavEKF.html#a532ff0df024a4537e5a108c42ba405a7" target="_top" xlink:title="AP_AHRS_NavEKF::reset">
<polygon fill="white" stroke="black" points="1066,-160.5 1066,-179.5 1200,-179.5 1200,-160.5 1066,-160.5"/>
<text text-anchor="middle" x="1133" y="-167.5" font-family="Helvetica,sans-Serif" font-size="10.00">AP_AHRS_NavEKF::reset</text>
</a>
</g>
</g>
<!-- Node5&#45;&gt;Node9 -->
<g id="edge8" class="edge"><title>Node5&#45;&gt;Node9</title>
<path fill="none" stroke="midnightblue" d="M993.465,-135.435C1010.14,-140.153 1029.42,-145.475 1047,-150 1060.95,-153.59 1076.25,-157.27 1089.98,-160.479"/>
<polygon fill="midnightblue" stroke="midnightblue" points="994.034,-131.958 983.458,-132.589 992.119,-138.691 994.034,-131.958"/>
</g>
<!-- Node10 -->
<g id="node10" class="node"><title>Node10</title>
<g id="a_node10"><a xlink:href="classAP__AHRS__NavEKF.html#a9bd3c7f1793a48cd0d736b19fbfaf19a" target="_top" xlink:title="AP_AHRS_NavEKF::reset\l_attitude">
<polygon fill="white" stroke="black" points="1066,-111 1066,-141 1200,-141 1200,-111 1066,-111"/>
<text text-anchor="start" x="1074" y="-129" font-family="Helvetica,sans-Serif" font-size="10.00">AP_AHRS_NavEKF::reset</text>
<text text-anchor="middle" x="1133" y="-118" font-family="Helvetica,sans-Serif" font-size="10.00">_attitude</text>
</a>
</g>
</g>
<!-- Node5&#45;&gt;Node10 -->
<g id="edge9" class="edge"><title>Node5&#45;&gt;Node10</title>
<path fill="none" stroke="midnightblue" d="M1021.2,-124.169C1035.86,-124.411 1051.26,-124.665 1065.75,-124.905"/>
<polygon fill="midnightblue" stroke="midnightblue" points="1021.25,-120.669 1011.19,-124.003 1021.13,-127.668 1021.25,-120.669"/>
</g>
<!-- Node11 -->
<g id="node11" class="node"><title>Node11</title>
<g id="a_node11"><a xlink:href="classNavEKF2.html#ab18af2714c15fcf190493c01e2a28c73" target="_top" xlink:title="NavEKF2::activeCores">
<polygon fill="white" stroke="black" points="1074,-34.5 1074,-53.5 1192,-53.5 1192,-34.5 1074,-34.5"/>
<text text-anchor="middle" x="1133" y="-41.5" font-family="Helvetica,sans-Serif" font-size="10.00">NavEKF2::activeCores</text>
</a>
</g>
</g>
<!-- Node5&#45;&gt;Node11 -->
<g id="edge10" class="edge"><title>Node5&#45;&gt;Node11</title>
<path fill="none" stroke="midnightblue" d="M994.897,-109.592C1000.52,-107.114 1006.03,-104.26 1011,-101 1030.45,-88.239 1026.77,-74.4822 1047,-63 1055.15,-58.3729 1064.34,-54.8726 1073.59,-52.2248"/>
<polygon fill="midnightblue" stroke="midnightblue" points="993.387,-106.427 985.418,-113.409 996.002,-112.92 993.387,-106.427"/>
</g>
<!-- Node7 -->
<g id="node7" class="node"><title>Node7</title>
<g id="a_node7"><a xlink:href="classAP__AHRS__NavEKF.html#ac8111979c5dc37a55b2c50818534ea52" target="_top" xlink:title="AP_AHRS_NavEKF::update">
<polygon fill="white" stroke="black" points="1256,-119.5 1256,-138.5 1398,-138.5 1398,-119.5 1256,-119.5"/>
<text text-anchor="middle" x="1327" y="-126.5" font-family="Helvetica,sans-Serif" font-size="10.00">AP_AHRS_NavEKF::update</text>
</a>
</g>
</g>
<!-- Node6&#45;&gt;Node7 -->
<g id="edge6" class="edge"><title>Node6&#45;&gt;Node7</title>
<path fill="none" stroke="midnightblue" d="M1188.25,-93.8209C1198.48,-96.1364 1209.08,-98.5944 1219,-101 1243.07,-106.838 1270.05,-113.902 1290.9,-119.475"/>
<polygon fill="midnightblue" stroke="midnightblue" points="1188.71,-90.3364 1178.19,-91.5602 1187.18,-97.1663 1188.71,-90.3364"/>
</g>
<!-- Node8 -->
<g id="node8" class="node"><title>Node8</title>
<g id="a_node8"><a xlink:href="AHRS__Test_8cpp.html#a0b33edabd7f1c4e4a0bf32c67269be2f" target="_top" xlink:title="loop">
<polygon fill="white" stroke="black" points="1473.5,-119.5 1473.5,-138.5 1508.5,-138.5 1508.5,-119.5 1473.5,-119.5"/>
<text text-anchor="middle" x="1491" y="-126.5" font-family="Helvetica,sans-Serif" font-size="10.00">loop</text>
</a>
</g>
</g>
<!-- Node7&#45;&gt;Node8 -->
<g id="edge7" class="edge"><title>Node7&#45;&gt;Node8</title>
<path fill="none" stroke="midnightblue" d="M1408.29,-129C1432.99,-129 1457.78,-129 1473.47,-129"/>
<polygon fill="midnightblue" stroke="midnightblue" points="1408.11,-125.5 1398.11,-129 1408.11,-132.5 1408.11,-125.5"/>
</g>
<!-- Node12 -->
<g id="node12" class="node"><title>Node12</title>
<g id="a_node12"><a xlink:href="classDataFlash__Class.html#a46e58faaa53c44516433f6bb7bde4163" target="_top" xlink:title="DataFlash_Class::Log\l_Write_POS">
<polygon fill="white" stroke="black" points="1270,-70 1270,-100 1384,-100 1384,-70 1270,-70"/>
<text text-anchor="start" x="1278" y="-88" font-family="Helvetica,sans-Serif" font-size="10.00">DataFlash_Class::Log</text>
<text text-anchor="middle" x="1327" y="-77" font-family="Helvetica,sans-Serif" font-size="10.00">_Write_POS</text>
</a>
</g>
</g>
<!-- Node11&#45;&gt;Node12 -->
<g id="edge11" class="edge"><title>Node11&#45;&gt;Node12</title>
<path fill="none" stroke="midnightblue" d="M1188.37,-55.6107C1213.78,-61.0361 1244.01,-67.4917 1269.66,-72.9688"/>
<polygon fill="midnightblue" stroke="midnightblue" points="1189.04,-52.1749 1178.53,-53.5093 1187.58,-59.0205 1189.04,-52.1749"/>
</g>
<!-- Node14 -->
<g id="node14" class="node"><title>Node14</title>
<g id="a_node14"><a xlink:href="classGCS__MAVLINK.html#a558ba3447048b78cb9dde460053e2741" target="_top" xlink:title="GCS_MAVLINK::send_ahrs2">
<polygon fill="white" stroke="black" points="1255,-31.5 1255,-50.5 1399,-50.5 1399,-31.5 1255,-31.5"/>
<text text-anchor="middle" x="1327" y="-38.5" font-family="Helvetica,sans-Serif" font-size="10.00">GCS_MAVLINK::send_ahrs2</text>
</a>
</g>
</g>
<!-- Node11&#45;&gt;Node14 -->
<g id="edge13" class="edge"><title>Node11&#45;&gt;Node14</title>
<path fill="none" stroke="midnightblue" d="M1202.52,-42.9294C1219.5,-42.664 1237.74,-42.3791 1254.85,-42.1118"/>
<polygon fill="midnightblue" stroke="midnightblue" points="1202.07,-39.4359 1192.13,-43.0918 1202.18,-46.435 1202.07,-39.4359"/>
</g>
<!-- Node13 -->
<g id="node13" class="node"><title>Node13</title>
<g id="a_node13"><a xlink:href="classDataFlash__Class.html#a7868f0e3dcef65ea5b5fcae618f4c5d4" target="_top" xlink:title="DataFlash_Class::get\l_structures">
<polygon fill="white" stroke="black" points="1435,-28 1435,-58 1547,-58 1547,-28 1435,-28"/>
<text text-anchor="start" x="1443" y="-46" font-family="Helvetica,sans-Serif" font-size="10.00">DataFlash_Class::get</text>
<text text-anchor="middle" x="1491" y="-35" font-family="Helvetica,sans-Serif" font-size="10.00">_structures</text>
</a>
</g>
</g>
<!-- Node12&#45;&gt;Node13 -->
<g id="edge12" class="edge"><title>Node12&#45;&gt;Node13</title>
<path fill="none" stroke="midnightblue" d="M1393.99,-67.8907C1407.61,-64.3605 1421.81,-60.6784 1434.99,-57.2623"/>
<polygon fill="midnightblue" stroke="midnightblue" points="1393.01,-64.5306 1384.21,-70.4283 1394.76,-71.3066 1393.01,-64.5306"/>
</g>
<!-- Node16 -->
<g id="node16" class="node"><title>Node16</title>
<g id="a_node16"><a xlink:href="classNavEKF2__core.html#a5f5c815cbd5ebba30d731f89f87726c3" target="_top" xlink:title="NavEKF2_core::UpdateFilter">
<polygon fill="white" stroke="black" points="709,-78.5 709,-97.5 852,-97.5 852,-78.5 709,-78.5"/>
<text text-anchor="middle" x="780.5" y="-85.5" font-family="Helvetica,sans-Serif" font-size="10.00">NavEKF2_core::UpdateFilter</text>
</a>
</g>
</g>
<!-- Node15&#45;&gt;Node16 -->
<g id="edge15" class="edge"><title>Node15&#45;&gt;Node16</title>
<path fill="none" stroke="midnightblue" d="M683.495,-88C691.955,-88 700.485,-88 708.786,-88"/>
<polygon fill="midnightblue" stroke="midnightblue" points="683.232,-84.5001 673.232,-88 683.232,-91.5001 683.232,-84.5001"/>
</g>
<!-- Node17 -->
<g id="node17" class="node"><title>Node17</title>
<g id="a_node17"><a xlink:href="classNavEKF2.html#a72815b1bbd9d7ceb0ff7ae52d14516df" target="_top" xlink:title="NavEKF2::UpdateFilter">
<polygon fill="white" stroke="black" points="890,-72.5 890,-91.5 1009,-91.5 1009,-72.5 890,-72.5"/>
<text text-anchor="middle" x="949.5" y="-79.5" font-family="Helvetica,sans-Serif" font-size="10.00">NavEKF2::UpdateFilter</text>
</a>
</g>
</g>
<!-- Node16&#45;&gt;Node17 -->
<g id="edge16" class="edge"><title>Node16&#45;&gt;Node17</title>
<path fill="none" stroke="midnightblue" d="M862.372,-85.0944C871.669,-84.7604 881.01,-84.4248 889.932,-84.1042"/>
<polygon fill="midnightblue" stroke="midnightblue" points="862.191,-81.5986 852.323,-85.4555 862.442,-88.5941 862.191,-81.5986"/>
</g>
<!-- Node17&#45;&gt;Node6 -->
<g id="edge17" class="edge"><title>Node17&#45;&gt;Node6</title>
<path fill="none" stroke="midnightblue" d="M1019.2,-82C1028.22,-82 1037.55,-82 1046.79,-82"/>
<polygon fill="midnightblue" stroke="midnightblue" points="1019.18,-78.5001 1009.18,-82 1019.18,-85.5001 1019.18,-78.5001"/>
</g>
<!-- Node17&#45;&gt;Node11 -->
<g id="edge18" class="edge"><title>Node17&#45;&gt;Node11</title>
<path fill="none" stroke="midnightblue" d="M1006.29,-70.319C1032.03,-64.9301 1062.2,-58.6139 1086.53,-53.5201"/>
<polygon fill="midnightblue" stroke="midnightblue" points="1005.37,-66.936 996.3,-72.411 1006.81,-73.7874 1005.37,-66.936"/>
</g>
<!-- Node18&#45;&gt;Node19 -->
<g id="edge20" class="edge"><title>Node18&#45;&gt;Node19</title>
<path fill="none" stroke="midnightblue" d="M314.837,-187.026C331.641,-190.258 348.795,-193.557 363.987,-196.478"/>
<polygon fill="midnightblue" stroke="midnightblue" points="315.483,-183.586 305.002,-185.135 314.161,-190.461 315.483,-183.586"/>
</g>
<!-- Node20 -->
<g id="node20" class="node"><title>Node20</title>
<g id="a_node20"><a xlink:href="classNavEKF3__core.html#aae18ada44b1b7be0d45af03391ef961a" target="_top" xlink:title="NavEKF3_core::Initialise\lFilterBootstrap">
<polygon fill="white" stroke="black" points="718,-155 718,-185 843,-185 843,-155 718,-155"/>
<text text-anchor="start" x="726" y="-173" font-family="Helvetica,sans-Serif" font-size="10.00">NavEKF3_core::Initialise</text>
<text text-anchor="middle" x="780.5" y="-162" font-family="Helvetica,sans-Serif" font-size="10.00">FilterBootstrap</text>
</a>
</g>
</g>
<!-- Node19&#45;&gt;Node20 -->
<g id="edge21" class="edge"><title>Node19&#45;&gt;Node20</title>
<path fill="none" stroke="midnightblue" d="M498.351,-197.806C565.067,-191.208 657.367,-182.079 717.733,-176.109"/>
<polygon fill="midnightblue" stroke="midnightblue" points="497.893,-194.334 488.286,-198.801 498.582,-201.3 497.893,-194.334"/>
</g>
<!-- Node24 -->
<g id="node24" class="node"><title>Node24</title>
<g id="a_node24"><a xlink:href="classNavEKF3__core.html#a8f4723dabc873f7112948a18b290fb01" target="_top" xlink:title="NavEKF3_core::SelectVelPos\lFusion">
<polygon fill="white" stroke="black" points="524,-233 524,-263 673,-263 673,-233 524,-233"/>
<text text-anchor="start" x="532" y="-251" font-family="Helvetica,sans-Serif" font-size="10.00">NavEKF3_core::SelectVelPos</text>
<text text-anchor="middle" x="598.5" y="-240" font-family="Helvetica,sans-Serif" font-size="10.00">Fusion</text>
</a>
</g>
</g>
<!-- Node19&#45;&gt;Node24 -->
<g id="edge29" class="edge"><title>Node19&#45;&gt;Node24</title>
<path fill="none" stroke="midnightblue" d="M466.82,-217.843C487.201,-222.546 510.884,-228.012 532.446,-232.988"/>
<polygon fill="midnightblue" stroke="midnightblue" points="467.33,-214.369 456.799,-215.53 465.755,-221.189 467.33,-214.369"/>
</g>
<!-- Node21 -->
<g id="node21" class="node"><title>Node21</title>
<g id="a_node21"><a xlink:href="classNavEKF3.html#a07f064fa513fbb6e7188141904f3b5b5" target="_top" xlink:title="NavEKF3::InitialiseFilter">
<polygon fill="white" stroke="black" points="888,-160.5 888,-179.5 1011,-179.5 1011,-160.5 888,-160.5"/>
<text text-anchor="middle" x="949.5" y="-167.5" font-family="Helvetica,sans-Serif" font-size="10.00">NavEKF3::InitialiseFilter</text>
</a>
</g>
</g>
<!-- Node20&#45;&gt;Node21 -->
<g id="edge22" class="edge"><title>Node20&#45;&gt;Node21</title>
<path fill="none" stroke="midnightblue" d="M853.249,-170C864.788,-170 876.633,-170 887.878,-170"/>
<polygon fill="midnightblue" stroke="midnightblue" points="853.21,-166.5 843.21,-170 853.21,-173.5 853.21,-166.5"/>
</g>
<!-- Node21&#45;&gt;Node9 -->
<g id="edge25" class="edge"><title>Node21&#45;&gt;Node9</title>
<path fill="none" stroke="midnightblue" d="M1021.2,-170C1035.86,-170 1051.26,-170 1065.75,-170"/>
<polygon fill="midnightblue" stroke="midnightblue" points="1021.19,-166.5 1011.19,-170 1021.19,-173.5 1021.19,-166.5"/>
</g>
<!-- Node21&#45;&gt;Node10 -->
<g id="edge26" class="edge"><title>Node21&#45;&gt;Node10</title>
<path fill="none" stroke="midnightblue" d="M999.815,-158.045C1021.41,-152.811 1046.98,-146.611 1069.86,-141.065"/>
<polygon fill="midnightblue" stroke="midnightblue" points="998.777,-154.695 989.883,-160.453 1000.43,-161.498 998.777,-154.695"/>
</g>
<!-- Node22 -->
<g id="node22" class="node"><title>Node22</title>
<g id="a_node22"><a xlink:href="classAP__AHRS__NavEKF.html#a324160404f12959e955554f5aed26459" target="_top" xlink:title="AP_AHRS_NavEKF::update_EKF3">
<polygon fill="white" stroke="black" points="1047,-236.5 1047,-255.5 1219,-255.5 1219,-236.5 1047,-236.5"/>
<text text-anchor="middle" x="1133" y="-243.5" font-family="Helvetica,sans-Serif" font-size="10.00">AP_AHRS_NavEKF::update_EKF3</text>
</a>
</g>
</g>
<!-- Node21&#45;&gt;Node22 -->
<g id="edge23" class="edge"><title>Node21&#45;&gt;Node22</title>
<path fill="none" stroke="midnightblue" d="M972.003,-185.382C990.92,-198.243 1019.63,-216.173 1047,-227 1056.56,-230.783 1067.04,-233.896 1077.28,-236.43"/>
<polygon fill="midnightblue" stroke="midnightblue" points="973.766,-182.346 963.552,-179.529 969.78,-188.1 973.766,-182.346"/>
</g>
<!-- Node23 -->
<g id="node23" class="node"><title>Node23</title>
<g id="a_node23"><a xlink:href="classNavEKF3.html#a3e1f50ad977a17222fcd7a6851b0f2ec" target="_top" xlink:title="NavEKF3::activeCores">
<polygon fill="white" stroke="black" points="1074,-198.5 1074,-217.5 1192,-217.5 1192,-198.5 1074,-198.5"/>
<text text-anchor="middle" x="1133" y="-205.5" font-family="Helvetica,sans-Serif" font-size="10.00">NavEKF3::activeCores</text>
</a>
</g>
</g>
<!-- Node21&#45;&gt;Node23 -->
<g id="edge27" class="edge"><title>Node21&#45;&gt;Node23</title>
<path fill="none" stroke="midnightblue" d="M1006.29,-181.681C1032.03,-187.07 1062.2,-193.386 1086.53,-198.48"/>
<polygon fill="midnightblue" stroke="midnightblue" points="1006.81,-178.213 996.3,-179.589 1005.37,-185.064 1006.81,-178.213"/>
</g>
<!-- Node22&#45;&gt;Node7 -->
<g id="edge24" class="edge"><title>Node22&#45;&gt;Node7</title>
<path fill="none" stroke="midnightblue" d="M1204.56,-233.3C1209.56,-231.474 1214.42,-229.386 1219,-227 1263,-204.053 1302.64,-158.389 1318.58,-138.56"/>
<polygon fill="midnightblue" stroke="midnightblue" points="1203.24,-230.051 1194.83,-236.5 1205.42,-236.701 1203.24,-230.051"/>
</g>
<!-- Node23&#45;&gt;Node12 -->
<g id="edge28" class="edge"><title>Node23&#45;&gt;Node12</title>
<path fill="none" stroke="midnightblue" d="M1201.99,-198.992C1208.12,-196.4 1213.91,-193.126 1219,-189 1248.96,-164.691 1226.53,-136.043 1255,-110 1259.34,-106.031 1264.35,-102.685 1269.65,-99.865"/>
<polygon fill="midnightblue" stroke="midnightblue" points="1200.38,-195.851 1192.16,-202.528 1202.75,-202.438 1200.38,-195.851"/>
</g>
<!-- Node25 -->
<g id="node25" class="node"><title>Node25</title>
<g id="a_node25"><a xlink:href="classNavEKF3__core.html#a2a7fae9e0bf2ce6fc2f9b3918dc168d3" target="_top" xlink:title="NavEKF3_core::UpdateFilter">
<polygon fill="white" stroke="black" points="709,-253.5 709,-272.5 852,-272.5 852,-253.5 709,-253.5"/>
<text text-anchor="middle" x="780.5" y="-260.5" font-family="Helvetica,sans-Serif" font-size="10.00">NavEKF3_core::UpdateFilter</text>
</a>
</g>
</g>
<!-- Node24&#45;&gt;Node25 -->
<g id="edge30" class="edge"><title>Node24&#45;&gt;Node25</title>
<path fill="none" stroke="midnightblue" d="M683.217,-254.976C691.767,-255.689 700.394,-256.408 708.786,-257.107"/>
<polygon fill="midnightblue" stroke="midnightblue" points="683.488,-251.487 673.232,-254.144 682.907,-258.463 683.488,-251.487"/>
</g>
<!-- Node26 -->
<g id="node26" class="node"><title>Node26</title>
<g id="a_node26"><a xlink:href="classNavEKF3.html#a477020fcf29376e0c2205dbf79728104" target="_top" xlink:title="NavEKF3::UpdateFilter">
<polygon fill="white" stroke="black" points="890,-236.5 890,-255.5 1009,-255.5 1009,-236.5 890,-236.5"/>
<text text-anchor="middle" x="949.5" y="-243.5" font-family="Helvetica,sans-Serif" font-size="10.00">NavEKF3::UpdateFilter</text>
</a>
</g>
</g>
<!-- Node25&#45;&gt;Node26 -->
<g id="edge31" class="edge"><title>Node25&#45;&gt;Node26</title>
<path fill="none" stroke="midnightblue" d="M862.372,-254.767C871.669,-253.821 881.01,-252.87 889.932,-251.962"/>
<polygon fill="midnightblue" stroke="midnightblue" points="861.917,-251.296 852.323,-255.79 862.626,-258.26 861.917,-251.296"/>
</g>
<!-- Node26&#45;&gt;Node22 -->
<g id="edge32" class="edge"><title>Node26&#45;&gt;Node22</title>
<path fill="none" stroke="midnightblue" d="M1019.2,-246C1028.22,-246 1037.55,-246 1046.79,-246"/>
<polygon fill="midnightblue" stroke="midnightblue" points="1019.18,-242.5 1009.18,-246 1019.18,-249.5 1019.18,-242.5"/>
</g>
<!-- Node26&#45;&gt;Node23 -->
<g id="edge33" class="edge"><title>Node26&#45;&gt;Node23</title>
<path fill="none" stroke="midnightblue" d="M1006.29,-234.319C1032.03,-228.93 1062.2,-222.614 1086.53,-217.52"/>
<polygon fill="midnightblue" stroke="midnightblue" points="1005.37,-230.936 996.3,-236.411 1006.81,-237.787 1005.37,-230.936"/>
</g>
<!-- Node27&#45;&gt;Node13 -->
<g id="edge43" class="edge"><title>Node27&#45;&gt;Node13</title>
<path fill="none" stroke="midnightblue" d="M665.79,-25.7764C680.005,-23.2541 694.968,-20.8332 709,-19 814.879,-5.16717 841.721,-0 948.5,-0 948.5,-0 948.5,-0 1134,-0 1252.18,-0 1282.23,-3.77664 1399,-22 1410.69,-23.8251 1423.12,-26.3169 1434.91,-28.9468"/>
<polygon fill="midnightblue" stroke="midnightblue" points="664.812,-22.3966 655.596,-27.624 666.06,-29.2844 664.812,-22.3966"/>
</g>
<!-- Node28 -->
<g id="node28" class="node"><title>Node28</title>
<g id="a_node28"><a xlink:href="classNavEKF2.html#a124df957952b2cb0c04e4318a173f67a" target="_top" xlink:title="NavEKF2::check_log\l_write">
<polygon fill="white" stroke="black" points="725.5,-29 725.5,-59 835.5,-59 835.5,-29 725.5,-29"/>
<text text-anchor="start" x="733.5" y="-47" font-family="Helvetica,sans-Serif" font-size="10.00">NavEKF2::check_log</text>
<text text-anchor="middle" x="780.5" y="-36" font-family="Helvetica,sans-Serif" font-size="10.00">_write</text>
</a>
</g>
</g>
<!-- Node27&#45;&gt;Node28 -->
<g id="edge35" class="edge"><title>Node27&#45;&gt;Node28</title>
<path fill="none" stroke="midnightblue" d="M666.018,-40.8477C685.572,-41.3909 706.716,-41.9782 725.394,-42.4971"/>
<polygon fill="midnightblue" stroke="midnightblue" points="666.053,-37.3474 655.959,-40.5683 665.858,-44.3447 666.053,-37.3474"/>
</g>
<!-- Node29 -->
<g id="node29" class="node"><title>Node29</title>
<g id="a_node29"><a xlink:href="classNavEKF3.html#afa5a1b626563d35ad95545e8f056214b" target="_top" xlink:title="NavEKF3::check_log\l_write">
<polygon fill="white" stroke="black" points="725.5,-204 725.5,-234 835.5,-234 835.5,-204 725.5,-204"/>
<text text-anchor="start" x="733.5" y="-222" font-family="Helvetica,sans-Serif" font-size="10.00">NavEKF3::check_log</text>
<text text-anchor="middle" x="780.5" y="-211" font-family="Helvetica,sans-Serif" font-size="10.00">_write</text>
</a>
</g>
</g>
<!-- Node27&#45;&gt;Node29 -->
<g id="edge39" class="edge"><title>Node27&#45;&gt;Node29</title>
<path fill="none" stroke="midnightblue" d="M664.33,-55.6931C667.468,-57.841 670.392,-60.2648 673,-63 714.671,-106.696 667.882,-149.783 709,-194 713.599,-198.945 719.238,-202.913 725.305,-206.096"/>
<polygon fill="midnightblue" stroke="midnightblue" points="665.998,-52.6148 655.591,-50.6277 662.487,-58.6709 665.998,-52.6148"/>
</g>
<!-- Node28&#45;&gt;Node5 -->
<g id="edge36" class="edge"><title>Node28&#45;&gt;Node5</title>
<path fill="none" stroke="midnightblue" d="M840.73,-63.0592C844.623,-64.902 848.415,-66.8818 852,-69 870.43,-79.8905 869.614,-90.0359 888,-101 896.351,-105.98 906.014,-110.116 915.132,-113.407"/>
<polygon fill="midnightblue" stroke="midnightblue" points="842.081,-59.8299 831.519,-59.0073 839.263,-66.2374 842.081,-59.8299"/>
</g>
<!-- Node28&#45;&gt;Node11 -->
<g id="edge38" class="edge"><title>Node28&#45;&gt;Node11</title>
<path fill="none" stroke="midnightblue" d="M846.043,-44C911.284,-44 1011.19,-44 1073.99,-44"/>
<polygon fill="midnightblue" stroke="midnightblue" points="845.881,-40.5001 835.881,-44 845.881,-47.5001 845.881,-40.5001"/>
</g>
<!-- Node28&#45;&gt;Node17 -->
<g id="edge37" class="edge"><title>Node28&#45;&gt;Node17</title>
<path fill="none" stroke="midnightblue" d="M845.622,-58.5907C866.111,-63.2528 888.247,-68.2896 906.717,-72.4926"/>
<polygon fill="midnightblue" stroke="midnightblue" points="846.247,-55.1436 835.72,-56.3375 844.694,-61.9691 846.247,-55.1436"/>
</g>
<!-- Node29&#45;&gt;Node21 -->
<g id="edge40" class="edge"><title>Node29&#45;&gt;Node21</title>
<path fill="none" stroke="midnightblue" d="M842.699,-201.043C867.571,-193.746 895.291,-185.612 916.116,-179.502"/>
<polygon fill="midnightblue" stroke="midnightblue" points="841.578,-197.725 832.968,-203.899 843.549,-204.441 841.578,-197.725"/>
</g>
<!-- Node29&#45;&gt;Node23 -->
<g id="edge42" class="edge"><title>Node29&#45;&gt;Node23</title>
<path fill="none" stroke="midnightblue" d="M846.043,-216.974C911.284,-214.927 1011.19,-211.792 1073.99,-209.821"/>
<polygon fill="midnightblue" stroke="midnightblue" points="845.766,-213.481 835.881,-217.293 845.986,-220.478 845.766,-213.481"/>
</g>
<!-- Node29&#45;&gt;Node26 -->
<g id="edge41" class="edge"><title>Node29&#45;&gt;Node26</title>
<path fill="none" stroke="midnightblue" d="M845.65,-229.372C860.219,-231.727 875.62,-234.217 889.943,-236.533"/>
<polygon fill="midnightblue" stroke="midnightblue" points="846.151,-225.907 835.72,-227.766 845.033,-232.817 846.151,-225.907"/>
</g>
</g>
</svg>
