<?xml version="1.0" encoding="UTF-8" standalone="no"?>
<!DOCTYPE svg PUBLIC "-//W3C//DTD SVG 1.1//EN"
 "http://www.w3.org/Graphics/SVG/1.1/DTD/svg11.dtd">
<!-- Generated by graphviz version 2.38.0 (20140413.2041)
 -->
<!-- Title: AC_AttitudeControl_Sub::AC_AttitudeControl_Sub Pages: 1 -->
<svg width="475pt" height="94pt"
 viewBox="0.00 0.00 475.00 94.00" xmlns="http://www.w3.org/2000/svg" xmlns:xlink="http://www.w3.org/1999/xlink">
<g id="graph0" class="graph" transform="scale(1 1) rotate(0) translate(4 90)">
<title>AC_AttitudeControl_Sub::AC_AttitudeControl_Sub</title>
<polygon fill="white" stroke="none" points="-4,4 -4,-90 471,-90 471,4 -4,4"/>
<!-- Node1 -->
<g id="node1" class="node"><title>Node1</title>
<polygon fill="#bfbfbf" stroke="black" points="0,-17 0,-47 152,-47 152,-17 0,-17"/>
<text text-anchor="start" x="8" y="-35" font-family="Helvetica,sans-Serif" font-size="10.00">AC_AttitudeControl</text>
<text text-anchor="middle" x="76" y="-24" font-family="Helvetica,sans-Serif" font-size="10.00">_Sub::AC_AttitudeControl_Sub</text>
</g>
<!-- Node2 -->
<g id="node2" class="node"><title>Node2</title>
<g id="a_node2"><a xlink:href="classAP__Param.html#a5f6dcfce1c0a79cf5bd81283e22f3201" target="_top" xlink:title="AP_Param::setup_object\l_defaults">
<polygon fill="white" stroke="black" points="188,-39 188,-69 313,-69 313,-39 188,-39"/>
<text text-anchor="start" x="196" y="-57" font-family="Helvetica,sans-Serif" font-size="10.00">AP_Param::setup_object</text>
<text text-anchor="middle" x="250.5" y="-46" font-family="Helvetica,sans-Serif" font-size="10.00">_defaults</text>
</a>
</g>
</g>
<!-- Node1&#45;&gt;Node2 -->
<g id="edge1" class="edge"><title>Node1&#45;&gt;Node2</title>
<path fill="none" stroke="midnightblue" d="M152.159,-41.5855C160.615,-42.6639 169.215,-43.7608 177.628,-44.8337"/>
<polygon fill="midnightblue" stroke="midnightblue" points="177.411,-48.3343 187.774,-46.1276 178.297,-41.3906 177.411,-48.3343"/>
</g>
<!-- Node5 -->
<g id="node5" class="node"><title>Node5</title>
<g id="a_node5"><a xlink:href="classAC__P.html#a723b372dfceb74ddb2edbe11544e9d5a" target="_top" xlink:title="AC_P::kP">
<polygon fill="white" stroke="black" points="220,-0.5 220,-19.5 281,-19.5 281,-0.5 220,-0.5"/>
<text text-anchor="middle" x="250.5" y="-7.5" font-family="Helvetica,sans-Serif" font-size="10.00">AC_P::kP</text>
</a>
</g>
</g>
<!-- Node1&#45;&gt;Node5 -->
<g id="edge4" class="edge"><title>Node1&#45;&gt;Node5</title>
<path fill="none" stroke="midnightblue" d="M152.159,-22.4145C172.008,-19.883 192.655,-17.2498 209.798,-15.0635"/>
<polygon fill="midnightblue" stroke="midnightblue" points="210.504,-18.5018 219.981,-13.7647 209.619,-11.5581 210.504,-18.5018"/>
</g>
<!-- Node3 -->
<g id="node3" class="node"><title>Node3</title>
<g id="a_node3"><a xlink:href="classAP__Param.html#acd4b14f793c37f162e298761d2155ca6" target="_top" xlink:title="AP_Param::set_value">
<polygon fill="white" stroke="black" points="352,-66.5 352,-85.5 464,-85.5 464,-66.5 352,-66.5"/>
<text text-anchor="middle" x="408" y="-73.5" font-family="Helvetica,sans-Serif" font-size="10.00">AP_Param::set_value</text>
</a>
</g>
</g>
<!-- Node2&#45;&gt;Node3 -->
<g id="edge2" class="edge"><title>Node2&#45;&gt;Node3</title>
<path fill="none" stroke="midnightblue" d="M313.405,-62.7582C322.734,-64.0782 332.382,-65.4431 341.779,-66.7725"/>
<polygon fill="midnightblue" stroke="midnightblue" points="341.458,-70.262 351.85,-68.1974 342.439,-63.331 341.458,-70.262"/>
</g>
<!-- Node4 -->
<g id="node4" class="node"><title>Node4</title>
<g id="a_node4"><a xlink:href="classAP__Param.html#a7535a9b529dae326dcebb6be33dbbe9a" target="_top" xlink:title="AP_Param::get_default\l_value">
<polygon fill="white" stroke="black" points="349,-17 349,-47 467,-47 467,-17 349,-17"/>
<text text-anchor="start" x="357" y="-35" font-family="Helvetica,sans-Serif" font-size="10.00">AP_Param::get_default</text>
<text text-anchor="middle" x="408" y="-24" font-family="Helvetica,sans-Serif" font-size="10.00">_value</text>
</a>
</g>
</g>
<!-- Node2&#45;&gt;Node4 -->
<g id="edge3" class="edge"><title>Node2&#45;&gt;Node4</title>
<path fill="none" stroke="midnightblue" d="M313.405,-45.2418C321.714,-44.0662 330.275,-42.8549 338.687,-41.6648"/>
<polygon fill="midnightblue" stroke="midnightblue" points="339.436,-45.0938 348.847,-40.2274 338.455,-38.1629 339.436,-45.0938"/>
</g>
</g>
</svg>
