<?xml version="1.0" encoding="UTF-8" standalone="no"?>
<!DOCTYPE svg PUBLIC "-//W3C//DTD SVG 1.1//EN"
 "http://www.w3.org/Graphics/SVG/1.1/DTD/svg11.dtd">
<!-- Generated by graphviz version 2.38.0 (20140413.2041)
 -->
<!-- Title: AP_AHRS_DCM::get_gyro_drift Pages: 1 -->
<svg width="705pt" height="71pt"
 viewBox="0.00 0.00 705.00 70.71" xmlns="http://www.w3.org/2000/svg" xmlns:xlink="http://www.w3.org/1999/xlink">
<g id="graph0" class="graph" transform="scale(1 1) rotate(0) translate(4 66.7106)">
<title>AP_AHRS_DCM::get_gyro_drift</title>
<polygon fill="white" stroke="none" points="-4,4 -4,-66.7106 701,-66.7106 701,4 -4,4"/>
<!-- Node1 -->
<g id="node1" class="node"><title>Node1</title>
<polygon fill="#bfbfbf" stroke="black" points="0,-18.0914 0,-48.0914 136,-48.0914 136,-18.0914 0,-18.0914"/>
<text text-anchor="start" x="8" y="-36.0914" font-family="Helvetica,sans-Serif" font-size="10.00">AP_AHRS_DCM::get_gyro</text>
<text text-anchor="middle" x="68" y="-25.0914" font-family="Helvetica,sans-Serif" font-size="10.00">_drift</text>
</g>
<!-- Node2 -->
<g id="node2" class="node"><title>Node2</title>
<g id="a_node2"><a xlink:href="classAP__AHRS__NavEKF.html#a355d8890ddfaadaa9d8f694f780afbe6" target="_top" xlink:title="AP_AHRS_NavEKF::get\l_gyro_drift">
<polygon fill="white" stroke="black" points="172,-18.0914 172,-48.0914 298,-48.0914 298,-18.0914 172,-18.0914"/>
<text text-anchor="start" x="180" y="-36.0914" font-family="Helvetica,sans-Serif" font-size="10.00">AP_AHRS_NavEKF::get</text>
<text text-anchor="middle" x="235" y="-25.0914" font-family="Helvetica,sans-Serif" font-size="10.00">_gyro_drift</text>
</a>
</g>
</g>
<!-- Node1&#45;&gt;Node2 -->
<g id="edge1" class="edge"><title>Node1&#45;&gt;Node2</title>
<path fill="none" stroke="midnightblue" d="M146.129,-33.0914C154.712,-33.0914 163.373,-33.0914 171.738,-33.0914"/>
<polygon fill="midnightblue" stroke="midnightblue" points="146.112,-29.5915 136.112,-33.0914 146.112,-36.5915 146.112,-29.5915"/>
</g>
<!-- Node3 -->
<g id="node3" class="node"><title>Node3</title>
<g id="a_node3"><a xlink:href="classAP__AHRS__NavEKF.html#ac8111979c5dc37a55b2c50818534ea52" target="_top" xlink:title="AP_AHRS_NavEKF::update">
<polygon fill="white" stroke="black" points="484,-23.5914 484,-42.5914 626,-42.5914 626,-23.5914 484,-23.5914"/>
<text text-anchor="middle" x="555" y="-30.5914" font-family="Helvetica,sans-Serif" font-size="10.00">AP_AHRS_NavEKF::update</text>
</a>
</g>
</g>
<!-- Node2&#45;&gt;Node3 -->
<g id="edge2" class="edge"><title>Node2&#45;&gt;Node3</title>
<path fill="none" stroke="midnightblue" d="M294.942,-50.6562C307.707,-53.7473 321.215,-56.4864 334,-58.0914 384.272,-64.4026 397.673,-63.9459 448,-58.0914 473.167,-55.1638 501.029,-48.4513 521.871,-42.7184"/>
<polygon fill="midnightblue" stroke="midnightblue" points="295.444,-47.1731 284.891,-48.1166 293.729,-53.9598 295.444,-47.1731"/>
</g>
<!-- Node4 -->
<g id="node4" class="node"><title>Node4</title>
<g id="a_node4"><a xlink:href="AHRS__Test_8cpp.html#a0b33edabd7f1c4e4a0bf32c67269be2f" target="_top" xlink:title="loop">
<polygon fill="white" stroke="black" points="662,-1.59137 662,-20.5914 697,-20.5914 697,-1.59137 662,-1.59137"/>
<text text-anchor="middle" x="679.5" y="-8.59137" font-family="Helvetica,sans-Serif" font-size="10.00">loop</text>
</a>
</g>
</g>
<!-- Node2&#45;&gt;Node4 -->
<g id="edge4" class="edge"><title>Node2&#45;&gt;Node4</title>
<path fill="none" stroke="midnightblue" d="M294.942,-15.5266C307.707,-12.4355 321.215,-9.69638 334,-8.09137 459.219,7.62871 612.054,-4.60279 661.916,-9.38867"/>
<polygon fill="midnightblue" stroke="midnightblue" points="293.729,-12.223 284.891,-18.0661 295.444,-19.0097 293.729,-12.223"/>
</g>
<!-- Node5 -->
<g id="node5" class="node"><title>Node5</title>
<g id="a_node5"><a xlink:href="classAP__Module.html#a9b4f06b2556a122f11b92b7b29d462c4" target="_top" xlink:title="AP_Module::call_hook\l_AHRS_update">
<polygon fill="white" stroke="black" points="334,-18.0914 334,-48.0914 448,-48.0914 448,-18.0914 334,-18.0914"/>
<text text-anchor="start" x="342" y="-36.0914" font-family="Helvetica,sans-Serif" font-size="10.00">AP_Module::call_hook</text>
<text text-anchor="middle" x="391" y="-25.0914" font-family="Helvetica,sans-Serif" font-size="10.00">_AHRS_update</text>
</a>
</g>
</g>
<!-- Node2&#45;&gt;Node5 -->
<g id="edge5" class="edge"><title>Node2&#45;&gt;Node5</title>
<path fill="none" stroke="midnightblue" d="M308.42,-33.0914C316.855,-33.0914 325.365,-33.0914 333.541,-33.0914"/>
<polygon fill="midnightblue" stroke="midnightblue" points="308.194,-29.5915 298.194,-33.0914 308.194,-36.5915 308.194,-29.5915"/>
</g>
<!-- Node3&#45;&gt;Node4 -->
<g id="edge3" class="edge"><title>Node3&#45;&gt;Node4</title>
<path fill="none" stroke="midnightblue" d="M618.878,-21.7991C634.744,-18.9496 650.465,-16.1263 661.777,-14.0947"/>
<polygon fill="midnightblue" stroke="midnightblue" points="618.242,-18.3572 609.018,-23.5698 619.479,-25.247 618.242,-18.3572"/>
</g>
<!-- Node5&#45;&gt;Node3 -->
<g id="edge6" class="edge"><title>Node5&#45;&gt;Node3</title>
<path fill="none" stroke="midnightblue" d="M458.35,-33.0914C466.777,-33.0914 475.423,-33.0914 483.907,-33.0914"/>
<polygon fill="midnightblue" stroke="midnightblue" points="458.205,-29.5915 448.205,-33.0914 458.205,-36.5915 458.205,-29.5915"/>
</g>
</g>
</svg>
