<?xml version="1.0" encoding="UTF-8" standalone="no"?>
<!DOCTYPE svg PUBLIC "-//W3C//DTD SVG 1.1//EN"
 "http://www.w3.org/Graphics/SVG/1.1/DTD/svg11.dtd">
<!-- Generated by graphviz version 2.38.0 (20140413.2041)
 -->
<!-- Title: RC_Channel::set_control_in Pages: 1 -->
<svg width="897pt" height="142pt"
 viewBox="0.00 0.00 897.00 142.00" xmlns="http://www.w3.org/2000/svg" xmlns:xlink="http://www.w3.org/1999/xlink">
<g id="graph0" class="graph" transform="scale(1 1) rotate(0) translate(4 138)">
<title>RC_Channel::set_control_in</title>
<polygon fill="white" stroke="none" points="-4,4 -4,-138 893,-138 893,4 -4,4"/>
<!-- Node1 -->
<g id="node1" class="node"><title>Node1</title>
<polygon fill="#bfbfbf" stroke="black" points="0,-32.5 0,-51.5 140,-51.5 140,-32.5 0,-32.5"/>
<text text-anchor="middle" x="70" y="-39.5" font-family="Helvetica,sans-Serif" font-size="10.00">RC_Channel::set_control_in</text>
</g>
<!-- Node2 -->
<g id="node2" class="node"><title>Node2</title>
<g id="a_node2"><a xlink:href="classRC__Channel.html#a524b498fb675992af086140d0704290d" target="_top" xlink:title="RC_Channel::get_control\l_in_zero_dz">
<polygon fill="white" stroke="black" points="176,-27 176,-57 303,-57 303,-27 176,-27"/>
<text text-anchor="start" x="184" y="-45" font-family="Helvetica,sans-Serif" font-size="10.00">RC_Channel::get_control</text>
<text text-anchor="middle" x="239.5" y="-34" font-family="Helvetica,sans-Serif" font-size="10.00">_in_zero_dz</text>
</a>
</g>
</g>
<!-- Node1&#45;&gt;Node2 -->
<g id="edge1" class="edge"><title>Node1&#45;&gt;Node2</title>
<path fill="none" stroke="midnightblue" d="M140.096,-42C148.489,-42 157.084,-42 165.531,-42"/>
<polygon fill="midnightblue" stroke="midnightblue" points="165.736,-45.5001 175.736,-42 165.736,-38.5001 165.736,-45.5001"/>
</g>
<!-- Node3 -->
<g id="node3" class="node"><title>Node3</title>
<g id="a_node3"><a xlink:href="classRC__Channel.html#a4605a723d0f7e67bb7e9e541470999d6" target="_top" xlink:title="RC_Channel::pwm_to\l_range_dz">
<polygon fill="white" stroke="black" points="339,-52 339,-82 452,-82 452,-52 339,-52"/>
<text text-anchor="start" x="347" y="-70" font-family="Helvetica,sans-Serif" font-size="10.00">RC_Channel::pwm_to</text>
<text text-anchor="middle" x="395.5" y="-59" font-family="Helvetica,sans-Serif" font-size="10.00">_range_dz</text>
</a>
</g>
</g>
<!-- Node2&#45;&gt;Node3 -->
<g id="edge2" class="edge"><title>Node2&#45;&gt;Node3</title>
<path fill="none" stroke="midnightblue" d="M303.138,-52.1685C311.637,-53.5482 320.378,-54.9672 328.927,-56.355"/>
<polygon fill="midnightblue" stroke="midnightblue" points="328.416,-59.8179 338.848,-57.9656 329.538,-52.9083 328.416,-59.8179"/>
</g>
<!-- Node10 -->
<g id="node10" class="node"><title>Node10</title>
<g id="a_node10"><a xlink:href="classRC__Channel.html#abff1f42e3b1735cef70c8068ef272027" target="_top" xlink:title="RC_Channel::pwm_to\l_angle_dz">
<polygon fill="white" stroke="black" points="339,-3 339,-33 452,-33 452,-3 339,-3"/>
<text text-anchor="start" x="347" y="-21" font-family="Helvetica,sans-Serif" font-size="10.00">RC_Channel::pwm_to</text>
<text text-anchor="middle" x="395.5" y="-10" font-family="Helvetica,sans-Serif" font-size="10.00">_angle_dz</text>
</a>
</g>
</g>
<!-- Node2&#45;&gt;Node10 -->
<g id="edge9" class="edge"><title>Node2&#45;&gt;Node10</title>
<path fill="none" stroke="midnightblue" d="M303.138,-32.2383C311.637,-30.9138 320.378,-29.5515 328.927,-28.2192"/>
<polygon fill="midnightblue" stroke="midnightblue" points="329.506,-31.6712 338.848,-26.673 328.428,-24.7547 329.506,-31.6712"/>
</g>
<!-- Node4 -->
<g id="node4" class="node"><title>Node4</title>
<g id="a_node4"><a xlink:href="AP__Math_8h.html#a68558c4f79a8582543daefde13c64abc" target="_top" xlink:title="constrain_int16">
<polygon fill="white" stroke="black" points="503,-57.5 503,-76.5 586,-76.5 586,-57.5 503,-57.5"/>
<text text-anchor="middle" x="544.5" y="-64.5" font-family="Helvetica,sans-Serif" font-size="10.00">constrain_int16</text>
</a>
</g>
</g>
<!-- Node3&#45;&gt;Node4 -->
<g id="edge3" class="edge"><title>Node3&#45;&gt;Node4</title>
<path fill="none" stroke="midnightblue" d="M452.074,-67C465.418,-67 479.602,-67 492.716,-67"/>
<polygon fill="midnightblue" stroke="midnightblue" points="492.967,-70.5001 502.967,-67 492.967,-63.5001 492.967,-70.5001"/>
</g>
<!-- Node5 -->
<g id="node5" class="node"><title>Node5</title>
<g id="a_node5"><a xlink:href="AP__Math_8h.html#a20e8f8671c282c69c1954652b6d61585" target="_top" xlink:title="constrain_value">
<polygon fill="white" stroke="black" points="637,-57.5 637,-76.5 722,-76.5 722,-57.5 637,-57.5"/>
<text text-anchor="middle" x="679.5" y="-64.5" font-family="Helvetica,sans-Serif" font-size="10.00">constrain_value</text>
</a>
</g>
</g>
<!-- Node4&#45;&gt;Node5 -->
<g id="edge4" class="edge"><title>Node4&#45;&gt;Node5</title>
<path fill="none" stroke="midnightblue" d="M586.127,-67C598.911,-67 613.206,-67 626.659,-67"/>
<polygon fill="midnightblue" stroke="midnightblue" points="626.743,-70.5001 636.743,-67 626.743,-63.5001 626.743,-70.5001"/>
</g>
<!-- Node6 -->
<g id="node6" class="node"><title>Node6</title>
<g id="a_node6"><a xlink:href="AP__Math_8cpp.html#a37e8e901754cb9c8e53a8e3030c82c50" target="_top" xlink:title="constrain_value\&lt; int \&gt;">
<polygon fill="white" stroke="black" points="767,-114.5 767,-133.5 880,-133.5 880,-114.5 767,-114.5"/>
<text text-anchor="middle" x="823.5" y="-121.5" font-family="Helvetica,sans-Serif" font-size="10.00">constrain_value&lt; int &gt;</text>
</a>
</g>
</g>
<!-- Node5&#45;&gt;Node6 -->
<g id="edge5" class="edge"><title>Node5&#45;&gt;Node6</title>
<path fill="none" stroke="midnightblue" d="M697.97,-76.6284C713.432,-84.891 736.774,-96.7384 758,-105 763.854,-107.278 770.097,-109.439 776.307,-111.429"/>
<polygon fill="midnightblue" stroke="midnightblue" points="775.389,-114.809 785.977,-114.411 777.452,-108.12 775.389,-114.809"/>
</g>
<!-- Node7 -->
<g id="node7" class="node"><title>Node7</title>
<g id="a_node7"><a xlink:href="AP__Math_8cpp.html#afdbe107ec1987d318a6347816fbf2b89" target="_top" xlink:title="constrain_value\&lt; short \&gt;">
<polygon fill="white" stroke="black" points="761,-76.5 761,-95.5 886,-95.5 886,-76.5 761,-76.5"/>
<text text-anchor="middle" x="823.5" y="-83.5" font-family="Helvetica,sans-Serif" font-size="10.00">constrain_value&lt; short &gt;</text>
</a>
</g>
</g>
<!-- Node5&#45;&gt;Node7 -->
<g id="edge6" class="edge"><title>Node5&#45;&gt;Node7</title>
<path fill="none" stroke="midnightblue" d="M722.337,-72.5979C731.323,-73.8003 741.064,-75.1036 750.821,-76.4092"/>
<polygon fill="midnightblue" stroke="midnightblue" points="750.589,-79.9093 760.965,-77.7665 751.518,-72.9711 750.589,-79.9093"/>
</g>
<!-- Node8 -->
<g id="node8" class="node"><title>Node8</title>
<g id="a_node8"><a xlink:href="AP__Math_8cpp.html#ae6c621670c214da687de21d4e3a92587" target="_top" xlink:title="constrain_value\&lt; float \&gt;">
<polygon fill="white" stroke="black" points="762.5,-38.5 762.5,-57.5 884.5,-57.5 884.5,-38.5 762.5,-38.5"/>
<text text-anchor="middle" x="823.5" y="-45.5" font-family="Helvetica,sans-Serif" font-size="10.00">constrain_value&lt; float &gt;</text>
</a>
</g>
</g>
<!-- Node5&#45;&gt;Node8 -->
<g id="edge7" class="edge"><title>Node5&#45;&gt;Node8</title>
<path fill="none" stroke="midnightblue" d="M722.337,-61.4021C731.724,-60.146 741.935,-58.7798 752.129,-57.4159"/>
<polygon fill="midnightblue" stroke="midnightblue" points="752.838,-60.8522 762.286,-56.0568 751.91,-53.9141 752.838,-60.8522"/>
</g>
<!-- Node9 -->
<g id="node9" class="node"><title>Node9</title>
<g id="a_node9"><a xlink:href="AP__Math_8cpp.html#afe3990b00e9abc43fa97dfaf8e32f5c4" target="_top" xlink:title="constrain_value\&lt; double \&gt;">
<polygon fill="white" stroke="black" points="758,-0.5 758,-19.5 889,-19.5 889,-0.5 758,-0.5"/>
<text text-anchor="middle" x="823.5" y="-7.5" font-family="Helvetica,sans-Serif" font-size="10.00">constrain_value&lt; double &gt;</text>
</a>
</g>
</g>
<!-- Node5&#45;&gt;Node9 -->
<g id="edge8" class="edge"><title>Node5&#45;&gt;Node9</title>
<path fill="none" stroke="midnightblue" d="M697.97,-57.3716C713.432,-49.109 736.774,-37.2616 758,-29 763.854,-26.7215 770.097,-24.5614 776.307,-22.5705"/>
<polygon fill="midnightblue" stroke="midnightblue" points="777.452,-25.88 785.977,-19.5887 775.389,-19.1908 777.452,-25.88"/>
</g>
<!-- Node11 -->
<g id="node11" class="node"><title>Node11</title>
<g id="a_node11"><a xlink:href="classRC__Channel.html#a59cc8a34225be7627bb9aead4d719b24" target="_top" xlink:title="RC_Channel::pwm_to\l_angle_dz_trim">
<polygon fill="white" stroke="black" points="488,-3 488,-33 601,-33 601,-3 488,-3"/>
<text text-anchor="start" x="496" y="-21" font-family="Helvetica,sans-Serif" font-size="10.00">RC_Channel::pwm_to</text>
<text text-anchor="middle" x="544.5" y="-10" font-family="Helvetica,sans-Serif" font-size="10.00">_angle_dz_trim</text>
</a>
</g>
</g>
<!-- Node10&#45;&gt;Node11 -->
<g id="edge10" class="edge"><title>Node10&#45;&gt;Node11</title>
<path fill="none" stroke="midnightblue" d="M452.074,-18C460.489,-18 469.238,-18 477.842,-18"/>
<polygon fill="midnightblue" stroke="midnightblue" points="477.847,-21.5001 487.847,-18 477.847,-14.5001 477.847,-21.5001"/>
</g>
</g>
</svg>
