<?xml version="1.0" encoding="UTF-8" standalone="no"?>
<!DOCTYPE svg PUBLIC "-//W3C//DTD SVG 1.1//EN"
 "http://www.w3.org/Graphics/SVG/1.1/DTD/svg11.dtd">
<!-- Generated by graphviz version 2.38.0 (20140413.2041)
 -->
<!-- Title: AP_Mission::mission_cmd_to_mavlink_int Pages: 1 -->
<!--zoomable 137 -->
<svg id="main" version="1.1" xmlns="http://www.w3.org/2000/svg" xmlns:xlink="http://www.w3.org/1999/xlink" xml:space="preserve" onload="init(evt)">
<style type="text/css"><![CDATA[
.edge:hover path { stroke: red; }
.edge:hover polygon { stroke: red; fill: red; }
]]></style>
<script type="text/javascript"><![CDATA[
var edges = document.getElementsByTagName('g');
if (edges && edges.length) {
  for (var i=0;i<edges.length;i++) {
    if (edges[i].id.substr(0,4)=='edge') {
      edges[i].setAttribute('class','edge');
    }
  }
}
]]></script>
        <defs>
                <circle id="rim" cx="0" cy="0" r="7"/>
                <circle id="rim2" cx="0" cy="0" r="3.5"/>
                <g id="zoomPlus">
                        <use xlink:href="#rim" fill="#404040">
                                <set attributeName="fill" to="#808080" begin="zoomplus.mouseover" end="zoomplus.mouseout"/>
                        </use>
                        <path d="M-4,0h8M0,-4v8" fill="none" stroke="white" stroke-width="1.5" pointer-events="none"/>
                </g>
                <g id="zoomMin">
                        <use xlink:href="#rim" fill="#404040">
                                <set attributeName="fill" to="#808080" begin="zoomminus.mouseover" end="zoomminus.mouseout"/>
                        </use>
                        <path d="M-4,0h8" fill="none" stroke="white" stroke-width="1.5" pointer-events="none"/>
                </g>
                <g id="dirArrow">
                        <path fill="none" stroke="white" stroke-width="1.5" d="M0,-3.0v7 M-2.5,-0.5L0,-3.0L2.5,-0.5"/>
                </g>
               <g id="resetDef">
                       <use xlink:href="#rim2" fill="#404040">
                               <set attributeName="fill" to="#808080" begin="reset.mouseover" end="reset.mouseout"/>
                       </use>
               </g>
        </defs>

<script type="text/javascript">
var viewWidth = 956;
var viewHeight = 137;
var sectionId = 'dynsection-45';
</script>
<script xlink:href="svgpan.js"/>
<svg id="graph" class="graph">
<g id="viewport">
<title>AP_Mission::mission_cmd_to_mavlink_int</title>
<polygon fill="white" stroke="none" points="-4,4 -4,-133 952,-133 952,4 -4,4"/>
<!-- Node1 -->
<g id="node1" class="node"><title>Node1</title>
<polygon fill="#bfbfbf" stroke="black" points="0,-49.5 0,-79.5 109,-79.5 109,-49.5 0,-49.5"/>
<text text-anchor="start" x="8" y="-67.5" font-family="Helvetica,sans-Serif" font-size="10.00">AP_Mission::mission</text>
<text text-anchor="middle" x="54.5" y="-56.5" font-family="Helvetica,sans-Serif" font-size="10.00">_cmd_to_mavlink_int</text>
</g>
<!-- Node2 -->
<g id="node2" class="node"><title>Node2</title>
<g id="a_node2"><a xlink:href="classAP__Mission.html#abf0a05bca7e8ec89b416f7b04877c40c" target="_top" xlink:title="get_current_do_cmd &#45; returns active &quot;do&quot; command ">
<polygon fill="white" stroke="black" points="291,-98.5 291,-128.5 415,-128.5 415,-98.5 291,-98.5"/>
<text text-anchor="start" x="299" y="-116.5" font-family="Helvetica,sans-Serif" font-size="10.00">AP_Mission::get_current</text>
<text text-anchor="middle" x="353" y="-105.5" font-family="Helvetica,sans-Serif" font-size="10.00">_do_cmd</text>
</a>
</g>
</g>
<!-- Node1&#45;&gt;Node2 -->
<g id="edge1" class="edge"><title>Node1&#45;&gt;Node2</title>
<path fill="none" stroke="midnightblue" d="M116.553,-82.1053C126.026,-84.4787 135.739,-86.7085 145,-88.5 193.689,-97.9191 249.549,-104.417 290.96,-108.422"/>
<polygon fill="midnightblue" stroke="midnightblue" points="117.354,-78.6974 106.797,-79.5923 115.608,-85.4762 117.354,-78.6974"/>
</g>
<!-- Node3 -->
<g id="node3" class="node"><title>Node3</title>
<g id="a_node3"><a xlink:href="classGCS__MAVLINK.html#a3904d7894979bcbdc58083f39b1aa8da" target="_top" xlink:title="GCS_MAVLINK::handle\l_mission_request">
<polygon fill="white" stroke="black" points="292,-0.5 292,-30.5 414,-30.5 414,-0.5 292,-0.5"/>
<text text-anchor="start" x="300" y="-18.5" font-family="Helvetica,sans-Serif" font-size="10.00">GCS_MAVLINK::handle</text>
<text text-anchor="middle" x="353" y="-7.5" font-family="Helvetica,sans-Serif" font-size="10.00">_mission_request</text>
</a>
</g>
</g>
<!-- Node1&#45;&gt;Node3 -->
<g id="edge2" class="edge"><title>Node1&#45;&gt;Node3</title>
<path fill="none" stroke="midnightblue" d="M113.719,-46.8164C124.071,-44.08 134.803,-41.5025 145,-39.5 193.99,-29.8796 250.315,-23.657 291.83,-19.9646"/>
<polygon fill="midnightblue" stroke="midnightblue" points="112.671,-43.4741 103.94,-49.4751 114.508,-50.2289 112.671,-43.4741"/>
</g>
<!-- Node4 -->
<g id="node4" class="node"><title>Node4</title>
<g id="a_node4"><a xlink:href="classAP__Mission.html#a47a4c5ef589ff9050cb9f80506ad9746" target="_top" xlink:title="AP_Mission::mission\l_cmd_to_mavlink">
<polygon fill="white" stroke="black" points="145,-49.5 145,-79.5 254,-79.5 254,-49.5 145,-49.5"/>
<text text-anchor="start" x="153" y="-67.5" font-family="Helvetica,sans-Serif" font-size="10.00">AP_Mission::mission</text>
<text text-anchor="middle" x="199.5" y="-56.5" font-family="Helvetica,sans-Serif" font-size="10.00">_cmd_to_mavlink</text>
</a>
</g>
</g>
<!-- Node1&#45;&gt;Node4 -->
<g id="edge3" class="edge"><title>Node1&#45;&gt;Node4</title>
<path fill="none" stroke="midnightblue" d="M119.324,-64.5C127.745,-64.5 136.31,-64.5 144.545,-64.5"/>
<polygon fill="midnightblue" stroke="midnightblue" points="119.155,-61.0001 109.155,-64.5 119.155,-68.0001 119.155,-61.0001"/>
</g>
<!-- Node4&#45;&gt;Node2 -->
<g id="edge4" class="edge"><title>Node4&#45;&gt;Node2</title>
<path fill="none" stroke="midnightblue" d="M256.954,-82.7591C272.933,-87.9273 290.14,-93.4924 305.463,-98.4484"/>
<polygon fill="midnightblue" stroke="midnightblue" points="257.783,-79.3487 247.191,-79.6014 255.629,-86.009 257.783,-79.3487"/>
</g>
<!-- Node4&#45;&gt;Node3 -->
<g id="edge5" class="edge"><title>Node4&#45;&gt;Node3</title>
<path fill="none" stroke="midnightblue" d="M256.954,-46.2409C272.933,-41.0727 290.14,-35.5076 305.463,-30.5516"/>
<polygon fill="midnightblue" stroke="midnightblue" points="255.629,-42.991 247.191,-49.3986 257.783,-49.6513 255.629,-42.991"/>
</g>
<!-- Node5 -->
<g id="node5" class="node"><title>Node5</title>
<g id="a_node5"><a xlink:href="classDataFlash__Backend.html#a570580fce5fc1f96a9cfd6bb75dd8705" target="_top" xlink:title="DataFlash_Backend::\lLog_Write_Mission_Cmd">
<polygon fill="white" stroke="black" points="290,-49.5 290,-79.5 416,-79.5 416,-49.5 290,-49.5"/>
<text text-anchor="start" x="298" y="-67.5" font-family="Helvetica,sans-Serif" font-size="10.00">DataFlash_Backend::</text>
<text text-anchor="middle" x="353" y="-56.5" font-family="Helvetica,sans-Serif" font-size="10.00">Log_Write_Mission_Cmd</text>
</a>
</g>
</g>
<!-- Node4&#45;&gt;Node5 -->
<g id="edge6" class="edge"><title>Node4&#45;&gt;Node5</title>
<path fill="none" stroke="midnightblue" d="M264.452,-64.5C272.847,-64.5 281.439,-64.5 289.804,-64.5"/>
<polygon fill="midnightblue" stroke="midnightblue" points="264.34,-61.0001 254.34,-64.5 264.34,-68.0001 264.34,-61.0001"/>
</g>
<!-- Node6 -->
<g id="node6" class="node"><title>Node6</title>
<g id="a_node6"><a xlink:href="classDataFlash__Backend.html#acc06500874549df2b2567f069176506e" target="_top" xlink:title="DataFlash_Backend::\lremote_log_block_status_msg">
<polygon fill="white" stroke="black" points="799,-49.5 799,-79.5 948,-79.5 948,-49.5 799,-49.5"/>
<text text-anchor="start" x="807" y="-67.5" font-family="Helvetica,sans-Serif" font-size="10.00">DataFlash_Backend::</text>
<text text-anchor="middle" x="873.5" y="-56.5" font-family="Helvetica,sans-Serif" font-size="10.00">remote_log_block_status_msg</text>
</a>
</g>
</g>
<!-- Node5&#45;&gt;Node6 -->
<g id="edge7" class="edge"><title>Node5&#45;&gt;Node6</title>
<path fill="none" stroke="midnightblue" d="M426.315,-66.1425C434.97,-66.2898 443.683,-66.4151 452,-66.5 590.215,-67.9102 624.784,-67.7621 763,-66.5 774.598,-66.3941 786.886,-66.2251 798.876,-66.0291"/>
<polygon fill="midnightblue" stroke="midnightblue" points="426.27,-62.6412 416.208,-65.9606 426.144,-69.6401 426.27,-62.6412"/>
</g>
<!-- Node7 -->
<g id="node7" class="node"><title>Node7</title>
<g id="a_node7"><a xlink:href="classDFMessageWriter__WriteEntireMission.html#a157afd1587cb4756d21bfd04bd64fdd1" target="_top" xlink:title="DFMessageWriter_WriteEntire\lMission::process">
<polygon fill="white" stroke="black" points="452,-27.5 452,-57.5 602,-57.5 602,-27.5 452,-27.5"/>
<text text-anchor="start" x="460" y="-45.5" font-family="Helvetica,sans-Serif" font-size="10.00">DFMessageWriter_WriteEntire</text>
<text text-anchor="middle" x="527" y="-34.5" font-family="Helvetica,sans-Serif" font-size="10.00">Mission::process</text>
</a>
</g>
</g>
<!-- Node5&#45;&gt;Node7 -->
<g id="edge8" class="edge"><title>Node5&#45;&gt;Node7</title>
<path fill="none" stroke="midnightblue" d="M426.049,-55.2844C434.621,-54.188 443.382,-53.0674 451.98,-51.9676"/>
<polygon fill="midnightblue" stroke="midnightblue" points="425.571,-51.817 416.096,-56.5575 426.459,-58.7604 425.571,-51.817"/>
</g>
<!-- Node8 -->
<g id="node8" class="node"><title>Node8</title>
<g id="a_node8"><a xlink:href="classDataFlash__Backend.html#a2cf7e12a43bb8ebf9aa3ea073e544f40" target="_top" xlink:title="DataFlash_Backend::\lLog_Write_EntireMission">
<polygon fill="white" stroke="black" points="638,-27.5 638,-57.5 763,-57.5 763,-27.5 638,-27.5"/>
<text text-anchor="start" x="646" y="-45.5" font-family="Helvetica,sans-Serif" font-size="10.00">DataFlash_Backend::</text>
<text text-anchor="middle" x="700.5" y="-34.5" font-family="Helvetica,sans-Serif" font-size="10.00">Log_Write_EntireMission</text>
</a>
</g>
</g>
<!-- Node7&#45;&gt;Node8 -->
<g id="edge9" class="edge"><title>Node7&#45;&gt;Node8</title>
<path fill="none" stroke="midnightblue" d="M612.281,-42.5C620.873,-42.5 629.485,-42.5 637.771,-42.5"/>
<polygon fill="midnightblue" stroke="midnightblue" points="612.225,-39.0001 602.225,-42.5 612.225,-46.0001 612.225,-39.0001"/>
</g>
<!-- Node8&#45;&gt;Node6 -->
<g id="edge10" class="edge"><title>Node8&#45;&gt;Node6</title>
<path fill="none" stroke="midnightblue" d="M773.409,-51.7514C781.841,-52.8363 790.455,-53.9445 798.911,-55.0324"/>
<polygon fill="midnightblue" stroke="midnightblue" points="773.6,-48.2472 763.235,-50.4425 772.707,-55.19 773.6,-48.2472"/>
</g>
</g>
</svg>
        <g id="navigator" transform="translate(0 0)" fill="#404254">
                <rect fill="#f2f5e9" fill-opacity="0.5" stroke="#606060" stroke-width=".5" x="0" y="0" width="60" height="60"/>
                <use id="zoomplus" xlink:href="#zoomPlus" x="17" y="9" onmousedown="handleZoom(evt,'in')"/>
                <use id="zoomminus" xlink:href="#zoomMin" x="42" y="9" onmousedown="handleZoom(evt,'out')"/>
                <use id="reset" xlink:href="#resetDef" x="30" y="36" onmousedown="handleReset()"/>
                <g id="arrowUp" xlink:href="#dirArrow" transform="translate(30 24)" onmousedown="handlePan(0,-1)">
                  <use xlink:href="#rim" fill="#404040">
                        <set attributeName="fill" to="#808080" begin="arrowUp.mouseover" end="arrowUp.mouseout"/>
                  </use>
                  <path fill="none" stroke="white" stroke-width="1.5" d="M0,-3.0v7 M-2.5,-0.5L0,-3.0L2.5,-0.5"/>
                </g>
                <g id="arrowRight" xlink:href="#dirArrow" transform="rotate(90) translate(36 -43)" onmousedown="handlePan(1,0)">
                  <use xlink:href="#rim" fill="#404040">
                        <set attributeName="fill" to="#808080" begin="arrowRight.mouseover" end="arrowRight.mouseout"/>
                  </use>
                  <path fill="none" stroke="white" stroke-width="1.5" d="M0,-3.0v7 M-2.5,-0.5L0,-3.0L2.5,-0.5"/>
                </g>
                <g id="arrowDown" xlink:href="#dirArrow" transform="rotate(180) translate(-30 -48)" onmousedown="handlePan(0,1)">
                  <use xlink:href="#rim" fill="#404040">
                        <set attributeName="fill" to="#808080" begin="arrowDown.mouseover" end="arrowDown.mouseout"/>
                  </use>
                  <path fill="none" stroke="white" stroke-width="1.5" d="M0,-3.0v7 M-2.5,-0.5L0,-3.0L2.5,-0.5"/>
                </g>
                <g id="arrowLeft" xlink:href="#dirArrow" transform="rotate(270) translate(-36 17)" onmousedown="handlePan(-1,0)">
                  <use xlink:href="#rim" fill="#404040">
                        <set attributeName="fill" to="#808080" begin="arrowLeft.mouseover" end="arrowLeft.mouseout"/>
                  </use>
                  <path fill="none" stroke="white" stroke-width="1.5" d="M0,-3.0v7 M-2.5,-0.5L0,-3.0L2.5,-0.5"/>
                </g>
        </g>
        <svg viewBox="0 0 15 15" width="100%" height="30px" preserveAspectRatio="xMaxYMin meet">
         <g id="arrow_out" transform="scale(0.3 0.3)">
          <a xlink:href="classAP__Mission_a4089847656c808d9a5faf123722a089a_icgraph_org.svg" target="_base">
           <rect id="button" ry="5" rx="5" y="6" x="6" height="38" width="38"
                fill="#f2f5e9" fill-opacity="0.5" stroke="#606060" stroke-width="1.0"/>
           <path id="arrow"
             d="M 11.500037,31.436501 C 11.940474,20.09759 22.043105,11.32322 32.158766,21.979434 L 37.068811,17.246167 C 37.068811,17.246167 37.088388,32 37.088388,32 L 22.160133,31.978069 C 22.160133,31.978069 26.997745,27.140456 26.997745,27.140456 C 18.528582,18.264221 13.291696,25.230495 11.500037,31.436501 z"
             style="fill:#404040;"/>
          </a>
         </g>
        </svg>
</svg>
