<?xml version="1.0" encoding="UTF-8" standalone="no"?>
<!DOCTYPE svg PUBLIC "-//W3C//DTD SVG 1.1//EN"
 "http://www.w3.org/Graphics/SVG/1.1/DTD/svg11.dtd">
<!-- Generated by graphviz version 2.38.0 (20140413.2041)
 -->
<!-- Title: AP_AHRS_NavEKF::get_gyro_drift Pages: 1 -->
<svg width="533pt" height="97pt"
 viewBox="0.00 0.00 533.00 96.50" xmlns="http://www.w3.org/2000/svg" xmlns:xlink="http://www.w3.org/1999/xlink">
<g id="graph0" class="graph" transform="scale(1 1) rotate(0) translate(4 92.5)">
<title>AP_AHRS_NavEKF::get_gyro_drift</title>
<polygon fill="white" stroke="none" points="-4,4 -4,-92.5 529,-92.5 529,4 -4,4"/>
<!-- Node1 -->
<g id="node1" class="node"><title>Node1</title>
<polygon fill="#bfbfbf" stroke="black" points="0,-14 0,-44 126,-44 126,-14 0,-14"/>
<text text-anchor="start" x="8" y="-32" font-family="Helvetica,sans-Serif" font-size="10.00">AP_AHRS_NavEKF::get</text>
<text text-anchor="middle" x="63" y="-21" font-family="Helvetica,sans-Serif" font-size="10.00">_gyro_drift</text>
</g>
<!-- Node2 -->
<g id="node2" class="node"><title>Node2</title>
<g id="a_node2"><a xlink:href="classAP__Module.html#a9b4f06b2556a122f11b92b7b29d462c4" target="_top" xlink:title="AP_Module::call_hook\l_AHRS_update">
<polygon fill="white" stroke="black" points="162,-58 162,-88 276,-88 276,-58 162,-58"/>
<text text-anchor="start" x="170" y="-76" font-family="Helvetica,sans-Serif" font-size="10.00">AP_Module::call_hook</text>
<text text-anchor="middle" x="219" y="-65" font-family="Helvetica,sans-Serif" font-size="10.00">_AHRS_update</text>
</a>
</g>
</g>
<!-- Node1&#45;&gt;Node2 -->
<g id="edge1" class="edge"><title>Node1&#45;&gt;Node2</title>
<path fill="none" stroke="midnightblue" d="M126.341,-46.8118C139.303,-50.515 152.839,-54.3827 165.408,-57.9738"/>
<polygon fill="midnightblue" stroke="midnightblue" points="127.144,-43.4012 116.567,-44.0192 125.221,-50.1319 127.144,-43.4012"/>
</g>
<!-- Node3 -->
<g id="node3" class="node"><title>Node3</title>
<g id="a_node3"><a xlink:href="classAP__AHRS__NavEKF.html#ac8111979c5dc37a55b2c50818534ea52" target="_top" xlink:title="AP_AHRS_NavEKF::update">
<polygon fill="white" stroke="black" points="312,-19.5 312,-38.5 454,-38.5 454,-19.5 312,-19.5"/>
<text text-anchor="middle" x="383" y="-26.5" font-family="Helvetica,sans-Serif" font-size="10.00">AP_AHRS_NavEKF::update</text>
</a>
</g>
</g>
<!-- Node1&#45;&gt;Node3 -->
<g id="edge5" class="edge"><title>Node1&#45;&gt;Node3</title>
<path fill="none" stroke="midnightblue" d="M136.331,-29C188.911,-29 259.701,-29 311.784,-29"/>
<polygon fill="midnightblue" stroke="midnightblue" points="136.069,-25.5001 126.069,-29 136.068,-32.5001 136.069,-25.5001"/>
</g>
<!-- Node4 -->
<g id="node4" class="node"><title>Node4</title>
<g id="a_node4"><a xlink:href="AHRS__Test_8cpp.html#a0b33edabd7f1c4e4a0bf32c67269be2f" target="_top" xlink:title="loop">
<polygon fill="white" stroke="black" points="490,-0.5 490,-19.5 525,-19.5 525,-0.5 490,-0.5"/>
<text text-anchor="middle" x="507.5" y="-7.5" font-family="Helvetica,sans-Serif" font-size="10.00">loop</text>
</a>
</g>
</g>
<!-- Node1&#45;&gt;Node4 -->
<g id="edge4" class="edge"><title>Node1&#45;&gt;Node4</title>
<path fill="none" stroke="midnightblue" d="M136.055,-22.0169C185.503,-17.5842 252.658,-12.2699 312,-10 377.798,-7.48319 456.209,-8.80058 489.841,-9.5713"/>
<polygon fill="midnightblue" stroke="midnightblue" points="135.739,-18.5311 126.095,-22.9193 136.37,-25.5026 135.739,-18.5311"/>
</g>
<!-- Node2&#45;&gt;Node3 -->
<g id="edge2" class="edge"><title>Node2&#45;&gt;Node3</title>
<path fill="none" stroke="midnightblue" d="M285.157,-55.3031C306.192,-49.5899 328.71,-43.4738 346.735,-38.5783"/>
<polygon fill="midnightblue" stroke="midnightblue" points="284.031,-51.982 275.298,-57.9808 285.866,-58.7372 284.031,-51.982"/>
</g>
<!-- Node3&#45;&gt;Node4 -->
<g id="edge3" class="edge"><title>Node3&#45;&gt;Node4</title>
<path fill="none" stroke="midnightblue" d="M455.514,-17.9081C468.359,-15.9157 480.585,-14.0195 489.843,-12.5836"/>
<polygon fill="midnightblue" stroke="midnightblue" points="454.954,-14.4529 445.609,-19.4443 456.027,-21.3702 454.954,-14.4529"/>
</g>
</g>
</svg>
