<?xml version="1.0" encoding="UTF-8" standalone="no"?>
<!DOCTYPE svg PUBLIC "-//W3C//DTD SVG 1.1//EN"
 "http://www.w3.org/Graphics/SVG/1.1/DTD/svg11.dtd">
<!-- Generated by graphviz version 2.38.0 (20140413.2041)
 -->
<!-- Title: AP_HAL::Util::get_system_clock_ms Pages: 1 -->
<svg width="310pt" height="78pt"
 viewBox="0.00 0.00 310.00 77.50" xmlns="http://www.w3.org/2000/svg" xmlns:xlink="http://www.w3.org/1999/xlink">
<g id="graph0" class="graph" transform="scale(1 1) rotate(0) translate(4 73.5)">
<title>AP_HAL::Util::get_system_clock_ms</title>
<polygon fill="white" stroke="none" points="-4,4 -4,-73.5 306,-73.5 306,4 -4,4"/>
<!-- Node1 -->
<g id="node1" class="node"><title>Node1</title>
<polygon fill="#bfbfbf" stroke="black" points="0,-17 0,-47 133,-47 133,-17 0,-17"/>
<text text-anchor="start" x="8" y="-35" font-family="Helvetica,sans-Serif" font-size="10.00">AP_HAL::Util::get_system</text>
<text text-anchor="middle" x="66.5" y="-24" font-family="Helvetica,sans-Serif" font-size="10.00">_clock_ms</text>
</g>
<!-- Node2 -->
<g id="node2" class="node"><title>Node2</title>
<g id="a_node2"><a xlink:href="classAP__HAL_1_1Util.html#abc3f6ff35795bcddc6d2f61480cb86e2" target="_top" xlink:title="AP_HAL::Util::set_system\l_clock">
<polygon fill="white" stroke="black" points="169,-39 169,-69 302,-69 302,-39 169,-39"/>
<text text-anchor="start" x="177" y="-57" font-family="Helvetica,sans-Serif" font-size="10.00">AP_HAL::Util::set_system</text>
<text text-anchor="middle" x="235.5" y="-46" font-family="Helvetica,sans-Serif" font-size="10.00">_clock</text>
</a>
</g>
</g>
<!-- Node1&#45;&gt;Node2 -->
<g id="edge1" class="edge"><title>Node1&#45;&gt;Node2</title>
<path fill="none" stroke="midnightblue" d="M143.066,-41.9548C151.685,-43.0902 160.417,-44.2406 168.891,-45.3569"/>
<polygon fill="midnightblue" stroke="midnightblue" points="143.395,-38.468 133.024,-40.6318 142.481,-45.408 143.395,-38.468"/>
</g>
<!-- Node3 -->
<g id="node3" class="node"><title>Node3</title>
<g id="a_node3"><a xlink:href="classAP__Stats.html#a10f2e48b57e00d1b7c8bb9729a1d6e00" target="_top" xlink:title="AP_Stats::update">
<polygon fill="white" stroke="black" points="188.5,-0.5 188.5,-19.5 282.5,-19.5 282.5,-0.5 188.5,-0.5"/>
<text text-anchor="middle" x="235.5" y="-7.5" font-family="Helvetica,sans-Serif" font-size="10.00">AP_Stats::update</text>
</a>
</g>
</g>
<!-- Node1&#45;&gt;Node3 -->
<g id="edge2" class="edge"><title>Node1&#45;&gt;Node3</title>
<path fill="none" stroke="midnightblue" d="M143.121,-22.038C158.601,-19.9987 174.445,-17.9115 188.5,-16.0599"/>
<polygon fill="midnightblue" stroke="midnightblue" points="142.481,-18.592 133.024,-23.3682 143.395,-25.532 142.481,-18.592"/>
</g>
</g>
</svg>
