<?xml version="1.0" encoding="UTF-8" standalone="no"?>
<!DOCTYPE svg PUBLIC "-//W3C//DTD SVG 1.1//EN"
 "http://www.w3.org/Graphics/SVG/1.1/DTD/svg11.dtd">
<!-- Generated by graphviz version 2.38.0 (20140413.2041)
 -->
<!-- Title: AP_RangeFinder_trone::timer Pages: 1 -->
<svg width="446pt" height="165pt"
 viewBox="0.00 0.00 446.00 165.00" xmlns="http://www.w3.org/2000/svg" xmlns:xlink="http://www.w3.org/1999/xlink">
<g id="graph0" class="graph" transform="scale(1 1) rotate(0) translate(4 161)">
<title>AP_RangeFinder_trone::timer</title>
<polygon fill="white" stroke="none" points="-4,4 -4,-161 442,-161 442,4 -4,4"/>
<!-- Node1 -->
<g id="node1" class="node"><title>Node1</title>
<polygon fill="#bfbfbf" stroke="black" points="0,-63.5 0,-93.5 118,-93.5 118,-63.5 0,-63.5"/>
<text text-anchor="start" x="8" y="-81.5" font-family="Helvetica,sans-Serif" font-size="10.00">AP_RangeFinder_trone</text>
<text text-anchor="middle" x="59" y="-70.5" font-family="Helvetica,sans-Serif" font-size="10.00">::timer</text>
</g>
<!-- Node2 -->
<g id="node2" class="node"><title>Node2</title>
<g id="a_node2"><a xlink:href="classAP__RangeFinder__trone.html#a5c5bcc4a245bbadcf183d28bbe724a55" target="_top" xlink:title="AP_RangeFinder_trone\l::collect">
<polygon fill="white" stroke="black" points="162.5,-126.5 162.5,-156.5 280.5,-156.5 280.5,-126.5 162.5,-126.5"/>
<text text-anchor="start" x="170.5" y="-144.5" font-family="Helvetica,sans-Serif" font-size="10.00">AP_RangeFinder_trone</text>
<text text-anchor="middle" x="221.5" y="-133.5" font-family="Helvetica,sans-Serif" font-size="10.00">::collect</text>
</a>
</g>
</g>
<!-- Node1&#45;&gt;Node2 -->
<g id="edge1" class="edge"><title>Node1&#45;&gt;Node2</title>
<path fill="none" stroke="midnightblue" d="M96.5221,-93.5071C113.893,-100.583 134.977,-109.08 154,-116.5 159.374,-118.596 165.003,-120.76 170.616,-122.898"/>
<polygon fill="midnightblue" stroke="midnightblue" points="169.406,-126.183 179.998,-126.455 171.888,-119.637 169.406,-126.183"/>
</g>
<!-- Node5 -->
<g id="node5" class="node"><title>Node5</title>
<g id="a_node5"><a xlink:href="classAP__HAL_1_1Semaphore.html#abd3a0affad8bb211981a979f30386589" target="_top" xlink:title="AP_HAL::Semaphore::take">
<polygon fill="white" stroke="black" points="154,-88 154,-107 289,-107 289,-88 154,-88"/>
<text text-anchor="middle" x="221.5" y="-95" font-family="Helvetica,sans-Serif" font-size="10.00">AP_HAL::Semaphore::take</text>
</a>
</g>
</g>
<!-- Node1&#45;&gt;Node5 -->
<g id="edge4" class="edge"><title>Node1&#45;&gt;Node5</title>
<path fill="none" stroke="midnightblue" d="M118.398,-85.4132C126.709,-86.397 135.358,-87.4208 143.95,-88.438"/>
<polygon fill="midnightblue" stroke="midnightblue" points="143.644,-91.9262 153.987,-89.6261 144.467,-84.9747 143.644,-91.9262"/>
</g>
<!-- Node6 -->
<g id="node6" class="node"><title>Node6</title>
<g id="a_node6"><a xlink:href="classAP__HAL_1_1Semaphore.html#afcdbf03d5bea9d83037acc93bfaea7ce" target="_top" xlink:title="AP_HAL::Semaphore::give">
<polygon fill="white" stroke="black" points="154.5,-50 154.5,-69 288.5,-69 288.5,-50 154.5,-50"/>
<text text-anchor="middle" x="221.5" y="-57" font-family="Helvetica,sans-Serif" font-size="10.00">AP_HAL::Semaphore::give</text>
</a>
</g>
</g>
<!-- Node1&#45;&gt;Node6 -->
<g id="edge5" class="edge"><title>Node1&#45;&gt;Node6</title>
<path fill="none" stroke="midnightblue" d="M118.398,-71.5868C126.773,-70.5954 135.492,-69.5633 144.15,-68.5384"/>
<polygon fill="midnightblue" stroke="midnightblue" points="144.742,-71.9928 154.261,-67.3414 143.919,-65.0413 144.742,-71.9928"/>
</g>
<!-- Node7 -->
<g id="node7" class="node"><title>Node7</title>
<g id="a_node7"><a xlink:href="classAP__RangeFinder__trone.html#ae1c90edf21bf8b1630319198715dbbd1" target="_top" xlink:title="AP_RangeFinder_trone\l::measure">
<polygon fill="white" stroke="black" points="162.5,-0.5 162.5,-30.5 280.5,-30.5 280.5,-0.5 162.5,-0.5"/>
<text text-anchor="start" x="170.5" y="-18.5" font-family="Helvetica,sans-Serif" font-size="10.00">AP_RangeFinder_trone</text>
<text text-anchor="middle" x="221.5" y="-7.5" font-family="Helvetica,sans-Serif" font-size="10.00">::measure</text>
</a>
</g>
</g>
<!-- Node1&#45;&gt;Node7 -->
<g id="edge6" class="edge"><title>Node1&#45;&gt;Node7</title>
<path fill="none" stroke="midnightblue" d="M96.5221,-63.4929C113.893,-56.4174 134.977,-47.9196 154,-40.5 159.374,-38.4041 165.003,-36.2396 170.616,-34.1016"/>
<polygon fill="midnightblue" stroke="midnightblue" points="171.888,-37.3627 179.998,-30.5452 169.406,-30.8172 171.888,-37.3627"/>
</g>
<!-- Node3 -->
<g id="node3" class="node"><title>Node3</title>
<g id="a_node3"><a xlink:href="classAP__HAL_1_1I2CDevice.html#a2e581ddc9b02eb73ad2fdf488fe8dc86" target="_top" xlink:title="AP_HAL::I2CDevice::\ltransfer">
<polygon fill="white" stroke="black" points="325,-41.5 325,-71.5 438,-71.5 438,-41.5 325,-41.5"/>
<text text-anchor="start" x="333" y="-59.5" font-family="Helvetica,sans-Serif" font-size="10.00">AP_HAL::I2CDevice::</text>
<text text-anchor="middle" x="381.5" y="-48.5" font-family="Helvetica,sans-Serif" font-size="10.00">transfer</text>
</a>
</g>
</g>
<!-- Node2&#45;&gt;Node3 -->
<g id="edge2" class="edge"><title>Node2&#45;&gt;Node3</title>
<path fill="none" stroke="midnightblue" d="M266.733,-126.439C274.287,-123.425 281.962,-120.075 289,-116.5 310.922,-105.364 334.068,-90.1507 351.595,-77.8295"/>
<polygon fill="midnightblue" stroke="midnightblue" points="354.101,-80.3415 360.212,-71.6869 350.038,-74.6414 354.101,-80.3415"/>
</g>
<!-- Node4 -->
<g id="node4" class="node"><title>Node4</title>
<g id="a_node4"><a xlink:href="crc_8cpp.html#aff40866c4e8dcc38f5a6114281f58e23" target="_top" xlink:title="crc_crc8">
<polygon fill="white" stroke="black" points="354.5,-132 354.5,-151 408.5,-151 408.5,-132 354.5,-132"/>
<text text-anchor="middle" x="381.5" y="-139" font-family="Helvetica,sans-Serif" font-size="10.00">crc_crc8</text>
</a>
</g>
</g>
<!-- Node2&#45;&gt;Node4 -->
<g id="edge3" class="edge"><title>Node2&#45;&gt;Node4</title>
<path fill="none" stroke="midnightblue" d="M280.884,-141.5C301.999,-141.5 325.227,-141.5 343.937,-141.5"/>
<polygon fill="midnightblue" stroke="midnightblue" points="344.103,-145 354.103,-141.5 344.103,-138 344.103,-145"/>
</g>
<!-- Node7&#45;&gt;Node3 -->
<g id="edge7" class="edge"><title>Node7&#45;&gt;Node3</title>
<path fill="none" stroke="midnightblue" d="M280.436,-30.5341C291.676,-33.4507 303.529,-36.5265 314.992,-39.501"/>
<polygon fill="midnightblue" stroke="midnightblue" points="314.381,-42.9583 324.939,-42.0823 316.139,-36.1827 314.381,-42.9583"/>
</g>
</g>
</svg>
