<?xml version="1.0" encoding="UTF-8" standalone="no"?>
<!DOCTYPE svg PUBLIC "-//W3C//DTD SVG 1.1//EN"
 "http://www.w3.org/Graphics/SVG/1.1/DTD/svg11.dtd">
<!-- Generated by graphviz version 2.38.0 (20140413.2041)
 -->
<!-- Title: AP_AHRS_NavEKF::get_origin Pages: 1 -->
<svg width="874pt" height="439pt"
 viewBox="0.00 0.00 874.00 438.50" xmlns="http://www.w3.org/2000/svg" xmlns:xlink="http://www.w3.org/1999/xlink">
<g id="graph0" class="graph" transform="scale(1 1) rotate(0) translate(4 434.5)">
<title>AP_AHRS_NavEKF::get_origin</title>
<polygon fill="white" stroke="none" points="-4,4 -4,-434.5 870,-434.5 870,4 -4,4"/>
<!-- Node1 -->
<g id="node1" class="node"><title>Node1</title>
<polygon fill="#bfbfbf" stroke="black" points="0,-169.5 0,-199.5 126,-199.5 126,-169.5 0,-169.5"/>
<text text-anchor="start" x="8" y="-187.5" font-family="Helvetica,sans-Serif" font-size="10.00">AP_AHRS_NavEKF::get</text>
<text text-anchor="middle" x="63" y="-176.5" font-family="Helvetica,sans-Serif" font-size="10.00">_origin</text>
</g>
<!-- Node2 -->
<g id="node2" class="node"><title>Node2</title>
<g id="a_node2"><a xlink:href="classAP__Module.html#a9b4f06b2556a122f11b92b7b29d462c4" target="_top" xlink:title="AP_Module::call_hook\l_AHRS_update">
<polygon fill="white" stroke="black" points="179.5,-369.5 179.5,-399.5 293.5,-399.5 293.5,-369.5 179.5,-369.5"/>
<text text-anchor="start" x="187.5" y="-387.5" font-family="Helvetica,sans-Serif" font-size="10.00">AP_Module::call_hook</text>
<text text-anchor="middle" x="236.5" y="-376.5" font-family="Helvetica,sans-Serif" font-size="10.00">_AHRS_update</text>
</a>
</g>
</g>
<!-- Node1&#45;&gt;Node2 -->
<g id="edge1" class="edge"><title>Node1&#45;&gt;Node2</title>
<path fill="none" stroke="midnightblue" d="M74.4661,-209.401C89.6632,-243.188 120.608,-303.872 162,-343.5 172.976,-354.009 187.165,-362.746 200.144,-369.416"/>
<polygon fill="midnightblue" stroke="midnightblue" points="77.4887,-207.579 70.2612,-199.833 71.0801,-210.396 77.4887,-207.579"/>
</g>
<!-- Node5 -->
<g id="node5" class="node"><title>Node5</title>
<g id="a_node5"><a xlink:href="classLocation__Class.html#a94d8de310c8bdf8441c367e90d6b3f90" target="_top" xlink:title="get altitude in desired frame ">
<polygon fill="white" stroke="black" points="184.5,-235.5 184.5,-265.5 288.5,-265.5 288.5,-235.5 184.5,-235.5"/>
<text text-anchor="start" x="192.5" y="-253.5" font-family="Helvetica,sans-Serif" font-size="10.00">Location_Class::get</text>
<text text-anchor="middle" x="236.5" y="-242.5" font-family="Helvetica,sans-Serif" font-size="10.00">_alt_cm</text>
</a>
</g>
</g>
<!-- Node1&#45;&gt;Node5 -->
<g id="edge4" class="edge"><title>Node1&#45;&gt;Node5</title>
<path fill="none" stroke="midnightblue" d="M112.808,-203.283C139.271,-213.467 171.537,-225.884 196.338,-235.429"/>
<polygon fill="midnightblue" stroke="midnightblue" points="113.935,-199.967 103.346,-199.642 111.421,-206.5 113.935,-199.967"/>
</g>
<!-- Node16 -->
<g id="node16" class="node"><title>Node16</title>
<g id="a_node16"><a xlink:href="classAP__AHRS__NavEKF.html#add98225e5350abab51cccd311f5496c3" target="_top" xlink:title="AP_AHRS_NavEKF::get\l_NavEKF3_const">
<polygon fill="white" stroke="black" points="358.5,-98.5 358.5,-128.5 484.5,-128.5 484.5,-98.5 358.5,-98.5"/>
<text text-anchor="start" x="366.5" y="-116.5" font-family="Helvetica,sans-Serif" font-size="10.00">AP_AHRS_NavEKF::get</text>
<text text-anchor="middle" x="421.5" y="-105.5" font-family="Helvetica,sans-Serif" font-size="10.00">_NavEKF3_const</text>
</a>
</g>
</g>
<!-- Node1&#45;&gt;Node16 -->
<g id="edge18" class="edge"><title>Node1&#45;&gt;Node16</title>
<path fill="none" stroke="midnightblue" d="M132.929,-201.345C184.732,-210.275 255.94,-214.37 311,-186.5 335.111,-174.296 325.107,-153.342 347,-137.5 351.676,-134.116 356.855,-131.192 362.236,-128.669"/>
<polygon fill="midnightblue" stroke="midnightblue" points="133.303,-197.856 122.837,-199.503 132.046,-204.742 133.303,-197.856"/>
</g>
<!-- Node17 -->
<g id="node17" class="node"><title>Node17</title>
<g id="a_node17"><a xlink:href="classAP__AHRS__NavEKF.html#acf8913fdd3d47c9b2cfcdda9d4e27268" target="_top" xlink:title="AP_AHRS_NavEKF::get\l_relative_position_D_home">
<polygon fill="white" stroke="black" points="169.5,-147.5 169.5,-177.5 303.5,-177.5 303.5,-147.5 169.5,-147.5"/>
<text text-anchor="start" x="177.5" y="-165.5" font-family="Helvetica,sans-Serif" font-size="10.00">AP_AHRS_NavEKF::get</text>
<text text-anchor="middle" x="236.5" y="-154.5" font-family="Helvetica,sans-Serif" font-size="10.00">_relative_position_D_home</text>
</a>
</g>
</g>
<!-- Node1&#45;&gt;Node17 -->
<g id="edge19" class="edge"><title>Node1&#45;&gt;Node17</title>
<path fill="none" stroke="midnightblue" d="M136.359,-175.218C147.317,-173.812 158.574,-172.368 169.391,-170.98"/>
<polygon fill="midnightblue" stroke="midnightblue" points="135.874,-171.751 126.401,-176.495 136.765,-178.694 135.874,-171.751"/>
</g>
<!-- Node18 -->
<g id="node18" class="node"><title>Node18</title>
<g id="a_node18"><a xlink:href="classAP__AHRS__NavEKF.html#ac0db6af5f979f5111e987d2f1e608237" target="_top" xlink:title="AP_AHRS_NavEKF::get\l_relative_position_NE_home">
<polygon fill="white" stroke="black" points="166,-98.5 166,-128.5 307,-128.5 307,-98.5 166,-98.5"/>
<text text-anchor="start" x="174" y="-116.5" font-family="Helvetica,sans-Serif" font-size="10.00">AP_AHRS_NavEKF::get</text>
<text text-anchor="middle" x="236.5" y="-105.5" font-family="Helvetica,sans-Serif" font-size="10.00">_relative_position_NE_home</text>
</a>
</g>
</g>
<!-- Node1&#45;&gt;Node18 -->
<g id="edge21" class="edge"><title>Node1&#45;&gt;Node18</title>
<path fill="none" stroke="midnightblue" d="M101.73,-164.972C119.729,-156.028 141.717,-145.634 162,-137.5 169.725,-134.402 178.019,-131.397 186.153,-128.622"/>
<polygon fill="midnightblue" stroke="midnightblue" points="100.08,-161.884 92.7117,-169.497 103.219,-168.14 100.08,-161.884"/>
</g>
<!-- Node19 -->
<g id="node19" class="node"><title>Node19</title>
<g id="a_node19"><a xlink:href="classAP__AHRS__NavEKF.html#a9f75e1cc7913ff2b730d6fc6b3a5fa71" target="_top" xlink:title="AP_AHRS_NavEKF::get\l_relative_position_NED_home">
<polygon fill="white" stroke="black" points="162,-49.5 162,-79.5 311,-79.5 311,-49.5 162,-49.5"/>
<text text-anchor="start" x="170" y="-67.5" font-family="Helvetica,sans-Serif" font-size="10.00">AP_AHRS_NavEKF::get</text>
<text text-anchor="middle" x="236.5" y="-56.5" font-family="Helvetica,sans-Serif" font-size="10.00">_relative_position_NED_home</text>
</a>
</g>
</g>
<!-- Node1&#45;&gt;Node19 -->
<g id="edge23" class="edge"><title>Node1&#45;&gt;Node19</title>
<path fill="none" stroke="midnightblue" d="M82.0011,-161.58C100.1,-139.947 129.861,-108 162,-88.5 167.623,-85.0881 173.787,-82.1031 180.078,-79.5065"/>
<polygon fill="midnightblue" stroke="midnightblue" points="79.2897,-159.367 75.6551,-169.319 84.7025,-163.806 79.2897,-159.367"/>
</g>
<!-- Node20 -->
<g id="node20" class="node"><title>Node20</title>
<g id="a_node20"><a xlink:href="classLocation__Class.html#a47b0c66dd700f4ea188eb8a58d886e8a" target="_top" xlink:title="Location_Class::get\l_vector_xy_from_origin_NEU">
<polygon fill="white" stroke="black" points="164,-304.5 164,-334.5 309,-334.5 309,-304.5 164,-304.5"/>
<text text-anchor="start" x="172" y="-322.5" font-family="Helvetica,sans-Serif" font-size="10.00">Location_Class::get</text>
<text text-anchor="middle" x="236.5" y="-311.5" font-family="Helvetica,sans-Serif" font-size="10.00">_vector_xy_from_origin_NEU</text>
</a>
</g>
</g>
<!-- Node1&#45;&gt;Node20 -->
<g id="edge25" class="edge"><title>Node1&#45;&gt;Node20</title>
<path fill="none" stroke="midnightblue" d="M85.8946,-206.917C105.074,-225.974 134.157,-253.504 162,-274.5 176.574,-285.49 193.95,-296.226 208.147,-304.453"/>
<polygon fill="midnightblue" stroke="midnightblue" points="88.3467,-204.419 78.8065,-199.811 83.3907,-209.363 88.3467,-204.419"/>
</g>
<!-- Node21 -->
<g id="node21" class="node"><title>Node21</title>
<g id="a_node21"><a xlink:href="classLocation__Class.html#af3b70b24869e8e03f034dc9a61b177d0" target="_top" xlink:title="Location_Class::Location\l_Class">
<polygon fill="white" stroke="black" points="173,-0.5 173,-30.5 300,-30.5 300,-0.5 173,-0.5"/>
<text text-anchor="start" x="181" y="-18.5" font-family="Helvetica,sans-Serif" font-size="10.00">Location_Class::Location</text>
<text text-anchor="middle" x="236.5" y="-7.5" font-family="Helvetica,sans-Serif" font-size="10.00">_Class</text>
</a>
</g>
</g>
<!-- Node1&#45;&gt;Node21 -->
<g id="edge29" class="edge"><title>Node1&#45;&gt;Node21</title>
<path fill="none" stroke="midnightblue" d="M74.2672,-160.199C89.0573,-128.036 119.346,-71.6594 162,-39.5 166.502,-36.1059 171.505,-33.1794 176.723,-30.6586"/>
<polygon fill="midnightblue" stroke="midnightblue" points="71.0626,-158.791 70.1783,-169.349 77.4536,-161.647 71.0626,-158.791"/>
</g>
<!-- Node3 -->
<g id="node3" class="node"><title>Node3</title>
<g id="a_node3"><a xlink:href="classAP__AHRS__NavEKF.html#ac8111979c5dc37a55b2c50818534ea52" target="_top" xlink:title="AP_AHRS_NavEKF::update">
<polygon fill="white" stroke="black" points="350.5,-411 350.5,-430 492.5,-430 492.5,-411 350.5,-411"/>
<text text-anchor="middle" x="421.5" y="-418" font-family="Helvetica,sans-Serif" font-size="10.00">AP_AHRS_NavEKF::update</text>
</a>
</g>
</g>
<!-- Node2&#45;&gt;Node3 -->
<g id="edge2" class="edge"><title>Node2&#45;&gt;Node3</title>
<path fill="none" stroke="midnightblue" d="M303.751,-397.533C326.315,-401.972 351.101,-406.848 372.009,-410.961"/>
<polygon fill="midnightblue" stroke="midnightblue" points="304.387,-394.091 293.899,-395.595 303.036,-400.959 304.387,-394.091"/>
</g>
<!-- Node4 -->
<g id="node4" class="node"><title>Node4</title>
<g id="a_node4"><a xlink:href="AHRS__Test_8cpp.html#a0b33edabd7f1c4e4a0bf32c67269be2f" target="_top" xlink:title="loop">
<polygon fill="white" stroke="black" points="595,-411 595,-430 630,-430 630,-411 595,-411"/>
<text text-anchor="middle" x="612.5" y="-418" font-family="Helvetica,sans-Serif" font-size="10.00">loop</text>
</a>
</g>
</g>
<!-- Node3&#45;&gt;Node4 -->
<g id="edge3" class="edge"><title>Node3&#45;&gt;Node4</title>
<path fill="none" stroke="midnightblue" d="M502.687,-420.5C537.035,-420.5 573.967,-420.5 594.759,-420.5"/>
<polygon fill="midnightblue" stroke="midnightblue" points="502.608,-417 492.608,-420.5 502.608,-424 502.608,-417"/>
</g>
<!-- Node6 -->
<g id="node6" class="node"><title>Node6</title>
<g id="a_node6"><a xlink:href="classAC__Fence.html#a1ddf2b4968acee81332875003c5ff64d" target="_top" xlink:title="AC_Fence::check_destination\l_within_fence">
<polygon fill="white" stroke="black" points="347.5,-147.5 347.5,-177.5 495.5,-177.5 495.5,-147.5 347.5,-147.5"/>
<text text-anchor="start" x="355.5" y="-165.5" font-family="Helvetica,sans-Serif" font-size="10.00">AC_Fence::check_destination</text>
<text text-anchor="middle" x="421.5" y="-154.5" font-family="Helvetica,sans-Serif" font-size="10.00">_within_fence</text>
</a>
</g>
</g>
<!-- Node5&#45;&gt;Node6 -->
<g id="edge5" class="edge"><title>Node5&#45;&gt;Node6</title>
<path fill="none" stroke="midnightblue" d="M291.238,-231.188C298.08,-227.978 304.837,-224.405 311,-220.5 329.335,-208.884 328.327,-198.564 347,-187.5 353.378,-183.721 360.407,-180.412 367.515,-177.545"/>
<polygon fill="midnightblue" stroke="midnightblue" points="289.618,-228.078 281.903,-235.34 292.462,-234.474 289.618,-228.078"/>
</g>
<!-- Node8 -->
<g id="node8" class="node"><title>Node8</title>
<g id="a_node8"><a xlink:href="classAC__WPNav.html#a91b8fa0d48a6fb79a4d7ef38dfc11123" target="_top" xlink:title="AC_WPNav::get_vector_NEU">
<polygon fill="white" stroke="black" points="347,-197 347,-216 496,-216 496,-197 347,-197"/>
<text text-anchor="middle" x="421.5" y="-204" font-family="Helvetica,sans-Serif" font-size="10.00">AC_WPNav::get_vector_NEU</text>
</a>
</g>
</g>
<!-- Node5&#45;&gt;Node8 -->
<g id="edge7" class="edge"><title>Node5&#45;&gt;Node8</title>
<path fill="none" stroke="midnightblue" d="M298.723,-235.78C325.757,-229.28 356.766,-221.824 380.727,-216.063"/>
<polygon fill="midnightblue" stroke="midnightblue" points="297.867,-232.386 288.963,-238.126 299.504,-239.192 297.867,-232.386"/>
</g>
<!-- Node13 -->
<g id="node13" class="node"><title>Node13</title>
<g id="a_node13"><a xlink:href="classLocation__Class.html#a1b58a6a4d185506e76271dee1f047836" target="_top" xlink:title="Location_Class::change\l_alt_frame">
<polygon fill="white" stroke="black" points="360.5,-235.5 360.5,-265.5 482.5,-265.5 482.5,-235.5 360.5,-235.5"/>
<text text-anchor="start" x="368.5" y="-253.5" font-family="Helvetica,sans-Serif" font-size="10.00">Location_Class::change</text>
<text text-anchor="middle" x="421.5" y="-242.5" font-family="Helvetica,sans-Serif" font-size="10.00">_alt_frame</text>
</a>
</g>
</g>
<!-- Node5&#45;&gt;Node13 -->
<g id="edge12" class="edge"><title>Node5&#45;&gt;Node13</title>
<path fill="none" stroke="midnightblue" d="M299.085,-250.5C318.85,-250.5 340.707,-250.5 360.367,-250.5"/>
<polygon fill="midnightblue" stroke="midnightblue" points="298.963,-247 288.963,-250.5 298.963,-254 298.963,-247"/>
</g>
<!-- Node14 -->
<g id="node14" class="node"><title>Node14</title>
<g id="a_node14"><a xlink:href="classLocation__Class.html#aa352d1b331237dc5b2977526d97847eb" target="_top" xlink:title="Location_Class::set\l_terrain">
<polygon fill="white" stroke="black" points="560.5,-304.5 560.5,-334.5 664.5,-334.5 664.5,-304.5 560.5,-304.5"/>
<text text-anchor="start" x="568.5" y="-322.5" font-family="Helvetica,sans-Serif" font-size="10.00">Location_Class::set</text>
<text text-anchor="middle" x="612.5" y="-311.5" font-family="Helvetica,sans-Serif" font-size="10.00">_terrain</text>
</a>
</g>
</g>
<!-- Node5&#45;&gt;Node14 -->
<g id="edge17" class="edge"><title>Node5&#45;&gt;Node14</title>
<path fill="none" stroke="midnightblue" d="M298.765,-264.463C314.458,-267.892 331.329,-271.451 347,-274.5 420.842,-288.865 506.783,-303.015 560.169,-311.504"/>
<polygon fill="midnightblue" stroke="midnightblue" points="299.165,-260.967 288.647,-262.235 297.66,-267.803 299.165,-260.967"/>
</g>
<!-- Node15 -->
<g id="node15" class="node"><title>Node15</title>
<g id="a_node15"><a xlink:href="classLocation__Class.html#a7b3175ce61dd893910c350a9dd259f49" target="_top" xlink:title="Location_Class::get\l_vector_from_origin_NEU">
<polygon fill="white" stroke="black" points="357,-323.5 357,-353.5 486,-353.5 486,-323.5 357,-323.5"/>
<text text-anchor="start" x="365" y="-341.5" font-family="Helvetica,sans-Serif" font-size="10.00">Location_Class::get</text>
<text text-anchor="middle" x="421.5" y="-330.5" font-family="Helvetica,sans-Serif" font-size="10.00">_vector_from_origin_NEU</text>
</a>
</g>
</g>
<!-- Node5&#45;&gt;Node15 -->
<g id="edge15" class="edge"><title>Node5&#45;&gt;Node15</title>
<path fill="none" stroke="midnightblue" d="M273.086,-270.504C294.286,-282.129 321.876,-296.754 347,-308.5 358.112,-313.695 370.381,-318.904 381.66,-323.489"/>
<polygon fill="midnightblue" stroke="midnightblue" points="274.569,-267.325 264.122,-265.559 271.188,-273.454 274.569,-267.325"/>
</g>
<!-- Node7 -->
<g id="node7" class="node"><title>Node7</title>
<g id="a_node7"><a xlink:href="classAC__Fence.html#acdc600f19a3e4eb6de655c26f52e0968" target="_top" xlink:title="enabled &#45; returns true if fence is enabled ">
<polygon fill="white" stroke="black" points="561,-153 561,-172 664,-172 664,-153 561,-153"/>
<text text-anchor="middle" x="612.5" y="-160" font-family="Helvetica,sans-Serif" font-size="10.00">AC_Fence::enabled</text>
</a>
</g>
</g>
<!-- Node6&#45;&gt;Node7 -->
<g id="edge6" class="edge"><title>Node6&#45;&gt;Node7</title>
<path fill="none" stroke="midnightblue" d="M505.636,-162.5C524.444,-162.5 543.861,-162.5 560.85,-162.5"/>
<polygon fill="midnightblue" stroke="midnightblue" points="505.572,-159 495.572,-162.5 505.572,-166 505.572,-159"/>
</g>
<!-- Node9 -->
<g id="node9" class="node"><title>Node9</title>
<g id="a_node9"><a xlink:href="classAC__WPNav.html#a9f9b2b3b12fabb2f5b8026018e562d69" target="_top" xlink:title="AC_WPNav::set_spline\l_destination">
<polygon fill="white" stroke="black" points="552,-235.5 552,-265.5 673,-265.5 673,-235.5 552,-235.5"/>
<text text-anchor="start" x="560" y="-253.5" font-family="Helvetica,sans-Serif" font-size="10.00">AC_WPNav::set_spline</text>
<text text-anchor="middle" x="612.5" y="-242.5" font-family="Helvetica,sans-Serif" font-size="10.00">_destination</text>
</a>
</g>
</g>
<!-- Node8&#45;&gt;Node9 -->
<g id="edge8" class="edge"><title>Node8&#45;&gt;Node9</title>
<path fill="none" stroke="midnightblue" d="M473.547,-218.384C497.719,-224.011 526.74,-230.767 551.914,-236.628"/>
<polygon fill="midnightblue" stroke="midnightblue" points="474.043,-214.906 463.51,-216.047 472.456,-221.724 474.043,-214.906"/>
</g>
<!-- Node11 -->
<g id="node11" class="node"><title>Node11</title>
<g id="a_node11"><a xlink:href="classAC__WPNav.html#a7e131ba7b7deffa86cbf343c495bdf4e" target="_top" xlink:title="AC_WPNav::set_wp_destination">
<polygon fill="white" stroke="black" points="532,-197 532,-216 693,-216 693,-197 532,-197"/>
<text text-anchor="middle" x="612.5" y="-204" font-family="Helvetica,sans-Serif" font-size="10.00">AC_WPNav::set_wp_destination</text>
</a>
</g>
</g>
<!-- Node8&#45;&gt;Node11 -->
<g id="edge10" class="edge"><title>Node8&#45;&gt;Node11</title>
<path fill="none" stroke="midnightblue" d="M506.365,-206.5C514.831,-206.5 523.412,-206.5 531.833,-206.5"/>
<polygon fill="midnightblue" stroke="midnightblue" points="506.114,-203 496.114,-206.5 506.113,-210 506.114,-203"/>
</g>
<!-- Node10 -->
<g id="node10" class="node"><title>Node10</title>
<g id="a_node10"><a xlink:href="classAC__WPNav.html#a53a3a893d06b17ff18802d838fbd6584" target="_top" xlink:title="AC_WPNav::get_yaw">
<polygon fill="white" stroke="black" points="741,-241 741,-260 854,-260 854,-241 741,-241"/>
<text text-anchor="middle" x="797.5" y="-248" font-family="Helvetica,sans-Serif" font-size="10.00">AC_WPNav::get_yaw</text>
</a>
</g>
</g>
<!-- Node9&#45;&gt;Node10 -->
<g id="edge9" class="edge"><title>Node9&#45;&gt;Node10</title>
<path fill="none" stroke="midnightblue" d="M683.302,-250.5C702.376,-250.5 722.784,-250.5 740.946,-250.5"/>
<polygon fill="midnightblue" stroke="midnightblue" points="683.168,-247 673.168,-250.5 683.168,-254 683.168,-247"/>
</g>
<!-- Node12 -->
<g id="node12" class="node"><title>Node12</title>
<g id="a_node12"><a xlink:href="classAC__WPNav.html#acc07b8521654cf468b6a86fad9104a4c" target="_top" xlink:title="get origin using position vector (distance from home in cm) ">
<polygon fill="white" stroke="black" points="729,-197 729,-216 866,-216 866,-197 729,-197"/>
<text text-anchor="middle" x="797.5" y="-204" font-family="Helvetica,sans-Serif" font-size="10.00">AC_WPNav::get_wp_origin</text>
</a>
</g>
</g>
<!-- Node11&#45;&gt;Node12 -->
<g id="edge11" class="edge"><title>Node11&#45;&gt;Node12</title>
<path fill="none" stroke="midnightblue" d="M703.276,-206.5C711.853,-206.5 720.45,-206.5 728.766,-206.5"/>
<polygon fill="midnightblue" stroke="midnightblue" points="703.234,-203 693.234,-206.5 703.234,-210 703.234,-203"/>
</g>
<!-- Node13&#45;&gt;Node9 -->
<g id="edge13" class="edge"><title>Node13&#45;&gt;Node9</title>
<path fill="none" stroke="midnightblue" d="M492.602,-250.5C512.101,-250.5 533.087,-250.5 551.92,-250.5"/>
<polygon fill="midnightblue" stroke="midnightblue" points="492.561,-247 482.56,-250.5 492.56,-254 492.561,-247"/>
</g>
<!-- Node13&#45;&gt;Node14 -->
<g id="edge14" class="edge"><title>Node13&#45;&gt;Node14</title>
<path fill="none" stroke="midnightblue" d="M473.52,-269.126C503.804,-280.182 541.707,-294.02 570.12,-304.393"/>
<polygon fill="midnightblue" stroke="midnightblue" points="474.571,-265.784 463.977,-265.642 472.17,-272.36 474.571,-265.784"/>
</g>
<!-- Node15&#45;&gt;Node14 -->
<g id="edge16" class="edge"><title>Node15&#45;&gt;Node14</title>
<path fill="none" stroke="midnightblue" d="M496.263,-331.085C517.669,-328.933 540.569,-326.631 560.269,-324.65"/>
<polygon fill="midnightblue" stroke="midnightblue" points="495.823,-327.611 486.223,-332.094 496.523,-334.576 495.823,-327.611"/>
</g>
<!-- Node17&#45;&gt;Node16 -->
<g id="edge20" class="edge"><title>Node17&#45;&gt;Node16</title>
<path fill="none" stroke="midnightblue" d="M303.785,-144.752C323.619,-139.441 345.167,-133.671 364.287,-128.552"/>
<polygon fill="midnightblue" stroke="midnightblue" points="302.654,-141.431 293.899,-147.399 304.464,-148.193 302.654,-141.431"/>
</g>
<!-- Node18&#45;&gt;Node16 -->
<g id="edge22" class="edge"><title>Node18&#45;&gt;Node16</title>
<path fill="none" stroke="midnightblue" d="M317.595,-113.5C331.295,-113.5 345.341,-113.5 358.48,-113.5"/>
<polygon fill="midnightblue" stroke="midnightblue" points="317.207,-110 307.206,-113.5 317.206,-117 317.207,-110"/>
</g>
<!-- Node19&#45;&gt;Node16 -->
<g id="edge24" class="edge"><title>Node19&#45;&gt;Node16</title>
<path fill="none" stroke="midnightblue" d="M303.785,-82.2485C323.619,-87.5591 345.167,-93.3288 364.287,-98.4484"/>
<polygon fill="midnightblue" stroke="midnightblue" points="304.464,-78.8071 293.899,-79.6014 302.654,-85.5689 304.464,-78.8071"/>
</g>
<!-- Node20&#45;&gt;Node8 -->
<g id="edge26" class="edge"><title>Node20&#45;&gt;Node8</title>
<path fill="none" stroke="midnightblue" d="M276.701,-299.326C288.405,-292.327 300.817,-283.859 311,-274.5 330.896,-256.213 324.621,-240.648 347,-225.5 352.785,-221.584 359.324,-218.476 366.059,-216.007"/>
<polygon fill="midnightblue" stroke="midnightblue" points="274.85,-296.353 267.938,-304.383 278.348,-302.416 274.85,-296.353"/>
</g>
<!-- Node20&#45;&gt;Node14 -->
<g id="edge28" class="edge"><title>Node20&#45;&gt;Node14</title>
<path fill="none" stroke="midnightblue" d="M276.551,-338.959C296.988,-348.068 322.747,-357.909 347,-362.5 412.067,-374.818 430.826,-374.238 496,-362.5 525.481,-357.19 557.26,-344.828 580.007,-334.715"/>
<polygon fill="midnightblue" stroke="midnightblue" points="277.818,-335.69 267.268,-334.709 274.904,-342.054 277.818,-335.69"/>
</g>
<!-- Node20&#45;&gt;Node15 -->
<g id="edge27" class="edge"><title>Node20&#45;&gt;Node15</title>
<path fill="none" stroke="midnightblue" d="M319.09,-327.971C331.715,-329.282 344.594,-330.619 356.752,-331.881"/>
<polygon fill="midnightblue" stroke="midnightblue" points="319.347,-324.479 309.039,-326.928 318.624,-331.442 319.347,-324.479"/>
</g>
</g>
</svg>
