<?xml version="1.0" encoding="UTF-8" standalone="no"?>
<!DOCTYPE svg PUBLIC "-//W3C//DTD SVG 1.1//EN"
 "http://www.w3.org/Graphics/SVG/1.1/DTD/svg11.dtd">
<!-- Generated by graphviz version 2.38.0 (20140413.2041)
 -->
<!-- Title: DerivativeFilter&lt; T, FILTER_SIZE &gt; Pages: 1 -->
<svg width="111pt" height="162pt"
 viewBox="0.00 0.00 111.00 162.00" xmlns="http://www.w3.org/2000/svg" xmlns:xlink="http://www.w3.org/1999/xlink">
<g id="graph0" class="graph" transform="scale(1 1) rotate(0) translate(4 158)">
<title>DerivativeFilter&lt; T, FILTER_SIZE &gt;</title>
<polygon fill="white" stroke="none" points="-4,4 -4,-158 107,-158 107,4 -4,4"/>
<!-- Node1 -->
<g id="node1" class="node"><title>Node1</title>
<polygon fill="#bfbfbf" stroke="black" points="1,-0.5 1,-30.5 102,-30.5 102,-0.5 1,-0.5"/>
<text text-anchor="start" x="9" y="-18.5" font-family="Helvetica,sans-Serif" font-size="10.00">DerivativeFilter&lt; T,</text>
<text text-anchor="middle" x="51.5" y="-7.5" font-family="Helvetica,sans-Serif" font-size="10.00"> FILTER_SIZE &gt;</text>
</g>
<!-- Node2 -->
<g id="node2" class="node"><title>Node2</title>
<g id="a_node2"><a xlink:href="classFilterWithBuffer.html" target="_top" xlink:title="FilterWithBuffer\&lt; T,\l FILTER_SIZE \&gt;">
<polygon fill="white" stroke="black" points="0,-67.5 0,-97.5 103,-97.5 103,-67.5 0,-67.5"/>
<text text-anchor="start" x="8" y="-85.5" font-family="Helvetica,sans-Serif" font-size="10.00">FilterWithBuffer&lt; T,</text>
<text text-anchor="middle" x="51.5" y="-74.5" font-family="Helvetica,sans-Serif" font-size="10.00"> FILTER_SIZE &gt;</text>
</a>
</g>
</g>
<!-- Node2&#45;&gt;Node1 -->
<g id="edge1" class="edge"><title>Node2&#45;&gt;Node1</title>
<path fill="none" stroke="midnightblue" d="M51.5,-57.1081C51.5,-48.1539 51.5,-38.3227 51.5,-30.5765"/>
<polygon fill="midnightblue" stroke="midnightblue" points="48.0001,-57.3959 51.5,-67.396 55.0001,-57.396 48.0001,-57.3959"/>
</g>
<!-- Node3 -->
<g id="node3" class="node"><title>Node3</title>
<g id="a_node3"><a xlink:href="classFilter.html" target="_top" xlink:title="Filter\&lt; T \&gt;">
<polygon fill="white" stroke="black" points="20.5,-134.5 20.5,-153.5 82.5,-153.5 82.5,-134.5 20.5,-134.5"/>
<text text-anchor="middle" x="51.5" y="-141.5" font-family="Helvetica,sans-Serif" font-size="10.00">Filter&lt; T &gt;</text>
</a>
</g>
</g>
<!-- Node3&#45;&gt;Node2 -->
<g id="edge2" class="edge"><title>Node3&#45;&gt;Node2</title>
<path fill="none" stroke="midnightblue" d="M51.5,-124.235C51.5,-115.586 51.5,-105.497 51.5,-97.523"/>
<polygon fill="midnightblue" stroke="midnightblue" points="48.0001,-124.475 51.5,-134.475 55.0001,-124.475 48.0001,-124.475"/>
</g>
</g>
</svg>
