<?xml version="1.0" encoding="UTF-8" standalone="no"?>
<!DOCTYPE svg PUBLIC "-//W3C//DTD SVG 1.1//EN"
 "http://www.w3.org/Graphics/SVG/1.1/DTD/svg11.dtd">
<!-- Generated by graphviz version 2.38.0 (20140413.2041)
 -->
<!-- Title: AP_HAL::I2CDevice::read_registers_multiple Pages: 1 -->
<svg width="477pt" height="88pt"
 viewBox="0.00 0.00 477.00 88.00" xmlns="http://www.w3.org/2000/svg" xmlns:xlink="http://www.w3.org/1999/xlink">
<g id="graph0" class="graph" transform="scale(1 1) rotate(0) translate(4 84)">
<title>AP_HAL::I2CDevice::read_registers_multiple</title>
<polygon fill="white" stroke="none" points="-4,4 -4,-84 473,-84 473,4 -4,4"/>
<!-- Node1 -->
<g id="node1" class="node"><title>Node1</title>
<polygon fill="#bfbfbf" stroke="black" points="0,-24.5 0,-54.5 117,-54.5 117,-24.5 0,-24.5"/>
<text text-anchor="start" x="8" y="-42.5" font-family="Helvetica,sans-Serif" font-size="10.00">AP_HAL::I2CDevice::</text>
<text text-anchor="middle" x="58.5" y="-31.5" font-family="Helvetica,sans-Serif" font-size="10.00">read_registers_multiple</text>
</g>
<!-- Node2 -->
<g id="node2" class="node"><title>Node2</title>
<g id="a_node2"><a xlink:href="classAP__InertialSensor__L3G4200D.html#ab07f7d4df52cbab3fee7f509f50e81fc" target="_top" xlink:title="AP_InertialSensor_L3G4200\lD::_accumulate">
<polygon fill="white" stroke="black" points="153,-49.5 153,-79.5 293,-79.5 293,-49.5 153,-49.5"/>
<text text-anchor="start" x="161" y="-67.5" font-family="Helvetica,sans-Serif" font-size="10.00">AP_InertialSensor_L3G4200</text>
<text text-anchor="middle" x="223" y="-56.5" font-family="Helvetica,sans-Serif" font-size="10.00">D::_accumulate</text>
</a>
</g>
</g>
<!-- Node1&#45;&gt;Node2 -->
<g id="edge1" class="edge"><title>Node1&#45;&gt;Node2</title>
<path fill="none" stroke="midnightblue" d="M127.364,-49.9406C135.756,-51.2317 144.345,-52.5531 152.758,-53.8473"/>
<polygon fill="midnightblue" stroke="midnightblue" points="127.665,-46.4458 117.249,-48.3845 126.6,-53.3644 127.665,-46.4458"/>
</g>
<!-- Node4 -->
<g id="node4" class="node"><title>Node4</title>
<g id="a_node4"><a xlink:href="classAP__HAL_1_1I2CDevice.html#aea243246a4817f5f57a7f1615880d95c" target="_top" xlink:title="AP_HAL::I2CDevice::\l~I2CDevice">
<polygon fill="white" stroke="black" points="166.5,-0.5 166.5,-30.5 279.5,-30.5 279.5,-0.5 166.5,-0.5"/>
<text text-anchor="start" x="174.5" y="-18.5" font-family="Helvetica,sans-Serif" font-size="10.00">AP_HAL::I2CDevice::</text>
<text text-anchor="middle" x="223" y="-7.5" font-family="Helvetica,sans-Serif" font-size="10.00">~I2CDevice</text>
</a>
</g>
</g>
<!-- Node1&#45;&gt;Node4 -->
<g id="edge3" class="edge"><title>Node1&#45;&gt;Node4</title>
<path fill="none" stroke="midnightblue" d="M127.502,-29.4566C140.443,-27.5454 153.844,-25.5661 166.345,-23.7198"/>
<polygon fill="midnightblue" stroke="midnightblue" points="126.63,-26.0473 117.249,-30.9709 127.653,-32.9722 126.63,-26.0473"/>
</g>
<!-- Node3 -->
<g id="node3" class="node"><title>Node3</title>
<g id="a_node3"><a xlink:href="classAP__InertialSensor__L3G4200D.html#a5ddc32421474ee6f544abca47a91ae02" target="_top" xlink:title="AP_InertialSensor_L3G4200\lD::start">
<polygon fill="white" stroke="black" points="329,-49.5 329,-79.5 469,-79.5 469,-49.5 329,-49.5"/>
<text text-anchor="start" x="337" y="-67.5" font-family="Helvetica,sans-Serif" font-size="10.00">AP_InertialSensor_L3G4200</text>
<text text-anchor="middle" x="399" y="-56.5" font-family="Helvetica,sans-Serif" font-size="10.00">D::start</text>
</a>
</g>
</g>
<!-- Node2&#45;&gt;Node3 -->
<g id="edge2" class="edge"><title>Node2&#45;&gt;Node3</title>
<path fill="none" stroke="midnightblue" d="M303.035,-64.5C311.625,-64.5 320.319,-64.5 328.779,-64.5"/>
<polygon fill="midnightblue" stroke="midnightblue" points="303.019,-61.0001 293.019,-64.5 303.019,-68.0001 303.019,-61.0001"/>
</g>
</g>
</svg>
