<?xml version="1.0" encoding="UTF-8" standalone="no"?>
<!DOCTYPE svg PUBLIC "-//W3C//DTD SVG 1.1//EN"
 "http://www.w3.org/Graphics/SVG/1.1/DTD/svg11.dtd">
<!-- Generated by graphviz version 2.38.0 (20140413.2041)
 -->
<!-- Title: AP_InertialSensor::get_loop_delta_t Pages: 1 -->
<!--zoomable 230 -->
<svg id="main" version="1.1" xmlns="http://www.w3.org/2000/svg" xmlns:xlink="http://www.w3.org/1999/xlink" xml:space="preserve" onload="init(evt)">
<style type="text/css"><![CDATA[
.edge:hover path { stroke: red; }
.edge:hover polygon { stroke: red; fill: red; }
]]></style>
<script type="text/javascript"><![CDATA[
var edges = document.getElementsByTagName('g');
if (edges && edges.length) {
  for (var i=0;i<edges.length;i++) {
    if (edges[i].id.substr(0,4)=='edge') {
      edges[i].setAttribute('class','edge');
    }
  }
}
]]></script>
        <defs>
                <circle id="rim" cx="0" cy="0" r="7"/>
                <circle id="rim2" cx="0" cy="0" r="3.5"/>
                <g id="zoomPlus">
                        <use xlink:href="#rim" fill="#404040">
                                <set attributeName="fill" to="#808080" begin="zoomplus.mouseover" end="zoomplus.mouseout"/>
                        </use>
                        <path d="M-4,0h8M0,-4v8" fill="none" stroke="white" stroke-width="1.5" pointer-events="none"/>
                </g>
                <g id="zoomMin">
                        <use xlink:href="#rim" fill="#404040">
                                <set attributeName="fill" to="#808080" begin="zoomminus.mouseover" end="zoomminus.mouseout"/>
                        </use>
                        <path d="M-4,0h8" fill="none" stroke="white" stroke-width="1.5" pointer-events="none"/>
                </g>
                <g id="dirArrow">
                        <path fill="none" stroke="white" stroke-width="1.5" d="M0,-3.0v7 M-2.5,-0.5L0,-3.0L2.5,-0.5"/>
                </g>
               <g id="resetDef">
                       <use xlink:href="#rim2" fill="#404040">
                               <set attributeName="fill" to="#808080" begin="reset.mouseover" end="reset.mouseout"/>
                       </use>
               </g>
        </defs>

<script type="text/javascript">
var viewWidth = 1167;
var viewHeight = 230;
var sectionId = 'dynsection-90';
</script>
<script xlink:href="svgpan.js"/>
<svg id="graph" class="graph">
<g id="viewport">
<title>AP_InertialSensor::get_loop_delta_t</title>
<polygon fill="white" stroke="none" points="-4,4 -4,-226 1163,-226 1163,4 -4,4"/>
<!-- Node1 -->
<g id="node1" class="node"><title>Node1</title>
<polygon fill="#bfbfbf" stroke="black" points="0,-100 0,-130 101,-130 101,-100 0,-100"/>
<text text-anchor="start" x="8" y="-118" font-family="Helvetica,sans-Serif" font-size="10.00">AP_InertialSensor::</text>
<text text-anchor="middle" x="50.5" y="-107" font-family="Helvetica,sans-Serif" font-size="10.00">get_loop_delta_t</text>
</g>
<!-- Node2 -->
<g id="node2" class="node"><title>Node2</title>
<g id="a_node2"><a xlink:href="classNavEKF2__core.html#a4a06ae47c3edebdecd2b179a0567f00b" target="_top" xlink:title="NavEKF2_core::Initialise\lFilterBootstrap">
<polygon fill="white" stroke="black" points="330,-141 330,-171 455,-171 455,-141 330,-141"/>
<text text-anchor="start" x="338" y="-159" font-family="Helvetica,sans-Serif" font-size="10.00">NavEKF2_core::Initialise</text>
<text text-anchor="middle" x="392.5" y="-148" font-family="Helvetica,sans-Serif" font-size="10.00">FilterBootstrap</text>
</a>
</g>
</g>
<!-- Node1&#45;&gt;Node2 -->
<g id="edge1" class="edge"><title>Node1&#45;&gt;Node2</title>
<path fill="none" stroke="midnightblue" d="M108.338,-132.717C117.834,-135.167 127.64,-137.392 137,-139 202.246,-150.212 278.081,-154.126 329.886,-155.443"/>
<polygon fill="midnightblue" stroke="midnightblue" points="109.152,-129.312 98.5867,-130.098 107.337,-136.072 109.152,-129.312"/>
</g>
<!-- Node13 -->
<g id="node13" class="node"><title>Node13</title>
<g id="a_node13"><a xlink:href="classNavEKF2__core.html#a1558cddf403660156210ac9d7dcf29db" target="_top" xlink:title="NavEKF2_core::Initialise\lVariables">
<polygon fill="white" stroke="black" points="148.5,-100 148.5,-130 273.5,-130 273.5,-100 148.5,-100"/>
<text text-anchor="start" x="156.5" y="-118" font-family="Helvetica,sans-Serif" font-size="10.00">NavEKF2_core::Initialise</text>
<text text-anchor="middle" x="211" y="-107" font-family="Helvetica,sans-Serif" font-size="10.00">Variables</text>
</a>
</g>
</g>
<!-- Node1&#45;&gt;Node13 -->
<g id="edge12" class="edge"><title>Node1&#45;&gt;Node13</title>
<path fill="none" stroke="midnightblue" d="M111.254,-115C123.421,-115 136.242,-115 148.469,-115"/>
<polygon fill="midnightblue" stroke="midnightblue" points="111.216,-111.5 101.216,-115 111.215,-118.5 111.216,-111.5"/>
</g>
<!-- Node14 -->
<g id="node14" class="node"><title>Node14</title>
<g id="a_node14"><a xlink:href="classNavEKF3__core.html#af46b5f9dd9ee1659316230ea81a9a778" target="_top" xlink:title="NavEKF3_core::Initialise\lVariables">
<polygon fill="white" stroke="black" points="148.5,-51 148.5,-81 273.5,-81 273.5,-51 148.5,-51"/>
<text text-anchor="start" x="156.5" y="-69" font-family="Helvetica,sans-Serif" font-size="10.00">NavEKF3_core::Initialise</text>
<text text-anchor="middle" x="211" y="-58" font-family="Helvetica,sans-Serif" font-size="10.00">Variables</text>
</a>
</g>
</g>
<!-- Node1&#45;&gt;Node14 -->
<g id="edge14" class="edge"><title>Node1&#45;&gt;Node14</title>
<path fill="none" stroke="midnightblue" d="M110.09,-96.8871C126.94,-91.6778 145.13,-86.0543 161.313,-81.0516"/>
<polygon fill="midnightblue" stroke="midnightblue" points="108.869,-93.6011 100.349,-99.8986 110.936,-100.289 108.869,-93.6011"/>
</g>
<!-- Node19 -->
<g id="node19" class="node"><title>Node19</title>
<g id="a_node19"><a xlink:href="classNavEKF2__core.html#a1f2a0ba92a52069437a3d0a192a6e88c" target="_top" xlink:title="NavEKF2_core::readIMUData">
<polygon fill="white" stroke="black" points="137,-187.5 137,-206.5 285,-206.5 285,-187.5 137,-187.5"/>
<text text-anchor="middle" x="211" y="-194.5" font-family="Helvetica,sans-Serif" font-size="10.00">NavEKF2_core::readIMUData</text>
</a>
</g>
</g>
<!-- Node1&#45;&gt;Node19 -->
<g id="edge23" class="edge"><title>Node1&#45;&gt;Node19</title>
<path fill="none" stroke="midnightblue" d="M79.0226,-136.571C95.2186,-148.507 116.491,-162.919 137,-173 148.733,-178.767 162.181,-183.636 174.311,-187.449"/>
<polygon fill="midnightblue" stroke="midnightblue" points="80.6832,-133.441 70.5841,-130.238 76.4814,-139.04 80.6832,-133.441"/>
</g>
<!-- Node22 -->
<g id="node22" class="node"><title>Node22</title>
<g id="a_node22"><a xlink:href="classNavEKF3__core.html#aece73c326fbd95e59a3fa171ac5988a3" target="_top" xlink:title="NavEKF3_core::readIMUData">
<polygon fill="white" stroke="black" points="137,-12.5 137,-31.5 285,-31.5 285,-12.5 137,-12.5"/>
<text text-anchor="middle" x="211" y="-19.5" font-family="Helvetica,sans-Serif" font-size="10.00">NavEKF3_core::readIMUData</text>
</a>
</g>
</g>
<!-- Node1&#45;&gt;Node22 -->
<g id="edge29" class="edge"><title>Node1&#45;&gt;Node22</title>
<path fill="none" stroke="midnightblue" d="M72.0713,-92.2881C88.2142,-75.7782 112.062,-54.1106 137,-41 144.303,-37.1607 152.432,-34.0604 160.539,-31.5679"/>
<polygon fill="midnightblue" stroke="midnightblue" points="69.1631,-90.2663 64.7946,-99.9186 74.2289,-95.0972 69.1631,-90.2663"/>
</g>
<!-- Node3 -->
<g id="node3" class="node"><title>Node3</title>
<g id="a_node3"><a xlink:href="classNavEKF2.html#a9c447b8d84abf2dfc845ddbbbad46a2b" target="_top" xlink:title="NavEKF2::InitialiseFilter">
<polygon fill="white" stroke="black" points="500,-146.5 500,-165.5 623,-165.5 623,-146.5 500,-146.5"/>
<text text-anchor="middle" x="561.5" y="-153.5" font-family="Helvetica,sans-Serif" font-size="10.00">NavEKF2::InitialiseFilter</text>
</a>
</g>
</g>
<!-- Node2&#45;&gt;Node3 -->
<g id="edge2" class="edge"><title>Node2&#45;&gt;Node3</title>
<path fill="none" stroke="midnightblue" d="M465.249,-156C476.788,-156 488.633,-156 499.878,-156"/>
<polygon fill="midnightblue" stroke="midnightblue" points="465.21,-152.5 455.21,-156 465.21,-159.5 465.21,-152.5"/>
</g>
<!-- Node4 -->
<g id="node4" class="node"><title>Node4</title>
<g id="a_node4"><a xlink:href="classAP__AHRS__NavEKF.html#a0187c6d3d4348b002a204c05d3e94b07" target="_top" xlink:title="AP_AHRS_NavEKF::update_EKF2">
<polygon fill="white" stroke="black" points="659,-202.5 659,-221.5 831,-221.5 831,-202.5 659,-202.5"/>
<text text-anchor="middle" x="745" y="-209.5" font-family="Helvetica,sans-Serif" font-size="10.00">AP_AHRS_NavEKF::update_EKF2</text>
</a>
</g>
</g>
<!-- Node3&#45;&gt;Node4 -->
<g id="edge3" class="edge"><title>Node3&#45;&gt;Node4</title>
<path fill="none" stroke="midnightblue" d="M594.261,-169.525C612.889,-177.117 637.013,-186.366 659,-193 670.726,-196.538 683.541,-199.739 695.583,-202.462"/>
<polygon fill="midnightblue" stroke="midnightblue" points="595.373,-166.198 584.794,-165.618 592.702,-172.668 595.373,-166.198"/>
</g>
<!-- Node7 -->
<g id="node7" class="node"><title>Node7</title>
<g id="a_node7"><a xlink:href="classAP__AHRS__NavEKF.html#a532ff0df024a4537e5a108c42ba405a7" target="_top" xlink:title="AP_AHRS_NavEKF::reset">
<polygon fill="white" stroke="black" points="678,-126.5 678,-145.5 812,-145.5 812,-126.5 678,-126.5"/>
<text text-anchor="middle" x="745" y="-133.5" font-family="Helvetica,sans-Serif" font-size="10.00">AP_AHRS_NavEKF::reset</text>
</a>
</g>
</g>
<!-- Node3&#45;&gt;Node7 -->
<g id="edge6" class="edge"><title>Node3&#45;&gt;Node7</title>
<path fill="none" stroke="midnightblue" d="M633.201,-148.209C647.862,-146.594 663.257,-144.897 677.751,-143.3"/>
<polygon fill="midnightblue" stroke="midnightblue" points="632.746,-144.738 623.189,-149.312 633.512,-151.696 632.746,-144.738"/>
</g>
<!-- Node8 -->
<g id="node8" class="node"><title>Node8</title>
<g id="a_node8"><a xlink:href="classAP__AHRS__NavEKF.html#a9bd3c7f1793a48cd0d736b19fbfaf19a" target="_top" xlink:title="AP_AHRS_NavEKF::reset\l_attitude">
<polygon fill="white" stroke="black" points="678,-77 678,-107 812,-107 812,-77 678,-77"/>
<text text-anchor="start" x="686" y="-95" font-family="Helvetica,sans-Serif" font-size="10.00">AP_AHRS_NavEKF::reset</text>
<text text-anchor="middle" x="745" y="-84" font-family="Helvetica,sans-Serif" font-size="10.00">_attitude</text>
</a>
</g>
</g>
<!-- Node3&#45;&gt;Node8 -->
<g id="edge7" class="edge"><title>Node3&#45;&gt;Node8</title>
<path fill="none" stroke="midnightblue" d="M593.741,-142.468C612.49,-134.575 636.911,-124.691 659,-117 668.878,-113.561 679.506,-110.184 689.788,-107.081"/>
<polygon fill="midnightblue" stroke="midnightblue" points="592.334,-139.263 584.496,-146.392 595.069,-145.707 592.334,-139.263"/>
</g>
<!-- Node9 -->
<g id="node9" class="node"><title>Node9</title>
<g id="a_node9"><a xlink:href="classNavEKF2.html#ab18af2714c15fcf190493c01e2a28c73" target="_top" xlink:title="NavEKF2::activeCores">
<polygon fill="white" stroke="black" points="686,-164.5 686,-183.5 804,-183.5 804,-164.5 686,-164.5"/>
<text text-anchor="middle" x="745" y="-171.5" font-family="Helvetica,sans-Serif" font-size="10.00">NavEKF2::activeCores</text>
</a>
</g>
</g>
<!-- Node3&#45;&gt;Node9 -->
<g id="edge8" class="edge"><title>Node3&#45;&gt;Node9</title>
<path fill="none" stroke="midnightblue" d="M633.291,-163.021C650.685,-164.746 669.108,-166.573 685.829,-168.231"/>
<polygon fill="midnightblue" stroke="midnightblue" points="633.486,-159.523 623.189,-162.019 632.795,-166.489 633.486,-159.523"/>
</g>
<!-- Node5 -->
<g id="node5" class="node"><title>Node5</title>
<g id="a_node5"><a xlink:href="classAP__AHRS__NavEKF.html#ac8111979c5dc37a55b2c50818534ea52" target="_top" xlink:title="AP_AHRS_NavEKF::update">
<polygon fill="white" stroke="black" points="868,-202.5 868,-221.5 1010,-221.5 1010,-202.5 868,-202.5"/>
<text text-anchor="middle" x="939" y="-209.5" font-family="Helvetica,sans-Serif" font-size="10.00">AP_AHRS_NavEKF::update</text>
</a>
</g>
</g>
<!-- Node4&#45;&gt;Node5 -->
<g id="edge4" class="edge"><title>Node4&#45;&gt;Node5</title>
<path fill="none" stroke="midnightblue" d="M841.211,-212C850.227,-212 859.252,-212 867.969,-212"/>
<polygon fill="midnightblue" stroke="midnightblue" points="841.052,-208.5 831.052,-212 841.052,-215.5 841.052,-208.5"/>
</g>
<!-- Node6 -->
<g id="node6" class="node"><title>Node6</title>
<g id="a_node6"><a xlink:href="AHRS__Test_8cpp.html#a0b33edabd7f1c4e4a0bf32c67269be2f" target="_top" xlink:title="loop">
<polygon fill="white" stroke="black" points="1085.5,-202.5 1085.5,-221.5 1120.5,-221.5 1120.5,-202.5 1085.5,-202.5"/>
<text text-anchor="middle" x="1103" y="-209.5" font-family="Helvetica,sans-Serif" font-size="10.00">loop</text>
</a>
</g>
</g>
<!-- Node5&#45;&gt;Node6 -->
<g id="edge5" class="edge"><title>Node5&#45;&gt;Node6</title>
<path fill="none" stroke="midnightblue" d="M1020.29,-212C1044.99,-212 1069.78,-212 1085.47,-212"/>
<polygon fill="midnightblue" stroke="midnightblue" points="1020.11,-208.5 1010.11,-212 1020.11,-215.5 1020.11,-208.5"/>
</g>
<!-- Node10 -->
<g id="node10" class="node"><title>Node10</title>
<g id="a_node10"><a xlink:href="classDataFlash__Class.html#a46e58faaa53c44516433f6bb7bde4163" target="_top" xlink:title="DataFlash_Class::Log\l_Write_POS">
<polygon fill="white" stroke="black" points="882,-55 882,-85 996,-85 996,-55 882,-55"/>
<text text-anchor="start" x="890" y="-73" font-family="Helvetica,sans-Serif" font-size="10.00">DataFlash_Class::Log</text>
<text text-anchor="middle" x="939" y="-62" font-family="Helvetica,sans-Serif" font-size="10.00">_Write_POS</text>
</a>
</g>
</g>
<!-- Node9&#45;&gt;Node10 -->
<g id="edge9" class="edge"><title>Node9&#45;&gt;Node10</title>
<path fill="none" stroke="midnightblue" d="M814.178,-161.679C819.983,-159.759 825.668,-157.547 831,-155 868.249,-137.208 904.294,-104.334 923.564,-85.0996"/>
<polygon fill="midnightblue" stroke="midnightblue" points="812.901,-158.408 804.334,-164.642 814.918,-165.111 812.901,-158.408"/>
</g>
<!-- Node12 -->
<g id="node12" class="node"><title>Node12</title>
<g id="a_node12"><a xlink:href="classGCS__MAVLINK.html#a558ba3447048b78cb9dde460053e2741" target="_top" xlink:title="GCS_MAVLINK::send_ahrs2">
<polygon fill="white" stroke="black" points="867,-164.5 867,-183.5 1011,-183.5 1011,-164.5 867,-164.5"/>
<text text-anchor="middle" x="939" y="-171.5" font-family="Helvetica,sans-Serif" font-size="10.00">GCS_MAVLINK::send_ahrs2</text>
</a>
</g>
</g>
<!-- Node9&#45;&gt;Node12 -->
<g id="edge11" class="edge"><title>Node9&#45;&gt;Node12</title>
<path fill="none" stroke="midnightblue" d="M814.519,-174C831.503,-174 849.74,-174 866.846,-174"/>
<polygon fill="midnightblue" stroke="midnightblue" points="814.127,-170.5 804.127,-174 814.127,-177.5 814.127,-170.5"/>
</g>
<!-- Node11 -->
<g id="node11" class="node"><title>Node11</title>
<g id="a_node11"><a xlink:href="classDataFlash__Class.html#a7868f0e3dcef65ea5b5fcae618f4c5d4" target="_top" xlink:title="DataFlash_Class::get\l_structures">
<polygon fill="white" stroke="black" points="1047,-55 1047,-85 1159,-85 1159,-55 1047,-55"/>
<text text-anchor="start" x="1055" y="-73" font-family="Helvetica,sans-Serif" font-size="10.00">DataFlash_Class::get</text>
<text text-anchor="middle" x="1103" y="-62" font-family="Helvetica,sans-Serif" font-size="10.00">_structures</text>
</a>
</g>
</g>
<!-- Node10&#45;&gt;Node11 -->
<g id="edge10" class="edge"><title>Node10&#45;&gt;Node11</title>
<path fill="none" stroke="midnightblue" d="M1006.39,-70C1019.89,-70 1033.94,-70 1046.99,-70"/>
<polygon fill="midnightblue" stroke="midnightblue" points="1006.21,-66.5001 996.205,-70 1006.21,-73.5001 1006.21,-66.5001"/>
</g>
<!-- Node13&#45;&gt;Node2 -->
<g id="edge13" class="edge"><title>Node13&#45;&gt;Node2</title>
<path fill="none" stroke="midnightblue" d="M283.462,-131.323C298.78,-134.822 314.84,-138.49 329.753,-141.896"/>
<polygon fill="midnightblue" stroke="midnightblue" points="284.051,-127.867 273.523,-129.053 282.492,-134.691 284.051,-127.867"/>
</g>
<!-- Node15 -->
<g id="node15" class="node"><title>Node15</title>
<g id="a_node15"><a xlink:href="classNavEKF3__core.html#aae18ada44b1b7be0d45af03391ef961a" target="_top" xlink:title="NavEKF3_core::Initialise\lFilterBootstrap">
<polygon fill="white" stroke="black" points="330,-51 330,-81 455,-81 455,-51 330,-51"/>
<text text-anchor="start" x="338" y="-69" font-family="Helvetica,sans-Serif" font-size="10.00">NavEKF3_core::Initialise</text>
<text text-anchor="middle" x="392.5" y="-58" font-family="Helvetica,sans-Serif" font-size="10.00">FilterBootstrap</text>
</a>
</g>
</g>
<!-- Node14&#45;&gt;Node15 -->
<g id="edge15" class="edge"><title>Node14&#45;&gt;Node15</title>
<path fill="none" stroke="midnightblue" d="M283.9,-66C299.085,-66 314.982,-66 329.753,-66"/>
<polygon fill="midnightblue" stroke="midnightblue" points="283.523,-62.5001 273.523,-66 283.523,-69.5001 283.523,-62.5001"/>
</g>
<!-- Node16 -->
<g id="node16" class="node"><title>Node16</title>
<g id="a_node16"><a xlink:href="classNavEKF3.html#a07f064fa513fbb6e7188141904f3b5b5" target="_top" xlink:title="NavEKF3::InitialiseFilter">
<polygon fill="white" stroke="black" points="500,-56.5 500,-75.5 623,-75.5 623,-56.5 500,-56.5"/>
<text text-anchor="middle" x="561.5" y="-63.5" font-family="Helvetica,sans-Serif" font-size="10.00">NavEKF3::InitialiseFilter</text>
</a>
</g>
</g>
<!-- Node15&#45;&gt;Node16 -->
<g id="edge16" class="edge"><title>Node15&#45;&gt;Node16</title>
<path fill="none" stroke="midnightblue" d="M465.249,-66C476.788,-66 488.633,-66 499.878,-66"/>
<polygon fill="midnightblue" stroke="midnightblue" points="465.21,-62.5001 455.21,-66 465.21,-69.5001 465.21,-62.5001"/>
</g>
<!-- Node16&#45;&gt;Node7 -->
<g id="edge19" class="edge"><title>Node16&#45;&gt;Node7</title>
<path fill="none" stroke="midnightblue" d="M586.631,-80.6378C605.702,-91.674 633.301,-106.486 659,-116 670.089,-120.105 682.312,-123.566 693.948,-126.393"/>
<polygon fill="midnightblue" stroke="midnightblue" points="588.393,-77.6141 577.999,-75.5631 584.846,-83.6485 588.393,-77.6141"/>
</g>
<!-- Node16&#45;&gt;Node8 -->
<g id="edge20" class="edge"><title>Node16&#45;&gt;Node8</title>
<path fill="none" stroke="midnightblue" d="M633.201,-76.128C647.862,-78.2281 663.257,-80.4335 677.751,-82.5098"/>
<polygon fill="midnightblue" stroke="midnightblue" points="633.585,-72.6473 623.189,-74.6938 632.592,-79.5765 633.585,-72.6473"/>
</g>
<!-- Node17 -->
<g id="node17" class="node"><title>Node17</title>
<g id="a_node17"><a xlink:href="classAP__AHRS__NavEKF.html#a324160404f12959e955554f5aed26459" target="_top" xlink:title="AP_AHRS_NavEKF::update_EKF3">
<polygon fill="white" stroke="black" points="659,-38.5 659,-57.5 831,-57.5 831,-38.5 659,-38.5"/>
<text text-anchor="middle" x="745" y="-45.5" font-family="Helvetica,sans-Serif" font-size="10.00">AP_AHRS_NavEKF::update_EKF3</text>
</a>
</g>
</g>
<!-- Node16&#45;&gt;Node17 -->
<g id="edge17" class="edge"><title>Node16&#45;&gt;Node17</title>
<path fill="none" stroke="midnightblue" d="M633.268,-58.9816C641.646,-58.1508 650.262,-57.2963 658.812,-56.4484"/>
<polygon fill="midnightblue" stroke="midnightblue" points="632.795,-55.5113 623.189,-59.9812 633.486,-62.4772 632.795,-55.5113"/>
</g>
<!-- Node18 -->
<g id="node18" class="node"><title>Node18</title>
<g id="a_node18"><a xlink:href="classNavEKF3.html#a3e1f50ad977a17222fcd7a6851b0f2ec" target="_top" xlink:title="NavEKF3::activeCores">
<polygon fill="white" stroke="black" points="686,-0.5 686,-19.5 804,-19.5 804,-0.5 686,-0.5"/>
<text text-anchor="middle" x="745" y="-7.5" font-family="Helvetica,sans-Serif" font-size="10.00">NavEKF3::activeCores</text>
</a>
</g>
</g>
<!-- Node16&#45;&gt;Node18 -->
<g id="edge21" class="edge"><title>Node16&#45;&gt;Node18</title>
<path fill="none" stroke="midnightblue" d="M594.261,-52.4747C612.889,-44.8833 637.013,-35.6337 659,-29 670.726,-25.4622 683.541,-22.261 695.583,-19.5376"/>
<polygon fill="midnightblue" stroke="midnightblue" points="592.702,-49.3315 584.794,-56.3823 595.373,-55.802 592.702,-49.3315"/>
</g>
<!-- Node17&#45;&gt;Node5 -->
<g id="edge18" class="edge"><title>Node17&#45;&gt;Node5</title>
<path fill="none" stroke="midnightblue" d="M826.318,-63.0764C827.95,-64.2935 829.515,-65.5993 831,-67 873.367,-106.963 825.473,-152.165 867,-193 870.912,-196.847 875.513,-199.938 880.462,-202.418"/>
<polygon fill="midnightblue" stroke="midnightblue" points="827.999,-60.0004 817.657,-57.7028 824.309,-65.9488 827.999,-60.0004"/>
</g>
<!-- Node18&#45;&gt;Node10 -->
<g id="edge22" class="edge"><title>Node18&#45;&gt;Node10</title>
<path fill="none" stroke="midnightblue" d="M804.43,-21.8775C813.385,-24.0382 822.48,-26.4304 831,-29 855.189,-36.2951 881.711,-46.4426 902.299,-54.8169"/>
<polygon fill="midnightblue" stroke="midnightblue" points="804.951,-18.405 794.417,-19.5393 803.359,-25.2216 804.951,-18.405"/>
</g>
<!-- Node19&#45;&gt;Node2 -->
<g id="edge24" class="edge"><title>Node19&#45;&gt;Node2</title>
<path fill="none" stroke="midnightblue" d="M263.474,-185.243C284.118,-180.527 308.086,-175.053 329.663,-170.124"/>
<polygon fill="midnightblue" stroke="midnightblue" points="262.602,-181.852 253.632,-187.491 264.16,-188.676 262.602,-181.852"/>
</g>
<!-- Node20 -->
<g id="node20" class="node"><title>Node20</title>
<g id="a_node20"><a xlink:href="classNavEKF2__core.html#a5f5c815cbd5ebba30d731f89f87726c3" target="_top" xlink:title="NavEKF2_core::UpdateFilter">
<polygon fill="white" stroke="black" points="321,-190.5 321,-209.5 464,-209.5 464,-190.5 321,-190.5"/>
<text text-anchor="middle" x="392.5" y="-197.5" font-family="Helvetica,sans-Serif" font-size="10.00">NavEKF2_core::UpdateFilter</text>
</a>
</g>
</g>
<!-- Node19&#45;&gt;Node20 -->
<g id="edge25" class="edge"><title>Node19&#45;&gt;Node20</title>
<path fill="none" stroke="midnightblue" d="M295.077,-198.388C303.702,-198.533 312.41,-198.678 320.879,-198.82"/>
<polygon fill="midnightblue" stroke="midnightblue" points="295.067,-194.888 285.01,-198.22 294.95,-201.887 295.067,-194.888"/>
</g>
<!-- Node21 -->
<g id="node21" class="node"><title>Node21</title>
<g id="a_node21"><a xlink:href="classNavEKF2.html#a72815b1bbd9d7ceb0ff7ae52d14516df" target="_top" xlink:title="NavEKF2::UpdateFilter">
<polygon fill="white" stroke="black" points="502,-190.5 502,-209.5 621,-209.5 621,-190.5 502,-190.5"/>
<text text-anchor="middle" x="561.5" y="-197.5" font-family="Helvetica,sans-Serif" font-size="10.00">NavEKF2::UpdateFilter</text>
</a>
</g>
</g>
<!-- Node20&#45;&gt;Node21 -->
<g id="edge26" class="edge"><title>Node20&#45;&gt;Node21</title>
<path fill="none" stroke="midnightblue" d="M474.372,-200C483.669,-200 493.01,-200 501.932,-200"/>
<polygon fill="midnightblue" stroke="midnightblue" points="474.323,-196.5 464.323,-200 474.323,-203.5 474.323,-196.5"/>
</g>
<!-- Node21&#45;&gt;Node4 -->
<g id="edge27" class="edge"><title>Node21&#45;&gt;Node4</title>
<path fill="none" stroke="midnightblue" d="M631.205,-204.542C640.221,-205.139 649.547,-205.755 658.795,-206.367"/>
<polygon fill="midnightblue" stroke="midnightblue" points="631.386,-201.047 621.177,-203.879 630.924,-208.032 631.386,-201.047"/>
</g>
<!-- Node21&#45;&gt;Node9 -->
<g id="edge28" class="edge"><title>Node21&#45;&gt;Node9</title>
<path fill="none" stroke="midnightblue" d="M631.305,-190.144C649.279,-187.569 668.474,-184.819 685.835,-182.332"/>
<polygon fill="midnightblue" stroke="midnightblue" points="630.58,-186.712 621.177,-191.594 631.572,-193.641 630.58,-186.712"/>
</g>
<!-- Node22&#45;&gt;Node15 -->
<g id="edge30" class="edge"><title>Node22&#45;&gt;Node15</title>
<path fill="none" stroke="midnightblue" d="M260.771,-33.955C282.124,-39.1892 307.418,-45.3893 330.04,-50.9346"/>
<polygon fill="midnightblue" stroke="midnightblue" points="261.495,-30.5288 250.949,-31.5473 259.828,-37.3276 261.495,-30.5288"/>
</g>
<!-- Node23 -->
<g id="node23" class="node"><title>Node23</title>
<g id="a_node23"><a xlink:href="classNavEKF3__core.html#a2a7fae9e0bf2ce6fc2f9b3918dc168d3" target="_top" xlink:title="NavEKF3_core::UpdateFilter">
<polygon fill="white" stroke="black" points="321,-12.5 321,-31.5 464,-31.5 464,-12.5 321,-12.5"/>
<text text-anchor="middle" x="392.5" y="-19.5" font-family="Helvetica,sans-Serif" font-size="10.00">NavEKF3_core::UpdateFilter</text>
</a>
</g>
</g>
<!-- Node22&#45;&gt;Node23 -->
<g id="edge31" class="edge"><title>Node22&#45;&gt;Node23</title>
<path fill="none" stroke="midnightblue" d="M295.077,-22C303.702,-22 312.41,-22 320.879,-22"/>
<polygon fill="midnightblue" stroke="midnightblue" points="295.01,-18.5001 285.01,-22 295.009,-25.5001 295.01,-18.5001"/>
</g>
<!-- Node24 -->
<g id="node24" class="node"><title>Node24</title>
<g id="a_node24"><a xlink:href="classNavEKF3.html#a477020fcf29376e0c2205dbf79728104" target="_top" xlink:title="NavEKF3::UpdateFilter">
<polygon fill="white" stroke="black" points="502,-12.5 502,-31.5 621,-31.5 621,-12.5 502,-12.5"/>
<text text-anchor="middle" x="561.5" y="-19.5" font-family="Helvetica,sans-Serif" font-size="10.00">NavEKF3::UpdateFilter</text>
</a>
</g>
</g>
<!-- Node23&#45;&gt;Node24 -->
<g id="edge32" class="edge"><title>Node23&#45;&gt;Node24</title>
<path fill="none" stroke="midnightblue" d="M474.372,-22C483.669,-22 493.01,-22 501.932,-22"/>
<polygon fill="midnightblue" stroke="midnightblue" points="474.323,-18.5001 464.323,-22 474.323,-25.5001 474.323,-18.5001"/>
</g>
<!-- Node24&#45;&gt;Node17 -->
<g id="edge33" class="edge"><title>Node24&#45;&gt;Node17</title>
<path fill="none" stroke="midnightblue" d="M631.496,-31.8837C646.631,-34.0518 662.624,-36.3429 677.653,-38.4957"/>
<polygon fill="midnightblue" stroke="midnightblue" points="631.572,-28.359 621.177,-30.4055 630.58,-35.2883 631.572,-28.359"/>
</g>
<!-- Node24&#45;&gt;Node18 -->
<g id="edge34" class="edge"><title>Node24&#45;&gt;Node18</title>
<path fill="none" stroke="midnightblue" d="M631.305,-17.4509C649.279,-16.2625 668.474,-14.9934 685.835,-13.8456"/>
<polygon fill="midnightblue" stroke="midnightblue" points="630.924,-13.9683 621.177,-18.1205 631.386,-20.9531 630.924,-13.9683"/>
</g>
</g>
</svg>
        <g id="navigator" transform="translate(0 0)" fill="#404254">
                <rect fill="#f2f5e9" fill-opacity="0.5" stroke="#606060" stroke-width=".5" x="0" y="0" width="60" height="60"/>
                <use id="zoomplus" xlink:href="#zoomPlus" x="17" y="9" onmousedown="handleZoom(evt,'in')"/>
                <use id="zoomminus" xlink:href="#zoomMin" x="42" y="9" onmousedown="handleZoom(evt,'out')"/>
                <use id="reset" xlink:href="#resetDef" x="30" y="36" onmousedown="handleReset()"/>
                <g id="arrowUp" xlink:href="#dirArrow" transform="translate(30 24)" onmousedown="handlePan(0,-1)">
                  <use xlink:href="#rim" fill="#404040">
                        <set attributeName="fill" to="#808080" begin="arrowUp.mouseover" end="arrowUp.mouseout"/>
                  </use>
                  <path fill="none" stroke="white" stroke-width="1.5" d="M0,-3.0v7 M-2.5,-0.5L0,-3.0L2.5,-0.5"/>
                </g>
                <g id="arrowRight" xlink:href="#dirArrow" transform="rotate(90) translate(36 -43)" onmousedown="handlePan(1,0)">
                  <use xlink:href="#rim" fill="#404040">
                        <set attributeName="fill" to="#808080" begin="arrowRight.mouseover" end="arrowRight.mouseout"/>
                  </use>
                  <path fill="none" stroke="white" stroke-width="1.5" d="M0,-3.0v7 M-2.5,-0.5L0,-3.0L2.5,-0.5"/>
                </g>
                <g id="arrowDown" xlink:href="#dirArrow" transform="rotate(180) translate(-30 -48)" onmousedown="handlePan(0,1)">
                  <use xlink:href="#rim" fill="#404040">
                        <set attributeName="fill" to="#808080" begin="arrowDown.mouseover" end="arrowDown.mouseout"/>
                  </use>
                  <path fill="none" stroke="white" stroke-width="1.5" d="M0,-3.0v7 M-2.5,-0.5L0,-3.0L2.5,-0.5"/>
                </g>
                <g id="arrowLeft" xlink:href="#dirArrow" transform="rotate(270) translate(-36 17)" onmousedown="handlePan(-1,0)">
                  <use xlink:href="#rim" fill="#404040">
                        <set attributeName="fill" to="#808080" begin="arrowLeft.mouseover" end="arrowLeft.mouseout"/>
                  </use>
                  <path fill="none" stroke="white" stroke-width="1.5" d="M0,-3.0v7 M-2.5,-0.5L0,-3.0L2.5,-0.5"/>
                </g>
        </g>
        <svg viewBox="0 0 15 15" width="100%" height="30px" preserveAspectRatio="xMaxYMin meet">
         <g id="arrow_out" transform="scale(0.3 0.3)">
          <a xlink:href="classAP__InertialSensor_a2f4bc45cbad98a18a4d74210bf62e9c3_icgraph_org.svg" target="_base">
           <rect id="button" ry="5" rx="5" y="6" x="6" height="38" width="38"
                fill="#f2f5e9" fill-opacity="0.5" stroke="#606060" stroke-width="1.0"/>
           <path id="arrow"
             d="M 11.500037,31.436501 C 11.940474,20.09759 22.043105,11.32322 32.158766,21.979434 L 37.068811,17.246167 C 37.068811,17.246167 37.088388,32 37.088388,32 L 22.160133,31.978069 C 22.160133,31.978069 26.997745,27.140456 26.997745,27.140456 C 18.528582,18.264221 13.291696,25.230495 11.500037,31.436501 z"
             style="fill:#404040;"/>
          </a>
         </g>
        </svg>
</svg>
