<?xml version="1.0" encoding="UTF-8" standalone="no"?>
<!DOCTYPE svg PUBLIC "-//W3C//DTD SVG 1.1//EN"
 "http://www.w3.org/Graphics/SVG/1.1/DTD/svg11.dtd">
<!-- Generated by graphviz version 2.38.0 (20140413.2041)
 -->
<!-- Title: AP_Frsky_Telem::send_SPort Pages: 1 -->
<svg width="847pt" height="493pt"
 viewBox="0.00 0.00 847.00 493.00" xmlns="http://www.w3.org/2000/svg" xmlns:xlink="http://www.w3.org/1999/xlink">
<g id="graph0" class="graph" transform="scale(1 1) rotate(0) translate(4 489)">
<title>AP_Frsky_Telem::send_SPort</title>
<polygon fill="white" stroke="none" points="-4,4 -4,-489 843,-489 843,4 -4,4"/>
<!-- Node1 -->
<g id="node1" class="node"><title>Node1</title>
<polygon fill="#bfbfbf" stroke="black" points="0,-228 0,-258 119,-258 119,-228 0,-228"/>
<text text-anchor="start" x="8" y="-246" font-family="Helvetica,sans-Serif" font-size="10.00">AP_Frsky_Telem::send</text>
<text text-anchor="middle" x="59.5" y="-235" font-family="Helvetica,sans-Serif" font-size="10.00">_SPort</text>
</g>
<!-- Node2 -->
<g id="node2" class="node"><title>Node2</title>
<g id="a_node2"><a xlink:href="classAP__HAL_1_1Stream.html#ae6aa935b5bbd553a2654bfec4e14961e" target="_top" xlink:title="AP_HAL::Stream::available">
<polygon fill="white" stroke="black" points="162,-465.5 162,-484.5 299,-484.5 299,-465.5 162,-465.5"/>
<text text-anchor="middle" x="230.5" y="-472.5" font-family="Helvetica,sans-Serif" font-size="10.00">AP_HAL::Stream::available</text>
</a>
</g>
</g>
<!-- Node1&#45;&gt;Node2 -->
<g id="edge1" class="edge"><title>Node1&#45;&gt;Node2</title>
<path fill="none" stroke="midnightblue" d="M62.621,-258.047C68.9415,-297.07 91.3387,-402.219 155,-456 157.007,-457.696 159.147,-459.243 161.386,-460.655"/>
<polygon fill="midnightblue" stroke="midnightblue" points="159.973,-463.867 170.448,-465.455 163.249,-457.681 159.973,-463.867"/>
</g>
<!-- Node3 -->
<g id="node3" class="node"><title>Node3</title>
<g id="a_node3"><a xlink:href="classAP__HAL_1_1Stream.html#a1768308e013072eb91ecf0ccdc171da6" target="_top" xlink:title="AP_HAL::Stream::txspace">
<polygon fill="white" stroke="black" points="164,-427.5 164,-446.5 297,-446.5 297,-427.5 164,-427.5"/>
<text text-anchor="middle" x="230.5" y="-434.5" font-family="Helvetica,sans-Serif" font-size="10.00">AP_HAL::Stream::txspace</text>
</a>
</g>
</g>
<!-- Node1&#45;&gt;Node3 -->
<g id="edge2" class="edge"><title>Node1&#45;&gt;Node3</title>
<path fill="none" stroke="midnightblue" d="M64.2034,-258.103C73.3688,-292.186 100.423,-375.407 155,-418 157.318,-419.809 159.789,-421.448 162.37,-422.932"/>
<polygon fill="midnightblue" stroke="midnightblue" points="160.98,-426.148 171.501,-427.404 164.059,-419.862 160.98,-426.148"/>
</g>
<!-- Node4 -->
<g id="node4" class="node"><title>Node4</title>
<g id="a_node4"><a xlink:href="classAP__HAL_1_1Stream.html#ae42ff362cc2a7e527c22f92a3740c2ac" target="_top" xlink:title="AP_HAL::Stream::read">
<polygon fill="white" stroke="black" points="172,-389.5 172,-408.5 289,-408.5 289,-389.5 172,-389.5"/>
<text text-anchor="middle" x="230.5" y="-396.5" font-family="Helvetica,sans-Serif" font-size="10.00">AP_HAL::Stream::read</text>
</a>
</g>
</g>
<!-- Node1&#45;&gt;Node4 -->
<g id="edge3" class="edge"><title>Node1&#45;&gt;Node4</title>
<path fill="none" stroke="midnightblue" d="M66.5383,-258.017C78.7654,-286.446 109.238,-348.13 155,-380 157.88,-382.006 160.955,-383.8 164.154,-385.406"/>
<polygon fill="midnightblue" stroke="midnightblue" points="162.873,-388.665 173.439,-389.446 165.666,-382.246 162.873,-388.665"/>
</g>
<!-- Node5 -->
<g id="node5" class="node"><title>Node5</title>
<g id="a_node5"><a xlink:href="classAP__Frsky__Telem.html#ad990138e15c63b3398944af22e89844b" target="_top" xlink:title="AP_Frsky_Telem::send\l_uint32">
<polygon fill="white" stroke="black" points="171,-340 171,-370 290,-370 290,-340 171,-340"/>
<text text-anchor="start" x="179" y="-358" font-family="Helvetica,sans-Serif" font-size="10.00">AP_Frsky_Telem::send</text>
<text text-anchor="middle" x="230.5" y="-347" font-family="Helvetica,sans-Serif" font-size="10.00">_uint32</text>
</a>
</g>
</g>
<!-- Node1&#45;&gt;Node5 -->
<g id="edge4" class="edge"><title>Node1&#45;&gt;Node5</title>
<path fill="none" stroke="midnightblue" d="M73.0209,-258.225C89.7916,-277.698 121.358,-311.256 155,-331 157.961,-332.738 161.063,-334.366 164.25,-335.89"/>
<polygon fill="midnightblue" stroke="midnightblue" points="162.844,-339.095 173.407,-339.912 165.659,-332.686 162.844,-339.095"/>
</g>
<!-- Node10 -->
<g id="node10" class="node"><title>Node10</title>
<g id="a_node10"><a xlink:href="classAP__BattMonitor.html#af18badc88524b2cf400fb43418daa8c9" target="_top" xlink:title="capacity_remaining_pct &#45; returns the % battery capacity remaining (0 ~ 100) ">
<polygon fill="white" stroke="black" points="166.5,-291 166.5,-321 294.5,-321 294.5,-291 166.5,-291"/>
<text text-anchor="start" x="174.5" y="-309" font-family="Helvetica,sans-Serif" font-size="10.00">AP_BattMonitor::capacity</text>
<text text-anchor="middle" x="230.5" y="-298" font-family="Helvetica,sans-Serif" font-size="10.00">_remaining_pct</text>
</a>
</g>
</g>
<!-- Node1&#45;&gt;Node10 -->
<g id="edge10" class="edge"><title>Node1&#45;&gt;Node10</title>
<path fill="none" stroke="midnightblue" d="M96.656,-258.116C114.18,-265.294 135.587,-273.847 155,-281 160.965,-283.198 167.226,-285.424 173.478,-287.595"/>
<polygon fill="midnightblue" stroke="midnightblue" points="172.658,-291.014 183.253,-290.949 174.93,-284.393 172.658,-291.014"/>
</g>
<!-- Node12 -->
<g id="node12" class="node"><title>Node12</title>
<g id="a_node12"><a xlink:href="classAP__BattMonitor.html#ab5789eb7d45ec25b685adfaaf9167284" target="_top" xlink:title="voltage &#45; returns battery voltage in millivolts ">
<polygon fill="white" stroke="black" points="169,-252.5 169,-271.5 292,-271.5 292,-252.5 169,-252.5"/>
<text text-anchor="middle" x="230.5" y="-259.5" font-family="Helvetica,sans-Serif" font-size="10.00">AP_BattMonitor::voltage</text>
</a>
</g>
</g>
<!-- Node1&#45;&gt;Node12 -->
<g id="edge12" class="edge"><title>Node1&#45;&gt;Node12</title>
<path fill="none" stroke="midnightblue" d="M119.134,-249.592C131.973,-251.035 145.693,-252.578 158.943,-254.068"/>
<polygon fill="midnightblue" stroke="midnightblue" points="158.633,-257.555 168.962,-255.194 159.415,-250.599 158.633,-257.555"/>
</g>
<!-- Node13 -->
<g id="node13" class="node"><title>Node13</title>
<g id="a_node13"><a xlink:href="classAP__BattMonitor.html#af73075a42b0aa50dca77e16625fb1122" target="_top" xlink:title="current_amps &#45; returns the instantaneous current draw in amperes ">
<polygon fill="white" stroke="black" points="155,-214.5 155,-233.5 306,-233.5 306,-214.5 155,-214.5"/>
<text text-anchor="middle" x="230.5" y="-221.5" font-family="Helvetica,sans-Serif" font-size="10.00">AP_BattMonitor::current_amps</text>
</a>
</g>
</g>
<!-- Node1&#45;&gt;Node13 -->
<g id="edge13" class="edge"><title>Node1&#45;&gt;Node13</title>
<path fill="none" stroke="midnightblue" d="M119.134,-236.408C127.425,-235.476 136.084,-234.502 144.746,-233.529"/>
<polygon fill="midnightblue" stroke="midnightblue" points="145.348,-236.983 154.895,-232.388 144.566,-230.027 145.348,-236.983"/>
</g>
<!-- Node14 -->
<g id="node14" class="node"><title>Node14</title>
<g id="a_node14"><a xlink:href="classAP__Frsky__Telem.html#a3c2d1507eebd46226d888b656640f3e0" target="_top" xlink:title="AP_Frsky_Telem::calc\l_gps_position">
<polygon fill="white" stroke="black" points="172.5,-127 172.5,-157 288.5,-157 288.5,-127 172.5,-127"/>
<text text-anchor="start" x="180.5" y="-145" font-family="Helvetica,sans-Serif" font-size="10.00">AP_Frsky_Telem::calc</text>
<text text-anchor="middle" x="230.5" y="-134" font-family="Helvetica,sans-Serif" font-size="10.00">_gps_position</text>
</a>
</g>
</g>
<!-- Node1&#45;&gt;Node14 -->
<g id="edge14" class="edge"><title>Node1&#45;&gt;Node14</title>
<path fill="none" stroke="midnightblue" d="M77.6549,-227.918C95.8935,-212.426 126.045,-188.333 155,-172 161.994,-168.055 169.61,-164.367 177.216,-161.02"/>
<polygon fill="midnightblue" stroke="midnightblue" points="178.602,-164.234 186.446,-157.112 175.873,-157.788 178.602,-164.234"/>
</g>
<!-- Node15 -->
<g id="node15" class="node"><title>Node15</title>
<g id="a_node15"><a xlink:href="classAP__AHRS.html#a3316284b2bf12b8db1b4a39539799efc" target="_top" xlink:title="AP_AHRS::get_gps">
<polygon fill="white" stroke="black" points="363.5,-234.5 363.5,-253.5 467.5,-253.5 467.5,-234.5 363.5,-234.5"/>
<text text-anchor="middle" x="415.5" y="-241.5" font-family="Helvetica,sans-Serif" font-size="10.00">AP_AHRS::get_gps</text>
</a>
</g>
</g>
<!-- Node1&#45;&gt;Node15 -->
<g id="edge24" class="edge"><title>Node1&#45;&gt;Node15</title>
<path fill="none" stroke="midnightblue" d="M89.8223,-227.816C108.045,-219.249 132.257,-209.401 155,-205 220.889,-192.249 241.035,-188.166 306,-205 323.718,-209.591 325.014,-218.182 342,-225 348.166,-227.475 354.757,-229.719 361.357,-231.725"/>
<polygon fill="midnightblue" stroke="midnightblue" points="360.409,-235.094 370.987,-234.493 362.343,-228.366 360.409,-235.094"/>
</g>
<!-- Node16 -->
<g id="node16" class="node"><title>Node16</title>
<g id="a_node16"><a xlink:href="classAP__GPS.html#a9093c8cf1d5a78ccd8677229bb314d37" target="_top" xlink:title="Query GPS status. ">
<polygon fill="white" stroke="black" points="371,-82.5 371,-101.5 460,-101.5 460,-82.5 371,-82.5"/>
<text text-anchor="middle" x="415.5" y="-89.5" font-family="Helvetica,sans-Serif" font-size="10.00">AP_GPS::status</text>
</a>
</g>
</g>
<!-- Node1&#45;&gt;Node16 -->
<g id="edge26" class="edge"><title>Node1&#45;&gt;Node16</title>
<path fill="none" stroke="midnightblue" d="M66.9204,-227.837C79.3886,-200.502 109.693,-143.442 155,-118 218.793,-82.1777 305.441,-81.2185 360.676,-85.3835"/>
<polygon fill="midnightblue" stroke="midnightblue" points="360.693,-88.897 370.95,-86.2447 361.277,-81.9215 360.693,-88.897"/>
</g>
<!-- Node20 -->
<g id="node20" class="node"><title>Node20</title>
<g id="a_node20"><a xlink:href="classAP__Frsky__Telem.html#ae1da62072144b06dbb545bfaf9e37e59" target="_top" xlink:title="AP_Frsky_Telem::calc\l_nav_alt">
<polygon fill="white" stroke="black" points="172.5,-39 172.5,-69 288.5,-69 288.5,-39 172.5,-39"/>
<text text-anchor="start" x="180.5" y="-57" font-family="Helvetica,sans-Serif" font-size="10.00">AP_Frsky_Telem::calc</text>
<text text-anchor="middle" x="230.5" y="-46" font-family="Helvetica,sans-Serif" font-size="10.00">_nav_alt</text>
</a>
</g>
</g>
<!-- Node1&#45;&gt;Node20 -->
<g id="edge20" class="edge"><title>Node1&#45;&gt;Node20</title>
<path fill="none" stroke="midnightblue" d="M65.7652,-227.642C77.2069,-196.404 107.216,-124.963 155,-84 159.476,-80.1631 164.506,-76.7752 169.784,-73.7928"/>
<polygon fill="midnightblue" stroke="midnightblue" points="171.544,-76.8235 178.848,-69.1485 168.352,-70.5937 171.544,-76.8235"/>
</g>
<!-- Node24 -->
<g id="node24" class="node"><title>Node24</title>
<g id="a_node24"><a xlink:href="classAP__GPS.html#af74c8da8ab7394a33b0f0e64582d8648" target="_top" xlink:title="AP_GPS::num_sats">
<polygon fill="white" stroke="black" points="178,-0.5 178,-19.5 283,-19.5 283,-0.5 178,-0.5"/>
<text text-anchor="middle" x="230.5" y="-7.5" font-family="Helvetica,sans-Serif" font-size="10.00">AP_GPS::num_sats</text>
</a>
</g>
</g>
<!-- Node1&#45;&gt;Node24 -->
<g id="edge25" class="edge"><title>Node1&#45;&gt;Node24</title>
<path fill="none" stroke="midnightblue" d="M62.5978,-227.884C68.8622,-188.682 91.1357,-83.0476 155,-29 158.974,-25.6371 163.466,-22.8579 168.226,-20.5625"/>
<polygon fill="midnightblue" stroke="midnightblue" points="169.709,-23.7377 177.645,-16.7186 167.064,-17.2566 169.709,-23.7377"/>
</g>
<!-- Node6 -->
<g id="node6" class="node"><title>Node6</title>
<g id="a_node6"><a xlink:href="classAP__Frsky__Telem.html#ae275bd26952ce5ba1eda5650cc7bdcd1" target="_top" xlink:title="AP_Frsky_Telem::send_byte">
<polygon fill="white" stroke="black" points="525,-361.5 525,-380.5 668,-380.5 668,-361.5 525,-361.5"/>
<text text-anchor="middle" x="596.5" y="-368.5" font-family="Helvetica,sans-Serif" font-size="10.00">AP_Frsky_Telem::send_byte</text>
</a>
</g>
</g>
<!-- Node5&#45;&gt;Node6 -->
<g id="edge5" class="edge"><title>Node5&#45;&gt;Node6</title>
<path fill="none" stroke="midnightblue" d="M290.11,-365.087C306.821,-367.527 325.083,-369.782 342,-371 399.7,-375.156 464.979,-375.044 514.842,-373.951"/>
<polygon fill="midnightblue" stroke="midnightblue" points="515.006,-377.448 524.921,-373.713 514.841,-370.45 515.006,-377.448"/>
</g>
<!-- Node9 -->
<g id="node9" class="node"><title>Node9</title>
<g id="a_node9"><a xlink:href="classAP__Frsky__Telem.html#a40947bbc812b8af55d8c01e41888cc11" target="_top" xlink:title="AP_Frsky_Telem::send_crc">
<polygon fill="white" stroke="black" points="346.5,-342.5 346.5,-361.5 484.5,-361.5 484.5,-342.5 346.5,-342.5"/>
<text text-anchor="middle" x="415.5" y="-349.5" font-family="Helvetica,sans-Serif" font-size="10.00">AP_Frsky_Telem::send_crc</text>
</a>
</g>
</g>
<!-- Node5&#45;&gt;Node9 -->
<g id="edge8" class="edge"><title>Node5&#45;&gt;Node9</title>
<path fill="none" stroke="midnightblue" d="M290.157,-354.038C304.822,-353.798 320.785,-353.536 336.233,-353.283"/>
<polygon fill="midnightblue" stroke="midnightblue" points="336.351,-356.782 346.292,-353.118 336.236,-349.783 336.351,-356.782"/>
</g>
<!-- Node7 -->
<g id="node7" class="node"><title>Node7</title>
<g id="a_node7"><a xlink:href="classAP__HAL_1_1Print.html#acc65391952a43334f8f5c9bef341f501" target="_top" xlink:title="AP_HAL::Print::write">
<polygon fill="white" stroke="black" points="717.5,-380.5 717.5,-399.5 825.5,-399.5 825.5,-380.5 717.5,-380.5"/>
<text text-anchor="middle" x="771.5" y="-387.5" font-family="Helvetica,sans-Serif" font-size="10.00">AP_HAL::Print::write</text>
</a>
</g>
</g>
<!-- Node6&#45;&gt;Node7 -->
<g id="edge6" class="edge"><title>Node6&#45;&gt;Node7</title>
<path fill="none" stroke="midnightblue" d="M668.365,-378.783C681.324,-380.206 694.767,-381.682 707.478,-383.079"/>
<polygon fill="midnightblue" stroke="midnightblue" points="707.17,-386.566 717.492,-384.178 707.934,-379.607 707.17,-386.566"/>
</g>
<!-- Node8 -->
<g id="node8" class="node"><title>Node8</title>
<g id="a_node8"><a xlink:href="classAP__Frsky__Telem.html#a276d82db4184b09f3c21934ed9a715b6" target="_top" xlink:title="AP_Frsky_Telem::calc_crc">
<polygon fill="white" stroke="black" points="704,-342.5 704,-361.5 839,-361.5 839,-342.5 704,-342.5"/>
<text text-anchor="middle" x="771.5" y="-349.5" font-family="Helvetica,sans-Serif" font-size="10.00">AP_Frsky_Telem::calc_crc</text>
</a>
</g>
</g>
<!-- Node6&#45;&gt;Node8 -->
<g id="edge7" class="edge"><title>Node6&#45;&gt;Node8</title>
<path fill="none" stroke="midnightblue" d="M668.365,-363.217C676.724,-362.299 685.284,-361.359 693.719,-360.433"/>
<polygon fill="midnightblue" stroke="midnightblue" points="694.367,-363.883 703.925,-359.312 693.603,-356.924 694.367,-363.883"/>
</g>
<!-- Node9&#45;&gt;Node6 -->
<g id="edge9" class="edge"><title>Node9&#45;&gt;Node6</title>
<path fill="none" stroke="midnightblue" d="M484.683,-359.237C494.538,-360.283 504.759,-361.368 514.83,-362.437"/>
<polygon fill="midnightblue" stroke="midnightblue" points="514.518,-365.924 524.832,-363.499 515.257,-358.963 514.518,-365.924"/>
</g>
<!-- Node11 -->
<g id="node11" class="node"><title>Node11</title>
<g id="a_node11"><a xlink:href="classAP__BattMonitor__Backend.html#a47fe3bc306e5ff449a93b3095fb915bb" target="_top" xlink:title="capacity_remaining_pct &#45; returns the % battery capacity remaining (0 ~ 100) ">
<polygon fill="white" stroke="black" points="351,-291 351,-321 480,-321 480,-291 351,-291"/>
<text text-anchor="start" x="359" y="-309" font-family="Helvetica,sans-Serif" font-size="10.00">AP_BattMonitor_Backend</text>
<text text-anchor="middle" x="415.5" y="-298" font-family="Helvetica,sans-Serif" font-size="10.00">::capacity_remaining_pct</text>
</a>
</g>
</g>
<!-- Node10&#45;&gt;Node11 -->
<g id="edge11" class="edge"><title>Node10&#45;&gt;Node11</title>
<path fill="none" stroke="midnightblue" d="M294.734,-306C309.508,-306 325.372,-306 340.564,-306"/>
<polygon fill="midnightblue" stroke="midnightblue" points="340.953,-309.5 350.953,-306 340.953,-302.5 340.953,-309.5"/>
</g>
<!-- Node14&#45;&gt;Node15 -->
<g id="edge15" class="edge"><title>Node14&#45;&gt;Node15</title>
<path fill="none" stroke="midnightblue" d="M281.08,-157.147C289.902,-161.143 298.618,-166.049 306,-172 328.169,-189.872 318.745,-208.566 342,-225 345.686,-227.605 349.704,-229.853 353.897,-231.792"/>
<polygon fill="midnightblue" stroke="midnightblue" points="352.709,-235.087 363.293,-235.565 355.317,-228.591 352.709,-235.087"/>
</g>
<!-- Node14&#45;&gt;Node16 -->
<g id="edge16" class="edge"><title>Node14&#45;&gt;Node16</title>
<path fill="none" stroke="midnightblue" d="M284.283,-126.993C302.545,-121.853 323.155,-116.112 342,-111 350.304,-108.747 359.155,-106.391 367.717,-104.134"/>
<polygon fill="midnightblue" stroke="midnightblue" points="368.801,-107.468 377.585,-101.543 367.024,-100.698 368.801,-107.468"/>
</g>
<!-- Node17 -->
<g id="node17" class="node"><title>Node17</title>
<g id="a_node17"><a xlink:href="classAP__GPS.html#a2ca8a9bad47faad1baeb09e124979022" target="_top" xlink:title="AP_GPS::location">
<polygon fill="white" stroke="black" points="367.5,-196.5 367.5,-215.5 463.5,-215.5 463.5,-196.5 367.5,-196.5"/>
<text text-anchor="middle" x="415.5" y="-203.5" font-family="Helvetica,sans-Serif" font-size="10.00">AP_GPS::location</text>
</a>
</g>
</g>
<!-- Node14&#45;&gt;Node17 -->
<g id="edge17" class="edge"><title>Node14&#45;&gt;Node17</title>
<path fill="none" stroke="midnightblue" d="M269.053,-157.02C280.887,-161.781 294.001,-167.084 306,-172 322.04,-178.571 325.577,-181.456 342,-187 349.115,-189.402 356.706,-191.686 364.198,-193.784"/>
<polygon fill="midnightblue" stroke="midnightblue" points="363.373,-197.187 373.94,-196.429 365.207,-190.431 363.373,-197.187"/>
</g>
<!-- Node18 -->
<g id="node18" class="node"><title>Node18</title>
<g id="a_node18"><a xlink:href="classAP__Frsky__Telem.html#abc4c87801d2f45cb403e304f2e94effd" target="_top" xlink:title="AP_Frsky_Telem::format_gps">
<polygon fill="white" stroke="black" points="342,-158.5 342,-177.5 489,-177.5 489,-158.5 342,-158.5"/>
<text text-anchor="middle" x="415.5" y="-165.5" font-family="Helvetica,sans-Serif" font-size="10.00">AP_Frsky_Telem::format_gps</text>
</a>
</g>
</g>
<!-- Node14&#45;&gt;Node18 -->
<g id="edge18" class="edge"><title>Node14&#45;&gt;Node18</title>
<path fill="none" stroke="midnightblue" d="M288.65,-150.12C304.108,-152.316 321.097,-154.73 337.454,-157.054"/>
<polygon fill="midnightblue" stroke="midnightblue" points="337.145,-160.545 347.538,-158.486 338.129,-153.614 337.145,-160.545"/>
</g>
<!-- Node19 -->
<g id="node19" class="node"><title>Node19</title>
<g id="a_node19"><a xlink:href="classAP__GPS.html#a426041563da447ec6e9cde1926a88fdb" target="_top" xlink:title="AP_GPS::ground_speed">
<polygon fill="white" stroke="black" points="354,-120.5 354,-139.5 477,-139.5 477,-120.5 354,-120.5"/>
<text text-anchor="middle" x="415.5" y="-127.5" font-family="Helvetica,sans-Serif" font-size="10.00">AP_GPS::ground_speed</text>
</a>
</g>
</g>
<!-- Node14&#45;&gt;Node19 -->
<g id="edge19" class="edge"><title>Node14&#45;&gt;Node19</title>
<path fill="none" stroke="midnightblue" d="M288.65,-138.252C306.17,-137.104 325.655,-135.826 343.959,-134.626"/>
<polygon fill="midnightblue" stroke="midnightblue" points="344.236,-138.115 353.986,-133.968 343.778,-131.13 344.236,-138.115"/>
</g>
<!-- Node21 -->
<g id="node21" class="node"><title>Node21</title>
<g id="a_node21"><a xlink:href="classAP__AHRS.html#a861802533d7f8a91efc39425ac9c724f" target="_top" xlink:title="AP_AHRS::get_position">
<polygon fill="white" stroke="black" points="354.5,-44.5 354.5,-63.5 476.5,-63.5 476.5,-44.5 354.5,-44.5"/>
<text text-anchor="middle" x="415.5" y="-51.5" font-family="Helvetica,sans-Serif" font-size="10.00">AP_AHRS::get_position</text>
</a>
</g>
</g>
<!-- Node20&#45;&gt;Node21 -->
<g id="edge21" class="edge"><title>Node20&#45;&gt;Node21</title>
<path fill="none" stroke="midnightblue" d="M288.65,-54C306.258,-54 325.852,-54 344.236,-54"/>
<polygon fill="midnightblue" stroke="midnightblue" points="344.304,-57.5001 354.304,-54 344.304,-50.5001 344.304,-57.5001"/>
</g>
<!-- Node22 -->
<g id="node22" class="node"><title>Node22</title>
<g id="a_node22"><a xlink:href="classAP__AHRS.html#aea45b16e6469a3b392b8bf52fb864732" target="_top" xlink:title="AP_AHRS::get_home">
<polygon fill="white" stroke="black" points="359,-6.5 359,-25.5 472,-25.5 472,-6.5 359,-6.5"/>
<text text-anchor="middle" x="415.5" y="-13.5" font-family="Helvetica,sans-Serif" font-size="10.00">AP_AHRS::get_home</text>
</a>
</g>
</g>
<!-- Node20&#45;&gt;Node22 -->
<g id="edge22" class="edge"><title>Node20&#45;&gt;Node22</title>
<path fill="none" stroke="midnightblue" d="M288.65,-42.1329C310.931,-37.5062 336.391,-32.2194 358.555,-27.617"/>
<polygon fill="midnightblue" stroke="midnightblue" points="359.404,-31.0155 368.483,-25.5554 357.981,-24.1617 359.404,-31.0155"/>
</g>
<!-- Node23 -->
<g id="node23" class="node"><title>Node23</title>
<g id="a_node23"><a xlink:href="classAP__AHRS.html#a702b6313fff141dced78533a4d258ab0" target="_top" xlink:title="AP_AHRS::set_home">
<polygon fill="white" stroke="black" points="540,-6.5 540,-25.5 653,-25.5 653,-6.5 540,-6.5"/>
<text text-anchor="middle" x="596.5" y="-13.5" font-family="Helvetica,sans-Serif" font-size="10.00">AP_AHRS::set_home</text>
</a>
</g>
</g>
<!-- Node22&#45;&gt;Node23 -->
<g id="edge23" class="edge"><title>Node22&#45;&gt;Node23</title>
<path fill="none" stroke="midnightblue" d="M472.156,-16C490.424,-16 510.899,-16 529.838,-16"/>
<polygon fill="midnightblue" stroke="midnightblue" points="529.879,-19.5001 539.879,-16 529.879,-12.5001 529.879,-19.5001"/>
</g>
</g>
</svg>
