<?xml version="1.0" encoding="UTF-8" standalone="no"?>
<!DOCTYPE svg PUBLIC "-//W3C//DTD SVG 1.1//EN"
 "http://www.w3.org/Graphics/SVG/1.1/DTD/svg11.dtd">
<!-- Generated by graphviz version 2.38.0 (20140413.2041)
 -->
<!-- Title: AP_Baro_Backend::accumulate Pages: 1 -->
<svg width="479pt" height="66pt"
 viewBox="0.00 0.00 479.00 66.00" xmlns="http://www.w3.org/2000/svg" xmlns:xlink="http://www.w3.org/1999/xlink">
<g id="graph0" class="graph" transform="scale(1 1) rotate(0) translate(4 62)">
<title>AP_Baro_Backend::accumulate</title>
<polygon fill="white" stroke="none" points="-4,4 -4,-62 475,-62 475,4 -4,4"/>
<!-- Node1 -->
<g id="node1" class="node"><title>Node1</title>
<polygon fill="#bfbfbf" stroke="black" points="0,-19.5 0,-38.5 155,-38.5 155,-19.5 0,-19.5"/>
<text text-anchor="middle" x="77.5" y="-26.5" font-family="Helvetica,sans-Serif" font-size="10.00">AP_Baro_Backend::accumulate</text>
</g>
<!-- Node2 -->
<g id="node2" class="node"><title>Node2</title>
<g id="a_node2"><a xlink:href="classAP__Baro.html#a81aef89650ab598e41396ee90b461ed9" target="_top" xlink:title="AP_Baro::accumulate">
<polygon fill="white" stroke="black" points="191,-19.5 191,-38.5 303,-38.5 303,-19.5 191,-19.5"/>
<text text-anchor="middle" x="247" y="-26.5" font-family="Helvetica,sans-Serif" font-size="10.00">AP_Baro::accumulate</text>
</a>
</g>
</g>
<!-- Node1&#45;&gt;Node2 -->
<g id="edge1" class="edge"><title>Node1&#45;&gt;Node2</title>
<path fill="none" stroke="midnightblue" d="M165.423,-29C173.974,-29 182.48,-29 190.585,-29"/>
<polygon fill="midnightblue" stroke="midnightblue" points="165.387,-25.5001 155.387,-29 165.387,-32.5001 165.387,-25.5001"/>
</g>
<!-- Node3 -->
<g id="node3" class="node"><title>Node3</title>
<g id="a_node3"><a xlink:href="classAP__Baro.html#ac0856d2a124c6f898f4879d55cd5ad1c" target="_top" xlink:title="AP_Baro::get_temperature">
<polygon fill="white" stroke="black" points="339,-38.5 339,-57.5 471,-57.5 471,-38.5 339,-38.5"/>
<text text-anchor="middle" x="405" y="-45.5" font-family="Helvetica,sans-Serif" font-size="10.00">AP_Baro::get_temperature</text>
</a>
</g>
</g>
<!-- Node2&#45;&gt;Node3 -->
<g id="edge2" class="edge"><title>Node2&#45;&gt;Node3</title>
<path fill="none" stroke="midnightblue" d="M313.539,-36.9824C321.922,-38.0033 330.502,-39.0483 338.878,-40.0685"/>
<polygon fill="midnightblue" stroke="midnightblue" points="313.789,-33.487 303.439,-35.7522 312.942,-40.4356 313.789,-33.487"/>
</g>
<!-- Node4 -->
<g id="node4" class="node"><title>Node4</title>
<g id="a_node4"><a xlink:href="BARO__generic_8cpp.html#afe461d27b9c48d5921c00d521181f12f" target="_top" xlink:title="loop">
<polygon fill="white" stroke="black" points="387.5,-0.5 387.5,-19.5 422.5,-19.5 422.5,-0.5 387.5,-0.5"/>
<text text-anchor="middle" x="405" y="-7.5" font-family="Helvetica,sans-Serif" font-size="10.00">loop</text>
</a>
</g>
</g>
<!-- Node2&#45;&gt;Node4 -->
<g id="edge3" class="edge"><title>Node2&#45;&gt;Node4</title>
<path fill="none" stroke="midnightblue" d="M313.653,-21.0038C340.636,-17.7175 369.64,-14.1848 387.308,-12.0331"/>
<polygon fill="midnightblue" stroke="midnightblue" points="312.942,-17.5644 303.439,-22.2478 313.789,-24.513 312.942,-17.5644"/>
</g>
</g>
</svg>
