<?xml version="1.0" encoding="UTF-8" standalone="no"?>
<!DOCTYPE svg PUBLIC "-//W3C//DTD SVG 1.1//EN"
 "http://www.w3.org/Graphics/SVG/1.1/DTD/svg11.dtd">
<!-- Generated by graphviz version 2.38.0 (20140413.2041)
 -->
<!-- Title: CompassCalibrator::get_calibration Pages: 1 -->
<svg width="2979pt" height="397pt"
 viewBox="0.00 0.00 2979.00 397.00" xmlns="http://www.w3.org/2000/svg" xmlns:xlink="http://www.w3.org/1999/xlink">
<g id="graph0" class="graph" transform="scale(1 1) rotate(0) translate(4 393)">
<title>CompassCalibrator::get_calibration</title>
<polygon fill="white" stroke="none" points="-4,4 -4,-393 2975,-393 2975,4 -4,4"/>
<!-- Node1 -->
<g id="node1" class="node"><title>Node1</title>
<polygon fill="#bfbfbf" stroke="black" points="0,-115 0,-145 107,-145 107,-115 0,-115"/>
<text text-anchor="start" x="8" y="-133" font-family="Helvetica,sans-Serif" font-size="10.00">CompassCalibrator::</text>
<text text-anchor="middle" x="53.5" y="-122" font-family="Helvetica,sans-Serif" font-size="10.00">get_calibration</text>
</g>
<!-- Node2 -->
<g id="node2" class="node"><title>Node2</title>
<g id="a_node2"><a xlink:href="classCompass.html#a659da6997da12f2a27ffd5eb45fedf8a" target="_top" xlink:title="Compass::_accept_calibration">
<polygon fill="white" stroke="black" points="143,-57.5 143,-76.5 292,-76.5 292,-57.5 143,-57.5"/>
<text text-anchor="middle" x="217.5" y="-64.5" font-family="Helvetica,sans-Serif" font-size="10.00">Compass::_accept_calibration</text>
</a>
</g>
</g>
<!-- Node1&#45;&gt;Node2 -->
<g id="edge1" class="edge"><title>Node1&#45;&gt;Node2</title>
<path fill="none" stroke="midnightblue" d="M102.916,-111.172C132.11,-99.8183 168.081,-85.8297 191.619,-76.6761"/>
<polygon fill="midnightblue" stroke="midnightblue" points="101.355,-108.023 93.303,-114.91 103.892,-114.547 101.355,-108.023"/>
</g>
<!-- Node44 -->
<g id="node44" class="node"><title>Node44</title>
<g id="a_node44"><a xlink:href="classCompass.html#a17d18b7b6d4fd415595d63d4741d4e83" target="_top" xlink:title="Compass::send_mag_cal\l_report">
<polygon fill="white" stroke="black" points="353,-159 353,-189 481,-189 481,-159 353,-159"/>
<text text-anchor="start" x="361" y="-177" font-family="Helvetica,sans-Serif" font-size="10.00">Compass::send_mag_cal</text>
<text text-anchor="middle" x="417" y="-166" font-family="Helvetica,sans-Serif" font-size="10.00">_report</text>
</a>
</g>
</g>
<!-- Node1&#45;&gt;Node44 -->
<g id="edge63" class="edge"><title>Node1&#45;&gt;Node44</title>
<path fill="none" stroke="midnightblue" d="M113.06,-147.569C122.98,-150.058 133.231,-152.333 143,-154 214.323,-166.168 297.371,-170.937 352.97,-172.803"/>
<polygon fill="midnightblue" stroke="midnightblue" points="113.838,-144.155 103.279,-145.023 112.075,-150.929 113.838,-144.155"/>
</g>
<!-- Node45 -->
<g id="node45" class="node"><title>Node45</title>
<g id="a_node45"><a xlink:href="classCompassCalibrator.html#abbfdc421fa407ebf71d98300752c47fe" target="_top" xlink:title="CompassCalibrator::\lset_tolerance">
<polygon fill="white" stroke="black" points="164,-115 164,-145 271,-145 271,-115 164,-115"/>
<text text-anchor="start" x="172" y="-133" font-family="Helvetica,sans-Serif" font-size="10.00">CompassCalibrator::</text>
<text text-anchor="middle" x="217.5" y="-122" font-family="Helvetica,sans-Serif" font-size="10.00">set_tolerance</text>
</a>
</g>
</g>
<!-- Node1&#45;&gt;Node45 -->
<g id="edge65" class="edge"><title>Node1&#45;&gt;Node45</title>
<path fill="none" stroke="midnightblue" d="M117.537,-130C132.867,-130 149.101,-130 163.89,-130"/>
<polygon fill="midnightblue" stroke="midnightblue" points="117.097,-126.5 107.097,-130 117.097,-133.5 117.097,-126.5"/>
</g>
<!-- Node3 -->
<g id="node3" class="node"><title>Node3</title>
<g id="a_node3"><a xlink:href="classCompass.html#a063eabf244187b5d60bb4674f09bce8e" target="_top" xlink:title="Compass::_accept_calibration_mask">
<polygon fill="white" stroke="black" points="328,-0.5 328,-19.5 506,-19.5 506,-0.5 328,-0.5"/>
<text text-anchor="middle" x="417" y="-7.5" font-family="Helvetica,sans-Serif" font-size="10.00">Compass::_accept_calibration_mask</text>
</a>
</g>
</g>
<!-- Node2&#45;&gt;Node3 -->
<g id="edge2" class="edge"><title>Node2&#45;&gt;Node3</title>
<path fill="none" stroke="midnightblue" d="M259.268,-54.434C279.839,-48.1645 305.203,-40.5426 328,-34 345.048,-29.1074 364.023,-23.902 379.975,-19.5941"/>
<polygon fill="midnightblue" stroke="midnightblue" points="258.127,-51.1228 249.587,-57.3924 260.173,-57.8172 258.127,-51.1228"/>
</g>
<!-- Node4 -->
<g id="node4" class="node"><title>Node4</title>
<g id="a_node4"><a xlink:href="classCompass.html#aff3220e1a557a75480e4c2dbbde72973" target="_top" xlink:title="Compass::get_offsets_max">
<polygon fill="white" stroke="black" points="542,-32.5 542,-51.5 679,-51.5 679,-32.5 542,-32.5"/>
<text text-anchor="middle" x="610.5" y="-39.5" font-family="Helvetica,sans-Serif" font-size="10.00">Compass::get_offsets_max</text>
</a>
</g>
</g>
<!-- Node2&#45;&gt;Node4 -->
<g id="edge62" class="edge"><title>Node2&#45;&gt;Node4</title>
<path fill="none" stroke="midnightblue" d="M302.372,-61.6373C373.898,-57.064 475.407,-50.5737 541.841,-46.326"/>
<polygon fill="midnightblue" stroke="midnightblue" points="301.8,-58.1666 292.044,-62.2977 302.247,-65.1524 301.8,-58.1666"/>
</g>
<!-- Node43 -->
<g id="node43" class="node"><title>Node43</title>
<g id="a_node43"><a xlink:href="classCompass.html#ab8b1d18b185660a957d2faf417e9b1dd" target="_top" xlink:title="Compass::compass_cal\l_update">
<polygon fill="white" stroke="black" points="549.5,-71 549.5,-101 671.5,-101 671.5,-71 549.5,-71"/>
<text text-anchor="start" x="557.5" y="-89" font-family="Helvetica,sans-Serif" font-size="10.00">Compass::compass_cal</text>
<text text-anchor="middle" x="610.5" y="-78" font-family="Helvetica,sans-Serif" font-size="10.00">_update</text>
</a>
</g>
</g>
<!-- Node2&#45;&gt;Node43 -->
<g id="edge60" class="edge"><title>Node2&#45;&gt;Node43</title>
<path fill="none" stroke="midnightblue" d="M302.306,-71.0724C376.611,-74.6831 483.309,-79.868 549.412,-83.0801"/>
<polygon fill="midnightblue" stroke="midnightblue" points="302.202,-67.5633 292.044,-70.5738 301.862,-74.5551 302.202,-67.5633"/>
</g>
<!-- Node3&#45;&gt;Node4 -->
<g id="edge3" class="edge"><title>Node3&#45;&gt;Node4</title>
<path fill="none" stroke="midnightblue" d="M484.886,-21.1768C506.925,-24.8596 531.215,-28.9184 552.451,-32.467"/>
<polygon fill="midnightblue" stroke="midnightblue" points="485.378,-17.7105 474.938,-19.5144 484.224,-24.6148 485.378,-17.7105"/>
</g>
<!-- Node7 -->
<g id="node7" class="node"><title>Node7</title>
<g id="a_node7"><a xlink:href="classCompass.html#a5b92dfeb8382c411fc5cdfe2c35569b0" target="_top" xlink:title="Compass::handle_mag\l_cal_command">
<polygon fill="white" stroke="black" points="1094,-52 1094,-82 1211,-82 1211,-52 1094,-52"/>
<text text-anchor="start" x="1102" y="-70" font-family="Helvetica,sans-Serif" font-size="10.00">Compass::handle_mag</text>
<text text-anchor="middle" x="1152.5" y="-59" font-family="Helvetica,sans-Serif" font-size="10.00">_cal_command</text>
</a>
</g>
</g>
<!-- Node3&#45;&gt;Node7 -->
<g id="edge59" class="edge"><title>Node3&#45;&gt;Node7</title>
<path fill="none" stroke="midnightblue" d="M516.286,-6.52526C642.642,-3.8293 868.371,-5.01209 1058,-38 1075.75,-41.0876 1094.83,-46.5902 1111.1,-51.9786"/>
<polygon fill="midnightblue" stroke="midnightblue" points="516.16,-3.02711 506.241,-6.75226 516.318,-10.0253 516.16,-3.02711"/>
</g>
<!-- Node5 -->
<g id="node5" class="node"><title>Node5</title>
<g id="a_node5"><a xlink:href="classCompass.html#a702eb9d33ff1f5ada05b67f9b2219f9a" target="_top" xlink:title="Compass::_start_calibration">
<polygon fill="white" stroke="black" points="715,-85.5 715,-104.5 854,-104.5 854,-85.5 715,-85.5"/>
<text text-anchor="middle" x="784.5" y="-92.5" font-family="Helvetica,sans-Serif" font-size="10.00">Compass::_start_calibration</text>
</a>
</g>
</g>
<!-- Node4&#45;&gt;Node5 -->
<g id="edge4" class="edge"><title>Node4&#45;&gt;Node5</title>
<path fill="none" stroke="midnightblue" d="M687.166,-54.5078C719.716,-64.5882 754.045,-76.3299 771.638,-85.3653"/>
<polygon fill="midnightblue" stroke="midnightblue" points="688.183,-51.1589 677.596,-51.5754 686.132,-57.8517 688.183,-51.1589"/>
</g>
<!-- Node9 -->
<g id="node9" class="node"><title>Node9</title>
<g id="a_node9"><a xlink:href="classAP__Arming.html#a24332b3f5e2e233914bce12e69ae9564" target="_top" xlink:title="AP_Arming::compass\l_checks">
<polygon fill="white" stroke="black" points="1594,-101 1594,-131 1706,-131 1706,-101 1594,-101"/>
<text text-anchor="start" x="1602" y="-119" font-family="Helvetica,sans-Serif" font-size="10.00">AP_Arming::compass</text>
<text text-anchor="middle" x="1650" y="-108" font-family="Helvetica,sans-Serif" font-size="10.00">_checks</text>
</a>
</g>
</g>
<!-- Node4&#45;&gt;Node9 -->
<g id="edge58" class="edge"><title>Node4&#45;&gt;Node9</title>
<path fill="none" stroke="midnightblue" d="M689.096,-34.2025C762.238,-27.5316 874.948,-19 973,-19 973,-19 973,-19 1303,-19 1422.78,-19 1557.51,-73.5625 1617.4,-100.844"/>
<polygon fill="midnightblue" stroke="midnightblue" points="688.68,-30.726 679.044,-35.1304 689.323,-37.6964 688.68,-30.726"/>
</g>
<!-- Node5&#45;&gt;Node4 -->
<g id="edge12" class="edge"><title>Node5&#45;&gt;Node4</title>
<path fill="none" stroke="midnightblue" d="M719.532,-82.5374C706.17,-78.4228 692.149,-73.9879 679,-70 659.428,-64.064 636.474,-57.7364 623.006,-51.544"/>
<polygon fill="midnightblue" stroke="midnightblue" points="718.537,-85.893 729.123,-85.4658 720.581,-79.1981 718.537,-85.893"/>
</g>
<!-- Node6 -->
<g id="node6" class="node"><title>Node6</title>
<g id="a_node6"><a xlink:href="classCompass.html#afdd4d0c78f52388a68dfc07deeec11a6" target="_top" xlink:title="Compass::_start_calibration_mask">
<polygon fill="white" stroke="black" points="890,-47.5 890,-66.5 1058,-66.5 1058,-47.5 890,-47.5"/>
<text text-anchor="middle" x="974" y="-54.5" font-family="Helvetica,sans-Serif" font-size="10.00">Compass::_start_calibration_mask</text>
</a>
</g>
</g>
<!-- Node5&#45;&gt;Node6 -->
<g id="edge5" class="edge"><title>Node5&#45;&gt;Node6</title>
<path fill="none" stroke="midnightblue" d="M842.784,-83.3905C869.451,-77.986 900.781,-71.6365 926.026,-66.5201"/>
<polygon fill="midnightblue" stroke="midnightblue" points="841.92,-79.9944 832.814,-85.411 843.31,-86.8549 841.92,-79.9944"/>
</g>
<!-- Node12 -->
<g id="node12" class="node"><title>Node12</title>
<g id="a_node12"><a xlink:href="classCompass.html#a785cd621a6ecd49077881299ff1edba7" target="_top" xlink:title="Compass::start_calibration_all">
<polygon fill="white" stroke="black" points="899.5,-85.5 899.5,-104.5 1048.5,-104.5 1048.5,-85.5 899.5,-85.5"/>
<text text-anchor="middle" x="974" y="-92.5" font-family="Helvetica,sans-Serif" font-size="10.00">Compass::start_calibration_all</text>
</a>
</g>
</g>
<!-- Node5&#45;&gt;Node12 -->
<g id="edge13" class="edge"><title>Node5&#45;&gt;Node12</title>
<path fill="none" stroke="midnightblue" d="M864.315,-95C875.877,-95 887.75,-95 899.206,-95"/>
<polygon fill="midnightblue" stroke="midnightblue" points="864.253,-91.5001 854.253,-95 864.253,-98.5001 864.253,-91.5001"/>
</g>
<!-- Node6&#45;&gt;Node4 -->
<g id="edge6" class="edge"><title>Node6&#45;&gt;Node4</title>
<path fill="none" stroke="midnightblue" d="M879.583,-53.1238C816.833,-50.52 735.597,-47.1493 679.071,-44.8038"/>
<polygon fill="midnightblue" stroke="midnightblue" points="879.747,-56.6335 889.884,-53.5512 880.038,-49.6395 879.747,-56.6335"/>
</g>
<!-- Node6&#45;&gt;Node7 -->
<g id="edge7" class="edge"><title>Node6&#45;&gt;Node7</title>
<path fill="none" stroke="midnightblue" d="M1068.28,-62.2848C1076.95,-62.7764 1085.56,-63.2643 1093.77,-63.7294"/>
<polygon fill="midnightblue" stroke="midnightblue" points="1068.26,-58.7785 1058.08,-61.7072 1067.87,-65.7673 1068.26,-58.7785"/>
</g>
<!-- Node8 -->
<g id="node8" class="node"><title>Node8</title>
<g id="a_node8"><a xlink:href="classCompass.html#a71d8ad1cb96263dfe4c0f712f14fac97" target="_top" xlink:title="Compass::compass_cal\l_requires_reboot">
<polygon fill="white" stroke="black" points="1406,-104 1406,-134 1528,-134 1528,-104 1406,-104"/>
<text text-anchor="start" x="1414" y="-122" font-family="Helvetica,sans-Serif" font-size="10.00">Compass::compass_cal</text>
<text text-anchor="middle" x="1467" y="-111" font-family="Helvetica,sans-Serif" font-size="10.00">_requires_reboot</text>
</a>
</g>
</g>
<!-- Node7&#45;&gt;Node8 -->
<g id="edge8" class="edge"><title>Node7&#45;&gt;Node8</title>
<path fill="none" stroke="midnightblue" d="M1221.4,-72.1502C1261.14,-75.7914 1312.16,-81.5493 1357,-90 1376.34,-93.6449 1397.29,-98.8975 1415.61,-103.934"/>
<polygon fill="midnightblue" stroke="midnightblue" points="1221.56,-68.6508 1211.29,-71.247 1220.94,-75.623 1221.56,-68.6508"/>
</g>
<!-- Node8&#45;&gt;Node9 -->
<g id="edge9" class="edge"><title>Node8&#45;&gt;Node9</title>
<path fill="none" stroke="midnightblue" d="M1538.12,-117.838C1556.56,-117.532 1576.19,-117.207 1593.73,-116.916"/>
<polygon fill="midnightblue" stroke="midnightblue" points="1537.96,-114.34 1528.02,-118.005 1538.08,-121.339 1537.96,-114.34"/>
</g>
<!-- Node10 -->
<g id="node10" class="node"><title>Node10</title>
<g id="a_node10"><a xlink:href="classAP__Arming.html#a73c03baf7f22b7124a2ac9e9286a850a" target="_top" xlink:title="AP_Arming::pre_arm\l_checks">
<polygon fill="white" stroke="black" points="1774,-101 1774,-131 1881,-131 1881,-101 1774,-101"/>
<text text-anchor="start" x="1782" y="-119" font-family="Helvetica,sans-Serif" font-size="10.00">AP_Arming::pre_arm</text>
<text text-anchor="middle" x="1827.5" y="-108" font-family="Helvetica,sans-Serif" font-size="10.00">_checks</text>
</a>
</g>
</g>
<!-- Node9&#45;&gt;Node10 -->
<g id="edge10" class="edge"><title>Node9&#45;&gt;Node10</title>
<path fill="none" stroke="midnightblue" d="M1716.12,-116C1735.11,-116 1755.62,-116 1773.75,-116"/>
<polygon fill="midnightblue" stroke="midnightblue" points="1716.05,-112.5 1706.05,-116 1716.05,-119.5 1716.05,-112.5"/>
</g>
<!-- Node11 -->
<g id="node11" class="node"><title>Node11</title>
<g id="a_node11"><a xlink:href="classAP__Arming.html#a47b859d9929a736df2f08a1cad03efcb" target="_top" xlink:title="AP_Arming::arm">
<polygon fill="white" stroke="black" points="1970,-106.5 1970,-125.5 2059,-125.5 2059,-106.5 1970,-106.5"/>
<text text-anchor="middle" x="2014.5" y="-113.5" font-family="Helvetica,sans-Serif" font-size="10.00">AP_Arming::arm</text>
</a>
</g>
</g>
<!-- Node10&#45;&gt;Node11 -->
<g id="edge11" class="edge"><title>Node10&#45;&gt;Node11</title>
<path fill="none" stroke="midnightblue" d="M1891.12,-116C1917.02,-116 1946.42,-116 1969.91,-116"/>
<polygon fill="midnightblue" stroke="midnightblue" points="1891.02,-112.5 1881.02,-116 1891.02,-119.5 1891.02,-112.5"/>
</g>
<!-- Node12&#45;&gt;Node7 -->
<g id="edge57" class="edge"><title>Node12&#45;&gt;Node7</title>
<path fill="none" stroke="midnightblue" d="M1045.18,-83.8664C1061.34,-81.3024 1078.35,-78.6043 1093.91,-76.1365"/>
<polygon fill="midnightblue" stroke="midnightblue" points="1044.58,-80.4186 1035.25,-85.4423 1045.67,-87.3322 1044.58,-80.4186"/>
</g>
<!-- Node13 -->
<g id="node13" class="node"><title>Node13</title>
<g id="a_node13"><a xlink:href="classCompass.html#a22ce936207eeda5d3fa55237271cef3e" target="_top" xlink:title="Compass::get_field">
<polygon fill="white" stroke="black" points="1102,-105.5 1102,-124.5 1203,-124.5 1203,-105.5 1102,-105.5"/>
<text text-anchor="middle" x="1152.5" y="-112.5" font-family="Helvetica,sans-Serif" font-size="10.00">Compass::get_field</text>
</a>
</g>
</g>
<!-- Node12&#45;&gt;Node13 -->
<g id="edge14" class="edge"><title>Node12&#45;&gt;Node13</title>
<path fill="none" stroke="midnightblue" d="M1058.75,-104.49C1073.52,-106.164 1088.46,-107.856 1101.9,-109.38"/>
<polygon fill="midnightblue" stroke="midnightblue" points="1058.9,-100.985 1048.57,-103.337 1058.12,-107.941 1058.9,-100.985"/>
</g>
<!-- Node13&#45;&gt;Node13 -->
<g id="edge56" class="edge"><title>Node13&#45;&gt;Node13</title>
<path fill="none" stroke="midnightblue" d="M1124.87,-133.654C1126.03,-138.937 1135.24,-143 1152.5,-143 1178.8,-143 1186.41,-133.565 1175.31,-124.757"/>
<polygon fill="midnightblue" stroke="midnightblue" points="1128.01,-135.218 1129.69,-124.757 1121.85,-131.886 1128.01,-135.218"/>
</g>
<!-- Node14 -->
<g id="node14" class="node"><title>Node14</title>
<g id="a_node14"><a xlink:href="classCompass.html#a518ff958770a39bc265f93d22e071212" target="_top" xlink:title="Compass::calculate\l_heading">
<polygon fill="white" stroke="black" points="1250,-100 1250,-130 1354,-130 1354,-100 1250,-100"/>
<text text-anchor="start" x="1258" y="-118" font-family="Helvetica,sans-Serif" font-size="10.00">Compass::calculate</text>
<text text-anchor="middle" x="1302" y="-107" font-family="Helvetica,sans-Serif" font-size="10.00">_heading</text>
</a>
</g>
</g>
<!-- Node13&#45;&gt;Node14 -->
<g id="edge15" class="edge"><title>Node13&#45;&gt;Node14</title>
<path fill="none" stroke="midnightblue" d="M1213.1,-115C1225.28,-115 1237.99,-115 1249.84,-115"/>
<polygon fill="midnightblue" stroke="midnightblue" points="1213.03,-111.5 1203.03,-115 1213.03,-118.5 1213.03,-111.5"/>
</g>
<!-- Node15 -->
<g id="node15" class="node"><title>Node15</title>
<g id="a_node15"><a xlink:href="classCompass.html#a59f46d32a935d4faecc4a28d262c4388" target="_top" xlink:title="Compass::consistent">
<polygon fill="white" stroke="black" points="1247,-199.5 1247,-218.5 1357,-218.5 1357,-199.5 1247,-199.5"/>
<text text-anchor="middle" x="1302" y="-206.5" font-family="Helvetica,sans-Serif" font-size="10.00">Compass::consistent</text>
</a>
</g>
</g>
<!-- Node13&#45;&gt;Node15 -->
<g id="edge16" class="edge"><title>Node13&#45;&gt;Node15</title>
<path fill="none" stroke="midnightblue" d="M1177.21,-130.113C1207.87,-149.65 1260.36,-183.099 1286.01,-199.444"/>
<polygon fill="midnightblue" stroke="midnightblue" points="1178.77,-126.953 1168.45,-124.531 1175.01,-132.856 1178.77,-126.953"/>
</g>
<!-- Node15&#45;&gt;Node8 -->
<g id="edge17" class="edge"><title>Node15&#45;&gt;Node8</title>
<path fill="none" stroke="midnightblue" d="M1338.39,-195.257C1344.78,-192.226 1351.23,-188.778 1357,-185 1375.15,-173.104 1374.88,-163.954 1393,-152 1403.33,-145.183 1415.3,-139.117 1426.52,-134.104"/>
<polygon fill="midnightblue" stroke="midnightblue" points="1336.85,-192.108 1329.16,-199.389 1339.72,-198.496 1336.85,-192.108"/>
</g>
<!-- Node15&#45;&gt;Node9 -->
<g id="edge18" class="edge"><title>Node15&#45;&gt;Node9</title>
<path fill="none" stroke="midnightblue" d="M1348.07,-196.886C1411.16,-179.929 1525.69,-149.145 1593.81,-130.836"/>
<polygon fill="midnightblue" stroke="midnightblue" points="1347.15,-193.509 1338.4,-199.484 1348.97,-200.269 1347.15,-193.509"/>
</g>
<!-- Node16 -->
<g id="node16" class="node"><title>Node16</title>
<g id="a_node16"><a xlink:href="classNavEKF2__core.html#abf6ac301297f486d9690d97c7a19dad8" target="_top" xlink:title="NavEKF2_core::readMagData">
<polygon fill="white" stroke="black" points="1393,-199.5 1393,-218.5 1541,-218.5 1541,-199.5 1393,-199.5"/>
<text text-anchor="middle" x="1467" y="-206.5" font-family="Helvetica,sans-Serif" font-size="10.00">NavEKF2_core::readMagData</text>
</a>
</g>
</g>
<!-- Node15&#45;&gt;Node16 -->
<g id="edge19" class="edge"><title>Node15&#45;&gt;Node16</title>
<path fill="none" stroke="midnightblue" d="M1367.33,-209C1375.7,-209 1384.32,-209 1392.81,-209"/>
<polygon fill="midnightblue" stroke="midnightblue" points="1367.28,-205.5 1357.28,-209 1367.28,-212.5 1367.28,-205.5"/>
</g>
<!-- Node33 -->
<g id="node33" class="node"><title>Node33</title>
<g id="a_node33"><a xlink:href="classNavEKF3__core.html#a39fe9f76e9c368cba51e9af9b2367513" target="_top" xlink:title="NavEKF3_core::readMagData">
<polygon fill="white" stroke="black" points="1393,-309.5 1393,-328.5 1541,-328.5 1541,-309.5 1393,-309.5"/>
<text text-anchor="middle" x="1467" y="-316.5" font-family="Helvetica,sans-Serif" font-size="10.00">NavEKF3_core::readMagData</text>
</a>
</g>
</g>
<!-- Node15&#45;&gt;Node33 -->
<g id="edge39" class="edge"><title>Node15&#45;&gt;Node33</title>
<path fill="none" stroke="midnightblue" d="M1325.57,-224.23C1359.67,-247.246 1423.37,-290.231 1451.74,-309.374"/>
<polygon fill="midnightblue" stroke="midnightblue" points="1327.43,-221.262 1317.18,-218.569 1323.51,-227.064 1327.43,-221.262"/>
</g>
<!-- Node17 -->
<g id="node17" class="node"><title>Node17</title>
<g id="a_node17"><a xlink:href="classNavEKF2__core.html#a4a06ae47c3edebdecd2b179a0567f00b" target="_top" xlink:title="NavEKF2_core::Initialise\lFilterBootstrap">
<polygon fill="white" stroke="black" points="1765,-238 1765,-268 1890,-268 1890,-238 1765,-238"/>
<text text-anchor="start" x="1773" y="-256" font-family="Helvetica,sans-Serif" font-size="10.00">NavEKF2_core::Initialise</text>
<text text-anchor="middle" x="1827.5" y="-245" font-family="Helvetica,sans-Serif" font-size="10.00">FilterBootstrap</text>
</a>
</g>
</g>
<!-- Node16&#45;&gt;Node17 -->
<g id="edge20" class="edge"><title>Node16&#45;&gt;Node17</title>
<path fill="none" stroke="midnightblue" d="M1551.4,-219.782C1560.04,-220.879 1568.7,-221.968 1577,-223 1641.08,-230.967 1714.45,-239.749 1764.96,-245.741"/>
<polygon fill="midnightblue" stroke="midnightblue" points="1551.64,-216.285 1541.28,-218.495 1550.76,-223.229 1551.64,-216.285"/>
</g>
<!-- Node28 -->
<g id="node28" class="node"><title>Node28</title>
<g id="a_node28"><a xlink:href="classNavEKF2__core.html#af6d172634e15ba1643bf4c53c390f5e2" target="_top" xlink:title="NavEKF2_core::calcQuatAnd\lFieldStates">
<polygon fill="white" stroke="black" points="1577,-150 1577,-180 1723,-180 1723,-150 1577,-150"/>
<text text-anchor="start" x="1585" y="-168" font-family="Helvetica,sans-Serif" font-size="10.00">NavEKF2_core::calcQuatAnd</text>
<text text-anchor="middle" x="1650" y="-157" font-family="Helvetica,sans-Serif" font-size="10.00">FieldStates</text>
</a>
</g>
</g>
<!-- Node16&#45;&gt;Node28 -->
<g id="edge31" class="edge"><title>Node16&#45;&gt;Node28</title>
<path fill="none" stroke="midnightblue" d="M1517.18,-197.045C1538.71,-191.811 1564.22,-185.611 1587.03,-180.065"/>
<polygon fill="midnightblue" stroke="midnightblue" points="1516.16,-193.689 1507.27,-199.453 1517.82,-200.491 1516.16,-193.689"/>
</g>
<!-- Node30 -->
<g id="node30" class="node"><title>Node30</title>
<g id="a_node30"><a xlink:href="classNavEKF2__core.html#aa0f6cd840e93e0233f056c88ce45ef85" target="_top" xlink:title="NavEKF2_core::SelectMagFusion">
<polygon fill="white" stroke="black" points="1932,-183.5 1932,-202.5 2097,-202.5 2097,-183.5 1932,-183.5"/>
<text text-anchor="middle" x="2014.5" y="-190.5" font-family="Helvetica,sans-Serif" font-size="10.00">NavEKF2_core::SelectMagFusion</text>
</a>
</g>
</g>
<!-- Node16&#45;&gt;Node30 -->
<g id="edge38" class="edge"><title>Node16&#45;&gt;Node30</title>
<path fill="none" stroke="midnightblue" d="M1551.06,-206.564C1654.19,-203.539 1828.99,-198.412 1931.59,-195.403"/>
<polygon fill="midnightblue" stroke="midnightblue" points="1550.9,-203.067 1541,-206.859 1551.1,-210.064 1550.9,-203.067"/>
</g>
<!-- Node18 -->
<g id="node18" class="node"><title>Node18</title>
<g id="a_node18"><a xlink:href="classNavEKF2.html#a9c447b8d84abf2dfc845ddbbbad46a2b" target="_top" xlink:title="NavEKF2::InitialiseFilter">
<polygon fill="white" stroke="black" points="2312,-243.5 2312,-262.5 2435,-262.5 2435,-243.5 2312,-243.5"/>
<text text-anchor="middle" x="2373.5" y="-250.5" font-family="Helvetica,sans-Serif" font-size="10.00">NavEKF2::InitialiseFilter</text>
</a>
</g>
</g>
<!-- Node17&#45;&gt;Node18 -->
<g id="edge21" class="edge"><title>Node17&#45;&gt;Node18</title>
<path fill="none" stroke="midnightblue" d="M1900.26,-253C2008.29,-253 2210.78,-253 2311.86,-253"/>
<polygon fill="midnightblue" stroke="midnightblue" points="1900.11,-249.5 1890.11,-253 1900.11,-256.5 1900.11,-249.5"/>
</g>
<!-- Node19 -->
<g id="node19" class="node"><title>Node19</title>
<g id="a_node19"><a xlink:href="classAP__AHRS__NavEKF.html#a0187c6d3d4348b002a204c05d3e94b07" target="_top" xlink:title="AP_AHRS_NavEKF::update_EKF2">
<polygon fill="white" stroke="black" points="2471,-205.5 2471,-224.5 2643,-224.5 2643,-205.5 2471,-205.5"/>
<text text-anchor="middle" x="2557" y="-212.5" font-family="Helvetica,sans-Serif" font-size="10.00">AP_AHRS_NavEKF::update_EKF2</text>
</a>
</g>
</g>
<!-- Node18&#45;&gt;Node19 -->
<g id="edge22" class="edge"><title>Node18&#45;&gt;Node19</title>
<path fill="none" stroke="midnightblue" d="M2430.29,-241.319C2456.03,-235.93 2486.2,-229.614 2510.53,-224.52"/>
<polygon fill="midnightblue" stroke="midnightblue" points="2429.37,-237.936 2420.3,-243.411 2430.81,-244.787 2429.37,-237.936"/>
</g>
<!-- Node22 -->
<g id="node22" class="node"><title>Node22</title>
<g id="a_node22"><a xlink:href="classAP__AHRS__NavEKF.html#a532ff0df024a4537e5a108c42ba405a7" target="_top" xlink:title="AP_AHRS_NavEKF::reset">
<polygon fill="white" stroke="black" points="2490,-243.5 2490,-262.5 2624,-262.5 2624,-243.5 2490,-243.5"/>
<text text-anchor="middle" x="2557" y="-250.5" font-family="Helvetica,sans-Serif" font-size="10.00">AP_AHRS_NavEKF::reset</text>
</a>
</g>
</g>
<!-- Node18&#45;&gt;Node22 -->
<g id="edge25" class="edge"><title>Node18&#45;&gt;Node22</title>
<path fill="none" stroke="midnightblue" d="M2445.2,-253C2459.86,-253 2475.26,-253 2489.75,-253"/>
<polygon fill="midnightblue" stroke="midnightblue" points="2445.19,-249.5 2435.19,-253 2445.19,-256.5 2445.19,-249.5"/>
</g>
<!-- Node23 -->
<g id="node23" class="node"><title>Node23</title>
<g id="a_node23"><a xlink:href="classAP__AHRS__NavEKF.html#a9bd3c7f1793a48cd0d736b19fbfaf19a" target="_top" xlink:title="AP_AHRS_NavEKF::reset\l_attitude">
<polygon fill="white" stroke="black" points="2490,-282 2490,-312 2624,-312 2624,-282 2490,-282"/>
<text text-anchor="start" x="2498" y="-300" font-family="Helvetica,sans-Serif" font-size="10.00">AP_AHRS_NavEKF::reset</text>
<text text-anchor="middle" x="2557" y="-289" font-family="Helvetica,sans-Serif" font-size="10.00">_attitude</text>
</a>
</g>
</g>
<!-- Node18&#45;&gt;Node23 -->
<g id="edge26" class="edge"><title>Node18&#45;&gt;Node23</title>
<path fill="none" stroke="midnightblue" d="M2423.81,-264.955C2445.41,-270.189 2470.98,-276.389 2493.86,-281.935"/>
<polygon fill="midnightblue" stroke="midnightblue" points="2424.43,-261.502 2413.88,-262.547 2422.78,-268.305 2424.43,-261.502"/>
</g>
<!-- Node24 -->
<g id="node24" class="node"><title>Node24</title>
<g id="a_node24"><a xlink:href="classNavEKF2.html#ab18af2714c15fcf190493c01e2a28c73" target="_top" xlink:title="NavEKF2::activeCores">
<polygon fill="white" stroke="black" points="2498,-167.5 2498,-186.5 2616,-186.5 2616,-167.5 2498,-167.5"/>
<text text-anchor="middle" x="2557" y="-174.5" font-family="Helvetica,sans-Serif" font-size="10.00">NavEKF2::activeCores</text>
</a>
</g>
</g>
<!-- Node18&#45;&gt;Node24 -->
<g id="edge27" class="edge"><title>Node18&#45;&gt;Node24</title>
<path fill="none" stroke="midnightblue" d="M2396,-237.618C2414.92,-224.757 2443.63,-206.827 2471,-196 2480.56,-192.217 2491.04,-189.104 2501.28,-186.57"/>
<polygon fill="midnightblue" stroke="midnightblue" points="2393.78,-234.9 2387.55,-243.471 2397.77,-240.654 2393.78,-234.9"/>
</g>
<!-- Node20 -->
<g id="node20" class="node"><title>Node20</title>
<g id="a_node20"><a xlink:href="classAP__AHRS__NavEKF.html#ac8111979c5dc37a55b2c50818534ea52" target="_top" xlink:title="AP_AHRS_NavEKF::update">
<polygon fill="white" stroke="black" points="2680,-340.5 2680,-359.5 2822,-359.5 2822,-340.5 2680,-340.5"/>
<text text-anchor="middle" x="2751" y="-347.5" font-family="Helvetica,sans-Serif" font-size="10.00">AP_AHRS_NavEKF::update</text>
</a>
</g>
</g>
<!-- Node19&#45;&gt;Node20 -->
<g id="edge23" class="edge"><title>Node19&#45;&gt;Node20</title>
<path fill="none" stroke="midnightblue" d="M2635.52,-229.063C2638.13,-230.553 2640.63,-232.194 2643,-234 2670.18,-254.747 2656.15,-276.555 2679,-302 2693.81,-318.496 2715.43,-332.051 2730.92,-340.499"/>
<polygon fill="midnightblue" stroke="midnightblue" points="2636.82,-225.805 2626.3,-224.556 2633.75,-232.093 2636.82,-225.805"/>
</g>
<!-- Node21 -->
<g id="node21" class="node"><title>Node21</title>
<g id="a_node21"><a xlink:href="AHRS__Test_8cpp.html#a0b33edabd7f1c4e4a0bf32c67269be2f" target="_top" xlink:title="loop">
<polygon fill="white" stroke="black" points="2897.5,-340.5 2897.5,-359.5 2932.5,-359.5 2932.5,-340.5 2897.5,-340.5"/>
<text text-anchor="middle" x="2915" y="-347.5" font-family="Helvetica,sans-Serif" font-size="10.00">loop</text>
</a>
</g>
</g>
<!-- Node20&#45;&gt;Node21 -->
<g id="edge24" class="edge"><title>Node20&#45;&gt;Node21</title>
<path fill="none" stroke="midnightblue" d="M2832.29,-350C2856.99,-350 2881.78,-350 2897.47,-350"/>
<polygon fill="midnightblue" stroke="midnightblue" points="2832.11,-346.5 2822.11,-350 2832.11,-353.5 2832.11,-346.5"/>
</g>
<!-- Node25 -->
<g id="node25" class="node"><title>Node25</title>
<g id="a_node25"><a xlink:href="classDataFlash__Class.html#a46e58faaa53c44516433f6bb7bde4163" target="_top" xlink:title="DataFlash_Class::Log\l_Write_POS">
<polygon fill="white" stroke="black" points="2694,-263 2694,-293 2808,-293 2808,-263 2694,-263"/>
<text text-anchor="start" x="2702" y="-281" font-family="Helvetica,sans-Serif" font-size="10.00">DataFlash_Class::Log</text>
<text text-anchor="middle" x="2751" y="-270" font-family="Helvetica,sans-Serif" font-size="10.00">_Write_POS</text>
</a>
</g>
</g>
<!-- Node24&#45;&gt;Node25 -->
<g id="edge28" class="edge"><title>Node24&#45;&gt;Node25</title>
<path fill="none" stroke="midnightblue" d="M2626.13,-189.421C2631.95,-191.32 2637.65,-193.5 2643,-196 2679.47,-213.033 2715.24,-244.194 2734.78,-262.81"/>
<polygon fill="midnightblue" stroke="midnightblue" points="2626.86,-185.986 2616.27,-186.484 2624.86,-192.694 2626.86,-185.986"/>
</g>
<!-- Node27 -->
<g id="node27" class="node"><title>Node27</title>
<g id="a_node27"><a xlink:href="classGCS__MAVLINK.html#a558ba3447048b78cb9dde460053e2741" target="_top" xlink:title="GCS_MAVLINK::send_ahrs2">
<polygon fill="white" stroke="black" points="2679,-167.5 2679,-186.5 2823,-186.5 2823,-167.5 2679,-167.5"/>
<text text-anchor="middle" x="2751" y="-174.5" font-family="Helvetica,sans-Serif" font-size="10.00">GCS_MAVLINK::send_ahrs2</text>
</a>
</g>
</g>
<!-- Node24&#45;&gt;Node27 -->
<g id="edge30" class="edge"><title>Node24&#45;&gt;Node27</title>
<path fill="none" stroke="midnightblue" d="M2626.52,-177C2643.5,-177 2661.74,-177 2678.85,-177"/>
<polygon fill="midnightblue" stroke="midnightblue" points="2626.13,-173.5 2616.13,-177 2626.13,-180.5 2626.13,-173.5"/>
</g>
<!-- Node26 -->
<g id="node26" class="node"><title>Node26</title>
<g id="a_node26"><a xlink:href="classDataFlash__Class.html#a7868f0e3dcef65ea5b5fcae618f4c5d4" target="_top" xlink:title="DataFlash_Class::get\l_structures">
<polygon fill="white" stroke="black" points="2859,-263 2859,-293 2971,-293 2971,-263 2859,-263"/>
<text text-anchor="start" x="2867" y="-281" font-family="Helvetica,sans-Serif" font-size="10.00">DataFlash_Class::get</text>
<text text-anchor="middle" x="2915" y="-270" font-family="Helvetica,sans-Serif" font-size="10.00">_structures</text>
</a>
</g>
</g>
<!-- Node25&#45;&gt;Node26 -->
<g id="edge29" class="edge"><title>Node25&#45;&gt;Node26</title>
<path fill="none" stroke="midnightblue" d="M2818.39,-278C2831.89,-278 2845.94,-278 2858.99,-278"/>
<polygon fill="midnightblue" stroke="midnightblue" points="2818.21,-274.5 2808.21,-278 2818.21,-281.5 2818.21,-274.5"/>
</g>
<!-- Node29 -->
<g id="node29" class="node"><title>Node29</title>
<g id="a_node29"><a xlink:href="classNavEKF2__core.html#a3989e564224adfa26b0e32a5a03aca10" target="_top" xlink:title="NavEKF2_core::controlMag\lYawReset">
<polygon fill="white" stroke="black" points="1759,-150 1759,-180 1896,-180 1896,-150 1759,-150"/>
<text text-anchor="start" x="1767" y="-168" font-family="Helvetica,sans-Serif" font-size="10.00">NavEKF2_core::controlMag</text>
<text text-anchor="middle" x="1827.5" y="-157" font-family="Helvetica,sans-Serif" font-size="10.00">YawReset</text>
</a>
</g>
</g>
<!-- Node28&#45;&gt;Node29 -->
<g id="edge32" class="edge"><title>Node28&#45;&gt;Node29</title>
<path fill="none" stroke="midnightblue" d="M1733.19,-165C1741.79,-165 1750.46,-165 1758.87,-165"/>
<polygon fill="midnightblue" stroke="midnightblue" points="1733.14,-161.5 1723.14,-165 1733.14,-168.5 1733.14,-161.5"/>
</g>
<!-- Node29&#45;&gt;Node30 -->
<g id="edge33" class="edge"><title>Node29&#45;&gt;Node30</title>
<path fill="none" stroke="midnightblue" d="M1906.24,-176.766C1921.07,-179.011 1936.43,-181.335 1950.72,-183.498"/>
<polygon fill="midnightblue" stroke="midnightblue" points="1906.49,-173.263 1896.07,-175.227 1905.44,-180.185 1906.49,-173.263"/>
</g>
<!-- Node31 -->
<g id="node31" class="node"><title>Node31</title>
<g id="a_node31"><a xlink:href="classNavEKF2__core.html#a5f5c815cbd5ebba30d731f89f87726c3" target="_top" xlink:title="NavEKF2_core::UpdateFilter">
<polygon fill="white" stroke="black" points="2133,-183.5 2133,-202.5 2276,-202.5 2276,-183.5 2133,-183.5"/>
<text text-anchor="middle" x="2204.5" y="-190.5" font-family="Helvetica,sans-Serif" font-size="10.00">NavEKF2_core::UpdateFilter</text>
</a>
</g>
</g>
<!-- Node30&#45;&gt;Node31 -->
<g id="edge34" class="edge"><title>Node30&#45;&gt;Node31</title>
<path fill="none" stroke="midnightblue" d="M2107.22,-193C2115.83,-193 2124.47,-193 2132.84,-193"/>
<polygon fill="midnightblue" stroke="midnightblue" points="2107.14,-189.5 2097.14,-193 2107.14,-196.5 2107.14,-189.5"/>
</g>
<!-- Node32 -->
<g id="node32" class="node"><title>Node32</title>
<g id="a_node32"><a xlink:href="classNavEKF2.html#a72815b1bbd9d7ceb0ff7ae52d14516df" target="_top" xlink:title="NavEKF2::UpdateFilter">
<polygon fill="white" stroke="black" points="2314,-183.5 2314,-202.5 2433,-202.5 2433,-183.5 2314,-183.5"/>
<text text-anchor="middle" x="2373.5" y="-190.5" font-family="Helvetica,sans-Serif" font-size="10.00">NavEKF2::UpdateFilter</text>
</a>
</g>
</g>
<!-- Node31&#45;&gt;Node32 -->
<g id="edge35" class="edge"><title>Node31&#45;&gt;Node32</title>
<path fill="none" stroke="midnightblue" d="M2286.37,-193C2295.67,-193 2305.01,-193 2313.93,-193"/>
<polygon fill="midnightblue" stroke="midnightblue" points="2286.32,-189.5 2276.32,-193 2286.32,-196.5 2286.32,-189.5"/>
</g>
<!-- Node32&#45;&gt;Node19 -->
<g id="edge36" class="edge"><title>Node32&#45;&gt;Node19</title>
<path fill="none" stroke="midnightblue" d="M2443.26,-201.334C2454.4,-202.684 2466.01,-204.092 2477.36,-205.468"/>
<polygon fill="midnightblue" stroke="midnightblue" points="2443.53,-197.841 2433.18,-200.112 2442.68,-204.79 2443.53,-197.841"/>
</g>
<!-- Node32&#45;&gt;Node24 -->
<g id="edge37" class="edge"><title>Node32&#45;&gt;Node24</title>
<path fill="none" stroke="midnightblue" d="M2443.31,-186.935C2461.28,-185.35 2480.47,-183.658 2497.84,-182.127"/>
<polygon fill="midnightblue" stroke="midnightblue" points="2442.83,-183.463 2433.18,-187.827 2443.45,-190.436 2442.83,-183.463"/>
</g>
<!-- Node34 -->
<g id="node34" class="node"><title>Node34</title>
<g id="a_node34"><a xlink:href="classNavEKF3__core.html#aae18ada44b1b7be0d45af03391ef961a" target="_top" xlink:title="NavEKF3_core::Initialise\lFilterBootstrap">
<polygon fill="white" stroke="black" points="2142,-282 2142,-312 2267,-312 2267,-282 2142,-282"/>
<text text-anchor="start" x="2150" y="-300" font-family="Helvetica,sans-Serif" font-size="10.00">NavEKF3_core::Initialise</text>
<text text-anchor="middle" x="2204.5" y="-289" font-family="Helvetica,sans-Serif" font-size="10.00">FilterBootstrap</text>
</a>
</g>
</g>
<!-- Node33&#45;&gt;Node34 -->
<g id="edge40" class="edge"><title>Node33&#45;&gt;Node34</title>
<path fill="none" stroke="midnightblue" d="M1551.24,-316.51C1700.42,-312.048 2010.04,-302.787 2141.89,-298.843"/>
<polygon fill="midnightblue" stroke="midnightblue" points="1551.1,-313.013 1541.21,-316.81 1551.31,-320.009 1551.1,-313.013"/>
</g>
<!-- Node38 -->
<g id="node38" class="node"><title>Node38</title>
<g id="a_node38"><a xlink:href="classNavEKF3__core.html#a93a3f4411a8dc4df4819e13856d037d5" target="_top" xlink:title="NavEKF3_core::calcQuatAnd\lFieldStates">
<polygon fill="white" stroke="black" points="1577,-326 1577,-356 1723,-356 1723,-326 1577,-326"/>
<text text-anchor="start" x="1585" y="-344" font-family="Helvetica,sans-Serif" font-size="10.00">NavEKF3_core::calcQuatAnd</text>
<text text-anchor="middle" x="1650" y="-333" font-family="Helvetica,sans-Serif" font-size="10.00">FieldStates</text>
</a>
</g>
</g>
<!-- Node33&#45;&gt;Node38 -->
<g id="edge48" class="edge"><title>Node33&#45;&gt;Node38</title>
<path fill="none" stroke="midnightblue" d="M1551.11,-329.102C1559.69,-330.145 1568.36,-331.198 1576.81,-332.225"/>
<polygon fill="midnightblue" stroke="midnightblue" points="1551.45,-325.617 1541.1,-327.885 1550.6,-332.566 1551.45,-325.617"/>
</g>
<!-- Node40 -->
<g id="node40" class="node"><title>Node40</title>
<g id="a_node40"><a xlink:href="classNavEKF3__core.html#a800d407d377e6532d563c68cc3c731d8" target="_top" xlink:title="NavEKF3_core::SelectMagFusion">
<polygon fill="white" stroke="black" points="1932,-350.5 1932,-369.5 2097,-369.5 2097,-350.5 1932,-350.5"/>
<text text-anchor="middle" x="2014.5" y="-357.5" font-family="Helvetica,sans-Serif" font-size="10.00">NavEKF3_core::SelectMagFusion</text>
</a>
</g>
</g>
<!-- Node33&#45;&gt;Node40 -->
<g id="edge55" class="edge"><title>Node33&#45;&gt;Node40</title>
<path fill="none" stroke="midnightblue" d="M1493.09,-333.326C1514.58,-344.724 1546.76,-359.758 1577,-366 1706.71,-392.773 1862.73,-380.199 1948.7,-369.52"/>
<polygon fill="midnightblue" stroke="midnightblue" points="1494.75,-330.245 1484.29,-328.546 1491.41,-336.396 1494.75,-330.245"/>
</g>
<!-- Node35 -->
<g id="node35" class="node"><title>Node35</title>
<g id="a_node35"><a xlink:href="classNavEKF3.html#a07f064fa513fbb6e7188141904f3b5b5" target="_top" xlink:title="NavEKF3::InitialiseFilter">
<polygon fill="white" stroke="black" points="2312,-287.5 2312,-306.5 2435,-306.5 2435,-287.5 2312,-287.5"/>
<text text-anchor="middle" x="2373.5" y="-294.5" font-family="Helvetica,sans-Serif" font-size="10.00">NavEKF3::InitialiseFilter</text>
</a>
</g>
</g>
<!-- Node34&#45;&gt;Node35 -->
<g id="edge41" class="edge"><title>Node34&#45;&gt;Node35</title>
<path fill="none" stroke="midnightblue" d="M2277.25,-297C2288.79,-297 2300.63,-297 2311.88,-297"/>
<polygon fill="midnightblue" stroke="midnightblue" points="2277.21,-293.5 2267.21,-297 2277.21,-300.5 2277.21,-293.5"/>
</g>
<!-- Node35&#45;&gt;Node22 -->
<g id="edge44" class="edge"><title>Node35&#45;&gt;Node22</title>
<path fill="none" stroke="midnightblue" d="M2419.89,-284.906C2436,-280.702 2454.28,-276.033 2471,-272 2484.23,-268.809 2498.66,-265.513 2511.82,-262.581"/>
<polygon fill="midnightblue" stroke="midnightblue" points="2418.96,-281.532 2410.17,-287.453 2420.73,-288.303 2418.96,-281.532"/>
</g>
<!-- Node35&#45;&gt;Node23 -->
<g id="edge45" class="edge"><title>Node35&#45;&gt;Node23</title>
<path fill="none" stroke="midnightblue" d="M2445.2,-297C2459.86,-297 2475.26,-297 2489.75,-297"/>
<polygon fill="midnightblue" stroke="midnightblue" points="2445.19,-293.5 2435.19,-297 2445.19,-300.5 2445.19,-293.5"/>
</g>
<!-- Node36 -->
<g id="node36" class="node"><title>Node36</title>
<g id="a_node36"><a xlink:href="classAP__AHRS__NavEKF.html#a324160404f12959e955554f5aed26459" target="_top" xlink:title="AP_AHRS_NavEKF::update_EKF3">
<polygon fill="white" stroke="black" points="2471,-369.5 2471,-388.5 2643,-388.5 2643,-369.5 2471,-369.5"/>
<text text-anchor="middle" x="2557" y="-376.5" font-family="Helvetica,sans-Serif" font-size="10.00">AP_AHRS_NavEKF::update_EKF3</text>
</a>
</g>
</g>
<!-- Node35&#45;&gt;Node36 -->
<g id="edge42" class="edge"><title>Node35&#45;&gt;Node36</title>
<path fill="none" stroke="midnightblue" d="M2396.3,-312.546C2419.75,-329.027 2455.72,-353.553 2471,-360 2480.06,-363.82 2489.99,-366.925 2499.78,-369.432"/>
<polygon fill="midnightblue" stroke="midnightblue" points="2398.18,-309.591 2388,-306.679 2394.14,-315.308 2398.18,-309.591"/>
</g>
<!-- Node37 -->
<g id="node37" class="node"><title>Node37</title>
<g id="a_node37"><a xlink:href="classNavEKF3.html#a3e1f50ad977a17222fcd7a6851b0f2ec" target="_top" xlink:title="NavEKF3::activeCores">
<polygon fill="white" stroke="black" points="2498,-331.5 2498,-350.5 2616,-350.5 2616,-331.5 2498,-331.5"/>
<text text-anchor="middle" x="2557" y="-338.5" font-family="Helvetica,sans-Serif" font-size="10.00">NavEKF3::activeCores</text>
</a>
</g>
</g>
<!-- Node35&#45;&gt;Node37 -->
<g id="edge46" class="edge"><title>Node35&#45;&gt;Node37</title>
<path fill="none" stroke="midnightblue" d="M2419.89,-309.094C2436,-313.298 2454.28,-317.967 2471,-322 2484.23,-325.191 2498.66,-328.487 2511.82,-331.419"/>
<polygon fill="midnightblue" stroke="midnightblue" points="2420.73,-305.697 2410.17,-306.547 2418.96,-312.468 2420.73,-305.697"/>
</g>
<!-- Node36&#45;&gt;Node20 -->
<g id="edge43" class="edge"><title>Node36&#45;&gt;Node20</title>
<path fill="none" stroke="midnightblue" d="M2631.18,-367.947C2649.51,-365.178 2669.03,-362.23 2686.83,-359.542"/>
<polygon fill="midnightblue" stroke="midnightblue" points="2630.5,-364.51 2621.13,-369.464 2631.54,-371.431 2630.5,-364.51"/>
</g>
<!-- Node37&#45;&gt;Node25 -->
<g id="edge47" class="edge"><title>Node37&#45;&gt;Node25</title>
<path fill="none" stroke="midnightblue" d="M2617.15,-329.143C2625.88,-326.999 2634.72,-324.607 2643,-322 2668.48,-313.977 2696.37,-302.415 2717.28,-293.155"/>
<polygon fill="midnightblue" stroke="midnightblue" points="2616.3,-325.748 2607.37,-331.456 2617.91,-332.56 2616.3,-325.748"/>
</g>
<!-- Node39 -->
<g id="node39" class="node"><title>Node39</title>
<g id="a_node39"><a xlink:href="classNavEKF3__core.html#ae050fc8e6c45d5134f8cba8dabc719e8" target="_top" xlink:title="NavEKF3_core::controlMag\lYawReset">
<polygon fill="white" stroke="black" points="1759,-326 1759,-356 1896,-356 1896,-326 1759,-326"/>
<text text-anchor="start" x="1767" y="-344" font-family="Helvetica,sans-Serif" font-size="10.00">NavEKF3_core::controlMag</text>
<text text-anchor="middle" x="1827.5" y="-333" font-family="Helvetica,sans-Serif" font-size="10.00">YawReset</text>
</a>
</g>
</g>
<!-- Node38&#45;&gt;Node39 -->
<g id="edge49" class="edge"><title>Node38&#45;&gt;Node39</title>
<path fill="none" stroke="midnightblue" d="M1733.19,-341C1741.79,-341 1750.46,-341 1758.87,-341"/>
<polygon fill="midnightblue" stroke="midnightblue" points="1733.14,-337.5 1723.14,-341 1733.14,-344.5 1733.14,-337.5"/>
</g>
<!-- Node39&#45;&gt;Node40 -->
<g id="edge50" class="edge"><title>Node39&#45;&gt;Node40</title>
<path fill="none" stroke="midnightblue" d="M1906.03,-348.963C1914.6,-349.843 1923.34,-350.741 1931.96,-351.626"/>
<polygon fill="midnightblue" stroke="midnightblue" points="1906.38,-345.48 1896.07,-347.94 1905.66,-352.444 1906.38,-345.48"/>
</g>
<!-- Node41 -->
<g id="node41" class="node"><title>Node41</title>
<g id="a_node41"><a xlink:href="classNavEKF3__core.html#a2a7fae9e0bf2ce6fc2f9b3918dc168d3" target="_top" xlink:title="NavEKF3_core::UpdateFilter">
<polygon fill="white" stroke="black" points="2133,-350.5 2133,-369.5 2276,-369.5 2276,-350.5 2133,-350.5"/>
<text text-anchor="middle" x="2204.5" y="-357.5" font-family="Helvetica,sans-Serif" font-size="10.00">NavEKF3_core::UpdateFilter</text>
</a>
</g>
</g>
<!-- Node40&#45;&gt;Node41 -->
<g id="edge51" class="edge"><title>Node40&#45;&gt;Node41</title>
<path fill="none" stroke="midnightblue" d="M2107.22,-360C2115.83,-360 2124.47,-360 2132.84,-360"/>
<polygon fill="midnightblue" stroke="midnightblue" points="2107.14,-356.5 2097.14,-360 2107.14,-363.5 2107.14,-356.5"/>
</g>
<!-- Node42 -->
<g id="node42" class="node"><title>Node42</title>
<g id="a_node42"><a xlink:href="classNavEKF3.html#a477020fcf29376e0c2205dbf79728104" target="_top" xlink:title="NavEKF3::UpdateFilter">
<polygon fill="white" stroke="black" points="2314,-350.5 2314,-369.5 2433,-369.5 2433,-350.5 2314,-350.5"/>
<text text-anchor="middle" x="2373.5" y="-357.5" font-family="Helvetica,sans-Serif" font-size="10.00">NavEKF3::UpdateFilter</text>
</a>
</g>
</g>
<!-- Node41&#45;&gt;Node42 -->
<g id="edge52" class="edge"><title>Node41&#45;&gt;Node42</title>
<path fill="none" stroke="midnightblue" d="M2286.37,-360C2295.67,-360 2305.01,-360 2313.93,-360"/>
<polygon fill="midnightblue" stroke="midnightblue" points="2286.32,-356.5 2276.32,-360 2286.32,-363.5 2286.32,-356.5"/>
</g>
<!-- Node42&#45;&gt;Node36 -->
<g id="edge53" class="edge"><title>Node42&#45;&gt;Node36</title>
<path fill="none" stroke="midnightblue" d="M2443.2,-367.192C2452.22,-368.136 2461.55,-369.112 2470.79,-370.08"/>
<polygon fill="midnightblue" stroke="midnightblue" points="2443.49,-363.703 2433.18,-366.143 2442.76,-370.665 2443.49,-363.703"/>
</g>
<!-- Node42&#45;&gt;Node37 -->
<g id="edge54" class="edge"><title>Node42&#45;&gt;Node37</title>
<path fill="none" stroke="midnightblue" d="M2443.31,-352.797C2461.28,-350.916 2480.47,-348.906 2497.84,-347.089"/>
<polygon fill="midnightblue" stroke="midnightblue" points="2442.76,-349.335 2433.18,-353.857 2443.49,-356.297 2442.76,-349.335"/>
</g>
<!-- Node43&#45;&gt;Node13 -->
<g id="edge61" class="edge"><title>Node43&#45;&gt;Node13</title>
<path fill="none" stroke="midnightblue" d="M666.744,-103.81C682.194,-108.003 699.109,-111.87 715,-114 854.141,-132.651 1020.48,-124.833 1101.79,-119.087"/>
<polygon fill="midnightblue" stroke="midnightblue" points="667.403,-100.36 656.828,-101.023 665.508,-107.098 667.403,-100.36"/>
</g>
<!-- Node44&#45;&gt;Node8 -->
<g id="edge64" class="edge"><title>Node44&#45;&gt;Node8</title>
<path fill="none" stroke="midnightblue" d="M491.177,-173.046C564.964,-172.168 682.136,-171 783.5,-171 783.5,-171 783.5,-171 1153.5,-171 1244.25,-171 1347.84,-149.398 1410.01,-134.041"/>
<polygon fill="midnightblue" stroke="midnightblue" points="491.017,-169.548 481.06,-173.168 491.101,-176.548 491.017,-169.548"/>
</g>
<!-- Node45&#45;&gt;Node5 -->
<g id="edge66" class="edge"><title>Node45&#45;&gt;Node5</title>
<path fill="none" stroke="midnightblue" d="M281.269,-129.244C370.028,-127.726 537.21,-123.222 679,-110 693.782,-108.622 709.671,-106.614 724.488,-104.513"/>
<polygon fill="midnightblue" stroke="midnightblue" points="281.043,-125.747 271.102,-129.41 281.158,-132.746 281.043,-125.747"/>
</g>
</g>
</svg>
