<?xml version="1.0" encoding="UTF-8" standalone="no"?>
<!DOCTYPE svg PUBLIC "-//W3C//DTD SVG 1.1//EN"
 "http://www.w3.org/Graphics/SVG/1.1/DTD/svg11.dtd">
<!-- Generated by graphviz version 2.38.0 (20140413.2041)
 -->
<!-- Title: AP_AHRS::set_compass Pages: 1 -->
<svg width="811pt" height="88pt"
 viewBox="0.00 0.00 811.00 88.00" xmlns="http://www.w3.org/2000/svg" xmlns:xlink="http://www.w3.org/1999/xlink">
<g id="graph0" class="graph" transform="scale(1 1) rotate(0) translate(4 84)">
<title>AP_AHRS::set_compass</title>
<polygon fill="white" stroke="none" points="-4,4 -4,-84 807,-84 807,4 -4,4"/>
<!-- Node1 -->
<g id="node1" class="node"><title>Node1</title>
<polygon fill="#bfbfbf" stroke="black" points="0,-30 0,-49 128,-49 128,-30 0,-30"/>
<text text-anchor="middle" x="64" y="-37" font-family="Helvetica,sans-Serif" font-size="10.00">AP_AHRS::set_compass</text>
</g>
<!-- Node2 -->
<g id="node2" class="node"><title>Node2</title>
<g id="a_node2"><a xlink:href="classAP__AHRS.html#a14804b801de65ce6d904c804b4795657" target="_top" xlink:title="AP_AHRS::set_orientation">
<polygon fill="white" stroke="black" points="164,-30 164,-49 298,-49 298,-30 164,-30"/>
<text text-anchor="middle" x="231" y="-37" font-family="Helvetica,sans-Serif" font-size="10.00">AP_AHRS::set_orientation</text>
</a>
</g>
</g>
<!-- Node1&#45;&gt;Node2 -->
<g id="edge1" class="edge"><title>Node1&#45;&gt;Node2</title>
<path fill="none" stroke="midnightblue" d="M128.321,-39.5C136.592,-39.5 145.134,-39.5 153.59,-39.5"/>
<polygon fill="midnightblue" stroke="midnightblue" points="153.839,-43.0001 163.839,-39.5 153.839,-36.0001 153.839,-43.0001"/>
</g>
<!-- Node3 -->
<g id="node3" class="node"><title>Node3</title>
<g id="a_node3"><a xlink:href="classAP__InertialSensor.html#ac2b205f3b51b656ed1373b48d1524db6" target="_top" xlink:title="AP_InertialSensor::\lset_board_orientation">
<polygon fill="white" stroke="black" points="334,-49.5 334,-79.5 444,-79.5 444,-49.5 334,-49.5"/>
<text text-anchor="start" x="342" y="-67.5" font-family="Helvetica,sans-Serif" font-size="10.00">AP_InertialSensor::</text>
<text text-anchor="middle" x="389" y="-56.5" font-family="Helvetica,sans-Serif" font-size="10.00">set_board_orientation</text>
</a>
</g>
</g>
<!-- Node2&#45;&gt;Node3 -->
<g id="edge2" class="edge"><title>Node2&#45;&gt;Node3</title>
<path fill="none" stroke="midnightblue" d="M291.422,-49.0227C301.993,-50.7168 313.047,-52.4882 323.744,-54.2026"/>
<polygon fill="midnightblue" stroke="midnightblue" points="323.437,-57.6979 333.865,-55.8245 324.544,-50.7861 323.437,-57.6979"/>
</g>
<!-- Node4 -->
<g id="node4" class="node"><title>Node4</title>
<g id="a_node4"><a xlink:href="classCompass.html#a9b827b915597e590ea05fab467e676b0" target="_top" xlink:title="Compass::set_board\l_orientation">
<polygon fill="white" stroke="black" points="335.5,-0.5 335.5,-30.5 442.5,-30.5 442.5,-0.5 335.5,-0.5"/>
<text text-anchor="start" x="343.5" y="-18.5" font-family="Helvetica,sans-Serif" font-size="10.00">Compass::set_board</text>
<text text-anchor="middle" x="389" y="-7.5" font-family="Helvetica,sans-Serif" font-size="10.00">_orientation</text>
</a>
</g>
</g>
<!-- Node2&#45;&gt;Node4 -->
<g id="edge3" class="edge"><title>Node2&#45;&gt;Node4</title>
<path fill="none" stroke="midnightblue" d="M294.104,-29.9456C304.3,-28.377 314.874,-26.7501 325.09,-25.1785"/>
<polygon fill="midnightblue" stroke="midnightblue" points="325.807,-28.6094 335.158,-23.6295 324.742,-21.6908 325.807,-28.6094"/>
</g>
<!-- Node5 -->
<g id="node5" class="node"><title>Node5</title>
<g id="a_node5"><a xlink:href="classCompass.html#ad897fd4be9dd67a65343465614629568" target="_top" xlink:title="Compass::motor_compensation_type">
<polygon fill="white" stroke="black" points="480,-6 480,-25 659,-25 659,-6 480,-6"/>
<text text-anchor="middle" x="569.5" y="-13" font-family="Helvetica,sans-Serif" font-size="10.00">Compass::motor_compensation_type</text>
</a>
</g>
</g>
<!-- Node4&#45;&gt;Node5 -->
<g id="edge4" class="edge"><title>Node4&#45;&gt;Node5</title>
<path fill="none" stroke="midnightblue" d="M442.59,-15.5C451.2,-15.5 460.36,-15.5 469.661,-15.5"/>
<polygon fill="midnightblue" stroke="midnightblue" points="469.789,-19.0001 479.789,-15.5 469.789,-12.0001 469.789,-19.0001"/>
</g>
<!-- Node6 -->
<g id="node6" class="node"><title>Node6</title>
<g id="a_node6"><a xlink:href="classCompass.html#a307ba851d14fd2ac3b655227812f6b4d" target="_top" xlink:title="Compass::set_motor\l_compensation">
<polygon fill="white" stroke="black" points="695,-0.5 695,-30.5 803,-30.5 803,-0.5 695,-0.5"/>
<text text-anchor="start" x="703" y="-18.5" font-family="Helvetica,sans-Serif" font-size="10.00">Compass::set_motor</text>
<text text-anchor="middle" x="749" y="-7.5" font-family="Helvetica,sans-Serif" font-size="10.00">_compensation</text>
</a>
</g>
</g>
<!-- Node5&#45;&gt;Node6 -->
<g id="edge5" class="edge"><title>Node5&#45;&gt;Node6</title>
<path fill="none" stroke="midnightblue" d="M659.25,-15.5C667.782,-15.5 676.313,-15.5 684.529,-15.5"/>
<polygon fill="midnightblue" stroke="midnightblue" points="684.744,-19.0001 694.744,-15.5 684.744,-12.0001 684.744,-19.0001"/>
</g>
</g>
</svg>
