<?xml version="1.0" encoding="UTF-8" standalone="no"?>
<!DOCTYPE svg PUBLIC "-//W3C//DTD SVG 1.1//EN"
 "http://www.w3.org/Graphics/SVG/1.1/DTD/svg11.dtd">
<!-- Generated by graphviz version 2.38.0 (20140413.2041)
 -->
<!-- Title: HALSITL::SITL_State::_set_param_default Pages: 1 -->
<!--zoomable 170 -->
<svg id="main" version="1.1" xmlns="http://www.w3.org/2000/svg" xmlns:xlink="http://www.w3.org/1999/xlink" xml:space="preserve" onload="init(evt)">
<style type="text/css"><![CDATA[
.edge:hover path { stroke: red; }
.edge:hover polygon { stroke: red; fill: red; }
]]></style>
<script type="text/javascript"><![CDATA[
var edges = document.getElementsByTagName('g');
if (edges && edges.length) {
  for (var i=0;i<edges.length;i++) {
    if (edges[i].id.substr(0,4)=='edge') {
      edges[i].setAttribute('class','edge');
    }
  }
}
]]></script>
        <defs>
                <circle id="rim" cx="0" cy="0" r="7"/>
                <circle id="rim2" cx="0" cy="0" r="3.5"/>
                <g id="zoomPlus">
                        <use xlink:href="#rim" fill="#404040">
                                <set attributeName="fill" to="#808080" begin="zoomplus.mouseover" end="zoomplus.mouseout"/>
                        </use>
                        <path d="M-4,0h8M0,-4v8" fill="none" stroke="white" stroke-width="1.5" pointer-events="none"/>
                </g>
                <g id="zoomMin">
                        <use xlink:href="#rim" fill="#404040">
                                <set attributeName="fill" to="#808080" begin="zoomminus.mouseover" end="zoomminus.mouseout"/>
                        </use>
                        <path d="M-4,0h8" fill="none" stroke="white" stroke-width="1.5" pointer-events="none"/>
                </g>
                <g id="dirArrow">
                        <path fill="none" stroke="white" stroke-width="1.5" d="M0,-3.0v7 M-2.5,-0.5L0,-3.0L2.5,-0.5"/>
                </g>
               <g id="resetDef">
                       <use xlink:href="#rim2" fill="#404040">
                               <set attributeName="fill" to="#808080" begin="reset.mouseover" end="reset.mouseout"/>
                       </use>
               </g>
        </defs>

<script type="text/javascript">
var viewWidth = 710;
var viewHeight = 170;
var sectionId = 'dynsection-19';
</script>
<script xlink:href="svgpan.js"/>
<svg id="graph" class="graph">
<g id="viewport">
<title>HALSITL::SITL_State::_set_param_default</title>
<polygon fill="white" stroke="none" points="-4,4 -4,-165.662 706,-165.662 706,4 -4,4"/>
<!-- Node1 -->
<g id="node1" class="node"><title>Node1</title>
<polygon fill="#bfbfbf" stroke="black" points="0,-79.6617 0,-109.662 113,-109.662 113,-79.6617 0,-79.6617"/>
<text text-anchor="start" x="8" y="-97.6617" font-family="Helvetica,sans-Serif" font-size="10.00">HALSITL::SITL_State</text>
<text text-anchor="middle" x="56.5" y="-86.6617" font-family="Helvetica,sans-Serif" font-size="10.00">::_set_param_default</text>
</g>
<!-- Node2 -->
<g id="node2" class="node"><title>Node2</title>
<g id="a_node2"><a xlink:href="classAP__Param.html#a3e646a4ec73842265e47d9ccfe0ced9d" target="_top" xlink:title="AP_Param::find">
<polygon fill="white" stroke="black" points="149,-85.1617 149,-104.162 235,-104.162 235,-85.1617 149,-85.1617"/>
<text text-anchor="middle" x="192" y="-92.1617" font-family="Helvetica,sans-Serif" font-size="10.00">AP_Param::find</text>
</a>
</g>
</g>
<!-- Node1&#45;&gt;Node2 -->
<g id="edge1" class="edge"><title>Node1&#45;&gt;Node2</title>
<path fill="none" stroke="midnightblue" d="M113.342,-94.6617C121.682,-94.6617 130.255,-94.6617 138.522,-94.6617"/>
<polygon fill="midnightblue" stroke="midnightblue" points="138.788,-98.1618 148.788,-94.6617 138.788,-91.1618 138.788,-98.1618"/>
</g>
<!-- Node3 -->
<g id="node3" class="node"><title>Node3</title>
<g id="a_node3"><a xlink:href="replace_8cpp.html#a880bcc7b85a09e6254691bebd5344b51" target="_top" xlink:title="strnlen">
<polygon fill="white" stroke="black" points="466,-142.162 466,-161.162 512,-161.162 512,-142.162 466,-142.162"/>
<text text-anchor="middle" x="489" y="-149.162" font-family="Helvetica,sans-Serif" font-size="10.00">strnlen</text>
</a>
</g>
</g>
<!-- Node2&#45;&gt;Node3 -->
<g id="edge2" class="edge"><title>Node2&#45;&gt;Node3</title>
<path fill="none" stroke="midnightblue" d="M222.023,-104.207C236.602,-108.749 254.608,-113.978 271,-117.662 335.996,-132.27 413.336,-142.774 455.906,-147.972"/>
<polygon fill="midnightblue" stroke="midnightblue" points="455.605,-151.461 465.951,-149.179 456.44,-144.511 455.605,-151.461"/>
</g>
<!-- Node4 -->
<g id="node4" class="node"><title>Node4</title>
<g id="a_node4"><a xlink:href="classAP__Param.html#a69baa95e011c7a8c4a29625c558c5501" target="_top" xlink:title="get group_info pointer based on flags ">
<polygon fill="white" stroke="black" points="422,-104.162 422,-123.162 556,-123.162 556,-104.162 422,-104.162"/>
<text text-anchor="middle" x="489" y="-111.162" font-family="Helvetica,sans-Serif" font-size="10.00">AP_Param::get_group_info</text>
</a>
</g>
</g>
<!-- Node2&#45;&gt;Node4 -->
<g id="edge3" class="edge"><title>Node2&#45;&gt;Node4</title>
<path fill="none" stroke="midnightblue" d="M235.266,-97.3839C281.161,-100.34 355.417,-105.122 411.592,-108.74"/>
<polygon fill="midnightblue" stroke="midnightblue" points="411.655,-112.252 421.859,-109.402 412.105,-105.266 411.655,-112.252"/>
</g>
<!-- Node5 -->
<g id="node5" class="node"><title>Node5</title>
<g id="a_node5"><a xlink:href="classAP__Param.html#a6d02e2c94f578782f8f68ef0fec7a43d" target="_top" xlink:title="AP_Param::find_group">
<polygon fill="white" stroke="black" points="271,-66.1617 271,-85.1617 386,-85.1617 386,-66.1617 271,-66.1617"/>
<text text-anchor="middle" x="328.5" y="-73.1617" font-family="Helvetica,sans-Serif" font-size="10.00">AP_Param::find_group</text>
</a>
</g>
</g>
<!-- Node2&#45;&gt;Node5 -->
<g id="edge4" class="edge"><title>Node2&#45;&gt;Node5</title>
<path fill="none" stroke="midnightblue" d="M235.188,-88.7021C243.272,-87.5601 251.92,-86.3384 260.562,-85.1177"/>
<polygon fill="midnightblue" stroke="midnightblue" points="261.256,-88.5543 270.669,-83.6899 260.277,-81.6232 261.256,-88.5543"/>
</g>
<!-- Node7 -->
<g id="node7" class="node"><title>Node7</title>
<g id="a_node7"><a xlink:href="classAP__Param.html#a1dcc7820ea51e29cfb762387a9212818" target="_top" xlink:title="AP_Param::get_base">
<polygon fill="white" stroke="black" points="592,-22.1617 592,-41.1617 702,-41.1617 702,-22.1617 592,-22.1617"/>
<text text-anchor="middle" x="647" y="-29.1617" font-family="Helvetica,sans-Serif" font-size="10.00">AP_Param::get_base</text>
</a>
</g>
</g>
<!-- Node2&#45;&gt;Node7 -->
<g id="edge10" class="edge"><title>Node2&#45;&gt;Node7</title>
<path fill="none" stroke="midnightblue" d="M210.4,-85.0739C247.748,-65.1586 338.955,-20.0533 422,-6.66168 480.796,2.81963 496.99,1.38186 556,-6.66168 573.83,-9.09212 593.114,-14.1129 609.24,-19.0218"/>
<polygon fill="midnightblue" stroke="midnightblue" points="608.242,-22.3769 618.832,-22.0396 610.343,-15.6996 608.242,-22.3769"/>
</g>
<!-- Node5&#45;&gt;Node3 -->
<g id="edge9" class="edge"><title>Node5&#45;&gt;Node3</title>
<path fill="none" stroke="midnightblue" d="M342.652,-85.3747C360.036,-97.8268 391.981,-119.39 422,-132.662 432.771,-137.424 445.054,-141.339 456.081,-144.353"/>
<polygon fill="midnightblue" stroke="midnightblue" points="455.215,-147.744 465.773,-146.865 456.972,-140.968 455.215,-147.744"/>
</g>
<!-- Node5&#45;&gt;Node4 -->
<g id="edge5" class="edge"><title>Node5&#45;&gt;Node4</title>
<path fill="none" stroke="midnightblue" d="M369.496,-85.2507C390.412,-90.2652 416.208,-96.4497 438.386,-101.767"/>
<polygon fill="midnightblue" stroke="midnightblue" points="437.751,-105.214 448.291,-104.142 439.383,-98.4066 437.751,-105.214"/>
</g>
<!-- Node6 -->
<g id="node6" class="node"><title>Node6</title>
<g id="a_node6"><a xlink:href="classAP__Param.html#aa8b43d95bca6adbf5497e8102cf73857" target="_top" xlink:title="AP_Param::adjust_group\l_offset">
<polygon fill="white" stroke="black" points="426.5,-16.6617 426.5,-46.6617 551.5,-46.6617 551.5,-16.6617 426.5,-16.6617"/>
<text text-anchor="start" x="434.5" y="-34.6617" font-family="Helvetica,sans-Serif" font-size="10.00">AP_Param::adjust_group</text>
<text text-anchor="middle" x="489" y="-23.6617" font-family="Helvetica,sans-Serif" font-size="10.00">_offset</text>
</a>
</g>
</g>
<!-- Node5&#45;&gt;Node6 -->
<g id="edge6" class="edge"><title>Node5&#45;&gt;Node6</title>
<path fill="none" stroke="midnightblue" d="M363.892,-66.1143C381.498,-61.2268 403.509,-55.1166 424.085,-49.4045"/>
<polygon fill="midnightblue" stroke="midnightblue" points="425.031,-52.7744 433.73,-46.727 423.159,-46.0295 425.031,-52.7744"/>
</g>
<!-- Node5&#45;&gt;Node7 -->
<g id="edge8" class="edge"><title>Node5&#45;&gt;Node7</title>
<path fill="none" stroke="midnightblue" d="M386.168,-73.3718C432.2,-70.8623 498.656,-65.7615 556,-55.6617 572.461,-52.7625 590.301,-48.2921 605.723,-43.9918"/>
<polygon fill="midnightblue" stroke="midnightblue" points="606.815,-47.32 615.469,-41.2087 604.893,-40.5891 606.815,-47.32"/>
</g>
<!-- Node6&#45;&gt;Node7 -->
<g id="edge7" class="edge"><title>Node6&#45;&gt;Node7</title>
<path fill="none" stroke="midnightblue" d="M551.655,-31.6617C561.516,-31.6617 571.741,-31.6617 581.662,-31.6617"/>
<polygon fill="midnightblue" stroke="midnightblue" points="581.863,-35.1618 591.863,-31.6617 581.863,-28.1618 581.863,-35.1618"/>
</g>
</g>
</svg>
        <g id="navigator" transform="translate(0 0)" fill="#404254">
                <rect fill="#f2f5e9" fill-opacity="0.5" stroke="#606060" stroke-width=".5" x="0" y="0" width="60" height="60"/>
                <use id="zoomplus" xlink:href="#zoomPlus" x="17" y="9" onmousedown="handleZoom(evt,'in')"/>
                <use id="zoomminus" xlink:href="#zoomMin" x="42" y="9" onmousedown="handleZoom(evt,'out')"/>
                <use id="reset" xlink:href="#resetDef" x="30" y="36" onmousedown="handleReset()"/>
                <g id="arrowUp" xlink:href="#dirArrow" transform="translate(30 24)" onmousedown="handlePan(0,-1)">
                  <use xlink:href="#rim" fill="#404040">
                        <set attributeName="fill" to="#808080" begin="arrowUp.mouseover" end="arrowUp.mouseout"/>
                  </use>
                  <path fill="none" stroke="white" stroke-width="1.5" d="M0,-3.0v7 M-2.5,-0.5L0,-3.0L2.5,-0.5"/>
                </g>
                <g id="arrowRight" xlink:href="#dirArrow" transform="rotate(90) translate(36 -43)" onmousedown="handlePan(1,0)">
                  <use xlink:href="#rim" fill="#404040">
                        <set attributeName="fill" to="#808080" begin="arrowRight.mouseover" end="arrowRight.mouseout"/>
                  </use>
                  <path fill="none" stroke="white" stroke-width="1.5" d="M0,-3.0v7 M-2.5,-0.5L0,-3.0L2.5,-0.5"/>
                </g>
                <g id="arrowDown" xlink:href="#dirArrow" transform="rotate(180) translate(-30 -48)" onmousedown="handlePan(0,1)">
                  <use xlink:href="#rim" fill="#404040">
                        <set attributeName="fill" to="#808080" begin="arrowDown.mouseover" end="arrowDown.mouseout"/>
                  </use>
                  <path fill="none" stroke="white" stroke-width="1.5" d="M0,-3.0v7 M-2.5,-0.5L0,-3.0L2.5,-0.5"/>
                </g>
                <g id="arrowLeft" xlink:href="#dirArrow" transform="rotate(270) translate(-36 17)" onmousedown="handlePan(-1,0)">
                  <use xlink:href="#rim" fill="#404040">
                        <set attributeName="fill" to="#808080" begin="arrowLeft.mouseover" end="arrowLeft.mouseout"/>
                  </use>
                  <path fill="none" stroke="white" stroke-width="1.5" d="M0,-3.0v7 M-2.5,-0.5L0,-3.0L2.5,-0.5"/>
                </g>
        </g>
        <svg viewBox="0 0 15 15" width="100%" height="30px" preserveAspectRatio="xMaxYMin meet">
         <g id="arrow_out" transform="scale(0.3 0.3)">
          <a xlink:href="classHALSITL_1_1SITL__State_a7f809e8cf516b5c58839a6197a7d5a94_cgraph_org.svg" target="_base">
           <rect id="button" ry="5" rx="5" y="6" x="6" height="38" width="38"
                fill="#f2f5e9" fill-opacity="0.5" stroke="#606060" stroke-width="1.0"/>
           <path id="arrow"
             d="M 11.500037,31.436501 C 11.940474,20.09759 22.043105,11.32322 32.158766,21.979434 L 37.068811,17.246167 C 37.068811,17.246167 37.088388,32 37.088388,32 L 22.160133,31.978069 C 22.160133,31.978069 26.997745,27.140456 26.997745,27.140456 C 18.528582,18.264221 13.291696,25.230495 11.500037,31.436501 z"
             style="fill:#404040;"/>
          </a>
         </g>
        </svg>
</svg>
