<?xml version="1.0" encoding="UTF-8" standalone="no"?>
<!DOCTYPE svg PUBLIC "-//W3C//DTD SVG 1.1//EN"
 "http://www.w3.org/Graphics/SVG/1.1/DTD/svg11.dtd">
<!-- Generated by graphviz version 2.38.0 (20140413.2041)
 -->
<!-- Title: AP_LeakDetector_Digital Pages: 1 -->
<svg width="488pt" height="175pt"
 viewBox="0.00 0.00 488.00 175.00" xmlns="http://www.w3.org/2000/svg" xmlns:xlink="http://www.w3.org/1999/xlink">
<g id="graph0" class="graph" transform="scale(1 1) rotate(0) translate(4 171)">
<title>AP_LeakDetector_Digital</title>
<polygon fill="white" stroke="none" points="-4,4 -4,-171 484,-171 484,4 -4,4"/>
<!-- Node1 -->
<g id="node1" class="node"><title>Node1</title>
<polygon fill="#bfbfbf" stroke="black" points="0,-0.5 0,-19.5 127,-19.5 127,-0.5 0,-0.5"/>
<text text-anchor="middle" x="63.5" y="-7.5" font-family="Helvetica,sans-Serif" font-size="10.00">AP_LeakDetector_Digital</text>
</g>
<!-- Node2 -->
<g id="node2" class="node"><title>Node2</title>
<g id="a_node2"><a xlink:href="classAP__LeakDetector__Backend.html" target="_top" xlink:title="AP_LeakDetector_Backend">
<polygon fill="white" stroke="black" points="44,-68.5 44,-87.5 181,-87.5 181,-68.5 44,-68.5"/>
<text text-anchor="middle" x="112.5" y="-75.5" font-family="Helvetica,sans-Serif" font-size="10.00">AP_LeakDetector_Backend</text>
</a>
</g>
</g>
<!-- Node2&#45;&gt;Node1 -->
<g id="edge1" class="edge"><title>Node2&#45;&gt;Node1</title>
<path fill="none" stroke="midnightblue" d="M90.0967,-62.0917C85.477,-58.2436 80.9693,-53.8135 77.5,-49 71.0869,-40.1024 67.2911,-27.9379 65.3041,-19.7921"/>
<polygon fill="midnightblue" stroke="midnightblue" points="88.2525,-65.086 98.3331,-68.3467 92.4862,-59.5113 88.2525,-65.086"/>
</g>
<!-- Node4 -->
<g id="node4" class="node"><title>Node4</title>
<g id="a_node4"><a xlink:href="classAP__LeakDetector.html" target="_top" xlink:title="AP_LeakDetector">
<polygon fill="white" stroke="black" points="166.5,-0.5 166.5,-19.5 260.5,-19.5 260.5,-0.5 166.5,-0.5"/>
<text text-anchor="middle" x="213.5" y="-7.5" font-family="Helvetica,sans-Serif" font-size="10.00">AP_LeakDetector</text>
</a>
</g>
</g>
<!-- Node2&#45;&gt;Node4 -->
<g id="edge7" class="edge"><title>Node2&#45;&gt;Node4</title>
<path fill="none" stroke="#9a32cd" stroke-dasharray="5,2" d="M101.816,-59.3126C98.9271,-52.096 97.7489,-44.0453 102.5,-38 110.588,-27.7084 139.847,-20.8516 166.294,-16.6236"/>
<polygon fill="#9a32cd" stroke="#9a32cd" points="98.7688,-61.0415 106.42,-68.3698 105.009,-57.8694 98.7688,-61.0415"/>
<text text-anchor="middle" x="121.5" y="-41" font-family="Helvetica,sans-Serif" font-size="10.00"> _drivers</text>
</g>
<!-- Node3 -->
<g id="node3" class="node"><title>Node3</title>
<g id="a_node3"><a xlink:href="structAP__LeakDetector_1_1LeakDetector__State.html" target="_top" xlink:title="AP_LeakDetector::LeakDetector\l_State">
<polygon fill="white" stroke="black" points="114.5,-136.5 114.5,-166.5 272.5,-166.5 272.5,-136.5 114.5,-136.5"/>
<text text-anchor="start" x="122.5" y="-154.5" font-family="Helvetica,sans-Serif" font-size="10.00">AP_LeakDetector::LeakDetector</text>
<text text-anchor="middle" x="193.5" y="-143.5" font-family="Helvetica,sans-Serif" font-size="10.00">_State</text>
</a>
</g>
</g>
<!-- Node3&#45;&gt;Node2 -->
<g id="edge2" class="edge"><title>Node3&#45;&gt;Node2</title>
<path fill="none" stroke="#9a32cd" stroke-dasharray="5,2" d="M169.685,-129.478C153.907,-115.551 134.035,-98.0096 122.354,-87.6981"/>
<polygon fill="#9a32cd" stroke="#9a32cd" points="167.684,-132.38 177.497,-136.374 172.316,-127.132 167.684,-132.38"/>
<text text-anchor="middle" x="168" y="-110" font-family="Helvetica,sans-Serif" font-size="10.00"> state</text>
</g>
<!-- Node3&#45;&gt;Node4 -->
<g id="edge4" class="edge"><title>Node3&#45;&gt;Node4</title>
<path fill="none" stroke="#9a32cd" stroke-dasharray="5,2" d="M201.747,-126.604C208.309,-106.256 216.957,-76.0981 220.5,-49 221.822,-38.8895 219.106,-27.3888 216.682,-19.713"/>
<polygon fill="#9a32cd" stroke="#9a32cd" points="198.363,-125.688 198.543,-136.281 205.008,-127.888 198.363,-125.688"/>
<text text-anchor="middle" x="233" y="-75.5" font-family="Helvetica,sans-Serif" font-size="10.00"> _state</text>
</g>
<!-- Node4&#45;&gt;Node2 -->
<g id="edge3" class="edge"><title>Node4&#45;&gt;Node2</title>
<path fill="none" stroke="#9a32cd" stroke-dasharray="5,2" d="M183.829,-23.9075C175.407,-28.009 166.388,-32.8344 158.5,-38 144.661,-47.0629 130.382,-59.7947 121.478,-68.2143"/>
<polygon fill="#9a32cd" stroke="#9a32cd" points="185.428,-27.0236 192.991,-19.6047 182.452,-20.6875 185.428,-27.0236"/>
<text text-anchor="middle" x="189.5" y="-41" font-family="Helvetica,sans-Serif" font-size="10.00"> leak_detector</text>
</g>
<!-- Node5 -->
<g id="node5" class="node"><title>Node5</title>
<g id="a_node5"><a xlink:href="structAP__Param_1_1GroupInfo.html" target="_top" xlink:title="AP_Param::GroupInfo">
<polygon fill="white" stroke="black" points="284,-68.5 284,-87.5 397,-87.5 397,-68.5 284,-68.5"/>
<text text-anchor="middle" x="340.5" y="-75.5" font-family="Helvetica,sans-Serif" font-size="10.00">AP_Param::GroupInfo</text>
</a>
</g>
</g>
<!-- Node5&#45;&gt;Node4 -->
<g id="edge5" class="edge"><title>Node5&#45;&gt;Node4</title>
<path fill="none" stroke="#9a32cd" stroke-dasharray="5,2" d="M314.886,-63.6889C289.604,-50.5502 251.691,-30.8475 230.107,-19.6305"/>
<polygon fill="#9a32cd" stroke="#9a32cd" points="313.41,-66.8659 323.897,-68.3717 316.638,-60.6546 313.41,-66.8659"/>
<text text-anchor="middle" x="304.5" y="-41" font-family="Helvetica,sans-Serif" font-size="10.00"> var_info</text>
</g>
<!-- Node5&#45;&gt;Node5 -->
<g id="edge6" class="edge"><title>Node5&#45;&gt;Node5</title>
<path fill="none" stroke="#9a32cd" stroke-dasharray="5,2" d="M406.988,-82.7523C411.952,-81.6899 415,-80.1058 415,-78 415,-74.7129 407.572,-72.697 397.026,-71.9522"/>
<polygon fill="#9a32cd" stroke="#9a32cd" points="406.491,-79.2874 397.026,-84.0478 407.393,-86.229 406.491,-79.2874"/>
<text text-anchor="middle" x="447.5" y="-81" font-family="Helvetica,sans-Serif" font-size="10.00"> group_info_ptr</text>
<text text-anchor="middle" x="447.5" y="-70" font-family="Helvetica,sans-Serif" font-size="10.00">group_info</text>
</g>
</g>
</svg>
