<?xml version="1.0" encoding="UTF-8" standalone="no"?>
<!DOCTYPE svg PUBLIC "-//W3C//DTD SVG 1.1//EN"
 "http://www.w3.org/Graphics/SVG/1.1/DTD/svg11.dtd">
<!-- Generated by graphviz version 2.38.0 (20140413.2041)
 -->
<!-- Title: AP_HAL::Print::println Pages: 1 -->
<svg width="556pt" height="47pt"
 viewBox="0.00 0.00 556.00 47.00" xmlns="http://www.w3.org/2000/svg" xmlns:xlink="http://www.w3.org/1999/xlink">
<g id="graph0" class="graph" transform="scale(1 1) rotate(0) translate(4 43)">
<title>AP_HAL::Print::println</title>
<polygon fill="white" stroke="none" points="-4,4 -4,-43 552,-43 552,4 -4,4"/>
<!-- Node1 -->
<g id="node1" class="node"><title>Node1</title>
<polygon fill="#bfbfbf" stroke="black" points="0,-19.5 0,-38.5 113,-38.5 113,-19.5 0,-19.5"/>
<text text-anchor="middle" x="56.5" y="-26.5" font-family="Helvetica,sans-Serif" font-size="10.00">AP_HAL::Print::println</text>
</g>
<!-- Node2 -->
<g id="node2" class="node"><title>Node2</title>
<g id="a_node2"><a xlink:href="classAP__HAL_1_1Print.html#acfe80773011eb17dfb52c2fba517a093" target="_top" xlink:title="AP_HAL::Print::print">
<polygon fill="white" stroke="black" points="298,-19.5 298,-38.5 404,-38.5 404,-19.5 298,-19.5"/>
<text text-anchor="middle" x="351" y="-26.5" font-family="Helvetica,sans-Serif" font-size="10.00">AP_HAL::Print::print</text>
</a>
</g>
</g>
<!-- Node1&#45;&gt;Node2 -->
<g id="edge1" class="edge"><title>Node1&#45;&gt;Node2</title>
<path fill="none" stroke="midnightblue" d="M113.205,-29C163.087,-29 236.137,-29 287.887,-29"/>
<polygon fill="midnightblue" stroke="midnightblue" points="287.94,-32.5001 297.94,-29 287.94,-25.5001 287.94,-32.5001"/>
</g>
<!-- Node4 -->
<g id="node4" class="node"><title>Node4</title>
<g id="a_node4"><a xlink:href="classAP__HAL_1_1Print.html#a169b128f9e22f0c15883768f580541a2" target="_top" xlink:title="AP_HAL::Print::println">
<polygon fill="white" stroke="black" points="149,-0.5 149,-19.5 262,-19.5 262,-0.5 149,-0.5"/>
<text text-anchor="middle" x="205.5" y="-7.5" font-family="Helvetica,sans-Serif" font-size="10.00">AP_HAL::Print::println</text>
</a>
</g>
</g>
<!-- Node1&#45;&gt;Node4 -->
<g id="edge3" class="edge"><title>Node1&#45;&gt;Node4</title>
<path fill="none" stroke="midnightblue" d="M113.074,-21.8169C121.489,-20.7293 130.238,-19.5985 138.842,-18.4864"/>
<polygon fill="midnightblue" stroke="midnightblue" points="139.378,-21.9463 148.847,-17.1932 138.481,-15.0041 139.378,-21.9463"/>
</g>
<!-- Node3 -->
<g id="node3" class="node"><title>Node3</title>
<g id="a_node3"><a xlink:href="classAP__HAL_1_1Print.html#acc65391952a43334f8f5c9bef341f501" target="_top" xlink:title="AP_HAL::Print::write">
<polygon fill="white" stroke="black" points="440,-19.5 440,-38.5 548,-38.5 548,-19.5 440,-19.5"/>
<text text-anchor="middle" x="494" y="-26.5" font-family="Helvetica,sans-Serif" font-size="10.00">AP_HAL::Print::write</text>
</a>
</g>
</g>
<!-- Node2&#45;&gt;Node3 -->
<g id="edge2" class="edge"><title>Node2&#45;&gt;Node3</title>
<path fill="none" stroke="midnightblue" d="M404.103,-29C412.357,-29 420.973,-29 429.453,-29"/>
<polygon fill="midnightblue" stroke="midnightblue" points="429.697,-32.5001 439.697,-29 429.697,-25.5001 429.697,-32.5001"/>
</g>
<!-- Node4&#45;&gt;Node2 -->
<g id="edge4" class="edge"><title>Node4&#45;&gt;Node2</title>
<path fill="none" stroke="midnightblue" d="M262.392,-17.4003C270.672,-18.4966 279.249,-19.6323 287.651,-20.7447"/>
<polygon fill="midnightblue" stroke="midnightblue" points="287.408,-24.243 297.781,-22.086 288.327,-17.3036 287.408,-24.243"/>
</g>
</g>
</svg>
