<?xml version="1.0" encoding="UTF-8" standalone="no"?>
<!DOCTYPE svg PUBLIC "-//W3C//DTD SVG 1.1//EN"
 "http://www.w3.org/Graphics/SVG/1.1/DTD/svg11.dtd">
<!-- Generated by graphviz version 2.38.0 (20140413.2041)
 -->
<!-- Title: CompassCalibrator::accept_sample Pages: 1 -->
<svg width="405pt" height="61pt"
 viewBox="0.00 0.00 405.00 61.00" xmlns="http://www.w3.org/2000/svg" xmlns:xlink="http://www.w3.org/1999/xlink">
<g id="graph0" class="graph" transform="scale(1 1) rotate(0) translate(4 57)">
<title>CompassCalibrator::accept_sample</title>
<polygon fill="white" stroke="none" points="-4,4 -4,-57 401,-57 401,4 -4,4"/>
<!-- Node1 -->
<g id="node1" class="node"><title>Node1</title>
<polygon fill="#bfbfbf" stroke="black" points="0,-0.5 0,-30.5 107,-30.5 107,-0.5 0,-0.5"/>
<text text-anchor="start" x="8" y="-18.5" font-family="Helvetica,sans-Serif" font-size="10.00">CompassCalibrator::</text>
<text text-anchor="middle" x="53.5" y="-7.5" font-family="Helvetica,sans-Serif" font-size="10.00">accept_sample</text>
</g>
<!-- Node2 -->
<g id="node2" class="node"><title>Node2</title>
<g id="a_node2"><a xlink:href="classCompassCalibrator.html#a9a22a17905205cc721ba8b36a203057c" target="_top" xlink:title="CompassCalibrator::\laccept_sample">
<polygon fill="white" stroke="black" points="143,-22.5 143,-52.5 250,-52.5 250,-22.5 143,-22.5"/>
<text text-anchor="start" x="151" y="-40.5" font-family="Helvetica,sans-Serif" font-size="10.00">CompassCalibrator::</text>
<text text-anchor="middle" x="196.5" y="-29.5" font-family="Helvetica,sans-Serif" font-size="10.00">accept_sample</text>
</a>
</g>
</g>
<!-- Node1&#45;&gt;Node2 -->
<g id="edge1" class="edge"><title>Node1&#45;&gt;Node2</title>
<path fill="none" stroke="midnightblue" d="M107.003,-23.692C115.445,-25.0091 124.255,-26.3838 132.905,-27.7333"/>
<polygon fill="midnightblue" stroke="midnightblue" points="132.533,-31.2176 142.953,-29.3012 133.612,-24.3013 132.533,-31.2176"/>
</g>
<!-- Node3 -->
<g id="node3" class="node"><title>Node3</title>
<g id="a_node3"><a xlink:href="classCompassCalibrator_1_1CompassSample.html#aa15059b264357a9920251a7c0c7c251a" target="_top" xlink:title="CompassCalibrator::\lCompassSample::get">
<polygon fill="white" stroke="black" points="286,-0.5 286,-30.5 397,-30.5 397,-0.5 286,-0.5"/>
<text text-anchor="start" x="294" y="-18.5" font-family="Helvetica,sans-Serif" font-size="10.00">CompassCalibrator::</text>
<text text-anchor="middle" x="341.5" y="-7.5" font-family="Helvetica,sans-Serif" font-size="10.00">CompassSample::get</text>
</a>
</g>
</g>
<!-- Node1&#45;&gt;Node3 -->
<g id="edge3" class="edge"><title>Node1&#45;&gt;Node3</title>
<path fill="none" stroke="midnightblue" d="M107.378,-14.1097C119.106,-13.8558 131.474,-13.6302 143,-13.5 190.553,-12.9628 202.447,-12.9746 250,-13.5 258.358,-13.5923 267.15,-13.7326 275.834,-13.897"/>
<polygon fill="midnightblue" stroke="midnightblue" points="275.879,-17.3985 285.947,-14.0995 276.019,-10.3999 275.879,-17.3985"/>
</g>
<!-- Node2&#45;&gt;Node3 -->
<g id="edge2" class="edge"><title>Node2&#45;&gt;Node3</title>
<path fill="none" stroke="midnightblue" d="M250.342,-29.3705C258.691,-28.0861 267.404,-26.7455 275.983,-25.4257"/>
<polygon fill="midnightblue" stroke="midnightblue" points="276.61,-28.8705 285.961,-23.8906 275.545,-21.9519 276.61,-28.8705"/>
</g>
</g>
</svg>
