<?xml version="1.0" encoding="UTF-8" standalone="no"?>
<!DOCTYPE svg PUBLIC "-//W3C//DTD SVG 1.1//EN"
 "http://www.w3.org/Graphics/SVG/1.1/DTD/svg11.dtd">
<!-- Generated by graphviz version 2.38.0 (20140413.2041)
 -->
<!-- Title: Linux::RCOutput_AeroIO::_hw_read Pages: 1 -->
<svg width="301pt" height="104pt"
 viewBox="0.00 0.00 301.00 104.00" xmlns="http://www.w3.org/2000/svg" xmlns:xlink="http://www.w3.org/1999/xlink">
<g id="graph0" class="graph" transform="scale(1 1) rotate(0) translate(4 100)">
<title>Linux::RCOutput_AeroIO::_hw_read</title>
<polygon fill="white" stroke="none" points="-4,4 -4,-100 297,-100 297,4 -4,4"/>
<!-- Node1 -->
<g id="node1" class="node"><title>Node1</title>
<polygon fill="#bfbfbf" stroke="black" points="0,-33 0,-63 126,-63 126,-33 0,-33"/>
<text text-anchor="start" x="8" y="-51" font-family="Helvetica,sans-Serif" font-size="10.00">Linux::RCOutput_AeroIO</text>
<text text-anchor="middle" x="63" y="-40" font-family="Helvetica,sans-Serif" font-size="10.00">::_hw_read</text>
</g>
<!-- Node2 -->
<g id="node2" class="node"><title>Node2</title>
<g id="a_node2"><a xlink:href="sparse-endian_8h.html#afeadfffc79afb9d2c017f0921b187204" target="_top" xlink:title="htobe16">
<polygon fill="white" stroke="black" points="202,-76.5 202,-95.5 253,-95.5 253,-76.5 202,-76.5"/>
<text text-anchor="middle" x="227.5" y="-83.5" font-family="Helvetica,sans-Serif" font-size="10.00">htobe16</text>
</a>
</g>
</g>
<!-- Node1&#45;&gt;Node2 -->
<g id="edge1" class="edge"><title>Node1&#45;&gt;Node2</title>
<path fill="none" stroke="midnightblue" d="M126.362,-62.5831C148.667,-67.7991 172.983,-73.4853 192.068,-77.9482"/>
<polygon fill="midnightblue" stroke="midnightblue" points="191.274,-81.357 201.809,-80.226 192.868,-74.5409 191.274,-81.357"/>
</g>
<!-- Node3 -->
<g id="node3" class="node"><title>Node3</title>
<g id="a_node3"><a xlink:href="classAP__HAL_1_1Device.html#a2af24b5f93b678af718b65a606e538b0" target="_top" xlink:title="AP_HAL::Device::transfer">
<polygon fill="white" stroke="black" points="162,-38.5 162,-57.5 293,-57.5 293,-38.5 162,-38.5"/>
<text text-anchor="middle" x="227.5" y="-45.5" font-family="Helvetica,sans-Serif" font-size="10.00">AP_HAL::Device::transfer</text>
</a>
</g>
</g>
<!-- Node1&#45;&gt;Node3 -->
<g id="edge2" class="edge"><title>Node1&#45;&gt;Node3</title>
<path fill="none" stroke="midnightblue" d="M126.362,-48C134.634,-48 143.183,-48 151.638,-48"/>
<polygon fill="midnightblue" stroke="midnightblue" points="151.882,-51.5001 161.882,-48 151.882,-44.5001 151.882,-51.5001"/>
</g>
<!-- Node4 -->
<g id="node4" class="node"><title>Node4</title>
<g id="a_node4"><a xlink:href="sparse-endian_8h.html#a4460d76503583c1209bc0e78a5ccaefb" target="_top" xlink:title="be16toh">
<polygon fill="white" stroke="black" points="202,-0.5 202,-19.5 253,-19.5 253,-0.5 202,-0.5"/>
<text text-anchor="middle" x="227.5" y="-7.5" font-family="Helvetica,sans-Serif" font-size="10.00">be16toh</text>
</a>
</g>
</g>
<!-- Node1&#45;&gt;Node4 -->
<g id="edge3" class="edge"><title>Node1&#45;&gt;Node4</title>
<path fill="none" stroke="midnightblue" d="M126.362,-33.4169C148.667,-28.2009 172.983,-22.5147 192.068,-18.0518"/>
<polygon fill="midnightblue" stroke="midnightblue" points="192.868,-21.4591 201.809,-15.774 191.274,-14.643 192.868,-21.4591"/>
</g>
</g>
</svg>
