<?xml version="1.0" encoding="UTF-8" standalone="no"?>
<!DOCTYPE svg PUBLIC "-//W3C//DTD SVG 1.1//EN"
 "http://www.w3.org/Graphics/SVG/1.1/DTD/svg11.dtd">
<!-- Generated by graphviz version 2.38.0 (20140413.2041)
 -->
<!-- Title: NavEKF3_core::getRangeBeaconDebug Pages: 1 -->
<svg width="829pt" height="53pt"
 viewBox="0.00 0.00 829.00 52.50" xmlns="http://www.w3.org/2000/svg" xmlns:xlink="http://www.w3.org/1999/xlink">
<g id="graph0" class="graph" transform="scale(1 1) rotate(0) translate(4 48.5)">
<title>NavEKF3_core::getRangeBeaconDebug</title>
<polygon fill="white" stroke="none" points="-4,4 -4,-48.5 825,-48.5 825,4 -4,4"/>
<!-- Node1 -->
<g id="node1" class="node"><title>Node1</title>
<polygon fill="#bfbfbf" stroke="black" points="0,-0.5 0,-30.5 164,-30.5 164,-0.5 0,-0.5"/>
<text text-anchor="start" x="8" y="-18.5" font-family="Helvetica,sans-Serif" font-size="10.00">NavEKF3_core::getRangeBeacon</text>
<text text-anchor="middle" x="82" y="-7.5" font-family="Helvetica,sans-Serif" font-size="10.00">Debug</text>
</g>
<!-- Node2 -->
<g id="node2" class="node"><title>Node2</title>
<g id="a_node2"><a xlink:href="classNavEKF3.html#ab71902d069d6d644520c7658c7503ff1" target="_top" xlink:title="NavEKF3::getRangeBeaconDebug">
<polygon fill="white" stroke="black" points="200,-6 200,-25 369,-25 369,-6 200,-6"/>
<text text-anchor="middle" x="284.5" y="-13" font-family="Helvetica,sans-Serif" font-size="10.00">NavEKF3::getRangeBeaconDebug</text>
</a>
</g>
</g>
<!-- Node1&#45;&gt;Node2 -->
<g id="edge1" class="edge"><title>Node1&#45;&gt;Node2</title>
<path fill="none" stroke="midnightblue" d="M174.502,-15.5C182.945,-15.5 191.471,-15.5 199.838,-15.5"/>
<polygon fill="midnightblue" stroke="midnightblue" points="174.262,-12.0001 164.262,-15.5 174.262,-19.0001 174.262,-12.0001"/>
</g>
<!-- Node3 -->
<g id="node3" class="node"><title>Node3</title>
<g id="a_node3"><a xlink:href="classNavEKF3.html#a3e1f50ad977a17222fcd7a6851b0f2ec" target="_top" xlink:title="NavEKF3::activeCores">
<polygon fill="white" stroke="black" points="405,-25 405,-44 523,-44 523,-25 405,-25"/>
<text text-anchor="middle" x="464" y="-32" font-family="Helvetica,sans-Serif" font-size="10.00">NavEKF3::activeCores</text>
</a>
</g>
</g>
<!-- Node2&#45;&gt;Node3 -->
<g id="edge2" class="edge"><title>Node2&#45;&gt;Node3</title>
<path fill="none" stroke="midnightblue" d="M379.021,-25.5107C387.843,-26.455 396.601,-27.3925 404.947,-28.2859"/>
<polygon fill="midnightblue" stroke="midnightblue" points="379.368,-22.028 369.052,-24.4436 378.623,-28.9882 379.368,-22.028"/>
</g>
<!-- Node4 -->
<g id="node4" class="node"><title>Node4</title>
<g id="a_node4"><a xlink:href="classDataFlash__Class.html#a46e58faaa53c44516433f6bb7bde4163" target="_top" xlink:title="DataFlash_Class::Log\l_Write_POS">
<polygon fill="white" stroke="black" points="559,-0.5 559,-30.5 673,-30.5 673,-0.5 559,-0.5"/>
<text text-anchor="start" x="567" y="-18.5" font-family="Helvetica,sans-Serif" font-size="10.00">DataFlash_Class::Log</text>
<text text-anchor="middle" x="616" y="-7.5" font-family="Helvetica,sans-Serif" font-size="10.00">_Write_POS</text>
</a>
</g>
</g>
<!-- Node2&#45;&gt;Node4 -->
<g id="edge5" class="edge"><title>Node2&#45;&gt;Node4</title>
<path fill="none" stroke="midnightblue" d="M379.354,-15.5C437.345,-15.5 509.819,-15.5 558.971,-15.5"/>
<polygon fill="midnightblue" stroke="midnightblue" points="379.073,-12.0001 369.073,-15.5 379.073,-19.0001 379.073,-12.0001"/>
</g>
<!-- Node3&#45;&gt;Node4 -->
<g id="edge3" class="edge"><title>Node3&#45;&gt;Node4</title>
<path fill="none" stroke="midnightblue" d="M533.386,-25.8377C541.941,-24.7541 550.612,-23.6558 558.949,-22.5998"/>
<polygon fill="midnightblue" stroke="midnightblue" points="532.904,-22.3707 523.423,-27.0997 533.784,-29.3152 532.904,-22.3707"/>
</g>
<!-- Node5 -->
<g id="node5" class="node"><title>Node5</title>
<g id="a_node5"><a xlink:href="classDataFlash__Class.html#a7868f0e3dcef65ea5b5fcae618f4c5d4" target="_top" xlink:title="DataFlash_Class::get\l_structures">
<polygon fill="white" stroke="black" points="709,-0.5 709,-30.5 821,-30.5 821,-0.5 709,-0.5"/>
<text text-anchor="start" x="717" y="-18.5" font-family="Helvetica,sans-Serif" font-size="10.00">DataFlash_Class::get</text>
<text text-anchor="middle" x="765" y="-7.5" font-family="Helvetica,sans-Serif" font-size="10.00">_structures</text>
</a>
</g>
</g>
<!-- Node4&#45;&gt;Node5 -->
<g id="edge4" class="edge"><title>Node4&#45;&gt;Node5</title>
<path fill="none" stroke="midnightblue" d="M683.646,-15.5C692.109,-15.5 700.695,-15.5 708.949,-15.5"/>
<polygon fill="midnightblue" stroke="midnightblue" points="683.414,-12.0001 673.414,-15.5 683.414,-19.0001 683.414,-12.0001"/>
</g>
</g>
</svg>
