<?xml version="1.0" encoding="UTF-8" standalone="no"?>
<!DOCTYPE svg PUBLIC "-//W3C//DTD SVG 1.1//EN"
 "http://www.w3.org/Graphics/SVG/1.1/DTD/svg11.dtd">
<!-- Generated by graphviz version 2.38.0 (20140413.2041)
 -->
<!-- Title: NavioLED_I2C Pages: 1 -->
<svg width="91pt" height="196pt"
 viewBox="0.00 0.00 91.00 196.00" xmlns="http://www.w3.org/2000/svg" xmlns:xlink="http://www.w3.org/1999/xlink">
<g id="graph0" class="graph" transform="scale(1 1) rotate(0) translate(4 192)">
<title>NavioLED_I2C</title>
<polygon fill="white" stroke="none" points="-4,4 -4,-192 87,-192 87,4 -4,4"/>
<!-- Node1 -->
<g id="node1" class="node"><title>Node1</title>
<polygon fill="#bfbfbf" stroke="black" points="0,-0.5 0,-19.5 83,-19.5 83,-0.5 0,-0.5"/>
<text text-anchor="middle" x="41.5" y="-7.5" font-family="Helvetica,sans-Serif" font-size="10.00">NavioLED_I2C</text>
</g>
<!-- Node2 -->
<g id="node2" class="node"><title>Node2</title>
<g id="a_node2"><a xlink:href="classNavioLED.html" target="_top" xlink:title="NavioLED">
<polygon fill="white" stroke="black" points="10.5,-56.5 10.5,-75.5 72.5,-75.5 72.5,-56.5 10.5,-56.5"/>
<text text-anchor="middle" x="41.5" y="-63.5" font-family="Helvetica,sans-Serif" font-size="10.00">NavioLED</text>
</a>
</g>
</g>
<!-- Node2&#45;&gt;Node1 -->
<g id="edge1" class="edge"><title>Node2&#45;&gt;Node1</title>
<path fill="none" stroke="midnightblue" d="M41.5,-45.8045C41.5,-36.9102 41.5,-26.7798 41.5,-19.7511"/>
<polygon fill="midnightblue" stroke="midnightblue" points="38.0001,-46.083 41.5,-56.083 45.0001,-46.083 38.0001,-46.083"/>
</g>
<!-- Node3 -->
<g id="node3" class="node"><title>Node3</title>
<g id="a_node3"><a xlink:href="classRGBLed.html" target="_top" xlink:title="RGBLed">
<polygon fill="white" stroke="black" points="14.5,-112.5 14.5,-131.5 68.5,-131.5 68.5,-112.5 14.5,-112.5"/>
<text text-anchor="middle" x="41.5" y="-119.5" font-family="Helvetica,sans-Serif" font-size="10.00">RGBLed</text>
</a>
</g>
</g>
<!-- Node3&#45;&gt;Node2 -->
<g id="edge2" class="edge"><title>Node3&#45;&gt;Node2</title>
<path fill="none" stroke="midnightblue" d="M41.5,-101.805C41.5,-92.9102 41.5,-82.7798 41.5,-75.7511"/>
<polygon fill="midnightblue" stroke="midnightblue" points="38.0001,-102.083 41.5,-112.083 45.0001,-102.083 38.0001,-102.083"/>
</g>
<!-- Node4 -->
<g id="node4" class="node"><title>Node4</title>
<g id="a_node4"><a xlink:href="classNotifyDevice.html" target="_top" xlink:title="NotifyDevice">
<polygon fill="white" stroke="black" points="4.5,-168.5 4.5,-187.5 78.5,-187.5 78.5,-168.5 4.5,-168.5"/>
<text text-anchor="middle" x="41.5" y="-175.5" font-family="Helvetica,sans-Serif" font-size="10.00">NotifyDevice</text>
</a>
</g>
</g>
<!-- Node4&#45;&gt;Node3 -->
<g id="edge3" class="edge"><title>Node4&#45;&gt;Node3</title>
<path fill="none" stroke="midnightblue" d="M41.5,-157.805C41.5,-148.91 41.5,-138.78 41.5,-131.751"/>
<polygon fill="midnightblue" stroke="midnightblue" points="38.0001,-158.083 41.5,-168.083 45.0001,-158.083 38.0001,-158.083"/>
</g>
</g>
</svg>
