<?xml version="1.0" encoding="UTF-8" standalone="no"?>
<!DOCTYPE svg PUBLIC "-//W3C//DTD SVG 1.1//EN"
 "http://www.w3.org/Graphics/SVG/1.1/DTD/svg11.dtd">
<!-- Generated by graphviz version 2.38.0 (20140413.2041)
 -->
<!-- Title: Linux::UARTDriver::from Pages: 1 -->
<!--zoomable 879 -->
<svg id="main" version="1.1" xmlns="http://www.w3.org/2000/svg" xmlns:xlink="http://www.w3.org/1999/xlink" xml:space="preserve" onload="init(evt)">
<style type="text/css"><![CDATA[
.edge:hover path { stroke: red; }
.edge:hover polygon { stroke: red; fill: red; }
]]></style>
<script type="text/javascript"><![CDATA[
var edges = document.getElementsByTagName('g');
if (edges && edges.length) {
  for (var i=0;i<edges.length;i++) {
    if (edges[i].id.substr(0,4)=='edge') {
      edges[i].setAttribute('class','edge');
    }
  }
}
]]></script>
        <defs>
                <circle id="rim" cx="0" cy="0" r="7"/>
                <circle id="rim2" cx="0" cy="0" r="3.5"/>
                <g id="zoomPlus">
                        <use xlink:href="#rim" fill="#404040">
                                <set attributeName="fill" to="#808080" begin="zoomplus.mouseover" end="zoomplus.mouseout"/>
                        </use>
                        <path d="M-4,0h8M0,-4v8" fill="none" stroke="white" stroke-width="1.5" pointer-events="none"/>
                </g>
                <g id="zoomMin">
                        <use xlink:href="#rim" fill="#404040">
                                <set attributeName="fill" to="#808080" begin="zoomminus.mouseover" end="zoomminus.mouseout"/>
                        </use>
                        <path d="M-4,0h8" fill="none" stroke="white" stroke-width="1.5" pointer-events="none"/>
                </g>
                <g id="dirArrow">
                        <path fill="none" stroke="white" stroke-width="1.5" d="M0,-3.0v7 M-2.5,-0.5L0,-3.0L2.5,-0.5"/>
                </g>
               <g id="resetDef">
                       <use xlink:href="#rim2" fill="#404040">
                               <set attributeName="fill" to="#808080" begin="reset.mouseover" end="reset.mouseout"/>
                       </use>
               </g>
        </defs>

<script type="text/javascript">
var viewWidth = 884;
var viewHeight = 879;
var sectionId = 'dynsection-23';
</script>
<script xlink:href="svgpan.js"/>
<svg id="graph" class="graph">
<g id="viewport">
<title>Linux::UARTDriver::from</title>
<polygon fill="white" stroke="none" points="-4,4 -4,-875 880,-875 880,4 -4,4"/>
<!-- Node1 -->
<g id="node1" class="node"><title>Node1</title>
<polygon fill="#bfbfbf" stroke="black" points="0,-289 0,-308 125,-308 125,-289 0,-289"/>
<text text-anchor="middle" x="62.5" y="-296" font-family="Helvetica,sans-Serif" font-size="10.00">Linux::UARTDriver::from</text>
</g>
<!-- Node2 -->
<g id="node2" class="node"><title>Node2</title>
<g id="a_node2"><a xlink:href="classLinux_1_1UARTDriver.html#aaa27a8026de1d38da1a5ae5c1f1b42d5" target="_top" xlink:title="Linux::UARTDriver::\lbegin">
<polygon fill="white" stroke="black" points="170.5,-785.5 170.5,-815.5 276.5,-815.5 276.5,-785.5 170.5,-785.5"/>
<text text-anchor="start" x="178.5" y="-803.5" font-family="Helvetica,sans-Serif" font-size="10.00">Linux::UARTDriver::</text>
<text text-anchor="middle" x="223.5" y="-792.5" font-family="Helvetica,sans-Serif" font-size="10.00">begin</text>
</a>
</g>
</g>
<!-- Node1&#45;&gt;Node2 -->
<g id="edge1" class="edge"><title>Node1&#45;&gt;Node2</title>
<path fill="none" stroke="midnightblue" d="M64.3403,-308.146C69.7614,-368.478 101.464,-693.841 161,-770.5 163.623,-773.878 166.725,-776.899 170.118,-779.596"/>
<polygon fill="midnightblue" stroke="midnightblue" points="168.25,-782.559 178.479,-785.321 172.205,-776.783 168.25,-782.559"/>
</g>
<!-- Node3 -->
<g id="node3" class="node"><title>Node3</title>
<g id="a_node3"><a xlink:href="classLinux_1_1UARTDriver.html#ae231160b2d30abfbd04804430c7fb23b" target="_top" xlink:title="Linux::UARTDriver::end">
<polygon fill="white" stroke="black" points="162.5,-709 162.5,-728 284.5,-728 284.5,-709 162.5,-709"/>
<text text-anchor="middle" x="223.5" y="-716" font-family="Helvetica,sans-Serif" font-size="10.00">Linux::UARTDriver::end</text>
</a>
</g>
</g>
<!-- Node1&#45;&gt;Node3 -->
<g id="edge2" class="edge"><title>Node1&#45;&gt;Node3</title>
<path fill="none" stroke="midnightblue" d="M63.4308,-308.178C63.5739,-354.462 69.6184,-556.115 161,-680.5 168.242,-690.357 178.882,-698.216 189.284,-704.17"/>
<polygon fill="midnightblue" stroke="midnightblue" points="187.795,-707.342 198.273,-708.914 191.063,-701.151 187.795,-707.342"/>
</g>
<!-- Node8 -->
<g id="node8" class="node"><title>Node8</title>
<g id="a_node8"><a xlink:href="classLinux_1_1UARTDriver.html#a7e1b362fab75564e5c840af6be95a2a6" target="_top" xlink:title="Linux::UARTDriver::\lflush">
<polygon fill="white" stroke="black" points="170.5,-147.5 170.5,-177.5 276.5,-177.5 276.5,-147.5 170.5,-147.5"/>
<text text-anchor="start" x="178.5" y="-165.5" font-family="Helvetica,sans-Serif" font-size="10.00">Linux::UARTDriver::</text>
<text text-anchor="middle" x="223.5" y="-154.5" font-family="Helvetica,sans-Serif" font-size="10.00">flush</text>
</a>
</g>
</g>
<!-- Node1&#45;&gt;Node8 -->
<g id="edge7" class="edge"><title>Node1&#45;&gt;Node8</title>
<path fill="none" stroke="midnightblue" d="M70.3559,-288.895C85.058,-268.839 121.505,-221.936 161,-192.5 165.821,-188.907 171.139,-185.562 176.569,-182.508"/>
<polygon fill="midnightblue" stroke="midnightblue" points="178.547,-185.422 185.747,-177.649 175.271,-179.235 178.547,-185.422"/>
</g>
<!-- Node9 -->
<g id="node9" class="node"><title>Node9</title>
<g id="a_node9"><a xlink:href="classLinux_1_1UARTDriver.html#a521603c616e1fe6ee0e1315c78fee504" target="_top" xlink:title="Linux::UARTDriver::\lis_initialized">
<polygon fill="white" stroke="black" points="170.5,-98.5 170.5,-128.5 276.5,-128.5 276.5,-98.5 170.5,-98.5"/>
<text text-anchor="start" x="178.5" y="-116.5" font-family="Helvetica,sans-Serif" font-size="10.00">Linux::UARTDriver::</text>
<text text-anchor="middle" x="223.5" y="-105.5" font-family="Helvetica,sans-Serif" font-size="10.00">is_initialized</text>
</a>
</g>
</g>
<!-- Node1&#45;&gt;Node9 -->
<g id="edge8" class="edge"><title>Node1&#45;&gt;Node9</title>
<path fill="none" stroke="midnightblue" d="M66.8668,-288.657C76.8209,-260.949 108.728,-181.454 161,-137.5 162.513,-136.228 164.102,-135.018 165.749,-133.868"/>
<polygon fill="midnightblue" stroke="midnightblue" points="167.67,-136.795 174.389,-128.604 164.028,-130.817 167.67,-136.795"/>
</g>
<!-- Node10 -->
<g id="node10" class="node"><title>Node10</title>
<g id="a_node10"><a xlink:href="classLinux_1_1UARTDriver.html#ade90ec35e50d1702fa5e0be3fbd225c0" target="_top" xlink:title="Linux::UARTDriver::\lset_blocking_writes">
<polygon fill="white" stroke="black" points="170.5,-49.5 170.5,-79.5 276.5,-79.5 276.5,-49.5 170.5,-49.5"/>
<text text-anchor="start" x="178.5" y="-67.5" font-family="Helvetica,sans-Serif" font-size="10.00">Linux::UARTDriver::</text>
<text text-anchor="middle" x="223.5" y="-56.5" font-family="Helvetica,sans-Serif" font-size="10.00">set_blocking_writes</text>
</a>
</g>
</g>
<!-- Node1&#45;&gt;Node10 -->
<g id="edge9" class="edge"><title>Node1&#45;&gt;Node10</title>
<path fill="none" stroke="midnightblue" d="M65.3543,-288.619C72.0525,-255.573 98.0079,-147.667 161,-88.5 162.264,-87.3132 163.592,-86.1828 164.975,-85.1064"/>
<polygon fill="midnightblue" stroke="midnightblue" points="166.998,-87.9642 173.388,-79.5135 163.123,-82.1347 166.998,-87.9642"/>
</g>
<!-- Node11 -->
<g id="node11" class="node"><title>Node11</title>
<g id="a_node11"><a xlink:href="classLinux_1_1UARTDriver.html#a98741b9728bcb9c4c6018383d287b2c4" target="_top" xlink:title="Linux::UARTDriver::\ltx_pending">
<polygon fill="white" stroke="black" points="623.5,-174.5 623.5,-204.5 729.5,-204.5 729.5,-174.5 623.5,-174.5"/>
<text text-anchor="start" x="631.5" y="-192.5" font-family="Helvetica,sans-Serif" font-size="10.00">Linux::UARTDriver::</text>
<text text-anchor="middle" x="676.5" y="-181.5" font-family="Helvetica,sans-Serif" font-size="10.00">tx_pending</text>
</a>
</g>
</g>
<!-- Node1&#45;&gt;Node11 -->
<g id="edge10" class="edge"><title>Node1&#45;&gt;Node11</title>
<path fill="none" stroke="midnightblue" d="M84.7376,-288.856C104.194,-280.405 133.991,-268.421 161,-261.5 321.118,-220.467 515.657,-201.285 613.278,-193.697"/>
<polygon fill="midnightblue" stroke="midnightblue" points="613.567,-197.185 623.272,-192.934 613.035,-190.205 613.567,-197.185"/>
</g>
<!-- Node13 -->
<g id="node13" class="node"><title>Node13</title>
<g id="a_node13"><a xlink:href="classLinux_1_1UARTDriver.html#a160c3d91ce72b5d353106235af5395d0" target="_top" xlink:title="Linux::UARTDriver::\lavailable">
<polygon fill="white" stroke="black" points="623.5,-223.5 623.5,-253.5 729.5,-253.5 729.5,-223.5 623.5,-223.5"/>
<text text-anchor="start" x="631.5" y="-241.5" font-family="Helvetica,sans-Serif" font-size="10.00">Linux::UARTDriver::</text>
<text text-anchor="middle" x="676.5" y="-230.5" font-family="Helvetica,sans-Serif" font-size="10.00">available</text>
</a>
</g>
</g>
<!-- Node1&#45;&gt;Node13 -->
<g id="edge12" class="edge"><title>Node1&#45;&gt;Node13</title>
<path fill="none" stroke="midnightblue" d="M107.007,-288.931C123.807,-285.523 143.23,-281.932 161,-279.5 323.321,-257.289 516.224,-245.891 613.226,-241.19"/>
<polygon fill="midnightblue" stroke="midnightblue" points="613.619,-244.675 623.441,-240.702 613.286,-237.683 613.619,-244.675"/>
</g>
<!-- Node14 -->
<g id="node14" class="node"><title>Node14</title>
<g id="a_node14"><a xlink:href="classLinux_1_1UARTDriver.html#a79b346ccb9ef5581a13d113364883250" target="_top" xlink:title="Linux::UARTDriver::\ltxspace">
<polygon fill="white" stroke="black" points="325,-840.5 325,-870.5 431,-870.5 431,-840.5 325,-840.5"/>
<text text-anchor="start" x="333" y="-858.5" font-family="Helvetica,sans-Serif" font-size="10.00">Linux::UARTDriver::</text>
<text text-anchor="middle" x="378" y="-847.5" font-family="Helvetica,sans-Serif" font-size="10.00">txspace</text>
</a>
</g>
</g>
<!-- Node1&#45;&gt;Node14 -->
<g id="edge14" class="edge"><title>Node1&#45;&gt;Node14</title>
<path fill="none" stroke="midnightblue" d="M64.3617,-308.343C69.6927,-367.091 99.9672,-671.12 161,-737.5 200.39,-780.341 239.412,-741.623 286,-776.5 309.091,-793.786 300.026,-811.814 322,-830.5 323.923,-832.135 325.97,-833.683 328.101,-835.147"/>
<polygon fill="midnightblue" stroke="midnightblue" points="326.296,-838.146 336.653,-840.377 329.948,-832.174 326.296,-838.146"/>
</g>
<!-- Node16 -->
<g id="node16" class="node"><title>Node16</title>
<g id="a_node16"><a xlink:href="classLinux_1_1UARTDriver.html#a5f1033efb64a9e2f3c1a3010bb67f4c8" target="_top" xlink:title="Linux::UARTDriver::read">
<polygon fill="white" stroke="black" points="161,-289 161,-308 286,-308 286,-289 161,-289"/>
<text text-anchor="middle" x="223.5" y="-296" font-family="Helvetica,sans-Serif" font-size="10.00">Linux::UARTDriver::read</text>
</a>
</g>
</g>
<!-- Node1&#45;&gt;Node16 -->
<g id="edge16" class="edge"><title>Node1&#45;&gt;Node16</title>
<path fill="none" stroke="midnightblue" d="M125.429,-298.5C133.674,-298.5 142.184,-298.5 150.58,-298.5"/>
<polygon fill="midnightblue" stroke="midnightblue" points="150.74,-302 160.74,-298.5 150.74,-295 150.74,-302"/>
</g>
<!-- Node20 -->
<g id="node20" class="node"><title>Node20</title>
<g id="a_node20"><a xlink:href="classLinux_1_1UARTDriver.html#add3c72133b45ed4006a9bdaaf5fde677" target="_top" xlink:title="Linux::UARTDriver::\lwrite">
<polygon fill="white" stroke="black" points="170.5,-640.5 170.5,-670.5 276.5,-670.5 276.5,-640.5 170.5,-640.5"/>
<text text-anchor="start" x="178.5" y="-658.5" font-family="Helvetica,sans-Serif" font-size="10.00">Linux::UARTDriver::</text>
<text text-anchor="middle" x="223.5" y="-647.5" font-family="Helvetica,sans-Serif" font-size="10.00">write</text>
</a>
</g>
</g>
<!-- Node1&#45;&gt;Node20 -->
<g id="edge22" class="edge"><title>Node1&#45;&gt;Node20</title>
<path fill="none" stroke="midnightblue" d="M67.7449,-308.208C81.2649,-339.109 124.57,-437.943 161,-519.5 178.507,-558.694 199.109,-604.111 211.469,-631.286"/>
<polygon fill="midnightblue" stroke="midnightblue" points="208.301,-632.775 215.629,-640.427 214.673,-629.875 208.301,-632.775"/>
</g>
<!-- Node24 -->
<g id="node24" class="node"><title>Node24</title>
<g id="a_node24"><a xlink:href="classLinux_1_1UARTDriver.html#a194a4120b097bcaf81bb0c348cdf9047" target="_top" xlink:title="Linux::UARTDriver::\lset_device_path">
<polygon fill="white" stroke="black" points="170.5,-0.5 170.5,-30.5 276.5,-30.5 276.5,-0.5 170.5,-0.5"/>
<text text-anchor="start" x="178.5" y="-18.5" font-family="Helvetica,sans-Serif" font-size="10.00">Linux::UARTDriver::</text>
<text text-anchor="middle" x="223.5" y="-7.5" font-family="Helvetica,sans-Serif" font-size="10.00">set_device_path</text>
</a>
</g>
</g>
<!-- Node1&#45;&gt;Node24 -->
<g id="edge30" class="edge"><title>Node1&#45;&gt;Node24</title>
<path fill="none" stroke="midnightblue" d="M64.3605,-288.781C68.1843,-251.302 86.8779,-114.519 161,-39.5 162.057,-38.4299 163.168,-37.4065 164.323,-36.4277"/>
<polygon fill="midnightblue" stroke="midnightblue" points="166.399,-39.2464 172.516,-30.5955 162.339,-33.5439 166.399,-39.2464"/>
</g>
<!-- Node25 -->
<g id="node25" class="node"><title>Node25</title>
<g id="a_node25"><a xlink:href="classLinux_1_1UARTDriver.html#a9d1e3a24e3ad028cad337132cf3a3f7f" target="_top" xlink:title="Linux::UARTDriver::\l_write_pending_bytes">
<polygon fill="white" stroke="black" points="322.5,-362.5 322.5,-392.5 433.5,-392.5 433.5,-362.5 322.5,-362.5"/>
<text text-anchor="start" x="330.5" y="-380.5" font-family="Helvetica,sans-Serif" font-size="10.00">Linux::UARTDriver::</text>
<text text-anchor="middle" x="378" y="-369.5" font-family="Helvetica,sans-Serif" font-size="10.00">_write_pending_bytes</text>
</a>
</g>
</g>
<!-- Node1&#45;&gt;Node25 -->
<g id="edge31" class="edge"><title>Node1&#45;&gt;Node25</title>
<path fill="none" stroke="midnightblue" d="M101.315,-308.029C153.642,-321.215 248.866,-345.211 312.538,-361.256"/>
<polygon fill="midnightblue" stroke="midnightblue" points="311.922,-364.71 322.474,-363.76 313.633,-357.922 311.922,-364.71"/>
</g>
<!-- Node32 -->
<g id="node32" class="node"><title>Node32</title>
<g id="a_node32"><a xlink:href="classLinux_1_1UARTDriver.html#a0518ce1498288dc92caf6bec9ed99b1b" target="_top" xlink:title="Linux::UARTDriver::\l_timer_tick">
<polygon fill="white" stroke="black" points="170.5,-479.5 170.5,-509.5 276.5,-509.5 276.5,-479.5 170.5,-479.5"/>
<text text-anchor="start" x="178.5" y="-497.5" font-family="Helvetica,sans-Serif" font-size="10.00">Linux::UARTDriver::</text>
<text text-anchor="middle" x="223.5" y="-486.5" font-family="Helvetica,sans-Serif" font-size="10.00">_timer_tick</text>
</a>
</g>
</g>
<!-- Node1&#45;&gt;Node32 -->
<g id="edge43" class="edge"><title>Node1&#45;&gt;Node32</title>
<path fill="none" stroke="midnightblue" d="M71.3848,-308.22C95.5293,-337.983 168.918,-428.449 203.757,-471.396"/>
<polygon fill="midnightblue" stroke="midnightblue" points="201.167,-473.759 210.185,-479.32 206.603,-469.349 201.167,-473.759"/>
</g>
<!-- Node4 -->
<g id="node4" class="node"><title>Node4</title>
<g id="a_node4"><a xlink:href="classAP__HAL_1_1Scheduler.html#ab3175e2e6223ccfe82f957e41cc12b26" target="_top" xlink:title="AP_HAL::Scheduler::\ldelay">
<polygon fill="white" stroke="black" points="323,-703.5 323,-733.5 433,-733.5 433,-703.5 323,-703.5"/>
<text text-anchor="start" x="331" y="-721.5" font-family="Helvetica,sans-Serif" font-size="10.00">AP_HAL::Scheduler::</text>
<text text-anchor="middle" x="378" y="-710.5" font-family="Helvetica,sans-Serif" font-size="10.00">delay</text>
</a>
</g>
</g>
<!-- Node3&#45;&gt;Node4 -->
<g id="edge3" class="edge"><title>Node3&#45;&gt;Node4</title>
<path fill="none" stroke="midnightblue" d="M284.772,-718.5C293.845,-718.5 303.235,-718.5 312.395,-718.5"/>
<polygon fill="midnightblue" stroke="midnightblue" points="312.61,-722 322.61,-718.5 312.61,-715 312.61,-722"/>
</g>
<!-- Node5 -->
<g id="node5" class="node"><title>Node5</title>
<g id="a_node5"><a xlink:href="classSerialDevice.html#a93d69b452e5db251aa5baf050ffbe4fa" target="_top" xlink:title="SerialDevice::close">
<polygon fill="white" stroke="black" points="327.5,-802 327.5,-821 428.5,-821 428.5,-802 327.5,-802"/>
<text text-anchor="middle" x="378" y="-809" font-family="Helvetica,sans-Serif" font-size="10.00">SerialDevice::close</text>
</a>
</g>
</g>
<!-- Node3&#45;&gt;Node5 -->
<g id="edge4" class="edge"><title>Node3&#45;&gt;Node5</title>
<path fill="none" stroke="midnightblue" d="M259.216,-728.081C268.492,-731.662 278.119,-736.391 286,-742.5 307.642,-759.276 300.031,-776.154 322,-792.5 324.513,-794.369 327.223,-796.065 330.047,-797.601"/>
<polygon fill="midnightblue" stroke="midnightblue" points="328.809,-800.887 339.347,-801.982 331.792,-794.554 328.809,-800.887"/>
</g>
<!-- Node6 -->
<g id="node6" class="node"><title>Node6</title>
<g id="a_node6"><a xlink:href="classLinux_1_1UARTDriver.html#a03789406dd3795284c7a645121314e99" target="_top" xlink:title="Linux::UARTDriver::\l_deallocate_buffers">
<polygon fill="white" stroke="black" points="325,-752.5 325,-782.5 431,-782.5 431,-752.5 325,-752.5"/>
<text text-anchor="start" x="333" y="-770.5" font-family="Helvetica,sans-Serif" font-size="10.00">Linux::UARTDriver::</text>
<text text-anchor="middle" x="378" y="-759.5" font-family="Helvetica,sans-Serif" font-size="10.00">_deallocate_buffers</text>
</a>
</g>
</g>
<!-- Node3&#45;&gt;Node6 -->
<g id="edge5" class="edge"><title>Node3&#45;&gt;Node6</title>
<path fill="none" stroke="midnightblue" d="M254.266,-728.064C273.067,-734.105 297.965,-742.105 320.42,-749.32"/>
<polygon fill="midnightblue" stroke="midnightblue" points="319.61,-752.736 330.201,-752.463 321.751,-746.072 319.61,-752.736"/>
</g>
<!-- Node7 -->
<g id="node7" class="node"><title>Node7</title>
<g id="a_node7"><a xlink:href="classByteBuffer.html#a4279e626cb21779cc92f7cf63b9cb3f7" target="_top" xlink:title="ByteBuffer::set_size">
<polygon fill="white" stroke="black" points="474,-758 474,-777 580,-777 580,-758 474,-758"/>
<text text-anchor="middle" x="527" y="-765" font-family="Helvetica,sans-Serif" font-size="10.00">ByteBuffer::set_size</text>
</a>
</g>
</g>
<!-- Node6&#45;&gt;Node7 -->
<g id="edge6" class="edge"><title>Node6&#45;&gt;Node7</title>
<path fill="none" stroke="midnightblue" d="M431.241,-767.5C441.747,-767.5 452.887,-767.5 463.697,-767.5"/>
<polygon fill="midnightblue" stroke="midnightblue" points="463.928,-771 473.928,-767.5 463.928,-764 463.928,-771"/>
</g>
<!-- Node12 -->
<g id="node12" class="node"><title>Node12</title>
<g id="a_node12"><a xlink:href="classByteBuffer.html#aacbc04305e267a33a431f8736f8d0d5d" target="_top" xlink:title="ByteBuffer::available">
<polygon fill="white" stroke="black" points="769,-292 769,-311 876,-311 876,-292 769,-292"/>
<text text-anchor="middle" x="822.5" y="-299" font-family="Helvetica,sans-Serif" font-size="10.00">ByteBuffer::available</text>
</a>
</g>
</g>
<!-- Node11&#45;&gt;Node12 -->
<g id="edge11" class="edge"><title>Node11&#45;&gt;Node12</title>
<path fill="none" stroke="midnightblue" d="M717.282,-204.52C722.739,-207.2 728.133,-210.203 733,-213.5 762.848,-233.717 791.28,-264.826 807.529,-284.129"/>
<polygon fill="midnightblue" stroke="midnightblue" points="804.84,-286.37 813.908,-291.85 810.237,-281.911 804.84,-286.37"/>
</g>
<!-- Node13&#45;&gt;Node12 -->
<g id="edge13" class="edge"><title>Node13&#45;&gt;Node12</title>
<path fill="none" stroke="midnightblue" d="M711.992,-253.59C735.726,-263.974 767.005,-277.658 790.054,-287.743"/>
<polygon fill="midnightblue" stroke="midnightblue" points="788.819,-291.022 799.383,-291.824 791.624,-284.609 788.819,-291.022"/>
</g>
<!-- Node15 -->
<g id="node15" class="node"><title>Node15</title>
<g id="a_node15"><a xlink:href="classByteBuffer.html#a3b74f00bbdcb833f98ed59facfa41478" target="_top" xlink:title="ByteBuffer::space">
<polygon fill="white" stroke="black" points="629,-627 629,-646 724,-646 724,-627 629,-627"/>
<text text-anchor="middle" x="676.5" y="-634" font-family="Helvetica,sans-Serif" font-size="10.00">ByteBuffer::space</text>
</a>
</g>
</g>
<!-- Node14&#45;&gt;Node15 -->
<g id="edge15" class="edge"><title>Node14&#45;&gt;Node15</title>
<path fill="none" stroke="midnightblue" d="M431.367,-848.141C475.91,-839.649 539.544,-822.001 584,-786.5 628.545,-750.928 656.814,-687.359 668.832,-655.623"/>
<polygon fill="midnightblue" stroke="midnightblue" points="672.143,-656.761 672.285,-646.167 665.567,-654.36 672.143,-656.761"/>
</g>
<!-- Node17 -->
<g id="node17" class="node"><title>Node17</title>
<g id="a_node17"><a xlink:href="classByteBuffer.html#a4321015e241fb3326d190b7ee6e4faea" target="_top" xlink:title="ByteBuffer::read_byte">
<polygon fill="white" stroke="black" points="322,-289 322,-308 434,-308 434,-289 322,-289"/>
<text text-anchor="middle" x="378" y="-296" font-family="Helvetica,sans-Serif" font-size="10.00">ByteBuffer::read_byte</text>
</a>
</g>
</g>
<!-- Node16&#45;&gt;Node17 -->
<g id="edge17" class="edge"><title>Node16&#45;&gt;Node17</title>
<path fill="none" stroke="midnightblue" d="M286.088,-298.5C294.433,-298.5 303.022,-298.5 311.434,-298.5"/>
<polygon fill="midnightblue" stroke="midnightblue" points="311.578,-302 321.578,-298.5 311.578,-295 311.578,-302"/>
</g>
<!-- Node18 -->
<g id="node18" class="node"><title>Node18</title>
<g id="a_node18"><a xlink:href="classByteBuffer.html#afe100bddde679bb1130338073ec5a9a9" target="_top" xlink:title="ByteBuffer::peek">
<polygon fill="white" stroke="black" points="482,-273 482,-292 572,-292 572,-273 482,-273"/>
<text text-anchor="middle" x="527" y="-280" font-family="Helvetica,sans-Serif" font-size="10.00">ByteBuffer::peek</text>
</a>
</g>
</g>
<!-- Node17&#45;&gt;Node18 -->
<g id="edge18" class="edge"><title>Node17&#45;&gt;Node18</title>
<path fill="none" stroke="midnightblue" d="M434.156,-292.497C446.376,-291.167 459.319,-289.758 471.512,-288.431"/>
<polygon fill="midnightblue" stroke="midnightblue" points="471.984,-291.9 481.546,-287.339 471.226,-284.941 471.984,-291.9"/>
</g>
<!-- Node19 -->
<g id="node19" class="node"><title>Node19</title>
<g id="a_node19"><a xlink:href="classByteBuffer.html#a876a74665a4f4358cf2a57941543d0d6" target="_top" xlink:title="ByteBuffer::advance">
<polygon fill="white" stroke="black" points="474,-311 474,-330 580,-330 580,-311 474,-311"/>
<text text-anchor="middle" x="527" y="-318" font-family="Helvetica,sans-Serif" font-size="10.00">ByteBuffer::advance</text>
</a>
</g>
</g>
<!-- Node17&#45;&gt;Node19 -->
<g id="edge20" class="edge"><title>Node17&#45;&gt;Node19</title>
<path fill="none" stroke="midnightblue" d="M434.156,-306.755C443.83,-308.202 453.957,-309.718 463.807,-311.192"/>
<polygon fill="midnightblue" stroke="midnightblue" points="463.533,-314.69 473.941,-312.709 464.569,-307.767 463.533,-314.69"/>
</g>
<!-- Node18&#45;&gt;Node12 -->
<g id="edge19" class="edge"><title>Node18&#45;&gt;Node12</title>
<path fill="none" stroke="midnightblue" d="M572.258,-285.365C621.857,-288.576 702.655,-293.806 758.756,-297.438"/>
<polygon fill="midnightblue" stroke="midnightblue" points="758.726,-300.943 768.931,-298.097 759.178,-293.958 758.726,-300.943"/>
</g>
<!-- Node19&#45;&gt;Node12 -->
<g id="edge21" class="edge"><title>Node19&#45;&gt;Node12</title>
<path fill="none" stroke="midnightblue" d="M580.134,-317.125C630.119,-313.889 705.635,-309.001 758.863,-305.555"/>
<polygon fill="midnightblue" stroke="midnightblue" points="759.11,-309.046 768.863,-304.907 758.658,-302.061 759.11,-309.046"/>
</g>
<!-- Node20&#45;&gt;Node4 -->
<g id="edge24" class="edge"><title>Node20&#45;&gt;Node4</title>
<path fill="none" stroke="midnightblue" d="M261.028,-670.59C282.076,-679.286 308.728,-690.296 331.173,-699.568"/>
<polygon fill="midnightblue" stroke="midnightblue" points="329.928,-702.841 340.507,-703.424 332.601,-696.371 329.928,-702.841"/>
</g>
<!-- Node20&#45;&gt;Node15 -->
<g id="edge23" class="edge"><title>Node20&#45;&gt;Node15</title>
<path fill="none" stroke="midnightblue" d="M276.764,-658.836C346.884,-662.552 475.194,-666.678 584,-655.5 598.546,-654.006 614.19,-651.209 628.357,-648.211"/>
<polygon fill="midnightblue" stroke="midnightblue" points="629.359,-651.575 638.375,-646.009 627.856,-644.738 629.359,-651.575"/>
</g>
<!-- Node21 -->
<g id="node21" class="node"><title>Node21</title>
<g id="a_node21"><a xlink:href="classByteBuffer.html#ac57883bb2bce8263d26221a250f452dc" target="_top" xlink:title="ByteBuffer::write">
<polygon fill="white" stroke="black" points="333,-627 333,-646 423,-646 423,-627 333,-627"/>
<text text-anchor="middle" x="378" y="-634" font-family="Helvetica,sans-Serif" font-size="10.00">ByteBuffer::write</text>
</a>
</g>
</g>
<!-- Node20&#45;&gt;Node21 -->
<g id="edge25" class="edge"><title>Node20&#45;&gt;Node21</title>
<path fill="none" stroke="midnightblue" d="M276.555,-649.014C291.418,-647.163 307.649,-645.14 322.645,-643.272"/>
<polygon fill="midnightblue" stroke="midnightblue" points="323.307,-646.717 332.798,-642.007 322.442,-639.77 323.307,-646.717"/>
</g>
<!-- Node22 -->
<g id="node22" class="node"><title>Node22</title>
<g id="a_node22"><a xlink:href="classByteBuffer.html#ad5f9e7af638987efeadb7b4bb9c0ae28" target="_top" xlink:title="ByteBuffer::reserve">
<polygon fill="white" stroke="black" points="476.5,-627 476.5,-646 577.5,-646 577.5,-627 476.5,-627"/>
<text text-anchor="middle" x="527" y="-634" font-family="Helvetica,sans-Serif" font-size="10.00">ByteBuffer::reserve</text>
</a>
</g>
</g>
<!-- Node21&#45;&gt;Node22 -->
<g id="edge26" class="edge"><title>Node21&#45;&gt;Node22</title>
<path fill="none" stroke="midnightblue" d="M423.105,-636.5C436.579,-636.5 451.632,-636.5 465.975,-636.5"/>
<polygon fill="midnightblue" stroke="midnightblue" points="466.261,-640 476.261,-636.5 466.261,-633 466.261,-640"/>
</g>
<!-- Node23 -->
<g id="node23" class="node"><title>Node23</title>
<g id="a_node23"><a xlink:href="classByteBuffer.html#a866914509694b8f71af1280ad2eba222" target="_top" xlink:title="ByteBuffer::commit">
<polygon fill="white" stroke="black" points="476.5,-589 476.5,-608 577.5,-608 577.5,-589 476.5,-589"/>
<text text-anchor="middle" x="527" y="-596" font-family="Helvetica,sans-Serif" font-size="10.00">ByteBuffer::commit</text>
</a>
</g>
</g>
<!-- Node21&#45;&gt;Node23 -->
<g id="edge28" class="edge"><title>Node21&#45;&gt;Node23</title>
<path fill="none" stroke="midnightblue" d="M416.094,-626.911C435.318,-621.942 458.986,-615.823 479.429,-610.539"/>
<polygon fill="midnightblue" stroke="midnightblue" points="480.367,-613.912 489.172,-608.02 478.615,-607.134 480.367,-613.912"/>
</g>
<!-- Node22&#45;&gt;Node15 -->
<g id="edge27" class="edge"><title>Node22&#45;&gt;Node15</title>
<path fill="none" stroke="midnightblue" d="M577.526,-636.5C590.731,-636.5 605.101,-636.5 618.665,-636.5"/>
<polygon fill="midnightblue" stroke="midnightblue" points="618.848,-640 628.847,-636.5 618.847,-633 618.848,-640"/>
</g>
<!-- Node23&#45;&gt;Node15 -->
<g id="edge29" class="edge"><title>Node23&#45;&gt;Node15</title>
<path fill="none" stroke="midnightblue" d="M565.22,-608.089C584.509,-613.058 608.258,-619.177 628.771,-624.461"/>
<polygon fill="midnightblue" stroke="midnightblue" points="627.99,-627.874 638.547,-626.98 629.737,-621.096 627.99,-627.874"/>
</g>
<!-- Node25&#45;&gt;Node12 -->
<g id="edge32" class="edge"><title>Node25&#45;&gt;Node12</title>
<path fill="none" stroke="midnightblue" d="M433.631,-371.521C503.476,-363.409 627.946,-347.38 733,-325.5 748.449,-322.283 765.203,-317.958 779.934,-313.867"/>
<polygon fill="midnightblue" stroke="midnightblue" points="781.098,-317.175 789.77,-311.088 779.195,-310.439 781.098,-317.175"/>
</g>
<!-- Node25&#45;&gt;Node18 -->
<g id="edge33" class="edge"><title>Node25&#45;&gt;Node18</title>
<path fill="none" stroke="midnightblue" d="M393.479,-362.43C410.432,-345.54 440.024,-318.325 470,-301.5 473.727,-299.408 477.722,-297.495 481.8,-295.756"/>
<polygon fill="midnightblue" stroke="midnightblue" points="483.336,-298.914 491.378,-292.017 480.79,-292.393 483.336,-298.914"/>
</g>
<!-- Node25&#45;&gt;Node19 -->
<g id="edge41" class="edge"><title>Node25&#45;&gt;Node19</title>
<path fill="none" stroke="midnightblue" d="M418.007,-362.375C440.873,-353.508 469.499,-342.409 491.533,-333.865"/>
<polygon fill="midnightblue" stroke="midnightblue" points="493.09,-337.015 501.148,-330.137 490.559,-330.489 493.09,-337.015"/>
</g>
<!-- Node26 -->
<g id="node26" class="node"><title>Node26</title>
<g id="a_node26"><a xlink:href="classByteBuffer.html#af34d398a28a23bf19cad598487eeb54d" target="_top" xlink:title="ByteBuffer::peekbytes">
<polygon fill="white" stroke="black" points="470,-387 470,-406 584,-406 584,-387 470,-387"/>
<text text-anchor="middle" x="527" y="-394" font-family="Helvetica,sans-Serif" font-size="10.00">ByteBuffer::peekbytes</text>
</a>
</g>
</g>
<!-- Node25&#45;&gt;Node26 -->
<g id="edge34" class="edge"><title>Node25&#45;&gt;Node26</title>
<path fill="none" stroke="midnightblue" d="M433.737,-384.575C442.186,-385.667 450.989,-386.805 459.658,-387.925"/>
<polygon fill="midnightblue" stroke="midnightblue" points="459.378,-391.418 469.744,-389.229 460.275,-384.476 459.378,-391.418"/>
</g>
<!-- Node27 -->
<g id="node27" class="node"><title>Node27</title>
<g id="a_node27"><a xlink:href="classByteBuffer.html#a413289b6d4cc7f9550b9c75dc7e886d5" target="_top" xlink:title="ByteBuffer::peekiovec">
<polygon fill="white" stroke="black" points="620,-387 620,-406 733,-406 733,-387 620,-387"/>
<text text-anchor="middle" x="676.5" y="-394" font-family="Helvetica,sans-Serif" font-size="10.00">ByteBuffer::peekiovec</text>
</a>
</g>
</g>
<!-- Node25&#45;&gt;Node27 -->
<g id="edge42" class="edge"><title>Node25&#45;&gt;Node27</title>
<path fill="none" stroke="midnightblue" d="M407.172,-392.68C424.696,-401.246 448.009,-411.093 470,-415.5 524.199,-426.362 587.708,-417.231 629.62,-408.26"/>
<polygon fill="midnightblue" stroke="midnightblue" points="630.528,-411.644 639.53,-406.056 629.008,-404.811 630.528,-411.644"/>
</g>
<!-- Node29 -->
<g id="node29" class="node"><title>Node29</title>
<g id="a_node29"><a xlink:href="classLinux_1_1UARTDriver.html#a6c5b8c25e9154e44794622411eda0bd4" target="_top" xlink:title="Linux::UARTDriver::\l_write_fd">
<polygon fill="white" stroke="black" points="474,-463.5 474,-493.5 580,-493.5 580,-463.5 474,-463.5"/>
<text text-anchor="start" x="482" y="-481.5" font-family="Helvetica,sans-Serif" font-size="10.00">Linux::UARTDriver::</text>
<text text-anchor="middle" x="527" y="-470.5" font-family="Helvetica,sans-Serif" font-size="10.00">_write_fd</text>
</a>
</g>
</g>
<!-- Node25&#45;&gt;Node29 -->
<g id="edge38" class="edge"><title>Node25&#45;&gt;Node29</title>
<path fill="none" stroke="midnightblue" d="M396.458,-392.584C414.303,-407.644 443.133,-431.005 470,-448.5 475.277,-451.936 480.986,-455.332 486.671,-458.534"/>
<polygon fill="midnightblue" stroke="midnightblue" points="485.069,-461.647 495.52,-463.385 488.434,-455.509 485.069,-461.647"/>
</g>
<!-- Node26&#45;&gt;Node27 -->
<g id="edge35" class="edge"><title>Node26&#45;&gt;Node27</title>
<path fill="none" stroke="midnightblue" d="M584.184,-396.5C592.519,-396.5 601.171,-396.5 609.681,-396.5"/>
<polygon fill="midnightblue" stroke="midnightblue" points="609.96,-400 619.96,-396.5 609.96,-393 609.96,-400"/>
</g>
<!-- Node27&#45;&gt;Node12 -->
<g id="edge36" class="edge"><title>Node27&#45;&gt;Node12</title>
<path fill="none" stroke="midnightblue" d="M703.631,-386.892C713.154,-382.957 723.828,-378.025 733,-372.5 759.391,-356.604 786.569,-333.629 803.721,-318.159"/>
<polygon fill="midnightblue" stroke="midnightblue" points="806.276,-320.565 811.289,-311.231 801.549,-315.402 806.276,-320.565"/>
</g>
<!-- Node28 -->
<g id="node28" class="node"><title>Node28</title>
<g id="a_node28"><a xlink:href="classByteBuffer.html#ac8877785d9931ae293a216b46951b4a1" target="_top" xlink:title="ByteBuffer::readptr">
<polygon fill="white" stroke="black" points="773,-387 773,-406 872,-406 872,-387 773,-387"/>
<text text-anchor="middle" x="822.5" y="-394" font-family="Helvetica,sans-Serif" font-size="10.00">ByteBuffer::readptr</text>
</a>
</g>
</g>
<!-- Node27&#45;&gt;Node28 -->
<g id="edge37" class="edge"><title>Node27&#45;&gt;Node28</title>
<path fill="none" stroke="midnightblue" d="M733.174,-396.5C742.706,-396.5 752.641,-396.5 762.262,-396.5"/>
<polygon fill="midnightblue" stroke="midnightblue" points="762.544,-400 772.544,-396.5 762.544,-393 762.544,-400"/>
</g>
<!-- Node30 -->
<g id="node30" class="node"><title>Node30</title>
<g id="a_node30"><a xlink:href="classSerialDevice.html#aaad60303d5def2e5abf4b9988e74ff2d" target="_top" xlink:title="SerialDevice::open">
<polygon fill="white" stroke="black" points="627,-450 627,-469 726,-469 726,-450 627,-450"/>
<text text-anchor="middle" x="676.5" y="-457" font-family="Helvetica,sans-Serif" font-size="10.00">SerialDevice::open</text>
</a>
</g>
</g>
<!-- Node29&#45;&gt;Node30 -->
<g id="edge39" class="edge"><title>Node29&#45;&gt;Node30</title>
<path fill="none" stroke="midnightblue" d="M580.003,-471.801C591.926,-470.265 604.682,-468.622 616.862,-467.053"/>
<polygon fill="midnightblue" stroke="midnightblue" points="617.458,-470.506 626.928,-465.757 616.563,-463.563 617.458,-470.506"/>
</g>
<!-- Node31 -->
<g id="node31" class="node"><title>Node31</title>
<g id="a_node31"><a xlink:href="classSerialDevice.html#a93c12dd5e93213bb98b83924a07ed040" target="_top" xlink:title="SerialDevice::write">
<polygon fill="white" stroke="black" points="627,-488 627,-507 726,-507 726,-488 627,-488"/>
<text text-anchor="middle" x="676.5" y="-495" font-family="Helvetica,sans-Serif" font-size="10.00">SerialDevice::write</text>
</a>
</g>
</g>
<!-- Node29&#45;&gt;Node31 -->
<g id="edge40" class="edge"><title>Node29&#45;&gt;Node31</title>
<path fill="none" stroke="midnightblue" d="M580.003,-485.199C591.926,-486.735 604.682,-488.378 616.862,-489.947"/>
<polygon fill="midnightblue" stroke="midnightblue" points="616.563,-493.437 626.928,-491.243 617.458,-486.494 616.563,-493.437"/>
</g>
<!-- Node32&#45;&gt;Node15 -->
<g id="edge46" class="edge"><title>Node32&#45;&gt;Node15</title>
<path fill="none" stroke="midnightblue" d="M276.615,-493.233C291.293,-492.93 307.271,-492.651 322,-492.5 371.775,-491.99 384.841,-484.674 434,-492.5 438.329,-493.189 580.286,-539.172 584,-541.5 617.105,-562.253 646.727,-597.543 662.804,-618.774"/>
<polygon fill="midnightblue" stroke="midnightblue" points="660.074,-620.97 668.835,-626.929 665.702,-616.807 660.074,-620.97"/>
</g>
<!-- Node32&#45;&gt;Node22 -->
<g id="edge45" class="edge"><title>Node32&#45;&gt;Node22</title>
<path fill="none" stroke="midnightblue" d="M239.748,-509.745C257.912,-527.139 289.857,-555.381 322,-572.5 368.709,-597.376 426.664,-614.394 468.851,-624.592"/>
<polygon fill="midnightblue" stroke="midnightblue" points="468.143,-628.021 478.68,-626.913 469.752,-621.208 468.143,-628.021"/>
</g>
<!-- Node32&#45;&gt;Node23 -->
<g id="edge49" class="edge"><title>Node32&#45;&gt;Node23</title>
<path fill="none" stroke="midnightblue" d="M252.503,-509.634C271.684,-519.59 297.914,-532.411 322,-541.5 372.378,-560.51 431.867,-576.422 473.562,-586.56"/>
<polygon fill="midnightblue" stroke="midnightblue" points="472.956,-590.014 483.497,-588.948 474.593,-583.208 472.956,-590.014"/>
</g>
<!-- Node32&#45;&gt;Node25 -->
<g id="edge44" class="edge"><title>Node32&#45;&gt;Node25</title>
<path fill="none" stroke="midnightblue" d="M244.125,-479.444C270.743,-459.022 318.454,-422.418 348.876,-399.077"/>
<polygon fill="midnightblue" stroke="midnightblue" points="351.163,-401.734 356.967,-392.87 346.902,-396.18 351.163,-401.734"/>
</g>
<!-- Node33 -->
<g id="node33" class="node"><title>Node33</title>
<g id="a_node33"><a xlink:href="classLinux_1_1UARTDriver.html#a06fc9c8a1e15a9a2e8c24e591678f375" target="_top" xlink:title="Linux::UARTDriver::\l_read_fd">
<polygon fill="white" stroke="black" points="325,-501.5 325,-531.5 431,-531.5 431,-501.5 325,-501.5"/>
<text text-anchor="start" x="333" y="-519.5" font-family="Helvetica,sans-Serif" font-size="10.00">Linux::UARTDriver::</text>
<text text-anchor="middle" x="378" y="-508.5" font-family="Helvetica,sans-Serif" font-size="10.00">_read_fd</text>
</a>
</g>
</g>
<!-- Node32&#45;&gt;Node33 -->
<g id="edge47" class="edge"><title>Node32&#45;&gt;Node33</title>
<path fill="none" stroke="midnightblue" d="M276.555,-502.01C288.879,-503.787 302.143,-505.701 314.863,-507.536"/>
<polygon fill="midnightblue" stroke="midnightblue" points="314.523,-511.023 324.921,-508.987 315.523,-504.095 314.523,-511.023"/>
</g>
<!-- Node34 -->
<g id="node34" class="node"><title>Node34</title>
<g id="a_node34"><a xlink:href="classSerialDevice.html#ab9d80891c101e2dd0ab0ce378a4e4982" target="_top" xlink:title="SerialDevice::read">
<polygon fill="white" stroke="black" points="478.5,-551 478.5,-570 575.5,-570 575.5,-551 478.5,-551"/>
<text text-anchor="middle" x="527" y="-558" font-family="Helvetica,sans-Serif" font-size="10.00">SerialDevice::read</text>
</a>
</g>
</g>
<!-- Node33&#45;&gt;Node34 -->
<g id="edge48" class="edge"><title>Node33&#45;&gt;Node34</title>
<path fill="none" stroke="midnightblue" d="M429.178,-531.519C447.116,-536.888 467.122,-542.877 484.27,-548.01"/>
<polygon fill="midnightblue" stroke="midnightblue" points="483.416,-551.407 494,-550.922 485.423,-544.701 483.416,-551.407"/>
</g>
</g>
</svg>
        <g id="navigator" transform="translate(0 0)" fill="#404254">
                <rect fill="#f2f5e9" fill-opacity="0.5" stroke="#606060" stroke-width=".5" x="0" y="0" width="60" height="60"/>
                <use id="zoomplus" xlink:href="#zoomPlus" x="17" y="9" onmousedown="handleZoom(evt,'in')"/>
                <use id="zoomminus" xlink:href="#zoomMin" x="42" y="9" onmousedown="handleZoom(evt,'out')"/>
                <use id="reset" xlink:href="#resetDef" x="30" y="36" onmousedown="handleReset()"/>
                <g id="arrowUp" xlink:href="#dirArrow" transform="translate(30 24)" onmousedown="handlePan(0,-1)">
                  <use xlink:href="#rim" fill="#404040">
                        <set attributeName="fill" to="#808080" begin="arrowUp.mouseover" end="arrowUp.mouseout"/>
                  </use>
                  <path fill="none" stroke="white" stroke-width="1.5" d="M0,-3.0v7 M-2.5,-0.5L0,-3.0L2.5,-0.5"/>
                </g>
                <g id="arrowRight" xlink:href="#dirArrow" transform="rotate(90) translate(36 -43)" onmousedown="handlePan(1,0)">
                  <use xlink:href="#rim" fill="#404040">
                        <set attributeName="fill" to="#808080" begin="arrowRight.mouseover" end="arrowRight.mouseout"/>
                  </use>
                  <path fill="none" stroke="white" stroke-width="1.5" d="M0,-3.0v7 M-2.5,-0.5L0,-3.0L2.5,-0.5"/>
                </g>
                <g id="arrowDown" xlink:href="#dirArrow" transform="rotate(180) translate(-30 -48)" onmousedown="handlePan(0,1)">
                  <use xlink:href="#rim" fill="#404040">
                        <set attributeName="fill" to="#808080" begin="arrowDown.mouseover" end="arrowDown.mouseout"/>
                  </use>
                  <path fill="none" stroke="white" stroke-width="1.5" d="M0,-3.0v7 M-2.5,-0.5L0,-3.0L2.5,-0.5"/>
                </g>
                <g id="arrowLeft" xlink:href="#dirArrow" transform="rotate(270) translate(-36 17)" onmousedown="handlePan(-1,0)">
                  <use xlink:href="#rim" fill="#404040">
                        <set attributeName="fill" to="#808080" begin="arrowLeft.mouseover" end="arrowLeft.mouseout"/>
                  </use>
                  <path fill="none" stroke="white" stroke-width="1.5" d="M0,-3.0v7 M-2.5,-0.5L0,-3.0L2.5,-0.5"/>
                </g>
        </g>
        <svg viewBox="0 0 15 15" width="100%" height="30px" preserveAspectRatio="xMaxYMin meet">
         <g id="arrow_out" transform="scale(0.3 0.3)">
          <a xlink:href="classLinux_1_1UARTDriver_aed6da29eabfa644dd9996146ac367ee9_cgraph_org.svg" target="_base">
           <rect id="button" ry="5" rx="5" y="6" x="6" height="38" width="38"
                fill="#f2f5e9" fill-opacity="0.5" stroke="#606060" stroke-width="1.0"/>
           <path id="arrow"
             d="M 11.500037,31.436501 C 11.940474,20.09759 22.043105,11.32322 32.158766,21.979434 L 37.068811,17.246167 C 37.068811,17.246167 37.088388,32 37.088388,32 L 22.160133,31.978069 C 22.160133,31.978069 26.997745,27.140456 26.997745,27.140456 C 18.528582,18.264221 13.291696,25.230495 11.500037,31.436501 z"
             style="fill:#404040;"/>
          </a>
         </g>
        </svg>
</svg>
