<?xml version="1.0" encoding="UTF-8" standalone="no"?>
<!DOCTYPE svg PUBLIC "-//W3C//DTD SVG 1.1//EN"
 "http://www.w3.org/Graphics/SVG/1.1/DTD/svg11.dtd">
<!-- Generated by graphviz version 2.38.0 (20140413.2041)
 -->
<!-- Title: AP_Param::configured Pages: 1 -->
<!--zoomable 584 -->
<svg id="main" version="1.1" xmlns="http://www.w3.org/2000/svg" xmlns:xlink="http://www.w3.org/1999/xlink" xml:space="preserve" onload="init(evt)">
<style type="text/css"><![CDATA[
.edge:hover path { stroke: red; }
.edge:hover polygon { stroke: red; fill: red; }
]]></style>
<script type="text/javascript"><![CDATA[
var edges = document.getElementsByTagName('g');
if (edges && edges.length) {
  for (var i=0;i<edges.length;i++) {
    if (edges[i].id.substr(0,4)=='edge') {
      edges[i].setAttribute('class','edge');
    }
  }
}
]]></script>
        <defs>
                <circle id="rim" cx="0" cy="0" r="7"/>
                <circle id="rim2" cx="0" cy="0" r="3.5"/>
                <g id="zoomPlus">
                        <use xlink:href="#rim" fill="#404040">
                                <set attributeName="fill" to="#808080" begin="zoomplus.mouseover" end="zoomplus.mouseout"/>
                        </use>
                        <path d="M-4,0h8M0,-4v8" fill="none" stroke="white" stroke-width="1.5" pointer-events="none"/>
                </g>
                <g id="zoomMin">
                        <use xlink:href="#rim" fill="#404040">
                                <set attributeName="fill" to="#808080" begin="zoomminus.mouseover" end="zoomminus.mouseout"/>
                        </use>
                        <path d="M-4,0h8" fill="none" stroke="white" stroke-width="1.5" pointer-events="none"/>
                </g>
                <g id="dirArrow">
                        <path fill="none" stroke="white" stroke-width="1.5" d="M0,-3.0v7 M-2.5,-0.5L0,-3.0L2.5,-0.5"/>
                </g>
               <g id="resetDef">
                       <use xlink:href="#rim2" fill="#404040">
                               <set attributeName="fill" to="#808080" begin="reset.mouseover" end="reset.mouseout"/>
                       </use>
               </g>
        </defs>

<script type="text/javascript">
var viewWidth = 1110;
var viewHeight = 584;
var sectionId = 'dynsection-11';
</script>
<script xlink:href="svgpan.js"/>
<svg id="graph" class="graph">
<g id="viewport">
<title>AP_Param::configured</title>
<polygon fill="white" stroke="none" points="-4,4 -4,-580 1106,-580 1106,4 -4,4"/>
<!-- Node1 -->
<g id="node1" class="node"><title>Node1</title>
<polygon fill="#bfbfbf" stroke="black" points="0,-205.5 0,-224.5 115,-224.5 115,-205.5 0,-205.5"/>
<text text-anchor="middle" x="57.5" y="-212.5" font-family="Helvetica,sans-Serif" font-size="10.00">AP_Param::configured</text>
</g>
<!-- Node2 -->
<g id="node2" class="node"><title>Node2</title>
<g id="a_node2"><a xlink:href="classAP__Param.html#a1b09106d45234cbb5307898d80effd8c" target="_top" xlink:title="AP_Param::configured\l_in_defaults_file">
<polygon fill="white" stroke="black" points="167.5,-244 167.5,-274 282.5,-274 282.5,-244 167.5,-244"/>
<text text-anchor="start" x="175.5" y="-262" font-family="Helvetica,sans-Serif" font-size="10.00">AP_Param::configured</text>
<text text-anchor="middle" x="225" y="-251" font-family="Helvetica,sans-Serif" font-size="10.00">_in_defaults_file</text>
</a>
</g>
</g>
<!-- Node1&#45;&gt;Node2 -->
<g id="edge1" class="edge"><title>Node1&#45;&gt;Node2</title>
<path fill="none" stroke="midnightblue" d="M94.411,-224.547C112.878,-229.457 135.986,-235.6 157.554,-241.335"/>
<polygon fill="midnightblue" stroke="midnightblue" points="156.77,-244.748 167.334,-243.935 158.569,-237.983 156.77,-244.748"/>
</g>
<!-- Node9 -->
<g id="node9" class="node"><title>Node9</title>
<g id="a_node9"><a xlink:href="classAP__Param.html#a4b0a9c95aab15865b5515d068634d220" target="_top" xlink:title="AP_Param::configured\l_in_storage">
<polygon fill="white" stroke="black" points="337.5,-156 337.5,-186 452.5,-186 452.5,-156 337.5,-156"/>
<text text-anchor="start" x="345.5" y="-174" font-family="Helvetica,sans-Serif" font-size="10.00">AP_Param::configured</text>
<text text-anchor="middle" x="395" y="-163" font-family="Helvetica,sans-Serif" font-size="10.00">_in_storage</text>
</a>
</g>
</g>
<!-- Node1&#45;&gt;Node9 -->
<g id="edge11" class="edge"><title>Node1&#45;&gt;Node9</title>
<path fill="none" stroke="midnightblue" d="M100.705,-205.404C116.43,-202.074 134.472,-198.541 151,-196 210.288,-186.885 278.24,-180.21 327.184,-176.062"/>
<polygon fill="midnightblue" stroke="midnightblue" points="327.655,-179.535 337.33,-175.215 327.073,-172.559 327.655,-179.535"/>
</g>
<!-- Node18 -->
<g id="node18" class="node"><title>Node18</title>
<g id="a_node18"><a xlink:href="classAP__Param.html#a0819a26c7b80edb7a245036d1303cc75" target="_top" xlink:title="AP_Param::count_parameters">
<polygon fill="white" stroke="black" points="151,-205.5 151,-224.5 299,-224.5 299,-205.5 151,-205.5"/>
<text text-anchor="middle" x="225" y="-212.5" font-family="Helvetica,sans-Serif" font-size="10.00">AP_Param::count_parameters</text>
</a>
</g>
</g>
<!-- Node1&#45;&gt;Node18 -->
<g id="edge22" class="edge"><title>Node1&#45;&gt;Node18</title>
<path fill="none" stroke="midnightblue" d="M115.456,-215C123.655,-215 132.229,-215 140.81,-215"/>
<polygon fill="midnightblue" stroke="midnightblue" points="140.864,-218.5 150.864,-215 140.863,-211.5 140.864,-218.5"/>
</g>
<!-- Node3 -->
<g id="node3" class="node"><title>Node3</title>
<g id="a_node3"><a xlink:href="classAP__Param.html#aab955f3ed616f208732c15ff4f323ccd" target="_top" xlink:title="AP_Param::find_var_info">
<polygon fill="white" stroke="black" points="491,-249.5 491,-268.5 616,-268.5 616,-249.5 491,-249.5"/>
<text text-anchor="middle" x="553.5" y="-256.5" font-family="Helvetica,sans-Serif" font-size="10.00">AP_Param::find_var_info</text>
</a>
</g>
</g>
<!-- Node2&#45;&gt;Node3 -->
<g id="edge2" class="edge"><title>Node2&#45;&gt;Node3</title>
<path fill="none" stroke="midnightblue" d="M282.872,-259C337.794,-259 421.17,-259 480.654,-259"/>
<polygon fill="midnightblue" stroke="midnightblue" points="480.728,-262.5 490.728,-259 480.728,-255.5 480.728,-262.5"/>
</g>
<!-- Node4 -->
<g id="node4" class="node"><title>Node4</title>
<g id="a_node4"><a xlink:href="classAP__Param.html#a1dcc7820ea51e29cfb762387a9212818" target="_top" xlink:title="AP_Param::get_base">
<polygon fill="white" stroke="black" points="992,-354.5 992,-373.5 1102,-373.5 1102,-354.5 992,-354.5"/>
<text text-anchor="middle" x="1047" y="-361.5" font-family="Helvetica,sans-Serif" font-size="10.00">AP_Param::get_base</text>
</a>
</g>
</g>
<!-- Node3&#45;&gt;Node4 -->
<g id="edge3" class="edge"><title>Node3&#45;&gt;Node4</title>
<path fill="none" stroke="midnightblue" d="M616.103,-265.763C659.364,-270.954 718.468,-278.934 770,-289 853.683,-305.347 873.929,-312.882 956,-336 972.668,-340.695 990.934,-346.293 1006.63,-351.245"/>
<polygon fill="midnightblue" stroke="midnightblue" points="1005.94,-354.698 1016.53,-354.39 1008.06,-348.026 1005.94,-354.698"/>
</g>
<!-- Node5 -->
<g id="node5" class="node"><title>Node5</title>
<g id="a_node5"><a xlink:href="classAP__Param.html#a69baa95e011c7a8c4a29625c558c5501" target="_top" xlink:title="get group_info pointer based on flags ">
<polygon fill="white" stroke="black" points="814,-354.5 814,-373.5 948,-373.5 948,-354.5 814,-354.5"/>
<text text-anchor="middle" x="881" y="-361.5" font-family="Helvetica,sans-Serif" font-size="10.00">AP_Param::get_group_info</text>
</a>
</g>
</g>
<!-- Node3&#45;&gt;Node5 -->
<g id="edge4" class="edge"><title>Node3&#45;&gt;Node5</title>
<path fill="none" stroke="midnightblue" d="M583.96,-268.503C642.757,-287.47 774.674,-330.024 840.737,-351.335"/>
<polygon fill="midnightblue" stroke="midnightblue" points="839.78,-354.703 850.372,-354.443 841.929,-348.042 839.78,-354.703"/>
</g>
<!-- Node6 -->
<g id="node6" class="node"><title>Node6</title>
<g id="a_node6"><a xlink:href="classAP__Param.html#a0a5b0b035c7d17569e4a814f20f00985" target="_top" xlink:title="AP_Param::find_var\l_info_group">
<polygon fill="white" stroke="black" points="659,-431 659,-461 763,-461 763,-431 659,-431"/>
<text text-anchor="start" x="667" y="-449" font-family="Helvetica,sans-Serif" font-size="10.00">AP_Param::find_var</text>
<text text-anchor="middle" x="711" y="-438" font-family="Helvetica,sans-Serif" font-size="10.00">_info_group</text>
</a>
</g>
</g>
<!-- Node3&#45;&gt;Node6 -->
<g id="edge5" class="edge"><title>Node3&#45;&gt;Node6</title>
<path fill="none" stroke="midnightblue" d="M562.425,-268.53C586.049,-296.94 656.47,-381.626 690.782,-422.889"/>
<polygon fill="midnightblue" stroke="midnightblue" points="688.248,-425.315 697.332,-430.766 693.63,-420.84 688.248,-425.315"/>
</g>
<!-- Node6&#45;&gt;Node4 -->
<g id="edge6" class="edge"><title>Node6&#45;&gt;Node4</title>
<path fill="none" stroke="midnightblue" d="M763.161,-432.127C777.041,-428.436 792.08,-424.503 806,-421 870.75,-404.704 945.65,-387.115 994.32,-375.853"/>
<polygon fill="midnightblue" stroke="midnightblue" points="995.339,-379.21 1004.29,-373.548 993.763,-372.389 995.339,-379.21"/>
</g>
<!-- Node6&#45;&gt;Node5 -->
<g id="edge7" class="edge"><title>Node6&#45;&gt;Node5</title>
<path fill="none" stroke="midnightblue" d="M743.595,-430.989C752.332,-426.483 761.692,-421.316 770,-416 787.074,-405.076 788.09,-397.492 806,-388 814.238,-383.634 823.414,-379.878 832.423,-376.719"/>
<polygon fill="midnightblue" stroke="midnightblue" points="833.685,-379.989 842.081,-373.527 831.488,-373.342 833.685,-379.989"/>
</g>
<!-- Node7 -->
<g id="node7" class="node"><title>Node7</title>
<g id="a_node7"><a xlink:href="classAP__Param.html#aa8b43d95bca6adbf5497e8102cf73857" target="_top" xlink:title="AP_Param::adjust_group\l_offset">
<polygon fill="white" stroke="black" points="818.5,-469 818.5,-499 943.5,-499 943.5,-469 818.5,-469"/>
<text text-anchor="start" x="826.5" y="-487" font-family="Helvetica,sans-Serif" font-size="10.00">AP_Param::adjust_group</text>
<text text-anchor="middle" x="881" y="-476" font-family="Helvetica,sans-Serif" font-size="10.00">_offset</text>
</a>
</g>
</g>
<!-- Node6&#45;&gt;Node7 -->
<g id="edge8" class="edge"><title>Node6&#45;&gt;Node7</title>
<path fill="none" stroke="midnightblue" d="M763.318,-457.608C777.567,-460.831 793.301,-464.39 808.479,-467.823"/>
<polygon fill="midnightblue" stroke="midnightblue" points="807.827,-471.263 818.352,-470.056 809.371,-464.436 807.827,-471.263"/>
</g>
<!-- Node8 -->
<g id="node8" class="node"><title>Node8</title>
<g id="a_node8"><a xlink:href="classAP__Param.html#a90f6be43b427d44475380211164f8292" target="_top" xlink:title="AP_Param::group_id">
<polygon fill="white" stroke="black" points="827.5,-430.5 827.5,-449.5 934.5,-449.5 934.5,-430.5 827.5,-430.5"/>
<text text-anchor="middle" x="881" y="-437.5" font-family="Helvetica,sans-Serif" font-size="10.00">AP_Param::group_id</text>
</a>
</g>
</g>
<!-- Node6&#45;&gt;Node8 -->
<g id="edge10" class="edge"><title>Node6&#45;&gt;Node8</title>
<path fill="none" stroke="midnightblue" d="M763.318,-444.167C780.258,-443.562 799.298,-442.882 817.007,-442.25"/>
<polygon fill="midnightblue" stroke="midnightblue" points="817.386,-445.739 827.254,-441.884 817.136,-438.743 817.386,-445.739"/>
</g>
<!-- Node7&#45;&gt;Node4 -->
<g id="edge9" class="edge"><title>Node7&#45;&gt;Node4</title>
<path fill="none" stroke="midnightblue" d="M936.765,-468.914C943.48,-466.088 950.06,-462.8 956,-459 988.655,-438.11 1017.76,-402.865 1033.54,-381.68"/>
<polygon fill="midnightblue" stroke="midnightblue" points="1036.41,-383.69 1039.46,-373.545 1030.75,-379.572 1036.41,-383.69"/>
</g>
<!-- Node9&#45;&gt;Node3 -->
<g id="edge12" class="edge"><title>Node9&#45;&gt;Node3</title>
<path fill="none" stroke="midnightblue" d="M434.222,-186.053C441.234,-189.135 448.414,-192.51 455,-196 482.211,-210.417 511.674,-230.068 531.007,-243.569"/>
<polygon fill="midnightblue" stroke="midnightblue" points="529.192,-246.572 539.381,-249.476 533.226,-240.851 529.192,-246.572"/>
</g>
<!-- Node10 -->
<g id="node10" class="node"><title>Node10</title>
<g id="a_node10"><a xlink:href="classAP__Param.html#a0d927132804c19fa222b1fcb871e7009" target="_top" xlink:title="AP_Param::set_key">
<polygon fill="white" stroke="black" points="501.5,-161.5 501.5,-180.5 605.5,-180.5 605.5,-161.5 501.5,-161.5"/>
<text text-anchor="middle" x="553.5" y="-168.5" font-family="Helvetica,sans-Serif" font-size="10.00">AP_Param::set_key</text>
</a>
</g>
</g>
<!-- Node9&#45;&gt;Node10 -->
<g id="edge13" class="edge"><title>Node9&#45;&gt;Node10</title>
<path fill="none" stroke="midnightblue" d="M452.5,-171C465.074,-171 478.461,-171 491.217,-171"/>
<polygon fill="midnightblue" stroke="midnightblue" points="491.283,-174.5 501.283,-171 491.283,-167.5 491.283,-174.5"/>
</g>
<!-- Node11 -->
<g id="node11" class="node"><title>Node11</title>
<g id="a_node11"><a xlink:href="classAP__Param.html#aa416fb587f072ed8d8039168d122ecb4" target="_top" xlink:title="AP_Param::scan">
<polygon fill="white" stroke="black" points="508,-123.5 508,-142.5 599,-142.5 599,-123.5 508,-123.5"/>
<text text-anchor="middle" x="553.5" y="-130.5" font-family="Helvetica,sans-Serif" font-size="10.00">AP_Param::scan</text>
</a>
</g>
</g>
<!-- Node9&#45;&gt;Node11 -->
<g id="edge14" class="edge"><title>Node9&#45;&gt;Node11</title>
<path fill="none" stroke="midnightblue" d="M452.5,-157.281C469.176,-153.232 487.284,-148.835 503.451,-144.91"/>
<polygon fill="midnightblue" stroke="midnightblue" points="504.344,-148.295 513.236,-142.534 502.692,-141.492 504.344,-148.295"/>
</g>
<!-- Node12 -->
<g id="node12" class="node"><title>Node12</title>
<g id="a_node12"><a xlink:href="classStorageAccess.html#a82088aa568b13d18acc9e41a01fd1f19" target="_top" xlink:title="StorageAccess::size">
<polygon fill="white" stroke="black" points="657.5,-164.5 657.5,-183.5 764.5,-183.5 764.5,-164.5 657.5,-164.5"/>
<text text-anchor="middle" x="711" y="-171.5" font-family="Helvetica,sans-Serif" font-size="10.00">StorageAccess::size</text>
</a>
</g>
</g>
<!-- Node11&#45;&gt;Node12 -->
<g id="edge15" class="edge"><title>Node11&#45;&gt;Node12</title>
<path fill="none" stroke="midnightblue" d="M590.566,-142.509C612.468,-148.284 640.637,-155.711 664.117,-161.902"/>
<polygon fill="midnightblue" stroke="midnightblue" points="663.299,-165.306 673.861,-164.471 665.084,-158.537 663.299,-165.306"/>
</g>
<!-- Node13 -->
<g id="node13" class="node"><title>Node13</title>
<g id="a_node13"><a xlink:href="classStorageAccess.html#ab2a8575d541549a15645edc360fdaa91" target="_top" xlink:title="StorageAccess::read\l_block">
<polygon fill="white" stroke="black" points="657,-39 657,-69 765,-69 765,-39 657,-39"/>
<text text-anchor="start" x="665" y="-57" font-family="Helvetica,sans-Serif" font-size="10.00">StorageAccess::read</text>
<text text-anchor="middle" x="711" y="-46" font-family="Helvetica,sans-Serif" font-size="10.00">_block</text>
</a>
</g>
</g>
<!-- Node11&#45;&gt;Node13 -->
<g id="edge16" class="edge"><title>Node11&#45;&gt;Node13</title>
<path fill="none" stroke="midnightblue" d="M573.257,-123.471C597.341,-111.235 639.747,-89.6912 670.968,-73.8296"/>
<polygon fill="midnightblue" stroke="midnightblue" points="672.936,-76.7559 680.266,-69.1061 669.765,-70.5151 672.936,-76.7559"/>
</g>
<!-- Node15 -->
<g id="node15" class="node"><title>Node15</title>
<g id="a_node15"><a xlink:href="classAP__Param.html#a292ed97cd29eb839a301d85690d125bd" target="_top" xlink:title="AP_Param::get_key">
<polygon fill="white" stroke="black" points="829,-107.5 829,-126.5 933,-126.5 933,-107.5 829,-107.5"/>
<text text-anchor="middle" x="881" y="-114.5" font-family="Helvetica,sans-Serif" font-size="10.00">AP_Param::get_key</text>
</a>
</g>
</g>
<!-- Node11&#45;&gt;Node15 -->
<g id="edge18" class="edge"><title>Node11&#45;&gt;Node15</title>
<path fill="none" stroke="midnightblue" d="M599.455,-124.054C615.913,-121.195 634.732,-118.407 652,-117 708.301,-112.411 772.683,-112.938 818.641,-114.304"/>
<polygon fill="midnightblue" stroke="midnightblue" points="818.635,-117.805 828.741,-114.626 818.858,-110.809 818.635,-117.805"/>
</g>
<!-- Node16 -->
<g id="node16" class="node"><title>Node16</title>
<g id="a_node16"><a xlink:href="classAP__Param.html#aa2a6f6980713f1055fbee50f67082296" target="_top" xlink:title="AP_Param::is_sentinal">
<polygon fill="white" stroke="black" points="653,-126.5 653,-145.5 769,-145.5 769,-126.5 653,-126.5"/>
<text text-anchor="middle" x="711" y="-133.5" font-family="Helvetica,sans-Serif" font-size="10.00">AP_Param::is_sentinal</text>
</a>
</g>
</g>
<!-- Node11&#45;&gt;Node16 -->
<g id="edge19" class="edge"><title>Node11&#45;&gt;Node16</title>
<path fill="none" stroke="midnightblue" d="M599.06,-133.86C612.696,-134.123 628.008,-134.418 642.802,-134.704"/>
<polygon fill="midnightblue" stroke="midnightblue" points="642.867,-138.205 652.933,-134.899 643.003,-131.207 642.867,-138.205"/>
</g>
<!-- Node17 -->
<g id="node17" class="node"><title>Node17</title>
<g id="a_node17"><a xlink:href="classAP__Param.html#a2e66d023b56a62888747cbfaaef729d9" target="_top" xlink:title="AP_Param::type_size">
<polygon fill="white" stroke="black" points="655,-0.5 655,-19.5 767,-19.5 767,-0.5 655,-0.5"/>
<text text-anchor="middle" x="711" y="-7.5" font-family="Helvetica,sans-Serif" font-size="10.00">AP_Param::type_size</text>
</a>
</g>
</g>
<!-- Node11&#45;&gt;Node17 -->
<g id="edge21" class="edge"><title>Node11&#45;&gt;Node17</title>
<path fill="none" stroke="midnightblue" d="M560.882,-123.458C574.946,-103.142 610.667,-55.3245 652,-29 655.181,-26.974 658.599,-25.144 662.126,-23.4948"/>
<polygon fill="midnightblue" stroke="midnightblue" points="663.742,-26.6135 671.63,-19.5408 661.053,-20.1504 663.742,-26.6135"/>
</g>
<!-- Node14 -->
<g id="node14" class="node"><title>Node14</title>
<g id="a_node14"><a xlink:href="classAP__HAL_1_1Storage.html#a1c3b1e80b0bec7d4bacd3ecbefb3b3f3" target="_top" xlink:title="AP_HAL::Storage::read\l_block">
<polygon fill="white" stroke="black" points="821.5,-39 821.5,-69 940.5,-69 940.5,-39 821.5,-39"/>
<text text-anchor="start" x="829.5" y="-57" font-family="Helvetica,sans-Serif" font-size="10.00">AP_HAL::Storage::read</text>
<text text-anchor="middle" x="881" y="-46" font-family="Helvetica,sans-Serif" font-size="10.00">_block</text>
</a>
</g>
</g>
<!-- Node13&#45;&gt;Node14 -->
<g id="edge17" class="edge"><title>Node13&#45;&gt;Node14</title>
<path fill="none" stroke="midnightblue" d="M765.156,-54C779.824,-54 795.948,-54 811.358,-54"/>
<polygon fill="midnightblue" stroke="midnightblue" points="811.36,-57.5001 821.36,-54 811.36,-50.5001 811.36,-57.5001"/>
</g>
<!-- Node16&#45;&gt;Node15 -->
<g id="edge20" class="edge"><title>Node16&#45;&gt;Node15</title>
<path fill="none" stroke="midnightblue" d="M769.346,-129.514C785.175,-127.724 802.413,-125.775 818.468,-123.959"/>
<polygon fill="midnightblue" stroke="midnightblue" points="819.279,-127.39 828.822,-122.788 818.492,-120.434 819.279,-127.39"/>
</g>
<!-- Node19 -->
<g id="node19" class="node"><title>Node19</title>
<g id="a_node19"><a xlink:href="classAP__Param.html#adc0c44f152f0e3cbb12703b2a58d8f6b" target="_top" xlink:title="AP_Param::first">
<polygon fill="white" stroke="black" points="352,-205.5 352,-224.5 438,-224.5 438,-205.5 352,-205.5"/>
<text text-anchor="middle" x="395" y="-212.5" font-family="Helvetica,sans-Serif" font-size="10.00">AP_Param::first</text>
</a>
</g>
</g>
<!-- Node18&#45;&gt;Node19 -->
<g id="edge23" class="edge"><title>Node18&#45;&gt;Node19</title>
<path fill="none" stroke="midnightblue" d="M299.199,-215C313.573,-215 328.376,-215 341.887,-215"/>
<polygon fill="midnightblue" stroke="midnightblue" points="341.938,-218.5 351.938,-215 341.938,-211.5 341.938,-218.5"/>
</g>
<!-- Node20 -->
<g id="node20" class="node"><title>Node20</title>
<g id="a_node20"><a xlink:href="classAP__Param.html#a8cf8477edefdb6a0b2173d8229894173" target="_top" xlink:title="AP_Param::next_scalar">
<polygon fill="white" stroke="black" points="335,-354.5 335,-373.5 455,-373.5 455,-354.5 335,-354.5"/>
<text text-anchor="middle" x="395" y="-361.5" font-family="Helvetica,sans-Serif" font-size="10.00">AP_Param::next_scalar</text>
</a>
</g>
</g>
<!-- Node18&#45;&gt;Node20 -->
<g id="edge25" class="edge"><title>Node18&#45;&gt;Node20</title>
<path fill="none" stroke="midnightblue" d="M280.082,-224.532C286.769,-226.996 293.26,-230.097 299,-234 341.204,-262.698 371.53,-316.586 385.454,-345.136"/>
<polygon fill="midnightblue" stroke="midnightblue" points="382.4,-346.865 389.833,-354.414 388.73,-343.877 382.4,-346.865"/>
</g>
<!-- Node19&#45;&gt;Node4 -->
<g id="edge24" class="edge"><title>Node19&#45;&gt;Node4</title>
<path fill="none" stroke="midnightblue" d="M438.112,-213.314C534.272,-211.038 775.6,-214.317 956,-293 985.159,-305.718 1012.99,-330.234 1029.79,-346.857"/>
<polygon fill="midnightblue" stroke="midnightblue" points="1027.6,-349.621 1037.1,-354.297 1032.59,-344.713 1027.6,-349.621"/>
</g>
<!-- Node21 -->
<g id="node21" class="node"><title>Node21</title>
<g id="a_node21"><a xlink:href="classAP__Param.html#ae329f47d0829a6ca578562fbec2d7383" target="_top" xlink:title="AP_Param::next">
<polygon fill="white" stroke="black" points="509,-439.5 509,-458.5 598,-458.5 598,-439.5 509,-439.5"/>
<text text-anchor="middle" x="553.5" y="-446.5" font-family="Helvetica,sans-Serif" font-size="10.00">AP_Param::next</text>
</a>
</g>
</g>
<!-- Node20&#45;&gt;Node21 -->
<g id="edge26" class="edge"><title>Node20&#45;&gt;Node21</title>
<path fill="none" stroke="midnightblue" d="M413.648,-373.585C441.005,-388.444 493.824,-417.131 525.846,-434.523"/>
<polygon fill="midnightblue" stroke="midnightblue" points="524.218,-437.622 534.676,-439.319 527.559,-431.471 524.218,-437.622"/>
</g>
<!-- Node24 -->
<g id="node24" class="node"><title>Node24</title>
<g id="a_node24"><a xlink:href="classAP__Param.html#aa2638d3b9db28506452fc121c7faa7ff" target="_top" xlink:title="AP_Param::find_var\l_info_token">
<polygon fill="white" stroke="black" points="501.5,-349 501.5,-379 605.5,-379 605.5,-349 501.5,-349"/>
<text text-anchor="start" x="509.5" y="-367" font-family="Helvetica,sans-Serif" font-size="10.00">AP_Param::find_var</text>
<text text-anchor="middle" x="553.5" y="-356" font-family="Helvetica,sans-Serif" font-size="10.00">_info_token</text>
</a>
</g>
</g>
<!-- Node20&#45;&gt;Node24 -->
<g id="edge35" class="edge"><title>Node20&#45;&gt;Node24</title>
<path fill="none" stroke="midnightblue" d="M455.166,-364C466.949,-364 479.346,-364 491.199,-364"/>
<polygon fill="midnightblue" stroke="midnightblue" points="491.446,-367.5 501.446,-364 491.446,-360.5 491.446,-367.5"/>
</g>
<!-- Node21&#45;&gt;Node5 -->
<g id="edge28" class="edge"><title>Node21&#45;&gt;Node5</title>
<path fill="none" stroke="midnightblue" d="M586.928,-439.409C605.863,-433.879 630.238,-426.879 652,-421 720.162,-402.587 737.475,-399.011 806,-382 813.937,-380.03 822.358,-377.961 830.567,-375.956"/>
<polygon fill="midnightblue" stroke="midnightblue" points="831.54,-379.321 840.427,-373.553 829.882,-372.52 831.54,-379.321"/>
</g>
<!-- Node22 -->
<g id="node22" class="node"><title>Node22</title>
<g id="a_node22"><a xlink:href="classAP__Param.html#af535cde8cb54b9c361e199b2161980e7" target="_top" xlink:title="AP_Param::check_frame_type">
<polygon fill="white" stroke="black" points="806,-556.5 806,-575.5 956,-575.5 956,-556.5 806,-556.5"/>
<text text-anchor="middle" x="881" y="-563.5" font-family="Helvetica,sans-Serif" font-size="10.00">AP_Param::check_frame_type</text>
</a>
</g>
</g>
<!-- Node21&#45;&gt;Node22 -->
<g id="edge27" class="edge"><title>Node21&#45;&gt;Node22</title>
<path fill="none" stroke="midnightblue" d="M567.361,-458.717C585.378,-471.896 619.574,-495.355 652,-509 703.504,-530.673 765.153,-545.47 811.353,-554.546"/>
<polygon fill="midnightblue" stroke="midnightblue" points="810.782,-558 821.263,-556.451 812.104,-551.126 810.782,-558"/>
</g>
<!-- Node23 -->
<g id="node23" class="node"><title>Node23</title>
<g id="a_node23"><a xlink:href="classAP__Param.html#a17601b9ec7791da2904e07683e059e11" target="_top" xlink:title="AP_Param::next_group">
<polygon fill="white" stroke="black" points="652,-480.5 652,-499.5 770,-499.5 770,-480.5 652,-480.5"/>
<text text-anchor="middle" x="711" y="-487.5" font-family="Helvetica,sans-Serif" font-size="10.00">AP_Param::next_group</text>
</a>
</g>
</g>
<!-- Node21&#45;&gt;Node23 -->
<g id="edge29" class="edge"><title>Node21&#45;&gt;Node23</title>
<path fill="none" stroke="midnightblue" d="M590.566,-458.509C612.468,-464.284 640.637,-471.711 664.117,-477.902"/>
<polygon fill="midnightblue" stroke="midnightblue" points="663.299,-481.306 673.861,-480.471 665.084,-474.537 663.299,-481.306"/>
</g>
<!-- Node23&#45;&gt;Node4 -->
<g id="edge34" class="edge"><title>Node23&#45;&gt;Node4</title>
<path fill="none" stroke="midnightblue" d="M752.938,-499.584C769.336,-502.964 788.466,-506.336 806,-508 872.369,-514.297 897.691,-540.318 956,-508 1004.42,-481.164 1030.23,-416.223 1040.55,-383.514"/>
<polygon fill="midnightblue" stroke="midnightblue" points="1043.95,-384.342 1043.46,-373.759 1037.25,-382.338 1043.95,-384.342"/>
</g>
<!-- Node23&#45;&gt;Node5 -->
<g id="edge31" class="edge"><title>Node23&#45;&gt;Node5</title>
<path fill="none" stroke="midnightblue" d="M750.46,-480.431C757.341,-477.718 764.167,-474.294 770,-470 791.762,-453.979 787.11,-440.324 806,-421 821.446,-405.199 841.414,-390.07 856.714,-379.375"/>
<polygon fill="midnightblue" stroke="midnightblue" points="858.843,-382.159 865.113,-373.618 854.886,-376.384 858.843,-382.159"/>
</g>
<!-- Node23&#45;&gt;Node7 -->
<g id="edge32" class="edge"><title>Node23&#45;&gt;Node7</title>
<path fill="none" stroke="midnightblue" d="M770.287,-487.918C782.551,-487.48 795.624,-487.013 808.314,-486.56"/>
<polygon fill="midnightblue" stroke="midnightblue" points="808.517,-490.055 818.386,-486.201 808.267,-483.06 808.517,-490.055"/>
</g>
<!-- Node23&#45;&gt;Node8 -->
<g id="edge33" class="edge"><title>Node23&#45;&gt;Node8</title>
<path fill="none" stroke="midnightblue" d="M739.406,-480.422C758.075,-474.031 783.407,-465.618 806,-459 814.051,-456.642 822.641,-454.289 831.012,-452.083"/>
<polygon fill="midnightblue" stroke="midnightblue" points="831.894,-455.47 840.693,-449.569 830.135,-448.695 831.894,-455.47"/>
</g>
<!-- Node23&#45;&gt;Node22 -->
<g id="edge30" class="edge"><title>Node23&#45;&gt;Node22</title>
<path fill="none" stroke="midnightblue" d="M727.172,-499.587C745.382,-510.809 777.087,-529.452 806,-542 815.571,-546.154 826.104,-549.986 836.147,-553.312"/>
<polygon fill="midnightblue" stroke="midnightblue" points="835.382,-556.743 845.973,-556.464 837.519,-550.077 835.382,-556.743"/>
</g>
<!-- Node24&#45;&gt;Node4 -->
<g id="edge36" class="edge"><title>Node24&#45;&gt;Node4</title>
<path fill="none" stroke="midnightblue" d="M605.661,-356.645C682.096,-346.772 830.549,-331.902 956,-345 970.315,-346.495 985.705,-349.292 999.639,-352.289"/>
<polygon fill="midnightblue" stroke="midnightblue" points="998.969,-355.725 1009.49,-354.491 1000.5,-348.894 998.969,-355.725"/>
</g>
<!-- Node24&#45;&gt;Node5 -->
<g id="edge37" class="edge"><title>Node24&#45;&gt;Node5</title>
<path fill="none" stroke="midnightblue" d="M605.717,-364C658.86,-364 742.571,-364 803.546,-364"/>
<polygon fill="midnightblue" stroke="midnightblue" points="803.89,-367.5 813.89,-364 803.89,-360.5 803.89,-367.5"/>
</g>
<!-- Node24&#45;&gt;Node6 -->
<g id="edge38" class="edge"><title>Node24&#45;&gt;Node6</title>
<path fill="none" stroke="midnightblue" d="M583.021,-379.04C608.15,-392.291 644.934,-411.689 672.451,-426.199"/>
<polygon fill="midnightblue" stroke="midnightblue" points="670.919,-429.348 681.397,-430.917 674.184,-423.156 670.919,-429.348"/>
</g>
</g>
</svg>
        <g id="navigator" transform="translate(0 0)" fill="#404254">
                <rect fill="#f2f5e9" fill-opacity="0.5" stroke="#606060" stroke-width=".5" x="0" y="0" width="60" height="60"/>
                <use id="zoomplus" xlink:href="#zoomPlus" x="17" y="9" onmousedown="handleZoom(evt,'in')"/>
                <use id="zoomminus" xlink:href="#zoomMin" x="42" y="9" onmousedown="handleZoom(evt,'out')"/>
                <use id="reset" xlink:href="#resetDef" x="30" y="36" onmousedown="handleReset()"/>
                <g id="arrowUp" xlink:href="#dirArrow" transform="translate(30 24)" onmousedown="handlePan(0,-1)">
                  <use xlink:href="#rim" fill="#404040">
                        <set attributeName="fill" to="#808080" begin="arrowUp.mouseover" end="arrowUp.mouseout"/>
                  </use>
                  <path fill="none" stroke="white" stroke-width="1.5" d="M0,-3.0v7 M-2.5,-0.5L0,-3.0L2.5,-0.5"/>
                </g>
                <g id="arrowRight" xlink:href="#dirArrow" transform="rotate(90) translate(36 -43)" onmousedown="handlePan(1,0)">
                  <use xlink:href="#rim" fill="#404040">
                        <set attributeName="fill" to="#808080" begin="arrowRight.mouseover" end="arrowRight.mouseout"/>
                  </use>
                  <path fill="none" stroke="white" stroke-width="1.5" d="M0,-3.0v7 M-2.5,-0.5L0,-3.0L2.5,-0.5"/>
                </g>
                <g id="arrowDown" xlink:href="#dirArrow" transform="rotate(180) translate(-30 -48)" onmousedown="handlePan(0,1)">
                  <use xlink:href="#rim" fill="#404040">
                        <set attributeName="fill" to="#808080" begin="arrowDown.mouseover" end="arrowDown.mouseout"/>
                  </use>
                  <path fill="none" stroke="white" stroke-width="1.5" d="M0,-3.0v7 M-2.5,-0.5L0,-3.0L2.5,-0.5"/>
                </g>
                <g id="arrowLeft" xlink:href="#dirArrow" transform="rotate(270) translate(-36 17)" onmousedown="handlePan(-1,0)">
                  <use xlink:href="#rim" fill="#404040">
                        <set attributeName="fill" to="#808080" begin="arrowLeft.mouseover" end="arrowLeft.mouseout"/>
                  </use>
                  <path fill="none" stroke="white" stroke-width="1.5" d="M0,-3.0v7 M-2.5,-0.5L0,-3.0L2.5,-0.5"/>
                </g>
        </g>
        <svg viewBox="0 0 15 15" width="100%" height="30px" preserveAspectRatio="xMaxYMin meet">
         <g id="arrow_out" transform="scale(0.3 0.3)">
          <a xlink:href="classAP__Param_a60934eed4cae32483c185fed4cd6f2fa_cgraph_org.svg" target="_base">
           <rect id="button" ry="5" rx="5" y="6" x="6" height="38" width="38"
                fill="#f2f5e9" fill-opacity="0.5" stroke="#606060" stroke-width="1.0"/>
           <path id="arrow"
             d="M 11.500037,31.436501 C 11.940474,20.09759 22.043105,11.32322 32.158766,21.979434 L 37.068811,17.246167 C 37.068811,17.246167 37.088388,32 37.088388,32 L 22.160133,31.978069 C 22.160133,31.978069 26.997745,27.140456 26.997745,27.140456 C 18.528582,18.264221 13.291696,25.230495 11.500037,31.436501 z"
             style="fill:#404040;"/>
          </a>
         </g>
        </svg>
</svg>
