<?xml version="1.0" encoding="UTF-8" standalone="no"?>
<!DOCTYPE svg PUBLIC "-//W3C//DTD SVG 1.1//EN"
 "http://www.w3.org/Graphics/SVG/1.1/DTD/svg11.dtd">
<!-- Generated by graphviz version 2.38.0 (20140413.2041)
 -->
<!-- Title: AP_AccelCal::clear Pages: 1 -->
<svg width="723pt" height="113pt"
 viewBox="0.00 0.00 723.00 112.50" xmlns="http://www.w3.org/2000/svg" xmlns:xlink="http://www.w3.org/1999/xlink">
<g id="graph0" class="graph" transform="scale(1 1) rotate(0) translate(4 108.5)">
<title>AP_AccelCal::clear</title>
<polygon fill="white" stroke="none" points="-4,4 -4,-108.5 719,-108.5 719,4 -4,4"/>
<!-- Node1 -->
<g id="node1" class="node"><title>Node1</title>
<polygon fill="#bfbfbf" stroke="black" points="0,-38.5 0,-57.5 102,-57.5 102,-38.5 0,-38.5"/>
<text text-anchor="middle" x="51" y="-45.5" font-family="Helvetica,sans-Serif" font-size="10.00">AP_AccelCal::clear</text>
</g>
<!-- Node2 -->
<g id="node2" class="node"><title>Node2</title>
<g id="a_node2"><a xlink:href="classAP__AccelCal.html#a43c12755c810581bbbf236bb7fd1c2d0" target="_top" xlink:title="AP_AccelCal::cancel">
<polygon fill="white" stroke="black" points="292,-76.5 292,-95.5 402,-95.5 402,-76.5 292,-76.5"/>
<text text-anchor="middle" x="347" y="-83.5" font-family="Helvetica,sans-Serif" font-size="10.00">AP_AccelCal::cancel</text>
</a>
</g>
</g>
<!-- Node1&#45;&gt;Node2 -->
<g id="edge1" class="edge"><title>Node1&#45;&gt;Node2</title>
<path fill="none" stroke="midnightblue" d="M100.349,-59.8047C112.577,-62.4799 125.724,-65.0911 138,-67 189.955,-75.079 249.784,-80.1015 291.9,-82.9381"/>
<polygon fill="midnightblue" stroke="midnightblue" points="100.857,-56.3316 90.3333,-57.5563 99.3239,-63.1616 100.857,-56.3316"/>
</g>
<!-- Node6 -->
<g id="node6" class="node"><title>Node6</title>
<g id="a_node6"><a xlink:href="classAP__AccelCal.html#a9094298479f444bac854a5720b157cd8" target="_top" xlink:title="AP_AccelCal::fail">
<polygon fill="white" stroke="black" points="150,-0.5 150,-19.5 244,-19.5 244,-0.5 150,-0.5"/>
<text text-anchor="middle" x="197" y="-7.5" font-family="Helvetica,sans-Serif" font-size="10.00">AP_AccelCal::fail</text>
</a>
</g>
</g>
<!-- Node1&#45;&gt;Node6 -->
<g id="edge5" class="edge"><title>Node1&#45;&gt;Node6</title>
<path fill="none" stroke="midnightblue" d="M98.1722,-35.8157C118.164,-30.54 141.219,-24.4562 159.924,-19.5201"/>
<polygon fill="midnightblue" stroke="midnightblue" points="97.1132,-32.4752 88.3373,-38.411 98.8994,-39.2435 97.1132,-32.4752"/>
</g>
<!-- Node8 -->
<g id="node8" class="node"><title>Node8</title>
<g id="a_node8"><a xlink:href="classAP__AccelCal.html#a2e758cdfaac8016ef037b8f002daec61" target="_top" xlink:title="AP_AccelCal::success">
<polygon fill="white" stroke="black" points="138,-38.5 138,-57.5 256,-57.5 256,-38.5 138,-38.5"/>
<text text-anchor="middle" x="197" y="-45.5" font-family="Helvetica,sans-Serif" font-size="10.00">AP_AccelCal::success</text>
</a>
</g>
</g>
<!-- Node1&#45;&gt;Node8 -->
<g id="edge9" class="edge"><title>Node1&#45;&gt;Node8</title>
<path fill="none" stroke="midnightblue" d="M112.378,-48C120.7,-48 129.234,-48 137.521,-48"/>
<polygon fill="midnightblue" stroke="midnightblue" points="112.364,-44.5001 102.364,-48 112.364,-51.5001 112.364,-44.5001"/>
</g>
<!-- Node3 -->
<g id="node3" class="node"><title>Node3</title>
<g id="a_node3"><a xlink:href="classAP__InertialSensor.html#a9ca5d711a97f4c33fe6a7c31b1329761" target="_top" xlink:title="AP_InertialSensor::\lacal_update">
<polygon fill="white" stroke="black" points="457.5,-74 457.5,-104 558.5,-104 558.5,-74 457.5,-74"/>
<text text-anchor="start" x="465.5" y="-92" font-family="Helvetica,sans-Serif" font-size="10.00">AP_InertialSensor::</text>
<text text-anchor="middle" x="508" y="-81" font-family="Helvetica,sans-Serif" font-size="10.00">acal_update</text>
</a>
</g>
</g>
<!-- Node2&#45;&gt;Node3 -->
<g id="edge2" class="edge"><title>Node2&#45;&gt;Node3</title>
<path fill="none" stroke="midnightblue" d="M412.465,-87.2163C427.395,-87.498 443.058,-87.7936 457.245,-88.0612"/>
<polygon fill="midnightblue" stroke="midnightblue" points="412.338,-83.7134 402.274,-87.024 412.206,-90.7122 412.338,-83.7134"/>
</g>
<!-- Node5 -->
<g id="node5" class="node"><title>Node5</title>
<g id="a_node5"><a xlink:href="classAP__AccelCal.html#a04edd404ef14de6e6106e02f3746afeb" target="_top" xlink:title="AP_AccelCal::AP_AccelCal">
<polygon fill="white" stroke="black" points="438,-35.5 438,-54.5 578,-54.5 578,-35.5 438,-35.5"/>
<text text-anchor="middle" x="508" y="-42.5" font-family="Helvetica,sans-Serif" font-size="10.00">AP_AccelCal::AP_AccelCal</text>
</a>
</g>
</g>
<!-- Node2&#45;&gt;Node5 -->
<g id="edge4" class="edge"><title>Node2&#45;&gt;Node5</title>
<path fill="none" stroke="midnightblue" d="M394.835,-73.923C418.833,-67.7349 447.637,-60.3073 470.047,-54.5286"/>
<polygon fill="midnightblue" stroke="midnightblue" points="393.687,-70.6046 384.877,-76.4907 395.435,-77.3828 393.687,-70.6046"/>
</g>
<!-- Node4 -->
<g id="node4" class="node"><title>Node4</title>
<g id="a_node4"><a xlink:href="classAP__InertialSensor.html#ab7992b2d70b268a86ad4354531ae464d" target="_top" xlink:title="AP_InertialSensor::\lget_acal">
<polygon fill="white" stroke="black" points="614,-74 614,-104 715,-104 715,-74 614,-74"/>
<text text-anchor="start" x="622" y="-92" font-family="Helvetica,sans-Serif" font-size="10.00">AP_InertialSensor::</text>
<text text-anchor="middle" x="664.5" y="-81" font-family="Helvetica,sans-Serif" font-size="10.00">get_acal</text>
</a>
</g>
</g>
<!-- Node3&#45;&gt;Node4 -->
<g id="edge3" class="edge"><title>Node3&#45;&gt;Node4</title>
<path fill="none" stroke="midnightblue" d="M568.862,-89C583.742,-89 599.53,-89 613.858,-89"/>
<polygon fill="midnightblue" stroke="midnightblue" points="568.735,-85.5001 558.735,-89 568.735,-92.5001 568.735,-85.5001"/>
</g>
<!-- Node7 -->
<g id="node7" class="node"><title>Node7</title>
<g id="a_node7"><a xlink:href="classAP__AccelCal.html#a5a2c8a471866eff24b340cc9680f9868" target="_top" xlink:title="AP_AccelCal::update">
<polygon fill="white" stroke="black" points="292,-36.5 292,-55.5 402,-55.5 402,-36.5 292,-36.5"/>
<text text-anchor="middle" x="347" y="-43.5" font-family="Helvetica,sans-Serif" font-size="10.00">AP_AccelCal::update</text>
</a>
</g>
</g>
<!-- Node6&#45;&gt;Node7 -->
<g id="edge6" class="edge"><title>Node6&#45;&gt;Node7</title>
<path fill="none" stroke="midnightblue" d="M247.146,-21.9543C266.538,-26.6714 288.507,-32.0151 306.801,-36.4651"/>
<polygon fill="midnightblue" stroke="midnightblue" points="247.817,-18.5156 237.273,-19.5528 246.162,-25.3173 247.817,-18.5156"/>
</g>
<!-- Node7&#45;&gt;Node3 -->
<g id="edge8" class="edge"><title>Node7&#45;&gt;Node3</title>
<path fill="none" stroke="midnightblue" d="M393.103,-58.1976C413.143,-63.6172 436.795,-70.0138 457.339,-75.5696"/>
<polygon fill="midnightblue" stroke="midnightblue" points="393.854,-54.7752 383.287,-55.5431 392.027,-61.5324 393.854,-54.7752"/>
</g>
<!-- Node7&#45;&gt;Node5 -->
<g id="edge7" class="edge"><title>Node7&#45;&gt;Node5</title>
<path fill="none" stroke="midnightblue" d="M412.35,-45.5953C420.727,-45.5426 429.337,-45.4884 437.789,-45.4353"/>
<polygon fill="midnightblue" stroke="midnightblue" points="412.252,-42.0957 402.274,-45.6587 412.296,-49.0956 412.252,-42.0957"/>
</g>
<!-- Node8&#45;&gt;Node7 -->
<g id="edge10" class="edge"><title>Node8&#45;&gt;Node7</title>
<path fill="none" stroke="midnightblue" d="M266.151,-47.079C274.807,-46.9621 283.569,-46.8437 291.962,-46.7302"/>
<polygon fill="midnightblue" stroke="midnightblue" points="266.02,-43.5804 256.069,-47.2153 266.115,-50.5797 266.02,-43.5804"/>
</g>
</g>
</svg>
