<?xml version="1.0" encoding="UTF-8" standalone="no"?>
<!DOCTYPE svg PUBLIC "-//W3C//DTD SVG 1.1//EN"
 "http://www.w3.org/Graphics/SVG/1.1/DTD/svg11.dtd">
<!-- Generated by graphviz version 2.38.0 (20140413.2041)
 -->
<!-- Title: SITL::XPlane Pages: 1 -->
<!--zoomable 455 -->
<svg id="main" version="1.1" xmlns="http://www.w3.org/2000/svg" xmlns:xlink="http://www.w3.org/1999/xlink" xml:space="preserve" onload="init(evt)">
<style type="text/css"><![CDATA[
.edge:hover path { stroke: red; }
.edge:hover polygon { stroke: red; fill: red; }
]]></style>
<script type="text/javascript"><![CDATA[
var edges = document.getElementsByTagName('g');
if (edges && edges.length) {
  for (var i=0;i<edges.length;i++) {
    if (edges[i].id.substr(0,4)=='edge') {
      edges[i].setAttribute('class','edge');
    }
  }
}
]]></script>
        <defs>
                <circle id="rim" cx="0" cy="0" r="7"/>
                <circle id="rim2" cx="0" cy="0" r="3.5"/>
                <g id="zoomPlus">
                        <use xlink:href="#rim" fill="#404040">
                                <set attributeName="fill" to="#808080" begin="zoomplus.mouseover" end="zoomplus.mouseout"/>
                        </use>
                        <path d="M-4,0h8M0,-4v8" fill="none" stroke="white" stroke-width="1.5" pointer-events="none"/>
                </g>
                <g id="zoomMin">
                        <use xlink:href="#rim" fill="#404040">
                                <set attributeName="fill" to="#808080" begin="zoomminus.mouseover" end="zoomminus.mouseout"/>
                        </use>
                        <path d="M-4,0h8" fill="none" stroke="white" stroke-width="1.5" pointer-events="none"/>
                </g>
                <g id="dirArrow">
                        <path fill="none" stroke="white" stroke-width="1.5" d="M0,-3.0v7 M-2.5,-0.5L0,-3.0L2.5,-0.5"/>
                </g>
               <g id="resetDef">
                       <use xlink:href="#rim2" fill="#404040">
                               <set attributeName="fill" to="#808080" begin="reset.mouseover" end="reset.mouseout"/>
                       </use>
               </g>
        </defs>

<script type="text/javascript">
var viewWidth = 704;
var viewHeight = 455;
var sectionId = 'dynsection-1';
</script>
<script xlink:href="svgpan.js"/>
<svg id="graph" class="graph">
<g id="viewport">
<title>SITL::XPlane</title>
<polygon fill="white" stroke="none" points="-4,4 -4,-451 700,-451 700,4 -4,4"/>
<!-- Node1 -->
<g id="node1" class="node"><title>Node1</title>
<polygon fill="#bfbfbf" stroke="black" points="18.5,-0.5 18.5,-19.5 93.5,-19.5 93.5,-0.5 18.5,-0.5"/>
<text text-anchor="middle" x="56" y="-7.5" font-family="Helvetica,sans-Serif" font-size="10.00">SITL::XPlane</text>
</g>
<!-- Node2 -->
<g id="node2" class="node"><title>Node2</title>
<g id="a_node2"><a xlink:href="classSITL_1_1Aircraft.html" target="_top" xlink:title="SITL::Aircraft">
<polygon fill="white" stroke="black" points="162.5,-57.5 162.5,-76.5 237.5,-76.5 237.5,-57.5 162.5,-57.5"/>
<text text-anchor="middle" x="200" y="-64.5" font-family="Helvetica,sans-Serif" font-size="10.00">SITL::Aircraft</text>
</a>
</g>
</g>
<!-- Node2&#45;&gt;Node1 -->
<g id="edge1" class="edge"><title>Node2&#45;&gt;Node1</title>
<path fill="none" stroke="midnightblue" d="M168.022,-53.7862C140.794,-43.3864 102.373,-28.7119 78.342,-19.5334"/>
<polygon fill="midnightblue" stroke="midnightblue" points="166.909,-57.1078 177.5,-57.4062 169.407,-50.5685 166.909,-57.1078"/>
</g>
<!-- Node3 -->
<g id="node3" class="node"><title>Node3</title>
<g id="a_node3"><a xlink:href="classMatrix3.html" target="_top" xlink:title="Matrix3\&lt; float \&gt;">
<polygon fill="white" stroke="black" points="141,-237 141,-256 227,-256 227,-237 141,-237"/>
<text text-anchor="middle" x="184" y="-244" font-family="Helvetica,sans-Serif" font-size="10.00">Matrix3&lt; float &gt;</text>
</a>
</g>
</g>
<!-- Node3&#45;&gt;Node2 -->
<g id="edge2" class="edge"><title>Node3&#45;&gt;Node2</title>
<path fill="none" stroke="#9a32cd" stroke-dasharray="5,2" d="M185.403,-226.655C187.072,-204.651 190.01,-167.166 193,-135 194.948,-114.039 197.618,-89.4306 199.031,-76.6668"/>
<polygon fill="#9a32cd" stroke="#9a32cd" points="181.893,-226.663 184.633,-236.898 188.873,-227.188 181.893,-226.663"/>
<text text-anchor="middle" x="221.5" y="-149" font-family="Helvetica,sans-Serif" font-size="10.00"> rotation_b2e</text>
<text text-anchor="middle" x="221.5" y="-138" font-family="Helvetica,sans-Serif" font-size="10.00">dcm</text>
</g>
<!-- Node4 -->
<g id="node4" class="node"><title>Node4</title>
<g id="a_node4"><a xlink:href="classVector3.html" target="_top" xlink:title="Vector3\&lt; float \&gt;">
<polygon fill="white" stroke="black" points="61.5,-427.5 61.5,-446.5 148.5,-446.5 148.5,-427.5 61.5,-427.5"/>
<text text-anchor="middle" x="105" y="-434.5" font-family="Helvetica,sans-Serif" font-size="10.00">Vector3&lt; float &gt;</text>
</a>
</g>
</g>
<!-- Node4&#45;&gt;Node1 -->
<g id="edge14" class="edge"><title>Node4&#45;&gt;Node1</title>
<path fill="none" stroke="#9a32cd" stroke-dasharray="5,2" d="M70.0411,-423.453C39.4959,-409.982 0,-385.344 0,-348 0,-348 0,-348 0,-66 0,-44.4692 21.3315,-28.5649 37.6635,-19.5433"/>
<polygon fill="#9a32cd" stroke="#9a32cd" points="69.0059,-426.813 79.5824,-427.436 71.7026,-420.354 69.0059,-426.813"/>
<text text-anchor="middle" x="29" y="-149" font-family="Helvetica,sans-Serif" font-size="10.00"> accel_earth</text>
<text text-anchor="middle" x="29" y="-138" font-family="Helvetica,sans-Serif" font-size="10.00">position_zero</text>
</g>
<!-- Node4&#45;&gt;Node2 -->
<g id="edge11" class="edge"><title>Node4&#45;&gt;Node2</title>
<path fill="none" stroke="#9a32cd" stroke-dasharray="5,2" d="M97.6999,-418.084C81.0591,-374.347 44.5451,-259.524 82,-175 103.063,-127.468 156.828,-92.0426 183.904,-76.5768"/>
<polygon fill="#9a32cd" stroke="#9a32cd" points="94.4439,-419.368 101.358,-427.395 100.959,-416.808 94.4439,-419.368"/>
<text text-anchor="middle" x="107" y="-310" font-family="Helvetica,sans-Serif" font-size="10.00"> mag_bf</text>
<text text-anchor="middle" x="107" y="-299" font-family="Helvetica,sans-Serif" font-size="10.00">velocity_ef</text>
<text text-anchor="middle" x="107" y="-288" font-family="Helvetica,sans-Serif" font-size="10.00">position</text>
<text text-anchor="middle" x="107" y="-277" font-family="Helvetica,sans-Serif" font-size="10.00">wind_ef</text>
<text text-anchor="start" x="82" y="-266" font-family="Helvetica,sans-Serif" font-size="10.00">velocity_air</text>
<text text-anchor="middle" x="107" y="-255" font-family="Helvetica,sans-Serif" font-size="10.00">_bf</text>
<text text-anchor="middle" x="107" y="-244" font-family="Helvetica,sans-Serif" font-size="10.00">gyro_prev</text>
<text text-anchor="start" x="82" y="-233" font-family="Helvetica,sans-Serif" font-size="10.00">velocity_air</text>
<text text-anchor="middle" x="107" y="-222" font-family="Helvetica,sans-Serif" font-size="10.00">_ef</text>
<text text-anchor="middle" x="107" y="-211" font-family="Helvetica,sans-Serif" font-size="10.00">ang_accel</text>
<text text-anchor="middle" x="107" y="-200" font-family="Helvetica,sans-Serif" font-size="10.00">gyro</text>
<text text-anchor="middle" x="107" y="-189" font-family="Helvetica,sans-Serif" font-size="10.00">accel_body</text>
<text text-anchor="middle" x="107" y="-178" font-family="Helvetica,sans-Serif" font-size="10.00">...</text>
</g>
<!-- Node4&#45;&gt;Node3 -->
<g id="edge3" class="edge"><title>Node4&#45;&gt;Node3</title>
<path fill="none" stroke="#9a32cd" stroke-dasharray="5,2" d="M110.588,-417.646C114.36,-405.679 119.618,-389.782 125,-376 143.038,-329.81 169.344,-276.507 179.64,-256.075"/>
<polygon fill="#9a32cd" stroke="#9a32cd" points="107.195,-416.77 107.579,-427.358 113.882,-418.841 107.195,-416.77"/>
<text text-anchor="middle" x="129.5" y="-401" font-family="Helvetica,sans-Serif" font-size="10.00"> a</text>
<text text-anchor="middle" x="129.5" y="-390" font-family="Helvetica,sans-Serif" font-size="10.00">b</text>
<text text-anchor="middle" x="129.5" y="-379" font-family="Helvetica,sans-Serif" font-size="10.00">c</text>
</g>
<!-- Node9 -->
<g id="node9" class="node"><title>Node9</title>
<g id="a_node9"><a xlink:href="structSITL_1_1sitl__fdm.html" target="_top" xlink:title="SITL::sitl_fdm">
<polygon fill="white" stroke="black" points="152,-337.5 152,-356.5 230,-356.5 230,-337.5 152,-337.5"/>
<text text-anchor="middle" x="191" y="-344.5" font-family="Helvetica,sans-Serif" font-size="10.00">SITL::sitl_fdm</text>
</a>
</g>
</g>
<!-- Node4&#45;&gt;Node9 -->
<g id="edge10" class="edge"><title>Node4&#45;&gt;Node9</title>
<path fill="none" stroke="#9a32cd" stroke-dasharray="5,2" d="M124.015,-420.737C128.388,-417.015 132.944,-412.961 137,-409 155.012,-391.411 174.083,-368.79 184.032,-356.639"/>
<polygon fill="#9a32cd" stroke="#9a32cd" points="121.472,-418.299 116.007,-427.375 125.94,-423.688 121.472,-418.299"/>
<text text-anchor="middle" x="200" y="-395.5" font-family="Helvetica,sans-Serif" font-size="10.00"> bodyMagField</text>
<text text-anchor="middle" x="200" y="-384.5" font-family="Helvetica,sans-Serif" font-size="10.00">angAccel</text>
</g>
<!-- Node5 -->
<g id="node5" class="node"><title>Node5</title>
<g id="a_node5"><a xlink:href="classLowPassFilter.html" target="_top" xlink:title="LowPassFilter\&lt; float \&gt;">
<polygon fill="white" stroke="black" points="399,-136.5 399,-155.5 515,-155.5 515,-136.5 399,-136.5"/>
<text text-anchor="middle" x="457" y="-143.5" font-family="Helvetica,sans-Serif" font-size="10.00">LowPassFilter&lt; float &gt;</text>
</a>
</g>
</g>
<!-- Node5&#45;&gt;Node2 -->
<g id="edge4" class="edge"><title>Node5&#45;&gt;Node2</title>
<path fill="none" stroke="#9a32cd" stroke-dasharray="5,2" d="M418.672,-133.517C366.689,-117.942 275.009,-90.4736 228.613,-76.5728"/>
<polygon fill="#9a32cd" stroke="#9a32cd" points="417.931,-136.948 428.515,-136.465 419.94,-130.243 417.931,-136.948"/>
<text text-anchor="middle" x="386" y="-103.5" font-family="Helvetica,sans-Serif" font-size="10.00"> servo_filter</text>
</g>
<!-- Node6 -->
<g id="node6" class="node"><title>Node6</title>
<g id="a_node6"><a xlink:href="classDigitalLPF.html" target="_top" xlink:title="DigitalLPF\&lt; float \&gt;">
<polygon fill="white" stroke="black" points="462.5,-337.5 462.5,-356.5 561.5,-356.5 561.5,-337.5 462.5,-337.5"/>
<text text-anchor="middle" x="512" y="-344.5" font-family="Helvetica,sans-Serif" font-size="10.00">DigitalLPF&lt; float &gt;</text>
</a>
</g>
</g>
<!-- Node6&#45;&gt;Node5 -->
<g id="edge5" class="edge"><title>Node6&#45;&gt;Node5</title>
<path fill="none" stroke="#9a32cd" stroke-dasharray="5,2" d="M506.906,-327.569C495.398,-285.932 467.749,-185.89 459.416,-155.743"/>
<polygon fill="#9a32cd" stroke="#9a32cd" points="503.599,-328.743 509.637,-337.449 510.346,-326.878 503.599,-328.743"/>
<text text-anchor="middle" x="519" y="-244" font-family="Helvetica,sans-Serif" font-size="10.00"> _filter</text>
</g>
<!-- Node7 -->
<g id="node7" class="node"><title>Node7</title>
<g id="a_node7"><a xlink:href="classSITL_1_1SITL.html" target="_top" xlink:title="SITL::SITL">
<polygon fill="white" stroke="black" points="259.5,-136.5 259.5,-155.5 324.5,-155.5 324.5,-136.5 259.5,-136.5"/>
<text text-anchor="middle" x="292" y="-143.5" font-family="Helvetica,sans-Serif" font-size="10.00">SITL::SITL</text>
</a>
</g>
</g>
<!-- Node7&#45;&gt;Node2 -->
<g id="edge6" class="edge"><title>Node7&#45;&gt;Node2</title>
<path fill="none" stroke="#9a32cd" stroke-dasharray="5,2" d="M274.122,-130.037C255.103,-114.119 225.675,-89.489 210.243,-76.5728"/>
<polygon fill="#9a32cd" stroke="#9a32cd" points="271.888,-132.731 281.803,-136.465 276.381,-127.363 271.888,-132.731"/>
<text text-anchor="middle" x="265" y="-103.5" font-family="Helvetica,sans-Serif" font-size="10.00"> sitl</text>
</g>
<!-- Node8 -->
<g id="node8" class="node"><title>Node8</title>
<g id="a_node8"><a xlink:href="structAP__Param_1_1GroupInfo.html" target="_top" xlink:title="AP_Param::GroupInfo">
<polygon fill="white" stroke="black" points="248.5,-337.5 248.5,-356.5 361.5,-356.5 361.5,-337.5 248.5,-337.5"/>
<text text-anchor="middle" x="305" y="-344.5" font-family="Helvetica,sans-Serif" font-size="10.00">AP_Param::GroupInfo</text>
</a>
</g>
</g>
<!-- Node8&#45;&gt;Node7 -->
<g id="edge7" class="edge"><title>Node8&#45;&gt;Node7</title>
<path fill="none" stroke="#9a32cd" stroke-dasharray="5,2" d="M303.778,-327.302C301.048,-285.506 294.536,-185.826 292.571,-155.743"/>
<polygon fill="#9a32cd" stroke="#9a32cd" points="300.297,-327.699 304.441,-337.449 307.282,-327.242 300.297,-327.699"/>
<text text-anchor="middle" x="323" y="-244" font-family="Helvetica,sans-Serif" font-size="10.00"> var_info</text>
</g>
<!-- Node8&#45;&gt;Node8 -->
<g id="edge8" class="edge"><title>Node8&#45;&gt;Node8</title>
<path fill="none" stroke="#9a32cd" stroke-dasharray="5,2" d="M371.488,-353.15C376.452,-351.775 379.5,-349.725 379.5,-347 379.5,-342.746 372.072,-340.137 361.526,-339.173"/>
<polygon fill="#9a32cd" stroke="#9a32cd" points="370.806,-349.716 361.526,-354.827 371.968,-356.618 370.806,-349.716"/>
<text text-anchor="middle" x="412" y="-350" font-family="Helvetica,sans-Serif" font-size="10.00"> group_info_ptr</text>
<text text-anchor="middle" x="412" y="-339" font-family="Helvetica,sans-Serif" font-size="10.00">group_info</text>
</g>
<!-- Node9&#45;&gt;Node7 -->
<g id="edge9" class="edge"><title>Node9&#45;&gt;Node7</title>
<path fill="none" stroke="#9a32cd" stroke-dasharray="5,2" d="M216.552,-331.661C221.629,-327.8 226.473,-323.221 230,-318 266.625,-263.779 233.422,-232.307 265,-175 269.106,-167.548 275.711,-160.648 281.36,-155.563"/>
<polygon fill="#9a32cd" stroke="#9a32cd" points="214.297,-328.961 207.981,-337.468 218.223,-334.757 214.297,-328.961"/>
<text text-anchor="middle" x="277.5" y="-244" font-family="Helvetica,sans-Serif" font-size="10.00"> state</text>
</g>
<!-- Node10 -->
<g id="node10" class="node"><title>Node10</title>
<g id="a_node10"><a xlink:href="structLocation.html" target="_top" xlink:title="Location">
<polygon fill="white" stroke="black" points="572.5,-136.5 572.5,-155.5 625.5,-155.5 625.5,-136.5 572.5,-136.5"/>
<text text-anchor="middle" x="599" y="-143.5" font-family="Helvetica,sans-Serif" font-size="10.00">Location</text>
</a>
</g>
</g>
<!-- Node10&#45;&gt;Node2 -->
<g id="edge12" class="edge"><title>Node10&#45;&gt;Node2</title>
<path fill="none" stroke="#9a32cd" stroke-dasharray="5,2" d="M562.564,-133.394C525.891,-122.105 467.532,-105.207 416,-95 354.09,-82.7378 281.034,-74.984 237.72,-71.0748"/>
<polygon fill="#9a32cd" stroke="#9a32cd" points="561.721,-136.797 572.309,-136.419 563.796,-130.112 561.721,-136.797"/>
<text text-anchor="middle" x="520.5" y="-109" font-family="Helvetica,sans-Serif" font-size="10.00"> location</text>
<text text-anchor="middle" x="520.5" y="-98" font-family="Helvetica,sans-Serif" font-size="10.00">home</text>
</g>
<!-- Node11 -->
<g id="node11" class="node"><title>Node11</title>
<g id="a_node11"><a xlink:href="structLocation__Option__Flags.html" target="_top" xlink:title="Location_Option_Flags">
<polygon fill="white" stroke="black" points="580,-337.5 580,-356.5 696,-356.5 696,-337.5 580,-337.5"/>
<text text-anchor="middle" x="638" y="-344.5" font-family="Helvetica,sans-Serif" font-size="10.00">Location_Option_Flags</text>
</a>
</g>
</g>
<!-- Node11&#45;&gt;Node10 -->
<g id="edge13" class="edge"><title>Node11&#45;&gt;Node10</title>
<path fill="none" stroke="#9a32cd" stroke-dasharray="5,2" d="M634.388,-327.569C626.228,-285.932 606.622,-185.89 600.713,-155.743"/>
<polygon fill="#9a32cd" stroke="#9a32cd" points="630.966,-328.309 636.324,-337.449 637.836,-326.963 630.966,-328.309"/>
<text text-anchor="middle" x="645.5" y="-244" font-family="Helvetica,sans-Serif" font-size="10.00"> flags</text>
</g>
</g>
</svg>
        <g id="navigator" transform="translate(0 0)" fill="#404254">
                <rect fill="#f2f5e9" fill-opacity="0.5" stroke="#606060" stroke-width=".5" x="0" y="0" width="60" height="60"/>
                <use id="zoomplus" xlink:href="#zoomPlus" x="17" y="9" onmousedown="handleZoom(evt,'in')"/>
                <use id="zoomminus" xlink:href="#zoomMin" x="42" y="9" onmousedown="handleZoom(evt,'out')"/>
                <use id="reset" xlink:href="#resetDef" x="30" y="36" onmousedown="handleReset()"/>
                <g id="arrowUp" xlink:href="#dirArrow" transform="translate(30 24)" onmousedown="handlePan(0,-1)">
                  <use xlink:href="#rim" fill="#404040">
                        <set attributeName="fill" to="#808080" begin="arrowUp.mouseover" end="arrowUp.mouseout"/>
                  </use>
                  <path fill="none" stroke="white" stroke-width="1.5" d="M0,-3.0v7 M-2.5,-0.5L0,-3.0L2.5,-0.5"/>
                </g>
                <g id="arrowRight" xlink:href="#dirArrow" transform="rotate(90) translate(36 -43)" onmousedown="handlePan(1,0)">
                  <use xlink:href="#rim" fill="#404040">
                        <set attributeName="fill" to="#808080" begin="arrowRight.mouseover" end="arrowRight.mouseout"/>
                  </use>
                  <path fill="none" stroke="white" stroke-width="1.5" d="M0,-3.0v7 M-2.5,-0.5L0,-3.0L2.5,-0.5"/>
                </g>
                <g id="arrowDown" xlink:href="#dirArrow" transform="rotate(180) translate(-30 -48)" onmousedown="handlePan(0,1)">
                  <use xlink:href="#rim" fill="#404040">
                        <set attributeName="fill" to="#808080" begin="arrowDown.mouseover" end="arrowDown.mouseout"/>
                  </use>
                  <path fill="none" stroke="white" stroke-width="1.5" d="M0,-3.0v7 M-2.5,-0.5L0,-3.0L2.5,-0.5"/>
                </g>
                <g id="arrowLeft" xlink:href="#dirArrow" transform="rotate(270) translate(-36 17)" onmousedown="handlePan(-1,0)">
                  <use xlink:href="#rim" fill="#404040">
                        <set attributeName="fill" to="#808080" begin="arrowLeft.mouseover" end="arrowLeft.mouseout"/>
                  </use>
                  <path fill="none" stroke="white" stroke-width="1.5" d="M0,-3.0v7 M-2.5,-0.5L0,-3.0L2.5,-0.5"/>
                </g>
        </g>
        <svg viewBox="0 0 15 15" width="100%" height="30px" preserveAspectRatio="xMaxYMin meet">
         <g id="arrow_out" transform="scale(0.3 0.3)">
          <a xlink:href="classSITL_1_1XPlane__coll__graph_org.svg" target="_base">
           <rect id="button" ry="5" rx="5" y="6" x="6" height="38" width="38"
                fill="#f2f5e9" fill-opacity="0.5" stroke="#606060" stroke-width="1.0"/>
           <path id="arrow"
             d="M 11.500037,31.436501 C 11.940474,20.09759 22.043105,11.32322 32.158766,21.979434 L 37.068811,17.246167 C 37.068811,17.246167 37.088388,32 37.088388,32 L 22.160133,31.978069 C 22.160133,31.978069 26.997745,27.140456 26.997745,27.140456 C 18.528582,18.264221 13.291696,25.230495 11.500037,31.436501 z"
             style="fill:#404040;"/>
          </a>
         </g>
        </svg>
</svg>
