<?xml version="1.0" encoding="UTF-8" standalone="no"?>
<!DOCTYPE svg PUBLIC "-//W3C//DTD SVG 1.1//EN"
 "http://www.w3.org/Graphics/SVG/1.1/DTD/svg11.dtd">
<!-- Generated by graphviz version 2.38.0 (20140413.2041)
 -->
<!-- Title: Linux::Thread::stop Pages: 1 -->
<svg width="514pt" height="143pt"
 viewBox="0.00 0.00 514.00 143.00" xmlns="http://www.w3.org/2000/svg" xmlns:xlink="http://www.w3.org/1999/xlink">
<g id="graph0" class="graph" transform="scale(1 1) rotate(0) translate(4 139)">
<title>Linux::Thread::stop</title>
<polygon fill="white" stroke="none" points="-4,4 -4,-139 510,-139 510,4 -4,4"/>
<!-- Node1 -->
<g id="node1" class="node"><title>Node1</title>
<polygon fill="#bfbfbf" stroke="black" points="0,-55.5 0,-74.5 101,-74.5 101,-55.5 0,-55.5"/>
<text text-anchor="middle" x="50.5" y="-62.5" font-family="Helvetica,sans-Serif" font-size="10.00">Linux::Thread::stop</text>
</g>
<!-- Node2 -->
<g id="node2" class="node"><title>Node2</title>
<g id="a_node2"><a xlink:href="classLinux_1_1Thread.html#a32b7d184279634922e2f3b23b584fbcd" target="_top" xlink:title="Linux::Thread::join">
<polygon fill="white" stroke="black" points="139,-115.5 139,-134.5 236,-134.5 236,-115.5 139,-115.5"/>
<text text-anchor="middle" x="187.5" y="-122.5" font-family="Helvetica,sans-Serif" font-size="10.00">Linux::Thread::join</text>
</a>
</g>
</g>
<!-- Node1&#45;&gt;Node2 -->
<g id="edge1" class="edge"><title>Node1&#45;&gt;Node2</title>
<path fill="none" stroke="midnightblue" d="M72.8912,-74.5072C95.1742,-84.4107 130.299,-100.022 155.595,-111.265"/>
<polygon fill="midnightblue" stroke="midnightblue" points="154.202,-114.476 164.762,-115.339 157.045,-108.079 154.202,-114.476"/>
</g>
<!-- Node3 -->
<g id="node3" class="node"><title>Node3</title>
<g id="a_node3"><a xlink:href="classLinux_1_1Thread.html#a18067b247d564909ee4e17494be5116f" target="_top" xlink:title="Linux::Thread::_run\l_trampoline">
<polygon fill="white" stroke="black" points="137,-28 137,-58 238,-58 238,-28 137,-28"/>
<text text-anchor="start" x="145" y="-46" font-family="Helvetica,sans-Serif" font-size="10.00">Linux::Thread::_run</text>
<text text-anchor="middle" x="187.5" y="-35" font-family="Helvetica,sans-Serif" font-size="10.00">_trampoline</text>
</a>
</g>
</g>
<!-- Node1&#45;&gt;Node3 -->
<g id="edge2" class="edge"><title>Node1&#45;&gt;Node3</title>
<path fill="none" stroke="midnightblue" d="M101.002,-56.9329C109.332,-55.5755 118.056,-54.1539 126.614,-52.7592"/>
<polygon fill="midnightblue" stroke="midnightblue" points="127.245,-56.2027 136.552,-51.1397 126.119,-49.2938 127.245,-56.2027"/>
</g>
<!-- Node4 -->
<g id="node4" class="node"><title>Node4</title>
<g id="a_node4"><a xlink:href="classLinux_1_1Thread.html#a18e058f2fff1d040f82725cdd03278c1" target="_top" xlink:title="Linux::Thread::_poison\l_stack">
<polygon fill="white" stroke="black" points="274,-50 274,-80 390,-80 390,-50 274,-50"/>
<text text-anchor="start" x="282" y="-68" font-family="Helvetica,sans-Serif" font-size="10.00">Linux::Thread::_poison</text>
<text text-anchor="middle" x="332" y="-57" font-family="Helvetica,sans-Serif" font-size="10.00">_stack</text>
</a>
</g>
</g>
<!-- Node1&#45;&gt;Node4 -->
<g id="edge8" class="edge"><title>Node1&#45;&gt;Node4</title>
<path fill="none" stroke="midnightblue" d="M101.224,-67.0395C112.954,-67.439 125.417,-67.7968 137,-68 181.882,-68.7872 193.117,-68.7237 238,-68 246.359,-67.8652 255.138,-67.6623 263.827,-67.4244"/>
<polygon fill="midnightblue" stroke="midnightblue" points="264.06,-70.9192 273.955,-67.1309 263.858,-63.9221 264.06,-70.9192"/>
</g>
<!-- Node7 -->
<g id="node7" class="node"><title>Node7</title>
<g id="a_node7"><a xlink:href="classLinux_1_1Thread.html#accef76b1c9d5096cd4a16c679d3b6ff3" target="_top" xlink:title="Linux::Thread::_run">
<polygon fill="white" stroke="black" points="281.5,-0.5 281.5,-19.5 382.5,-19.5 382.5,-0.5 281.5,-0.5"/>
<text text-anchor="middle" x="332" y="-7.5" font-family="Helvetica,sans-Serif" font-size="10.00">Linux::Thread::_run</text>
</a>
</g>
</g>
<!-- Node1&#45;&gt;Node7 -->
<g id="edge7" class="edge"><title>Node1&#45;&gt;Node7</title>
<path fill="none" stroke="midnightblue" d="M64.2906,-55.4692C80.3235,-44.1366 109.099,-25.7794 137,-18 180.816,-5.78303 232.343,-4.22275 271.277,-5.47905"/>
<polygon fill="midnightblue" stroke="midnightblue" points="271.269,-8.98134 281.399,-5.87773 271.544,-1.98676 271.269,-8.98134"/>
</g>
<!-- Node3&#45;&gt;Node4 -->
<g id="edge3" class="edge"><title>Node3&#45;&gt;Node4</title>
<path fill="none" stroke="midnightblue" d="M238.34,-50.6945C246.531,-51.9592 255.139,-53.2881 263.671,-54.6054"/>
<polygon fill="midnightblue" stroke="midnightblue" points="263.207,-58.0751 273.624,-56.1419 264.275,-51.157 263.207,-58.0751"/>
</g>
<!-- Node3&#45;&gt;Node7 -->
<g id="edge6" class="edge"><title>Node3&#45;&gt;Node7</title>
<path fill="none" stroke="midnightblue" d="M238.34,-31.4582C251.771,-28.3479 266.32,-24.9784 279.823,-21.8515"/>
<polygon fill="midnightblue" stroke="midnightblue" points="280.956,-25.1818 289.909,-19.5159 279.377,-18.3623 280.956,-25.1818"/>
</g>
<!-- Node5 -->
<g id="node5" class="node"><title>Node5</title>
<g id="a_node5"><a xlink:href="namespaceLinux.html#aa34987ac24945c9252dbe37e6769381e" target="_top" xlink:title="Linux::align_to">
<polygon fill="white" stroke="black" points="426,-74.5 426,-93.5 506,-93.5 506,-74.5 426,-74.5"/>
<text text-anchor="middle" x="466" y="-81.5" font-family="Helvetica,sans-Serif" font-size="10.00">Linux::align_to</text>
</a>
</g>
</g>
<!-- Node4&#45;&gt;Node5 -->
<g id="edge4" class="edge"><title>Node4&#45;&gt;Node5</title>
<path fill="none" stroke="midnightblue" d="M390.129,-73.2232C398.65,-74.4496 407.371,-75.7049 415.711,-76.9053"/>
<polygon fill="midnightblue" stroke="midnightblue" points="415.259,-80.3763 425.655,-78.3368 416.256,-73.4477 415.259,-80.3763"/>
</g>
<!-- Node6 -->
<g id="node6" class="node"><title>Node6</title>
<g id="a_node6"><a xlink:href="matrix__alg_8cpp.html#a4ae7bd9da0bae1b05a7c352df26008ff" target="_top" xlink:title="swap">
<polygon fill="white" stroke="black" points="446,-36.5 446,-55.5 486,-55.5 486,-36.5 446,-36.5"/>
<text text-anchor="middle" x="466" y="-43.5" font-family="Helvetica,sans-Serif" font-size="10.00">swap</text>
</a>
</g>
</g>
<!-- Node4&#45;&gt;Node6 -->
<g id="edge5" class="edge"><title>Node4&#45;&gt;Node6</title>
<path fill="none" stroke="midnightblue" d="M390.129,-56.7768C405.854,-54.5135 422.262,-52.1517 435.696,-50.218"/>
<polygon fill="midnightblue" stroke="midnightblue" points="436.364,-53.658 445.763,-48.769 435.366,-46.7295 436.364,-53.658"/>
</g>
</g>
</svg>
