<?xml version="1.0" encoding="UTF-8" standalone="no"?>
<!DOCTYPE svg PUBLIC "-//W3C//DTD SVG 1.1//EN"
 "http://www.w3.org/Graphics/SVG/1.1/DTD/svg11.dtd">
<!-- Generated by graphviz version 2.38.0 (20140413.2041)
 -->
<!-- Title: Linux::UARTDriver::set_device_path Pages: 1 -->
<svg width="537pt" height="97pt"
 viewBox="0.00 0.00 537.00 96.50" xmlns="http://www.w3.org/2000/svg" xmlns:xlink="http://www.w3.org/1999/xlink">
<g id="graph0" class="graph" transform="scale(1 1) rotate(0) translate(4 92.5)">
<title>Linux::UARTDriver::set_device_path</title>
<polygon fill="white" stroke="none" points="-4,4 -4,-92.5 533,-92.5 533,4 -4,4"/>
<!-- Node1 -->
<g id="node1" class="node"><title>Node1</title>
<polygon fill="#bfbfbf" stroke="black" points="0,-14 0,-44 106,-44 106,-14 0,-14"/>
<text text-anchor="start" x="8" y="-32" font-family="Helvetica,sans-Serif" font-size="10.00">Linux::UARTDriver::</text>
<text text-anchor="middle" x="53" y="-21" font-family="Helvetica,sans-Serif" font-size="10.00">set_device_path</text>
</g>
<!-- Node2 -->
<g id="node2" class="node"><title>Node2</title>
<g id="a_node2"><a xlink:href="classLinux_1_1UARTDriver.html#aed6da29eabfa644dd9996146ac367ee9" target="_top" xlink:title="Linux::UARTDriver::from">
<polygon fill="white" stroke="black" points="142,-38.5 142,-57.5 267,-57.5 267,-38.5 142,-38.5"/>
<text text-anchor="middle" x="204.5" y="-45.5" font-family="Helvetica,sans-Serif" font-size="10.00">Linux::UARTDriver::from</text>
</a>
</g>
</g>
<!-- Node1&#45;&gt;Node2 -->
<g id="edge1" class="edge"><title>Node1&#45;&gt;Node2</title>
<path fill="none" stroke="midnightblue" d="M116.383,-36.9283C124.771,-37.9943 133.372,-39.0874 141.748,-40.152"/>
<polygon fill="midnightblue" stroke="midnightblue" points="116.649,-33.4341 106.288,-35.6453 115.767,-40.3782 116.649,-33.4341"/>
</g>
<!-- Node6 -->
<g id="node6" class="node"><title>Node6</title>
<g id="a_node6"><a xlink:href="classHAL__Linux.html#a9b8394eb66ea6d3d5539aaaf47c3bf80" target="_top" xlink:title="HAL_Linux::run">
<polygon fill="white" stroke="black" points="162.5,-0.5 162.5,-19.5 246.5,-19.5 246.5,-0.5 162.5,-0.5"/>
<text text-anchor="middle" x="204.5" y="-7.5" font-family="Helvetica,sans-Serif" font-size="10.00">HAL_Linux::run</text>
</a>
</g>
</g>
<!-- Node1&#45;&gt;Node6 -->
<g id="edge5" class="edge"><title>Node1&#45;&gt;Node6</title>
<path fill="none" stroke="midnightblue" d="M116.347,-21.0763C131.859,-19.1049 148.104,-17.0403 162.308,-15.235"/>
<polygon fill="midnightblue" stroke="midnightblue" points="115.767,-17.6218 106.288,-22.3547 116.649,-24.5659 115.767,-17.6218"/>
</g>
<!-- Node3 -->
<g id="node3" class="node"><title>Node3</title>
<g id="a_node3"><a xlink:href="classLinux_1_1Scheduler.html#a3ebfa13ef10767a5df98effbaecf4dc6" target="_top" xlink:title="Linux::Scheduler::\l_run_uarts">
<polygon fill="white" stroke="black" points="303,-33 303,-63 398,-63 398,-33 303,-33"/>
<text text-anchor="start" x="311" y="-51" font-family="Helvetica,sans-Serif" font-size="10.00">Linux::Scheduler::</text>
<text text-anchor="middle" x="350.5" y="-40" font-family="Helvetica,sans-Serif" font-size="10.00">_run_uarts</text>
</a>
</g>
</g>
<!-- Node2&#45;&gt;Node3 -->
<g id="edge2" class="edge"><title>Node2&#45;&gt;Node3</title>
<path fill="none" stroke="midnightblue" d="M277.498,-48C286.12,-48 294.743,-48 302.872,-48"/>
<polygon fill="midnightblue" stroke="midnightblue" points="277.405,-44.5001 267.405,-48 277.405,-51.5001 277.405,-44.5001"/>
</g>
<!-- Node4 -->
<g id="node4" class="node"><title>Node4</title>
<g id="a_node4"><a xlink:href="classLinux_1_1Scheduler.html#a78a6776a646f8e58f5f39cf2ce366608" target="_top" xlink:title="Linux::Scheduler::\l_timer_task">
<polygon fill="white" stroke="black" points="434,-58 434,-88 529,-88 529,-58 434,-58"/>
<text text-anchor="start" x="442" y="-76" font-family="Helvetica,sans-Serif" font-size="10.00">Linux::Scheduler::</text>
<text text-anchor="middle" x="481.5" y="-65" font-family="Helvetica,sans-Serif" font-size="10.00">_timer_task</text>
</a>
</g>
</g>
<!-- Node3&#45;&gt;Node4 -->
<g id="edge3" class="edge"><title>Node3&#45;&gt;Node4</title>
<path fill="none" stroke="midnightblue" d="M408.101,-58.9692C416.752,-60.6458 425.596,-62.3596 433.996,-63.9877"/>
<polygon fill="midnightblue" stroke="midnightblue" points="408.555,-55.4922 398.072,-57.0256 407.223,-62.3643 408.555,-55.4922"/>
</g>
<!-- Node5 -->
<g id="node5" class="node"><title>Node5</title>
<g id="a_node5"><a xlink:href="classLinux_1_1Scheduler.html#a12c87a7eeda735d03129826c4acb039b" target="_top" xlink:title="Linux::Scheduler::\l_uart_task">
<polygon fill="white" stroke="black" points="434,-9 434,-39 529,-39 529,-9 434,-9"/>
<text text-anchor="start" x="442" y="-27" font-family="Helvetica,sans-Serif" font-size="10.00">Linux::Scheduler::</text>
<text text-anchor="middle" x="481.5" y="-16" font-family="Helvetica,sans-Serif" font-size="10.00">_uart_task</text>
</a>
</g>
</g>
<!-- Node3&#45;&gt;Node5 -->
<g id="edge4" class="edge"><title>Node3&#45;&gt;Node5</title>
<path fill="none" stroke="midnightblue" d="M408.101,-37.4696C416.752,-35.8601 425.596,-34.2148 433.996,-32.6518"/>
<polygon fill="midnightblue" stroke="midnightblue" points="407.263,-34.0653 398.072,-39.3354 408.543,-40.9472 407.263,-34.0653"/>
</g>
</g>
</svg>
