<?xml version="1.0" encoding="UTF-8" standalone="no"?>
<!DOCTYPE svg PUBLIC "-//W3C//DTD SVG 1.1//EN"
 "http://www.w3.org/Graphics/SVG/1.1/DTD/svg11.dtd">
<!-- Generated by graphviz version 2.38.0 (20140413.2041)
 -->
<!-- Title: AP_Mission::advance_current_do_cmd Pages: 1 -->
<svg width="1160pt" height="578pt"
 viewBox="0.00 0.00 1160.00 578.00" xmlns="http://www.w3.org/2000/svg" xmlns:xlink="http://www.w3.org/1999/xlink">
<g id="graph0" class="graph" transform="scale(1 1) rotate(0) translate(4 574)">
<title>AP_Mission::advance_current_do_cmd</title>
<polygon fill="white" stroke="none" points="-4,4 -4,-574 1156,-574 1156,4 -4,4"/>
<!-- Node1 -->
<g id="node1" class="node"><title>Node1</title>
<polygon fill="#bfbfbf" stroke="black" points="0,-119.5 0,-149.5 112,-149.5 112,-119.5 0,-119.5"/>
<text text-anchor="start" x="8" y="-137.5" font-family="Helvetica,sans-Serif" font-size="10.00">AP_Mission::advance</text>
<text text-anchor="middle" x="56" y="-126.5" font-family="Helvetica,sans-Serif" font-size="10.00">_current_do_cmd</text>
</g>
<!-- Node2 -->
<g id="node2" class="node"><title>Node2</title>
<g id="a_node2"><a xlink:href="classAP__Mission.html#ad27b4531fa652b277bd9300b60ca4493" target="_top" xlink:title="AP_Mission::update">
<polygon fill="white" stroke="black" points="148,-125 148,-144 252,-144 252,-125 148,-125"/>
<text text-anchor="middle" x="200" y="-132" font-family="Helvetica,sans-Serif" font-size="10.00">AP_Mission::update</text>
</a>
</g>
</g>
<!-- Node1&#45;&gt;Node2 -->
<g id="edge1" class="edge"><title>Node1&#45;&gt;Node2</title>
<path fill="none" stroke="midnightblue" d="M122.554,-134.5C131.023,-134.5 139.597,-134.5 147.788,-134.5"/>
<polygon fill="midnightblue" stroke="midnightblue" points="122.308,-131 112.308,-134.5 122.307,-138 122.308,-131"/>
</g>
<!-- Node3 -->
<g id="node3" class="node"><title>Node3</title>
<g id="a_node3"><a xlink:href="classAP__Mission.html#a3d45d873b8f9e2ebf0d020ce26db957d" target="_top" xlink:title="AP_Mission::num_commands">
<polygon fill="white" stroke="black" points="288,-349 288,-368 435,-368 435,-349 288,-349"/>
<text text-anchor="middle" x="361.5" y="-356" font-family="Helvetica,sans-Serif" font-size="10.00">AP_Mission::num_commands</text>
</a>
</g>
</g>
<!-- Node2&#45;&gt;Node3 -->
<g id="edge2" class="edge"><title>Node2&#45;&gt;Node3</title>
<path fill="none" stroke="midnightblue" d="M213.718,-152.361C245.804,-197.422 329.224,-314.576 353.672,-348.911"/>
<polygon fill="midnightblue" stroke="midnightblue" points="216.505,-150.241 207.854,-144.125 210.803,-154.301 216.505,-150.241"/>
</g>
<!-- Node10 -->
<g id="node10" class="node"><title>Node10</title>
<g id="a_node10"><a xlink:href="classMissionTest.html#a2161685b1b75329ff76bc4243518212d" target="_top" xlink:title="MissionTest::run_mission_test">
<polygon fill="white" stroke="black" points="645.5,-196 645.5,-215 795.5,-215 795.5,-196 645.5,-196"/>
<text text-anchor="middle" x="720.5" y="-203" font-family="Helvetica,sans-Serif" font-size="10.00">MissionTest::run_mission_test</text>
</a>
</g>
</g>
<!-- Node2&#45;&gt;Node10 -->
<g id="edge27" class="edge"><title>Node2&#45;&gt;Node10</title>
<path fill="none" stroke="midnightblue" d="M233.352,-147.709C249.509,-153.774 269.509,-160.493 288,-164.5 411.553,-191.273 558.775,-200.564 645.389,-203.788"/>
<polygon fill="midnightblue" stroke="midnightblue" points="234.427,-144.372 223.837,-144.047 231.913,-150.905 234.427,-144.372"/>
</g>
<!-- Node13 -->
<g id="node13" class="node"><title>Node13</title>
<g id="a_node13"><a xlink:href="classMissionTest.html#af8b75f25f2b1c7fdd51ab19c4ee42ec8" target="_top" xlink:title="MissionTest::run_resume_test">
<polygon fill="white" stroke="black" points="646,-157 646,-176 795,-176 795,-157 646,-157"/>
<text text-anchor="middle" x="720.5" y="-164" font-family="Helvetica,sans-Serif" font-size="10.00">MissionTest::run_resume_test</text>
</a>
</g>
</g>
<!-- Node2&#45;&gt;Node13 -->
<g id="edge28" class="edge"><title>Node2&#45;&gt;Node13</title>
<path fill="none" stroke="midnightblue" d="M262.413,-140.954C317.09,-146.463 399.289,-154.162 471,-158.5 529.705,-162.051 596.312,-164.088 645.782,-165.217"/>
<polygon fill="midnightblue" stroke="midnightblue" points="262.496,-137.445 252.194,-139.918 261.79,-144.409 262.496,-137.445"/>
</g>
<!-- Node14 -->
<g id="node14" class="node"><title>Node14</title>
<g id="a_node14"><a xlink:href="classMissionTest.html#a16309b0065fe78128c95f5f8cc5f210e" target="_top" xlink:title="MissionTest::run_set\l_current_cmd_test">
<polygon fill="white" stroke="black" points="666.5,-102.5 666.5,-132.5 774.5,-132.5 774.5,-102.5 666.5,-102.5"/>
<text text-anchor="start" x="674.5" y="-120.5" font-family="Helvetica,sans-Serif" font-size="10.00">MissionTest::run_set</text>
<text text-anchor="middle" x="720.5" y="-109.5" font-family="Helvetica,sans-Serif" font-size="10.00">_current_cmd_test</text>
</a>
</g>
</g>
<!-- Node2&#45;&gt;Node14 -->
<g id="edge29" class="edge"><title>Node2&#45;&gt;Node14</title>
<path fill="none" stroke="midnightblue" d="M262.374,-127.189C317.027,-121.068 399.211,-112.816 471,-109.5 529.16,-106.813 543.811,-107.521 602,-109.5 623.048,-110.216 646.18,-111.651 666.311,-113.11"/>
<polygon fill="midnightblue" stroke="midnightblue" points="261.704,-123.742 252.161,-128.344 262.491,-130.698 261.704,-123.742"/>
</g>
<!-- Node15 -->
<g id="node15" class="node"><title>Node15</title>
<g id="a_node15"><a xlink:href="classMissionTest.html#aa5175c099befd271fcc279deb7e28b06" target="_top" xlink:title="MissionTest::run_set\l_current_cmd_while_stopped_test">
<polygon fill="white" stroke="black" points="638,-50.5 638,-80.5 803,-80.5 803,-50.5 638,-50.5"/>
<text text-anchor="start" x="646" y="-68.5" font-family="Helvetica,sans-Serif" font-size="10.00">MissionTest::run_set</text>
<text text-anchor="middle" x="720.5" y="-57.5" font-family="Helvetica,sans-Serif" font-size="10.00">_current_cmd_while_stopped_test</text>
</a>
</g>
</g>
<!-- Node2&#45;&gt;Node15 -->
<g id="edge30" class="edge"><title>Node2&#45;&gt;Node15</title>
<path fill="none" stroke="midnightblue" d="M237.745,-121.821C253.109,-116.966 271.253,-111.805 288,-108.5 408.391,-84.7387 550.406,-73.8033 637.701,-68.9939"/>
<polygon fill="midnightblue" stroke="midnightblue" points="236.529,-118.536 228.092,-124.945 238.684,-125.196 236.529,-118.536"/>
</g>
<!-- Node16 -->
<g id="node16" class="node"><title>Node16</title>
<g id="a_node16"><a xlink:href="classMissionTest.html#a4b79b27fab75a4a63dc41e09a16a5442" target="_top" xlink:title="MissionTest::run_replace\l_cmd_test">
<polygon fill="white" stroke="black" points="657.5,-0.5 657.5,-30.5 783.5,-30.5 783.5,-0.5 657.5,-0.5"/>
<text text-anchor="start" x="665.5" y="-18.5" font-family="Helvetica,sans-Serif" font-size="10.00">MissionTest::run_replace</text>
<text text-anchor="middle" x="720.5" y="-7.5" font-family="Helvetica,sans-Serif" font-size="10.00">_cmd_test</text>
</a>
</g>
</g>
<!-- Node2&#45;&gt;Node16 -->
<g id="edge31" class="edge"><title>Node2&#45;&gt;Node16</title>
<path fill="none" stroke="midnightblue" d="M222.358,-118.899C239.316,-107.297 264.074,-92.0515 288,-83.5 414.223,-38.3866 571.843,-23.1533 657.335,-18.0452"/>
<polygon fill="midnightblue" stroke="midnightblue" points="219.973,-116.297 213.794,-124.904 223.992,-122.028 219.973,-116.297"/>
</g>
<!-- Node4 -->
<g id="node4" class="node"><title>Node4</title>
<g id="a_node4"><a xlink:href="classAP__Mission.html#af895b228640bdf29178d44e00897d10e" target="_top" xlink:title="AP_Mission::get_landing\l_sequence_start">
<polygon fill="white" stroke="black" points="474,-441.5 474,-471.5 599,-471.5 599,-441.5 474,-441.5"/>
<text text-anchor="start" x="482" y="-459.5" font-family="Helvetica,sans-Serif" font-size="10.00">AP_Mission::get_landing</text>
<text text-anchor="middle" x="536.5" y="-448.5" font-family="Helvetica,sans-Serif" font-size="10.00">_sequence_start</text>
</a>
</g>
</g>
<!-- Node3&#45;&gt;Node4 -->
<g id="edge3" class="edge"><title>Node3&#45;&gt;Node4</title>
<path fill="none" stroke="midnightblue" d="M383.194,-374.47C404.411,-390.341 438.771,-414.68 471,-431.5 477.814,-435.056 485.252,-438.397 492.577,-441.407"/>
<polygon fill="midnightblue" stroke="midnightblue" points="385.038,-371.476 374.951,-368.233 380.814,-377.058 385.038,-371.476"/>
</g>
<!-- Node9 -->
<g id="node9" class="node"><title>Node9</title>
<g id="a_node9"><a xlink:href="classMissionTest.html#ab12c92170021b44ceb82f6808b92d8c7" target="_top" xlink:title="MissionTest::print\l_mission">
<polygon fill="white" stroke="black" points="489,-119.5 489,-149.5 584,-149.5 584,-119.5 489,-119.5"/>
<text text-anchor="start" x="497" y="-137.5" font-family="Helvetica,sans-Serif" font-size="10.00">MissionTest::print</text>
<text text-anchor="middle" x="536.5" y="-126.5" font-family="Helvetica,sans-Serif" font-size="10.00">_mission</text>
</a>
</g>
</g>
<!-- Node3&#45;&gt;Node9 -->
<g id="edge9" class="edge"><title>Node3&#45;&gt;Node9</title>
<path fill="none" stroke="midnightblue" d="M376.175,-340.794C409.2,-298.033 492.859,-189.711 523.779,-149.676"/>
<polygon fill="midnightblue" stroke="midnightblue" points="373.276,-338.821 369.934,-348.875 378.816,-343.1 373.276,-338.821"/>
</g>
<!-- Node17 -->
<g id="node17" class="node"><title>Node17</title>
<g id="a_node17"><a xlink:href="classMissionTest.html#a5dcc045a9ce939fcc7b0735550f92482" target="_top" xlink:title="MissionTest::run_max\l_cmd_test">
<polygon fill="white" stroke="black" points="480,-392.5 480,-422.5 593,-422.5 593,-392.5 480,-392.5"/>
<text text-anchor="start" x="488" y="-410.5" font-family="Helvetica,sans-Serif" font-size="10.00">MissionTest::run_max</text>
<text text-anchor="middle" x="536.5" y="-399.5" font-family="Helvetica,sans-Serif" font-size="10.00">_cmd_test</text>
</a>
</g>
</g>
<!-- Node3&#45;&gt;Node17 -->
<g id="edge17" class="edge"><title>Node3&#45;&gt;Node17</title>
<path fill="none" stroke="midnightblue" d="M406.159,-370.866C429.322,-377.426 457.969,-385.54 482.41,-392.463"/>
<polygon fill="midnightblue" stroke="midnightblue" points="406.842,-367.422 396.267,-368.064 404.935,-374.157 406.842,-367.422"/>
</g>
<!-- Node18 -->
<g id="node18" class="node"><title>Node18</title>
<g id="a_node18"><a xlink:href="classDataFlash__Backend.html#a570580fce5fc1f96a9cfd6bb75dd8705" target="_top" xlink:title="DataFlash_Backend::\lLog_Write_Mission_Cmd">
<polygon fill="white" stroke="black" points="473.5,-343.5 473.5,-373.5 599.5,-373.5 599.5,-343.5 473.5,-343.5"/>
<text text-anchor="start" x="481.5" y="-361.5" font-family="Helvetica,sans-Serif" font-size="10.00">DataFlash_Backend::</text>
<text text-anchor="middle" x="536.5" y="-350.5" font-family="Helvetica,sans-Serif" font-size="10.00">Log_Write_Mission_Cmd</text>
</a>
</g>
</g>
<!-- Node3&#45;&gt;Node18 -->
<g id="edge18" class="edge"><title>Node3&#45;&gt;Node18</title>
<path fill="none" stroke="midnightblue" d="M445.35,-358.5C454.823,-358.5 464.354,-358.5 473.489,-358.5"/>
<polygon fill="midnightblue" stroke="midnightblue" points="445.116,-355 435.116,-358.5 445.116,-362 445.116,-355"/>
</g>
<!-- Node22 -->
<g id="node22" class="node"><title>Node22</title>
<g id="a_node22"><a xlink:href="classGCS__MAVLINK.html#a8c7b2bf35d8b3e370ba291586ea09b71" target="_top" xlink:title="GCS_MAVLINK::handle\l_mission_request_list">
<polygon fill="white" stroke="black" points="475.5,-294.5 475.5,-324.5 597.5,-324.5 597.5,-294.5 475.5,-294.5"/>
<text text-anchor="start" x="483.5" y="-312.5" font-family="Helvetica,sans-Serif" font-size="10.00">GCS_MAVLINK::handle</text>
<text text-anchor="middle" x="536.5" y="-301.5" font-family="Helvetica,sans-Serif" font-size="10.00">_mission_request_list</text>
</a>
</g>
</g>
<!-- Node3&#45;&gt;Node22 -->
<g id="edge23" class="edge"><title>Node3&#45;&gt;Node22</title>
<path fill="none" stroke="midnightblue" d="M406.159,-346.134C429.322,-339.574 457.969,-331.46 482.41,-324.537"/>
<polygon fill="midnightblue" stroke="midnightblue" points="404.935,-342.843 396.267,-348.936 406.842,-349.578 404.935,-342.843"/>
</g>
<!-- Node23 -->
<g id="node23" class="node"><title>Node23</title>
<g id="a_node23"><a xlink:href="classGCS__MAVLINK.html#a3904d7894979bcbdc58083f39b1aa8da" target="_top" xlink:title="GCS_MAVLINK::handle\l_mission_request">
<polygon fill="white" stroke="black" points="475.5,-245.5 475.5,-275.5 597.5,-275.5 597.5,-245.5 475.5,-245.5"/>
<text text-anchor="start" x="483.5" y="-263.5" font-family="Helvetica,sans-Serif" font-size="10.00">GCS_MAVLINK::handle</text>
<text text-anchor="middle" x="536.5" y="-252.5" font-family="Helvetica,sans-Serif" font-size="10.00">_mission_request</text>
</a>
</g>
</g>
<!-- Node3&#45;&gt;Node23 -->
<g id="edge24" class="edge"><title>Node3&#45;&gt;Node23</title>
<path fill="none" stroke="midnightblue" d="M382.483,-342.676C403.579,-326.51 438.249,-301.442 471,-284.5 477.261,-281.261 484.062,-278.24 490.822,-275.509"/>
<polygon fill="midnightblue" stroke="midnightblue" points="380.335,-339.913 374.577,-348.806 384.624,-345.444 380.335,-339.913"/>
</g>
<!-- Node24 -->
<g id="node24" class="node"><title>Node24</title>
<g id="a_node24"><a xlink:href="classGCS__MAVLINK.html#add72083180081323352d4f701ae0d7d2" target="_top" xlink:title="GCS_MAVLINK::handle\l_mission_write_partial_list">
<polygon fill="white" stroke="black" points="471,-539.5 471,-569.5 602,-569.5 602,-539.5 471,-539.5"/>
<text text-anchor="start" x="479" y="-557.5" font-family="Helvetica,sans-Serif" font-size="10.00">GCS_MAVLINK::handle</text>
<text text-anchor="middle" x="536.5" y="-546.5" font-family="Helvetica,sans-Serif" font-size="10.00">_mission_write_partial_list</text>
</a>
</g>
</g>
<!-- Node3&#45;&gt;Node24 -->
<g id="edge25" class="edge"><title>Node3&#45;&gt;Node24</title>
<path fill="none" stroke="midnightblue" d="M369.76,-377.791C383.942,-412.995 418.595,-487.938 471,-530.5 475.174,-533.89 479.873,-536.829 484.784,-539.372"/>
<polygon fill="midnightblue" stroke="midnightblue" points="372.92,-376.261 366.019,-368.222 366.4,-378.81 372.92,-376.261"/>
</g>
<!-- Node25 -->
<g id="node25" class="node"><title>Node25</title>
<g id="a_node25"><a xlink:href="classGCS__MAVLINK.html#a143a91427102a9aea995d10bad67f435" target="_top" xlink:title="GCS_MAVLINK::handle\l_mission_item">
<polygon fill="white" stroke="black" points="475.5,-490.5 475.5,-520.5 597.5,-520.5 597.5,-490.5 475.5,-490.5"/>
<text text-anchor="start" x="483.5" y="-508.5" font-family="Helvetica,sans-Serif" font-size="10.00">GCS_MAVLINK::handle</text>
<text text-anchor="middle" x="536.5" y="-497.5" font-family="Helvetica,sans-Serif" font-size="10.00">_mission_item</text>
</a>
</g>
</g>
<!-- Node3&#45;&gt;Node25 -->
<g id="edge26" class="edge"><title>Node3&#45;&gt;Node25</title>
<path fill="none" stroke="midnightblue" d="M374.457,-376.721C392.512,-402.96 429.11,-451.419 471,-480.5 476.426,-484.267 482.498,-487.569 488.687,-490.432"/>
<polygon fill="midnightblue" stroke="midnightblue" points="377.161,-374.471 368.668,-368.136 371.357,-378.384 377.161,-374.471"/>
</g>
<!-- Node5 -->
<g id="node5" class="node"><title>Node5</title>
<g id="a_node5"><a xlink:href="classAP__Landing.html#a4cb652398231c274e6061aa6b211366b" target="_top" xlink:title="AP_Landing::restart\l_landing_sequence">
<polygon fill="white" stroke="black" points="669,-490.5 669,-520.5 772,-520.5 772,-490.5 669,-490.5"/>
<text text-anchor="start" x="677" y="-508.5" font-family="Helvetica,sans-Serif" font-size="10.00">AP_Landing::restart</text>
<text text-anchor="middle" x="720.5" y="-497.5" font-family="Helvetica,sans-Serif" font-size="10.00">_landing_sequence</text>
</a>
</g>
</g>
<!-- Node4&#45;&gt;Node5 -->
<g id="edge4" class="edge"><title>Node4&#45;&gt;Node5</title>
<path fill="none" stroke="midnightblue" d="M603.346,-474.228C624.932,-480.039 648.568,-486.403 668.85,-491.863"/>
<polygon fill="midnightblue" stroke="midnightblue" points="604.157,-470.822 593.591,-471.601 602.337,-477.581 604.157,-470.822"/>
</g>
<!-- Node7 -->
<g id="node7" class="node"><title>Node7</title>
<g id="a_node7"><a xlink:href="classAP__Mission.html#a05baa29469cdd5a9606903a7c6b3f3c1" target="_top" xlink:title="AP_Mission::jump_to\l_landing_sequence">
<polygon fill="white" stroke="black" points="665.5,-441.5 665.5,-471.5 775.5,-471.5 775.5,-441.5 665.5,-441.5"/>
<text text-anchor="start" x="673.5" y="-459.5" font-family="Helvetica,sans-Serif" font-size="10.00">AP_Mission::jump_to</text>
<text text-anchor="middle" x="720.5" y="-448.5" font-family="Helvetica,sans-Serif" font-size="10.00">_landing_sequence</text>
</a>
</g>
</g>
<!-- Node4&#45;&gt;Node7 -->
<g id="edge6" class="edge"><title>Node4&#45;&gt;Node7</title>
<path fill="none" stroke="midnightblue" d="M609.329,-456.5C627.957,-456.5 647.708,-456.5 665.264,-456.5"/>
<polygon fill="midnightblue" stroke="midnightblue" points="609.117,-453 599.117,-456.5 609.117,-460 609.117,-453"/>
</g>
<!-- Node8 -->
<g id="node8" class="node"><title>Node8</title>
<g id="a_node8"><a xlink:href="classAP__Mission.html#ad7c38b95e293e4a8304ecf520842e5c7" target="_top" xlink:title="AP_Mission::last_change\l_time_ms">
<polygon fill="white" stroke="black" points="839,-419.5 839,-449.5 967,-449.5 967,-419.5 839,-419.5"/>
<text text-anchor="start" x="847" y="-437.5" font-family="Helvetica,sans-Serif" font-size="10.00">AP_Mission::last_change</text>
<text text-anchor="middle" x="903" y="-426.5" font-family="Helvetica,sans-Serif" font-size="10.00">_time_ms</text>
</a>
</g>
</g>
<!-- Node4&#45;&gt;Node8 -->
<g id="edge8" class="edge"><title>Node4&#45;&gt;Node8</title>
<path fill="none" stroke="midnightblue" d="M597.579,-439.026C610.784,-435.898 624.774,-433.12 638,-431.5 706.244,-423.139 785.152,-425.606 838.797,-429.083"/>
<polygon fill="midnightblue" stroke="midnightblue" points="596.531,-435.68 587.661,-441.474 598.208,-442.476 596.531,-435.68"/>
</g>
<!-- Node6 -->
<g id="node6" class="node"><title>Node6</title>
<g id="a_node6"><a xlink:href="classAP__Landing.html#a23d5d937afe630bfa1d3eeea5d767e4b" target="_top" xlink:title="AP_Landing::verify\l_abort_landing">
<polygon fill="white" stroke="black" points="853.5,-490.5 853.5,-520.5 952.5,-520.5 952.5,-490.5 853.5,-490.5"/>
<text text-anchor="start" x="861.5" y="-508.5" font-family="Helvetica,sans-Serif" font-size="10.00">AP_Landing::verify</text>
<text text-anchor="middle" x="903" y="-497.5" font-family="Helvetica,sans-Serif" font-size="10.00">_abort_landing</text>
</a>
</g>
</g>
<!-- Node5&#45;&gt;Node6 -->
<g id="edge5" class="edge"><title>Node5&#45;&gt;Node6</title>
<path fill="none" stroke="midnightblue" d="M782.336,-505.5C805.514,-505.5 831.599,-505.5 853.485,-505.5"/>
<polygon fill="midnightblue" stroke="midnightblue" points="782.26,-502 772.26,-505.5 782.26,-509 782.26,-502"/>
</g>
<!-- Node7&#45;&gt;Node8 -->
<g id="edge7" class="edge"><title>Node7&#45;&gt;Node8</title>
<path fill="none" stroke="midnightblue" d="M785.675,-448.678C803.003,-446.566 821.733,-444.283 838.997,-442.179"/>
<polygon fill="midnightblue" stroke="midnightblue" points="785.159,-445.215 775.656,-449.899 786.006,-452.164 785.159,-445.215"/>
</g>
<!-- Node9&#45;&gt;Node10 -->
<g id="edge10" class="edge"><title>Node9&#45;&gt;Node10</title>
<path fill="none" stroke="midnightblue" d="M572.076,-154.529C591.06,-164.884 615.298,-177.081 638,-185.5 649.065,-189.603 661.287,-193.112 672.826,-195.992"/>
<polygon fill="midnightblue" stroke="midnightblue" points="573.652,-151.401 563.208,-149.618 570.261,-157.525 573.652,-151.401"/>
</g>
<!-- Node9&#45;&gt;Node13 -->
<g id="edge13" class="edge"><title>Node9&#45;&gt;Node13</title>
<path fill="none" stroke="midnightblue" d="M594.511,-144.524C617.138,-148.502 643.039,-153.056 665.373,-156.983"/>
<polygon fill="midnightblue" stroke="midnightblue" points="594.825,-141.025 584.37,-142.741 593.612,-147.92 594.825,-141.025"/>
</g>
<!-- Node9&#45;&gt;Node14 -->
<g id="edge14" class="edge"><title>Node9&#45;&gt;Node14</title>
<path fill="none" stroke="midnightblue" d="M594.334,-129.191C617.336,-127.043 643.744,-124.576 666.357,-122.464"/>
<polygon fill="midnightblue" stroke="midnightblue" points="594.001,-125.707 584.37,-130.122 594.652,-132.677 594.001,-125.707"/>
</g>
<!-- Node9&#45;&gt;Node15 -->
<g id="edge15" class="edge"><title>Node9&#45;&gt;Node15</title>
<path fill="none" stroke="midnightblue" d="M581.085,-115.437C598.647,-107.979 619.17,-99.5422 638,-92.5 648.89,-88.4274 660.71,-84.33 671.882,-80.601"/>
<polygon fill="midnightblue" stroke="midnightblue" points="579.482,-112.316 571.663,-119.465 582.233,-118.752 579.482,-112.316"/>
</g>
<!-- Node9&#45;&gt;Node16 -->
<g id="edge16" class="edge"><title>Node9&#45;&gt;Node16</title>
<path fill="none" stroke="midnightblue" d="M556.42,-111.611C575.114,-90.3702 605.55,-59.2874 638,-40.5 644.532,-36.7181 651.696,-33.4508 658.981,-30.6432"/>
<polygon fill="midnightblue" stroke="midnightblue" points="553.734,-109.366 549.85,-119.223 559.033,-113.939 553.734,-109.366"/>
</g>
<!-- Node11 -->
<g id="node11" class="node"><title>Node11</title>
<g id="a_node11"><a xlink:href="classMissionTest.html#ab2537e6e678a9468a69cd09f0296aeca" target="_top" xlink:title="MissionTest::loop">
<polygon fill="white" stroke="black" points="856,-196 856,-215 950,-215 950,-196 856,-196"/>
<text text-anchor="middle" x="903" y="-203" font-family="Helvetica,sans-Serif" font-size="10.00">MissionTest::loop</text>
</a>
</g>
</g>
<!-- Node10&#45;&gt;Node11 -->
<g id="edge11" class="edge"><title>Node10&#45;&gt;Node11</title>
<path fill="none" stroke="midnightblue" d="M805.82,-205.5C823.102,-205.5 840.675,-205.5 855.99,-205.5"/>
<polygon fill="midnightblue" stroke="midnightblue" points="805.698,-202 795.698,-205.5 805.698,-209 805.698,-202"/>
</g>
<!-- Node12 -->
<g id="node12" class="node"><title>Node12</title>
<g id="a_node12"><a xlink:href="AP__Mission__test_8cpp.html#a0b33edabd7f1c4e4a0bf32c67269be2f" target="_top" xlink:title="loop">
<polygon fill="white" stroke="black" points="1060,-196 1060,-215 1095,-215 1095,-196 1060,-196"/>
<text text-anchor="middle" x="1077.5" y="-203" font-family="Helvetica,sans-Serif" font-size="10.00">loop</text>
</a>
</g>
</g>
<!-- Node11&#45;&gt;Node12 -->
<g id="edge12" class="edge"><title>Node11&#45;&gt;Node12</title>
<path fill="none" stroke="midnightblue" d="M960.23,-205.5C994.822,-205.5 1036.77,-205.5 1059.64,-205.5"/>
<polygon fill="midnightblue" stroke="midnightblue" points="960.227,-202 950.227,-205.5 960.227,-209 960.227,-202"/>
</g>
<!-- Node19 -->
<g id="node19" class="node"><title>Node19</title>
<g id="a_node19"><a xlink:href="classDataFlash__Backend.html#acc06500874549df2b2567f069176506e" target="_top" xlink:title="DataFlash_Backend::\lremote_log_block_status_msg">
<polygon fill="white" stroke="black" points="1003,-326.5 1003,-356.5 1152,-356.5 1152,-326.5 1003,-326.5"/>
<text text-anchor="start" x="1011" y="-344.5" font-family="Helvetica,sans-Serif" font-size="10.00">DataFlash_Backend::</text>
<text text-anchor="middle" x="1077.5" y="-333.5" font-family="Helvetica,sans-Serif" font-size="10.00">remote_log_block_status_msg</text>
</a>
</g>
</g>
<!-- Node18&#45;&gt;Node19 -->
<g id="edge19" class="edge"><title>Node18&#45;&gt;Node19</title>
<path fill="none" stroke="midnightblue" d="M609.529,-342.398C619.061,-340.788 628.736,-339.413 638,-338.5 765.851,-325.902 915.684,-331.216 1002.97,-336.302"/>
<polygon fill="midnightblue" stroke="midnightblue" points="608.904,-338.955 599.672,-344.152 610.13,-345.846 608.904,-338.955"/>
</g>
<!-- Node20 -->
<g id="node20" class="node"><title>Node20</title>
<g id="a_node20"><a xlink:href="classDFMessageWriter__WriteEntireMission.html#a157afd1587cb4756d21bfd04bd64fdd1" target="_top" xlink:title="DFMessageWriter_WriteEntire\lMission::process">
<polygon fill="white" stroke="black" points="645.5,-348.5 645.5,-378.5 795.5,-378.5 795.5,-348.5 645.5,-348.5"/>
<text text-anchor="start" x="653.5" y="-366.5" font-family="Helvetica,sans-Serif" font-size="10.00">DFMessageWriter_WriteEntire</text>
<text text-anchor="middle" x="720.5" y="-355.5" font-family="Helvetica,sans-Serif" font-size="10.00">Mission::process</text>
</a>
</g>
</g>
<!-- Node18&#45;&gt;Node20 -->
<g id="edge20" class="edge"><title>Node18&#45;&gt;Node20</title>
<path fill="none" stroke="midnightblue" d="M609.787,-360.486C621.5,-360.808 633.645,-361.141 645.401,-361.464"/>
<polygon fill="midnightblue" stroke="midnightblue" points="609.717,-356.983 599.625,-360.207 609.525,-363.98 609.717,-356.983"/>
</g>
<!-- Node21 -->
<g id="node21" class="node"><title>Node21</title>
<g id="a_node21"><a xlink:href="classDataFlash__Backend.html#a2cf7e12a43bb8ebf9aa3ea073e544f40" target="_top" xlink:title="DataFlash_Backend::\lLog_Write_EntireMission">
<polygon fill="white" stroke="black" points="840.5,-348.5 840.5,-378.5 965.5,-378.5 965.5,-348.5 840.5,-348.5"/>
<text text-anchor="start" x="848.5" y="-366.5" font-family="Helvetica,sans-Serif" font-size="10.00">DataFlash_Backend::</text>
<text text-anchor="middle" x="903" y="-355.5" font-family="Helvetica,sans-Serif" font-size="10.00">Log_Write_EntireMission</text>
</a>
</g>
</g>
<!-- Node20&#45;&gt;Node21 -->
<g id="edge21" class="edge"><title>Node20&#45;&gt;Node21</title>
<path fill="none" stroke="midnightblue" d="M805.882,-363.5C817.532,-363.5 829.314,-363.5 840.445,-363.5"/>
<polygon fill="midnightblue" stroke="midnightblue" points="805.698,-360 795.698,-363.5 805.698,-367 805.698,-360"/>
</g>
<!-- Node21&#45;&gt;Node19 -->
<g id="edge22" class="edge"><title>Node21&#45;&gt;Node19</title>
<path fill="none" stroke="midnightblue" d="M975.756,-354.349C984.682,-353.21 993.822,-352.044 1002.78,-350.902"/>
<polygon fill="midnightblue" stroke="midnightblue" points="975.266,-350.883 965.789,-355.62 976.152,-357.826 975.266,-350.883"/>
</g>
</g>
</svg>
