<?xml version="1.0" encoding="UTF-8" standalone="no"?>
<!DOCTYPE svg PUBLIC "-//W3C//DTD SVG 1.1//EN"
 "http://www.w3.org/Graphics/SVG/1.1/DTD/svg11.dtd">
<!-- Generated by graphviz version 2.38.0 (20140413.2041)
 -->
<!-- Title: NavEKF2::getMagXYZ Pages: 1 -->
<!--zoomable 176 -->
<svg id="main" version="1.1" xmlns="http://www.w3.org/2000/svg" xmlns:xlink="http://www.w3.org/1999/xlink" xml:space="preserve" onload="init(evt)">
<style type="text/css"><![CDATA[
.edge:hover path { stroke: red; }
.edge:hover polygon { stroke: red; fill: red; }
]]></style>
<script type="text/javascript"><![CDATA[
var edges = document.getElementsByTagName('g');
if (edges && edges.length) {
  for (var i=0;i<edges.length;i++) {
    if (edges[i].id.substr(0,4)=='edge') {
      edges[i].setAttribute('class','edge');
    }
  }
}
]]></script>
        <defs>
                <circle id="rim" cx="0" cy="0" r="7"/>
                <circle id="rim2" cx="0" cy="0" r="3.5"/>
                <g id="zoomPlus">
                        <use xlink:href="#rim" fill="#404040">
                                <set attributeName="fill" to="#808080" begin="zoomplus.mouseover" end="zoomplus.mouseout"/>
                        </use>
                        <path d="M-4,0h8M0,-4v8" fill="none" stroke="white" stroke-width="1.5" pointer-events="none"/>
                </g>
                <g id="zoomMin">
                        <use xlink:href="#rim" fill="#404040">
                                <set attributeName="fill" to="#808080" begin="zoomminus.mouseover" end="zoomminus.mouseout"/>
                        </use>
                        <path d="M-4,0h8" fill="none" stroke="white" stroke-width="1.5" pointer-events="none"/>
                </g>
                <g id="dirArrow">
                        <path fill="none" stroke="white" stroke-width="1.5" d="M0,-3.0v7 M-2.5,-0.5L0,-3.0L2.5,-0.5"/>
                </g>
               <g id="resetDef">
                       <use xlink:href="#rim2" fill="#404040">
                               <set attributeName="fill" to="#808080" begin="reset.mouseover" end="reset.mouseout"/>
                       </use>
               </g>
        </defs>

<script type="text/javascript">
var viewWidth = 843;
var viewHeight = 176;
var sectionId = 'dynsection-50';
</script>
<script xlink:href="svgpan.js"/>
<svg id="graph" class="graph">
<g id="viewport">
<title>NavEKF2::getMagXYZ</title>
<polygon fill="white" stroke="none" points="-4,4 -4,-172 839,-172 839,4 -4,4"/>
<!-- Node1 -->
<g id="node1" class="node"><title>Node1</title>
<polygon fill="#bfbfbf" stroke="black" points="0,-102 0,-121 117,-121 117,-102 0,-102"/>
<text text-anchor="middle" x="58.5" y="-109" font-family="Helvetica,sans-Serif" font-size="10.00">NavEKF2::getMagXYZ</text>
</g>
<!-- Node2 -->
<g id="node2" class="node"><title>Node2</title>
<g id="a_node2"><a xlink:href="classNavEKF2.html#ab18af2714c15fcf190493c01e2a28c73" target="_top" xlink:title="NavEKF2::activeCores">
<polygon fill="white" stroke="black" points="157,-102 157,-121 275,-121 275,-102 157,-102"/>
<text text-anchor="middle" x="216" y="-109" font-family="Helvetica,sans-Serif" font-size="10.00">NavEKF2::activeCores</text>
</a>
</g>
</g>
<!-- Node1&#45;&gt;Node2 -->
<g id="edge1" class="edge"><title>Node1&#45;&gt;Node2</title>
<path fill="none" stroke="midnightblue" d="M127.482,-111.5C137.252,-111.5 147.232,-111.5 156.79,-111.5"/>
<polygon fill="midnightblue" stroke="midnightblue" points="127.402,-108 117.402,-111.5 127.402,-115 127.402,-108"/>
</g>
<!-- Node3 -->
<g id="node3" class="node"><title>Node3</title>
<g id="a_node3"><a xlink:href="classDataFlash__Class.html#a46e58faaa53c44516433f6bb7bde4163" target="_top" xlink:title="DataFlash_Class::Log\l_Write_POS">
<polygon fill="white" stroke="black" points="340.5,-137.5 340.5,-167.5 454.5,-167.5 454.5,-137.5 340.5,-137.5"/>
<text text-anchor="start" x="348.5" y="-155.5" font-family="Helvetica,sans-Serif" font-size="10.00">DataFlash_Class::Log</text>
<text text-anchor="middle" x="397.5" y="-144.5" font-family="Helvetica,sans-Serif" font-size="10.00">_Write_POS</text>
</a>
</g>
</g>
<!-- Node1&#45;&gt;Node3 -->
<g id="edge12" class="edge"><title>Node1&#45;&gt;Node3</title>
<path fill="none" stroke="midnightblue" d="M111.311,-123.089C124.829,-125.821 139.417,-128.512 153,-130.5 216.839,-139.841 290.712,-145.845 340.199,-149.182"/>
<polygon fill="midnightblue" stroke="midnightblue" points="111.718,-119.599 101.217,-121.003 110.302,-126.454 111.718,-119.599"/>
</g>
<!-- Node6 -->
<g id="node6" class="node"><title>Node6</title>
<g id="a_node6"><a xlink:href="classAP__AHRS__NavEKF.html#a27b7fa53666efbe33a5b30ec75d060b4" target="_top" xlink:title="AP_AHRS_NavEKF::get\l_mag_field_correction">
<polygon fill="white" stroke="black" points="153,-49.5 153,-79.5 279,-79.5 279,-49.5 153,-49.5"/>
<text text-anchor="start" x="161" y="-67.5" font-family="Helvetica,sans-Serif" font-size="10.00">AP_AHRS_NavEKF::get</text>
<text text-anchor="middle" x="216" y="-56.5" font-family="Helvetica,sans-Serif" font-size="10.00">_mag_field_correction</text>
</a>
</g>
</g>
<!-- Node1&#45;&gt;Node6 -->
<g id="edge5" class="edge"><title>Node1&#45;&gt;Node6</title>
<path fill="none" stroke="midnightblue" d="M100.625,-99.0701C120.441,-93.0805 144.372,-85.8475 165.211,-79.5488"/>
<polygon fill="midnightblue" stroke="midnightblue" points="99.5274,-95.7452 90.9677,-101.989 101.553,-102.446 99.5274,-95.7452"/>
</g>
<!-- Node2&#45;&gt;Node3 -->
<g id="edge2" class="edge"><title>Node2&#45;&gt;Node3</title>
<path fill="none" stroke="midnightblue" d="M268.658,-123.299C291.135,-128.433 317.526,-134.461 340.474,-139.703"/>
<polygon fill="midnightblue" stroke="midnightblue" points="269.16,-119.824 258.632,-121.009 267.602,-126.648 269.16,-119.824"/>
</g>
<!-- Node5 -->
<g id="node5" class="node"><title>Node5</title>
<g id="a_node5"><a xlink:href="classGCS__MAVLINK.html#a558ba3447048b78cb9dde460053e2741" target="_top" xlink:title="GCS_MAVLINK::send_ahrs2">
<polygon fill="white" stroke="black" points="325.5,-99 325.5,-118 469.5,-118 469.5,-99 325.5,-99"/>
<text text-anchor="middle" x="397.5" y="-106" font-family="Helvetica,sans-Serif" font-size="10.00">GCS_MAVLINK::send_ahrs2</text>
</a>
</g>
</g>
<!-- Node2&#45;&gt;Node5 -->
<g id="edge4" class="edge"><title>Node2&#45;&gt;Node5</title>
<path fill="none" stroke="midnightblue" d="M285.565,-110.354C298.588,-110.136 312.242,-109.908 325.343,-109.689"/>
<polygon fill="midnightblue" stroke="midnightblue" points="285.219,-106.859 275.279,-110.526 285.336,-113.858 285.219,-106.859"/>
</g>
<!-- Node4 -->
<g id="node4" class="node"><title>Node4</title>
<g id="a_node4"><a xlink:href="classDataFlash__Class.html#a7868f0e3dcef65ea5b5fcae618f4c5d4" target="_top" xlink:title="DataFlash_Class::get\l_structures">
<polygon fill="white" stroke="black" points="536.5,-137.5 536.5,-167.5 648.5,-167.5 648.5,-137.5 536.5,-137.5"/>
<text text-anchor="start" x="544.5" y="-155.5" font-family="Helvetica,sans-Serif" font-size="10.00">DataFlash_Class::get</text>
<text text-anchor="middle" x="592.5" y="-144.5" font-family="Helvetica,sans-Serif" font-size="10.00">_structures</text>
</a>
</g>
</g>
<!-- Node3&#45;&gt;Node4 -->
<g id="edge3" class="edge"><title>Node3&#45;&gt;Node4</title>
<path fill="none" stroke="midnightblue" d="M464.738,-152.5C488.046,-152.5 513.974,-152.5 536.277,-152.5"/>
<polygon fill="midnightblue" stroke="midnightblue" points="464.583,-149 454.583,-152.5 464.583,-156 464.583,-149"/>
</g>
<!-- Node7 -->
<g id="node7" class="node"><title>Node7</title>
<g id="a_node7"><a xlink:href="classSoloGimbalEKF.html#a84f878df87ed6057c63306b2c16e8c22" target="_top" xlink:title="SoloGimbalEKF::calcMagHeading\lInnov">
<polygon fill="white" stroke="black" points="315,-49.5 315,-79.5 480,-79.5 480,-49.5 315,-49.5"/>
<text text-anchor="start" x="323" y="-67.5" font-family="Helvetica,sans-Serif" font-size="10.00">SoloGimbalEKF::calcMagHeading</text>
<text text-anchor="middle" x="397.5" y="-56.5" font-family="Helvetica,sans-Serif" font-size="10.00">Innov</text>
</a>
</g>
</g>
<!-- Node6&#45;&gt;Node7 -->
<g id="edge6" class="edge"><title>Node6&#45;&gt;Node7</title>
<path fill="none" stroke="midnightblue" d="M289.192,-64.5C297.632,-64.5 306.288,-64.5 314.845,-64.5"/>
<polygon fill="midnightblue" stroke="midnightblue" points="289.025,-61.0001 279.025,-64.5 289.025,-68.0001 289.025,-61.0001"/>
</g>
<!-- Node11 -->
<g id="node11" class="node"><title>Node11</title>
<g id="a_node11"><a xlink:href="classAP__AHRS__NavEKF.html#add98225e5350abab51cccd311f5496c3" target="_top" xlink:title="AP_AHRS_NavEKF::get\l_NavEKF3_const">
<polygon fill="white" stroke="black" points="334.5,-0.5 334.5,-30.5 460.5,-30.5 460.5,-0.5 334.5,-0.5"/>
<text text-anchor="start" x="342.5" y="-18.5" font-family="Helvetica,sans-Serif" font-size="10.00">AP_AHRS_NavEKF::get</text>
<text text-anchor="middle" x="397.5" y="-7.5" font-family="Helvetica,sans-Serif" font-size="10.00">_NavEKF3_const</text>
</a>
</g>
</g>
<!-- Node6&#45;&gt;Node11 -->
<g id="edge11" class="edge"><title>Node6&#45;&gt;Node11</title>
<path fill="none" stroke="midnightblue" d="M282.017,-46.7515C301.472,-41.4409 322.607,-35.6712 341.362,-30.5516"/>
<polygon fill="midnightblue" stroke="midnightblue" points="281.046,-43.3886 272.321,-49.3986 282.889,-50.1415 281.046,-43.3886"/>
</g>
<!-- Node8 -->
<g id="node8" class="node"><title>Node8</title>
<g id="a_node8"><a xlink:href="classSoloGimbalEKF.html#af7f8f4cca1a21c25d200b9360d669578" target="_top" xlink:title="SoloGimbalEKF::fuseCompass">
<polygon fill="white" stroke="black" points="516,-74 516,-93 669,-93 669,-74 516,-74"/>
<text text-anchor="middle" x="592.5" y="-81" font-family="Helvetica,sans-Serif" font-size="10.00">SoloGimbalEKF::fuseCompass</text>
</a>
</g>
</g>
<!-- Node7&#45;&gt;Node8 -->
<g id="edge7" class="edge"><title>Node7&#45;&gt;Node8</title>
<path fill="none" stroke="midnightblue" d="M490.109,-73.5185C498.694,-74.3637 507.332,-75.214 515.749,-76.0426"/>
<polygon fill="midnightblue" stroke="midnightblue" points="490.364,-70.0268 480.07,-72.5302 489.679,-76.9931 490.364,-70.0268"/>
</g>
<!-- Node10 -->
<g id="node10" class="node"><title>Node10</title>
<g id="a_node10"><a xlink:href="classSoloGimbalEKF.html#ae3a2e7a2ef3021289c6919ab9613fe14" target="_top" xlink:title="SoloGimbalEKF::alignHeading">
<polygon fill="white" stroke="black" points="518,-36 518,-55 667,-55 667,-36 518,-36"/>
<text text-anchor="middle" x="592.5" y="-43" font-family="Helvetica,sans-Serif" font-size="10.00">SoloGimbalEKF::alignHeading</text>
</a>
</g>
</g>
<!-- Node7&#45;&gt;Node10 -->
<g id="edge9" class="edge"><title>Node7&#45;&gt;Node10</title>
<path fill="none" stroke="midnightblue" d="M490.128,-55.4796C499.435,-54.5634 508.802,-53.6413 517.882,-52.7474"/>
<polygon fill="midnightblue" stroke="midnightblue" points="489.679,-52.0069 480.07,-56.4698 490.364,-58.9732 489.679,-52.0069"/>
</g>
<!-- Node9 -->
<g id="node9" class="node"><title>Node9</title>
<g id="a_node9"><a xlink:href="classSoloGimbalEKF.html#a3be12acb5c78532662967b12d611800b" target="_top" xlink:title="SoloGimbalEKF::RunEKF">
<polygon fill="white" stroke="black" points="705,-55 705,-74 835,-74 835,-55 705,-55"/>
<text text-anchor="middle" x="770" y="-62" font-family="Helvetica,sans-Serif" font-size="10.00">SoloGimbalEKF::RunEKF</text>
</a>
</g>
</g>
<!-- Node8&#45;&gt;Node9 -->
<g id="edge8" class="edge"><title>Node8&#45;&gt;Node9</title>
<path fill="none" stroke="midnightblue" d="M679.272,-74.2142C687.877,-73.2825 696.508,-72.3481 704.833,-71.4468"/>
<polygon fill="midnightblue" stroke="midnightblue" points="678.766,-70.7483 669.201,-75.3044 679.52,-77.7077 678.766,-70.7483"/>
</g>
<!-- Node10&#45;&gt;Node9 -->
<g id="edge10" class="edge"><title>Node10&#45;&gt;Node9</title>
<path fill="none" stroke="midnightblue" d="M677.245,-54.5664C686.575,-55.5765 695.966,-56.5932 704.994,-57.5705"/>
<polygon fill="midnightblue" stroke="midnightblue" points="677.484,-51.0719 667.165,-53.4751 676.73,-58.0312 677.484,-51.0719"/>
</g>
</g>
</svg>
        <g id="navigator" transform="translate(0 0)" fill="#404254">
                <rect fill="#f2f5e9" fill-opacity="0.5" stroke="#606060" stroke-width=".5" x="0" y="0" width="60" height="60"/>
                <use id="zoomplus" xlink:href="#zoomPlus" x="17" y="9" onmousedown="handleZoom(evt,'in')"/>
                <use id="zoomminus" xlink:href="#zoomMin" x="42" y="9" onmousedown="handleZoom(evt,'out')"/>
                <use id="reset" xlink:href="#resetDef" x="30" y="36" onmousedown="handleReset()"/>
                <g id="arrowUp" xlink:href="#dirArrow" transform="translate(30 24)" onmousedown="handlePan(0,-1)">
                  <use xlink:href="#rim" fill="#404040">
                        <set attributeName="fill" to="#808080" begin="arrowUp.mouseover" end="arrowUp.mouseout"/>
                  </use>
                  <path fill="none" stroke="white" stroke-width="1.5" d="M0,-3.0v7 M-2.5,-0.5L0,-3.0L2.5,-0.5"/>
                </g>
                <g id="arrowRight" xlink:href="#dirArrow" transform="rotate(90) translate(36 -43)" onmousedown="handlePan(1,0)">
                  <use xlink:href="#rim" fill="#404040">
                        <set attributeName="fill" to="#808080" begin="arrowRight.mouseover" end="arrowRight.mouseout"/>
                  </use>
                  <path fill="none" stroke="white" stroke-width="1.5" d="M0,-3.0v7 M-2.5,-0.5L0,-3.0L2.5,-0.5"/>
                </g>
                <g id="arrowDown" xlink:href="#dirArrow" transform="rotate(180) translate(-30 -48)" onmousedown="handlePan(0,1)">
                  <use xlink:href="#rim" fill="#404040">
                        <set attributeName="fill" to="#808080" begin="arrowDown.mouseover" end="arrowDown.mouseout"/>
                  </use>
                  <path fill="none" stroke="white" stroke-width="1.5" d="M0,-3.0v7 M-2.5,-0.5L0,-3.0L2.5,-0.5"/>
                </g>
                <g id="arrowLeft" xlink:href="#dirArrow" transform="rotate(270) translate(-36 17)" onmousedown="handlePan(-1,0)">
                  <use xlink:href="#rim" fill="#404040">
                        <set attributeName="fill" to="#808080" begin="arrowLeft.mouseover" end="arrowLeft.mouseout"/>
                  </use>
                  <path fill="none" stroke="white" stroke-width="1.5" d="M0,-3.0v7 M-2.5,-0.5L0,-3.0L2.5,-0.5"/>
                </g>
        </g>
        <svg viewBox="0 0 15 15" width="100%" height="30px" preserveAspectRatio="xMaxYMin meet">
         <g id="arrow_out" transform="scale(0.3 0.3)">
          <a xlink:href="classNavEKF2_a9c0a90c87c90740026c7d5020a4fde19_icgraph_org.svg" target="_base">
           <rect id="button" ry="5" rx="5" y="6" x="6" height="38" width="38"
                fill="#f2f5e9" fill-opacity="0.5" stroke="#606060" stroke-width="1.0"/>
           <path id="arrow"
             d="M 11.500037,31.436501 C 11.940474,20.09759 22.043105,11.32322 32.158766,21.979434 L 37.068811,17.246167 C 37.068811,17.246167 37.088388,32 37.088388,32 L 22.160133,31.978069 C 22.160133,31.978069 26.997745,27.140456 26.997745,27.140456 C 18.528582,18.264221 13.291696,25.230495 11.500037,31.436501 z"
             style="fill:#404040;"/>
          </a>
         </g>
        </svg>
</svg>
