<?xml version="1.0" encoding="UTF-8" standalone="no"?>
<!DOCTYPE svg PUBLIC "-//W3C//DTD SVG 1.1//EN"
 "http://www.w3.org/Graphics/SVG/1.1/DTD/svg11.dtd">
<!-- Generated by graphviz version 2.38.0 (20140413.2041)
 -->
<!-- Title: AP_Mount_Alexmos::send_command Pages: 1 -->
<svg width="310pt" height="66pt"
 viewBox="0.00 0.00 310.00 66.00" xmlns="http://www.w3.org/2000/svg" xmlns:xlink="http://www.w3.org/1999/xlink">
<g id="graph0" class="graph" transform="scale(1 1) rotate(0) translate(4 62)">
<title>AP_Mount_Alexmos::send_command</title>
<polygon fill="white" stroke="none" points="-4,4 -4,-62 306,-62 306,4 -4,4"/>
<!-- Node1 -->
<g id="node1" class="node"><title>Node1</title>
<polygon fill="#bfbfbf" stroke="black" points="0,-14 0,-44 133,-44 133,-14 0,-14"/>
<text text-anchor="start" x="8" y="-32" font-family="Helvetica,sans-Serif" font-size="10.00">AP_Mount_Alexmos::send</text>
<text text-anchor="middle" x="66.5" y="-21" font-family="Helvetica,sans-Serif" font-size="10.00">_command</text>
</g>
<!-- Node2 -->
<g id="node2" class="node"><title>Node2</title>
<g id="a_node2"><a xlink:href="classAP__HAL_1_1Stream.html#a1768308e013072eb91ecf0ccdc171da6" target="_top" xlink:title="AP_HAL::Stream::txspace">
<polygon fill="white" stroke="black" points="169,-38.5 169,-57.5 302,-57.5 302,-38.5 169,-38.5"/>
<text text-anchor="middle" x="235.5" y="-45.5" font-family="Helvetica,sans-Serif" font-size="10.00">AP_HAL::Stream::txspace</text>
</a>
</g>
</g>
<!-- Node1&#45;&gt;Node2 -->
<g id="edge1" class="edge"><title>Node1&#45;&gt;Node2</title>
<path fill="none" stroke="midnightblue" d="M133.024,-36.4548C141.496,-37.4187 150.228,-38.4121 158.847,-39.3928"/>
<polygon fill="midnightblue" stroke="midnightblue" points="158.56,-42.8826 168.891,-40.5355 159.351,-35.9275 158.56,-42.8826"/>
</g>
<!-- Node3 -->
<g id="node3" class="node"><title>Node3</title>
<g id="a_node3"><a xlink:href="classAP__HAL_1_1Print.html#acc65391952a43334f8f5c9bef341f501" target="_top" xlink:title="AP_HAL::Print::write">
<polygon fill="white" stroke="black" points="181.5,-0.5 181.5,-19.5 289.5,-19.5 289.5,-0.5 181.5,-0.5"/>
<text text-anchor="middle" x="235.5" y="-7.5" font-family="Helvetica,sans-Serif" font-size="10.00">AP_HAL::Print::write</text>
</a>
</g>
</g>
<!-- Node1&#45;&gt;Node3 -->
<g id="edge2" class="edge"><title>Node1&#45;&gt;Node3</title>
<path fill="none" stroke="midnightblue" d="M133.024,-21.5452C145.517,-20.1238 158.574,-18.6383 171.002,-17.2243"/>
<polygon fill="midnightblue" stroke="midnightblue" points="171.728,-20.6644 181.268,-16.0563 170.937,-13.7093 171.728,-20.6644"/>
</g>
</g>
</svg>
