<?xml version="1.0" encoding="UTF-8" standalone="no"?>
<!DOCTYPE svg PUBLIC "-//W3C//DTD SVG 1.1//EN"
 "http://www.w3.org/Graphics/SVG/1.1/DTD/svg11.dtd">
<!-- Generated by graphviz version 2.38.0 (20140413.2041)
 -->
<!-- Title: AP_InertialSensor_LSM9DS0::_accel_data_ready Pages: 1 -->
<svg width="655pt" height="88pt"
 viewBox="0.00 0.00 655.00 88.00" xmlns="http://www.w3.org/2000/svg" xmlns:xlink="http://www.w3.org/1999/xlink">
<g id="graph0" class="graph" transform="scale(1 1) rotate(0) translate(4 84)">
<title>AP_InertialSensor_LSM9DS0::_accel_data_ready</title>
<polygon fill="white" stroke="none" points="-4,4 -4,-84 651,-84 651,4 -4,4"/>
<!-- Node1 -->
<g id="node1" class="node"><title>Node1</title>
<polygon fill="#bfbfbf" stroke="black" points="0,-24.5 0,-54.5 146,-54.5 146,-24.5 0,-24.5"/>
<text text-anchor="start" x="8" y="-42.5" font-family="Helvetica,sans-Serif" font-size="10.00">AP_InertialSensor_LSM9DS0</text>
<text text-anchor="middle" x="73" y="-31.5" font-family="Helvetica,sans-Serif" font-size="10.00">::_accel_data_ready</text>
</g>
<!-- Node2 -->
<g id="node2" class="node"><title>Node2</title>
<g id="a_node2"><a xlink:href="classAP__HAL_1_1DigitalSource.html#a6d155c0e1088e7b045b075c34bc2a13e" target="_top" xlink:title="AP_HAL::DigitalSource\l::read">
<polygon fill="white" stroke="black" points="195.5,-49.5 195.5,-79.5 314.5,-79.5 314.5,-49.5 195.5,-49.5"/>
<text text-anchor="start" x="203.5" y="-67.5" font-family="Helvetica,sans-Serif" font-size="10.00">AP_HAL::DigitalSource</text>
<text text-anchor="middle" x="255" y="-56.5" font-family="Helvetica,sans-Serif" font-size="10.00">::read</text>
</a>
</g>
</g>
<!-- Node1&#45;&gt;Node2 -->
<g id="edge1" class="edge"><title>Node1&#45;&gt;Node2</title>
<path fill="none" stroke="midnightblue" d="M146.176,-49.5244C159.064,-51.3145 172.461,-53.1751 185.25,-54.9514"/>
<polygon fill="midnightblue" stroke="midnightblue" points="184.969,-58.4458 195.355,-56.3549 185.932,-51.5124 184.969,-58.4458"/>
</g>
<!-- Node3 -->
<g id="node3" class="node"><title>Node3</title>
<g id="a_node3"><a xlink:href="classAP__InertialSensor__LSM9DS0.html#ab9f65816db245bc851eee9ef4548295e" target="_top" xlink:title="AP_InertialSensor_LSM9DS0\l::_register_read_xm">
<polygon fill="white" stroke="black" points="182,-0.5 182,-30.5 328,-30.5 328,-0.5 182,-0.5"/>
<text text-anchor="start" x="190" y="-18.5" font-family="Helvetica,sans-Serif" font-size="10.00">AP_InertialSensor_LSM9DS0</text>
<text text-anchor="middle" x="255" y="-7.5" font-family="Helvetica,sans-Serif" font-size="10.00">::_register_read_xm</text>
</a>
</g>
</g>
<!-- Node1&#45;&gt;Node3 -->
<g id="edge2" class="edge"><title>Node1&#45;&gt;Node3</title>
<path fill="none" stroke="midnightblue" d="M146.176,-29.8766C154.612,-28.7518 163.265,-27.598 171.824,-26.4569"/>
<polygon fill="midnightblue" stroke="midnightblue" points="172.358,-29.9166 181.808,-25.1256 171.433,-22.978 172.358,-29.9166"/>
</g>
<!-- Node4 -->
<g id="node4" class="node"><title>Node4</title>
<g id="a_node4"><a xlink:href="classAP__HAL_1_1Device.html#a66215f964cfb5c7421effdb88a749550" target="_top" xlink:title="AP_HAL::Device::read\l_registers">
<polygon fill="white" stroke="black" points="364,-0.5 364,-30.5 480,-30.5 480,-0.5 364,-0.5"/>
<text text-anchor="start" x="372" y="-18.5" font-family="Helvetica,sans-Serif" font-size="10.00">AP_HAL::Device::read</text>
<text text-anchor="middle" x="422" y="-7.5" font-family="Helvetica,sans-Serif" font-size="10.00">_registers</text>
</a>
</g>
</g>
<!-- Node3&#45;&gt;Node4 -->
<g id="edge3" class="edge"><title>Node3&#45;&gt;Node4</title>
<path fill="none" stroke="midnightblue" d="M328.371,-15.5C336.651,-15.5 345.07,-15.5 353.286,-15.5"/>
<polygon fill="midnightblue" stroke="midnightblue" points="353.559,-19.0001 363.559,-15.5 353.559,-12.0001 353.559,-19.0001"/>
</g>
<!-- Node5 -->
<g id="node5" class="node"><title>Node5</title>
<g id="a_node5"><a xlink:href="classAP__HAL_1_1Device.html#a2af24b5f93b678af718b65a606e538b0" target="_top" xlink:title="AP_HAL::Device::transfer">
<polygon fill="white" stroke="black" points="516,-6 516,-25 647,-25 647,-6 516,-6"/>
<text text-anchor="middle" x="581.5" y="-13" font-family="Helvetica,sans-Serif" font-size="10.00">AP_HAL::Device::transfer</text>
</a>
</g>
</g>
<!-- Node4&#45;&gt;Node5 -->
<g id="edge4" class="edge"><title>Node4&#45;&gt;Node5</title>
<path fill="none" stroke="midnightblue" d="M480.307,-15.5C488.498,-15.5 497.025,-15.5 505.494,-15.5"/>
<polygon fill="midnightblue" stroke="midnightblue" points="505.768,-19.0001 515.768,-15.5 505.768,-12.0001 505.768,-19.0001"/>
</g>
</g>
</svg>
