<?xml version="1.0" encoding="UTF-8" standalone="no"?>
<!DOCTYPE svg PUBLIC "-//W3C//DTD SVG 1.1//EN"
 "http://www.w3.org/Graphics/SVG/1.1/DTD/svg11.dtd">
<!-- Generated by graphviz version 2.38.0 (20140413.2041)
 -->
<!-- Title: AP_Camera::relay_pic Pages: 1 -->
<svg width="751pt" height="60pt"
 viewBox="0.00 0.00 751.00 60.41" xmlns="http://www.w3.org/2000/svg" xmlns:xlink="http://www.w3.org/1999/xlink">
<g id="graph0" class="graph" transform="scale(1 1) rotate(0) translate(4 56.4092)">
<title>AP_Camera::relay_pic</title>
<polygon fill="white" stroke="none" points="-4,4 -4,-56.4092 747,-56.4092 747,4 -4,4"/>
<!-- Node1 -->
<g id="node1" class="node"><title>Node1</title>
<polygon fill="#bfbfbf" stroke="black" points="0,-0.5 0,-19.5 115,-19.5 115,-0.5 0,-0.5"/>
<text text-anchor="middle" x="57.5" y="-7.5" font-family="Helvetica,sans-Serif" font-size="10.00">AP_Camera::relay_pic</text>
</g>
<!-- Node2 -->
<g id="node2" class="node"><title>Node2</title>
<g id="a_node2"><a xlink:href="classAP__Camera.html#a74372e2b8e5d3cd3b464f2ef417cb0f6" target="_top" xlink:title="AP_Camera::trigger_pic">
<polygon fill="white" stroke="black" points="151,-0.5 151,-19.5 272,-19.5 272,-0.5 151,-0.5"/>
<text text-anchor="middle" x="211.5" y="-7.5" font-family="Helvetica,sans-Serif" font-size="10.00">AP_Camera::trigger_pic</text>
</a>
</g>
</g>
<!-- Node1&#45;&gt;Node2 -->
<g id="edge1" class="edge"><title>Node1&#45;&gt;Node2</title>
<path fill="none" stroke="midnightblue" d="M125.335,-10C133.812,-10 142.444,-10 150.801,-10"/>
<polygon fill="midnightblue" stroke="midnightblue" points="125.099,-6.5001 115.099,-10 125.099,-13.5001 125.099,-6.5001"/>
</g>
<!-- Node3 -->
<g id="node3" class="node"><title>Node3</title>
<g id="a_node3"><a xlink:href="classAP__Camera.html#a3f1660c56231d66cbaa47ef6e4514f37" target="_top" xlink:title="AP_Camera::control">
<polygon fill="white" stroke="black" points="308,-19.5 308,-38.5 413,-38.5 413,-19.5 308,-19.5"/>
<text text-anchor="middle" x="360.5" y="-26.5" font-family="Helvetica,sans-Serif" font-size="10.00">AP_Camera::control</text>
</a>
</g>
</g>
<!-- Node2&#45;&gt;Node3 -->
<g id="edge2" class="edge"><title>Node2&#45;&gt;Node3</title>
<path fill="none" stroke="midnightblue" d="M282.304,-19.0223C290.884,-20.1312 299.531,-21.2489 307.777,-22.3147"/>
<polygon fill="midnightblue" stroke="midnightblue" points="282.657,-15.5388 272.291,-17.728 281.759,-22.4811 282.657,-15.5388"/>
</g>
<!-- Node4 -->
<g id="node4" class="node"><title>Node4</title>
<g id="a_node4"><a xlink:href="classAP__Camera.html#aa6b15b7f84f291994d90173332891510" target="_top" xlink:title="AP_Camera::AP_Camera">
<polygon fill="white" stroke="black" points="614,-19.5 614,-38.5 743,-38.5 743,-19.5 614,-19.5"/>
<text text-anchor="middle" x="678.5" y="-26.5" font-family="Helvetica,sans-Serif" font-size="10.00">AP_Camera::AP_Camera</text>
</a>
</g>
</g>
<!-- Node2&#45;&gt;Node4 -->
<g id="edge6" class="edge"><title>Node2&#45;&gt;Node4</title>
<path fill="none" stroke="midnightblue" d="M282.258,-6.10466C355.945,-2.90017 475.431,-0.294638 578,-10 597.609,-11.8555 619.105,-15.7241 637.084,-19.4893"/>
<polygon fill="midnightblue" stroke="midnightblue" points="282.004,-2.6125 272.171,-6.55958 282.319,-9.60539 282.004,-2.6125"/>
</g>
<!-- Node3&#45;&gt;Node4 -->
<g id="edge3" class="edge"><title>Node3&#45;&gt;Node4</title>
<path fill="none" stroke="midnightblue" d="M406.952,-40.7978C420.394,-43.762 435.205,-46.5195 449,-48 506.006,-54.1179 520.922,-53.4009 578,-48 597.609,-46.1445 619.105,-42.2759 637.084,-38.5107"/>
<polygon fill="midnightblue" stroke="midnightblue" points="407.508,-37.3346 396.978,-38.5085 405.942,-44.1571 407.508,-37.3346"/>
</g>
<!-- Node5 -->
<g id="node5" class="node"><title>Node5</title>
<g id="a_node5"><a xlink:href="classAP__Camera.html#a27664cf70d78d5af17d66a3d715048db" target="_top" xlink:title="decode deprecated MavLink message that controls camera. ">
<polygon fill="white" stroke="black" points="449,-19.5 449,-38.5 578,-38.5 578,-19.5 449,-19.5"/>
<text text-anchor="middle" x="513.5" y="-26.5" font-family="Helvetica,sans-Serif" font-size="10.00">AP_Camera::control_msg</text>
</a>
</g>
</g>
<!-- Node3&#45;&gt;Node5 -->
<g id="edge4" class="edge"><title>Node3&#45;&gt;Node5</title>
<path fill="none" stroke="midnightblue" d="M423.224,-29C431.692,-29 440.4,-29 448.901,-29"/>
<polygon fill="midnightblue" stroke="midnightblue" points="423.043,-25.5001 413.043,-29 423.043,-32.5001 423.043,-25.5001"/>
</g>
<!-- Node5&#45;&gt;Node4 -->
<g id="edge5" class="edge"><title>Node5&#45;&gt;Node4</title>
<path fill="none" stroke="midnightblue" d="M588.688,-29C597.141,-29 605.701,-29 613.998,-29"/>
<polygon fill="midnightblue" stroke="midnightblue" points="588.454,-25.5001 578.454,-29 588.454,-32.5001 588.454,-25.5001"/>
</g>
</g>
</svg>
