<?xml version="1.0" encoding="UTF-8" standalone="no"?>
<!DOCTYPE svg PUBLIC "-//W3C//DTD SVG 1.1//EN"
 "http://www.w3.org/Graphics/SVG/1.1/DTD/svg11.dtd">
<!-- Generated by graphviz version 2.38.0 (20140413.2041)
 -->
<!-- Title: AC_AttitudeControl_Multi::update_throttle_rpy_mix Pages: 1 -->
<svg width="525pt" height="142pt"
 viewBox="0.00 0.00 525.00 142.00" xmlns="http://www.w3.org/2000/svg" xmlns:xlink="http://www.w3.org/1999/xlink">
<g id="graph0" class="graph" transform="scale(1 1) rotate(0) translate(4 138)">
<title>AC_AttitudeControl_Multi::update_throttle_rpy_mix</title>
<polygon fill="white" stroke="none" points="-4,4 -4,-138 521,-138 521,4 -4,4"/>
<!-- Node1 -->
<g id="node1" class="node"><title>Node1</title>
<polygon fill="#bfbfbf" stroke="black" points="0,-65.5 0,-106.5 113,-106.5 113,-65.5 0,-65.5"/>
<text text-anchor="start" x="8" y="-94.5" font-family="Helvetica,sans-Serif" font-size="10.00">AC_AttitudeControl</text>
<text text-anchor="start" x="8" y="-83.5" font-family="Helvetica,sans-Serif" font-size="10.00">_Multi::update_throttle</text>
<text text-anchor="middle" x="56.5" y="-72.5" font-family="Helvetica,sans-Serif" font-size="10.00">_rpy_mix</text>
</g>
<!-- Node2 -->
<g id="node2" class="node"><title>Node2</title>
<g id="a_node2"><a xlink:href="AP__Math_8h.html#a6b187a3fa1e9f663e89175e7e8e213d6" target="_top" xlink:title="MIN">
<polygon fill="white" stroke="black" points="171.5,-95.5 171.5,-114.5 206.5,-114.5 206.5,-95.5 171.5,-95.5"/>
<text text-anchor="middle" x="189" y="-102.5" font-family="Helvetica,sans-Serif" font-size="10.00">MIN</text>
</a>
</g>
</g>
<!-- Node1&#45;&gt;Node2 -->
<g id="edge1" class="edge"><title>Node1&#45;&gt;Node2</title>
<path fill="none" stroke="midnightblue" d="M113.222,-94.1128C129.84,-96.5323 147.3,-99.0744 161.166,-101.093"/>
<polygon fill="midnightblue" stroke="midnightblue" points="161.031,-104.61 171.431,-102.588 162.039,-97.6833 161.031,-104.61"/>
</g>
<!-- Node3 -->
<g id="node3" class="node"><title>Node3</title>
<g id="a_node3"><a xlink:href="AP__Math_8h.html#ad525609d9dba6ffa556a0fbf08a3f9b4" target="_top" xlink:title="constrain_float">
<polygon fill="white" stroke="black" points="149,-57.5 149,-76.5 229,-76.5 229,-57.5 149,-57.5"/>
<text text-anchor="middle" x="189" y="-64.5" font-family="Helvetica,sans-Serif" font-size="10.00">constrain_float</text>
</a>
</g>
</g>
<!-- Node1&#45;&gt;Node3 -->
<g id="edge2" class="edge"><title>Node1&#45;&gt;Node3</title>
<path fill="none" stroke="midnightblue" d="M113.222,-77.8872C121.693,-76.6538 130.384,-75.3886 138.705,-74.1771"/>
<polygon fill="midnightblue" stroke="midnightblue" points="139.241,-77.6359 148.633,-72.7316 138.233,-70.709 139.241,-77.6359"/>
</g>
<!-- Node4 -->
<g id="node4" class="node"><title>Node4</title>
<g id="a_node4"><a xlink:href="AP__Math_8h.html#a20e8f8671c282c69c1954652b6d61585" target="_top" xlink:title="constrain_value">
<polygon fill="white" stroke="black" points="265,-57.5 265,-76.5 350,-76.5 350,-57.5 265,-57.5"/>
<text text-anchor="middle" x="307.5" y="-64.5" font-family="Helvetica,sans-Serif" font-size="10.00">constrain_value</text>
</a>
</g>
</g>
<!-- Node3&#45;&gt;Node4 -->
<g id="edge3" class="edge"><title>Node3&#45;&gt;Node4</title>
<path fill="none" stroke="midnightblue" d="M229.117,-67C237.384,-67 246.229,-67 254.877,-67"/>
<polygon fill="midnightblue" stroke="midnightblue" points="254.892,-70.5001 264.892,-67 254.892,-63.5001 254.892,-70.5001"/>
</g>
<!-- Node5 -->
<g id="node5" class="node"><title>Node5</title>
<g id="a_node5"><a xlink:href="AP__Math_8cpp.html#a37e8e901754cb9c8e53a8e3030c82c50" target="_top" xlink:title="constrain_value\&lt; int \&gt;">
<polygon fill="white" stroke="black" points="395,-114.5 395,-133.5 508,-133.5 508,-114.5 395,-114.5"/>
<text text-anchor="middle" x="451.5" y="-121.5" font-family="Helvetica,sans-Serif" font-size="10.00">constrain_value&lt; int &gt;</text>
</a>
</g>
</g>
<!-- Node4&#45;&gt;Node5 -->
<g id="edge4" class="edge"><title>Node4&#45;&gt;Node5</title>
<path fill="none" stroke="midnightblue" d="M325.97,-76.6284C341.432,-84.891 364.774,-96.7384 386,-105 391.854,-107.278 398.097,-109.439 404.307,-111.429"/>
<polygon fill="midnightblue" stroke="midnightblue" points="403.389,-114.809 413.977,-114.411 405.452,-108.12 403.389,-114.809"/>
</g>
<!-- Node6 -->
<g id="node6" class="node"><title>Node6</title>
<g id="a_node6"><a xlink:href="AP__Math_8cpp.html#afdbe107ec1987d318a6347816fbf2b89" target="_top" xlink:title="constrain_value\&lt; short \&gt;">
<polygon fill="white" stroke="black" points="389,-76.5 389,-95.5 514,-95.5 514,-76.5 389,-76.5"/>
<text text-anchor="middle" x="451.5" y="-83.5" font-family="Helvetica,sans-Serif" font-size="10.00">constrain_value&lt; short &gt;</text>
</a>
</g>
</g>
<!-- Node4&#45;&gt;Node6 -->
<g id="edge5" class="edge"><title>Node4&#45;&gt;Node6</title>
<path fill="none" stroke="midnightblue" d="M350.337,-72.5979C359.323,-73.8003 369.064,-75.1036 378.821,-76.4092"/>
<polygon fill="midnightblue" stroke="midnightblue" points="378.589,-79.9093 388.965,-77.7665 379.518,-72.9711 378.589,-79.9093"/>
</g>
<!-- Node7 -->
<g id="node7" class="node"><title>Node7</title>
<g id="a_node7"><a xlink:href="AP__Math_8cpp.html#ae6c621670c214da687de21d4e3a92587" target="_top" xlink:title="constrain_value\&lt; float \&gt;">
<polygon fill="white" stroke="black" points="390.5,-38.5 390.5,-57.5 512.5,-57.5 512.5,-38.5 390.5,-38.5"/>
<text text-anchor="middle" x="451.5" y="-45.5" font-family="Helvetica,sans-Serif" font-size="10.00">constrain_value&lt; float &gt;</text>
</a>
</g>
</g>
<!-- Node4&#45;&gt;Node7 -->
<g id="edge6" class="edge"><title>Node4&#45;&gt;Node7</title>
<path fill="none" stroke="midnightblue" d="M350.337,-61.4021C359.724,-60.146 369.935,-58.7798 380.129,-57.4159"/>
<polygon fill="midnightblue" stroke="midnightblue" points="380.838,-60.8522 390.286,-56.0568 379.91,-53.9141 380.838,-60.8522"/>
</g>
<!-- Node8 -->
<g id="node8" class="node"><title>Node8</title>
<g id="a_node8"><a xlink:href="AP__Math_8cpp.html#afe3990b00e9abc43fa97dfaf8e32f5c4" target="_top" xlink:title="constrain_value\&lt; double \&gt;">
<polygon fill="white" stroke="black" points="386,-0.5 386,-19.5 517,-19.5 517,-0.5 386,-0.5"/>
<text text-anchor="middle" x="451.5" y="-7.5" font-family="Helvetica,sans-Serif" font-size="10.00">constrain_value&lt; double &gt;</text>
</a>
</g>
</g>
<!-- Node4&#45;&gt;Node8 -->
<g id="edge7" class="edge"><title>Node4&#45;&gt;Node8</title>
<path fill="none" stroke="midnightblue" d="M325.97,-57.3716C341.432,-49.109 364.774,-37.2616 386,-29 391.854,-26.7215 398.097,-24.5614 404.307,-22.5705"/>
<polygon fill="midnightblue" stroke="midnightblue" points="405.452,-25.88 413.977,-19.5887 403.389,-19.1908 405.452,-25.88"/>
</g>
</g>
</svg>
