<?xml version="1.0" encoding="UTF-8" standalone="no"?>
<!DOCTYPE svg PUBLIC "-//W3C//DTD SVG 1.1//EN"
 "http://www.w3.org/Graphics/SVG/1.1/DTD/svg11.dtd">
<!-- Generated by graphviz version 2.38.0 (20140413.2041)
 -->
<!-- Title: PX4::SPIDevice::do_transfer Pages: 1 -->
<svg width="277pt" height="78pt"
 viewBox="0.00 0.00 277.00 77.50" xmlns="http://www.w3.org/2000/svg" xmlns:xlink="http://www.w3.org/1999/xlink">
<g id="graph0" class="graph" transform="scale(1 1) rotate(0) translate(4 73.5)">
<title>PX4::SPIDevice::do_transfer</title>
<polygon fill="white" stroke="none" points="-4,4 -4,-73.5 273,-73.5 273,4 -4,4"/>
<!-- Node1 -->
<g id="node1" class="node"><title>Node1</title>
<polygon fill="#bfbfbf" stroke="black" points="0,-22.5 0,-52.5 105,-52.5 105,-22.5 0,-22.5"/>
<text text-anchor="start" x="8" y="-40.5" font-family="Helvetica,sans-Serif" font-size="10.00">PX4::SPIDevice::do</text>
<text text-anchor="middle" x="52.5" y="-29.5" font-family="Helvetica,sans-Serif" font-size="10.00">_transfer</text>
</g>
<!-- Node2 -->
<g id="node2" class="node"><title>Node2</title>
<g id="a_node2"><a xlink:href="classPX4_1_1SPIDevice.html#aca25a365bc6ac7aca97e2af8fd32c88f" target="_top" xlink:title="PX4::SPIDevice::transfer">
<polygon fill="white" stroke="black" points="141,-50 141,-69 269,-69 269,-50 141,-50"/>
<text text-anchor="middle" x="205" y="-57" font-family="Helvetica,sans-Serif" font-size="10.00">PX4::SPIDevice::transfer</text>
</a>
</g>
</g>
<!-- Node1&#45;&gt;Node2 -->
<g id="edge1" class="edge"><title>Node1&#45;&gt;Node2</title>
<path fill="none" stroke="midnightblue" d="M115.421,-46.5516C123.842,-47.7825 132.492,-49.047 140.932,-50.2808"/>
<polygon fill="midnightblue" stroke="midnightblue" points="115.695,-43.0545 105.294,-45.0712 114.682,-49.9809 115.695,-43.0545"/>
</g>
<!-- Node3 -->
<g id="node3" class="node"><title>Node3</title>
<g id="a_node3"><a xlink:href="classPX4_1_1SPIDevice.html#ad70aef7ea7e965737ecbc3f9ac78155e" target="_top" xlink:title="PX4::SPIDevice::transfer\l_fullduplex">
<polygon fill="white" stroke="black" points="141,-0.5 141,-30.5 269,-30.5 269,-0.5 141,-0.5"/>
<text text-anchor="start" x="149" y="-18.5" font-family="Helvetica,sans-Serif" font-size="10.00">PX4::SPIDevice::transfer</text>
<text text-anchor="middle" x="205" y="-7.5" font-family="Helvetica,sans-Serif" font-size="10.00">_fullduplex</text>
</a>
</g>
</g>
<!-- Node1&#45;&gt;Node3 -->
<g id="edge2" class="edge"><title>Node1&#45;&gt;Node3</title>
<path fill="none" stroke="midnightblue" d="M115.421,-28.4484C123.842,-27.2175 132.492,-25.953 140.932,-24.7192"/>
<polygon fill="midnightblue" stroke="midnightblue" points="114.682,-25.0191 105.294,-29.9288 115.695,-31.9455 114.682,-25.0191"/>
</g>
</g>
</svg>
