<?xml version="1.0" encoding="UTF-8" standalone="no"?>
<!DOCTYPE svg PUBLIC "-//W3C//DTD SVG 1.1//EN"
 "http://www.w3.org/Graphics/SVG/1.1/DTD/svg11.dtd">
<!-- Generated by graphviz version 2.38.0 (20140413.2041)
 -->
<!-- Title: PX4::RCOutput_Tap::init Pages: 1 -->
<svg width="620pt" height="274pt"
 viewBox="0.00 0.00 620.00 274.00" xmlns="http://www.w3.org/2000/svg" xmlns:xlink="http://www.w3.org/1999/xlink">
<g id="graph0" class="graph" transform="scale(1 1) rotate(0) translate(4 270)">
<title>PX4::RCOutput_Tap::init</title>
<polygon fill="white" stroke="none" points="-4,4 -4,-270 616,-270 616,4 -4,4"/>
<!-- Node1 -->
<g id="node1" class="node"><title>Node1</title>
<polygon fill="#bfbfbf" stroke="black" points="0,-82 0,-101 126,-101 126,-82 0,-82"/>
<text text-anchor="middle" x="63" y="-89" font-family="Helvetica,sans-Serif" font-size="10.00">PX4::RCOutput_Tap::init</text>
</g>
<!-- Node2 -->
<g id="node2" class="node"><title>Node2</title>
<g id="a_node2"><a xlink:href="namespaceAP__HAL.html#a71832f03d849a0c088f04fc98d3c8143" target="_top" xlink:title="AP_HAL::panic">
<polygon fill="white" stroke="black" points="175,-104 175,-123 259,-123 259,-104 175,-104"/>
<text text-anchor="middle" x="217" y="-111" font-family="Helvetica,sans-Serif" font-size="10.00">AP_HAL::panic</text>
</a>
</g>
</g>
<!-- Node1&#45;&gt;Node2 -->
<g id="edge1" class="edge"><title>Node1&#45;&gt;Node2</title>
<path fill="none" stroke="midnightblue" d="M126.263,-100.512C139.073,-102.366 152.422,-104.298 164.788,-106.088"/>
<polygon fill="midnightblue" stroke="midnightblue" points="164.512,-109.584 174.91,-107.553 165.515,-102.656 164.512,-109.584"/>
</g>
<!-- Node11 -->
<g id="node11" class="node"><title>Node11</title>
<g id="a_node11"><a xlink:href="classAP__HAL_1_1Scheduler.html#ab3175e2e6223ccfe82f957e41cc12b26" target="_top" xlink:title="AP_HAL::Scheduler::\ldelay">
<polygon fill="white" stroke="black" points="162,-54.5 162,-84.5 272,-84.5 272,-54.5 162,-54.5"/>
<text text-anchor="start" x="170" y="-72.5" font-family="Helvetica,sans-Serif" font-size="10.00">AP_HAL::Scheduler::</text>
<text text-anchor="middle" x="217" y="-61.5" font-family="Helvetica,sans-Serif" font-size="10.00">delay</text>
</a>
</g>
</g>
<!-- Node1&#45;&gt;Node11 -->
<g id="edge10" class="edge"><title>Node1&#45;&gt;Node11</title>
<path fill="none" stroke="midnightblue" d="M126.263,-82.4883C134.656,-81.2735 143.281,-80.0252 151.708,-78.8054"/>
<polygon fill="midnightblue" stroke="midnightblue" points="152.467,-82.2322 161.862,-77.3358 151.464,-75.3044 152.467,-82.2322"/>
</g>
<!-- Node3 -->
<g id="node3" class="node"><title>Node3</title>
<g id="a_node3"><a xlink:href="classAP__HAL_1_1RCInput.html#a2bea13d38f2b9ae8bf5193a3a69f0a31" target="_top" xlink:title="AP_HAL::RCInput::teardown">
<polygon fill="white" stroke="black" points="308,-126 308,-145 451,-145 451,-126 308,-126"/>
<text text-anchor="middle" x="379.5" y="-133" font-family="Helvetica,sans-Serif" font-size="10.00">AP_HAL::RCInput::teardown</text>
</a>
</g>
</g>
<!-- Node2&#45;&gt;Node3 -->
<g id="edge2" class="edge"><title>Node2&#45;&gt;Node3</title>
<path fill="none" stroke="midnightblue" d="M259.333,-119.166C271.515,-120.835 285.277,-122.722 299.009,-124.604"/>
<polygon fill="midnightblue" stroke="midnightblue" points="298.597,-128.08 308.979,-125.971 299.547,-121.145 298.597,-128.08"/>
</g>
<!-- Node10 -->
<g id="node10" class="node"><title>Node10</title>
<g id="a_node10"><a xlink:href="classAP__HAL_1_1Scheduler.html#a78c4f1b1f192ac1c99544b6cc8f099b0" target="_top" xlink:title="AP_HAL::Scheduler::\ldelay_microseconds">
<polygon fill="white" stroke="black" points="324.5,-76.5 324.5,-106.5 434.5,-106.5 434.5,-76.5 324.5,-76.5"/>
<text text-anchor="start" x="332.5" y="-94.5" font-family="Helvetica,sans-Serif" font-size="10.00">AP_HAL::Scheduler::</text>
<text text-anchor="middle" x="379.5" y="-83.5" font-family="Helvetica,sans-Serif" font-size="10.00">delay_microseconds</text>
</a>
</g>
</g>
<!-- Node2&#45;&gt;Node10 -->
<g id="edge9" class="edge"><title>Node2&#45;&gt;Node10</title>
<path fill="none" stroke="midnightblue" d="M259.333,-107.834C276.025,-105.546 295.682,-102.852 314.165,-100.319"/>
<polygon fill="midnightblue" stroke="midnightblue" points="314.854,-103.757 324.286,-98.9312 313.903,-96.8217 314.854,-103.757"/>
</g>
<!-- Node4 -->
<g id="node4" class="node"><title>Node4</title>
<g id="a_node4"><a xlink:href="classAP__HAL_1_1RCInput.html#aee1fade33080edef83dd7db0fad0f7da" target="_top" xlink:title="AP_HAL::RCInput::new\l_input">
<polygon fill="white" stroke="black" points="488.5,-235.5 488.5,-265.5 610.5,-265.5 610.5,-235.5 488.5,-235.5"/>
<text text-anchor="start" x="496.5" y="-253.5" font-family="Helvetica,sans-Serif" font-size="10.00">AP_HAL::RCInput::new</text>
<text text-anchor="middle" x="549.5" y="-242.5" font-family="Helvetica,sans-Serif" font-size="10.00">_input</text>
</a>
</g>
</g>
<!-- Node3&#45;&gt;Node4 -->
<g id="edge3" class="edge"><title>Node3&#45;&gt;Node4</title>
<path fill="none" stroke="midnightblue" d="M389.629,-145.221C407.064,-163.317 446.94,-202.51 487,-226.5 489.667,-228.097 492.46,-229.625 495.321,-231.081"/>
<polygon fill="midnightblue" stroke="midnightblue" points="494.087,-234.37 504.624,-235.481 497.08,-228.042 494.087,-234.37"/>
</g>
<!-- Node5 -->
<g id="node5" class="node"><title>Node5</title>
<g id="a_node5"><a xlink:href="classAP__HAL_1_1RCInput.html#ae55f959c6115c1f41783af3a2b6c4fcd" target="_top" xlink:title="AP_HAL::RCInput::num\l_channels">
<polygon fill="white" stroke="black" points="488.5,-186.5 488.5,-216.5 610.5,-216.5 610.5,-186.5 488.5,-186.5"/>
<text text-anchor="start" x="496.5" y="-204.5" font-family="Helvetica,sans-Serif" font-size="10.00">AP_HAL::RCInput::num</text>
<text text-anchor="middle" x="549.5" y="-193.5" font-family="Helvetica,sans-Serif" font-size="10.00">_channels</text>
</a>
</g>
</g>
<!-- Node3&#45;&gt;Node5 -->
<g id="edge4" class="edge"><title>Node3&#45;&gt;Node5</title>
<path fill="none" stroke="midnightblue" d="M404.929,-145.097C429.918,-154.914 469.399,-170.425 500.64,-182.698"/>
<polygon fill="midnightblue" stroke="midnightblue" points="499.458,-185.994 510.045,-186.393 502.018,-179.479 499.458,-185.994"/>
</g>
<!-- Node6 -->
<g id="node6" class="node"><title>Node6</title>
<g id="a_node6"><a xlink:href="classAP__HAL_1_1RCInput.html#a078fd7e6d2e6a899009ec674a8e03498" target="_top" xlink:title="AP_HAL::RCInput::read">
<polygon fill="white" stroke="black" points="488.5,-148 488.5,-167 610.5,-167 610.5,-148 488.5,-148"/>
<text text-anchor="middle" x="549.5" y="-155" font-family="Helvetica,sans-Serif" font-size="10.00">AP_HAL::RCInput::read</text>
</a>
</g>
</g>
<!-- Node3&#45;&gt;Node6 -->
<g id="edge5" class="edge"><title>Node3&#45;&gt;Node6</title>
<path fill="none" stroke="midnightblue" d="M451.26,-144.766C460.251,-145.944 469.45,-147.148 478.431,-148.324"/>
<polygon fill="midnightblue" stroke="midnightblue" points="478.084,-151.809 488.454,-149.637 478.993,-144.868 478.084,-151.809"/>
</g>
<!-- Node7 -->
<g id="node7" class="node"><title>Node7</title>
<g id="a_node7"><a xlink:href="classAP__HAL_1_1RCInput.html#a0989c5ca271631fe655c047d4a022a3d" target="_top" xlink:title="AP_HAL::RCInput::set\l_overrides">
<polygon fill="white" stroke="black" points="491,-98.5 491,-128.5 608,-128.5 608,-98.5 491,-98.5"/>
<text text-anchor="start" x="499" y="-116.5" font-family="Helvetica,sans-Serif" font-size="10.00">AP_HAL::RCInput::set</text>
<text text-anchor="middle" x="549.5" y="-105.5" font-family="Helvetica,sans-Serif" font-size="10.00">_overrides</text>
</a>
</g>
</g>
<!-- Node3&#45;&gt;Node7 -->
<g id="edge6" class="edge"><title>Node3&#45;&gt;Node7</title>
<path fill="none" stroke="midnightblue" d="M451.26,-126.234C461.044,-124.953 471.073,-123.639 480.799,-122.366"/>
<polygon fill="midnightblue" stroke="midnightblue" points="481.342,-125.825 490.802,-121.056 480.433,-118.884 481.342,-125.825"/>
</g>
<!-- Node8 -->
<g id="node8" class="node"><title>Node8</title>
<g id="a_node8"><a xlink:href="classAP__HAL_1_1RCInput.html#abfd037ca0989a0422a60f418d34eb7d5" target="_top" xlink:title="AP_HAL::RCInput::set\l_override">
<polygon fill="white" stroke="black" points="491,-49.5 491,-79.5 608,-79.5 608,-49.5 491,-49.5"/>
<text text-anchor="start" x="499" y="-67.5" font-family="Helvetica,sans-Serif" font-size="10.00">AP_HAL::RCInput::set</text>
<text text-anchor="middle" x="549.5" y="-56.5" font-family="Helvetica,sans-Serif" font-size="10.00">_override</text>
</a>
</g>
</g>
<!-- Node3&#45;&gt;Node8 -->
<g id="edge7" class="edge"><title>Node3&#45;&gt;Node8</title>
<path fill="none" stroke="midnightblue" d="M426.183,-125.918C434.644,-123.386 443.251,-120.276 451,-116.5 468.979,-107.74 469.592,-99.3472 487,-89.5 490.456,-87.5449 494.096,-85.6632 497.808,-83.8706"/>
<polygon fill="midnightblue" stroke="midnightblue" points="499.482,-86.9532 507.117,-79.6071 496.568,-80.5889 499.482,-86.9532"/>
</g>
<!-- Node9 -->
<g id="node9" class="node"><title>Node9</title>
<g id="a_node9"><a xlink:href="classAP__HAL_1_1RCInput.html#ab3671bbe43fdb97c53071d7832ac256e" target="_top" xlink:title="AP_HAL::RCInput::clear\l_overrides">
<polygon fill="white" stroke="black" points="487,-0.5 487,-30.5 612,-30.5 612,-0.5 487,-0.5"/>
<text text-anchor="start" x="495" y="-18.5" font-family="Helvetica,sans-Serif" font-size="10.00">AP_HAL::RCInput::clear</text>
<text text-anchor="middle" x="549.5" y="-7.5" font-family="Helvetica,sans-Serif" font-size="10.00">_overrides</text>
</a>
</g>
</g>
<!-- Node3&#45;&gt;Node9 -->
<g id="edge8" class="edge"><title>Node3&#45;&gt;Node9</title>
<path fill="none" stroke="midnightblue" d="M435.245,-125.978C440.933,-123.506 446.33,-120.4 451,-116.5 479.686,-92.5412 459.838,-66.1746 487,-40.5 488.633,-38.9561 490.375,-37.5024 492.198,-36.134"/>
<polygon fill="midnightblue" stroke="midnightblue" points="494.148,-39.0411 500.638,-30.6665 490.342,-33.1661 494.148,-39.0411"/>
</g>
</g>
</svg>
