<?xml version="1.0" encoding="UTF-8" standalone="no"?>
<!DOCTYPE svg PUBLIC "-//W3C//DTD SVG 1.1//EN"
 "http://www.w3.org/Graphics/SVG/1.1/DTD/svg11.dtd">
<!-- Generated by graphviz version 2.38.0 (20140413.2041)
 -->
<!-- Title: AP_Mount_Alexmos::send_command Pages: 1 -->
<svg width="701pt" height="364pt"
 viewBox="0.00 0.00 701.00 364.34" xmlns="http://www.w3.org/2000/svg" xmlns:xlink="http://www.w3.org/1999/xlink">
<g id="graph0" class="graph" transform="scale(1 1) rotate(0) translate(4 360.339)">
<title>AP_Mount_Alexmos::send_command</title>
<polygon fill="white" stroke="none" points="-4,4 -4,-360.339 697,-360.339 697,4 -4,4"/>
<!-- Node1 -->
<g id="node1" class="node"><title>Node1</title>
<polygon fill="#bfbfbf" stroke="black" points="0,-163.5 0,-193.5 133,-193.5 133,-163.5 0,-163.5"/>
<text text-anchor="start" x="8" y="-181.5" font-family="Helvetica,sans-Serif" font-size="10.00">AP_Mount_Alexmos::send</text>
<text text-anchor="middle" x="66.5" y="-170.5" font-family="Helvetica,sans-Serif" font-size="10.00">_command</text>
</g>
<!-- Node2 -->
<g id="node2" class="node"><title>Node2</title>
<g id="a_node2"><a xlink:href="classAP__Mount__Alexmos.html#a7fe48614086de3bbb4e933b2a3ddb2fa" target="_top" xlink:title="AP_Mount_Alexmos::AP\l_Mount_Alexmos">
<polygon fill="white" stroke="black" points="568,-188.5 568,-218.5 693,-218.5 693,-188.5 568,-188.5"/>
<text text-anchor="start" x="576" y="-206.5" font-family="Helvetica,sans-Serif" font-size="10.00">AP_Mount_Alexmos::AP</text>
<text text-anchor="middle" x="630.5" y="-195.5" font-family="Helvetica,sans-Serif" font-size="10.00">_Mount_Alexmos</text>
</a>
</g>
</g>
<!-- Node1&#45;&gt;Node2 -->
<g id="edge1" class="edge"><title>Node1&#45;&gt;Node2</title>
<path fill="none" stroke="midnightblue" d="M77.7743,-203.089C92.6867,-235.38 123.601,-291.065 169,-317.5 246.322,-362.523 279.672,-335.381 369,-340.5 441.326,-344.645 467.613,-373.705 532,-340.5 582.595,-314.408 612.683,-248.576 624.149,-218.684"/>
<polygon fill="midnightblue" stroke="midnightblue" points="80.9343,-201.582 73.6617,-193.877 74.5423,-204.435 80.9343,-201.582"/>
</g>
<!-- Node3 -->
<g id="node3" class="node"><title>Node3</title>
<g id="a_node3"><a xlink:href="classAP__Mount__Alexmos.html#a1f6761ce850ccd070fddd623eb9d577a" target="_top" xlink:title="AP_Mount_Alexmos::control_axis">
<polygon fill="white" stroke="black" points="169,-289 169,-308 333,-308 333,-289 169,-289"/>
<text text-anchor="middle" x="251" y="-296" font-family="Helvetica,sans-Serif" font-size="10.00">AP_Mount_Alexmos::control_axis</text>
</a>
</g>
</g>
<!-- Node1&#45;&gt;Node3 -->
<g id="edge2" class="edge"><title>Node1&#45;&gt;Node3</title>
<path fill="none" stroke="midnightblue" d="M95.4225,-199.708C115.528,-214.699 143.493,-234.983 169,-251.5 190.29,-265.286 215.711,-279.723 232.323,-288.898"/>
<polygon fill="midnightblue" stroke="midnightblue" points="97.4183,-196.83 87.317,-193.634 93.2204,-202.432 97.4183,-196.83"/>
</g>
<!-- Node5 -->
<g id="node5" class="node"><title>Node5</title>
<g id="a_node5"><a xlink:href="classAP__Mount__Alexmos.html#a0f1bf55ecd2a81e392ee23ead469991c" target="_top" xlink:title="AP_Mount_Alexmos::get\l_angles">
<polygon fill="white" stroke="black" points="188.5,-212.5 188.5,-242.5 313.5,-242.5 313.5,-212.5 188.5,-212.5"/>
<text text-anchor="start" x="196.5" y="-230.5" font-family="Helvetica,sans-Serif" font-size="10.00">AP_Mount_Alexmos::get</text>
<text text-anchor="middle" x="251" y="-219.5" font-family="Helvetica,sans-Serif" font-size="10.00">_angles</text>
</a>
</g>
</g>
<!-- Node1&#45;&gt;Node5 -->
<g id="edge6" class="edge"><title>Node1&#45;&gt;Node5</title>
<path fill="none" stroke="midnightblue" d="M133.604,-196.248C153.383,-201.559 174.872,-207.329 193.941,-212.448"/>
<polygon fill="midnightblue" stroke="midnightblue" points="134.311,-192.814 123.745,-193.601 132.495,-199.575 134.311,-192.814"/>
</g>
<!-- Node7 -->
<g id="node7" class="node"><title>Node7</title>
<g id="a_node7"><a xlink:href="classAP__Mount__Alexmos.html#aafa4a3812c9685c396759e297eff6872" target="_top" xlink:title="AP_Mount_Alexmos::get\l_boardinfo">
<polygon fill="white" stroke="black" points="188.5,-163.5 188.5,-193.5 313.5,-193.5 313.5,-163.5 188.5,-163.5"/>
<text text-anchor="start" x="196.5" y="-181.5" font-family="Helvetica,sans-Serif" font-size="10.00">AP_Mount_Alexmos::get</text>
<text text-anchor="middle" x="251" y="-170.5" font-family="Helvetica,sans-Serif" font-size="10.00">_boardinfo</text>
</a>
</g>
</g>
<!-- Node1&#45;&gt;Node7 -->
<g id="edge10" class="edge"><title>Node1&#45;&gt;Node7</title>
<path fill="none" stroke="midnightblue" d="M143.377,-178.5C158.342,-178.5 173.874,-178.5 188.301,-178.5"/>
<polygon fill="midnightblue" stroke="midnightblue" points="143.129,-175 133.129,-178.5 143.129,-182 143.129,-175"/>
</g>
<!-- Node9 -->
<g id="node9" class="node"><title>Node9</title>
<g id="a_node9"><a xlink:href="classAP__Mount__Alexmos.html#adfaef569475429685fac995ac9f58b9a" target="_top" xlink:title="AP_Mount_Alexmos::read\l_params">
<polygon fill="white" stroke="black" points="185.5,-114.5 185.5,-144.5 316.5,-144.5 316.5,-114.5 185.5,-114.5"/>
<text text-anchor="start" x="193.5" y="-132.5" font-family="Helvetica,sans-Serif" font-size="10.00">AP_Mount_Alexmos::read</text>
<text text-anchor="middle" x="251" y="-121.5" font-family="Helvetica,sans-Serif" font-size="10.00">_params</text>
</a>
</g>
</g>
<!-- Node1&#45;&gt;Node9 -->
<g id="edge14" class="edge"><title>Node1&#45;&gt;Node9</title>
<path fill="none" stroke="midnightblue" d="M133.604,-160.752C153.383,-155.441 174.872,-149.671 193.941,-144.552"/>
<polygon fill="midnightblue" stroke="midnightblue" points="132.495,-157.425 123.745,-163.399 134.311,-164.186 132.495,-157.425"/>
</g>
<!-- Node10 -->
<g id="node10" class="node"><title>Node10</title>
<g id="a_node10"><a xlink:href="classAP__Mount__Alexmos.html#a1afd65f66045a67de1a9d6768597ac17" target="_top" xlink:title="AP_Mount_Alexmos::set\l_motor">
<polygon fill="white" stroke="black" points="388,-49.5 388,-79.5 513,-79.5 513,-49.5 388,-49.5"/>
<text text-anchor="start" x="396" y="-67.5" font-family="Helvetica,sans-Serif" font-size="10.00">AP_Mount_Alexmos::set</text>
<text text-anchor="middle" x="450.5" y="-56.5" font-family="Helvetica,sans-Serif" font-size="10.00">_motor</text>
</a>
</g>
</g>
<!-- Node1&#45;&gt;Node10 -->
<g id="edge17" class="edge"><title>Node1&#45;&gt;Node10</title>
<path fill="none" stroke="midnightblue" d="M90.5352,-156.543C109.895,-139.442 139.122,-116.635 169,-104.5 240.439,-75.4844 329.557,-67.0049 387.921,-64.7912"/>
<polygon fill="midnightblue" stroke="midnightblue" points="87.9391,-154.172 82.8693,-163.475 92.634,-159.364 87.9391,-154.172"/>
</g>
<!-- Node11 -->
<g id="node11" class="node"><title>Node11</title>
<g id="a_node11"><a xlink:href="classAP__Mount__Alexmos.html#ad203e2599e27adfa1daafd4cdb4291b9" target="_top" xlink:title="AP_Mount_Alexmos::write\l_params">
<polygon fill="white" stroke="black" points="384,-0.5 384,-30.5 517,-30.5 517,-0.5 384,-0.5"/>
<text text-anchor="start" x="392" y="-18.5" font-family="Helvetica,sans-Serif" font-size="10.00">AP_Mount_Alexmos::write</text>
<text text-anchor="middle" x="450.5" y="-7.5" font-family="Helvetica,sans-Serif" font-size="10.00">_params</text>
</a>
</g>
</g>
<!-- Node1&#45;&gt;Node11 -->
<g id="edge19" class="edge"><title>Node1&#45;&gt;Node11</title>
<path fill="none" stroke="midnightblue" d="M81.6691,-154.684C98.8194,-128.124 130.273,-86.0679 169,-64.5 235.835,-27.2781 324.366,-17.1517 383.939,-14.9641"/>
<polygon fill="midnightblue" stroke="midnightblue" points="78.5662,-153.044 76.2108,-163.374 84.4938,-156.768 78.5662,-153.044"/>
</g>
<!-- Node3&#45;&gt;Node2 -->
<g id="edge3" class="edge"><title>Node3&#45;&gt;Node2</title>
<path fill="none" stroke="midnightblue" d="M287.47,-311.323C342.61,-329.035 450.969,-354.822 532,-317.5 576.707,-296.908 608.545,-244.585 622.147,-218.607"/>
<polygon fill="midnightblue" stroke="midnightblue" points="288.405,-307.946 277.812,-308.127 286.206,-314.592 288.405,-307.946"/>
</g>
<!-- Node4 -->
<g id="node4" class="node"><title>Node4</title>
<g id="a_node4"><a xlink:href="classAP__Mount__Alexmos.html#ad6fa0fd652a1401e0c9d791ad9399b67" target="_top" xlink:title="AP_Mount_Alexmos::update">
<polygon fill="white" stroke="black" points="380,-289 380,-308 521,-308 521,-289 380,-289"/>
<text text-anchor="middle" x="450.5" y="-296" font-family="Helvetica,sans-Serif" font-size="10.00">AP_Mount_Alexmos::update</text>
</a>
</g>
</g>
<!-- Node3&#45;&gt;Node4 -->
<g id="edge4" class="edge"><title>Node3&#45;&gt;Node4</title>
<path fill="none" stroke="midnightblue" d="M343.449,-298.5C355.729,-298.5 368.161,-298.5 379.978,-298.5"/>
<polygon fill="midnightblue" stroke="midnightblue" points="343.186,-295 333.186,-298.5 343.186,-302 343.186,-295"/>
</g>
<!-- Node4&#45;&gt;Node2 -->
<g id="edge5" class="edge"><title>Node4&#45;&gt;Node2</title>
<path fill="none" stroke="midnightblue" d="M503.172,-285.936C512.976,-282.764 522.981,-278.963 532,-274.5 562.778,-259.267 594.136,-234.413 612.699,-218.516"/>
<polygon fill="midnightblue" stroke="midnightblue" points="502.018,-282.628 493.478,-288.898 504.064,-289.323 502.018,-282.628"/>
</g>
<!-- Node5&#45;&gt;Node2 -->
<g id="edge7" class="edge"><title>Node5&#45;&gt;Node2</title>
<path fill="none" stroke="midnightblue" d="M323.723,-240.269C380.666,-248.209 462.057,-254.648 532,-241.5 555.389,-237.103 580.372,-227.256 599.193,-218.687"/>
<polygon fill="midnightblue" stroke="midnightblue" points="324.136,-236.792 313.738,-238.826 323.135,-243.72 324.136,-236.792"/>
</g>
<!-- Node6 -->
<g id="node6" class="node"><title>Node6</title>
<g id="a_node6"><a xlink:href="classAP__Mount__Alexmos.html#a6d6484f3819b38ddba699ca986bf9f99" target="_top" xlink:title="AP_Mount_Alexmos::status_msg">
<polygon fill="white" stroke="black" points="369,-213 369,-232 532,-232 532,-213 369,-213"/>
<text text-anchor="middle" x="450.5" y="-220" font-family="Helvetica,sans-Serif" font-size="10.00">AP_Mount_Alexmos::status_msg</text>
</a>
</g>
</g>
<!-- Node5&#45;&gt;Node6 -->
<g id="edge8" class="edge"><title>Node5&#45;&gt;Node6</title>
<path fill="none" stroke="midnightblue" d="M324.077,-225.675C338.588,-225.308 353.929,-224.92 368.714,-224.545"/>
<polygon fill="midnightblue" stroke="midnightblue" points="323.586,-222.186 313.678,-225.939 323.763,-229.184 323.586,-222.186"/>
</g>
<!-- Node6&#45;&gt;Node2 -->
<g id="edge9" class="edge"><title>Node6&#45;&gt;Node2</title>
<path fill="none" stroke="midnightblue" d="M542.285,-212.809C550.912,-211.889 559.517,-210.97 567.775,-210.089"/>
<polygon fill="midnightblue" stroke="midnightblue" points="541.739,-209.348 532.167,-213.889 542.482,-216.308 541.739,-209.348"/>
</g>
<!-- Node7&#45;&gt;Node2 -->
<g id="edge11" class="edge"><title>Node7&#45;&gt;Node2</title>
<path fill="none" stroke="midnightblue" d="M324.06,-183.272C394.656,-187.947 501.089,-194.996 567.866,-199.418"/>
<polygon fill="midnightblue" stroke="midnightblue" points="324.123,-179.769 313.914,-182.6 323.661,-186.753 324.123,-179.769"/>
</g>
<!-- Node8 -->
<g id="node8" class="node"><title>Node8</title>
<g id="a_node8"><a xlink:href="classAP__Mount__Alexmos.html#a5fa7cd0a3d3c60bd6a2705075ee22359" target="_top" xlink:title="AP_Mount_Alexmos::init">
<polygon fill="white" stroke="black" points="388,-137 388,-156 513,-156 513,-137 388,-137"/>
<text text-anchor="middle" x="450.5" y="-144" font-family="Helvetica,sans-Serif" font-size="10.00">AP_Mount_Alexmos::init</text>
</a>
</g>
</g>
<!-- Node7&#45;&gt;Node8 -->
<g id="edge12" class="edge"><title>Node7&#45;&gt;Node8</title>
<path fill="none" stroke="midnightblue" d="M323.636,-166.893C345.644,-163.327 369.601,-159.446 390.65,-156.035"/>
<polygon fill="midnightblue" stroke="midnightblue" points="322.989,-163.452 313.678,-168.507 324.109,-170.362 322.989,-163.452"/>
</g>
<!-- Node8&#45;&gt;Node2 -->
<g id="edge13" class="edge"><title>Node8&#45;&gt;Node2</title>
<path fill="none" stroke="midnightblue" d="M494.411,-158.977C506.588,-162.603 519.84,-166.631 532,-170.5 549.71,-176.135 569.122,-182.638 585.93,-188.374"/>
<polygon fill="midnightblue" stroke="midnightblue" points="495.065,-155.52 484.483,-156.037 493.078,-162.232 495.065,-155.52"/>
</g>
<!-- Node9&#45;&gt;Node2 -->
<g id="edge15" class="edge"><title>Node9&#45;&gt;Node2</title>
<path fill="none" stroke="midnightblue" d="M326.908,-115.746C384.581,-108.263 465.429,-104.619 532,-127.5 566.91,-139.499 598.923,-169.682 616.173,-188.198"/>
<polygon fill="midnightblue" stroke="midnightblue" points="326.213,-112.308 316.779,-117.13 327.16,-119.244 326.213,-112.308"/>
</g>
<!-- Node9&#45;&gt;Node8 -->
<g id="edge16" class="edge"><title>Node9&#45;&gt;Node8</title>
<path fill="none" stroke="midnightblue" d="M326.727,-135.932C346.846,-137.664 368.381,-139.518 387.708,-141.181"/>
<polygon fill="midnightblue" stroke="midnightblue" points="326.932,-132.437 316.669,-135.066 326.332,-139.411 326.932,-132.437"/>
</g>
<!-- Node10&#45;&gt;Node2 -->
<g id="edge18" class="edge"><title>Node10&#45;&gt;Node2</title>
<path fill="none" stroke="midnightblue" d="M512.52,-83.5794C519.34,-86.7664 525.987,-90.396 532,-94.5 570.377,-120.692 603.709,-165.137 619.599,-188.354"/>
<polygon fill="midnightblue" stroke="midnightblue" points="513.722,-80.2854 503.155,-79.505 510.929,-86.7041 513.722,-80.2854"/>
</g>
<!-- Node11&#45;&gt;Node2 -->
<g id="edge20" class="edge"><title>Node11&#45;&gt;Node2</title>
<path fill="none" stroke="midnightblue" d="M526.302,-35.4854C528.272,-36.743 530.178,-38.0795 532,-39.5 583.728,-79.8194 613.764,-155.875 624.719,-188.269"/>
<polygon fill="midnightblue" stroke="midnightblue" points="527.733,-32.2761 517.295,-30.4617 524.323,-38.3895 527.733,-32.2761"/>
</g>
</g>
</svg>
