<?xml version="1.0" encoding="UTF-8" standalone="no"?>
<!DOCTYPE svg PUBLIC "-//W3C//DTD SVG 1.1//EN"
 "http://www.w3.org/Graphics/SVG/1.1/DTD/svg11.dtd">
<!-- Generated by graphviz version 2.38.0 (20140413.2041)
 -->
<!-- Title: AC_PID Pages: 1 -->
<svg width="492pt" height="97pt"
 viewBox="0.00 0.00 491.50 97.00" xmlns="http://www.w3.org/2000/svg" xmlns:xlink="http://www.w3.org/1999/xlink">
<g id="graph0" class="graph" transform="scale(1 1) rotate(0) translate(4 93)">
<title>AC_PID</title>
<polygon fill="white" stroke="none" points="-4,4 -4,-93 487.5,-93 487.5,4 -4,4"/>
<!-- Node1 -->
<g id="node1" class="node"><title>Node1</title>
<polygon fill="#bfbfbf" stroke="black" points="162.5,-0.5 162.5,-19.5 215.5,-19.5 215.5,-0.5 162.5,-0.5"/>
<text text-anchor="middle" x="189" y="-7.5" font-family="Helvetica,sans-Serif" font-size="10.00">AC_PID</text>
</g>
<!-- Node2 -->
<g id="node2" class="node"><title>Node2</title>
<g id="a_node2"><a xlink:href="structAC__PID_1_1ac__pid__flags.html" target="_top" xlink:title="AC_PID::ac_pid_flags">
<polygon fill="white" stroke="black" points="0,-68.5 0,-87.5 114,-87.5 114,-68.5 0,-68.5"/>
<text text-anchor="middle" x="57" y="-75.5" font-family="Helvetica,sans-Serif" font-size="10.00">AC_PID::ac_pid_flags</text>
</a>
</g>
</g>
<!-- Node2&#45;&gt;Node1 -->
<g id="edge1" class="edge"><title>Node2&#45;&gt;Node1</title>
<path fill="none" stroke="#9a32cd" stroke-dasharray="5,2" d="M83.2757,-63.8621C109.552,-50.7239 149.206,-30.8969 171.739,-19.6305"/>
<polygon fill="#9a32cd" stroke="#9a32cd" points="81.6357,-60.769 74.2567,-68.3717 84.7662,-67.03 81.6357,-60.769"/>
<text text-anchor="middle" x="150" y="-41" font-family="Helvetica,sans-Serif" font-size="10.00"> _flags</text>
</g>
<!-- Node3 -->
<g id="node3" class="node"><title>Node3</title>
<g id="a_node3"><a xlink:href="structAP__Param_1_1GroupInfo.html" target="_top" xlink:title="AP_Param::GroupInfo">
<polygon fill="white" stroke="black" points="132.5,-68.5 132.5,-87.5 245.5,-87.5 245.5,-68.5 132.5,-68.5"/>
<text text-anchor="middle" x="189" y="-75.5" font-family="Helvetica,sans-Serif" font-size="10.00">AP_Param::GroupInfo</text>
</a>
</g>
</g>
<!-- Node3&#45;&gt;Node1 -->
<g id="edge2" class="edge"><title>Node3&#45;&gt;Node1</title>
<path fill="none" stroke="#9a32cd" stroke-dasharray="5,2" d="M189,-58.0413C189,-45.4724 189,-29.5631 189,-19.8411"/>
<polygon fill="#9a32cd" stroke="#9a32cd" points="185.5,-58.3716 189,-68.3717 192.5,-58.3717 185.5,-58.3716"/>
<text text-anchor="middle" x="208" y="-41" font-family="Helvetica,sans-Serif" font-size="10.00"> var_info</text>
</g>
<!-- Node3&#45;&gt;Node3 -->
<g id="edge3" class="edge"><title>Node3&#45;&gt;Node3</title>
<path fill="none" stroke="#9a32cd" stroke-dasharray="5,2" d="M255.488,-82.7523C260.452,-81.6899 263.5,-80.1058 263.5,-78 263.5,-74.7129 256.072,-72.697 245.526,-71.9522"/>
<polygon fill="#9a32cd" stroke="#9a32cd" points="254.991,-79.2874 245.526,-84.0478 255.893,-86.229 254.991,-79.2874"/>
<text text-anchor="middle" x="296" y="-81" font-family="Helvetica,sans-Serif" font-size="10.00"> group_info_ptr</text>
<text text-anchor="middle" x="296" y="-70" font-family="Helvetica,sans-Serif" font-size="10.00">group_info</text>
</g>
<!-- Node4 -->
<g id="node4" class="node"><title>Node4</title>
<g id="a_node4"><a xlink:href="structDataFlash__Class_1_1PID__Info.html" target="_top" xlink:title="DataFlash_Class::PID_Info">
<polygon fill="white" stroke="black" points="346.5,-68.5 346.5,-87.5 483.5,-87.5 483.5,-68.5 346.5,-68.5"/>
<text text-anchor="middle" x="415" y="-75.5" font-family="Helvetica,sans-Serif" font-size="10.00">DataFlash_Class::PID_Info</text>
</a>
</g>
</g>
<!-- Node4&#45;&gt;Node1 -->
<g id="edge4" class="edge"><title>Node4&#45;&gt;Node1</title>
<path fill="none" stroke="#9a32cd" stroke-dasharray="5,2" d="M375.571,-65.4853C329.729,-52.0978 255.311,-30.365 215.736,-18.8078"/>
<polygon fill="#9a32cd" stroke="#9a32cd" points="374.874,-68.928 385.454,-68.3717 376.837,-62.2087 374.874,-68.928"/>
<text text-anchor="middle" x="337.5" y="-41" font-family="Helvetica,sans-Serif" font-size="10.00"> _pid_info</text>
</g>
</g>
</svg>
