<?xml version="1.0" encoding="UTF-8" standalone="no"?>
<!DOCTYPE svg PUBLIC "-//W3C//DTD SVG 1.1//EN"
 "http://www.w3.org/Graphics/SVG/1.1/DTD/svg11.dtd">
<!-- Generated by graphviz version 2.38.0 (20140413.2041)
 -->
<!-- Title: GCS_MAVLINK::save_signing_timestamp Pages: 1 -->
<svg width="2015pt" height="667pt"
 viewBox="0.00 0.00 2015.00 666.50" xmlns="http://www.w3.org/2000/svg" xmlns:xlink="http://www.w3.org/1999/xlink">
<g id="graph0" class="graph" transform="scale(1 1) rotate(0) translate(4 662.5)">
<title>GCS_MAVLINK::save_signing_timestamp</title>
<polygon fill="white" stroke="none" points="-4,4 -4,-662.5 2011,-662.5 2011,4 -4,4"/>
<!-- Node1 -->
<g id="node1" class="node"><title>Node1</title>
<polygon fill="#bfbfbf" stroke="black" points="0,-466.5 0,-496.5 151,-496.5 151,-466.5 0,-466.5"/>
<text text-anchor="start" x="8" y="-484.5" font-family="Helvetica,sans-Serif" font-size="10.00">GCS_MAVLINK::save_signing</text>
<text text-anchor="middle" x="75.5" y="-473.5" font-family="Helvetica,sans-Serif" font-size="10.00">_timestamp</text>
</g>
<!-- Node2 -->
<g id="node2" class="node"><title>Node2</title>
<g id="a_node2"><a xlink:href="namespaceAP__HAL.html#a77dffbb18891996280308e21316ec186" target="_top" xlink:title="AP_HAL::millis">
<polygon fill="white" stroke="black" points="187,-472 187,-491 270,-491 270,-472 187,-472"/>
<text text-anchor="middle" x="228.5" y="-479" font-family="Helvetica,sans-Serif" font-size="10.00">AP_HAL::millis</text>
</a>
</g>
</g>
<!-- Node1&#45;&gt;Node2 -->
<g id="edge1" class="edge"><title>Node1&#45;&gt;Node2</title>
<path fill="none" stroke="midnightblue" d="M151.115,-481.5C159.788,-481.5 168.476,-481.5 176.721,-481.5"/>
<polygon fill="midnightblue" stroke="midnightblue" points="176.895,-485 186.895,-481.5 176.895,-478 176.895,-485"/>
</g>
<!-- Node3 -->
<g id="node3" class="node"><title>Node3</title>
<g id="a_node3"><a xlink:href="namespaceAP__HAL.html#a59336c5fceaf28a76d1df1581a87a25d" target="_top" xlink:title="AP_HAL::millis64">
<polygon fill="white" stroke="black" points="306,-472 306,-491 400,-491 400,-472 306,-472"/>
<text text-anchor="middle" x="353" y="-479" font-family="Helvetica,sans-Serif" font-size="10.00">AP_HAL::millis64</text>
</a>
</g>
</g>
<!-- Node2&#45;&gt;Node3 -->
<g id="edge2" class="edge"><title>Node2&#45;&gt;Node3</title>
<path fill="none" stroke="midnightblue" d="M270.291,-481.5C278.495,-481.5 287.252,-481.5 295.873,-481.5"/>
<polygon fill="midnightblue" stroke="midnightblue" points="295.89,-485 305.89,-481.5 295.89,-478 295.89,-485"/>
</g>
<!-- Node4 -->
<g id="node4" class="node"><title>Node4</title>
<g id="a_node4"><a xlink:href="classLinux_1_1Scheduler.html#a53ecaae0fdc72f85bd57c4b0cff93653" target="_top" xlink:title="Linux::Scheduler::from">
<polygon fill="white" stroke="black" points="436,-344 436,-363 551,-363 551,-344 436,-344"/>
<text text-anchor="middle" x="493.5" y="-351" font-family="Helvetica,sans-Serif" font-size="10.00">Linux::Scheduler::from</text>
</a>
</g>
</g>
<!-- Node3&#45;&gt;Node4 -->
<g id="edge3" class="edge"><title>Node3&#45;&gt;Node4</title>
<path fill="none" stroke="midnightblue" d="M364.41,-471.879C387.871,-450.196 445.114,-397.294 474.478,-370.156"/>
<polygon fill="midnightblue" stroke="midnightblue" points="477.001,-372.59 481.969,-363.232 472.25,-367.449 477.001,-372.59"/>
</g>
<!-- Node35 -->
<g id="node35" class="node"><title>Node35</title>
<g id="a_node35"><a xlink:href="classLinux_1_1Scheduler.html#a682b4c34f330f66db5ab4aa5d96e13f9" target="_top" xlink:title="Linux::Scheduler::stopped\l_clock_usec">
<polygon fill="white" stroke="black" points="1259,-490.5 1259,-520.5 1389,-520.5 1389,-490.5 1259,-490.5"/>
<text text-anchor="start" x="1267" y="-508.5" font-family="Helvetica,sans-Serif" font-size="10.00">Linux::Scheduler::stopped</text>
<text text-anchor="middle" x="1324" y="-497.5" font-family="Helvetica,sans-Serif" font-size="10.00">_clock_usec</text>
</a>
</g>
</g>
<!-- Node3&#45;&gt;Node35 -->
<g id="edge61" class="edge"><title>Node3&#45;&gt;Node35</title>
<path fill="none" stroke="midnightblue" d="M366.142,-491.196C404.975,-521.196 530.599,-610.5 650,-610.5 650,-610.5 650,-610.5 991.5,-610.5 1103.24,-610.5 1226.7,-555.608 1286.51,-525.202"/>
<polygon fill="midnightblue" stroke="midnightblue" points="1288.27,-528.235 1295.56,-520.544 1285.06,-522.012 1288.27,-528.235"/>
</g>
<!-- Node5 -->
<g id="node5" class="node"><title>Node5</title>
<g id="a_node5"><a xlink:href="classLinux_1_1Scheduler.html#a3d77c332e051c28c83fb07757e7100bd" target="_top" xlink:title="Linux::Scheduler::init">
<polygon fill="white" stroke="black" points="597,-126 597,-145 705,-145 705,-126 597,-126"/>
<text text-anchor="middle" x="651" y="-133" font-family="Helvetica,sans-Serif" font-size="10.00">Linux::Scheduler::init</text>
</a>
</g>
</g>
<!-- Node4&#45;&gt;Node5 -->
<g id="edge4" class="edge"><title>Node4&#45;&gt;Node5</title>
<path fill="none" stroke="midnightblue" d="M496.096,-343.951C501.933,-312.05 525.111,-208.159 587,-154.5 588.964,-152.797 591.076,-151.247 593.295,-149.836"/>
<polygon fill="midnightblue" stroke="midnightblue" points="595.106,-152.838 602.293,-145.053 591.82,-146.657 595.106,-152.838"/>
</g>
<!-- Node15 -->
<g id="node15" class="node"><title>Node15</title>
<g id="a_node15"><a xlink:href="classLinux_1_1Scheduler.html#a02a34a123dfebaf360f7010745e1e646" target="_top" xlink:title="Linux::Scheduler::register\l_timer_process">
<polygon fill="white" stroke="black" points="753,-98.5 753,-128.5 881,-128.5 881,-98.5 753,-98.5"/>
<text text-anchor="start" x="761" y="-116.5" font-family="Helvetica,sans-Serif" font-size="10.00">Linux::Scheduler::register</text>
<text text-anchor="middle" x="817" y="-105.5" font-family="Helvetica,sans-Serif" font-size="10.00">_timer_process</text>
</a>
</g>
</g>
<!-- Node4&#45;&gt;Node15 -->
<g id="edge32" class="edge"><title>Node4&#45;&gt;Node15</title>
<path fill="none" stroke="midnightblue" d="M494.745,-343.787C496.272,-306.48 507.307,-171.713 587,-116.5 634.852,-83.3472 702.874,-87.135 752.342,-96.4531"/>
<polygon fill="midnightblue" stroke="midnightblue" points="751.797,-99.9133 762.29,-98.4474 753.173,-93.0498 751.797,-99.9133"/>
</g>
<!-- Node26 -->
<g id="node26" class="node"><title>Node26</title>
<g id="a_node26"><a xlink:href="classLinux_1_1Scheduler.html#a14f3239ecbb9889823b20dc9de655c2f" target="_top" xlink:title="Linux::Scheduler::delay">
<polygon fill="white" stroke="black" points="591.5,-639 591.5,-658 710.5,-658 710.5,-639 591.5,-639"/>
<text text-anchor="middle" x="651" y="-646" font-family="Helvetica,sans-Serif" font-size="10.00">Linux::Scheduler::delay</text>
</a>
</g>
</g>
<!-- Node4&#45;&gt;Node26 -->
<g id="edge26" class="edge"><title>Node4&#45;&gt;Node26</title>
<path fill="none" stroke="midnightblue" d="M496.763,-363.05C504.91,-396.142 535.037,-508.158 587,-586.5 598.731,-604.186 616.173,-620.857 629.732,-632.449"/>
<polygon fill="midnightblue" stroke="midnightblue" points="627.658,-635.276 637.587,-638.973 632.131,-629.891 627.658,-635.276"/>
</g>
<!-- Node28 -->
<g id="node28" class="node"><title>Node28</title>
<g id="a_node28"><a xlink:href="classLinux_1_1Scheduler.html#a4cffd5bcba0175bf49c7aa75ff3bf09a" target="_top" xlink:title="Linux::Scheduler::delay\l_microseconds">
<polygon fill="white" stroke="black" points="1264.5,-557.5 1264.5,-587.5 1383.5,-587.5 1383.5,-557.5 1264.5,-557.5"/>
<text text-anchor="start" x="1272.5" y="-575.5" font-family="Helvetica,sans-Serif" font-size="10.00">Linux::Scheduler::delay</text>
<text text-anchor="middle" x="1324" y="-564.5" font-family="Helvetica,sans-Serif" font-size="10.00">_microseconds</text>
</a>
</g>
</g>
<!-- Node4&#45;&gt;Node28 -->
<g id="edge29" class="edge"><title>Node4&#45;&gt;Node28</title>
<path fill="none" stroke="midnightblue" d="M495.609,-363.155C499.985,-396.32 519.279,-506.149 587,-553.5 670.698,-612.021 713.873,-572.5 816,-572.5 816,-572.5 816,-572.5 991.5,-572.5 1082.37,-572.5 1187.26,-572.5 1254.3,-572.5"/>
<polygon fill="midnightblue" stroke="midnightblue" points="1254.32,-576 1264.32,-572.5 1254.32,-569 1254.32,-576"/>
</g>
<!-- Node29 -->
<g id="node29" class="node"><title>Node29</title>
<g id="a_node29"><a xlink:href="classLinux_1_1Scheduler.html#a5cb50b637d5fd3e5f9220bc23db0fb3f" target="_top" xlink:title="Linux::Scheduler::register\l_delay_callback">
<polygon fill="white" stroke="black" points="587,-513.5 587,-543.5 715,-543.5 715,-513.5 587,-513.5"/>
<text text-anchor="start" x="595" y="-531.5" font-family="Helvetica,sans-Serif" font-size="10.00">Linux::Scheduler::register</text>
<text text-anchor="middle" x="651" y="-520.5" font-family="Helvetica,sans-Serif" font-size="10.00">_delay_callback</text>
</a>
</g>
</g>
<!-- Node4&#45;&gt;Node29 -->
<g id="edge31" class="edge"><title>Node4&#45;&gt;Node29</title>
<path fill="none" stroke="midnightblue" d="M498.432,-363.272C509.099,-388.699 540.905,-457.77 587,-498.5 591.142,-502.16 595.808,-505.468 600.681,-508.434"/>
<polygon fill="midnightblue" stroke="midnightblue" points="599.166,-511.596 609.606,-513.404 602.572,-505.481 599.166,-511.596"/>
</g>
<!-- Node30 -->
<g id="node30" class="node"><title>Node30</title>
<g id="a_node30"><a xlink:href="classLinux_1_1Scheduler.html#aa2be97cb8686d72cc322fb38f69a940c" target="_top" xlink:title="Linux::Scheduler::register\l_io_process">
<polygon fill="white" stroke="black" points="753,-49.5 753,-79.5 881,-79.5 881,-49.5 753,-49.5"/>
<text text-anchor="start" x="761" y="-67.5" font-family="Helvetica,sans-Serif" font-size="10.00">Linux::Scheduler::register</text>
<text text-anchor="middle" x="817" y="-56.5" font-family="Helvetica,sans-Serif" font-size="10.00">_io_process</text>
</a>
</g>
</g>
<!-- Node4&#45;&gt;Node30 -->
<g id="edge33" class="edge"><title>Node4&#45;&gt;Node30</title>
<path fill="none" stroke="midnightblue" d="M494.434,-343.92C494.732,-304.492 501.595,-153.682 587,-86.5 630.374,-52.3804 693.638,-48.683 742.686,-52.5074"/>
<polygon fill="midnightblue" stroke="midnightblue" points="742.65,-56.0183 752.924,-53.4294 743.278,-49.0465 742.65,-56.0183"/>
</g>
<!-- Node31 -->
<g id="node31" class="node"><title>Node31</title>
<g id="a_node31"><a xlink:href="classLinux_1_1Scheduler.html#abba967d02c28cb0b16a7cebbff9bc6d6" target="_top" xlink:title="Linux::Scheduler::suspend\l_timer_procs">
<polygon fill="white" stroke="black" points="751,-425.5 751,-455.5 883,-455.5 883,-425.5 751,-425.5"/>
<text text-anchor="start" x="759" y="-443.5" font-family="Helvetica,sans-Serif" font-size="10.00">Linux::Scheduler::suspend</text>
<text text-anchor="middle" x="817" y="-432.5" font-family="Helvetica,sans-Serif" font-size="10.00">_timer_procs</text>
</a>
</g>
</g>
<!-- Node4&#45;&gt;Node31 -->
<g id="edge35" class="edge"><title>Node4&#45;&gt;Node31</title>
<path fill="none" stroke="midnightblue" d="M502.768,-363.05C517.674,-379.494 550.877,-412.714 587,-426.5 635.781,-445.117 694.649,-448.339 740.483,-447.051"/>
<polygon fill="midnightblue" stroke="midnightblue" points="740.781,-450.543 750.649,-446.686 740.529,-443.547 740.781,-450.543"/>
</g>
<!-- Node41 -->
<g id="node41" class="node"><title>Node41</title>
<g id="a_node41"><a xlink:href="classLinux_1_1Scheduler.html#aee4e701b92cb4721c4de1bfcdcded70c" target="_top" xlink:title="Linux::Scheduler::resume\l_timer_procs">
<polygon fill="white" stroke="black" points="753,-240.5 753,-270.5 881,-270.5 881,-240.5 753,-240.5"/>
<text text-anchor="start" x="761" y="-258.5" font-family="Helvetica,sans-Serif" font-size="10.00">Linux::Scheduler::resume</text>
<text text-anchor="middle" x="817" y="-247.5" font-family="Helvetica,sans-Serif" font-size="10.00">_timer_procs</text>
</a>
</g>
</g>
<!-- Node4&#45;&gt;Node41 -->
<g id="edge49" class="edge"><title>Node4&#45;&gt;Node41</title>
<path fill="none" stroke="midnightblue" d="M498.216,-343.713C508.158,-319.121 537.993,-254.964 587,-230.5 637.899,-205.092 658.529,-223.615 715,-230.5 728.289,-232.12 742.348,-234.897 755.617,-238.026"/>
<polygon fill="midnightblue" stroke="midnightblue" points="755.039,-241.488 765.585,-240.474 756.708,-234.69 755.039,-241.488"/>
</g>
<!-- Node43 -->
<g id="node43" class="node"><title>Node43</title>
<g id="a_node43"><a xlink:href="classLinux_1_1Scheduler.html#af23753e7c6bfa97553db215a64235455" target="_top" xlink:title="Linux::Scheduler::in\l_timerprocess">
<polygon fill="white" stroke="black" points="599.5,-387.5 599.5,-417.5 702.5,-417.5 702.5,-387.5 599.5,-387.5"/>
<text text-anchor="start" x="607.5" y="-405.5" font-family="Helvetica,sans-Serif" font-size="10.00">Linux::Scheduler::in</text>
<text text-anchor="middle" x="651" y="-394.5" font-family="Helvetica,sans-Serif" font-size="10.00">_timerprocess</text>
</a>
</g>
</g>
<!-- Node4&#45;&gt;Node43 -->
<g id="edge51" class="edge"><title>Node4&#45;&gt;Node43</title>
<path fill="none" stroke="midnightblue" d="M524.851,-363.064C544.108,-369.132 569.638,-377.177 592.615,-384.417"/>
<polygon fill="midnightblue" stroke="midnightblue" points="591.691,-387.796 602.281,-387.463 593.795,-381.119 591.691,-387.796"/>
</g>
<!-- Node44 -->
<g id="node44" class="node"><title>Node44</title>
<g id="a_node44"><a xlink:href="classLinux_1_1Scheduler.html#ac193459e3575c7a0588fdc72250c2044" target="_top" xlink:title="Linux::Scheduler::register\l_timer_failsafe">
<polygon fill="white" stroke="black" points="587,-240.5 587,-270.5 715,-270.5 715,-240.5 587,-240.5"/>
<text text-anchor="start" x="595" y="-258.5" font-family="Helvetica,sans-Serif" font-size="10.00">Linux::Scheduler::register</text>
<text text-anchor="middle" x="651" y="-247.5" font-family="Helvetica,sans-Serif" font-size="10.00">_timer_failsafe</text>
</a>
</g>
</g>
<!-- Node4&#45;&gt;Node44 -->
<g id="edge52" class="edge"><title>Node4&#45;&gt;Node44</title>
<path fill="none" stroke="midnightblue" d="M504.277,-343.939C520.373,-328.62 553.971,-298.383 587,-279.5 589.845,-277.873 592.821,-276.316 595.866,-274.831"/>
<polygon fill="midnightblue" stroke="midnightblue" points="597.497,-277.934 605.144,-270.601 594.593,-271.565 597.497,-277.934"/>
</g>
<!-- Node45 -->
<g id="node45" class="node"><title>Node45</title>
<g id="a_node45"><a xlink:href="classLinux_1_1Scheduler.html#ad6070a7ee637adf5101b1e6b6efbf8f6" target="_top" xlink:title="Linux::Scheduler::system\l_initialized">
<polygon fill="white" stroke="black" points="587,-289.5 587,-319.5 715,-319.5 715,-289.5 587,-289.5"/>
<text text-anchor="start" x="595" y="-307.5" font-family="Helvetica,sans-Serif" font-size="10.00">Linux::Scheduler::system</text>
<text text-anchor="middle" x="651" y="-296.5" font-family="Helvetica,sans-Serif" font-size="10.00">_initialized</text>
</a>
</g>
</g>
<!-- Node4&#45;&gt;Node45 -->
<g id="edge53" class="edge"><title>Node4&#45;&gt;Node45</title>
<path fill="none" stroke="midnightblue" d="M524.851,-343.936C544.108,-337.868 569.638,-329.823 592.615,-322.583"/>
<polygon fill="midnightblue" stroke="midnightblue" points="593.795,-325.881 602.281,-319.537 591.691,-319.204 593.795,-325.881"/>
</g>
<!-- Node47 -->
<g id="node47" class="node"><title>Node47</title>
<g id="a_node47"><a xlink:href="classLinux_1_1Scheduler.html#ae72cfa66c849ffd882ef518c35c71e69" target="_top" xlink:title="Linux::Scheduler::reboot">
<polygon fill="white" stroke="black" points="590,-164 590,-183 712,-183 712,-164 590,-164"/>
<text text-anchor="middle" x="651" y="-171" font-family="Helvetica,sans-Serif" font-size="10.00">Linux::Scheduler::reboot</text>
</a>
</g>
</g>
<!-- Node4&#45;&gt;Node47 -->
<g id="edge56" class="edge"><title>Node4&#45;&gt;Node47</title>
<path fill="none" stroke="midnightblue" d="M497.618,-343.942C506.862,-317.039 536.659,-239.883 587,-197.5 591.818,-193.444 597.394,-190.032 603.197,-187.173"/>
<polygon fill="midnightblue" stroke="midnightblue" points="604.675,-190.347 612.426,-183.124 601.862,-183.937 604.675,-190.347"/>
</g>
<!-- Node48 -->
<g id="node48" class="node"><title>Node48</title>
<g id="a_node48"><a xlink:href="classLinux_1_1Scheduler.html#a392aebafcdfe9a812e4db4b7a9dcce9c" target="_top" xlink:title="Linux::Scheduler::stop\l_clock">
<polygon fill="white" stroke="black" points="594,-338.5 594,-368.5 708,-368.5 708,-338.5 594,-338.5"/>
<text text-anchor="start" x="602" y="-356.5" font-family="Helvetica,sans-Serif" font-size="10.00">Linux::Scheduler::stop</text>
<text text-anchor="middle" x="651" y="-345.5" font-family="Helvetica,sans-Serif" font-size="10.00">_clock</text>
</a>
</g>
</g>
<!-- Node4&#45;&gt;Node48 -->
<g id="edge57" class="edge"><title>Node4&#45;&gt;Node48</title>
<path fill="none" stroke="midnightblue" d="M551.079,-353.5C561.674,-353.5 572.837,-353.5 583.695,-353.5"/>
<polygon fill="midnightblue" stroke="midnightblue" points="583.984,-357 593.984,-353.5 583.984,-350 583.984,-357"/>
</g>
<!-- Node6 -->
<g id="node6" class="node"><title>Node6</title>
<g id="a_node6"><a xlink:href="namespaceAP__HAL.html#a71832f03d849a0c088f04fc98d3c8143" target="_top" xlink:title="AP_HAL::panic">
<polygon fill="white" stroke="black" points="775,-202 775,-221 859,-221 859,-202 775,-202"/>
<text text-anchor="middle" x="817" y="-209" font-family="Helvetica,sans-Serif" font-size="10.00">AP_HAL::panic</text>
</a>
</g>
</g>
<!-- Node5&#45;&gt;Node6 -->
<g id="edge5" class="edge"><title>Node5&#45;&gt;Node6</title>
<path fill="none" stroke="midnightblue" d="M688.469,-145.007C697.29,-147.712 706.594,-150.913 715,-154.5 742.817,-166.371 772.763,-183.936 792.763,-196.425"/>
<polygon fill="midnightblue" stroke="midnightblue" points="791.147,-199.544 801.469,-201.934 794.89,-193.629 791.147,-199.544"/>
</g>
<!-- Node5&#45;&gt;Node15 -->
<g id="edge14" class="edge"><title>Node5&#45;&gt;Node15</title>
<path fill="none" stroke="midnightblue" d="M705.246,-128.357C717.202,-126.753 730.091,-125.024 742.703,-123.333"/>
<polygon fill="midnightblue" stroke="midnightblue" points="743.289,-126.785 752.734,-121.987 742.358,-119.848 743.289,-126.785"/>
</g>
<!-- Node24 -->
<g id="node24" class="node"><title>Node24</title>
<g id="a_node24"><a xlink:href="classLinux_1_1Scheduler.html#a163eb7b285c95b1b1d036fc61d723910" target="_top" xlink:title="Linux::Scheduler::\l_debug_stack">
<polygon fill="white" stroke="black" points="769.5,-0.5 769.5,-30.5 864.5,-30.5 864.5,-0.5 769.5,-0.5"/>
<text text-anchor="start" x="777.5" y="-18.5" font-family="Helvetica,sans-Serif" font-size="10.00">Linux::Scheduler::</text>
<text text-anchor="middle" x="817" y="-7.5" font-family="Helvetica,sans-Serif" font-size="10.00">_debug_stack</text>
</a>
</g>
</g>
<!-- Node5&#45;&gt;Node24 -->
<g id="edge23" class="edge"><title>Node5&#45;&gt;Node24</title>
<path fill="none" stroke="midnightblue" d="M659.455,-125.982C674.73,-107.054 711.492,-64.3722 751,-39.5 753.939,-37.6495 757.043,-35.9111 760.236,-34.283"/>
<polygon fill="midnightblue" stroke="midnightblue" points="761.838,-37.3974 769.409,-29.9856 758.868,-31.0585 761.838,-37.3974"/>
</g>
<!-- Node7 -->
<g id="node7" class="node"><title>Node7</title>
<g id="a_node7"><a xlink:href="classAP__HAL_1_1RCInput.html#a2bea13d38f2b9ae8bf5193a3a69f0a31" target="_top" xlink:title="AP_HAL::RCInput::teardown">
<polygon fill="white" stroke="black" points="919,-202 919,-221 1062,-221 1062,-202 919,-202"/>
<text text-anchor="middle" x="990.5" y="-209" font-family="Helvetica,sans-Serif" font-size="10.00">AP_HAL::RCInput::teardown</text>
</a>
</g>
</g>
<!-- Node6&#45;&gt;Node7 -->
<g id="edge6" class="edge"><title>Node6&#45;&gt;Node7</title>
<path fill="none" stroke="midnightblue" d="M859.079,-211.5C874.072,-211.5 891.594,-211.5 908.84,-211.5"/>
<polygon fill="midnightblue" stroke="midnightblue" points="908.941,-215 918.941,-211.5 908.941,-208 908.941,-215"/>
</g>
<!-- Node14 -->
<g id="node14" class="node"><title>Node14</title>
<g id="a_node14"><a xlink:href="classAP__HAL_1_1Scheduler.html#a78c4f1b1f192ac1c99544b6cc8f099b0" target="_top" xlink:title="AP_HAL::Scheduler::\ldelay_microseconds">
<polygon fill="white" stroke="black" points="1105.5,-379.5 1105.5,-409.5 1215.5,-409.5 1215.5,-379.5 1105.5,-379.5"/>
<text text-anchor="start" x="1113.5" y="-397.5" font-family="Helvetica,sans-Serif" font-size="10.00">AP_HAL::Scheduler::</text>
<text text-anchor="middle" x="1160.5" y="-386.5" font-family="Helvetica,sans-Serif" font-size="10.00">delay_microseconds</text>
</a>
</g>
</g>
<!-- Node6&#45;&gt;Node14 -->
<g id="edge13" class="edge"><title>Node6&#45;&gt;Node14</title>
<path fill="none" stroke="midnightblue" d="M854.811,-221.061C864.116,-223.804 874.014,-227.008 883,-230.5 965.63,-262.611 994.571,-260.949 1062,-318.5 1083.1,-336.512 1076.27,-352.247 1098,-369.5 1100.24,-371.281 1102.63,-372.951 1105.11,-374.516"/>
<polygon fill="midnightblue" stroke="midnightblue" points="1103.41,-377.576 1113.84,-379.437 1106.85,-371.478 1103.41,-377.576"/>
</g>
<!-- Node8 -->
<g id="node8" class="node"><title>Node8</title>
<g id="a_node8"><a xlink:href="classAP__HAL_1_1RCInput.html#aee1fade33080edef83dd7db0fad0f7da" target="_top" xlink:title="AP_HAL::RCInput::new\l_input">
<polygon fill="white" stroke="black" points="1099.5,-95.5 1099.5,-125.5 1221.5,-125.5 1221.5,-95.5 1099.5,-95.5"/>
<text text-anchor="start" x="1107.5" y="-113.5" font-family="Helvetica,sans-Serif" font-size="10.00">AP_HAL::RCInput::new</text>
<text text-anchor="middle" x="1160.5" y="-102.5" font-family="Helvetica,sans-Serif" font-size="10.00">_input</text>
</a>
</g>
</g>
<!-- Node7&#45;&gt;Node8 -->
<g id="edge7" class="edge"><title>Node7&#45;&gt;Node8</title>
<path fill="none" stroke="midnightblue" d="M1002.68,-201.933C1021.4,-186.255 1060.74,-154.81 1098,-134.5 1101.06,-132.831 1104.26,-131.22 1107.53,-129.677"/>
<polygon fill="midnightblue" stroke="midnightblue" points="1109.14,-132.791 1116.84,-125.514 1106.28,-126.4 1109.14,-132.791"/>
</g>
<!-- Node9 -->
<g id="node9" class="node"><title>Node9</title>
<g id="a_node9"><a xlink:href="classAP__HAL_1_1RCInput.html#ae55f959c6115c1f41783af3a2b6c4fcd" target="_top" xlink:title="AP_HAL::RCInput::num\l_channels">
<polygon fill="white" stroke="black" points="1099.5,-330.5 1099.5,-360.5 1221.5,-360.5 1221.5,-330.5 1099.5,-330.5"/>
<text text-anchor="start" x="1107.5" y="-348.5" font-family="Helvetica,sans-Serif" font-size="10.00">AP_HAL::RCInput::num</text>
<text text-anchor="middle" x="1160.5" y="-337.5" font-family="Helvetica,sans-Serif" font-size="10.00">_channels</text>
</a>
</g>
</g>
<!-- Node7&#45;&gt;Node9 -->
<g id="edge8" class="edge"><title>Node7&#45;&gt;Node9</title>
<path fill="none" stroke="midnightblue" d="M1014.98,-221.083C1029.87,-228.069 1048.76,-238.717 1062,-252.5 1085.69,-277.157 1072.63,-297.568 1098,-320.5 1099.74,-322.07 1101.59,-323.548 1103.52,-324.939"/>
<polygon fill="midnightblue" stroke="midnightblue" points="1102.09,-328.174 1112.43,-330.495 1105.79,-322.234 1102.09,-328.174"/>
</g>
<!-- Node10 -->
<g id="node10" class="node"><title>Node10</title>
<g id="a_node10"><a xlink:href="classAP__HAL_1_1RCInput.html#a078fd7e6d2e6a899009ec674a8e03498" target="_top" xlink:title="AP_HAL::RCInput::read">
<polygon fill="white" stroke="black" points="1099.5,-292 1099.5,-311 1221.5,-311 1221.5,-292 1099.5,-292"/>
<text text-anchor="middle" x="1160.5" y="-299" font-family="Helvetica,sans-Serif" font-size="10.00">AP_HAL::RCInput::read</text>
</a>
</g>
</g>
<!-- Node7&#45;&gt;Node10 -->
<g id="edge9" class="edge"><title>Node7&#45;&gt;Node10</title>
<path fill="none" stroke="midnightblue" d="M1009.63,-221.055C1024.15,-228.938 1044.85,-240.706 1062,-252.5 1078.93,-264.142 1079.93,-271.717 1098,-281.5 1102.81,-284.106 1108.02,-286.445 1113.3,-288.524"/>
<polygon fill="midnightblue" stroke="midnightblue" points="1112.22,-291.855 1122.82,-291.986 1114.62,-285.277 1112.22,-291.855"/>
</g>
<!-- Node11 -->
<g id="node11" class="node"><title>Node11</title>
<g id="a_node11"><a xlink:href="classAP__HAL_1_1RCInput.html#a0989c5ca271631fe655c047d4a022a3d" target="_top" xlink:title="AP_HAL::RCInput::set\l_overrides">
<polygon fill="white" stroke="black" points="1102,-242.5 1102,-272.5 1219,-272.5 1219,-242.5 1102,-242.5"/>
<text text-anchor="start" x="1110" y="-260.5" font-family="Helvetica,sans-Serif" font-size="10.00">AP_HAL::RCInput::set</text>
<text text-anchor="middle" x="1160.5" y="-249.5" font-family="Helvetica,sans-Serif" font-size="10.00">_overrides</text>
</a>
</g>
</g>
<!-- Node7&#45;&gt;Node11 -->
<g id="edge10" class="edge"><title>Node7&#45;&gt;Node11</title>
<path fill="none" stroke="midnightblue" d="M1026.31,-221.031C1046.07,-226.442 1071.44,-233.389 1094.73,-239.766"/>
<polygon fill="midnightblue" stroke="midnightblue" points="1093.99,-243.192 1104.56,-242.457 1095.84,-236.441 1093.99,-243.192"/>
</g>
<!-- Node12 -->
<g id="node12" class="node"><title>Node12</title>
<g id="a_node12"><a xlink:href="classAP__HAL_1_1RCInput.html#abfd037ca0989a0422a60f418d34eb7d5" target="_top" xlink:title="AP_HAL::RCInput::set\l_override">
<polygon fill="white" stroke="black" points="1102,-193.5 1102,-223.5 1219,-223.5 1219,-193.5 1102,-193.5"/>
<text text-anchor="start" x="1110" y="-211.5" font-family="Helvetica,sans-Serif" font-size="10.00">AP_HAL::RCInput::set</text>
<text text-anchor="middle" x="1160.5" y="-200.5" font-family="Helvetica,sans-Serif" font-size="10.00">_override</text>
</a>
</g>
</g>
<!-- Node7&#45;&gt;Node12 -->
<g id="edge11" class="edge"><title>Node7&#45;&gt;Node12</title>
<path fill="none" stroke="midnightblue" d="M1062.26,-210.236C1072.04,-210.062 1082.07,-209.883 1091.8,-209.709"/>
<polygon fill="midnightblue" stroke="midnightblue" points="1091.87,-213.208 1101.8,-209.53 1091.74,-206.21 1091.87,-213.208"/>
</g>
<!-- Node13 -->
<g id="node13" class="node"><title>Node13</title>
<g id="a_node13"><a xlink:href="classAP__HAL_1_1RCInput.html#ab3671bbe43fdb97c53071d7832ac256e" target="_top" xlink:title="AP_HAL::RCInput::clear\l_overrides">
<polygon fill="white" stroke="black" points="1098,-144.5 1098,-174.5 1223,-174.5 1223,-144.5 1098,-144.5"/>
<text text-anchor="start" x="1106" y="-162.5" font-family="Helvetica,sans-Serif" font-size="10.00">AP_HAL::RCInput::clear</text>
<text text-anchor="middle" x="1160.5" y="-151.5" font-family="Helvetica,sans-Serif" font-size="10.00">_overrides</text>
</a>
</g>
</g>
<!-- Node7&#45;&gt;Node13 -->
<g id="edge12" class="edge"><title>Node7&#45;&gt;Node13</title>
<path fill="none" stroke="midnightblue" d="M1022.31,-201.962C1044.33,-195.147 1074.64,-185.767 1101.16,-177.557"/>
<polygon fill="midnightblue" stroke="midnightblue" points="1102.22,-180.892 1110.74,-174.592 1100.15,-174.205 1102.22,-180.892"/>
</g>
<!-- Node16 -->
<g id="node16" class="node"><title>Node16</title>
<g id="a_node16"><a xlink:href="classAP__HAL_1_1UARTDriver.html#a6ceedc792594e59fc7d80b39a435f027" target="_top" xlink:title="AP_HAL::UARTDriver\l::printf">
<polygon fill="white" stroke="black" points="933,-49.5 933,-79.5 1048,-79.5 1048,-49.5 933,-49.5"/>
<text text-anchor="start" x="941" y="-67.5" font-family="Helvetica,sans-Serif" font-size="10.00">AP_HAL::UARTDriver</text>
<text text-anchor="middle" x="990.5" y="-56.5" font-family="Helvetica,sans-Serif" font-size="10.00">::printf</text>
</a>
</g>
</g>
<!-- Node15&#45;&gt;Node16 -->
<g id="edge15" class="edge"><title>Node15&#45;&gt;Node16</title>
<path fill="none" stroke="midnightblue" d="M870.855,-98.3986C888.625,-93.3215 908.616,-87.6098 927.052,-82.3423"/>
<polygon fill="midnightblue" stroke="midnightblue" points="928.166,-85.6642 936.819,-79.5516 926.243,-78.9335 928.166,-85.6642"/>
</g>
<!-- Node17 -->
<g id="node17" class="node"><title>Node17</title>
<g id="a_node17"><a xlink:href="classAP__HAL_1_1UARTDriver.html#aa8abfb6d6641299472c29ac1edde559f" target="_top" xlink:title="AP_HAL::UARTDriver\l::vprintf">
<polygon fill="white" stroke="black" points="1103,-46.5 1103,-76.5 1218,-76.5 1218,-46.5 1103,-46.5"/>
<text text-anchor="start" x="1111" y="-64.5" font-family="Helvetica,sans-Serif" font-size="10.00">AP_HAL::UARTDriver</text>
<text text-anchor="middle" x="1160.5" y="-53.5" font-family="Helvetica,sans-Serif" font-size="10.00">::vprintf</text>
</a>
</g>
</g>
<!-- Node16&#45;&gt;Node17 -->
<g id="edge16" class="edge"><title>Node16&#45;&gt;Node17</title>
<path fill="none" stroke="midnightblue" d="M1048.38,-63.4843C1062.69,-63.2288 1078.17,-62.9523 1092.91,-62.6892"/>
<polygon fill="midnightblue" stroke="midnightblue" points="1093.03,-66.1876 1102.97,-62.5095 1092.91,-59.1887 1093.03,-66.1876"/>
</g>
<!-- Node18 -->
<g id="node18" class="node"><title>Node18</title>
<g id="a_node18"><a xlink:href="print__vprintf_8cpp.html#a1534eaeab54696df96975b56d9f49212" target="_top" xlink:title="print_vprintf">
<polygon fill="white" stroke="black" points="1290,-101 1290,-120 1358,-120 1358,-101 1290,-101"/>
<text text-anchor="middle" x="1324" y="-108" font-family="Helvetica,sans-Serif" font-size="10.00">print_vprintf</text>
</a>
</g>
</g>
<!-- Node17&#45;&gt;Node18 -->
<g id="edge17" class="edge"><title>Node17&#45;&gt;Node18</title>
<path fill="none" stroke="midnightblue" d="M1211.27,-76.6014C1233.84,-83.4471 1260.2,-91.4466 1281.65,-97.9551"/>
<polygon fill="midnightblue" stroke="midnightblue" points="1280.85,-101.37 1291.44,-100.925 1282.89,-94.6719 1280.85,-101.37"/>
</g>
<!-- Node19 -->
<g id="node19" class="node"><title>Node19</title>
<g id="a_node19"><a xlink:href="classAP__HAL_1_1Print.html#acc65391952a43334f8f5c9bef341f501" target="_top" xlink:title="AP_HAL::Print::write">
<polygon fill="white" stroke="black" points="1442.5,-158 1442.5,-177 1550.5,-177 1550.5,-158 1442.5,-158"/>
<text text-anchor="middle" x="1496.5" y="-165" font-family="Helvetica,sans-Serif" font-size="10.00">AP_HAL::Print::write</text>
</a>
</g>
</g>
<!-- Node18&#45;&gt;Node19 -->
<g id="edge18" class="edge"><title>Node18&#45;&gt;Node19</title>
<path fill="none" stroke="midnightblue" d="M1348.2,-120.073C1368.32,-128.191 1398.32,-139.86 1425,-148.5 1432.21,-150.835 1439.9,-153.116 1447.45,-155.241"/>
<polygon fill="midnightblue" stroke="midnightblue" points="1446.67,-158.657 1457.24,-157.936 1448.53,-151.908 1446.67,-158.657"/>
</g>
<!-- Node20 -->
<g id="node20" class="node"><title>Node20</title>
<g id="a_node20"><a xlink:href="ftoa__engine_8cpp.html#a1c28234da8f20b43c85890d4bb452947" target="_top" xlink:title="ftoa_engine">
<polygon fill="white" stroke="black" points="1463,-120 1463,-139 1530,-139 1530,-120 1463,-120"/>
<text text-anchor="middle" x="1496.5" y="-127" font-family="Helvetica,sans-Serif" font-size="10.00">ftoa_engine</text>
</a>
</g>
</g>
<!-- Node18&#45;&gt;Node20 -->
<g id="edge19" class="edge"><title>Node18&#45;&gt;Node20</title>
<path fill="none" stroke="midnightblue" d="M1358.28,-114.208C1385.33,-117.223 1423.66,-121.494 1452.94,-124.757"/>
<polygon fill="midnightblue" stroke="midnightblue" points="1452.56,-128.236 1462.88,-125.865 1453.33,-121.279 1452.56,-128.236"/>
</g>
<!-- Node21 -->
<g id="node21" class="node"><title>Node21</title>
<g id="a_node21"><a xlink:href="replace_8cpp.html#a880bcc7b85a09e6254691bebd5344b51" target="_top" xlink:title="strnlen">
<polygon fill="white" stroke="black" points="1473.5,-82 1473.5,-101 1519.5,-101 1519.5,-82 1473.5,-82"/>
<text text-anchor="middle" x="1496.5" y="-89" font-family="Helvetica,sans-Serif" font-size="10.00">strnlen</text>
</a>
</g>
</g>
<!-- Node18&#45;&gt;Node21 -->
<g id="edge20" class="edge"><title>Node18&#45;&gt;Node21</title>
<path fill="none" stroke="midnightblue" d="M1358.28,-106.792C1388.71,-103.401 1433.42,-98.418 1463.45,-95.0711"/>
<polygon fill="midnightblue" stroke="midnightblue" points="1463.87,-98.5468 1473.42,-93.9607 1463.09,-91.5899 1463.87,-98.5468"/>
</g>
<!-- Node22 -->
<g id="node22" class="node"><title>Node22</title>
<g id="a_node22"><a xlink:href="utoa__invert_8cpp.html#a34926f552460b47c414ec4d83b32815c" target="_top" xlink:title="ulltoa_invert">
<polygon fill="white" stroke="black" points="1462,-44 1462,-63 1531,-63 1531,-44 1462,-44"/>
<text text-anchor="middle" x="1496.5" y="-51" font-family="Helvetica,sans-Serif" font-size="10.00">ulltoa_invert</text>
</a>
</g>
</g>
<!-- Node18&#45;&gt;Node22 -->
<g id="edge21" class="edge"><title>Node18&#45;&gt;Node22</title>
<path fill="none" stroke="midnightblue" d="M1348.2,-100.927C1368.32,-92.8087 1398.32,-81.1405 1425,-72.5 1433.67,-69.6907 1443.04,-66.9601 1452.02,-64.4858"/>
<polygon fill="midnightblue" stroke="midnightblue" points="1453.2,-67.793 1461.95,-61.8105 1451.38,-61.0343 1453.2,-67.793"/>
</g>
<!-- Node23 -->
<g id="node23" class="node"><title>Node23</title>
<g id="a_node23"><a xlink:href="utoa__invert_8cpp.html#a5d99bba8e697c1e11da489d88fca8559" target="_top" xlink:title="ultoa_invert">
<polygon fill="white" stroke="black" points="1463,-196 1463,-215 1530,-215 1530,-196 1463,-196"/>
<text text-anchor="middle" x="1496.5" y="-203" font-family="Helvetica,sans-Serif" font-size="10.00">ultoa_invert</text>
</a>
</g>
</g>
<!-- Node18&#45;&gt;Node23 -->
<g id="edge22" class="edge"><title>Node18&#45;&gt;Node23</title>
<path fill="none" stroke="midnightblue" d="M1334.9,-120.169C1351.91,-136.257 1388.4,-168.523 1425,-186.5 1433.78,-190.814 1443.68,-194.253 1453.22,-196.954"/>
<polygon fill="midnightblue" stroke="midnightblue" points="1452.41,-200.36 1462.97,-199.506 1454.18,-193.588 1452.41,-200.36"/>
</g>
<!-- Node24&#45;&gt;Node3 -->
<g id="edge24" class="edge"><title>Node24&#45;&gt;Node3</title>
<path fill="none" stroke="midnightblue" d="M769.461,-10.3475C719.808,-7.31931 641.019,-9.86817 587,-47.5 434.783,-153.54 373.233,-391.491 357.989,-461.663"/>
<polygon fill="midnightblue" stroke="midnightblue" points="354.497,-461.265 355.866,-471.771 361.347,-462.704 354.497,-461.265"/>
</g>
<!-- Node25 -->
<g id="node25" class="node"><title>Node25</title>
<g id="a_node25"><a xlink:href="classLinux_1_1Thread.html#a6884970a0811ae21953c57fb98aa6e96" target="_top" xlink:title="Linux::Thread::get\l_stack_usage">
<polygon fill="white" stroke="black" points="1912,-155.5 1912,-185.5 2007,-185.5 2007,-155.5 1912,-155.5"/>
<text text-anchor="start" x="1920" y="-173.5" font-family="Helvetica,sans-Serif" font-size="10.00">Linux::Thread::get</text>
<text text-anchor="middle" x="1959.5" y="-162.5" font-family="Helvetica,sans-Serif" font-size="10.00">_stack_usage</text>
</a>
</g>
</g>
<!-- Node24&#45;&gt;Node25 -->
<g id="edge25" class="edge"><title>Node24&#45;&gt;Node25</title>
<path fill="none" stroke="midnightblue" d="M864.676,-15.5C930.437,-15.5 1054.12,-15.5 1159.5,-15.5 1159.5,-15.5 1159.5,-15.5 1660.5,-15.5 1774.34,-15.5 1887.84,-105.624 1935.32,-148.429"/>
<polygon fill="midnightblue" stroke="midnightblue" points="1933.15,-151.184 1942.89,-155.356 1937.88,-146.021 1933.15,-151.184"/>
</g>
<!-- Node26&#45;&gt;Node3 -->
<g id="edge27" class="edge"><title>Node26&#45;&gt;Node3</title>
<path fill="none" stroke="midnightblue" d="M591.166,-655.581C545.251,-658.073 481.786,-654.557 436,-624.5 391.487,-595.278 368.362,-532.994 359.049,-501.144"/>
<polygon fill="midnightblue" stroke="midnightblue" points="362.354,-499.96 356.319,-491.251 355.606,-501.822 362.354,-499.96"/>
</g>
<!-- Node27 -->
<g id="node27" class="node"><title>Node27</title>
<g id="a_node27"><a xlink:href="classLinux_1_1Scheduler.html#a647872aff158b510c56862f51f951538" target="_top" xlink:title="Linux::Scheduler::microsleep">
<polygon fill="white" stroke="black" points="1425,-563 1425,-582 1568,-582 1568,-563 1425,-563"/>
<text text-anchor="middle" x="1496.5" y="-570" font-family="Helvetica,sans-Serif" font-size="10.00">Linux::Scheduler::microsleep</text>
</a>
</g>
</g>
<!-- Node26&#45;&gt;Node27 -->
<g id="edge28" class="edge"><title>Node26&#45;&gt;Node27</title>
<path fill="none" stroke="midnightblue" d="M710.532,-648.5C777.839,-648.5 891.648,-648.5 989.5,-648.5 989.5,-648.5 989.5,-648.5 1161.5,-648.5 1273.37,-648.5 1401.18,-607.462 1461.1,-585.697"/>
<polygon fill="midnightblue" stroke="midnightblue" points="1462.62,-588.865 1470.8,-582.125 1460.21,-582.296 1462.62,-588.865"/>
</g>
<!-- Node28&#45;&gt;Node27 -->
<g id="edge30" class="edge"><title>Node28&#45;&gt;Node27</title>
<path fill="none" stroke="midnightblue" d="M1383.68,-572.5C1393.75,-572.5 1404.37,-572.5 1414.9,-572.5"/>
<polygon fill="midnightblue" stroke="midnightblue" points="1414.95,-576 1424.95,-572.5 1414.95,-569 1414.95,-576"/>
</g>
<!-- Node30&#45;&gt;Node16 -->
<g id="edge34" class="edge"><title>Node30&#45;&gt;Node16</title>
<path fill="none" stroke="midnightblue" d="M881.373,-64.5C894.831,-64.5 909.081,-64.5 922.663,-64.5"/>
<polygon fill="midnightblue" stroke="midnightblue" points="922.896,-68.0001 932.896,-64.5 922.896,-61.0001 922.896,-68.0001"/>
</g>
<!-- Node32 -->
<g id="node32" class="node"><title>Node32</title>
<g id="a_node32"><a xlink:href="classLinux_1_1Semaphore.html#afc4c8706abb7e68aa4001ea372dc614e" target="_top" xlink:title="Linux::Semaphore::take">
<polygon fill="white" stroke="black" points="930.5,-431 930.5,-450 1050.5,-450 1050.5,-431 930.5,-431"/>
<text text-anchor="middle" x="990.5" y="-438" font-family="Helvetica,sans-Serif" font-size="10.00">Linux::Semaphore::take</text>
</a>
</g>
</g>
<!-- Node31&#45;&gt;Node32 -->
<g id="edge36" class="edge"><title>Node31&#45;&gt;Node32</title>
<path fill="none" stroke="midnightblue" d="M883.326,-440.5C895.38,-440.5 908.006,-440.5 920.174,-440.5"/>
<polygon fill="midnightblue" stroke="midnightblue" points="920.265,-444 930.265,-440.5 920.265,-437 920.265,-444"/>
</g>
<!-- Node32&#45;&gt;Node14 -->
<g id="edge48" class="edge"><title>Node32&#45;&gt;Node14</title>
<path fill="none" stroke="midnightblue" d="M1026.31,-430.969C1046.24,-425.512 1071.88,-418.492 1095.33,-412.072"/>
<polygon fill="midnightblue" stroke="midnightblue" points="1096.5,-415.38 1105.22,-409.363 1094.65,-408.628 1096.5,-415.38"/>
</g>
<!-- Node33 -->
<g id="node33" class="node"><title>Node33</title>
<g id="a_node33"><a xlink:href="classLinux_1_1Semaphore.html#a561b4f40f3a76335f1a686c2aed526f9" target="_top" xlink:title="Linux::Semaphore::take\l_nonblocking">
<polygon fill="white" stroke="black" points="1100.5,-428.5 1100.5,-458.5 1220.5,-458.5 1220.5,-428.5 1100.5,-428.5"/>
<text text-anchor="start" x="1108.5" y="-446.5" font-family="Helvetica,sans-Serif" font-size="10.00">Linux::Semaphore::take</text>
<text text-anchor="middle" x="1160.5" y="-435.5" font-family="Helvetica,sans-Serif" font-size="10.00">_nonblocking</text>
</a>
</g>
</g>
<!-- Node32&#45;&gt;Node33 -->
<g id="edge37" class="edge"><title>Node32&#45;&gt;Node33</title>
<path fill="none" stroke="midnightblue" d="M1050.73,-441.558C1063.4,-441.784 1076.9,-442.025 1089.92,-442.258"/>
<polygon fill="midnightblue" stroke="midnightblue" points="1090.18,-445.763 1100.24,-442.442 1090.3,-438.764 1090.18,-445.763"/>
</g>
<!-- Node34 -->
<g id="node34" class="node"><title>Node34</title>
<g id="a_node34"><a xlink:href="namespaceAP__HAL.html#a7aa0ce7625c9680e30ff4a99940907a5" target="_top" xlink:title="AP_HAL::micros64">
<polygon fill="white" stroke="black" points="1110,-478 1110,-497 1211,-497 1211,-478 1110,-478"/>
<text text-anchor="middle" x="1160.5" y="-485" font-family="Helvetica,sans-Serif" font-size="10.00">AP_HAL::micros64</text>
</a>
</g>
</g>
<!-- Node32&#45;&gt;Node34 -->
<g id="edge38" class="edge"><title>Node32&#45;&gt;Node34</title>
<path fill="none" stroke="midnightblue" d="M1025.5,-450.011C1051.37,-457.25 1087.2,-467.272 1115.3,-475.133"/>
<polygon fill="midnightblue" stroke="midnightblue" points="1114.69,-478.599 1125.27,-477.922 1116.58,-471.858 1114.69,-478.599"/>
</g>
<!-- Node34&#45;&gt;Node4 -->
<g id="edge39" class="edge"><title>Node34&#45;&gt;Node4</title>
<path fill="none" stroke="midnightblue" d="M1109.7,-496.269C1006.34,-512.005 763.492,-536.034 587,-451.5 550.28,-433.912 520.739,-394.95 505.585,-371.801"/>
<polygon fill="midnightblue" stroke="midnightblue" points="508.465,-369.808 500.159,-363.23 502.551,-373.552 508.465,-369.808"/>
</g>
<!-- Node34&#45;&gt;Node35 -->
<g id="edge40" class="edge"><title>Node34&#45;&gt;Node35</title>
<path fill="none" stroke="midnightblue" d="M1211.27,-493.047C1223.12,-494.368 1236.02,-495.805 1248.7,-497.219"/>
<polygon fill="midnightblue" stroke="midnightblue" points="1248.47,-500.715 1258.8,-498.345 1249.25,-493.758 1248.47,-500.715"/>
</g>
<!-- Node35&#45;&gt;Node27 -->
<g id="edge41" class="edge"><title>Node35&#45;&gt;Node27</title>
<path fill="none" stroke="midnightblue" d="M1363.26,-520.536C1392.77,-532.132 1433.21,-548.021 1461.57,-559.166"/>
<polygon fill="midnightblue" stroke="midnightblue" points="1460.47,-562.496 1471.06,-562.896 1463.03,-555.981 1460.47,-562.496"/>
</g>
<!-- Node36 -->
<g id="node36" class="node"><title>Node36</title>
<g id="a_node36"><a xlink:href="classLinux_1_1Scheduler.html#ab373a83d818679432520ea881044b2a7" target="_top" xlink:title="Linux::Scheduler::teardown">
<polygon fill="white" stroke="black" points="1429,-365 1429,-384 1564,-384 1564,-365 1429,-365"/>
<text text-anchor="middle" x="1496.5" y="-372" font-family="Helvetica,sans-Serif" font-size="10.00">Linux::Scheduler::teardown</text>
</a>
</g>
</g>
<!-- Node35&#45;&gt;Node36 -->
<g id="edge42" class="edge"><title>Node35&#45;&gt;Node36</title>
<path fill="none" stroke="midnightblue" d="M1344.56,-490.473C1377,-465.549 1441.64,-415.885 1474.81,-390.398"/>
<polygon fill="midnightblue" stroke="midnightblue" points="1477.1,-393.047 1482.9,-384.179 1472.84,-387.497 1477.1,-393.047"/>
</g>
<!-- Node37 -->
<g id="node37" class="node"><title>Node37</title>
<g id="a_node37"><a xlink:href="classLinux_1_1PeriodicThread.html#a136aaf6e713f63b246fc4a2905e6e9a1" target="_top" xlink:title="Linux::PeriodicThread\l::stop">
<polygon fill="white" stroke="black" points="1604,-359.5 1604,-389.5 1715,-389.5 1715,-359.5 1604,-359.5"/>
<text text-anchor="start" x="1612" y="-377.5" font-family="Helvetica,sans-Serif" font-size="10.00">Linux::PeriodicThread</text>
<text text-anchor="middle" x="1659.5" y="-366.5" font-family="Helvetica,sans-Serif" font-size="10.00">::stop</text>
</a>
</g>
</g>
<!-- Node36&#45;&gt;Node37 -->
<g id="edge43" class="edge"><title>Node36&#45;&gt;Node37</title>
<path fill="none" stroke="midnightblue" d="M1564.38,-374.5C1574.02,-374.5 1583.94,-374.5 1593.54,-374.5"/>
<polygon fill="midnightblue" stroke="midnightblue" points="1593.82,-378 1603.82,-374.5 1593.82,-371 1593.82,-378"/>
</g>
<!-- Node40 -->
<g id="node40" class="node"><title>Node40</title>
<g id="a_node40"><a xlink:href="classLinux_1_1Thread.html#a32b7d184279634922e2f3b23b584fbcd" target="_top" xlink:title="Linux::Thread::join">
<polygon fill="white" stroke="black" points="1611,-321 1611,-340 1708,-340 1708,-321 1611,-321"/>
<text text-anchor="middle" x="1659.5" y="-328" font-family="Helvetica,sans-Serif" font-size="10.00">Linux::Thread::join</text>
</a>
</g>
</g>
<!-- Node36&#45;&gt;Node40 -->
<g id="edge47" class="edge"><title>Node36&#45;&gt;Node40</title>
<path fill="none" stroke="midnightblue" d="M1532.43,-364.953C1556.28,-358.437 1588.07,-349.749 1613.76,-342.728"/>
<polygon fill="midnightblue" stroke="midnightblue" points="1614.91,-346.041 1623.63,-340.029 1613.06,-339.289 1614.91,-346.041"/>
</g>
<!-- Node38 -->
<g id="node38" class="node"><title>Node38</title>
<g id="a_node38"><a xlink:href="classLinux_1_1Thread.html#a240d7b48a9a8eb43638f67295a1819e5" target="_top" xlink:title="Linux::Thread::is_started">
<polygon fill="white" stroke="black" points="1751,-287 1751,-306 1876,-306 1876,-287 1751,-287"/>
<text text-anchor="middle" x="1813.5" y="-294" font-family="Helvetica,sans-Serif" font-size="10.00">Linux::Thread::is_started</text>
</a>
</g>
</g>
<!-- Node37&#45;&gt;Node38 -->
<g id="edge44" class="edge"><title>Node37&#45;&gt;Node38</title>
<path fill="none" stroke="midnightblue" d="M1694.39,-359.384C1701.26,-356.204 1708.39,-352.808 1715,-349.5 1739.73,-337.126 1767.37,-321.969 1786.89,-311.038"/>
<polygon fill="midnightblue" stroke="midnightblue" points="1788.77,-313.996 1795.77,-306.042 1785.34,-307.895 1788.77,-313.996"/>
</g>
<!-- Node38&#45;&gt;Node25 -->
<g id="edge45" class="edge"><title>Node38&#45;&gt;Node25</title>
<path fill="none" stroke="midnightblue" d="M1825.8,-286.613C1848.9,-266.397 1902.03,-219.913 1933.61,-192.282"/>
<polygon fill="midnightblue" stroke="midnightblue" points="1935.92,-194.91 1941.14,-185.691 1931.31,-189.642 1935.92,-194.91"/>
</g>
<!-- Node39 -->
<g id="node39" class="node"><title>Node39</title>
<g id="a_node39"><a xlink:href="classLinux_1_1Thread.html#a8d3282b714faaf68eae534e9276419f0" target="_top" xlink:title="Linux::Thread::set\l_stack_size">
<polygon fill="white" stroke="black" points="1912,-281.5 1912,-311.5 2007,-311.5 2007,-281.5 1912,-281.5"/>
<text text-anchor="start" x="1920" y="-299.5" font-family="Helvetica,sans-Serif" font-size="10.00">Linux::Thread::set</text>
<text text-anchor="middle" x="1959.5" y="-288.5" font-family="Helvetica,sans-Serif" font-size="10.00">_stack_size</text>
</a>
</g>
</g>
<!-- Node38&#45;&gt;Node39 -->
<g id="edge46" class="edge"><title>Node38&#45;&gt;Node39</title>
<path fill="none" stroke="midnightblue" d="M1876.4,-296.5C1884.86,-296.5 1893.5,-296.5 1901.86,-296.5"/>
<polygon fill="midnightblue" stroke="midnightblue" points="1901.87,-300 1911.87,-296.5 1901.87,-293 1901.87,-300"/>
</g>
<!-- Node42 -->
<g id="node42" class="node"><title>Node42</title>
<g id="a_node42"><a xlink:href="classLinux_1_1Semaphore.html#a216f91636f64b57b59d43ef64af91624" target="_top" xlink:title="Linux::Semaphore::give">
<polygon fill="white" stroke="black" points="931,-328 931,-347 1050,-347 1050,-328 931,-328"/>
<text text-anchor="middle" x="990.5" y="-335" font-family="Helvetica,sans-Serif" font-size="10.00">Linux::Semaphore::give</text>
</a>
</g>
</g>
<!-- Node41&#45;&gt;Node42 -->
<g id="edge50" class="edge"><title>Node41&#45;&gt;Node42</title>
<path fill="none" stroke="midnightblue" d="M861.362,-270.513C868.659,-273.322 876.099,-276.367 883,-279.5 911.89,-292.617 943.672,-310.389 964.93,-322.791"/>
<polygon fill="midnightblue" stroke="midnightblue" points="963.239,-325.857 973.633,-327.911 966.789,-319.824 963.239,-325.857"/>
</g>
<!-- Node45&#45;&gt;Node6 -->
<g id="edge54" class="edge"><title>Node45&#45;&gt;Node6</title>
<path fill="none" stroke="midnightblue" d="M698.705,-289.461C704.471,-286.616 710.063,-283.311 715,-279.5 736.39,-262.986 728.862,-245.998 751,-230.5 755.454,-227.382 760.421,-224.77 765.569,-222.583"/>
<polygon fill="midnightblue" stroke="midnightblue" points="766.809,-225.857 774.961,-219.089 764.368,-219.296 766.809,-225.857"/>
</g>
<!-- Node46 -->
<g id="node46" class="node"><title>Node46</title>
<g id="a_node46"><a xlink:href="classLinux_1_1Scheduler.html#ac52c8da3f1f4fd79c50bd64379daf399" target="_top" xlink:title="Linux::Scheduler::\l_wait_all_threads">
<polygon fill="white" stroke="black" points="769.5,-289.5 769.5,-319.5 864.5,-319.5 864.5,-289.5 769.5,-289.5"/>
<text text-anchor="start" x="777.5" y="-307.5" font-family="Helvetica,sans-Serif" font-size="10.00">Linux::Scheduler::</text>
<text text-anchor="middle" x="817" y="-296.5" font-family="Helvetica,sans-Serif" font-size="10.00">_wait_all_threads</text>
</a>
</g>
</g>
<!-- Node45&#45;&gt;Node46 -->
<g id="edge55" class="edge"><title>Node45&#45;&gt;Node46</title>
<path fill="none" stroke="midnightblue" d="M715.407,-304.5C729.84,-304.5 745.085,-304.5 759.222,-304.5"/>
<polygon fill="midnightblue" stroke="midnightblue" points="759.293,-308 769.293,-304.5 759.293,-301 759.293,-308"/>
</g>
<!-- Node49 -->
<g id="node49" class="node"><title>Node49</title>
<g id="a_node49"><a xlink:href="classLinux_1_1Scheduler.html#a70b024d7d0886bf47b46cc3ee310d638" target="_top" xlink:title="Linux::Scheduler::\l_run_io">
<polygon fill="white" stroke="black" points="769.5,-338.5 769.5,-368.5 864.5,-368.5 864.5,-338.5 769.5,-338.5"/>
<text text-anchor="start" x="777.5" y="-356.5" font-family="Helvetica,sans-Serif" font-size="10.00">Linux::Scheduler::</text>
<text text-anchor="middle" x="817" y="-345.5" font-family="Helvetica,sans-Serif" font-size="10.00">_run_io</text>
</a>
</g>
</g>
<!-- Node48&#45;&gt;Node49 -->
<g id="edge58" class="edge"><title>Node48&#45;&gt;Node49</title>
<path fill="none" stroke="midnightblue" d="M708.439,-353.5C724.86,-353.5 742.799,-353.5 759.239,-353.5"/>
<polygon fill="midnightblue" stroke="midnightblue" points="759.255,-357 769.255,-353.5 759.254,-350 759.255,-357"/>
</g>
<!-- Node49&#45;&gt;Node32 -->
<g id="edge59" class="edge"><title>Node49&#45;&gt;Node32</title>
<path fill="none" stroke="midnightblue" d="M847.873,-368.654C879.879,-384.89 930.279,-410.458 961.531,-426.312"/>
<polygon fill="midnightblue" stroke="midnightblue" points="960.072,-429.496 970.574,-430.899 963.239,-423.253 960.072,-429.496"/>
</g>
<!-- Node49&#45;&gt;Node42 -->
<g id="edge60" class="edge"><title>Node49&#45;&gt;Node42</title>
<path fill="none" stroke="midnightblue" d="M864.863,-349.128C882.097,-347.52 901.989,-345.664 920.75,-343.914"/>
<polygon fill="midnightblue" stroke="midnightblue" points="921.103,-347.396 930.734,-342.983 920.452,-340.427 921.103,-347.396"/>
</g>
</g>
</svg>
