<?xml version="1.0" encoding="UTF-8" standalone="no"?>
<!DOCTYPE svg PUBLIC "-//W3C//DTD SVG 1.1//EN"
 "http://www.w3.org/Graphics/SVG/1.1/DTD/svg11.dtd">
<!-- Generated by graphviz version 2.38.0 (20140413.2041)
 -->
<!-- Title: SITL::Aircraft::on_ground Pages: 1 -->
<svg width="435pt" height="378pt"
 viewBox="0.00 0.00 435.00 378.00" xmlns="http://www.w3.org/2000/svg" xmlns:xlink="http://www.w3.org/1999/xlink">
<g id="graph0" class="graph" transform="scale(1 1) rotate(0) translate(4 374)">
<title>SITL::Aircraft::on_ground</title>
<polygon fill="white" stroke="none" points="-4,4 -4,-374 431,-374 431,4 -4,4"/>
<!-- Node1 -->
<g id="node1" class="node"><title>Node1</title>
<polygon fill="#bfbfbf" stroke="black" points="0,-202.5 0,-232.5 92,-232.5 92,-202.5 0,-202.5"/>
<text text-anchor="start" x="8" y="-220.5" font-family="Helvetica,sans-Serif" font-size="10.00">SITL::Aircraft::on</text>
<text text-anchor="middle" x="46" y="-209.5" font-family="Helvetica,sans-Serif" font-size="10.00">_ground</text>
</g>
<!-- Node2 -->
<g id="node2" class="node"><title>Node2</title>
<g id="a_node2"><a xlink:href="classSITL_1_1Plane.html#a23a7248ca498b4b952d1673372689cb0" target="_top" xlink:title="SITL::Plane::calculate\l_forces">
<polygon fill="white" stroke="black" points="139.5,-224.5 139.5,-254.5 252.5,-254.5 252.5,-224.5 139.5,-224.5"/>
<text text-anchor="start" x="147.5" y="-242.5" font-family="Helvetica,sans-Serif" font-size="10.00">SITL::Plane::calculate</text>
<text text-anchor="middle" x="196" y="-231.5" font-family="Helvetica,sans-Serif" font-size="10.00">_forces</text>
</a>
</g>
</g>
<!-- Node1&#45;&gt;Node2 -->
<g id="edge1" class="edge"><title>Node1&#45;&gt;Node2</title>
<path fill="none" stroke="midnightblue" d="M102.204,-225.706C114.343,-227.51 127.205,-229.422 139.361,-231.229"/>
<polygon fill="midnightblue" stroke="midnightblue" points="102.615,-222.229 92.2091,-224.22 101.586,-229.153 102.615,-222.229"/>
</g>
<!-- Node5 -->
<g id="node5" class="node"><title>Node5</title>
<g id="a_node5"><a xlink:href="classSITL_1_1Gripper__Servo.html#a1e1e6fb14cc93608b7705c871e8cfa71" target="_top" xlink:title="SITL::Gripper_Servo\l::update">
<polygon fill="white" stroke="black" points="143,-290.5 143,-320.5 249,-320.5 249,-290.5 143,-290.5"/>
<text text-anchor="start" x="151" y="-308.5" font-family="Helvetica,sans-Serif" font-size="10.00">SITL::Gripper_Servo</text>
<text text-anchor="middle" x="196" y="-297.5" font-family="Helvetica,sans-Serif" font-size="10.00">::update</text>
</a>
</g>
</g>
<!-- Node1&#45;&gt;Node5 -->
<g id="edge4" class="edge"><title>Node1&#45;&gt;Node5</title>
<path fill="none" stroke="midnightblue" d="M81.1508,-237.806C108.059,-253.805 144.984,-275.76 169.395,-290.275"/>
<polygon fill="midnightblue" stroke="midnightblue" points="82.8263,-234.73 72.4421,-232.628 79.2487,-240.747 82.8263,-234.73"/>
</g>
<!-- Node8 -->
<g id="node8" class="node"><title>Node8</title>
<g id="a_node8"><a xlink:href="classSITL_1_1Aircraft.html#aeebf61e7de38e04708a092d7da898905" target="_top" xlink:title="SITL::Aircraft::update\l_dynamics">
<polygon fill="white" stroke="black" points="141,-136.5 141,-166.5 251,-166.5 251,-136.5 141,-136.5"/>
<text text-anchor="start" x="149" y="-154.5" font-family="Helvetica,sans-Serif" font-size="10.00">SITL::Aircraft::update</text>
<text text-anchor="middle" x="196" y="-143.5" font-family="Helvetica,sans-Serif" font-size="10.00">_dynamics</text>
</a>
</g>
</g>
<!-- Node1&#45;&gt;Node8 -->
<g id="edge7" class="edge"><title>Node1&#45;&gt;Node8</title>
<path fill="none" stroke="midnightblue" d="M83.8602,-197.751C97.56,-190.702 113.337,-182.923 128,-176.5 135.847,-173.063 144.331,-169.662 152.539,-166.529"/>
<polygon fill="midnightblue" stroke="midnightblue" points="82.0051,-194.771 74.7469,-202.489 85.234,-200.982 82.0051,-194.771"/>
</g>
<!-- Node14 -->
<g id="node14" class="node"><title>Node14</title>
<g id="a_node14"><a xlink:href="classSITL_1_1Aircraft.html#ac31615e28dcbd1e2c761386741d1d45e" target="_top" xlink:title="SITL::Aircraft::update_wind">
<polygon fill="white" stroke="black" points="128,-186 128,-205 264,-205 264,-186 128,-186"/>
<text text-anchor="middle" x="196" y="-193" font-family="Helvetica,sans-Serif" font-size="10.00">SITL::Aircraft::update_wind</text>
</a>
</g>
</g>
<!-- Node1&#45;&gt;Node14 -->
<g id="edge16" class="edge"><title>Node1&#45;&gt;Node14</title>
<path fill="none" stroke="midnightblue" d="M102.196,-209.295C111.585,-207.9 121.406,-206.44 131,-205.014"/>
<polygon fill="midnightblue" stroke="midnightblue" points="101.586,-205.847 92.2091,-210.78 102.615,-212.771 101.586,-205.847"/>
</g>
<!-- Node3 -->
<g id="node3" class="node"><title>Node3</title>
<g id="a_node3"><a xlink:href="classSITL_1_1Plane.html#a7852409df29e250b1903384d1446930c" target="_top" xlink:title="SITL::Plane::update">
<polygon fill="white" stroke="black" points="311.5,-252 311.5,-271 415.5,-271 415.5,-252 311.5,-252"/>
<text text-anchor="middle" x="363.5" y="-259" font-family="Helvetica,sans-Serif" font-size="10.00">SITL::Plane::update</text>
</a>
</g>
</g>
<!-- Node2&#45;&gt;Node3 -->
<g id="edge2" class="edge"><title>Node2&#45;&gt;Node3</title>
<path fill="none" stroke="midnightblue" d="M262.517,-248.209C278.722,-250.363 295.85,-252.64 311.263,-254.689"/>
<polygon fill="midnightblue" stroke="midnightblue" points="262.944,-244.735 252.57,-246.887 262.021,-251.674 262.944,-244.735"/>
</g>
<!-- Node4 -->
<g id="node4" class="node"><title>Node4</title>
<g id="a_node4"><a xlink:href="classSITL_1_1QuadPlane.html#af9068f0de1894f5afc49481c869e3b6c" target="_top" xlink:title="SITL::QuadPlane::update">
<polygon fill="white" stroke="black" points="300,-214 300,-233 427,-233 427,-214 300,-214"/>
<text text-anchor="middle" x="363.5" y="-221" font-family="Helvetica,sans-Serif" font-size="10.00">SITL::QuadPlane::update</text>
</a>
</g>
</g>
<!-- Node2&#45;&gt;Node4 -->
<g id="edge3" class="edge"><title>Node2&#45;&gt;Node4</title>
<path fill="none" stroke="midnightblue" d="M262.726,-233.146C274.992,-231.96 287.78,-230.724 299.948,-229.547"/>
<polygon fill="midnightblue" stroke="midnightblue" points="262.186,-229.682 252.57,-234.128 262.86,-236.649 262.186,-229.682"/>
</g>
<!-- Node6 -->
<g id="node6" class="node"><title>Node6</title>
<g id="a_node6"><a xlink:href="classSITL_1_1Gripper__Servo.html#ade999b7f992bb47a4fac80ba8b61a123" target="_top" xlink:title="SITL::Gripper_Servo\l::Gripper_Servo">
<polygon fill="white" stroke="black" points="310.5,-339.5 310.5,-369.5 416.5,-369.5 416.5,-339.5 310.5,-339.5"/>
<text text-anchor="start" x="318.5" y="-357.5" font-family="Helvetica,sans-Serif" font-size="10.00">SITL::Gripper_Servo</text>
<text text-anchor="middle" x="363.5" y="-346.5" font-family="Helvetica,sans-Serif" font-size="10.00">::Gripper_Servo</text>
</a>
</g>
</g>
<!-- Node5&#45;&gt;Node6 -->
<g id="edge5" class="edge"><title>Node5&#45;&gt;Node6</title>
<path fill="none" stroke="midnightblue" d="M257.684,-323.467C275.417,-328.717 294.608,-334.399 311.663,-339.448"/>
<polygon fill="midnightblue" stroke="midnightblue" points="258.588,-320.084 248.006,-320.601 256.601,-326.796 258.588,-320.084"/>
</g>
<!-- Node7 -->
<g id="node7" class="node"><title>Node7</title>
<g id="a_node7"><a xlink:href="classSITL_1_1MultiCopter.html#ad4df8bcd20625ce425cc9d73f9aa6a20" target="_top" xlink:title="SITL::MultiCopter::\lupdate">
<polygon fill="white" stroke="black" points="313.5,-290.5 313.5,-320.5 413.5,-320.5 413.5,-290.5 313.5,-290.5"/>
<text text-anchor="start" x="321.5" y="-308.5" font-family="Helvetica,sans-Serif" font-size="10.00">SITL::MultiCopter::</text>
<text text-anchor="middle" x="363.5" y="-297.5" font-family="Helvetica,sans-Serif" font-size="10.00">update</text>
</a>
</g>
</g>
<!-- Node5&#45;&gt;Node7 -->
<g id="edge6" class="edge"><title>Node5&#45;&gt;Node7</title>
<path fill="none" stroke="midnightblue" d="M259.638,-305.5C277.39,-305.5 296.456,-305.5 313.293,-305.5"/>
<polygon fill="midnightblue" stroke="midnightblue" points="259.365,-302 249.365,-305.5 259.365,-309 259.365,-302"/>
</g>
<!-- Node8&#45;&gt;Node3 -->
<g id="edge12" class="edge"><title>Node8&#45;&gt;Node3</title>
<path fill="none" stroke="midnightblue" d="M257.878,-171.799C260.02,-173.263 262.071,-174.828 264,-176.5 289.246,-198.388 274.088,-221.405 300,-242.5 304.749,-246.366 310.276,-249.447 316.041,-251.902"/>
<polygon fill="midnightblue" stroke="midnightblue" points="259.618,-168.761 249.238,-166.638 256.029,-174.771 259.618,-168.761"/>
</g>
<!-- Node8&#45;&gt;Node4 -->
<g id="edge13" class="edge"><title>Node8&#45;&gt;Node4</title>
<path fill="none" stroke="midnightblue" d="M252.303,-170.676C256.323,-172.512 260.262,-174.456 264,-176.5 281.549,-186.094 282.229,-194.325 300,-203.5 307.997,-207.629 317.011,-211.114 325.651,-213.96"/>
<polygon fill="midnightblue" stroke="midnightblue" points="253.402,-167.338 242.834,-166.594 250.632,-173.767 253.402,-167.338"/>
</g>
<!-- Node8&#45;&gt;Node7 -->
<g id="edge11" class="edge"><title>Node8&#45;&gt;Node7</title>
<path fill="none" stroke="midnightblue" d="M259.552,-172.442C261.113,-173.716 262.601,-175.068 264,-176.5 298.171,-211.497 266.24,-245.106 300,-280.5 303.872,-284.559 308.489,-287.975 313.436,-290.846"/>
<polygon fill="midnightblue" stroke="midnightblue" points="261.436,-169.49 251.218,-166.688 257.459,-175.25 261.436,-169.49"/>
</g>
<!-- Node9 -->
<g id="node9" class="node"><title>Node9</title>
<g id="a_node9"><a xlink:href="classSITL_1_1Balloon.html#a34f5716a3c9ba0805d89dc36656ae90c" target="_top" xlink:title="SITL::Balloon::update">
<polygon fill="white" stroke="black" points="308,-88 308,-107 419,-107 419,-88 308,-88"/>
<text text-anchor="middle" x="363.5" y="-95" font-family="Helvetica,sans-Serif" font-size="10.00">SITL::Balloon::update</text>
</a>
</g>
</g>
<!-- Node8&#45;&gt;Node9 -->
<g id="edge8" class="edge"><title>Node8&#45;&gt;Node9</title>
<path fill="none" stroke="midnightblue" d="M249.989,-133.127C266.021,-127.667 283.697,-121.746 300,-116.5 309.824,-113.338 320.561,-110.024 330.321,-107.064"/>
<polygon fill="midnightblue" stroke="midnightblue" points="248.577,-129.911 240.246,-136.457 250.841,-136.534 248.577,-129.911"/>
</g>
<!-- Node10 -->
<g id="node10" class="node"><title>Node10</title>
<g id="a_node10"><a xlink:href="classSITL_1_1Calibration.html#a0c3f60adfbc5d68ae425883af18b62f4" target="_top" xlink:title="SITL::Calibration::\lupdate">
<polygon fill="white" stroke="black" points="315.5,-0.5 315.5,-30.5 411.5,-30.5 411.5,-0.5 315.5,-0.5"/>
<text text-anchor="start" x="323.5" y="-18.5" font-family="Helvetica,sans-Serif" font-size="10.00">SITL::Calibration::</text>
<text text-anchor="middle" x="363.5" y="-7.5" font-family="Helvetica,sans-Serif" font-size="10.00">update</text>
</a>
</g>
</g>
<!-- Node8&#45;&gt;Node10 -->
<g id="edge9" class="edge"><title>Node8&#45;&gt;Node10</title>
<path fill="none" stroke="midnightblue" d="M213.677,-128.116C232.3,-103.452 264.521,-64.8577 300,-40.5 305.395,-36.7959 311.421,-33.516 317.543,-30.6521"/>
<polygon fill="midnightblue" stroke="midnightblue" points="210.818,-126.095 207.674,-136.212 216.442,-130.264 210.818,-126.095"/>
</g>
<!-- Node11 -->
<g id="node11" class="node"><title>Node11</title>
<g id="a_node11"><a xlink:href="classSITL_1_1Helicopter.html#a0e8602ead0fe804552ab7ade9a1b171e" target="_top" xlink:title="SITL::Helicopter::update">
<polygon fill="white" stroke="black" points="302,-50 302,-69 425,-69 425,-50 302,-50"/>
<text text-anchor="middle" x="363.5" y="-57" font-family="Helvetica,sans-Serif" font-size="10.00">SITL::Helicopter::update</text>
</a>
</g>
</g>
<!-- Node8&#45;&gt;Node11 -->
<g id="edge10" class="edge"><title>Node8&#45;&gt;Node11</title>
<path fill="none" stroke="midnightblue" d="M222.465,-129.911C242.463,-113.866 271.588,-92.4302 300,-78.5 307.535,-74.8055 315.937,-71.6593 324.074,-69.0531"/>
<polygon fill="midnightblue" stroke="midnightblue" points="220.021,-127.388 214.483,-136.42 224.445,-132.813 220.021,-127.388"/>
</g>
<!-- Node12 -->
<g id="node12" class="node"><title>Node12</title>
<g id="a_node12"><a xlink:href="classSITL_1_1SingleCopter.html#a07d0997518b86260a6a80b914733d7b5" target="_top" xlink:title="SITL::SingleCopter\l::update">
<polygon fill="white" stroke="black" points="313.5,-164.5 313.5,-194.5 413.5,-194.5 413.5,-164.5 313.5,-164.5"/>
<text text-anchor="start" x="321.5" y="-182.5" font-family="Helvetica,sans-Serif" font-size="10.00">SITL::SingleCopter</text>
<text text-anchor="middle" x="363.5" y="-171.5" font-family="Helvetica,sans-Serif" font-size="10.00">::update</text>
</a>
</g>
</g>
<!-- Node8&#45;&gt;Node12 -->
<g id="edge14" class="edge"><title>Node8&#45;&gt;Node12</title>
<path fill="none" stroke="midnightblue" d="M261.256,-162.371C278.616,-165.308 297.122,-168.439 313.499,-171.21"/>
<polygon fill="midnightblue" stroke="midnightblue" points="261.635,-158.886 251.191,-160.668 260.467,-165.787 261.635,-158.886"/>
</g>
<!-- Node13 -->
<g id="node13" class="node"><title>Node13</title>
<g id="a_node13"><a xlink:href="classSITL_1_1Submarine.html#ae172876dbb527df84dfb38c9fa383878" target="_top" xlink:title="SITL::Submarine::update">
<polygon fill="white" stroke="black" points="301,-126 301,-145 426,-145 426,-126 301,-126"/>
<text text-anchor="middle" x="363.5" y="-133" font-family="Helvetica,sans-Serif" font-size="10.00">SITL::Submarine::update</text>
</a>
</g>
</g>
<!-- Node8&#45;&gt;Node13 -->
<g id="edge15" class="edge"><title>Node8&#45;&gt;Node13</title>
<path fill="none" stroke="midnightblue" d="M261.4,-145.274C274.329,-144.024 287.889,-142.713 300.727,-141.472"/>
<polygon fill="midnightblue" stroke="midnightblue" points="260.808,-141.815 251.191,-146.261 261.481,-148.782 260.808,-141.815"/>
</g>
<!-- Node14&#45;&gt;Node3 -->
<g id="edge20" class="edge"><title>Node14&#45;&gt;Node3</title>
<path fill="none" stroke="midnightblue" d="M249.667,-208.319C254.611,-210.149 259.464,-212.204 264,-214.5 282.084,-223.656 282.003,-233.174 300,-242.5 307.25,-246.257 315.366,-249.403 323.287,-251.986"/>
<polygon fill="midnightblue" stroke="midnightblue" points="250.702,-204.974 240.108,-205.071 248.45,-211.602 250.702,-204.974"/>
</g>
<!-- Node14&#45;&gt;Node4 -->
<g id="edge21" class="edge"><title>Node14&#45;&gt;Node4</title>
<path fill="none" stroke="midnightblue" d="M263.644,-206.775C277.776,-209.166 292.561,-211.667 306.262,-213.985"/>
<polygon fill="midnightblue" stroke="midnightblue" points="263.937,-203.275 253.493,-205.058 262.769,-210.177 263.937,-203.275"/>
</g>
<!-- Node14&#45;&gt;Node7 -->
<g id="edge19" class="edge"><title>Node14&#45;&gt;Node7</title>
<path fill="none" stroke="midnightblue" d="M256.787,-209.586C259.32,-211.064 261.741,-212.696 264,-214.5 290.109,-235.351 275.012,-258.318 300,-280.5 304.283,-284.302 309.215,-287.564 314.393,-290.354"/>
<polygon fill="midnightblue" stroke="midnightblue" points="258.327,-206.443 247.813,-205.136 255.217,-212.714 258.327,-206.443"/>
</g>
<!-- Node14&#45;&gt;Node9 -->
<g id="edge17" class="edge"><title>Node14&#45;&gt;Node9</title>
<path fill="none" stroke="midnightblue" d="M254.27,-181.691C257.706,-179.876 260.986,-177.822 264,-175.5 288.333,-156.751 275.715,-135.31 300,-116.5 305.021,-112.611 310.836,-109.514 316.857,-107.049"/>
<polygon fill="midnightblue" stroke="midnightblue" points="252.537,-178.635 244.885,-185.963 255.437,-185.006 252.537,-178.635"/>
</g>
<!-- Node14&#45;&gt;Node11 -->
<g id="edge18" class="edge"><title>Node14&#45;&gt;Node11</title>
<path fill="none" stroke="midnightblue" d="M256.99,-180.977C259.485,-179.342 261.841,-177.523 264,-175.5 297.56,-144.063 266.519,-110.022 300,-78.5 304.129,-74.613 309.029,-71.5195 314.241,-69.0579"/>
<polygon fill="midnightblue" stroke="midnightblue" points="255.15,-177.994 248.054,-185.861 258.507,-184.137 255.15,-177.994"/>
</g>
<!-- Node14&#45;&gt;Node12 -->
<g id="edge22" class="edge"><title>Node14&#45;&gt;Node12</title>
<path fill="none" stroke="midnightblue" d="M274.376,-188.02C287.608,-186.74 301.025,-185.443 313.265,-184.26"/>
<polygon fill="midnightblue" stroke="midnightblue" points="273.932,-184.546 264.315,-188.992 274.606,-191.514 273.932,-184.546"/>
</g>
<!-- Node14&#45;&gt;Node13 -->
<g id="edge23" class="edge"><title>Node14&#45;&gt;Node13</title>
<path fill="none" stroke="midnightblue" d="M244.448,-182.876C251.105,-180.661 257.789,-178.193 264,-175.5 280.995,-168.132 283.024,-161.911 300,-154.5 308.211,-150.916 317.306,-147.734 325.958,-145.048"/>
<polygon fill="midnightblue" stroke="midnightblue" points="243.253,-179.583 234.773,-185.935 245.363,-186.257 243.253,-179.583"/>
</g>
</g>
</svg>
