<?xml version="1.0" encoding="UTF-8" standalone="no"?>
<!DOCTYPE svg PUBLIC "-//W3C//DTD SVG 1.1//EN"
 "http://www.w3.org/Graphics/SVG/1.1/DTD/svg11.dtd">
<!-- Generated by graphviz version 2.38.0 (20140413.2041)
 -->
<!-- Title: Linux::CameraSensor_Mt9v117::_init_sensor Pages: 1 -->
<svg width="293pt" height="50pt"
 viewBox="0.00 0.00 293.00 50.00" xmlns="http://www.w3.org/2000/svg" xmlns:xlink="http://www.w3.org/1999/xlink">
<g id="graph0" class="graph" transform="scale(1 1) rotate(0) translate(4 46)">
<title>Linux::CameraSensor_Mt9v117::_init_sensor</title>
<polygon fill="white" stroke="none" points="-4,4 -4,-46 289,-46 289,4 -4,4"/>
<!-- Node1 -->
<g id="node1" class="node"><title>Node1</title>
<polygon fill="#bfbfbf" stroke="black" points="0,-6 0,-36 118,-36 118,-6 0,-6"/>
<text text-anchor="start" x="8" y="-24" font-family="Helvetica,sans-Serif" font-size="10.00">Linux::CameraSensor</text>
<text text-anchor="middle" x="59" y="-13" font-family="Helvetica,sans-Serif" font-size="10.00">_Mt9v117::_init_sensor</text>
</g>
<!-- Node2 -->
<g id="node2" class="node"><title>Node2</title>
<g id="a_node2"><a xlink:href="classLinux_1_1CameraSensor__Mt9v117.html#a4ca64405fd0ece45d76b844a14eb2f5f" target="_top" xlink:title="Linux::CameraSensor\l_Mt9v117::CameraSensor\l_Mt9v117">
<polygon fill="white" stroke="black" points="154,-0.5 154,-41.5 285,-41.5 285,-0.5 154,-0.5"/>
<text text-anchor="start" x="162" y="-29.5" font-family="Helvetica,sans-Serif" font-size="10.00">Linux::CameraSensor</text>
<text text-anchor="start" x="162" y="-18.5" font-family="Helvetica,sans-Serif" font-size="10.00">_Mt9v117::CameraSensor</text>
<text text-anchor="middle" x="219.5" y="-7.5" font-family="Helvetica,sans-Serif" font-size="10.00">_Mt9v117</text>
</a>
</g>
</g>
<!-- Node1&#45;&gt;Node2 -->
<g id="edge1" class="edge"><title>Node1&#45;&gt;Node2</title>
<path fill="none" stroke="midnightblue" d="M128.371,-21C136.867,-21 145.533,-21 153.968,-21"/>
<polygon fill="midnightblue" stroke="midnightblue" points="128.12,-17.5001 118.12,-21 128.12,-24.5001 128.12,-17.5001"/>
</g>
</g>
</svg>
