<?xml version="1.0" encoding="UTF-8" standalone="no"?>
<!DOCTYPE svg PUBLIC "-//W3C//DTD SVG 1.1//EN"
 "http://www.w3.org/Graphics/SVG/1.1/DTD/svg11.dtd">
<!-- Generated by graphviz version 2.38.0 (20140413.2041)
 -->
<!-- Title: Linux::ToneAlarm_Disco::stop Pages: 1 -->
<svg width="462pt" height="204pt"
 viewBox="0.00 0.00 462.00 204.00" xmlns="http://www.w3.org/2000/svg" xmlns:xlink="http://www.w3.org/1999/xlink">
<g id="graph0" class="graph" transform="scale(1 1) rotate(0) translate(4 200)">
<title>Linux::ToneAlarm_Disco::stop</title>
<polygon fill="white" stroke="none" points="-4,4 -4,-200 458,-200 458,4 -4,4"/>
<!-- Node1 -->
<g id="node1" class="node"><title>Node1</title>
<polygon fill="#bfbfbf" stroke="black" points="0,-83 0,-113 124,-113 124,-83 0,-83"/>
<text text-anchor="start" x="8" y="-101" font-family="Helvetica,sans-Serif" font-size="10.00">Linux::ToneAlarm_Disco</text>
<text text-anchor="middle" x="62" y="-90" font-family="Helvetica,sans-Serif" font-size="10.00">::stop</text>
</g>
<!-- Node2 -->
<g id="node2" class="node"><title>Node2</title>
<g id="a_node2"><a xlink:href="classLinux_1_1RCOutput__Bebop.html#ac9b71438638c37d55dab9342371f5a7d" target="_top" xlink:title="Linux::RCOutput_Bebop\l::play_note">
<polygon fill="white" stroke="black" points="160,-83 160,-113 283,-113 283,-83 160,-83"/>
<text text-anchor="start" x="168" y="-101" font-family="Helvetica,sans-Serif" font-size="10.00">Linux::RCOutput_Bebop</text>
<text text-anchor="middle" x="221.5" y="-90" font-family="Helvetica,sans-Serif" font-size="10.00">::play_note</text>
</a>
</g>
</g>
<!-- Node1&#45;&gt;Node2 -->
<g id="edge1" class="edge"><title>Node1&#45;&gt;Node2</title>
<path fill="none" stroke="midnightblue" d="M124.345,-98C132.634,-98 141.195,-98 149.634,-98"/>
<polygon fill="midnightblue" stroke="midnightblue" points="149.841,-101.5 159.84,-98 149.84,-94.5001 149.841,-101.5"/>
</g>
<!-- Node3 -->
<g id="node3" class="node"><title>Node3</title>
<g id="a_node3"><a xlink:href="sparse-endian_8h.html#afeadfffc79afb9d2c017f0921b187204" target="_top" xlink:title="htobe16">
<polygon fill="white" stroke="black" points="361,-176.5 361,-195.5 412,-195.5 412,-176.5 361,-176.5"/>
<text text-anchor="middle" x="386.5" y="-183.5" font-family="Helvetica,sans-Serif" font-size="10.00">htobe16</text>
</a>
</g>
</g>
<!-- Node2&#45;&gt;Node3 -->
<g id="edge2" class="edge"><title>Node2&#45;&gt;Node3</title>
<path fill="none" stroke="midnightblue" d="M239.823,-113.213C258.288,-128.722 288.95,-152.502 319,-167 328.998,-171.824 340.448,-175.641 350.997,-178.551"/>
<polygon fill="midnightblue" stroke="midnightblue" points="350.201,-181.96 360.758,-181.065 351.947,-175.181 350.201,-181.96"/>
</g>
<!-- Node4 -->
<g id="node4" class="node"><title>Node4</title>
<g id="a_node4"><a xlink:href="classAP__HAL_1_1I2CDevice.html#aecaa17329f98d50d437e53507b1e5c77" target="_top" xlink:title="AP_HAL::I2CDevice::\lget_semaphore">
<polygon fill="white" stroke="black" points="330,-127 330,-157 443,-157 443,-127 330,-127"/>
<text text-anchor="start" x="338" y="-145" font-family="Helvetica,sans-Serif" font-size="10.00">AP_HAL::I2CDevice::</text>
<text text-anchor="middle" x="386.5" y="-134" font-family="Helvetica,sans-Serif" font-size="10.00">get_semaphore</text>
</a>
</g>
</g>
<!-- Node2&#45;&gt;Node4 -->
<g id="edge3" class="edge"><title>Node2&#45;&gt;Node4</title>
<path fill="none" stroke="midnightblue" d="M278.139,-113.019C291.572,-116.645 306.05,-120.553 319.892,-124.29"/>
<polygon fill="midnightblue" stroke="midnightblue" points="319.268,-127.747 329.835,-126.974 321.092,-120.989 319.268,-127.747"/>
</g>
<!-- Node5 -->
<g id="node5" class="node"><title>Node5</title>
<g id="a_node5"><a xlink:href="classAP__HAL_1_1Semaphore.html#abd3a0affad8bb211981a979f30386589" target="_top" xlink:title="AP_HAL::Semaphore::take">
<polygon fill="white" stroke="black" points="319,-88.5 319,-107.5 454,-107.5 454,-88.5 319,-88.5"/>
<text text-anchor="middle" x="386.5" y="-95.5" font-family="Helvetica,sans-Serif" font-size="10.00">AP_HAL::Semaphore::take</text>
</a>
</g>
</g>
<!-- Node2&#45;&gt;Node5 -->
<g id="edge4" class="edge"><title>Node2&#45;&gt;Node5</title>
<path fill="none" stroke="midnightblue" d="M283.195,-98C291.522,-98 300.16,-98 308.728,-98"/>
<polygon fill="midnightblue" stroke="midnightblue" points="308.731,-101.5 318.731,-98 308.731,-94.5001 308.731,-101.5"/>
</g>
<!-- Node6 -->
<g id="node6" class="node"><title>Node6</title>
<g id="a_node6"><a xlink:href="classAP__HAL_1_1I2CDevice.html#a2e581ddc9b02eb73ad2fdf488fe8dc86" target="_top" xlink:title="AP_HAL::I2CDevice::\ltransfer">
<polygon fill="white" stroke="black" points="330,-39 330,-69 443,-69 443,-39 330,-39"/>
<text text-anchor="start" x="338" y="-57" font-family="Helvetica,sans-Serif" font-size="10.00">AP_HAL::I2CDevice::</text>
<text text-anchor="middle" x="386.5" y="-46" font-family="Helvetica,sans-Serif" font-size="10.00">transfer</text>
</a>
</g>
</g>
<!-- Node2&#45;&gt;Node6 -->
<g id="edge5" class="edge"><title>Node2&#45;&gt;Node6</title>
<path fill="none" stroke="midnightblue" d="M278.139,-82.9808C291.572,-79.3548 306.05,-75.4466 319.892,-71.7101"/>
<polygon fill="midnightblue" stroke="midnightblue" points="321.092,-75.0114 329.835,-69.0262 319.268,-68.2533 321.092,-75.0114"/>
</g>
<!-- Node7 -->
<g id="node7" class="node"><title>Node7</title>
<g id="a_node7"><a xlink:href="classAP__HAL_1_1Semaphore.html#afcdbf03d5bea9d83037acc93bfaea7ce" target="_top" xlink:title="AP_HAL::Semaphore::give">
<polygon fill="white" stroke="black" points="319.5,-0.5 319.5,-19.5 453.5,-19.5 453.5,-0.5 319.5,-0.5"/>
<text text-anchor="middle" x="386.5" y="-7.5" font-family="Helvetica,sans-Serif" font-size="10.00">AP_HAL::Semaphore::give</text>
</a>
</g>
</g>
<!-- Node2&#45;&gt;Node7 -->
<g id="edge6" class="edge"><title>Node2&#45;&gt;Node7</title>
<path fill="none" stroke="midnightblue" d="M240.247,-82.8234C258.812,-67.614 289.331,-44.4416 319,-30 324.417,-27.3634 330.252,-24.9941 336.137,-22.8882"/>
<polygon fill="midnightblue" stroke="midnightblue" points="337.642,-26.0758 346.022,-19.5921 335.428,-19.4352 337.642,-26.0758"/>
</g>
</g>
</svg>
