<?xml version="1.0" encoding="UTF-8" standalone="no"?>
<!DOCTYPE svg PUBLIC "-//W3C//DTD SVG 1.1//EN"
 "http://www.w3.org/Graphics/SVG/1.1/DTD/svg11.dtd">
<!-- Generated by graphviz version 2.38.0 (20140413.2041)
 -->
<!-- Title: AC_AttitudeControl::euler_accel_limit Pages: 1 -->
<!--zoomable 607 -->
<svg id="main" version="1.1" xmlns="http://www.w3.org/2000/svg" xmlns:xlink="http://www.w3.org/1999/xlink" xml:space="preserve" onload="init(evt)">
<style type="text/css"><![CDATA[
.edge:hover path { stroke: red; }
.edge:hover polygon { stroke: red; fill: red; }
]]></style>
<script type="text/javascript"><![CDATA[
var edges = document.getElementsByTagName('g');
if (edges && edges.length) {
  for (var i=0;i<edges.length;i++) {
    if (edges[i].id.substr(0,4)=='edge') {
      edges[i].setAttribute('class','edge');
    }
  }
}
]]></script>
        <defs>
                <circle id="rim" cx="0" cy="0" r="7"/>
                <circle id="rim2" cx="0" cy="0" r="3.5"/>
                <g id="zoomPlus">
                        <use xlink:href="#rim" fill="#404040">
                                <set attributeName="fill" to="#808080" begin="zoomplus.mouseover" end="zoomplus.mouseout"/>
                        </use>
                        <path d="M-4,0h8M0,-4v8" fill="none" stroke="white" stroke-width="1.5" pointer-events="none"/>
                </g>
                <g id="zoomMin">
                        <use xlink:href="#rim" fill="#404040">
                                <set attributeName="fill" to="#808080" begin="zoomminus.mouseover" end="zoomminus.mouseout"/>
                        </use>
                        <path d="M-4,0h8" fill="none" stroke="white" stroke-width="1.5" pointer-events="none"/>
                </g>
                <g id="dirArrow">
                        <path fill="none" stroke="white" stroke-width="1.5" d="M0,-3.0v7 M-2.5,-0.5L0,-3.0L2.5,-0.5"/>
                </g>
               <g id="resetDef">
                       <use xlink:href="#rim2" fill="#404040">
                               <set attributeName="fill" to="#808080" begin="reset.mouseover" end="reset.mouseout"/>
                       </use>
               </g>
        </defs>

<script type="text/javascript">
var viewWidth = 1534;
var viewHeight = 607;
var sectionId = 'dynsection-16';
</script>
<script xlink:href="svgpan.js"/>
<svg id="graph" class="graph">
<g id="viewport">
<title>AC_AttitudeControl::euler_accel_limit</title>
<polygon fill="white" stroke="none" points="-4,4 -4,-603.022 1530,-603.022 1530,4 -4,4"/>
<!-- Node1 -->
<g id="node1" class="node"><title>Node1</title>
<polygon fill="#bfbfbf" stroke="black" points="0,-473.022 0,-503.022 101,-503.022 101,-473.022 0,-473.022"/>
<text text-anchor="start" x="8" y="-491.022" font-family="Helvetica,sans-Serif" font-size="10.00">AC_AttitudeControl</text>
<text text-anchor="middle" x="50.5" y="-480.022" font-family="Helvetica,sans-Serif" font-size="10.00">::euler_accel_limit</text>
</g>
<!-- Node2 -->
<g id="node2" class="node"><title>Node2</title>
<g id="a_node2"><a xlink:href="classAC__AttitudeControl.html#a33492a0f71a317f64c14332075a6d3ec" target="_top" xlink:title="AC_AttitudeControl\l::input_euler_angle\l_roll_pitch_euler_rate_yaw">
<polygon fill="white" stroke="black" points="137,-557.522 137,-598.522 269,-598.522 269,-557.522 137,-557.522"/>
<text text-anchor="start" x="145" y="-586.522" font-family="Helvetica,sans-Serif" font-size="10.00">AC_AttitudeControl</text>
<text text-anchor="start" x="145" y="-575.522" font-family="Helvetica,sans-Serif" font-size="10.00">::input_euler_angle</text>
<text text-anchor="middle" x="203" y="-564.522" font-family="Helvetica,sans-Serif" font-size="10.00">_roll_pitch_euler_rate_yaw</text>
</a>
</g>
</g>
<!-- Node1&#45;&gt;Node2 -->
<g id="edge1" class="edge"><title>Node1&#45;&gt;Node2</title>
<path fill="none" stroke="midnightblue" d="M78.9369,-509.173C95.3107,-521.308 116.789,-536.392 137,-548.022 142.602,-551.245 148.61,-554.397 154.628,-557.373"/>
<polygon fill="midnightblue" stroke="midnightblue" points="80.9748,-506.327 70.8736,-503.131 76.7769,-511.929 80.9748,-506.327"/>
</g>
<!-- Node4 -->
<g id="node4" class="node"><title>Node4</title>
<g id="a_node4"><a xlink:href="classAC__AttitudeControl.html#aadd2cdd6b18aceaea1134d99ef870b18" target="_top" xlink:title="AC_AttitudeControl\l::input_euler_angle\l_roll_pitch_yaw">
<polygon fill="white" stroke="black" points="152.5,-497.522 152.5,-538.522 253.5,-538.522 253.5,-497.522 152.5,-497.522"/>
<text text-anchor="start" x="160.5" y="-526.522" font-family="Helvetica,sans-Serif" font-size="10.00">AC_AttitudeControl</text>
<text text-anchor="start" x="160.5" y="-515.522" font-family="Helvetica,sans-Serif" font-size="10.00">::input_euler_angle</text>
<text text-anchor="middle" x="203" y="-504.522" font-family="Helvetica,sans-Serif" font-size="10.00">_roll_pitch_yaw</text>
</a>
</g>
</g>
<!-- Node1&#45;&gt;Node4 -->
<g id="edge3" class="edge"><title>Node1&#45;&gt;Node4</title>
<path fill="none" stroke="midnightblue" d="M111.012,-499.885C124.708,-502.615 139.131,-505.49 152.356,-508.126"/>
<polygon fill="midnightblue" stroke="midnightblue" points="111.688,-496.451 101.196,-497.928 110.319,-503.316 111.688,-496.451"/>
</g>
<!-- Node5 -->
<g id="node5" class="node"><title>Node5</title>
<g id="a_node5"><a xlink:href="classAC__AttitudeControl.html#a49cd1e5d7c1a3550080c9ccca6ce8da8" target="_top" xlink:title="AC_AttitudeControl\l::input_euler_rate_roll\l_pitch_yaw">
<polygon fill="white" stroke="black" points="148,-437.522 148,-478.522 258,-478.522 258,-437.522 148,-437.522"/>
<text text-anchor="start" x="156" y="-466.522" font-family="Helvetica,sans-Serif" font-size="10.00">AC_AttitudeControl</text>
<text text-anchor="start" x="156" y="-455.522" font-family="Helvetica,sans-Serif" font-size="10.00">::input_euler_rate_roll</text>
<text text-anchor="middle" x="203" y="-444.522" font-family="Helvetica,sans-Serif" font-size="10.00">_pitch_yaw</text>
</a>
</g>
</g>
<!-- Node1&#45;&gt;Node5 -->
<g id="edge5" class="edge"><title>Node1&#45;&gt;Node5</title>
<path fill="none" stroke="midnightblue" d="M111.22,-476.118C123.346,-473.701 136.034,-471.172 147.949,-468.796"/>
<polygon fill="midnightblue" stroke="midnightblue" points="110.319,-472.728 101.196,-478.116 111.688,-479.593 110.319,-472.728"/>
</g>
<!-- Node6 -->
<g id="node6" class="node"><title>Node6</title>
<g id="a_node6"><a xlink:href="classAC__AttitudeControl.html#a080c9527e2d43eac62e370fbe61eaa8d" target="_top" xlink:title="AC_AttitudeControl\l::lean_angle_max">
<polygon fill="white" stroke="black" points="152.5,-389.022 152.5,-419.022 253.5,-419.022 253.5,-389.022 152.5,-389.022"/>
<text text-anchor="start" x="160.5" y="-407.022" font-family="Helvetica,sans-Serif" font-size="10.00">AC_AttitudeControl</text>
<text text-anchor="middle" x="203" y="-396.022" font-family="Helvetica,sans-Serif" font-size="10.00">::lean_angle_max</text>
</a>
</g>
</g>
<!-- Node1&#45;&gt;Node6 -->
<g id="edge7" class="edge"><title>Node1&#45;&gt;Node6</title>
<path fill="none" stroke="midnightblue" d="M77.9651,-466.762C94.3018,-454.336 116.074,-438.991 137,-428.022 143.18,-424.783 149.895,-421.78 156.588,-419.071"/>
<polygon fill="midnightblue" stroke="midnightblue" points="75.7235,-464.071 69.9508,-472.955 80.0037,-469.61 75.7235,-464.071"/>
</g>
<!-- Node3 -->
<g id="node3" class="node"><title>Node3</title>
<g id="a_node3"><a xlink:href="classAC__AttitudeControl.html#a5d0d15f6a4e5321e8102528b1a67fa0a" target="_top" xlink:title="AC_AttitudeControl\l::set_yaw_target_to\l_current_heading">
<polygon fill="white" stroke="black" points="310.5,-497.522 310.5,-538.522 413.5,-538.522 413.5,-497.522 310.5,-497.522"/>
<text text-anchor="start" x="318.5" y="-526.522" font-family="Helvetica,sans-Serif" font-size="10.00">AC_AttitudeControl</text>
<text text-anchor="start" x="318.5" y="-515.522" font-family="Helvetica,sans-Serif" font-size="10.00">::set_yaw_target_to</text>
<text text-anchor="middle" x="362" y="-504.522" font-family="Helvetica,sans-Serif" font-size="10.00">_current_heading</text>
</a>
</g>
</g>
<!-- Node2&#45;&gt;Node3 -->
<g id="edge2" class="edge"><title>Node2&#45;&gt;Node3</title>
<path fill="none" stroke="midnightblue" d="M267.715,-553.673C281.891,-548.255 296.735,-542.582 310.306,-537.396"/>
<polygon fill="midnightblue" stroke="midnightblue" points="266.122,-550.534 258.03,-557.373 268.621,-557.073 266.122,-550.534"/>
</g>
<!-- Node4&#45;&gt;Node3 -->
<g id="edge4" class="edge"><title>Node4&#45;&gt;Node3</title>
<path fill="none" stroke="midnightblue" d="M264.052,-518.022C279.31,-518.022 295.555,-518.022 310.298,-518.022"/>
<polygon fill="midnightblue" stroke="midnightblue" points="263.676,-514.522 253.676,-518.022 263.676,-521.522 263.676,-514.522"/>
</g>
<!-- Node5&#45;&gt;Node3 -->
<g id="edge6" class="edge"><title>Node5&#45;&gt;Node3</title>
<path fill="none" stroke="midnightblue" d="M267.715,-482.372C281.891,-487.789 296.735,-493.462 310.306,-498.649"/>
<polygon fill="midnightblue" stroke="midnightblue" points="268.621,-478.971 258.03,-478.671 266.122,-485.51 268.621,-478.971"/>
</g>
<!-- Node7 -->
<g id="node7" class="node"><title>Node7</title>
<g id="a_node7"><a xlink:href="classAC__PosControl.html#ab7a53930119bbcbb951f982fcb8d3ce1" target="_top" xlink:title="AC_PosControl::accel\l_to_lean_angles">
<polygon fill="white" stroke="black" points="305,-362.022 305,-392.022 419,-392.022 419,-362.022 305,-362.022"/>
<text text-anchor="start" x="313" y="-380.022" font-family="Helvetica,sans-Serif" font-size="10.00">AC_PosControl::accel</text>
<text text-anchor="middle" x="362" y="-369.022" font-family="Helvetica,sans-Serif" font-size="10.00">_to_lean_angles</text>
</a>
</g>
</g>
<!-- Node6&#45;&gt;Node7 -->
<g id="edge8" class="edge"><title>Node6&#45;&gt;Node7</title>
<path fill="none" stroke="midnightblue" d="M263.793,-393.739C277.26,-391.423 291.506,-388.973 304.818,-386.684"/>
<polygon fill="midnightblue" stroke="midnightblue" points="262.938,-390.335 253.676,-395.479 264.124,-397.234 262.938,-390.335"/>
</g>
<!-- Node34 -->
<g id="node34" class="node"><title>Node34</title>
<g id="a_node34"><a xlink:href="classAC__WPNav.html#a47964df8ebcc78bb101f328a23187e65" target="_top" xlink:title="AC_WPNav::wp_and_spline_init">
<polygon fill="white" stroke="black" points="455,-481.522 455,-500.522 614,-500.522 614,-481.522 455,-481.522"/>
<text text-anchor="middle" x="534.5" y="-488.522" font-family="Helvetica,sans-Serif" font-size="10.00">AC_WPNav::wp_and_spline_init</text>
</a>
</g>
</g>
<!-- Node6&#45;&gt;Node34 -->
<g id="edge44" class="edge"><title>Node6&#45;&gt;Node34</title>
<path fill="none" stroke="midnightblue" d="M263.413,-419.709C331.444,-437.672 440.748,-466.532 497.179,-481.432"/>
<polygon fill="midnightblue" stroke="midnightblue" points="264.248,-416.31 253.686,-417.141 262.461,-423.078 264.248,-416.31"/>
</g>
<!-- Node8 -->
<g id="node8" class="node"><title>Node8</title>
<g id="a_node8"><a xlink:href="classAC__PosControl.html#a497c1799c10d146b6f2e2b542889c083" target="_top" xlink:title="update_xy_controller &#45; run the horizontal position controller &#45; should be called at 100hz or higher ...">
<polygon fill="white" stroke="black" points="474.5,-362.022 474.5,-392.022 594.5,-392.022 594.5,-362.022 474.5,-362.022"/>
<text text-anchor="start" x="482.5" y="-380.022" font-family="Helvetica,sans-Serif" font-size="10.00">AC_PosControl::update</text>
<text text-anchor="middle" x="534.5" y="-369.022" font-family="Helvetica,sans-Serif" font-size="10.00">_xy_controller</text>
</a>
</g>
</g>
<!-- Node7&#45;&gt;Node8 -->
<g id="edge9" class="edge"><title>Node7&#45;&gt;Node8</title>
<path fill="none" stroke="midnightblue" d="M429.405,-377.022C444.22,-377.022 459.833,-377.022 474.333,-377.022"/>
<polygon fill="midnightblue" stroke="midnightblue" points="429.301,-373.522 419.301,-377.022 429.301,-380.522 429.301,-373.522"/>
</g>
<!-- Node12 -->
<g id="node12" class="node"><title>Node12</title>
<g id="a_node12"><a xlink:href="classAC__PosControl.html#ad89eec74ef77005f3f5c449da98ad12c" target="_top" xlink:title="AC_PosControl::update\l_vel_controller_xyz">
<polygon fill="white" stroke="black" points="1212.5,-34.0221 1212.5,-64.0221 1332.5,-64.0221 1332.5,-34.0221 1212.5,-34.0221"/>
<text text-anchor="start" x="1220.5" y="-52.0221" font-family="Helvetica,sans-Serif" font-size="10.00">AC_PosControl::update</text>
<text text-anchor="middle" x="1272.5" y="-41.0221" font-family="Helvetica,sans-Serif" font-size="10.00">_vel_controller_xyz</text>
</a>
</g>
</g>
<!-- Node7&#45;&gt;Node12 -->
<g id="edge43" class="edge"><title>Node7&#45;&gt;Node12</title>
<path fill="none" stroke="midnightblue" d="M372.003,-352.276C404.284,-268.392 522.705,-0.022074 716.5,-0.022074 716.5,-0.022074 716.5,-0.022074 892,-0.022074 1009.64,-0.022074 1039.92,0.0662221 1156,-19.0221 1177.87,-22.6191 1201.64,-28.4502 1221.9,-34.0194"/>
<polygon fill="midnightblue" stroke="midnightblue" points="368.674,-351.185 368.415,-361.776 375.223,-353.658 368.674,-351.185"/>
</g>
<!-- Node9 -->
<g id="node9" class="node"><title>Node9</title>
<g id="a_node9"><a xlink:href="classAC__PosControl.html#ac150947d527995a72dff6ad0921a1891" target="_top" xlink:title="freeze_ff_xy &#45; used to stop the feed forward being calculated during a known discontinuity ...">
<polygon fill="white" stroke="black" points="658.5,-231.022 658.5,-261.022 776.5,-261.022 776.5,-231.022 658.5,-231.022"/>
<text text-anchor="start" x="666.5" y="-249.022" font-family="Helvetica,sans-Serif" font-size="10.00">AC_PosControl::freeze</text>
<text text-anchor="middle" x="717.5" y="-238.022" font-family="Helvetica,sans-Serif" font-size="10.00">_ff_xy</text>
</a>
</g>
</g>
<!-- Node8&#45;&gt;Node9 -->
<g id="edge10" class="edge"><title>Node8&#45;&gt;Node9</title>
<path fill="none" stroke="midnightblue" d="M564.565,-355.986C601.249,-329.436 663.442,-284.423 695.701,-261.075"/>
<polygon fill="midnightblue" stroke="midnightblue" points="562.312,-353.296 556.263,-361.995 566.416,-358.967 562.312,-353.296"/>
</g>
<!-- Node26 -->
<g id="node26" class="node"><title>Node26</title>
<g id="a_node26"><a xlink:href="classAC__WPNav.html#a7dc4785fbce8364d7eb3d8e2d0c1b987" target="_top" xlink:title="update_wpnav &#45; run the wp controller &#45; should be called at 100hz or higher ">
<polygon fill="white" stroke="black" points="821,-66.5221 821,-85.5221 961,-85.5221 961,-66.5221 821,-66.5221"/>
<text text-anchor="middle" x="891" y="-73.5221" font-family="Helvetica,sans-Serif" font-size="10.00">AC_WPNav::update_wpnav</text>
</a>
</g>
</g>
<!-- Node8&#45;&gt;Node26 -->
<g id="edge41" class="edge"><title>Node8&#45;&gt;Node26</title>
<path fill="none" stroke="midnightblue" d="M549.817,-352.795C569.672,-320.435 607.91,-262.388 650,-221.022 716.402,-155.763 738.216,-142.624 821,-100.022 832.165,-94.2765 845.013,-89.3856 856.574,-85.5475"/>
<polygon fill="midnightblue" stroke="midnightblue" points="546.678,-351.22 544.488,-361.586 552.665,-354.849 546.678,-351.22"/>
</g>
<!-- Node28 -->
<g id="node28" class="node"><title>Node28</title>
<g id="a_node28"><a xlink:href="classAC__WPNav.html#acc138e7bc6435087ab308896358de6a3" target="_top" xlink:title="update_spline &#45; update spline controller ">
<polygon fill="white" stroke="black" points="822.5,-443.522 822.5,-462.522 959.5,-462.522 959.5,-443.522 822.5,-443.522"/>
<text text-anchor="middle" x="891" y="-450.522" font-family="Helvetica,sans-Serif" font-size="10.00">AC_WPNav::update_spline</text>
</a>
</g>
</g>
<!-- Node8&#45;&gt;Node28 -->
<g id="edge42" class="edge"><title>Node8&#45;&gt;Node28</title>
<path fill="none" stroke="midnightblue" d="M567.665,-397.222C589.905,-410.116 620.661,-425.888 650,-434.022 706.691,-449.739 773.592,-453.917 822.34,-454.493"/>
<polygon fill="midnightblue" stroke="midnightblue" points="569.372,-394.165 558.984,-392.083 565.806,-400.189 569.372,-394.165"/>
</g>
<!-- Node30 -->
<g id="node30" class="node"><title>Node30</title>
<g id="a_node30"><a xlink:href="classAC__Circle.html#ad28205982ae7bc5f1e72f5285696c99b" target="_top" xlink:title="update &#45; update circle controller ">
<polygon fill="white" stroke="black" points="669,-484.522 669,-503.522 766,-503.522 766,-484.522 669,-484.522"/>
<text text-anchor="middle" x="717.5" y="-491.522" font-family="Helvetica,sans-Serif" font-size="10.00">AC_Circle::update</text>
</a>
</g>
</g>
<!-- Node8&#45;&gt;Node30 -->
<g id="edge35" class="edge"><title>Node8&#45;&gt;Node30</title>
<path fill="none" stroke="midnightblue" d="M559.474,-399.16C581.695,-418.847 616.307,-447.465 650,-467.022 661.854,-473.903 675.799,-479.856 687.85,-484.407"/>
<polygon fill="midnightblue" stroke="midnightblue" points="561.655,-396.415 551.873,-392.344 556.982,-401.626 561.655,-396.415"/>
</g>
<!-- Node32 -->
<g id="node32" class="node"><title>Node32</title>
<g id="a_node32"><a xlink:href="classAC__WPNav.html#a0a434270245fd8641352af387700dc82" target="_top" xlink:title="update_loiter &#45; run the loiter controller &#45; should be called at 10hz ">
<polygon fill="white" stroke="black" points="651.5,-405.522 651.5,-424.522 783.5,-424.522 783.5,-405.522 651.5,-405.522"/>
<text text-anchor="middle" x="717.5" y="-412.522" font-family="Helvetica,sans-Serif" font-size="10.00">AC_WPNav::update_loiter</text>
</a>
</g>
</g>
<!-- Node8&#45;&gt;Node32 -->
<g id="edge37" class="edge"><title>Node8&#45;&gt;Node32</title>
<path fill="none" stroke="midnightblue" d="M604.835,-391.579C627.071,-396.247 651.113,-401.294 671.173,-405.506"/>
<polygon fill="midnightblue" stroke="midnightblue" points="605.272,-388.094 594.766,-389.465 603.834,-394.945 605.272,-388.094"/>
</g>
<!-- Node33 -->
<g id="node33" class="node"><title>Node33</title>
<g id="a_node33"><a xlink:href="classAC__WPNav.html#af9d3f98ad44166d4c5d072bf3ba4a3db" target="_top" xlink:title="update_brake &#45; run the brake controller &#45; should be called at 400hz ">
<polygon fill="white" stroke="black" points="650,-367.522 650,-386.522 785,-386.522 785,-367.522 650,-367.522"/>
<text text-anchor="middle" x="717.5" y="-374.522" font-family="Helvetica,sans-Serif" font-size="10.00">AC_WPNav::update_brake</text>
</a>
</g>
</g>
<!-- Node8&#45;&gt;Node33 -->
<g id="edge39" class="edge"><title>Node8&#45;&gt;Node33</title>
<path fill="none" stroke="midnightblue" d="M604.852,-377.022C619.635,-377.022 635.216,-377.022 649.893,-377.022"/>
<polygon fill="midnightblue" stroke="midnightblue" points="604.766,-373.522 594.766,-377.022 604.766,-380.522 604.766,-373.522"/>
</g>
<!-- Node10 -->
<g id="node10" class="node"><title>Node10</title>
<g id="a_node10"><a xlink:href="classAC__PosControl.html#a0a3dc64da9e355dea10959cb41e6aa8b" target="_top" xlink:title="shift position target target in x, y axis ">
<polygon fill="white" stroke="black" points="836,-143.022 836,-173.022 946,-173.022 946,-143.022 836,-143.022"/>
<text text-anchor="start" x="844" y="-161.022" font-family="Helvetica,sans-Serif" font-size="10.00">AC_PosControl::shift</text>
<text text-anchor="middle" x="891" y="-150.022" font-family="Helvetica,sans-Serif" font-size="10.00">_pos_xy_target</text>
</a>
</g>
</g>
<!-- Node9&#45;&gt;Node10 -->
<g id="edge11" class="edge"><title>Node9&#45;&gt;Node10</title>
<path fill="none" stroke="midnightblue" d="M752.025,-225.874C771.816,-214.278 797.515,-199.732 821,-188.022 831.404,-182.835 842.914,-177.628 853.503,-173.043"/>
<polygon fill="midnightblue" stroke="midnightblue" points="750.213,-222.879 743.376,-230.973 753.768,-228.909 750.213,-222.879"/>
</g>
<!-- Node18 -->
<g id="node18" class="node"><title>Node18</title>
<g id="a_node18"><a xlink:href="classAC__WPNav.html#a7ebe48af2381e791cbcdea94c7af2e3e" target="_top" xlink:title="AC_WPNav::shift_wp\l_origin_to_current_pos">
<polygon fill="white" stroke="black" points="1215,-259.022 1215,-289.022 1330,-289.022 1330,-259.022 1215,-259.022"/>
<text text-anchor="start" x="1223" y="-277.022" font-family="Helvetica,sans-Serif" font-size="10.00">AC_WPNav::shift_wp</text>
<text text-anchor="middle" x="1272.5" y="-266.022" font-family="Helvetica,sans-Serif" font-size="10.00">_origin_to_current_pos</text>
</a>
</g>
</g>
<!-- Node9&#45;&gt;Node18 -->
<g id="edge30" class="edge"><title>Node9&#45;&gt;Node18</title>
<path fill="none" stroke="midnightblue" d="M779.396,-228.64C792.979,-225.474 807.39,-222.658 821,-221.022 969.173,-203.213 1009.33,-216.458 1156,-244.022 1177.07,-247.982 1199.99,-253.644 1219.81,-258.984"/>
<polygon fill="midnightblue" stroke="midnightblue" points="778.571,-225.238 769.677,-230.995 780.22,-232.041 778.571,-225.238"/>
</g>
<!-- Node22 -->
<g id="node22" class="node"><title>Node22</title>
<g id="a_node22"><a xlink:href="classAC__PosControl.html#a26ec8e9313b7c01fa449ba4f2d194d28" target="_top" xlink:title="AC_PosControl::set\l_desired_velocity">
<polygon fill="white" stroke="black" points="839,-280.022 839,-310.022 943,-310.022 943,-280.022 839,-280.022"/>
<text text-anchor="start" x="847" y="-298.022" font-family="Helvetica,sans-Serif" font-size="10.00">AC_PosControl::set</text>
<text text-anchor="middle" x="891" y="-287.022" font-family="Helvetica,sans-Serif" font-size="10.00">_desired_velocity</text>
</a>
</g>
</g>
<!-- Node9&#45;&gt;Node22 -->
<g id="edge25" class="edge"><title>Node9&#45;&gt;Node22</title>
<path fill="none" stroke="midnightblue" d="M781.102,-263.908C800.066,-269.327 820.664,-275.212 838.789,-280.39"/>
<polygon fill="midnightblue" stroke="midnightblue" points="781.932,-260.505 771.355,-261.124 780.009,-267.236 781.932,-260.505"/>
</g>
<!-- Node24 -->
<g id="node24" class="node"><title>Node24</title>
<g id="a_node24"><a xlink:href="classAC__WPNav.html#a9b3fd8fd5c74d31ebffa89cdf98f570a" target="_top" xlink:title="loiter_soften_for_landing &#45; reduce response for landing ">
<polygon fill="white" stroke="black" points="826,-231.022 826,-261.022 956,-261.022 956,-231.022 826,-231.022"/>
<text text-anchor="start" x="834" y="-249.022" font-family="Helvetica,sans-Serif" font-size="10.00">AC_WPNav::loiter_soften</text>
<text text-anchor="middle" x="891" y="-238.022" font-family="Helvetica,sans-Serif" font-size="10.00">_for_landing</text>
</a>
</g>
</g>
<!-- Node9&#45;&gt;Node24 -->
<g id="edge28" class="edge"><title>Node9&#45;&gt;Node24</title>
<path fill="none" stroke="midnightblue" d="M786.75,-246.022C799.631,-246.022 813.062,-246.022 825.812,-246.022"/>
<polygon fill="midnightblue" stroke="midnightblue" points="786.562,-242.522 776.562,-246.022 786.562,-249.522 786.562,-242.522"/>
</g>
<!-- Node9&#45;&gt;Node26 -->
<g id="edge31" class="edge"><title>Node9&#45;&gt;Node26</title>
<path fill="none" stroke="midnightblue" d="M735.394,-222.725C748.93,-203.981 768.343,-176.92 785,-153.022 801.283,-129.661 798.408,-117.356 821,-100.022 829.151,-93.7686 839.051,-89.0697 848.779,-85.5676"/>
<polygon fill="midnightblue" stroke="midnightblue" points="732.463,-220.805 729.44,-230.96 738.136,-224.907 732.463,-220.805"/>
</g>
<!-- Node9&#45;&gt;Node28 -->
<g id="edge33" class="edge"><title>Node9&#45;&gt;Node28</title>
<path fill="none" stroke="midnightblue" d="M737.545,-269.01C774.876,-314.068 856.272,-412.312 882.022,-443.393"/>
<polygon fill="midnightblue" stroke="midnightblue" points="740.186,-266.711 731.111,-261.243 734.796,-271.177 740.186,-266.711"/>
</g>
<!-- Node11 -->
<g id="node11" class="node"><title>Node11</title>
<g id="a_node11"><a xlink:href="classAC__PosControl.html#adcd8a80dc29c0e77d0c3f225689319b9" target="_top" xlink:title="check for ekf position reset and adjust loiter or brake target position ">
<polygon fill="white" stroke="black" points="1018,-117.022 1018,-147.022 1135,-147.022 1135,-117.022 1018,-117.022"/>
<text text-anchor="start" x="1026" y="-135.022" font-family="Helvetica,sans-Serif" font-size="10.00">AC_PosControl::check</text>
<text text-anchor="middle" x="1076.5" y="-124.022" font-family="Helvetica,sans-Serif" font-size="10.00">_for_ekf_xy_reset</text>
</a>
</g>
</g>
<!-- Node10&#45;&gt;Node11 -->
<g id="edge12" class="edge"><title>Node10&#45;&gt;Node11</title>
<path fill="none" stroke="midnightblue" d="M956.084,-148.942C976.227,-146.088 998.332,-142.956 1017.99,-140.171"/>
<polygon fill="midnightblue" stroke="midnightblue" points="955.474,-145.493 946.064,-150.362 956.456,-152.424 955.474,-145.493"/>
</g>
<!-- Node13 -->
<g id="node13" class="node"><title>Node13</title>
<g id="a_node13"><a xlink:href="classAC__PosControl.html#a6b3617b946ffd6935c11a63629f186ec" target="_top" xlink:title="get_pos_target &#45; get target as position vector (from home in cm) ">
<polygon fill="white" stroke="black" points="1024.5,-166.022 1024.5,-196.022 1128.5,-196.022 1128.5,-166.022 1024.5,-166.022"/>
<text text-anchor="start" x="1032.5" y="-184.022" font-family="Helvetica,sans-Serif" font-size="10.00">AC_PosControl::get</text>
<text text-anchor="middle" x="1076.5" y="-173.022" font-family="Helvetica,sans-Serif" font-size="10.00">_pos_target</text>
</a>
</g>
</g>
<!-- Node10&#45;&gt;Node13 -->
<g id="edge16" class="edge"><title>Node10&#45;&gt;Node13</title>
<path fill="none" stroke="midnightblue" d="M956.133,-166.061C978.464,-168.859 1003.2,-171.96 1024.34,-174.61"/>
<polygon fill="midnightblue" stroke="midnightblue" points="956.421,-162.569 946.064,-164.798 955.551,-169.515 956.421,-162.569"/>
</g>
<!-- Node11&#45;&gt;Node8 -->
<g id="edge13" class="edge"><title>Node11&#45;&gt;Node8</title>
<path fill="none" stroke="midnightblue" d="M1051.52,-110.243C1029.72,-92.0195 995.73,-67.384 961,-57.0221 826.105,-16.7752 753.316,-21.4063 650,-117.022 573.801,-187.542 545.498,-317.881 537.844,-361.985"/>
<polygon fill="midnightblue" stroke="midnightblue" points="1049.39,-113.023 1059.26,-116.871 1053.94,-107.707 1049.39,-113.023"/>
</g>
<!-- Node11&#45;&gt;Node12 -->
<g id="edge14" class="edge"><title>Node11&#45;&gt;Node12</title>
<path fill="none" stroke="midnightblue" d="M1133.27,-113.073C1141.08,-109.745 1148.86,-106.044 1156,-102.022 1173.66,-92.0731 1174.05,-83.4336 1192,-74.0221 1199.18,-70.2601 1207.02,-66.9476 1214.89,-64.0681"/>
<polygon fill="midnightblue" stroke="midnightblue" points="1131.72,-109.925 1123.79,-116.943 1134.37,-116.406 1131.72,-109.925"/>
</g>
<!-- Node12&#45;&gt;Node9 -->
<g id="edge15" class="edge"><title>Node12&#45;&gt;Node9</title>
<path fill="none" stroke="midnightblue" d="M1202.45,-60.48C1080.19,-80.9635 836.953,-122.688 821,-133.022 797.408,-148.304 803.472,-163.834 785,-185.022 770.175,-202.027 750.987,-219.202 737.035,-230.976"/>
<polygon fill="midnightblue" stroke="midnightblue" points="1203.18,-63.9065 1212.46,-58.804 1202.02,-57.0025 1203.18,-63.9065"/>
</g>
<!-- Node14 -->
<g id="node14" class="node"><title>Node14</title>
<g id="a_node14"><a xlink:href="classAC__Circle.html#a20eefa0e2e7172498728dbf1f5eed4af" target="_top" xlink:title="AC_Circle::init">
<polygon fill="white" stroke="black" points="1232.5,-83.5221 1232.5,-102.522 1312.5,-102.522 1312.5,-83.5221 1232.5,-83.5221"/>
<text text-anchor="middle" x="1272.5" y="-90.5221" font-family="Helvetica,sans-Serif" font-size="10.00">AC_Circle::init</text>
</a>
</g>
</g>
<!-- Node13&#45;&gt;Node14 -->
<g id="edge17" class="edge"><title>Node13&#45;&gt;Node14</title>
<path fill="none" stroke="midnightblue" d="M1138.61,-165.489C1144.72,-162.795 1150.64,-159.661 1156,-156.022 1176.9,-141.824 1170.59,-125.44 1192,-112.022 1204.02,-104.486 1218.79,-99.9385 1232.31,-97.1944"/>
<polygon fill="midnightblue" stroke="midnightblue" points="1136.89,-162.409 1128.9,-169.369 1139.48,-168.91 1136.89,-162.409"/>
</g>
<!-- Node15 -->
<g id="node15" class="node"><title>Node15</title>
<g id="a_node15"><a xlink:href="classAC__WPNav.html#a7f711c7661c335417cbcc28f9546688c" target="_top" xlink:title="get_loiter_bearing_to_target &#45; get bearing to loiter target in centi&#45;degrees ">
<polygon fill="white" stroke="black" points="1214.5,-210.022 1214.5,-240.022 1330.5,-240.022 1330.5,-210.022 1214.5,-210.022"/>
<text text-anchor="start" x="1222.5" y="-228.022" font-family="Helvetica,sans-Serif" font-size="10.00">AC_WPNav::get_loiter</text>
<text text-anchor="middle" x="1272.5" y="-217.022" font-family="Helvetica,sans-Serif" font-size="10.00">_bearing_to_target</text>
</a>
</g>
</g>
<!-- Node13&#45;&gt;Node15 -->
<g id="edge18" class="edge"><title>Node13&#45;&gt;Node15</title>
<path fill="none" stroke="midnightblue" d="M1138.5,-194.858C1162.69,-200.343 1190.35,-206.618 1214.17,-212.018"/>
<polygon fill="midnightblue" stroke="midnightblue" points="1139.25,-191.439 1128.72,-192.64 1137.7,-198.265 1139.25,-191.439"/>
</g>
<!-- Node17 -->
<g id="node17" class="node"><title>Node17</title>
<g id="a_node17"><a xlink:href="classAC__WPNav.html#a38519fcac3a24cf64ec7c37e90fc3e13" target="_top" xlink:title="AC_WPNav::set_wp_destination">
<polygon fill="white" stroke="black" points="1192,-171.522 1192,-190.522 1353,-190.522 1353,-171.522 1192,-171.522"/>
<text text-anchor="middle" x="1272.5" y="-178.522" font-family="Helvetica,sans-Serif" font-size="10.00">AC_WPNav::set_wp_destination</text>
</a>
</g>
</g>
<!-- Node13&#45;&gt;Node17 -->
<g id="edge20" class="edge"><title>Node13&#45;&gt;Node17</title>
<path fill="none" stroke="midnightblue" d="M1138.94,-181.022C1155.72,-181.022 1174.14,-181.022 1191.78,-181.022"/>
<polygon fill="midnightblue" stroke="midnightblue" points="1138.73,-177.522 1128.72,-181.022 1138.72,-184.522 1138.73,-177.522"/>
</g>
<!-- Node13&#45;&gt;Node18 -->
<g id="edge21" class="edge"><title>Node13&#45;&gt;Node18</title>
<path fill="none" stroke="midnightblue" d="M1136.32,-200.131C1143.19,-203.331 1149.91,-206.956 1156,-211.022 1175.35,-223.941 1172.27,-236.693 1192,-249.022 1198.99,-253.393 1206.81,-257.056 1214.75,-260.111"/>
<polygon fill="midnightblue" stroke="midnightblue" points="1137.48,-196.816 1126.91,-196.028 1134.68,-203.233 1137.48,-196.816"/>
</g>
<!-- Node20 -->
<g id="node20" class="node"><title>Node20</title>
<g id="a_node20"><a xlink:href="classAC__WPNav.html#a8caabd95cf51512456cd8d81f38dbff9" target="_top" xlink:title="AC_WPNav::set_spline\l_destination">
<polygon fill="white" stroke="black" points="1212,-122.022 1212,-152.022 1333,-152.022 1333,-122.022 1212,-122.022"/>
<text text-anchor="start" x="1220" y="-140.022" font-family="Helvetica,sans-Serif" font-size="10.00">AC_WPNav::set_spline</text>
<text text-anchor="middle" x="1272.5" y="-129.022" font-family="Helvetica,sans-Serif" font-size="10.00">_destination</text>
</a>
</g>
</g>
<!-- Node13&#45;&gt;Node20 -->
<g id="edge23" class="edge"><title>Node13&#45;&gt;Node20</title>
<path fill="none" stroke="midnightblue" d="M1138.52,-167.183C1161.88,-161.885 1188.48,-155.851 1211.72,-150.58"/>
<polygon fill="midnightblue" stroke="midnightblue" points="1137.7,-163.779 1128.72,-169.404 1139.25,-170.605 1137.7,-163.779"/>
</g>
<!-- Node21 -->
<g id="node21" class="node"><title>Node21</title>
<g id="a_node21"><a xlink:href="classAC__WPNav.html#ae34a88192799de8f2b96c8cd295bb971" target="_top" xlink:title="get_loiter_target &#45; returns loiter target position ">
<polygon fill="white" stroke="black" points="1214.5,-381.022 1214.5,-411.022 1330.5,-411.022 1330.5,-381.022 1214.5,-381.022"/>
<text text-anchor="start" x="1222.5" y="-399.022" font-family="Helvetica,sans-Serif" font-size="10.00">AC_WPNav::get_loiter</text>
<text text-anchor="middle" x="1272.5" y="-388.022" font-family="Helvetica,sans-Serif" font-size="10.00">_target</text>
</a>
</g>
</g>
<!-- Node13&#45;&gt;Node21 -->
<g id="edge24" class="edge"><title>Node13&#45;&gt;Node21</title>
<path fill="none" stroke="midnightblue" d="M1108.19,-202.189C1123.51,-213.583 1141.76,-228.47 1156,-244.022 1175.48,-265.298 1174.9,-274.796 1192,-298.022 1214.22,-328.188 1242.22,-361.78 1258.37,-380.761"/>
<polygon fill="midnightblue" stroke="midnightblue" points="1110.16,-199.298 1100.02,-196.236 1106.04,-204.955 1110.16,-199.298"/>
</g>
<!-- Node16 -->
<g id="node16" class="node"><title>Node16</title>
<g id="a_node16"><a xlink:href="classAC__WPNav.html#a828016e98938c6bbb6236e0b92e20807" target="_top" xlink:title="get_loiter_distance_to_target &#45; get horizontal distance to loiter target in cm ">
<polygon fill="white" stroke="black" points="1399.5,-210.022 1399.5,-240.022 1515.5,-240.022 1515.5,-210.022 1399.5,-210.022"/>
<text text-anchor="start" x="1407.5" y="-228.022" font-family="Helvetica,sans-Serif" font-size="10.00">AC_WPNav::get_loiter</text>
<text text-anchor="middle" x="1457.5" y="-217.022" font-family="Helvetica,sans-Serif" font-size="10.00">_distance_to_target</text>
</a>
</g>
</g>
<!-- Node15&#45;&gt;Node16 -->
<g id="edge19" class="edge"><title>Node15&#45;&gt;Node16</title>
<path fill="none" stroke="midnightblue" d="M1340.86,-225.022C1360.11,-225.022 1380.9,-225.022 1399.47,-225.022"/>
<polygon fill="midnightblue" stroke="midnightblue" points="1340.65,-221.522 1330.65,-225.022 1340.65,-228.522 1340.65,-221.522"/>
</g>
<!-- Node19 -->
<g id="node19" class="node"><title>Node19</title>
<g id="a_node19"><a xlink:href="classAC__WPNav.html#acc07b8521654cf468b6a86fad9104a4c" target="_top" xlink:title="get origin using position vector (distance from home in cm) ">
<polygon fill="white" stroke="black" points="1389,-264.522 1389,-283.522 1526,-283.522 1526,-264.522 1389,-264.522"/>
<text text-anchor="middle" x="1457.5" y="-271.522" font-family="Helvetica,sans-Serif" font-size="10.00">AC_WPNav::get_wp_origin</text>
</a>
</g>
</g>
<!-- Node18&#45;&gt;Node19 -->
<g id="edge22" class="edge"><title>Node18&#45;&gt;Node19</title>
<path fill="none" stroke="midnightblue" d="M1340.55,-274.022C1356.25,-274.022 1372.98,-274.022 1388.72,-274.022"/>
<polygon fill="midnightblue" stroke="midnightblue" points="1340.4,-270.522 1330.4,-274.022 1340.4,-277.522 1340.4,-270.522"/>
</g>
<!-- Node23 -->
<g id="node23" class="node"><title>Node23</title>
<g id="a_node23"><a xlink:href="classAC__PosControl.html#ae2897de0075f8f8aaa94eb7e8cad100b" target="_top" xlink:title="xyz velocity controller ">
<polygon fill="white" stroke="black" points="1024.5,-305.022 1024.5,-335.022 1128.5,-335.022 1128.5,-305.022 1024.5,-305.022"/>
<text text-anchor="start" x="1032.5" y="-323.022" font-family="Helvetica,sans-Serif" font-size="10.00">AC_PosControl::init</text>
<text text-anchor="middle" x="1076.5" y="-312.022" font-family="Helvetica,sans-Serif" font-size="10.00">_vel_controller_xyz</text>
</a>
</g>
</g>
<!-- Node22&#45;&gt;Node23 -->
<g id="edge26" class="edge"><title>Node22&#45;&gt;Node23</title>
<path fill="none" stroke="midnightblue" d="M953.153,-303.354C976.245,-306.5 1002.26,-310.044 1024.34,-313.052"/>
<polygon fill="midnightblue" stroke="midnightblue" points="953.496,-299.868 943.115,-301.986 952.551,-306.804 953.496,-299.868"/>
</g>
<!-- Node23&#45;&gt;Node9 -->
<g id="edge27" class="edge"><title>Node23&#45;&gt;Node9</title>
<path fill="none" stroke="midnightblue" d="M1014.17,-329.98C961.578,-336.141 884.483,-339.455 821,-319.022 785.438,-307.576 751.651,-278.85 733.135,-261.036"/>
<polygon fill="midnightblue" stroke="midnightblue" points="1014.85,-333.421 1024.35,-328.716 1013.99,-326.475 1014.85,-333.421"/>
</g>
<!-- Node25 -->
<g id="node25" class="node"><title>Node25</title>
<g id="a_node25"><a xlink:href="classAC__WPNav.html#af37186ad98df47275d15c04761f81ab4" target="_top" xlink:title="provide rangefinder altitude ">
<polygon fill="white" stroke="black" points="997,-253.522 997,-272.522 1156,-272.522 1156,-253.522 997,-253.522"/>
<text text-anchor="middle" x="1076.5" y="-260.522" font-family="Helvetica,sans-Serif" font-size="10.00">AC_WPNav::set_rangefinder_alt</text>
</a>
</g>
</g>
<!-- Node24&#45;&gt;Node25 -->
<g id="edge29" class="edge"><title>Node24&#45;&gt;Node25</title>
<path fill="none" stroke="midnightblue" d="M966.16,-252.893C976.259,-253.828 986.652,-254.791 996.827,-255.734"/>
<polygon fill="midnightblue" stroke="midnightblue" points="966.46,-249.405 956.179,-251.968 965.814,-256.375 966.46,-249.405"/>
</g>
<!-- Node27 -->
<g id="node27" class="node"><title>Node27</title>
<g id="a_node27"><a xlink:href="classAC__WPNav.html#a4795d6f44811c6ca8b592c5cc098e0c0" target="_top" xlink:title="set_fast_waypoint &#45; set to true to ignore the waypoint radius and consider the waypoint &#39;reached&#39; the...">
<polygon fill="white" stroke="black" points="1020.5,-29.0221 1020.5,-59.0221 1132.5,-59.0221 1132.5,-29.0221 1020.5,-29.0221"/>
<text text-anchor="start" x="1028.5" y="-47.0221" font-family="Helvetica,sans-Serif" font-size="10.00">AC_WPNav::set_fast</text>
<text text-anchor="middle" x="1076.5" y="-36.0221" font-family="Helvetica,sans-Serif" font-size="10.00">_waypoint</text>
</a>
</g>
</g>
<!-- Node26&#45;&gt;Node27 -->
<g id="edge32" class="edge"><title>Node26&#45;&gt;Node27</title>
<path fill="none" stroke="midnightblue" d="M956.571,-64.7618C977.342,-61.1395 1000.16,-57.1611 1020.2,-53.6658"/>
<polygon fill="midnightblue" stroke="midnightblue" points="955.809,-61.3417 946.559,-66.5077 957.012,-68.2376 955.809,-61.3417"/>
</g>
<!-- Node29 -->
<g id="node29" class="node"><title>Node29</title>
<g id="a_node29"><a xlink:href="classAC__WPNav.html#a3169a6fb417742e33c3a5197bb7a6c6d" target="_top" xlink:title="reached_spline_destination &#45; true when we have come within RADIUS cm of the waypoint ...">
<polygon fill="white" stroke="black" points="1005.5,-444.022 1005.5,-474.022 1147.5,-474.022 1147.5,-444.022 1005.5,-444.022"/>
<text text-anchor="start" x="1013.5" y="-462.022" font-family="Helvetica,sans-Serif" font-size="10.00">AC_WPNav::reached_spline</text>
<text text-anchor="middle" x="1076.5" y="-451.022" font-family="Helvetica,sans-Serif" font-size="10.00">_destination</text>
</a>
</g>
</g>
<!-- Node28&#45;&gt;Node29 -->
<g id="edge34" class="edge"><title>Node28&#45;&gt;Node29</title>
<path fill="none" stroke="midnightblue" d="M969.809,-455.566C981.602,-455.952 993.71,-456.348 1005.33,-456.728"/>
<polygon fill="midnightblue" stroke="midnightblue" points="969.656,-452.059 959.547,-455.231 969.427,-459.056 969.656,-452.059"/>
</g>
<!-- Node31 -->
<g id="node31" class="node"><title>Node31</title>
<g id="a_node31"><a xlink:href="classAC__Circle.html#a176fe6b798510eb180d35f62d7f6487c" target="_top" xlink:title="get_angle_total &#45; return total angle in radians that vehicle has circled ">
<polygon fill="white" stroke="black" points="836,-482.022 836,-512.022 946,-512.022 946,-482.022 836,-482.022"/>
<text text-anchor="start" x="844" y="-500.022" font-family="Helvetica,sans-Serif" font-size="10.00">AC_Circle::get_angle</text>
<text text-anchor="middle" x="891" y="-489.022" font-family="Helvetica,sans-Serif" font-size="10.00">_total</text>
</a>
</g>
</g>
<!-- Node30&#45;&gt;Node31 -->
<g id="edge36" class="edge"><title>Node30&#45;&gt;Node31</title>
<path fill="none" stroke="midnightblue" d="M776.402,-495.035C795.613,-495.371 816.917,-495.744 835.836,-496.075"/>
<polygon fill="midnightblue" stroke="midnightblue" points="776.332,-491.533 766.272,-494.858 776.21,-498.532 776.332,-491.533"/>
</g>
<!-- Node32&#45;&gt;Node21 -->
<g id="edge38" class="edge"><title>Node32&#45;&gt;Node21</title>
<path fill="none" stroke="midnightblue" d="M793.761,-412.436C905.717,-408.59 1113.7,-401.444 1214.2,-397.991"/>
<polygon fill="midnightblue" stroke="midnightblue" points="793.436,-408.945 783.562,-412.787 793.677,-415.941 793.436,-408.945"/>
</g>
<!-- Node33&#45;&gt;Node21 -->
<g id="edge40" class="edge"><title>Node33&#45;&gt;Node21</title>
<path fill="none" stroke="midnightblue" d="M795.445,-379.666C907.788,-383.526 1114.18,-390.617 1214.19,-394.053"/>
<polygon fill="midnightblue" stroke="midnightblue" points="795.319,-376.159 785.205,-379.314 795.079,-383.155 795.319,-376.159"/>
</g>
<!-- Node34&#45;&gt;Node21 -->
<g id="edge45" class="edge"><title>Node34&#45;&gt;Node21</title>
<path fill="none" stroke="midnightblue" d="M584.04,-502.781C692.336,-526.453 959.602,-570.497 1156,-483.022 1196.13,-465.148 1235.37,-431.056 1256.18,-411.271"/>
<polygon fill="midnightblue" stroke="midnightblue" points="584.585,-499.317 574.063,-500.559 583.063,-506.15 584.585,-499.317"/>
</g>
</g>
</svg>
        <g id="navigator" transform="translate(0 0)" fill="#404254">
                <rect fill="#f2f5e9" fill-opacity="0.5" stroke="#606060" stroke-width=".5" x="0" y="0" width="60" height="60"/>
                <use id="zoomplus" xlink:href="#zoomPlus" x="17" y="9" onmousedown="handleZoom(evt,'in')"/>
                <use id="zoomminus" xlink:href="#zoomMin" x="42" y="9" onmousedown="handleZoom(evt,'out')"/>
                <use id="reset" xlink:href="#resetDef" x="30" y="36" onmousedown="handleReset()"/>
                <g id="arrowUp" xlink:href="#dirArrow" transform="translate(30 24)" onmousedown="handlePan(0,-1)">
                  <use xlink:href="#rim" fill="#404040">
                        <set attributeName="fill" to="#808080" begin="arrowUp.mouseover" end="arrowUp.mouseout"/>
                  </use>
                  <path fill="none" stroke="white" stroke-width="1.5" d="M0,-3.0v7 M-2.5,-0.5L0,-3.0L2.5,-0.5"/>
                </g>
                <g id="arrowRight" xlink:href="#dirArrow" transform="rotate(90) translate(36 -43)" onmousedown="handlePan(1,0)">
                  <use xlink:href="#rim" fill="#404040">
                        <set attributeName="fill" to="#808080" begin="arrowRight.mouseover" end="arrowRight.mouseout"/>
                  </use>
                  <path fill="none" stroke="white" stroke-width="1.5" d="M0,-3.0v7 M-2.5,-0.5L0,-3.0L2.5,-0.5"/>
                </g>
                <g id="arrowDown" xlink:href="#dirArrow" transform="rotate(180) translate(-30 -48)" onmousedown="handlePan(0,1)">
                  <use xlink:href="#rim" fill="#404040">
                        <set attributeName="fill" to="#808080" begin="arrowDown.mouseover" end="arrowDown.mouseout"/>
                  </use>
                  <path fill="none" stroke="white" stroke-width="1.5" d="M0,-3.0v7 M-2.5,-0.5L0,-3.0L2.5,-0.5"/>
                </g>
                <g id="arrowLeft" xlink:href="#dirArrow" transform="rotate(270) translate(-36 17)" onmousedown="handlePan(-1,0)">
                  <use xlink:href="#rim" fill="#404040">
                        <set attributeName="fill" to="#808080" begin="arrowLeft.mouseover" end="arrowLeft.mouseout"/>
                  </use>
                  <path fill="none" stroke="white" stroke-width="1.5" d="M0,-3.0v7 M-2.5,-0.5L0,-3.0L2.5,-0.5"/>
                </g>
        </g>
        <svg viewBox="0 0 15 15" width="100%" height="30px" preserveAspectRatio="xMaxYMin meet">
         <g id="arrow_out" transform="scale(0.3 0.3)">
          <a xlink:href="classAC__AttitudeControl_ad0e622b7b55c98192065766de8fab3af_icgraph_org.svg" target="_base">
           <rect id="button" ry="5" rx="5" y="6" x="6" height="38" width="38"
                fill="#f2f5e9" fill-opacity="0.5" stroke="#606060" stroke-width="1.0"/>
           <path id="arrow"
             d="M 11.500037,31.436501 C 11.940474,20.09759 22.043105,11.32322 32.158766,21.979434 L 37.068811,17.246167 C 37.068811,17.246167 37.088388,32 37.088388,32 L 22.160133,31.978069 C 22.160133,31.978069 26.997745,27.140456 26.997745,27.140456 C 18.528582,18.264221 13.291696,25.230495 11.500037,31.436501 z"
             style="fill:#404040;"/>
          </a>
         </g>
        </svg>
</svg>
