<?xml version="1.0" encoding="UTF-8" standalone="no"?>
<!DOCTYPE svg PUBLIC "-//W3C//DTD SVG 1.1//EN"
 "http://www.w3.org/Graphics/SVG/1.1/DTD/svg11.dtd">
<!-- Generated by graphviz version 2.38.0 (20140413.2041)
 -->
<!-- Title: AP_InertialSensor::use_gyro Pages: 1 -->
<svg width="520pt" height="57pt"
 viewBox="0.00 0.00 520.00 57.00" xmlns="http://www.w3.org/2000/svg" xmlns:xlink="http://www.w3.org/1999/xlink">
<g id="graph0" class="graph" transform="scale(1 1) rotate(0) translate(4 53)">
<title>AP_InertialSensor::use_gyro</title>
<polygon fill="white" stroke="none" points="-4,4 -4,-53 516,-53 516,4 -4,4"/>
<!-- Node1 -->
<g id="node1" class="node"><title>Node1</title>
<polygon fill="#bfbfbf" stroke="black" points="0,-0.5 0,-30.5 101,-30.5 101,-0.5 0,-0.5"/>
<text text-anchor="start" x="8" y="-18.5" font-family="Helvetica,sans-Serif" font-size="10.00">AP_InertialSensor::</text>
<text text-anchor="middle" x="50.5" y="-7.5" font-family="Helvetica,sans-Serif" font-size="10.00">use_gyro</text>
</g>
<!-- Node2 -->
<g id="node2" class="node"><title>Node2</title>
<g id="a_node2"><a xlink:href="classAP__InertialSensor.html#aaaf8d4cc4a63cb4cd2aca8f3f59166e0" target="_top" xlink:title="AP_InertialSensor::\lget_gyro_health">
<polygon fill="white" stroke="black" points="137,-0.5 137,-30.5 238,-30.5 238,-0.5 137,-0.5"/>
<text text-anchor="start" x="145" y="-18.5" font-family="Helvetica,sans-Serif" font-size="10.00">AP_InertialSensor::</text>
<text text-anchor="middle" x="187.5" y="-7.5" font-family="Helvetica,sans-Serif" font-size="10.00">get_gyro_health</text>
</a>
</g>
</g>
<!-- Node1&#45;&gt;Node2 -->
<g id="edge1" class="edge"><title>Node1&#45;&gt;Node2</title>
<path fill="none" stroke="midnightblue" d="M101.002,-15.5C109.241,-15.5 117.866,-15.5 126.335,-15.5"/>
<polygon fill="midnightblue" stroke="midnightblue" points="126.552,-19.0001 136.552,-15.5 126.552,-12.0001 126.552,-19.0001"/>
</g>
<!-- Node2&#45;&gt;Node2 -->
<g id="edge2" class="edge"><title>Node2&#45;&gt;Node2</title>
<path fill="none" stroke="midnightblue" d="M163.799,-30.659C158.084,-40.0566 165.984,-49 187.5,-49 200.611,-49 208.666,-45.679 211.666,-40.9579"/>
<polygon fill="midnightblue" stroke="midnightblue" points="215.148,-40.491 211.201,-30.659 208.155,-40.8066 215.148,-40.491"/>
</g>
<!-- Node3 -->
<g id="node3" class="node"><title>Node3</title>
<g id="a_node3"><a xlink:href="classAP__InertialSensor.html#a00092a217e7cd8f617103e3f03acb56b" target="_top" xlink:title="AP_InertialSensor::\lget_gyro_health_all">
<polygon fill="white" stroke="black" points="274,-0.5 274,-30.5 375,-30.5 375,-0.5 274,-0.5"/>
<text text-anchor="start" x="282" y="-18.5" font-family="Helvetica,sans-Serif" font-size="10.00">AP_InertialSensor::</text>
<text text-anchor="middle" x="324.5" y="-7.5" font-family="Helvetica,sans-Serif" font-size="10.00">get_gyro_health_all</text>
</a>
</g>
</g>
<!-- Node2&#45;&gt;Node3 -->
<g id="edge3" class="edge"><title>Node2&#45;&gt;Node3</title>
<path fill="none" stroke="midnightblue" d="M238.002,-8.96794C246.241,-8.76397 254.866,-8.70317 263.335,-8.78555"/>
<polygon fill="midnightblue" stroke="midnightblue" points="263.494,-12.2886 273.552,-8.95705 263.612,-5.28961 263.494,-12.2886"/>
</g>
<!-- Node3&#45;&gt;Node2 -->
<g id="edge5" class="edge"><title>Node3&#45;&gt;Node2</title>
<path fill="none" stroke="midnightblue" d="M273.552,-22.0429C265.299,-22.2418 256.67,-22.2974 248.207,-22.2099"/>
<polygon fill="midnightblue" stroke="midnightblue" points="248.062,-18.7069 238.002,-22.0321 247.94,-25.7058 248.062,-18.7069"/>
</g>
<!-- Node4 -->
<g id="node4" class="node"><title>Node4</title>
<g id="a_node4"><a xlink:href="classAP__InertialSensor.html#aef7fac4fe6ae817ed325f9e35735e94d" target="_top" xlink:title="AP_InertialSensor::\lget_gyro_count">
<polygon fill="white" stroke="black" points="411,-0.5 411,-30.5 512,-30.5 512,-0.5 411,-0.5"/>
<text text-anchor="start" x="419" y="-18.5" font-family="Helvetica,sans-Serif" font-size="10.00">AP_InertialSensor::</text>
<text text-anchor="middle" x="461.5" y="-7.5" font-family="Helvetica,sans-Serif" font-size="10.00">get_gyro_count</text>
</a>
</g>
</g>
<!-- Node3&#45;&gt;Node4 -->
<g id="edge4" class="edge"><title>Node3&#45;&gt;Node4</title>
<path fill="none" stroke="midnightblue" d="M375.002,-15.5C383.241,-15.5 391.866,-15.5 400.335,-15.5"/>
<polygon fill="midnightblue" stroke="midnightblue" points="400.552,-19.0001 410.552,-15.5 400.552,-12.0001 400.552,-19.0001"/>
</g>
</g>
</svg>
