<?xml version="1.0" encoding="UTF-8" standalone="no"?>
<!DOCTYPE svg PUBLIC "-//W3C//DTD SVG 1.1//EN"
 "http://www.w3.org/Graphics/SVG/1.1/DTD/svg11.dtd">
<!-- Generated by graphviz version 2.38.0 (20140413.2041)
 -->
<!-- Title: Linux::VideoIn::_queue_buffer Pages: 1 -->
<!--zoomable 88 -->
<svg id="main" version="1.1" xmlns="http://www.w3.org/2000/svg" xmlns:xlink="http://www.w3.org/1999/xlink" xml:space="preserve" onload="init(evt)">
<style type="text/css"><![CDATA[
.edge:hover path { stroke: red; }
.edge:hover polygon { stroke: red; fill: red; }
]]></style>
<script type="text/javascript"><![CDATA[
var edges = document.getElementsByTagName('g');
if (edges && edges.length) {
  for (var i=0;i<edges.length;i++) {
    if (edges[i].id.substr(0,4)=='edge') {
      edges[i].setAttribute('class','edge');
    }
  }
}
]]></script>
        <defs>
                <circle id="rim" cx="0" cy="0" r="7"/>
                <circle id="rim2" cx="0" cy="0" r="3.5"/>
                <g id="zoomPlus">
                        <use xlink:href="#rim" fill="#404040">
                                <set attributeName="fill" to="#808080" begin="zoomplus.mouseover" end="zoomplus.mouseout"/>
                        </use>
                        <path d="M-4,0h8M0,-4v8" fill="none" stroke="white" stroke-width="1.5" pointer-events="none"/>
                </g>
                <g id="zoomMin">
                        <use xlink:href="#rim" fill="#404040">
                                <set attributeName="fill" to="#808080" begin="zoomminus.mouseover" end="zoomminus.mouseout"/>
                        </use>
                        <path d="M-4,0h8" fill="none" stroke="white" stroke-width="1.5" pointer-events="none"/>
                </g>
                <g id="dirArrow">
                        <path fill="none" stroke="white" stroke-width="1.5" d="M0,-3.0v7 M-2.5,-0.5L0,-3.0L2.5,-0.5"/>
                </g>
               <g id="resetDef">
                       <use xlink:href="#rim2" fill="#404040">
                               <set attributeName="fill" to="#808080" begin="reset.mouseover" end="reset.mouseout"/>
                       </use>
               </g>
        </defs>

<script type="text/javascript">
var viewWidth = 705;
var viewHeight = 88;
var sectionId = 'dynsection-4';
</script>
<script xlink:href="svgpan.js"/>
<svg id="graph" class="graph">
<g id="viewport">
<title>Linux::VideoIn::_queue_buffer</title>
<polygon fill="white" stroke="none" points="-4,4 -4,-84 701,-84 701,4 -4,4"/>
<!-- Node1 -->
<g id="node1" class="node"><title>Node1</title>
<polygon fill="#bfbfbf" stroke="black" points="0,-24.5 0,-54.5 116,-54.5 116,-24.5 0,-24.5"/>
<text text-anchor="start" x="8" y="-42.5" font-family="Helvetica,sans-Serif" font-size="10.00">Linux::VideoIn::_queue</text>
<text text-anchor="middle" x="58" y="-31.5" font-family="Helvetica,sans-Serif" font-size="10.00">_buffer</text>
</g>
<!-- Node2 -->
<g id="node2" class="node"><title>Node2</title>
<g id="a_node2"><a xlink:href="classLinux_1_1VideoIn.html#a0dc538385c6a0b5387f92818873d2342" target="_top" xlink:title="Linux::VideoIn::prepare\l_capture">
<polygon fill="white" stroke="black" points="287.5,-49.5 287.5,-79.5 404.5,-79.5 404.5,-49.5 287.5,-49.5"/>
<text text-anchor="start" x="295.5" y="-67.5" font-family="Helvetica,sans-Serif" font-size="10.00">Linux::VideoIn::prepare</text>
<text text-anchor="middle" x="346" y="-56.5" font-family="Helvetica,sans-Serif" font-size="10.00">_capture</text>
</a>
</g>
</g>
<!-- Node1&#45;&gt;Node2 -->
<g id="edge1" class="edge"><title>Node1&#45;&gt;Node2</title>
<path fill="none" stroke="midnightblue" d="M126.372,-45.3891C175.331,-49.6688 240.897,-55.4001 287.421,-59.4668"/>
<polygon fill="midnightblue" stroke="midnightblue" points="126.456,-41.8832 116.189,-44.499 125.846,-48.8566 126.456,-41.8832"/>
</g>
<!-- Node4 -->
<g id="node4" class="node"><title>Node4</title>
<g id="a_node4"><a xlink:href="classLinux_1_1VideoIn.html#af65f7040e36b19df9b455129312381c6" target="_top" xlink:title="Linux::VideoIn::put\l_frame">
<polygon fill="white" stroke="black" points="152,-2.5 152,-32.5 250,-32.5 250,-2.5 152,-2.5"/>
<text text-anchor="start" x="160" y="-20.5" font-family="Helvetica,sans-Serif" font-size="10.00">Linux::VideoIn::put</text>
<text text-anchor="middle" x="201" y="-9.5" font-family="Helvetica,sans-Serif" font-size="10.00">_frame</text>
</a>
</g>
</g>
<!-- Node1&#45;&gt;Node4 -->
<g id="edge3" class="edge"><title>Node1&#45;&gt;Node4</title>
<path fill="none" stroke="midnightblue" d="M126.346,-28.9921C134.912,-27.6556 143.54,-26.3094 151.722,-25.0327"/>
<polygon fill="midnightblue" stroke="midnightblue" points="125.691,-25.5519 116.35,-30.5518 126.77,-32.4682 125.691,-25.5519"/>
</g>
<!-- Node3 -->
<g id="node3" class="node"><title>Node3</title>
<g id="a_node3"><a xlink:href="classLinux_1_1OpticalFlow__Onboard.html#ab2fc6a6c90f95deb9f727348c2efdead" target="_top" xlink:title="Linux::OpticalFlow\l_Onboard::init">
<polygon fill="white" stroke="black" points="599,-24.5 599,-54.5 697,-54.5 697,-24.5 599,-24.5"/>
<text text-anchor="start" x="607" y="-42.5" font-family="Helvetica,sans-Serif" font-size="10.00">Linux::OpticalFlow</text>
<text text-anchor="middle" x="648" y="-31.5" font-family="Helvetica,sans-Serif" font-size="10.00">_Onboard::init</text>
</a>
</g>
</g>
<!-- Node2&#45;&gt;Node3 -->
<g id="edge2" class="edge"><title>Node2&#45;&gt;Node3</title>
<path fill="none" stroke="midnightblue" d="M415.03,-58.8309C471.017,-54.1652 548.994,-47.6672 598.737,-43.5219"/>
<polygon fill="midnightblue" stroke="midnightblue" points="414.518,-55.3613 404.843,-59.6797 415.099,-62.3371 414.518,-55.3613"/>
</g>
<!-- Node5 -->
<g id="node5" class="node"><title>Node5</title>
<g id="a_node5"><a xlink:href="classLinux_1_1OpticalFlow__Onboard.html#aff46a025f23d664c1cdf67d3c7f3d49a" target="_top" xlink:title="Linux::OpticalFlow\l_Onboard::_run_optflow">
<polygon fill="white" stroke="black" points="286,-0.5 286,-30.5 406,-30.5 406,-0.5 286,-0.5"/>
<text text-anchor="start" x="294" y="-18.5" font-family="Helvetica,sans-Serif" font-size="10.00">Linux::OpticalFlow</text>
<text text-anchor="middle" x="346" y="-7.5" font-family="Helvetica,sans-Serif" font-size="10.00">_Onboard::_run_optflow</text>
</a>
</g>
</g>
<!-- Node4&#45;&gt;Node5 -->
<g id="edge4" class="edge"><title>Node4&#45;&gt;Node5</title>
<path fill="none" stroke="midnightblue" d="M260.202,-16.686C268.687,-16.5673 277.43,-16.445 285.932,-16.3261"/>
<polygon fill="midnightblue" stroke="midnightblue" points="259.965,-13.1889 250.015,-16.8285 260.063,-20.1882 259.965,-13.1889"/>
</g>
<!-- Node6 -->
<g id="node6" class="node"><title>Node6</title>
<g id="a_node6"><a xlink:href="classLinux_1_1OpticalFlow__Onboard.html#a2cf8901eba7c113402917f527aec8b0b" target="_top" xlink:title="Linux::OpticalFlow\l_Onboard::_read_thread">
<polygon fill="white" stroke="black" points="442,-2.5 442,-32.5 563,-32.5 563,-2.5 442,-2.5"/>
<text text-anchor="start" x="450" y="-20.5" font-family="Helvetica,sans-Serif" font-size="10.00">Linux::OpticalFlow</text>
<text text-anchor="middle" x="502.5" y="-9.5" font-family="Helvetica,sans-Serif" font-size="10.00">_Onboard::_read_thread</text>
</a>
</g>
</g>
<!-- Node5&#45;&gt;Node6 -->
<g id="edge5" class="edge"><title>Node5&#45;&gt;Node6</title>
<path fill="none" stroke="midnightblue" d="M416.519,-16.3999C424.977,-16.5094 433.56,-16.6205 441.856,-16.7279"/>
<polygon fill="midnightblue" stroke="midnightblue" points="416.336,-12.8974 406.292,-16.2675 416.246,-19.8968 416.336,-12.8974"/>
</g>
<!-- Node6&#45;&gt;Node3 -->
<g id="edge6" class="edge"><title>Node6&#45;&gt;Node3</title>
<path fill="none" stroke="midnightblue" d="M573.194,-28.1848C581.825,-29.5081 590.496,-30.8374 598.707,-32.0961"/>
<polygon fill="midnightblue" stroke="midnightblue" points="573.525,-24.6948 563.11,-26.6389 572.464,-31.6139 573.525,-24.6948"/>
</g>
</g>
</svg>
        <g id="navigator" transform="translate(0 0)" fill="#404254">
                <rect fill="#f2f5e9" fill-opacity="0.5" stroke="#606060" stroke-width=".5" x="0" y="0" width="60" height="60"/>
                <use id="zoomplus" xlink:href="#zoomPlus" x="17" y="9" onmousedown="handleZoom(evt,'in')"/>
                <use id="zoomminus" xlink:href="#zoomMin" x="42" y="9" onmousedown="handleZoom(evt,'out')"/>
                <use id="reset" xlink:href="#resetDef" x="30" y="36" onmousedown="handleReset()"/>
                <g id="arrowUp" xlink:href="#dirArrow" transform="translate(30 24)" onmousedown="handlePan(0,-1)">
                  <use xlink:href="#rim" fill="#404040">
                        <set attributeName="fill" to="#808080" begin="arrowUp.mouseover" end="arrowUp.mouseout"/>
                  </use>
                  <path fill="none" stroke="white" stroke-width="1.5" d="M0,-3.0v7 M-2.5,-0.5L0,-3.0L2.5,-0.5"/>
                </g>
                <g id="arrowRight" xlink:href="#dirArrow" transform="rotate(90) translate(36 -43)" onmousedown="handlePan(1,0)">
                  <use xlink:href="#rim" fill="#404040">
                        <set attributeName="fill" to="#808080" begin="arrowRight.mouseover" end="arrowRight.mouseout"/>
                  </use>
                  <path fill="none" stroke="white" stroke-width="1.5" d="M0,-3.0v7 M-2.5,-0.5L0,-3.0L2.5,-0.5"/>
                </g>
                <g id="arrowDown" xlink:href="#dirArrow" transform="rotate(180) translate(-30 -48)" onmousedown="handlePan(0,1)">
                  <use xlink:href="#rim" fill="#404040">
                        <set attributeName="fill" to="#808080" begin="arrowDown.mouseover" end="arrowDown.mouseout"/>
                  </use>
                  <path fill="none" stroke="white" stroke-width="1.5" d="M0,-3.0v7 M-2.5,-0.5L0,-3.0L2.5,-0.5"/>
                </g>
                <g id="arrowLeft" xlink:href="#dirArrow" transform="rotate(270) translate(-36 17)" onmousedown="handlePan(-1,0)">
                  <use xlink:href="#rim" fill="#404040">
                        <set attributeName="fill" to="#808080" begin="arrowLeft.mouseover" end="arrowLeft.mouseout"/>
                  </use>
                  <path fill="none" stroke="white" stroke-width="1.5" d="M0,-3.0v7 M-2.5,-0.5L0,-3.0L2.5,-0.5"/>
                </g>
        </g>
        <svg viewBox="0 0 15 15" width="100%" height="30px" preserveAspectRatio="xMaxYMin meet">
         <g id="arrow_out" transform="scale(0.3 0.3)">
          <a xlink:href="classLinux_1_1VideoIn_a8e5da3811086d1a8d8f7d037bf4895d9_icgraph_org.svg" target="_base">
           <rect id="button" ry="5" rx="5" y="6" x="6" height="38" width="38"
                fill="#f2f5e9" fill-opacity="0.5" stroke="#606060" stroke-width="1.0"/>
           <path id="arrow"
             d="M 11.500037,31.436501 C 11.940474,20.09759 22.043105,11.32322 32.158766,21.979434 L 37.068811,17.246167 C 37.068811,17.246167 37.088388,32 37.088388,32 L 22.160133,31.978069 C 22.160133,31.978069 26.997745,27.140456 26.997745,27.140456 C 18.528582,18.264221 13.291696,25.230495 11.500037,31.436501 z"
             style="fill:#404040;"/>
          </a>
         </g>
        </svg>
</svg>
