<?xml version="1.0" encoding="UTF-8" standalone="no"?>
<!DOCTYPE svg PUBLIC "-//W3C//DTD SVG 1.1//EN"
 "http://www.w3.org/Graphics/SVG/1.1/DTD/svg11.dtd">
<!-- Generated by graphviz version 2.38.0 (20140413.2041)
 -->
<!-- Title: AP_BattMonitor_SMBus_Maxell Pages: 1 -->
<svg width="137pt" height="151pt"
 viewBox="0.00 0.00 137.00 151.00" xmlns="http://www.w3.org/2000/svg" xmlns:xlink="http://www.w3.org/1999/xlink">
<g id="graph0" class="graph" transform="scale(1 1) rotate(0) translate(4 147)">
<title>AP_BattMonitor_SMBus_Maxell</title>
<polygon fill="white" stroke="none" points="-4,4 -4,-147 133,-147 133,4 -4,4"/>
<!-- Node1 -->
<g id="node1" class="node"><title>Node1</title>
<polygon fill="#bfbfbf" stroke="black" points="3,-0.5 3,-30.5 126,-30.5 126,-0.5 3,-0.5"/>
<text text-anchor="start" x="11" y="-18.5" font-family="Helvetica,sans-Serif" font-size="10.00">AP_BattMonitor_SMBus</text>
<text text-anchor="middle" x="64.5" y="-7.5" font-family="Helvetica,sans-Serif" font-size="10.00">_Maxell</text>
</g>
<!-- Node2 -->
<g id="node2" class="node"><title>Node2</title>
<g id="a_node2"><a xlink:href="classAP__BattMonitor__SMBus.html" target="_top" xlink:title="AP_BattMonitor_SMBus">
<polygon fill="white" stroke="black" points="3,-67.5 3,-86.5 126,-86.5 126,-67.5 3,-67.5"/>
<text text-anchor="middle" x="64.5" y="-74.5" font-family="Helvetica,sans-Serif" font-size="10.00">AP_BattMonitor_SMBus</text>
</a>
</g>
</g>
<!-- Node2&#45;&gt;Node1 -->
<g id="edge1" class="edge"><title>Node2&#45;&gt;Node1</title>
<path fill="none" stroke="midnightblue" d="M64.5,-57.2349C64.5,-48.5864 64.5,-38.4969 64.5,-30.523"/>
<polygon fill="midnightblue" stroke="midnightblue" points="61.0001,-57.4751 64.5,-67.4751 68.0001,-57.4751 61.0001,-57.4751"/>
</g>
<!-- Node3 -->
<g id="node3" class="node"><title>Node3</title>
<g id="a_node3"><a xlink:href="classAP__BattMonitor__Backend.html" target="_top" xlink:title="AP_BattMonitor_Backend">
<polygon fill="white" stroke="black" points="0,-123.5 0,-142.5 129,-142.5 129,-123.5 0,-123.5"/>
<text text-anchor="middle" x="64.5" y="-130.5" font-family="Helvetica,sans-Serif" font-size="10.00">AP_BattMonitor_Backend</text>
</a>
</g>
</g>
<!-- Node3&#45;&gt;Node2 -->
<g id="edge2" class="edge"><title>Node3&#45;&gt;Node2</title>
<path fill="none" stroke="midnightblue" d="M64.5,-112.805C64.5,-103.91 64.5,-93.7798 64.5,-86.7511"/>
<polygon fill="midnightblue" stroke="midnightblue" points="61.0001,-113.083 64.5,-123.083 68.0001,-113.083 61.0001,-113.083"/>
</g>
</g>
</svg>
