<?xml version="1.0" encoding="UTF-8" standalone="no"?>
<!DOCTYPE svg PUBLIC "-//W3C//DTD SVG 1.1//EN"
 "http://www.w3.org/Graphics/SVG/1.1/DTD/svg11.dtd">
<!-- Generated by graphviz version 2.38.0 (20140413.2041)
 -->
<!-- Title: Location_Class::get_alt_cm Pages: 1 -->
<svg width="667pt" height="215pt"
 viewBox="0.00 0.00 667.00 215.00" xmlns="http://www.w3.org/2000/svg" xmlns:xlink="http://www.w3.org/1999/xlink">
<g id="graph0" class="graph" transform="scale(1 1) rotate(0) translate(4 211)">
<title>Location_Class::get_alt_cm</title>
<polygon fill="white" stroke="none" points="-4,4 -4,-211 663,-211 663,4 -4,4"/>
<!-- Node1 -->
<g id="node1" class="node"><title>Node1</title>
<polygon fill="#bfbfbf" stroke="black" points="0,-88.5 0,-118.5 104,-118.5 104,-88.5 0,-88.5"/>
<text text-anchor="start" x="8" y="-106.5" font-family="Helvetica,sans-Serif" font-size="10.00">Location_Class::get</text>
<text text-anchor="middle" x="52" y="-95.5" font-family="Helvetica,sans-Serif" font-size="10.00">_alt_cm</text>
</g>
<!-- Node2 -->
<g id="node2" class="node"><title>Node2</title>
<g id="a_node2"><a xlink:href="classLocation__Class.html#a1b58a6a4d185506e76271dee1f047836" target="_top" xlink:title="Location_Class::change\l_alt_frame">
<polygon fill="white" stroke="black" points="153.5,-88.5 153.5,-118.5 275.5,-118.5 275.5,-88.5 153.5,-88.5"/>
<text text-anchor="start" x="161.5" y="-106.5" font-family="Helvetica,sans-Serif" font-size="10.00">Location_Class::change</text>
<text text-anchor="middle" x="214.5" y="-95.5" font-family="Helvetica,sans-Serif" font-size="10.00">_alt_frame</text>
</a>
</g>
</g>
<!-- Node1&#45;&gt;Node2 -->
<g id="edge1" class="edge"><title>Node1&#45;&gt;Node2</title>
<path fill="none" stroke="midnightblue" d="M114.293,-103.5C127.062,-103.5 140.51,-103.5 153.242,-103.5"/>
<polygon fill="midnightblue" stroke="midnightblue" points="114.225,-100 104.224,-103.5 114.224,-107 114.225,-100"/>
</g>
<!-- Node5 -->
<g id="node5" class="node"><title>Node5</title>
<g id="a_node5"><a xlink:href="classLocation__Class.html#aa352d1b331237dc5b2977526d97847eb" target="_top" xlink:title="Location_Class::set\l_terrain">
<polygon fill="white" stroke="black" points="353.5,-134.5 353.5,-164.5 457.5,-164.5 457.5,-134.5 353.5,-134.5"/>
<text text-anchor="start" x="361.5" y="-152.5" font-family="Helvetica,sans-Serif" font-size="10.00">Location_Class::set</text>
<text text-anchor="middle" x="405.5" y="-141.5" font-family="Helvetica,sans-Serif" font-size="10.00">_terrain</text>
</a>
</g>
</g>
<!-- Node1&#45;&gt;Node5 -->
<g id="edge13" class="edge"><title>Node1&#45;&gt;Node5</title>
<path fill="none" stroke="midnightblue" d="M111.222,-121.164C120.77,-123.597 130.612,-125.83 140,-127.5 213.493,-140.576 299.891,-145.913 353.431,-148.069"/>
<polygon fill="midnightblue" stroke="midnightblue" points="111.971,-117.742 101.409,-118.571 110.183,-124.51 111.971,-117.742"/>
</g>
<!-- Node6 -->
<g id="node6" class="node"><title>Node6</title>
<g id="a_node6"><a xlink:href="classAC__Fence.html#a1ddf2b4968acee81332875003c5ff64d" target="_top" xlink:title="AC_Fence::check_destination\l_within_fence">
<polygon fill="white" stroke="black" points="140.5,-0.5 140.5,-30.5 288.5,-30.5 288.5,-0.5 140.5,-0.5"/>
<text text-anchor="start" x="148.5" y="-18.5" font-family="Helvetica,sans-Serif" font-size="10.00">AC_Fence::check_destination</text>
<text text-anchor="middle" x="214.5" y="-7.5" font-family="Helvetica,sans-Serif" font-size="10.00">_within_fence</text>
</a>
</g>
</g>
<!-- Node1&#45;&gt;Node6 -->
<g id="edge5" class="edge"><title>Node1&#45;&gt;Node6</title>
<path fill="none" stroke="midnightblue" d="M78.754,-81.6888C95.4008,-68.4144 117.995,-51.8805 140,-40.5 147.063,-36.8469 154.775,-33.5497 162.461,-30.6385"/>
<polygon fill="midnightblue" stroke="midnightblue" points="76.1825,-79.2682 70.6255,-88.2887 80.5949,-84.7024 76.1825,-79.2682"/>
</g>
<!-- Node8 -->
<g id="node8" class="node"><title>Node8</title>
<g id="a_node8"><a xlink:href="classLocation__Class.html#a7b3175ce61dd893910c350a9dd259f49" target="_top" xlink:title="Location_Class::get\l_vector_from_origin_NEU">
<polygon fill="white" stroke="black" points="150,-176.5 150,-206.5 279,-206.5 279,-176.5 150,-176.5"/>
<text text-anchor="start" x="158" y="-194.5" font-family="Helvetica,sans-Serif" font-size="10.00">Location_Class::get</text>
<text text-anchor="middle" x="214.5" y="-183.5" font-family="Helvetica,sans-Serif" font-size="10.00">_vector_from_origin_NEU</text>
</a>
</g>
</g>
<!-- Node1&#45;&gt;Node8 -->
<g id="edge7" class="edge"><title>Node1&#45;&gt;Node8</title>
<path fill="none" stroke="midnightblue" d="M81.209,-124.406C97.8142,-136.171 119.516,-150.633 140,-161.5 150.227,-166.926 161.656,-172.021 172.397,-176.418"/>
<polygon fill="midnightblue" stroke="midnightblue" points="83.189,-121.519 73.0236,-118.533 79.1083,-127.207 83.189,-121.519"/>
</g>
<!-- Node9 -->
<g id="node9" class="node"><title>Node9</title>
<g id="a_node9"><a xlink:href="classAC__WPNav.html#a91b8fa0d48a6fb79a4d7ef38dfc11123" target="_top" xlink:title="AC_WPNav::get_vector_NEU">
<polygon fill="white" stroke="black" points="140,-50 140,-69 289,-69 289,-50 140,-50"/>
<text text-anchor="middle" x="214.5" y="-57" font-family="Helvetica,sans-Serif" font-size="10.00">AC_WPNav::get_vector_NEU</text>
</a>
</g>
</g>
<!-- Node1&#45;&gt;Node9 -->
<g id="edge9" class="edge"><title>Node1&#45;&gt;Node9</title>
<path fill="none" stroke="midnightblue" d="M114.154,-85.7034C122.82,-83.2466 131.628,-80.7845 140,-78.5 151.571,-75.3426 164.203,-72.0292 175.679,-69.0695"/>
<polygon fill="midnightblue" stroke="midnightblue" points="113.118,-82.359 104.46,-88.4652 115.036,-89.0912 113.118,-82.359"/>
</g>
<!-- Node3 -->
<g id="node3" class="node"><title>Node3</title>
<g id="a_node3"><a xlink:href="classAC__WPNav.html#a9f9b2b3b12fabb2f5b8026018e562d69" target="_top" xlink:title="AC_WPNav::set_spline\l_destination">
<polygon fill="white" stroke="black" points="345,-85.5 345,-115.5 466,-115.5 466,-85.5 345,-85.5"/>
<text text-anchor="start" x="353" y="-103.5" font-family="Helvetica,sans-Serif" font-size="10.00">AC_WPNav::set_spline</text>
<text text-anchor="middle" x="405.5" y="-92.5" font-family="Helvetica,sans-Serif" font-size="10.00">_destination</text>
</a>
</g>
</g>
<!-- Node2&#45;&gt;Node3 -->
<g id="edge2" class="edge"><title>Node2&#45;&gt;Node3</title>
<path fill="none" stroke="midnightblue" d="M285.602,-102.387C305.101,-102.078 326.087,-101.745 344.92,-101.446"/>
<polygon fill="midnightblue" stroke="midnightblue" points="285.504,-98.8883 275.56,-102.547 285.615,-105.887 285.504,-98.8883"/>
</g>
<!-- Node2&#45;&gt;Node5 -->
<g id="edge4" class="edge"><title>Node2&#45;&gt;Node5</title>
<path fill="none" stroke="midnightblue" d="M285.427,-120.519C307.989,-126.011 332.56,-131.991 353.49,-137.085"/>
<polygon fill="midnightblue" stroke="midnightblue" points="286.105,-117.082 275.56,-118.118 284.449,-123.884 286.105,-117.082"/>
</g>
<!-- Node4 -->
<g id="node4" class="node"><title>Node4</title>
<g id="a_node4"><a xlink:href="classAC__WPNav.html#a53a3a893d06b17ff18802d838fbd6584" target="_top" xlink:title="AC_WPNav::get_yaw">
<polygon fill="white" stroke="black" points="534,-91 534,-110 647,-110 647,-91 534,-91"/>
<text text-anchor="middle" x="590.5" y="-98" font-family="Helvetica,sans-Serif" font-size="10.00">AC_WPNav::get_yaw</text>
</a>
</g>
</g>
<!-- Node3&#45;&gt;Node4 -->
<g id="edge3" class="edge"><title>Node3&#45;&gt;Node4</title>
<path fill="none" stroke="midnightblue" d="M476.302,-100.5C495.376,-100.5 515.784,-100.5 533.946,-100.5"/>
<polygon fill="midnightblue" stroke="midnightblue" points="476.168,-97.0001 466.168,-100.5 476.168,-104 476.168,-97.0001"/>
</g>
<!-- Node7 -->
<g id="node7" class="node"><title>Node7</title>
<g id="a_node7"><a xlink:href="classAC__Fence.html#acdc600f19a3e4eb6de655c26f52e0968" target="_top" xlink:title="enabled &#45; returns true if fence is enabled ">
<polygon fill="white" stroke="black" points="354,-6 354,-25 457,-25 457,-6 354,-6"/>
<text text-anchor="middle" x="405.5" y="-13" font-family="Helvetica,sans-Serif" font-size="10.00">AC_Fence::enabled</text>
</a>
</g>
</g>
<!-- Node6&#45;&gt;Node7 -->
<g id="edge6" class="edge"><title>Node6&#45;&gt;Node7</title>
<path fill="none" stroke="midnightblue" d="M298.636,-15.5C317.444,-15.5 336.861,-15.5 353.85,-15.5"/>
<polygon fill="midnightblue" stroke="midnightblue" points="298.572,-12.0001 288.572,-15.5 298.572,-19.0001 298.572,-12.0001"/>
</g>
<!-- Node8&#45;&gt;Node5 -->
<g id="edge8" class="edge"><title>Node8&#45;&gt;Node5</title>
<path fill="none" stroke="midnightblue" d="M289.263,-175.108C310.669,-170.351 333.569,-165.263 353.269,-160.885"/>
<polygon fill="midnightblue" stroke="midnightblue" points="288.226,-171.753 279.223,-177.339 289.744,-178.587 288.226,-171.753"/>
</g>
<!-- Node9&#45;&gt;Node3 -->
<g id="edge10" class="edge"><title>Node9&#45;&gt;Node3</title>
<path fill="none" stroke="midnightblue" d="M269.166,-71.1419C292.758,-76.2596 320.553,-82.2892 344.797,-87.5485"/>
<polygon fill="midnightblue" stroke="midnightblue" points="269.85,-67.7089 259.335,-69.0093 268.366,-74.5498 269.85,-67.7089"/>
</g>
<!-- Node10 -->
<g id="node10" class="node"><title>Node10</title>
<g id="a_node10"><a xlink:href="classAC__WPNav.html#a7e131ba7b7deffa86cbf343c495bdf4e" target="_top" xlink:title="AC_WPNav::set_wp_destination">
<polygon fill="white" stroke="black" points="325,-47 325,-66 486,-66 486,-47 325,-47"/>
<text text-anchor="middle" x="405.5" y="-54" font-family="Helvetica,sans-Serif" font-size="10.00">AC_WPNav::set_wp_destination</text>
</a>
</g>
</g>
<!-- Node9&#45;&gt;Node10 -->
<g id="edge11" class="edge"><title>Node9&#45;&gt;Node10</title>
<path fill="none" stroke="midnightblue" d="M299.365,-58.1688C307.831,-58.0344 316.412,-57.8982 324.833,-57.7646"/>
<polygon fill="midnightblue" stroke="midnightblue" points="299.057,-54.6732 289.114,-58.3315 299.168,-61.6723 299.057,-54.6732"/>
</g>
<!-- Node11 -->
<g id="node11" class="node"><title>Node11</title>
<g id="a_node11"><a xlink:href="classAC__WPNav.html#acc07b8521654cf468b6a86fad9104a4c" target="_top" xlink:title="get origin using position vector (distance from home in cm) ">
<polygon fill="white" stroke="black" points="522,-47 522,-66 659,-66 659,-47 522,-47"/>
<text text-anchor="middle" x="590.5" y="-54" font-family="Helvetica,sans-Serif" font-size="10.00">AC_WPNav::get_wp_origin</text>
</a>
</g>
</g>
<!-- Node10&#45;&gt;Node11 -->
<g id="edge12" class="edge"><title>Node10&#45;&gt;Node11</title>
<path fill="none" stroke="midnightblue" d="M496.276,-56.5C504.853,-56.5 513.45,-56.5 521.766,-56.5"/>
<polygon fill="midnightblue" stroke="midnightblue" points="496.234,-53.0001 486.234,-56.5 496.234,-60.0001 496.234,-53.0001"/>
</g>
</g>
</svg>
