<?xml version="1.0" encoding="UTF-8" standalone="no"?>
<!DOCTYPE svg PUBLIC "-//W3C//DTD SVG 1.1//EN"
 "http://www.w3.org/Graphics/SVG/1.1/DTD/svg11.dtd">
<!-- Generated by graphviz version 2.38.0 (20140413.2041)
 -->
<!-- Title: CompassCalibrator::reset_state Pages: 1 -->
<svg width="442pt" height="78pt"
 viewBox="0.00 0.00 442.00 77.50" xmlns="http://www.w3.org/2000/svg" xmlns:xlink="http://www.w3.org/1999/xlink">
<g id="graph0" class="graph" transform="scale(1 1) rotate(0) translate(4 73.5)">
<title>CompassCalibrator::reset_state</title>
<polygon fill="white" stroke="none" points="-4,4 -4,-73.5 438,-73.5 438,4 -4,4"/>
<!-- Node1 -->
<g id="node1" class="node"><title>Node1</title>
<polygon fill="#bfbfbf" stroke="black" points="0,-22.5 0,-52.5 107,-52.5 107,-22.5 0,-22.5"/>
<text text-anchor="start" x="8" y="-40.5" font-family="Helvetica,sans-Serif" font-size="10.00">CompassCalibrator::</text>
<text text-anchor="middle" x="53.5" y="-29.5" font-family="Helvetica,sans-Serif" font-size="10.00">reset_state</text>
</g>
<!-- Node2 -->
<g id="node2" class="node"><title>Node2</title>
<g id="a_node2"><a xlink:href="classVector3.html#adf1769d5ee5df2f8585df2f540fa5efe" target="_top" xlink:title="Vector3::zero">
<polygon fill="white" stroke="black" points="159,-50 159,-69 234,-69 234,-50 159,-50"/>
<text text-anchor="middle" x="196.5" y="-57" font-family="Helvetica,sans-Serif" font-size="10.00">Vector3::zero</text>
</a>
</g>
</g>
<!-- Node1&#45;&gt;Node2 -->
<g id="edge1" class="edge"><title>Node1&#45;&gt;Node2</title>
<path fill="none" stroke="midnightblue" d="M107.003,-45.692C120.73,-47.8337 135.432,-50.1276 148.832,-52.2184"/>
<polygon fill="midnightblue" stroke="midnightblue" points="148.367,-55.6883 158.788,-53.7718 149.447,-48.7719 148.367,-55.6883"/>
</g>
<!-- Node3 -->
<g id="node3" class="node"><title>Node3</title>
<g id="a_node3"><a xlink:href="classCompassCalibrator.html#a4c0461903e1830066d9f005bac85a389" target="_top" xlink:title="CompassCalibrator::\linitialize_fit">
<polygon fill="white" stroke="black" points="143,-0.5 143,-30.5 250,-30.5 250,-0.5 143,-0.5"/>
<text text-anchor="start" x="151" y="-18.5" font-family="Helvetica,sans-Serif" font-size="10.00">CompassCalibrator::</text>
<text text-anchor="middle" x="196.5" y="-7.5" font-family="Helvetica,sans-Serif" font-size="10.00">initialize_fit</text>
</a>
</g>
</g>
<!-- Node1&#45;&gt;Node3 -->
<g id="edge2" class="edge"><title>Node1&#45;&gt;Node3</title>
<path fill="none" stroke="midnightblue" d="M107.003,-29.308C115.445,-27.9909 124.255,-26.6162 132.905,-25.2667"/>
<polygon fill="midnightblue" stroke="midnightblue" points="133.612,-28.6987 142.953,-23.6988 132.533,-21.7824 133.612,-28.6987"/>
</g>
<!-- Node4 -->
<g id="node4" class="node"><title>Node4</title>
<g id="a_node4"><a xlink:href="classCompassCalibrator.html#a7d57ef4510c26724890f4f820bf2d160" target="_top" xlink:title="CompassCalibrator::\lcalc_mean_squared_residuals">
<polygon fill="white" stroke="black" points="286,-0.5 286,-30.5 434,-30.5 434,-0.5 286,-0.5"/>
<text text-anchor="start" x="294" y="-18.5" font-family="Helvetica,sans-Serif" font-size="10.00">CompassCalibrator::</text>
<text text-anchor="middle" x="360" y="-7.5" font-family="Helvetica,sans-Serif" font-size="10.00">calc_mean_squared_residuals</text>
</a>
</g>
</g>
<!-- Node3&#45;&gt;Node4 -->
<g id="edge3" class="edge"><title>Node3&#45;&gt;Node4</title>
<path fill="none" stroke="midnightblue" d="M250.381,-15.5C258.514,-15.5 267.076,-15.5 275.678,-15.5"/>
<polygon fill="midnightblue" stroke="midnightblue" points="275.77,-19.0001 285.77,-15.5 275.77,-12.0001 275.77,-19.0001"/>
</g>
</g>
</svg>
