<?xml version="1.0" encoding="UTF-8" standalone="no"?>
<!DOCTYPE svg PUBLIC "-//W3C//DTD SVG 1.1//EN"
 "http://www.w3.org/Graphics/SVG/1.1/DTD/svg11.dtd">
<!-- Generated by graphviz version 2.38.0 (20140413.2041)
 -->
<!-- Title: AP_InertialNav::get_filter_status Pages: 1 -->
<svg width="470pt" height="116pt"
 viewBox="0.00 0.00 470.00 115.50" xmlns="http://www.w3.org/2000/svg" xmlns:xlink="http://www.w3.org/1999/xlink">
<g id="graph0" class="graph" transform="scale(1 1) rotate(0) translate(4 111.5)">
<title>AP_InertialNav::get_filter_status</title>
<polygon fill="white" stroke="none" points="-4,4 -4,-111.5 466,-111.5 466,4 -4,4"/>
<!-- Node1 -->
<g id="node1" class="node"><title>Node1</title>
<polygon fill="#bfbfbf" stroke="black" points="0,-33 0,-63 102,-63 102,-33 0,-33"/>
<text text-anchor="start" x="8" y="-51" font-family="Helvetica,sans-Serif" font-size="10.00">AP_InertialNav::get</text>
<text text-anchor="middle" x="51" y="-40" font-family="Helvetica,sans-Serif" font-size="10.00">_filter_status</text>
</g>
<!-- Node2 -->
<g id="node2" class="node"><title>Node2</title>
<g id="a_node2"><a xlink:href="classAP__InertialNav.html#a170b0d7f87553f4d8f2be1b2d84462cd" target="_top" xlink:title="AP_InertialNav::AP\l_InertialNav">
<polygon fill="white" stroke="black" points="155,-77 155,-107 257,-107 257,-77 155,-77"/>
<text text-anchor="start" x="163" y="-95" font-family="Helvetica,sans-Serif" font-size="10.00">AP_InertialNav::AP</text>
<text text-anchor="middle" x="206" y="-84" font-family="Helvetica,sans-Serif" font-size="10.00">_InertialNav</text>
</a>
</g>
</g>
<!-- Node1&#45;&gt;Node2 -->
<g id="edge1" class="edge"><title>Node1&#45;&gt;Node2</title>
<path fill="none" stroke="midnightblue" d="M111.789,-65.1943C126.012,-69.2846 141.045,-73.6078 154.79,-77.5604"/>
<polygon fill="midnightblue" stroke="midnightblue" points="112.676,-61.8074 102.098,-62.4072 110.741,-68.5348 112.676,-61.8074"/>
</g>
<!-- Node3 -->
<g id="node3" class="node"><title>Node3</title>
<g id="a_node3"><a xlink:href="classAC__Fence.html#af15460c17409c5444fd347d997834559" target="_top" xlink:title="pre_arm_check &#45; returns true if all pre&#45;takeoff checks have completed successfully ...">
<polygon fill="white" stroke="black" points="138,-38.5 138,-57.5 274,-57.5 274,-38.5 138,-38.5"/>
<text text-anchor="middle" x="206" y="-45.5" font-family="Helvetica,sans-Serif" font-size="10.00">AC_Fence::pre_arm_check</text>
</a>
</g>
</g>
<!-- Node1&#45;&gt;Node3 -->
<g id="edge2" class="edge"><title>Node1&#45;&gt;Node3</title>
<path fill="none" stroke="midnightblue" d="M112.193,-48C120.606,-48 129.294,-48 137.826,-48"/>
<polygon fill="midnightblue" stroke="midnightblue" points="112.098,-44.5001 102.098,-48 112.098,-51.5001 112.098,-44.5001"/>
</g>
<!-- Node5 -->
<g id="node5" class="node"><title>Node5</title>
<g id="a_node5"><a xlink:href="classAC__PrecLand.html#ae68b8b96de87397ca1eb0eac34708e3d" target="_top" xlink:title="AC_PrecLand::update">
<polygon fill="white" stroke="black" points="149.5,-0.5 149.5,-19.5 262.5,-19.5 262.5,-0.5 149.5,-0.5"/>
<text text-anchor="middle" x="206" y="-7.5" font-family="Helvetica,sans-Serif" font-size="10.00">AC_PrecLand::update</text>
</a>
</g>
</g>
<!-- Node1&#45;&gt;Node5 -->
<g id="edge4" class="edge"><title>Node1&#45;&gt;Node5</title>
<path fill="none" stroke="midnightblue" d="M111.84,-33.1378C130.199,-28.578 149.904,-23.684 166.441,-19.5767"/>
<polygon fill="midnightblue" stroke="midnightblue" points="110.959,-29.7501 102.098,-35.5574 112.647,-36.5437 110.959,-29.7501"/>
</g>
<!-- Node4 -->
<g id="node4" class="node"><title>Node4</title>
<g id="a_node4"><a xlink:href="classAC__Fence.html#acdc600f19a3e4eb6de655c26f52e0968" target="_top" xlink:title="enabled &#45; returns true if fence is enabled ">
<polygon fill="white" stroke="black" points="334.5,-38.5 334.5,-57.5 437.5,-57.5 437.5,-38.5 334.5,-38.5"/>
<text text-anchor="middle" x="386" y="-45.5" font-family="Helvetica,sans-Serif" font-size="10.00">AC_Fence::enabled</text>
</a>
</g>
</g>
<!-- Node3&#45;&gt;Node4 -->
<g id="edge3" class="edge"><title>Node3&#45;&gt;Node4</title>
<path fill="none" stroke="midnightblue" d="M284.474,-48C301.383,-48 318.856,-48 334.397,-48"/>
<polygon fill="midnightblue" stroke="midnightblue" points="284.041,-44.5001 274.041,-48 284.04,-51.5001 284.041,-44.5001"/>
</g>
<!-- Node6 -->
<g id="node6" class="node"><title>Node6</title>
<g id="a_node6"><a xlink:href="classAC__PrecLand.html#a2800c69257499ca69882022173d2b3f1" target="_top" xlink:title="AC_PrecLand::last_update_ms">
<polygon fill="white" stroke="black" points="310,-0.5 310,-19.5 462,-19.5 462,-0.5 310,-0.5"/>
<text text-anchor="middle" x="386" y="-7.5" font-family="Helvetica,sans-Serif" font-size="10.00">AC_PrecLand::last_update_ms</text>
</a>
</g>
</g>
<!-- Node5&#45;&gt;Node6 -->
<g id="edge5" class="edge"><title>Node5&#45;&gt;Node6</title>
<path fill="none" stroke="midnightblue" d="M273.148,-10C285.087,-10 297.614,-10 309.788,-10"/>
<polygon fill="midnightblue" stroke="midnightblue" points="272.832,-6.5001 262.832,-10 272.832,-13.5001 272.832,-6.5001"/>
</g>
</g>
</svg>
