<?xml version="1.0" encoding="UTF-8" standalone="no"?>
<!DOCTYPE svg PUBLIC "-//W3C//DTD SVG 1.1//EN"
 "http://www.w3.org/Graphics/SVG/1.1/DTD/svg11.dtd">
<!-- Generated by graphviz version 2.38.0 (20140413.2041)
 -->
<!-- Title: VRBRAIN::VRBRAINScheduler::delay_microseconds_semaphore Pages: 1 -->
<svg width="561pt" height="186pt"
 viewBox="0.00 0.00 561.00 186.00" xmlns="http://www.w3.org/2000/svg" xmlns:xlink="http://www.w3.org/1999/xlink">
<g id="graph0" class="graph" transform="scale(1 1) rotate(0) translate(4 182)">
<title>VRBRAIN::VRBRAINScheduler::delay_microseconds_semaphore</title>
<polygon fill="white" stroke="none" points="-4,4 -4,-182 557,-182 557,4 -4,4"/>
<!-- Node1 -->
<g id="node1" class="node"><title>Node1</title>
<polygon fill="#bfbfbf" stroke="black" points="5.68434e-14,-73.5 5.68434e-14,-103.5 165,-103.5 165,-73.5 5.68434e-14,-73.5"/>
<text text-anchor="start" x="8" y="-91.5" font-family="Helvetica,sans-Serif" font-size="10.00">VRBRAIN::VRBRAINScheduler</text>
<text text-anchor="middle" x="82.5" y="-80.5" font-family="Helvetica,sans-Serif" font-size="10.00">::delay_microseconds_semaphore</text>
</g>
<!-- Node2 -->
<g id="node2" class="node"><title>Node2</title>
<g id="a_node2"><a xlink:href="classVRBRAIN_1_1VRBRAINScheduler.html#a9ee4d617834fabe5361a21e8f2ca167f" target="_top" xlink:title="VRBRAIN::VRBRAINScheduler\l::_timer_thread">
<polygon fill="white" stroke="black" points="201,-147.5 201,-177.5 359,-177.5 359,-147.5 201,-147.5"/>
<text text-anchor="start" x="209" y="-165.5" font-family="Helvetica,sans-Serif" font-size="10.00">VRBRAIN::VRBRAINScheduler</text>
<text text-anchor="middle" x="280" y="-154.5" font-family="Helvetica,sans-Serif" font-size="10.00">::_timer_thread</text>
</a>
</g>
</g>
<!-- Node1&#45;&gt;Node2 -->
<g id="edge1" class="edge"><title>Node1&#45;&gt;Node2</title>
<path fill="none" stroke="midnightblue" d="M125.463,-107.61C147.692,-117.412 175.584,-129.211 201,-138.5 209.384,-141.564 218.365,-144.574 227.142,-147.37"/>
<polygon fill="midnightblue" stroke="midnightblue" points="126.867,-104.404 116.307,-103.544 124.026,-110.801 126.867,-104.404"/>
</g>
<!-- Node4 -->
<g id="node4" class="node"><title>Node4</title>
<g id="a_node4"><a xlink:href="classVRBRAIN_1_1VRBRAINScheduler.html#a1cfeaf0c5b85a7a5e279e0de66943b12" target="_top" xlink:title="VRBRAIN::VRBRAINScheduler\l::_uart_thread">
<polygon fill="white" stroke="black" points="201,-98.5 201,-128.5 359,-128.5 359,-98.5 201,-98.5"/>
<text text-anchor="start" x="209" y="-116.5" font-family="Helvetica,sans-Serif" font-size="10.00">VRBRAIN::VRBRAINScheduler</text>
<text text-anchor="middle" x="280" y="-105.5" font-family="Helvetica,sans-Serif" font-size="10.00">::_uart_thread</text>
</a>
</g>
</g>
<!-- Node1&#45;&gt;Node4 -->
<g id="edge3" class="edge"><title>Node1&#45;&gt;Node4</title>
<path fill="none" stroke="midnightblue" d="M175.313,-100.241C183.9,-101.339 192.548,-102.445 200.991,-103.524"/>
<polygon fill="midnightblue" stroke="midnightblue" points="175.64,-96.7542 165.277,-98.9574 174.752,-103.698 175.64,-96.7542"/>
</g>
<!-- Node5 -->
<g id="node5" class="node"><title>Node5</title>
<g id="a_node5"><a xlink:href="classVRBRAIN_1_1VRBRAINScheduler.html#a20360f74ca9912d424c5c6800a85efef" target="_top" xlink:title="VRBRAIN::VRBRAINScheduler\l::delay">
<polygon fill="white" stroke="black" points="201,-49.5 201,-79.5 359,-79.5 359,-49.5 201,-49.5"/>
<text text-anchor="start" x="209" y="-67.5" font-family="Helvetica,sans-Serif" font-size="10.00">VRBRAIN::VRBRAINScheduler</text>
<text text-anchor="middle" x="280" y="-56.5" font-family="Helvetica,sans-Serif" font-size="10.00">::delay</text>
</a>
</g>
</g>
<!-- Node1&#45;&gt;Node5 -->
<g id="edge5" class="edge"><title>Node1&#45;&gt;Node5</title>
<path fill="none" stroke="midnightblue" d="M175.313,-77.2288C183.9,-76.1747 192.548,-75.113 200.991,-74.0765"/>
<polygon fill="midnightblue" stroke="midnightblue" points="174.776,-73.7684 165.277,-78.4609 175.629,-80.7163 174.776,-73.7684"/>
</g>
<!-- Node7 -->
<g id="node7" class="node"><title>Node7</title>
<g id="a_node7"><a xlink:href="classVRBRAIN_1_1VRBRAINScheduler.html#adb60346f5a91eee3812dfed4ba2fb094" target="_top" xlink:title="VRBRAIN::VRBRAINScheduler\l::delay_microseconds">
<polygon fill="white" stroke="black" points="201,-0.5 201,-30.5 359,-30.5 359,-0.5 201,-0.5"/>
<text text-anchor="start" x="209" y="-18.5" font-family="Helvetica,sans-Serif" font-size="10.00">VRBRAIN::VRBRAINScheduler</text>
<text text-anchor="middle" x="280" y="-7.5" font-family="Helvetica,sans-Serif" font-size="10.00">::delay_microseconds</text>
</a>
</g>
</g>
<!-- Node1&#45;&gt;Node7 -->
<g id="edge7" class="edge"><title>Node1&#45;&gt;Node7</title>
<path fill="none" stroke="midnightblue" d="M127.801,-69.4523C149.677,-60.2906 176.558,-49.3941 201,-40.5 210.354,-37.0961 220.425,-33.6846 230.12,-30.524"/>
<polygon fill="midnightblue" stroke="midnightblue" points="126.3,-66.2866 118.442,-73.3935 129.017,-72.7379 126.3,-66.2866"/>
</g>
<!-- Node3 -->
<g id="node3" class="node"><title>Node3</title>
<g id="a_node3"><a xlink:href="classVRBRAIN_1_1VRBRAINScheduler.html#abe39debb8df3d35a3599c87fffb91cde" target="_top" xlink:title="VRBRAIN::VRBRAINScheduler\l::init">
<polygon fill="white" stroke="black" points="395,-122.5 395,-152.5 553,-152.5 553,-122.5 395,-122.5"/>
<text text-anchor="start" x="403" y="-140.5" font-family="Helvetica,sans-Serif" font-size="10.00">VRBRAIN::VRBRAINScheduler</text>
<text text-anchor="middle" x="474" y="-129.5" font-family="Helvetica,sans-Serif" font-size="10.00">::init</text>
</a>
</g>
</g>
<!-- Node2&#45;&gt;Node3 -->
<g id="edge2" class="edge"><title>Node2&#45;&gt;Node3</title>
<path fill="none" stroke="midnightblue" d="M369.153,-151.022C377.769,-149.9 386.47,-148.767 394.975,-147.659"/>
<polygon fill="midnightblue" stroke="midnightblue" points="368.558,-147.57 359.094,-152.332 369.462,-154.511 368.558,-147.57"/>
</g>
<!-- Node4&#45;&gt;Node3 -->
<g id="edge4" class="edge"><title>Node4&#45;&gt;Node3</title>
<path fill="none" stroke="midnightblue" d="M369.153,-124.519C377.769,-125.596 386.47,-126.684 394.975,-127.747"/>
<polygon fill="midnightblue" stroke="midnightblue" points="369.451,-121.029 359.094,-123.262 368.582,-127.975 369.451,-121.029"/>
</g>
<!-- Node6 -->
<g id="node6" class="node"><title>Node6</title>
<g id="a_node6"><a xlink:href="classVRBRAIN_1_1VRBRAINScheduler.html#a4df178cb74833d89cb20e6d6606b48fe" target="_top" xlink:title="VRBRAIN::VRBRAINScheduler\l::reboot">
<polygon fill="white" stroke="black" points="395,-49.5 395,-79.5 553,-79.5 553,-49.5 395,-49.5"/>
<text text-anchor="start" x="403" y="-67.5" font-family="Helvetica,sans-Serif" font-size="10.00">VRBRAIN::VRBRAINScheduler</text>
<text text-anchor="middle" x="474" y="-56.5" font-family="Helvetica,sans-Serif" font-size="10.00">::reboot</text>
</a>
</g>
</g>
<!-- Node5&#45;&gt;Node6 -->
<g id="edge6" class="edge"><title>Node5&#45;&gt;Node6</title>
<path fill="none" stroke="midnightblue" d="M369.153,-64.5C377.769,-64.5 386.47,-64.5 394.975,-64.5"/>
<polygon fill="midnightblue" stroke="midnightblue" points="369.094,-61.0001 359.094,-64.5 369.094,-68.0001 369.094,-61.0001"/>
</g>
</g>
</svg>
