<?xml version="1.0" encoding="UTF-8" standalone="no"?>
<!DOCTYPE svg PUBLIC "-//W3C//DTD SVG 1.1//EN"
 "http://www.w3.org/Graphics/SVG/1.1/DTD/svg11.dtd">
<!-- Generated by graphviz version 2.38.0 (20140413.2041)
 -->
<!-- Title: AnalogSource_Raspilot::set_settle_time Pages: 1 -->
<svg width="308pt" height="137pt"
 viewBox="0.00 0.00 308.00 137.00" xmlns="http://www.w3.org/2000/svg" xmlns:xlink="http://www.w3.org/1999/xlink">
<g id="graph0" class="graph" transform="scale(1 1) rotate(0) translate(4 133)">
<title>AnalogSource_Raspilot::set_settle_time</title>
<polygon fill="white" stroke="none" points="-4,4 -4,-133 304,-133 304,4 -4,4"/>
<!-- Node1 -->
<g id="node1" class="node"><title>Node1</title>
<polygon fill="#bfbfbf" stroke="black" points="0,-49.5 0,-79.5 119,-79.5 119,-49.5 0,-49.5"/>
<text text-anchor="start" x="8" y="-67.5" font-family="Helvetica,sans-Serif" font-size="10.00">AnalogSource_Raspilot</text>
<text text-anchor="middle" x="59.5" y="-56.5" font-family="Helvetica,sans-Serif" font-size="10.00">::set_settle_time</text>
</g>
<!-- Node2 -->
<g id="node2" class="node"><title>Node2</title>
<g id="a_node2"><a xlink:href="classAnalogSource__Raspilot.html#af9743556907264d57df1fd8a558a4ae1" target="_top" xlink:title="AnalogSource_Raspilot\l::voltage_average">
<polygon fill="white" stroke="black" points="168,-98.5 168,-128.5 287,-128.5 287,-98.5 168,-98.5"/>
<text text-anchor="start" x="176" y="-116.5" font-family="Helvetica,sans-Serif" font-size="10.00">AnalogSource_Raspilot</text>
<text text-anchor="middle" x="227.5" y="-105.5" font-family="Helvetica,sans-Serif" font-size="10.00">::voltage_average</text>
</a>
</g>
</g>
<!-- Node1&#45;&gt;Node2 -->
<g id="edge1" class="edge"><title>Node1&#45;&gt;Node2</title>
<path fill="none" stroke="midnightblue" d="M111.66,-79.6014C128.781,-84.6551 148.032,-90.3376 165.808,-95.5848"/>
<polygon fill="midnightblue" stroke="midnightblue" points="164.927,-98.9741 175.509,-98.4484 166.909,-92.2605 164.927,-98.9741"/>
</g>
<!-- Node3 -->
<g id="node3" class="node"><title>Node3</title>
<g id="a_node3"><a xlink:href="classAnalogSource__Raspilot.html#a20bb50c1e84c498c5ca73c7de8532a1e" target="_top" xlink:title="AnalogSource_Raspilot\l::voltage_latest">
<polygon fill="white" stroke="black" points="168,-49.5 168,-79.5 287,-79.5 287,-49.5 168,-49.5"/>
<text text-anchor="start" x="176" y="-67.5" font-family="Helvetica,sans-Serif" font-size="10.00">AnalogSource_Raspilot</text>
<text text-anchor="middle" x="227.5" y="-56.5" font-family="Helvetica,sans-Serif" font-size="10.00">::voltage_latest</text>
</a>
</g>
</g>
<!-- Node1&#45;&gt;Node3 -->
<g id="edge2" class="edge"><title>Node1&#45;&gt;Node3</title>
<path fill="none" stroke="midnightblue" d="M119.025,-64.5C131.547,-64.5 144.884,-64.5 157.751,-64.5"/>
<polygon fill="midnightblue" stroke="midnightblue" points="157.944,-68.0001 167.944,-64.5 157.944,-61.0001 157.944,-68.0001"/>
</g>
<!-- Node4 -->
<g id="node4" class="node"><title>Node4</title>
<g id="a_node4"><a xlink:href="classAnalogSource__Raspilot.html#a8b7e13ae8449a91b8b653b4c9a5d9c1b" target="_top" xlink:title="AnalogSource_Raspilot\l::voltage_average_ratiometric">
<polygon fill="white" stroke="black" points="155,-0.5 155,-30.5 300,-30.5 300,-0.5 155,-0.5"/>
<text text-anchor="start" x="163" y="-18.5" font-family="Helvetica,sans-Serif" font-size="10.00">AnalogSource_Raspilot</text>
<text text-anchor="middle" x="227.5" y="-7.5" font-family="Helvetica,sans-Serif" font-size="10.00">::voltage_average_ratiometric</text>
</a>
</g>
</g>
<!-- Node1&#45;&gt;Node4 -->
<g id="edge3" class="edge"><title>Node1&#45;&gt;Node4</title>
<path fill="none" stroke="midnightblue" d="M111.66,-49.3986C128.781,-44.3449 148.032,-38.6624 165.808,-33.4152"/>
<polygon fill="midnightblue" stroke="midnightblue" points="166.909,-36.7395 175.509,-30.5516 164.927,-30.0259 166.909,-36.7395"/>
</g>
</g>
</svg>
