<?xml version="1.0" encoding="UTF-8" standalone="no"?>
<!DOCTYPE svg PUBLIC "-//W3C//DTD SVG 1.1//EN"
 "http://www.w3.org/Graphics/SVG/1.1/DTD/svg11.dtd">
<!-- Generated by graphviz version 2.38.0 (20140413.2041)
 -->
<!-- Title: AP_InertialSensor_Invensense::accumulate Pages: 1 -->
<svg width="710pt" height="225pt"
 viewBox="0.00 0.00 710.00 225.00" xmlns="http://www.w3.org/2000/svg" xmlns:xlink="http://www.w3.org/1999/xlink">
<g id="graph0" class="graph" transform="scale(1 1) rotate(0) translate(4 221)">
<title>AP_InertialSensor_Invensense::accumulate</title>
<polygon fill="white" stroke="none" points="-4,4 -4,-221 706,-221 706,4 -4,4"/>
<!-- Node1 -->
<g id="node1" class="node"><title>Node1</title>
<polygon fill="#bfbfbf" stroke="black" points="0,-93.5 0,-123.5 151,-123.5 151,-93.5 0,-93.5"/>
<text text-anchor="start" x="8" y="-111.5" font-family="Helvetica,sans-Serif" font-size="10.00">AP_InertialSensor_Invensense</text>
<text text-anchor="middle" x="75.5" y="-100.5" font-family="Helvetica,sans-Serif" font-size="10.00">::accumulate</text>
</g>
<!-- Node2 -->
<g id="node2" class="node"><title>Node2</title>
<g id="a_node2"><a xlink:href="classAP__InertialSensor__Invensense.html#a06dbf9b0eab84d31dbba20ed8acd5d3e" target="_top" xlink:title="AP_InertialSensor_Invensense\l::from">
<polygon fill="white" stroke="black" points="187,-93.5 187,-123.5 338,-123.5 338,-93.5 187,-93.5"/>
<text text-anchor="start" x="195" y="-111.5" font-family="Helvetica,sans-Serif" font-size="10.00">AP_InertialSensor_Invensense</text>
<text text-anchor="middle" x="262.5" y="-100.5" font-family="Helvetica,sans-Serif" font-size="10.00">::from</text>
</a>
</g>
</g>
<!-- Node1&#45;&gt;Node2 -->
<g id="edge1" class="edge"><title>Node1&#45;&gt;Node2</title>
<path fill="none" stroke="midnightblue" d="M161.468,-108.5C169.926,-108.5 178.467,-108.5 186.809,-108.5"/>
<polygon fill="midnightblue" stroke="midnightblue" points="161.213,-105 151.213,-108.5 161.213,-112 161.213,-105"/>
</g>
<!-- Node3 -->
<g id="node3" class="node"><title>Node3</title>
<g id="a_node3"><a xlink:href="classAP__Invensense__AuxiliaryBusSlave.html#a5f0506e4a39d15484e24ef0f155c93ed" target="_top" xlink:title="AP_Invensense_AuxiliaryBus\lSlave::_set_passthrough">
<polygon fill="white" stroke="black" points="374,-137.5 374,-167.5 520,-167.5 520,-137.5 374,-137.5"/>
<text text-anchor="start" x="382" y="-155.5" font-family="Helvetica,sans-Serif" font-size="10.00">AP_Invensense_AuxiliaryBus</text>
<text text-anchor="middle" x="447" y="-144.5" font-family="Helvetica,sans-Serif" font-size="10.00">Slave::_set_passthrough</text>
</a>
</g>
</g>
<!-- Node2&#45;&gt;Node3 -->
<g id="edge2" class="edge"><title>Node2&#45;&gt;Node3</title>
<path fill="none" stroke="midnightblue" d="M335.575,-125.877C351.478,-129.711 368.196,-133.742 383.675,-137.474"/>
<polygon fill="midnightblue" stroke="midnightblue" points="336.338,-122.461 325.796,-123.519 334.697,-129.266 336.338,-122.461"/>
</g>
<!-- Node4 -->
<g id="node4" class="node"><title>Node4</title>
<g id="a_node4"><a xlink:href="classAP__Invensense__AuxiliaryBusSlave.html#aa8037d3e32a51691ad941a0b080f59c8" target="_top" xlink:title="AP_Invensense_AuxiliaryBus\lSlave::passthrough_read">
<polygon fill="white" stroke="black" points="556,-186.5 556,-216.5 702,-216.5 702,-186.5 556,-186.5"/>
<text text-anchor="start" x="564" y="-204.5" font-family="Helvetica,sans-Serif" font-size="10.00">AP_Invensense_AuxiliaryBus</text>
<text text-anchor="middle" x="629" y="-193.5" font-family="Helvetica,sans-Serif" font-size="10.00">Slave::passthrough_read</text>
</a>
</g>
</g>
<!-- Node2&#45;&gt;Node4 -->
<g id="edge6" class="edge"><title>Node2&#45;&gt;Node4</title>
<path fill="none" stroke="midnightblue" d="M290.341,-129.88C311.699,-145.638 343.042,-166.073 374,-176.5 433.104,-196.407 503.997,-201.981 555.85,-202.966"/>
<polygon fill="midnightblue" stroke="midnightblue" points="292.201,-126.898 282.109,-123.671 287.986,-132.487 292.201,-126.898"/>
</g>
<!-- Node5 -->
<g id="node5" class="node"><title>Node5</title>
<g id="a_node5"><a xlink:href="classAP__Invensense__AuxiliaryBusSlave.html#a0c70c5ce66b3d72ed65d33144168a698" target="_top" xlink:title="AP_Invensense_AuxiliaryBus\lSlave::passthrough_write">
<polygon fill="white" stroke="black" points="556,-88.5 556,-118.5 702,-118.5 702,-88.5 556,-88.5"/>
<text text-anchor="start" x="564" y="-106.5" font-family="Helvetica,sans-Serif" font-size="10.00">AP_Invensense_AuxiliaryBus</text>
<text text-anchor="middle" x="629" y="-95.5" font-family="Helvetica,sans-Serif" font-size="10.00">Slave::passthrough_write</text>
</a>
</g>
</g>
<!-- Node2&#45;&gt;Node5 -->
<g id="edge7" class="edge"><title>Node2&#45;&gt;Node5</title>
<path fill="none" stroke="midnightblue" d="M348.445,-107.335C411.404,-106.471 496.284,-105.307 555.942,-104.488"/>
<polygon fill="midnightblue" stroke="midnightblue" points="348.093,-103.839 338.142,-107.476 348.189,-110.839 348.093,-103.839"/>
</g>
<!-- Node7 -->
<g id="node7" class="node"><title>Node7</title>
<g id="a_node7"><a xlink:href="classAP__Invensense__AuxiliaryBusSlave.html#a6e7224e955510a4f5c44155ca5d9d9c8" target="_top" xlink:title="AP_Invensense_AuxiliaryBus\lSlave::read">
<polygon fill="white" stroke="black" points="374,-49.5 374,-79.5 520,-79.5 520,-49.5 374,-49.5"/>
<text text-anchor="start" x="382" y="-67.5" font-family="Helvetica,sans-Serif" font-size="10.00">AP_Invensense_AuxiliaryBus</text>
<text text-anchor="middle" x="447" y="-56.5" font-family="Helvetica,sans-Serif" font-size="10.00">Slave::read</text>
</a>
</g>
</g>
<!-- Node2&#45;&gt;Node7 -->
<g id="edge8" class="edge"><title>Node2&#45;&gt;Node7</title>
<path fill="none" stroke="midnightblue" d="M335.575,-91.1231C351.478,-87.2888 368.196,-83.2582 383.675,-79.5262"/>
<polygon fill="midnightblue" stroke="midnightblue" points="334.697,-87.7344 325.796,-93.4808 336.338,-94.5394 334.697,-87.7344"/>
</g>
<!-- Node8 -->
<g id="node8" class="node"><title>Node8</title>
<g id="a_node8"><a xlink:href="classAP__Invensense__AuxiliaryBus.html#a99a1e2d327b6f013cb993f46337e9021" target="_top" xlink:title="AP_Invensense_AuxiliaryBus\l::_configure_slaves">
<polygon fill="white" stroke="black" points="374,-0.5 374,-30.5 520,-30.5 520,-0.5 374,-0.5"/>
<text text-anchor="start" x="382" y="-18.5" font-family="Helvetica,sans-Serif" font-size="10.00">AP_Invensense_AuxiliaryBus</text>
<text text-anchor="middle" x="447" y="-7.5" font-family="Helvetica,sans-Serif" font-size="10.00">::_configure_slaves</text>
</a>
</g>
</g>
<!-- Node2&#45;&gt;Node8 -->
<g id="edge9" class="edge"><title>Node2&#45;&gt;Node8</title>
<path fill="none" stroke="midnightblue" d="M292.663,-87.6192C314.338,-72.7746 345.044,-53.1309 374,-39.5 380.914,-36.2451 388.391,-33.2331 395.821,-30.5211"/>
<polygon fill="midnightblue" stroke="midnightblue" points="290.471,-84.8799 284.246,-93.4534 294.459,-90.6328 290.471,-84.8799"/>
</g>
<!-- Node3&#45;&gt;Node4 -->
<g id="edge3" class="edge"><title>Node3&#45;&gt;Node4</title>
<path fill="none" stroke="midnightblue" d="M513.198,-170.248C532.707,-175.559 553.902,-181.329 572.708,-186.448"/>
<polygon fill="midnightblue" stroke="midnightblue" points="514.043,-166.851 503.475,-167.601 512.204,-173.605 514.043,-166.851"/>
</g>
<!-- Node3&#45;&gt;Node5 -->
<g id="edge4" class="edge"><title>Node3&#45;&gt;Node5</title>
<path fill="none" stroke="midnightblue" d="M513.198,-134.752C532.707,-129.441 553.902,-123.671 572.708,-118.552"/>
<polygon fill="midnightblue" stroke="midnightblue" points="512.204,-131.395 503.475,-137.399 514.043,-138.149 512.204,-131.395"/>
</g>
<!-- Node6 -->
<g id="node6" class="node"><title>Node6</title>
<g id="a_node6"><a xlink:href="classAP__Invensense__AuxiliaryBus.html#a8ad647d91a1684e5525f6e2b75ff1b5e" target="_top" xlink:title="AP_Invensense_AuxiliaryBus\l::_configure_periodic_read">
<polygon fill="white" stroke="black" points="556,-137.5 556,-167.5 702,-167.5 702,-137.5 556,-137.5"/>
<text text-anchor="start" x="564" y="-155.5" font-family="Helvetica,sans-Serif" font-size="10.00">AP_Invensense_AuxiliaryBus</text>
<text text-anchor="middle" x="629" y="-144.5" font-family="Helvetica,sans-Serif" font-size="10.00">::_configure_periodic_read</text>
</a>
</g>
</g>
<!-- Node3&#45;&gt;Node6 -->
<g id="edge5" class="edge"><title>Node3&#45;&gt;Node6</title>
<path fill="none" stroke="midnightblue" d="M530.439,-152.5C538.906,-152.5 547.464,-152.5 555.808,-152.5"/>
<polygon fill="midnightblue" stroke="midnightblue" points="530.176,-149 520.176,-152.5 530.176,-156 530.176,-149"/>
</g>
<!-- Node9 -->
<g id="node9" class="node"><title>Node9</title>
<g id="a_node9"><a xlink:href="classAP__Invensense__AuxiliaryBus.html#a76ed6959454aec407c23fbd1a342d50b" target="_top" xlink:title="AP_Invensense_AuxiliaryBus\l::_instantiate_slave">
<polygon fill="white" stroke="black" points="556,-0.5 556,-30.5 702,-30.5 702,-0.5 556,-0.5"/>
<text text-anchor="start" x="564" y="-18.5" font-family="Helvetica,sans-Serif" font-size="10.00">AP_Invensense_AuxiliaryBus</text>
<text text-anchor="middle" x="629" y="-7.5" font-family="Helvetica,sans-Serif" font-size="10.00">::_instantiate_slave</text>
</a>
</g>
</g>
<!-- Node8&#45;&gt;Node9 -->
<g id="edge10" class="edge"><title>Node8&#45;&gt;Node9</title>
<path fill="none" stroke="midnightblue" d="M530.439,-15.5C538.906,-15.5 547.464,-15.5 555.808,-15.5"/>
<polygon fill="midnightblue" stroke="midnightblue" points="530.176,-12.0001 520.176,-15.5 530.176,-19.0001 530.176,-12.0001"/>
</g>
</g>
</svg>
