<?xml version="1.0" encoding="UTF-8" standalone="no"?>
<!DOCTYPE svg PUBLIC "-//W3C//DTD SVG 1.1//EN"
 "http://www.w3.org/Graphics/SVG/1.1/DTD/svg11.dtd">
<!-- Generated by graphviz version 2.38.0 (20140413.2041)
 -->
<!-- Title: AP_AccelCal::get_status Pages: 1 -->
<svg width="409pt" height="39pt"
 viewBox="0.00 0.00 409.00 39.00" xmlns="http://www.w3.org/2000/svg" xmlns:xlink="http://www.w3.org/1999/xlink">
<g id="graph0" class="graph" transform="scale(1 1) rotate(0) translate(4 35)">
<title>AP_AccelCal::get_status</title>
<polygon fill="white" stroke="none" points="-4,4 -4,-35 405,-35 405,4 -4,4"/>
<!-- Node1 -->
<g id="node1" class="node"><title>Node1</title>
<polygon fill="#bfbfbf" stroke="black" points="0,-6 0,-25 127,-25 127,-6 0,-6"/>
<text text-anchor="middle" x="63.5" y="-13" font-family="Helvetica,sans-Serif" font-size="10.00">AP_AccelCal::get_status</text>
</g>
<!-- Node2 -->
<g id="node2" class="node"><title>Node2</title>
<g id="a_node2"><a xlink:href="classAP__InertialSensor.html#a9ca5d711a97f4c33fe6a7c31b1329761" target="_top" xlink:title="AP_InertialSensor::\lacal_update">
<polygon fill="white" stroke="black" points="163,-0.5 163,-30.5 264,-30.5 264,-0.5 163,-0.5"/>
<text text-anchor="start" x="171" y="-18.5" font-family="Helvetica,sans-Serif" font-size="10.00">AP_InertialSensor::</text>
<text text-anchor="middle" x="213.5" y="-7.5" font-family="Helvetica,sans-Serif" font-size="10.00">acal_update</text>
</a>
</g>
</g>
<!-- Node1&#45;&gt;Node2 -->
<g id="edge1" class="edge"><title>Node1&#45;&gt;Node2</title>
<path fill="none" stroke="midnightblue" d="M137.302,-15.5C145.883,-15.5 154.486,-15.5 162.649,-15.5"/>
<polygon fill="midnightblue" stroke="midnightblue" points="137.265,-12.0001 127.265,-15.5 137.265,-19.0001 137.265,-12.0001"/>
</g>
<!-- Node3 -->
<g id="node3" class="node"><title>Node3</title>
<g id="a_node3"><a xlink:href="classAP__InertialSensor.html#ab7992b2d70b268a86ad4354531ae464d" target="_top" xlink:title="AP_InertialSensor::\lget_acal">
<polygon fill="white" stroke="black" points="300,-0.5 300,-30.5 401,-30.5 401,-0.5 300,-0.5"/>
<text text-anchor="start" x="308" y="-18.5" font-family="Helvetica,sans-Serif" font-size="10.00">AP_InertialSensor::</text>
<text text-anchor="middle" x="350.5" y="-7.5" font-family="Helvetica,sans-Serif" font-size="10.00">get_acal</text>
</a>
</g>
</g>
<!-- Node2&#45;&gt;Node3 -->
<g id="edge2" class="edge"><title>Node2&#45;&gt;Node3</title>
<path fill="none" stroke="midnightblue" d="M274.207,-15.5C282.67,-15.5 291.299,-15.5 299.552,-15.5"/>
<polygon fill="midnightblue" stroke="midnightblue" points="274.002,-12.0001 264.002,-15.5 274.002,-19.0001 274.002,-12.0001"/>
</g>
</g>
</svg>
