<?xml version="1.0" encoding="UTF-8" standalone="no"?>
<!DOCTYPE svg PUBLIC "-//W3C//DTD SVG 1.1//EN"
 "http://www.w3.org/Graphics/SVG/1.1/DTD/svg11.dtd">
<!-- Generated by graphviz version 2.38.0 (20140413.2041)
 -->
<!-- Title: NavEKF3::use_compass Pages: 1 -->
<svg width="596pt" height="83pt"
 viewBox="0.00 0.00 596.00 83.00" xmlns="http://www.w3.org/2000/svg" xmlns:xlink="http://www.w3.org/1999/xlink">
<g id="graph0" class="graph" transform="scale(1 1) rotate(0) translate(4 79)">
<title>NavEKF3::use_compass</title>
<polygon fill="white" stroke="none" points="-4,4 -4,-79 592,-79 592,4 -4,4"/>
<!-- Node1 -->
<g id="node1" class="node"><title>Node1</title>
<polygon fill="#bfbfbf" stroke="black" points="0,-28 0,-47 126,-47 126,-28 0,-28"/>
<text text-anchor="middle" x="63" y="-35" font-family="Helvetica,sans-Serif" font-size="10.00">NavEKF3::use_compass</text>
</g>
<!-- Node2 -->
<g id="node2" class="node"><title>Node2</title>
<g id="a_node2"><a xlink:href="classNavEKF3.html#a3e1f50ad977a17222fcd7a6851b0f2ec" target="_top" xlink:title="NavEKF3::activeCores">
<polygon fill="white" stroke="black" points="167,-50 167,-69 285,-69 285,-50 167,-50"/>
<text text-anchor="middle" x="226" y="-57" font-family="Helvetica,sans-Serif" font-size="10.00">NavEKF3::activeCores</text>
</a>
</g>
</g>
<!-- Node1&#45;&gt;Node2 -->
<g id="edge1" class="edge"><title>Node1&#45;&gt;Node2</title>
<path fill="none" stroke="midnightblue" d="M136.376,-47.3899C146.589,-48.7854 156.978,-50.205 166.876,-51.5576"/>
<polygon fill="midnightblue" stroke="midnightblue" points="136.629,-43.892 126.247,-46.0058 135.681,-50.8275 136.629,-43.892"/>
</g>
<!-- Node5 -->
<g id="node5" class="node"><title>Node5</title>
<g id="a_node5"><a xlink:href="classAP__AHRS__NavEKF.html#a4c1d09f4fe08c39172f7e6baab40cad2" target="_top" xlink:title="AP_AHRS_NavEKF::use\l_compass">
<polygon fill="white" stroke="black" points="162,-0.5 162,-30.5 290,-30.5 290,-0.5 162,-0.5"/>
<text text-anchor="start" x="170" y="-18.5" font-family="Helvetica,sans-Serif" font-size="10.00">AP_AHRS_NavEKF::use</text>
<text text-anchor="middle" x="226" y="-7.5" font-family="Helvetica,sans-Serif" font-size="10.00">_compass</text>
</a>
</g>
</g>
<!-- Node1&#45;&gt;Node5 -->
<g id="edge4" class="edge"><title>Node1&#45;&gt;Node5</title>
<path fill="none" stroke="midnightblue" d="M136.207,-27.6332C144.761,-26.4643 153.441,-25.2782 161.856,-24.1284"/>
<polygon fill="midnightblue" stroke="midnightblue" points="135.681,-24.1725 126.247,-28.9942 136.629,-31.108 135.681,-24.1725"/>
</g>
<!-- Node3 -->
<g id="node3" class="node"><title>Node3</title>
<g id="a_node3"><a xlink:href="classDataFlash__Class.html#a46e58faaa53c44516433f6bb7bde4163" target="_top" xlink:title="DataFlash_Class::Log\l_Write_POS">
<polygon fill="white" stroke="black" points="326,-44.5 326,-74.5 440,-74.5 440,-44.5 326,-44.5"/>
<text text-anchor="start" x="334" y="-62.5" font-family="Helvetica,sans-Serif" font-size="10.00">DataFlash_Class::Log</text>
<text text-anchor="middle" x="383" y="-51.5" font-family="Helvetica,sans-Serif" font-size="10.00">_Write_POS</text>
</a>
</g>
</g>
<!-- Node2&#45;&gt;Node3 -->
<g id="edge2" class="edge"><title>Node2&#45;&gt;Node3</title>
<path fill="none" stroke="midnightblue" d="M295.269,-59.5C305.48,-59.5 315.908,-59.5 325.83,-59.5"/>
<polygon fill="midnightblue" stroke="midnightblue" points="295.157,-56.0001 285.157,-59.5 295.157,-63.0001 295.157,-56.0001"/>
</g>
<!-- Node4 -->
<g id="node4" class="node"><title>Node4</title>
<g id="a_node4"><a xlink:href="classDataFlash__Class.html#a7868f0e3dcef65ea5b5fcae618f4c5d4" target="_top" xlink:title="DataFlash_Class::get\l_structures">
<polygon fill="white" stroke="black" points="476,-44.5 476,-74.5 588,-74.5 588,-44.5 476,-44.5"/>
<text text-anchor="start" x="484" y="-62.5" font-family="Helvetica,sans-Serif" font-size="10.00">DataFlash_Class::get</text>
<text text-anchor="middle" x="532" y="-51.5" font-family="Helvetica,sans-Serif" font-size="10.00">_structures</text>
</a>
</g>
</g>
<!-- Node3&#45;&gt;Node4 -->
<g id="edge3" class="edge"><title>Node3&#45;&gt;Node4</title>
<path fill="none" stroke="midnightblue" d="M450.646,-59.5C459.109,-59.5 467.695,-59.5 475.949,-59.5"/>
<polygon fill="midnightblue" stroke="midnightblue" points="450.414,-56.0001 440.414,-59.5 450.414,-63.0001 450.414,-56.0001"/>
</g>
</g>
</svg>
