<?xml version="1.0" encoding="UTF-8" standalone="no"?>
<!DOCTYPE svg PUBLIC "-//W3C//DTD SVG 1.1//EN"
 "http://www.w3.org/Graphics/SVG/1.1/DTD/svg11.dtd">
<!-- Generated by graphviz version 2.38.0 (20140413.2041)
 -->
<!-- Title: AP_GPS_UBLOX::_send_message Pages: 1 -->
<svg width="308pt" height="116pt"
 viewBox="0.00 0.00 308.00 116.00" xmlns="http://www.w3.org/2000/svg" xmlns:xlink="http://www.w3.org/1999/xlink">
<g id="graph0" class="graph" transform="scale(1 1) rotate(0) translate(4 112)">
<title>AP_GPS_UBLOX::_send_message</title>
<polygon fill="white" stroke="none" points="-4,4 -4,-112 304,-112 304,4 -4,4"/>
<!-- Node1 -->
<g id="node1" class="node"><title>Node1</title>
<polygon fill="#bfbfbf" stroke="black" points="0,-39 0,-69 128,-69 128,-39 0,-39"/>
<text text-anchor="start" x="8" y="-57" font-family="Helvetica,sans-Serif" font-size="10.00">AP_GPS_UBLOX::_send</text>
<text text-anchor="middle" x="64" y="-46" font-family="Helvetica,sans-Serif" font-size="10.00">_message</text>
</g>
<!-- Node2 -->
<g id="node2" class="node"><title>Node2</title>
<g id="a_node2"><a xlink:href="classAP__HAL_1_1Stream.html#a1768308e013072eb91ecf0ccdc171da6" target="_top" xlink:title="AP_HAL::Stream::txspace">
<polygon fill="white" stroke="black" points="165.5,-88.5 165.5,-107.5 298.5,-107.5 298.5,-88.5 165.5,-88.5"/>
<text text-anchor="middle" x="232" y="-95.5" font-family="Helvetica,sans-Serif" font-size="10.00">AP_HAL::Stream::txspace</text>
</a>
</g>
</g>
<!-- Node1&#45;&gt;Node2 -->
<g id="edge1" class="edge"><title>Node1&#45;&gt;Node2</title>
<path fill="none" stroke="midnightblue" d="M121.663,-69.0192C142.299,-74.4888 165.357,-80.6007 184.959,-85.7964"/>
<polygon fill="midnightblue" stroke="midnightblue" points="184.301,-89.2427 194.864,-88.4217 186.094,-82.4763 184.301,-89.2427"/>
</g>
<!-- Node3 -->
<g id="node3" class="node"><title>Node3</title>
<g id="a_node3"><a xlink:href="classAP__GPS__UBLOX.html#aa9e7578f241ffd59f632d9b5104bed75" target="_top" xlink:title="AP_GPS_UBLOX::_update\l_checksum">
<polygon fill="white" stroke="black" points="164,-39 164,-69 300,-69 300,-39 164,-39"/>
<text text-anchor="start" x="172" y="-57" font-family="Helvetica,sans-Serif" font-size="10.00">AP_GPS_UBLOX::_update</text>
<text text-anchor="middle" x="232" y="-46" font-family="Helvetica,sans-Serif" font-size="10.00">_checksum</text>
</a>
</g>
</g>
<!-- Node1&#45;&gt;Node3 -->
<g id="edge2" class="edge"><title>Node1&#45;&gt;Node3</title>
<path fill="none" stroke="midnightblue" d="M128.231,-54C136.504,-54 145.055,-54 153.528,-54"/>
<polygon fill="midnightblue" stroke="midnightblue" points="153.802,-57.5001 163.802,-54 153.802,-50.5001 153.802,-57.5001"/>
</g>
<!-- Node4 -->
<g id="node4" class="node"><title>Node4</title>
<g id="a_node4"><a xlink:href="classAP__HAL_1_1Print.html#acc65391952a43334f8f5c9bef341f501" target="_top" xlink:title="AP_HAL::Print::write">
<polygon fill="white" stroke="black" points="178,-0.5 178,-19.5 286,-19.5 286,-0.5 178,-0.5"/>
<text text-anchor="middle" x="232" y="-7.5" font-family="Helvetica,sans-Serif" font-size="10.00">AP_HAL::Print::write</text>
</a>
</g>
</g>
<!-- Node1&#45;&gt;Node4 -->
<g id="edge3" class="edge"><title>Node1&#45;&gt;Node4</title>
<path fill="none" stroke="midnightblue" d="M121.663,-38.9808C142.299,-33.5112 165.357,-27.3993 184.959,-22.2036"/>
<polygon fill="midnightblue" stroke="midnightblue" points="186.094,-25.5237 194.864,-19.5783 184.301,-18.7573 186.094,-25.5237"/>
</g>
</g>
</svg>
