<?xml version="1.0" encoding="UTF-8" standalone="no"?>
<!DOCTYPE svg PUBLIC "-//W3C//DTD SVG 1.1//EN"
 "http://www.w3.org/Graphics/SVG/1.1/DTD/svg11.dtd">
<!-- Generated by graphviz version 2.38.0 (20140413.2041)
 -->
<!-- Title: NavEKF3_core::CopyCovariances Pages: 1 -->
<svg width="1218pt" height="78pt"
 viewBox="0.00 0.00 1218.00 77.50" xmlns="http://www.w3.org/2000/svg" xmlns:xlink="http://www.w3.org/1999/xlink">
<g id="graph0" class="graph" transform="scale(1 1) rotate(0) translate(4 73.5)">
<title>NavEKF3_core::CopyCovariances</title>
<polygon fill="white" stroke="none" points="-4,4 -4,-73.5 1214,-73.5 1214,4 -4,4"/>
<!-- Node1 -->
<g id="node1" class="node"><title>Node1</title>
<polygon fill="#bfbfbf" stroke="black" points="0,-22.5 0,-41.5 167,-41.5 167,-22.5 0,-22.5"/>
<text text-anchor="middle" x="83.5" y="-29.5" font-family="Helvetica,sans-Serif" font-size="10.00">NavEKF3_core::CopyCovariances</text>
</g>
<!-- Node2 -->
<g id="node2" class="node"><title>Node2</title>
<g id="a_node2"><a xlink:href="classNavEKF3__core.html#adbeff1c78f56cbfcb339b37ba0e03b0a" target="_top" xlink:title="NavEKF3_core::Covariance\lPrediction">
<polygon fill="white" stroke="black" points="203,-17 203,-47 342,-47 342,-17 203,-17"/>
<text text-anchor="start" x="211" y="-35" font-family="Helvetica,sans-Serif" font-size="10.00">NavEKF3_core::Covariance</text>
<text text-anchor="middle" x="272.5" y="-24" font-family="Helvetica,sans-Serif" font-size="10.00">Prediction</text>
</a>
</g>
</g>
<!-- Node1&#45;&gt;Node2 -->
<g id="edge1" class="edge"><title>Node1&#45;&gt;Node2</title>
<path fill="none" stroke="midnightblue" d="M177.176,-32C185.808,-32 194.449,-32 202.806,-32"/>
<polygon fill="midnightblue" stroke="midnightblue" points="177.065,-28.5001 167.065,-32 177.065,-35.5001 177.065,-28.5001"/>
</g>
<!-- Node3 -->
<g id="node3" class="node"><title>Node3</title>
<g id="a_node3"><a xlink:href="classNavEKF3__core.html#a2a7fae9e0bf2ce6fc2f9b3918dc168d3" target="_top" xlink:title="NavEKF3_core::UpdateFilter">
<polygon fill="white" stroke="black" points="378,-22.5 378,-41.5 521,-41.5 521,-22.5 378,-22.5"/>
<text text-anchor="middle" x="449.5" y="-29.5" font-family="Helvetica,sans-Serif" font-size="10.00">NavEKF3_core::UpdateFilter</text>
</a>
</g>
</g>
<!-- Node2&#45;&gt;Node3 -->
<g id="edge2" class="edge"><title>Node2&#45;&gt;Node3</title>
<path fill="none" stroke="midnightblue" d="M352.39,-32C360.835,-32 369.389,-32 377.733,-32"/>
<polygon fill="midnightblue" stroke="midnightblue" points="352.162,-28.5001 342.162,-32 352.162,-35.5001 352.162,-28.5001"/>
</g>
<!-- Node4 -->
<g id="node4" class="node"><title>Node4</title>
<g id="a_node4"><a xlink:href="classNavEKF3.html#a477020fcf29376e0c2205dbf79728104" target="_top" xlink:title="NavEKF3::UpdateFilter">
<polygon fill="white" stroke="black" points="557,-22.5 557,-41.5 676,-41.5 676,-22.5 557,-22.5"/>
<text text-anchor="middle" x="616.5" y="-29.5" font-family="Helvetica,sans-Serif" font-size="10.00">NavEKF3::UpdateFilter</text>
</a>
</g>
</g>
<!-- Node3&#45;&gt;Node4 -->
<g id="edge3" class="edge"><title>Node3&#45;&gt;Node4</title>
<path fill="none" stroke="midnightblue" d="M531.436,-32C539.985,-32 548.556,-32 556.783,-32"/>
<polygon fill="midnightblue" stroke="midnightblue" points="531.432,-28.5001 521.432,-32 531.432,-35.5001 531.432,-28.5001"/>
</g>
<!-- Node5 -->
<g id="node5" class="node"><title>Node5</title>
<g id="a_node5"><a xlink:href="classNavEKF3.html#a3e1f50ad977a17222fcd7a6851b0f2ec" target="_top" xlink:title="NavEKF3::activeCores">
<polygon fill="white" stroke="black" points="739,-42.5 739,-61.5 857,-61.5 857,-42.5 739,-42.5"/>
<text text-anchor="middle" x="798" y="-49.5" font-family="Helvetica,sans-Serif" font-size="10.00">NavEKF3::activeCores</text>
</a>
</g>
</g>
<!-- Node4&#45;&gt;Node5 -->
<g id="edge4" class="edge"><title>Node4&#45;&gt;Node5</title>
<path fill="none" stroke="midnightblue" d="M686.307,-39.6665C703.597,-41.593 721.985,-43.6418 738.706,-45.5048"/>
<polygon fill="midnightblue" stroke="midnightblue" points="686.601,-36.1777 676.275,-38.5487 685.826,-43.1347 686.601,-36.1777"/>
</g>
<!-- Node8 -->
<g id="node8" class="node"><title>Node8</title>
<g id="a_node8"><a xlink:href="classAP__AHRS__NavEKF.html#a324160404f12959e955554f5aed26459" target="_top" xlink:title="AP_AHRS_NavEKF::update_EKF3">
<polygon fill="white" stroke="black" points="712,-3.5 712,-22.5 884,-22.5 884,-3.5 712,-3.5"/>
<text text-anchor="middle" x="798" y="-10.5" font-family="Helvetica,sans-Serif" font-size="10.00">AP_AHRS_NavEKF::update_EKF3</text>
</a>
</g>
</g>
<!-- Node4&#45;&gt;Node8 -->
<g id="edge7" class="edge"><title>Node4&#45;&gt;Node8</title>
<path fill="none" stroke="midnightblue" d="M686.285,-24.7191C694.612,-23.8377 703.194,-22.9293 711.722,-22.0266"/>
<polygon fill="midnightblue" stroke="midnightblue" points="685.851,-21.2454 676.275,-25.7787 686.588,-28.2065 685.851,-21.2454"/>
</g>
<!-- Node6 -->
<g id="node6" class="node"><title>Node6</title>
<g id="a_node6"><a xlink:href="classDataFlash__Class.html#a46e58faaa53c44516433f6bb7bde4163" target="_top" xlink:title="DataFlash_Class::Log\l_Write_POS">
<polygon fill="white" stroke="black" points="934,-39 934,-69 1048,-69 1048,-39 934,-39"/>
<text text-anchor="start" x="942" y="-57" font-family="Helvetica,sans-Serif" font-size="10.00">DataFlash_Class::Log</text>
<text text-anchor="middle" x="991" y="-46" font-family="Helvetica,sans-Serif" font-size="10.00">_Write_POS</text>
</a>
</g>
</g>
<!-- Node5&#45;&gt;Node6 -->
<g id="edge5" class="edge"><title>Node5&#45;&gt;Node6</title>
<path fill="none" stroke="midnightblue" d="M867.274,-52.7149C889.091,-52.9434 912.977,-53.1935 933.83,-53.4118"/>
<polygon fill="midnightblue" stroke="midnightblue" points="867.12,-49.2132 857.084,-52.6082 867.047,-56.2128 867.12,-49.2132"/>
</g>
<!-- Node7 -->
<g id="node7" class="node"><title>Node7</title>
<g id="a_node7"><a xlink:href="classDataFlash__Class.html#a7868f0e3dcef65ea5b5fcae618f4c5d4" target="_top" xlink:title="DataFlash_Class::get\l_structures">
<polygon fill="white" stroke="black" points="1098,-39 1098,-69 1210,-69 1210,-39 1098,-39"/>
<text text-anchor="start" x="1106" y="-57" font-family="Helvetica,sans-Serif" font-size="10.00">DataFlash_Class::get</text>
<text text-anchor="middle" x="1154" y="-46" font-family="Helvetica,sans-Serif" font-size="10.00">_structures</text>
</a>
</g>
</g>
<!-- Node6&#45;&gt;Node7 -->
<g id="edge6" class="edge"><title>Node6&#45;&gt;Node7</title>
<path fill="none" stroke="midnightblue" d="M1058.63,-54C1071.66,-54 1085.2,-54 1097.81,-54"/>
<polygon fill="midnightblue" stroke="midnightblue" points="1058.31,-50.5001 1048.31,-54 1058.31,-57.5001 1058.31,-50.5001"/>
</g>
<!-- Node9 -->
<g id="node9" class="node"><title>Node9</title>
<g id="a_node9"><a xlink:href="classAP__AHRS__NavEKF.html#ac8111979c5dc37a55b2c50818534ea52" target="_top" xlink:title="AP_AHRS_NavEKF::update">
<polygon fill="white" stroke="black" points="920,-0.5 920,-19.5 1062,-19.5 1062,-0.5 920,-0.5"/>
<text text-anchor="middle" x="991" y="-7.5" font-family="Helvetica,sans-Serif" font-size="10.00">AP_AHRS_NavEKF::update</text>
</a>
</g>
</g>
<!-- Node8&#45;&gt;Node9 -->
<g id="edge8" class="edge"><title>Node8&#45;&gt;Node9</title>
<path fill="none" stroke="midnightblue" d="M894.273,-11.5036C902.898,-11.3681 911.526,-11.2326 919.874,-11.1014"/>
<polygon fill="midnightblue" stroke="midnightblue" points="894.11,-8.0056 884.166,-11.6623 894.22,-15.0047 894.11,-8.0056"/>
</g>
<!-- Node10 -->
<g id="node10" class="node"><title>Node10</title>
<g id="a_node10"><a xlink:href="AHRS__Test_8cpp.html#a0b33edabd7f1c4e4a0bf32c67269be2f" target="_top" xlink:title="loop">
<polygon fill="white" stroke="black" points="1136.5,-0.5 1136.5,-19.5 1171.5,-19.5 1171.5,-0.5 1136.5,-0.5"/>
<text text-anchor="middle" x="1154" y="-7.5" font-family="Helvetica,sans-Serif" font-size="10.00">loop</text>
</a>
</g>
</g>
<!-- Node9&#45;&gt;Node10 -->
<g id="edge9" class="edge"><title>Node9&#45;&gt;Node10</title>
<path fill="none" stroke="midnightblue" d="M1072.17,-10C1096.48,-10 1120.83,-10 1136.35,-10"/>
<polygon fill="midnightblue" stroke="midnightblue" points="1072.15,-6.5001 1062.15,-10 1072.15,-13.5001 1072.15,-6.5001"/>
</g>
</g>
</svg>
