<?xml version="1.0" encoding="UTF-8" standalone="no"?>
<!DOCTYPE svg PUBLIC "-//W3C//DTD SVG 1.1//EN"
 "http://www.w3.org/Graphics/SVG/1.1/DTD/svg11.dtd">
<!-- Generated by graphviz version 2.38.0 (20140413.2041)
 -->
<!-- Title: Linux::RCOutput_Bebop::_start_prop Pages: 1 -->
<svg width="302pt" height="166pt"
 viewBox="0.00 0.00 302.00 165.50" xmlns="http://www.w3.org/2000/svg" xmlns:xlink="http://www.w3.org/1999/xlink">
<g id="graph0" class="graph" transform="scale(1 1) rotate(0) translate(4 161.5)">
<title>Linux::RCOutput_Bebop::_start_prop</title>
<polygon fill="white" stroke="none" points="-4,4 -4,-161.5 298,-161.5 298,4 -4,4"/>
<!-- Node1 -->
<g id="node1" class="node"><title>Node1</title>
<polygon fill="#bfbfbf" stroke="black" points="0,-61 0,-91 123,-91 123,-61 0,-61"/>
<text text-anchor="start" x="8" y="-79" font-family="Helvetica,sans-Serif" font-size="10.00">Linux::RCOutput_Bebop</text>
<text text-anchor="middle" x="61.5" y="-68" font-family="Helvetica,sans-Serif" font-size="10.00">::_start_prop</text>
</g>
<!-- Node2 -->
<g id="node2" class="node"><title>Node2</title>
<g id="a_node2"><a xlink:href="classAP__HAL_1_1I2CDevice.html#aecaa17329f98d50d437e53507b1e5c77" target="_top" xlink:title="AP_HAL::I2CDevice::\lget_semaphore">
<polygon fill="white" stroke="black" points="170,-127 170,-157 283,-157 283,-127 170,-127"/>
<text text-anchor="start" x="178" y="-145" font-family="Helvetica,sans-Serif" font-size="10.00">AP_HAL::I2CDevice::</text>
<text text-anchor="middle" x="226.5" y="-134" font-family="Helvetica,sans-Serif" font-size="10.00">get_semaphore</text>
</a>
</g>
</g>
<!-- Node1&#45;&gt;Node2 -->
<g id="edge1" class="edge"><title>Node1&#45;&gt;Node2</title>
<path fill="none" stroke="midnightblue" d="M97.1931,-91.1582C115.499,-99.0504 138.382,-108.749 159,-117 164.153,-119.062 169.549,-121.172 174.944,-123.249"/>
<polygon fill="midnightblue" stroke="midnightblue" points="174.009,-126.638 184.6,-126.934 176.505,-120.098 174.009,-126.638"/>
</g>
<!-- Node3 -->
<g id="node3" class="node"><title>Node3</title>
<g id="a_node3"><a xlink:href="classAP__HAL_1_1Semaphore.html#abd3a0affad8bb211981a979f30386589" target="_top" xlink:title="AP_HAL::Semaphore::take">
<polygon fill="white" stroke="black" points="159,-88.5 159,-107.5 294,-107.5 294,-88.5 159,-88.5"/>
<text text-anchor="middle" x="226.5" y="-95.5" font-family="Helvetica,sans-Serif" font-size="10.00">AP_HAL::Semaphore::take</text>
</a>
</g>
</g>
<!-- Node1&#45;&gt;Node3 -->
<g id="edge2" class="edge"><title>Node1&#45;&gt;Node3</title>
<path fill="none" stroke="midnightblue" d="M123.195,-84.192C131.522,-85.3159 140.16,-86.4818 148.728,-87.6382"/>
<polygon fill="midnightblue" stroke="midnightblue" points="148.353,-91.1192 158.731,-88.9883 149.289,-84.1821 148.353,-91.1192"/>
</g>
<!-- Node4 -->
<g id="node4" class="node"><title>Node4</title>
<g id="a_node4"><a xlink:href="classAP__HAL_1_1I2CDevice.html#a2e581ddc9b02eb73ad2fdf488fe8dc86" target="_top" xlink:title="AP_HAL::I2CDevice::\ltransfer">
<polygon fill="white" stroke="black" points="170,-39 170,-69 283,-69 283,-39 170,-39"/>
<text text-anchor="start" x="178" y="-57" font-family="Helvetica,sans-Serif" font-size="10.00">AP_HAL::I2CDevice::</text>
<text text-anchor="middle" x="226.5" y="-46" font-family="Helvetica,sans-Serif" font-size="10.00">transfer</text>
</a>
</g>
</g>
<!-- Node1&#45;&gt;Node4 -->
<g id="edge3" class="edge"><title>Node1&#45;&gt;Node4</title>
<path fill="none" stroke="midnightblue" d="M123.195,-67.808C135.146,-66.195 147.736,-64.4957 159.841,-62.8619"/>
<polygon fill="midnightblue" stroke="midnightblue" points="160.429,-66.3144 169.871,-61.5082 159.493,-59.3773 160.429,-66.3144"/>
</g>
<!-- Node5 -->
<g id="node5" class="node"><title>Node5</title>
<g id="a_node5"><a xlink:href="classAP__HAL_1_1Semaphore.html#afcdbf03d5bea9d83037acc93bfaea7ce" target="_top" xlink:title="AP_HAL::Semaphore::give">
<polygon fill="white" stroke="black" points="159.5,-0.5 159.5,-19.5 293.5,-19.5 293.5,-0.5 159.5,-0.5"/>
<text text-anchor="middle" x="226.5" y="-7.5" font-family="Helvetica,sans-Serif" font-size="10.00">AP_HAL::Semaphore::give</text>
</a>
</g>
</g>
<!-- Node1&#45;&gt;Node5 -->
<g id="edge4" class="edge"><title>Node1&#45;&gt;Node5</title>
<path fill="none" stroke="midnightblue" d="M91.1307,-60.9335C110.069,-51.3236 135.626,-39.025 159,-30 165.804,-27.3727 173.107,-24.8702 180.291,-22.5803"/>
<polygon fill="midnightblue" stroke="midnightblue" points="181.435,-25.8904 189.958,-19.5976 179.371,-19.2015 181.435,-25.8904"/>
</g>
</g>
</svg>
