<?xml version="1.0" encoding="UTF-8" standalone="no"?>
<!DOCTYPE svg PUBLIC "-//W3C//DTD SVG 1.1//EN"
 "http://www.w3.org/Graphics/SVG/1.1/DTD/svg11.dtd">
<!-- Generated by graphviz version 2.38.0 (20140413.2041)
 -->
<!-- Title: ByteBuffer::peekiovec Pages: 1 -->
<svg width="264pt" height="66pt"
 viewBox="0.00 0.00 264.00 66.00" xmlns="http://www.w3.org/2000/svg" xmlns:xlink="http://www.w3.org/1999/xlink">
<g id="graph0" class="graph" transform="scale(1 1) rotate(0) translate(4 62)">
<title>ByteBuffer::peekiovec</title>
<polygon fill="white" stroke="none" points="-4,4 -4,-62 260,-62 260,4 -4,4"/>
<!-- Node1 -->
<g id="node1" class="node"><title>Node1</title>
<polygon fill="#bfbfbf" stroke="black" points="0,-19.5 0,-38.5 113,-38.5 113,-19.5 0,-19.5"/>
<text text-anchor="middle" x="56.5" y="-26.5" font-family="Helvetica,sans-Serif" font-size="10.00">ByteBuffer::peekiovec</text>
</g>
<!-- Node2 -->
<g id="node2" class="node"><title>Node2</title>
<g id="a_node2"><a xlink:href="classByteBuffer.html#aacbc04305e267a33a431f8736f8d0d5d" target="_top" xlink:title="ByteBuffer::available">
<polygon fill="white" stroke="black" points="149,-38.5 149,-57.5 256,-57.5 256,-38.5 149,-38.5"/>
<text text-anchor="middle" x="202.5" y="-45.5" font-family="Helvetica,sans-Serif" font-size="10.00">ByteBuffer::available</text>
</a>
</g>
</g>
<!-- Node1&#45;&gt;Node2 -->
<g id="edge1" class="edge"><title>Node1&#45;&gt;Node2</title>
<path fill="none" stroke="midnightblue" d="M113.174,-36.3459C121.593,-37.4567 130.326,-38.609 138.88,-39.7376"/>
<polygon fill="midnightblue" stroke="midnightblue" points="138.437,-43.2094 148.809,-41.0477 139.353,-36.2696 138.437,-43.2094"/>
</g>
<!-- Node3 -->
<g id="node3" class="node"><title>Node3</title>
<g id="a_node3"><a xlink:href="classByteBuffer.html#ac8877785d9931ae293a216b46951b4a1" target="_top" xlink:title="ByteBuffer::readptr">
<polygon fill="white" stroke="black" points="153,-0.5 153,-19.5 252,-19.5 252,-0.5 153,-0.5"/>
<text text-anchor="middle" x="202.5" y="-7.5" font-family="Helvetica,sans-Serif" font-size="10.00">ByteBuffer::readptr</text>
</a>
</g>
</g>
<!-- Node1&#45;&gt;Node3 -->
<g id="edge2" class="edge"><title>Node1&#45;&gt;Node3</title>
<path fill="none" stroke="midnightblue" d="M113.174,-21.6541C122.807,-20.383 132.852,-19.0577 142.569,-17.7757"/>
<polygon fill="midnightblue" stroke="midnightblue" points="143.088,-21.2376 152.544,-16.4595 142.172,-14.2977 143.088,-21.2376"/>
</g>
</g>
</svg>
