<?xml version="1.0" encoding="UTF-8" standalone="no"?>
<!DOCTYPE svg PUBLIC "-//W3C//DTD SVG 1.1//EN"
 "http://www.w3.org/Graphics/SVG/1.1/DTD/svg11.dtd">
<!-- Generated by graphviz version 2.38.0 (20140413.2041)
 -->
<!-- Title: Linux::RCInput_RPI Pages: 1 -->
<svg width="361pt" height="163pt"
 viewBox="0.00 0.00 360.50 163.00" xmlns="http://www.w3.org/2000/svg" xmlns:xlink="http://www.w3.org/1999/xlink">
<g id="graph0" class="graph" transform="scale(1 1) rotate(0) translate(4 159)">
<title>Linux::RCInput_RPI</title>
<polygon fill="white" stroke="none" points="-4,4 -4,-159 356.5,-159 356.5,4 -4,4"/>
<!-- Node1 -->
<g id="node1" class="node"><title>Node1</title>
<polygon fill="#bfbfbf" stroke="black" points="109.5,-0.5 109.5,-19.5 214.5,-19.5 214.5,-0.5 109.5,-0.5"/>
<text text-anchor="middle" x="162" y="-7.5" font-family="Helvetica,sans-Serif" font-size="10.00">Linux::RCInput_RPI</text>
</g>
<!-- Node2 -->
<g id="node2" class="node"><title>Node2</title>
<g id="a_node2"><a xlink:href="classLinux_1_1RCInput.html" target="_top" xlink:title="Linux::RCInput">
<polygon fill="white" stroke="black" points="7.5,-78.5 7.5,-97.5 90.5,-97.5 90.5,-78.5 7.5,-78.5"/>
<text text-anchor="middle" x="49" y="-85.5" font-family="Helvetica,sans-Serif" font-size="10.00">Linux::RCInput</text>
</a>
</g>
</g>
<!-- Node2&#45;&gt;Node1 -->
<g id="edge1" class="edge"><title>Node2&#45;&gt;Node1</title>
<path fill="none" stroke="midnightblue" d="M70.4586,-72.5677C93.7072,-56.9314 130.036,-32.4981 149.189,-19.6165"/>
<polygon fill="midnightblue" stroke="midnightblue" points="68.3071,-69.7967 61.9625,-78.2818 72.2137,-75.6052 68.3071,-69.7967"/>
</g>
<!-- Node3 -->
<g id="node3" class="node"><title>Node3</title>
<g id="a_node3"><a xlink:href="classAP__HAL_1_1RCInput.html" target="_top" xlink:title="AP_HAL::RCInput">
<polygon fill="white" stroke="black" points="0,-135.5 0,-154.5 98,-154.5 98,-135.5 0,-135.5"/>
<text text-anchor="middle" x="49" y="-142.5" font-family="Helvetica,sans-Serif" font-size="10.00">AP_HAL::RCInput</text>
</a>
</g>
</g>
<!-- Node3&#45;&gt;Node2 -->
<g id="edge2" class="edge"><title>Node3&#45;&gt;Node2</title>
<path fill="none" stroke="midnightblue" d="M49,-125.117C49,-115.817 49,-105.056 49,-97.7149"/>
<polygon fill="midnightblue" stroke="midnightblue" points="45.5001,-125.406 49,-135.406 52.5001,-125.406 45.5001,-125.406"/>
</g>
<!-- Node4 -->
<g id="node4" class="node"><title>Node4</title>
<g id="a_node4"><a xlink:href="classLinux_1_1Memory__table.html" target="_top" xlink:title="Linux::Memory_table">
<polygon fill="white" stroke="black" points="108.5,-78.5 108.5,-97.5 215.5,-97.5 215.5,-78.5 108.5,-78.5"/>
<text text-anchor="middle" x="162" y="-85.5" font-family="Helvetica,sans-Serif" font-size="10.00">Linux::Memory_table</text>
</a>
</g>
</g>
<!-- Node4&#45;&gt;Node1 -->
<g id="edge3" class="edge"><title>Node4&#45;&gt;Node1</title>
<path fill="none" stroke="#9a32cd" stroke-dasharray="5,2" d="M162,-68.2239C162,-52.6974 162,-31.3582 162,-19.6165"/>
<polygon fill="#9a32cd" stroke="#9a32cd" points="158.5,-68.2818 162,-78.2818 165.5,-68.2819 158.5,-68.2818"/>
<text text-anchor="middle" x="190.5" y="-52" font-family="Helvetica,sans-Serif" font-size="10.00"> circle_buffer</text>
<text text-anchor="middle" x="190.5" y="-41" font-family="Helvetica,sans-Serif" font-size="10.00">con_blocks</text>
</g>
<!-- Node5 -->
<g id="node5" class="node"><title>Node5</title>
<g id="a_node5"><a xlink:href="classAP__HAL_1_1DigitalSource.html" target="_top" xlink:title="AP_HAL::DigitalSource">
<polygon fill="white" stroke="black" points="233.5,-78.5 233.5,-97.5 352.5,-97.5 352.5,-78.5 233.5,-78.5"/>
<text text-anchor="middle" x="293" y="-85.5" font-family="Helvetica,sans-Serif" font-size="10.00">AP_HAL::DigitalSource</text>
</a>
</g>
</g>
<!-- Node5&#45;&gt;Node1 -->
<g id="edge4" class="edge"><title>Node5&#45;&gt;Node1</title>
<path fill="none" stroke="#9a32cd" stroke-dasharray="5,2" d="M273.888,-72.1006C260.177,-61.7966 241.017,-48.1659 223,-38 210.493,-30.9429 195.79,-24.3876 183.953,-19.5038"/>
<polygon fill="#9a32cd" stroke="#9a32cd" points="271.97,-75.0401 282.044,-78.3215 276.216,-69.4741 271.97,-75.0401"/>
<text text-anchor="middle" x="281" y="-46.5" font-family="Helvetica,sans-Serif" font-size="10.00"> enable_pin</text>
</g>
</g>
</svg>
