<?xml version="1.0" encoding="UTF-8" standalone="no"?>
<!DOCTYPE svg PUBLIC "-//W3C//DTD SVG 1.1//EN"
 "http://www.w3.org/Graphics/SVG/1.1/DTD/svg11.dtd">
<!-- Generated by graphviz version 2.38.0 (20140413.2041)
 -->
<!-- Title: SITL::FlightAxis::FlightAxis Pages: 1 -->
<svg width="955pt" height="477pt"
 viewBox="0.00 0.00 955.00 476.50" xmlns="http://www.w3.org/2000/svg" xmlns:xlink="http://www.w3.org/1999/xlink">
<g id="graph0" class="graph" transform="scale(1 1) rotate(0) translate(4 472.5)">
<title>SITL::FlightAxis::FlightAxis</title>
<polygon fill="white" stroke="none" points="-4,4 -4,-472.5 951,-472.5 951,4 -4,4"/>
<!-- Node1 -->
<g id="node1" class="node"><title>Node1</title>
<polygon fill="#bfbfbf" stroke="black" points="0,-230 0,-249 137,-249 137,-230 0,-230"/>
<text text-anchor="middle" x="68.5" y="-237" font-family="Helvetica,sans-Serif" font-size="10.00">SITL::FlightAxis::FlightAxis</text>
</g>
<!-- Node2 -->
<g id="node2" class="node"><title>Node2</title>
<g id="a_node2"><a xlink:href="classAP__Param.html#a2b48c93dbe81f66160ffcd23f1d89dc4" target="_top" xlink:title="AP_Param::set_default\l_by_name">
<polygon fill="white" stroke="black" points="173,-302.5 173,-332.5 291,-332.5 291,-302.5 173,-302.5"/>
<text text-anchor="start" x="181" y="-320.5" font-family="Helvetica,sans-Serif" font-size="10.00">AP_Param::set_default</text>
<text text-anchor="middle" x="232" y="-309.5" font-family="Helvetica,sans-Serif" font-size="10.00">_by_name</text>
</a>
</g>
</g>
<!-- Node1&#45;&gt;Node2 -->
<g id="edge1" class="edge"><title>Node1&#45;&gt;Node2</title>
<path fill="none" stroke="midnightblue" d="M89.3031,-249.064C114.371,-261.172 158.175,-282.328 190.462,-297.921"/>
<polygon fill="midnightblue" stroke="midnightblue" points="189.131,-301.165 199.658,-302.363 192.175,-294.862 189.131,-301.165"/>
</g>
<!-- Node9 -->
<g id="node9" class="node"><title>Node9</title>
<g id="a_node9"><a xlink:href="classMatrix3.html#a62587bd216436f09f06b9e1330f84bc0" target="_top" xlink:title="Matrix3::from_euler">
<polygon fill="white" stroke="black" points="181.5,-249 181.5,-268 282.5,-268 282.5,-249 181.5,-249"/>
<text text-anchor="middle" x="232" y="-256" font-family="Helvetica,sans-Serif" font-size="10.00">Matrix3::from_euler</text>
</a>
</g>
</g>
<!-- Node1&#45;&gt;Node9 -->
<g id="edge12" class="edge"><title>Node1&#45;&gt;Node9</title>
<path fill="none" stroke="midnightblue" d="M137.055,-247.448C148.437,-248.787 160.179,-250.168 171.343,-251.482"/>
<polygon fill="midnightblue" stroke="midnightblue" points="171.065,-254.973 181.406,-252.665 171.883,-248.021 171.065,-254.973"/>
</g>
<!-- Node10 -->
<g id="node10" class="node"><title>Node10</title>
<g id="a_node10"><a xlink:href="AP__Math_8h.html#a75b14352ec1c95a8276af9a0813cfdc3" target="_top" xlink:title="radians">
<polygon fill="white" stroke="black" points="208,-211 208,-230 256,-230 256,-211 208,-211"/>
<text text-anchor="middle" x="232" y="-218" font-family="Helvetica,sans-Serif" font-size="10.00">radians</text>
</a>
</g>
</g>
<!-- Node1&#45;&gt;Node10 -->
<g id="edge13" class="edge"><title>Node1&#45;&gt;Node10</title>
<path fill="none" stroke="midnightblue" d="M137.055,-231.552C157.956,-229.093 180.07,-226.492 197.588,-224.431"/>
<polygon fill="midnightblue" stroke="midnightblue" points="198.328,-227.868 207.85,-223.223 197.51,-220.916 198.328,-227.868"/>
</g>
<!-- Node11 -->
<g id="node11" class="node"><title>Node11</title>
<g id="a_node11"><a xlink:href="namespaceAP__HAL.html#a71832f03d849a0c088f04fc98d3c8143" target="_top" xlink:title="AP_HAL::panic">
<polygon fill="white" stroke="black" points="190,-143 190,-162 274,-162 274,-143 190,-143"/>
<text text-anchor="middle" x="232" y="-150" font-family="Helvetica,sans-Serif" font-size="10.00">AP_HAL::panic</text>
</a>
</g>
</g>
<!-- Node1&#45;&gt;Node11 -->
<g id="edge14" class="edge"><title>Node1&#45;&gt;Node11</title>
<path fill="none" stroke="midnightblue" d="M87.4004,-229.857C115.655,-214.636 170.776,-184.943 203.9,-167.099"/>
<polygon fill="midnightblue" stroke="midnightblue" points="205.876,-170.01 213.019,-162.186 202.556,-163.847 205.876,-170.01"/>
</g>
<!-- Node3 -->
<g id="node3" class="node"><title>Node3</title>
<g id="a_node3"><a xlink:href="classAP__Param.html#a3e646a4ec73842265e47d9ccfe0ced9d" target="_top" xlink:title="AP_Param::find">
<polygon fill="white" stroke="black" points="355.5,-323 355.5,-342 441.5,-342 441.5,-323 355.5,-323"/>
<text text-anchor="middle" x="398.5" y="-330" font-family="Helvetica,sans-Serif" font-size="10.00">AP_Param::find</text>
</a>
</g>
</g>
<!-- Node2&#45;&gt;Node3 -->
<g id="edge2" class="edge"><title>Node2&#45;&gt;Node3</title>
<path fill="none" stroke="midnightblue" d="M291.46,-322.831C308.896,-324.421 327.893,-326.153 344.929,-327.706"/>
<polygon fill="midnightblue" stroke="midnightblue" points="344.974,-331.225 355.251,-328.647 345.61,-324.254 344.974,-331.225"/>
</g>
<!-- Node4 -->
<g id="node4" class="node"><title>Node4</title>
<g id="a_node4"><a xlink:href="replace_8cpp.html#a880bcc7b85a09e6254691bebd5344b51" target="_top" xlink:title="strnlen">
<polygon fill="white" stroke="black" points="711,-449 711,-468 757,-468 757,-449 711,-449"/>
<text text-anchor="middle" x="734" y="-456" font-family="Helvetica,sans-Serif" font-size="10.00">strnlen</text>
</a>
</g>
</g>
<!-- Node3&#45;&gt;Node4 -->
<g id="edge3" class="edge"><title>Node3&#45;&gt;Node4</title>
<path fill="none" stroke="midnightblue" d="M415.259,-342.204C435.635,-354.451 472.492,-375.592 506,-389.5 575.082,-418.174 595.431,-416.765 667,-438.5 678.113,-441.875 690.279,-445.563 701.106,-448.844"/>
<polygon fill="midnightblue" stroke="midnightblue" points="700.413,-452.291 710.998,-451.84 702.442,-445.591 700.413,-452.291"/>
</g>
<!-- Node5 -->
<g id="node5" class="node"><title>Node5</title>
<g id="a_node5"><a xlink:href="classAP__Param.html#a69baa95e011c7a8c4a29625c558c5501" target="_top" xlink:title="get group_info pointer based on flags ">
<polygon fill="white" stroke="black" points="667,-323 667,-342 801,-342 801,-323 667,-323"/>
<text text-anchor="middle" x="734" y="-330" font-family="Helvetica,sans-Serif" font-size="10.00">AP_Param::get_group_info</text>
</a>
</g>
</g>
<!-- Node3&#45;&gt;Node5 -->
<g id="edge4" class="edge"><title>Node3&#45;&gt;Node5</title>
<path fill="none" stroke="midnightblue" d="M441.738,-332.5C495.754,-332.5 590.268,-332.5 656.958,-332.5"/>
<polygon fill="midnightblue" stroke="midnightblue" points="656.999,-336 666.999,-332.5 656.999,-329 656.999,-336"/>
</g>
<!-- Node6 -->
<g id="node6" class="node"><title>Node6</title>
<g id="a_node6"><a xlink:href="classAP__Param.html#a6d02e2c94f578782f8f68ef0fec7a43d" target="_top" xlink:title="AP_Param::find_group">
<polygon fill="white" stroke="black" points="511,-361 511,-380 626,-380 626,-361 511,-361"/>
<text text-anchor="middle" x="568.5" y="-368" font-family="Helvetica,sans-Serif" font-size="10.00">AP_Param::find_group</text>
</a>
</g>
</g>
<!-- Node3&#45;&gt;Node6 -->
<g id="edge5" class="edge"><title>Node3&#45;&gt;Node6</title>
<path fill="none" stroke="midnightblue" d="M441.893,-342.089C464.263,-347.149 491.898,-353.4 515.547,-358.749"/>
<polygon fill="midnightblue" stroke="midnightblue" points="514.886,-362.187 525.411,-360.98 516.43,-355.36 514.886,-362.187"/>
</g>
<!-- Node8 -->
<g id="node8" class="node"><title>Node8</title>
<g id="a_node8"><a xlink:href="classAP__Param.html#a1dcc7820ea51e29cfb762387a9212818" target="_top" xlink:title="AP_Param::get_base">
<polygon fill="white" stroke="black" points="837,-361 837,-380 947,-380 947,-361 837,-361"/>
<text text-anchor="middle" x="892" y="-368" font-family="Helvetica,sans-Serif" font-size="10.00">AP_Param::get_base</text>
</a>
</g>
</g>
<!-- Node3&#45;&gt;Node8 -->
<g id="edge11" class="edge"><title>Node3&#45;&gt;Node8</title>
<path fill="none" stroke="midnightblue" d="M436.141,-322.995C507.869,-306.067 671.147,-275.839 801,-313.5 828.227,-321.397 855.115,-340.272 872.309,-354.148"/>
<polygon fill="midnightblue" stroke="midnightblue" points="870.445,-357.15 880.367,-360.864 874.926,-351.773 870.445,-357.15"/>
</g>
<!-- Node6&#45;&gt;Node4 -->
<g id="edge10" class="edge"><title>Node6&#45;&gt;Node4</title>
<path fill="none" stroke="midnightblue" d="M580.759,-380.152C598.183,-394.654 633.206,-422.108 667,-438.5 677.722,-443.701 690.083,-447.881 701.188,-451.047"/>
<polygon fill="midnightblue" stroke="midnightblue" points="700.385,-454.456 710.951,-453.671 702.202,-447.695 700.385,-454.456"/>
</g>
<!-- Node6&#45;&gt;Node5 -->
<g id="edge6" class="edge"><title>Node6&#45;&gt;Node5</title>
<path fill="none" stroke="midnightblue" d="M610.758,-360.911C632.431,-355.874 659.183,-349.656 682.13,-344.323"/>
<polygon fill="midnightblue" stroke="midnightblue" points="683.091,-347.693 692.039,-342.02 681.506,-340.875 683.091,-347.693"/>
</g>
<!-- Node7 -->
<g id="node7" class="node"><title>Node7</title>
<g id="a_node7"><a xlink:href="classAP__Param.html#aa8b43d95bca6adbf5497e8102cf73857" target="_top" xlink:title="AP_Param::adjust_group\l_offset">
<polygon fill="white" stroke="black" points="671.5,-399.5 671.5,-429.5 796.5,-429.5 796.5,-399.5 671.5,-399.5"/>
<text text-anchor="start" x="679.5" y="-417.5" font-family="Helvetica,sans-Serif" font-size="10.00">AP_Param::adjust_group</text>
<text text-anchor="middle" x="734" y="-406.5" font-family="Helvetica,sans-Serif" font-size="10.00">_offset</text>
</a>
</g>
</g>
<!-- Node6&#45;&gt;Node7 -->
<g id="edge7" class="edge"><title>Node6&#45;&gt;Node7</title>
<path fill="none" stroke="midnightblue" d="M604.977,-380.047C623.221,-384.957 646.049,-391.1 667.357,-396.835"/>
<polygon fill="midnightblue" stroke="midnightblue" points="666.452,-400.216 677.018,-399.435 668.272,-393.456 666.452,-400.216"/>
</g>
<!-- Node6&#45;&gt;Node8 -->
<g id="edge9" class="edge"><title>Node6&#45;&gt;Node8</title>
<path fill="none" stroke="midnightblue" d="M626.238,-370.5C682.356,-370.5 768.113,-370.5 826.719,-370.5"/>
<polygon fill="midnightblue" stroke="midnightblue" points="826.97,-374 836.97,-370.5 826.97,-367 826.97,-374"/>
</g>
<!-- Node7&#45;&gt;Node8 -->
<g id="edge8" class="edge"><title>Node7&#45;&gt;Node8</title>
<path fill="none" stroke="midnightblue" d="M788.25,-399.481C807.464,-394.061 828.914,-388.011 847.225,-382.847"/>
<polygon fill="midnightblue" stroke="midnightblue" points="848.366,-386.162 857.041,-380.078 846.466,-379.424 848.366,-386.162"/>
</g>
<!-- Node12 -->
<g id="node12" class="node"><title>Node12</title>
<g id="a_node12"><a xlink:href="classAP__HAL_1_1RCInput.html#a2bea13d38f2b9ae8bf5193a3a69f0a31" target="_top" xlink:title="AP_HAL::RCInput::teardown">
<polygon fill="white" stroke="black" points="327,-143 327,-162 470,-162 470,-143 327,-143"/>
<text text-anchor="middle" x="398.5" y="-150" font-family="Helvetica,sans-Serif" font-size="10.00">AP_HAL::RCInput::teardown</text>
</a>
</g>
</g>
<!-- Node11&#45;&gt;Node12 -->
<g id="edge15" class="edge"><title>Node11&#45;&gt;Node12</title>
<path fill="none" stroke="midnightblue" d="M274.086,-152.5C287.076,-152.5 301.911,-152.5 316.685,-152.5"/>
<polygon fill="midnightblue" stroke="midnightblue" points="316.88,-156 326.88,-152.5 316.88,-149 316.88,-156"/>
</g>
<!-- Node19 -->
<g id="node19" class="node"><title>Node19</title>
<g id="a_node19"><a xlink:href="classAP__HAL_1_1Scheduler.html#a78c4f1b1f192ac1c99544b6cc8f099b0" target="_top" xlink:title="AP_HAL::Scheduler::\ldelay_microseconds">
<polygon fill="white" stroke="black" points="343.5,-93.5 343.5,-123.5 453.5,-123.5 453.5,-93.5 343.5,-93.5"/>
<text text-anchor="start" x="351.5" y="-111.5" font-family="Helvetica,sans-Serif" font-size="10.00">AP_HAL::Scheduler::</text>
<text text-anchor="middle" x="398.5" y="-100.5" font-family="Helvetica,sans-Serif" font-size="10.00">delay_microseconds</text>
</a>
</g>
</g>
<!-- Node11&#45;&gt;Node19 -->
<g id="edge22" class="edge"><title>Node11&#45;&gt;Node19</title>
<path fill="none" stroke="midnightblue" d="M268.694,-142.953C287.623,-137.89 311.457,-131.514 333.461,-125.629"/>
<polygon fill="midnightblue" stroke="midnightblue" points="334.662,-128.931 343.418,-122.966 332.853,-122.169 334.662,-128.931"/>
</g>
<!-- Node13 -->
<g id="node13" class="node"><title>Node13</title>
<g id="a_node13"><a xlink:href="classAP__HAL_1_1RCInput.html#aee1fade33080edef83dd7db0fad0f7da" target="_top" xlink:title="AP_HAL::RCInput::new\l_input">
<polygon fill="white" stroke="black" points="507.5,-137.5 507.5,-167.5 629.5,-167.5 629.5,-137.5 507.5,-137.5"/>
<text text-anchor="start" x="515.5" y="-155.5" font-family="Helvetica,sans-Serif" font-size="10.00">AP_HAL::RCInput::new</text>
<text text-anchor="middle" x="568.5" y="-144.5" font-family="Helvetica,sans-Serif" font-size="10.00">_input</text>
</a>
</g>
</g>
<!-- Node12&#45;&gt;Node13 -->
<g id="edge16" class="edge"><title>Node12&#45;&gt;Node13</title>
<path fill="none" stroke="midnightblue" d="M470.26,-152.5C479.251,-152.5 488.45,-152.5 497.431,-152.5"/>
<polygon fill="midnightblue" stroke="midnightblue" points="497.454,-156 507.454,-152.5 497.454,-149 497.454,-156"/>
</g>
<!-- Node14 -->
<g id="node14" class="node"><title>Node14</title>
<g id="a_node14"><a xlink:href="classAP__HAL_1_1RCInput.html#ae55f959c6115c1f41783af3a2b6c4fcd" target="_top" xlink:title="AP_HAL::RCInput::num\l_channels">
<polygon fill="white" stroke="black" points="507.5,-88.5 507.5,-118.5 629.5,-118.5 629.5,-88.5 507.5,-88.5"/>
<text text-anchor="start" x="515.5" y="-106.5" font-family="Helvetica,sans-Serif" font-size="10.00">AP_HAL::RCInput::num</text>
<text text-anchor="middle" x="568.5" y="-95.5" font-family="Helvetica,sans-Serif" font-size="10.00">_channels</text>
</a>
</g>
</g>
<!-- Node12&#45;&gt;Node14 -->
<g id="edge17" class="edge"><title>Node12&#45;&gt;Node14</title>
<path fill="none" stroke="midnightblue" d="M433.591,-142.923C445.157,-139.649 458.149,-135.943 470,-132.5 482.177,-128.962 495.194,-125.127 507.621,-121.44"/>
<polygon fill="midnightblue" stroke="midnightblue" points="508.845,-124.728 517.434,-118.524 506.851,-118.018 508.845,-124.728"/>
</g>
<!-- Node15 -->
<g id="node15" class="node"><title>Node15</title>
<g id="a_node15"><a xlink:href="classAP__HAL_1_1RCInput.html#a078fd7e6d2e6a899009ec674a8e03498" target="_top" xlink:title="AP_HAL::RCInput::read">
<polygon fill="white" stroke="black" points="507.5,-50 507.5,-69 629.5,-69 629.5,-50 507.5,-50"/>
<text text-anchor="middle" x="568.5" y="-57" font-family="Helvetica,sans-Serif" font-size="10.00">AP_HAL::RCInput::read</text>
</a>
</g>
</g>
<!-- Node12&#45;&gt;Node15 -->
<g id="edge18" class="edge"><title>Node12&#45;&gt;Node15</title>
<path fill="none" stroke="midnightblue" d="M450.08,-142.912C457.155,-140.248 464.036,-136.845 470,-132.5 493.314,-115.516 482.885,-95.7539 506,-78.5 508.516,-76.6221 511.22,-74.9275 514.041,-73.3986"/>
<polygon fill="midnightblue" stroke="midnightblue" points="515.774,-76.4528 523.361,-69.0583 512.819,-70.1071 515.774,-76.4528"/>
</g>
<!-- Node16 -->
<g id="node16" class="node"><title>Node16</title>
<g id="a_node16"><a xlink:href="classAP__HAL_1_1RCInput.html#a0989c5ca271631fe655c047d4a022a3d" target="_top" xlink:title="AP_HAL::RCInput::set\l_overrides">
<polygon fill="white" stroke="black" points="510,-0.5 510,-30.5 627,-30.5 627,-0.5 510,-0.5"/>
<text text-anchor="start" x="518" y="-18.5" font-family="Helvetica,sans-Serif" font-size="10.00">AP_HAL::RCInput::set</text>
<text text-anchor="middle" x="568.5" y="-7.5" font-family="Helvetica,sans-Serif" font-size="10.00">_overrides</text>
</a>
</g>
</g>
<!-- Node12&#45;&gt;Node16 -->
<g id="edge19" class="edge"><title>Node12&#45;&gt;Node16</title>
<path fill="none" stroke="midnightblue" d="M453.479,-142.955C459.508,-140.279 465.196,-136.861 470,-132.5 502.51,-102.987 475.157,-71.7504 506,-40.5 507.427,-39.0542 508.949,-37.689 510.546,-36.4001"/>
<polygon fill="midnightblue" stroke="midnightblue" points="512.788,-39.1068 519.066,-30.5723 508.837,-33.329 512.788,-39.1068"/>
</g>
<!-- Node17 -->
<g id="node17" class="node"><title>Node17</title>
<g id="a_node17"><a xlink:href="classAP__HAL_1_1RCInput.html#abfd037ca0989a0422a60f418d34eb7d5" target="_top" xlink:title="AP_HAL::RCInput::set\l_override">
<polygon fill="white" stroke="black" points="510,-235.5 510,-265.5 627,-265.5 627,-235.5 510,-235.5"/>
<text text-anchor="start" x="518" y="-253.5" font-family="Helvetica,sans-Serif" font-size="10.00">AP_HAL::RCInput::set</text>
<text text-anchor="middle" x="568.5" y="-242.5" font-family="Helvetica,sans-Serif" font-size="10.00">_override</text>
</a>
</g>
</g>
<!-- Node12&#45;&gt;Node17 -->
<g id="edge20" class="edge"><title>Node12&#45;&gt;Node17</title>
<path fill="none" stroke="midnightblue" d="M411.728,-162.182C430.975,-177.114 469.873,-206.068 506,-225.5 509.711,-227.496 513.617,-229.432 517.586,-231.284"/>
<polygon fill="midnightblue" stroke="midnightblue" points="516.341,-234.562 526.899,-235.443 519.195,-228.17 516.341,-234.562"/>
</g>
<!-- Node18 -->
<g id="node18" class="node"><title>Node18</title>
<g id="a_node18"><a xlink:href="classAP__HAL_1_1RCInput.html#ab3671bbe43fdb97c53071d7832ac256e" target="_top" xlink:title="AP_HAL::RCInput::clear\l_overrides">
<polygon fill="white" stroke="black" points="506,-186.5 506,-216.5 631,-216.5 631,-186.5 506,-186.5"/>
<text text-anchor="start" x="514" y="-204.5" font-family="Helvetica,sans-Serif" font-size="10.00">AP_HAL::RCInput::clear</text>
<text text-anchor="middle" x="568.5" y="-193.5" font-family="Helvetica,sans-Serif" font-size="10.00">_overrides</text>
</a>
</g>
</g>
<!-- Node12&#45;&gt;Node18 -->
<g id="edge21" class="edge"><title>Node12&#45;&gt;Node18</title>
<path fill="none" stroke="midnightblue" d="M432.291,-162.064C453.282,-168.186 481.171,-176.321 506.167,-183.611"/>
<polygon fill="midnightblue" stroke="midnightblue" points="505.365,-187.023 515.945,-186.463 507.325,-180.303 505.365,-187.023"/>
</g>
</g>
</svg>
