<?xml version="1.0" encoding="UTF-8" standalone="no"?>
<!DOCTYPE svg PUBLIC "-//W3C//DTD SVG 1.1//EN"
 "http://www.w3.org/Graphics/SVG/1.1/DTD/svg11.dtd">
<!-- Generated by graphviz version 2.38.0 (20140413.2041)
 -->
<!-- Title: Compass::consistent Pages: 1 -->
<svg width="1732pt" height="297pt"
 viewBox="0.00 0.00 1732.00 296.50" xmlns="http://www.w3.org/2000/svg" xmlns:xlink="http://www.w3.org/1999/xlink">
<g id="graph0" class="graph" transform="scale(1 1) rotate(0) translate(4 292.5)">
<title>Compass::consistent</title>
<polygon fill="white" stroke="none" points="-4,4 -4,-292.5 1728,-292.5 1728,4 -4,4"/>
<!-- Node1 -->
<g id="node1" class="node"><title>Node1</title>
<polygon fill="#bfbfbf" stroke="black" points="0,-197.5 0,-216.5 110,-216.5 110,-197.5 0,-197.5"/>
<text text-anchor="middle" x="55" y="-204.5" font-family="Helvetica,sans-Serif" font-size="10.00">Compass::consistent</text>
</g>
<!-- Node2 -->
<g id="node2" class="node"><title>Node2</title>
<g id="a_node2"><a xlink:href="classCompass.html#a71d8ad1cb96263dfe4c0f712f14fac97" target="_top" xlink:title="Compass::compass_cal\l_requires_reboot">
<polygon fill="white" stroke="black" points="159,-214 159,-244 281,-244 281,-214 159,-214"/>
<text text-anchor="start" x="167" y="-232" font-family="Helvetica,sans-Serif" font-size="10.00">Compass::compass_cal</text>
<text text-anchor="middle" x="220" y="-221" font-family="Helvetica,sans-Serif" font-size="10.00">_requires_reboot</text>
</a>
</g>
</g>
<!-- Node1&#45;&gt;Node2 -->
<g id="edge1" class="edge"><title>Node1&#45;&gt;Node2</title>
<path fill="none" stroke="midnightblue" d="M120.297,-215.678C132.978,-217.39 146.242,-219.18 158.782,-220.872"/>
<polygon fill="midnightblue" stroke="midnightblue" points="120.655,-212.195 110.277,-214.326 119.719,-219.132 120.655,-212.195"/>
</g>
<!-- Node3 -->
<g id="node3" class="node"><title>Node3</title>
<g id="a_node3"><a xlink:href="classAP__Arming.html#a24332b3f5e2e233914bce12e69ae9564" target="_top" xlink:title="AP_Arming::compass\l_checks">
<polygon fill="white" stroke="black" points="347,-258 347,-288 459,-288 459,-258 347,-258"/>
<text text-anchor="start" x="355" y="-276" font-family="Helvetica,sans-Serif" font-size="10.00">AP_Arming::compass</text>
<text text-anchor="middle" x="403" y="-265" font-family="Helvetica,sans-Serif" font-size="10.00">_checks</text>
</a>
</g>
</g>
<!-- Node1&#45;&gt;Node3 -->
<g id="edge5" class="edge"><title>Node1&#45;&gt;Node3</title>
<path fill="none" stroke="midnightblue" d="M79.1608,-222.08C96.7423,-232.703 121.92,-246.2 146,-253 213.356,-272.021 294.381,-275.234 346.975,-274.874"/>
<polygon fill="midnightblue" stroke="midnightblue" points="80.5718,-218.836 70.23,-216.535 76.8792,-224.783 80.5718,-218.836"/>
</g>
<!-- Node6 -->
<g id="node6" class="node"><title>Node6</title>
<g id="a_node6"><a xlink:href="classNavEKF2__core.html#abf6ac301297f486d9690d97c7a19dad8" target="_top" xlink:title="NavEKF2_core::readMagData">
<polygon fill="white" stroke="black" points="146,-175.5 146,-194.5 294,-194.5 294,-175.5 146,-175.5"/>
<text text-anchor="middle" x="220" y="-182.5" font-family="Helvetica,sans-Serif" font-size="10.00">NavEKF2_core::readMagData</text>
</a>
</g>
</g>
<!-- Node1&#45;&gt;Node6 -->
<g id="edge6" class="edge"><title>Node1&#45;&gt;Node6</title>
<path fill="none" stroke="midnightblue" d="M120.189,-198.336C129.46,-197.085 139.044,-195.792 148.432,-194.525"/>
<polygon fill="midnightblue" stroke="midnightblue" points="119.719,-194.868 110.277,-199.674 120.655,-201.805 119.719,-194.868"/>
</g>
<!-- Node23 -->
<g id="node23" class="node"><title>Node23</title>
<g id="a_node23"><a xlink:href="classNavEKF3__core.html#a39fe9f76e9c368cba51e9af9b2367513" target="_top" xlink:title="NavEKF3_core::readMagData">
<polygon fill="white" stroke="black" points="146,-60.5 146,-79.5 294,-79.5 294,-60.5 146,-60.5"/>
<text text-anchor="middle" x="220" y="-67.5" font-family="Helvetica,sans-Serif" font-size="10.00">NavEKF3_core::readMagData</text>
</a>
</g>
</g>
<!-- Node1&#45;&gt;Node23 -->
<g id="edge26" class="edge"><title>Node1&#45;&gt;Node23</title>
<path fill="none" stroke="midnightblue" d="M75.3285,-190.755C109.503,-162.032 179.599,-103.116 207.333,-79.8063"/>
<polygon fill="midnightblue" stroke="midnightblue" points="72.8651,-188.253 67.4618,-197.366 77.369,-193.612 72.8651,-188.253"/>
</g>
<!-- Node2&#45;&gt;Node3 -->
<g id="edge2" class="edge"><title>Node2&#45;&gt;Node3</title>
<path fill="none" stroke="midnightblue" d="M290.864,-245.983C309.378,-250.484 329.109,-255.281 346.729,-259.564"/>
<polygon fill="midnightblue" stroke="midnightblue" points="291.563,-242.552 281.019,-243.59 289.909,-249.353 291.563,-242.552"/>
</g>
<!-- Node4 -->
<g id="node4" class="node"><title>Node4</title>
<g id="a_node4"><a xlink:href="classAP__Arming.html#a73c03baf7f22b7124a2ac9e9286a850a" target="_top" xlink:title="AP_Arming::pre_arm\l_checks">
<polygon fill="white" stroke="black" points="527,-258 527,-288 634,-288 634,-258 527,-258"/>
<text text-anchor="start" x="535" y="-276" font-family="Helvetica,sans-Serif" font-size="10.00">AP_Arming::pre_arm</text>
<text text-anchor="middle" x="580.5" y="-265" font-family="Helvetica,sans-Serif" font-size="10.00">_checks</text>
</a>
</g>
</g>
<!-- Node3&#45;&gt;Node4 -->
<g id="edge3" class="edge"><title>Node3&#45;&gt;Node4</title>
<path fill="none" stroke="midnightblue" d="M469.118,-273C488.11,-273 508.62,-273 526.747,-273"/>
<polygon fill="midnightblue" stroke="midnightblue" points="469.048,-269.5 459.048,-273 469.048,-276.5 469.048,-269.5"/>
</g>
<!-- Node5 -->
<g id="node5" class="node"><title>Node5</title>
<g id="a_node5"><a xlink:href="classAP__Arming.html#a47b859d9929a736df2f08a1cad03efcb" target="_top" xlink:title="AP_Arming::arm">
<polygon fill="white" stroke="black" points="723,-263.5 723,-282.5 812,-282.5 812,-263.5 723,-263.5"/>
<text text-anchor="middle" x="767.5" y="-270.5" font-family="Helvetica,sans-Serif" font-size="10.00">AP_Arming::arm</text>
</a>
</g>
</g>
<!-- Node4&#45;&gt;Node5 -->
<g id="edge4" class="edge"><title>Node4&#45;&gt;Node5</title>
<path fill="none" stroke="midnightblue" d="M644.125,-273C670.022,-273 699.42,-273 722.91,-273"/>
<polygon fill="midnightblue" stroke="midnightblue" points="644.019,-269.5 634.019,-273 644.019,-276.5 644.019,-269.5"/>
</g>
<!-- Node7 -->
<g id="node7" class="node"><title>Node7</title>
<g id="a_node7"><a xlink:href="classNavEKF2__core.html#a4a06ae47c3edebdecd2b179a0567f00b" target="_top" xlink:title="NavEKF2_core::Initialise\lFilterBootstrap">
<polygon fill="white" stroke="black" points="518,-121 518,-151 643,-151 643,-121 518,-121"/>
<text text-anchor="start" x="526" y="-139" font-family="Helvetica,sans-Serif" font-size="10.00">NavEKF2_core::Initialise</text>
<text text-anchor="middle" x="580.5" y="-128" font-family="Helvetica,sans-Serif" font-size="10.00">FilterBootstrap</text>
</a>
</g>
</g>
<!-- Node6&#45;&gt;Node7 -->
<g id="edge7" class="edge"><title>Node6&#45;&gt;Node7</title>
<path fill="none" stroke="midnightblue" d="M266.882,-173.086C286.249,-168.421 309.11,-163.386 330,-160 393.681,-149.679 467.279,-143.263 517.951,-139.691"/>
<polygon fill="midnightblue" stroke="midnightblue" points="265.982,-169.703 257.102,-175.482 267.647,-176.502 265.982,-169.703"/>
</g>
<!-- Node18 -->
<g id="node18" class="node"><title>Node18</title>
<g id="a_node18"><a xlink:href="classNavEKF2__core.html#af6d172634e15ba1643bf4c53c390f5e2" target="_top" xlink:title="NavEKF2_core::calcQuatAnd\lFieldStates">
<polygon fill="white" stroke="black" points="330,-170 330,-200 476,-200 476,-170 330,-170"/>
<text text-anchor="start" x="338" y="-188" font-family="Helvetica,sans-Serif" font-size="10.00">NavEKF2_core::calcQuatAnd</text>
<text text-anchor="middle" x="403" y="-177" font-family="Helvetica,sans-Serif" font-size="10.00">FieldStates</text>
</a>
</g>
</g>
<!-- Node6&#45;&gt;Node18 -->
<g id="edge18" class="edge"><title>Node6&#45;&gt;Node18</title>
<path fill="none" stroke="midnightblue" d="M304.11,-185C312.69,-185 321.359,-185 329.806,-185"/>
<polygon fill="midnightblue" stroke="midnightblue" points="304.098,-181.5 294.098,-185 304.098,-188.5 304.098,-181.5"/>
</g>
<!-- Node20 -->
<g id="node20" class="node"><title>Node20</title>
<g id="a_node20"><a xlink:href="classNavEKF2__core.html#aa0f6cd840e93e0233f056c88ce45ef85" target="_top" xlink:title="NavEKF2_core::SelectMagFusion">
<polygon fill="white" stroke="black" points="685,-188.5 685,-207.5 850,-207.5 850,-188.5 685,-188.5"/>
<text text-anchor="middle" x="767.5" y="-195.5" font-family="Helvetica,sans-Serif" font-size="10.00">NavEKF2_core::SelectMagFusion</text>
</a>
</g>
</g>
<!-- Node6&#45;&gt;Node20 -->
<g id="edge25" class="edge"><title>Node6&#45;&gt;Node20</title>
<path fill="none" stroke="midnightblue" d="M265.421,-197.067C285.052,-201.805 308.511,-206.662 330,-209 453.215,-222.404 597.091,-214.2 684.977,-206.521"/>
<polygon fill="midnightblue" stroke="midnightblue" points="266.084,-193.625 255.535,-194.615 264.398,-200.419 266.084,-193.625"/>
</g>
<!-- Node8 -->
<g id="node8" class="node"><title>Node8</title>
<g id="a_node8"><a xlink:href="classNavEKF2.html#a9c447b8d84abf2dfc845ddbbbad46a2b" target="_top" xlink:title="NavEKF2::InitialiseFilter">
<polygon fill="white" stroke="black" points="1065,-126.5 1065,-145.5 1188,-145.5 1188,-126.5 1065,-126.5"/>
<text text-anchor="middle" x="1126.5" y="-133.5" font-family="Helvetica,sans-Serif" font-size="10.00">NavEKF2::InitialiseFilter</text>
</a>
</g>
</g>
<!-- Node7&#45;&gt;Node8 -->
<g id="edge8" class="edge"><title>Node7&#45;&gt;Node8</title>
<path fill="none" stroke="midnightblue" d="M653.263,-136C761.291,-136 963.779,-136 1064.86,-136"/>
<polygon fill="midnightblue" stroke="midnightblue" points="653.11,-132.5 643.11,-136 653.11,-139.5 653.11,-132.5"/>
</g>
<!-- Node9 -->
<g id="node9" class="node"><title>Node9</title>
<g id="a_node9"><a xlink:href="classAP__AHRS__NavEKF.html#a0187c6d3d4348b002a204c05d3e94b07" target="_top" xlink:title="AP_AHRS_NavEKF::update_EKF2">
<polygon fill="white" stroke="black" points="1224,-202.5 1224,-221.5 1396,-221.5 1396,-202.5 1224,-202.5"/>
<text text-anchor="middle" x="1310" y="-209.5" font-family="Helvetica,sans-Serif" font-size="10.00">AP_AHRS_NavEKF::update_EKF2</text>
</a>
</g>
</g>
<!-- Node8&#45;&gt;Node9 -->
<g id="edge9" class="edge"><title>Node8&#45;&gt;Node9</title>
<path fill="none" stroke="midnightblue" d="M1149,-151.382C1167.92,-164.243 1196.63,-182.173 1224,-193 1233.56,-196.783 1244.04,-199.896 1254.28,-202.43"/>
<polygon fill="midnightblue" stroke="midnightblue" points="1150.77,-148.346 1140.55,-145.529 1146.78,-154.1 1150.77,-148.346"/>
</g>
<!-- Node12 -->
<g id="node12" class="node"><title>Node12</title>
<g id="a_node12"><a xlink:href="classAP__AHRS__NavEKF.html#a532ff0df024a4537e5a108c42ba405a7" target="_top" xlink:title="AP_AHRS_NavEKF::reset">
<polygon fill="white" stroke="black" points="1243,-126.5 1243,-145.5 1377,-145.5 1377,-126.5 1243,-126.5"/>
<text text-anchor="middle" x="1310" y="-133.5" font-family="Helvetica,sans-Serif" font-size="10.00">AP_AHRS_NavEKF::reset</text>
</a>
</g>
</g>
<!-- Node8&#45;&gt;Node12 -->
<g id="edge12" class="edge"><title>Node8&#45;&gt;Node12</title>
<path fill="none" stroke="midnightblue" d="M1198.2,-136C1212.86,-136 1228.26,-136 1242.75,-136"/>
<polygon fill="midnightblue" stroke="midnightblue" points="1198.19,-132.5 1188.19,-136 1198.19,-139.5 1198.19,-132.5"/>
</g>
<!-- Node13 -->
<g id="node13" class="node"><title>Node13</title>
<g id="a_node13"><a xlink:href="classAP__AHRS__NavEKF.html#a9bd3c7f1793a48cd0d736b19fbfaf19a" target="_top" xlink:title="AP_AHRS_NavEKF::reset\l_attitude">
<polygon fill="white" stroke="black" points="1243,-77 1243,-107 1377,-107 1377,-77 1243,-77"/>
<text text-anchor="start" x="1251" y="-95" font-family="Helvetica,sans-Serif" font-size="10.00">AP_AHRS_NavEKF::reset</text>
<text text-anchor="middle" x="1310" y="-84" font-family="Helvetica,sans-Serif" font-size="10.00">_attitude</text>
</a>
</g>
</g>
<!-- Node8&#45;&gt;Node13 -->
<g id="edge13" class="edge"><title>Node8&#45;&gt;Node13</title>
<path fill="none" stroke="midnightblue" d="M1176.81,-124.045C1198.41,-118.811 1223.98,-112.611 1246.86,-107.065"/>
<polygon fill="midnightblue" stroke="midnightblue" points="1175.78,-120.695 1166.88,-126.453 1177.43,-127.498 1175.78,-120.695"/>
</g>
<!-- Node14 -->
<g id="node14" class="node"><title>Node14</title>
<g id="a_node14"><a xlink:href="classNavEKF2.html#ab18af2714c15fcf190493c01e2a28c73" target="_top" xlink:title="NavEKF2::activeCores">
<polygon fill="white" stroke="black" points="1251,-164.5 1251,-183.5 1369,-183.5 1369,-164.5 1251,-164.5"/>
<text text-anchor="middle" x="1310" y="-171.5" font-family="Helvetica,sans-Serif" font-size="10.00">NavEKF2::activeCores</text>
</a>
</g>
</g>
<!-- Node8&#45;&gt;Node14 -->
<g id="edge14" class="edge"><title>Node8&#45;&gt;Node14</title>
<path fill="none" stroke="midnightblue" d="M1183.29,-147.681C1209.03,-153.07 1239.2,-159.386 1263.53,-164.48"/>
<polygon fill="midnightblue" stroke="midnightblue" points="1183.81,-144.213 1173.3,-145.589 1182.37,-151.064 1183.81,-144.213"/>
</g>
<!-- Node10 -->
<g id="node10" class="node"><title>Node10</title>
<g id="a_node10"><a xlink:href="classAP__AHRS__NavEKF.html#ac8111979c5dc37a55b2c50818534ea52" target="_top" xlink:title="AP_AHRS_NavEKF::update">
<polygon fill="white" stroke="black" points="1433,-202.5 1433,-221.5 1575,-221.5 1575,-202.5 1433,-202.5"/>
<text text-anchor="middle" x="1504" y="-209.5" font-family="Helvetica,sans-Serif" font-size="10.00">AP_AHRS_NavEKF::update</text>
</a>
</g>
</g>
<!-- Node9&#45;&gt;Node10 -->
<g id="edge10" class="edge"><title>Node9&#45;&gt;Node10</title>
<path fill="none" stroke="midnightblue" d="M1406.21,-212C1415.23,-212 1424.25,-212 1432.97,-212"/>
<polygon fill="midnightblue" stroke="midnightblue" points="1406.05,-208.5 1396.05,-212 1406.05,-215.5 1406.05,-208.5"/>
</g>
<!-- Node11 -->
<g id="node11" class="node"><title>Node11</title>
<g id="a_node11"><a xlink:href="AHRS__Test_8cpp.html#a0b33edabd7f1c4e4a0bf32c67269be2f" target="_top" xlink:title="loop">
<polygon fill="white" stroke="black" points="1650.5,-202.5 1650.5,-221.5 1685.5,-221.5 1685.5,-202.5 1650.5,-202.5"/>
<text text-anchor="middle" x="1668" y="-209.5" font-family="Helvetica,sans-Serif" font-size="10.00">loop</text>
</a>
</g>
</g>
<!-- Node10&#45;&gt;Node11 -->
<g id="edge11" class="edge"><title>Node10&#45;&gt;Node11</title>
<path fill="none" stroke="midnightblue" d="M1585.29,-212C1609.99,-212 1634.78,-212 1650.47,-212"/>
<polygon fill="midnightblue" stroke="midnightblue" points="1585.11,-208.5 1575.11,-212 1585.11,-215.5 1585.11,-208.5"/>
</g>
<!-- Node15 -->
<g id="node15" class="node"><title>Node15</title>
<g id="a_node15"><a xlink:href="classDataFlash__Class.html#a46e58faaa53c44516433f6bb7bde4163" target="_top" xlink:title="DataFlash_Class::Log\l_Write_POS">
<polygon fill="white" stroke="black" points="1447,-55 1447,-85 1561,-85 1561,-55 1447,-55"/>
<text text-anchor="start" x="1455" y="-73" font-family="Helvetica,sans-Serif" font-size="10.00">DataFlash_Class::Log</text>
<text text-anchor="middle" x="1504" y="-62" font-family="Helvetica,sans-Serif" font-size="10.00">_Write_POS</text>
</a>
</g>
</g>
<!-- Node14&#45;&gt;Node15 -->
<g id="edge15" class="edge"><title>Node14&#45;&gt;Node15</title>
<path fill="none" stroke="midnightblue" d="M1379.18,-161.679C1384.98,-159.759 1390.67,-157.547 1396,-155 1433.25,-137.208 1469.29,-104.334 1488.56,-85.0996"/>
<polygon fill="midnightblue" stroke="midnightblue" points="1377.9,-158.408 1369.33,-164.642 1379.92,-165.111 1377.9,-158.408"/>
</g>
<!-- Node17 -->
<g id="node17" class="node"><title>Node17</title>
<g id="a_node17"><a xlink:href="classGCS__MAVLINK.html#a558ba3447048b78cb9dde460053e2741" target="_top" xlink:title="GCS_MAVLINK::send_ahrs2">
<polygon fill="white" stroke="black" points="1432,-164.5 1432,-183.5 1576,-183.5 1576,-164.5 1432,-164.5"/>
<text text-anchor="middle" x="1504" y="-171.5" font-family="Helvetica,sans-Serif" font-size="10.00">GCS_MAVLINK::send_ahrs2</text>
</a>
</g>
</g>
<!-- Node14&#45;&gt;Node17 -->
<g id="edge17" class="edge"><title>Node14&#45;&gt;Node17</title>
<path fill="none" stroke="midnightblue" d="M1379.52,-174C1396.5,-174 1414.74,-174 1431.85,-174"/>
<polygon fill="midnightblue" stroke="midnightblue" points="1379.13,-170.5 1369.13,-174 1379.13,-177.5 1379.13,-170.5"/>
</g>
<!-- Node16 -->
<g id="node16" class="node"><title>Node16</title>
<g id="a_node16"><a xlink:href="classDataFlash__Class.html#a7868f0e3dcef65ea5b5fcae618f4c5d4" target="_top" xlink:title="DataFlash_Class::get\l_structures">
<polygon fill="white" stroke="black" points="1612,-55 1612,-85 1724,-85 1724,-55 1612,-55"/>
<text text-anchor="start" x="1620" y="-73" font-family="Helvetica,sans-Serif" font-size="10.00">DataFlash_Class::get</text>
<text text-anchor="middle" x="1668" y="-62" font-family="Helvetica,sans-Serif" font-size="10.00">_structures</text>
</a>
</g>
</g>
<!-- Node15&#45;&gt;Node16 -->
<g id="edge16" class="edge"><title>Node15&#45;&gt;Node16</title>
<path fill="none" stroke="midnightblue" d="M1571.39,-70C1584.89,-70 1598.94,-70 1611.99,-70"/>
<polygon fill="midnightblue" stroke="midnightblue" points="1571.21,-66.5001 1561.21,-70 1571.21,-73.5001 1571.21,-66.5001"/>
</g>
<!-- Node19 -->
<g id="node19" class="node"><title>Node19</title>
<g id="a_node19"><a xlink:href="classNavEKF2__core.html#a3989e564224adfa26b0e32a5a03aca10" target="_top" xlink:title="NavEKF2_core::controlMag\lYawReset">
<polygon fill="white" stroke="black" points="512,-170 512,-200 649,-200 649,-170 512,-170"/>
<text text-anchor="start" x="520" y="-188" font-family="Helvetica,sans-Serif" font-size="10.00">NavEKF2_core::controlMag</text>
<text text-anchor="middle" x="580.5" y="-177" font-family="Helvetica,sans-Serif" font-size="10.00">YawReset</text>
</a>
</g>
</g>
<!-- Node18&#45;&gt;Node19 -->
<g id="edge19" class="edge"><title>Node18&#45;&gt;Node19</title>
<path fill="none" stroke="midnightblue" d="M486.186,-185C494.787,-185 503.459,-185 511.871,-185"/>
<polygon fill="midnightblue" stroke="midnightblue" points="486.142,-181.5 476.142,-185 486.142,-188.5 486.142,-181.5"/>
</g>
<!-- Node19&#45;&gt;Node20 -->
<g id="edge20" class="edge"><title>Node19&#45;&gt;Node20</title>
<path fill="none" stroke="midnightblue" d="M659.313,-190.468C667.791,-191.064 676.438,-191.671 684.959,-192.27"/>
<polygon fill="midnightblue" stroke="midnightblue" points="659.295,-186.958 649.075,-189.748 658.805,-193.941 659.295,-186.958"/>
</g>
<!-- Node21 -->
<g id="node21" class="node"><title>Node21</title>
<g id="a_node21"><a xlink:href="classNavEKF2__core.html#a5f5c815cbd5ebba30d731f89f87726c3" target="_top" xlink:title="NavEKF2_core::UpdateFilter">
<polygon fill="white" stroke="black" points="886,-188.5 886,-207.5 1029,-207.5 1029,-188.5 886,-188.5"/>
<text text-anchor="middle" x="957.5" y="-195.5" font-family="Helvetica,sans-Serif" font-size="10.00">NavEKF2_core::UpdateFilter</text>
</a>
</g>
</g>
<!-- Node20&#45;&gt;Node21 -->
<g id="edge21" class="edge"><title>Node20&#45;&gt;Node21</title>
<path fill="none" stroke="midnightblue" d="M860.219,-198C868.83,-198 877.467,-198 885.84,-198"/>
<polygon fill="midnightblue" stroke="midnightblue" points="860.139,-194.5 850.139,-198 860.139,-201.5 860.139,-194.5"/>
</g>
<!-- Node22 -->
<g id="node22" class="node"><title>Node22</title>
<g id="a_node22"><a xlink:href="classNavEKF2.html#a72815b1bbd9d7ceb0ff7ae52d14516df" target="_top" xlink:title="NavEKF2::UpdateFilter">
<polygon fill="white" stroke="black" points="1067,-188.5 1067,-207.5 1186,-207.5 1186,-188.5 1067,-188.5"/>
<text text-anchor="middle" x="1126.5" y="-195.5" font-family="Helvetica,sans-Serif" font-size="10.00">NavEKF2::UpdateFilter</text>
</a>
</g>
</g>
<!-- Node21&#45;&gt;Node22 -->
<g id="edge22" class="edge"><title>Node21&#45;&gt;Node22</title>
<path fill="none" stroke="midnightblue" d="M1039.37,-198C1048.67,-198 1058.01,-198 1066.93,-198"/>
<polygon fill="midnightblue" stroke="midnightblue" points="1039.32,-194.5 1029.32,-198 1039.32,-201.5 1039.32,-194.5"/>
</g>
<!-- Node22&#45;&gt;Node9 -->
<g id="edge23" class="edge"><title>Node22&#45;&gt;Node9</title>
<path fill="none" stroke="midnightblue" d="M1196.2,-203.3C1205.22,-203.995 1214.55,-204.714 1223.79,-205.428"/>
<polygon fill="midnightblue" stroke="midnightblue" points="1196.42,-199.806 1186.18,-202.526 1195.88,-206.785 1196.42,-199.806"/>
</g>
<!-- Node22&#45;&gt;Node14 -->
<g id="edge24" class="edge"><title>Node22&#45;&gt;Node14</title>
<path fill="none" stroke="midnightblue" d="M1196.31,-188.902C1214.28,-186.525 1233.47,-183.987 1250.84,-181.691"/>
<polygon fill="midnightblue" stroke="midnightblue" points="1195.63,-185.46 1186.18,-190.241 1196.55,-192.4 1195.63,-185.46"/>
</g>
<!-- Node24 -->
<g id="node24" class="node"><title>Node24</title>
<g id="a_node24"><a xlink:href="classNavEKF3__core.html#aae18ada44b1b7be0d45af03391ef961a" target="_top" xlink:title="NavEKF3_core::Initialise\lFilterBootstrap">
<polygon fill="white" stroke="black" points="895,-77 895,-107 1020,-107 1020,-77 895,-77"/>
<text text-anchor="start" x="903" y="-95" font-family="Helvetica,sans-Serif" font-size="10.00">NavEKF3_core::Initialise</text>
<text text-anchor="middle" x="957.5" y="-84" font-family="Helvetica,sans-Serif" font-size="10.00">FilterBootstrap</text>
</a>
</g>
</g>
<!-- Node23&#45;&gt;Node24 -->
<g id="edge27" class="edge"><title>Node23&#45;&gt;Node24</title>
<path fill="none" stroke="midnightblue" d="M304.237,-72.4897C453.42,-76.9521 763.043,-86.2134 894.892,-90.1572"/>
<polygon fill="midnightblue" stroke="midnightblue" points="304.312,-68.9905 294.211,-72.1899 304.102,-75.9874 304.312,-68.9905"/>
</g>
<!-- Node28 -->
<g id="node28" class="node"><title>Node28</title>
<g id="a_node28"><a xlink:href="classNavEKF3__core.html#a93a3f4411a8dc4df4819e13856d037d5" target="_top" xlink:title="NavEKF3_core::calcQuatAnd\lFieldStates">
<polygon fill="white" stroke="black" points="330,-33 330,-63 476,-63 476,-33 330,-33"/>
<text text-anchor="start" x="338" y="-51" font-family="Helvetica,sans-Serif" font-size="10.00">NavEKF3_core::calcQuatAnd</text>
<text text-anchor="middle" x="403" y="-40" font-family="Helvetica,sans-Serif" font-size="10.00">FieldStates</text>
</a>
</g>
</g>
<!-- Node23&#45;&gt;Node28 -->
<g id="edge35" class="edge"><title>Node23&#45;&gt;Node28</title>
<path fill="none" stroke="midnightblue" d="M304.11,-59.8982C312.69,-58.8554 321.359,-57.8017 329.806,-56.775"/>
<polygon fill="midnightblue" stroke="midnightblue" points="303.603,-56.4341 294.098,-61.1152 304.447,-63.3829 303.603,-56.4341"/>
</g>
<!-- Node30 -->
<g id="node30" class="node"><title>Node30</title>
<g id="a_node30"><a xlink:href="classNavEKF3__core.html#a800d407d377e6532d563c68cc3c731d8" target="_top" xlink:title="NavEKF3_core::SelectMagFusion">
<polygon fill="white" stroke="black" points="685,-19.5 685,-38.5 850,-38.5 850,-19.5 685,-19.5"/>
<text text-anchor="middle" x="767.5" y="-26.5" font-family="Helvetica,sans-Serif" font-size="10.00">NavEKF3_core::SelectMagFusion</text>
</a>
</g>
</g>
<!-- Node23&#45;&gt;Node30 -->
<g id="edge42" class="edge"><title>Node23&#45;&gt;Node30</title>
<path fill="none" stroke="midnightblue" d="M246.09,-55.6738C267.581,-44.2765 299.761,-29.2416 330,-23 459.706,3.77271 615.727,-8.8014 701.699,-19.4799"/>
<polygon fill="midnightblue" stroke="midnightblue" points="244.408,-52.6044 237.293,-60.4543 247.751,-58.755 244.408,-52.6044"/>
</g>
<!-- Node25 -->
<g id="node25" class="node"><title>Node25</title>
<g id="a_node25"><a xlink:href="classNavEKF3.html#a07f064fa513fbb6e7188141904f3b5b5" target="_top" xlink:title="NavEKF3::InitialiseFilter">
<polygon fill="white" stroke="black" points="1065,-82.5 1065,-101.5 1188,-101.5 1188,-82.5 1065,-82.5"/>
<text text-anchor="middle" x="1126.5" y="-89.5" font-family="Helvetica,sans-Serif" font-size="10.00">NavEKF3::InitialiseFilter</text>
</a>
</g>
</g>
<!-- Node24&#45;&gt;Node25 -->
<g id="edge28" class="edge"><title>Node24&#45;&gt;Node25</title>
<path fill="none" stroke="midnightblue" d="M1030.25,-92C1041.79,-92 1053.63,-92 1064.88,-92"/>
<polygon fill="midnightblue" stroke="midnightblue" points="1030.21,-88.5001 1020.21,-92 1030.21,-95.5001 1030.21,-88.5001"/>
</g>
<!-- Node25&#45;&gt;Node12 -->
<g id="edge31" class="edge"><title>Node25&#45;&gt;Node12</title>
<path fill="none" stroke="midnightblue" d="M1175.41,-104.042C1190.9,-107.903 1208.17,-112.17 1224,-116 1238.29,-119.459 1253.96,-123.168 1267.9,-126.441"/>
<polygon fill="midnightblue" stroke="midnightblue" points="1176.06,-100.599 1165.51,-101.572 1174.37,-107.39 1176.06,-100.599"/>
</g>
<!-- Node25&#45;&gt;Node13 -->
<g id="edge32" class="edge"><title>Node25&#45;&gt;Node13</title>
<path fill="none" stroke="midnightblue" d="M1198.2,-92C1212.86,-92 1228.26,-92 1242.75,-92"/>
<polygon fill="midnightblue" stroke="midnightblue" points="1198.19,-88.5001 1188.19,-92 1198.19,-95.5001 1198.19,-88.5001"/>
</g>
<!-- Node26 -->
<g id="node26" class="node"><title>Node26</title>
<g id="a_node26"><a xlink:href="classAP__AHRS__NavEKF.html#a324160404f12959e955554f5aed26459" target="_top" xlink:title="AP_AHRS_NavEKF::update_EKF3">
<polygon fill="white" stroke="black" points="1224,-38.5 1224,-57.5 1396,-57.5 1396,-38.5 1224,-38.5"/>
<text text-anchor="middle" x="1310" y="-45.5" font-family="Helvetica,sans-Serif" font-size="10.00">AP_AHRS_NavEKF::update_EKF3</text>
</a>
</g>
</g>
<!-- Node25&#45;&gt;Node26 -->
<g id="edge29" class="edge"><title>Node25&#45;&gt;Node26</title>
<path fill="none" stroke="midnightblue" d="M1172.89,-79.9057C1189,-75.7021 1207.28,-71.033 1224,-67 1237.23,-63.8087 1251.66,-60.5129 1264.82,-57.5806"/>
<polygon fill="midnightblue" stroke="midnightblue" points="1171.96,-76.5315 1163.17,-82.453 1173.73,-83.3027 1171.96,-76.5315"/>
</g>
<!-- Node27 -->
<g id="node27" class="node"><title>Node27</title>
<g id="a_node27"><a xlink:href="classNavEKF3.html#a3e1f50ad977a17222fcd7a6851b0f2ec" target="_top" xlink:title="NavEKF3::activeCores">
<polygon fill="white" stroke="black" points="1251,-0.5 1251,-19.5 1369,-19.5 1369,-0.5 1251,-0.5"/>
<text text-anchor="middle" x="1310" y="-7.5" font-family="Helvetica,sans-Serif" font-size="10.00">NavEKF3::activeCores</text>
</a>
</g>
</g>
<!-- Node25&#45;&gt;Node27 -->
<g id="edge33" class="edge"><title>Node25&#45;&gt;Node27</title>
<path fill="none" stroke="midnightblue" d="M1149.3,-76.4535C1172.75,-59.9731 1208.72,-35.4466 1224,-29 1233.06,-25.1803 1242.99,-22.0753 1252.78,-19.5685"/>
<polygon fill="midnightblue" stroke="midnightblue" points="1147.14,-73.6919 1141,-82.3213 1151.18,-79.4086 1147.14,-73.6919"/>
</g>
<!-- Node26&#45;&gt;Node10 -->
<g id="edge30" class="edge"><title>Node26&#45;&gt;Node10</title>
<path fill="none" stroke="midnightblue" d="M1391.32,-63.0764C1392.95,-64.2935 1394.52,-65.5993 1396,-67 1438.37,-106.963 1390.47,-152.165 1432,-193 1435.91,-196.847 1440.51,-199.938 1445.46,-202.418"/>
<polygon fill="midnightblue" stroke="midnightblue" points="1393,-60.0004 1382.66,-57.7028 1389.31,-65.9488 1393,-60.0004"/>
</g>
<!-- Node27&#45;&gt;Node15 -->
<g id="edge34" class="edge"><title>Node27&#45;&gt;Node15</title>
<path fill="none" stroke="midnightblue" d="M1369.43,-21.8775C1378.39,-24.0382 1387.48,-26.4304 1396,-29 1420.19,-36.2951 1446.71,-46.4426 1467.3,-54.8169"/>
<polygon fill="midnightblue" stroke="midnightblue" points="1369.95,-18.405 1359.42,-19.5393 1368.36,-25.2216 1369.95,-18.405"/>
</g>
<!-- Node29 -->
<g id="node29" class="node"><title>Node29</title>
<g id="a_node29"><a xlink:href="classNavEKF3__core.html#ae050fc8e6c45d5134f8cba8dabc719e8" target="_top" xlink:title="NavEKF3_core::controlMag\lYawReset">
<polygon fill="white" stroke="black" points="512,-33 512,-63 649,-63 649,-33 512,-33"/>
<text text-anchor="start" x="520" y="-51" font-family="Helvetica,sans-Serif" font-size="10.00">NavEKF3_core::controlMag</text>
<text text-anchor="middle" x="580.5" y="-40" font-family="Helvetica,sans-Serif" font-size="10.00">YawReset</text>
</a>
</g>
</g>
<!-- Node28&#45;&gt;Node29 -->
<g id="edge36" class="edge"><title>Node28&#45;&gt;Node29</title>
<path fill="none" stroke="midnightblue" d="M486.186,-48C494.787,-48 503.459,-48 511.871,-48"/>
<polygon fill="midnightblue" stroke="midnightblue" points="486.142,-44.5001 476.142,-48 486.142,-51.5001 486.142,-44.5001"/>
</g>
<!-- Node29&#45;&gt;Node30 -->
<g id="edge37" class="edge"><title>Node29&#45;&gt;Node30</title>
<path fill="none" stroke="midnightblue" d="M659.033,-40.0371C667.601,-39.1572 676.344,-38.2592 684.959,-37.3745"/>
<polygon fill="midnightblue" stroke="midnightblue" points="658.665,-36.5565 649.075,-41.0599 659.38,-43.5199 658.665,-36.5565"/>
</g>
<!-- Node31 -->
<g id="node31" class="node"><title>Node31</title>
<g id="a_node31"><a xlink:href="classNavEKF3__core.html#a2a7fae9e0bf2ce6fc2f9b3918dc168d3" target="_top" xlink:title="NavEKF3_core::UpdateFilter">
<polygon fill="white" stroke="black" points="886,-19.5 886,-38.5 1029,-38.5 1029,-19.5 886,-19.5"/>
<text text-anchor="middle" x="957.5" y="-26.5" font-family="Helvetica,sans-Serif" font-size="10.00">NavEKF3_core::UpdateFilter</text>
</a>
</g>
</g>
<!-- Node30&#45;&gt;Node31 -->
<g id="edge38" class="edge"><title>Node30&#45;&gt;Node31</title>
<path fill="none" stroke="midnightblue" d="M860.219,-29C868.83,-29 877.467,-29 885.84,-29"/>
<polygon fill="midnightblue" stroke="midnightblue" points="860.139,-25.5001 850.139,-29 860.139,-32.5001 860.139,-25.5001"/>
</g>
<!-- Node32 -->
<g id="node32" class="node"><title>Node32</title>
<g id="a_node32"><a xlink:href="classNavEKF3.html#a477020fcf29376e0c2205dbf79728104" target="_top" xlink:title="NavEKF3::UpdateFilter">
<polygon fill="white" stroke="black" points="1067,-19.5 1067,-38.5 1186,-38.5 1186,-19.5 1067,-19.5"/>
<text text-anchor="middle" x="1126.5" y="-26.5" font-family="Helvetica,sans-Serif" font-size="10.00">NavEKF3::UpdateFilter</text>
</a>
</g>
</g>
<!-- Node31&#45;&gt;Node32 -->
<g id="edge39" class="edge"><title>Node31&#45;&gt;Node32</title>
<path fill="none" stroke="midnightblue" d="M1039.37,-29C1048.67,-29 1058.01,-29 1066.93,-29"/>
<polygon fill="midnightblue" stroke="midnightblue" points="1039.32,-25.5001 1029.32,-29 1039.32,-32.5001 1039.32,-25.5001"/>
</g>
<!-- Node32&#45;&gt;Node26 -->
<g id="edge40" class="edge"><title>Node32&#45;&gt;Node26</title>
<path fill="none" stroke="midnightblue" d="M1196.2,-36.1923C1205.22,-37.1361 1214.55,-38.1123 1223.79,-39.0805"/>
<polygon fill="midnightblue" stroke="midnightblue" points="1196.49,-32.7028 1186.18,-35.1425 1195.76,-39.6647 1196.49,-32.7028"/>
</g>
<!-- Node32&#45;&gt;Node27 -->
<g id="edge41" class="edge"><title>Node32&#45;&gt;Node27</title>
<path fill="none" stroke="midnightblue" d="M1196.31,-21.7972C1214.28,-19.9157 1233.47,-17.9063 1250.84,-16.0889"/>
<polygon fill="midnightblue" stroke="midnightblue" points="1195.76,-18.3353 1186.18,-22.8575 1196.49,-25.2972 1195.76,-18.3353"/>
</g>
</g>
</svg>
