<?xml version="1.0" encoding="UTF-8" standalone="no"?>
<!DOCTYPE svg PUBLIC "-//W3C//DTD SVG 1.1//EN"
 "http://www.w3.org/Graphics/SVG/1.1/DTD/svg11.dtd">
<!-- Generated by graphviz version 2.38.0 (20140413.2041)
 -->
<!-- Title: Matrix3::invert Pages: 1 -->
<svg width="545pt" height="152pt"
 viewBox="0.00 0.00 545.00 151.50" xmlns="http://www.w3.org/2000/svg" xmlns:xlink="http://www.w3.org/1999/xlink">
<g id="graph0" class="graph" transform="scale(1 1) rotate(0) translate(4 147.5)">
<title>Matrix3::invert</title>
<polygon fill="white" stroke="none" points="-4,4 -4,-147.5 541,-147.5 541,4 -4,4"/>
<!-- Node1 -->
<g id="node1" class="node"><title>Node1</title>
<polygon fill="#bfbfbf" stroke="black" points="0,-22.5 0,-41.5 79,-41.5 79,-22.5 0,-22.5"/>
<text text-anchor="middle" x="39.5" y="-29.5" font-family="Helvetica,sans-Serif" font-size="10.00">Matrix3::invert</text>
</g>
<!-- Node2 -->
<g id="node2" class="node"><title>Node2</title>
<g id="a_node2"><a xlink:href="classMatrix3.html#a69d23fe802118124235bd5542b279259" target="_top" xlink:title="Matrix3::from_axis\l_angle">
<polygon fill="white" stroke="black" points="133,-39 133,-69 231,-69 231,-39 133,-39"/>
<text text-anchor="start" x="141" y="-57" font-family="Helvetica,sans-Serif" font-size="10.00">Matrix3::from_axis</text>
<text text-anchor="middle" x="182" y="-46" font-family="Helvetica,sans-Serif" font-size="10.00">_angle</text>
</a>
</g>
</g>
<!-- Node1&#45;&gt;Node2 -->
<g id="edge1" class="edge"><title>Node1&#45;&gt;Node2</title>
<path fill="none" stroke="midnightblue" d="M89.2732,-39.6371C103.38,-41.846 118.766,-44.2551 132.835,-46.4582"/>
<polygon fill="midnightblue" stroke="midnightblue" points="89.6853,-36.159 79.2642,-38.0698 88.6023,-43.0748 89.6853,-36.159"/>
</g>
<!-- Node9 -->
<g id="node9" class="node"><title>Node9</title>
<g id="a_node9"><a xlink:href="classMatrix3.html#aa8a6a2bce923d8931c017508cb00e24d" target="_top" xlink:title="Matrix3\&lt; float \&gt;::transpose">
<polygon fill="white" stroke="black" points="115,-0.5 115,-19.5 249,-19.5 249,-0.5 115,-0.5"/>
<text text-anchor="middle" x="182" y="-7.5" font-family="Helvetica,sans-Serif" font-size="10.00">Matrix3&lt; float &gt;::transpose</text>
</a>
</g>
</g>
<!-- Node1&#45;&gt;Node9 -->
<g id="edge8" class="edge"><title>Node1&#45;&gt;Node9</title>
<path fill="none" stroke="midnightblue" d="M89.3699,-24.3478C99.3238,-22.7892 109.911,-21.1314 120.221,-19.5171"/>
<polygon fill="midnightblue" stroke="midnightblue" points="88.6023,-20.9252 79.2642,-25.9302 89.6853,-27.841 88.6023,-20.9252"/>
</g>
<!-- Node3 -->
<g id="node3" class="node"><title>Node3</title>
<g id="a_node3"><a xlink:href="classSITL_1_1Calibration.html#a529449c7dee022d7986666ed4bd1b11d" target="_top" xlink:title="SITL::Calibration::\l_calibration_poses">
<polygon fill="white" stroke="black" points="296,-83 296,-113 394,-113 394,-83 296,-83"/>
<text text-anchor="start" x="304" y="-101" font-family="Helvetica,sans-Serif" font-size="10.00">SITL::Calibration::</text>
<text text-anchor="middle" x="345" y="-90" font-family="Helvetica,sans-Serif" font-size="10.00">_calibration_poses</text>
</a>
</g>
</g>
<!-- Node2&#45;&gt;Node3 -->
<g id="edge2" class="edge"><title>Node2&#45;&gt;Node3</title>
<path fill="none" stroke="midnightblue" d="M241.073,-69.871C259,-74.7701 278.539,-80.1099 295.729,-84.8079"/>
<polygon fill="midnightblue" stroke="midnightblue" points="241.874,-66.4616 231.305,-67.2015 240.029,-73.214 241.874,-66.4616"/>
</g>
<!-- Node6 -->
<g id="node6" class="node"><title>Node6</title>
<g id="a_node6"><a xlink:href="classMatrix3.html#a2c69227a793818d8a8f47e99ffa99885" target="_top" xlink:title="Matrix3\&lt; float \&gt;::is_nan">
<polygon fill="white" stroke="black" points="285,-44.5 285,-63.5 405,-63.5 405,-44.5 285,-44.5"/>
<text text-anchor="middle" x="345" y="-51.5" font-family="Helvetica,sans-Serif" font-size="10.00">Matrix3&lt; float &gt;::is_nan</text>
</a>
</g>
</g>
<!-- Node2&#45;&gt;Node6 -->
<g id="edge5" class="edge"><title>Node2&#45;&gt;Node6</title>
<path fill="none" stroke="midnightblue" d="M241.413,-54C255.572,-54 270.72,-54 284.91,-54"/>
<polygon fill="midnightblue" stroke="midnightblue" points="241.305,-50.5001 231.305,-54 241.305,-57.5001 241.305,-50.5001"/>
</g>
<!-- Node7 -->
<g id="node7" class="node"><title>Node7</title>
<g id="a_node7"><a xlink:href="rotations_8cpp.html#acaec71463457149487901c616be1c74d" target="_top" xlink:title="test_rotation_accuracy">
<polygon fill="white" stroke="black" points="287,-6.5 287,-25.5 403,-25.5 403,-6.5 287,-6.5"/>
<text text-anchor="middle" x="345" y="-13.5" font-family="Helvetica,sans-Serif" font-size="10.00">test_rotation_accuracy</text>
</a>
</g>
</g>
<!-- Node2&#45;&gt;Node7 -->
<g id="edge6" class="edge"><title>Node2&#45;&gt;Node7</title>
<path fill="none" stroke="midnightblue" d="M241.259,-40.2494C261.937,-35.3689 284.739,-29.987 303.599,-25.5357"/>
<polygon fill="midnightblue" stroke="midnightblue" points="240.234,-36.8951 231.305,-42.5987 241.842,-43.7079 240.234,-36.8951"/>
</g>
<!-- Node4 -->
<g id="node4" class="node"><title>Node4</title>
<g id="a_node4"><a xlink:href="classSITL_1_1Calibration.html#a0c3f60adfbc5d68ae425883af18b62f4" target="_top" xlink:title="SITL::Calibration::\lupdate">
<polygon fill="white" stroke="black" points="441,-113 441,-143 537,-143 537,-113 441,-113"/>
<text text-anchor="start" x="449" y="-131" font-family="Helvetica,sans-Serif" font-size="10.00">SITL::Calibration::</text>
<text text-anchor="middle" x="489" y="-120" font-family="Helvetica,sans-Serif" font-size="10.00">update</text>
</a>
</g>
</g>
<!-- Node3&#45;&gt;Node4 -->
<g id="edge3" class="edge"><title>Node3&#45;&gt;Node4</title>
<path fill="none" stroke="midnightblue" d="M404.191,-110.294C416.421,-112.878 429.176,-115.572 440.938,-118.057"/>
<polygon fill="midnightblue" stroke="midnightblue" points="404.582,-106.799 394.075,-108.157 403.135,-113.648 404.582,-106.799"/>
</g>
<!-- Node5 -->
<g id="node5" class="node"><title>Node5</title>
<g id="a_node5"><a xlink:href="classSITL_1_1Calibration.html#a06ad77d21ed540bdbad30e7d3147c1d2" target="_top" xlink:title="SITL::Calibration::\lcreate">
<polygon fill="white" stroke="black" points="441,-64 441,-94 537,-94 537,-64 441,-64"/>
<text text-anchor="start" x="449" y="-82" font-family="Helvetica,sans-Serif" font-size="10.00">SITL::Calibration::</text>
<text text-anchor="middle" x="489" y="-71" font-family="Helvetica,sans-Serif" font-size="10.00">create</text>
</a>
</g>
</g>
<!-- Node3&#45;&gt;Node5 -->
<g id="edge4" class="edge"><title>Node3&#45;&gt;Node5</title>
<path fill="none" stroke="midnightblue" d="M404.191,-90.2138C416.421,-88.5774 429.176,-86.8708 440.938,-85.297"/>
<polygon fill="midnightblue" stroke="midnightblue" points="403.522,-86.7721 394.075,-91.5675 404.451,-93.7103 403.522,-86.7721"/>
</g>
<!-- Node8 -->
<g id="node8" class="node"><title>Node8</title>
<g id="a_node8"><a xlink:href="rotations_8cpp.html#a7dfd9b79bc5a37d7df40207afbc5431f" target="_top" xlink:title="setup">
<polygon fill="white" stroke="black" points="468.5,-6.5 468.5,-25.5 509.5,-25.5 509.5,-6.5 468.5,-6.5"/>
<text text-anchor="middle" x="489" y="-13.5" font-family="Helvetica,sans-Serif" font-size="10.00">setup</text>
</a>
</g>
</g>
<!-- Node7&#45;&gt;Node8 -->
<g id="edge7" class="edge"><title>Node7&#45;&gt;Node8</title>
<path fill="none" stroke="midnightblue" d="M413.455,-16C433.52,-16 453.965,-16 468.356,-16"/>
<polygon fill="midnightblue" stroke="midnightblue" points="413.348,-12.5001 403.348,-16 413.347,-19.5001 413.348,-12.5001"/>
</g>
</g>
</svg>
