<?xml version="1.0" encoding="UTF-8" standalone="no"?>
<!DOCTYPE svg PUBLIC "-//W3C//DTD SVG 1.1//EN"
 "http://www.w3.org/Graphics/SVG/1.1/DTD/svg11.dtd">
<!-- Generated by graphviz version 2.38.0 (20140413.2041)
 -->
<!-- Title: AP_Navigation::data_is_stale Pages: 1 -->
<svg width="443pt" height="88pt"
 viewBox="0.00 0.00 443.00 88.00" xmlns="http://www.w3.org/2000/svg" xmlns:xlink="http://www.w3.org/1999/xlink">
<g id="graph0" class="graph" transform="scale(1 1) rotate(0) translate(4 84)">
<title>AP_Navigation::data_is_stale</title>
<polygon fill="white" stroke="none" points="-4,4 -4,-84 439,-84 439,4 -4,4"/>
<!-- Node1 -->
<g id="node1" class="node"><title>Node1</title>
<polygon fill="#bfbfbf" stroke="black" points="0,-24.5 0,-54.5 107,-54.5 107,-24.5 0,-24.5"/>
<text text-anchor="start" x="8" y="-42.5" font-family="Helvetica,sans-Serif" font-size="10.00">AP_Navigation::data</text>
<text text-anchor="middle" x="53.5" y="-31.5" font-family="Helvetica,sans-Serif" font-size="10.00">_is_stale</text>
</g>
<!-- Node2 -->
<g id="node2" class="node"><title>Node2</title>
<g id="a_node2"><a xlink:href="classAP__Navigation.html#ab90ff64cf92dc2b5ed762f64e22022c0" target="_top" xlink:title="AP_Navigation::crosstrack\l_error_integrator">
<polygon fill="white" stroke="black" points="143,-49.5 143,-79.5 277,-79.5 277,-49.5 143,-49.5"/>
<text text-anchor="start" x="151" y="-67.5" font-family="Helvetica,sans-Serif" font-size="10.00">AP_Navigation::crosstrack</text>
<text text-anchor="middle" x="210" y="-56.5" font-family="Helvetica,sans-Serif" font-size="10.00">_error_integrator</text>
</a>
</g>
</g>
<!-- Node1&#45;&gt;Node2 -->
<g id="edge1" class="edge"><title>Node1&#45;&gt;Node2</title>
<path fill="none" stroke="midnightblue" d="M117.342,-49.6686C125.744,-51.0281 134.381,-52.4258 142.838,-53.7942"/>
<polygon fill="midnightblue" stroke="midnightblue" points="117.669,-46.176 107.238,-48.0337 116.551,-53.0861 117.669,-46.176"/>
</g>
<!-- Node3 -->
<g id="node3" class="node"><title>Node3</title>
<g id="a_node3"><a xlink:href="classAP__Landing.html#a7e884642791e4b1f0b9c396b86055a6a" target="_top" xlink:title="AP_Landing::type_slope\l_verify_land">
<polygon fill="white" stroke="black" points="149,-0.5 149,-30.5 271,-30.5 271,-0.5 149,-0.5"/>
<text text-anchor="start" x="157" y="-18.5" font-family="Helvetica,sans-Serif" font-size="10.00">AP_Landing::type_slope</text>
<text text-anchor="middle" x="210" y="-7.5" font-family="Helvetica,sans-Serif" font-size="10.00">_verify_land</text>
</a>
</g>
</g>
<!-- Node1&#45;&gt;Node3 -->
<g id="edge2" class="edge"><title>Node1&#45;&gt;Node3</title>
<path fill="none" stroke="midnightblue" d="M117.122,-29.7723C127.577,-28.1483 138.403,-26.4666 148.795,-24.8522"/>
<polygon fill="midnightblue" stroke="midnightblue" points="116.582,-26.3141 107.238,-31.3077 117.657,-33.2311 116.582,-26.3141"/>
</g>
<!-- Node4 -->
<g id="node4" class="node"><title>Node4</title>
<g id="a_node4"><a xlink:href="classAP__Landing.html#afdbc34de818b9cb366336c23660fd495" target="_top" xlink:title="AP_Landing::verify_land">
<polygon fill="white" stroke="black" points="313,-6 313,-25 435,-25 435,-6 313,-6"/>
<text text-anchor="middle" x="374" y="-13" font-family="Helvetica,sans-Serif" font-size="10.00">AP_Landing::verify_land</text>
</a>
</g>
</g>
<!-- Node3&#45;&gt;Node4 -->
<g id="edge3" class="edge"><title>Node3&#45;&gt;Node4</title>
<path fill="none" stroke="midnightblue" d="M281.64,-15.5C292.062,-15.5 302.716,-15.5 312.897,-15.5"/>
<polygon fill="midnightblue" stroke="midnightblue" points="281.323,-12.0001 271.323,-15.5 281.323,-19.0001 281.323,-12.0001"/>
</g>
</g>
</svg>
