<?xml version="1.0" encoding="UTF-8" standalone="no"?>
<!DOCTYPE svg PUBLIC "-//W3C//DTD SVG 1.1//EN"
 "http://www.w3.org/Graphics/SVG/1.1/DTD/svg11.dtd">
<!-- Generated by graphviz version 2.38.0 (20140413.2041)
 -->
<!-- Title: Linux::Util::is_chardev_node Pages: 1 -->
<svg width="422pt" height="39pt"
 viewBox="0.00 0.00 422.00 39.00" xmlns="http://www.w3.org/2000/svg" xmlns:xlink="http://www.w3.org/1999/xlink">
<g id="graph0" class="graph" transform="scale(1 1) rotate(0) translate(4 35)">
<title>Linux::Util::is_chardev_node</title>
<polygon fill="white" stroke="none" points="-4,4 -4,-35 418,-35 418,4 -4,4"/>
<!-- Node1 -->
<g id="node1" class="node"><title>Node1</title>
<polygon fill="#bfbfbf" stroke="black" points="0,-6 0,-25 140,-25 140,-6 0,-6"/>
<text text-anchor="middle" x="70" y="-13" font-family="Helvetica,sans-Serif" font-size="10.00">Linux::Util::is_chardev_node</text>
</g>
<!-- Node2 -->
<g id="node2" class="node"><title>Node2</title>
<g id="a_node2"><a xlink:href="classLinux_1_1Util.html#a27e8ef7a37f200211f1c1fa1f230e8d3" target="_top" xlink:title="Linux::Util::set_custom\l_terrain_directory">
<polygon fill="white" stroke="black" points="176,-0.5 176,-30.5 294,-30.5 294,-0.5 176,-0.5"/>
<text text-anchor="start" x="184" y="-18.5" font-family="Helvetica,sans-Serif" font-size="10.00">Linux::Util::set_custom</text>
<text text-anchor="middle" x="235" y="-7.5" font-family="Helvetica,sans-Serif" font-size="10.00">_terrain_directory</text>
</a>
</g>
</g>
<!-- Node1&#45;&gt;Node2 -->
<g id="edge1" class="edge"><title>Node1&#45;&gt;Node2</title>
<path fill="none" stroke="midnightblue" d="M150.219,-15.5C158.849,-15.5 167.513,-15.5 175.824,-15.5"/>
<polygon fill="midnightblue" stroke="midnightblue" points="150.127,-12.0001 140.127,-15.5 150.127,-19.0001 150.127,-12.0001"/>
</g>
<!-- Node3 -->
<g id="node3" class="node"><title>Node3</title>
<g id="a_node3"><a xlink:href="classHAL__Linux.html#a9b8394eb66ea6d3d5539aaaf47c3bf80" target="_top" xlink:title="HAL_Linux::run">
<polygon fill="white" stroke="black" points="330,-6 330,-25 414,-25 414,-6 330,-6"/>
<text text-anchor="middle" x="372" y="-13" font-family="Helvetica,sans-Serif" font-size="10.00">HAL_Linux::run</text>
</a>
</g>
</g>
<!-- Node2&#45;&gt;Node3 -->
<g id="edge2" class="edge"><title>Node2&#45;&gt;Node3</title>
<path fill="none" stroke="midnightblue" d="M304.228,-15.5C312.933,-15.5 321.622,-15.5 329.716,-15.5"/>
<polygon fill="midnightblue" stroke="midnightblue" points="304.036,-12.0001 294.036,-15.5 304.036,-19.0001 304.036,-12.0001"/>
</g>
</g>
</svg>
