<?xml version="1.0" encoding="UTF-8" standalone="no"?>
<!DOCTYPE svg PUBLIC "-//W3C//DTD SVG 1.1//EN"
 "http://www.w3.org/Graphics/SVG/1.1/DTD/svg11.dtd">
<!-- Generated by graphviz version 2.38.0 (20140413.2041)
 -->
<!-- Title: NavEKF3_core::getTouchdownExpected Pages: 1 -->
<!--zoomable 85 -->
<svg id="main" version="1.1" xmlns="http://www.w3.org/2000/svg" xmlns:xlink="http://www.w3.org/1999/xlink" xml:space="preserve" onload="init(evt)">
<style type="text/css"><![CDATA[
.edge:hover path { stroke: red; }
.edge:hover polygon { stroke: red; fill: red; }
]]></style>
<script type="text/javascript"><![CDATA[
var edges = document.getElementsByTagName('g');
if (edges && edges.length) {
  for (var i=0;i<edges.length;i++) {
    if (edges[i].id.substr(0,4)=='edge') {
      edges[i].setAttribute('class','edge');
    }
  }
}
]]></script>
        <defs>
                <circle id="rim" cx="0" cy="0" r="7"/>
                <circle id="rim2" cx="0" cy="0" r="3.5"/>
                <g id="zoomPlus">
                        <use xlink:href="#rim" fill="#404040">
                                <set attributeName="fill" to="#808080" begin="zoomplus.mouseover" end="zoomplus.mouseout"/>
                        </use>
                        <path d="M-4,0h8M0,-4v8" fill="none" stroke="white" stroke-width="1.5" pointer-events="none"/>
                </g>
                <g id="zoomMin">
                        <use xlink:href="#rim" fill="#404040">
                                <set attributeName="fill" to="#808080" begin="zoomminus.mouseover" end="zoomminus.mouseout"/>
                        </use>
                        <path d="M-4,0h8" fill="none" stroke="white" stroke-width="1.5" pointer-events="none"/>
                </g>
                <g id="dirArrow">
                        <path fill="none" stroke="white" stroke-width="1.5" d="M0,-3.0v7 M-2.5,-0.5L0,-3.0L2.5,-0.5"/>
                </g>
               <g id="resetDef">
                       <use xlink:href="#rim2" fill="#404040">
                               <set attributeName="fill" to="#808080" begin="reset.mouseover" end="reset.mouseout"/>
                       </use>
               </g>
        </defs>

<script type="text/javascript">
var viewWidth = 1414;
var viewHeight = 85;
var sectionId = 'dynsection-115';
</script>
<script xlink:href="svgpan.js"/>
<svg id="graph" class="graph">
<g id="viewport">
<title>NavEKF3_core::getTouchdownExpected</title>
<polygon fill="white" stroke="none" points="-4,4 -4,-81 1410,-81 1410,4 -4,4"/>
<!-- Node1 -->
<g id="node1" class="node"><title>Node1</title>
<polygon fill="#bfbfbf" stroke="black" points="0,-22.5 0,-52.5 153,-52.5 153,-22.5 0,-22.5"/>
<text text-anchor="start" x="8" y="-40.5" font-family="Helvetica,sans-Serif" font-size="10.00">NavEKF3_core::getTouchdown</text>
<text text-anchor="middle" x="76.5" y="-29.5" font-family="Helvetica,sans-Serif" font-size="10.00">Expected</text>
</g>
<!-- Node2 -->
<g id="node2" class="node"><title>Node2</title>
<g id="a_node2"><a xlink:href="classNavEKF3__core.html#a4f593c8986fa9166e4d85f25f9c73515" target="_top" xlink:title="NavEKF3_core::FuseVelPosNED">
<polygon fill="white" stroke="black" points="189,-50 189,-69 353,-69 353,-50 189,-50"/>
<text text-anchor="middle" x="271" y="-57" font-family="Helvetica,sans-Serif" font-size="10.00">NavEKF3_core::FuseVelPosNED</text>
</a>
</g>
</g>
<!-- Node1&#45;&gt;Node2 -->
<g id="edge1" class="edge"><title>Node1&#45;&gt;Node2</title>
<path fill="none" stroke="midnightblue" d="M163.069,-47.2793C171.682,-48.2636 180.41,-49.2611 188.973,-50.2398"/>
<polygon fill="midnightblue" stroke="midnightblue" points="163.361,-43.79 153.029,-46.1318 162.566,-50.7448 163.361,-43.79"/>
</g>
<!-- Node12 -->
<g id="node12" class="node"><title>Node12</title>
<g id="a_node12"><a xlink:href="classNavEKF3__core.html#a01fae89d7fa75988df64635fc572039f" target="_top" xlink:title="NavEKF3_core::selectHeight\lForFusion">
<polygon fill="white" stroke="black" points="199,-0.5 199,-30.5 343,-30.5 343,-0.5 199,-0.5"/>
<text text-anchor="start" x="207" y="-18.5" font-family="Helvetica,sans-Serif" font-size="10.00">NavEKF3_core::selectHeight</text>
<text text-anchor="middle" x="271" y="-7.5" font-family="Helvetica,sans-Serif" font-size="10.00">ForFusion</text>
</a>
</g>
</g>
<!-- Node1&#45;&gt;Node12 -->
<g id="edge11" class="edge"><title>Node1&#45;&gt;Node12</title>
<path fill="none" stroke="midnightblue" d="M162.999,-27.7287C174.951,-26.3628 187.126,-24.9713 198.776,-23.6399"/>
<polygon fill="midnightblue" stroke="midnightblue" points="162.566,-24.2552 153.029,-28.8682 163.361,-31.21 162.566,-24.2552"/>
</g>
<!-- Node3 -->
<g id="node3" class="node"><title>Node3</title>
<g id="a_node3"><a xlink:href="classNavEKF3__core.html#a8f4723dabc873f7112948a18b290fb01" target="_top" xlink:title="NavEKF3_core::SelectVelPos\lFusion">
<polygon fill="white" stroke="black" points="389,-22.5 389,-52.5 538,-52.5 538,-22.5 389,-22.5"/>
<text text-anchor="start" x="397" y="-40.5" font-family="Helvetica,sans-Serif" font-size="10.00">NavEKF3_core::SelectVelPos</text>
<text text-anchor="middle" x="463.5" y="-29.5" font-family="Helvetica,sans-Serif" font-size="10.00">Fusion</text>
</a>
</g>
</g>
<!-- Node2&#45;&gt;Node3 -->
<g id="edge2" class="edge"><title>Node2&#45;&gt;Node3</title>
<path fill="none" stroke="midnightblue" d="M363.117,-48.9773C371.711,-47.9848 380.35,-46.9871 388.753,-46.0167"/>
<polygon fill="midnightblue" stroke="midnightblue" points="362.598,-45.5139 353.065,-50.1381 363.401,-52.4677 362.598,-45.5139"/>
</g>
<!-- Node4 -->
<g id="node4" class="node"><title>Node4</title>
<g id="a_node4"><a xlink:href="classNavEKF3__core.html#a2a7fae9e0bf2ce6fc2f9b3918dc168d3" target="_top" xlink:title="NavEKF3_core::UpdateFilter">
<polygon fill="white" stroke="black" points="574,-28 574,-47 717,-47 717,-28 574,-28"/>
<text text-anchor="middle" x="645.5" y="-35" font-family="Helvetica,sans-Serif" font-size="10.00">NavEKF3_core::UpdateFilter</text>
</a>
</g>
</g>
<!-- Node3&#45;&gt;Node4 -->
<g id="edge3" class="edge"><title>Node3&#45;&gt;Node4</title>
<path fill="none" stroke="midnightblue" d="M548.495,-37.5C556.955,-37.5 565.485,-37.5 573.786,-37.5"/>
<polygon fill="midnightblue" stroke="midnightblue" points="548.232,-34.0001 538.232,-37.5 548.232,-41.0001 548.232,-34.0001"/>
</g>
<!-- Node5 -->
<g id="node5" class="node"><title>Node5</title>
<g id="a_node5"><a xlink:href="classNavEKF3.html#a477020fcf29376e0c2205dbf79728104" target="_top" xlink:title="NavEKF3::UpdateFilter">
<polygon fill="white" stroke="black" points="753,-28 753,-47 872,-47 872,-28 753,-28"/>
<text text-anchor="middle" x="812.5" y="-35" font-family="Helvetica,sans-Serif" font-size="10.00">NavEKF3::UpdateFilter</text>
</a>
</g>
</g>
<!-- Node4&#45;&gt;Node5 -->
<g id="edge4" class="edge"><title>Node4&#45;&gt;Node5</title>
<path fill="none" stroke="midnightblue" d="M727.436,-37.5C735.985,-37.5 744.556,-37.5 752.783,-37.5"/>
<polygon fill="midnightblue" stroke="midnightblue" points="727.432,-34.0001 717.432,-37.5 727.432,-41.0001 727.432,-34.0001"/>
</g>
<!-- Node6 -->
<g id="node6" class="node"><title>Node6</title>
<g id="a_node6"><a xlink:href="classNavEKF3.html#a3e1f50ad977a17222fcd7a6851b0f2ec" target="_top" xlink:title="NavEKF3::activeCores">
<polygon fill="white" stroke="black" points="935,-50 935,-69 1053,-69 1053,-50 935,-50"/>
<text text-anchor="middle" x="994" y="-57" font-family="Helvetica,sans-Serif" font-size="10.00">NavEKF3::activeCores</text>
</a>
</g>
</g>
<!-- Node5&#45;&gt;Node6 -->
<g id="edge5" class="edge"><title>Node5&#45;&gt;Node6</title>
<path fill="none" stroke="midnightblue" d="M882.307,-45.9332C899.597,-48.0523 917.985,-50.306 934.706,-52.3553"/>
<polygon fill="midnightblue" stroke="midnightblue" points="882.627,-42.4462 872.275,-44.7036 881.775,-49.3942 882.627,-42.4462"/>
</g>
<!-- Node9 -->
<g id="node9" class="node"><title>Node9</title>
<g id="a_node9"><a xlink:href="classAP__AHRS__NavEKF.html#a324160404f12959e955554f5aed26459" target="_top" xlink:title="AP_AHRS_NavEKF::update_EKF3">
<polygon fill="white" stroke="black" points="908,-9 908,-28 1080,-28 1080,-9 908,-9"/>
<text text-anchor="middle" x="994" y="-16" font-family="Helvetica,sans-Serif" font-size="10.00">AP_AHRS_NavEKF::update_EKF3</text>
</a>
</g>
</g>
<!-- Node5&#45;&gt;Node9 -->
<g id="edge8" class="edge"><title>Node5&#45;&gt;Node9</title>
<path fill="none" stroke="midnightblue" d="M882.285,-30.2191C890.612,-29.3377 899.194,-28.4293 907.722,-27.5266"/>
<polygon fill="midnightblue" stroke="midnightblue" points="881.851,-26.7454 872.275,-31.2787 882.588,-33.7065 881.851,-26.7454"/>
</g>
<!-- Node7 -->
<g id="node7" class="node"><title>Node7</title>
<g id="a_node7"><a xlink:href="classDataFlash__Class.html#a46e58faaa53c44516433f6bb7bde4163" target="_top" xlink:title="DataFlash_Class::Log\l_Write_POS">
<polygon fill="white" stroke="black" points="1130,-46.5 1130,-76.5 1244,-76.5 1244,-46.5 1130,-46.5"/>
<text text-anchor="start" x="1138" y="-64.5" font-family="Helvetica,sans-Serif" font-size="10.00">DataFlash_Class::Log</text>
<text text-anchor="middle" x="1187" y="-53.5" font-family="Helvetica,sans-Serif" font-size="10.00">_Write_POS</text>
</a>
</g>
</g>
<!-- Node6&#45;&gt;Node7 -->
<g id="edge6" class="edge"><title>Node6&#45;&gt;Node7</title>
<path fill="none" stroke="midnightblue" d="M1063.27,-60.2149C1085.09,-60.4434 1108.98,-60.6935 1129.83,-60.9118"/>
<polygon fill="midnightblue" stroke="midnightblue" points="1063.12,-56.7132 1053.08,-60.1082 1063.05,-63.7128 1063.12,-56.7132"/>
</g>
<!-- Node8 -->
<g id="node8" class="node"><title>Node8</title>
<g id="a_node8"><a xlink:href="classDataFlash__Class.html#a7868f0e3dcef65ea5b5fcae618f4c5d4" target="_top" xlink:title="DataFlash_Class::get\l_structures">
<polygon fill="white" stroke="black" points="1294,-46.5 1294,-76.5 1406,-76.5 1406,-46.5 1294,-46.5"/>
<text text-anchor="start" x="1302" y="-64.5" font-family="Helvetica,sans-Serif" font-size="10.00">DataFlash_Class::get</text>
<text text-anchor="middle" x="1350" y="-53.5" font-family="Helvetica,sans-Serif" font-size="10.00">_structures</text>
</a>
</g>
</g>
<!-- Node7&#45;&gt;Node8 -->
<g id="edge7" class="edge"><title>Node7&#45;&gt;Node8</title>
<path fill="none" stroke="midnightblue" d="M1254.63,-61.5C1267.66,-61.5 1281.2,-61.5 1293.81,-61.5"/>
<polygon fill="midnightblue" stroke="midnightblue" points="1254.31,-58.0001 1244.31,-61.5 1254.31,-65.0001 1254.31,-58.0001"/>
</g>
<!-- Node10 -->
<g id="node10" class="node"><title>Node10</title>
<g id="a_node10"><a xlink:href="classAP__AHRS__NavEKF.html#ac8111979c5dc37a55b2c50818534ea52" target="_top" xlink:title="AP_AHRS_NavEKF::update">
<polygon fill="white" stroke="black" points="1116,-8 1116,-27 1258,-27 1258,-8 1116,-8"/>
<text text-anchor="middle" x="1187" y="-15" font-family="Helvetica,sans-Serif" font-size="10.00">AP_AHRS_NavEKF::update</text>
</a>
</g>
</g>
<!-- Node9&#45;&gt;Node10 -->
<g id="edge9" class="edge"><title>Node9&#45;&gt;Node10</title>
<path fill="none" stroke="midnightblue" d="M1090.27,-18.0012C1098.9,-17.956 1107.53,-17.9109 1115.87,-17.8671"/>
<polygon fill="midnightblue" stroke="midnightblue" points="1090.15,-14.5017 1080.17,-18.0541 1090.18,-21.5016 1090.15,-14.5017"/>
</g>
<!-- Node11 -->
<g id="node11" class="node"><title>Node11</title>
<g id="a_node11"><a xlink:href="AHRS__Test_8cpp.html#a0b33edabd7f1c4e4a0bf32c67269be2f" target="_top" xlink:title="loop">
<polygon fill="white" stroke="black" points="1332.5,-8 1332.5,-27 1367.5,-27 1367.5,-8 1332.5,-8"/>
<text text-anchor="middle" x="1350" y="-15" font-family="Helvetica,sans-Serif" font-size="10.00">loop</text>
</a>
</g>
</g>
<!-- Node10&#45;&gt;Node11 -->
<g id="edge10" class="edge"><title>Node10&#45;&gt;Node11</title>
<path fill="none" stroke="midnightblue" d="M1268.17,-17.5C1292.48,-17.5 1316.83,-17.5 1332.35,-17.5"/>
<polygon fill="midnightblue" stroke="midnightblue" points="1268.15,-14.0001 1258.15,-17.5 1268.15,-21.0001 1268.15,-14.0001"/>
</g>
<!-- Node12&#45;&gt;Node3 -->
<g id="edge12" class="edge"><title>Node12&#45;&gt;Node3</title>
<path fill="none" stroke="midnightblue" d="M353.445,-24.9057C365.201,-26.2634 377.244,-27.6542 388.837,-28.9929"/>
<polygon fill="midnightblue" stroke="midnightblue" points="353.542,-21.3937 343.206,-23.7233 352.738,-28.3475 353.542,-21.3937"/>
</g>
</g>
</svg>
        <g id="navigator" transform="translate(0 0)" fill="#404254">
                <rect fill="#f2f5e9" fill-opacity="0.5" stroke="#606060" stroke-width=".5" x="0" y="0" width="60" height="60"/>
                <use id="zoomplus" xlink:href="#zoomPlus" x="17" y="9" onmousedown="handleZoom(evt,'in')"/>
                <use id="zoomminus" xlink:href="#zoomMin" x="42" y="9" onmousedown="handleZoom(evt,'out')"/>
                <use id="reset" xlink:href="#resetDef" x="30" y="36" onmousedown="handleReset()"/>
                <g id="arrowUp" xlink:href="#dirArrow" transform="translate(30 24)" onmousedown="handlePan(0,-1)">
                  <use xlink:href="#rim" fill="#404040">
                        <set attributeName="fill" to="#808080" begin="arrowUp.mouseover" end="arrowUp.mouseout"/>
                  </use>
                  <path fill="none" stroke="white" stroke-width="1.5" d="M0,-3.0v7 M-2.5,-0.5L0,-3.0L2.5,-0.5"/>
                </g>
                <g id="arrowRight" xlink:href="#dirArrow" transform="rotate(90) translate(36 -43)" onmousedown="handlePan(1,0)">
                  <use xlink:href="#rim" fill="#404040">
                        <set attributeName="fill" to="#808080" begin="arrowRight.mouseover" end="arrowRight.mouseout"/>
                  </use>
                  <path fill="none" stroke="white" stroke-width="1.5" d="M0,-3.0v7 M-2.5,-0.5L0,-3.0L2.5,-0.5"/>
                </g>
                <g id="arrowDown" xlink:href="#dirArrow" transform="rotate(180) translate(-30 -48)" onmousedown="handlePan(0,1)">
                  <use xlink:href="#rim" fill="#404040">
                        <set attributeName="fill" to="#808080" begin="arrowDown.mouseover" end="arrowDown.mouseout"/>
                  </use>
                  <path fill="none" stroke="white" stroke-width="1.5" d="M0,-3.0v7 M-2.5,-0.5L0,-3.0L2.5,-0.5"/>
                </g>
                <g id="arrowLeft" xlink:href="#dirArrow" transform="rotate(270) translate(-36 17)" onmousedown="handlePan(-1,0)">
                  <use xlink:href="#rim" fill="#404040">
                        <set attributeName="fill" to="#808080" begin="arrowLeft.mouseover" end="arrowLeft.mouseout"/>
                  </use>
                  <path fill="none" stroke="white" stroke-width="1.5" d="M0,-3.0v7 M-2.5,-0.5L0,-3.0L2.5,-0.5"/>
                </g>
        </g>
        <svg viewBox="0 0 15 15" width="100%" height="30px" preserveAspectRatio="xMaxYMin meet">
         <g id="arrow_out" transform="scale(0.3 0.3)">
          <a xlink:href="classNavEKF3__core_aee1ab7a76bb1b1b24487807bcaff1868_icgraph_org.svg" target="_base">
           <rect id="button" ry="5" rx="5" y="6" x="6" height="38" width="38"
                fill="#f2f5e9" fill-opacity="0.5" stroke="#606060" stroke-width="1.0"/>
           <path id="arrow"
             d="M 11.500037,31.436501 C 11.940474,20.09759 22.043105,11.32322 32.158766,21.979434 L 37.068811,17.246167 C 37.068811,17.246167 37.088388,32 37.088388,32 L 22.160133,31.978069 C 22.160133,31.978069 26.997745,27.140456 26.997745,27.140456 C 18.528582,18.264221 13.291696,25.230495 11.500037,31.436501 z"
             style="fill:#404040;"/>
          </a>
         </g>
        </svg>
</svg>
