<?xml version="1.0" encoding="UTF-8" standalone="no"?>
<!DOCTYPE svg PUBLIC "-//W3C//DTD SVG 1.1//EN"
 "http://www.w3.org/Graphics/SVG/1.1/DTD/svg11.dtd">
<!-- Generated by graphviz version 2.38.0 (20140413.2041)
 -->
<!-- Title: Linux::Perf::begin Pages: 1 -->
<!--zoomable 198 -->
<svg id="main" version="1.1" xmlns="http://www.w3.org/2000/svg" xmlns:xlink="http://www.w3.org/1999/xlink" xml:space="preserve" onload="init(evt)">
<style type="text/css"><![CDATA[
.edge:hover path { stroke: red; }
.edge:hover polygon { stroke: red; fill: red; }
]]></style>
<script type="text/javascript"><![CDATA[
var edges = document.getElementsByTagName('g');
if (edges && edges.length) {
  for (var i=0;i<edges.length;i++) {
    if (edges[i].id.substr(0,4)=='edge') {
      edges[i].setAttribute('class','edge');
    }
  }
}
]]></script>
        <defs>
                <circle id="rim" cx="0" cy="0" r="7"/>
                <circle id="rim2" cx="0" cy="0" r="3.5"/>
                <g id="zoomPlus">
                        <use xlink:href="#rim" fill="#404040">
                                <set attributeName="fill" to="#808080" begin="zoomplus.mouseover" end="zoomplus.mouseout"/>
                        </use>
                        <path d="M-4,0h8M0,-4v8" fill="none" stroke="white" stroke-width="1.5" pointer-events="none"/>
                </g>
                <g id="zoomMin">
                        <use xlink:href="#rim" fill="#404040">
                                <set attributeName="fill" to="#808080" begin="zoomminus.mouseover" end="zoomminus.mouseout"/>
                        </use>
                        <path d="M-4,0h8" fill="none" stroke="white" stroke-width="1.5" pointer-events="none"/>
                </g>
                <g id="dirArrow">
                        <path fill="none" stroke="white" stroke-width="1.5" d="M0,-3.0v7 M-2.5,-0.5L0,-3.0L2.5,-0.5"/>
                </g>
               <g id="resetDef">
                       <use xlink:href="#rim2" fill="#404040">
                               <set attributeName="fill" to="#808080" begin="reset.mouseover" end="reset.mouseout"/>
                       </use>
               </g>
        </defs>

<script type="text/javascript">
var viewWidth = 651;
var viewHeight = 198;
var sectionId = 'dynsection-6';
</script>
<script xlink:href="svgpan.js"/>
<svg id="graph" class="graph">
<g id="viewport">
<title>Linux::Perf::begin</title>
<polygon fill="white" stroke="none" points="-4,4 -4,-193.5 647,-193.5 647,4 -4,4"/>
<!-- Node1 -->
<g id="node1" class="node"><title>Node1</title>
<polygon fill="#bfbfbf" stroke="black" points="0,-50 0,-69 93,-69 93,-50 0,-50"/>
<text text-anchor="middle" x="46.5" y="-57" font-family="Helvetica,sans-Serif" font-size="10.00">Linux::Perf::begin</text>
</g>
<!-- Node2 -->
<g id="node2" class="node"><title>Node2</title>
<g id="a_node2"><a xlink:href="classAP__HAL_1_1UARTDriver.html#a6ceedc792594e59fc7d80b39a435f027" target="_top" xlink:title="AP_HAL::UARTDriver\l::printf">
<polygon fill="white" stroke="black" points="129,-88.5 129,-118.5 244,-118.5 244,-88.5 129,-88.5"/>
<text text-anchor="start" x="137" y="-106.5" font-family="Helvetica,sans-Serif" font-size="10.00">AP_HAL::UARTDriver</text>
<text text-anchor="middle" x="186.5" y="-95.5" font-family="Helvetica,sans-Serif" font-size="10.00">::printf</text>
</a>
</g>
</g>
<!-- Node1&#45;&gt;Node2 -->
<g id="edge1" class="edge"><title>Node1&#45;&gt;Node2</title>
<path fill="none" stroke="midnightblue" d="M77.4439,-69.0473C92.4262,-73.8243 111.072,-79.7692 128.634,-85.3689"/>
<polygon fill="midnightblue" stroke="midnightblue" points="127.659,-88.7314 138.25,-88.4346 129.785,-82.0622 127.659,-88.7314"/>
</g>
<!-- Node10 -->
<g id="node10" class="node"><title>Node10</title>
<g id="a_node10"><a xlink:href="Perf_8cpp.html#a7201a072d9ae726a5d74fbea9f94ae61" target="_top" xlink:title="now_nsec">
<polygon fill="white" stroke="black" points="156,-50 156,-69 217,-69 217,-50 156,-50"/>
<text text-anchor="middle" x="186.5" y="-57" font-family="Helvetica,sans-Serif" font-size="10.00">now_nsec</text>
</a>
</g>
</g>
<!-- Node1&#45;&gt;Node10 -->
<g id="edge9" class="edge"><title>Node1&#45;&gt;Node10</title>
<path fill="none" stroke="midnightblue" d="M93.0688,-59.5C109.942,-59.5 128.936,-59.5 145.298,-59.5"/>
<polygon fill="midnightblue" stroke="midnightblue" points="145.621,-63.0001 155.621,-59.5 145.621,-56.0001 145.621,-63.0001"/>
</g>
<!-- Node11 -->
<g id="node11" class="node"><title>Node11</title>
<g id="a_node11"><a xlink:href="classLinux_1_1Perf__Lttng.html#a20af15a8dfa5dd4326522e8bef86a7d0" target="_top" xlink:title="Linux::Perf_Lttng::\lbegin">
<polygon fill="white" stroke="black" points="138,-0.5 138,-30.5 235,-30.5 235,-0.5 138,-0.5"/>
<text text-anchor="start" x="146" y="-18.5" font-family="Helvetica,sans-Serif" font-size="10.00">Linux::Perf_Lttng::</text>
<text text-anchor="middle" x="186.5" y="-7.5" font-family="Helvetica,sans-Serif" font-size="10.00">begin</text>
</a>
</g>
</g>
<!-- Node1&#45;&gt;Node11 -->
<g id="edge10" class="edge"><title>Node1&#45;&gt;Node11</title>
<path fill="none" stroke="midnightblue" d="M77.4439,-49.9527C92.4262,-45.1757 111.072,-39.2308 128.634,-33.6311"/>
<polygon fill="midnightblue" stroke="midnightblue" points="129.785,-36.9378 138.25,-30.5654 127.659,-30.2686 129.785,-36.9378"/>
</g>
<!-- Node3 -->
<g id="node3" class="node"><title>Node3</title>
<g id="a_node3"><a xlink:href="classAP__HAL_1_1UARTDriver.html#aa8abfb6d6641299472c29ac1edde559f" target="_top" xlink:title="AP_HAL::UARTDriver\l::vprintf">
<polygon fill="white" stroke="black" points="280,-88.5 280,-118.5 395,-118.5 395,-88.5 280,-88.5"/>
<text text-anchor="start" x="288" y="-106.5" font-family="Helvetica,sans-Serif" font-size="10.00">AP_HAL::UARTDriver</text>
<text text-anchor="middle" x="337.5" y="-95.5" font-family="Helvetica,sans-Serif" font-size="10.00">::vprintf</text>
</a>
</g>
</g>
<!-- Node2&#45;&gt;Node3 -->
<g id="edge2" class="edge"><title>Node2&#45;&gt;Node3</title>
<path fill="none" stroke="midnightblue" d="M244.256,-103.5C252.558,-103.5 261.173,-103.5 269.654,-103.5"/>
<polygon fill="midnightblue" stroke="midnightblue" points="269.902,-107 279.902,-103.5 269.902,-100 269.902,-107"/>
</g>
<!-- Node4 -->
<g id="node4" class="node"><title>Node4</title>
<g id="a_node4"><a xlink:href="print__vprintf_8cpp.html#a1534eaeab54696df96975b56d9f49212" target="_top" xlink:title="print_vprintf">
<polygon fill="white" stroke="black" points="431,-94 431,-113 499,-113 499,-94 431,-94"/>
<text text-anchor="middle" x="465" y="-101" font-family="Helvetica,sans-Serif" font-size="10.00">print_vprintf</text>
</a>
</g>
</g>
<!-- Node3&#45;&gt;Node4 -->
<g id="edge3" class="edge"><title>Node3&#45;&gt;Node4</title>
<path fill="none" stroke="midnightblue" d="M395.009,-103.5C403.609,-103.5 412.367,-103.5 420.628,-103.5"/>
<polygon fill="midnightblue" stroke="midnightblue" points="420.777,-107 430.777,-103.5 420.777,-100 420.777,-107"/>
</g>
<!-- Node5 -->
<g id="node5" class="node"><title>Node5</title>
<g id="a_node5"><a xlink:href="classAP__HAL_1_1Print.html#acc65391952a43334f8f5c9bef341f501" target="_top" xlink:title="AP_HAL::Print::write">
<polygon fill="white" stroke="black" points="535,-170 535,-189 643,-189 643,-170 535,-170"/>
<text text-anchor="middle" x="589" y="-177" font-family="Helvetica,sans-Serif" font-size="10.00">AP_HAL::Print::write</text>
</a>
</g>
</g>
<!-- Node4&#45;&gt;Node5 -->
<g id="edge4" class="edge"><title>Node4&#45;&gt;Node5</title>
<path fill="none" stroke="midnightblue" d="M475.47,-113.183C488.07,-125.602 511.502,-147.129 535,-160.5 538.632,-162.567 542.529,-164.473 546.501,-166.215"/>
<polygon fill="midnightblue" stroke="midnightblue" points="545.233,-169.477 555.816,-169.979 547.856,-162.987 545.233,-169.477"/>
</g>
<!-- Node6 -->
<g id="node6" class="node"><title>Node6</title>
<g id="a_node6"><a xlink:href="ftoa__engine_8cpp.html#a1c28234da8f20b43c85890d4bb452947" target="_top" xlink:title="ftoa_engine">
<polygon fill="white" stroke="black" points="555.5,-132 555.5,-151 622.5,-151 622.5,-132 555.5,-132"/>
<text text-anchor="middle" x="589" y="-139" font-family="Helvetica,sans-Serif" font-size="10.00">ftoa_engine</text>
</a>
</g>
</g>
<!-- Node4&#45;&gt;Node6 -->
<g id="edge5" class="edge"><title>Node4&#45;&gt;Node6</title>
<path fill="none" stroke="midnightblue" d="M496.786,-113.089C512.101,-117.859 530.817,-123.689 547.3,-128.823"/>
<polygon fill="midnightblue" stroke="midnightblue" points="546.636,-132.282 557.224,-131.914 548.717,-125.599 546.636,-132.282"/>
</g>
<!-- Node7 -->
<g id="node7" class="node"><title>Node7</title>
<g id="a_node7"><a xlink:href="replace_8cpp.html#a880bcc7b85a09e6254691bebd5344b51" target="_top" xlink:title="strnlen">
<polygon fill="white" stroke="black" points="566,-94 566,-113 612,-113 612,-94 566,-94"/>
<text text-anchor="middle" x="589" y="-101" font-family="Helvetica,sans-Serif" font-size="10.00">strnlen</text>
</a>
</g>
</g>
<!-- Node4&#45;&gt;Node7 -->
<g id="edge6" class="edge"><title>Node4&#45;&gt;Node7</title>
<path fill="none" stroke="midnightblue" d="M499.015,-103.5C516.547,-103.5 538.016,-103.5 555.474,-103.5"/>
<polygon fill="midnightblue" stroke="midnightblue" points="555.754,-107 565.754,-103.5 555.754,-100 555.754,-107"/>
</g>
<!-- Node8 -->
<g id="node8" class="node"><title>Node8</title>
<g id="a_node8"><a xlink:href="utoa__invert_8cpp.html#a34926f552460b47c414ec4d83b32815c" target="_top" xlink:title="ulltoa_invert">
<polygon fill="white" stroke="black" points="554.5,-56 554.5,-75 623.5,-75 623.5,-56 554.5,-56"/>
<text text-anchor="middle" x="589" y="-63" font-family="Helvetica,sans-Serif" font-size="10.00">ulltoa_invert</text>
</a>
</g>
</g>
<!-- Node4&#45;&gt;Node8 -->
<g id="edge7" class="edge"><title>Node4&#45;&gt;Node8</title>
<path fill="none" stroke="midnightblue" d="M496.786,-93.911C512.101,-89.1406 530.817,-83.3112 547.3,-78.1771"/>
<polygon fill="midnightblue" stroke="midnightblue" points="548.717,-81.4015 557.224,-75.0859 546.636,-74.7182 548.717,-81.4015"/>
</g>
<!-- Node9 -->
<g id="node9" class="node"><title>Node9</title>
<g id="a_node9"><a xlink:href="utoa__invert_8cpp.html#a5d99bba8e697c1e11da489d88fca8559" target="_top" xlink:title="ultoa_invert">
<polygon fill="white" stroke="black" points="555.5,-18 555.5,-37 622.5,-37 622.5,-18 555.5,-18"/>
<text text-anchor="middle" x="589" y="-25" font-family="Helvetica,sans-Serif" font-size="10.00">ultoa_invert</text>
</a>
</g>
</g>
<!-- Node4&#45;&gt;Node9 -->
<g id="edge8" class="edge"><title>Node4&#45;&gt;Node9</title>
<path fill="none" stroke="midnightblue" d="M475.47,-93.8175C488.07,-81.3984 511.502,-59.871 535,-46.5 538.632,-44.4334 542.529,-42.5271 546.501,-40.7853"/>
<polygon fill="midnightblue" stroke="midnightblue" points="547.856,-44.0129 555.816,-37.0214 545.233,-37.5226 547.856,-44.0129"/>
</g>
</g>
</svg>
        <g id="navigator" transform="translate(0 0)" fill="#404254">
                <rect fill="#f2f5e9" fill-opacity="0.5" stroke="#606060" stroke-width=".5" x="0" y="0" width="60" height="60"/>
                <use id="zoomplus" xlink:href="#zoomPlus" x="17" y="9" onmousedown="handleZoom(evt,'in')"/>
                <use id="zoomminus" xlink:href="#zoomMin" x="42" y="9" onmousedown="handleZoom(evt,'out')"/>
                <use id="reset" xlink:href="#resetDef" x="30" y="36" onmousedown="handleReset()"/>
                <g id="arrowUp" xlink:href="#dirArrow" transform="translate(30 24)" onmousedown="handlePan(0,-1)">
                  <use xlink:href="#rim" fill="#404040">
                        <set attributeName="fill" to="#808080" begin="arrowUp.mouseover" end="arrowUp.mouseout"/>
                  </use>
                  <path fill="none" stroke="white" stroke-width="1.5" d="M0,-3.0v7 M-2.5,-0.5L0,-3.0L2.5,-0.5"/>
                </g>
                <g id="arrowRight" xlink:href="#dirArrow" transform="rotate(90) translate(36 -43)" onmousedown="handlePan(1,0)">
                  <use xlink:href="#rim" fill="#404040">
                        <set attributeName="fill" to="#808080" begin="arrowRight.mouseover" end="arrowRight.mouseout"/>
                  </use>
                  <path fill="none" stroke="white" stroke-width="1.5" d="M0,-3.0v7 M-2.5,-0.5L0,-3.0L2.5,-0.5"/>
                </g>
                <g id="arrowDown" xlink:href="#dirArrow" transform="rotate(180) translate(-30 -48)" onmousedown="handlePan(0,1)">
                  <use xlink:href="#rim" fill="#404040">
                        <set attributeName="fill" to="#808080" begin="arrowDown.mouseover" end="arrowDown.mouseout"/>
                  </use>
                  <path fill="none" stroke="white" stroke-width="1.5" d="M0,-3.0v7 M-2.5,-0.5L0,-3.0L2.5,-0.5"/>
                </g>
                <g id="arrowLeft" xlink:href="#dirArrow" transform="rotate(270) translate(-36 17)" onmousedown="handlePan(-1,0)">
                  <use xlink:href="#rim" fill="#404040">
                        <set attributeName="fill" to="#808080" begin="arrowLeft.mouseover" end="arrowLeft.mouseout"/>
                  </use>
                  <path fill="none" stroke="white" stroke-width="1.5" d="M0,-3.0v7 M-2.5,-0.5L0,-3.0L2.5,-0.5"/>
                </g>
        </g>
        <svg viewBox="0 0 15 15" width="100%" height="30px" preserveAspectRatio="xMaxYMin meet">
         <g id="arrow_out" transform="scale(0.3 0.3)">
          <a xlink:href="classLinux_1_1Perf_add4e0fdaacf2d4472bbb3d1c8742ca27_cgraph_org.svg" target="_base">
           <rect id="button" ry="5" rx="5" y="6" x="6" height="38" width="38"
                fill="#f2f5e9" fill-opacity="0.5" stroke="#606060" stroke-width="1.0"/>
           <path id="arrow"
             d="M 11.500037,31.436501 C 11.940474,20.09759 22.043105,11.32322 32.158766,21.979434 L 37.068811,17.246167 C 37.068811,17.246167 37.088388,32 37.088388,32 L 22.160133,31.978069 C 22.160133,31.978069 26.997745,27.140456 26.997745,27.140456 C 18.528582,18.264221 13.291696,25.230495 11.500037,31.436501 z"
             style="fill:#404040;"/>
          </a>
         </g>
        </svg>
</svg>
