<?xml version="1.0" encoding="UTF-8" standalone="no"?>
<!DOCTYPE svg PUBLIC "-//W3C//DTD SVG 1.1//EN"
 "http://www.w3.org/Graphics/SVG/1.1/DTD/svg11.dtd">
<!-- Generated by graphviz version 2.38.0 (20140413.2041)
 -->
<!-- Title: Linux::RCOutput_AioPRU Pages: 1 -->
<svg width="290pt" height="95pt"
 viewBox="0.00 0.00 289.50 95.00" xmlns="http://www.w3.org/2000/svg" xmlns:xlink="http://www.w3.org/1999/xlink">
<g id="graph0" class="graph" transform="scale(1 1) rotate(0) translate(4 91)">
<title>Linux::RCOutput_AioPRU</title>
<polygon fill="white" stroke="none" points="-4,4 -4,-91 285.5,-91 285.5,4 -4,4"/>
<!-- Node1 -->
<g id="node1" class="node"><title>Node1</title>
<polygon fill="#bfbfbf" stroke="black" points="62,-0.5 62,-19.5 193,-19.5 193,-0.5 62,-0.5"/>
<text text-anchor="middle" x="127.5" y="-7.5" font-family="Helvetica,sans-Serif" font-size="10.00">Linux::RCOutput_AioPRU</text>
</g>
<!-- Node2 -->
<g id="node2" class="node"><title>Node2</title>
<g id="a_node2"><a xlink:href="classAP__HAL_1_1RCOutput.html" target="_top" xlink:title="AP_HAL::RCOutput">
<polygon fill="white" stroke="black" points="0,-67.5 0,-86.5 105,-86.5 105,-67.5 0,-67.5"/>
<text text-anchor="middle" x="52.5" y="-74.5" font-family="Helvetica,sans-Serif" font-size="10.00">AP_HAL::RCOutput</text>
</a>
</g>
</g>
<!-- Node2&#45;&gt;Node1 -->
<g id="edge1" class="edge"><title>Node2&#45;&gt;Node1</title>
<path fill="none" stroke="midnightblue" d="M70.5503,-60.3564C85.295,-47.5777 105.587,-29.9915 117.545,-19.6273"/>
<polygon fill="midnightblue" stroke="midnightblue" points="67.8795,-58.0396 62.6148,-67.2338 72.464,-63.3294 67.8795,-58.0396"/>
</g>
<!-- Node3 -->
<g id="node3" class="node"><title>Node3</title>
<g id="a_node3"><a xlink:href="structLinux_1_1RCOutput__AioPRU_1_1pwm.html" target="_top" xlink:title="Linux::RCOutput_AioPRU::pwm">
<polygon fill="white" stroke="black" points="123.5,-67.5 123.5,-86.5 281.5,-86.5 281.5,-67.5 123.5,-67.5"/>
<text text-anchor="middle" x="202.5" y="-74.5" font-family="Helvetica,sans-Serif" font-size="10.00">Linux::RCOutput_AioPRU::pwm</text>
</a>
</g>
</g>
<!-- Node3&#45;&gt;Node1 -->
<g id="edge2" class="edge"><title>Node3&#45;&gt;Node1</title>
<path fill="none" stroke="#9a32cd" stroke-dasharray="5,2" d="M184.45,-60.3564C169.705,-47.5777 149.413,-29.9915 137.455,-19.6273"/>
<polygon fill="#9a32cd" stroke="#9a32cd" points="182.536,-63.3294 192.385,-67.2338 187.121,-58.0396 182.536,-63.3294"/>
<text text-anchor="middle" x="182" y="-41" font-family="Helvetica,sans-Serif" font-size="10.00"> pwm</text>
</g>
</g>
</svg>
