<?xml version="1.0" encoding="UTF-8" standalone="no"?>
<!DOCTYPE svg PUBLIC "-//W3C//DTD SVG 1.1//EN"
 "http://www.w3.org/Graphics/SVG/1.1/DTD/svg11.dtd">
<!-- Generated by graphviz version 2.38.0 (20140413.2041)
 -->
<!-- Title: NavEKF2_core::getQuaternion Pages: 1 -->
<svg width="802pt" height="78pt"
 viewBox="0.00 0.00 802.00 77.50" xmlns="http://www.w3.org/2000/svg" xmlns:xlink="http://www.w3.org/1999/xlink">
<g id="graph0" class="graph" transform="scale(1 1) rotate(0) translate(4 73.5)">
<title>NavEKF2_core::getQuaternion</title>
<polygon fill="white" stroke="none" points="-4,4 -4,-73.5 798,-73.5 798,4 -4,4"/>
<!-- Node1 -->
<g id="node1" class="node"><title>Node1</title>
<polygon fill="#bfbfbf" stroke="black" points="0,-22.5 0,-41.5 150,-41.5 150,-22.5 0,-22.5"/>
<text text-anchor="middle" x="75" y="-29.5" font-family="Helvetica,sans-Serif" font-size="10.00">NavEKF2_core::getQuaternion</text>
</g>
<!-- Node2 -->
<g id="node2" class="node"><title>Node2</title>
<g id="a_node2"><a xlink:href="classNavEKF2.html#acc9be5a38737bbc68933977c6b78d278" target="_top" xlink:title="NavEKF2::getQuaternion">
<polygon fill="white" stroke="black" points="186,-22.5 186,-41.5 312,-41.5 312,-22.5 186,-22.5"/>
<text text-anchor="middle" x="249" y="-29.5" font-family="Helvetica,sans-Serif" font-size="10.00">NavEKF2::getQuaternion</text>
</a>
</g>
</g>
<!-- Node1&#45;&gt;Node2 -->
<g id="edge1" class="edge"><title>Node1&#45;&gt;Node2</title>
<path fill="none" stroke="midnightblue" d="M160.293,-32C168.925,-32 177.58,-32 185.91,-32"/>
<polygon fill="midnightblue" stroke="midnightblue" points="160.192,-28.5001 150.191,-32 160.191,-35.5001 160.192,-28.5001"/>
</g>
<!-- Node3 -->
<g id="node3" class="node"><title>Node3</title>
<g id="a_node3"><a xlink:href="classNavEKF2.html#ab18af2714c15fcf190493c01e2a28c73" target="_top" xlink:title="NavEKF2::activeCores">
<polygon fill="white" stroke="black" points="348,-22.5 348,-41.5 466,-41.5 466,-22.5 348,-22.5"/>
<text text-anchor="middle" x="407" y="-29.5" font-family="Helvetica,sans-Serif" font-size="10.00">NavEKF2::activeCores</text>
</a>
</g>
</g>
<!-- Node2&#45;&gt;Node3 -->
<g id="edge2" class="edge"><title>Node2&#45;&gt;Node3</title>
<path fill="none" stroke="midnightblue" d="M322.164,-32C330.793,-32 339.517,-32 347.912,-32"/>
<polygon fill="midnightblue" stroke="midnightblue" points="322.104,-28.5001 312.104,-32 322.104,-35.5001 322.104,-28.5001"/>
</g>
<!-- Node4 -->
<g id="node4" class="node"><title>Node4</title>
<g id="a_node4"><a xlink:href="classDataFlash__Class.html#a46e58faaa53c44516433f6bb7bde4163" target="_top" xlink:title="DataFlash_Class::Log\l_Write_POS">
<polygon fill="white" stroke="black" points="517,-39 517,-69 631,-69 631,-39 517,-39"/>
<text text-anchor="start" x="525" y="-57" font-family="Helvetica,sans-Serif" font-size="10.00">DataFlash_Class::Log</text>
<text text-anchor="middle" x="574" y="-46" font-family="Helvetica,sans-Serif" font-size="10.00">_Write_POS</text>
</a>
</g>
</g>
<!-- Node3&#45;&gt;Node4 -->
<g id="edge3" class="edge"><title>Node3&#45;&gt;Node4</title>
<path fill="none" stroke="midnightblue" d="M476.33,-41.1107C489.778,-42.9037 503.743,-44.7657 516.738,-46.4984"/>
<polygon fill="midnightblue" stroke="midnightblue" points="476.548,-37.6088 466.173,-39.7564 475.623,-44.5474 476.548,-37.6088"/>
</g>
<!-- Node6 -->
<g id="node6" class="node"><title>Node6</title>
<g id="a_node6"><a xlink:href="classGCS__MAVLINK.html#a558ba3447048b78cb9dde460053e2741" target="_top" xlink:title="GCS_MAVLINK::send_ahrs2">
<polygon fill="white" stroke="black" points="502,-0.5 502,-19.5 646,-19.5 646,-0.5 502,-0.5"/>
<text text-anchor="middle" x="574" y="-7.5" font-family="Helvetica,sans-Serif" font-size="10.00">GCS_MAVLINK::send_ahrs2</text>
</a>
</g>
</g>
<!-- Node3&#45;&gt;Node6 -->
<g id="edge5" class="edge"><title>Node3&#45;&gt;Node6</title>
<path fill="none" stroke="midnightblue" d="M476.299,-22.8934C484.703,-21.7729 493.31,-20.6253 501.757,-19.4991"/>
<polygon fill="midnightblue" stroke="midnightblue" points="475.623,-19.4526 466.173,-24.2436 476.548,-26.3912 475.623,-19.4526"/>
</g>
<!-- Node5 -->
<g id="node5" class="node"><title>Node5</title>
<g id="a_node5"><a xlink:href="classDataFlash__Class.html#a7868f0e3dcef65ea5b5fcae618f4c5d4" target="_top" xlink:title="DataFlash_Class::get\l_structures">
<polygon fill="white" stroke="black" points="682,-39 682,-69 794,-69 794,-39 682,-39"/>
<text text-anchor="start" x="690" y="-57" font-family="Helvetica,sans-Serif" font-size="10.00">DataFlash_Class::get</text>
<text text-anchor="middle" x="738" y="-46" font-family="Helvetica,sans-Serif" font-size="10.00">_structures</text>
</a>
</g>
</g>
<!-- Node4&#45;&gt;Node5 -->
<g id="edge4" class="edge"><title>Node4&#45;&gt;Node5</title>
<path fill="none" stroke="midnightblue" d="M641.39,-54C654.885,-54 668.94,-54 681.988,-54"/>
<polygon fill="midnightblue" stroke="midnightblue" points="641.205,-50.5001 631.205,-54 641.205,-57.5001 641.205,-50.5001"/>
</g>
</g>
</svg>
