<?xml version="1.0" encoding="UTF-8" standalone="no"?>
<!DOCTYPE svg PUBLIC "-//W3C//DTD SVG 1.1//EN"
 "http://www.w3.org/Graphics/SVG/1.1/DTD/svg11.dtd">
<!-- Generated by graphviz version 2.38.0 (20140413.2041)
 -->
<!-- Title: SoloGimbal_Parameters::get_param_name Pages: 1 -->
<svg width="446pt" height="276pt"
 viewBox="0.00 0.00 446.00 276.00" xmlns="http://www.w3.org/2000/svg" xmlns:xlink="http://www.w3.org/1999/xlink">
<g id="graph0" class="graph" transform="scale(1 1) rotate(0) translate(4 272)">
<title>SoloGimbal_Parameters::get_param_name</title>
<polygon fill="white" stroke="none" points="-4,4 -4,-272 442,-272 442,4 -4,4"/>
<!-- Node1 -->
<g id="node1" class="node"><title>Node1</title>
<polygon fill="#bfbfbf" stroke="black" points="0,-166.5 0,-196.5 122,-196.5 122,-166.5 0,-166.5"/>
<text text-anchor="start" x="8" y="-184.5" font-family="Helvetica,sans-Serif" font-size="10.00">SoloGimbal_Parameters</text>
<text text-anchor="middle" x="61" y="-173.5" font-family="Helvetica,sans-Serif" font-size="10.00">::get_param_name</text>
</g>
<!-- Node2 -->
<g id="node2" class="node"><title>Node2</title>
<g id="a_node2"><a xlink:href="classSoloGimbal__Parameters.html#a99bb22d83bf1b33c784280a30bacab95" target="_top" xlink:title="SoloGimbal_Parameters\l::handle_param_value">
<polygon fill="white" stroke="black" points="158,-237.5 158,-267.5 280,-267.5 280,-237.5 158,-237.5"/>
<text text-anchor="start" x="166" y="-255.5" font-family="Helvetica,sans-Serif" font-size="10.00">SoloGimbal_Parameters</text>
<text text-anchor="middle" x="219" y="-244.5" font-family="Helvetica,sans-Serif" font-size="10.00">::handle_param_value</text>
</a>
</g>
</g>
<!-- Node1&#45;&gt;Node2 -->
<g id="edge1" class="edge"><title>Node1&#45;&gt;Node2</title>
<path fill="none" stroke="midnightblue" d="M100.821,-201.326C118.174,-209.976 138.968,-220.049 158,-228.5 164.767,-231.505 172.033,-234.556 179.091,-237.429"/>
<polygon fill="midnightblue" stroke="midnightblue" points="102.075,-198.04 91.5672,-196.687 98.9381,-204.298 102.075,-198.04"/>
</g>
<!-- Node3 -->
<g id="node3" class="node"><title>Node3</title>
<g id="a_node3"><a xlink:href="classSoloGimbal__Parameters.html#aa0d2d86377b895821e658dcf746724a8" target="_top" xlink:title="SoloGimbal_Parameters\l::set_channel">
<polygon fill="white" stroke="black" points="158,-188.5 158,-218.5 280,-218.5 280,-188.5 158,-188.5"/>
<text text-anchor="start" x="166" y="-206.5" font-family="Helvetica,sans-Serif" font-size="10.00">SoloGimbal_Parameters</text>
<text text-anchor="middle" x="219" y="-195.5" font-family="Helvetica,sans-Serif" font-size="10.00">::set_channel</text>
</a>
</g>
</g>
<!-- Node1&#45;&gt;Node3 -->
<g id="edge2" class="edge"><title>Node1&#45;&gt;Node3</title>
<path fill="none" stroke="midnightblue" d="M132.259,-191.408C140.802,-192.613 149.469,-193.835 157.847,-195.017"/>
<polygon fill="midnightblue" stroke="midnightblue" points="132.704,-187.937 122.314,-190.006 131.727,-194.868 132.704,-187.937"/>
</g>
<!-- Node4 -->
<g id="node4" class="node"><title>Node4</title>
<g id="a_node4"><a xlink:href="classSoloGimbal__Parameters.html#acf614d6f401136e3b97981c0ee580105" target="_top" xlink:title="SoloGimbal_Parameters\l::set_param">
<polygon fill="white" stroke="black" points="158,-98.5 158,-128.5 280,-128.5 280,-98.5 158,-98.5"/>
<text text-anchor="start" x="166" y="-116.5" font-family="Helvetica,sans-Serif" font-size="10.00">SoloGimbal_Parameters</text>
<text text-anchor="middle" x="219" y="-105.5" font-family="Helvetica,sans-Serif" font-size="10.00">::set_param</text>
</a>
</g>
</g>
<!-- Node1&#45;&gt;Node4 -->
<g id="edge3" class="edge"><title>Node1&#45;&gt;Node4</title>
<path fill="none" stroke="midnightblue" d="M106.064,-162.293C130.589,-151.602 160.674,-138.488 183.475,-128.549"/>
<polygon fill="midnightblue" stroke="midnightblue" points="104.39,-159.204 96.6215,-166.409 107.187,-165.621 104.39,-159.204"/>
</g>
<!-- Node5 -->
<g id="node5" class="node"><title>Node5</title>
<g id="a_node5"><a xlink:href="classSoloGimbal__Parameters.html#ad5aa879b69f362237e57934aa854260a" target="_top" xlink:title="SoloGimbal_Parameters\l::update">
<polygon fill="white" stroke="black" points="316,-147.5 316,-177.5 438,-177.5 438,-147.5 316,-147.5"/>
<text text-anchor="start" x="324" y="-165.5" font-family="Helvetica,sans-Serif" font-size="10.00">SoloGimbal_Parameters</text>
<text text-anchor="middle" x="377" y="-154.5" font-family="Helvetica,sans-Serif" font-size="10.00">::update</text>
</a>
</g>
</g>
<!-- Node1&#45;&gt;Node5 -->
<g id="edge8" class="edge"><title>Node1&#45;&gt;Node5</title>
<path fill="none" stroke="midnightblue" d="M132.216,-177.251C187.37,-173.914 263.358,-169.316 315.766,-166.145"/>
<polygon fill="midnightblue" stroke="midnightblue" points="131.941,-173.761 122.171,-177.859 132.364,-180.749 131.941,-173.761"/>
</g>
<!-- Node4&#45;&gt;Node5 -->
<g id="edge4" class="edge"><title>Node4&#45;&gt;Node5</title>
<path fill="none" stroke="midnightblue" d="M277.666,-131.613C294.25,-136.822 312.154,-142.446 328.081,-147.448"/>
<polygon fill="midnightblue" stroke="midnightblue" points="278.667,-128.259 268.078,-128.601 276.57,-134.937 278.667,-128.259"/>
</g>
<!-- Node6 -->
<g id="node6" class="node"><title>Node6</title>
<g id="a_node6"><a xlink:href="classSoloGimbal__Parameters.html#acd9215081f580cfed7b49db1d3b89385" target="_top" xlink:title="SoloGimbal_Parameters\l::set_accel_bias">
<polygon fill="white" stroke="black" points="316,-98.5 316,-128.5 438,-128.5 438,-98.5 316,-98.5"/>
<text text-anchor="start" x="324" y="-116.5" font-family="Helvetica,sans-Serif" font-size="10.00">SoloGimbal_Parameters</text>
<text text-anchor="middle" x="377" y="-105.5" font-family="Helvetica,sans-Serif" font-size="10.00">::set_accel_bias</text>
</a>
</g>
</g>
<!-- Node4&#45;&gt;Node6 -->
<g id="edge5" class="edge"><title>Node4&#45;&gt;Node6</title>
<path fill="none" stroke="midnightblue" d="M290.538,-113.5C298.99,-113.5 307.56,-113.5 315.847,-113.5"/>
<polygon fill="midnightblue" stroke="midnightblue" points="290.314,-110 280.314,-113.5 290.314,-117 290.314,-110"/>
</g>
<!-- Node7 -->
<g id="node7" class="node"><title>Node7</title>
<g id="a_node7"><a xlink:href="classSoloGimbal__Parameters.html#ace2d0fe2a246cc82f8b82b11eda86ee5" target="_top" xlink:title="SoloGimbal_Parameters\l::set_accel_gain">
<polygon fill="white" stroke="black" points="316,-49.5 316,-79.5 438,-79.5 438,-49.5 316,-49.5"/>
<text text-anchor="start" x="324" y="-67.5" font-family="Helvetica,sans-Serif" font-size="10.00">SoloGimbal_Parameters</text>
<text text-anchor="middle" x="377" y="-56.5" font-family="Helvetica,sans-Serif" font-size="10.00">::set_accel_gain</text>
</a>
</g>
</g>
<!-- Node4&#45;&gt;Node7 -->
<g id="edge6" class="edge"><title>Node4&#45;&gt;Node7</title>
<path fill="none" stroke="midnightblue" d="M277.666,-95.3871C294.25,-90.1778 312.154,-84.5543 328.081,-79.5516"/>
<polygon fill="midnightblue" stroke="midnightblue" points="276.57,-92.0627 268.078,-98.3986 278.667,-98.741 276.57,-92.0627"/>
</g>
<!-- Node8 -->
<g id="node8" class="node"><title>Node8</title>
<g id="a_node8"><a xlink:href="classSoloGimbal__Parameters.html#a7788b7d7d8a688817e3e517582ee1a1c" target="_top" xlink:title="SoloGimbal_Parameters\l::set_gyro_bias">
<polygon fill="white" stroke="black" points="316,-0.5 316,-30.5 438,-30.5 438,-0.5 316,-0.5"/>
<text text-anchor="start" x="324" y="-18.5" font-family="Helvetica,sans-Serif" font-size="10.00">SoloGimbal_Parameters</text>
<text text-anchor="middle" x="377" y="-7.5" font-family="Helvetica,sans-Serif" font-size="10.00">::set_gyro_bias</text>
</a>
</g>
</g>
<!-- Node4&#45;&gt;Node8 -->
<g id="edge7" class="edge"><title>Node4&#45;&gt;Node8</title>
<path fill="none" stroke="midnightblue" d="M244.38,-91.6456C263.026,-75.7158 289.89,-54.4011 316,-39.5 321.651,-36.2747 327.822,-33.2789 333.986,-30.5742"/>
<polygon fill="midnightblue" stroke="midnightblue" points="241.936,-89.1318 236.671,-98.3256 246.52,-94.4219 241.936,-89.1318"/>
</g>
</g>
</svg>
