<?xml version="1.0" encoding="UTF-8" standalone="no"?>
<!DOCTYPE svg PUBLIC "-//W3C//DTD SVG 1.1//EN"
 "http://www.w3.org/Graphics/SVG/1.1/DTD/svg11.dtd">
<!-- Generated by graphviz version 2.38.0 (20140413.2041)
 -->
<!-- Title: Linux::RCInput::read Pages: 1 -->
<svg width="425pt" height="279pt"
 viewBox="0.00 0.00 425.00 279.00" xmlns="http://www.w3.org/2000/svg" xmlns:xlink="http://www.w3.org/1999/xlink">
<g id="graph0" class="graph" transform="scale(1 1) rotate(0) translate(4 275)">
<title>Linux::RCInput::read</title>
<polygon fill="white" stroke="none" points="-4,4 -4,-275 421,-275 421,4 -4,4"/>
<!-- Node1 -->
<g id="node1" class="node"><title>Node1</title>
<polygon fill="#bfbfbf" stroke="black" points="0,-123 0,-142 107,-142 107,-123 0,-123"/>
<text text-anchor="middle" x="53.5" y="-130" font-family="Helvetica,sans-Serif" font-size="10.00">Linux::RCInput::read</text>
</g>
<!-- Node2 -->
<g id="node2" class="node"><title>Node2</title>
<g id="a_node2"><a xlink:href="classLinux_1_1RCInput__UART.html#a62de76b97c1a63a99b5777b262d27f4f" target="_top" xlink:title="Linux::RCInput_UART\l::_timer_tick">
<polygon fill="white" stroke="black" points="144.5,-240.5 144.5,-270.5 260.5,-270.5 260.5,-240.5 144.5,-240.5"/>
<text text-anchor="start" x="152.5" y="-258.5" font-family="Helvetica,sans-Serif" font-size="10.00">Linux::RCInput_UART</text>
<text text-anchor="middle" x="202.5" y="-247.5" font-family="Helvetica,sans-Serif" font-size="10.00">::_timer_tick</text>
</a>
</g>
</g>
<!-- Node1&#45;&gt;Node2 -->
<g id="edge1" class="edge"><title>Node1&#45;&gt;Node2</title>
<path fill="none" stroke="midnightblue" d="M66.7462,-150.612C82.2615,-172.377 110.879,-208.794 143,-231.5 147.751,-234.858 153.042,-237.855 158.446,-240.495"/>
<polygon fill="midnightblue" stroke="midnightblue" points="69.5168,-148.466 60.927,-142.264 63.7744,-152.469 69.5168,-148.466"/>
</g>
<!-- Node3 -->
<g id="node3" class="node"><title>Node3</title>
<g id="a_node3"><a xlink:href="classLinux_1_1RCInput__SBUS.html#abfee87e744e16f1ddc3753f26dc07258" target="_top" xlink:title="Linux::RCInput_SBUS\l::_timer_tick">
<polygon fill="white" stroke="black" points="144.5,-191.5 144.5,-221.5 260.5,-221.5 260.5,-191.5 144.5,-191.5"/>
<text text-anchor="start" x="152.5" y="-209.5" font-family="Helvetica,sans-Serif" font-size="10.00">Linux::RCInput_SBUS</text>
<text text-anchor="middle" x="202.5" y="-198.5" font-family="Helvetica,sans-Serif" font-size="10.00">::_timer_tick</text>
</a>
</g>
</g>
<!-- Node1&#45;&gt;Node3 -->
<g id="edge2" class="edge"><title>Node1&#45;&gt;Node3</title>
<path fill="none" stroke="midnightblue" d="M79.1485,-147.526C96.6608,-157.927 120.897,-171.774 143,-182.5 149.321,-185.567 156.137,-188.601 162.807,-191.426"/>
<polygon fill="midnightblue" stroke="midnightblue" points="80.5443,-144.282 70.1675,-142.143 76.9459,-150.286 80.5443,-144.282"/>
</g>
<!-- Node4 -->
<g id="node4" class="node"><title>Node4</title>
<g id="a_node4"><a xlink:href="classLinux_1_1RCInput__Multi.html#a0b12cfca1c9ff9bcbf8f2818d8c1007f" target="_top" xlink:title="Linux::RCInput_Multi\l::_timer_tick">
<polygon fill="white" stroke="black" points="148,-142.5 148,-172.5 257,-172.5 257,-142.5 148,-142.5"/>
<text text-anchor="start" x="156" y="-160.5" font-family="Helvetica,sans-Serif" font-size="10.00">Linux::RCInput_Multi</text>
<text text-anchor="middle" x="202.5" y="-149.5" font-family="Helvetica,sans-Serif" font-size="10.00">::_timer_tick</text>
</a>
</g>
</g>
<!-- Node1&#45;&gt;Node4 -->
<g id="edge3" class="edge"><title>Node1&#45;&gt;Node4</title>
<path fill="none" stroke="midnightblue" d="M117.194,-143.162C127.357,-144.891 137.801,-146.667 147.728,-148.355"/>
<polygon fill="midnightblue" stroke="midnightblue" points="117.6,-139.681 107.155,-141.455 116.427,-146.582 117.6,-139.681"/>
</g>
<!-- Node5 -->
<g id="node5" class="node"><title>Node5</title>
<g id="a_node5"><a xlink:href="classLinux_1_1RCInput__115200.html#a9805846609a4810fdfa92a6354f7cb45" target="_top" xlink:title="Linux::RCInput_115200\l::_timer_tick">
<polygon fill="white" stroke="black" points="143,-93.5 143,-123.5 262,-123.5 262,-93.5 143,-93.5"/>
<text text-anchor="start" x="151" y="-111.5" font-family="Helvetica,sans-Serif" font-size="10.00">Linux::RCInput_115200</text>
<text text-anchor="middle" x="202.5" y="-100.5" font-family="Helvetica,sans-Serif" font-size="10.00">::_timer_tick</text>
</a>
</g>
</g>
<!-- Node1&#45;&gt;Node5 -->
<g id="edge4" class="edge"><title>Node1&#45;&gt;Node5</title>
<path fill="none" stroke="midnightblue" d="M117.107,-122.278C125.688,-120.877 134.472,-119.443 142.977,-118.055"/>
<polygon fill="midnightblue" stroke="midnightblue" points="116.461,-118.838 107.155,-123.903 117.588,-125.746 116.461,-118.838"/>
</g>
<!-- Node7 -->
<g id="node7" class="node"><title>Node7</title>
<g id="a_node7"><a xlink:href="classLinux_1_1RCInput.html#a6a44a83dac00b80ca6207048b4d947c0" target="_top" xlink:title="Linux::RCInput::from">
<polygon fill="white" stroke="black" points="148.5,-55 148.5,-74 256.5,-74 256.5,-55 148.5,-55"/>
<text text-anchor="middle" x="202.5" y="-62" font-family="Helvetica,sans-Serif" font-size="10.00">Linux::RCInput::from</text>
</a>
</g>
</g>
<!-- Node1&#45;&gt;Node7 -->
<g id="edge6" class="edge"><title>Node1&#45;&gt;Node7</title>
<path fill="none" stroke="midnightblue" d="M79.3525,-117.563C96.7874,-107.449 120.849,-94.2118 143,-84.5 151.749,-80.6642 161.485,-77.0782 170.465,-74.0319"/>
<polygon fill="midnightblue" stroke="midnightblue" points="77.2536,-114.736 70.4025,-122.818 80.798,-120.772 77.2536,-114.736"/>
</g>
<!-- Node10 -->
<g id="node10" class="node"><title>Node10</title>
<g id="a_node10"><a xlink:href="classLinux_1_1RCInput.html#ad819851f554c908159ae781a9f2662b6" target="_top" xlink:title="Linux::RCInput::read">
<polygon fill="white" stroke="black" points="149,-17 149,-36 256,-36 256,-17 149,-17"/>
<text text-anchor="middle" x="202.5" y="-24" font-family="Helvetica,sans-Serif" font-size="10.00">Linux::RCInput::read</text>
</a>
</g>
</g>
<!-- Node1&#45;&gt;Node10 -->
<g id="edge9" class="edge"><title>Node1&#45;&gt;Node10</title>
<path fill="none" stroke="midnightblue" d="M68.1424,-114.858C84.1203,-95.3148 112.332,-64.1109 143,-45.5 149.208,-41.7328 156.245,-38.6264 163.234,-36.0954"/>
<polygon fill="midnightblue" stroke="midnightblue" points="65.2019,-112.932 61.6972,-122.93 70.672,-117.3 65.2019,-112.932"/>
</g>
<!-- Node6 -->
<g id="node6" class="node"><title>Node6</title>
<g id="a_node6"><a xlink:href="classLinux_1_1RCInput__115200.html#a6c0a3303198514999c718a1620df9354" target="_top" xlink:title="Linux::RCInput_115200\l::RCInput_115200">
<polygon fill="white" stroke="black" points="298,-98.5 298,-128.5 417,-128.5 417,-98.5 298,-98.5"/>
<text text-anchor="start" x="306" y="-116.5" font-family="Helvetica,sans-Serif" font-size="10.00">Linux::RCInput_115200</text>
<text text-anchor="middle" x="357.5" y="-105.5" font-family="Helvetica,sans-Serif" font-size="10.00">::RCInput_115200</text>
</a>
</g>
</g>
<!-- Node5&#45;&gt;Node6 -->
<g id="edge5" class="edge"><title>Node5&#45;&gt;Node6</title>
<path fill="none" stroke="midnightblue" d="M272.213,-110.746C280.803,-111.026 289.525,-111.311 297.941,-111.586"/>
<polygon fill="midnightblue" stroke="midnightblue" points="272.325,-107.247 262.216,-110.419 272.097,-114.244 272.325,-107.247"/>
</g>
<!-- Node8 -->
<g id="node8" class="node"><title>Node8</title>
<g id="a_node8"><a xlink:href="classLinux_1_1Scheduler.html#ab4423cb70540d467b8464d67ffd9c325" target="_top" xlink:title="Linux::Scheduler::\l_rcin_task">
<polygon fill="white" stroke="black" points="310,-49.5 310,-79.5 405,-79.5 405,-49.5 310,-49.5"/>
<text text-anchor="start" x="318" y="-67.5" font-family="Helvetica,sans-Serif" font-size="10.00">Linux::Scheduler::</text>
<text text-anchor="middle" x="357.5" y="-56.5" font-family="Helvetica,sans-Serif" font-size="10.00">_rcin_task</text>
</a>
</g>
</g>
<!-- Node7&#45;&gt;Node8 -->
<g id="edge7" class="edge"><title>Node7&#45;&gt;Node8</title>
<path fill="none" stroke="midnightblue" d="M266.921,-64.5C281.314,-64.5 296.345,-64.5 309.891,-64.5"/>
<polygon fill="midnightblue" stroke="midnightblue" points="266.583,-61.0001 256.583,-64.5 266.583,-68.0001 266.583,-61.0001"/>
</g>
<!-- Node9 -->
<g id="node9" class="node"><title>Node9</title>
<g id="a_node9"><a xlink:href="classLinux_1_1Scheduler.html#a78a6776a646f8e58f5f39cf2ce366608" target="_top" xlink:title="Linux::Scheduler::\l_timer_task">
<polygon fill="white" stroke="black" points="310,-0.5 310,-30.5 405,-30.5 405,-0.5 310,-0.5"/>
<text text-anchor="start" x="318" y="-18.5" font-family="Helvetica,sans-Serif" font-size="10.00">Linux::Scheduler::</text>
<text text-anchor="middle" x="357.5" y="-7.5" font-family="Helvetica,sans-Serif" font-size="10.00">_timer_task</text>
</a>
</g>
</g>
<!-- Node7&#45;&gt;Node9 -->
<g id="edge8" class="edge"><title>Node7&#45;&gt;Node9</title>
<path fill="none" stroke="midnightblue" d="M242.981,-51.8558C263.406,-45.3145 288.47,-37.2874 309.847,-30.4413"/>
<polygon fill="midnightblue" stroke="midnightblue" points="241.819,-48.5527 233.363,-54.936 243.954,-55.2191 241.819,-48.5527"/>
</g>
</g>
</svg>
