<?xml version="1.0" encoding="UTF-8" standalone="no"?>
<!DOCTYPE svg PUBLIC "-//W3C//DTD SVG 1.1//EN"
 "http://www.w3.org/Graphics/SVG/1.1/DTD/svg11.dtd">
<!-- Generated by graphviz version 2.38.0 (20140413.2041)
 -->
<!-- Title: AP_Mission::get_next_cmd Pages: 1 -->
<svg width="771pt" height="189pt"
 viewBox="0.00 0.00 771.00 188.50" xmlns="http://www.w3.org/2000/svg" xmlns:xlink="http://www.w3.org/1999/xlink">
<g id="graph0" class="graph" transform="scale(1 1) rotate(0) translate(4 184.5)">
<title>AP_Mission::get_next_cmd</title>
<polygon fill="white" stroke="none" points="-4,4 -4,-184.5 767,-184.5 767,4 -4,4"/>
<!-- Node1 -->
<g id="node1" class="node"><title>Node1</title>
<polygon fill="#bfbfbf" stroke="black" points="0,-55 0,-74 137,-74 137,-55 0,-55"/>
<text text-anchor="middle" x="68.5" y="-62" font-family="Helvetica,sans-Serif" font-size="10.00">AP_Mission::get_next_cmd</text>
</g>
<!-- Node2 -->
<g id="node2" class="node"><title>Node2</title>
<g id="a_node2"><a xlink:href="classAP__Mission.html#afa29a34a739b0fc995194412dde6e532" target="_top" xlink:title="AP_Mission::read_cmd\l_from_storage">
<polygon fill="white" stroke="black" points="173,-98.5 173,-128.5 291,-128.5 291,-98.5 173,-98.5"/>
<text text-anchor="start" x="181" y="-116.5" font-family="Helvetica,sans-Serif" font-size="10.00">AP_Mission::read_cmd</text>
<text text-anchor="middle" x="232" y="-105.5" font-family="Helvetica,sans-Serif" font-size="10.00">_from_storage</text>
</a>
</g>
</g>
<!-- Node1&#45;&gt;Node2 -->
<g id="edge1" class="edge"><title>Node1&#45;&gt;Node2</title>
<path fill="none" stroke="midnightblue" d="M101.022,-74.064C121.112,-80.1592 147.774,-88.2488 171.721,-95.5143"/>
<polygon fill="midnightblue" stroke="midnightblue" points="170.854,-98.9088 181.439,-98.463 172.886,-92.2104 170.854,-98.9088"/>
</g>
<!-- Node9 -->
<g id="node9" class="node"><title>Node9</title>
<g id="a_node9"><a xlink:href="classAP__Mission.html#ae9f8a591b4c8269b44059af9ce1dc4b1" target="_top" xlink:title="get_jump_times_run &#45; returns number of times the jump command has been run ">
<polygon fill="white" stroke="black" points="174.5,-49.5 174.5,-79.5 289.5,-79.5 289.5,-49.5 174.5,-49.5"/>
<text text-anchor="start" x="182.5" y="-67.5" font-family="Helvetica,sans-Serif" font-size="10.00">AP_Mission::get_jump</text>
<text text-anchor="middle" x="232" y="-56.5" font-family="Helvetica,sans-Serif" font-size="10.00">_times_run</text>
</a>
</g>
</g>
<!-- Node1&#45;&gt;Node9 -->
<g id="edge10" class="edge"><title>Node1&#45;&gt;Node9</title>
<path fill="none" stroke="midnightblue" d="M137.055,-64.5C146.098,-64.5 155.368,-64.5 164.395,-64.5"/>
<polygon fill="midnightblue" stroke="midnightblue" points="164.458,-68.0001 174.458,-64.5 164.458,-61.0001 164.458,-68.0001"/>
</g>
<!-- Node10 -->
<g id="node10" class="node"><title>Node10</title>
<g id="a_node10"><a xlink:href="classAP__Mission.html#ab59bc82aa364f6119d923f47c6f1204b" target="_top" xlink:title="increment_jump_times_run &#45; increments the recorded number of times the jump command has been run ...">
<polygon fill="white" stroke="black" points="173,-0.5 173,-30.5 291,-30.5 291,-0.5 173,-0.5"/>
<text text-anchor="start" x="181" y="-18.5" font-family="Helvetica,sans-Serif" font-size="10.00">AP_Mission::increment</text>
<text text-anchor="middle" x="232" y="-7.5" font-family="Helvetica,sans-Serif" font-size="10.00">_jump_times_run</text>
</a>
</g>
</g>
<!-- Node1&#45;&gt;Node10 -->
<g id="edge11" class="edge"><title>Node1&#45;&gt;Node10</title>
<path fill="none" stroke="midnightblue" d="M101.022,-54.936C121.112,-48.8408 147.774,-40.7512 171.721,-33.4857"/>
<polygon fill="midnightblue" stroke="midnightblue" points="172.886,-36.7896 181.439,-30.537 170.854,-30.0912 172.886,-36.7896"/>
</g>
<!-- Node3 -->
<g id="node3" class="node"><title>Node3</title>
<g id="a_node3"><a xlink:href="classAP__AHRS.html#aea45b16e6469a3b392b8bf52fb864732" target="_top" xlink:title="AP_AHRS::get_home">
<polygon fill="white" stroke="black" points="336.5,-161 336.5,-180 449.5,-180 449.5,-161 336.5,-161"/>
<text text-anchor="middle" x="393" y="-168" font-family="Helvetica,sans-Serif" font-size="10.00">AP_AHRS::get_home</text>
</a>
</g>
</g>
<!-- Node2&#45;&gt;Node3 -->
<g id="edge2" class="edge"><title>Node2&#45;&gt;Node3</title>
<path fill="none" stroke="midnightblue" d="M267.948,-128.596C285.51,-135.933 307.213,-144.628 327,-151.5 333.492,-153.755 340.408,-155.97 347.216,-158.047"/>
<polygon fill="midnightblue" stroke="midnightblue" points="346.468,-161.476 357.052,-160.979 348.468,-154.768 346.468,-161.476"/>
</g>
<!-- Node5 -->
<g id="node5" class="node"><title>Node5</title>
<g id="a_node5"><a xlink:href="classStorageAccess.html#a9a3fc24569bd437ffcb41de520bb3955" target="_top" xlink:title="StorageAccess::read_byte">
<polygon fill="white" stroke="black" points="327,-123 327,-142 459,-142 459,-123 327,-123"/>
<text text-anchor="middle" x="393" y="-130" font-family="Helvetica,sans-Serif" font-size="10.00">StorageAccess::read_byte</text>
</a>
</g>
</g>
<!-- Node2&#45;&gt;Node5 -->
<g id="edge4" class="edge"><title>Node2&#45;&gt;Node5</title>
<path fill="none" stroke="midnightblue" d="M291.303,-120.467C299.648,-121.464 308.329,-122.502 316.941,-123.531"/>
<polygon fill="midnightblue" stroke="midnightblue" points="316.649,-127.021 326.994,-124.732 317.479,-120.07 316.649,-127.021"/>
</g>
<!-- Node6 -->
<g id="node6" class="node"><title>Node6</title>
<g id="a_node6"><a xlink:href="classStorageAccess.html#ab2a8575d541549a15645edc360fdaa91" target="_top" xlink:title="StorageAccess::read\l_block">
<polygon fill="white" stroke="black" points="497.5,-79.5 497.5,-109.5 605.5,-109.5 605.5,-79.5 497.5,-79.5"/>
<text text-anchor="start" x="505.5" y="-97.5" font-family="Helvetica,sans-Serif" font-size="10.00">StorageAccess::read</text>
<text text-anchor="middle" x="551.5" y="-86.5" font-family="Helvetica,sans-Serif" font-size="10.00">_block</text>
</a>
</g>
</g>
<!-- Node2&#45;&gt;Node6 -->
<g id="edge9" class="edge"><title>Node2&#45;&gt;Node6</title>
<path fill="none" stroke="midnightblue" d="M291.234,-110.015C346.797,-106.69 430.266,-101.695 487.392,-98.2765"/>
<polygon fill="midnightblue" stroke="midnightblue" points="487.613,-101.77 497.386,-97.6785 487.194,-94.7822 487.613,-101.77"/>
</g>
<!-- Node8 -->
<g id="node8" class="node"><title>Node8</title>
<g id="a_node8"><a xlink:href="classStorageAccess.html#ac7ca06ca086f97a302e94ecaf9b18b80" target="_top" xlink:title="StorageAccess::read\l_uint16">
<polygon fill="white" stroke="black" points="339,-35.5 339,-65.5 447,-65.5 447,-35.5 339,-35.5"/>
<text text-anchor="start" x="347" y="-53.5" font-family="Helvetica,sans-Serif" font-size="10.00">StorageAccess::read</text>
<text text-anchor="middle" x="393" y="-42.5" font-family="Helvetica,sans-Serif" font-size="10.00">_uint16</text>
</a>
</g>
</g>
<!-- Node2&#45;&gt;Node8 -->
<g id="edge7" class="edge"><title>Node2&#45;&gt;Node8</title>
<path fill="none" stroke="midnightblue" d="M271.084,-98.4099C293.128,-89.6755 321.067,-78.6057 344.533,-69.3076"/>
<polygon fill="midnightblue" stroke="midnightblue" points="345.944,-72.5136 353.951,-65.576 343.365,-66.0058 345.944,-72.5136"/>
</g>
<!-- Node4 -->
<g id="node4" class="node"><title>Node4</title>
<g id="a_node4"><a xlink:href="classAP__AHRS.html#a702b6313fff141dced78533a4d258ab0" target="_top" xlink:title="AP_AHRS::set_home">
<polygon fill="white" stroke="black" points="495,-161 495,-180 608,-180 608,-161 495,-161"/>
<text text-anchor="middle" x="551.5" y="-168" font-family="Helvetica,sans-Serif" font-size="10.00">AP_AHRS::set_home</text>
</a>
</g>
</g>
<!-- Node3&#45;&gt;Node4 -->
<g id="edge3" class="edge"><title>Node3&#45;&gt;Node4</title>
<path fill="none" stroke="midnightblue" d="M449.617,-170.5C460.965,-170.5 473.007,-170.5 484.672,-170.5"/>
<polygon fill="midnightblue" stroke="midnightblue" points="484.799,-174 494.799,-170.5 484.799,-167 484.799,-174"/>
</g>
<!-- Node5&#45;&gt;Node6 -->
<g id="edge5" class="edge"><title>Node5&#45;&gt;Node6</title>
<path fill="none" stroke="midnightblue" d="M433.492,-122.911C449.917,-118.923 469.391,-114.194 487.692,-109.751"/>
<polygon fill="midnightblue" stroke="midnightblue" points="488.529,-113.149 497.421,-107.388 486.877,-106.347 488.529,-113.149"/>
</g>
<!-- Node7 -->
<g id="node7" class="node"><title>Node7</title>
<g id="a_node7"><a xlink:href="classAP__HAL_1_1Storage.html#a1c3b1e80b0bec7d4bacd3ecbefb3b3f3" target="_top" xlink:title="AP_HAL::Storage::read\l_block">
<polygon fill="white" stroke="black" points="644,-79.5 644,-109.5 763,-109.5 763,-79.5 644,-79.5"/>
<text text-anchor="start" x="652" y="-97.5" font-family="Helvetica,sans-Serif" font-size="10.00">AP_HAL::Storage::read</text>
<text text-anchor="middle" x="703.5" y="-86.5" font-family="Helvetica,sans-Serif" font-size="10.00">_block</text>
</a>
</g>
</g>
<!-- Node6&#45;&gt;Node7 -->
<g id="edge6" class="edge"><title>Node6&#45;&gt;Node7</title>
<path fill="none" stroke="midnightblue" d="M605.807,-94.5C614.835,-94.5 624.323,-94.5 633.681,-94.5"/>
<polygon fill="midnightblue" stroke="midnightblue" points="633.757,-98.0001 643.757,-94.5 633.757,-91.0001 633.757,-98.0001"/>
</g>
<!-- Node8&#45;&gt;Node6 -->
<g id="edge8" class="edge"><title>Node8&#45;&gt;Node6</title>
<path fill="none" stroke="midnightblue" d="M447.421,-65.5192C460.263,-69.1299 474.101,-73.0203 487.339,-76.7424"/>
<polygon fill="midnightblue" stroke="midnightblue" points="486.746,-80.2112 497.32,-79.5484 488.641,-73.4724 486.746,-80.2112"/>
</g>
</g>
</svg>
