<?xml version="1.0" encoding="UTF-8" standalone="no"?>
<!DOCTYPE svg PUBLIC "-//W3C//DTD SVG 1.1//EN"
 "http://www.w3.org/Graphics/SVG/1.1/DTD/svg11.dtd">
<!-- Generated by graphviz version 2.38.0 (20140413.2041)
 -->
<!-- Title: NavEKF2_core::CovariancePrediction Pages: 1 -->
<svg width="816pt" height="308pt"
 viewBox="0.00 0.00 816.00 308.00" xmlns="http://www.w3.org/2000/svg" xmlns:xlink="http://www.w3.org/1999/xlink">
<g id="graph0" class="graph" transform="scale(1 1) rotate(0) translate(4 304)">
<title>NavEKF2_core::CovariancePrediction</title>
<polygon fill="white" stroke="none" points="-4,4 -4,-304 812,-304 812,4 -4,4"/>
<!-- Node1 -->
<g id="node1" class="node"><title>Node1</title>
<polygon fill="#bfbfbf" stroke="black" points="0,-128 0,-158 139,-158 139,-128 0,-128"/>
<text text-anchor="start" x="8" y="-146" font-family="Helvetica,sans-Serif" font-size="10.00">NavEKF2_core::Covariance</text>
<text text-anchor="middle" x="69.5" y="-135" font-family="Helvetica,sans-Serif" font-size="10.00">Prediction</text>
</g>
<!-- Node2 -->
<g id="node2" class="node"><title>Node2</title>
<g id="a_node2"><a xlink:href="classAP__HAL_1_1Util.html#a8ee016bee7e471240be5a2c648015a1d" target="_top" xlink:title="AP_HAL::Util::perf\l_begin">
<polygon fill="white" stroke="black" points="213.5,-267 213.5,-297 311.5,-297 311.5,-267 213.5,-267"/>
<text text-anchor="start" x="221.5" y="-285" font-family="Helvetica,sans-Serif" font-size="10.00">AP_HAL::Util::perf</text>
<text text-anchor="middle" x="262.5" y="-274" font-family="Helvetica,sans-Serif" font-size="10.00">_begin</text>
</a>
</g>
</g>
<!-- Node1&#45;&gt;Node2 -->
<g id="edge1" class="edge"><title>Node1&#45;&gt;Node2</title>
<path fill="none" stroke="midnightblue" d="M81.2941,-158.218C98.568,-181.533 134.614,-226.105 175,-252 183.822,-257.656 193.837,-262.389 203.845,-266.299"/>
<polygon fill="midnightblue" stroke="midnightblue" points="202.806,-269.646 213.4,-269.798 205.214,-263.073 202.806,-269.646"/>
</g>
<!-- Node3 -->
<g id="node3" class="node"><title>Node3</title>
<g id="a_node3"><a xlink:href="AP__Math_8h.html#ad525609d9dba6ffa556a0fbf08a3f9b4" target="_top" xlink:title="constrain_float">
<polygon fill="white" stroke="black" points="413,-223.5 413,-242.5 493,-242.5 493,-223.5 413,-223.5"/>
<text text-anchor="middle" x="453" y="-230.5" font-family="Helvetica,sans-Serif" font-size="10.00">constrain_float</text>
</a>
</g>
</g>
<!-- Node1&#45;&gt;Node3 -->
<g id="edge2" class="edge"><title>Node1&#45;&gt;Node3</title>
<path fill="none" stroke="midnightblue" d="M92.2135,-158.068C112.613,-171.419 144.485,-190.26 175,-200 252.095,-224.607 346.564,-231.151 402.878,-232.728"/>
<polygon fill="midnightblue" stroke="midnightblue" points="402.856,-236.228 412.937,-232.968 403.023,-229.23 402.856,-236.228"/>
</g>
<!-- Node9 -->
<g id="node9" class="node"><title>Node9</title>
<g id="a_node9"><a xlink:href="AP__Math_8h.html#a0375e3d67fd3911cacee5c3e1408c0f2" target="_top" xlink:title="sq">
<polygon fill="white" stroke="black" points="438.5,-176.5 438.5,-195.5 467.5,-195.5 467.5,-176.5 438.5,-176.5"/>
<text text-anchor="middle" x="453" y="-183.5" font-family="Helvetica,sans-Serif" font-size="10.00">sq</text>
</a>
</g>
</g>
<!-- Node1&#45;&gt;Node9 -->
<g id="edge8" class="edge"><title>Node1&#45;&gt;Node9</title>
<path fill="none" stroke="midnightblue" d="M103.129,-158.033C123.354,-166.545 150.135,-176.388 175,-181 267.354,-198.131 380,-192.035 428.234,-188.18"/>
<polygon fill="midnightblue" stroke="midnightblue" points="428.623,-191.66 438.294,-187.332 428.035,-184.685 428.623,-191.66"/>
</g>
<!-- Node10 -->
<g id="node10" class="node"><title>Node10</title>
<g id="a_node10"><a xlink:href="classNavEKF2__core.html#a42ca3d8e52811f1a3460eb1963c78f05" target="_top" xlink:title="NavEKF2_core::zeroRows">
<polygon fill="white" stroke="black" points="386,-119.5 386,-138.5 520,-138.5 520,-119.5 386,-119.5"/>
<text text-anchor="middle" x="453" y="-126.5" font-family="Helvetica,sans-Serif" font-size="10.00">NavEKF2_core::zeroRows</text>
</a>
</g>
</g>
<!-- Node1&#45;&gt;Node10 -->
<g id="edge9" class="edge"><title>Node1&#45;&gt;Node10</title>
<path fill="none" stroke="midnightblue" d="M139.145,-140.481C205.665,-138.04 306.363,-134.344 375.442,-131.809"/>
<polygon fill="midnightblue" stroke="midnightblue" points="375.957,-135.293 385.822,-131.429 375.7,-128.298 375.957,-135.293"/>
</g>
<!-- Node11 -->
<g id="node11" class="node"><title>Node11</title>
<g id="a_node11"><a xlink:href="classNavEKF2__core.html#a20dd1484149045a51fccc508f22dac6f" target="_top" xlink:title="NavEKF2_core::zeroCols">
<polygon fill="white" stroke="black" points="389,-81.5 389,-100.5 517,-100.5 517,-81.5 389,-81.5"/>
<text text-anchor="middle" x="453" y="-88.5" font-family="Helvetica,sans-Serif" font-size="10.00">NavEKF2_core::zeroCols</text>
</a>
</g>
</g>
<!-- Node1&#45;&gt;Node11 -->
<g id="edge10" class="edge"><title>Node1&#45;&gt;Node11</title>
<path fill="none" stroke="midnightblue" d="M139.065,-133.06C151.04,-131.352 163.381,-129.61 175,-128 244.108,-118.425 322.978,-107.932 378.839,-100.574"/>
<polygon fill="midnightblue" stroke="midnightblue" points="379.536,-104.013 388.994,-99.2376 378.622,-97.0725 379.536,-104.013"/>
</g>
<!-- Node12 -->
<g id="node12" class="node"><title>Node12</title>
<g id="a_node12"><a xlink:href="classNavEKF2__core.html#a33d235a9fe32368717d1854ab29be112" target="_top" xlink:title="NavEKF2_core::CopyCovariances">
<polygon fill="white" stroke="black" points="179,-38.5 179,-57.5 346,-57.5 346,-38.5 179,-38.5"/>
<text text-anchor="middle" x="262.5" y="-45.5" font-family="Helvetica,sans-Serif" font-size="10.00">NavEKF2_core::CopyCovariances</text>
</a>
</g>
</g>
<!-- Node1&#45;&gt;Node12 -->
<g id="edge11" class="edge"><title>Node1&#45;&gt;Node12</title>
<path fill="none" stroke="midnightblue" d="M88.6416,-127.939C108.653,-112.004 142.359,-87.1167 175,-72 184.961,-67.3868 195.989,-63.4952 206.743,-60.2775"/>
<polygon fill="midnightblue" stroke="midnightblue" points="207.837,-63.6053 216.503,-57.5105 205.928,-56.8707 207.837,-63.6053"/>
</g>
<!-- Node13 -->
<g id="node13" class="node"><title>Node13</title>
<g id="a_node13"><a xlink:href="classNavEKF2__core.html#ab07397c04c028fd31358baeadc2f22e4" target="_top" xlink:title="NavEKF2_core::ConstrainVariances">
<polygon fill="white" stroke="black" points="175,-152.5 175,-171.5 350,-171.5 350,-152.5 175,-152.5"/>
<text text-anchor="middle" x="262.5" y="-159.5" font-family="Helvetica,sans-Serif" font-size="10.00">NavEKF2_core::ConstrainVariances</text>
</a>
</g>
</g>
<!-- Node1&#45;&gt;Node13 -->
<g id="edge12" class="edge"><title>Node1&#45;&gt;Node13</title>
<path fill="none" stroke="midnightblue" d="M139.186,-149.833C147.487,-150.658 156.084,-151.514 164.694,-152.37"/>
<polygon fill="midnightblue" stroke="midnightblue" points="164.494,-155.867 174.791,-153.375 165.187,-148.902 164.494,-155.867"/>
</g>
<!-- Node14 -->
<g id="node14" class="node"><title>Node14</title>
<g id="a_node14"><a xlink:href="classAP__HAL_1_1Util.html#a831bf144a4d14d413bd1c98b96dc35cb" target="_top" xlink:title="AP_HAL::Util::perf_end">
<polygon fill="white" stroke="black" points="203,-0.5 203,-19.5 322,-19.5 322,-0.5 203,-0.5"/>
<text text-anchor="middle" x="262.5" y="-7.5" font-family="Helvetica,sans-Serif" font-size="10.00">AP_HAL::Util::perf_end</text>
</a>
</g>
</g>
<!-- Node1&#45;&gt;Node14 -->
<g id="edge17" class="edge"><title>Node1&#45;&gt;Node14</title>
<path fill="none" stroke="midnightblue" d="M79.9602,-127.681C96.1693,-102.81 131.725,-53.9233 175,-29 180.596,-25.7771 186.684,-23.1003 192.952,-20.8772"/>
<polygon fill="midnightblue" stroke="midnightblue" points="194.418,-24.0852 202.905,-17.7439 192.316,-17.4083 194.418,-24.0852"/>
</g>
<!-- Node4 -->
<g id="node4" class="node"><title>Node4</title>
<g id="a_node4"><a xlink:href="AP__Math_8h.html#a20e8f8671c282c69c1954652b6d61585" target="_top" xlink:title="constrain_value">
<polygon fill="white" stroke="black" points="556,-223.5 556,-242.5 641,-242.5 641,-223.5 556,-223.5"/>
<text text-anchor="middle" x="598.5" y="-230.5" font-family="Helvetica,sans-Serif" font-size="10.00">constrain_value</text>
</a>
</g>
</g>
<!-- Node3&#45;&gt;Node4 -->
<g id="edge3" class="edge"><title>Node3&#45;&gt;Node4</title>
<path fill="none" stroke="midnightblue" d="M493.212,-233C509.293,-233 528.14,-233 545.356,-233"/>
<polygon fill="midnightblue" stroke="midnightblue" points="545.825,-236.5 555.825,-233 545.825,-229.5 545.825,-236.5"/>
</g>
<!-- Node5 -->
<g id="node5" class="node"><title>Node5</title>
<g id="a_node5"><a xlink:href="AP__Math_8cpp.html#a37e8e901754cb9c8e53a8e3030c82c50" target="_top" xlink:title="constrain_value\&lt; int \&gt;">
<polygon fill="white" stroke="black" points="686,-280.5 686,-299.5 799,-299.5 799,-280.5 686,-280.5"/>
<text text-anchor="middle" x="742.5" y="-287.5" font-family="Helvetica,sans-Serif" font-size="10.00">constrain_value&lt; int &gt;</text>
</a>
</g>
</g>
<!-- Node4&#45;&gt;Node5 -->
<g id="edge4" class="edge"><title>Node4&#45;&gt;Node5</title>
<path fill="none" stroke="midnightblue" d="M616.97,-242.628C632.432,-250.891 655.774,-262.738 677,-271 682.854,-273.278 689.097,-275.439 695.307,-277.429"/>
<polygon fill="midnightblue" stroke="midnightblue" points="694.389,-280.809 704.977,-280.411 696.452,-274.12 694.389,-280.809"/>
</g>
<!-- Node6 -->
<g id="node6" class="node"><title>Node6</title>
<g id="a_node6"><a xlink:href="AP__Math_8cpp.html#afdbe107ec1987d318a6347816fbf2b89" target="_top" xlink:title="constrain_value\&lt; short \&gt;">
<polygon fill="white" stroke="black" points="680,-242.5 680,-261.5 805,-261.5 805,-242.5 680,-242.5"/>
<text text-anchor="middle" x="742.5" y="-249.5" font-family="Helvetica,sans-Serif" font-size="10.00">constrain_value&lt; short &gt;</text>
</a>
</g>
</g>
<!-- Node4&#45;&gt;Node6 -->
<g id="edge5" class="edge"><title>Node4&#45;&gt;Node6</title>
<path fill="none" stroke="midnightblue" d="M641.337,-238.598C650.323,-239.8 660.064,-241.104 669.821,-242.409"/>
<polygon fill="midnightblue" stroke="midnightblue" points="669.589,-245.909 679.965,-243.766 670.518,-238.971 669.589,-245.909"/>
</g>
<!-- Node7 -->
<g id="node7" class="node"><title>Node7</title>
<g id="a_node7"><a xlink:href="AP__Math_8cpp.html#ae6c621670c214da687de21d4e3a92587" target="_top" xlink:title="constrain_value\&lt; float \&gt;">
<polygon fill="white" stroke="black" points="681.5,-204.5 681.5,-223.5 803.5,-223.5 803.5,-204.5 681.5,-204.5"/>
<text text-anchor="middle" x="742.5" y="-211.5" font-family="Helvetica,sans-Serif" font-size="10.00">constrain_value&lt; float &gt;</text>
</a>
</g>
</g>
<!-- Node4&#45;&gt;Node7 -->
<g id="edge6" class="edge"><title>Node4&#45;&gt;Node7</title>
<path fill="none" stroke="midnightblue" d="M641.337,-227.402C650.724,-226.146 660.935,-224.78 671.129,-223.416"/>
<polygon fill="midnightblue" stroke="midnightblue" points="671.838,-226.852 681.286,-222.057 670.91,-219.914 671.838,-226.852"/>
</g>
<!-- Node8 -->
<g id="node8" class="node"><title>Node8</title>
<g id="a_node8"><a xlink:href="AP__Math_8cpp.html#afe3990b00e9abc43fa97dfaf8e32f5c4" target="_top" xlink:title="constrain_value\&lt; double \&gt;">
<polygon fill="white" stroke="black" points="677,-166.5 677,-185.5 808,-185.5 808,-166.5 677,-166.5"/>
<text text-anchor="middle" x="742.5" y="-173.5" font-family="Helvetica,sans-Serif" font-size="10.00">constrain_value&lt; double &gt;</text>
</a>
</g>
</g>
<!-- Node4&#45;&gt;Node8 -->
<g id="edge7" class="edge"><title>Node4&#45;&gt;Node8</title>
<path fill="none" stroke="midnightblue" d="M616.97,-223.372C632.432,-215.109 655.774,-203.262 677,-195 682.854,-192.722 689.097,-190.561 695.307,-188.571"/>
<polygon fill="midnightblue" stroke="midnightblue" points="696.452,-191.88 704.977,-185.589 694.389,-185.191 696.452,-191.88"/>
</g>
<!-- Node13&#45;&gt;Node3 -->
<g id="edge13" class="edge"><title>Node13&#45;&gt;Node3</title>
<path fill="none" stroke="midnightblue" d="M288.922,-171.575C322.04,-184.049 380.086,-205.913 417.25,-219.911"/>
<polygon fill="midnightblue" stroke="midnightblue" points="416.089,-223.214 426.681,-223.463 418.556,-216.663 416.089,-223.214"/>
</g>
<!-- Node13&#45;&gt;Node9 -->
<g id="edge14" class="edge"><title>Node13&#45;&gt;Node9</title>
<path fill="none" stroke="midnightblue" d="M338.271,-171.52C370.425,-175.614 405.741,-180.11 428.354,-182.989"/>
<polygon fill="midnightblue" stroke="midnightblue" points="428.002,-186.473 438.364,-184.264 428.886,-179.529 428.002,-186.473"/>
</g>
<!-- Node13&#45;&gt;Node10 -->
<g id="edge15" class="edge"><title>Node13&#45;&gt;Node10</title>
<path fill="none" stroke="midnightblue" d="M317.769,-152.499C339.56,-148.684 364.851,-144.257 387.566,-140.28"/>
<polygon fill="midnightblue" stroke="midnightblue" points="388.215,-143.72 397.461,-138.548 387.007,-136.825 388.215,-143.72"/>
</g>
<!-- Node13&#45;&gt;Node11 -->
<g id="edge16" class="edge"><title>Node13&#45;&gt;Node11</title>
<path fill="none" stroke="midnightblue" d="M284.006,-152.391C308.094,-141.316 349.418,-122.976 386,-110 392.418,-107.724 399.257,-105.517 406.009,-103.463"/>
<polygon fill="midnightblue" stroke="midnightblue" points="407.186,-106.765 415.782,-100.572 405.2,-100.052 407.186,-106.765"/>
</g>
</g>
</svg>
