<?xml version="1.0" encoding="UTF-8" standalone="no"?>
<!DOCTYPE svg PUBLIC "-//W3C//DTD SVG 1.1//EN"
 "http://www.w3.org/Graphics/SVG/1.1/DTD/svg11.dtd">
<!-- Generated by graphviz version 2.38.0 (20140413.2041)
 -->
<!-- Title: AP_GPS::last_fix_time_ms Pages: 1 -->
<!--zoomable 140 -->
<svg id="main" version="1.1" xmlns="http://www.w3.org/2000/svg" xmlns:xlink="http://www.w3.org/1999/xlink" xml:space="preserve" onload="init(evt)">
<style type="text/css"><![CDATA[
.edge:hover path { stroke: red; }
.edge:hover polygon { stroke: red; fill: red; }
]]></style>
<script type="text/javascript"><![CDATA[
var edges = document.getElementsByTagName('g');
if (edges && edges.length) {
  for (var i=0;i<edges.length;i++) {
    if (edges[i].id.substr(0,4)=='edge') {
      edges[i].setAttribute('class','edge');
    }
  }
}
]]></script>
        <defs>
                <circle id="rim" cx="0" cy="0" r="7"/>
                <circle id="rim2" cx="0" cy="0" r="3.5"/>
                <g id="zoomPlus">
                        <use xlink:href="#rim" fill="#404040">
                                <set attributeName="fill" to="#808080" begin="zoomplus.mouseover" end="zoomplus.mouseout"/>
                        </use>
                        <path d="M-4,0h8M0,-4v8" fill="none" stroke="white" stroke-width="1.5" pointer-events="none"/>
                </g>
                <g id="zoomMin">
                        <use xlink:href="#rim" fill="#404040">
                                <set attributeName="fill" to="#808080" begin="zoomminus.mouseover" end="zoomminus.mouseout"/>
                        </use>
                        <path d="M-4,0h8" fill="none" stroke="white" stroke-width="1.5" pointer-events="none"/>
                </g>
                <g id="dirArrow">
                        <path fill="none" stroke="white" stroke-width="1.5" d="M0,-3.0v7 M-2.5,-0.5L0,-3.0L2.5,-0.5"/>
                </g>
               <g id="resetDef">
                       <use xlink:href="#rim2" fill="#404040">
                               <set attributeName="fill" to="#808080" begin="reset.mouseover" end="reset.mouseout"/>
                       </use>
               </g>
        </defs>

<script type="text/javascript">
var viewWidth = 1392;
var viewHeight = 140;
var sectionId = 'dynsection-49';
</script>
<script xlink:href="svgpan.js"/>
<svg id="graph" class="graph">
<g id="viewport">
<title>AP_GPS::last_fix_time_ms</title>
<polygon fill="white" stroke="none" points="-4,4 -4,-135.5 1388,-135.5 1388,4 -4,4"/>
<!-- Node1 -->
<g id="node1" class="node"><title>Node1</title>
<polygon fill="#bfbfbf" stroke="black" points="0,-62.5 0,-81.5 137,-81.5 137,-62.5 0,-62.5"/>
<text text-anchor="middle" x="68.5" y="-69.5" font-family="Helvetica,sans-Serif" font-size="10.00">AP_GPS::last_fix_time_ms</text>
</g>
<!-- Node2 -->
<g id="node2" class="node"><title>Node2</title>
<g id="a_node2"><a xlink:href="classAP__AdvancedFailsafe.html#a017a878d56457eea9bd9a59c07b92190" target="_top" xlink:title="AP_AdvancedFailsafe\l::check">
<polygon fill="white" stroke="black" points="174,-101 174,-131 287,-131 287,-101 174,-101"/>
<text text-anchor="start" x="182" y="-119" font-family="Helvetica,sans-Serif" font-size="10.00">AP_AdvancedFailsafe</text>
<text text-anchor="middle" x="230.5" y="-108" font-family="Helvetica,sans-Serif" font-size="10.00">::check</text>
</a>
</g>
</g>
<!-- Node1&#45;&gt;Node2 -->
<g id="edge1" class="edge"><title>Node1&#45;&gt;Node2</title>
<path fill="none" stroke="midnightblue" d="M114.01,-84.2402C132.821,-89.4134 154.917,-95.4897 174.717,-100.935"/>
<polygon fill="midnightblue" stroke="midnightblue" points="114.788,-80.8243 104.218,-81.5473 112.932,-87.5737 114.788,-80.8243"/>
</g>
<!-- Node4 -->
<g id="node4" class="node"><title>Node4</title>
<g id="a_node4"><a xlink:href="classAP__AHRS__DCM.html#a8c3304b59bc6a27f24c686985c100549" target="_top" xlink:title="AP_AHRS_DCM::drift\l_correction">
<polygon fill="white" stroke="black" points="326,-33 326,-63 441,-63 441,-33 326,-33"/>
<text text-anchor="start" x="334" y="-51" font-family="Helvetica,sans-Serif" font-size="10.00">AP_AHRS_DCM::drift</text>
<text text-anchor="middle" x="383.5" y="-40" font-family="Helvetica,sans-Serif" font-size="10.00">_correction</text>
</a>
</g>
</g>
<!-- Node1&#45;&gt;Node4 -->
<g id="edge3" class="edge"><title>Node1&#45;&gt;Node4</title>
<path fill="none" stroke="midnightblue" d="M147.162,-66.0451C202.583,-61.7956 275.857,-56.1771 325.826,-52.3456"/>
<polygon fill="midnightblue" stroke="midnightblue" points="146.734,-62.5675 137.031,-66.8219 147.269,-69.547 146.734,-62.5675"/>
</g>
<!-- Node13 -->
<g id="node13" class="node"><title>Node13</title>
<g id="a_node13"><a xlink:href="classAP__AHRS__DCM.html#a101f2aaddcc7e97e690924d4e9d7a191" target="_top" xlink:title="AP_AHRS_DCM::drift\l_correction_yaw">
<polygon fill="white" stroke="black" points="173,-13 173,-43 288,-43 288,-13 173,-13"/>
<text text-anchor="start" x="181" y="-31" font-family="Helvetica,sans-Serif" font-size="10.00">AP_AHRS_DCM::drift</text>
<text text-anchor="middle" x="230.5" y="-20" font-family="Helvetica,sans-Serif" font-size="10.00">_correction_yaw</text>
</a>
</g>
</g>
<!-- Node1&#45;&gt;Node13 -->
<g id="edge15" class="edge"><title>Node1&#45;&gt;Node13</title>
<path fill="none" stroke="midnightblue" d="M114.01,-59.7598C132.821,-54.5866 154.917,-48.5103 174.717,-43.0654"/>
<polygon fill="midnightblue" stroke="midnightblue" points="112.932,-56.4263 104.218,-62.4527 114.788,-63.1757 112.932,-56.4263"/>
</g>
<!-- Node3 -->
<g id="node3" class="node"><title>Node3</title>
<g id="a_node3"><a xlink:href="classAP__AdvancedFailsafe.html#a39be1f9cf2fd71b852e60314e24a5014" target="_top" xlink:title="AP_AdvancedFailsafe\l::AP_AdvancedFailsafe">
<polygon fill="white" stroke="black" points="324,-101 324,-131 443,-131 443,-101 324,-101"/>
<text text-anchor="start" x="332" y="-119" font-family="Helvetica,sans-Serif" font-size="10.00">AP_AdvancedFailsafe</text>
<text text-anchor="middle" x="383.5" y="-108" font-family="Helvetica,sans-Serif" font-size="10.00">::AP_AdvancedFailsafe</text>
</a>
</g>
</g>
<!-- Node2&#45;&gt;Node3 -->
<g id="edge2" class="edge"><title>Node2&#45;&gt;Node3</title>
<path fill="none" stroke="midnightblue" d="M297.502,-116C306.287,-116 315.247,-116 323.895,-116"/>
<polygon fill="midnightblue" stroke="midnightblue" points="297.298,-112.5 287.298,-116 297.298,-119.5 297.298,-112.5"/>
</g>
<!-- Node5 -->
<g id="node5" class="node"><title>Node5</title>
<g id="a_node5"><a xlink:href="classAP__AHRS__DCM.html#aa8a135d6852e94f279c0be3c8206bfdd" target="_top" xlink:title="AP_AHRS_DCM::update">
<polygon fill="white" stroke="black" points="479,-38.5 479,-57.5 607,-57.5 607,-38.5 479,-38.5"/>
<text text-anchor="middle" x="543" y="-45.5" font-family="Helvetica,sans-Serif" font-size="10.00">AP_AHRS_DCM::update</text>
</a>
</g>
</g>
<!-- Node4&#45;&gt;Node5 -->
<g id="edge4" class="edge"><title>Node4&#45;&gt;Node5</title>
<path fill="none" stroke="midnightblue" d="M451.479,-48C460.544,-48 469.822,-48 478.818,-48"/>
<polygon fill="midnightblue" stroke="midnightblue" points="451.361,-44.5001 441.361,-48 451.361,-51.5001 451.361,-44.5001"/>
</g>
<!-- Node6 -->
<g id="node6" class="node"><title>Node6</title>
<g id="a_node6"><a xlink:href="classAP__AHRS__DCM.html#a4bbf9d7f853103c8c497b90ae726b1ac" target="_top" xlink:title="AP_AHRS_DCM::get_gyro\l_drift">
<polygon fill="white" stroke="black" points="643,-77 643,-107 779,-107 779,-77 643,-77"/>
<text text-anchor="start" x="651" y="-95" font-family="Helvetica,sans-Serif" font-size="10.00">AP_AHRS_DCM::get_gyro</text>
<text text-anchor="middle" x="711" y="-84" font-family="Helvetica,sans-Serif" font-size="10.00">_drift</text>
</a>
</g>
</g>
<!-- Node5&#45;&gt;Node6 -->
<g id="edge5" class="edge"><title>Node5&#45;&gt;Node6</title>
<path fill="none" stroke="midnightblue" d="M589.909,-60.1687C609.485,-65.3574 632.525,-71.4646 653.162,-76.9346"/>
<polygon fill="midnightblue" stroke="midnightblue" points="590.583,-56.7264 580.02,-57.5473 588.789,-63.4927 590.583,-56.7264"/>
</g>
<!-- Node11 -->
<g id="node11" class="node"><title>Node11</title>
<g id="a_node11"><a xlink:href="ModuleTest_8cpp.html#a0b33edabd7f1c4e4a0bf32c67269be2f" target="_top" xlink:title="loop">
<polygon fill="white" stroke="black" points="693.5,-38.5 693.5,-57.5 728.5,-57.5 728.5,-38.5 693.5,-38.5"/>
<text text-anchor="middle" x="711" y="-45.5" font-family="Helvetica,sans-Serif" font-size="10.00">loop</text>
</a>
</g>
</g>
<!-- Node5&#45;&gt;Node11 -->
<g id="edge12" class="edge"><title>Node5&#45;&gt;Node11</title>
<path fill="none" stroke="midnightblue" d="M617.508,-48C645.651,-48 675.268,-48 693.19,-48"/>
<polygon fill="midnightblue" stroke="midnightblue" points="617.231,-44.5001 607.231,-48 617.231,-51.5001 617.231,-44.5001"/>
</g>
<!-- Node12 -->
<g id="node12" class="node"><title>Node12</title>
<g id="a_node12"><a xlink:href="classAP__AHRS__NavEKF.html#a7ce0035d07be995b5f45ac6c711570ce" target="_top" xlink:title="AP_AHRS_NavEKF::update_DCM">
<polygon fill="white" stroke="black" points="815,-0.5 815,-19.5 985,-19.5 985,-0.5 815,-0.5"/>
<text text-anchor="middle" x="900" y="-7.5" font-family="Helvetica,sans-Serif" font-size="10.00">AP_AHRS_NavEKF::update_DCM</text>
</a>
</g>
</g>
<!-- Node5&#45;&gt;Node12 -->
<g id="edge13" class="edge"><title>Node5&#45;&gt;Node12</title>
<path fill="none" stroke="midnightblue" d="M597.604,-36.5417C612.268,-33.7276 628.199,-30.9629 643,-29 700.102,-21.4272 764.801,-16.6579 814.869,-13.7916"/>
<polygon fill="midnightblue" stroke="midnightblue" points="596.823,-33.1281 587.685,-38.4886 598.171,-39.9971 596.823,-33.1281"/>
</g>
<!-- Node7 -->
<g id="node7" class="node"><title>Node7</title>
<g id="a_node7"><a xlink:href="classAP__AHRS__NavEKF.html#a355d8890ddfaadaa9d8f694f780afbe6" target="_top" xlink:title="AP_AHRS_NavEKF::get\l_gyro_drift">
<polygon fill="white" stroke="black" points="837,-77 837,-107 963,-107 963,-77 837,-77"/>
<text text-anchor="start" x="845" y="-95" font-family="Helvetica,sans-Serif" font-size="10.00">AP_AHRS_NavEKF::get</text>
<text text-anchor="middle" x="900" y="-84" font-family="Helvetica,sans-Serif" font-size="10.00">_gyro_drift</text>
</a>
</g>
</g>
<!-- Node6&#45;&gt;Node7 -->
<g id="edge6" class="edge"><title>Node6&#45;&gt;Node7</title>
<path fill="none" stroke="midnightblue" d="M789.48,-92C805.217,-92 821.579,-92 836.709,-92"/>
<polygon fill="midnightblue" stroke="midnightblue" points="789.247,-88.5001 779.247,-92 789.247,-95.5001 789.247,-88.5001"/>
</g>
<!-- Node8 -->
<g id="node8" class="node"><title>Node8</title>
<g id="a_node8"><a xlink:href="classAP__Module.html#a9b4f06b2556a122f11b92b7b29d462c4" target="_top" xlink:title="AP_Module::call_hook\l_AHRS_update">
<polygon fill="white" stroke="black" points="1021,-77 1021,-107 1135,-107 1135,-77 1021,-77"/>
<text text-anchor="start" x="1029" y="-95" font-family="Helvetica,sans-Serif" font-size="10.00">AP_Module::call_hook</text>
<text text-anchor="middle" x="1078" y="-84" font-family="Helvetica,sans-Serif" font-size="10.00">_AHRS_update</text>
</a>
</g>
</g>
<!-- Node7&#45;&gt;Node8 -->
<g id="edge7" class="edge"><title>Node7&#45;&gt;Node8</title>
<path fill="none" stroke="midnightblue" d="M973.333,-92C989.167,-92 1005.7,-92 1020.79,-92"/>
<polygon fill="midnightblue" stroke="midnightblue" points="973.051,-88.5001 963.051,-92 973.051,-95.5001 973.051,-88.5001"/>
</g>
<!-- Node9 -->
<g id="node9" class="node"><title>Node9</title>
<g id="a_node9"><a xlink:href="classAP__AHRS__NavEKF.html#ac8111979c5dc37a55b2c50818534ea52" target="_top" xlink:title="AP_AHRS_NavEKF::update">
<polygon fill="white" stroke="black" points="1171,-60.5 1171,-79.5 1313,-79.5 1313,-60.5 1171,-60.5"/>
<text text-anchor="middle" x="1242" y="-67.5" font-family="Helvetica,sans-Serif" font-size="10.00">AP_AHRS_NavEKF::update</text>
</a>
</g>
</g>
<!-- Node7&#45;&gt;Node9 -->
<g id="edge11" class="edge"><title>Node7&#45;&gt;Node9</title>
<path fill="none" stroke="midnightblue" d="M973.364,-75.1351C988.989,-72.1664 1005.48,-69.537 1021,-68 1071.42,-63.0074 1084.34,-67.5221 1135,-68 1146.6,-68.1094 1158.9,-68.286 1170.87,-68.4903"/>
<polygon fill="midnightblue" stroke="midnightblue" points="972.377,-71.7622 963.241,-77.127 973.728,-78.6306 972.377,-71.7622"/>
</g>
<!-- Node10 -->
<g id="node10" class="node"><title>Node10</title>
<g id="a_node10"><a xlink:href="AHRS__Test_8cpp.html#a0b33edabd7f1c4e4a0bf32c67269be2f" target="_top" xlink:title="loop">
<polygon fill="white" stroke="black" points="1349,-104.5 1349,-123.5 1384,-123.5 1384,-104.5 1349,-104.5"/>
<text text-anchor="middle" x="1366.5" y="-111.5" font-family="Helvetica,sans-Serif" font-size="10.00">loop</text>
</a>
</g>
</g>
<!-- Node7&#45;&gt;Node10 -->
<g id="edge10" class="edge"><title>Node7&#45;&gt;Node10</title>
<path fill="none" stroke="midnightblue" d="M971.045,-109.109C987.342,-112.388 1004.7,-115.32 1021,-117 1146.54,-129.938 1299.17,-119.51 1348.95,-115.445"/>
<polygon fill="midnightblue" stroke="midnightblue" points="971.556,-105.641 961.052,-107.032 970.13,-112.494 971.556,-105.641"/>
</g>
<!-- Node8&#45;&gt;Node9 -->
<g id="edge8" class="edge"><title>Node8&#45;&gt;Node9</title>
<path fill="none" stroke="midnightblue" d="M1145.35,-82.9895C1153.78,-81.845 1162.42,-80.6709 1170.91,-79.5188"/>
<polygon fill="midnightblue" stroke="midnightblue" points="1144.64,-79.5533 1135.21,-84.3672 1145.59,-86.4896 1144.64,-79.5533"/>
</g>
<!-- Node9&#45;&gt;Node10 -->
<g id="edge9" class="edge"><title>Node9&#45;&gt;Node10</title>
<path fill="none" stroke="midnightblue" d="M1279.06,-82.9506C1302.1,-91.2281 1330.91,-101.576 1348.76,-107.986"/>
<polygon fill="midnightblue" stroke="midnightblue" points="1280.18,-79.6338 1269.58,-79.5473 1277.81,-86.2218 1280.18,-79.6338"/>
</g>
<!-- Node12&#45;&gt;Node9 -->
<g id="edge14" class="edge"><title>Node12&#45;&gt;Node9</title>
<path fill="none" stroke="midnightblue" d="M964.869,-21.271C1029.01,-32.5898 1126.74,-49.837 1187.1,-60.4878"/>
<polygon fill="midnightblue" stroke="midnightblue" points="965.33,-17.7984 954.874,-19.5072 964.114,-24.6919 965.33,-17.7984"/>
</g>
<!-- Node13&#45;&gt;Node4 -->
<g id="edge16" class="edge"><title>Node13&#45;&gt;Node4</title>
<path fill="none" stroke="midnightblue" d="M298.084,-36.819C307.322,-38.0427 316.741,-39.2902 325.777,-40.487"/>
<polygon fill="midnightblue" stroke="midnightblue" points="298.529,-33.3476 288.156,-35.5042 297.61,-40.287 298.529,-33.3476"/>
</g>
</g>
</svg>
        <g id="navigator" transform="translate(0 0)" fill="#404254">
                <rect fill="#f2f5e9" fill-opacity="0.5" stroke="#606060" stroke-width=".5" x="0" y="0" width="60" height="60"/>
                <use id="zoomplus" xlink:href="#zoomPlus" x="17" y="9" onmousedown="handleZoom(evt,'in')"/>
                <use id="zoomminus" xlink:href="#zoomMin" x="42" y="9" onmousedown="handleZoom(evt,'out')"/>
                <use id="reset" xlink:href="#resetDef" x="30" y="36" onmousedown="handleReset()"/>
                <g id="arrowUp" xlink:href="#dirArrow" transform="translate(30 24)" onmousedown="handlePan(0,-1)">
                  <use xlink:href="#rim" fill="#404040">
                        <set attributeName="fill" to="#808080" begin="arrowUp.mouseover" end="arrowUp.mouseout"/>
                  </use>
                  <path fill="none" stroke="white" stroke-width="1.5" d="M0,-3.0v7 M-2.5,-0.5L0,-3.0L2.5,-0.5"/>
                </g>
                <g id="arrowRight" xlink:href="#dirArrow" transform="rotate(90) translate(36 -43)" onmousedown="handlePan(1,0)">
                  <use xlink:href="#rim" fill="#404040">
                        <set attributeName="fill" to="#808080" begin="arrowRight.mouseover" end="arrowRight.mouseout"/>
                  </use>
                  <path fill="none" stroke="white" stroke-width="1.5" d="M0,-3.0v7 M-2.5,-0.5L0,-3.0L2.5,-0.5"/>
                </g>
                <g id="arrowDown" xlink:href="#dirArrow" transform="rotate(180) translate(-30 -48)" onmousedown="handlePan(0,1)">
                  <use xlink:href="#rim" fill="#404040">
                        <set attributeName="fill" to="#808080" begin="arrowDown.mouseover" end="arrowDown.mouseout"/>
                  </use>
                  <path fill="none" stroke="white" stroke-width="1.5" d="M0,-3.0v7 M-2.5,-0.5L0,-3.0L2.5,-0.5"/>
                </g>
                <g id="arrowLeft" xlink:href="#dirArrow" transform="rotate(270) translate(-36 17)" onmousedown="handlePan(-1,0)">
                  <use xlink:href="#rim" fill="#404040">
                        <set attributeName="fill" to="#808080" begin="arrowLeft.mouseover" end="arrowLeft.mouseout"/>
                  </use>
                  <path fill="none" stroke="white" stroke-width="1.5" d="M0,-3.0v7 M-2.5,-0.5L0,-3.0L2.5,-0.5"/>
                </g>
        </g>
        <svg viewBox="0 0 15 15" width="100%" height="30px" preserveAspectRatio="xMaxYMin meet">
         <g id="arrow_out" transform="scale(0.3 0.3)">
          <a xlink:href="classAP__GPS_a2ce70cc34e62a3f0e5980f56d9a36856_icgraph_org.svg" target="_base">
           <rect id="button" ry="5" rx="5" y="6" x="6" height="38" width="38"
                fill="#f2f5e9" fill-opacity="0.5" stroke="#606060" stroke-width="1.0"/>
           <path id="arrow"
             d="M 11.500037,31.436501 C 11.940474,20.09759 22.043105,11.32322 32.158766,21.979434 L 37.068811,17.246167 C 37.068811,17.246167 37.088388,32 37.088388,32 L 22.160133,31.978069 C 22.160133,31.978069 26.997745,27.140456 26.997745,27.140456 C 18.528582,18.264221 13.291696,25.230495 11.500037,31.436501 z"
             style="fill:#404040;"/>
          </a>
         </g>
        </svg>
</svg>
