<?xml version="1.0" encoding="UTF-8" standalone="no"?>
<!DOCTYPE svg PUBLIC "-//W3C//DTD SVG 1.1//EN"
 "http://www.w3.org/Graphics/SVG/1.1/DTD/svg11.dtd">
<!-- Generated by graphviz version 2.38.0 (20140413.2041)
 -->
<!-- Title: AP_HAL::Device::set_device_address Pages: 1 -->
<svg width="301pt" height="142pt"
 viewBox="0.00 0.00 301.00 142.00" xmlns="http://www.w3.org/2000/svg" xmlns:xlink="http://www.w3.org/1999/xlink">
<g id="graph0" class="graph" transform="scale(1 1) rotate(0) translate(4 138)">
<title>AP_HAL::Device::set_device_address</title>
<polygon fill="white" stroke="none" points="-4,4 -4,-138 297,-138 297,4 -4,4"/>
<!-- Node1 -->
<g id="node1" class="node"><title>Node1</title>
<polygon fill="#bfbfbf" stroke="black" points="0,-52 0,-82 111,-82 111,-52 0,-52"/>
<text text-anchor="start" x="8" y="-70" font-family="Helvetica,sans-Serif" font-size="10.00">AP_HAL::Device::set</text>
<text text-anchor="middle" x="55.5" y="-59" font-family="Helvetica,sans-Serif" font-size="10.00">_device_address</text>
</g>
<!-- Node2 -->
<g id="node2" class="node"><title>Node2</title>
<g id="a_node2"><a xlink:href="classPX4_1_1I2CDevice.html#a30ce6c59846d2af77f5279a793240a88" target="_top" xlink:title="PX4::I2CDevice::I2CDevice">
<polygon fill="white" stroke="black" points="150,-114.5 150,-133.5 290,-133.5 290,-114.5 150,-114.5"/>
<text text-anchor="middle" x="220" y="-121.5" font-family="Helvetica,sans-Serif" font-size="10.00">PX4::I2CDevice::I2CDevice</text>
</a>
</g>
</g>
<!-- Node1&#45;&gt;Node2 -->
<g id="edge1" class="edge"><title>Node1&#45;&gt;Node2</title>
<path fill="none" stroke="midnightblue" d="M98.7254,-86.1681C113.785,-92.6195 130.986,-99.5548 147,-105 157.159,-108.454 168.299,-111.666 178.716,-114.429"/>
<polygon fill="midnightblue" stroke="midnightblue" points="99.7385,-82.7924 89.1719,-82.0191 96.95,-89.213 99.7385,-82.7924"/>
</g>
<!-- Node3 -->
<g id="node3" class="node"><title>Node3</title>
<g id="a_node3"><a xlink:href="classLinux_1_1I2CDevice.html#a43354ea1d2083050dd54ada3250791af" target="_top" xlink:title="Linux::I2CDevice::I2CDevice">
<polygon fill="white" stroke="black" points="147.5,-76.5 147.5,-95.5 292.5,-95.5 292.5,-76.5 147.5,-76.5"/>
<text text-anchor="middle" x="220" y="-83.5" font-family="Helvetica,sans-Serif" font-size="10.00">Linux::I2CDevice::I2CDevice</text>
</a>
</g>
</g>
<!-- Node1&#45;&gt;Node3 -->
<g id="edge2" class="edge"><title>Node1&#45;&gt;Node3</title>
<path fill="none" stroke="midnightblue" d="M121.034,-74.5455C129.653,-75.5532 138.533,-76.5916 147.265,-77.6125"/>
<polygon fill="midnightblue" stroke="midnightblue" points="121.401,-71.0647 111.062,-73.3796 120.588,-78.0173 121.401,-71.0647"/>
</g>
<!-- Node4 -->
<g id="node4" class="node"><title>Node4</title>
<g id="a_node4"><a xlink:href="classLinux_1_1SPIDevice.html#acbdde2e0e470c7eb2794a6efe727b1db" target="_top" xlink:title="Linux::SPIDevice::SPIDevice">
<polygon fill="white" stroke="black" points="147,-38.5 147,-57.5 293,-57.5 293,-38.5 147,-38.5"/>
<text text-anchor="middle" x="220" y="-45.5" font-family="Helvetica,sans-Serif" font-size="10.00">Linux::SPIDevice::SPIDevice</text>
</a>
</g>
</g>
<!-- Node1&#45;&gt;Node4 -->
<g id="edge3" class="edge"><title>Node1&#45;&gt;Node4</title>
<path fill="none" stroke="midnightblue" d="M121.233,-59.4312C129.694,-58.442 138.404,-57.4235 146.976,-56.4213"/>
<polygon fill="midnightblue" stroke="midnightblue" points="120.588,-55.9827 111.062,-60.6204 121.401,-62.9353 120.588,-55.9827"/>
</g>
<!-- Node5 -->
<g id="node5" class="node"><title>Node5</title>
<g id="a_node5"><a xlink:href="classPX4_1_1SPIDevice.html#a5c8b69cfac2d2a46129307f92d4343bc" target="_top" xlink:title="PX4::SPIDevice::SPIDevice">
<polygon fill="white" stroke="black" points="149,-0.5 149,-19.5 291,-19.5 291,-0.5 149,-0.5"/>
<text text-anchor="middle" x="220" y="-7.5" font-family="Helvetica,sans-Serif" font-size="10.00">PX4::SPIDevice::SPIDevice</text>
</a>
</g>
</g>
<!-- Node1&#45;&gt;Node5 -->
<g id="edge4" class="edge"><title>Node1&#45;&gt;Node5</title>
<path fill="none" stroke="midnightblue" d="M98.7254,-47.8319C113.785,-41.3805 130.986,-34.4452 147,-29 157.159,-25.5456 168.299,-22.3339 178.716,-19.5707"/>
<polygon fill="midnightblue" stroke="midnightblue" points="96.95,-44.787 89.1719,-51.9809 99.7385,-51.2076 96.95,-44.787"/>
</g>
</g>
</svg>
