<?xml version="1.0" encoding="UTF-8" standalone="no"?>
<!DOCTYPE svg PUBLIC "-//W3C//DTD SVG 1.1//EN"
 "http://www.w3.org/Graphics/SVG/1.1/DTD/svg11.dtd">
<!-- Generated by graphviz version 2.38.0 (20140413.2041)
 -->
<!-- Title: AP_Airspeed::get_pressure Pages: 1 -->
<svg width="309pt" height="78pt"
 viewBox="0.00 0.00 309.00 77.50" xmlns="http://www.w3.org/2000/svg" xmlns:xlink="http://www.w3.org/1999/xlink">
<g id="graph0" class="graph" transform="scale(1 1) rotate(0) translate(4 73.5)">
<title>AP_Airspeed::get_pressure</title>
<polygon fill="white" stroke="none" points="-4,4 -4,-73.5 305,-73.5 305,4 -4,4"/>
<!-- Node1 -->
<g id="node1" class="node"><title>Node1</title>
<polygon fill="#bfbfbf" stroke="black" points="0,-28 0,-47 136,-47 136,-28 0,-28"/>
<text text-anchor="middle" x="68" y="-35" font-family="Helvetica,sans-Serif" font-size="10.00">AP_Airspeed::get_pressure</text>
</g>
<!-- Node2 -->
<g id="node2" class="node"><title>Node2</title>
<g id="a_node2"><a xlink:href="classAP__Airspeed.html#a4721e9a79d9611e1f693d4850c07edc0" target="_top" xlink:title="AP_Airspeed::enabled">
<polygon fill="white" stroke="black" points="180,-50 180,-69 293,-69 293,-50 180,-50"/>
<text text-anchor="middle" x="236.5" y="-57" font-family="Helvetica,sans-Serif" font-size="10.00">AP_Airspeed::enabled</text>
</a>
</g>
</g>
<!-- Node1&#45;&gt;Node2 -->
<g id="edge1" class="edge"><title>Node1&#45;&gt;Node2</title>
<path fill="none" stroke="midnightblue" d="M136.242,-46.3848C147.298,-47.8457 158.746,-49.3583 169.764,-50.8142"/>
<polygon fill="midnightblue" stroke="midnightblue" points="169.367,-54.2921 179.74,-52.1323 170.284,-47.3524 169.367,-54.2921"/>
</g>
<!-- Node3 -->
<g id="node3" class="node"><title>Node3</title>
<g id="a_node3"><a xlink:href="classAP__Airspeed__Backend.html#a13ffe36cf0a00f387172d7345a013980" target="_top" xlink:title="AP_Airspeed_Backend\l::get_differential_pressure">
<polygon fill="white" stroke="black" points="172,-0.5 172,-30.5 301,-30.5 301,-0.5 172,-0.5"/>
<text text-anchor="start" x="180" y="-18.5" font-family="Helvetica,sans-Serif" font-size="10.00">AP_Airspeed_Backend</text>
<text text-anchor="middle" x="236.5" y="-7.5" font-family="Helvetica,sans-Serif" font-size="10.00">::get_differential_pressure</text>
</a>
</g>
</g>
<!-- Node1&#45;&gt;Node3 -->
<g id="edge2" class="edge"><title>Node1&#45;&gt;Node3</title>
<path fill="none" stroke="midnightblue" d="M136.242,-28.6152C144.675,-27.5009 153.336,-26.3565 161.86,-25.2301"/>
<polygon fill="midnightblue" stroke="midnightblue" points="162.328,-28.6989 171.783,-23.919 161.411,-21.7592 162.328,-28.6989"/>
</g>
</g>
</svg>
