<?xml version="1.0" encoding="UTF-8" standalone="no"?>
<!DOCTYPE svg PUBLIC "-//W3C//DTD SVG 1.1//EN"
 "http://www.w3.org/Graphics/SVG/1.1/DTD/svg11.dtd">
<!-- Generated by graphviz version 2.38.0 (20140413.2041)
 -->
<!-- Title: AP_BattMonitor_Backend Pages: 1 -->
<svg width="497pt" height="151pt"
 viewBox="0.00 0.00 496.50 151.00" xmlns="http://www.w3.org/2000/svg" xmlns:xlink="http://www.w3.org/1999/xlink">
<g id="graph0" class="graph" transform="scale(1 1) rotate(0) translate(4 147)">
<title>AP_BattMonitor_Backend</title>
<polygon fill="white" stroke="none" points="-4,4 -4,-147 492.5,-147 492.5,4 -4,4"/>
<!-- Node1 -->
<g id="node1" class="node"><title>Node1</title>
<polygon fill="#bfbfbf" stroke="black" points="134,-123.5 134,-142.5 263,-142.5 263,-123.5 134,-123.5"/>
<text text-anchor="middle" x="198.5" y="-130.5" font-family="Helvetica,sans-Serif" font-size="10.00">AP_BattMonitor_Backend</text>
</g>
<!-- Node2 -->
<g id="node2" class="node"><title>Node2</title>
<g id="a_node2"><a xlink:href="classAP__BattMonitor__Analog.html" target="_top" xlink:title="AP_BattMonitor_Analog">
<polygon fill="white" stroke="black" points="-7.10543e-15,-67.5 -7.10543e-15,-86.5 121,-86.5 121,-67.5 -7.10543e-15,-67.5"/>
<text text-anchor="middle" x="60.5" y="-74.5" font-family="Helvetica,sans-Serif" font-size="10.00">AP_BattMonitor_Analog</text>
</a>
</g>
</g>
<!-- Node1&#45;&gt;Node2 -->
<g id="edge1" class="edge"><title>Node1&#45;&gt;Node2</title>
<path fill="none" stroke="midnightblue" d="M167.251,-119.772C141.329,-109.629 105.138,-95.4669 82.2642,-86.5164"/>
<polygon fill="midnightblue" stroke="midnightblue" points="166.046,-123.059 176.633,-123.444 168.596,-116.54 166.046,-123.059"/>
</g>
<!-- Node3 -->
<g id="node3" class="node"><title>Node3</title>
<g id="a_node3"><a xlink:href="classAP__BattMonitor__Bebop.html" target="_top" xlink:title="AP_BattMonitor_Bebop">
<polygon fill="white" stroke="black" points="139,-67.5 139,-86.5 258,-86.5 258,-67.5 139,-67.5"/>
<text text-anchor="middle" x="198.5" y="-74.5" font-family="Helvetica,sans-Serif" font-size="10.00">AP_BattMonitor_Bebop</text>
</a>
</g>
</g>
<!-- Node1&#45;&gt;Node3 -->
<g id="edge2" class="edge"><title>Node1&#45;&gt;Node3</title>
<path fill="none" stroke="midnightblue" d="M198.5,-112.805C198.5,-103.91 198.5,-93.7798 198.5,-86.7511"/>
<polygon fill="midnightblue" stroke="midnightblue" points="195,-113.083 198.5,-123.083 202,-113.083 195,-113.083"/>
</g>
<!-- Node4 -->
<g id="node4" class="node"><title>Node4</title>
<g id="a_node4"><a xlink:href="classAP__BattMonitor__SMBus.html" target="_top" xlink:title="AP_BattMonitor_SMBus">
<polygon fill="white" stroke="black" points="276,-67.5 276,-86.5 399,-86.5 399,-67.5 276,-67.5"/>
<text text-anchor="middle" x="337.5" y="-74.5" font-family="Helvetica,sans-Serif" font-size="10.00">AP_BattMonitor_SMBus</text>
</a>
</g>
</g>
<!-- Node1&#45;&gt;Node4 -->
<g id="edge3" class="edge"><title>Node1&#45;&gt;Node4</title>
<path fill="none" stroke="midnightblue" d="M229.976,-119.772C256.085,-109.629 292.539,-95.4669 315.578,-86.5164"/>
<polygon fill="midnightblue" stroke="midnightblue" points="228.579,-116.56 220.525,-123.444 231.114,-123.085 228.579,-116.56"/>
</g>
<!-- Node5 -->
<g id="node5" class="node"><title>Node5</title>
<g id="a_node5"><a xlink:href="classAP__BattMonitor__SMBus__Maxell.html" target="_top" xlink:title="AP_BattMonitor_SMBus\l_Maxell">
<polygon fill="white" stroke="black" points="199,-0.5 199,-30.5 322,-30.5 322,-0.5 199,-0.5"/>
<text text-anchor="start" x="207" y="-18.5" font-family="Helvetica,sans-Serif" font-size="10.00">AP_BattMonitor_SMBus</text>
<text text-anchor="middle" x="260.5" y="-7.5" font-family="Helvetica,sans-Serif" font-size="10.00">_Maxell</text>
</a>
</g>
</g>
<!-- Node4&#45;&gt;Node5 -->
<g id="edge4" class="edge"><title>Node4&#45;&gt;Node5</title>
<path fill="none" stroke="midnightblue" d="M318.341,-61.1955C306.199,-51.8129 290.59,-39.7512 278.647,-30.523"/>
<polygon fill="midnightblue" stroke="midnightblue" points="316.415,-64.1301 326.468,-67.4751 320.695,-58.5911 316.415,-64.1301"/>
</g>
<!-- Node6 -->
<g id="node6" class="node"><title>Node6</title>
<g id="a_node6"><a xlink:href="classAP__BattMonitor__SMBus__Solo.html" target="_top" xlink:title="AP_BattMonitor_SMBus_Solo">
<polygon fill="white" stroke="black" points="340.5,-6 340.5,-25 488.5,-25 488.5,-6 340.5,-6"/>
<text text-anchor="middle" x="414.5" y="-13" font-family="Helvetica,sans-Serif" font-size="10.00">AP_BattMonitor_SMBus_Solo</text>
</a>
</g>
</g>
<!-- Node4&#45;&gt;Node6 -->
<g id="edge5" class="edge"><title>Node4&#45;&gt;Node6</title>
<path fill="none" stroke="midnightblue" d="M356.532,-61.2938C371.302,-49.8803 391.261,-34.4577 403.488,-25.0091"/>
<polygon fill="midnightblue" stroke="midnightblue" points="354.305,-58.5911 348.532,-67.4751 358.585,-64.1301 354.305,-58.5911"/>
</g>
</g>
</svg>
