<?xml version="1.0" encoding="UTF-8" standalone="no"?>
<!DOCTYPE svg PUBLIC "-//W3C//DTD SVG 1.1//EN"
 "http://www.w3.org/Graphics/SVG/1.1/DTD/svg11.dtd">
<!-- Generated by graphviz version 2.38.0 (20140413.2041)
 -->
<!-- Title: NavEKF2::getLastPosNorthEastReset Pages: 1 -->
<svg width="322pt" height="78pt"
 viewBox="0.00 0.00 322.00 77.50" xmlns="http://www.w3.org/2000/svg" xmlns:xlink="http://www.w3.org/1999/xlink">
<g id="graph0" class="graph" transform="scale(1 1) rotate(0) translate(4 73.5)">
<title>NavEKF2::getLastPosNorthEastReset</title>
<polygon fill="white" stroke="none" points="-4,4 -4,-73.5 318,-73.5 318,4 -4,4"/>
<!-- Node1 -->
<g id="node1" class="node"><title>Node1</title>
<polygon fill="#bfbfbf" stroke="black" points="0,-22.5 0,-52.5 139,-52.5 139,-22.5 0,-22.5"/>
<text text-anchor="start" x="8" y="-40.5" font-family="Helvetica,sans-Serif" font-size="10.00">NavEKF2::getLastPosNorth</text>
<text text-anchor="middle" x="69.5" y="-29.5" font-family="Helvetica,sans-Serif" font-size="10.00">EastReset</text>
</g>
<!-- Node2 -->
<g id="node2" class="node"><title>Node2</title>
<g id="a_node2"><a xlink:href="structVector2.html#a6b537328ae913e3e7267b539e7a4af92" target="_top" xlink:title="Vector2::zero">
<polygon fill="white" stroke="black" points="207,-50 207,-69 282,-69 282,-50 207,-50"/>
<text text-anchor="middle" x="244.5" y="-57" font-family="Helvetica,sans-Serif" font-size="10.00">Vector2::zero</text>
</a>
</g>
</g>
<!-- Node1&#45;&gt;Node2 -->
<g id="edge1" class="edge"><title>Node1&#45;&gt;Node2</title>
<path fill="none" stroke="midnightblue" d="M139.371,-46.2582C158.591,-48.7023 179.022,-51.3005 196.651,-53.5423"/>
<polygon fill="midnightblue" stroke="midnightblue" points="196.314,-57.0276 206.676,-54.8171 197.197,-50.0835 196.314,-57.0276"/>
</g>
<!-- Node3 -->
<g id="node3" class="node"><title>Node3</title>
<g id="a_node3"><a xlink:href="classNavEKF2__core.html#aba5d999b9a92ba7c8d5825bda374b1a8" target="_top" xlink:title="NavEKF2_core::getLastPos\lNorthEastReset">
<polygon fill="white" stroke="black" points="175,-0.5 175,-30.5 314,-30.5 314,-0.5 175,-0.5"/>
<text text-anchor="start" x="183" y="-18.5" font-family="Helvetica,sans-Serif" font-size="10.00">NavEKF2_core::getLastPos</text>
<text text-anchor="middle" x="244.5" y="-7.5" font-family="Helvetica,sans-Serif" font-size="10.00">NorthEastReset</text>
</a>
</g>
</g>
<!-- Node1&#45;&gt;Node3 -->
<g id="edge2" class="edge"><title>Node1&#45;&gt;Node3</title>
<path fill="none" stroke="midnightblue" d="M139.371,-28.7418C147.769,-27.6739 156.399,-26.5765 164.925,-25.4922"/>
<polygon fill="midnightblue" stroke="midnightblue" points="165.387,-28.9617 174.866,-24.2281 164.504,-22.0176 165.387,-28.9617"/>
</g>
</g>
</svg>
