<?xml version="1.0" encoding="UTF-8" standalone="no"?>
<!DOCTYPE svg PUBLIC "-//W3C//DTD SVG 1.1//EN"
 "http://www.w3.org/Graphics/SVG/1.1/DTD/svg11.dtd">
<!-- Generated by graphviz version 2.38.0 (20140413.2041)
 -->
<!-- Title: Linux::RPIOUARTDriver::_write_fd Pages: 1 -->
<svg width="410pt" height="66pt"
 viewBox="0.00 0.00 410.00 66.00" xmlns="http://www.w3.org/2000/svg" xmlns:xlink="http://www.w3.org/1999/xlink">
<g id="graph0" class="graph" transform="scale(1 1) rotate(0) translate(4 62)">
<title>Linux::RPIOUARTDriver::_write_fd</title>
<polygon fill="white" stroke="none" points="-4,4 -4,-62 406,-62 406,4 -4,4"/>
<!-- Node1 -->
<g id="node1" class="node"><title>Node1</title>
<polygon fill="#bfbfbf" stroke="black" points="0,-14 0,-44 125,-44 125,-14 0,-14"/>
<text text-anchor="start" x="8" y="-32" font-family="Helvetica,sans-Serif" font-size="10.00">Linux::RPIOUARTDriver</text>
<text text-anchor="middle" x="62.5" y="-21" font-family="Helvetica,sans-Serif" font-size="10.00">::_write_fd</text>
</g>
<!-- Node2 -->
<g id="node2" class="node"><title>Node2</title>
<g id="a_node2"><a xlink:href="classLinux_1_1UARTDriver.html#a6c5b8c25e9154e44794622411eda0bd4" target="_top" xlink:title="Linux::UARTDriver::\l_write_fd">
<polygon fill="white" stroke="black" points="161,-14 161,-44 267,-44 267,-14 161,-14"/>
<text text-anchor="start" x="169" y="-32" font-family="Helvetica,sans-Serif" font-size="10.00">Linux::UARTDriver::</text>
<text text-anchor="middle" x="214" y="-21" font-family="Helvetica,sans-Serif" font-size="10.00">_write_fd</text>
</a>
</g>
</g>
<!-- Node1&#45;&gt;Node2 -->
<g id="edge1" class="edge"><title>Node1&#45;&gt;Node2</title>
<path fill="none" stroke="midnightblue" d="M125.171,-29C133.634,-29 142.327,-29 150.8,-29"/>
<polygon fill="midnightblue" stroke="midnightblue" points="150.994,-32.5001 160.994,-29 150.994,-25.5001 150.994,-32.5001"/>
</g>
<!-- Node3 -->
<g id="node3" class="node"><title>Node3</title>
<g id="a_node3"><a xlink:href="classSerialDevice.html#aaad60303d5def2e5abf4b9988e74ff2d" target="_top" xlink:title="SerialDevice::open">
<polygon fill="white" stroke="black" points="303,-38.5 303,-57.5 402,-57.5 402,-38.5 303,-38.5"/>
<text text-anchor="middle" x="352.5" y="-45.5" font-family="Helvetica,sans-Serif" font-size="10.00">SerialDevice::open</text>
</a>
</g>
</g>
<!-- Node2&#45;&gt;Node3 -->
<g id="edge2" class="edge"><title>Node2&#45;&gt;Node3</title>
<path fill="none" stroke="midnightblue" d="M267.384,-36.2916C275.615,-37.4373 284.173,-38.6284 292.54,-39.7932"/>
<polygon fill="midnightblue" stroke="midnightblue" points="292.231,-43.2838 302.618,-41.1959 293.196,-36.3506 292.231,-43.2838"/>
</g>
<!-- Node4 -->
<g id="node4" class="node"><title>Node4</title>
<g id="a_node4"><a xlink:href="classSerialDevice.html#a93c12dd5e93213bb98b83924a07ed040" target="_top" xlink:title="SerialDevice::write">
<polygon fill="white" stroke="black" points="303,-0.5 303,-19.5 402,-19.5 402,-0.5 303,-0.5"/>
<text text-anchor="middle" x="352.5" y="-7.5" font-family="Helvetica,sans-Serif" font-size="10.00">SerialDevice::write</text>
</a>
</g>
</g>
<!-- Node2&#45;&gt;Node4 -->
<g id="edge3" class="edge"><title>Node2&#45;&gt;Node4</title>
<path fill="none" stroke="midnightblue" d="M267.384,-21.7084C275.615,-20.5627 284.173,-19.3716 292.54,-18.2068"/>
<polygon fill="midnightblue" stroke="midnightblue" points="293.196,-21.6494 302.618,-16.8041 292.231,-14.7162 293.196,-21.6494"/>
</g>
</g>
</svg>
