<?xml version="1.0" encoding="UTF-8" standalone="no"?>
<!DOCTYPE svg PUBLIC "-//W3C//DTD SVG 1.1//EN"
 "http://www.w3.org/Graphics/SVG/1.1/DTD/svg11.dtd">
<!-- Generated by graphviz version 2.38.0 (20140413.2041)
 -->
<!-- Title: HALSITL::ADCSource::read_latest Pages: 1 -->
<svg width="609pt" height="88pt"
 viewBox="0.00 0.00 609.00 88.00" xmlns="http://www.w3.org/2000/svg" xmlns:xlink="http://www.w3.org/1999/xlink">
<g id="graph0" class="graph" transform="scale(1 1) rotate(0) translate(4 84)">
<title>HALSITL::ADCSource::read_latest</title>
<polygon fill="white" stroke="none" points="-4,4 -4,-84 605,-84 605,4 -4,4"/>
<!-- Node1 -->
<g id="node1" class="node"><title>Node1</title>
<polygon fill="#bfbfbf" stroke="black" points="0,-24.5 0,-54.5 116,-54.5 116,-24.5 0,-24.5"/>
<text text-anchor="start" x="8" y="-42.5" font-family="Helvetica,sans-Serif" font-size="10.00">HALSITL::ADCSource</text>
<text text-anchor="middle" x="58" y="-31.5" font-family="Helvetica,sans-Serif" font-size="10.00">::read_latest</text>
</g>
<!-- Node2 -->
<g id="node2" class="node"><title>Node2</title>
<g id="a_node2"><a xlink:href="classHALSITL_1_1ADCSource.html#a5c464e61e967c151225a6a6fe6cd942c" target="_top" xlink:title="HALSITL::ADCSource\l::read_average">
<polygon fill="white" stroke="black" points="152,-49.5 152,-79.5 268,-79.5 268,-49.5 152,-49.5"/>
<text text-anchor="start" x="160" y="-67.5" font-family="Helvetica,sans-Serif" font-size="10.00">HALSITL::ADCSource</text>
<text text-anchor="middle" x="210" y="-56.5" font-family="Helvetica,sans-Serif" font-size="10.00">::read_average</text>
</a>
</g>
</g>
<!-- Node1&#45;&gt;Node2 -->
<g id="edge1" class="edge"><title>Node1&#45;&gt;Node2</title>
<path fill="none" stroke="midnightblue" d="M126.033,-50.6722C134.54,-52.0901 143.186,-53.531 151.525,-54.9209"/>
<polygon fill="midnightblue" stroke="midnightblue" points="126.576,-47.2144 116.136,-49.0227 125.425,-54.1192 126.576,-47.2144"/>
</g>
<!-- Node5 -->
<g id="node5" class="node"><title>Node5</title>
<g id="a_node5"><a xlink:href="classHALSITL_1_1ADCSource.html#a4fc59be8a234a9b23511b5f1feaf0dc2" target="_top" xlink:title="HALSITL::ADCSource\l::voltage_latest">
<polygon fill="white" stroke="black" points="152,-0.5 152,-30.5 268,-30.5 268,-0.5 152,-0.5"/>
<text text-anchor="start" x="160" y="-18.5" font-family="Helvetica,sans-Serif" font-size="10.00">HALSITL::ADCSource</text>
<text text-anchor="middle" x="210" y="-7.5" font-family="Helvetica,sans-Serif" font-size="10.00">::voltage_latest</text>
</a>
</g>
</g>
<!-- Node1&#45;&gt;Node5 -->
<g id="edge4" class="edge"><title>Node1&#45;&gt;Node5</title>
<path fill="none" stroke="midnightblue" d="M126.033,-28.7747C134.54,-27.4135 143.186,-26.0302 151.525,-24.6959"/>
<polygon fill="midnightblue" stroke="midnightblue" points="125.458,-25.3221 116.136,-30.3582 126.564,-32.2342 125.458,-25.3221"/>
</g>
<!-- Node3 -->
<g id="node3" class="node"><title>Node3</title>
<g id="a_node3"><a xlink:href="classHALSITL_1_1ADCSource.html#a2377e307aa7e56c344ad59bcd9a5d2c5" target="_top" xlink:title="HALSITL::ADCSource\l::voltage_average">
<polygon fill="white" stroke="black" points="304,-49.5 304,-79.5 420,-79.5 420,-49.5 304,-49.5"/>
<text text-anchor="start" x="312" y="-67.5" font-family="Helvetica,sans-Serif" font-size="10.00">HALSITL::ADCSource</text>
<text text-anchor="middle" x="362" y="-56.5" font-family="Helvetica,sans-Serif" font-size="10.00">::voltage_average</text>
</a>
</g>
</g>
<!-- Node2&#45;&gt;Node3 -->
<g id="edge2" class="edge"><title>Node2&#45;&gt;Node3</title>
<path fill="none" stroke="midnightblue" d="M278.311,-64.5C286.728,-64.5 295.277,-64.5 303.525,-64.5"/>
<polygon fill="midnightblue" stroke="midnightblue" points="278.137,-61.0001 268.136,-64.5 278.136,-68.0001 278.137,-61.0001"/>
</g>
<!-- Node4 -->
<g id="node4" class="node"><title>Node4</title>
<g id="a_node4"><a xlink:href="classHALSITL_1_1ADCSource.html#ac88a9c954c9196cc1fc1200f54cc3869" target="_top" xlink:title="HALSITL::ADCSource\l::voltage_average_ratiometric">
<polygon fill="white" stroke="black" points="456,-49.5 456,-79.5 601,-79.5 601,-49.5 456,-49.5"/>
<text text-anchor="start" x="464" y="-67.5" font-family="Helvetica,sans-Serif" font-size="10.00">HALSITL::ADCSource</text>
<text text-anchor="middle" x="528.5" y="-56.5" font-family="Helvetica,sans-Serif" font-size="10.00">::voltage_average_ratiometric</text>
</a>
</g>
</g>
<!-- Node3&#45;&gt;Node4 -->
<g id="edge3" class="edge"><title>Node3&#45;&gt;Node4</title>
<path fill="none" stroke="midnightblue" d="M430.208,-64.5C438.627,-64.5 447.263,-64.5 455.748,-64.5"/>
<polygon fill="midnightblue" stroke="midnightblue" points="430.072,-61.0001 420.072,-64.5 430.072,-68.0001 430.072,-61.0001"/>
</g>
</g>
</svg>
