<?xml version="1.0" encoding="UTF-8" standalone="no"?>
<!DOCTYPE svg PUBLIC "-//W3C//DTD SVG 1.1//EN"
 "http://www.w3.org/Graphics/SVG/1.1/DTD/svg11.dtd">
<!-- Generated by graphviz version 2.38.0 (20140413.2041)
 -->
<!-- Title: AP_RangeFinder_MaxsonarI2CXL::update Pages: 1 -->
<svg width="495pt" height="165pt"
 viewBox="0.00 0.00 495.00 164.50" xmlns="http://www.w3.org/2000/svg" xmlns:xlink="http://www.w3.org/1999/xlink">
<g id="graph0" class="graph" transform="scale(1 1) rotate(0) translate(4 160.5)">
<title>AP_RangeFinder_MaxsonarI2CXL::update</title>
<polygon fill="white" stroke="none" points="-4,4 -4,-160.5 491,-160.5 491,4 -4,4"/>
<!-- Node1 -->
<g id="node1" class="node"><title>Node1</title>
<polygon fill="#bfbfbf" stroke="black" points="0,-55 0,-85 147,-85 147,-55 0,-55"/>
<text text-anchor="start" x="8" y="-73" font-family="Helvetica,sans-Serif" font-size="10.00">AP_RangeFinder_MaxsonarI2</text>
<text text-anchor="middle" x="73.5" y="-62" font-family="Helvetica,sans-Serif" font-size="10.00">CXL::update</text>
</g>
<!-- Node2 -->
<g id="node2" class="node"><title>Node2</title>
<g id="a_node2"><a xlink:href="classAP__HAL_1_1Semaphore.html#a266e91db5eecb64d8b934d09f5e972cf" target="_top" xlink:title="AP_HAL::Semaphore::\ltake_nonblocking">
<polygon fill="white" stroke="black" points="192,-126 192,-156 308,-156 308,-126 192,-126"/>
<text text-anchor="start" x="200" y="-144" font-family="Helvetica,sans-Serif" font-size="10.00">AP_HAL::Semaphore::</text>
<text text-anchor="middle" x="250" y="-133" font-family="Helvetica,sans-Serif" font-size="10.00">take_nonblocking</text>
</a>
</g>
</g>
<!-- Node1&#45;&gt;Node2 -->
<g id="edge1" class="edge"><title>Node1&#45;&gt;Node2</title>
<path fill="none" stroke="midnightblue" d="M108.005,-85.1318C129.338,-94.6125 157.633,-106.904 183,-117 187.439,-118.767 192.066,-120.555 196.719,-122.317"/>
<polygon fill="midnightblue" stroke="midnightblue" points="195.661,-125.658 206.254,-125.88 198.112,-119.101 195.661,-125.658"/>
</g>
<!-- Node3 -->
<g id="node3" class="node"><title>Node3</title>
<g id="a_node3"><a xlink:href="classAP__RangeFinder__Backend.html#a9e858f638e4c2d1138aa3f56d217a394" target="_top" xlink:title="AP_RangeFinder_Backend\l::update_status">
<polygon fill="white" stroke="black" points="183,-77 183,-107 317,-107 317,-77 183,-77"/>
<text text-anchor="start" x="191" y="-95" font-family="Helvetica,sans-Serif" font-size="10.00">AP_RangeFinder_Backend</text>
<text text-anchor="middle" x="250" y="-84" font-family="Helvetica,sans-Serif" font-size="10.00">::update_status</text>
</a>
</g>
</g>
<!-- Node1&#45;&gt;Node3 -->
<g id="edge2" class="edge"><title>Node1&#45;&gt;Node3</title>
<path fill="none" stroke="midnightblue" d="M147.24,-79.1707C155.617,-80.2268 164.178,-81.3061 172.602,-82.3681"/>
<polygon fill="midnightblue" stroke="midnightblue" points="172.428,-85.8738 182.787,-83.6522 173.303,-78.9288 172.428,-85.8738"/>
</g>
<!-- Node4 -->
<g id="node4" class="node"><title>Node4</title>
<g id="a_node4"><a xlink:href="classAP__RangeFinder__Backend.html#ac5b3771c47b58dfba89ebcf2a24541cd" target="_top" xlink:title="AP_RangeFinder_Backend\l::set_status">
<polygon fill="white" stroke="black" points="353,-55 353,-85 487,-85 487,-55 353,-55"/>
<text text-anchor="start" x="361" y="-73" font-family="Helvetica,sans-Serif" font-size="10.00">AP_RangeFinder_Backend</text>
<text text-anchor="middle" x="420" y="-62" font-family="Helvetica,sans-Serif" font-size="10.00">::set_status</text>
</a>
</g>
</g>
<!-- Node1&#45;&gt;Node4 -->
<g id="edge4" class="edge"><title>Node1&#45;&gt;Node4</title>
<path fill="none" stroke="midnightblue" d="M147.159,-68.4757C159.133,-68.2777 171.414,-68.1068 183,-68 242.553,-67.4512 257.447,-67.4162 317,-68 325.338,-68.0817 334.059,-68.201 342.74,-68.3414"/>
<polygon fill="midnightblue" stroke="midnightblue" points="342.828,-71.8433 352.886,-68.5147 342.948,-64.8443 342.828,-71.8433"/>
</g>
<!-- Node5 -->
<g id="node5" class="node"><title>Node5</title>
<g id="a_node5"><a xlink:href="classAP__HAL_1_1Semaphore.html#afcdbf03d5bea9d83037acc93bfaea7ce" target="_top" xlink:title="AP_HAL::Semaphore::give">
<polygon fill="white" stroke="black" points="183,-0.5 183,-19.5 317,-19.5 317,-0.5 183,-0.5"/>
<text text-anchor="middle" x="250" y="-7.5" font-family="Helvetica,sans-Serif" font-size="10.00">AP_HAL::Semaphore::give</text>
</a>
</g>
</g>
<!-- Node1&#45;&gt;Node5 -->
<g id="edge5" class="edge"><title>Node1&#45;&gt;Node5</title>
<path fill="none" stroke="midnightblue" d="M118.534,-54.8595C147.309,-44.9655 184.474,-32.1866 211.773,-22.8002"/>
<polygon fill="midnightblue" stroke="midnightblue" points="213.031,-26.0686 221.35,-19.5072 210.755,-19.449 213.031,-26.0686"/>
</g>
<!-- Node3&#45;&gt;Node4 -->
<g id="edge3" class="edge"><title>Node3&#45;&gt;Node4</title>
<path fill="none" stroke="midnightblue" d="M317.398,-83.305C325.77,-82.2087 334.386,-81.0804 342.894,-79.9663"/>
<polygon fill="midnightblue" stroke="midnightblue" points="343.348,-83.4367 352.809,-78.6678 342.439,-76.496 343.348,-83.4367"/>
</g>
</g>
</svg>
