<?xml version="1.0" encoding="UTF-8" standalone="no"?>
<!DOCTYPE svg PUBLIC "-//W3C//DTD SVG 1.1//EN"
 "http://www.w3.org/Graphics/SVG/1.1/DTD/svg11.dtd">
<!-- Generated by graphviz version 2.38.0 (20140413.2041)
 -->
<!-- Title: Linux::Storage::_mark_dirty Pages: 1 -->
<svg width="398pt" height="61pt"
 viewBox="0.00 0.00 398.00 61.00" xmlns="http://www.w3.org/2000/svg" xmlns:xlink="http://www.w3.org/1999/xlink">
<g id="graph0" class="graph" transform="scale(1 1) rotate(0) translate(4 57)">
<title>Linux::Storage::_mark_dirty</title>
<polygon fill="white" stroke="none" points="-4,4 -4,-57 394,-57 394,4 -4,4"/>
<!-- Node1 -->
<g id="node1" class="node"><title>Node1</title>
<polygon fill="#bfbfbf" stroke="black" points="0,-22.5 0,-52.5 113,-52.5 113,-22.5 0,-22.5"/>
<text text-anchor="start" x="8" y="-40.5" font-family="Helvetica,sans-Serif" font-size="10.00">Linux::Storage::_mark</text>
<text text-anchor="middle" x="56.5" y="-29.5" font-family="Helvetica,sans-Serif" font-size="10.00">_dirty</text>
</g>
<!-- Node2 -->
<g id="node2" class="node"><title>Node2</title>
<g id="a_node2"><a xlink:href="classLinux_1_1Storage.html#a86b63d2045d0e5337273e21a46aae39c" target="_top" xlink:title="Linux::Storage::init">
<polygon fill="white" stroke="black" points="292,-28 292,-47 390,-47 390,-28 292,-28"/>
<text text-anchor="middle" x="341" y="-35" font-family="Helvetica,sans-Serif" font-size="10.00">Linux::Storage::init</text>
</a>
</g>
</g>
<!-- Node1&#45;&gt;Node2 -->
<g id="edge1" class="edge"><title>Node1&#45;&gt;Node2</title>
<path fill="none" stroke="midnightblue" d="M123.233,-39.9145C131.898,-40.1567 140.662,-40.3633 149,-40.5 196.549,-41.2793 208.452,-41.3488 256,-40.5 267.526,-40.2942 279.938,-39.9298 291.591,-39.5242"/>
<polygon fill="midnightblue" stroke="midnightblue" points="123.237,-36.4131 113.138,-39.6158 123.03,-43.4101 123.237,-36.4131"/>
</g>
<!-- Node3 -->
<g id="node3" class="node"><title>Node3</title>
<g id="a_node3"><a xlink:href="classLinux_1_1Storage.html#a353a4b0d50191bb04405a1f62b0cbe7b" target="_top" xlink:title="Linux::Storage::write\l_block">
<polygon fill="white" stroke="black" points="149,-0.5 149,-30.5 256,-30.5 256,-0.5 149,-0.5"/>
<text text-anchor="start" x="157" y="-18.5" font-family="Helvetica,sans-Serif" font-size="10.00">Linux::Storage::write</text>
<text text-anchor="middle" x="202.5" y="-7.5" font-family="Helvetica,sans-Serif" font-size="10.00">_block</text>
</a>
</g>
</g>
<!-- Node1&#45;&gt;Node3 -->
<g id="edge2" class="edge"><title>Node1&#45;&gt;Node3</title>
<path fill="none" stroke="midnightblue" d="M123.172,-27.4668C131.761,-26.1545 140.472,-24.8238 148.809,-23.55"/>
<polygon fill="midnightblue" stroke="midnightblue" points="122.531,-24.024 113.174,-28.9942 123.588,-30.9437 122.531,-24.024"/>
</g>
<!-- Node3&#45;&gt;Node2 -->
<g id="edge3" class="edge"><title>Node3&#45;&gt;Node2</title>
<path fill="none" stroke="midnightblue" d="M266.268,-25.6165C274.855,-27.0005 283.559,-28.4032 291.83,-29.7364"/>
<polygon fill="midnightblue" stroke="midnightblue" points="266.704,-22.1416 256.274,-24.0058 265.59,-29.0525 266.704,-22.1416"/>
</g>
</g>
</svg>
