<?xml version="1.0" encoding="UTF-8" standalone="no"?>
<!DOCTYPE svg PUBLIC "-//W3C//DTD SVG 1.1//EN"
 "http://www.w3.org/Graphics/SVG/1.1/DTD/svg11.dtd">
<!-- Generated by graphviz version 2.38.0 (20140413.2041)
 -->
<!-- Title: AP_AccelCal::register_client Pages: 1 -->
<svg width="3225pt" height="315pt"
 viewBox="0.00 0.00 3225.00 314.94" xmlns="http://www.w3.org/2000/svg" xmlns:xlink="http://www.w3.org/1999/xlink">
<g id="graph0" class="graph" transform="scale(1 1) rotate(0) translate(4 310.942)">
<title>AP_AccelCal::register_client</title>
<polygon fill="white" stroke="none" points="-4,4 -4,-310.942 3221,-310.942 3221,4 -4,4"/>
<!-- Node1 -->
<g id="node1" class="node"><title>Node1</title>
<polygon fill="#bfbfbf" stroke="black" points="0,-58 0,-88 113,-88 113,-58 0,-58"/>
<text text-anchor="start" x="8" y="-76" font-family="Helvetica,sans-Serif" font-size="10.00">AP_AccelCal::register</text>
<text text-anchor="middle" x="56.5" y="-65" font-family="Helvetica,sans-Serif" font-size="10.00">_client</text>
</g>
<!-- Node2 -->
<g id="node2" class="node"><title>Node2</title>
<g id="a_node2"><a xlink:href="classAP__InertialSensor.html#affc63e7edc9be1b0e128b8da3b8a24a5" target="_top" xlink:title="AP_InertialSensor::\lAP_InertialSensor">
<polygon fill="white" stroke="black" points="162,-81 162,-111 263,-111 263,-81 162,-81"/>
<text text-anchor="start" x="170" y="-99" font-family="Helvetica,sans-Serif" font-size="10.00">AP_InertialSensor::</text>
<text text-anchor="middle" x="212.5" y="-88" font-family="Helvetica,sans-Serif" font-size="10.00">AP_InertialSensor</text>
</a>
</g>
</g>
<!-- Node1&#45;&gt;Node2 -->
<g id="edge1" class="edge"><title>Node1&#45;&gt;Node2</title>
<path fill="none" stroke="midnightblue" d="M123.333,-82.8321C136.245,-84.7606 149.585,-86.753 161.859,-88.5861"/>
<polygon fill="midnightblue" stroke="midnightblue" points="123.505,-79.3191 113.098,-81.3035 122.471,-86.2423 123.505,-79.3191"/>
</g>
<!-- Node47 -->
<g id="node47" class="node"><title>Node47</title>
<g id="a_node47"><a xlink:href="classAP__AccelCal.html#ab06f0152811223855531003e5fac5b6e" target="_top" xlink:title="AP_AccelCal::get_status">
<polygon fill="white" stroke="black" points="149,-41.5 149,-60.5 276,-60.5 276,-41.5 149,-41.5"/>
<text text-anchor="middle" x="212.5" y="-48.5" font-family="Helvetica,sans-Serif" font-size="10.00">AP_AccelCal::get_status</text>
</a>
</g>
</g>
<!-- Node1&#45;&gt;Node47 -->
<g id="edge63" class="edge"><title>Node1&#45;&gt;Node47</title>
<path fill="none" stroke="midnightblue" d="M123.053,-63.6353C131.631,-62.4098 140.404,-61.1566 148.932,-59.9383"/>
<polygon fill="midnightblue" stroke="midnightblue" points="122.502,-60.1784 113.098,-65.0575 123.492,-67.108 122.502,-60.1784"/>
</g>
<!-- Node3 -->
<g id="node3" class="node"><title>Node3</title>
<g id="a_node3"><a xlink:href="classAP__InertialSensor.html#a2b206efafbcc14f62bf6cf121eaca780" target="_top" xlink:title="AP_InertialSensor::\lget_instance">
<polygon fill="white" stroke="black" points="312,-83 312,-113 413,-113 413,-83 312,-83"/>
<text text-anchor="start" x="320" y="-101" font-family="Helvetica,sans-Serif" font-size="10.00">AP_InertialSensor::</text>
<text text-anchor="middle" x="362.5" y="-90" font-family="Helvetica,sans-Serif" font-size="10.00">get_instance</text>
</a>
</g>
</g>
<!-- Node2&#45;&gt;Node3 -->
<g id="edge2" class="edge"><title>Node2&#45;&gt;Node3</title>
<path fill="none" stroke="midnightblue" d="M273.319,-96.8084C286.141,-96.9816 299.554,-97.1629 311.938,-97.3302"/>
<polygon fill="midnightblue" stroke="midnightblue" points="273.24,-93.3071 263.194,-96.6715 273.145,-100.306 273.24,-93.3071"/>
</g>
<!-- Node4 -->
<g id="node4" class="node"><title>Node4</title>
<g id="a_node4"><a xlink:href="classAP__Compass__AK8963.html#ade5c3fa84cb0026597de2641ea373274" target="_top" xlink:title="AP_Compass_AK8963::\lprobe_mpu9250">
<polygon fill="white" stroke="black" points="449,-83 449,-113 572,-113 572,-83 449,-83"/>
<text text-anchor="start" x="457" y="-101" font-family="Helvetica,sans-Serif" font-size="10.00">AP_Compass_AK8963::</text>
<text text-anchor="middle" x="510.5" y="-90" font-family="Helvetica,sans-Serif" font-size="10.00">probe_mpu9250</text>
</a>
</g>
</g>
<!-- Node3&#45;&gt;Node4 -->
<g id="edge3" class="edge"><title>Node3&#45;&gt;Node4</title>
<path fill="none" stroke="midnightblue" d="M423.402,-98C431.776,-98 440.388,-98 448.777,-98"/>
<polygon fill="midnightblue" stroke="midnightblue" points="423.337,-94.5001 413.337,-98 423.337,-101.5 423.337,-94.5001"/>
</g>
<!-- Node5 -->
<g id="node5" class="node"><title>Node5</title>
<g id="a_node5"><a xlink:href="classCompass.html#a1c48170d8c8966b22fb150b1634443ec" target="_top" xlink:title="Compass::_detect_backends">
<polygon fill="white" stroke="black" points="608,-88.5 608,-107.5 752,-107.5 752,-88.5 608,-88.5"/>
<text text-anchor="middle" x="680" y="-95.5" font-family="Helvetica,sans-Serif" font-size="10.00">Compass::_detect_backends</text>
</a>
</g>
</g>
<!-- Node4&#45;&gt;Node5 -->
<g id="edge4" class="edge"><title>Node4&#45;&gt;Node5</title>
<path fill="none" stroke="midnightblue" d="M582.555,-98C590.933,-98 599.484,-98 607.863,-98"/>
<polygon fill="midnightblue" stroke="midnightblue" points="582.445,-94.5001 572.445,-98 582.445,-101.5 582.445,-94.5001"/>
</g>
<!-- Node6 -->
<g id="node6" class="node"><title>Node6</title>
<g id="a_node6"><a xlink:href="classCompass.html#a190aefc281aba88c7b16e4fc58035c5e" target="_top" xlink:title="Compass::init">
<polygon fill="white" stroke="black" points="818,-107.5 818,-126.5 895,-126.5 895,-107.5 818,-107.5"/>
<text text-anchor="middle" x="856.5" y="-114.5" font-family="Helvetica,sans-Serif" font-size="10.00">Compass::init</text>
</a>
</g>
</g>
<!-- Node5&#45;&gt;Node6 -->
<g id="edge5" class="edge"><title>Node5&#45;&gt;Node6</title>
<path fill="none" stroke="midnightblue" d="M762.292,-106.851C781.645,-108.959 801.391,-111.109 817.697,-112.884"/>
<polygon fill="midnightblue" stroke="midnightblue" points="762.548,-103.359 752.228,-105.755 761.79,-110.317 762.548,-103.359"/>
</g>
<!-- Node8 -->
<g id="node8" class="node"><title>Node8</title>
<g id="a_node8"><a xlink:href="classCompass.html#aff3220e1a557a75480e4c2dbbde72973" target="_top" xlink:title="Compass::get_offsets_max">
<polygon fill="white" stroke="black" points="788,-69.5 788,-88.5 925,-88.5 925,-69.5 788,-69.5"/>
<text text-anchor="middle" x="856.5" y="-76.5" font-family="Helvetica,sans-Serif" font-size="10.00">Compass::get_offsets_max</text>
</a>
</g>
</g>
<!-- Node5&#45;&gt;Node8 -->
<g id="edge7" class="edge"><title>Node5&#45;&gt;Node8</title>
<path fill="none" stroke="midnightblue" d="M762.243,-89.1541C770.822,-88.22 779.478,-87.2774 787.879,-86.3627"/>
<polygon fill="midnightblue" stroke="midnightblue" points="761.79,-85.6826 752.228,-90.2446 762.548,-92.6415 761.79,-85.6826"/>
</g>
<!-- Node7 -->
<g id="node7" class="node"><title>Node7</title>
<g id="a_node7"><a xlink:href="AHRS__Test_8cpp.html#a7dfd9b79bc5a37d7df40207afbc5431f" target="_top" xlink:title="setup">
<polygon fill="white" stroke="black" points="1010,-107.5 1010,-126.5 1051,-126.5 1051,-107.5 1010,-107.5"/>
<text text-anchor="middle" x="1030.5" y="-114.5" font-family="Helvetica,sans-Serif" font-size="10.00">setup</text>
</a>
</g>
</g>
<!-- Node6&#45;&gt;Node7 -->
<g id="edge6" class="edge"><title>Node6&#45;&gt;Node7</title>
<path fill="none" stroke="midnightblue" d="M905.595,-117C940.102,-117 984.786,-117 1009.98,-117"/>
<polygon fill="midnightblue" stroke="midnightblue" points="905.246,-113.5 895.246,-117 905.246,-120.5 905.246,-113.5"/>
</g>
<!-- Node9 -->
<g id="node9" class="node"><title>Node9</title>
<g id="a_node9"><a xlink:href="classAP__Arming.html#a24332b3f5e2e233914bce12e69ae9564" target="_top" xlink:title="AP_Arming::compass\l_checks">
<polygon fill="white" stroke="black" points="1840,-29 1840,-59 1952,-59 1952,-29 1840,-29"/>
<text text-anchor="start" x="1848" y="-47" font-family="Helvetica,sans-Serif" font-size="10.00">AP_Arming::compass</text>
<text text-anchor="middle" x="1896" y="-36" font-family="Helvetica,sans-Serif" font-size="10.00">_checks</text>
</a>
</g>
</g>
<!-- Node8&#45;&gt;Node9 -->
<g id="edge8" class="edge"><title>Node8&#45;&gt;Node9</title>
<path fill="none" stroke="midnightblue" d="M892.534,-66.0674C956.465,-43.6625 1096.74,-0 1219,-0 1219,-0 1219,-0 1549,-0 1655.11,-0 1682.13,-2.76811 1787,-19 1804.31,-21.679 1822.96,-25.6123 1839.81,-29.5698"/>
<polygon fill="midnightblue" stroke="midnightblue" points="891.197,-62.8279 882.944,-69.4708 893.538,-69.4248 891.197,-62.8279"/>
</g>
<!-- Node12 -->
<g id="node12" class="node"><title>Node12</title>
<g id="a_node12"><a xlink:href="classCompass.html#a702eb9d33ff1f5ada05b67f9b2219f9a" target="_top" xlink:title="Compass::_start_calibration">
<polygon fill="white" stroke="black" points="961,-69.5 961,-88.5 1100,-88.5 1100,-69.5 961,-69.5"/>
<text text-anchor="middle" x="1030.5" y="-76.5" font-family="Helvetica,sans-Serif" font-size="10.00">Compass::_start_calibration</text>
</a>
</g>
</g>
<!-- Node8&#45;&gt;Node12 -->
<g id="edge11" class="edge"><title>Node8&#45;&gt;Node12</title>
<path fill="none" stroke="midnightblue" d="M935.67,-72.2749C944.084,-72.2212 952.598,-72.2543 960.888,-72.3742"/>
<polygon fill="midnightblue" stroke="midnightblue" points="935.441,-68.7771 925.479,-72.3835 935.516,-75.7767 935.441,-68.7771"/>
</g>
<!-- Node10 -->
<g id="node10" class="node"><title>Node10</title>
<g id="a_node10"><a xlink:href="classAP__Arming.html#a73c03baf7f22b7124a2ac9e9286a850a" target="_top" xlink:title="AP_Arming::pre_arm\l_checks">
<polygon fill="white" stroke="black" points="2020,-29 2020,-59 2127,-59 2127,-29 2020,-29"/>
<text text-anchor="start" x="2028" y="-47" font-family="Helvetica,sans-Serif" font-size="10.00">AP_Arming::pre_arm</text>
<text text-anchor="middle" x="2073.5" y="-36" font-family="Helvetica,sans-Serif" font-size="10.00">_checks</text>
</a>
</g>
</g>
<!-- Node9&#45;&gt;Node10 -->
<g id="edge9" class="edge"><title>Node9&#45;&gt;Node10</title>
<path fill="none" stroke="midnightblue" d="M1962.12,-44C1981.11,-44 2001.62,-44 2019.75,-44"/>
<polygon fill="midnightblue" stroke="midnightblue" points="1962.05,-40.5001 1952.05,-44 1962.05,-47.5001 1962.05,-40.5001"/>
</g>
<!-- Node11 -->
<g id="node11" class="node"><title>Node11</title>
<g id="a_node11"><a xlink:href="classAP__Arming.html#a47b859d9929a736df2f08a1cad03efcb" target="_top" xlink:title="AP_Arming::arm">
<polygon fill="white" stroke="black" points="2216,-34.5 2216,-53.5 2305,-53.5 2305,-34.5 2216,-34.5"/>
<text text-anchor="middle" x="2260.5" y="-41.5" font-family="Helvetica,sans-Serif" font-size="10.00">AP_Arming::arm</text>
</a>
</g>
</g>
<!-- Node10&#45;&gt;Node11 -->
<g id="edge10" class="edge"><title>Node10&#45;&gt;Node11</title>
<path fill="none" stroke="midnightblue" d="M2137.12,-44C2163.02,-44 2192.42,-44 2215.91,-44"/>
<polygon fill="midnightblue" stroke="midnightblue" points="2137.02,-40.5001 2127.02,-44 2137.02,-47.5001 2137.02,-40.5001"/>
</g>
<!-- Node12&#45;&gt;Node8 -->
<g id="edge12" class="edge"><title>Node12&#45;&gt;Node8</title>
<path fill="none" stroke="midnightblue" d="M950.687,-85.729C942.268,-85.7783 933.757,-85.7408 925.479,-85.6165"/>
<polygon fill="midnightblue" stroke="midnightblue" points="950.924,-89.2269 960.888,-85.6258 950.853,-82.2272 950.924,-89.2269"/>
</g>
<!-- Node13 -->
<g id="node13" class="node"><title>Node13</title>
<g id="a_node13"><a xlink:href="classCompass.html#afdd4d0c78f52388a68dfc07deeec11a6" target="_top" xlink:title="Compass::_start_calibration_mask">
<polygon fill="white" stroke="black" points="1136,-32.5 1136,-51.5 1304,-51.5 1304,-32.5 1136,-32.5"/>
<text text-anchor="middle" x="1220" y="-39.5" font-family="Helvetica,sans-Serif" font-size="10.00">Compass::_start_calibration_mask</text>
</a>
</g>
</g>
<!-- Node12&#45;&gt;Node13 -->
<g id="edge13" class="edge"><title>Node12&#45;&gt;Node13</title>
<path fill="none" stroke="midnightblue" d="M1089.86,-67.4839C1115.77,-62.3706 1145.91,-56.4231 1170.55,-51.5604"/>
<polygon fill="midnightblue" stroke="midnightblue" points="1088.92,-64.1017 1079.79,-69.4716 1090.27,-70.9693 1088.92,-64.1017"/>
</g>
<!-- Node16 -->
<g id="node16" class="node"><title>Node16</title>
<g id="a_node16"><a xlink:href="classCompass.html#a785cd621a6ecd49077881299ff1edba7" target="_top" xlink:title="Compass::start_calibration_all">
<polygon fill="white" stroke="black" points="1145.5,-70.5 1145.5,-89.5 1294.5,-89.5 1294.5,-70.5 1145.5,-70.5"/>
<text text-anchor="middle" x="1220" y="-77.5" font-family="Helvetica,sans-Serif" font-size="10.00">Compass::start_calibration_all</text>
</a>
</g>
</g>
<!-- Node12&#45;&gt;Node16 -->
<g id="edge18" class="edge"><title>Node12&#45;&gt;Node16</title>
<path fill="none" stroke="midnightblue" d="M1110.32,-79.4203C1121.88,-79.482 1133.75,-79.5453 1145.21,-79.6064"/>
<polygon fill="midnightblue" stroke="midnightblue" points="1110.27,-75.9202 1100.25,-79.3667 1110.23,-82.9201 1110.27,-75.9202"/>
</g>
<!-- Node13&#45;&gt;Node8 -->
<g id="edge14" class="edge"><title>Node13&#45;&gt;Node8</title>
<path fill="none" stroke="midnightblue" d="M1126,-45.9701C1076.81,-48.7047 1015.49,-53.1195 961,-60 941.969,-62.4031 921.137,-66.0312 903.184,-69.4752"/>
<polygon fill="midnightblue" stroke="midnightblue" points="1126.19,-49.465 1135.98,-45.4286 1125.81,-42.4753 1126.19,-49.465"/>
</g>
<!-- Node14 -->
<g id="node14" class="node"><title>Node14</title>
<g id="a_node14"><a xlink:href="classCompass.html#a5b92dfeb8382c411fc5cdfe2c35569b0" target="_top" xlink:title="Compass::handle_mag\l_cal_command">
<polygon fill="white" stroke="black" points="1340,-29 1340,-59 1457,-59 1457,-29 1340,-29"/>
<text text-anchor="start" x="1348" y="-47" font-family="Helvetica,sans-Serif" font-size="10.00">Compass::handle_mag</text>
<text text-anchor="middle" x="1398.5" y="-36" font-family="Helvetica,sans-Serif" font-size="10.00">_cal_command</text>
</a>
</g>
</g>
<!-- Node13&#45;&gt;Node14 -->
<g id="edge15" class="edge"><title>Node13&#45;&gt;Node14</title>
<path fill="none" stroke="midnightblue" d="M1314.28,-43.057C1322.95,-43.1553 1331.56,-43.2529 1339.77,-43.3459"/>
<polygon fill="midnightblue" stroke="midnightblue" points="1314.12,-39.5551 1304.08,-42.9414 1314.04,-46.5546 1314.12,-39.5551"/>
</g>
<!-- Node15 -->
<g id="node15" class="node"><title>Node15</title>
<g id="a_node15"><a xlink:href="classCompass.html#a71d8ad1cb96263dfe4c0f712f14fac97" target="_top" xlink:title="Compass::compass_cal\l_requires_reboot">
<polygon fill="white" stroke="black" points="1652,-29 1652,-59 1774,-59 1774,-29 1652,-29"/>
<text text-anchor="start" x="1660" y="-47" font-family="Helvetica,sans-Serif" font-size="10.00">Compass::compass_cal</text>
<text text-anchor="middle" x="1713" y="-36" font-family="Helvetica,sans-Serif" font-size="10.00">_requires_reboot</text>
</a>
</g>
</g>
<!-- Node14&#45;&gt;Node15 -->
<g id="edge16" class="edge"><title>Node14&#45;&gt;Node15</title>
<path fill="none" stroke="midnightblue" d="M1467.19,-44C1522.23,-44 1599.14,-44 1651.99,-44"/>
<polygon fill="midnightblue" stroke="midnightblue" points="1467.18,-40.5001 1457.18,-44 1467.18,-47.5001 1467.18,-40.5001"/>
</g>
<!-- Node15&#45;&gt;Node9 -->
<g id="edge17" class="edge"><title>Node15&#45;&gt;Node9</title>
<path fill="none" stroke="midnightblue" d="M1784.12,-44C1802.56,-44 1822.19,-44 1839.73,-44"/>
<polygon fill="midnightblue" stroke="midnightblue" points="1784.02,-40.5001 1774.02,-44 1784.02,-47.5001 1784.02,-40.5001"/>
</g>
<!-- Node16&#45;&gt;Node14 -->
<g id="edge62" class="edge"><title>Node16&#45;&gt;Node14</title>
<path fill="none" stroke="midnightblue" d="M1277.66,-68.4439C1297.49,-64.3977 1319.79,-59.851 1339.71,-55.7862"/>
<polygon fill="midnightblue" stroke="midnightblue" points="1276.93,-65.0192 1267.84,-70.4472 1278.33,-71.878 1276.93,-65.0192"/>
</g>
<!-- Node17 -->
<g id="node17" class="node"><title>Node17</title>
<g id="a_node17"><a xlink:href="classCompass.html#a22ce936207eeda5d3fa55237271cef3e" target="_top" xlink:title="Compass::get_field">
<polygon fill="white" stroke="black" points="1348,-78.5 1348,-97.5 1449,-97.5 1449,-78.5 1348,-78.5"/>
<text text-anchor="middle" x="1398.5" y="-85.5" font-family="Helvetica,sans-Serif" font-size="10.00">Compass::get_field</text>
</a>
</g>
</g>
<!-- Node16&#45;&gt;Node17 -->
<g id="edge19" class="edge"><title>Node16&#45;&gt;Node17</title>
<path fill="none" stroke="midnightblue" d="M1304.75,-83.7961C1319.52,-84.4655 1334.46,-85.1425 1347.9,-85.7519"/>
<polygon fill="midnightblue" stroke="midnightblue" points="1304.72,-80.2913 1294.57,-83.3348 1304.41,-87.2841 1304.72,-80.2913"/>
</g>
<!-- Node17&#45;&gt;Node17 -->
<g id="edge61" class="edge"><title>Node17&#45;&gt;Node17</title>
<path fill="none" stroke="midnightblue" d="M1370.87,-106.654C1372.03,-111.937 1381.24,-116 1398.5,-116 1424.8,-116 1432.41,-106.565 1421.31,-97.7571"/>
<polygon fill="midnightblue" stroke="midnightblue" points="1374.01,-108.218 1375.69,-97.7571 1367.85,-104.886 1374.01,-108.218"/>
</g>
<!-- Node18 -->
<g id="node18" class="node"><title>Node18</title>
<g id="a_node18"><a xlink:href="classCompass.html#a518ff958770a39bc265f93d22e071212" target="_top" xlink:title="Compass::calculate\l_heading">
<polygon fill="white" stroke="black" points="1496,-73 1496,-103 1600,-103 1600,-73 1496,-73"/>
<text text-anchor="start" x="1504" y="-91" font-family="Helvetica,sans-Serif" font-size="10.00">Compass::calculate</text>
<text text-anchor="middle" x="1548" y="-80" font-family="Helvetica,sans-Serif" font-size="10.00">_heading</text>
</a>
</g>
</g>
<!-- Node17&#45;&gt;Node18 -->
<g id="edge20" class="edge"><title>Node17&#45;&gt;Node18</title>
<path fill="none" stroke="midnightblue" d="M1459.1,-88C1471.28,-88 1483.99,-88 1495.84,-88"/>
<polygon fill="midnightblue" stroke="midnightblue" points="1459.03,-84.5001 1449.03,-88 1459.03,-91.5001 1459.03,-84.5001"/>
</g>
<!-- Node19 -->
<g id="node19" class="node"><title>Node19</title>
<g id="a_node19"><a xlink:href="classCompass.html#a59f46d32a935d4faecc4a28d262c4388" target="_top" xlink:title="Compass::consistent">
<polygon fill="white" stroke="black" points="1493,-122.5 1493,-141.5 1603,-141.5 1603,-122.5 1493,-122.5"/>
<text text-anchor="middle" x="1548" y="-129.5" font-family="Helvetica,sans-Serif" font-size="10.00">Compass::consistent</text>
</a>
</g>
</g>
<!-- Node17&#45;&gt;Node19 -->
<g id="edge21" class="edge"><title>Node17&#45;&gt;Node19</title>
<path fill="none" stroke="midnightblue" d="M1441.18,-100.435C1464.62,-107.426 1493.42,-116.018 1515.06,-122.471"/>
<polygon fill="midnightblue" stroke="midnightblue" points="1442.09,-97.052 1431.51,-97.5473 1440.09,-103.76 1442.09,-97.052"/>
</g>
<!-- Node19&#45;&gt;Node9 -->
<g id="edge22" class="edge"><title>Node19&#45;&gt;Node9</title>
<path fill="none" stroke="midnightblue" d="M1596.11,-120.017C1659.64,-103.86 1772.55,-75.1446 1839.92,-58.0087"/>
<polygon fill="midnightblue" stroke="midnightblue" points="1595.19,-116.642 1586.36,-122.499 1596.91,-123.426 1595.19,-116.642"/>
</g>
<!-- Node19&#45;&gt;Node15 -->
<g id="edge23" class="edge"><title>Node19&#45;&gt;Node15</title>
<path fill="none" stroke="midnightblue" d="M1590.8,-118.542C1595.04,-116.585 1599.19,-114.406 1603,-112 1621.87,-100.09 1620.56,-89.5622 1639,-77 1649.12,-70.11 1660.9,-64.0574 1672.02,-59.0807"/>
<polygon fill="midnightblue" stroke="midnightblue" points="1589.31,-115.372 1581.45,-122.475 1592.03,-121.824 1589.31,-115.372"/>
</g>
<!-- Node20 -->
<g id="node20" class="node"><title>Node20</title>
<g id="a_node20"><a xlink:href="classNavEKF2__core.html#abf6ac301297f486d9690d97c7a19dad8" target="_top" xlink:title="NavEKF2_core::readMagData">
<polygon fill="white" stroke="black" points="1639,-235.5 1639,-254.5 1787,-254.5 1787,-235.5 1639,-235.5"/>
<text text-anchor="middle" x="1713" y="-242.5" font-family="Helvetica,sans-Serif" font-size="10.00">NavEKF2_core::readMagData</text>
</a>
</g>
</g>
<!-- Node19&#45;&gt;Node20 -->
<g id="edge24" class="edge"><title>Node19&#45;&gt;Node20</title>
<path fill="none" stroke="midnightblue" d="M1571.29,-147.456C1605.49,-171.163 1669.9,-215.813 1698.14,-235.39"/>
<polygon fill="midnightblue" stroke="midnightblue" points="1573.11,-144.455 1562.9,-141.634 1569.12,-150.208 1573.11,-144.455"/>
</g>
<!-- Node37 -->
<g id="node37" class="node"><title>Node37</title>
<g id="a_node37"><a xlink:href="classNavEKF3__core.html#a39fe9f76e9c368cba51e9af9b2367513" target="_top" xlink:title="NavEKF3_core::readMagData">
<polygon fill="white" stroke="black" points="1639,-122.5 1639,-141.5 1787,-141.5 1787,-122.5 1639,-122.5"/>
<text text-anchor="middle" x="1713" y="-129.5" font-family="Helvetica,sans-Serif" font-size="10.00">NavEKF3_core::readMagData</text>
</a>
</g>
</g>
<!-- Node19&#45;&gt;Node37 -->
<g id="edge44" class="edge"><title>Node19&#45;&gt;Node37</title>
<path fill="none" stroke="midnightblue" d="M1613.33,-132C1621.7,-132 1630.32,-132 1638.81,-132"/>
<polygon fill="midnightblue" stroke="midnightblue" points="1613.28,-128.5 1603.28,-132 1613.28,-135.5 1613.28,-128.5"/>
</g>
<!-- Node21 -->
<g id="node21" class="node"><title>Node21</title>
<g id="a_node21"><a xlink:href="classNavEKF2__core.html#a4a06ae47c3edebdecd2b179a0567f00b" target="_top" xlink:title="NavEKF2_core::Initialise\lFilterBootstrap">
<polygon fill="white" stroke="black" points="2011,-205 2011,-235 2136,-235 2136,-205 2011,-205"/>
<text text-anchor="start" x="2019" y="-223" font-family="Helvetica,sans-Serif" font-size="10.00">NavEKF2_core::Initialise</text>
<text text-anchor="middle" x="2073.5" y="-212" font-family="Helvetica,sans-Serif" font-size="10.00">FilterBootstrap</text>
</a>
</g>
</g>
<!-- Node20&#45;&gt;Node21 -->
<g id="edge25" class="edge"><title>Node20&#45;&gt;Node21</title>
<path fill="none" stroke="midnightblue" d="M1797.67,-239.165C1862.89,-234.617 1951.98,-228.405 2010.82,-224.301"/>
<polygon fill="midnightblue" stroke="midnightblue" points="1797.15,-235.693 1787.41,-239.881 1797.63,-242.676 1797.15,-235.693"/>
</g>
<!-- Node32 -->
<g id="node32" class="node"><title>Node32</title>
<g id="a_node32"><a xlink:href="classNavEKF2__core.html#af6d172634e15ba1643bf4c53c390f5e2" target="_top" xlink:title="NavEKF2_core::calcQuatAnd\lFieldStates">
<polygon fill="white" stroke="black" points="1823,-252 1823,-282 1969,-282 1969,-252 1823,-252"/>
<text text-anchor="start" x="1831" y="-270" font-family="Helvetica,sans-Serif" font-size="10.00">NavEKF2_core::calcQuatAnd</text>
<text text-anchor="middle" x="1896" y="-259" font-family="Helvetica,sans-Serif" font-size="10.00">FieldStates</text>
</a>
</g>
</g>
<!-- Node20&#45;&gt;Node32 -->
<g id="edge36" class="edge"><title>Node20&#45;&gt;Node32</title>
<path fill="none" stroke="midnightblue" d="M1797.11,-255.102C1805.69,-256.145 1814.36,-257.198 1822.81,-258.225"/>
<polygon fill="midnightblue" stroke="midnightblue" points="1797.45,-251.617 1787.1,-253.885 1796.6,-258.566 1797.45,-251.617"/>
</g>
<!-- Node34 -->
<g id="node34" class="node"><title>Node34</title>
<g id="a_node34"><a xlink:href="classNavEKF2__core.html#aa0f6cd840e93e0233f056c88ce45ef85" target="_top" xlink:title="NavEKF2_core::SelectMagFusion">
<polygon fill="white" stroke="black" points="2178,-272.5 2178,-291.5 2343,-291.5 2343,-272.5 2178,-272.5"/>
<text text-anchor="middle" x="2260.5" y="-279.5" font-family="Helvetica,sans-Serif" font-size="10.00">NavEKF2_core::SelectMagFusion</text>
</a>
</g>
</g>
<!-- Node20&#45;&gt;Node34 -->
<g id="edge43" class="edge"><title>Node20&#45;&gt;Node34</title>
<path fill="none" stroke="midnightblue" d="M1740.19,-259.476C1761.71,-270.512 1793.35,-284.831 1823,-291 1955.65,-318.603 2115.87,-303.271 2200.48,-291.504"/>
<polygon fill="midnightblue" stroke="midnightblue" points="1741.54,-256.233 1731.06,-254.678 1738.29,-262.429 1741.54,-256.233"/>
</g>
<!-- Node22 -->
<g id="node22" class="node"><title>Node22</title>
<g id="a_node22"><a xlink:href="classNavEKF2.html#a9c447b8d84abf2dfc845ddbbbad46a2b" target="_top" xlink:title="NavEKF2::InitialiseFilter">
<polygon fill="white" stroke="black" points="2558,-210.5 2558,-229.5 2681,-229.5 2681,-210.5 2558,-210.5"/>
<text text-anchor="middle" x="2619.5" y="-217.5" font-family="Helvetica,sans-Serif" font-size="10.00">NavEKF2::InitialiseFilter</text>
</a>
</g>
</g>
<!-- Node21&#45;&gt;Node22 -->
<g id="edge26" class="edge"><title>Node21&#45;&gt;Node22</title>
<path fill="none" stroke="midnightblue" d="M2146.26,-220C2254.29,-220 2456.78,-220 2557.86,-220"/>
<polygon fill="midnightblue" stroke="midnightblue" points="2146.11,-216.5 2136.11,-220 2146.11,-223.5 2146.11,-216.5"/>
</g>
<!-- Node23 -->
<g id="node23" class="node"><title>Node23</title>
<g id="a_node23"><a xlink:href="classAP__AHRS__NavEKF.html#a0187c6d3d4348b002a204c05d3e94b07" target="_top" xlink:title="AP_AHRS_NavEKF::update_EKF2">
<polygon fill="white" stroke="black" points="2717,-286.5 2717,-305.5 2889,-305.5 2889,-286.5 2717,-286.5"/>
<text text-anchor="middle" x="2803" y="-293.5" font-family="Helvetica,sans-Serif" font-size="10.00">AP_AHRS_NavEKF::update_EKF2</text>
</a>
</g>
</g>
<!-- Node22&#45;&gt;Node23 -->
<g id="edge27" class="edge"><title>Node22&#45;&gt;Node23</title>
<path fill="none" stroke="midnightblue" d="M2642,-235.382C2660.92,-248.243 2689.63,-266.173 2717,-277 2726.56,-280.783 2737.04,-283.896 2747.28,-286.43"/>
<polygon fill="midnightblue" stroke="midnightblue" points="2643.77,-232.346 2633.55,-229.529 2639.78,-238.1 2643.77,-232.346"/>
</g>
<!-- Node26 -->
<g id="node26" class="node"><title>Node26</title>
<g id="a_node26"><a xlink:href="classAP__AHRS__NavEKF.html#a532ff0df024a4537e5a108c42ba405a7" target="_top" xlink:title="AP_AHRS_NavEKF::reset">
<polygon fill="white" stroke="black" points="2736,-210.5 2736,-229.5 2870,-229.5 2870,-210.5 2736,-210.5"/>
<text text-anchor="middle" x="2803" y="-217.5" font-family="Helvetica,sans-Serif" font-size="10.00">AP_AHRS_NavEKF::reset</text>
</a>
</g>
</g>
<!-- Node22&#45;&gt;Node26 -->
<g id="edge30" class="edge"><title>Node22&#45;&gt;Node26</title>
<path fill="none" stroke="midnightblue" d="M2691.2,-220C2705.86,-220 2721.26,-220 2735.75,-220"/>
<polygon fill="midnightblue" stroke="midnightblue" points="2691.19,-216.5 2681.19,-220 2691.19,-223.5 2691.19,-216.5"/>
</g>
<!-- Node27 -->
<g id="node27" class="node"><title>Node27</title>
<g id="a_node27"><a xlink:href="classAP__AHRS__NavEKF.html#a9bd3c7f1793a48cd0d736b19fbfaf19a" target="_top" xlink:title="AP_AHRS_NavEKF::reset\l_attitude">
<polygon fill="white" stroke="black" points="2736,-161 2736,-191 2870,-191 2870,-161 2736,-161"/>
<text text-anchor="start" x="2744" y="-179" font-family="Helvetica,sans-Serif" font-size="10.00">AP_AHRS_NavEKF::reset</text>
<text text-anchor="middle" x="2803" y="-168" font-family="Helvetica,sans-Serif" font-size="10.00">_attitude</text>
</a>
</g>
</g>
<!-- Node22&#45;&gt;Node27 -->
<g id="edge31" class="edge"><title>Node22&#45;&gt;Node27</title>
<path fill="none" stroke="midnightblue" d="M2669.81,-208.045C2691.41,-202.811 2716.98,-196.611 2739.86,-191.065"/>
<polygon fill="midnightblue" stroke="midnightblue" points="2668.78,-204.695 2659.88,-210.453 2670.43,-211.498 2668.78,-204.695"/>
</g>
<!-- Node28 -->
<g id="node28" class="node"><title>Node28</title>
<g id="a_node28"><a xlink:href="classNavEKF2.html#ab18af2714c15fcf190493c01e2a28c73" target="_top" xlink:title="NavEKF2::activeCores">
<polygon fill="white" stroke="black" points="2744,-248.5 2744,-267.5 2862,-267.5 2862,-248.5 2744,-248.5"/>
<text text-anchor="middle" x="2803" y="-255.5" font-family="Helvetica,sans-Serif" font-size="10.00">NavEKF2::activeCores</text>
</a>
</g>
</g>
<!-- Node22&#45;&gt;Node28 -->
<g id="edge32" class="edge"><title>Node22&#45;&gt;Node28</title>
<path fill="none" stroke="midnightblue" d="M2676.29,-231.681C2702.03,-237.07 2732.2,-243.386 2756.53,-248.48"/>
<polygon fill="midnightblue" stroke="midnightblue" points="2676.81,-228.213 2666.3,-229.589 2675.37,-235.064 2676.81,-228.213"/>
</g>
<!-- Node24 -->
<g id="node24" class="node"><title>Node24</title>
<g id="a_node24"><a xlink:href="classAP__AHRS__NavEKF.html#ac8111979c5dc37a55b2c50818534ea52" target="_top" xlink:title="AP_AHRS_NavEKF::update">
<polygon fill="white" stroke="black" points="2926,-286.5 2926,-305.5 3068,-305.5 3068,-286.5 2926,-286.5"/>
<text text-anchor="middle" x="2997" y="-293.5" font-family="Helvetica,sans-Serif" font-size="10.00">AP_AHRS_NavEKF::update</text>
</a>
</g>
</g>
<!-- Node23&#45;&gt;Node24 -->
<g id="edge28" class="edge"><title>Node23&#45;&gt;Node24</title>
<path fill="none" stroke="midnightblue" d="M2899.21,-296C2908.23,-296 2917.25,-296 2925.97,-296"/>
<polygon fill="midnightblue" stroke="midnightblue" points="2899.05,-292.5 2889.05,-296 2899.05,-299.5 2899.05,-292.5"/>
</g>
<!-- Node25 -->
<g id="node25" class="node"><title>Node25</title>
<g id="a_node25"><a xlink:href="AHRS__Test_8cpp.html#a0b33edabd7f1c4e4a0bf32c67269be2f" target="_top" xlink:title="loop">
<polygon fill="white" stroke="black" points="3143.5,-286.5 3143.5,-305.5 3178.5,-305.5 3178.5,-286.5 3143.5,-286.5"/>
<text text-anchor="middle" x="3161" y="-293.5" font-family="Helvetica,sans-Serif" font-size="10.00">loop</text>
</a>
</g>
</g>
<!-- Node24&#45;&gt;Node25 -->
<g id="edge29" class="edge"><title>Node24&#45;&gt;Node25</title>
<path fill="none" stroke="midnightblue" d="M3078.29,-296C3102.99,-296 3127.78,-296 3143.47,-296"/>
<polygon fill="midnightblue" stroke="midnightblue" points="3078.11,-292.5 3068.11,-296 3078.11,-299.5 3078.11,-292.5"/>
</g>
<!-- Node29 -->
<g id="node29" class="node"><title>Node29</title>
<g id="a_node29"><a xlink:href="classDataFlash__Class.html#a46e58faaa53c44516433f6bb7bde4163" target="_top" xlink:title="DataFlash_Class::Log\l_Write_POS">
<polygon fill="white" stroke="black" points="2940,-139 2940,-169 3054,-169 3054,-139 2940,-139"/>
<text text-anchor="start" x="2948" y="-157" font-family="Helvetica,sans-Serif" font-size="10.00">DataFlash_Class::Log</text>
<text text-anchor="middle" x="2997" y="-146" font-family="Helvetica,sans-Serif" font-size="10.00">_Write_POS</text>
</a>
</g>
</g>
<!-- Node28&#45;&gt;Node29 -->
<g id="edge33" class="edge"><title>Node28&#45;&gt;Node29</title>
<path fill="none" stroke="midnightblue" d="M2872.18,-245.679C2877.98,-243.759 2883.67,-241.547 2889,-239 2926.25,-221.208 2962.29,-188.334 2981.56,-169.1"/>
<polygon fill="midnightblue" stroke="midnightblue" points="2870.9,-242.408 2862.33,-248.642 2872.92,-249.111 2870.9,-242.408"/>
</g>
<!-- Node31 -->
<g id="node31" class="node"><title>Node31</title>
<g id="a_node31"><a xlink:href="classGCS__MAVLINK.html#a558ba3447048b78cb9dde460053e2741" target="_top" xlink:title="GCS_MAVLINK::send_ahrs2">
<polygon fill="white" stroke="black" points="2925,-248.5 2925,-267.5 3069,-267.5 3069,-248.5 2925,-248.5"/>
<text text-anchor="middle" x="2997" y="-255.5" font-family="Helvetica,sans-Serif" font-size="10.00">GCS_MAVLINK::send_ahrs2</text>
</a>
</g>
</g>
<!-- Node28&#45;&gt;Node31 -->
<g id="edge35" class="edge"><title>Node28&#45;&gt;Node31</title>
<path fill="none" stroke="midnightblue" d="M2872.52,-258C2889.5,-258 2907.74,-258 2924.85,-258"/>
<polygon fill="midnightblue" stroke="midnightblue" points="2872.13,-254.5 2862.13,-258 2872.13,-261.5 2872.13,-254.5"/>
</g>
<!-- Node30 -->
<g id="node30" class="node"><title>Node30</title>
<g id="a_node30"><a xlink:href="classDataFlash__Class.html#a7868f0e3dcef65ea5b5fcae618f4c5d4" target="_top" xlink:title="DataFlash_Class::get\l_structures">
<polygon fill="white" stroke="black" points="3105,-139 3105,-169 3217,-169 3217,-139 3105,-139"/>
<text text-anchor="start" x="3113" y="-157" font-family="Helvetica,sans-Serif" font-size="10.00">DataFlash_Class::get</text>
<text text-anchor="middle" x="3161" y="-146" font-family="Helvetica,sans-Serif" font-size="10.00">_structures</text>
</a>
</g>
</g>
<!-- Node29&#45;&gt;Node30 -->
<g id="edge34" class="edge"><title>Node29&#45;&gt;Node30</title>
<path fill="none" stroke="midnightblue" d="M3064.39,-154C3077.89,-154 3091.94,-154 3104.99,-154"/>
<polygon fill="midnightblue" stroke="midnightblue" points="3064.21,-150.5 3054.21,-154 3064.21,-157.5 3064.21,-150.5"/>
</g>
<!-- Node33 -->
<g id="node33" class="node"><title>Node33</title>
<g id="a_node33"><a xlink:href="classNavEKF2__core.html#a3989e564224adfa26b0e32a5a03aca10" target="_top" xlink:title="NavEKF2_core::controlMag\lYawReset">
<polygon fill="white" stroke="black" points="2005,-254 2005,-284 2142,-284 2142,-254 2005,-254"/>
<text text-anchor="start" x="2013" y="-272" font-family="Helvetica,sans-Serif" font-size="10.00">NavEKF2_core::controlMag</text>
<text text-anchor="middle" x="2073.5" y="-261" font-family="Helvetica,sans-Serif" font-size="10.00">YawReset</text>
</a>
</g>
</g>
<!-- Node32&#45;&gt;Node33 -->
<g id="edge37" class="edge"><title>Node32&#45;&gt;Node33</title>
<path fill="none" stroke="midnightblue" d="M1979.19,-267.937C1987.79,-268.035 1996.46,-268.133 2004.87,-268.229"/>
<polygon fill="midnightblue" stroke="midnightblue" points="1979.18,-264.436 1969.14,-267.822 1979.1,-271.436 1979.18,-264.436"/>
</g>
<!-- Node33&#45;&gt;Node34 -->
<g id="edge38" class="edge"><title>Node33&#45;&gt;Node34</title>
<path fill="none" stroke="midnightblue" d="M2152.31,-274.468C2160.79,-275.064 2169.44,-275.671 2177.96,-276.27"/>
<polygon fill="midnightblue" stroke="midnightblue" points="2152.3,-270.958 2142.07,-273.748 2151.8,-277.941 2152.3,-270.958"/>
</g>
<!-- Node35 -->
<g id="node35" class="node"><title>Node35</title>
<g id="a_node35"><a xlink:href="classNavEKF2__core.html#a5f5c815cbd5ebba30d731f89f87726c3" target="_top" xlink:title="NavEKF2_core::UpdateFilter">
<polygon fill="white" stroke="black" points="2379,-272.5 2379,-291.5 2522,-291.5 2522,-272.5 2379,-272.5"/>
<text text-anchor="middle" x="2450.5" y="-279.5" font-family="Helvetica,sans-Serif" font-size="10.00">NavEKF2_core::UpdateFilter</text>
</a>
</g>
</g>
<!-- Node34&#45;&gt;Node35 -->
<g id="edge39" class="edge"><title>Node34&#45;&gt;Node35</title>
<path fill="none" stroke="midnightblue" d="M2353.22,-282C2361.83,-282 2370.47,-282 2378.84,-282"/>
<polygon fill="midnightblue" stroke="midnightblue" points="2353.14,-278.5 2343.14,-282 2353.14,-285.5 2353.14,-278.5"/>
</g>
<!-- Node36 -->
<g id="node36" class="node"><title>Node36</title>
<g id="a_node36"><a xlink:href="classNavEKF2.html#a72815b1bbd9d7ceb0ff7ae52d14516df" target="_top" xlink:title="NavEKF2::UpdateFilter">
<polygon fill="white" stroke="black" points="2560,-272.5 2560,-291.5 2679,-291.5 2679,-272.5 2560,-272.5"/>
<text text-anchor="middle" x="2619.5" y="-279.5" font-family="Helvetica,sans-Serif" font-size="10.00">NavEKF2::UpdateFilter</text>
</a>
</g>
</g>
<!-- Node35&#45;&gt;Node36 -->
<g id="edge40" class="edge"><title>Node35&#45;&gt;Node36</title>
<path fill="none" stroke="midnightblue" d="M2532.37,-282C2541.67,-282 2551.01,-282 2559.93,-282"/>
<polygon fill="midnightblue" stroke="midnightblue" points="2532.32,-278.5 2522.32,-282 2532.32,-285.5 2532.32,-278.5"/>
</g>
<!-- Node36&#45;&gt;Node23 -->
<g id="edge41" class="edge"><title>Node36&#45;&gt;Node23</title>
<path fill="none" stroke="midnightblue" d="M2689.2,-287.3C2698.22,-287.995 2707.55,-288.714 2716.79,-289.428"/>
<polygon fill="midnightblue" stroke="midnightblue" points="2689.42,-283.806 2679.18,-286.526 2688.88,-290.785 2689.42,-283.806"/>
</g>
<!-- Node36&#45;&gt;Node28 -->
<g id="edge42" class="edge"><title>Node36&#45;&gt;Node28</title>
<path fill="none" stroke="midnightblue" d="M2689.31,-272.902C2707.28,-270.525 2726.47,-267.987 2743.84,-265.691"/>
<polygon fill="midnightblue" stroke="midnightblue" points="2688.63,-269.46 2679.18,-274.241 2689.55,-276.4 2688.63,-269.46"/>
</g>
<!-- Node38 -->
<g id="node38" class="node"><title>Node38</title>
<g id="a_node38"><a xlink:href="classNavEKF3__core.html#aae18ada44b1b7be0d45af03391ef961a" target="_top" xlink:title="NavEKF3_core::Initialise\lFilterBootstrap">
<polygon fill="white" stroke="black" points="2388,-161 2388,-191 2513,-191 2513,-161 2388,-161"/>
<text text-anchor="start" x="2396" y="-179" font-family="Helvetica,sans-Serif" font-size="10.00">NavEKF3_core::Initialise</text>
<text text-anchor="middle" x="2450.5" y="-168" font-family="Helvetica,sans-Serif" font-size="10.00">FilterBootstrap</text>
</a>
</g>
</g>
<!-- Node37&#45;&gt;Node38 -->
<g id="edge45" class="edge"><title>Node37&#45;&gt;Node38</title>
<path fill="none" stroke="midnightblue" d="M1759.36,-143.954C1778.81,-148.567 1801.88,-153.361 1823,-156 2028.71,-181.706 2275.19,-180.229 2387.85,-177.791"/>
<polygon fill="midnightblue" stroke="midnightblue" points="1760.09,-140.53 1749.55,-141.571 1758.44,-147.332 1760.09,-140.53"/>
</g>
<!-- Node42 -->
<g id="node42" class="node"><title>Node42</title>
<g id="a_node42"><a xlink:href="classNavEKF3__core.html#a93a3f4411a8dc4df4819e13856d037d5" target="_top" xlink:title="NavEKF3_core::calcQuatAnd\lFieldStates">
<polygon fill="white" stroke="black" points="1823,-117 1823,-147 1969,-147 1969,-117 1823,-117"/>
<text text-anchor="start" x="1831" y="-135" font-family="Helvetica,sans-Serif" font-size="10.00">NavEKF3_core::calcQuatAnd</text>
<text text-anchor="middle" x="1896" y="-124" font-family="Helvetica,sans-Serif" font-size="10.00">FieldStates</text>
</a>
</g>
</g>
<!-- Node37&#45;&gt;Node42 -->
<g id="edge53" class="edge"><title>Node37&#45;&gt;Node42</title>
<path fill="none" stroke="midnightblue" d="M1797.11,-132C1805.69,-132 1814.36,-132 1822.81,-132"/>
<polygon fill="midnightblue" stroke="midnightblue" points="1797.1,-128.5 1787.1,-132 1797.1,-135.5 1797.1,-128.5"/>
</g>
<!-- Node44 -->
<g id="node44" class="node"><title>Node44</title>
<g id="a_node44"><a xlink:href="classNavEKF3__core.html#a800d407d377e6532d563c68cc3c731d8" target="_top" xlink:title="NavEKF3_core::SelectMagFusion">
<polygon fill="white" stroke="black" points="2178,-103.5 2178,-122.5 2343,-122.5 2343,-103.5 2178,-103.5"/>
<text text-anchor="middle" x="2260.5" y="-110.5" font-family="Helvetica,sans-Serif" font-size="10.00">NavEKF3_core::SelectMagFusion</text>
</a>
</g>
</g>
<!-- Node37&#45;&gt;Node44 -->
<g id="edge60" class="edge"><title>Node37&#45;&gt;Node44</title>
<path fill="none" stroke="midnightblue" d="M1756.78,-119.839C1776.72,-114.778 1800.89,-109.504 1823,-107 1946.13,-93.0608 2090.03,-99.3742 2177.94,-105.756"/>
<polygon fill="midnightblue" stroke="midnightblue" points="1755.85,-116.463 1747.06,-122.372 1757.62,-123.237 1755.85,-116.463"/>
</g>
<!-- Node39 -->
<g id="node39" class="node"><title>Node39</title>
<g id="a_node39"><a xlink:href="classNavEKF3.html#a07f064fa513fbb6e7188141904f3b5b5" target="_top" xlink:title="NavEKF3::InitialiseFilter">
<polygon fill="white" stroke="black" points="2558,-166.5 2558,-185.5 2681,-185.5 2681,-166.5 2558,-166.5"/>
<text text-anchor="middle" x="2619.5" y="-173.5" font-family="Helvetica,sans-Serif" font-size="10.00">NavEKF3::InitialiseFilter</text>
</a>
</g>
</g>
<!-- Node38&#45;&gt;Node39 -->
<g id="edge46" class="edge"><title>Node38&#45;&gt;Node39</title>
<path fill="none" stroke="midnightblue" d="M2523.25,-176C2534.79,-176 2546.63,-176 2557.88,-176"/>
<polygon fill="midnightblue" stroke="midnightblue" points="2523.21,-172.5 2513.21,-176 2523.21,-179.5 2523.21,-172.5"/>
</g>
<!-- Node39&#45;&gt;Node26 -->
<g id="edge49" class="edge"><title>Node39&#45;&gt;Node26</title>
<path fill="none" stroke="midnightblue" d="M2668.41,-188.042C2683.9,-191.903 2701.17,-196.17 2717,-200 2731.29,-203.459 2746.96,-207.168 2760.9,-210.441"/>
<polygon fill="midnightblue" stroke="midnightblue" points="2669.06,-184.599 2658.51,-185.572 2667.37,-191.39 2669.06,-184.599"/>
</g>
<!-- Node39&#45;&gt;Node27 -->
<g id="edge50" class="edge"><title>Node39&#45;&gt;Node27</title>
<path fill="none" stroke="midnightblue" d="M2691.2,-176C2705.86,-176 2721.26,-176 2735.75,-176"/>
<polygon fill="midnightblue" stroke="midnightblue" points="2691.19,-172.5 2681.19,-176 2691.19,-179.5 2691.19,-172.5"/>
</g>
<!-- Node40 -->
<g id="node40" class="node"><title>Node40</title>
<g id="a_node40"><a xlink:href="classAP__AHRS__NavEKF.html#a324160404f12959e955554f5aed26459" target="_top" xlink:title="AP_AHRS_NavEKF::update_EKF3">
<polygon fill="white" stroke="black" points="2717,-122.5 2717,-141.5 2889,-141.5 2889,-122.5 2717,-122.5"/>
<text text-anchor="middle" x="2803" y="-129.5" font-family="Helvetica,sans-Serif" font-size="10.00">AP_AHRS_NavEKF::update_EKF3</text>
</a>
</g>
</g>
<!-- Node39&#45;&gt;Node40 -->
<g id="edge47" class="edge"><title>Node39&#45;&gt;Node40</title>
<path fill="none" stroke="midnightblue" d="M2665.89,-163.906C2682,-159.702 2700.28,-155.033 2717,-151 2730.23,-147.809 2744.66,-144.513 2757.82,-141.581"/>
<polygon fill="midnightblue" stroke="midnightblue" points="2664.96,-160.532 2656.17,-166.453 2666.73,-167.303 2664.96,-160.532"/>
</g>
<!-- Node41 -->
<g id="node41" class="node"><title>Node41</title>
<g id="a_node41"><a xlink:href="classNavEKF3.html#a3e1f50ad977a17222fcd7a6851b0f2ec" target="_top" xlink:title="NavEKF3::activeCores">
<polygon fill="white" stroke="black" points="2744,-84.5 2744,-103.5 2862,-103.5 2862,-84.5 2744,-84.5"/>
<text text-anchor="middle" x="2803" y="-91.5" font-family="Helvetica,sans-Serif" font-size="10.00">NavEKF3::activeCores</text>
</a>
</g>
</g>
<!-- Node39&#45;&gt;Node41 -->
<g id="edge51" class="edge"><title>Node39&#45;&gt;Node41</title>
<path fill="none" stroke="midnightblue" d="M2642.3,-160.454C2665.75,-143.973 2701.72,-119.447 2717,-113 2726.06,-109.18 2735.99,-106.075 2745.78,-103.568"/>
<polygon fill="midnightblue" stroke="midnightblue" points="2640.14,-157.692 2634,-166.321 2644.18,-163.409 2640.14,-157.692"/>
</g>
<!-- Node40&#45;&gt;Node24 -->
<g id="edge48" class="edge"><title>Node40&#45;&gt;Node24</title>
<path fill="none" stroke="midnightblue" d="M2884.32,-147.076C2885.95,-148.293 2887.52,-149.599 2889,-151 2931.37,-190.963 2883.47,-236.165 2925,-277 2928.91,-280.847 2933.51,-283.938 2938.46,-286.418"/>
<polygon fill="midnightblue" stroke="midnightblue" points="2886,-144 2875.66,-141.703 2882.31,-149.949 2886,-144"/>
</g>
<!-- Node41&#45;&gt;Node29 -->
<g id="edge52" class="edge"><title>Node41&#45;&gt;Node29</title>
<path fill="none" stroke="midnightblue" d="M2862.43,-105.877C2871.39,-108.038 2880.48,-110.43 2889,-113 2913.19,-120.295 2939.71,-130.443 2960.3,-138.817"/>
<polygon fill="midnightblue" stroke="midnightblue" points="2862.95,-102.405 2852.42,-103.539 2861.36,-109.222 2862.95,-102.405"/>
</g>
<!-- Node43 -->
<g id="node43" class="node"><title>Node43</title>
<g id="a_node43"><a xlink:href="classNavEKF3__core.html#ae050fc8e6c45d5134f8cba8dabc719e8" target="_top" xlink:title="NavEKF3_core::controlMag\lYawReset">
<polygon fill="white" stroke="black" points="2005,-117 2005,-147 2142,-147 2142,-117 2005,-117"/>
<text text-anchor="start" x="2013" y="-135" font-family="Helvetica,sans-Serif" font-size="10.00">NavEKF3_core::controlMag</text>
<text text-anchor="middle" x="2073.5" y="-124" font-family="Helvetica,sans-Serif" font-size="10.00">YawReset</text>
</a>
</g>
</g>
<!-- Node42&#45;&gt;Node43 -->
<g id="edge54" class="edge"><title>Node42&#45;&gt;Node43</title>
<path fill="none" stroke="midnightblue" d="M1979.19,-132C1987.79,-132 1996.46,-132 2004.87,-132"/>
<polygon fill="midnightblue" stroke="midnightblue" points="1979.14,-128.5 1969.14,-132 1979.14,-135.5 1979.14,-128.5"/>
</g>
<!-- Node43&#45;&gt;Node44 -->
<g id="edge55" class="edge"><title>Node43&#45;&gt;Node44</title>
<path fill="none" stroke="midnightblue" d="M2152.03,-124.037C2160.6,-123.157 2169.34,-122.259 2177.96,-121.374"/>
<polygon fill="midnightblue" stroke="midnightblue" points="2151.66,-120.556 2142.07,-125.06 2152.38,-127.52 2151.66,-120.556"/>
</g>
<!-- Node45 -->
<g id="node45" class="node"><title>Node45</title>
<g id="a_node45"><a xlink:href="classNavEKF3__core.html#a2a7fae9e0bf2ce6fc2f9b3918dc168d3" target="_top" xlink:title="NavEKF3_core::UpdateFilter">
<polygon fill="white" stroke="black" points="2379,-103.5 2379,-122.5 2522,-122.5 2522,-103.5 2379,-103.5"/>
<text text-anchor="middle" x="2450.5" y="-110.5" font-family="Helvetica,sans-Serif" font-size="10.00">NavEKF3_core::UpdateFilter</text>
</a>
</g>
</g>
<!-- Node44&#45;&gt;Node45 -->
<g id="edge56" class="edge"><title>Node44&#45;&gt;Node45</title>
<path fill="none" stroke="midnightblue" d="M2353.22,-113C2361.83,-113 2370.47,-113 2378.84,-113"/>
<polygon fill="midnightblue" stroke="midnightblue" points="2353.14,-109.5 2343.14,-113 2353.14,-116.5 2353.14,-109.5"/>
</g>
<!-- Node46 -->
<g id="node46" class="node"><title>Node46</title>
<g id="a_node46"><a xlink:href="classNavEKF3.html#a477020fcf29376e0c2205dbf79728104" target="_top" xlink:title="NavEKF3::UpdateFilter">
<polygon fill="white" stroke="black" points="2560,-103.5 2560,-122.5 2679,-122.5 2679,-103.5 2560,-103.5"/>
<text text-anchor="middle" x="2619.5" y="-110.5" font-family="Helvetica,sans-Serif" font-size="10.00">NavEKF3::UpdateFilter</text>
</a>
</g>
</g>
<!-- Node45&#45;&gt;Node46 -->
<g id="edge57" class="edge"><title>Node45&#45;&gt;Node46</title>
<path fill="none" stroke="midnightblue" d="M2532.37,-113C2541.67,-113 2551.01,-113 2559.93,-113"/>
<polygon fill="midnightblue" stroke="midnightblue" points="2532.32,-109.5 2522.32,-113 2532.32,-116.5 2532.32,-109.5"/>
</g>
<!-- Node46&#45;&gt;Node40 -->
<g id="edge58" class="edge"><title>Node46&#45;&gt;Node40</title>
<path fill="none" stroke="midnightblue" d="M2689.2,-120.192C2698.22,-121.136 2707.55,-122.112 2716.79,-123.08"/>
<polygon fill="midnightblue" stroke="midnightblue" points="2689.49,-116.703 2679.18,-119.143 2688.76,-123.665 2689.49,-116.703"/>
</g>
<!-- Node46&#45;&gt;Node41 -->
<g id="edge59" class="edge"><title>Node46&#45;&gt;Node41</title>
<path fill="none" stroke="midnightblue" d="M2689.31,-105.797C2707.28,-103.916 2726.47,-101.906 2743.84,-100.089"/>
<polygon fill="midnightblue" stroke="midnightblue" points="2688.76,-102.335 2679.18,-106.857 2689.49,-109.297 2688.76,-102.335"/>
</g>
<!-- Node48 -->
<g id="node48" class="node"><title>Node48</title>
<g id="a_node48"><a xlink:href="classAP__InertialSensor.html#a9ca5d711a97f4c33fe6a7c31b1329761" target="_top" xlink:title="AP_InertialSensor::\lacal_update">
<polygon fill="white" stroke="black" points="312,-34 312,-64 413,-64 413,-34 312,-34"/>
<text text-anchor="start" x="320" y="-52" font-family="Helvetica,sans-Serif" font-size="10.00">AP_InertialSensor::</text>
<text text-anchor="middle" x="362.5" y="-41" font-family="Helvetica,sans-Serif" font-size="10.00">acal_update</text>
</a>
</g>
</g>
<!-- Node47&#45;&gt;Node48 -->
<g id="edge64" class="edge"><title>Node47&#45;&gt;Node48</title>
<path fill="none" stroke="midnightblue" d="M286.302,-50.0162C294.883,-49.9002 303.486,-49.784 311.649,-49.6737"/>
<polygon fill="midnightblue" stroke="midnightblue" points="286.217,-46.5169 276.265,-50.1518 286.312,-53.5163 286.217,-46.5169"/>
</g>
<!-- Node49 -->
<g id="node49" class="node"><title>Node49</title>
<g id="a_node49"><a xlink:href="classAP__InertialSensor.html#ab7992b2d70b268a86ad4354531ae464d" target="_top" xlink:title="AP_InertialSensor::\lget_acal">
<polygon fill="white" stroke="black" points="460,-34 460,-64 561,-64 561,-34 460,-34"/>
<text text-anchor="start" x="468" y="-52" font-family="Helvetica,sans-Serif" font-size="10.00">AP_InertialSensor::</text>
<text text-anchor="middle" x="510.5" y="-41" font-family="Helvetica,sans-Serif" font-size="10.00">get_acal</text>
</a>
</g>
</g>
<!-- Node48&#45;&gt;Node49 -->
<g id="edge65" class="edge"><title>Node48&#45;&gt;Node49</title>
<path fill="none" stroke="midnightblue" d="M423.382,-49C435.518,-49 448.154,-49 459.888,-49"/>
<polygon fill="midnightblue" stroke="midnightblue" points="423.337,-45.5001 413.337,-49 423.337,-52.5001 423.337,-45.5001"/>
</g>
</g>
</svg>
