<?xml version="1.0" encoding="UTF-8" standalone="no"?>
<!DOCTYPE svg PUBLIC "-//W3C//DTD SVG 1.1//EN"
 "http://www.w3.org/Graphics/SVG/1.1/DTD/svg11.dtd">
<!-- Generated by graphviz version 2.38.0 (20140413.2041)
 -->
<!-- Title: AP_FlashStorage::load_sector Pages: 1 -->
<svg width="399pt" height="39pt"
 viewBox="0.00 0.00 399.00 39.00" xmlns="http://www.w3.org/2000/svg" xmlns:xlink="http://www.w3.org/1999/xlink">
<g id="graph0" class="graph" transform="scale(1 1) rotate(0) translate(4 35)">
<title>AP_FlashStorage::load_sector</title>
<polygon fill="white" stroke="none" points="-4,4 -4,-35 395,-35 395,4 -4,4"/>
<!-- Node1 -->
<g id="node1" class="node"><title>Node1</title>
<polygon fill="#bfbfbf" stroke="black" points="0,-0.5 0,-30.5 117,-30.5 117,-0.5 0,-0.5"/>
<text text-anchor="start" x="8" y="-18.5" font-family="Helvetica,sans-Serif" font-size="10.00">AP_FlashStorage::load</text>
<text text-anchor="middle" x="58.5" y="-7.5" font-family="Helvetica,sans-Serif" font-size="10.00">_sector</text>
</g>
<!-- Node2 -->
<g id="node2" class="node"><title>Node2</title>
<g id="a_node2"><a xlink:href="classAP__FlashStorage.html#ac2133d4c431255ee294db68364dd43a3" target="_top" xlink:title="AP_FlashStorage::init">
<polygon fill="white" stroke="black" points="153,-6 153,-25 265,-25 265,-6 153,-6"/>
<text text-anchor="middle" x="209" y="-13" font-family="Helvetica,sans-Serif" font-size="10.00">AP_FlashStorage::init</text>
</a>
</g>
</g>
<!-- Node1&#45;&gt;Node2 -->
<g id="edge1" class="edge"><title>Node1&#45;&gt;Node2</title>
<path fill="none" stroke="midnightblue" d="M127.343,-15.5C135.933,-15.5 144.638,-15.5 152.994,-15.5"/>
<polygon fill="midnightblue" stroke="midnightblue" points="127.339,-12.0001 117.339,-15.5 127.339,-19.0001 127.339,-12.0001"/>
</g>
<!-- Node3 -->
<g id="node3" class="node"><title>Node3</title>
<g id="a_node3"><a xlink:href="classFlashTest.html#a6c57c81a070382bd61c6ecd10ce5f1ee" target="_top" xlink:title="FlashTest::setup">
<polygon fill="white" stroke="black" points="301,-6 301,-25 391,-25 391,-6 301,-6"/>
<text text-anchor="middle" x="346" y="-13" font-family="Helvetica,sans-Serif" font-size="10.00">FlashTest::setup</text>
</a>
</g>
</g>
<!-- Node2&#45;&gt;Node3 -->
<g id="edge2" class="edge"><title>Node2&#45;&gt;Node3</title>
<path fill="none" stroke="midnightblue" d="M275.341,-15.5C283.942,-15.5 292.589,-15.5 300.724,-15.5"/>
<polygon fill="midnightblue" stroke="midnightblue" points="275.299,-12.0001 265.299,-15.5 275.299,-19.0001 275.299,-12.0001"/>
</g>
</g>
</svg>
