<?xml version="1.0" encoding="UTF-8" standalone="no"?>
<!DOCTYPE svg PUBLIC "-//W3C//DTD SVG 1.1//EN"
 "http://www.w3.org/Graphics/SVG/1.1/DTD/svg11.dtd">
<!-- Generated by graphviz version 2.38.0 (20140413.2041)
 -->
<!-- Title: AP_AutoTune::save_int16_if_changed Pages: 1 -->
<!--zoomable 206 -->
<svg id="main" version="1.1" xmlns="http://www.w3.org/2000/svg" xmlns:xlink="http://www.w3.org/1999/xlink" xml:space="preserve" onload="init(evt)">
<style type="text/css"><![CDATA[
.edge:hover path { stroke: red; }
.edge:hover polygon { stroke: red; fill: red; }
]]></style>
<script type="text/javascript"><![CDATA[
var edges = document.getElementsByTagName('g');
if (edges && edges.length) {
  for (var i=0;i<edges.length;i++) {
    if (edges[i].id.substr(0,4)=='edge') {
      edges[i].setAttribute('class','edge');
    }
  }
}
]]></script>
        <defs>
                <circle id="rim" cx="0" cy="0" r="7"/>
                <circle id="rim2" cx="0" cy="0" r="3.5"/>
                <g id="zoomPlus">
                        <use xlink:href="#rim" fill="#404040">
                                <set attributeName="fill" to="#808080" begin="zoomplus.mouseover" end="zoomplus.mouseout"/>
                        </use>
                        <path d="M-4,0h8M0,-4v8" fill="none" stroke="white" stroke-width="1.5" pointer-events="none"/>
                </g>
                <g id="zoomMin">
                        <use xlink:href="#rim" fill="#404040">
                                <set attributeName="fill" to="#808080" begin="zoomminus.mouseover" end="zoomminus.mouseout"/>
                        </use>
                        <path d="M-4,0h8" fill="none" stroke="white" stroke-width="1.5" pointer-events="none"/>
                </g>
                <g id="dirArrow">
                        <path fill="none" stroke="white" stroke-width="1.5" d="M0,-3.0v7 M-2.5,-0.5L0,-3.0L2.5,-0.5"/>
                </g>
               <g id="resetDef">
                       <use xlink:href="#rim2" fill="#404040">
                               <set attributeName="fill" to="#808080" begin="reset.mouseover" end="reset.mouseout"/>
                       </use>
               </g>
        </defs>

<script type="text/javascript">
var viewWidth = 1045;
var viewHeight = 206;
var sectionId = 'dynsection-11';
</script>
<script xlink:href="svgpan.js"/>
<svg id="graph" class="graph">
<g id="viewport">
<title>AP_AutoTune::save_int16_if_changed</title>
<polygon fill="white" stroke="none" points="-4,4 -4,-202 1041,-202 1041,4 -4,4"/>
<!-- Node1 -->
<g id="node1" class="node"><title>Node1</title>
<polygon fill="#bfbfbf" stroke="black" points="0,-69.5 0,-99.5 131,-99.5 131,-69.5 0,-69.5"/>
<text text-anchor="start" x="8" y="-87.5" font-family="Helvetica,sans-Serif" font-size="10.00">AP_AutoTune::save_int16</text>
<text text-anchor="middle" x="65.5" y="-76.5" font-family="Helvetica,sans-Serif" font-size="10.00">_if_changed</text>
</g>
<!-- Node2 -->
<g id="node2" class="node"><title>Node2</title>
<g id="a_node2"><a xlink:href="classAP__AutoTune.html#a258aa8bcc03defe55967c97931af95d5" target="_top" xlink:title="AP_AutoTune::save_gains">
<polygon fill="white" stroke="black" points="167,-75 167,-94 300,-94 300,-75 167,-75"/>
<text text-anchor="middle" x="233.5" y="-82" font-family="Helvetica,sans-Serif" font-size="10.00">AP_AutoTune::save_gains</text>
</a>
</g>
</g>
<!-- Node1&#45;&gt;Node2 -->
<g id="edge1" class="edge"><title>Node1&#45;&gt;Node2</title>
<path fill="none" stroke="midnightblue" d="M141.164,-84.5C149.756,-84.5 158.468,-84.5 166.928,-84.5"/>
<polygon fill="midnightblue" stroke="midnightblue" points="141.155,-81.0001 131.155,-84.5 141.155,-88.0001 141.155,-81.0001"/>
</g>
<!-- Node3 -->
<g id="node3" class="node"><title>Node3</title>
<g id="a_node3"><a xlink:href="classAP__AutoTune.html#ac05a94ad7cd4c42e14182d9ba5f861db" target="_top" xlink:title="AP_AutoTune::check_save">
<polygon fill="white" stroke="black" points="336,-96 336,-115 472,-115 472,-96 336,-96"/>
<text text-anchor="middle" x="404" y="-103" font-family="Helvetica,sans-Serif" font-size="10.00">AP_AutoTune::check_save</text>
</a>
</g>
</g>
<!-- Node2&#45;&gt;Node3 -->
<g id="edge2" class="edge"><title>Node2&#45;&gt;Node3</title>
<path fill="none" stroke="midnightblue" d="M310.13,-93.9257C318.714,-94.9956 327.42,-96.0805 335.884,-97.1354"/>
<polygon fill="midnightblue" stroke="midnightblue" points="310.485,-90.443 300.129,-92.6793 309.619,-97.3892 310.485,-90.443"/>
</g>
<!-- Node13 -->
<g id="node13" class="node"><title>Node13</title>
<g id="a_node13"><a xlink:href="classAP__AutoTune.html#ae452d4a3f9648538afc6d7dce6a5e8a3" target="_top" xlink:title="AP_AutoTune::stop">
<polygon fill="white" stroke="black" points="353,-55 353,-74 455,-74 455,-55 353,-55"/>
<text text-anchor="middle" x="404" y="-62" font-family="Helvetica,sans-Serif" font-size="10.00">AP_AutoTune::stop</text>
</a>
</g>
</g>
<!-- Node2&#45;&gt;Node13 -->
<g id="edge14" class="edge"><title>Node2&#45;&gt;Node13</title>
<path fill="none" stroke="midnightblue" d="M310.103,-75.5263C324.621,-73.8031 339.486,-72.0388 352.947,-70.441"/>
<polygon fill="midnightblue" stroke="midnightblue" points="309.647,-72.0558 300.129,-76.7102 310.472,-79.0071 309.647,-72.0558"/>
</g>
<!-- Node4 -->
<g id="node4" class="node"><title>Node4</title>
<g id="a_node4"><a xlink:href="classAP__AutoTune.html#af5c523db0ac4313e8098fec4b8f5f2f1" target="_top" xlink:title="AP_AutoTune::update">
<polygon fill="white" stroke="black" points="508,-99 508,-118 621,-118 621,-99 508,-99"/>
<text text-anchor="middle" x="564.5" y="-106" font-family="Helvetica,sans-Serif" font-size="10.00">AP_AutoTune::update</text>
</a>
</g>
</g>
<!-- Node3&#45;&gt;Node4 -->
<g id="edge3" class="edge"><title>Node3&#45;&gt;Node4</title>
<path fill="none" stroke="midnightblue" d="M482.247,-106.962C490.824,-107.124 499.431,-107.287 507.668,-107.443"/>
<polygon fill="midnightblue" stroke="midnightblue" points="482.283,-103.462 472.218,-106.772 482.15,-110.461 482.283,-103.462"/>
</g>
<!-- Node5 -->
<g id="node5" class="node"><title>Node5</title>
<g id="a_node5"><a xlink:href="classAP__PitchController.html#a4613b491d225c7ee7eac435f79d7c495" target="_top" xlink:title="AP_PitchController\l::_get_rate_out">
<polygon fill="white" stroke="black" points="657.5,-118.5 657.5,-148.5 757.5,-148.5 757.5,-118.5 657.5,-118.5"/>
<text text-anchor="start" x="665.5" y="-136.5" font-family="Helvetica,sans-Serif" font-size="10.00">AP_PitchController</text>
<text text-anchor="middle" x="707.5" y="-125.5" font-family="Helvetica,sans-Serif" font-size="10.00">::_get_rate_out</text>
</a>
</g>
</g>
<!-- Node4&#45;&gt;Node5 -->
<g id="edge4" class="edge"><title>Node4&#45;&gt;Node5</title>
<path fill="none" stroke="midnightblue" d="M629.257,-119.804C638.604,-121.462 648.11,-123.147 657.111,-124.743"/>
<polygon fill="midnightblue" stroke="midnightblue" points="629.666,-116.322 619.208,-118.023 628.444,-123.215 629.666,-116.322"/>
</g>
<!-- Node9 -->
<g id="node9" class="node"><title>Node9</title>
<g id="a_node9"><a xlink:href="classAP__RollController.html#a702a5fbdae8598e86dc2aa73b8f59089" target="_top" xlink:title="AP_RollController::\l_get_rate_out">
<polygon fill="white" stroke="black" points="657,-69.5 657,-99.5 758,-99.5 758,-69.5 657,-69.5"/>
<text text-anchor="start" x="665" y="-87.5" font-family="Helvetica,sans-Serif" font-size="10.00">AP_RollController::</text>
<text text-anchor="middle" x="707.5" y="-76.5" font-family="Helvetica,sans-Serif" font-size="10.00">_get_rate_out</text>
</a>
</g>
</g>
<!-- Node4&#45;&gt;Node9 -->
<g id="edge9" class="edge"><title>Node4&#45;&gt;Node9</title>
<path fill="none" stroke="midnightblue" d="M631.204,-97.3164C639.765,-95.8591 648.422,-94.3857 656.665,-92.9826"/>
<polygon fill="midnightblue" stroke="midnightblue" points="630.498,-93.8861 621.227,-99.0146 631.672,-100.787 630.498,-93.8861"/>
</g>
<!-- Node6 -->
<g id="node6" class="node"><title>Node6</title>
<g id="a_node6"><a xlink:href="classAP__PitchController.html#ad305f4274a77eaffb5b0dc064cfc31ba" target="_top" xlink:title="AP_PitchController\l::get_rate_out">
<polygon fill="white" stroke="black" points="794.5,-167.5 794.5,-197.5 894.5,-197.5 894.5,-167.5 794.5,-167.5"/>
<text text-anchor="start" x="802.5" y="-185.5" font-family="Helvetica,sans-Serif" font-size="10.00">AP_PitchController</text>
<text text-anchor="middle" x="844.5" y="-174.5" font-family="Helvetica,sans-Serif" font-size="10.00">::get_rate_out</text>
</a>
</g>
</g>
<!-- Node5&#45;&gt;Node6 -->
<g id="edge5" class="edge"><title>Node5&#45;&gt;Node6</title>
<path fill="none" stroke="midnightblue" d="M759.567,-152.036C773.509,-157.096 788.447,-162.518 801.799,-167.364"/>
<polygon fill="midnightblue" stroke="midnightblue" points="760.7,-148.723 750.106,-148.601 758.312,-155.303 760.7,-148.723"/>
</g>
<!-- Node8 -->
<g id="node8" class="node"><title>Node8</title>
<g id="a_node8"><a xlink:href="classAP__PitchController.html#a705d9814ebad894375332f012dd768df" target="_top" xlink:title="AP_PitchController\l::get_servo_out">
<polygon fill="white" stroke="black" points="794.5,-118.5 794.5,-148.5 894.5,-148.5 894.5,-118.5 794.5,-118.5"/>
<text text-anchor="start" x="802.5" y="-136.5" font-family="Helvetica,sans-Serif" font-size="10.00">AP_PitchController</text>
<text text-anchor="middle" x="844.5" y="-125.5" font-family="Helvetica,sans-Serif" font-size="10.00">::get_servo_out</text>
</a>
</g>
</g>
<!-- Node5&#45;&gt;Node8 -->
<g id="edge7" class="edge"><title>Node5&#45;&gt;Node8</title>
<path fill="none" stroke="midnightblue" d="M767.83,-133.5C776.632,-133.5 785.623,-133.5 794.19,-133.5"/>
<polygon fill="midnightblue" stroke="midnightblue" points="767.62,-130 757.62,-133.5 767.62,-137 767.62,-130"/>
</g>
<!-- Node7 -->
<g id="node7" class="node"><title>Node7</title>
<g id="a_node7"><a xlink:href="classAP__PitchController.html#a9b969c4793940109278b7bfe27e4792e" target="_top" xlink:title="AP_PitchController\l::AP_PitchController">
<polygon fill="white" stroke="black" points="931,-130.5 931,-160.5 1037,-160.5 1037,-130.5 931,-130.5"/>
<text text-anchor="start" x="939" y="-148.5" font-family="Helvetica,sans-Serif" font-size="10.00">AP_PitchController</text>
<text text-anchor="middle" x="984" y="-137.5" font-family="Helvetica,sans-Serif" font-size="10.00">::AP_PitchController</text>
</a>
</g>
</g>
<!-- Node6&#45;&gt;Node7 -->
<g id="edge6" class="edge"><title>Node6&#45;&gt;Node7</title>
<path fill="none" stroke="midnightblue" d="M904.514,-166.62C913.269,-164.264 922.238,-161.85 930.839,-159.536"/>
<polygon fill="midnightblue" stroke="midnightblue" points="903.499,-163.268 894.752,-169.247 905.318,-170.028 903.499,-163.268"/>
</g>
<!-- Node8&#45;&gt;Node7 -->
<g id="edge8" class="edge"><title>Node8&#45;&gt;Node7</title>
<path fill="none" stroke="midnightblue" d="M904.797,-138.675C913.462,-139.431 922.331,-140.205 930.839,-140.948"/>
<polygon fill="midnightblue" stroke="midnightblue" points="905.019,-135.181 894.752,-137.798 904.41,-142.155 905.019,-135.181"/>
</g>
<!-- Node10 -->
<g id="node10" class="node"><title>Node10</title>
<g id="a_node10"><a xlink:href="classAP__RollController.html#a8cf832c8a75c50c1fd4caf4eace7b34f" target="_top" xlink:title="AP_RollController::\lget_rate_out">
<polygon fill="white" stroke="black" points="794,-69.5 794,-99.5 895,-99.5 895,-69.5 794,-69.5"/>
<text text-anchor="start" x="802" y="-87.5" font-family="Helvetica,sans-Serif" font-size="10.00">AP_RollController::</text>
<text text-anchor="middle" x="844.5" y="-76.5" font-family="Helvetica,sans-Serif" font-size="10.00">get_rate_out</text>
</a>
</g>
</g>
<!-- Node9&#45;&gt;Node10 -->
<g id="edge10" class="edge"><title>Node9&#45;&gt;Node10</title>
<path fill="none" stroke="midnightblue" d="M768.207,-84.5C776.67,-84.5 785.299,-84.5 793.552,-84.5"/>
<polygon fill="midnightblue" stroke="midnightblue" points="768.002,-81.0001 758.002,-84.5 768.002,-88.0001 768.002,-81.0001"/>
</g>
<!-- Node12 -->
<g id="node12" class="node"><title>Node12</title>
<g id="a_node12"><a xlink:href="classAP__RollController.html#a8995f6c95b27e132a6aa49f5fe9512ae" target="_top" xlink:title="AP_RollController::\lget_servo_out">
<polygon fill="white" stroke="black" points="794,-20.5 794,-50.5 895,-50.5 895,-20.5 794,-20.5"/>
<text text-anchor="start" x="802" y="-38.5" font-family="Helvetica,sans-Serif" font-size="10.00">AP_RollController::</text>
<text text-anchor="middle" x="844.5" y="-27.5" font-family="Helvetica,sans-Serif" font-size="10.00">get_servo_out</text>
</a>
</g>
</g>
<!-- Node9&#45;&gt;Node12 -->
<g id="edge12" class="edge"><title>Node9&#45;&gt;Node12</title>
<path fill="none" stroke="midnightblue" d="M759.567,-65.9645C773.509,-60.9041 788.447,-55.4823 801.799,-50.6359"/>
<polygon fill="midnightblue" stroke="midnightblue" points="758.312,-62.6967 750.106,-69.3986 760.7,-69.2766 758.312,-62.6967"/>
</g>
<!-- Node11 -->
<g id="node11" class="node"><title>Node11</title>
<g id="a_node11"><a xlink:href="classAP__RollController.html#a4b5111a704680acf295d9d3895726beb" target="_top" xlink:title="AP_RollController::\lAP_RollController">
<polygon fill="white" stroke="black" points="933.5,-57.5 933.5,-87.5 1034.5,-87.5 1034.5,-57.5 933.5,-57.5"/>
<text text-anchor="start" x="941.5" y="-75.5" font-family="Helvetica,sans-Serif" font-size="10.00">AP_RollController::</text>
<text text-anchor="middle" x="984" y="-64.5" font-family="Helvetica,sans-Serif" font-size="10.00">AP_RollController</text>
</a>
</g>
</g>
<!-- Node10&#45;&gt;Node11 -->
<g id="edge11" class="edge"><title>Node10&#45;&gt;Node11</title>
<path fill="none" stroke="midnightblue" d="M905.23,-79.2872C914.642,-78.4658 924.283,-77.6244 933.432,-76.8259"/>
<polygon fill="midnightblue" stroke="midnightblue" points="904.798,-75.8115 895.141,-80.1677 905.407,-82.785 904.798,-75.8115"/>
</g>
<!-- Node12&#45;&gt;Node11 -->
<g id="edge13" class="edge"><title>Node12&#45;&gt;Node11</title>
<path fill="none" stroke="midnightblue" d="M904.929,-51.4919C914.436,-54.0502 924.186,-56.6737 933.432,-59.1618"/>
<polygon fill="midnightblue" stroke="midnightblue" points="905.707,-48.0766 895.141,-48.8578 903.888,-54.8362 905.707,-48.0766"/>
</g>
<!-- Node14 -->
<g id="node14" class="node"><title>Node14</title>
<g id="a_node14"><a xlink:href="classAP__PitchController.html#a4794b464d67c5257b6d1eb889f372d82" target="_top" xlink:title="AP_PitchController\l::autotune_restore">
<polygon fill="white" stroke="black" points="514.5,-49.5 514.5,-79.5 614.5,-79.5 614.5,-49.5 514.5,-49.5"/>
<text text-anchor="start" x="522.5" y="-67.5" font-family="Helvetica,sans-Serif" font-size="10.00">AP_PitchController</text>
<text text-anchor="middle" x="564.5" y="-56.5" font-family="Helvetica,sans-Serif" font-size="10.00">::autotune_restore</text>
</a>
</g>
</g>
<!-- Node13&#45;&gt;Node14 -->
<g id="edge15" class="edge"><title>Node13&#45;&gt;Node14</title>
<path fill="none" stroke="midnightblue" d="M465.588,-64.5C481.758,-64.5 499.027,-64.5 514.489,-64.5"/>
<polygon fill="midnightblue" stroke="midnightblue" points="465.15,-61.0001 455.15,-64.5 465.15,-68.0001 465.15,-61.0001"/>
</g>
<!-- Node15 -->
<g id="node15" class="node"><title>Node15</title>
<g id="a_node15"><a xlink:href="classAP__RollController.html#a717204938ed9e8698aa728c04c9dcc83" target="_top" xlink:title="AP_RollController::\lautotune_restore">
<polygon fill="white" stroke="black" points="514,-0.5 514,-30.5 615,-30.5 615,-0.5 514,-0.5"/>
<text text-anchor="start" x="522" y="-18.5" font-family="Helvetica,sans-Serif" font-size="10.00">AP_RollController::</text>
<text text-anchor="middle" x="564.5" y="-7.5" font-family="Helvetica,sans-Serif" font-size="10.00">autotune_restore</text>
</a>
</g>
</g>
<!-- Node13&#45;&gt;Node15 -->
<g id="edge16" class="edge"><title>Node13&#45;&gt;Node15</title>
<path fill="none" stroke="midnightblue" d="M445.572,-51.9574C466.692,-45.4281 492.668,-37.3976 514.86,-30.537"/>
<polygon fill="midnightblue" stroke="midnightblue" points="444.457,-48.6385 435.937,-54.936 446.524,-55.3262 444.457,-48.6385"/>
</g>
</g>
</svg>
        <g id="navigator" transform="translate(0 0)" fill="#404254">
                <rect fill="#f2f5e9" fill-opacity="0.5" stroke="#606060" stroke-width=".5" x="0" y="0" width="60" height="60"/>
                <use id="zoomplus" xlink:href="#zoomPlus" x="17" y="9" onmousedown="handleZoom(evt,'in')"/>
                <use id="zoomminus" xlink:href="#zoomMin" x="42" y="9" onmousedown="handleZoom(evt,'out')"/>
                <use id="reset" xlink:href="#resetDef" x="30" y="36" onmousedown="handleReset()"/>
                <g id="arrowUp" xlink:href="#dirArrow" transform="translate(30 24)" onmousedown="handlePan(0,-1)">
                  <use xlink:href="#rim" fill="#404040">
                        <set attributeName="fill" to="#808080" begin="arrowUp.mouseover" end="arrowUp.mouseout"/>
                  </use>
                  <path fill="none" stroke="white" stroke-width="1.5" d="M0,-3.0v7 M-2.5,-0.5L0,-3.0L2.5,-0.5"/>
                </g>
                <g id="arrowRight" xlink:href="#dirArrow" transform="rotate(90) translate(36 -43)" onmousedown="handlePan(1,0)">
                  <use xlink:href="#rim" fill="#404040">
                        <set attributeName="fill" to="#808080" begin="arrowRight.mouseover" end="arrowRight.mouseout"/>
                  </use>
                  <path fill="none" stroke="white" stroke-width="1.5" d="M0,-3.0v7 M-2.5,-0.5L0,-3.0L2.5,-0.5"/>
                </g>
                <g id="arrowDown" xlink:href="#dirArrow" transform="rotate(180) translate(-30 -48)" onmousedown="handlePan(0,1)">
                  <use xlink:href="#rim" fill="#404040">
                        <set attributeName="fill" to="#808080" begin="arrowDown.mouseover" end="arrowDown.mouseout"/>
                  </use>
                  <path fill="none" stroke="white" stroke-width="1.5" d="M0,-3.0v7 M-2.5,-0.5L0,-3.0L2.5,-0.5"/>
                </g>
                <g id="arrowLeft" xlink:href="#dirArrow" transform="rotate(270) translate(-36 17)" onmousedown="handlePan(-1,0)">
                  <use xlink:href="#rim" fill="#404040">
                        <set attributeName="fill" to="#808080" begin="arrowLeft.mouseover" end="arrowLeft.mouseout"/>
                  </use>
                  <path fill="none" stroke="white" stroke-width="1.5" d="M0,-3.0v7 M-2.5,-0.5L0,-3.0L2.5,-0.5"/>
                </g>
        </g>
        <svg viewBox="0 0 15 15" width="100%" height="30px" preserveAspectRatio="xMaxYMin meet">
         <g id="arrow_out" transform="scale(0.3 0.3)">
          <a xlink:href="classAP__AutoTune_a42e4a85b366f38eaea1d10846ed25f4b_icgraph_org.svg" target="_base">
           <rect id="button" ry="5" rx="5" y="6" x="6" height="38" width="38"
                fill="#f2f5e9" fill-opacity="0.5" stroke="#606060" stroke-width="1.0"/>
           <path id="arrow"
             d="M 11.500037,31.436501 C 11.940474,20.09759 22.043105,11.32322 32.158766,21.979434 L 37.068811,17.246167 C 37.068811,17.246167 37.088388,32 37.088388,32 L 22.160133,31.978069 C 22.160133,31.978069 26.997745,27.140456 26.997745,27.140456 C 18.528582,18.264221 13.291696,25.230495 11.500037,31.436501 z"
             style="fill:#404040;"/>
          </a>
         </g>
        </svg>
</svg>
