<?xml version="1.0" encoding="UTF-8" standalone="no"?>
<!DOCTYPE svg PUBLIC "-//W3C//DTD SVG 1.1//EN"
 "http://www.w3.org/Graphics/SVG/1.1/DTD/svg11.dtd">
<!-- Generated by graphviz version 2.38.0 (20140413.2041)
 -->
<!-- Title: AP_AHRS_NavEKF::setInhibitGPS Pages: 1 -->
<svg width="553pt" height="116pt"
 viewBox="0.00 0.00 553.00 115.50" xmlns="http://www.w3.org/2000/svg" xmlns:xlink="http://www.w3.org/1999/xlink">
<g id="graph0" class="graph" transform="scale(1 1) rotate(0) translate(4 111.5)">
<title>AP_AHRS_NavEKF::setInhibitGPS</title>
<polygon fill="white" stroke="none" points="-4,4 -4,-111.5 549,-111.5 549,4 -4,4"/>
<!-- Node1 -->
<g id="node1" class="node"><title>Node1</title>
<polygon fill="#bfbfbf" stroke="black" points="5.68434e-14,-38.5 5.68434e-14,-57.5 173,-57.5 173,-38.5 5.68434e-14,-38.5"/>
<text text-anchor="middle" x="86.5" y="-45.5" font-family="Helvetica,sans-Serif" font-size="10.00">AP_AHRS_NavEKF::setInhibitGPS</text>
</g>
<!-- Node2 -->
<g id="node2" class="node"><title>Node2</title>
<g id="a_node2"><a xlink:href="classAP__AHRS__NavEKF.html#a2421598bfc909c228709f99347a5fcea" target="_top" xlink:title="AP_AHRS_NavEKF::ekf_type">
<polygon fill="white" stroke="black" points="209,-79.5 209,-98.5 359,-98.5 359,-79.5 209,-79.5"/>
<text text-anchor="middle" x="284" y="-86.5" font-family="Helvetica,sans-Serif" font-size="10.00">AP_AHRS_NavEKF::ekf_type</text>
</a>
</g>
</g>
<!-- Node1&#45;&gt;Node2 -->
<g id="edge1" class="edge"><title>Node1&#45;&gt;Node2</title>
<path fill="none" stroke="midnightblue" d="M132.843,-57.5093C161.117,-63.439 197.697,-71.1105 227.674,-77.397"/>
<polygon fill="midnightblue" stroke="midnightblue" points="227.059,-80.8442 237.565,-79.4714 228.496,-73.9933 227.059,-80.8442"/>
</g>
<!-- Node4 -->
<g id="node4" class="node"><title>Node4</title>
<g id="a_node4"><a xlink:href="classNavEKF2.html#a6bc4e26188215be68c7013734e26e56f" target="_top" xlink:title="NavEKF2::setInhibitGPS">
<polygon fill="white" stroke="black" points="221,-38.5 221,-57.5 347,-57.5 347,-38.5 221,-38.5"/>
<text text-anchor="middle" x="284" y="-45.5" font-family="Helvetica,sans-Serif" font-size="10.00">NavEKF2::setInhibitGPS</text>
</a>
</g>
</g>
<!-- Node1&#45;&gt;Node4 -->
<g id="edge3" class="edge"><title>Node1&#45;&gt;Node4</title>
<path fill="none" stroke="midnightblue" d="M173.249,-48C185.753,-48 198.523,-48 210.723,-48"/>
<polygon fill="midnightblue" stroke="midnightblue" points="210.819,-51.5001 220.819,-48 210.819,-44.5001 210.819,-51.5001"/>
</g>
<!-- Node6 -->
<g id="node6" class="node"><title>Node6</title>
<g id="a_node6"><a xlink:href="classNavEKF3.html#aca76e36ca17b95dbdd2586a06dcfb126" target="_top" xlink:title="NavEKF3::setInhibitGPS">
<polygon fill="white" stroke="black" points="221,-0.5 221,-19.5 347,-19.5 347,-0.5 221,-0.5"/>
<text text-anchor="middle" x="284" y="-7.5" font-family="Helvetica,sans-Serif" font-size="10.00">NavEKF3::setInhibitGPS</text>
</a>
</g>
</g>
<!-- Node1&#45;&gt;Node6 -->
<g id="edge5" class="edge"><title>Node1&#45;&gt;Node6</title>
<path fill="none" stroke="midnightblue" d="M136.581,-38.46C163.074,-33.3104 195.972,-26.916 223.869,-21.4935"/>
<polygon fill="midnightblue" stroke="midnightblue" points="224.751,-24.8877 233.899,-19.5439 223.415,-18.0163 224.751,-24.8877"/>
</g>
<!-- Node3 -->
<g id="node3" class="node"><title>Node3</title>
<g id="a_node3"><a xlink:href="classAP__AHRS__NavEKF.html#a9af775a381a41ff78ac75a06ba7b1a05" target="_top" xlink:title="AP_AHRS_NavEKF::always\l_use_EKF">
<polygon fill="white" stroke="black" points="398.5,-77 398.5,-107 541.5,-107 541.5,-77 398.5,-77"/>
<text text-anchor="start" x="406.5" y="-95" font-family="Helvetica,sans-Serif" font-size="10.00">AP_AHRS_NavEKF::always</text>
<text text-anchor="middle" x="470" y="-84" font-family="Helvetica,sans-Serif" font-size="10.00">_use_EKF</text>
</a>
</g>
</g>
<!-- Node2&#45;&gt;Node3 -->
<g id="edge2" class="edge"><title>Node2&#45;&gt;Node3</title>
<path fill="none" stroke="midnightblue" d="M359.044,-90.2072C368.679,-90.3643 378.588,-90.5259 388.324,-90.6846"/>
<polygon fill="midnightblue" stroke="midnightblue" points="388.334,-94.1852 398.39,-90.8488 388.449,-87.1861 388.334,-94.1852"/>
</g>
<!-- Node5 -->
<g id="node5" class="node"><title>Node5</title>
<g id="a_node5"><a xlink:href="classNavEKF2__core.html#a879687ef73bdc560fd17d8f490b1c3b3" target="_top" xlink:title="NavEKF2_core::setInhibitGPS">
<polygon fill="white" stroke="black" points="395,-38.5 395,-57.5 545,-57.5 545,-38.5 395,-38.5"/>
<text text-anchor="middle" x="470" y="-45.5" font-family="Helvetica,sans-Serif" font-size="10.00">NavEKF2_core::setInhibitGPS</text>
</a>
</g>
</g>
<!-- Node4&#45;&gt;Node5 -->
<g id="edge4" class="edge"><title>Node4&#45;&gt;Node5</title>
<path fill="none" stroke="midnightblue" d="M347.037,-48C359.139,-48 372.017,-48 384.698,-48"/>
<polygon fill="midnightblue" stroke="midnightblue" points="384.808,-51.5001 394.808,-48 384.808,-44.5001 384.808,-51.5001"/>
</g>
<!-- Node7 -->
<g id="node7" class="node"><title>Node7</title>
<g id="a_node7"><a xlink:href="classNavEKF3__core.html#a0d8b0e06df4e1126a025b9641df39aa4" target="_top" xlink:title="NavEKF3_core::setInhibitGPS">
<polygon fill="white" stroke="black" points="395,-0.5 395,-19.5 545,-19.5 545,-0.5 395,-0.5"/>
<text text-anchor="middle" x="470" y="-7.5" font-family="Helvetica,sans-Serif" font-size="10.00">NavEKF3_core::setInhibitGPS</text>
</a>
</g>
</g>
<!-- Node6&#45;&gt;Node7 -->
<g id="edge6" class="edge"><title>Node6&#45;&gt;Node7</title>
<path fill="none" stroke="midnightblue" d="M347.037,-10C359.139,-10 372.017,-10 384.698,-10"/>
<polygon fill="midnightblue" stroke="midnightblue" points="384.808,-13.5001 394.808,-10 384.808,-6.5001 384.808,-13.5001"/>
</g>
</g>
</svg>
