<?xml version="1.0" encoding="UTF-8" standalone="no"?>
<!DOCTYPE svg PUBLIC "-//W3C//DTD SVG 1.1//EN"
 "http://www.w3.org/Graphics/SVG/1.1/DTD/svg11.dtd">
<!-- Generated by graphviz version 2.38.0 (20140413.2041)
 -->
<!-- Title: NavEKF3_core::resetGyroBias Pages: 1 -->
<svg width="792pt" height="83pt"
 viewBox="0.00 0.00 792.00 83.00" xmlns="http://www.w3.org/2000/svg" xmlns:xlink="http://www.w3.org/1999/xlink">
<g id="graph0" class="graph" transform="scale(1 1) rotate(0) translate(4 79)">
<title>NavEKF3_core::resetGyroBias</title>
<polygon fill="white" stroke="none" points="-4,4 -4,-79 788,-79 788,4 -4,4"/>
<!-- Node1 -->
<g id="node1" class="node"><title>Node1</title>
<polygon fill="#bfbfbf" stroke="black" points="0,-28 0,-47 152,-47 152,-28 0,-28"/>
<text text-anchor="middle" x="76" y="-35" font-family="Helvetica,sans-Serif" font-size="10.00">NavEKF3_core::resetGyroBias</text>
</g>
<!-- Node2 -->
<g id="node2" class="node"><title>Node2</title>
<g id="a_node2"><a xlink:href="classNavEKF3.html#ac5a00778eabdb63d023daf034eda5fa5" target="_top" xlink:title="NavEKF3::resetGyroBias">
<polygon fill="white" stroke="black" points="188,-28 188,-47 316,-47 316,-28 188,-28"/>
<text text-anchor="middle" x="252" y="-35" font-family="Helvetica,sans-Serif" font-size="10.00">NavEKF3::resetGyroBias</text>
</a>
</g>
</g>
<!-- Node1&#45;&gt;Node2 -->
<g id="edge1" class="edge"><title>Node1&#45;&gt;Node2</title>
<path fill="none" stroke="midnightblue" d="M162.195,-37.5C170.861,-37.5 179.55,-37.5 187.92,-37.5"/>
<polygon fill="midnightblue" stroke="midnightblue" points="162.054,-34.0001 152.054,-37.5 162.054,-41.0001 162.054,-34.0001"/>
</g>
<!-- Node3 -->
<g id="node3" class="node"><title>Node3</title>
<g id="a_node3"><a xlink:href="classNavEKF3.html#a3e1f50ad977a17222fcd7a6851b0f2ec" target="_top" xlink:title="NavEKF3::activeCores">
<polygon fill="white" stroke="black" points="360,-50 360,-69 478,-69 478,-50 360,-50"/>
<text text-anchor="middle" x="419" y="-57" font-family="Helvetica,sans-Serif" font-size="10.00">NavEKF3::activeCores</text>
</a>
</g>
</g>
<!-- Node2&#45;&gt;Node3 -->
<g id="edge2" class="edge"><title>Node2&#45;&gt;Node3</title>
<path fill="none" stroke="midnightblue" d="M326.529,-47.3038C337.738,-48.7984 349.171,-50.3228 359.987,-51.7649"/>
<polygon fill="midnightblue" stroke="midnightblue" points="326.696,-43.7953 316.321,-45.9429 325.771,-50.7339 326.696,-43.7953"/>
</g>
<!-- Node6 -->
<g id="node6" class="node"><title>Node6</title>
<g id="a_node6"><a xlink:href="classAP__AHRS__NavEKF.html#a35a5899de79b7f3dec781e1338ff58a8" target="_top" xlink:title="AP_AHRS_NavEKF::reset\l_gyro_drift">
<polygon fill="white" stroke="black" points="352,-0.5 352,-30.5 486,-30.5 486,-0.5 352,-0.5"/>
<text text-anchor="start" x="360" y="-18.5" font-family="Helvetica,sans-Serif" font-size="10.00">AP_AHRS_NavEKF::reset</text>
<text text-anchor="middle" x="419" y="-7.5" font-family="Helvetica,sans-Serif" font-size="10.00">_gyro_drift</text>
</a>
</g>
</g>
<!-- Node2&#45;&gt;Node6 -->
<g id="edge5" class="edge"><title>Node2&#45;&gt;Node6</title>
<path fill="none" stroke="midnightblue" d="M326.242,-27.7344C334.764,-26.5981 343.42,-25.444 351.839,-24.3215"/>
<polygon fill="midnightblue" stroke="midnightblue" points="325.771,-24.2661 316.321,-29.0571 326.696,-31.2047 325.771,-24.2661"/>
</g>
<!-- Node4 -->
<g id="node4" class="node"><title>Node4</title>
<g id="a_node4"><a xlink:href="classDataFlash__Class.html#a46e58faaa53c44516433f6bb7bde4163" target="_top" xlink:title="DataFlash_Class::Log\l_Write_POS">
<polygon fill="white" stroke="black" points="522,-44.5 522,-74.5 636,-74.5 636,-44.5 522,-44.5"/>
<text text-anchor="start" x="530" y="-62.5" font-family="Helvetica,sans-Serif" font-size="10.00">DataFlash_Class::Log</text>
<text text-anchor="middle" x="579" y="-51.5" font-family="Helvetica,sans-Serif" font-size="10.00">_Write_POS</text>
</a>
</g>
</g>
<!-- Node3&#45;&gt;Node4 -->
<g id="edge3" class="edge"><title>Node3&#45;&gt;Node4</title>
<path fill="none" stroke="midnightblue" d="M488.53,-59.5C499.692,-59.5 511.139,-59.5 521.956,-59.5"/>
<polygon fill="midnightblue" stroke="midnightblue" points="488.384,-56.0001 478.384,-59.5 488.384,-63.0001 488.384,-56.0001"/>
</g>
<!-- Node5 -->
<g id="node5" class="node"><title>Node5</title>
<g id="a_node5"><a xlink:href="classDataFlash__Class.html#a7868f0e3dcef65ea5b5fcae618f4c5d4" target="_top" xlink:title="DataFlash_Class::get\l_structures">
<polygon fill="white" stroke="black" points="672,-44.5 672,-74.5 784,-74.5 784,-44.5 672,-44.5"/>
<text text-anchor="start" x="680" y="-62.5" font-family="Helvetica,sans-Serif" font-size="10.00">DataFlash_Class::get</text>
<text text-anchor="middle" x="728" y="-51.5" font-family="Helvetica,sans-Serif" font-size="10.00">_structures</text>
</a>
</g>
</g>
<!-- Node4&#45;&gt;Node5 -->
<g id="edge4" class="edge"><title>Node4&#45;&gt;Node5</title>
<path fill="none" stroke="midnightblue" d="M646.646,-59.5C655.109,-59.5 663.695,-59.5 671.949,-59.5"/>
<polygon fill="midnightblue" stroke="midnightblue" points="646.414,-56.0001 636.414,-59.5 646.414,-63.0001 646.414,-56.0001"/>
</g>
</g>
</svg>
