<?xml version="1.0" encoding="UTF-8" standalone="no"?>
<!DOCTYPE svg PUBLIC "-//W3C//DTD SVG 1.1//EN"
 "http://www.w3.org/Graphics/SVG/1.1/DTD/svg11.dtd">
<!-- Generated by graphviz version 2.38.0 (20140413.2041)
 -->
<!-- Title: AP_RangeFinder_Backend::update Pages: 1 -->
<svg width="670pt" height="97pt"
 viewBox="0.00 0.00 670.00 96.50" xmlns="http://www.w3.org/2000/svg" xmlns:xlink="http://www.w3.org/1999/xlink">
<g id="graph0" class="graph" transform="scale(1 1) rotate(0) translate(4 92.5)">
<title>AP_RangeFinder_Backend::update</title>
<polygon fill="white" stroke="none" points="-4,4 -4,-92.5 666,-92.5 666,4 -4,4"/>
<!-- Node1 -->
<g id="node1" class="node"><title>Node1</title>
<polygon fill="#bfbfbf" stroke="black" points="0,-22.5 0,-52.5 134,-52.5 134,-22.5 0,-22.5"/>
<text text-anchor="start" x="8" y="-40.5" font-family="Helvetica,sans-Serif" font-size="10.00">AP_RangeFinder_Backend</text>
<text text-anchor="middle" x="67" y="-29.5" font-family="Helvetica,sans-Serif" font-size="10.00">::update</text>
</g>
<!-- Node2 -->
<g id="node2" class="node"><title>Node2</title>
<g id="a_node2"><a xlink:href="classRangeFinder.html#a37112967f0252ed7c3fdc42f840761c7" target="_top" xlink:title="RangeFinder::update">
<polygon fill="white" stroke="black" points="189.5,-50 189.5,-69 296.5,-69 296.5,-50 189.5,-50"/>
<text text-anchor="middle" x="243" y="-57" font-family="Helvetica,sans-Serif" font-size="10.00">RangeFinder::update</text>
</a>
</g>
</g>
<!-- Node1&#45;&gt;Node2 -->
<g id="edge1" class="edge"><title>Node1&#45;&gt;Node2</title>
<path fill="none" stroke="midnightblue" d="M144.22,-47.137C159.477,-49.0661 175.184,-51.052 189.424,-52.8524"/>
<polygon fill="midnightblue" stroke="midnightblue" points="144.638,-43.6621 134.278,-45.88 143.76,-50.6068 144.638,-43.6621"/>
</g>
<!-- Node7 -->
<g id="node7" class="node"><title>Node7</title>
<g id="a_node7"><a xlink:href="classAP__RangeFinder__Backend.html#a195b5b0bf898929df897aaec18cddb50" target="_top" xlink:title="AP_RangeFinder_Backend\l::~AP_RangeFinder_Backend">
<polygon fill="white" stroke="black" points="170,-0.5 170,-30.5 316,-30.5 316,-0.5 170,-0.5"/>
<text text-anchor="start" x="178" y="-18.5" font-family="Helvetica,sans-Serif" font-size="10.00">AP_RangeFinder_Backend</text>
<text text-anchor="middle" x="243" y="-7.5" font-family="Helvetica,sans-Serif" font-size="10.00">::~AP_RangeFinder_Backend</text>
</a>
</g>
</g>
<!-- Node1&#45;&gt;Node7 -->
<g id="edge6" class="edge"><title>Node1&#45;&gt;Node7</title>
<path fill="none" stroke="midnightblue" d="M144.465,-27.832C152.889,-26.7669 161.446,-25.6849 169.815,-24.6268"/>
<polygon fill="midnightblue" stroke="midnightblue" points="143.76,-24.3932 134.278,-29.12 144.638,-31.3379 143.76,-24.3932"/>
</g>
<!-- Node3 -->
<g id="node3" class="node"><title>Node3</title>
<g id="a_node3"><a xlink:href="RFIND__test_8cpp.html#afe461d27b9c48d5921c00d521181f12f" target="_top" xlink:title="loop">
<polygon fill="white" stroke="black" points="403,-69 403,-88 438,-88 438,-69 403,-69"/>
<text text-anchor="middle" x="420.5" y="-76" font-family="Helvetica,sans-Serif" font-size="10.00">loop</text>
</a>
</g>
</g>
<!-- Node2&#45;&gt;Node3 -->
<g id="edge2" class="edge"><title>Node2&#45;&gt;Node3</title>
<path fill="none" stroke="midnightblue" d="M306.606,-66.2779C340.832,-69.9833 380.633,-74.2922 402.655,-76.6763"/>
<polygon fill="midnightblue" stroke="midnightblue" points="306.974,-62.7974 296.656,-65.2006 306.221,-69.7567 306.974,-62.7974"/>
</g>
<!-- Node4 -->
<g id="node4" class="node"><title>Node4</title>
<g id="a_node4"><a xlink:href="classRangeFinder.html#a95856f52f03d5234d587600faedcbfaf" target="_top" xlink:title="RangeFinder::num_sensors">
<polygon fill="white" stroke="black" points="352,-31 352,-50 489,-50 489,-31 352,-31"/>
<text text-anchor="middle" x="420.5" y="-38" font-family="Helvetica,sans-Serif" font-size="10.00">RangeFinder::num_sensors</text>
</a>
</g>
</g>
<!-- Node2&#45;&gt;Node4 -->
<g id="edge3" class="edge"><title>Node2&#45;&gt;Node4</title>
<path fill="none" stroke="midnightblue" d="M306.633,-52.7192C321.314,-51.1298 337.019,-49.4296 351.906,-47.8179"/>
<polygon fill="midnightblue" stroke="midnightblue" points="306.221,-49.2433 296.656,-53.7994 306.974,-56.2026 306.221,-49.2433"/>
</g>
<!-- Node5 -->
<g id="node5" class="node"><title>Node5</title>
<g id="a_node5"><a xlink:href="classAP__Proximity__RangeFinder.html#a00972bd55509a984f8a71c4cfdb78445" target="_top" xlink:title="AP_Proximity_RangeFinder\l::update">
<polygon fill="white" stroke="black" points="525,-47.5 525,-77.5 662,-77.5 662,-47.5 525,-47.5"/>
<text text-anchor="start" x="533" y="-65.5" font-family="Helvetica,sans-Serif" font-size="10.00">AP_Proximity_RangeFinder</text>
<text text-anchor="middle" x="593.5" y="-54.5" font-family="Helvetica,sans-Serif" font-size="10.00">::update</text>
</a>
</g>
</g>
<!-- Node4&#45;&gt;Node5 -->
<g id="edge4" class="edge"><title>Node4&#45;&gt;Node5</title>
<path fill="none" stroke="midnightblue" d="M499.1,-50.4836C507.692,-51.589 516.391,-52.7083 524.847,-53.7961"/>
<polygon fill="midnightblue" stroke="midnightblue" points="499.449,-46.9997 489.084,-49.195 498.555,-53.9425 499.449,-46.9997"/>
</g>
<!-- Node6 -->
<g id="node6" class="node"><title>Node6</title>
<g id="a_node6"><a xlink:href="RFIND__test_8cpp.html#a4fc01d736fe50cf5b977f755b675f11d" target="_top" xlink:title="setup">
<polygon fill="white" stroke="black" points="573,-9 573,-28 614,-28 614,-9 573,-9"/>
<text text-anchor="middle" x="593.5" y="-16" font-family="Helvetica,sans-Serif" font-size="10.00">setup</text>
</a>
</g>
</g>
<!-- Node4&#45;&gt;Node6 -->
<g id="edge5" class="edge"><title>Node4&#45;&gt;Node6</title>
<path fill="none" stroke="midnightblue" d="M499.038,-30.5244C526.244,-27.0241 554.536,-23.3843 572.764,-21.0391"/>
<polygon fill="midnightblue" stroke="midnightblue" points="498.555,-27.0575 489.084,-31.805 499.449,-34.0003 498.555,-27.0575"/>
</g>
</g>
</svg>
