<?xml version="1.0" encoding="UTF-8" standalone="no"?>
<!DOCTYPE svg PUBLIC "-//W3C//DTD SVG 1.1//EN"
 "http://www.w3.org/Graphics/SVG/1.1/DTD/svg11.dtd">
<!-- Generated by graphviz version 2.38.0 (20140413.2041)
 -->
<!-- Title: AP_IRLock_I2C::read_frames Pages: 1 -->
<svg width="414pt" height="39pt"
 viewBox="0.00 0.00 414.00 39.00" xmlns="http://www.w3.org/2000/svg" xmlns:xlink="http://www.w3.org/1999/xlink">
<g id="graph0" class="graph" transform="scale(1 1) rotate(0) translate(4 35)">
<title>AP_IRLock_I2C::read_frames</title>
<polygon fill="white" stroke="none" points="-4,4 -4,-35 410,-35 410,4 -4,4"/>
<!-- Node1 -->
<g id="node1" class="node"><title>Node1</title>
<polygon fill="#bfbfbf" stroke="black" points="0,-0.5 0,-30.5 113,-30.5 113,-0.5 0,-0.5"/>
<text text-anchor="start" x="8" y="-18.5" font-family="Helvetica,sans-Serif" font-size="10.00">AP_IRLock_I2C::read</text>
<text text-anchor="middle" x="56.5" y="-7.5" font-family="Helvetica,sans-Serif" font-size="10.00">_frames</text>
</g>
<!-- Node2 -->
<g id="node2" class="node"><title>Node2</title>
<g id="a_node2"><a xlink:href="classAP__IRLock__I2C.html#ab2776be3d7730f9cbb0ef149e4ac91fe" target="_top" xlink:title="AP_IRLock_I2C::init">
<polygon fill="white" stroke="black" points="149,-6 149,-25 256,-25 256,-6 149,-6"/>
<text text-anchor="middle" x="202.5" y="-13" font-family="Helvetica,sans-Serif" font-size="10.00">AP_IRLock_I2C::init</text>
</a>
</g>
</g>
<!-- Node1&#45;&gt;Node2 -->
<g id="edge1" class="edge"><title>Node1&#45;&gt;Node2</title>
<path fill="none" stroke="midnightblue" d="M123.452,-15.5C131.951,-15.5 140.562,-15.5 148.809,-15.5"/>
<polygon fill="midnightblue" stroke="midnightblue" points="123.174,-12.0001 113.174,-15.5 123.174,-19.0001 123.174,-12.0001"/>
</g>
<!-- Node3 -->
<g id="node3" class="node"><title>Node3</title>
<g id="a_node3"><a xlink:href="classAC__PrecLand__IRLock.html#ace1622d10ca91167e38db33d847b0226" target="_top" xlink:title="AC_PrecLand_IRLock\l::init">
<polygon fill="white" stroke="black" points="292,-0.5 292,-30.5 406,-30.5 406,-0.5 292,-0.5"/>
<text text-anchor="start" x="300" y="-18.5" font-family="Helvetica,sans-Serif" font-size="10.00">AC_PrecLand_IRLock</text>
<text text-anchor="middle" x="349" y="-7.5" font-family="Helvetica,sans-Serif" font-size="10.00">::init</text>
</a>
</g>
</g>
<!-- Node2&#45;&gt;Node3 -->
<g id="edge2" class="edge"><title>Node2&#45;&gt;Node3</title>
<path fill="none" stroke="midnightblue" d="M266.305,-15.5C274.79,-15.5 283.45,-15.5 291.809,-15.5"/>
<polygon fill="midnightblue" stroke="midnightblue" points="266.077,-12.0001 256.077,-15.5 266.077,-19.0001 266.077,-12.0001"/>
</g>
</g>
</svg>
