<?xml version="1.0" encoding="UTF-8" standalone="no"?>
<!DOCTYPE svg PUBLIC "-//W3C//DTD SVG 1.1//EN"
 "http://www.w3.org/Graphics/SVG/1.1/DTD/svg11.dtd">
<!-- Generated by graphviz version 2.38.0 (20140413.2041)
 -->
<!-- Title: NavEKF2_core::writeOptFlowMeas Pages: 1 -->
<svg width="875pt" height="127pt"
 viewBox="0.00 0.00 875.00 127.00" xmlns="http://www.w3.org/2000/svg" xmlns:xlink="http://www.w3.org/1999/xlink">
<g id="graph0" class="graph" transform="scale(1 1) rotate(0) translate(4 123)">
<title>NavEKF2_core::writeOptFlowMeas</title>
<polygon fill="white" stroke="none" points="-4,4 -4,-123 871,-123 871,4 -4,4"/>
<!-- Node1 -->
<g id="node1" class="node"><title>Node1</title>
<polygon fill="#bfbfbf" stroke="black" points="0,-28 0,-47 171,-47 171,-28 0,-28"/>
<text text-anchor="middle" x="85.5" y="-35" font-family="Helvetica,sans-Serif" font-size="10.00">NavEKF2_core::writeOptFlowMeas</text>
</g>
<!-- Node2 -->
<g id="node2" class="node"><title>Node2</title>
<g id="a_node2"><a xlink:href="classNavEKF2.html#acb6a58ea58206635a87e94d9a924717c" target="_top" xlink:title="NavEKF2::writeOptFlowMeas">
<polygon fill="white" stroke="black" points="207,-28 207,-47 354,-47 354,-28 207,-28"/>
<text text-anchor="middle" x="280.5" y="-35" font-family="Helvetica,sans-Serif" font-size="10.00">NavEKF2::writeOptFlowMeas</text>
</a>
</g>
</g>
<!-- Node1&#45;&gt;Node2 -->
<g id="edge1" class="edge"><title>Node1&#45;&gt;Node2</title>
<path fill="none" stroke="midnightblue" d="M181.278,-37.5C189.925,-37.5 198.591,-37.5 206.997,-37.5"/>
<polygon fill="midnightblue" stroke="midnightblue" points="181.153,-34.0001 171.153,-37.5 181.153,-41.0001 181.153,-34.0001"/>
</g>
<!-- Node3 -->
<g id="node3" class="node"><title>Node3</title>
<g id="a_node3"><a xlink:href="classNavEKF2.html#ab18af2714c15fcf190493c01e2a28c73" target="_top" xlink:title="NavEKF2::activeCores">
<polygon fill="white" stroke="black" points="405.5,-50 405.5,-69 523.5,-69 523.5,-50 405.5,-50"/>
<text text-anchor="middle" x="464.5" y="-57" font-family="Helvetica,sans-Serif" font-size="10.00">NavEKF2::activeCores</text>
</a>
</g>
</g>
<!-- Node2&#45;&gt;Node3 -->
<g id="edge2" class="edge"><title>Node2&#45;&gt;Node3</title>
<path fill="none" stroke="midnightblue" d="M364.278,-47.5061C378.184,-49.1871 392.349,-50.8993 405.459,-52.484"/>
<polygon fill="midnightblue" stroke="midnightblue" points="364.564,-44.0153 354.216,-46.2898 363.724,-50.9647 364.564,-44.0153"/>
</g>
<!-- Node7 -->
<g id="node7" class="node"><title>Node7</title>
<g id="a_node7"><a xlink:href="classAP__AHRS__NavEKF.html#ad76ccff9976368f00a842595f15748a3" target="_top" xlink:title="AP_AHRS_NavEKF::writeOpt\lFlowMeas">
<polygon fill="white" stroke="black" points="390,-0.5 390,-30.5 539,-30.5 539,-0.5 390,-0.5"/>
<text text-anchor="start" x="398" y="-18.5" font-family="Helvetica,sans-Serif" font-size="10.00">AP_AHRS_NavEKF::writeOpt</text>
<text text-anchor="middle" x="464.5" y="-7.5" font-family="Helvetica,sans-Serif" font-size="10.00">FlowMeas</text>
</a>
</g>
</g>
<!-- Node2&#45;&gt;Node7 -->
<g id="edge6" class="edge"><title>Node2&#45;&gt;Node7</title>
<path fill="none" stroke="midnightblue" d="M364.155,-27.5087C372.676,-26.4787 381.295,-25.4369 389.71,-24.4196"/>
<polygon fill="midnightblue" stroke="midnightblue" points="363.724,-24.0353 354.216,-28.7102 364.564,-30.9847 363.724,-24.0353"/>
</g>
<!-- Node4 -->
<g id="node4" class="node"><title>Node4</title>
<g id="a_node4"><a xlink:href="classDataFlash__Class.html#a46e58faaa53c44516433f6bb7bde4163" target="_top" xlink:title="DataFlash_Class::Log\l_Write_POS">
<polygon fill="white" stroke="black" points="590,-88.5 590,-118.5 704,-118.5 704,-88.5 590,-88.5"/>
<text text-anchor="start" x="598" y="-106.5" font-family="Helvetica,sans-Serif" font-size="10.00">DataFlash_Class::Log</text>
<text text-anchor="middle" x="647" y="-95.5" font-family="Helvetica,sans-Serif" font-size="10.00">_Write_POS</text>
</a>
</g>
</g>
<!-- Node3&#45;&gt;Node4 -->
<g id="edge3" class="edge"><title>Node3&#45;&gt;Node4</title>
<path fill="none" stroke="midnightblue" d="M514.647,-71.4804C537.875,-77.1426 565.721,-83.9307 589.786,-89.7967"/>
<polygon fill="midnightblue" stroke="midnightblue" points="515.21,-68.0153 504.666,-69.0473 513.552,-74.8162 515.21,-68.0153"/>
</g>
<!-- Node6 -->
<g id="node6" class="node"><title>Node6</title>
<g id="a_node6"><a xlink:href="classGCS__MAVLINK.html#a558ba3447048b78cb9dde460053e2741" target="_top" xlink:title="GCS_MAVLINK::send_ahrs2">
<polygon fill="white" stroke="black" points="575,-50 575,-69 719,-69 719,-50 575,-50"/>
<text text-anchor="middle" x="647" y="-57" font-family="Helvetica,sans-Serif" font-size="10.00">GCS_MAVLINK::send_ahrs2</text>
</a>
</g>
</g>
<!-- Node3&#45;&gt;Node6 -->
<g id="edge5" class="edge"><title>Node3&#45;&gt;Node6</title>
<path fill="none" stroke="midnightblue" d="M533.705,-59.5C547.117,-59.5 561.221,-59.5 574.73,-59.5"/>
<polygon fill="midnightblue" stroke="midnightblue" points="533.605,-56.0001 523.605,-59.5 533.605,-63.0001 533.605,-56.0001"/>
</g>
<!-- Node5 -->
<g id="node5" class="node"><title>Node5</title>
<g id="a_node5"><a xlink:href="classDataFlash__Class.html#a7868f0e3dcef65ea5b5fcae618f4c5d4" target="_top" xlink:title="DataFlash_Class::get\l_structures">
<polygon fill="white" stroke="black" points="755,-88.5 755,-118.5 867,-118.5 867,-88.5 755,-88.5"/>
<text text-anchor="start" x="763" y="-106.5" font-family="Helvetica,sans-Serif" font-size="10.00">DataFlash_Class::get</text>
<text text-anchor="middle" x="811" y="-95.5" font-family="Helvetica,sans-Serif" font-size="10.00">_structures</text>
</a>
</g>
</g>
<!-- Node4&#45;&gt;Node5 -->
<g id="edge4" class="edge"><title>Node4&#45;&gt;Node5</title>
<path fill="none" stroke="midnightblue" d="M714.39,-103.5C727.885,-103.5 741.94,-103.5 754.988,-103.5"/>
<polygon fill="midnightblue" stroke="midnightblue" points="714.205,-100 704.205,-103.5 714.205,-107 714.205,-100"/>
</g>
<!-- Node8 -->
<g id="node8" class="node"><title>Node8</title>
<g id="a_node8"><a xlink:href="classAP__AHRS__NavEKF.html#add98225e5350abab51cccd311f5496c3" target="_top" xlink:title="AP_AHRS_NavEKF::get\l_NavEKF3_const">
<polygon fill="white" stroke="black" points="584,-0.5 584,-30.5 710,-30.5 710,-0.5 584,-0.5"/>
<text text-anchor="start" x="592" y="-18.5" font-family="Helvetica,sans-Serif" font-size="10.00">AP_AHRS_NavEKF::get</text>
<text text-anchor="middle" x="647" y="-7.5" font-family="Helvetica,sans-Serif" font-size="10.00">_NavEKF3_const</text>
</a>
</g>
</g>
<!-- Node7&#45;&gt;Node8 -->
<g id="edge7" class="edge"><title>Node7&#45;&gt;Node8</title>
<path fill="none" stroke="midnightblue" d="M549.323,-15.5C560.933,-15.5 572.686,-15.5 583.807,-15.5"/>
<polygon fill="midnightblue" stroke="midnightblue" points="549.177,-12.0001 539.177,-15.5 549.177,-19.0001 549.177,-12.0001"/>
</g>
</g>
</svg>
