<?xml version="1.0" encoding="UTF-8" standalone="no"?>
<!DOCTYPE svg PUBLIC "-//W3C//DTD SVG 1.1//EN"
 "http://www.w3.org/Graphics/SVG/1.1/DTD/svg11.dtd">
<!-- Generated by graphviz version 2.38.0 (20140413.2041)
 -->
<!-- Title: AP_GPS_UBLOX::log_rxm_rawx Pages: 1 -->
<svg width="514pt" height="28pt"
 viewBox="0.00 0.00 514.00 28.00" xmlns="http://www.w3.org/2000/svg" xmlns:xlink="http://www.w3.org/1999/xlink">
<g id="graph0" class="graph" transform="scale(1 1) rotate(0) translate(4 24)">
<title>AP_GPS_UBLOX::log_rxm_rawx</title>
<polygon fill="white" stroke="none" points="-4,4 -4,-24 510,-24 510,4 -4,4"/>
<!-- Node1 -->
<g id="node1" class="node"><title>Node1</title>
<polygon fill="#bfbfbf" stroke="black" points="0,-0.5 0,-19.5 162,-19.5 162,-0.5 0,-0.5"/>
<text text-anchor="middle" x="81" y="-7.5" font-family="Helvetica,sans-Serif" font-size="10.00">AP_GPS_UBLOX::log_rxm_rawx</text>
</g>
<!-- Node2 -->
<g id="node2" class="node"><title>Node2</title>
<g id="a_node2"><a xlink:href="classAP__GPS__UBLOX.html#a16ae8ab4b0babfbc2245beb0a438ec33" target="_top" xlink:title="AP_GPS_UBLOX::_parse_gps">
<polygon fill="white" stroke="black" points="198,-0.5 198,-19.5 350,-19.5 350,-0.5 198,-0.5"/>
<text text-anchor="middle" x="274" y="-7.5" font-family="Helvetica,sans-Serif" font-size="10.00">AP_GPS_UBLOX::_parse_gps</text>
</a>
</g>
</g>
<!-- Node1&#45;&gt;Node2 -->
<g id="edge1" class="edge"><title>Node1&#45;&gt;Node2</title>
<path fill="none" stroke="midnightblue" d="M172.223,-10C180.822,-10 189.479,-10 197.912,-10"/>
<polygon fill="midnightblue" stroke="midnightblue" points="172.171,-6.5001 162.171,-10 172.171,-13.5001 172.171,-6.5001"/>
</g>
<!-- Node3 -->
<g id="node3" class="node"><title>Node3</title>
<g id="a_node3"><a xlink:href="classAP__GPS__UBLOX.html#a09825f5ca37ee9bdb5e0939a4073a84e" target="_top" xlink:title="AP_GPS_UBLOX::read">
<polygon fill="white" stroke="black" points="386,-0.5 386,-19.5 506,-19.5 506,-0.5 386,-0.5"/>
<text text-anchor="middle" x="446" y="-7.5" font-family="Helvetica,sans-Serif" font-size="10.00">AP_GPS_UBLOX::read</text>
</a>
</g>
</g>
<!-- Node2&#45;&gt;Node3 -->
<g id="edge2" class="edge"><title>Node2&#45;&gt;Node3</title>
<path fill="none" stroke="midnightblue" d="M360.233,-10C368.916,-10 377.597,-10 385.911,-10"/>
<polygon fill="midnightblue" stroke="midnightblue" points="360.059,-6.5001 350.059,-10 360.059,-13.5001 360.059,-6.5001"/>
</g>
</g>
</svg>
