<?xml version="1.0" encoding="UTF-8" standalone="no"?>
<!DOCTYPE svg PUBLIC "-//W3C//DTD SVG 1.1//EN"
 "http://www.w3.org/Graphics/SVG/1.1/DTD/svg11.dtd">
<!-- Generated by graphviz version 2.38.0 (20140413.2041)
 -->
<!-- Title: VRBRAIN::VRBRAINScheduler::_run_timers Pages: 1 -->
<svg width="554pt" height="88pt"
 viewBox="0.00 0.00 554.00 88.00" xmlns="http://www.w3.org/2000/svg" xmlns:xlink="http://www.w3.org/1999/xlink">
<g id="graph0" class="graph" transform="scale(1 1) rotate(0) translate(4 84)">
<title>VRBRAIN::VRBRAINScheduler::_run_timers</title>
<polygon fill="white" stroke="none" points="-4,4 -4,-84 550,-84 550,4 -4,4"/>
<!-- Node1 -->
<g id="node1" class="node"><title>Node1</title>
<polygon fill="#bfbfbf" stroke="black" points="0,-24.5 0,-54.5 158,-54.5 158,-24.5 0,-24.5"/>
<text text-anchor="start" x="8" y="-42.5" font-family="Helvetica,sans-Serif" font-size="10.00">VRBRAIN::VRBRAINScheduler</text>
<text text-anchor="middle" x="79" y="-31.5" font-family="Helvetica,sans-Serif" font-size="10.00">::_run_timers</text>
</g>
<!-- Node2 -->
<g id="node2" class="node"><title>Node2</title>
<g id="a_node2"><a xlink:href="classVRBRAIN_1_1VRBRAINScheduler.html#a9ee4d617834fabe5361a21e8f2ca167f" target="_top" xlink:title="VRBRAIN::VRBRAINScheduler\l::_timer_thread">
<polygon fill="white" stroke="black" points="194,-49.5 194,-79.5 352,-79.5 352,-49.5 194,-49.5"/>
<text text-anchor="start" x="202" y="-67.5" font-family="Helvetica,sans-Serif" font-size="10.00">VRBRAIN::VRBRAINScheduler</text>
<text text-anchor="middle" x="273" y="-56.5" font-family="Helvetica,sans-Serif" font-size="10.00">::_timer_thread</text>
</a>
</g>
</g>
<!-- Node1&#45;&gt;Node2 -->
<g id="edge1" class="edge"><title>Node1&#45;&gt;Node2</title>
<path fill="none" stroke="midnightblue" d="M168.153,-50.9782C176.769,-52.1001 185.47,-53.233 193.975,-54.3406"/>
<polygon fill="midnightblue" stroke="midnightblue" points="168.462,-47.489 158.094,-49.6685 167.558,-54.4304 168.462,-47.489"/>
</g>
<!-- Node4 -->
<g id="node4" class="node"><title>Node4</title>
<g id="a_node4"><a xlink:href="classVRBRAIN_1_1VRBRAINScheduler.html#a3e2a978be4486cf1f29d2ca8fe8f5ba7" target="_top" xlink:title="VRBRAIN::VRBRAINScheduler\l::resume_timer_procs">
<polygon fill="white" stroke="black" points="194,-0.5 194,-30.5 352,-30.5 352,-0.5 194,-0.5"/>
<text text-anchor="start" x="202" y="-18.5" font-family="Helvetica,sans-Serif" font-size="10.00">VRBRAIN::VRBRAINScheduler</text>
<text text-anchor="middle" x="273" y="-7.5" font-family="Helvetica,sans-Serif" font-size="10.00">::resume_timer_procs</text>
</a>
</g>
</g>
<!-- Node1&#45;&gt;Node4 -->
<g id="edge3" class="edge"><title>Node1&#45;&gt;Node4</title>
<path fill="none" stroke="midnightblue" d="M168.153,-28.4809C176.769,-27.4039 185.47,-26.3163 193.975,-25.2531"/>
<polygon fill="midnightblue" stroke="midnightblue" points="167.582,-25.0249 158.094,-29.7383 168.451,-31.9708 167.582,-25.0249"/>
</g>
<!-- Node3 -->
<g id="node3" class="node"><title>Node3</title>
<g id="a_node3"><a xlink:href="classVRBRAIN_1_1VRBRAINScheduler.html#abe39debb8df3d35a3599c87fffb91cde" target="_top" xlink:title="VRBRAIN::VRBRAINScheduler\l::init">
<polygon fill="white" stroke="black" points="388,-49.5 388,-79.5 546,-79.5 546,-49.5 388,-49.5"/>
<text text-anchor="start" x="396" y="-67.5" font-family="Helvetica,sans-Serif" font-size="10.00">VRBRAIN::VRBRAINScheduler</text>
<text text-anchor="middle" x="467" y="-56.5" font-family="Helvetica,sans-Serif" font-size="10.00">::init</text>
</a>
</g>
</g>
<!-- Node2&#45;&gt;Node3 -->
<g id="edge2" class="edge"><title>Node2&#45;&gt;Node3</title>
<path fill="none" stroke="midnightblue" d="M362.153,-64.5C370.769,-64.5 379.47,-64.5 387.975,-64.5"/>
<polygon fill="midnightblue" stroke="midnightblue" points="362.094,-61.0001 352.094,-64.5 362.094,-68.0001 362.094,-61.0001"/>
</g>
</g>
</svg>
