<?xml version="1.0" encoding="UTF-8" standalone="no"?>
<!DOCTYPE svg PUBLIC "-//W3C//DTD SVG 1.1//EN"
 "http://www.w3.org/Graphics/SVG/1.1/DTD/svg11.dtd">
<!-- Generated by graphviz version 2.38.0 (20140413.2041)
 -->
<!-- Title: DataFlash_Block::Prep Pages: 1 -->
<svg width="686pt" height="292pt"
 viewBox="0.00 0.00 686.00 291.50" xmlns="http://www.w3.org/2000/svg" xmlns:xlink="http://www.w3.org/1999/xlink">
<g id="graph0" class="graph" transform="scale(1 1) rotate(0) translate(4 287.5)">
<title>DataFlash_Block::Prep</title>
<polygon fill="white" stroke="none" points="-4,4 -4,-287.5 682,-287.5 682,4 -4,4"/>
<!-- Node1 -->
<g id="node1" class="node"><title>Node1</title>
<polygon fill="#bfbfbf" stroke="black" points="0,-214.5 0,-233.5 118,-233.5 118,-214.5 0,-214.5"/>
<text text-anchor="middle" x="59" y="-221.5" font-family="Helvetica,sans-Serif" font-size="10.00">DataFlash_Block::Prep</text>
</g>
<!-- Node2 -->
<g id="node2" class="node"><title>Node2</title>
<g id="a_node2"><a xlink:href="classAP__HAL_1_1Util.html#a973ee89f8eee7af3a4d2a3eb700cbf3c" target="_top" xlink:title="AP_HAL::Util::get_soft\l_armed">
<polygon fill="white" stroke="black" points="168.5,-253 168.5,-283 285.5,-283 285.5,-253 168.5,-253"/>
<text text-anchor="start" x="176.5" y="-271" font-family="Helvetica,sans-Serif" font-size="10.00">AP_HAL::Util::get_soft</text>
<text text-anchor="middle" x="227" y="-260" font-family="Helvetica,sans-Serif" font-size="10.00">_armed</text>
</a>
</g>
</g>
<!-- Node1&#45;&gt;Node2 -->
<g id="edge1" class="edge"><title>Node1&#45;&gt;Node2</title>
<path fill="none" stroke="midnightblue" d="M96.0195,-233.547C114.542,-238.457 137.72,-244.6 159.353,-250.335"/>
<polygon fill="midnightblue" stroke="midnightblue" points="158.6,-253.756 169.162,-252.935 160.393,-246.989 158.6,-253.756"/>
</g>
<!-- Node3 -->
<g id="node3" class="node"><title>Node3</title>
<g id="a_node3"><a xlink:href="classDataFlash__Block.html#aaa5ab749b4efb155c6e3f145b987421b" target="_top" xlink:title="DataFlash_Block::NeedErase">
<polygon fill="white" stroke="black" points="154,-214.5 154,-233.5 300,-233.5 300,-214.5 154,-214.5"/>
<text text-anchor="middle" x="227" y="-221.5" font-family="Helvetica,sans-Serif" font-size="10.00">DataFlash_Block::NeedErase</text>
</a>
</g>
</g>
<!-- Node1&#45;&gt;Node3 -->
<g id="edge2" class="edge"><title>Node1&#45;&gt;Node3</title>
<path fill="none" stroke="midnightblue" d="M118.059,-224C126.392,-224 135.094,-224 143.785,-224"/>
<polygon fill="midnightblue" stroke="midnightblue" points="143.959,-227.5 153.959,-224 143.959,-220.5 143.959,-227.5"/>
</g>
<!-- Node9 -->
<g id="node9" class="node"><title>Node9</title>
<g id="a_node9"><a xlink:href="classDataFlash__Block.html#a731e8607ad128e986be1236d44e8d196" target="_top" xlink:title="DataFlash_Block::EraseAll">
<polygon fill="white" stroke="black" points="160,-110.5 160,-129.5 294,-129.5 294,-110.5 160,-110.5"/>
<text text-anchor="middle" x="227" y="-117.5" font-family="Helvetica,sans-Serif" font-size="10.00">DataFlash_Block::EraseAll</text>
</a>
</g>
</g>
<!-- Node1&#45;&gt;Node9 -->
<g id="edge11" class="edge"><title>Node1&#45;&gt;Node9</title>
<path fill="none" stroke="midnightblue" d="M75.3193,-214.402C104.349,-196.215 167.556,-156.615 202.168,-134.931"/>
<polygon fill="midnightblue" stroke="midnightblue" points="204.102,-137.85 210.718,-129.574 200.385,-131.918 204.102,-137.85"/>
</g>
<!-- Node4 -->
<g id="node4" class="node"><title>Node4</title>
<g id="a_node4"><a xlink:href="classDataFlash__Block.html#a7e3413fd597032d4f4692129d2c5d076" target="_top" xlink:title="DataFlash_Block::StartRead">
<polygon fill="white" stroke="black" points="339,-252.5 339,-271.5 481,-271.5 481,-252.5 339,-252.5"/>
<text text-anchor="middle" x="410" y="-259.5" font-family="Helvetica,sans-Serif" font-size="10.00">DataFlash_Block::StartRead</text>
</a>
</g>
</g>
<!-- Node3&#45;&gt;Node4 -->
<g id="edge3" class="edge"><title>Node3&#45;&gt;Node4</title>
<path fill="none" stroke="midnightblue" d="M273.674,-233.589C297.989,-238.694 328.08,-245.011 353.708,-250.392"/>
<polygon fill="midnightblue" stroke="midnightblue" points="353.149,-253.851 363.654,-252.48 354.587,-247 353.149,-253.851"/>
</g>
<!-- Node8 -->
<g id="node8" class="node"><title>Node8</title>
<g id="a_node8"><a xlink:href="classDataFlash__Block.html#a7809250b6f04b49cd4f1773bc3d245bf" target="_top" xlink:title="DataFlash_Block::ReadBlock">
<polygon fill="white" stroke="black" points="337,-214.5 337,-233.5 483,-233.5 483,-214.5 337,-214.5"/>
<text text-anchor="middle" x="410" y="-221.5" font-family="Helvetica,sans-Serif" font-size="10.00">DataFlash_Block::ReadBlock</text>
</a>
</g>
</g>
<!-- Node3&#45;&gt;Node8 -->
<g id="edge7" class="edge"><title>Node3&#45;&gt;Node8</title>
<path fill="none" stroke="midnightblue" d="M300.056,-224C308.866,-224 317.92,-224 326.864,-224"/>
<polygon fill="midnightblue" stroke="midnightblue" points="326.896,-227.5 336.896,-224 326.896,-220.5 326.896,-227.5"/>
</g>
<!-- Node5 -->
<g id="node5" class="node"><title>Node5</title>
<g id="a_node5"><a xlink:href="classDataFlash__Block.html#a5adc35354a63752dc3c855b18e83c175" target="_top" xlink:title="DataFlash_Block::WaitReady">
<polygon fill="white" stroke="black" points="526,-176.5 526,-195.5 672,-195.5 672,-176.5 526,-176.5"/>
<text text-anchor="middle" x="599" y="-183.5" font-family="Helvetica,sans-Serif" font-size="10.00">DataFlash_Block::WaitReady</text>
</a>
</g>
</g>
<!-- Node4&#45;&gt;Node5 -->
<g id="edge4" class="edge"><title>Node4&#45;&gt;Node5</title>
<path fill="none" stroke="midnightblue" d="M462.72,-252.416C470.136,-249.951 477.46,-246.863 484,-243 504.031,-231.168 499.877,-216.674 520,-205 523.73,-202.836 527.697,-200.918 531.79,-199.218"/>
<polygon fill="midnightblue" stroke="midnightblue" points="533.345,-202.375 541.517,-195.632 530.923,-195.807 533.345,-202.375"/>
</g>
<!-- Node6 -->
<g id="node6" class="node"><title>Node6</title>
<g id="a_node6"><a xlink:href="classDataFlash__Block.html#a0bc13dd2c8ec2d928e3409c431fb1430" target="_top" xlink:title="DataFlash_Block::PageToBuffer">
<polygon fill="white" stroke="black" points="520,-214.5 520,-233.5 678,-233.5 678,-214.5 520,-214.5"/>
<text text-anchor="middle" x="599" y="-221.5" font-family="Helvetica,sans-Serif" font-size="10.00">DataFlash_Block::PageToBuffer</text>
</a>
</g>
</g>
<!-- Node4&#45;&gt;Node6 -->
<g id="edge5" class="edge"><title>Node4&#45;&gt;Node6</title>
<path fill="none" stroke="midnightblue" d="M458.188,-252.411C483.42,-247.284 514.673,-240.933 541.227,-235.537"/>
<polygon fill="midnightblue" stroke="midnightblue" points="542.049,-238.941 551.151,-233.52 540.655,-232.082 542.049,-238.941"/>
</g>
<!-- Node7 -->
<g id="node7" class="node"><title>Node7</title>
<g id="a_node7"><a xlink:href="classDataFlash__Block.html#a4ba0e8bf9f8028d04422e8688efff2c2" target="_top" xlink:title="DataFlash_Block::BlockRead">
<polygon fill="white" stroke="black" points="526,-252.5 526,-271.5 672,-271.5 672,-252.5 526,-252.5"/>
<text text-anchor="middle" x="599" y="-259.5" font-family="Helvetica,sans-Serif" font-size="10.00">DataFlash_Block::BlockRead</text>
</a>
</g>
</g>
<!-- Node4&#45;&gt;Node7 -->
<g id="edge6" class="edge"><title>Node4&#45;&gt;Node7</title>
<path fill="none" stroke="midnightblue" d="M481.164,-262C492.466,-262 504.254,-262 515.808,-262"/>
<polygon fill="midnightblue" stroke="midnightblue" points="515.884,-265.5 525.884,-262 515.884,-258.5 515.884,-265.5"/>
</g>
<!-- Node8&#45;&gt;Node5 -->
<g id="edge8" class="edge"><title>Node8&#45;&gt;Node5</title>
<path fill="none" stroke="midnightblue" d="M458.188,-214.411C483.42,-209.284 514.673,-202.933 541.227,-197.537"/>
<polygon fill="midnightblue" stroke="midnightblue" points="542.049,-200.941 551.151,-195.52 540.655,-194.082 542.049,-200.941"/>
</g>
<!-- Node8&#45;&gt;Node6 -->
<g id="edge10" class="edge"><title>Node8&#45;&gt;Node6</title>
<path fill="none" stroke="midnightblue" d="M483.032,-224C491.778,-224 500.789,-224 509.736,-224"/>
<polygon fill="midnightblue" stroke="midnightblue" points="509.793,-227.5 519.793,-224 509.793,-220.5 509.793,-227.5"/>
</g>
<!-- Node8&#45;&gt;Node7 -->
<g id="edge9" class="edge"><title>Node8&#45;&gt;Node7</title>
<path fill="none" stroke="midnightblue" d="M458.188,-233.589C483.42,-238.716 514.673,-245.067 541.227,-250.463"/>
<polygon fill="midnightblue" stroke="midnightblue" points="540.655,-253.918 551.151,-252.48 542.049,-247.059 540.655,-253.918"/>
</g>
<!-- Node10 -->
<g id="node10" class="node"><title>Node10</title>
<g id="a_node10"><a xlink:href="classDataFlash__Block.html#acf007057a30bdeff9e50da4588a3e993" target="_top" xlink:title="DataFlash_Block::BlockErase">
<polygon fill="white" stroke="black" points="336,-88.5 336,-107.5 484,-107.5 484,-88.5 336,-88.5"/>
<text text-anchor="middle" x="410" y="-95.5" font-family="Helvetica,sans-Serif" font-size="10.00">DataFlash_Block::BlockErase</text>
</a>
</g>
</g>
<!-- Node9&#45;&gt;Node10 -->
<g id="edge12" class="edge"><title>Node9&#45;&gt;Node10</title>
<path fill="none" stroke="midnightblue" d="M294.113,-111.964C304.368,-110.718 315.075,-109.416 325.65,-108.131"/>
<polygon fill="midnightblue" stroke="midnightblue" points="326.225,-111.587 335.73,-106.906 325.381,-104.638 326.225,-111.587"/>
</g>
<!-- Node11 -->
<g id="node11" class="node"><title>Node11</title>
<g id="a_node11"><a xlink:href="classAP__HAL_1_1Scheduler.html#ab3175e2e6223ccfe82f957e41cc12b26" target="_top" xlink:title="AP_HAL::Scheduler::\ldelay">
<polygon fill="white" stroke="black" points="355,-39 355,-69 465,-69 465,-39 355,-39"/>
<text text-anchor="start" x="363" y="-57" font-family="Helvetica,sans-Serif" font-size="10.00">AP_HAL::Scheduler::</text>
<text text-anchor="middle" x="410" y="-46" font-family="Helvetica,sans-Serif" font-size="10.00">delay</text>
</a>
</g>
</g>
<!-- Node9&#45;&gt;Node11 -->
<g id="edge13" class="edge"><title>Node9&#45;&gt;Node11</title>
<path fill="none" stroke="midnightblue" d="M252.364,-110.489C274.198,-102.028 307.137,-89.4176 336,-79 341.954,-76.8511 348.197,-74.6437 354.419,-72.4728"/>
<polygon fill="midnightblue" stroke="midnightblue" points="355.833,-75.6869 364.136,-69.1048 353.541,-69.0729 355.833,-75.6869"/>
</g>
<!-- Node12 -->
<g id="node12" class="node"><title>Node12</title>
<g id="a_node12"><a xlink:href="classDataFlash__Block.html#ae2287cdccb1f0ee57b5af530ba6db48e" target="_top" xlink:title="DataFlash_Block::StartWrite">
<polygon fill="white" stroke="black" points="339,-176.5 339,-195.5 481,-195.5 481,-176.5 339,-176.5"/>
<text text-anchor="middle" x="410" y="-183.5" font-family="Helvetica,sans-Serif" font-size="10.00">DataFlash_Block::StartWrite</text>
</a>
</g>
</g>
<!-- Node9&#45;&gt;Node12 -->
<g id="edge14" class="edge"><title>Node9&#45;&gt;Node12</title>
<path fill="none" stroke="midnightblue" d="M248.379,-129.661C269.854,-139.607 304.82,-155.145 336,-166 343.939,-168.764 352.468,-171.395 360.797,-173.788"/>
<polygon fill="midnightblue" stroke="midnightblue" points="359.862,-177.161 370.435,-176.48 361.746,-170.419 359.862,-177.161"/>
</g>
<!-- Node13 -->
<g id="node13" class="node"><title>Node13</title>
<g id="a_node13"><a xlink:href="classDataFlash__Backend.html#aed94b3ad1fd7333ddd7c2e20c3433d52" target="_top" xlink:title="DataFlash_Backend::\lWriteBlock">
<polygon fill="white" stroke="black" points="354.5,-127 354.5,-157 465.5,-157 465.5,-127 354.5,-127"/>
<text text-anchor="start" x="362.5" y="-145" font-family="Helvetica,sans-Serif" font-size="10.00">DataFlash_Backend::</text>
<text text-anchor="middle" x="410" y="-134" font-family="Helvetica,sans-Serif" font-size="10.00">WriteBlock</text>
</a>
</g>
</g>
<!-- Node9&#45;&gt;Node13 -->
<g id="edge16" class="edge"><title>Node9&#45;&gt;Node13</title>
<path fill="none" stroke="midnightblue" d="M294.113,-128.036C310.505,-130.028 328.05,-132.161 344.369,-134.144"/>
<polygon fill="midnightblue" stroke="midnightblue" points="344.001,-137.625 354.351,-135.358 344.846,-130.676 344.001,-137.625"/>
</g>
<!-- Node15 -->
<g id="node15" class="node"><title>Node15</title>
<g id="a_node15"><a xlink:href="classDataFlash__Block.html#a0deafc6a97e637557305a77d2123d42c" target="_top" xlink:title="DataFlash_Block::FinishWrite">
<polygon fill="white" stroke="black" points="336.5,-0.5 336.5,-19.5 483.5,-19.5 483.5,-0.5 336.5,-0.5"/>
<text text-anchor="middle" x="410" y="-7.5" font-family="Helvetica,sans-Serif" font-size="10.00">DataFlash_Block::FinishWrite</text>
</a>
</g>
</g>
<!-- Node9&#45;&gt;Node15 -->
<g id="edge18" class="edge"><title>Node9&#45;&gt;Node15</title>
<path fill="none" stroke="midnightblue" d="M236.502,-110.418C253.514,-91.8456 293.752,-50.8553 336,-29 340.536,-26.6533 345.385,-24.5806 350.345,-22.753"/>
<polygon fill="midnightblue" stroke="midnightblue" points="351.596,-26.0252 359.968,-19.5327 349.375,-19.387 351.596,-26.0252"/>
</g>
<!-- Node12&#45;&gt;Node5 -->
<g id="edge15" class="edge"><title>Node12&#45;&gt;Node5</title>
<path fill="none" stroke="midnightblue" d="M481.164,-186C492.466,-186 504.254,-186 515.808,-186"/>
<polygon fill="midnightblue" stroke="midnightblue" points="515.884,-189.5 525.884,-186 515.884,-182.5 515.884,-189.5"/>
</g>
<!-- Node14 -->
<g id="node14" class="node"><title>Node14</title>
<g id="a_node14"><a xlink:href="classDataFlash__Backend.html#a0807326aa0d3df61375bc1c949d2a125" target="_top" xlink:title="DataFlash_Backend::\lWritePrioritisedBlock">
<polygon fill="white" stroke="black" points="543.5,-127 543.5,-157 654.5,-157 654.5,-127 543.5,-127"/>
<text text-anchor="start" x="551.5" y="-145" font-family="Helvetica,sans-Serif" font-size="10.00">DataFlash_Backend::</text>
<text text-anchor="middle" x="599" y="-134" font-family="Helvetica,sans-Serif" font-size="10.00">WritePrioritisedBlock</text>
</a>
</g>
</g>
<!-- Node13&#45;&gt;Node14 -->
<g id="edge17" class="edge"><title>Node13&#45;&gt;Node14</title>
<path fill="none" stroke="midnightblue" d="M465.591,-142C486.717,-142 511.068,-142 533.081,-142"/>
<polygon fill="midnightblue" stroke="midnightblue" points="533.341,-145.5 543.341,-142 533.341,-138.5 533.341,-145.5"/>
</g>
<!-- Node16 -->
<g id="node16" class="node"><title>Node16</title>
<g id="a_node16"><a xlink:href="classDataFlash__Block.html#ae12775fef1d395f4a9d19757b9187cff" target="_top" xlink:title="DataFlash_Block::BufferToPage">
<polygon fill="white" stroke="black" points="520,-0.5 520,-19.5 678,-19.5 678,-0.5 520,-0.5"/>
<text text-anchor="middle" x="599" y="-7.5" font-family="Helvetica,sans-Serif" font-size="10.00">DataFlash_Block::BufferToPage</text>
</a>
</g>
</g>
<!-- Node15&#45;&gt;Node16 -->
<g id="edge19" class="edge"><title>Node15&#45;&gt;Node16</title>
<path fill="none" stroke="midnightblue" d="M483.567,-10C492.126,-10 500.933,-10 509.679,-10"/>
<polygon fill="midnightblue" stroke="midnightblue" points="509.899,-13.5001 519.899,-10 509.899,-6.5001 509.899,-13.5001"/>
</g>
</g>
</svg>
