<?xml version="1.0" encoding="UTF-8" standalone="no"?>
<!DOCTYPE svg PUBLIC "-//W3C//DTD SVG 1.1//EN"
 "http://www.w3.org/Graphics/SVG/1.1/DTD/svg11.dtd">
<!-- Generated by graphviz version 2.38.0 (20140413.2041)
 -->
<!-- Title: AC_PosControl::get_stopping_point_z Pages: 1 -->
<!--zoomable 167 -->
<svg id="main" version="1.1" xmlns="http://www.w3.org/2000/svg" xmlns:xlink="http://www.w3.org/1999/xlink" xml:space="preserve" onload="init(evt)">
<style type="text/css"><![CDATA[
.edge:hover path { stroke: red; }
.edge:hover polygon { stroke: red; fill: red; }
]]></style>
<script type="text/javascript"><![CDATA[
var edges = document.getElementsByTagName('g');
if (edges && edges.length) {
  for (var i=0;i<edges.length;i++) {
    if (edges[i].id.substr(0,4)=='edge') {
      edges[i].setAttribute('class','edge');
    }
  }
}
]]></script>
        <defs>
                <circle id="rim" cx="0" cy="0" r="7"/>
                <circle id="rim2" cx="0" cy="0" r="3.5"/>
                <g id="zoomPlus">
                        <use xlink:href="#rim" fill="#404040">
                                <set attributeName="fill" to="#808080" begin="zoomplus.mouseover" end="zoomplus.mouseout"/>
                        </use>
                        <path d="M-4,0h8M0,-4v8" fill="none" stroke="white" stroke-width="1.5" pointer-events="none"/>
                </g>
                <g id="zoomMin">
                        <use xlink:href="#rim" fill="#404040">
                                <set attributeName="fill" to="#808080" begin="zoomminus.mouseover" end="zoomminus.mouseout"/>
                        </use>
                        <path d="M-4,0h8" fill="none" stroke="white" stroke-width="1.5" pointer-events="none"/>
                </g>
                <g id="dirArrow">
                        <path fill="none" stroke="white" stroke-width="1.5" d="M0,-3.0v7 M-2.5,-0.5L0,-3.0L2.5,-0.5"/>
                </g>
               <g id="resetDef">
                       <use xlink:href="#rim2" fill="#404040">
                               <set attributeName="fill" to="#808080" begin="reset.mouseover" end="reset.mouseout"/>
                       </use>
               </g>
        </defs>

<script type="text/javascript">
var viewWidth = 774;
var viewHeight = 167;
var sectionId = 'dynsection-51';
</script>
<script xlink:href="svgpan.js"/>
<svg id="graph" class="graph">
<g id="viewport">
<title>AC_PosControl::get_stopping_point_z</title>
<polygon fill="white" stroke="none" points="-4,4 -4,-163 770,-163 770,4 -4,4"/>
<!-- Node1 -->
<g id="node1" class="node"><title>Node1</title>
<polygon fill="#bfbfbf" stroke="black" points="0,-71 0,-101 104,-101 104,-71 0,-71"/>
<text text-anchor="start" x="8" y="-89" font-family="Helvetica,sans-Serif" font-size="10.00">AC_PosControl::get</text>
<text text-anchor="middle" x="52" y="-78" font-family="Helvetica,sans-Serif" font-size="10.00">_stopping_point_z</text>
</g>
<!-- Node2 -->
<g id="node2" class="node"><title>Node2</title>
<g id="a_node2"><a xlink:href="classAC__PosControl.html#a9113b44ed876dd2d9a326eb59f3d625a" target="_top" xlink:title="AC_PosControl::get\l_alt_target">
<polygon fill="white" stroke="black" points="337,-115 337,-145 441,-145 441,-115 337,-115"/>
<text text-anchor="start" x="345" y="-133" font-family="Helvetica,sans-Serif" font-size="10.00">AC_PosControl::get</text>
<text text-anchor="middle" x="389" y="-122" font-family="Helvetica,sans-Serif" font-size="10.00">_alt_target</text>
</a>
</g>
</g>
<!-- Node1&#45;&gt;Node2 -->
<g id="edge1" class="edge"><title>Node1&#45;&gt;Node2</title>
<path fill="none" stroke="midnightblue" d="M79.7993,-107.21C96.167,-118.783 118.103,-131.955 140,-138 206.024,-156.227 285.702,-148.727 336.603,-140.426"/>
<polygon fill="midnightblue" stroke="midnightblue" points="81.4514,-104.082 71.3146,-101 77.3171,-109.731 81.4514,-104.082"/>
</g>
<!-- Node6 -->
<g id="node6" class="node"><title>Node6</title>
<g id="a_node6"><a xlink:href="classAC__WPNav.html#a8caabd95cf51512456cd8d81f38dbff9" target="_top" xlink:title="AC_WPNav::set_spline\l_destination">
<polygon fill="white" stroke="black" points="160,-98 160,-128 281,-128 281,-98 160,-98"/>
<text text-anchor="start" x="168" y="-116" font-family="Helvetica,sans-Serif" font-size="10.00">AC_WPNav::set_spline</text>
<text text-anchor="middle" x="220.5" y="-105" font-family="Helvetica,sans-Serif" font-size="10.00">_destination</text>
</a>
</g>
</g>
<!-- Node1&#45;&gt;Node6 -->
<g id="edge5" class="edge"><title>Node1&#45;&gt;Node6</title>
<path fill="none" stroke="midnightblue" d="M114.414,-95.9591C129.271,-98.3682 145.125,-100.939 159.897,-103.335"/>
<polygon fill="midnightblue" stroke="midnightblue" points="114.745,-92.4671 104.314,-94.3212 113.625,-99.3769 114.745,-92.4671"/>
</g>
<!-- Node7 -->
<g id="node7" class="node"><title>Node7</title>
<g id="a_node7"><a xlink:href="classAC__PosControl.html#a51caffd56dd27f42595df30f63cd1eaa" target="_top" xlink:title="set_target_to_stopping_point_z &#45; sets altitude target to reasonable stopping altitude in cm above hom...">
<polygon fill="white" stroke="black" points="168.5,-38.5 168.5,-79.5 272.5,-79.5 272.5,-38.5 168.5,-38.5"/>
<text text-anchor="start" x="176.5" y="-67.5" font-family="Helvetica,sans-Serif" font-size="10.00">AC_PosControl::set</text>
<text text-anchor="start" x="176.5" y="-56.5" font-family="Helvetica,sans-Serif" font-size="10.00">_target_to_stopping</text>
<text text-anchor="middle" x="220.5" y="-45.5" font-family="Helvetica,sans-Serif" font-size="10.00">_point_z</text>
</a>
</g>
</g>
<!-- Node1&#45;&gt;Node7 -->
<g id="edge6" class="edge"><title>Node1&#45;&gt;Node7</title>
<path fill="none" stroke="midnightblue" d="M114.547,-76.0194C132.248,-73.149 151.356,-70.0503 168.355,-67.2937"/>
<polygon fill="midnightblue" stroke="midnightblue" points="113.625,-72.6231 104.314,-77.6788 114.745,-79.5329 113.625,-72.6231"/>
</g>
<!-- Node9 -->
<g id="node9" class="node"><title>Node9</title>
<g id="a_node9"><a xlink:href="classAC__WPNav.html#a38519fcac3a24cf64ec7c37e90fc3e13" target="_top" xlink:title="AC_WPNav::set_wp_destination">
<polygon fill="white" stroke="black" points="140,-0.5 140,-19.5 301,-19.5 301,-0.5 140,-0.5"/>
<text text-anchor="middle" x="220.5" y="-7.5" font-family="Helvetica,sans-Serif" font-size="10.00">AC_WPNav::set_wp_destination</text>
</a>
</g>
</g>
<!-- Node1&#45;&gt;Node9 -->
<g id="edge9" class="edge"><title>Node1&#45;&gt;Node9</title>
<path fill="none" stroke="midnightblue" d="M80.0311,-64.769C96.539,-52.7266 118.539,-38.2587 140,-29 148.86,-25.1775 158.623,-22.0451 168.183,-19.5059"/>
<polygon fill="midnightblue" stroke="midnightblue" points="77.8584,-62.0231 71.9312,-70.8049 82.0411,-67.6361 77.8584,-62.0231"/>
</g>
<!-- Node3 -->
<g id="node3" class="node"><title>Node3</title>
<g id="a_node3"><a xlink:href="classAC__WPNav.html#a8542028b741ca81881b9e00d42cc2eea" target="_top" xlink:title="get_desired_alt &#45; get desired altitude (in cm above home) from loiter or wp controller which should b...">
<polygon fill="white" stroke="black" points="477,-139.5 477,-158.5 620,-158.5 620,-139.5 477,-139.5"/>
<text text-anchor="middle" x="548.5" y="-146.5" font-family="Helvetica,sans-Serif" font-size="10.00">AC_WPNav::get_desired_alt</text>
</a>
</g>
</g>
<!-- Node2&#45;&gt;Node3 -->
<g id="edge2" class="edge"><title>Node2&#45;&gt;Node3</title>
<path fill="none" stroke="midnightblue" d="M451.222,-137.386C459.628,-138.4 468.315,-139.448 476.872,-140.48"/>
<polygon fill="midnightblue" stroke="midnightblue" points="451.483,-133.892 441.136,-136.169 450.645,-140.841 451.483,-133.892"/>
</g>
<!-- Node4 -->
<g id="node4" class="node"><title>Node4</title>
<g id="a_node4"><a xlink:href="classAC__Circle.html#ad28205982ae7bc5f1e72f5285696c99b" target="_top" xlink:title="update &#45; update circle controller ">
<polygon fill="white" stroke="black" points="500,-101.5 500,-120.5 597,-120.5 597,-101.5 500,-101.5"/>
<text text-anchor="middle" x="548.5" y="-108.5" font-family="Helvetica,sans-Serif" font-size="10.00">AC_Circle::update</text>
</a>
</g>
</g>
<!-- Node2&#45;&gt;Node4 -->
<g id="edge3" class="edge"><title>Node2&#45;&gt;Node4</title>
<path fill="none" stroke="midnightblue" d="M451.508,-122.58C467.559,-120.644 484.613,-118.586 499.826,-116.751"/>
<polygon fill="midnightblue" stroke="midnightblue" points="450.645,-119.159 441.136,-123.831 451.483,-126.108 450.645,-119.159"/>
</g>
<!-- Node5 -->
<g id="node5" class="node"><title>Node5</title>
<g id="a_node5"><a xlink:href="classAC__Circle.html#a176fe6b798510eb180d35f62d7f6487c" target="_top" xlink:title="get_angle_total &#45; return total angle in radians that vehicle has circled ">
<polygon fill="white" stroke="black" points="656,-96 656,-126 766,-126 766,-96 656,-96"/>
<text text-anchor="start" x="664" y="-114" font-family="Helvetica,sans-Serif" font-size="10.00">AC_Circle::get_angle</text>
<text text-anchor="middle" x="711" y="-103" font-family="Helvetica,sans-Serif" font-size="10.00">_total</text>
</a>
</g>
</g>
<!-- Node4&#45;&gt;Node5 -->
<g id="edge4" class="edge"><title>Node4&#45;&gt;Node5</title>
<path fill="none" stroke="midnightblue" d="M607.423,-111C623.267,-111 640.374,-111 655.991,-111"/>
<polygon fill="midnightblue" stroke="midnightblue" points="607.221,-107.5 597.221,-111 607.221,-114.5 607.221,-107.5"/>
</g>
<!-- Node7&#45;&gt;Node2 -->
<g id="edge7" class="edge"><title>Node7&#45;&gt;Node2</title>
<path fill="none" stroke="midnightblue" d="M282.03,-81.2661C288.462,-83.8036 294.885,-86.4102 301,-89 320.065,-97.0746 341.073,-106.946 357.668,-114.98"/>
<polygon fill="midnightblue" stroke="midnightblue" points="283.22,-77.9738 272.632,-77.608 280.681,-84.4971 283.22,-77.9738"/>
</g>
<!-- Node8 -->
<g id="node8" class="node"><title>Node8</title>
<g id="a_node8"><a xlink:href="classAC__Circle.html#aeecf8efd6d546820ee831e749935df8b" target="_top" xlink:title="AC_Circle::init">
<polygon fill="white" stroke="black" points="349,-49.5 349,-68.5 429,-68.5 429,-49.5 349,-49.5"/>
<text text-anchor="middle" x="389" y="-56.5" font-family="Helvetica,sans-Serif" font-size="10.00">AC_Circle::init</text>
</a>
</g>
</g>
<!-- Node7&#45;&gt;Node8 -->
<g id="edge8" class="edge"><title>Node7&#45;&gt;Node8</title>
<path fill="none" stroke="midnightblue" d="M283.063,-59C305.035,-59 329.172,-59 348.753,-59"/>
<polygon fill="midnightblue" stroke="midnightblue" points="282.814,-55.5001 272.814,-59 282.814,-62.5001 282.814,-55.5001"/>
</g>
</g>
</svg>
        <g id="navigator" transform="translate(0 0)" fill="#404254">
                <rect fill="#f2f5e9" fill-opacity="0.5" stroke="#606060" stroke-width=".5" x="0" y="0" width="60" height="60"/>
                <use id="zoomplus" xlink:href="#zoomPlus" x="17" y="9" onmousedown="handleZoom(evt,'in')"/>
                <use id="zoomminus" xlink:href="#zoomMin" x="42" y="9" onmousedown="handleZoom(evt,'out')"/>
                <use id="reset" xlink:href="#resetDef" x="30" y="36" onmousedown="handleReset()"/>
                <g id="arrowUp" xlink:href="#dirArrow" transform="translate(30 24)" onmousedown="handlePan(0,-1)">
                  <use xlink:href="#rim" fill="#404040">
                        <set attributeName="fill" to="#808080" begin="arrowUp.mouseover" end="arrowUp.mouseout"/>
                  </use>
                  <path fill="none" stroke="white" stroke-width="1.5" d="M0,-3.0v7 M-2.5,-0.5L0,-3.0L2.5,-0.5"/>
                </g>
                <g id="arrowRight" xlink:href="#dirArrow" transform="rotate(90) translate(36 -43)" onmousedown="handlePan(1,0)">
                  <use xlink:href="#rim" fill="#404040">
                        <set attributeName="fill" to="#808080" begin="arrowRight.mouseover" end="arrowRight.mouseout"/>
                  </use>
                  <path fill="none" stroke="white" stroke-width="1.5" d="M0,-3.0v7 M-2.5,-0.5L0,-3.0L2.5,-0.5"/>
                </g>
                <g id="arrowDown" xlink:href="#dirArrow" transform="rotate(180) translate(-30 -48)" onmousedown="handlePan(0,1)">
                  <use xlink:href="#rim" fill="#404040">
                        <set attributeName="fill" to="#808080" begin="arrowDown.mouseover" end="arrowDown.mouseout"/>
                  </use>
                  <path fill="none" stroke="white" stroke-width="1.5" d="M0,-3.0v7 M-2.5,-0.5L0,-3.0L2.5,-0.5"/>
                </g>
                <g id="arrowLeft" xlink:href="#dirArrow" transform="rotate(270) translate(-36 17)" onmousedown="handlePan(-1,0)">
                  <use xlink:href="#rim" fill="#404040">
                        <set attributeName="fill" to="#808080" begin="arrowLeft.mouseover" end="arrowLeft.mouseout"/>
                  </use>
                  <path fill="none" stroke="white" stroke-width="1.5" d="M0,-3.0v7 M-2.5,-0.5L0,-3.0L2.5,-0.5"/>
                </g>
        </g>
        <svg viewBox="0 0 15 15" width="100%" height="30px" preserveAspectRatio="xMaxYMin meet">
         <g id="arrow_out" transform="scale(0.3 0.3)">
          <a xlink:href="classAC__PosControl_a20ac6348cbb9a1ac803c626c91ec93e5_icgraph_org.svg" target="_base">
           <rect id="button" ry="5" rx="5" y="6" x="6" height="38" width="38"
                fill="#f2f5e9" fill-opacity="0.5" stroke="#606060" stroke-width="1.0"/>
           <path id="arrow"
             d="M 11.500037,31.436501 C 11.940474,20.09759 22.043105,11.32322 32.158766,21.979434 L 37.068811,17.246167 C 37.068811,17.246167 37.088388,32 37.088388,32 L 22.160133,31.978069 C 22.160133,31.978069 26.997745,27.140456 26.997745,27.140456 C 18.528582,18.264221 13.291696,25.230495 11.500037,31.436501 z"
             style="fill:#404040;"/>
          </a>
         </g>
        </svg>
</svg>
