<?xml version="1.0" encoding="UTF-8" standalone="no"?>
<!DOCTYPE svg PUBLIC "-//W3C//DTD SVG 1.1//EN"
 "http://www.w3.org/Graphics/SVG/1.1/DTD/svg11.dtd">
<!-- Generated by graphviz version 2.38.0 (20140413.2041)
 -->
<!-- Title: SITL::last_letter::recv_fdm Pages: 1 -->
<svg width="243pt" height="127pt"
 viewBox="0.00 0.00 243.00 127.00" xmlns="http://www.w3.org/2000/svg" xmlns:xlink="http://www.w3.org/1999/xlink">
<g id="graph0" class="graph" transform="scale(1 1) rotate(0) translate(4 123)">
<title>SITL::last_letter::recv_fdm</title>
<polygon fill="white" stroke="none" points="-4,4 -4,-123 239,-123 239,4 -4,4"/>
<!-- Node1 -->
<g id="node1" class="node"><title>Node1</title>
<polygon fill="#bfbfbf" stroke="black" points="0,-44.5 0,-74.5 92,-74.5 92,-44.5 0,-44.5"/>
<text text-anchor="start" x="8" y="-62.5" font-family="Helvetica,sans-Serif" font-size="10.00">SITL::last_letter::</text>
<text text-anchor="middle" x="46" y="-51.5" font-family="Helvetica,sans-Serif" font-size="10.00">recv_fdm</text>
</g>
<!-- Node2 -->
<g id="node2" class="node"><title>Node2</title>
<g id="a_node2"><a xlink:href="classSITL_1_1last__letter.html#aab8e48ec2035e6ee4248dfda1b1fbd97" target="_top" xlink:title="SITL::last_letter::\lsend_servos">
<polygon fill="white" stroke="black" points="135.5,-88.5 135.5,-118.5 227.5,-118.5 227.5,-88.5 135.5,-88.5"/>
<text text-anchor="start" x="143.5" y="-106.5" font-family="Helvetica,sans-Serif" font-size="10.00">SITL::last_letter::</text>
<text text-anchor="middle" x="181.5" y="-95.5" font-family="Helvetica,sans-Serif" font-size="10.00">send_servos</text>
</a>
</g>
</g>
<!-- Node1&#45;&gt;Node2 -->
<g id="edge1" class="edge"><title>Node1&#45;&gt;Node2</title>
<path fill="none" stroke="midnightblue" d="M92.197,-74.3964C102.962,-77.9444 114.565,-81.7685 125.708,-85.4412"/>
<polygon fill="midnightblue" stroke="midnightblue" points="124.756,-88.8127 135.35,-88.6189 126.948,-82.1645 124.756,-88.8127"/>
</g>
<!-- Node3 -->
<g id="node3" class="node"><title>Node3</title>
<g id="a_node3"><a xlink:href="classMatrix3.html#a62587bd216436f09f06b9e1330f84bc0" target="_top" xlink:title="Matrix3::from_euler">
<polygon fill="white" stroke="black" points="131,-50 131,-69 232,-69 232,-50 131,-50"/>
<text text-anchor="middle" x="181.5" y="-57" font-family="Helvetica,sans-Serif" font-size="10.00">Matrix3::from_euler</text>
</a>
</g>
</g>
<!-- Node1&#45;&gt;Node3 -->
<g id="edge2" class="edge"><title>Node1&#45;&gt;Node3</title>
<path fill="none" stroke="midnightblue" d="M92.197,-59.5C101.307,-59.5 111.018,-59.5 120.542,-59.5"/>
<polygon fill="midnightblue" stroke="midnightblue" points="120.766,-63.0001 130.766,-59.5 120.766,-56.0001 120.766,-63.0001"/>
</g>
<!-- Node4 -->
<g id="node4" class="node"><title>Node4</title>
<g id="a_node4"><a xlink:href="classSITL_1_1Aircraft.html#ac530b1fc848bb23a0e5d55a93db7155c" target="_top" xlink:title="SITL::Aircraft::adjust\l_frame_time">
<polygon fill="white" stroke="black" points="128,-0.5 128,-30.5 235,-30.5 235,-0.5 128,-0.5"/>
<text text-anchor="start" x="136" y="-18.5" font-family="Helvetica,sans-Serif" font-size="10.00">SITL::Aircraft::adjust</text>
<text text-anchor="middle" x="181.5" y="-7.5" font-family="Helvetica,sans-Serif" font-size="10.00">_frame_time</text>
</a>
</g>
</g>
<!-- Node1&#45;&gt;Node4 -->
<g id="edge3" class="edge"><title>Node1&#45;&gt;Node4</title>
<path fill="none" stroke="midnightblue" d="M92.197,-44.6036C102.845,-41.0942 114.313,-37.3146 125.344,-33.6786"/>
<polygon fill="midnightblue" stroke="midnightblue" points="126.493,-36.9852 134.895,-30.5308 124.302,-30.337 126.493,-36.9852"/>
</g>
</g>
</svg>
