<?xml version="1.0" encoding="UTF-8" standalone="no"?>
<!DOCTYPE svg PUBLIC "-//W3C//DTD SVG 1.1//EN"
 "http://www.w3.org/Graphics/SVG/1.1/DTD/svg11.dtd">
<!-- Generated by graphviz version 2.38.0 (20140413.2041)
 -->
<!-- Title: AP_Mount_Backend::angle_input Pages: 1 -->
<!--zoomable 206 -->
<svg id="main" version="1.1" xmlns="http://www.w3.org/2000/svg" xmlns:xlink="http://www.w3.org/1999/xlink" xml:space="preserve" onload="init(evt)">
<style type="text/css"><![CDATA[
.edge:hover path { stroke: red; }
.edge:hover polygon { stroke: red; fill: red; }
]]></style>
<script type="text/javascript"><![CDATA[
var edges = document.getElementsByTagName('g');
if (edges && edges.length) {
  for (var i=0;i<edges.length;i++) {
    if (edges[i].id.substr(0,4)=='edge') {
      edges[i].setAttribute('class','edge');
    }
  }
}
]]></script>
        <defs>
                <circle id="rim" cx="0" cy="0" r="7"/>
                <circle id="rim2" cx="0" cy="0" r="3.5"/>
                <g id="zoomPlus">
                        <use xlink:href="#rim" fill="#404040">
                                <set attributeName="fill" to="#808080" begin="zoomplus.mouseover" end="zoomplus.mouseout"/>
                        </use>
                        <path d="M-4,0h8M0,-4v8" fill="none" stroke="white" stroke-width="1.5" pointer-events="none"/>
                </g>
                <g id="zoomMin">
                        <use xlink:href="#rim" fill="#404040">
                                <set attributeName="fill" to="#808080" begin="zoomminus.mouseover" end="zoomminus.mouseout"/>
                        </use>
                        <path d="M-4,0h8" fill="none" stroke="white" stroke-width="1.5" pointer-events="none"/>
                </g>
                <g id="dirArrow">
                        <path fill="none" stroke="white" stroke-width="1.5" d="M0,-3.0v7 M-2.5,-0.5L0,-3.0L2.5,-0.5"/>
                </g>
               <g id="resetDef">
                       <use xlink:href="#rim2" fill="#404040">
                               <set attributeName="fill" to="#808080" begin="reset.mouseover" end="reset.mouseout"/>
                       </use>
               </g>
        </defs>

<script type="text/javascript">
var viewWidth = 999;
var viewHeight = 206;
var sectionId = 'dynsection-4';
</script>
<script xlink:href="svgpan.js"/>
<svg id="graph" class="graph">
<g id="viewport">
<title>AP_Mount_Backend::angle_input</title>
<polygon fill="white" stroke="none" points="-4,4 -4,-202 995,-202 995,4 -4,4"/>
<!-- Node1 -->
<g id="node1" class="node"><title>Node1</title>
<polygon fill="#bfbfbf" stroke="black" points="0,-25.5 0,-55.5 135,-55.5 135,-25.5 0,-25.5"/>
<text text-anchor="start" x="8" y="-43.5" font-family="Helvetica,sans-Serif" font-size="10.00">AP_Mount_Backend::angle</text>
<text text-anchor="middle" x="67.5" y="-32.5" font-family="Helvetica,sans-Serif" font-size="10.00">_input</text>
</g>
<!-- Node2 -->
<g id="node2" class="node"><title>Node2</title>
<g id="a_node2"><a xlink:href="classAP__Mount__Backend.html#a7cbf9f6695f80998e1cc39b9a3a5a0ae" target="_top" xlink:title="AP_Mount_Backend::angle\l_input_rad">
<polygon fill="white" stroke="black" points="171,-47.5 171,-77.5 306,-77.5 306,-47.5 171,-47.5"/>
<text text-anchor="start" x="179" y="-65.5" font-family="Helvetica,sans-Serif" font-size="10.00">AP_Mount_Backend::angle</text>
<text text-anchor="middle" x="238.5" y="-54.5" font-family="Helvetica,sans-Serif" font-size="10.00">_input_rad</text>
</a>
</g>
</g>
<!-- Node1&#45;&gt;Node2 -->
<g id="edge1" class="edge"><title>Node1&#45;&gt;Node2</title>
<path fill="none" stroke="midnightblue" d="M145.271,-50.4939C153.831,-51.6082 162.497,-52.7364 170.915,-53.8322"/>
<polygon fill="midnightblue" stroke="midnightblue" points="145.661,-47.0152 135.293,-49.195 144.758,-53.9567 145.661,-47.0152"/>
</g>
<!-- Node6 -->
<g id="node6" class="node"><title>Node6</title>
<g id="a_node6"><a xlink:href="classAP__Mount__Backend.html#a19ece637981745522a93411a83f0d62d" target="_top" xlink:title="AP_Mount_Backend::send\l_gimbal_report">
<polygon fill="white" stroke="black" points="526,-3.5 526,-33.5 659,-33.5 659,-3.5 526,-3.5"/>
<text text-anchor="start" x="534" y="-21.5" font-family="Helvetica,sans-Serif" font-size="10.00">AP_Mount_Backend::send</text>
<text text-anchor="middle" x="592.5" y="-10.5" font-family="Helvetica,sans-Serif" font-size="10.00">_gimbal_report</text>
</a>
</g>
</g>
<!-- Node1&#45;&gt;Node6 -->
<g id="edge15" class="edge"><title>Node1&#45;&gt;Node6</title>
<path fill="none" stroke="midnightblue" d="M145.011,-37.2816C247.852,-32.9556 428.93,-25.3385 525.875,-21.2605"/>
<polygon fill="midnightblue" stroke="midnightblue" points="144.848,-33.7852 135.004,-37.7025 145.142,-40.7791 144.848,-33.7852"/>
</g>
<!-- Node3 -->
<g id="node3" class="node"><title>Node3</title>
<g id="a_node3"><a xlink:href="classAP__Mount__Backend.html#ab4be0d28626c019ba59dc179f728c9c9" target="_top" xlink:title="AP_Mount_Backend::update\l_targets_from_rc">
<polygon fill="white" stroke="black" points="342,-85.5 342,-115.5 483,-115.5 483,-85.5 342,-85.5"/>
<text text-anchor="start" x="350" y="-103.5" font-family="Helvetica,sans-Serif" font-size="10.00">AP_Mount_Backend::update</text>
<text text-anchor="middle" x="412.5" y="-92.5" font-family="Helvetica,sans-Serif" font-size="10.00">_targets_from_rc</text>
</a>
</g>
</g>
<!-- Node2&#45;&gt;Node3 -->
<g id="edge2" class="edge"><title>Node2&#45;&gt;Node3</title>
<path fill="none" stroke="midnightblue" d="M316.282,-79.4635C325.373,-81.4718 334.602,-83.5109 343.558,-85.4895"/>
<polygon fill="midnightblue" stroke="midnightblue" points="317.012,-76.0404 306.492,-77.3006 315.502,-82.8755 317.012,-76.0404"/>
</g>
<!-- Node2&#45;&gt;Node6 -->
<g id="edge14" class="edge"><title>Node2&#45;&gt;Node6</title>
<path fill="none" stroke="midnightblue" d="M316.169,-53.1684C364.123,-47.3035 427.174,-39.5406 483,-32.5 496.85,-30.7533 511.691,-28.8555 525.812,-27.0374"/>
<polygon fill="midnightblue" stroke="midnightblue" points="315.675,-49.7026 306.174,-54.3901 316.525,-56.6509 315.675,-49.7026"/>
</g>
<!-- Node4 -->
<g id="node4" class="node"><title>Node4</title>
<g id="a_node4"><a xlink:href="classAP__Mount__Alexmos.html#ad6fa0fd652a1401e0c9d791ad9399b67" target="_top" xlink:title="AP_Mount_Alexmos::update">
<polygon fill="white" stroke="black" points="522,-129 522,-148 663,-148 663,-129 522,-129"/>
<text text-anchor="middle" x="592.5" y="-136" font-family="Helvetica,sans-Serif" font-size="10.00">AP_Mount_Alexmos::update</text>
</a>
</g>
</g>
<!-- Node3&#45;&gt;Node4 -->
<g id="edge3" class="edge"><title>Node3&#45;&gt;Node4</title>
<path fill="none" stroke="midnightblue" d="M492.98,-117.468C511.467,-121.414 530.509,-125.479 546.865,-128.971"/>
<polygon fill="midnightblue" stroke="midnightblue" points="493.595,-114.02 483.084,-115.355 492.133,-120.866 493.595,-114.02"/>
</g>
<!-- Node3&#45;&gt;Node6 -->
<g id="edge5" class="edge"><title>Node3&#45;&gt;Node6</title>
<path fill="none" stroke="midnightblue" d="M462.427,-81.1224C469.464,-77.8373 476.513,-74.2619 483,-70.5 500.301,-60.4671 501.332,-52.8733 519,-43.5 525.939,-39.8185 533.531,-36.506 541.105,-33.588"/>
<polygon fill="midnightblue" stroke="midnightblue" points="460.576,-78.1175 452.892,-85.4124 463.448,-84.5012 460.576,-78.1175"/>
</g>
<!-- Node9 -->
<g id="node9" class="node"><title>Node9</title>
<g id="a_node9"><a xlink:href="classAP__Mount__Servo.html#a8f4caa1ed68b0062d25e60c42b333995" target="_top" xlink:title="AP_Mount_Servo::update">
<polygon fill="white" stroke="black" points="528.5,-91 528.5,-110 656.5,-110 656.5,-91 528.5,-91"/>
<text text-anchor="middle" x="592.5" y="-98" font-family="Helvetica,sans-Serif" font-size="10.00">AP_Mount_Servo::update</text>
</a>
</g>
</g>
<!-- Node3&#45;&gt;Node9 -->
<g id="edge9" class="edge"><title>Node3&#45;&gt;Node9</title>
<path fill="none" stroke="midnightblue" d="M493.321,-100.5C505.057,-100.5 517.008,-100.5 528.346,-100.5"/>
<polygon fill="midnightblue" stroke="midnightblue" points="493.084,-97.0001 483.084,-100.5 493.084,-104 493.084,-97.0001"/>
</g>
<!-- Node11 -->
<g id="node11" class="node"><title>Node11</title>
<g id="a_node11"><a xlink:href="classAP__Mount__SToRM32.html#ace0a2b82782d8c587ed2ae17fc123e99" target="_top" xlink:title="AP_Mount_SToRM32::update">
<polygon fill="white" stroke="black" points="519,-53 519,-72 666,-72 666,-53 519,-53"/>
<text text-anchor="middle" x="592.5" y="-60" font-family="Helvetica,sans-Serif" font-size="10.00">AP_Mount_SToRM32::update</text>
</a>
</g>
</g>
<!-- Node3&#45;&gt;Node11 -->
<g id="edge11" class="edge"><title>Node3&#45;&gt;Node11</title>
<path fill="none" stroke="midnightblue" d="M492.98,-83.5324C511.467,-79.5857 530.509,-75.5206 546.865,-72.0289"/>
<polygon fill="midnightblue" stroke="midnightblue" points="492.133,-80.1342 483.084,-85.6449 493.595,-86.98 492.133,-80.1342"/>
</g>
<!-- Node13 -->
<g id="node13" class="node"><title>Node13</title>
<g id="a_node13"><a xlink:href="classAP__Mount__SToRM32__serial.html#a0e8996b1bfa413cf9fbaef55e5bb0fb4" target="_top" xlink:title="AP_Mount_SToRM32_serial\l::update">
<polygon fill="white" stroke="black" points="522.5,-167.5 522.5,-197.5 662.5,-197.5 662.5,-167.5 522.5,-167.5"/>
<text text-anchor="start" x="530.5" y="-185.5" font-family="Helvetica,sans-Serif" font-size="10.00">AP_Mount_SToRM32_serial</text>
<text text-anchor="middle" x="592.5" y="-174.5" font-family="Helvetica,sans-Serif" font-size="10.00">::update</text>
</a>
</g>
</g>
<!-- Node3&#45;&gt;Node13 -->
<g id="edge13" class="edge"><title>Node3&#45;&gt;Node13</title>
<path fill="none" stroke="midnightblue" d="M447.377,-120.638C467.726,-132.268 494.37,-146.686 519,-157.5 527.046,-161.033 535.762,-164.405 544.268,-167.466"/>
<polygon fill="midnightblue" stroke="midnightblue" points="448.91,-117.482 438.5,-115.514 445.41,-123.544 448.91,-117.482"/>
</g>
<!-- Node5 -->
<g id="node5" class="node"><title>Node5</title>
<g id="a_node5"><a xlink:href="classAP__Mount__Alexmos.html#a7fe48614086de3bbb4e933b2a3ddb2fa" target="_top" xlink:title="AP_Mount_Alexmos::AP\l_Mount_Alexmos">
<polygon fill="white" stroke="black" points="705,-137.5 705,-167.5 830,-167.5 830,-137.5 705,-137.5"/>
<text text-anchor="start" x="713" y="-155.5" font-family="Helvetica,sans-Serif" font-size="10.00">AP_Mount_Alexmos::AP</text>
<text text-anchor="middle" x="767.5" y="-144.5" font-family="Helvetica,sans-Serif" font-size="10.00">_Mount_Alexmos</text>
</a>
</g>
</g>
<!-- Node4&#45;&gt;Node5 -->
<g id="edge4" class="edge"><title>Node4&#45;&gt;Node5</title>
<path fill="none" stroke="midnightblue" d="M673.396,-144.966C683.919,-145.817 694.574,-146.679 704.732,-147.501"/>
<polygon fill="midnightblue" stroke="midnightblue" points="673.617,-141.472 663.367,-144.154 673.052,-148.449 673.617,-141.472"/>
</g>
<!-- Node7 -->
<g id="node7" class="node"><title>Node7</title>
<g id="a_node7"><a xlink:href="classAP__Mount.html#af8f376cbf1c77af36fc4603921c5bb7a" target="_top" xlink:title="AP_Mount::send_gimbal\l_report">
<polygon fill="white" stroke="black" points="706,-0.5 706,-30.5 829,-30.5 829,-0.5 706,-0.5"/>
<text text-anchor="start" x="714" y="-18.5" font-family="Helvetica,sans-Serif" font-size="10.00">AP_Mount::send_gimbal</text>
<text text-anchor="middle" x="767.5" y="-7.5" font-family="Helvetica,sans-Serif" font-size="10.00">_report</text>
</a>
</g>
</g>
<!-- Node6&#45;&gt;Node7 -->
<g id="edge6" class="edge"><title>Node6&#45;&gt;Node7</title>
<path fill="none" stroke="midnightblue" d="M669.533,-17.1815C681.703,-16.9705 694.153,-16.7546 705.902,-16.5508"/>
<polygon fill="midnightblue" stroke="midnightblue" points="669.335,-13.6843 659.397,-17.3573 669.457,-20.6833 669.335,-13.6843"/>
</g>
<!-- Node8 -->
<g id="node8" class="node"><title>Node8</title>
<g id="a_node8"><a xlink:href="classAP__Mount.html#a69361c882e0eecd4bce27a2975a48af3" target="_top" xlink:title="AP_Mount::control_msg">
<polygon fill="white" stroke="black" points="869,-6 869,-25 991,-25 991,-6 869,-6"/>
<text text-anchor="middle" x="930" y="-13" font-family="Helvetica,sans-Serif" font-size="10.00">AP_Mount::control_msg</text>
</a>
</g>
</g>
<!-- Node7&#45;&gt;Node8 -->
<g id="edge7" class="edge"><title>Node7&#45;&gt;Node8</title>
<path fill="none" stroke="midnightblue" d="M839.322,-15.5C849.146,-15.5 859.162,-15.5 868.768,-15.5"/>
<polygon fill="midnightblue" stroke="midnightblue" points="839.178,-12.0001 829.178,-15.5 839.178,-19.0001 839.178,-12.0001"/>
</g>
<!-- Node8&#45;&gt;Node8 -->
<g id="edge8" class="edge"><title>Node8&#45;&gt;Node8</title>
<path fill="none" stroke="midnightblue" d="M899.686,-33.7746C900.55,-39.241 910.655,-43.5 930,-43.5 958.793,-43.5 967.116,-34.0653 954.969,-25.2571"/>
<polygon fill="midnightblue" stroke="midnightblue" points="902.68,-35.5877 905.031,-25.2571 896.751,-31.8667 902.68,-35.5877"/>
</g>
<!-- Node10 -->
<g id="node10" class="node"><title>Node10</title>
<g id="a_node10"><a xlink:href="classAP__Mount__Servo.html#acb4dd349df7e7697f302a617bd047a47" target="_top" xlink:title="AP_Mount_Servo::AP\l_Mount_Servo">
<polygon fill="white" stroke="black" points="711,-88.5 711,-118.5 824,-118.5 824,-88.5 711,-88.5"/>
<text text-anchor="start" x="719" y="-106.5" font-family="Helvetica,sans-Serif" font-size="10.00">AP_Mount_Servo::AP</text>
<text text-anchor="middle" x="767.5" y="-95.5" font-family="Helvetica,sans-Serif" font-size="10.00">_Mount_Servo</text>
</a>
</g>
</g>
<!-- Node9&#45;&gt;Node10 -->
<g id="edge10" class="edge"><title>Node9&#45;&gt;Node10</title>
<path fill="none" stroke="midnightblue" d="M666.987,-101.774C681.654,-102.029 696.832,-102.292 710.781,-102.534"/>
<polygon fill="midnightblue" stroke="midnightblue" points="666.996,-98.2741 656.936,-101.6 666.874,-105.273 666.996,-98.2741"/>
</g>
<!-- Node12 -->
<g id="node12" class="node"><title>Node12</title>
<g id="a_node12"><a xlink:href="classAP__Mount__SToRM32.html#a3dadf2d9c2d3ba5151169641b8c25dfd" target="_top" xlink:title="AP_Mount_SToRM32::init">
<polygon fill="white" stroke="black" points="702,-50 702,-69 833,-69 833,-50 702,-50"/>
<text text-anchor="middle" x="767.5" y="-57" font-family="Helvetica,sans-Serif" font-size="10.00">AP_Mount_SToRM32::init</text>
</a>
</g>
</g>
<!-- Node11&#45;&gt;Node12 -->
<g id="edge12" class="edge"><title>Node11&#45;&gt;Node12</title>
<path fill="none" stroke="midnightblue" d="M676.166,-61.0665C684.765,-60.9174 693.414,-60.7674 701.774,-60.6224"/>
<polygon fill="midnightblue" stroke="midnightblue" points="676.053,-57.5678 666.116,-61.2408 676.175,-64.5668 676.053,-57.5678"/>
</g>
</g>
</svg>
        <g id="navigator" transform="translate(0 0)" fill="#404254">
                <rect fill="#f2f5e9" fill-opacity="0.5" stroke="#606060" stroke-width=".5" x="0" y="0" width="60" height="60"/>
                <use id="zoomplus" xlink:href="#zoomPlus" x="17" y="9" onmousedown="handleZoom(evt,'in')"/>
                <use id="zoomminus" xlink:href="#zoomMin" x="42" y="9" onmousedown="handleZoom(evt,'out')"/>
                <use id="reset" xlink:href="#resetDef" x="30" y="36" onmousedown="handleReset()"/>
                <g id="arrowUp" xlink:href="#dirArrow" transform="translate(30 24)" onmousedown="handlePan(0,-1)">
                  <use xlink:href="#rim" fill="#404040">
                        <set attributeName="fill" to="#808080" begin="arrowUp.mouseover" end="arrowUp.mouseout"/>
                  </use>
                  <path fill="none" stroke="white" stroke-width="1.5" d="M0,-3.0v7 M-2.5,-0.5L0,-3.0L2.5,-0.5"/>
                </g>
                <g id="arrowRight" xlink:href="#dirArrow" transform="rotate(90) translate(36 -43)" onmousedown="handlePan(1,0)">
                  <use xlink:href="#rim" fill="#404040">
                        <set attributeName="fill" to="#808080" begin="arrowRight.mouseover" end="arrowRight.mouseout"/>
                  </use>
                  <path fill="none" stroke="white" stroke-width="1.5" d="M0,-3.0v7 M-2.5,-0.5L0,-3.0L2.5,-0.5"/>
                </g>
                <g id="arrowDown" xlink:href="#dirArrow" transform="rotate(180) translate(-30 -48)" onmousedown="handlePan(0,1)">
                  <use xlink:href="#rim" fill="#404040">
                        <set attributeName="fill" to="#808080" begin="arrowDown.mouseover" end="arrowDown.mouseout"/>
                  </use>
                  <path fill="none" stroke="white" stroke-width="1.5" d="M0,-3.0v7 M-2.5,-0.5L0,-3.0L2.5,-0.5"/>
                </g>
                <g id="arrowLeft" xlink:href="#dirArrow" transform="rotate(270) translate(-36 17)" onmousedown="handlePan(-1,0)">
                  <use xlink:href="#rim" fill="#404040">
                        <set attributeName="fill" to="#808080" begin="arrowLeft.mouseover" end="arrowLeft.mouseout"/>
                  </use>
                  <path fill="none" stroke="white" stroke-width="1.5" d="M0,-3.0v7 M-2.5,-0.5L0,-3.0L2.5,-0.5"/>
                </g>
        </g>
        <svg viewBox="0 0 15 15" width="100%" height="30px" preserveAspectRatio="xMaxYMin meet">
         <g id="arrow_out" transform="scale(0.3 0.3)">
          <a xlink:href="classAP__Mount__Backend_aca1f2d5e9e859d8458772006a5e9a178_icgraph_org.svg" target="_base">
           <rect id="button" ry="5" rx="5" y="6" x="6" height="38" width="38"
                fill="#f2f5e9" fill-opacity="0.5" stroke="#606060" stroke-width="1.0"/>
           <path id="arrow"
             d="M 11.500037,31.436501 C 11.940474,20.09759 22.043105,11.32322 32.158766,21.979434 L 37.068811,17.246167 C 37.068811,17.246167 37.088388,32 37.088388,32 L 22.160133,31.978069 C 22.160133,31.978069 26.997745,27.140456 26.997745,27.140456 C 18.528582,18.264221 13.291696,25.230495 11.500037,31.436501 z"
             style="fill:#404040;"/>
          </a>
         </g>
        </svg>
</svg>
