<?xml version="1.0" encoding="UTF-8" standalone="no"?>
<!DOCTYPE svg PUBLIC "-//W3C//DTD SVG 1.1//EN"
 "http://www.w3.org/Graphics/SVG/1.1/DTD/svg11.dtd">
<!-- Generated by graphviz version 2.38.0 (20140413.2041)
 -->
<!-- Title: SITL::JSBSim::send_servos Pages: 1 -->
<svg width="569pt" height="165pt"
 viewBox="0.00 0.00 569.00 164.50" xmlns="http://www.w3.org/2000/svg" xmlns:xlink="http://www.w3.org/1999/xlink">
<g id="graph0" class="graph" transform="scale(1 1) rotate(0) translate(4 160.5)">
<title>SITL::JSBSim::send_servos</title>
<polygon fill="white" stroke="none" points="-4,4 -4,-160.5 565,-160.5 565,4 -4,4"/>
<!-- Node1 -->
<g id="node1" class="node"><title>Node1</title>
<polygon fill="#bfbfbf" stroke="black" points="0,-55 0,-85 107,-85 107,-55 0,-55"/>
<text text-anchor="start" x="8" y="-73" font-family="Helvetica,sans-Serif" font-size="10.00">SITL::JSBSim::send</text>
<text text-anchor="middle" x="53.5" y="-62" font-family="Helvetica,sans-Serif" font-size="10.00">_servos</text>
</g>
<!-- Node2 -->
<g id="node2" class="node"><title>Node2</title>
<g id="a_node2"><a xlink:href="classSITL_1_1Aircraft.html#a057713321d945fa4a97cd30fb684d15a" target="_top" xlink:title="SITL::Aircraft::filtered\l_servo_angle">
<polygon fill="white" stroke="black" points="143,-126 143,-156 253,-156 253,-126 143,-126"/>
<text text-anchor="start" x="151" y="-144" font-family="Helvetica,sans-Serif" font-size="10.00">SITL::Aircraft::filtered</text>
<text text-anchor="middle" x="198" y="-133" font-family="Helvetica,sans-Serif" font-size="10.00">_servo_angle</text>
</a>
</g>
</g>
<!-- Node1&#45;&gt;Node2 -->
<g id="edge1" class="edge"><title>Node1&#45;&gt;Node2</title>
<path fill="none" stroke="midnightblue" d="M81.7521,-85.1075C99.1233,-94.5788 122.198,-106.869 143,-117 146.283,-118.599 149.697,-120.217 153.142,-121.818"/>
<polygon fill="midnightblue" stroke="midnightblue" points="151.716,-125.015 162.265,-125.993 154.628,-118.649 151.716,-125.015"/>
</g>
<!-- Node6 -->
<g id="node6" class="node"><title>Node6</title>
<g id="a_node6"><a xlink:href="classSITL_1_1Aircraft.html#a1e7462de0ec320a4a7731054d8ea322d" target="_top" xlink:title="SITL::Aircraft::filtered\l_servo_range">
<polygon fill="white" stroke="black" points="143,-77 143,-107 253,-107 253,-77 143,-77"/>
<text text-anchor="start" x="151" y="-95" font-family="Helvetica,sans-Serif" font-size="10.00">SITL::Aircraft::filtered</text>
<text text-anchor="middle" x="198" y="-84" font-family="Helvetica,sans-Serif" font-size="10.00">_servo_range</text>
</a>
</g>
</g>
<!-- Node1&#45;&gt;Node6 -->
<g id="edge5" class="edge"><title>Node1&#45;&gt;Node6</title>
<path fill="none" stroke="midnightblue" d="M107.157,-78.1295C115.477,-79.4139 124.16,-80.7545 132.709,-82.0743"/>
<polygon fill="midnightblue" stroke="midnightblue" points="132.235,-85.5426 142.652,-83.6094 133.303,-78.6245 132.235,-85.5426"/>
</g>
<!-- Node7 -->
<g id="node7" class="node"><title>Node7</title>
<g id="a_node7"><a xlink:href="replace_8cpp.html#a28a648dd20504ebc0c03623a28d82c93" target="_top" xlink:title="asprintf">
<polygon fill="white" stroke="black" points="173.5,-38.5 173.5,-57.5 222.5,-57.5 222.5,-38.5 173.5,-38.5"/>
<text text-anchor="middle" x="198" y="-45.5" font-family="Helvetica,sans-Serif" font-size="10.00">asprintf</text>
</a>
</g>
</g>
<!-- Node1&#45;&gt;Node7 -->
<g id="edge7" class="edge"><title>Node1&#45;&gt;Node7</title>
<path fill="none" stroke="midnightblue" d="M107.157,-61.8705C125.757,-58.9989 146.176,-55.8466 162.84,-53.2738"/>
<polygon fill="midnightblue" stroke="midnightblue" points="163.844,-56.6604 173.193,-51.6755 162.776,-49.7424 163.844,-56.6604"/>
</g>
<!-- Node9 -->
<g id="node9" class="node"><title>Node9</title>
<g id="a_node9"><a xlink:href="AP__Math_8h.html#a75b14352ec1c95a8276af9a0813cfdc3" target="_top" xlink:title="radians">
<polygon fill="white" stroke="black" points="174,-0.5 174,-19.5 222,-19.5 222,-0.5 174,-0.5"/>
<text text-anchor="middle" x="198" y="-7.5" font-family="Helvetica,sans-Serif" font-size="10.00">radians</text>
</a>
</g>
</g>
<!-- Node1&#45;&gt;Node9 -->
<g id="edge9" class="edge"><title>Node1&#45;&gt;Node9</title>
<path fill="none" stroke="midnightblue" d="M85.3087,-54.8459C102.177,-46.7733 123.548,-36.9068 143,-29 149.743,-26.2593 157.047,-23.5317 164.039,-21.0341"/>
<polygon fill="midnightblue" stroke="midnightblue" points="165.675,-24.1698 173.959,-17.5646 163.364,-17.5622 165.675,-24.1698"/>
</g>
<!-- Node3 -->
<g id="node3" class="node"><title>Node3</title>
<g id="a_node3"><a xlink:href="classSITL_1_1Aircraft.html#a6e437d1e0d08e28422a0ce365d3fdc8e" target="_top" xlink:title="SITL::Aircraft::filtered_idx">
<polygon fill="white" stroke="black" points="289,-106.5 289,-125.5 417,-125.5 417,-106.5 289,-106.5"/>
<text text-anchor="middle" x="353" y="-113.5" font-family="Helvetica,sans-Serif" font-size="10.00">SITL::Aircraft::filtered_idx</text>
</a>
</g>
</g>
<!-- Node2&#45;&gt;Node3 -->
<g id="edge2" class="edge"><title>Node2&#45;&gt;Node3</title>
<path fill="none" stroke="midnightblue" d="M253.373,-132.116C263.165,-130.516 273.485,-128.829 283.614,-127.174"/>
<polygon fill="midnightblue" stroke="midnightblue" points="284.348,-130.601 293.653,-125.534 283.219,-123.692 284.348,-130.601"/>
</g>
<!-- Node4 -->
<g id="node4" class="node"><title>Node4</title>
<g id="a_node4"><a xlink:href="classLowPassFilter.html#a1cc5016de137b01080fa0a6fa7fe53cd" target="_top" xlink:title="LowPassFilter::set\l_cutoff_frequency">
<polygon fill="white" stroke="black" points="458,-123 458,-153 556,-153 556,-123 458,-123"/>
<text text-anchor="start" x="466" y="-141" font-family="Helvetica,sans-Serif" font-size="10.00">LowPassFilter::set</text>
<text text-anchor="middle" x="507" y="-130" font-family="Helvetica,sans-Serif" font-size="10.00">_cutoff_frequency</text>
</a>
</g>
</g>
<!-- Node3&#45;&gt;Node4 -->
<g id="edge3" class="edge"><title>Node3&#45;&gt;Node4</title>
<path fill="none" stroke="midnightblue" d="M417.141,-125.139C427.19,-126.593 437.548,-128.093 447.485,-129.531"/>
<polygon fill="midnightblue" stroke="midnightblue" points="447.258,-133.034 457.657,-131.003 448.261,-126.106 447.258,-133.034"/>
</g>
<!-- Node5 -->
<g id="node5" class="node"><title>Node5</title>
<g id="a_node5"><a xlink:href="classLowPassFilter.html#aa390849d2e18ff3287f92b89d8657841" target="_top" xlink:title="LowPassFilter::apply">
<polygon fill="white" stroke="black" points="453,-84.5 453,-103.5 561,-103.5 561,-84.5 453,-84.5"/>
<text text-anchor="middle" x="507" y="-91.5" font-family="Helvetica,sans-Serif" font-size="10.00">LowPassFilter::apply</text>
</a>
</g>
</g>
<!-- Node3&#45;&gt;Node5 -->
<g id="edge4" class="edge"><title>Node3&#45;&gt;Node5</title>
<path fill="none" stroke="midnightblue" d="M417.141,-106.861C425.701,-105.622 434.484,-104.351 443.04,-103.113"/>
<polygon fill="midnightblue" stroke="midnightblue" points="443.557,-106.574 452.953,-101.678 442.555,-99.6465 443.557,-106.574"/>
</g>
<!-- Node6&#45;&gt;Node3 -->
<g id="edge6" class="edge"><title>Node6&#45;&gt;Node3</title>
<path fill="none" stroke="midnightblue" d="M253.373,-100.529C262.393,-101.944 271.862,-103.429 281.216,-104.897"/>
<polygon fill="midnightblue" stroke="midnightblue" points="280.874,-108.386 291.295,-106.478 281.958,-101.47 280.874,-108.386"/>
</g>
<!-- Node8 -->
<g id="node8" class="node"><title>Node8</title>
<g id="a_node8"><a xlink:href="replace_8cpp.html#a4e85b35525311e653744c2bfd3e9971e" target="_top" xlink:title="vasprintf">
<polygon fill="white" stroke="black" points="326,-38.5 326,-57.5 380,-57.5 380,-38.5 326,-38.5"/>
<text text-anchor="middle" x="353" y="-45.5" font-family="Helvetica,sans-Serif" font-size="10.00">vasprintf</text>
</a>
</g>
</g>
<!-- Node7&#45;&gt;Node8 -->
<g id="edge8" class="edge"><title>Node7&#45;&gt;Node8</title>
<path fill="none" stroke="midnightblue" d="M222.571,-48C247.431,-48 286.919,-48 315.746,-48"/>
<polygon fill="midnightblue" stroke="midnightblue" points="315.838,-51.5001 325.838,-48 315.838,-44.5001 315.838,-51.5001"/>
</g>
</g>
</svg>
