<?xml version="1.0" encoding="UTF-8" standalone="no"?>
<!DOCTYPE svg PUBLIC "-//W3C//DTD SVG 1.1//EN"
 "http://www.w3.org/Graphics/SVG/1.1/DTD/svg11.dtd">
<!-- Generated by graphviz version 2.38.0 (20140413.2041)
 -->
<!-- Title: AP_ADSB::set_callsign Pages: 1 -->
<svg width="538pt" height="75pt"
 viewBox="0.00 0.00 538.00 75.00" xmlns="http://www.w3.org/2000/svg" xmlns:xlink="http://www.w3.org/1999/xlink">
<g id="graph0" class="graph" transform="scale(1 1) rotate(0) translate(4 71)">
<title>AP_ADSB::set_callsign</title>
<polygon fill="white" stroke="none" points="-4,4 -4,-71 534,-71 534,4 -4,4"/>
<!-- Node1 -->
<g id="node1" class="node"><title>Node1</title>
<polygon fill="#bfbfbf" stroke="black" points="0,-28.5 0,-47.5 121,-47.5 121,-28.5 0,-28.5"/>
<text text-anchor="middle" x="60.5" y="-35.5" font-family="Helvetica,sans-Serif" font-size="10.00">AP_ADSB::set_callsign</text>
</g>
<!-- Node2 -->
<g id="node2" class="node"><title>Node2</title>
<g id="a_node2"><a xlink:href="classAP__ADSB.html#af26aa027b7f46c7bc4c6df02e2b383d8" target="_top" xlink:title="AP_ADSB::enabled">
<polygon fill="white" stroke="black" points="275,-47.5 275,-66.5 378,-66.5 378,-47.5 275,-47.5"/>
<text text-anchor="middle" x="326.5" y="-54.5" font-family="Helvetica,sans-Serif" font-size="10.00">AP_ADSB::enabled</text>
</a>
</g>
</g>
<!-- Node1&#45;&gt;Node2 -->
<g id="edge1" class="edge"><title>Node1&#45;&gt;Node2</title>
<path fill="none" stroke="midnightblue" d="M110.298,-49.6249C125.198,-52.6551 141.691,-55.4919 157,-57 196.448,-60.886 241.342,-60.6583 274.866,-59.583"/>
<polygon fill="midnightblue" stroke="midnightblue" points="110.778,-46.1492 100.271,-47.5101 109.334,-52.9985 110.778,-46.1492"/>
</g>
<!-- Node4 -->
<g id="node4" class="node"><title>Node4</title>
<g id="a_node4"><a xlink:href="classAP__ADSB.html#afcd0982d6c1f245d47e5ffeee6ecb6fb" target="_top" xlink:title="AP_ADSB::init">
<polygon fill="white" stroke="black" points="157,-28.5 157,-47.5 239,-47.5 239,-28.5 157,-28.5"/>
<text text-anchor="middle" x="198" y="-35.5" font-family="Helvetica,sans-Serif" font-size="10.00">AP_ADSB::init</text>
</a>
</g>
</g>
<!-- Node1&#45;&gt;Node4 -->
<g id="edge3" class="edge"><title>Node1&#45;&gt;Node4</title>
<path fill="none" stroke="midnightblue" d="M131.542,-38C140.253,-38 148.914,-38 156.947,-38"/>
<polygon fill="midnightblue" stroke="midnightblue" points="131.327,-34.5001 121.327,-38 131.327,-41.5001 131.327,-34.5001"/>
</g>
<!-- Node5 -->
<g id="node5" class="node"><title>Node5</title>
<g id="a_node5"><a xlink:href="classAP__ADSB.html#ab8305f5d3238ab9efff026ed1e6dc283" target="_top" xlink:title="AP_ADSB::update">
<polygon fill="white" stroke="black" points="277.5,-0.5 277.5,-19.5 375.5,-19.5 375.5,-0.5 277.5,-0.5"/>
<text text-anchor="middle" x="326.5" y="-7.5" font-family="Helvetica,sans-Serif" font-size="10.00">AP_ADSB::update</text>
</a>
</g>
</g>
<!-- Node1&#45;&gt;Node5 -->
<g id="edge6" class="edge"><title>Node1&#45;&gt;Node5</title>
<path fill="none" stroke="midnightblue" d="M112.775,-26.3976C127.028,-23.5556 142.558,-20.8129 157,-19 197.403,-13.9283 243.607,-11.7108 277.402,-10.7432"/>
<polygon fill="midnightblue" stroke="midnightblue" points="111.749,-23.035 102.656,-28.4727 113.155,-29.8923 111.749,-23.035"/>
</g>
<!-- Node3 -->
<g id="node3" class="node"><title>Node3</title>
<g id="a_node3"><a xlink:href="classAP__Avoidance.html#a37059296c298d5f6d9a5fb11bab4d329" target="_top" xlink:title="AP_Avoidance::update">
<polygon fill="white" stroke="black" points="414,-47.5 414,-66.5 530,-66.5 530,-47.5 414,-47.5"/>
<text text-anchor="middle" x="472" y="-54.5" font-family="Helvetica,sans-Serif" font-size="10.00">AP_Avoidance::update</text>
</a>
</g>
</g>
<!-- Node2&#45;&gt;Node3 -->
<g id="edge2" class="edge"><title>Node2&#45;&gt;Node3</title>
<path fill="none" stroke="midnightblue" d="M388.196,-57C396.588,-57 405.188,-57 413.52,-57"/>
<polygon fill="midnightblue" stroke="midnightblue" points="388.093,-53.5001 378.093,-57 388.093,-60.5001 388.093,-53.5001"/>
</g>
<!-- Node4&#45;&gt;Node2 -->
<g id="edge4" class="edge"><title>Node4&#45;&gt;Node2</title>
<path fill="none" stroke="midnightblue" d="M249.063,-45.5193C257.458,-46.7803 266.178,-48.09 274.594,-49.3541"/>
<polygon fill="midnightblue" stroke="midnightblue" points="249.434,-42.0359 239.025,-44.0117 248.395,-48.9583 249.434,-42.0359"/>
</g>
<!-- Node4&#45;&gt;Node5 -->
<g id="edge5" class="edge"><title>Node4&#45;&gt;Node5</title>
<path fill="none" stroke="midnightblue" d="M248.935,-26.9472C259.943,-24.5107 271.513,-21.9496 282.231,-19.5773"/>
<polygon fill="midnightblue" stroke="midnightblue" points="248.033,-23.5621 239.025,-29.1406 249.545,-30.3967 248.033,-23.5621"/>
</g>
</g>
</svg>
