<?xml version="1.0" encoding="UTF-8" standalone="no"?>
<!DOCTYPE svg PUBLIC "-//W3C//DTD SVG 1.1//EN"
 "http://www.w3.org/Graphics/SVG/1.1/DTD/svg11.dtd">
<!-- Generated by graphviz version 2.38.0 (20140413.2041)
 -->
<!-- Title: AP_Baro_UAVCAN Pages: 1 -->
<svg width="649pt" height="232pt"
 viewBox="0.00 0.00 648.50 232.00" xmlns="http://www.w3.org/2000/svg" xmlns:xlink="http://www.w3.org/1999/xlink">
<g id="graph0" class="graph" transform="scale(1 1) rotate(0) translate(4 228)">
<title>AP_Baro_UAVCAN</title>
<polygon fill="white" stroke="none" points="-4,4 -4,-228 644.5,-228 644.5,4 -4,4"/>
<!-- Node1 -->
<g id="node1" class="node"><title>Node1</title>
<polygon fill="#bfbfbf" stroke="black" points="527.5,-0.5 527.5,-19.5 631.5,-19.5 631.5,-0.5 527.5,-0.5"/>
<text text-anchor="middle" x="579.5" y="-7.5" font-family="Helvetica,sans-Serif" font-size="10.00">AP_Baro_UAVCAN</text>
</g>
<!-- Node2 -->
<g id="node2" class="node"><title>Node2</title>
<g id="a_node2"><a xlink:href="classAP__Baro__Backend.html" target="_top" xlink:title="AP_Baro_Backend">
<polygon fill="white" stroke="black" points="472,-68.5 472,-87.5 571,-87.5 571,-68.5 472,-68.5"/>
<text text-anchor="middle" x="521.5" y="-75.5" font-family="Helvetica,sans-Serif" font-size="10.00">AP_Baro_Backend</text>
</a>
</g>
</g>
<!-- Node2&#45;&gt;Node1 -->
<g id="edge1" class="edge"><title>Node2&#45;&gt;Node1</title>
<path fill="none" stroke="midnightblue" d="M535.842,-60.68C547.181,-47.7768 562.577,-30.2575 571.731,-19.8411"/>
<polygon fill="midnightblue" stroke="midnightblue" points="533.055,-58.5496 529.082,-68.3717 538.313,-63.1704 533.055,-58.5496"/>
</g>
<!-- Node3 -->
<g id="node3" class="node"><title>Node3</title>
<g id="a_node3"><a xlink:href="classAP__Baro.html" target="_top" xlink:title="AP_Baro">
<polygon fill="white" stroke="black" points="286.5,-0.5 286.5,-19.5 342.5,-19.5 342.5,-0.5 286.5,-0.5"/>
<text text-anchor="middle" x="314.5" y="-7.5" font-family="Helvetica,sans-Serif" font-size="10.00">AP_Baro</text>
</a>
</g>
</g>
<!-- Node2&#45;&gt;Node3 -->
<g id="edge9" class="edge"><title>Node2&#45;&gt;Node3</title>
<path fill="none" stroke="#9a32cd" stroke-dasharray="5,2" d="M474.285,-65.9868C455.262,-61.2317 433.201,-55.3127 413.5,-49 385.799,-40.1241 354.58,-27.7294 334.738,-19.5404"/>
<polygon fill="#9a32cd" stroke="#9a32cd" points="473.668,-69.4395 484.215,-68.4333 475.343,-62.6427 473.668,-69.4395"/>
<text text-anchor="middle" x="430" y="-41" font-family="Helvetica,sans-Serif" font-size="10.00"> drivers</text>
</g>
<!-- Node3&#45;&gt;Node2 -->
<g id="edge2" class="edge"><title>Node3&#45;&gt;Node2</title>
<path fill="none" stroke="#9a32cd" stroke-dasharray="5,2" d="M352.614,-15.3849C380.356,-19.3346 418.509,-26.3534 450.5,-38 472.041,-45.842 494.935,-59.5087 508.726,-68.4035"/>
<polygon fill="#9a32cd" stroke="#9a32cd" points="352.905,-11.8925 342.526,-14.0182 351.965,-18.8291 352.905,-11.8925"/>
<text text-anchor="middle" x="497.5" y="-41" font-family="Helvetica,sans-Serif" font-size="10.00"> _frontend</text>
</g>
<!-- Node4 -->
<g id="node4" class="node"><title>Node4</title>
<g id="a_node4"><a xlink:href="structAP__Baro_1_1sensor.html" target="_top" xlink:title="AP_Baro::sensor">
<polygon fill="white" stroke="black" points="0,-68.5 0,-87.5 91,-87.5 91,-68.5 0,-68.5"/>
<text text-anchor="middle" x="45.5" y="-75.5" font-family="Helvetica,sans-Serif" font-size="10.00">AP_Baro::sensor</text>
</a>
</g>
</g>
<!-- Node4&#45;&gt;Node3 -->
<g id="edge3" class="edge"><title>Node4&#45;&gt;Node3</title>
<path fill="none" stroke="#9a32cd" stroke-dasharray="5,2" d="M80.1145,-65.2406C105.487,-56.8984 140.877,-45.8365 172.5,-38 211.594,-28.3119 257.484,-20.1589 286.281,-15.4242"/>
<polygon fill="#9a32cd" stroke="#9a32cd" points="78.962,-61.9353 70.572,-68.4051 81.1654,-68.5795 78.962,-61.9353"/>
<text text-anchor="middle" x="191.5" y="-41" font-family="Helvetica,sans-Serif" font-size="10.00"> sensors</text>
</g>
<!-- Node5 -->
<g id="node5" class="node"><title>Node5</title>
<g id="a_node5"><a xlink:href="classDerivativeFilter.html" target="_top" xlink:title="DerivativeFilter\&lt; float, 7 \&gt;">
<polygon fill="white" stroke="black" points="109,-68.5 109,-87.5 240,-87.5 240,-68.5 109,-68.5"/>
<text text-anchor="middle" x="174.5" y="-75.5" font-family="Helvetica,sans-Serif" font-size="10.00">DerivativeFilter&lt; float, 7 &gt;</text>
</a>
</g>
</g>
<!-- Node5&#45;&gt;Node3 -->
<g id="edge4" class="edge"><title>Node5&#45;&gt;Node3</title>
<path fill="none" stroke="#9a32cd" stroke-dasharray="5,2" d="M193.816,-62.0512C204.728,-54.1206 218.876,-44.666 232.5,-38 249.733,-29.5686 270.233,-22.8186 286.424,-18.1764"/>
<polygon fill="#9a32cd" stroke="#9a32cd" points="191.417,-59.4748 185.494,-68.2598 195.603,-65.0854 191.417,-59.4748"/>
<text text-anchor="middle" x="271.5" y="-41" font-family="Helvetica,sans-Serif" font-size="10.00"> _climb_rate_filter</text>
</g>
<!-- Node6 -->
<g id="node6" class="node"><title>Node6</title>
<g id="a_node6"><a xlink:href="classFilterWithBuffer.html" target="_top" xlink:title="FilterWithBuffer\&lt; float,\l FILTER_SIZE \&gt;">
<polygon fill="white" stroke="black" points="116.5,-136.5 116.5,-166.5 232.5,-166.5 232.5,-136.5 116.5,-136.5"/>
<text text-anchor="start" x="124.5" y="-154.5" font-family="Helvetica,sans-Serif" font-size="10.00">FilterWithBuffer&lt; float,</text>
<text text-anchor="middle" x="174.5" y="-143.5" font-family="Helvetica,sans-Serif" font-size="10.00"> FILTER_SIZE &gt;</text>
</a>
</g>
</g>
<!-- Node6&#45;&gt;Node5 -->
<g id="edge5" class="edge"><title>Node6&#45;&gt;Node5</title>
<path fill="none" stroke="midnightblue" d="M174.5,-126.357C174.5,-113.015 174.5,-97.2528 174.5,-87.6981"/>
<polygon fill="midnightblue" stroke="midnightblue" points="171,-126.374 174.5,-136.374 178,-126.374 171,-126.374"/>
</g>
<!-- Node7 -->
<g id="node7" class="node"><title>Node7</title>
<g id="a_node7"><a xlink:href="classFilter.html" target="_top" xlink:title="Filter\&lt; float \&gt;">
<polygon fill="white" stroke="black" points="137,-204.5 137,-223.5 212,-223.5 212,-204.5 137,-204.5"/>
<text text-anchor="middle" x="174.5" y="-211.5" font-family="Helvetica,sans-Serif" font-size="10.00">Filter&lt; float &gt;</text>
</a>
</g>
</g>
<!-- Node7&#45;&gt;Node6 -->
<g id="edge6" class="edge"><title>Node7&#45;&gt;Node6</title>
<path fill="none" stroke="midnightblue" d="M174.5,-194.215C174.5,-185.356 174.5,-174.958 174.5,-166.759"/>
<polygon fill="midnightblue" stroke="midnightblue" points="171,-194.332 174.5,-204.332 178,-194.332 171,-194.332"/>
</g>
<!-- Node8 -->
<g id="node8" class="node"><title>Node8</title>
<g id="a_node8"><a xlink:href="structAP__Param_1_1GroupInfo.html" target="_top" xlink:title="AP_Param::GroupInfo">
<polygon fill="white" stroke="black" points="258,-68.5 258,-87.5 371,-87.5 371,-68.5 258,-68.5"/>
<text text-anchor="middle" x="314.5" y="-75.5" font-family="Helvetica,sans-Serif" font-size="10.00">AP_Param::GroupInfo</text>
</a>
</g>
</g>
<!-- Node8&#45;&gt;Node3 -->
<g id="edge7" class="edge"><title>Node8&#45;&gt;Node3</title>
<path fill="none" stroke="#9a32cd" stroke-dasharray="5,2" d="M314.5,-58.0413C314.5,-45.4724 314.5,-29.5631 314.5,-19.8411"/>
<polygon fill="#9a32cd" stroke="#9a32cd" points="311,-58.3716 314.5,-68.3717 318,-58.3717 311,-58.3716"/>
<text text-anchor="middle" x="333.5" y="-41" font-family="Helvetica,sans-Serif" font-size="10.00"> var_info</text>
</g>
<!-- Node8&#45;&gt;Node8 -->
<g id="edge8" class="edge"><title>Node8&#45;&gt;Node8</title>
<path fill="none" stroke="#9a32cd" stroke-dasharray="5,2" d="M380.988,-82.7523C385.952,-81.6899 389,-80.1058 389,-78 389,-74.7129 381.572,-72.697 371.026,-71.9522"/>
<polygon fill="#9a32cd" stroke="#9a32cd" points="380.491,-79.2874 371.026,-84.0478 381.393,-86.229 380.491,-79.2874"/>
<text text-anchor="middle" x="421.5" y="-81" font-family="Helvetica,sans-Serif" font-size="10.00"> group_info_ptr</text>
<text text-anchor="middle" x="421.5" y="-70" font-family="Helvetica,sans-Serif" font-size="10.00">group_info</text>
</g>
<!-- Node9 -->
<g id="node9" class="node"><title>Node9</title>
<g id="a_node9"><a xlink:href="classAP__HAL_1_1Semaphore.html" target="_top" xlink:title="AP_HAL::Semaphore">
<polygon fill="white" stroke="black" points="530.5,-142 530.5,-161 640.5,-161 640.5,-142 530.5,-142"/>
<text text-anchor="middle" x="585.5" y="-149" font-family="Helvetica,sans-Serif" font-size="10.00">AP_HAL::Semaphore</text>
</a>
</g>
</g>
<!-- Node9&#45;&gt;Node1 -->
<g id="edge11" class="edge"><title>Node9&#45;&gt;Node1</title>
<path fill="none" stroke="#9a32cd" stroke-dasharray="5,2" d="M586.852,-131.734C587.121,-127.237 587.363,-122.45 587.5,-118 588.628,-81.3197 583.282,-37.7296 580.759,-19.5856"/>
<polygon fill="#9a32cd" stroke="#9a32cd" points="583.344,-131.742 586.17,-141.953 590.328,-132.208 583.344,-131.742"/>
<text text-anchor="middle" x="613.5" y="-75.5" font-family="Helvetica,sans-Serif" font-size="10.00"> _sem_baro</text>
</g>
<!-- Node9&#45;&gt;Node2 -->
<g id="edge10" class="edge"><title>Node9&#45;&gt;Node2</title>
<path fill="none" stroke="#9a32cd" stroke-dasharray="5,2" d="M570.79,-134.066C557.918,-119.686 539.713,-99.3472 529.412,-87.839"/>
<polygon fill="#9a32cd" stroke="#9a32cd" points="568.375,-136.616 577.652,-141.733 573.591,-131.947 568.375,-136.616"/>
<text text-anchor="middle" x="569.5" y="-110" font-family="Helvetica,sans-Serif" font-size="10.00"> _sem</text>
</g>
</g>
</svg>
