<?xml version="1.0" encoding="UTF-8" standalone="no"?>
<!DOCTYPE svg PUBLIC "-//W3C//DTD SVG 1.1//EN"
 "http://www.w3.org/Graphics/SVG/1.1/DTD/svg11.dtd">
<!-- Generated by graphviz version 2.38.0 (20140413.2041)
 -->
<!-- Title: NavEKF2::setInhibitGPS Pages: 1 -->
<svg width="671pt" height="127pt"
 viewBox="0.00 0.00 671.00 127.00" xmlns="http://www.w3.org/2000/svg" xmlns:xlink="http://www.w3.org/1999/xlink">
<g id="graph0" class="graph" transform="scale(1 1) rotate(0) translate(4 123)">
<title>NavEKF2::setInhibitGPS</title>
<polygon fill="white" stroke="none" points="-4,4 -4,-123 667,-123 667,4 -4,4"/>
<!-- Node1 -->
<g id="node1" class="node"><title>Node1</title>
<polygon fill="#bfbfbf" stroke="black" points="0,-29 0,-48 126,-48 126,-29 0,-29"/>
<text text-anchor="middle" x="63" y="-36" font-family="Helvetica,sans-Serif" font-size="10.00">NavEKF2::setInhibitGPS</text>
</g>
<!-- Node2 -->
<g id="node2" class="node"><title>Node2</title>
<g id="a_node2"><a xlink:href="classNavEKF2.html#ab18af2714c15fcf190493c01e2a28c73" target="_top" xlink:title="NavEKF2::activeCores">
<polygon fill="white" stroke="black" points="189.5,-50 189.5,-69 307.5,-69 307.5,-50 189.5,-50"/>
<text text-anchor="middle" x="248.5" y="-57" font-family="Helvetica,sans-Serif" font-size="10.00">NavEKF2::activeCores</text>
</a>
</g>
</g>
<!-- Node1&#45;&gt;Node2 -->
<g id="edge1" class="edge"><title>Node1&#45;&gt;Node2</title>
<path fill="none" stroke="midnightblue" d="M136.363,-46.7814C153.985,-48.798 172.606,-50.929 189.463,-52.8582"/>
<polygon fill="midnightblue" stroke="midnightblue" points="136.458,-43.2694 126.125,-45.6096 135.662,-50.224 136.458,-43.2694"/>
</g>
<!-- Node6 -->
<g id="node6" class="node"><title>Node6</title>
<g id="a_node6"><a xlink:href="classAP__AHRS__NavEKF.html#a9192f894edf7f01eeb0a9968a117865d" target="_top" xlink:title="AP_AHRS_NavEKF::setInhibitGPS">
<polygon fill="white" stroke="black" points="162,-9 162,-28 335,-28 335,-9 162,-9"/>
<text text-anchor="middle" x="248.5" y="-16" font-family="Helvetica,sans-Serif" font-size="10.00">AP_AHRS_NavEKF::setInhibitGPS</text>
</a>
</g>
</g>
<!-- Node1&#45;&gt;Node6 -->
<g id="edge5" class="edge"><title>Node1&#45;&gt;Node6</title>
<path fill="none" stroke="midnightblue" d="M136.195,-30.6313C144.56,-29.7196 153.153,-28.7831 161.677,-27.854"/>
<polygon fill="midnightblue" stroke="midnightblue" points="135.687,-27.1659 126.125,-31.7289 136.445,-34.1247 135.687,-27.1659"/>
</g>
<!-- Node3 -->
<g id="node3" class="node"><title>Node3</title>
<g id="a_node3"><a xlink:href="classDataFlash__Class.html#a46e58faaa53c44516433f6bb7bde4163" target="_top" xlink:title="DataFlash_Class::Log\l_Write_POS">
<polygon fill="white" stroke="black" points="386,-88.5 386,-118.5 500,-118.5 500,-88.5 386,-88.5"/>
<text text-anchor="start" x="394" y="-106.5" font-family="Helvetica,sans-Serif" font-size="10.00">DataFlash_Class::Log</text>
<text text-anchor="middle" x="443" y="-95.5" font-family="Helvetica,sans-Serif" font-size="10.00">_Write_POS</text>
</a>
</g>
</g>
<!-- Node2&#45;&gt;Node3 -->
<g id="edge2" class="edge"><title>Node2&#45;&gt;Node3</title>
<path fill="none" stroke="midnightblue" d="M301.332,-71.3473C327.401,-77.3059 359.038,-84.5373 385.702,-90.632"/>
<polygon fill="midnightblue" stroke="midnightblue" points="301.798,-67.8637 291.27,-69.0473 300.238,-74.6877 301.798,-67.8637"/>
</g>
<!-- Node5 -->
<g id="node5" class="node"><title>Node5</title>
<g id="a_node5"><a xlink:href="classGCS__MAVLINK.html#a558ba3447048b78cb9dde460053e2741" target="_top" xlink:title="GCS_MAVLINK::send_ahrs2">
<polygon fill="white" stroke="black" points="371,-50 371,-69 515,-69 515,-50 371,-50"/>
<text text-anchor="middle" x="443" y="-57" font-family="Helvetica,sans-Serif" font-size="10.00">GCS_MAVLINK::send_ahrs2</text>
</a>
</g>
</g>
<!-- Node2&#45;&gt;Node5 -->
<g id="edge4" class="edge"><title>Node2&#45;&gt;Node5</title>
<path fill="none" stroke="midnightblue" d="M318.002,-59.5C335.141,-59.5 353.565,-59.5 370.831,-59.5"/>
<polygon fill="midnightblue" stroke="midnightblue" points="317.517,-56.0001 307.517,-59.5 317.517,-63.0001 317.517,-56.0001"/>
</g>
<!-- Node4 -->
<g id="node4" class="node"><title>Node4</title>
<g id="a_node4"><a xlink:href="classDataFlash__Class.html#a7868f0e3dcef65ea5b5fcae618f4c5d4" target="_top" xlink:title="DataFlash_Class::get\l_structures">
<polygon fill="white" stroke="black" points="551,-88.5 551,-118.5 663,-118.5 663,-88.5 551,-88.5"/>
<text text-anchor="start" x="559" y="-106.5" font-family="Helvetica,sans-Serif" font-size="10.00">DataFlash_Class::get</text>
<text text-anchor="middle" x="607" y="-95.5" font-family="Helvetica,sans-Serif" font-size="10.00">_structures</text>
</a>
</g>
</g>
<!-- Node3&#45;&gt;Node4 -->
<g id="edge3" class="edge"><title>Node3&#45;&gt;Node4</title>
<path fill="none" stroke="midnightblue" d="M510.39,-103.5C523.885,-103.5 537.94,-103.5 550.988,-103.5"/>
<polygon fill="midnightblue" stroke="midnightblue" points="510.205,-100 500.205,-103.5 510.205,-107 510.205,-100"/>
</g>
<!-- Node7 -->
<g id="node7" class="node"><title>Node7</title>
<g id="a_node7"><a xlink:href="classAP__AHRS__NavEKF.html#add98225e5350abab51cccd311f5496c3" target="_top" xlink:title="AP_AHRS_NavEKF::get\l_NavEKF3_const">
<polygon fill="white" stroke="black" points="380,-0.5 380,-30.5 506,-30.5 506,-0.5 380,-0.5"/>
<text text-anchor="start" x="388" y="-18.5" font-family="Helvetica,sans-Serif" font-size="10.00">AP_AHRS_NavEKF::get</text>
<text text-anchor="middle" x="443" y="-7.5" font-family="Helvetica,sans-Serif" font-size="10.00">_NavEKF3_const</text>
</a>
</g>
</g>
<!-- Node6&#45;&gt;Node7 -->
<g id="edge6" class="edge"><title>Node6&#45;&gt;Node7</title>
<path fill="none" stroke="midnightblue" d="M345.329,-17.0066C357.043,-16.824 368.765,-16.6413 379.802,-16.4693"/>
<polygon fill="midnightblue" stroke="midnightblue" points="344.999,-13.5112 335.054,-17.1667 345.108,-20.5103 344.999,-13.5112"/>
</g>
</g>
</svg>
