<?xml version="1.0" encoding="UTF-8" standalone="no"?>
<!DOCTYPE svg PUBLIC "-//W3C//DTD SVG 1.1//EN"
 "http://www.w3.org/Graphics/SVG/1.1/DTD/svg11.dtd">
<!-- Generated by graphviz version 2.38.0 (20140413.2041)
 -->
<!-- Title: Linux::RCOutput_Sysfs::from Pages: 1 -->
<!--zoomable 719 -->
<svg id="main" version="1.1" xmlns="http://www.w3.org/2000/svg" xmlns:xlink="http://www.w3.org/1999/xlink" xml:space="preserve" onload="init(evt)">
<style type="text/css"><![CDATA[
.edge:hover path { stroke: red; }
.edge:hover polygon { stroke: red; fill: red; }
]]></style>
<script type="text/javascript"><![CDATA[
var edges = document.getElementsByTagName('g');
if (edges && edges.length) {
  for (var i=0;i<edges.length;i++) {
    if (edges[i].id.substr(0,4)=='edge') {
      edges[i].setAttribute('class','edge');
    }
  }
}
]]></script>
        <defs>
                <circle id="rim" cx="0" cy="0" r="7"/>
                <circle id="rim2" cx="0" cy="0" r="3.5"/>
                <g id="zoomPlus">
                        <use xlink:href="#rim" fill="#404040">
                                <set attributeName="fill" to="#808080" begin="zoomplus.mouseover" end="zoomplus.mouseout"/>
                        </use>
                        <path d="M-4,0h8M0,-4v8" fill="none" stroke="white" stroke-width="1.5" pointer-events="none"/>
                </g>
                <g id="zoomMin">
                        <use xlink:href="#rim" fill="#404040">
                                <set attributeName="fill" to="#808080" begin="zoomminus.mouseover" end="zoomminus.mouseout"/>
                        </use>
                        <path d="M-4,0h8" fill="none" stroke="white" stroke-width="1.5" pointer-events="none"/>
                </g>
                <g id="dirArrow">
                        <path fill="none" stroke="white" stroke-width="1.5" d="M0,-3.0v7 M-2.5,-0.5L0,-3.0L2.5,-0.5"/>
                </g>
               <g id="resetDef">
                       <use xlink:href="#rim2" fill="#404040">
                               <set attributeName="fill" to="#808080" begin="reset.mouseover" end="reset.mouseout"/>
                       </use>
               </g>
        </defs>

<script type="text/javascript">
var viewWidth = 1204;
var viewHeight = 719;
var sectionId = 'dynsection-7';
</script>
<script xlink:href="svgpan.js"/>
<svg id="graph" class="graph">
<g id="viewport">
<title>Linux::RCOutput_Sysfs::from</title>
<polygon fill="white" stroke="none" points="-4,4 -4,-715 1200,-715 1200,4 -4,4"/>
<!-- Node1 -->
<g id="node1" class="node"><title>Node1</title>
<polygon fill="#bfbfbf" stroke="black" points="0,-196.5 0,-226.5 121,-226.5 121,-196.5 0,-196.5"/>
<text text-anchor="start" x="8" y="-214.5" font-family="Helvetica,sans-Serif" font-size="10.00">Linux::RCOutput_Sysfs</text>
<text text-anchor="middle" x="60.5" y="-203.5" font-family="Helvetica,sans-Serif" font-size="10.00">::from</text>
</g>
<!-- Node2 -->
<g id="node2" class="node"><title>Node2</title>
<g id="a_node2"><a xlink:href="classLinux_1_1RCOutput__Sysfs.html#ad1cd8fe20a99d08df3401f1f0ea968f2" target="_top" xlink:title="Linux::RCOutput_Sysfs\l::init">
<polygon fill="white" stroke="black" points="157,-366.5 157,-396.5 278,-396.5 278,-366.5 157,-366.5"/>
<text text-anchor="start" x="165" y="-384.5" font-family="Helvetica,sans-Serif" font-size="10.00">Linux::RCOutput_Sysfs</text>
<text text-anchor="middle" x="217.5" y="-373.5" font-family="Helvetica,sans-Serif" font-size="10.00">::init</text>
</a>
</g>
</g>
<!-- Node1&#45;&gt;Node2 -->
<g id="edge1" class="edge"><title>Node1&#45;&gt;Node2</title>
<path fill="none" stroke="midnightblue" d="M75.2552,-226.586C102.532,-256.503 163.611,-323.493 195.778,-358.772"/>
<polygon fill="midnightblue" stroke="midnightblue" points="193.229,-361.172 202.553,-366.203 198.402,-356.455 193.229,-361.172"/>
</g>
<!-- Node30 -->
<g id="node30" class="node"><title>Node30</title>
<g id="a_node30"><a xlink:href="classLinux_1_1RCOutput__Sysfs.html#a0a4cf0992b407310a803096d3dadba57" target="_top" xlink:title="Linux::RCOutput_Sysfs\l::set_freq">
<polygon fill="white" stroke="black" points="157,-415.5 157,-445.5 278,-445.5 278,-415.5 157,-415.5"/>
<text text-anchor="start" x="165" y="-433.5" font-family="Helvetica,sans-Serif" font-size="10.00">Linux::RCOutput_Sysfs</text>
<text text-anchor="middle" x="217.5" y="-422.5" font-family="Helvetica,sans-Serif" font-size="10.00">::set_freq</text>
</a>
</g>
</g>
<!-- Node1&#45;&gt;Node30 -->
<g id="edge38" class="edge"><title>Node1&#45;&gt;Node30</title>
<path fill="none" stroke="midnightblue" d="M64.9472,-226.677C73.887,-262.754 101.115,-354.501 157,-406.5 158.261,-407.674 159.588,-408.793 160.966,-409.861"/>
<polygon fill="midnightblue" stroke="midnightblue" points="159.08,-412.81 169.348,-415.423 162.951,-406.977 159.08,-412.81"/>
</g>
<!-- Node31 -->
<g id="node31" class="node"><title>Node31</title>
<g id="a_node31"><a xlink:href="classLinux_1_1RCOutput__Sysfs.html#a7824f096a7c23dd8192590d9c7e9c5f6" target="_top" xlink:title="Linux::RCOutput_Sysfs\l::get_freq">
<polygon fill="white" stroke="black" points="157,-196.5 157,-226.5 278,-226.5 278,-196.5 157,-196.5"/>
<text text-anchor="start" x="165" y="-214.5" font-family="Helvetica,sans-Serif" font-size="10.00">Linux::RCOutput_Sysfs</text>
<text text-anchor="middle" x="217.5" y="-203.5" font-family="Helvetica,sans-Serif" font-size="10.00">::get_freq</text>
</a>
</g>
</g>
<!-- Node1&#45;&gt;Node31 -->
<g id="edge40" class="edge"><title>Node1&#45;&gt;Node31</title>
<path fill="none" stroke="midnightblue" d="M121.427,-211.5C129.724,-211.5 138.305,-211.5 146.762,-211.5"/>
<polygon fill="midnightblue" stroke="midnightblue" points="146.988,-215 156.988,-211.5 146.988,-208 146.988,-215"/>
</g>
<!-- Node36 -->
<g id="node36" class="node"><title>Node36</title>
<g id="a_node36"><a xlink:href="classLinux_1_1RCOutput__Sysfs.html#a34f1fb98c400387682df5a72e8acb903" target="_top" xlink:title="Linux::RCOutput_Sysfs\l::enable_ch">
<polygon fill="white" stroke="black" points="318,-240.5 318,-270.5 439,-270.5 439,-240.5 318,-240.5"/>
<text text-anchor="start" x="326" y="-258.5" font-family="Helvetica,sans-Serif" font-size="10.00">Linux::RCOutput_Sysfs</text>
<text text-anchor="middle" x="378.5" y="-247.5" font-family="Helvetica,sans-Serif" font-size="10.00">::enable_ch</text>
</a>
</g>
</g>
<!-- Node1&#45;&gt;Node36 -->
<g id="edge47" class="edge"><title>Node1&#45;&gt;Node36</title>
<path fill="none" stroke="midnightblue" d="M112.694,-226.614C126.932,-230.348 142.476,-233.992 157,-236.5 206.95,-245.125 263.975,-249.907 307.519,-252.515"/>
<polygon fill="midnightblue" stroke="midnightblue" points="307.536,-256.022 317.721,-253.102 307.938,-249.033 307.536,-256.022"/>
</g>
<!-- Node37 -->
<g id="node37" class="node"><title>Node37</title>
<g id="a_node37"><a xlink:href="classLinux_1_1RCOutput__Sysfs.html#aa29841707c87803185f9cc79c8e41ca7" target="_top" xlink:title="Linux::RCOutput_Sysfs\l::disable_ch">
<polygon fill="white" stroke="black" points="318,-289.5 318,-319.5 439,-319.5 439,-289.5 318,-289.5"/>
<text text-anchor="start" x="326" y="-307.5" font-family="Helvetica,sans-Serif" font-size="10.00">Linux::RCOutput_Sysfs</text>
<text text-anchor="middle" x="378.5" y="-296.5" font-family="Helvetica,sans-Serif" font-size="10.00">::disable_ch</text>
</a>
</g>
</g>
<!-- Node1&#45;&gt;Node37 -->
<g id="edge49" class="edge"><title>Node1&#45;&gt;Node37</title>
<path fill="none" stroke="midnightblue" d="M89.2207,-226.61C107.92,-236.286 133.397,-248.485 157,-256.5 206.216,-273.212 263.639,-285.493 307.545,-293.448"/>
<polygon fill="midnightblue" stroke="midnightblue" points="307.091,-296.922 317.549,-295.229 308.317,-290.031 307.091,-296.922"/>
</g>
<!-- Node38 -->
<g id="node38" class="node"><title>Node38</title>
<g id="a_node38"><a xlink:href="classLinux_1_1RCOutput__Sysfs.html#a0051cf0dea1359a42e72d1219fee52c2" target="_top" xlink:title="Linux::RCOutput_Sysfs\l::write">
<polygon fill="white" stroke="black" points="157,-98.5 157,-128.5 278,-128.5 278,-98.5 157,-98.5"/>
<text text-anchor="start" x="165" y="-116.5" font-family="Helvetica,sans-Serif" font-size="10.00">Linux::RCOutput_Sysfs</text>
<text text-anchor="middle" x="217.5" y="-105.5" font-family="Helvetica,sans-Serif" font-size="10.00">::write</text>
</a>
</g>
</g>
<!-- Node1&#45;&gt;Node38 -->
<g id="edge51" class="edge"><title>Node1&#45;&gt;Node38</title>
<path fill="none" stroke="midnightblue" d="M78.0792,-196.335C96.3669,-180.183 127.171,-154.631 157,-137.5 159.801,-135.891 162.731,-134.339 165.725,-132.851"/>
<polygon fill="midnightblue" stroke="midnightblue" points="167.259,-135.998 174.832,-128.588 164.292,-129.658 167.259,-135.998"/>
</g>
<!-- Node40 -->
<g id="node40" class="node"><title>Node40</title>
<g id="a_node40"><a xlink:href="classLinux_1_1RCOutput__Sysfs.html#ae60870950e999300846cd48921384904" target="_top" xlink:title="Linux::RCOutput_Sysfs\l::read">
<polygon fill="white" stroke="black" points="157,-49.5 157,-79.5 278,-79.5 278,-49.5 157,-49.5"/>
<text text-anchor="start" x="165" y="-67.5" font-family="Helvetica,sans-Serif" font-size="10.00">Linux::RCOutput_Sysfs</text>
<text text-anchor="middle" x="217.5" y="-56.5" font-family="Helvetica,sans-Serif" font-size="10.00">::read</text>
</a>
</g>
</g>
<!-- Node1&#45;&gt;Node40 -->
<g id="edge54" class="edge"><title>Node1&#45;&gt;Node40</title>
<path fill="none" stroke="midnightblue" d="M69.7822,-196.152C84.298,-170.559 116.662,-118.975 157,-88.5 158.805,-87.1362 160.699,-85.8377 162.655,-84.6027"/>
<polygon fill="midnightblue" stroke="midnightblue" points="164.56,-87.5469 171.555,-79.5896 161.124,-81.4478 164.56,-87.5469"/>
</g>
<!-- Node42 -->
<g id="node42" class="node"><title>Node42</title>
<g id="a_node42"><a xlink:href="classLinux_1_1RCOutput__Sysfs.html#a4d873880d7c60d1feee875ff0d84a83c" target="_top" xlink:title="Linux::RCOutput_Sysfs\l::cork">
<polygon fill="white" stroke="black" points="157,-0.5 157,-30.5 278,-30.5 278,-0.5 157,-0.5"/>
<text text-anchor="start" x="165" y="-18.5" font-family="Helvetica,sans-Serif" font-size="10.00">Linux::RCOutput_Sysfs</text>
<text text-anchor="middle" x="217.5" y="-7.5" font-family="Helvetica,sans-Serif" font-size="10.00">::cork</text>
</a>
</g>
</g>
<!-- Node1&#45;&gt;Node42 -->
<g id="edge56" class="edge"><title>Node1&#45;&gt;Node42</title>
<path fill="none" stroke="midnightblue" d="M66.0198,-196.41C76.6111,-163.475 106.066,-84.505 157,-39.5 158.32,-38.3338 159.704,-37.2201 161.139,-36.1568"/>
<polygon fill="midnightblue" stroke="midnightblue" points="163.283,-38.9398 169.824,-30.6049 159.513,-33.0418 163.283,-38.9398"/>
</g>
<!-- Node43 -->
<g id="node43" class="node"><title>Node43</title>
<g id="a_node43"><a xlink:href="classLinux_1_1RCOutput__Sysfs.html#aeadb2fda0065ffab9d2f962bbf9a54e1" target="_top" xlink:title="Linux::RCOutput_Sysfs\l::push">
<polygon fill="white" stroke="black" points="157,-147.5 157,-177.5 278,-177.5 278,-147.5 157,-147.5"/>
<text text-anchor="start" x="165" y="-165.5" font-family="Helvetica,sans-Serif" font-size="10.00">Linux::RCOutput_Sysfs</text>
<text text-anchor="middle" x="217.5" y="-154.5" font-family="Helvetica,sans-Serif" font-size="10.00">::push</text>
</a>
</g>
</g>
<!-- Node1&#45;&gt;Node43 -->
<g id="edge57" class="edge"><title>Node1&#45;&gt;Node43</title>
<path fill="none" stroke="midnightblue" d="M109.27,-196.399C124.96,-191.438 142.566,-185.873 158.906,-180.707"/>
<polygon fill="midnightblue" stroke="midnightblue" points="160.408,-183.903 168.888,-177.552 158.298,-177.229 160.408,-183.903"/>
</g>
<!-- Node3 -->
<g id="node3" class="node"><title>Node3</title>
<g id="a_node3"><a xlink:href="namespaceAP__HAL.html#a71832f03d849a0c088f04fc98d3c8143" target="_top" xlink:title="AP_HAL::panic">
<polygon fill="white" stroke="black" points="501.5,-542 501.5,-561 585.5,-561 585.5,-542 501.5,-542"/>
<text text-anchor="middle" x="543.5" y="-549" font-family="Helvetica,sans-Serif" font-size="10.00">AP_HAL::panic</text>
</a>
</g>
</g>
<!-- Node2&#45;&gt;Node3 -->
<g id="edge2" class="edge"><title>Node2&#45;&gt;Node3</title>
<path fill="none" stroke="midnightblue" d="M265.604,-396.52C270.184,-399.319 274.441,-402.618 278,-406.5 313.333,-445.041 274.064,-484.752 314,-518.5 363.12,-560.009 440.425,-562.449 491.291,-558.488"/>
<polygon fill="midnightblue" stroke="midnightblue" points="491.759,-561.961 501.41,-557.589 491.139,-554.988 491.759,-561.961"/>
</g>
<!-- Node12 -->
<g id="node12" class="node"><title>Node12</title>
<g id="a_node12"><a xlink:href="classLinux_1_1PWM__Sysfs__Base.html#a2e255d387f313730098c3e9db321481d" target="_top" xlink:title="Linux::PWM_Sysfs_Base\l::init">
<polygon fill="white" stroke="black" points="314,-478.5 314,-508.5 443,-508.5 443,-478.5 314,-478.5"/>
<text text-anchor="start" x="322" y="-496.5" font-family="Helvetica,sans-Serif" font-size="10.00">Linux::PWM_Sysfs_Base</text>
<text text-anchor="middle" x="378.5" y="-485.5" font-family="Helvetica,sans-Serif" font-size="10.00">::init</text>
</a>
</g>
</g>
<!-- Node2&#45;&gt;Node12 -->
<g id="edge11" class="edge"><title>Node2&#45;&gt;Node12</title>
<path fill="none" stroke="midnightblue" d="M262.298,-396.637C267.853,-399.477 273.248,-402.755 278,-406.5 299.224,-423.228 294.011,-437.314 314,-455.5 321.194,-462.045 329.686,-468.042 338.08,-473.243"/>
<polygon fill="midnightblue" stroke="midnightblue" points="336.344,-476.283 346.732,-478.365 339.909,-470.259 336.344,-476.283"/>
</g>
<!-- Node16 -->
<g id="node16" class="node"><title>Node16</title>
<g id="a_node16"><a xlink:href="classLinux_1_1PWM__Sysfs__Base.html#a13de94e200597038465d7347d1b28f25" target="_top" xlink:title="Linux::PWM_Sysfs_Base\l::enable">
<polygon fill="white" stroke="black" points="479,-279.5 479,-309.5 608,-309.5 608,-279.5 479,-279.5"/>
<text text-anchor="start" x="487" y="-297.5" font-family="Helvetica,sans-Serif" font-size="10.00">Linux::PWM_Sysfs_Base</text>
<text text-anchor="middle" x="543.5" y="-286.5" font-family="Helvetica,sans-Serif" font-size="10.00">::enable</text>
</a>
</g>
</g>
<!-- Node2&#45;&gt;Node16 -->
<g id="edge16" class="edge"><title>Node2&#45;&gt;Node16</title>
<path fill="none" stroke="midnightblue" d="M278.047,-369.585C323.561,-360.026 387.68,-345.583 443,-329.5 459.455,-324.716 477.175,-318.753 493.036,-313.112"/>
<polygon fill="midnightblue" stroke="midnightblue" points="494.42,-316.334 502.645,-309.655 492.05,-309.747 494.42,-316.334"/>
</g>
<!-- Node25 -->
<g id="node25" class="node"><title>Node25</title>
<g id="a_node25"><a xlink:href="classLinux_1_1PWM__Sysfs__Base.html#a50e507faa5755bf00b21867764464f6f" target="_top" xlink:title="Linux::PWM_Sysfs_Base\l::set_freq">
<polygon fill="white" stroke="black" points="314,-415.5 314,-445.5 443,-445.5 443,-415.5 314,-415.5"/>
<text text-anchor="start" x="322" y="-433.5" font-family="Helvetica,sans-Serif" font-size="10.00">Linux::PWM_Sysfs_Base</text>
<text text-anchor="middle" x="378.5" y="-422.5" font-family="Helvetica,sans-Serif" font-size="10.00">::set_freq</text>
</a>
</g>
</g>
<!-- Node2&#45;&gt;Node25 -->
<g id="edge27" class="edge"><title>Node2&#45;&gt;Node25</title>
<path fill="none" stroke="midnightblue" d="M267.503,-396.601C283.749,-401.608 301.999,-407.232 318.894,-412.439"/>
<polygon fill="midnightblue" stroke="midnightblue" points="318.072,-415.848 328.659,-415.448 320.133,-409.159 318.072,-415.848"/>
</g>
<!-- Node28 -->
<g id="node28" class="node"><title>Node28</title>
<g id="a_node28"><a xlink:href="classLinux_1_1PWM__Sysfs__Base.html#a498c10f6b0197ec9ac2f8e5e40dbdb4b" target="_top" xlink:title="Linux::PWM_Sysfs_Base\l::set_duty_cycle">
<polygon fill="white" stroke="black" points="314,-142.5 314,-172.5 443,-172.5 443,-142.5 314,-142.5"/>
<text text-anchor="start" x="322" y="-160.5" font-family="Helvetica,sans-Serif" font-size="10.00">Linux::PWM_Sysfs_Base</text>
<text text-anchor="middle" x="378.5" y="-149.5" font-family="Helvetica,sans-Serif" font-size="10.00">::set_duty_cycle</text>
</a>
</g>
</g>
<!-- Node2&#45;&gt;Node28 -->
<g id="edge33" class="edge"><title>Node2&#45;&gt;Node28</title>
<path fill="none" stroke="midnightblue" d="M224.122,-366.299C239.796,-324.6 284.748,-209.708 314,-182.5 315.692,-180.927 317.494,-179.448 319.381,-178.058"/>
<polygon fill="midnightblue" stroke="midnightblue" points="321.538,-180.835 328.107,-172.522 317.788,-174.924 321.538,-180.835"/>
</g>
<!-- Node29 -->
<g id="node29" class="node"><title>Node29</title>
<g id="a_node29"><a xlink:href="classLinux_1_1PWM__Sysfs__Base.html#a72a4815261b1866ba377f1b44245a9a9" target="_top" xlink:title="Linux::PWM_Sysfs_Base\l::set_polarity">
<polygon fill="white" stroke="black" points="479,-328.5 479,-358.5 608,-358.5 608,-328.5 479,-328.5"/>
<text text-anchor="start" x="487" y="-346.5" font-family="Helvetica,sans-Serif" font-size="10.00">Linux::PWM_Sysfs_Base</text>
<text text-anchor="middle" x="543.5" y="-335.5" font-family="Helvetica,sans-Serif" font-size="10.00">::set_polarity</text>
</a>
</g>
</g>
<!-- Node2&#45;&gt;Node29 -->
<g id="edge34" class="edge"><title>Node2&#45;&gt;Node29</title>
<path fill="none" stroke="midnightblue" d="M278.244,-378.144C323.585,-375.186 387.392,-370.141 443,-362.5 451.481,-361.335 460.335,-359.925 469.113,-358.407"/>
<polygon fill="midnightblue" stroke="midnightblue" points="469.734,-361.852 478.967,-356.654 468.508,-354.96 469.734,-361.852"/>
</g>
<!-- Node4 -->
<g id="node4" class="node"><title>Node4</title>
<g id="a_node4"><a xlink:href="classAP__HAL_1_1RCInput.html#a2bea13d38f2b9ae8bf5193a3a69f0a31" target="_top" xlink:title="AP_HAL::RCInput::teardown">
<polygon fill="white" stroke="black" points="644,-564 644,-583 787,-583 787,-564 644,-564"/>
<text text-anchor="middle" x="715.5" y="-571" font-family="Helvetica,sans-Serif" font-size="10.00">AP_HAL::RCInput::teardown</text>
</a>
</g>
</g>
<!-- Node3&#45;&gt;Node4 -->
<g id="edge3" class="edge"><title>Node3&#45;&gt;Node4</title>
<path fill="none" stroke="midnightblue" d="M585.652,-556.826C600.137,-558.7 616.962,-560.877 633.578,-563.028"/>
<polygon fill="midnightblue" stroke="midnightblue" points="633.507,-566.548 643.874,-564.36 634.406,-559.606 633.507,-566.548"/>
</g>
<!-- Node11 -->
<g id="node11" class="node"><title>Node11</title>
<g id="a_node11"><a xlink:href="classAP__HAL_1_1Scheduler.html#a78c4f1b1f192ac1c99544b6cc8f099b0" target="_top" xlink:title="AP_HAL::Scheduler::\ldelay_microseconds">
<polygon fill="white" stroke="black" points="660.5,-514.5 660.5,-544.5 770.5,-544.5 770.5,-514.5 660.5,-514.5"/>
<text text-anchor="start" x="668.5" y="-532.5" font-family="Helvetica,sans-Serif" font-size="10.00">AP_HAL::Scheduler::</text>
<text text-anchor="middle" x="715.5" y="-521.5" font-family="Helvetica,sans-Serif" font-size="10.00">delay_microseconds</text>
</a>
</g>
</g>
<!-- Node3&#45;&gt;Node11 -->
<g id="edge10" class="edge"><title>Node3&#45;&gt;Node11</title>
<path fill="none" stroke="midnightblue" d="M585.652,-546.174C604.994,-543.671 628.506,-540.629 650.124,-537.831"/>
<polygon fill="midnightblue" stroke="midnightblue" points="650.761,-541.278 660.229,-536.523 649.862,-534.336 650.761,-541.278"/>
</g>
<!-- Node5 -->
<g id="node5" class="node"><title>Node5</title>
<g id="a_node5"><a xlink:href="classAP__HAL_1_1RCInput.html#aee1fade33080edef83dd7db0fad0f7da" target="_top" xlink:title="AP_HAL::RCInput::new\l_input">
<polygon fill="white" stroke="black" points="824.5,-582.5 824.5,-612.5 946.5,-612.5 946.5,-582.5 824.5,-582.5"/>
<text text-anchor="start" x="832.5" y="-600.5" font-family="Helvetica,sans-Serif" font-size="10.00">AP_HAL::RCInput::new</text>
<text text-anchor="middle" x="885.5" y="-589.5" font-family="Helvetica,sans-Serif" font-size="10.00">_input</text>
</a>
</g>
</g>
<!-- Node4&#45;&gt;Node5 -->
<g id="edge4" class="edge"><title>Node4&#45;&gt;Node5</title>
<path fill="none" stroke="midnightblue" d="M783.381,-583.054C793.538,-584.505 804.043,-586.006 814.269,-587.467"/>
<polygon fill="midnightblue" stroke="midnightblue" points="813.984,-590.962 824.378,-588.911 814.974,-584.032 813.984,-590.962"/>
</g>
<!-- Node6 -->
<g id="node6" class="node"><title>Node6</title>
<g id="a_node6"><a xlink:href="classAP__HAL_1_1RCInput.html#ae55f959c6115c1f41783af3a2b6c4fcd" target="_top" xlink:title="AP_HAL::RCInput::num\l_channels">
<polygon fill="white" stroke="black" points="824.5,-533.5 824.5,-563.5 946.5,-563.5 946.5,-533.5 824.5,-533.5"/>
<text text-anchor="start" x="832.5" y="-551.5" font-family="Helvetica,sans-Serif" font-size="10.00">AP_HAL::RCInput::num</text>
<text text-anchor="middle" x="885.5" y="-540.5" font-family="Helvetica,sans-Serif" font-size="10.00">_channels</text>
</a>
</g>
</g>
<!-- Node4&#45;&gt;Node6 -->
<g id="edge5" class="edge"><title>Node4&#45;&gt;Node6</title>
<path fill="none" stroke="midnightblue" d="M780.493,-563.977C791.497,-562.34 802.988,-560.63 814.148,-558.969"/>
<polygon fill="midnightblue" stroke="midnightblue" points="814.905,-562.395 824.281,-557.461 813.875,-555.471 814.905,-562.395"/>
</g>
<!-- Node7 -->
<g id="node7" class="node"><title>Node7</title>
<g id="a_node7"><a xlink:href="classAP__HAL_1_1RCInput.html#a078fd7e6d2e6a899009ec674a8e03498" target="_top" xlink:title="AP_HAL::RCInput::read">
<polygon fill="white" stroke="black" points="824.5,-495 824.5,-514 946.5,-514 946.5,-495 824.5,-495"/>
<text text-anchor="middle" x="885.5" y="-502" font-family="Helvetica,sans-Serif" font-size="10.00">AP_HAL::RCInput::read</text>
</a>
</g>
</g>
<!-- Node4&#45;&gt;Node7 -->
<g id="edge6" class="edge"><title>Node4&#45;&gt;Node7</title>
<path fill="none" stroke="midnightblue" d="M763.462,-563.894C771.544,-561.392 779.688,-558.298 787,-554.5 805.483,-544.901 804.768,-534.569 823,-524.5 827.612,-521.953 832.599,-519.668 837.669,-517.634"/>
<polygon fill="midnightblue" stroke="midnightblue" points="839.273,-520.773 847.444,-514.03 836.851,-514.206 839.273,-520.773"/>
</g>
<!-- Node8 -->
<g id="node8" class="node"><title>Node8</title>
<g id="a_node8"><a xlink:href="classAP__HAL_1_1RCInput.html#a0989c5ca271631fe655c047d4a022a3d" target="_top" xlink:title="AP_HAL::RCInput::set\l_overrides">
<polygon fill="white" stroke="black" points="827,-445.5 827,-475.5 944,-475.5 944,-445.5 827,-445.5"/>
<text text-anchor="start" x="835" y="-463.5" font-family="Helvetica,sans-Serif" font-size="10.00">AP_HAL::RCInput::set</text>
<text text-anchor="middle" x="885.5" y="-452.5" font-family="Helvetica,sans-Serif" font-size="10.00">_overrides</text>
</a>
</g>
</g>
<!-- Node4&#45;&gt;Node8 -->
<g id="edge7" class="edge"><title>Node4&#45;&gt;Node8</title>
<path fill="none" stroke="midnightblue" d="M770.74,-563.95C776.585,-561.486 782.157,-558.389 787,-554.5 813.97,-532.842 797.41,-508.772 823,-485.5 824.697,-483.956 826.503,-482.502 828.389,-481.131"/>
<polygon fill="midnightblue" stroke="midnightblue" points="830.496,-483.941 837.092,-475.65 826.765,-478.017 830.496,-483.941"/>
</g>
<!-- Node9 -->
<g id="node9" class="node"><title>Node9</title>
<g id="a_node9"><a xlink:href="classAP__HAL_1_1RCInput.html#abfd037ca0989a0422a60f418d34eb7d5" target="_top" xlink:title="AP_HAL::RCInput::set\l_override">
<polygon fill="white" stroke="black" points="827,-680.5 827,-710.5 944,-710.5 944,-680.5 827,-680.5"/>
<text text-anchor="start" x="835" y="-698.5" font-family="Helvetica,sans-Serif" font-size="10.00">AP_HAL::RCInput::set</text>
<text text-anchor="middle" x="885.5" y="-687.5" font-family="Helvetica,sans-Serif" font-size="10.00">_override</text>
</a>
</g>
</g>
<!-- Node4&#45;&gt;Node9 -->
<g id="edge8" class="edge"><title>Node4&#45;&gt;Node9</title>
<path fill="none" stroke="midnightblue" d="M724.679,-583.122C741.398,-602.276 781.435,-645.558 823,-671.5 825.461,-673.036 828.037,-674.503 830.68,-675.899"/>
<polygon fill="midnightblue" stroke="midnightblue" points="829.339,-679.139 839.862,-680.374 832.406,-672.847 829.339,-679.139"/>
</g>
<!-- Node10 -->
<g id="node10" class="node"><title>Node10</title>
<g id="a_node10"><a xlink:href="classAP__HAL_1_1RCInput.html#ab3671bbe43fdb97c53071d7832ac256e" target="_top" xlink:title="AP_HAL::RCInput::clear\l_overrides">
<polygon fill="white" stroke="black" points="823,-631.5 823,-661.5 948,-661.5 948,-631.5 823,-631.5"/>
<text text-anchor="start" x="831" y="-649.5" font-family="Helvetica,sans-Serif" font-size="10.00">AP_HAL::RCInput::clear</text>
<text text-anchor="middle" x="885.5" y="-638.5" font-family="Helvetica,sans-Serif" font-size="10.00">_overrides</text>
</a>
</g>
</g>
<!-- Node4&#45;&gt;Node10 -->
<g id="edge9" class="edge"><title>Node4&#45;&gt;Node10</title>
<path fill="none" stroke="midnightblue" d="M736.364,-583.067C757.638,-593.212 792.465,-609.531 823,-622.5 827.086,-624.236 831.344,-625.995 835.627,-627.732"/>
<polygon fill="midnightblue" stroke="midnightblue" points="834.405,-631.013 844.99,-631.48 837.007,-624.514 834.405,-631.013"/>
</g>
<!-- Node12&#45;&gt;Node3 -->
<g id="edge12" class="edge"><title>Node12&#45;&gt;Node3</title>
<path fill="none" stroke="midnightblue" d="M421.901,-508.587C448.049,-517.892 481.234,-529.7 506.172,-538.573"/>
<polygon fill="midnightblue" stroke="midnightblue" points="505.036,-541.884 515.631,-541.939 507.383,-535.289 505.036,-541.884"/>
</g>
<!-- Node13 -->
<g id="node13" class="node"><title>Node13</title>
<g id="a_node13"><a xlink:href="classLinux_1_1Util.html#addd6070e02a90ee0a7063f0c3db4fecc" target="_top" xlink:title="Linux::Util::from">
<polygon fill="white" stroke="black" points="672.5,-334 672.5,-353 758.5,-353 758.5,-334 672.5,-334"/>
<text text-anchor="middle" x="715.5" y="-341" font-family="Helvetica,sans-Serif" font-size="10.00">Linux::Util::from</text>
</a>
</g>
</g>
<!-- Node12&#45;&gt;Node13 -->
<g id="edge13" class="edge"><title>Node12&#45;&gt;Node13</title>
<path fill="none" stroke="midnightblue" d="M443.002,-489.554C501.251,-484.82 582.258,-475.081 608,-456.5 636.046,-436.255 620.502,-412.883 644,-387.5 655.229,-375.371 670.526,-365.286 684.002,-357.844"/>
<polygon fill="midnightblue" stroke="midnightblue" points="685.751,-360.879 692.968,-353.122 682.489,-354.686 685.751,-360.879"/>
</g>
<!-- Node15 -->
<g id="node15" class="node"><title>Node15</title>
<g id="a_node15"><a xlink:href="classLinux_1_1Util.html#af217ed63397b599a1b94ff6d0675ff9c" target="_top" xlink:title="Linux::Util::write_file">
<polygon fill="white" stroke="black" points="662.5,-397 662.5,-416 768.5,-416 768.5,-397 662.5,-397"/>
<text text-anchor="middle" x="715.5" y="-404" font-family="Helvetica,sans-Serif" font-size="10.00">Linux::Util::write_file</text>
</a>
</g>
</g>
<!-- Node12&#45;&gt;Node15 -->
<g id="edge15" class="edge"><title>Node12&#45;&gt;Node15</title>
<path fill="none" stroke="midnightblue" d="M443.479,-502.997C490.386,-507.453 554.88,-508.276 608,-489.5 645.685,-476.18 680.415,-443.783 699.409,-423.631"/>
<polygon fill="midnightblue" stroke="midnightblue" points="702.153,-425.817 706.33,-416.08 696.993,-421.087 702.153,-425.817"/>
</g>
<!-- Node14 -->
<g id="node14" class="node"><title>Node14</title>
<g id="a_node14"><a xlink:href="classLinux_1_1Util.html#ae03dc062803bf3bcda9cbd77e781c7d4" target="_top" xlink:title="Linux::Util::init">
<polygon fill="white" stroke="black" points="845.5,-334 845.5,-353 925.5,-353 925.5,-334 845.5,-334"/>
<text text-anchor="middle" x="885.5" y="-341" font-family="Helvetica,sans-Serif" font-size="10.00">Linux::Util::init</text>
</a>
</g>
</g>
<!-- Node13&#45;&gt;Node14 -->
<g id="edge14" class="edge"><title>Node13&#45;&gt;Node14</title>
<path fill="none" stroke="midnightblue" d="M758.893,-343.5C782.113,-343.5 811.007,-343.5 835.227,-343.5"/>
<polygon fill="midnightblue" stroke="midnightblue" points="835.29,-347 845.29,-343.5 835.29,-340 835.29,-347"/>
</g>
<!-- Node16&#45;&gt;Node13 -->
<g id="edge17" class="edge"><title>Node16&#45;&gt;Node13</title>
<path fill="none" stroke="midnightblue" d="M596.893,-309.601C620.943,-316.534 649.098,-324.649 671.83,-331.201"/>
<polygon fill="midnightblue" stroke="midnightblue" points="670.956,-334.591 681.534,-333.998 672.895,-327.865 670.956,-334.591"/>
</g>
<!-- Node16&#45;&gt;Node15 -->
<g id="edge18" class="edge"><title>Node16&#45;&gt;Node15</title>
<path fill="none" stroke="midnightblue" d="M591.02,-309.646C596.983,-312.485 602.809,-315.76 608,-319.5 628.221,-334.072 625.194,-346.143 644,-362.5 657.002,-373.809 673.218,-384.143 686.818,-391.95"/>
<polygon fill="midnightblue" stroke="midnightblue" points="685.307,-395.115 695.744,-396.932 688.718,-389.002 685.307,-395.115"/>
</g>
<!-- Node17 -->
<g id="node17" class="node"><title>Node17</title>
<g id="a_node17"><a xlink:href="classAP__HAL_1_1UARTDriver.html#a6ceedc792594e59fc7d80b39a435f027" target="_top" xlink:title="AP_HAL::UARTDriver\l::printf">
<polygon fill="white" stroke="black" points="658,-282.5 658,-312.5 773,-312.5 773,-282.5 658,-282.5"/>
<text text-anchor="start" x="666" y="-300.5" font-family="Helvetica,sans-Serif" font-size="10.00">AP_HAL::UARTDriver</text>
<text text-anchor="middle" x="715.5" y="-289.5" font-family="Helvetica,sans-Serif" font-size="10.00">::printf</text>
</a>
</g>
</g>
<!-- Node16&#45;&gt;Node17 -->
<g id="edge19" class="edge"><title>Node16&#45;&gt;Node17</title>
<path fill="none" stroke="midnightblue" d="M608.285,-295.626C621.147,-295.853 634.7,-296.092 647.662,-296.321"/>
<polygon fill="midnightblue" stroke="midnightblue" points="647.846,-299.824 657.906,-296.501 647.97,-292.825 647.846,-299.824"/>
</g>
<!-- Node18 -->
<g id="node18" class="node"><title>Node18</title>
<g id="a_node18"><a xlink:href="classAP__HAL_1_1UARTDriver.html#aa8abfb6d6641299472c29ac1edde559f" target="_top" xlink:title="AP_HAL::UARTDriver\l::vprintf">
<polygon fill="white" stroke="black" points="828,-282.5 828,-312.5 943,-312.5 943,-282.5 828,-282.5"/>
<text text-anchor="start" x="836" y="-300.5" font-family="Helvetica,sans-Serif" font-size="10.00">AP_HAL::UARTDriver</text>
<text text-anchor="middle" x="885.5" y="-289.5" font-family="Helvetica,sans-Serif" font-size="10.00">::vprintf</text>
</a>
</g>
</g>
<!-- Node17&#45;&gt;Node18 -->
<g id="edge20" class="edge"><title>Node17&#45;&gt;Node18</title>
<path fill="none" stroke="midnightblue" d="M773.377,-297.5C787.686,-297.5 803.17,-297.5 817.907,-297.5"/>
<polygon fill="midnightblue" stroke="midnightblue" points="817.967,-301 827.967,-297.5 817.967,-294 817.967,-301"/>
</g>
<!-- Node19 -->
<g id="node19" class="node"><title>Node19</title>
<g id="a_node19"><a xlink:href="print__vprintf_8cpp.html#a1534eaeab54696df96975b56d9f49212" target="_top" xlink:title="print_vprintf">
<polygon fill="white" stroke="black" points="984,-288 984,-307 1052,-307 1052,-288 984,-288"/>
<text text-anchor="middle" x="1018" y="-295" font-family="Helvetica,sans-Serif" font-size="10.00">print_vprintf</text>
</a>
</g>
</g>
<!-- Node18&#45;&gt;Node19 -->
<g id="edge21" class="edge"><title>Node18&#45;&gt;Node19</title>
<path fill="none" stroke="midnightblue" d="M943.36,-297.5C953.549,-297.5 964.015,-297.5 973.743,-297.5"/>
<polygon fill="midnightblue" stroke="midnightblue" points="973.961,-301 983.961,-297.5 973.961,-294 973.961,-301"/>
</g>
<!-- Node20 -->
<g id="node20" class="node"><title>Node20</title>
<g id="a_node20"><a xlink:href="classAP__HAL_1_1Print.html#acc65391952a43334f8f5c9bef341f501" target="_top" xlink:title="AP_HAL::Print::write">
<polygon fill="white" stroke="black" points="1088,-364 1088,-383 1196,-383 1196,-364 1088,-364"/>
<text text-anchor="middle" x="1142" y="-371" font-family="Helvetica,sans-Serif" font-size="10.00">AP_HAL::Print::write</text>
</a>
</g>
</g>
<!-- Node19&#45;&gt;Node20 -->
<g id="edge22" class="edge"><title>Node19&#45;&gt;Node20</title>
<path fill="none" stroke="midnightblue" d="M1028.47,-307.183C1041.07,-319.602 1064.5,-341.129 1088,-354.5 1091.63,-356.567 1095.53,-358.473 1099.5,-360.215"/>
<polygon fill="midnightblue" stroke="midnightblue" points="1098.23,-363.477 1108.82,-363.979 1100.86,-356.987 1098.23,-363.477"/>
</g>
<!-- Node21 -->
<g id="node21" class="node"><title>Node21</title>
<g id="a_node21"><a xlink:href="ftoa__engine_8cpp.html#a1c28234da8f20b43c85890d4bb452947" target="_top" xlink:title="ftoa_engine">
<polygon fill="white" stroke="black" points="1108.5,-326 1108.5,-345 1175.5,-345 1175.5,-326 1108.5,-326"/>
<text text-anchor="middle" x="1142" y="-333" font-family="Helvetica,sans-Serif" font-size="10.00">ftoa_engine</text>
</a>
</g>
</g>
<!-- Node19&#45;&gt;Node21 -->
<g id="edge23" class="edge"><title>Node19&#45;&gt;Node21</title>
<path fill="none" stroke="midnightblue" d="M1049.79,-307.089C1065.1,-311.859 1083.82,-317.689 1100.3,-322.823"/>
<polygon fill="midnightblue" stroke="midnightblue" points="1099.64,-326.282 1110.22,-325.914 1101.72,-319.599 1099.64,-326.282"/>
</g>
<!-- Node22 -->
<g id="node22" class="node"><title>Node22</title>
<g id="a_node22"><a xlink:href="replace_8cpp.html#a880bcc7b85a09e6254691bebd5344b51" target="_top" xlink:title="strnlen">
<polygon fill="white" stroke="black" points="1119,-288 1119,-307 1165,-307 1165,-288 1119,-288"/>
<text text-anchor="middle" x="1142" y="-295" font-family="Helvetica,sans-Serif" font-size="10.00">strnlen</text>
</a>
</g>
</g>
<!-- Node19&#45;&gt;Node22 -->
<g id="edge24" class="edge"><title>Node19&#45;&gt;Node22</title>
<path fill="none" stroke="midnightblue" d="M1052.01,-297.5C1069.55,-297.5 1091.02,-297.5 1108.47,-297.5"/>
<polygon fill="midnightblue" stroke="midnightblue" points="1108.75,-301 1118.75,-297.5 1108.75,-294 1108.75,-301"/>
</g>
<!-- Node23 -->
<g id="node23" class="node"><title>Node23</title>
<g id="a_node23"><a xlink:href="utoa__invert_8cpp.html#a34926f552460b47c414ec4d83b32815c" target="_top" xlink:title="ulltoa_invert">
<polygon fill="white" stroke="black" points="1107.5,-250 1107.5,-269 1176.5,-269 1176.5,-250 1107.5,-250"/>
<text text-anchor="middle" x="1142" y="-257" font-family="Helvetica,sans-Serif" font-size="10.00">ulltoa_invert</text>
</a>
</g>
</g>
<!-- Node19&#45;&gt;Node23 -->
<g id="edge25" class="edge"><title>Node19&#45;&gt;Node23</title>
<path fill="none" stroke="midnightblue" d="M1049.79,-287.911C1065.1,-283.141 1083.82,-277.311 1100.3,-272.177"/>
<polygon fill="midnightblue" stroke="midnightblue" points="1101.72,-275.401 1110.22,-269.086 1099.64,-268.718 1101.72,-275.401"/>
</g>
<!-- Node24 -->
<g id="node24" class="node"><title>Node24</title>
<g id="a_node24"><a xlink:href="utoa__invert_8cpp.html#a5d99bba8e697c1e11da489d88fca8559" target="_top" xlink:title="ultoa_invert">
<polygon fill="white" stroke="black" points="1108.5,-212 1108.5,-231 1175.5,-231 1175.5,-212 1108.5,-212"/>
<text text-anchor="middle" x="1142" y="-219" font-family="Helvetica,sans-Serif" font-size="10.00">ultoa_invert</text>
</a>
</g>
</g>
<!-- Node19&#45;&gt;Node24 -->
<g id="edge26" class="edge"><title>Node19&#45;&gt;Node24</title>
<path fill="none" stroke="midnightblue" d="M1028.47,-287.817C1041.07,-275.398 1064.5,-253.871 1088,-240.5 1091.63,-238.433 1095.53,-236.527 1099.5,-234.785"/>
<polygon fill="midnightblue" stroke="midnightblue" points="1100.86,-238.013 1108.82,-231.021 1098.23,-231.523 1100.86,-238.013"/>
</g>
<!-- Node26 -->
<g id="node26" class="node"><title>Node26</title>
<g id="a_node26"><a xlink:href="classLinux_1_1PWM__Sysfs__Base.html#ae559797471c204de7ff10c2aced67b0e" target="_top" xlink:title="Linux::PWM_Sysfs_Base\l::set_period">
<polygon fill="white" stroke="black" points="479,-416.5 479,-446.5 608,-446.5 608,-416.5 479,-416.5"/>
<text text-anchor="start" x="487" y="-434.5" font-family="Helvetica,sans-Serif" font-size="10.00">Linux::PWM_Sysfs_Base</text>
<text text-anchor="middle" x="543.5" y="-423.5" font-family="Helvetica,sans-Serif" font-size="10.00">::set_period</text>
</a>
</g>
</g>
<!-- Node25&#45;&gt;Node26 -->
<g id="edge28" class="edge"><title>Node25&#45;&gt;Node26</title>
<path fill="none" stroke="midnightblue" d="M443.454,-430.892C451.761,-430.943 460.322,-430.996 468.772,-431.048"/>
<polygon fill="midnightblue" stroke="midnightblue" points="468.976,-434.549 478.998,-431.11 469.019,-427.549 468.976,-434.549"/>
</g>
<!-- Node27 -->
<g id="node27" class="node"><title>Node27</title>
<g id="a_node27"><a xlink:href="AP__Math_8h.html#aeba7824fdcc216a25fb200958928ff12" target="_top" xlink:title="hz_to_nsec">
<polygon fill="white" stroke="black" points="510,-378 510,-397 577,-397 577,-378 510,-378"/>
<text text-anchor="middle" x="543.5" y="-385" font-family="Helvetica,sans-Serif" font-size="10.00">hz_to_nsec</text>
</a>
</g>
</g>
<!-- Node25&#45;&gt;Node27 -->
<g id="edge32" class="edge"><title>Node25&#45;&gt;Node27</title>
<path fill="none" stroke="midnightblue" d="M436.509,-415.461C457.461,-409.934 480.794,-403.778 500.221,-398.653"/>
<polygon fill="midnightblue" stroke="midnightblue" points="501.215,-402.011 509.992,-396.076 499.43,-395.242 501.215,-402.011"/>
</g>
<!-- Node26&#45;&gt;Node13 -->
<g id="edge29" class="edge"><title>Node26&#45;&gt;Node13</title>
<path fill="none" stroke="midnightblue" d="M585.566,-416.441C593.12,-413.359 600.868,-409.986 608,-406.5 637.758,-391.955 670.303,-372.078 691.483,-358.567"/>
<polygon fill="midnightblue" stroke="midnightblue" points="693.578,-361.381 700.093,-353.025 689.79,-355.494 693.578,-361.381"/>
</g>
<!-- Node26&#45;&gt;Node15 -->
<g id="edge30" class="edge"><title>Node26&#45;&gt;Node15</title>
<path fill="none" stroke="midnightblue" d="M608.285,-422.12C622.614,-420.013 637.802,-417.779 652.075,-415.68"/>
<polygon fill="midnightblue" stroke="midnightblue" points="652.896,-419.097 662.28,-414.179 651.877,-412.172 652.896,-419.097"/>
</g>
<!-- Node26&#45;&gt;Node17 -->
<g id="edge31" class="edge"><title>Node26&#45;&gt;Node17</title>
<path fill="none" stroke="midnightblue" d="M594.341,-416.438C599.307,-413.647 603.987,-410.361 608,-406.5 636.683,-378.905 615.189,-351.962 644,-324.5 646.544,-322.075 649.328,-319.862 652.275,-317.844"/>
<polygon fill="midnightblue" stroke="midnightblue" points="654.162,-320.793 660.943,-312.653 650.565,-314.787 654.162,-320.793"/>
</g>
<!-- Node29&#45;&gt;Node13 -->
<g id="edge35" class="edge"><title>Node29&#45;&gt;Node13</title>
<path fill="none" stroke="midnightblue" d="M608.285,-343.5C625.996,-343.5 645.02,-343.5 662.005,-343.5"/>
<polygon fill="midnightblue" stroke="midnightblue" points="662.287,-347 672.287,-343.5 662.287,-340 662.287,-347"/>
</g>
<!-- Node29&#45;&gt;Node15 -->
<g id="edge36" class="edge"><title>Node29&#45;&gt;Node15</title>
<path fill="none" stroke="midnightblue" d="M585.219,-358.59C613.827,-369.192 651.719,-383.234 679.076,-393.372"/>
<polygon fill="midnightblue" stroke="midnightblue" points="678.049,-396.724 688.642,-396.917 680.482,-390.161 678.049,-396.724"/>
</g>
<!-- Node29&#45;&gt;Node17 -->
<g id="edge37" class="edge"><title>Node29&#45;&gt;Node17</title>
<path fill="none" stroke="midnightblue" d="M600.164,-328.438C615.802,-324.207 632.949,-319.567 649.097,-315.197"/>
<polygon fill="midnightblue" stroke="midnightblue" points="650.262,-318.508 659.001,-312.517 648.434,-311.751 650.262,-318.508"/>
</g>
<!-- Node30&#45;&gt;Node25 -->
<g id="edge39" class="edge"><title>Node30&#45;&gt;Node25</title>
<path fill="none" stroke="midnightblue" d="M278.158,-430.5C286.518,-430.5 295.191,-430.5 303.774,-430.5"/>
<polygon fill="midnightblue" stroke="midnightblue" points="303.784,-434 313.784,-430.5 303.784,-427 303.784,-434"/>
</g>
<!-- Node32 -->
<g id="node32" class="node"><title>Node32</title>
<g id="a_node32"><a xlink:href="classLinux_1_1PWM__Sysfs__Base.html#aa7d28239fb5c56850f4fb14a3d3c1c7a" target="_top" xlink:title="Linux::PWM_Sysfs_Base\l::get_freq">
<polygon fill="white" stroke="black" points="314,-191.5 314,-221.5 443,-221.5 443,-191.5 314,-191.5"/>
<text text-anchor="start" x="322" y="-209.5" font-family="Helvetica,sans-Serif" font-size="10.00">Linux::PWM_Sysfs_Base</text>
<text text-anchor="middle" x="378.5" y="-198.5" font-family="Helvetica,sans-Serif" font-size="10.00">::get_freq</text>
</a>
</g>
</g>
<!-- Node31&#45;&gt;Node32 -->
<g id="edge41" class="edge"><title>Node31&#45;&gt;Node32</title>
<path fill="none" stroke="midnightblue" d="M278.158,-209.624C286.518,-209.361 295.191,-209.088 303.774,-208.818"/>
<polygon fill="midnightblue" stroke="midnightblue" points="303.899,-212.316 313.784,-208.504 303.679,-205.32 303.899,-212.316"/>
</g>
<!-- Node33 -->
<g id="node33" class="node"><title>Node33</title>
<g id="a_node33"><a xlink:href="AP__Math_8h.html#aadd8b0885593779a7c7d9e2e6ee2007e" target="_top" xlink:title="nsec_to_hz">
<polygon fill="white" stroke="black" points="510,-241 510,-260 577,-260 577,-241 510,-241"/>
<text text-anchor="middle" x="543.5" y="-248" font-family="Helvetica,sans-Serif" font-size="10.00">nsec_to_hz</text>
</a>
</g>
</g>
<!-- Node32&#45;&gt;Node33 -->
<g id="edge42" class="edge"><title>Node32&#45;&gt;Node33</title>
<path fill="none" stroke="midnightblue" d="M435.139,-221.519C456.442,-227.27 480.373,-233.73 500.227,-239.089"/>
<polygon fill="midnightblue" stroke="midnightblue" points="499.341,-242.475 509.908,-241.702 501.166,-235.717 499.341,-242.475"/>
</g>
<!-- Node34 -->
<g id="node34" class="node"><title>Node34</title>
<g id="a_node34"><a xlink:href="classLinux_1_1PWM__Sysfs__Base.html#ae98fdb44a2fcb10d7bd6a9390321a155" target="_top" xlink:title="Linux::PWM_Sysfs_Base\l::get_period">
<polygon fill="white" stroke="black" points="479,-191.5 479,-221.5 608,-221.5 608,-191.5 479,-191.5"/>
<text text-anchor="start" x="487" y="-209.5" font-family="Helvetica,sans-Serif" font-size="10.00">Linux::PWM_Sysfs_Base</text>
<text text-anchor="middle" x="543.5" y="-198.5" font-family="Helvetica,sans-Serif" font-size="10.00">::get_period</text>
</a>
</g>
</g>
<!-- Node32&#45;&gt;Node34 -->
<g id="edge43" class="edge"><title>Node32&#45;&gt;Node34</title>
<path fill="none" stroke="midnightblue" d="M443.454,-206.5C451.761,-206.5 460.322,-206.5 468.772,-206.5"/>
<polygon fill="midnightblue" stroke="midnightblue" points="468.998,-210 478.998,-206.5 468.998,-203 468.998,-210"/>
</g>
<!-- Node34&#45;&gt;Node13 -->
<g id="edge44" class="edge"><title>Node34&#45;&gt;Node13</title>
<path fill="none" stroke="midnightblue" d="M594.8,-221.595C599.622,-224.375 604.143,-227.649 608,-231.5 638.78,-262.23 611.934,-293.115 644,-322.5 649.373,-327.424 655.853,-331.195 662.68,-334.085"/>
<polygon fill="midnightblue" stroke="midnightblue" points="661.539,-337.394 672.134,-337.503 663.92,-330.811 661.539,-337.394"/>
</g>
<!-- Node34&#45;&gt;Node17 -->
<g id="edge46" class="edge"><title>Node34&#45;&gt;Node17</title>
<path fill="none" stroke="midnightblue" d="M585.964,-221.578C593.404,-224.634 601.01,-227.994 608,-231.5 634.71,-244.898 663.422,-262.922 684.295,-276.749"/>
<polygon fill="midnightblue" stroke="midnightblue" points="682.475,-279.742 692.733,-282.393 686.366,-273.924 682.475,-279.742"/>
</g>
<!-- Node35 -->
<g id="node35" class="node"><title>Node35</title>
<g id="a_node35"><a xlink:href="classLinux_1_1Util.html#ab7048ab270b5f162b082827905efc875" target="_top" xlink:title="Linux::Util::read_file">
<polygon fill="white" stroke="black" points="663.5,-197 663.5,-216 767.5,-216 767.5,-197 663.5,-197"/>
<text text-anchor="middle" x="715.5" y="-204" font-family="Helvetica,sans-Serif" font-size="10.00">Linux::Util::read_file</text>
</a>
</g>
</g>
<!-- Node34&#45;&gt;Node35 -->
<g id="edge45" class="edge"><title>Node34&#45;&gt;Node35</title>
<path fill="none" stroke="midnightblue" d="M608.285,-206.5C622.917,-206.5 638.446,-206.5 652.98,-206.5"/>
<polygon fill="midnightblue" stroke="midnightblue" points="653.36,-210 663.36,-206.5 653.36,-203 653.36,-210"/>
</g>
<!-- Node36&#45;&gt;Node16 -->
<g id="edge48" class="edge"><title>Node36&#45;&gt;Node16</title>
<path fill="none" stroke="midnightblue" d="M439.27,-269.801C449.254,-272.189 459.707,-274.691 469.968,-277.146"/>
<polygon fill="midnightblue" stroke="midnightblue" points="469.186,-280.557 479.726,-279.48 470.815,-273.749 469.186,-280.557"/>
</g>
<!-- Node37&#45;&gt;Node16 -->
<g id="edge50" class="edge"><title>Node37&#45;&gt;Node16</title>
<path fill="none" stroke="midnightblue" d="M439.27,-300.833C448.845,-300.246 458.853,-299.632 468.709,-299.027"/>
<polygon fill="midnightblue" stroke="midnightblue" points="469.133,-302.508 478.9,-298.402 468.704,-295.521 469.133,-302.508"/>
</g>
<!-- Node38&#45;&gt;Node28 -->
<g id="edge52" class="edge"><title>Node38&#45;&gt;Node28</title>
<path fill="none" stroke="midnightblue" d="M272.774,-128.519C285.877,-132.145 300,-136.053 313.502,-139.79"/>
<polygon fill="midnightblue" stroke="midnightblue" points="312.629,-143.18 323.201,-142.474 314.496,-136.433 312.629,-143.18"/>
</g>
<!-- Node39 -->
<g id="node39" class="node"><title>Node39</title>
<g id="a_node39"><a xlink:href="AP__Math_8h.html#a390a5af37741d7ee0affc42c3ae51026" target="_top" xlink:title="usec_to_nsec">
<polygon fill="white" stroke="black" points="340,-104 340,-123 417,-123 417,-104 340,-104"/>
<text text-anchor="middle" x="378.5" y="-111" font-family="Helvetica,sans-Serif" font-size="10.00">usec_to_nsec</text>
</a>
</g>
</g>
<!-- Node38&#45;&gt;Node39 -->
<g id="edge53" class="edge"><title>Node38&#45;&gt;Node39</title>
<path fill="none" stroke="midnightblue" d="M278.158,-113.5C295.073,-113.5 313.268,-113.5 329.405,-113.5"/>
<polygon fill="midnightblue" stroke="midnightblue" points="329.679,-117 339.679,-113.5 329.679,-110 329.679,-117"/>
</g>
<!-- Node41 -->
<g id="node41" class="node"><title>Node41</title>
<g id="a_node41"><a xlink:href="AP__Math_8h.html#af2bdd661eb89f42491d33aaa9b122609" target="_top" xlink:title="nsec_to_usec">
<polygon fill="white" stroke="black" points="340,-55 340,-74 417,-74 417,-55 340,-55"/>
<text text-anchor="middle" x="378.5" y="-62" font-family="Helvetica,sans-Serif" font-size="10.00">nsec_to_usec</text>
</a>
</g>
</g>
<!-- Node40&#45;&gt;Node41 -->
<g id="edge55" class="edge"><title>Node40&#45;&gt;Node41</title>
<path fill="none" stroke="midnightblue" d="M278.158,-64.5C295.073,-64.5 313.268,-64.5 329.405,-64.5"/>
<polygon fill="midnightblue" stroke="midnightblue" points="329.679,-68.0001 339.679,-64.5 329.679,-61.0001 329.679,-68.0001"/>
</g>
<!-- Node43&#45;&gt;Node28 -->
<g id="edge58" class="edge"><title>Node43&#45;&gt;Node28</title>
<path fill="none" stroke="midnightblue" d="M278.158,-160.624C286.518,-160.361 295.191,-160.088 303.774,-159.818"/>
<polygon fill="midnightblue" stroke="midnightblue" points="303.899,-163.316 313.784,-159.504 303.679,-156.32 303.899,-163.316"/>
</g>
<!-- Node43&#45;&gt;Node39 -->
<g id="edge59" class="edge"><title>Node43&#45;&gt;Node39</title>
<path fill="none" stroke="midnightblue" d="M266.065,-147.418C281.357,-142.606 298.382,-137.289 314,-132.5 320.958,-130.366 328.355,-128.127 335.548,-125.965"/>
<polygon fill="midnightblue" stroke="midnightblue" points="336.596,-129.304 345.17,-123.081 334.586,-122.599 336.596,-129.304"/>
</g>
</g>
</svg>
        <g id="navigator" transform="translate(0 0)" fill="#404254">
                <rect fill="#f2f5e9" fill-opacity="0.5" stroke="#606060" stroke-width=".5" x="0" y="0" width="60" height="60"/>
                <use id="zoomplus" xlink:href="#zoomPlus" x="17" y="9" onmousedown="handleZoom(evt,'in')"/>
                <use id="zoomminus" xlink:href="#zoomMin" x="42" y="9" onmousedown="handleZoom(evt,'out')"/>
                <use id="reset" xlink:href="#resetDef" x="30" y="36" onmousedown="handleReset()"/>
                <g id="arrowUp" xlink:href="#dirArrow" transform="translate(30 24)" onmousedown="handlePan(0,-1)">
                  <use xlink:href="#rim" fill="#404040">
                        <set attributeName="fill" to="#808080" begin="arrowUp.mouseover" end="arrowUp.mouseout"/>
                  </use>
                  <path fill="none" stroke="white" stroke-width="1.5" d="M0,-3.0v7 M-2.5,-0.5L0,-3.0L2.5,-0.5"/>
                </g>
                <g id="arrowRight" xlink:href="#dirArrow" transform="rotate(90) translate(36 -43)" onmousedown="handlePan(1,0)">
                  <use xlink:href="#rim" fill="#404040">
                        <set attributeName="fill" to="#808080" begin="arrowRight.mouseover" end="arrowRight.mouseout"/>
                  </use>
                  <path fill="none" stroke="white" stroke-width="1.5" d="M0,-3.0v7 M-2.5,-0.5L0,-3.0L2.5,-0.5"/>
                </g>
                <g id="arrowDown" xlink:href="#dirArrow" transform="rotate(180) translate(-30 -48)" onmousedown="handlePan(0,1)">
                  <use xlink:href="#rim" fill="#404040">
                        <set attributeName="fill" to="#808080" begin="arrowDown.mouseover" end="arrowDown.mouseout"/>
                  </use>
                  <path fill="none" stroke="white" stroke-width="1.5" d="M0,-3.0v7 M-2.5,-0.5L0,-3.0L2.5,-0.5"/>
                </g>
                <g id="arrowLeft" xlink:href="#dirArrow" transform="rotate(270) translate(-36 17)" onmousedown="handlePan(-1,0)">
                  <use xlink:href="#rim" fill="#404040">
                        <set attributeName="fill" to="#808080" begin="arrowLeft.mouseover" end="arrowLeft.mouseout"/>
                  </use>
                  <path fill="none" stroke="white" stroke-width="1.5" d="M0,-3.0v7 M-2.5,-0.5L0,-3.0L2.5,-0.5"/>
                </g>
        </g>
        <svg viewBox="0 0 15 15" width="100%" height="30px" preserveAspectRatio="xMaxYMin meet">
         <g id="arrow_out" transform="scale(0.3 0.3)">
          <a xlink:href="classLinux_1_1RCOutput__Sysfs_a68d76708ae4d1edde0af071d455248d1_cgraph_org.svg" target="_base">
           <rect id="button" ry="5" rx="5" y="6" x="6" height="38" width="38"
                fill="#f2f5e9" fill-opacity="0.5" stroke="#606060" stroke-width="1.0"/>
           <path id="arrow"
             d="M 11.500037,31.436501 C 11.940474,20.09759 22.043105,11.32322 32.158766,21.979434 L 37.068811,17.246167 C 37.068811,17.246167 37.088388,32 37.088388,32 L 22.160133,31.978069 C 22.160133,31.978069 26.997745,27.140456 26.997745,27.140456 C 18.528582,18.264221 13.291696,25.230495 11.500037,31.436501 z"
             style="fill:#404040;"/>
          </a>
         </g>
        </svg>
</svg>
