<?xml version="1.0" encoding="UTF-8" standalone="no"?>
<!DOCTYPE svg PUBLIC "-//W3C//DTD SVG 1.1//EN"
 "http://www.w3.org/Graphics/SVG/1.1/DTD/svg11.dtd">
<!-- Generated by graphviz version 2.38.0 (20140413.2041)
 -->
<!-- Title: AP_Motors::set_roll Pages: 1 -->
<svg width="600pt" height="230pt"
 viewBox="0.00 0.00 600.00 230.00" xmlns="http://www.w3.org/2000/svg" xmlns:xlink="http://www.w3.org/1999/xlink">
<g id="graph0" class="graph" transform="scale(1 1) rotate(0) translate(4 226)">
<title>AP_Motors::set_roll</title>
<polygon fill="white" stroke="none" points="-4,4 -4,-226 596,-226 596,4 -4,4"/>
<!-- Node1 -->
<g id="node1" class="node"><title>Node1</title>
<polygon fill="#bfbfbf" stroke="black" points="0,-98.5 0,-117.5 103,-117.5 103,-98.5 0,-98.5"/>
<text text-anchor="middle" x="51.5" y="-105.5" font-family="Helvetica,sans-Serif" font-size="10.00">AP_Motors::set_roll</text>
</g>
<!-- Node2 -->
<g id="node2" class="node"><title>Node2</title>
<g id="a_node2"><a xlink:href="classAC__AttitudeControl__Heli.html#ae1e17847d017cc4f71e36397df689ddb" target="_top" xlink:title="AC_AttitudeControl\l_Heli::rate_bf_to_motor\l_roll_pitch">
<polygon fill="white" stroke="black" points="144,-180.5 144,-221.5 263,-221.5 263,-180.5 144,-180.5"/>
<text text-anchor="start" x="152" y="-209.5" font-family="Helvetica,sans-Serif" font-size="10.00">AC_AttitudeControl</text>
<text text-anchor="start" x="152" y="-198.5" font-family="Helvetica,sans-Serif" font-size="10.00">_Heli::rate_bf_to_motor</text>
<text text-anchor="middle" x="203.5" y="-187.5" font-family="Helvetica,sans-Serif" font-size="10.00">_roll_pitch</text>
</a>
</g>
</g>
<!-- Node1&#45;&gt;Node2 -->
<g id="edge1" class="edge"><title>Node1&#45;&gt;Node2</title>
<path fill="none" stroke="midnightblue" d="M74.3366,-123.41C91.623,-135.42 116.516,-152.301 139,-166 146.955,-170.847 155.617,-175.816 163.912,-180.432"/>
<polygon fill="midnightblue" stroke="midnightblue" points="76.2454,-120.474 66.0434,-117.616 72.2364,-126.212 76.2454,-120.474"/>
</g>
<!-- Node3 -->
<g id="node3" class="node"><title>Node3</title>
<g id="a_node3"><a xlink:href="classAC__AttitudeControl__Heli.html#a38cb1684d4155d8f1f319d7385d3f2c6" target="_top" xlink:title="AC_AttitudeControl\l_Heli::rate_controller_run">
<polygon fill="white" stroke="black" points="306.5,-166 306.5,-196 431.5,-196 431.5,-166 306.5,-166"/>
<text text-anchor="start" x="314.5" y="-184" font-family="Helvetica,sans-Serif" font-size="10.00">AC_AttitudeControl</text>
<text text-anchor="middle" x="369" y="-173" font-family="Helvetica,sans-Serif" font-size="10.00">_Heli::rate_controller_run</text>
</a>
</g>
</g>
<!-- Node1&#45;&gt;Node3 -->
<g id="edge6" class="edge"><title>Node1&#45;&gt;Node3</title>
<path fill="none" stroke="midnightblue" d="M95.0645,-120.355C109.018,-124.259 124.629,-128.472 139,-132 195.266,-145.812 259.847,-159.43 306.053,-168.79"/>
<polygon fill="midnightblue" stroke="midnightblue" points="95.8134,-116.93 85.2386,-117.581 93.9115,-123.667 95.8134,-116.93"/>
</g>
<!-- Node5 -->
<g id="node5" class="node"><title>Node5</title>
<g id="a_node5"><a xlink:href="classAC__AttitudeControl__Sub.html#a448de11eb6f1caa81c9195c8e958ca37" target="_top" xlink:title="AC_AttitudeControl\l_Sub::rate_controller_run">
<polygon fill="white" stroke="black" points="141,-93 141,-123 266,-123 266,-93 141,-93"/>
<text text-anchor="start" x="149" y="-111" font-family="Helvetica,sans-Serif" font-size="10.00">AC_AttitudeControl</text>
<text text-anchor="middle" x="203.5" y="-100" font-family="Helvetica,sans-Serif" font-size="10.00">_Sub::rate_controller_run</text>
</a>
</g>
</g>
<!-- Node1&#45;&gt;Node5 -->
<g id="edge4" class="edge"><title>Node1&#45;&gt;Node5</title>
<path fill="none" stroke="midnightblue" d="M113.364,-108C122.427,-108 131.775,-108 140.853,-108"/>
<polygon fill="midnightblue" stroke="midnightblue" points="113.283,-104.5 103.283,-108 113.283,-111.5 113.283,-104.5"/>
</g>
<!-- Node7 -->
<g id="node7" class="node"><title>Node7</title>
<g id="a_node7"><a xlink:href="classAC__AttitudeControl__Multi.html#a5b0f032a592442fb04a83ac254442b4c" target="_top" xlink:title="AC_AttitudeControl\l_Multi::rate_controller_run">
<polygon fill="white" stroke="black" points="139,-44 139,-74 268,-74 268,-44 139,-44"/>
<text text-anchor="start" x="147" y="-62" font-family="Helvetica,sans-Serif" font-size="10.00">AC_AttitudeControl</text>
<text text-anchor="middle" x="203.5" y="-51" font-family="Helvetica,sans-Serif" font-size="10.00">_Multi::rate_controller_run</text>
</a>
</g>
</g>
<!-- Node1&#45;&gt;Node7 -->
<g id="edge7" class="edge"><title>Node1&#45;&gt;Node7</title>
<path fill="none" stroke="midnightblue" d="M91.4395,-95.2798C111.328,-88.7828 135.656,-80.8355 156.468,-74.037"/>
<polygon fill="midnightblue" stroke="midnightblue" points="90.1964,-92.0037 81.7776,-98.436 92.3701,-98.6577 90.1964,-92.0037"/>
</g>
<!-- Node9 -->
<g id="node9" class="node"><title>Node9</title>
<g id="a_node9"><a xlink:href="AP__Motors__test_8cpp.html#a7f47bb79f883994514efee9d8de3ec0c" target="_top" xlink:title="stability_test">
<polygon fill="white" stroke="black" points="167.5,-3.5 167.5,-22.5 239.5,-22.5 239.5,-3.5 167.5,-3.5"/>
<text text-anchor="middle" x="203.5" y="-10.5" font-family="Helvetica,sans-Serif" font-size="10.00">stability_test</text>
</a>
</g>
</g>
<!-- Node1&#45;&gt;Node9 -->
<g id="edge9" class="edge"><title>Node1&#45;&gt;Node9</title>
<path fill="none" stroke="midnightblue" d="M68.2976,-91.0907C84.6069,-74.5077 111.485,-49.5186 139,-34 147.698,-29.0944 157.718,-25.1148 167.191,-21.9927"/>
<polygon fill="midnightblue" stroke="midnightblue" points="65.5993,-88.8469 61.1837,-98.4778 70.6414,-93.7025 65.5993,-88.8469"/>
</g>
<!-- Node2&#45;&gt;Node3 -->
<g id="edge2" class="edge"><title>Node2&#45;&gt;Node3</title>
<path fill="none" stroke="midnightblue" d="M273.063,-192.613C284.074,-191.266 295.414,-189.879 306.254,-188.553"/>
<polygon fill="midnightblue" stroke="midnightblue" points="272.566,-189.148 263.065,-193.836 273.416,-196.096 272.566,-189.148"/>
</g>
<!-- Node4 -->
<g id="node4" class="node"><title>Node4</title>
<g id="a_node4"><a xlink:href="classAC__AttitudeControl__Heli.html#aae3cc5dc6f4db3bdb7d17b9d7f54f371" target="_top" xlink:title="AC_AttitudeControl\l_Heli::get_rate_yaw_pid">
<polygon fill="white" stroke="black" points="470,-166 470,-196 592,-196 592,-166 470,-166"/>
<text text-anchor="start" x="478" y="-184" font-family="Helvetica,sans-Serif" font-size="10.00">AC_AttitudeControl</text>
<text text-anchor="middle" x="531" y="-173" font-family="Helvetica,sans-Serif" font-size="10.00">_Heli::get_rate_yaw_pid</text>
</a>
</g>
</g>
<!-- Node3&#45;&gt;Node4 -->
<g id="edge3" class="edge"><title>Node3&#45;&gt;Node4</title>
<path fill="none" stroke="midnightblue" d="M441.918,-181C451.264,-181 460.758,-181 469.883,-181"/>
<polygon fill="midnightblue" stroke="midnightblue" points="441.86,-177.5 431.86,-181 441.86,-184.5 441.86,-177.5"/>
</g>
<!-- Node6 -->
<g id="node6" class="node"><title>Node6</title>
<g id="a_node6"><a xlink:href="classAC__AttitudeControl__Sub.html#a5d384f89e97c92b0c0d62277b2de982e" target="_top" xlink:title="AC_AttitudeControl\l_Sub::is_throttle_mix_min">
<polygon fill="white" stroke="black" points="304,-98 304,-128 434,-128 434,-98 304,-98"/>
<text text-anchor="start" x="312" y="-116" font-family="Helvetica,sans-Serif" font-size="10.00">AC_AttitudeControl</text>
<text text-anchor="middle" x="369" y="-105" font-family="Helvetica,sans-Serif" font-size="10.00">_Sub::is_throttle_mix_min</text>
</a>
</g>
</g>
<!-- Node5&#45;&gt;Node6 -->
<g id="edge5" class="edge"><title>Node5&#45;&gt;Node6</title>
<path fill="none" stroke="midnightblue" d="M276.52,-110.202C285.645,-110.481 294.934,-110.766 303.923,-111.04"/>
<polygon fill="midnightblue" stroke="midnightblue" points="276.415,-106.698 266.312,-109.89 276.201,-113.694 276.415,-106.698"/>
</g>
<!-- Node8 -->
<g id="node8" class="node"><title>Node8</title>
<g id="a_node8"><a xlink:href="classAC__AttitudeControl__Multi.html#a6318b45690210c7514bb5aae5dfd0904" target="_top" xlink:title="AC_AttitudeControl\l_Multi::is_throttle\l_mix_min">
<polygon fill="white" stroke="black" points="318.5,-38.5 318.5,-79.5 419.5,-79.5 419.5,-38.5 318.5,-38.5"/>
<text text-anchor="start" x="326.5" y="-67.5" font-family="Helvetica,sans-Serif" font-size="10.00">AC_AttitudeControl</text>
<text text-anchor="start" x="326.5" y="-56.5" font-family="Helvetica,sans-Serif" font-size="10.00">_Multi::is_throttle</text>
<text text-anchor="middle" x="369" y="-45.5" font-family="Helvetica,sans-Serif" font-size="10.00">_mix_min</text>
</a>
</g>
</g>
<!-- Node7&#45;&gt;Node8 -->
<g id="edge8" class="edge"><title>Node7&#45;&gt;Node8</title>
<path fill="none" stroke="midnightblue" d="M278.45,-59C291.984,-59 305.806,-59 318.414,-59"/>
<polygon fill="midnightblue" stroke="midnightblue" points="278.182,-55.5001 268.182,-59 278.182,-62.5001 278.182,-55.5001"/>
</g>
<!-- Node10 -->
<g id="node10" class="node"><title>Node10</title>
<g id="a_node10"><a xlink:href="AP__Motors__test_8cpp.html#afe461d27b9c48d5921c00d521181f12f" target="_top" xlink:title="loop">
<polygon fill="white" stroke="black" points="351.5,-0.5 351.5,-19.5 386.5,-19.5 386.5,-0.5 351.5,-0.5"/>
<text text-anchor="middle" x="369" y="-7.5" font-family="Helvetica,sans-Serif" font-size="10.00">loop</text>
</a>
</g>
</g>
<!-- Node9&#45;&gt;Node10 -->
<g id="edge10" class="edge"><title>Node9&#45;&gt;Node10</title>
<path fill="none" stroke="midnightblue" d="M249.692,-12.1708C283.491,-11.5506 327.789,-10.7378 351.432,-10.304"/>
<polygon fill="midnightblue" stroke="midnightblue" points="249.509,-8.67346 239.575,-12.3564 249.637,-15.6723 249.509,-8.67346"/>
</g>
</g>
</svg>
