<?xml version="1.0" encoding="UTF-8" standalone="no"?>
<!DOCTYPE svg PUBLIC "-//W3C//DTD SVG 1.1//EN"
 "http://www.w3.org/Graphics/SVG/1.1/DTD/svg11.dtd">
<!-- Generated by graphviz version 2.38.0 (20140413.2041)
 -->
<!-- Title: AC_Fence::check_destination_within_fence Pages: 1 -->
<!--zoomable 433 -->
<svg id="main" version="1.1" xmlns="http://www.w3.org/2000/svg" xmlns:xlink="http://www.w3.org/1999/xlink" xml:space="preserve" onload="init(evt)">
<style type="text/css"><![CDATA[
.edge:hover path { stroke: red; }
.edge:hover polygon { stroke: red; fill: red; }
]]></style>
<script type="text/javascript"><![CDATA[
var edges = document.getElementsByTagName('g');
if (edges && edges.length) {
  for (var i=0;i<edges.length;i++) {
    if (edges[i].id.substr(0,4)=='edge') {
      edges[i].setAttribute('class','edge');
    }
  }
}
]]></script>
        <defs>
                <circle id="rim" cx="0" cy="0" r="7"/>
                <circle id="rim2" cx="0" cy="0" r="3.5"/>
                <g id="zoomPlus">
                        <use xlink:href="#rim" fill="#404040">
                                <set attributeName="fill" to="#808080" begin="zoomplus.mouseover" end="zoomplus.mouseout"/>
                        </use>
                        <path d="M-4,0h8M0,-4v8" fill="none" stroke="white" stroke-width="1.5" pointer-events="none"/>
                </g>
                <g id="zoomMin">
                        <use xlink:href="#rim" fill="#404040">
                                <set attributeName="fill" to="#808080" begin="zoomminus.mouseover" end="zoomminus.mouseout"/>
                        </use>
                        <path d="M-4,0h8" fill="none" stroke="white" stroke-width="1.5" pointer-events="none"/>
                </g>
                <g id="dirArrow">
                        <path fill="none" stroke="white" stroke-width="1.5" d="M0,-3.0v7 M-2.5,-0.5L0,-3.0L2.5,-0.5"/>
                </g>
               <g id="resetDef">
                       <use xlink:href="#rim2" fill="#404040">
                               <set attributeName="fill" to="#808080" begin="reset.mouseover" end="reset.mouseout"/>
                       </use>
               </g>
        </defs>

<script type="text/javascript">
var viewWidth = 1132;
var viewHeight = 433;
var sectionId = 'dynsection-4';
</script>
<script xlink:href="svgpan.js"/>
<svg id="graph" class="graph">
<g id="viewport">
<title>AC_Fence::check_destination_within_fence</title>
<polygon fill="white" stroke="none" points="-4,4 -4,-429 1128,-429 1128,4 -4,4"/>
<!-- Node1 -->
<g id="node1" class="node"><title>Node1</title>
<polygon fill="#bfbfbf" stroke="black" points="0,-159.5 0,-189.5 148,-189.5 148,-159.5 0,-159.5"/>
<text text-anchor="start" x="8" y="-177.5" font-family="Helvetica,sans-Serif" font-size="10.00">AC_Fence::check_destination</text>
<text text-anchor="middle" x="74" y="-166.5" font-family="Helvetica,sans-Serif" font-size="10.00">_within_fence</text>
</g>
<!-- Node2 -->
<g id="node2" class="node"><title>Node2</title>
<g id="a_node2"><a xlink:href="classAC__Fence.html#a233d3a13b201e30c21c6d319f73d1ab2" target="_top" xlink:title="get_enabled_fences &#45; returns bitmask of enabled fences ">
<polygon fill="white" stroke="black" points="184,-312.5 184,-342.5 306,-342.5 306,-312.5 184,-312.5"/>
<text text-anchor="start" x="192" y="-330.5" font-family="Helvetica,sans-Serif" font-size="10.00">AC_Fence::get_enabled</text>
<text text-anchor="middle" x="245" y="-319.5" font-family="Helvetica,sans-Serif" font-size="10.00">_fences</text>
</a>
</g>
</g>
<!-- Node1&#45;&gt;Node2 -->
<g id="edge1" class="edge"><title>Node1&#45;&gt;Node2</title>
<path fill="none" stroke="midnightblue" d="M84.2548,-189.722C101.063,-216.219 139.056,-271.083 184,-303.5 185.885,-304.86 187.858,-306.157 189.893,-307.392"/>
<polygon fill="midnightblue" stroke="midnightblue" points="188.666,-310.709 199.122,-312.417 192.013,-304.561 188.666,-310.709"/>
</g>
<!-- Node3 -->
<g id="node3" class="node"><title>Node3</title>
<g id="a_node3"><a xlink:href="classLocation__Class.html#a94d8de310c8bdf8441c367e90d6b3f90" target="_top" xlink:title="get altitude in desired frame ">
<polygon fill="white" stroke="black" points="193,-263.5 193,-293.5 297,-293.5 297,-263.5 193,-263.5"/>
<text text-anchor="start" x="201" y="-281.5" font-family="Helvetica,sans-Serif" font-size="10.00">Location_Class::get</text>
<text text-anchor="middle" x="245" y="-270.5" font-family="Helvetica,sans-Serif" font-size="10.00">_alt_cm</text>
</a>
</g>
</g>
<!-- Node1&#45;&gt;Node3 -->
<g id="edge2" class="edge"><title>Node1&#45;&gt;Node3</title>
<path fill="none" stroke="midnightblue" d="M95.3649,-189.527C116.873,-205.11 152.031,-229.767 184,-248.5 189.941,-251.981 196.338,-255.455 202.664,-258.738"/>
<polygon fill="midnightblue" stroke="midnightblue" points="201.319,-261.981 211.82,-263.392 204.491,-255.741 201.319,-261.981"/>
</g>
<!-- Node5 -->
<g id="node5" class="node"><title>Node5</title>
<g id="a_node5"><a xlink:href="classAP__AHRS.html#aea45b16e6469a3b392b8bf52fb864732" target="_top" xlink:title="AP_AHRS::get_home">
<polygon fill="white" stroke="black" points="522.5,-263 522.5,-282 635.5,-282 635.5,-263 522.5,-263"/>
<text text-anchor="middle" x="579" y="-270" font-family="Helvetica,sans-Serif" font-size="10.00">AP_AHRS::get_home</text>
</a>
</g>
</g>
<!-- Node1&#45;&gt;Node5 -->
<g id="edge25" class="edge"><title>Node1&#45;&gt;Node5</title>
<path fill="none" stroke="midnightblue" d="M109.237,-189.561C130.408,-198.322 158.349,-208.903 184,-215.5 297.387,-244.661 433.229,-260.187 512.163,-267.355"/>
<polygon fill="midnightblue" stroke="midnightblue" points="512.172,-270.87 522.443,-268.271 512.793,-263.898 512.172,-270.87"/>
</g>
<!-- Node14 -->
<g id="node14" class="node"><title>Node14</title>
<g id="a_node14"><a xlink:href="location_8cpp.html#ac4acf5d14c42d6255cd005460de4d1ad" target="_top" xlink:title="get_distance_cm">
<polygon fill="white" stroke="black" points="199.5,-187 199.5,-206 290.5,-206 290.5,-187 199.5,-187"/>
<text text-anchor="middle" x="245" y="-194" font-family="Helvetica,sans-Serif" font-size="10.00">get_distance_cm</text>
</a>
</g>
</g>
<!-- Node1&#45;&gt;Node14 -->
<g id="edge14" class="edge"><title>Node1&#45;&gt;Node14</title>
<path fill="none" stroke="midnightblue" d="M148.143,-184.022C161.799,-185.799 175.857,-187.629 188.857,-189.322"/>
<polygon fill="midnightblue" stroke="midnightblue" points="188.66,-192.825 199.028,-190.646 189.564,-185.884 188.66,-192.825"/>
</g>
<!-- Node25 -->
<g id="node25" class="node"><title>Node25</title>
<g id="a_node25"><a xlink:href="classAP__InertialNav.html#ad5e3413a7b1422a48869b660911b3634" target="_top" xlink:title="AP_InertialNav::get\l_location">
<polygon fill="white" stroke="black" points="194,-137.5 194,-167.5 296,-167.5 296,-137.5 194,-137.5"/>
<text text-anchor="start" x="202" y="-155.5" font-family="Helvetica,sans-Serif" font-size="10.00">AP_InertialNav::get</text>
<text text-anchor="middle" x="245" y="-144.5" font-family="Helvetica,sans-Serif" font-size="10.00">_location</text>
</a>
</g>
</g>
<!-- Node1&#45;&gt;Node25 -->
<g id="edge26" class="edge"><title>Node1&#45;&gt;Node25</title>
<path fill="none" stroke="midnightblue" d="M148.143,-164.978C160.01,-163.434 172.182,-161.849 183.699,-160.35"/>
<polygon fill="midnightblue" stroke="midnightblue" points="184.162,-163.819 193.627,-159.057 183.259,-156.878 184.162,-163.819"/>
</g>
<!-- Node26 -->
<g id="node26" class="node"><title>Node26</title>
<g id="a_node26"><a xlink:href="classAP__InertialNav.html#a0400fb5866678c5657542a4c2769839b" target="_top" xlink:title="AP_InertialNav::get\l_origin">
<polygon fill="white" stroke="black" points="194,-88.5 194,-118.5 296,-118.5 296,-88.5 194,-88.5"/>
<text text-anchor="start" x="202" y="-106.5" font-family="Helvetica,sans-Serif" font-size="10.00">AP_InertialNav::get</text>
<text text-anchor="middle" x="245" y="-95.5" font-family="Helvetica,sans-Serif" font-size="10.00">_origin</text>
</a>
</g>
</g>
<!-- Node1&#45;&gt;Node26 -->
<g id="edge27" class="edge"><title>Node1&#45;&gt;Node26</title>
<path fill="none" stroke="midnightblue" d="M109.265,-159.448C130.685,-150.107 158.88,-137.938 184,-127.5 188.073,-125.808 192.31,-124.069 196.564,-122.338"/>
<polygon fill="midnightblue" stroke="midnightblue" points="197.891,-125.577 205.849,-118.583 195.267,-119.088 197.891,-125.577"/>
</g>
<!-- Node27 -->
<g id="node27" class="node"><title>Node27</title>
<g id="a_node27"><a xlink:href="location_8cpp.html#a527b26472ed6f2e0c141e109a0722a0a" target="_top" xlink:title="location_diff">
<polygon fill="white" stroke="black" points="370.5,-62 370.5,-81 439.5,-81 439.5,-62 370.5,-62"/>
<text text-anchor="middle" x="405" y="-69" font-family="Helvetica,sans-Serif" font-size="10.00">location_diff</text>
</a>
</g>
</g>
<!-- Node1&#45;&gt;Node27 -->
<g id="edge28" class="edge"><title>Node1&#45;&gt;Node27</title>
<path fill="none" stroke="midnightblue" d="M86.361,-159.307C104.238,-136.787 141.328,-95.3926 184,-78.5 241.521,-55.7294 314.271,-58.9588 359.986,-64.4106"/>
<polygon fill="midnightblue" stroke="midnightblue" points="359.793,-67.9144 370.157,-65.7138 360.683,-60.9711 359.793,-67.9144"/>
</g>
<!-- Node28 -->
<g id="node28" class="node"><title>Node28</title>
<g id="a_node28"><a xlink:href="classAC__PolyFence__loader.html#a91a6b4c5611590d524eacac2c2aeec3a" target="_top" xlink:title="AC_PolyFence_loader\l::boundary_breached">
<polygon fill="white" stroke="black" points="188,-0.5 188,-30.5 302,-30.5 302,-0.5 188,-0.5"/>
<text text-anchor="start" x="196" y="-18.5" font-family="Helvetica,sans-Serif" font-size="10.00">AC_PolyFence_loader</text>
<text text-anchor="middle" x="245" y="-7.5" font-family="Helvetica,sans-Serif" font-size="10.00">::boundary_breached</text>
</a>
</g>
</g>
<!-- Node1&#45;&gt;Node28 -->
<g id="edge30" class="edge"><title>Node1&#45;&gt;Node28</title>
<path fill="none" stroke="midnightblue" d="M84.8152,-159.243C102.198,-133.173 140.673,-79.576 184,-45.5 188.633,-41.8563 193.779,-38.4808 199.054,-35.4099"/>
<polygon fill="midnightblue" stroke="midnightblue" points="200.885,-38.3982 207.986,-30.5357 197.532,-32.2536 200.885,-38.3982"/>
</g>
<!-- Node4 -->
<g id="node4" class="node"><title>Node4</title>
<g id="a_node4"><a xlink:href="classLocation__Class.html#a12eedb8fc1b0f9391bc07891decf95fc" target="_top" xlink:title="Location_Class::get\l_alt_frame">
<polygon fill="white" stroke="black" points="353,-301.5 353,-331.5 457,-331.5 457,-301.5 353,-301.5"/>
<text text-anchor="start" x="361" y="-319.5" font-family="Helvetica,sans-Serif" font-size="10.00">Location_Class::get</text>
<text text-anchor="middle" x="405" y="-308.5" font-family="Helvetica,sans-Serif" font-size="10.00">_alt_frame</text>
</a>
</g>
</g>
<!-- Node3&#45;&gt;Node4 -->
<g id="edge3" class="edge"><title>Node3&#45;&gt;Node4</title>
<path fill="none" stroke="midnightblue" d="M297.298,-290.838C311.933,-294.357 328.021,-298.227 343.167,-301.869"/>
<polygon fill="midnightblue" stroke="midnightblue" points="342.418,-305.289 352.959,-304.224 344.055,-298.483 342.418,-305.289"/>
</g>
<!-- Node3&#45;&gt;Node5 -->
<g id="edge4" class="edge"><title>Node3&#45;&gt;Node5</title>
<path fill="none" stroke="midnightblue" d="M297.147,-277.576C354.868,-276.533 448.927,-274.833 512.106,-273.691"/>
<polygon fill="midnightblue" stroke="midnightblue" points="512.424,-277.186 522.359,-273.506 512.297,-270.187 512.424,-277.186"/>
</g>
<!-- Node7 -->
<g id="node7" class="node"><title>Node7</title>
<g id="a_node7"><a xlink:href="classAP__AHRS__NavEKF.html#a8e90dbad885e5d8d4efe9a34d635886a" target="_top" xlink:title="AP_AHRS_NavEKF::get\l_origin">
<polygon fill="white" stroke="black" points="342,-350.5 342,-380.5 468,-380.5 468,-350.5 342,-350.5"/>
<text text-anchor="start" x="350" y="-368.5" font-family="Helvetica,sans-Serif" font-size="10.00">AP_AHRS_NavEKF::get</text>
<text text-anchor="middle" x="405" y="-357.5" font-family="Helvetica,sans-Serif" font-size="10.00">_origin</text>
</a>
</g>
</g>
<!-- Node3&#45;&gt;Node7 -->
<g id="edge6" class="edge"><title>Node3&#45;&gt;Node7</title>
<path fill="none" stroke="midnightblue" d="M288.486,-293.564C294.585,-296.47 300.611,-299.785 306,-303.5 325.153,-316.705 322.68,-328.54 342,-341.5 344.259,-343.015 346.627,-344.455 349.065,-345.82"/>
<polygon fill="midnightblue" stroke="midnightblue" points="347.631,-349.017 358.13,-350.438 350.809,-342.78 347.631,-349.017"/>
</g>
<!-- Node6 -->
<g id="node6" class="node"><title>Node6</title>
<g id="a_node6"><a xlink:href="classAP__AHRS.html#a702b6313fff141dced78533a4d258ab0" target="_top" xlink:title="AP_AHRS::set_home">
<polygon fill="white" stroke="black" points="706.5,-263 706.5,-282 819.5,-282 819.5,-263 706.5,-263"/>
<text text-anchor="middle" x="763" y="-270" font-family="Helvetica,sans-Serif" font-size="10.00">AP_AHRS::set_home</text>
</a>
</g>
</g>
<!-- Node5&#45;&gt;Node6 -->
<g id="edge5" class="edge"><title>Node5&#45;&gt;Node6</title>
<path fill="none" stroke="midnightblue" d="M635.595,-272.5C654.734,-272.5 676.349,-272.5 696.221,-272.5"/>
<polygon fill="midnightblue" stroke="midnightblue" points="696.432,-276 706.432,-272.5 696.432,-269 696.432,-276"/>
</g>
<!-- Node7&#45;&gt;Node5 -->
<g id="edge13" class="edge"><title>Node7&#45;&gt;Node5</title>
<path fill="none" stroke="midnightblue" d="M450.997,-350.394C456.885,-347.756 462.705,-344.788 468,-341.5 486.44,-330.051 486.054,-320.708 504,-308.5 516.642,-299.9 531.647,-292.199 544.83,-286.148"/>
<polygon fill="midnightblue" stroke="midnightblue" points="546.335,-289.309 554.047,-282.044 543.488,-282.914 546.335,-289.309"/>
</g>
<!-- Node8 -->
<g id="node8" class="node"><title>Node8</title>
<g id="a_node8"><a xlink:href="classAP__AHRS__NavEKF.html#a2421598bfc909c228709f99347a5fcea" target="_top" xlink:title="AP_AHRS_NavEKF::ekf_type">
<polygon fill="white" stroke="black" points="504,-397 504,-416 654,-416 654,-397 504,-397"/>
<text text-anchor="middle" x="579" y="-404" font-family="Helvetica,sans-Serif" font-size="10.00">AP_AHRS_NavEKF::ekf_type</text>
</a>
</g>
</g>
<!-- Node7&#45;&gt;Node8 -->
<g id="edge7" class="edge"><title>Node7&#45;&gt;Node8</title>
<path fill="none" stroke="midnightblue" d="M468.096,-380.302C487.835,-385.007 509.399,-390.147 528.157,-394.619"/>
<polygon fill="midnightblue" stroke="midnightblue" points="527.433,-398.044 537.972,-396.958 529.056,-391.235 527.433,-398.044"/>
</g>
<!-- Node10 -->
<g id="node10" class="node"><title>Node10</title>
<g id="a_node10"><a xlink:href="classNavEKF2.html#a3109981c3d7b2e386da87b760ee61b30" target="_top" xlink:title="NavEKF2::getOriginLLH">
<polygon fill="white" stroke="black" points="518,-356 518,-375 640,-375 640,-356 518,-356"/>
<text text-anchor="middle" x="579" y="-363" font-family="Helvetica,sans-Serif" font-size="10.00">NavEKF2::getOriginLLH</text>
</a>
</g>
</g>
<!-- Node7&#45;&gt;Node10 -->
<g id="edge9" class="edge"><title>Node7&#45;&gt;Node10</title>
<path fill="none" stroke="midnightblue" d="M468.096,-365.5C480.852,-365.5 494.37,-365.5 507.4,-365.5"/>
<polygon fill="midnightblue" stroke="midnightblue" points="507.722,-369 517.722,-365.5 507.722,-362 507.722,-369"/>
</g>
<!-- Node12 -->
<g id="node12" class="node"><title>Node12</title>
<g id="a_node12"><a xlink:href="classNavEKF3.html#a173b61affdfe67a2ba705ce646cfc390" target="_top" xlink:title="NavEKF3::getOriginLLH">
<polygon fill="white" stroke="black" points="518,-318 518,-337 640,-337 640,-318 518,-318"/>
<text text-anchor="middle" x="579" y="-325" font-family="Helvetica,sans-Serif" font-size="10.00">NavEKF3::getOriginLLH</text>
</a>
</g>
</g>
<!-- Node7&#45;&gt;Node12 -->
<g id="edge11" class="edge"><title>Node7&#45;&gt;Node12</title>
<path fill="none" stroke="midnightblue" d="M468.096,-351.781C486.683,-347.675 506.889,-343.211 524.846,-339.243"/>
<polygon fill="midnightblue" stroke="midnightblue" points="525.837,-342.609 534.847,-337.034 524.327,-335.774 525.837,-342.609"/>
</g>
<!-- Node9 -->
<g id="node9" class="node"><title>Node9</title>
<g id="a_node9"><a xlink:href="classAP__AHRS__NavEKF.html#a9af775a381a41ff78ac75a06ba7b1a05" target="_top" xlink:title="AP_AHRS_NavEKF::always\l_use_EKF">
<polygon fill="white" stroke="black" points="691.5,-394.5 691.5,-424.5 834.5,-424.5 834.5,-394.5 691.5,-394.5"/>
<text text-anchor="start" x="699.5" y="-412.5" font-family="Helvetica,sans-Serif" font-size="10.00">AP_AHRS_NavEKF::always</text>
<text text-anchor="middle" x="763" y="-401.5" font-family="Helvetica,sans-Serif" font-size="10.00">_use_EKF</text>
</a>
</g>
</g>
<!-- Node8&#45;&gt;Node9 -->
<g id="edge8" class="edge"><title>Node8&#45;&gt;Node9</title>
<path fill="none" stroke="midnightblue" d="M654.026,-407.72C662.964,-407.868 672.129,-408.019 681.158,-408.167"/>
<polygon fill="midnightblue" stroke="midnightblue" points="681.219,-411.669 691.276,-408.334 681.335,-404.67 681.219,-411.669"/>
</g>
<!-- Node11 -->
<g id="node11" class="node"><title>Node11</title>
<g id="a_node11"><a xlink:href="classNavEKF2__core.html#a0f070d9946f12e2dd0484ba395475f95" target="_top" xlink:title="NavEKF2_core::getOriginLLH">
<polygon fill="white" stroke="black" points="690,-356 690,-375 836,-375 836,-356 690,-356"/>
<text text-anchor="middle" x="763" y="-363" font-family="Helvetica,sans-Serif" font-size="10.00">NavEKF2_core::getOriginLLH</text>
</a>
</g>
</g>
<!-- Node10&#45;&gt;Node11 -->
<g id="edge10" class="edge"><title>Node10&#45;&gt;Node11</title>
<path fill="none" stroke="midnightblue" d="M640.098,-365.5C652.804,-365.5 666.423,-365.5 679.786,-365.5"/>
<polygon fill="midnightblue" stroke="midnightblue" points="679.936,-369 689.936,-365.5 679.936,-362 679.936,-369"/>
</g>
<!-- Node13 -->
<g id="node13" class="node"><title>Node13</title>
<g id="a_node13"><a xlink:href="classNavEKF3__core.html#af7d59bec1dcc3663bf68de8eaf0b2856" target="_top" xlink:title="NavEKF3_core::getOriginLLH">
<polygon fill="white" stroke="black" points="690,-318 690,-337 836,-337 836,-318 690,-318"/>
<text text-anchor="middle" x="763" y="-325" font-family="Helvetica,sans-Serif" font-size="10.00">NavEKF3_core::getOriginLLH</text>
</a>
</g>
</g>
<!-- Node12&#45;&gt;Node13 -->
<g id="edge12" class="edge"><title>Node12&#45;&gt;Node13</title>
<path fill="none" stroke="midnightblue" d="M640.098,-327.5C652.804,-327.5 666.423,-327.5 679.786,-327.5"/>
<polygon fill="midnightblue" stroke="midnightblue" points="679.936,-331 689.936,-327.5 679.936,-324 679.936,-331"/>
</g>
<!-- Node15 -->
<g id="node15" class="node"><title>Node15</title>
<g id="a_node15"><a xlink:href="location_8cpp.html#aa825a788804b8dd4cf1e3cfb42960a8b" target="_top" xlink:title="get_distance">
<polygon fill="white" stroke="black" points="369,-174 369,-193 441,-193 441,-174 369,-174"/>
<text text-anchor="middle" x="405" y="-181" font-family="Helvetica,sans-Serif" font-size="10.00">get_distance</text>
</a>
</g>
</g>
<!-- Node14&#45;&gt;Node15 -->
<g id="edge15" class="edge"><title>Node14&#45;&gt;Node15</title>
<path fill="none" stroke="midnightblue" d="M290.854,-192.809C312.101,-191.061 337.43,-188.977 358.73,-187.225"/>
<polygon fill="midnightblue" stroke="midnightblue" points="359.148,-190.702 368.827,-186.394 358.574,-183.726 359.148,-190.702"/>
</g>
<!-- Node16 -->
<g id="node16" class="node"><title>Node16</title>
<g id="a_node16"><a xlink:href="location_8cpp.html#ad2368c582f3e0c135e2a74772f4db61a" target="_top" xlink:title="longitude_scale">
<polygon fill="white" stroke="black" points="537,-87 537,-106 621,-106 621,-87 537,-87"/>
<text text-anchor="middle" x="579" y="-94" font-family="Helvetica,sans-Serif" font-size="10.00">longitude_scale</text>
</a>
</g>
</g>
<!-- Node15&#45;&gt;Node16 -->
<g id="edge16" class="edge"><title>Node15&#45;&gt;Node16</title>
<path fill="none" stroke="midnightblue" d="M425.064,-173.857C455.365,-158.531 514.678,-128.529 549.87,-110.728"/>
<polygon fill="midnightblue" stroke="midnightblue" points="551.769,-113.69 559.113,-106.054 548.609,-107.444 551.769,-113.69"/>
</g>
<!-- Node23 -->
<g id="node23" class="node"><title>Node23</title>
<g id="a_node23"><a xlink:href="AP__Math_8h.html#a2c34476e01b9988589e9be01e6c8b5f0" target="_top" xlink:title="norm">
<polygon fill="white" stroke="black" points="560,-174 560,-193 598,-193 598,-174 560,-174"/>
<text text-anchor="middle" x="579" y="-181" font-family="Helvetica,sans-Serif" font-size="10.00">norm</text>
</a>
</g>
</g>
<!-- Node15&#45;&gt;Node23 -->
<g id="edge23" class="edge"><title>Node15&#45;&gt;Node23</title>
<path fill="none" stroke="midnightblue" d="M441.222,-183.5C473.259,-183.5 519.943,-183.5 549.639,-183.5"/>
<polygon fill="midnightblue" stroke="midnightblue" points="549.752,-187 559.752,-183.5 549.752,-180 549.752,-187"/>
</g>
<!-- Node17 -->
<g id="node17" class="node"><title>Node17</title>
<g id="a_node17"><a xlink:href="AP__Math_8h.html#ad525609d9dba6ffa556a0fbf08a3f9b4" target="_top" xlink:title="constrain_float">
<polygon fill="white" stroke="black" points="723,-87 723,-106 803,-106 803,-87 723,-87"/>
<text text-anchor="middle" x="763" y="-94" font-family="Helvetica,sans-Serif" font-size="10.00">constrain_float</text>
</a>
</g>
</g>
<!-- Node16&#45;&gt;Node17 -->
<g id="edge17" class="edge"><title>Node16&#45;&gt;Node17</title>
<path fill="none" stroke="midnightblue" d="M621.299,-96.5C648.387,-96.5 683.95,-96.5 712.545,-96.5"/>
<polygon fill="midnightblue" stroke="midnightblue" points="712.736,-100 722.736,-96.5 712.736,-93.0001 712.736,-100"/>
</g>
<!-- Node18 -->
<g id="node18" class="node"><title>Node18</title>
<g id="a_node18"><a xlink:href="AP__Math_8h.html#a20e8f8671c282c69c1954652b6d61585" target="_top" xlink:title="constrain_value">
<polygon fill="white" stroke="black" points="872,-87 872,-106 957,-106 957,-87 872,-87"/>
<text text-anchor="middle" x="914.5" y="-94" font-family="Helvetica,sans-Serif" font-size="10.00">constrain_value</text>
</a>
</g>
</g>
<!-- Node17&#45;&gt;Node18 -->
<g id="edge18" class="edge"><title>Node17&#45;&gt;Node18</title>
<path fill="none" stroke="midnightblue" d="M803.279,-96.5C821.173,-96.5 842.596,-96.5 861.777,-96.5"/>
<polygon fill="midnightblue" stroke="midnightblue" points="861.868,-100 871.868,-96.5 861.868,-93.0001 861.868,-100"/>
</g>
<!-- Node19 -->
<g id="node19" class="node"><title>Node19</title>
<g id="a_node19"><a xlink:href="AP__Math_8cpp.html#a37e8e901754cb9c8e53a8e3030c82c50" target="_top" xlink:title="constrain_value\&lt; int \&gt;">
<polygon fill="white" stroke="black" points="1002,-144 1002,-163 1115,-163 1115,-144 1002,-144"/>
<text text-anchor="middle" x="1058.5" y="-151" font-family="Helvetica,sans-Serif" font-size="10.00">constrain_value&lt; int &gt;</text>
</a>
</g>
</g>
<!-- Node18&#45;&gt;Node19 -->
<g id="edge19" class="edge"><title>Node18&#45;&gt;Node19</title>
<path fill="none" stroke="midnightblue" d="M932.97,-106.128C948.432,-114.391 971.774,-126.238 993,-134.5 998.854,-136.778 1005.1,-138.939 1011.31,-140.929"/>
<polygon fill="midnightblue" stroke="midnightblue" points="1010.39,-144.309 1020.98,-143.911 1012.45,-137.62 1010.39,-144.309"/>
</g>
<!-- Node20 -->
<g id="node20" class="node"><title>Node20</title>
<g id="a_node20"><a xlink:href="AP__Math_8cpp.html#afdbe107ec1987d318a6347816fbf2b89" target="_top" xlink:title="constrain_value\&lt; short \&gt;">
<polygon fill="white" stroke="black" points="996,-106 996,-125 1121,-125 1121,-106 996,-106"/>
<text text-anchor="middle" x="1058.5" y="-113" font-family="Helvetica,sans-Serif" font-size="10.00">constrain_value&lt; short &gt;</text>
</a>
</g>
</g>
<!-- Node18&#45;&gt;Node20 -->
<g id="edge20" class="edge"><title>Node18&#45;&gt;Node20</title>
<path fill="none" stroke="midnightblue" d="M957.337,-102.098C966.323,-103.3 976.064,-104.604 985.821,-105.909"/>
<polygon fill="midnightblue" stroke="midnightblue" points="985.589,-109.409 995.965,-107.266 986.518,-102.471 985.589,-109.409"/>
</g>
<!-- Node21 -->
<g id="node21" class="node"><title>Node21</title>
<g id="a_node21"><a xlink:href="AP__Math_8cpp.html#ae6c621670c214da687de21d4e3a92587" target="_top" xlink:title="constrain_value\&lt; float \&gt;">
<polygon fill="white" stroke="black" points="997.5,-68 997.5,-87 1119.5,-87 1119.5,-68 997.5,-68"/>
<text text-anchor="middle" x="1058.5" y="-75" font-family="Helvetica,sans-Serif" font-size="10.00">constrain_value&lt; float &gt;</text>
</a>
</g>
</g>
<!-- Node18&#45;&gt;Node21 -->
<g id="edge21" class="edge"><title>Node18&#45;&gt;Node21</title>
<path fill="none" stroke="midnightblue" d="M957.337,-90.9021C966.724,-89.646 976.935,-88.2798 987.129,-86.9159"/>
<polygon fill="midnightblue" stroke="midnightblue" points="987.838,-90.3522 997.286,-85.5568 986.91,-83.4141 987.838,-90.3522"/>
</g>
<!-- Node22 -->
<g id="node22" class="node"><title>Node22</title>
<g id="a_node22"><a xlink:href="AP__Math_8cpp.html#afe3990b00e9abc43fa97dfaf8e32f5c4" target="_top" xlink:title="constrain_value\&lt; double \&gt;">
<polygon fill="white" stroke="black" points="993,-30 993,-49 1124,-49 1124,-30 993,-30"/>
<text text-anchor="middle" x="1058.5" y="-37" font-family="Helvetica,sans-Serif" font-size="10.00">constrain_value&lt; double &gt;</text>
</a>
</g>
</g>
<!-- Node18&#45;&gt;Node22 -->
<g id="edge22" class="edge"><title>Node18&#45;&gt;Node22</title>
<path fill="none" stroke="midnightblue" d="M932.97,-86.8716C948.432,-78.609 971.774,-66.7616 993,-58.5 998.854,-56.2215 1005.1,-54.0614 1011.31,-52.0705"/>
<polygon fill="midnightblue" stroke="midnightblue" points="1012.45,-55.38 1020.98,-49.0887 1010.39,-48.6908 1012.45,-55.38"/>
</g>
<!-- Node24 -->
<g id="node24" class="node"><title>Node24</title>
<g id="a_node24"><a xlink:href="AP__Math_8h.html#a0375e3d67fd3911cacee5c3e1408c0f2" target="_top" xlink:title="sq">
<polygon fill="white" stroke="black" points="748.5,-174 748.5,-193 777.5,-193 777.5,-174 748.5,-174"/>
<text text-anchor="middle" x="763" y="-181" font-family="Helvetica,sans-Serif" font-size="10.00">sq</text>
</a>
</g>
</g>
<!-- Node23&#45;&gt;Node24 -->
<g id="edge24" class="edge"><title>Node23&#45;&gt;Node24</title>
<path fill="none" stroke="midnightblue" d="M598.116,-183.5C631.035,-183.5 700.676,-183.5 737.687,-183.5"/>
<polygon fill="midnightblue" stroke="midnightblue" points="738.049,-187 748.049,-183.5 738.049,-180 738.049,-187"/>
</g>
<!-- Node27&#45;&gt;Node16 -->
<g id="edge29" class="edge"><title>Node27&#45;&gt;Node16</title>
<path fill="none" stroke="midnightblue" d="M439.572,-76.3796C464.387,-79.9865 498.62,-84.9622 526.834,-89.063"/>
<polygon fill="midnightblue" stroke="midnightblue" points="526.528,-92.5553 536.927,-90.5301 527.535,-85.6281 526.528,-92.5553"/>
</g>
<!-- Node29 -->
<g id="node29" class="node"><title>Node29</title>
<g id="a_node29"><a xlink:href="polygon_8cpp.html#a69c7755ab39f2ede645c4542b3aed07c" target="_top" xlink:title="Polygon_outside">
<polygon fill="white" stroke="black" points="360.5,-6 360.5,-25 449.5,-25 449.5,-6 360.5,-6"/>
<text text-anchor="middle" x="405" y="-13" font-family="Helvetica,sans-Serif" font-size="10.00">Polygon_outside</text>
</a>
</g>
</g>
<!-- Node28&#45;&gt;Node29 -->
<g id="edge31" class="edge"><title>Node28&#45;&gt;Node29</title>
<path fill="none" stroke="midnightblue" d="M302.15,-15.5C317.716,-15.5 334.578,-15.5 350.018,-15.5"/>
<polygon fill="midnightblue" stroke="midnightblue" points="350.447,-19.0001 360.447,-15.5 350.447,-12.0001 350.447,-19.0001"/>
</g>
</g>
</svg>
        <g id="navigator" transform="translate(0 0)" fill="#404254">
                <rect fill="#f2f5e9" fill-opacity="0.5" stroke="#606060" stroke-width=".5" x="0" y="0" width="60" height="60"/>
                <use id="zoomplus" xlink:href="#zoomPlus" x="17" y="9" onmousedown="handleZoom(evt,'in')"/>
                <use id="zoomminus" xlink:href="#zoomMin" x="42" y="9" onmousedown="handleZoom(evt,'out')"/>
                <use id="reset" xlink:href="#resetDef" x="30" y="36" onmousedown="handleReset()"/>
                <g id="arrowUp" xlink:href="#dirArrow" transform="translate(30 24)" onmousedown="handlePan(0,-1)">
                  <use xlink:href="#rim" fill="#404040">
                        <set attributeName="fill" to="#808080" begin="arrowUp.mouseover" end="arrowUp.mouseout"/>
                  </use>
                  <path fill="none" stroke="white" stroke-width="1.5" d="M0,-3.0v7 M-2.5,-0.5L0,-3.0L2.5,-0.5"/>
                </g>
                <g id="arrowRight" xlink:href="#dirArrow" transform="rotate(90) translate(36 -43)" onmousedown="handlePan(1,0)">
                  <use xlink:href="#rim" fill="#404040">
                        <set attributeName="fill" to="#808080" begin="arrowRight.mouseover" end="arrowRight.mouseout"/>
                  </use>
                  <path fill="none" stroke="white" stroke-width="1.5" d="M0,-3.0v7 M-2.5,-0.5L0,-3.0L2.5,-0.5"/>
                </g>
                <g id="arrowDown" xlink:href="#dirArrow" transform="rotate(180) translate(-30 -48)" onmousedown="handlePan(0,1)">
                  <use xlink:href="#rim" fill="#404040">
                        <set attributeName="fill" to="#808080" begin="arrowDown.mouseover" end="arrowDown.mouseout"/>
                  </use>
                  <path fill="none" stroke="white" stroke-width="1.5" d="M0,-3.0v7 M-2.5,-0.5L0,-3.0L2.5,-0.5"/>
                </g>
                <g id="arrowLeft" xlink:href="#dirArrow" transform="rotate(270) translate(-36 17)" onmousedown="handlePan(-1,0)">
                  <use xlink:href="#rim" fill="#404040">
                        <set attributeName="fill" to="#808080" begin="arrowLeft.mouseover" end="arrowLeft.mouseout"/>
                  </use>
                  <path fill="none" stroke="white" stroke-width="1.5" d="M0,-3.0v7 M-2.5,-0.5L0,-3.0L2.5,-0.5"/>
                </g>
        </g>
        <svg viewBox="0 0 15 15" width="100%" height="30px" preserveAspectRatio="xMaxYMin meet">
         <g id="arrow_out" transform="scale(0.3 0.3)">
          <a xlink:href="classAC__Fence_a1ddf2b4968acee81332875003c5ff64d_cgraph_org.svg" target="_base">
           <rect id="button" ry="5" rx="5" y="6" x="6" height="38" width="38"
                fill="#f2f5e9" fill-opacity="0.5" stroke="#606060" stroke-width="1.0"/>
           <path id="arrow"
             d="M 11.500037,31.436501 C 11.940474,20.09759 22.043105,11.32322 32.158766,21.979434 L 37.068811,17.246167 C 37.068811,17.246167 37.088388,32 37.088388,32 L 22.160133,31.978069 C 22.160133,31.978069 26.997745,27.140456 26.997745,27.140456 C 18.528582,18.264221 13.291696,25.230495 11.500037,31.436501 z"
             style="fill:#404040;"/>
          </a>
         </g>
        </svg>
</svg>
