<?xml version="1.0" encoding="UTF-8" standalone="no"?>
<!DOCTYPE svg PUBLIC "-//W3C//DTD SVG 1.1//EN"
 "http://www.w3.org/Graphics/SVG/1.1/DTD/svg11.dtd">
<!-- Generated by graphviz version 2.38.0 (20140413.2041)
 -->
<!-- Title: DataFlash_Backend::WriteBlockCheckStartupMessages Pages: 1 -->
<svg width="557pt" height="88pt"
 viewBox="0.00 0.00 557.00 88.00" xmlns="http://www.w3.org/2000/svg" xmlns:xlink="http://www.w3.org/1999/xlink">
<g id="graph0" class="graph" transform="scale(1 1) rotate(0) translate(4 84)">
<title>DataFlash_Backend::WriteBlockCheckStartupMessages</title>
<polygon fill="white" stroke="none" points="-4,4 -4,-84 553,-84 553,4 -4,4"/>
<!-- Node1 -->
<g id="node1" class="node"><title>Node1</title>
<polygon fill="#bfbfbf" stroke="black" points="0,-24.5 0,-54.5 170,-54.5 170,-24.5 0,-24.5"/>
<text text-anchor="start" x="8" y="-42.5" font-family="Helvetica,sans-Serif" font-size="10.00">DataFlash_Backend::</text>
<text text-anchor="middle" x="85" y="-31.5" font-family="Helvetica,sans-Serif" font-size="10.00">WriteBlockCheckStartupMessages</text>
</g>
<!-- Node2 -->
<g id="node2" class="node"><title>Node2</title>
<g id="a_node2"><a xlink:href="classDataFlash__Block.html#aeb4df7ca0d756fa0f7e6d5e172b35658" target="_top" xlink:title="DataFlash_Block::WritePrioritised\lBlock">
<polygon fill="white" stroke="black" points="206,-49.5 206,-79.5 370,-79.5 370,-49.5 206,-49.5"/>
<text text-anchor="start" x="214" y="-67.5" font-family="Helvetica,sans-Serif" font-size="10.00">DataFlash_Block::WritePrioritised</text>
<text text-anchor="middle" x="288" y="-56.5" font-family="Helvetica,sans-Serif" font-size="10.00">Block</text>
</a>
</g>
</g>
<!-- Node1&#45;&gt;Node2 -->
<g id="edge1" class="edge"><title>Node1&#45;&gt;Node2</title>
<path fill="none" stroke="midnightblue" d="M180.121,-51.2066C188.714,-52.2753 197.369,-53.3519 205.834,-54.4047"/>
<polygon fill="midnightblue" stroke="midnightblue" points="180.433,-47.7185 170.077,-49.9574 179.569,-54.665 180.433,-47.7185"/>
</g>
<!-- Node4 -->
<g id="node4" class="node"><title>Node4</title>
<g id="a_node4"><a xlink:href="classDataFlash__MAVLink.html#a4451409ec8511931125181af1a2cbf00" target="_top" xlink:title="DataFlash_MAVLink::\lWritePrioritisedBlock">
<polygon fill="white" stroke="black" points="231.5,-0.5 231.5,-30.5 344.5,-30.5 344.5,-0.5 231.5,-0.5"/>
<text text-anchor="start" x="239.5" y="-18.5" font-family="Helvetica,sans-Serif" font-size="10.00">DataFlash_MAVLink::</text>
<text text-anchor="middle" x="288" y="-7.5" font-family="Helvetica,sans-Serif" font-size="10.00">WritePrioritisedBlock</text>
</a>
</g>
</g>
<!-- Node1&#45;&gt;Node4 -->
<g id="edge3" class="edge"><title>Node1&#45;&gt;Node4</title>
<path fill="none" stroke="midnightblue" d="M180.304,-28.2398C197.75,-26.1567 215.445,-24.0438 231.277,-22.1535"/>
<polygon fill="midnightblue" stroke="midnightblue" points="179.592,-24.7999 170.077,-29.4609 180.422,-31.7505 179.592,-24.7999"/>
</g>
<!-- Node3 -->
<g id="node3" class="node"><title>Node3</title>
<g id="a_node3"><a xlink:href="classDataFlash__Block.html#aa7f35f8bc82176c68574db0d23c44c97" target="_top" xlink:title="DataFlash_Block::DataFlash\l_Block">
<polygon fill="white" stroke="black" points="406,-49.5 406,-79.5 549,-79.5 549,-49.5 406,-49.5"/>
<text text-anchor="start" x="414" y="-67.5" font-family="Helvetica,sans-Serif" font-size="10.00">DataFlash_Block::DataFlash</text>
<text text-anchor="middle" x="477.5" y="-56.5" font-family="Helvetica,sans-Serif" font-size="10.00">_Block</text>
</a>
</g>
</g>
<!-- Node2&#45;&gt;Node3 -->
<g id="edge2" class="edge"><title>Node2&#45;&gt;Node3</title>
<path fill="none" stroke="midnightblue" d="M380.219,-64.5C388.822,-64.5 397.453,-64.5 405.823,-64.5"/>
<polygon fill="midnightblue" stroke="midnightblue" points="380.15,-61.0001 370.15,-64.5 380.15,-68.0001 380.15,-61.0001"/>
</g>
<!-- Node5 -->
<g id="node5" class="node"><title>Node5</title>
<g id="a_node5"><a xlink:href="classDataFlash__MAVLink.html#a29ea50e386834a25c9605ac94218b371" target="_top" xlink:title="DataFlash_MAVLink::\llogging_started">
<polygon fill="white" stroke="black" points="421,-0.5 421,-30.5 534,-30.5 534,-0.5 421,-0.5"/>
<text text-anchor="start" x="429" y="-18.5" font-family="Helvetica,sans-Serif" font-size="10.00">DataFlash_MAVLink::</text>
<text text-anchor="middle" x="477.5" y="-7.5" font-family="Helvetica,sans-Serif" font-size="10.00">logging_started</text>
</a>
</g>
</g>
<!-- Node4&#45;&gt;Node5 -->
<g id="edge4" class="edge"><title>Node4&#45;&gt;Node5</title>
<path fill="none" stroke="midnightblue" d="M354.827,-15.5C376.428,-15.5 400.206,-15.5 420.966,-15.5"/>
<polygon fill="midnightblue" stroke="midnightblue" points="354.749,-12.0001 344.749,-15.5 354.748,-19.0001 354.749,-12.0001"/>
</g>
</g>
</svg>
