<?xml version="1.0" encoding="UTF-8" standalone="no"?>
<!DOCTYPE svg PUBLIC "-//W3C//DTD SVG 1.1//EN"
 "http://www.w3.org/Graphics/SVG/1.1/DTD/svg11.dtd">
<!-- Generated by graphviz version 2.38.0 (20140413.2041)
 -->
<!-- Title: AP_GPS_SBP::_sbp_process Pages: 1 -->
<svg width="455pt" height="39pt"
 viewBox="0.00 0.00 455.00 39.00" xmlns="http://www.w3.org/2000/svg" xmlns:xlink="http://www.w3.org/1999/xlink">
<g id="graph0" class="graph" transform="scale(1 1) rotate(0) translate(4 35)">
<title>AP_GPS_SBP::_sbp_process</title>
<polygon fill="white" stroke="none" points="-4,4 -4,-35 451,-35 451,4 -4,4"/>
<!-- Node1 -->
<g id="node1" class="node"><title>Node1</title>
<polygon fill="#bfbfbf" stroke="black" points="0,-6 0,-25 149,-25 149,-6 0,-6"/>
<text text-anchor="middle" x="74.5" y="-13" font-family="Helvetica,sans-Serif" font-size="10.00">AP_GPS_SBP::_sbp_process</text>
</g>
<!-- Node2 -->
<g id="node2" class="node"><title>Node2</title>
<g id="a_node2"><a xlink:href="classAP__GPS__SBP.html#a3fa95c1c1f83ad45a11a61d604e61d8d" target="_top" xlink:title="AP_GPS_SBP::read">
<polygon fill="white" stroke="black" points="185,-6 185,-25 292,-25 292,-6 185,-6"/>
<text text-anchor="middle" x="238.5" y="-13" font-family="Helvetica,sans-Serif" font-size="10.00">AP_GPS_SBP::read</text>
</a>
</g>
</g>
<!-- Node1&#45;&gt;Node2 -->
<g id="edge1" class="edge"><title>Node1&#45;&gt;Node2</title>
<path fill="none" stroke="midnightblue" d="M159.413,-15.5C167.954,-15.5 176.453,-15.5 184.527,-15.5"/>
<polygon fill="midnightblue" stroke="midnightblue" points="159.389,-12.0001 149.389,-15.5 159.389,-19.0001 159.389,-12.0001"/>
</g>
<!-- Node3 -->
<g id="node3" class="node"><title>Node3</title>
<g id="a_node3"><a xlink:href="classAP__GPS__SBP.html#ad2aa36fb56f231229ca47df94c7c926f" target="_top" xlink:title="AP_GPS_SBP::highest\l_supported_status">
<polygon fill="white" stroke="black" points="328,-0.5 328,-30.5 447,-30.5 447,-0.5 328,-0.5"/>
<text text-anchor="start" x="336" y="-18.5" font-family="Helvetica,sans-Serif" font-size="10.00">AP_GPS_SBP::highest</text>
<text text-anchor="middle" x="387.5" y="-7.5" font-family="Helvetica,sans-Serif" font-size="10.00">_supported_status</text>
</a>
</g>
</g>
<!-- Node2&#45;&gt;Node3 -->
<g id="edge2" class="edge"><title>Node2&#45;&gt;Node3</title>
<path fill="none" stroke="midnightblue" d="M302.387,-15.5C310.879,-15.5 319.565,-15.5 327.977,-15.5"/>
<polygon fill="midnightblue" stroke="midnightblue" points="302.155,-12.0001 292.155,-15.5 302.155,-19.0001 302.155,-12.0001"/>
</g>
</g>
</svg>
