<?xml version="1.0" encoding="UTF-8" standalone="no"?>
<!DOCTYPE svg PUBLIC "-//W3C//DTD SVG 1.1//EN"
 "http://www.w3.org/Graphics/SVG/1.1/DTD/svg11.dtd">
<!-- Generated by graphviz version 2.38.0 (20140413.2041)
 -->
<!-- Title: AP_InertialSensor_PX4::detect Pages: 1 -->
<svg width="958pt" height="274pt"
 viewBox="0.00 0.00 958.00 274.00" xmlns="http://www.w3.org/2000/svg" xmlns:xlink="http://www.w3.org/1999/xlink">
<g id="graph0" class="graph" transform="scale(1 1) rotate(0) translate(4 270)">
<title>AP_InertialSensor_PX4::detect</title>
<polygon fill="white" stroke="none" points="-4,4 -4,-270 954,-270 954,4 -4,4"/>
<!-- Node1 -->
<g id="node1" class="node"><title>Node1</title>
<polygon fill="#bfbfbf" stroke="black" points="0,-144.5 0,-174.5 119,-174.5 119,-144.5 0,-144.5"/>
<text text-anchor="start" x="8" y="-162.5" font-family="Helvetica,sans-Serif" font-size="10.00">AP_InertialSensor_PX4</text>
<text text-anchor="middle" x="59.5" y="-151.5" font-family="Helvetica,sans-Serif" font-size="10.00">::detect</text>
</g>
<!-- Node2 -->
<g id="node2" class="node"><title>Node2</title>
<g id="a_node2"><a xlink:href="classAP__InertialSensor__PX4.html#a39c9d67669457b2dddc73209bec40957" target="_top" xlink:title="AP_InertialSensor_PX4\l::AP_InertialSensor_PX4">
<polygon fill="white" stroke="black" points="155,-169.5 155,-199.5 280,-199.5 280,-169.5 155,-169.5"/>
<text text-anchor="start" x="163" y="-187.5" font-family="Helvetica,sans-Serif" font-size="10.00">AP_InertialSensor_PX4</text>
<text text-anchor="middle" x="217.5" y="-176.5" font-family="Helvetica,sans-Serif" font-size="10.00">::AP_InertialSensor_PX4</text>
</a>
</g>
</g>
<!-- Node1&#45;&gt;Node2 -->
<g id="edge1" class="edge"><title>Node1&#45;&gt;Node2</title>
<path fill="none" stroke="midnightblue" d="M119.032,-168.88C127.421,-170.225 136.131,-171.62 144.739,-173"/>
<polygon fill="midnightblue" stroke="midnightblue" points="144.344,-176.481 154.772,-174.608 145.452,-169.569 144.344,-176.481"/>
</g>
<!-- Node3 -->
<g id="node3" class="node"><title>Node3</title>
<g id="a_node3"><a xlink:href="classAP__InertialSensor__PX4.html#a1151175435b1b3c211040058fe5462d9" target="_top" xlink:title="AP_InertialSensor_PX4\l::_init_sensor">
<polygon fill="white" stroke="black" points="158,-120.5 158,-150.5 277,-150.5 277,-120.5 158,-120.5"/>
<text text-anchor="start" x="166" y="-138.5" font-family="Helvetica,sans-Serif" font-size="10.00">AP_InertialSensor_PX4</text>
<text text-anchor="middle" x="217.5" y="-127.5" font-family="Helvetica,sans-Serif" font-size="10.00">::_init_sensor</text>
</a>
</g>
</g>
<!-- Node1&#45;&gt;Node3 -->
<g id="edge2" class="edge"><title>Node1&#45;&gt;Node3</title>
<path fill="none" stroke="midnightblue" d="M119.032,-150.495C128.465,-149.044 138.303,-147.53 147.946,-146.047"/>
<polygon fill="midnightblue" stroke="midnightblue" points="148.547,-149.495 157.899,-144.516 147.483,-142.577 148.547,-149.495"/>
</g>
<!-- Node4 -->
<g id="node4" class="node"><title>Node4</title>
<g id="a_node4"><a xlink:href="classAP__InertialSensor__PX4.html#a741122dbb9c2c53f63d42d0719424a65" target="_top" xlink:title="AP_InertialSensor_PX4\l::_queue_depth">
<polygon fill="white" stroke="black" points="316,-186.5 316,-216.5 435,-216.5 435,-186.5 316,-186.5"/>
<text text-anchor="start" x="324" y="-204.5" font-family="Helvetica,sans-Serif" font-size="10.00">AP_InertialSensor_PX4</text>
<text text-anchor="middle" x="375.5" y="-193.5" font-family="Helvetica,sans-Serif" font-size="10.00">::_queue_depth</text>
</a>
</g>
</g>
<!-- Node3&#45;&gt;Node4 -->
<g id="edge3" class="edge"><title>Node3&#45;&gt;Node4</title>
<path fill="none" stroke="midnightblue" d="M255.958,-150.565C263.909,-153.808 272.243,-157.241 280,-160.5 296.521,-167.441 314.587,-175.23 330.458,-182.139"/>
<polygon fill="midnightblue" stroke="midnightblue" points="329.457,-185.521 340.022,-186.312 332.256,-179.105 329.457,-185.521"/>
</g>
<!-- Node6 -->
<g id="node6" class="node"><title>Node6</title>
<g id="a_node6"><a xlink:href="namespaceAP__HAL.html#a71832f03d849a0c088f04fc98d3c8143" target="_top" xlink:title="AP_HAL::panic">
<polygon fill="white" stroke="black" points="498.5,-104 498.5,-123 582.5,-123 582.5,-104 498.5,-104"/>
<text text-anchor="middle" x="540.5" y="-111" font-family="Helvetica,sans-Serif" font-size="10.00">AP_HAL::panic</text>
</a>
</g>
</g>
<!-- Node3&#45;&gt;Node6 -->
<g id="edge5" class="edge"><title>Node3&#45;&gt;Node6</title>
<path fill="none" stroke="midnightblue" d="M277.064,-140.446C320.746,-143.134 381.802,-144.775 435,-138.5 456.043,-136.018 478.985,-130.817 497.998,-125.798"/>
<polygon fill="midnightblue" stroke="midnightblue" points="499.102,-129.125 507.835,-123.127 497.267,-122.37 499.102,-129.125"/>
</g>
<!-- Node15 -->
<g id="node15" class="node"><title>Node15</title>
<g id="a_node15"><a xlink:href="classAP__InertialSensor.html#aa112654466199fa7ba51b2471fefdbd7" target="_top" xlink:title="AP_InertialSensor::\lregister_gyro">
<polygon fill="white" stroke="black" points="325,-98.5 325,-128.5 426,-128.5 426,-98.5 325,-98.5"/>
<text text-anchor="start" x="333" y="-116.5" font-family="Helvetica,sans-Serif" font-size="10.00">AP_InertialSensor::</text>
<text text-anchor="middle" x="375.5" y="-105.5" font-family="Helvetica,sans-Serif" font-size="10.00">register_gyro</text>
</a>
</g>
</g>
<!-- Node3&#45;&gt;Node15 -->
<g id="edge14" class="edge"><title>Node3&#45;&gt;Node15</title>
<path fill="none" stroke="midnightblue" d="M277.032,-127.245C289.325,-125.512 302.308,-123.681 314.648,-121.941"/>
<polygon fill="midnightblue" stroke="midnightblue" points="315.421,-125.366 324.834,-120.504 314.443,-118.435 315.421,-125.366"/>
</g>
<!-- Node16 -->
<g id="node16" class="node"><title>Node16</title>
<g id="a_node16"><a xlink:href="classAP__InertialSensor.html#a17706ae4e3ef55200ee8b1e5c4ead7ec" target="_top" xlink:title="AP_InertialSensor::\lregister_accel">
<polygon fill="white" stroke="black" points="325,-49.5 325,-79.5 426,-79.5 426,-49.5 325,-49.5"/>
<text text-anchor="start" x="333" y="-67.5" font-family="Helvetica,sans-Serif" font-size="10.00">AP_InertialSensor::</text>
<text text-anchor="middle" x="375.5" y="-56.5" font-family="Helvetica,sans-Serif" font-size="10.00">register_accel</text>
</a>
</g>
</g>
<!-- Node3&#45;&gt;Node16 -->
<g id="edge16" class="edge"><title>Node3&#45;&gt;Node16</title>
<path fill="none" stroke="midnightblue" d="M248.586,-120.422C267.747,-110.962 293.172,-98.6738 316,-88.5 319.779,-86.8158 323.713,-85.1074 327.675,-83.4183"/>
<polygon fill="midnightblue" stroke="midnightblue" points="329.049,-86.6373 336.909,-79.5329 326.334,-80.1852 329.049,-86.6373"/>
</g>
<!-- Node5 -->
<g id="node5" class="node"><title>Node5</title>
<g id="a_node5"><a xlink:href="classAP__InertialSensor__Backend.html#a28b3bb23c5310c8691b897875523d75c" target="_top" xlink:title="AP_InertialSensor_Backend\l::get_sample_rate_hz">
<polygon fill="white" stroke="black" points="471,-186.5 471,-216.5 610,-216.5 610,-186.5 471,-186.5"/>
<text text-anchor="start" x="479" y="-204.5" font-family="Helvetica,sans-Serif" font-size="10.00">AP_InertialSensor_Backend</text>
<text text-anchor="middle" x="540.5" y="-193.5" font-family="Helvetica,sans-Serif" font-size="10.00">::get_sample_rate_hz</text>
</a>
</g>
</g>
<!-- Node4&#45;&gt;Node5 -->
<g id="edge4" class="edge"><title>Node4&#45;&gt;Node5</title>
<path fill="none" stroke="midnightblue" d="M435.347,-201.5C443.605,-201.5 452.201,-201.5 460.756,-201.5"/>
<polygon fill="midnightblue" stroke="midnightblue" points="460.757,-205 470.757,-201.5 460.757,-198 460.757,-205"/>
</g>
<!-- Node7 -->
<g id="node7" class="node"><title>Node7</title>
<g id="a_node7"><a xlink:href="classAP__HAL_1_1RCInput.html#a2bea13d38f2b9ae8bf5193a3a69f0a31" target="_top" xlink:title="AP_HAL::RCInput::teardown">
<polygon fill="white" stroke="black" points="646,-126 646,-145 789,-145 789,-126 646,-126"/>
<text text-anchor="middle" x="717.5" y="-133" font-family="Helvetica,sans-Serif" font-size="10.00">AP_HAL::RCInput::teardown</text>
</a>
</g>
</g>
<!-- Node6&#45;&gt;Node7 -->
<g id="edge6" class="edge"><title>Node6&#45;&gt;Node7</title>
<path fill="none" stroke="midnightblue" d="M582.53,-118.658C598.543,-120.671 617.482,-123.052 636,-125.38"/>
<polygon fill="midnightblue" stroke="midnightblue" points="635.566,-128.853 645.925,-126.628 636.439,-121.908 635.566,-128.853"/>
</g>
<!-- Node14 -->
<g id="node14" class="node"><title>Node14</title>
<g id="a_node14"><a xlink:href="classAP__HAL_1_1Scheduler.html#a78c4f1b1f192ac1c99544b6cc8f099b0" target="_top" xlink:title="AP_HAL::Scheduler::\ldelay_microseconds">
<polygon fill="white" stroke="black" points="662.5,-76.5 662.5,-106.5 772.5,-106.5 772.5,-76.5 662.5,-76.5"/>
<text text-anchor="start" x="670.5" y="-94.5" font-family="Helvetica,sans-Serif" font-size="10.00">AP_HAL::Scheduler::</text>
<text text-anchor="middle" x="717.5" y="-83.5" font-family="Helvetica,sans-Serif" font-size="10.00">delay_microseconds</text>
</a>
</g>
</g>
<!-- Node6&#45;&gt;Node14 -->
<g id="edge13" class="edge"><title>Node6&#45;&gt;Node14</title>
<path fill="none" stroke="midnightblue" d="M582.53,-108.342C603.298,-105.731 628.987,-102.502 652.297,-99.5712"/>
<polygon fill="midnightblue" stroke="midnightblue" points="652.98,-103.013 662.466,-98.2929 652.107,-96.0676 652.98,-103.013"/>
</g>
<!-- Node8 -->
<g id="node8" class="node"><title>Node8</title>
<g id="a_node8"><a xlink:href="classAP__HAL_1_1RCInput.html#aee1fade33080edef83dd7db0fad0f7da" target="_top" xlink:title="AP_HAL::RCInput::new\l_input">
<polygon fill="white" stroke="black" points="826.5,-235.5 826.5,-265.5 948.5,-265.5 948.5,-235.5 826.5,-235.5"/>
<text text-anchor="start" x="834.5" y="-253.5" font-family="Helvetica,sans-Serif" font-size="10.00">AP_HAL::RCInput::new</text>
<text text-anchor="middle" x="887.5" y="-242.5" font-family="Helvetica,sans-Serif" font-size="10.00">_input</text>
</a>
</g>
</g>
<!-- Node7&#45;&gt;Node8 -->
<g id="edge7" class="edge"><title>Node7&#45;&gt;Node8</title>
<path fill="none" stroke="midnightblue" d="M727.629,-145.221C745.064,-163.317 784.94,-202.51 825,-226.5 827.667,-228.097 830.46,-229.625 833.321,-231.081"/>
<polygon fill="midnightblue" stroke="midnightblue" points="832.087,-234.37 842.624,-235.481 835.08,-228.042 832.087,-234.37"/>
</g>
<!-- Node9 -->
<g id="node9" class="node"><title>Node9</title>
<g id="a_node9"><a xlink:href="classAP__HAL_1_1RCInput.html#ae55f959c6115c1f41783af3a2b6c4fcd" target="_top" xlink:title="AP_HAL::RCInput::num\l_channels">
<polygon fill="white" stroke="black" points="826.5,-186.5 826.5,-216.5 948.5,-216.5 948.5,-186.5 826.5,-186.5"/>
<text text-anchor="start" x="834.5" y="-204.5" font-family="Helvetica,sans-Serif" font-size="10.00">AP_HAL::RCInput::num</text>
<text text-anchor="middle" x="887.5" y="-193.5" font-family="Helvetica,sans-Serif" font-size="10.00">_channels</text>
</a>
</g>
</g>
<!-- Node7&#45;&gt;Node9 -->
<g id="edge8" class="edge"><title>Node7&#45;&gt;Node9</title>
<path fill="none" stroke="midnightblue" d="M742.929,-145.097C767.918,-154.914 807.399,-170.425 838.64,-182.698"/>
<polygon fill="midnightblue" stroke="midnightblue" points="837.458,-185.994 848.045,-186.393 840.018,-179.479 837.458,-185.994"/>
</g>
<!-- Node10 -->
<g id="node10" class="node"><title>Node10</title>
<g id="a_node10"><a xlink:href="classAP__HAL_1_1RCInput.html#a078fd7e6d2e6a899009ec674a8e03498" target="_top" xlink:title="AP_HAL::RCInput::read">
<polygon fill="white" stroke="black" points="826.5,-148 826.5,-167 948.5,-167 948.5,-148 826.5,-148"/>
<text text-anchor="middle" x="887.5" y="-155" font-family="Helvetica,sans-Serif" font-size="10.00">AP_HAL::RCInput::read</text>
</a>
</g>
</g>
<!-- Node7&#45;&gt;Node10 -->
<g id="edge9" class="edge"><title>Node7&#45;&gt;Node10</title>
<path fill="none" stroke="midnightblue" d="M789.26,-144.766C798.251,-145.944 807.45,-147.148 816.431,-148.324"/>
<polygon fill="midnightblue" stroke="midnightblue" points="816.084,-151.809 826.454,-149.637 816.993,-144.868 816.084,-151.809"/>
</g>
<!-- Node11 -->
<g id="node11" class="node"><title>Node11</title>
<g id="a_node11"><a xlink:href="classAP__HAL_1_1RCInput.html#a0989c5ca271631fe655c047d4a022a3d" target="_top" xlink:title="AP_HAL::RCInput::set\l_overrides">
<polygon fill="white" stroke="black" points="829,-98.5 829,-128.5 946,-128.5 946,-98.5 829,-98.5"/>
<text text-anchor="start" x="837" y="-116.5" font-family="Helvetica,sans-Serif" font-size="10.00">AP_HAL::RCInput::set</text>
<text text-anchor="middle" x="887.5" y="-105.5" font-family="Helvetica,sans-Serif" font-size="10.00">_overrides</text>
</a>
</g>
</g>
<!-- Node7&#45;&gt;Node11 -->
<g id="edge10" class="edge"><title>Node7&#45;&gt;Node11</title>
<path fill="none" stroke="midnightblue" d="M789.26,-126.234C799.044,-124.953 809.073,-123.639 818.799,-122.366"/>
<polygon fill="midnightblue" stroke="midnightblue" points="819.342,-125.825 828.802,-121.056 818.433,-118.884 819.342,-125.825"/>
</g>
<!-- Node12 -->
<g id="node12" class="node"><title>Node12</title>
<g id="a_node12"><a xlink:href="classAP__HAL_1_1RCInput.html#abfd037ca0989a0422a60f418d34eb7d5" target="_top" xlink:title="AP_HAL::RCInput::set\l_override">
<polygon fill="white" stroke="black" points="829,-49.5 829,-79.5 946,-79.5 946,-49.5 829,-49.5"/>
<text text-anchor="start" x="837" y="-67.5" font-family="Helvetica,sans-Serif" font-size="10.00">AP_HAL::RCInput::set</text>
<text text-anchor="middle" x="887.5" y="-56.5" font-family="Helvetica,sans-Serif" font-size="10.00">_override</text>
</a>
</g>
</g>
<!-- Node7&#45;&gt;Node12 -->
<g id="edge11" class="edge"><title>Node7&#45;&gt;Node12</title>
<path fill="none" stroke="midnightblue" d="M761.57,-125.996C770.858,-123.206 780.45,-119.736 789,-115.5 806.921,-106.622 807.524,-98.2248 825,-88.5 827.995,-86.8333 831.13,-85.2285 834.331,-83.6939"/>
<polygon fill="midnightblue" stroke="midnightblue" points="835.796,-86.8724 843.465,-79.5616 832.911,-80.4947 835.796,-86.8724"/>
</g>
<!-- Node13 -->
<g id="node13" class="node"><title>Node13</title>
<g id="a_node13"><a xlink:href="classAP__HAL_1_1RCInput.html#ab3671bbe43fdb97c53071d7832ac256e" target="_top" xlink:title="AP_HAL::RCInput::clear\l_overrides">
<polygon fill="white" stroke="black" points="825,-0.5 825,-30.5 950,-30.5 950,-0.5 825,-0.5"/>
<text text-anchor="start" x="833" y="-18.5" font-family="Helvetica,sans-Serif" font-size="10.00">AP_HAL::RCInput::clear</text>
<text text-anchor="middle" x="887.5" y="-7.5" font-family="Helvetica,sans-Serif" font-size="10.00">_overrides</text>
</a>
</g>
</g>
<!-- Node7&#45;&gt;Node13 -->
<g id="edge12" class="edge"><title>Node7&#45;&gt;Node13</title>
<path fill="none" stroke="midnightblue" d="M771.477,-125.935C777.816,-123.266 783.853,-119.856 789,-115.5 817.528,-91.3527 797.659,-64.9834 825,-39.5 826.268,-38.3181 827.601,-37.192 828.987,-36.1193"/>
<polygon fill="midnightblue" stroke="midnightblue" points="831.007,-38.9795 837.416,-30.5427 827.144,-33.1416 831.007,-38.9795"/>
</g>
<!-- Node15&#45;&gt;Node6 -->
<g id="edge15" class="edge"><title>Node15&#45;&gt;Node6</title>
<path fill="none" stroke="midnightblue" d="M426.291,-113.5C445.983,-113.5 468.602,-113.5 488.419,-113.5"/>
<polygon fill="midnightblue" stroke="midnightblue" points="488.496,-117 498.496,-113.5 488.496,-110 488.496,-117"/>
</g>
<!-- Node16&#45;&gt;Node6 -->
<g id="edge17" class="edge"><title>Node16&#45;&gt;Node6</title>
<path fill="none" stroke="midnightblue" d="M426.291,-79.4679C449.186,-86.3505 476.037,-94.4222 497.842,-100.977"/>
<polygon fill="midnightblue" stroke="midnightblue" points="496.888,-104.345 507.473,-103.872 498.904,-97.6414 496.888,-104.345"/>
</g>
</g>
</svg>
