<?xml version="1.0" encoding="UTF-8" standalone="no"?>
<!DOCTYPE svg PUBLIC "-//W3C//DTD SVG 1.1//EN"
 "http://www.w3.org/Graphics/SVG/1.1/DTD/svg11.dtd">
<!-- Generated by graphviz version 2.38.0 (20140413.2041)
 -->
<!-- Title: AP_Param::find_by_index Pages: 1 -->
<svg width="920pt" height="304pt"
 viewBox="0.00 0.00 920.00 303.83" xmlns="http://www.w3.org/2000/svg" xmlns:xlink="http://www.w3.org/1999/xlink">
<g id="graph0" class="graph" transform="scale(1 1) rotate(0) translate(4 299.831)">
<title>AP_Param::find_by_index</title>
<polygon fill="white" stroke="none" points="-4,4 -4,-299.831 916,-299.831 916,4 -4,4"/>
<!-- Node1 -->
<g id="node1" class="node"><title>Node1</title>
<polygon fill="#bfbfbf" stroke="black" points="0,-55.3307 0,-74.3307 130,-74.3307 130,-55.3307 0,-55.3307"/>
<text text-anchor="middle" x="65" y="-62.3307" font-family="Helvetica,sans-Serif" font-size="10.00">AP_Param::find_by_index</text>
</g>
<!-- Node2 -->
<g id="node2" class="node"><title>Node2</title>
<g id="a_node2"><a xlink:href="classAP__Param.html#adc0c44f152f0e3cbb12703b2a58d8f6b" target="_top" xlink:title="AP_Param::first">
<polygon fill="white" stroke="black" points="183,-17.3307 183,-36.3307 269,-36.3307 269,-17.3307 183,-17.3307"/>
<text text-anchor="middle" x="226" y="-24.3307" font-family="Helvetica,sans-Serif" font-size="10.00">AP_Param::first</text>
</a>
</g>
</g>
<!-- Node1&#45;&gt;Node2 -->
<g id="edge1" class="edge"><title>Node1&#45;&gt;Node2</title>
<path fill="none" stroke="midnightblue" d="M106.122,-55.2417C127.104,-50.2272 152.982,-44.0427 175.23,-38.7255"/>
<polygon fill="midnightblue" stroke="midnightblue" points="176.254,-42.0795 185.166,-36.3508 174.626,-35.2712 176.254,-42.0795"/>
</g>
<!-- Node4 -->
<g id="node4" class="node"><title>Node4</title>
<g id="a_node4"><a xlink:href="classAP__Param.html#a8cf8477edefdb6a0b2173d8229894173" target="_top" xlink:title="AP_Param::next_scalar">
<polygon fill="white" stroke="black" points="166,-74.3307 166,-93.3307 286,-93.3307 286,-74.3307 166,-74.3307"/>
<text text-anchor="middle" x="226" y="-81.3307" font-family="Helvetica,sans-Serif" font-size="10.00">AP_Param::next_scalar</text>
</a>
</g>
</g>
<!-- Node1&#45;&gt;Node4 -->
<g id="edge3" class="edge"><title>Node1&#45;&gt;Node4</title>
<path fill="none" stroke="midnightblue" d="M130.213,-72.504C138.7,-73.5181 147.428,-74.5612 155.991,-75.5844"/>
<polygon fill="midnightblue" stroke="midnightblue" points="155.599,-79.0623 165.943,-76.7737 156.429,-72.1118 155.599,-79.0623"/>
</g>
<!-- Node3 -->
<g id="node3" class="node"><title>Node3</title>
<g id="a_node3"><a xlink:href="classAP__Param.html#a1dcc7820ea51e29cfb762387a9212818" target="_top" xlink:title="AP_Param::get_base">
<polygon fill="white" stroke="black" points="802,-112.331 802,-131.331 912,-131.331 912,-112.331 802,-112.331"/>
<text text-anchor="middle" x="857" y="-119.331" font-family="Helvetica,sans-Serif" font-size="10.00">AP_Param::get_base</text>
</a>
</g>
</g>
<!-- Node2&#45;&gt;Node3 -->
<g id="edge2" class="edge"><title>Node2&#45;&gt;Node3</title>
<path fill="none" stroke="midnightblue" d="M269.107,-18.9497C362.459,-3.40815 592.27,24.1148 766,-43.8307 797.895,-56.3047 826.193,-85.2891 842.196,-104.198"/>
<polygon fill="midnightblue" stroke="midnightblue" points="839.609,-106.562 848.653,-112.081 845.024,-102.127 839.609,-106.562"/>
</g>
<!-- Node5 -->
<g id="node5" class="node"><title>Node5</title>
<g id="a_node5"><a xlink:href="classAP__Param.html#ae329f47d0829a6ca578562fbec2d7383" target="_top" xlink:title="AP_Param::next">
<polygon fill="white" stroke="black" points="329.5,-159.331 329.5,-178.331 418.5,-178.331 418.5,-159.331 329.5,-159.331"/>
<text text-anchor="middle" x="374" y="-166.331" font-family="Helvetica,sans-Serif" font-size="10.00">AP_Param::next</text>
</a>
</g>
</g>
<!-- Node4&#45;&gt;Node5 -->
<g id="edge4" class="edge"><title>Node4&#45;&gt;Node5</title>
<path fill="none" stroke="midnightblue" d="M243.464,-93.4161C268.766,-108.147 317.416,-136.47 347.36,-153.904"/>
<polygon fill="midnightblue" stroke="midnightblue" points="345.969,-157.143 356.372,-159.15 349.491,-151.094 345.969,-157.143"/>
</g>
<!-- Node11 -->
<g id="node11" class="node"><title>Node11</title>
<g id="a_node11"><a xlink:href="classAP__Param.html#aa2638d3b9db28506452fc121c7faa7ff" target="_top" xlink:title="AP_Param::find_var\l_info_token">
<polygon fill="white" stroke="black" points="322,-68.8307 322,-98.8307 426,-98.8307 426,-68.8307 322,-68.8307"/>
<text text-anchor="start" x="330" y="-86.8307" font-family="Helvetica,sans-Serif" font-size="10.00">AP_Param::find_var</text>
<text text-anchor="middle" x="374" y="-75.8307" font-family="Helvetica,sans-Serif" font-size="10.00">_info_token</text>
</a>
</g>
</g>
<!-- Node4&#45;&gt;Node11 -->
<g id="edge14" class="edge"><title>Node4&#45;&gt;Node11</title>
<path fill="none" stroke="midnightblue" d="M286.384,-83.8307C294.691,-83.8307 303.241,-83.8307 311.584,-83.8307"/>
<polygon fill="midnightblue" stroke="midnightblue" points="311.629,-87.3308 321.629,-83.8307 311.628,-80.3308 311.629,-87.3308"/>
</g>
<!-- Node6 -->
<g id="node6" class="node"><title>Node6</title>
<g id="a_node6"><a xlink:href="classAP__Param.html#af535cde8cb54b9c361e199b2161980e7" target="_top" xlink:title="AP_Param::check_frame_type">
<polygon fill="white" stroke="black" points="616,-276.331 616,-295.331 766,-295.331 766,-276.331 616,-276.331"/>
<text text-anchor="middle" x="691" y="-283.331" font-family="Helvetica,sans-Serif" font-size="10.00">AP_Param::check_frame_type</text>
</a>
</g>
</g>
<!-- Node5&#45;&gt;Node6 -->
<g id="edge5" class="edge"><title>Node5&#45;&gt;Node6</title>
<path fill="none" stroke="midnightblue" d="M386.019,-178.402C401.803,-191.629 432.238,-215.384 462,-228.831 511.363,-251.134 570.845,-265.634 616.675,-274.426"/>
<polygon fill="midnightblue" stroke="midnightblue" points="616.061,-277.872 626.534,-276.27 617.348,-270.991 616.061,-277.872"/>
</g>
<!-- Node7 -->
<g id="node7" class="node"><title>Node7</title>
<g id="a_node7"><a xlink:href="classAP__Param.html#a69baa95e011c7a8c4a29625c558c5501" target="_top" xlink:title="get group_info pointer based on flags ">
<polygon fill="white" stroke="black" points="624,-74.3307 624,-93.3307 758,-93.3307 758,-74.3307 624,-74.3307"/>
<text text-anchor="middle" x="691" y="-81.3307" font-family="Helvetica,sans-Serif" font-size="10.00">AP_Param::get_group_info</text>
</a>
</g>
</g>
<!-- Node5&#45;&gt;Node7 -->
<g id="edge6" class="edge"><title>Node5&#45;&gt;Node7</title>
<path fill="none" stroke="midnightblue" d="M403.066,-159.275C420.041,-153.627 442.166,-146.495 462,-140.831 522.127,-123.66 591.975,-106.62 638.357,-95.7078"/>
<polygon fill="midnightblue" stroke="midnightblue" points="639.237,-99.0964 648.174,-93.4071 637.64,-92.2811 639.237,-99.0964"/>
</g>
<!-- Node8 -->
<g id="node8" class="node"><title>Node8</title>
<g id="a_node8"><a xlink:href="classAP__Param.html#a17601b9ec7791da2904e07683e059e11" target="_top" xlink:title="AP_Param::next_group">
<polygon fill="white" stroke="black" points="462,-200.331 462,-219.331 580,-219.331 580,-200.331 462,-200.331"/>
<text text-anchor="middle" x="521" y="-207.331" font-family="Helvetica,sans-Serif" font-size="10.00">AP_Param::next_group</text>
</a>
</g>
</g>
<!-- Node5&#45;&gt;Node8 -->
<g id="edge7" class="edge"><title>Node5&#45;&gt;Node8</title>
<path fill="none" stroke="midnightblue" d="M408.63,-178.34C428.872,-184.063 454.852,-191.41 476.628,-197.567"/>
<polygon fill="midnightblue" stroke="midnightblue" points="475.726,-200.949 486.301,-200.302 477.631,-194.213 475.726,-200.949"/>
</g>
<!-- Node8&#45;&gt;Node3 -->
<g id="edge13" class="edge"><title>Node8&#45;&gt;Node3</title>
<path fill="none" stroke="midnightblue" d="M546.615,-219.382C592.294,-235.505 692.236,-263.174 766,-228.831 805.242,-210.56 833.485,-165.823 847.01,-140.358"/>
<polygon fill="midnightblue" stroke="midnightblue" points="850.182,-141.841 851.609,-131.342 843.947,-138.659 850.182,-141.841"/>
</g>
<!-- Node8&#45;&gt;Node6 -->
<g id="edge8" class="edge"><title>Node8&#45;&gt;Node6</title>
<path fill="none" stroke="midnightblue" d="M537.172,-219.418C555.382,-230.64 587.087,-249.283 616,-261.831 625.571,-265.984 636.104,-269.817 646.147,-273.143"/>
<polygon fill="midnightblue" stroke="midnightblue" points="645.382,-276.573 655.973,-276.294 647.519,-269.908 645.382,-276.573"/>
</g>
<!-- Node8&#45;&gt;Node7 -->
<g id="edge9" class="edge"><title>Node8&#45;&gt;Node7</title>
<path fill="none" stroke="midnightblue" d="M560.46,-200.262C567.341,-197.549 574.167,-194.125 580,-189.831 601.762,-173.809 597.11,-160.155 616,-140.831 631.446,-125.03 651.414,-109.901 666.714,-99.2056"/>
<polygon fill="midnightblue" stroke="midnightblue" points="668.843,-101.989 675.113,-93.4489 664.886,-96.2152 668.843,-101.989"/>
</g>
<!-- Node9 -->
<g id="node9" class="node"><title>Node9</title>
<g id="a_node9"><a xlink:href="classAP__Param.html#aa8b43d95bca6adbf5497e8102cf73857" target="_top" xlink:title="AP_Param::adjust_group\l_offset">
<polygon fill="white" stroke="black" points="628.5,-150.831 628.5,-180.831 753.5,-180.831 753.5,-150.831 628.5,-150.831"/>
<text text-anchor="start" x="636.5" y="-168.831" font-family="Helvetica,sans-Serif" font-size="10.00">AP_Param::adjust_group</text>
<text text-anchor="middle" x="691" y="-157.831" font-family="Helvetica,sans-Serif" font-size="10.00">_offset</text>
</a>
</g>
</g>
<!-- Node8&#45;&gt;Node9 -->
<g id="edge10" class="edge"><title>Node8&#45;&gt;Node9</title>
<path fill="none" stroke="midnightblue" d="M558.453,-200.283C577.199,-195.374 600.656,-189.23 622.551,-183.496"/>
<polygon fill="midnightblue" stroke="midnightblue" points="623.691,-186.816 632.478,-180.896 621.917,-180.044 623.691,-186.816"/>
</g>
<!-- Node10 -->
<g id="node10" class="node"><title>Node10</title>
<g id="a_node10"><a xlink:href="classAP__Param.html#a90f6be43b427d44475380211164f8292" target="_top" xlink:title="AP_Param::group_id">
<polygon fill="white" stroke="black" points="637.5,-200.331 637.5,-219.331 744.5,-219.331 744.5,-200.331 637.5,-200.331"/>
<text text-anchor="middle" x="691" y="-207.331" font-family="Helvetica,sans-Serif" font-size="10.00">AP_Param::group_id</text>
</a>
</g>
</g>
<!-- Node8&#45;&gt;Node10 -->
<g id="edge12" class="edge"><title>Node8&#45;&gt;Node10</title>
<path fill="none" stroke="midnightblue" d="M580.287,-209.831C595.379,-209.831 611.697,-209.831 627.018,-209.831"/>
<polygon fill="midnightblue" stroke="midnightblue" points="627.438,-213.331 637.438,-209.831 627.438,-206.331 627.438,-213.331"/>
</g>
<!-- Node9&#45;&gt;Node3 -->
<g id="edge11" class="edge"><title>Node9&#45;&gt;Node3</title>
<path fill="none" stroke="midnightblue" d="M747.981,-150.811C768.368,-145.342 791.148,-139.23 810.514,-134.034"/>
<polygon fill="midnightblue" stroke="midnightblue" points="811.548,-137.381 820.299,-131.409 809.734,-130.62 811.548,-137.381"/>
</g>
<!-- Node11&#45;&gt;Node3 -->
<g id="edge15" class="edge"><title>Node11&#45;&gt;Node3</title>
<path fill="none" stroke="midnightblue" d="M426.224,-70.9314C502.127,-54.1212 648.184,-30.6605 766,-64.8307 793.227,-72.7275 820.115,-91.6027 837.309,-105.479"/>
<polygon fill="midnightblue" stroke="midnightblue" points="835.445,-108.481 845.367,-112.194 839.926,-103.103 835.445,-108.481"/>
</g>
<!-- Node11&#45;&gt;Node7 -->
<g id="edge16" class="edge"><title>Node11&#45;&gt;Node7</title>
<path fill="none" stroke="midnightblue" d="M426.311,-83.8307C477.129,-83.8307 555.554,-83.8307 613.679,-83.8307"/>
<polygon fill="midnightblue" stroke="midnightblue" points="613.919,-87.3308 623.919,-83.8307 613.919,-80.3308 613.919,-87.3308"/>
</g>
<!-- Node12 -->
<g id="node12" class="node"><title>Node12</title>
<g id="a_node12"><a xlink:href="classAP__Param.html#a0a5b0b035c7d17569e4a814f20f00985" target="_top" xlink:title="AP_Param::find_var\l_info_group">
<polygon fill="white" stroke="black" points="469,-150.831 469,-180.831 573,-180.831 573,-150.831 469,-150.831"/>
<text text-anchor="start" x="477" y="-168.831" font-family="Helvetica,sans-Serif" font-size="10.00">AP_Param::find_var</text>
<text text-anchor="middle" x="521" y="-157.831" font-family="Helvetica,sans-Serif" font-size="10.00">_info_group</text>
</a>
</g>
</g>
<!-- Node11&#45;&gt;Node12 -->
<g id="edge17" class="edge"><title>Node11&#45;&gt;Node12</title>
<path fill="none" stroke="midnightblue" d="M401.595,-98.8708C424.751,-111.966 458.519,-131.062 484.074,-145.514"/>
<polygon fill="midnightblue" stroke="midnightblue" points="482.655,-148.732 493.082,-150.608 486.101,-142.639 482.655,-148.732"/>
</g>
<!-- Node12&#45;&gt;Node3 -->
<g id="edge18" class="edge"><title>Node12&#45;&gt;Node3</title>
<path fill="none" stroke="midnightblue" d="M571.877,-150.77C586.024,-146.99 601.519,-143.309 616,-140.831 675.04,-130.728 743.188,-125.982 791.745,-123.762"/>
<polygon fill="midnightblue" stroke="midnightblue" points="791.96,-127.256 801.799,-123.325 791.657,-120.262 791.96,-127.256"/>
</g>
<!-- Node12&#45;&gt;Node7 -->
<g id="edge19" class="edge"><title>Node12&#45;&gt;Node7</title>
<path fill="none" stroke="midnightblue" d="M553.595,-150.82C562.332,-146.314 571.692,-141.146 580,-135.831 597.074,-124.906 598.09,-117.322 616,-107.831 624.238,-103.465 633.414,-99.7085 642.423,-96.5502"/>
<polygon fill="midnightblue" stroke="midnightblue" points="643.685,-99.8194 652.081,-93.3575 641.488,-93.1732 643.685,-99.8194"/>
</g>
<!-- Node12&#45;&gt;Node9 -->
<g id="edge20" class="edge"><title>Node12&#45;&gt;Node9</title>
<path fill="none" stroke="midnightblue" d="M573.318,-165.831C587.431,-165.831 603.001,-165.831 618.046,-165.831"/>
<polygon fill="midnightblue" stroke="midnightblue" points="618.352,-169.331 628.352,-165.831 618.352,-162.331 618.352,-169.331"/>
</g>
<!-- Node12&#45;&gt;Node10 -->
<g id="edge21" class="edge"><title>Node12&#45;&gt;Node10</title>
<path fill="none" stroke="midnightblue" d="M573.318,-179.271C595.828,-185.167 622.048,-192.034 643.924,-197.763"/>
<polygon fill="midnightblue" stroke="midnightblue" points="643.08,-201.16 653.64,-200.308 644.853,-194.388 643.08,-201.16"/>
</g>
</g>
</svg>
