<?xml version="1.0" encoding="UTF-8" standalone="no"?>
<!DOCTYPE svg PUBLIC "-//W3C//DTD SVG 1.1//EN"
 "http://www.w3.org/Graphics/SVG/1.1/DTD/svg11.dtd">
<!-- Generated by graphviz version 2.38.0 (20140413.2041)
 -->
<!-- Title: AP_GPS::send_mavlink_gps2_raw Pages: 1 -->
<!--zoomable 350 -->
<svg id="main" version="1.1" xmlns="http://www.w3.org/2000/svg" xmlns:xlink="http://www.w3.org/1999/xlink" xml:space="preserve" onload="init(evt)">
<style type="text/css"><![CDATA[
.edge:hover path { stroke: red; }
.edge:hover polygon { stroke: red; fill: red; }
]]></style>
<script type="text/javascript"><![CDATA[
var edges = document.getElementsByTagName('g');
if (edges && edges.length) {
  for (var i=0;i<edges.length;i++) {
    if (edges[i].id.substr(0,4)=='edge') {
      edges[i].setAttribute('class','edge');
    }
  }
}
]]></script>
        <defs>
                <circle id="rim" cx="0" cy="0" r="7"/>
                <circle id="rim2" cx="0" cy="0" r="3.5"/>
                <g id="zoomPlus">
                        <use xlink:href="#rim" fill="#404040">
                                <set attributeName="fill" to="#808080" begin="zoomplus.mouseover" end="zoomplus.mouseout"/>
                        </use>
                        <path d="M-4,0h8M0,-4v8" fill="none" stroke="white" stroke-width="1.5" pointer-events="none"/>
                </g>
                <g id="zoomMin">
                        <use xlink:href="#rim" fill="#404040">
                                <set attributeName="fill" to="#808080" begin="zoomminus.mouseover" end="zoomminus.mouseout"/>
                        </use>
                        <path d="M-4,0h8" fill="none" stroke="white" stroke-width="1.5" pointer-events="none"/>
                </g>
                <g id="dirArrow">
                        <path fill="none" stroke="white" stroke-width="1.5" d="M0,-3.0v7 M-2.5,-0.5L0,-3.0L2.5,-0.5"/>
                </g>
               <g id="resetDef">
                       <use xlink:href="#rim2" fill="#404040">
                               <set attributeName="fill" to="#808080" begin="reset.mouseover" end="reset.mouseout"/>
                       </use>
               </g>
        </defs>

<script type="text/javascript">
var viewWidth = 654;
var viewHeight = 350;
var sectionId = 'dynsection-63';
</script>
<script xlink:href="svgpan.js"/>
<svg id="graph" class="graph">
<g id="viewport">
<title>AP_GPS::send_mavlink_gps2_raw</title>
<polygon fill="white" stroke="none" points="-4,4 -4,-345.5 650,-345.5 650,4 -4,4"/>
<!-- Node1 -->
<g id="node1" class="node"><title>Node1</title>
<polygon fill="#bfbfbf" stroke="black" points="0,-147 0,-177 122,-177 122,-147 0,-147"/>
<text text-anchor="start" x="8" y="-165" font-family="Helvetica,sans-Serif" font-size="10.00">AP_GPS::send_mavlink</text>
<text text-anchor="middle" x="61" y="-154" font-family="Helvetica,sans-Serif" font-size="10.00">_gps2_raw</text>
</g>
<!-- Node2 -->
<g id="node2" class="node"><title>Node2</title>
<g id="a_node2"><a xlink:href="classAP__GPS.html#ae306f6cf545ee9f1f61cc38301ef76ca" target="_top" xlink:title="AP_GPS::status">
<polygon fill="white" stroke="black" points="182,-316.5 182,-335.5 271,-335.5 271,-316.5 182,-316.5"/>
<text text-anchor="middle" x="226.5" y="-323.5" font-family="Helvetica,sans-Serif" font-size="10.00">AP_GPS::status</text>
</a>
</g>
</g>
<!-- Node1&#45;&gt;Node2 -->
<g id="edge1" class="edge"><title>Node1&#45;&gt;Node2</title>
<path fill="none" stroke="midnightblue" d="M67.8385,-177.322C79.9485,-207.011 110.68,-272.485 158,-307 162.426,-310.228 167.382,-312.909 172.544,-315.134"/>
<polygon fill="midnightblue" stroke="midnightblue" points="171.398,-318.442 181.99,-318.669 173.851,-311.886 171.398,-318.442"/>
</g>
<!-- Node5 -->
<g id="node5" class="node"><title>Node5</title>
<g id="a_node5"><a xlink:href="classAP__GPS.html#a99be30769d9ebba8b0184a5635012198" target="_top" xlink:title="AP_GPS::last_message\l_time_ms">
<polygon fill="white" stroke="black" points="165,-267 165,-297 288,-297 288,-267 165,-267"/>
<text text-anchor="start" x="173" y="-285" font-family="Helvetica,sans-Serif" font-size="10.00">AP_GPS::last_message</text>
<text text-anchor="middle" x="226.5" y="-274" font-family="Helvetica,sans-Serif" font-size="10.00">_time_ms</text>
</a>
</g>
</g>
<!-- Node1&#45;&gt;Node5 -->
<g id="edge4" class="edge"><title>Node1&#45;&gt;Node5</title>
<path fill="none" stroke="midnightblue" d="M73.7852,-177.184C90.5073,-197.819 123.002,-234.694 158,-257 161.135,-258.998 164.453,-260.87 167.869,-262.617"/>
<polygon fill="midnightblue" stroke="midnightblue" points="166.544,-265.861 177.083,-266.953 169.525,-259.528 166.544,-265.861"/>
</g>
<!-- Node6 -->
<g id="node6" class="node"><title>Node6</title>
<g id="a_node6"><a xlink:href="classAP__GPS.html#a98307dafca6849d38b983258a0ab361c" target="_top" xlink:title="AP_GPS::location">
<polygon fill="white" stroke="black" points="178.5,-228.5 178.5,-247.5 274.5,-247.5 274.5,-228.5 178.5,-228.5"/>
<text text-anchor="middle" x="226.5" y="-235.5" font-family="Helvetica,sans-Serif" font-size="10.00">AP_GPS::location</text>
</a>
</g>
</g>
<!-- Node1&#45;&gt;Node6 -->
<g id="edge5" class="edge"><title>Node1&#45;&gt;Node6</title>
<path fill="none" stroke="midnightblue" d="M83.6259,-177.08C102.534,-189.707 131.1,-207.465 158,-219 163.448,-221.336 169.265,-223.471 175.113,-225.396"/>
<polygon fill="midnightblue" stroke="midnightblue" points="174.339,-228.82 184.927,-228.438 176.411,-222.134 174.339,-228.82"/>
</g>
<!-- Node7 -->
<g id="node7" class="node"><title>Node7</title>
<g id="a_node7"><a xlink:href="classAP__GPS.html#ad9057eb7d0fa2a0fcf39fee4d2d1036b" target="_top" xlink:title="AP_GPS::last_fix_time_ms">
<polygon fill="white" stroke="black" points="158,-190.5 158,-209.5 295,-209.5 295,-190.5 158,-190.5"/>
<text text-anchor="middle" x="226.5" y="-197.5" font-family="Helvetica,sans-Serif" font-size="10.00">AP_GPS::last_fix_time_ms</text>
</a>
</g>
</g>
<!-- Node1&#45;&gt;Node7 -->
<g id="edge6" class="edge"><title>Node1&#45;&gt;Node7</title>
<path fill="none" stroke="midnightblue" d="M122.417,-176.042C139.442,-179.999 157.794,-184.264 174.228,-188.084"/>
<polygon fill="midnightblue" stroke="midnightblue" points="173.652,-191.543 184.184,-190.398 175.236,-184.725 173.652,-191.543"/>
</g>
<!-- Node8 -->
<g id="node8" class="node"><title>Node8</title>
<g id="a_node8"><a xlink:href="classAP__GPS.html#a4e2f4adf4afb5c25bcf8cea537ec1221" target="_top" xlink:title="AP_GPS::get_hdop">
<polygon fill="white" stroke="black" points="175.5,-152.5 175.5,-171.5 277.5,-171.5 277.5,-152.5 175.5,-152.5"/>
<text text-anchor="middle" x="226.5" y="-159.5" font-family="Helvetica,sans-Serif" font-size="10.00">AP_GPS::get_hdop</text>
</a>
</g>
</g>
<!-- Node1&#45;&gt;Node8 -->
<g id="edge7" class="edge"><title>Node1&#45;&gt;Node8</title>
<path fill="none" stroke="midnightblue" d="M122.417,-162C136.262,-162 150.986,-162 164.841,-162"/>
<polygon fill="midnightblue" stroke="midnightblue" points="165.239,-165.5 175.239,-162 165.239,-158.5 165.239,-165.5"/>
</g>
<!-- Node9 -->
<g id="node9" class="node"><title>Node9</title>
<g id="a_node9"><a xlink:href="classAP__GPS.html#aff725a10762e8edc0871c522c0f7cfac" target="_top" xlink:title="AP_GPS::get_vdop">
<polygon fill="white" stroke="black" points="175.5,-114.5 175.5,-133.5 277.5,-133.5 277.5,-114.5 175.5,-114.5"/>
<text text-anchor="middle" x="226.5" y="-121.5" font-family="Helvetica,sans-Serif" font-size="10.00">AP_GPS::get_vdop</text>
</a>
</g>
</g>
<!-- Node1&#45;&gt;Node9 -->
<g id="edge8" class="edge"><title>Node1&#45;&gt;Node9</title>
<path fill="none" stroke="midnightblue" d="M122.417,-147.958C139.442,-144.001 157.794,-139.736 174.228,-135.916"/>
<polygon fill="midnightblue" stroke="midnightblue" points="175.236,-139.275 184.184,-133.602 173.652,-132.457 175.236,-139.275"/>
</g>
<!-- Node10 -->
<g id="node10" class="node"><title>Node10</title>
<g id="a_node10"><a xlink:href="classAP__GPS.html#a7424d6be88b259250ee31e9897f98f36" target="_top" xlink:title="AP_GPS::ground_speed">
<polygon fill="white" stroke="black" points="165,-76.5 165,-95.5 288,-95.5 288,-76.5 165,-76.5"/>
<text text-anchor="middle" x="226.5" y="-83.5" font-family="Helvetica,sans-Serif" font-size="10.00">AP_GPS::ground_speed</text>
</a>
</g>
</g>
<!-- Node1&#45;&gt;Node10 -->
<g id="edge9" class="edge"><title>Node1&#45;&gt;Node10</title>
<path fill="none" stroke="midnightblue" d="M83.6259,-146.92C102.534,-134.293 131.1,-116.535 158,-105 163.448,-102.664 169.265,-100.529 175.113,-98.6039"/>
<polygon fill="midnightblue" stroke="midnightblue" points="176.411,-101.866 184.927,-95.5624 174.339,-95.1796 176.411,-101.866"/>
</g>
<!-- Node11 -->
<g id="node11" class="node"><title>Node11</title>
<g id="a_node11"><a xlink:href="classAP__GPS.html#a82e1a85bea008e3d97588a185659c336" target="_top" xlink:title="AP_GPS::ground_course">
<polygon fill="white" stroke="black" points="163.5,-38.5 163.5,-57.5 289.5,-57.5 289.5,-38.5 163.5,-38.5"/>
<text text-anchor="middle" x="226.5" y="-45.5" font-family="Helvetica,sans-Serif" font-size="10.00">AP_GPS::ground_course</text>
</a>
</g>
</g>
<!-- Node1&#45;&gt;Node11 -->
<g id="edge10" class="edge"><title>Node1&#45;&gt;Node11</title>
<path fill="none" stroke="midnightblue" d="M73.2603,-146.765C89.6087,-125.726 121.932,-88.0012 158,-67 161.832,-64.7689 165.94,-62.788 170.167,-61.0314"/>
<polygon fill="midnightblue" stroke="midnightblue" points="171.405,-64.3054 179.553,-57.5338 168.961,-57.746 171.405,-64.3054"/>
</g>
<!-- Node12 -->
<g id="node12" class="node"><title>Node12</title>
<g id="a_node12"><a xlink:href="classAP__GPS.html#afcc2442ab71102ddabde55e6fb58bf0a" target="_top" xlink:title="AP_GPS::num_sats">
<polygon fill="white" stroke="black" points="174,-0.5 174,-19.5 279,-19.5 279,-0.5 174,-0.5"/>
<text text-anchor="middle" x="226.5" y="-7.5" font-family="Helvetica,sans-Serif" font-size="10.00">AP_GPS::num_sats</text>
</a>
</g>
</g>
<!-- Node1&#45;&gt;Node12 -->
<g id="edge11" class="edge"><title>Node1&#45;&gt;Node12</title>
<path fill="none" stroke="midnightblue" d="M68.8017,-146.657C81.9217,-118.858 113.418,-60.1581 158,-29 160.881,-26.9863 163.971,-25.1851 167.187,-23.5741"/>
<polygon fill="midnightblue" stroke="midnightblue" points="168.735,-26.7175 176.509,-19.5191 165.943,-20.2984 168.735,-26.7175"/>
</g>
<!-- Node3 -->
<g id="node3" class="node"><title>Node3</title>
<g id="a_node3"><a xlink:href="classAP__GPS.html#a28239e96e836d57525366b6529b76a51" target="_top" xlink:title="AP_GPS::highest_supported\l_status">
<polygon fill="white" stroke="black" points="331,-311 331,-341 473,-341 473,-311 331,-311"/>
<text text-anchor="start" x="339" y="-329" font-family="Helvetica,sans-Serif" font-size="10.00">AP_GPS::highest_supported</text>
<text text-anchor="middle" x="402" y="-318" font-family="Helvetica,sans-Serif" font-size="10.00">_status</text>
</a>
</g>
</g>
<!-- Node2&#45;&gt;Node3 -->
<g id="edge2" class="edge"><title>Node2&#45;&gt;Node3</title>
<path fill="none" stroke="midnightblue" d="M271.281,-326C286.245,-326 303.491,-326 320.422,-326"/>
<polygon fill="midnightblue" stroke="midnightblue" points="320.9,-329.5 330.9,-326 320.9,-322.5 320.9,-329.5"/>
</g>
<!-- Node4 -->
<g id="node4" class="node"><title>Node4</title>
<g id="a_node4"><a xlink:href="classAP__GPS__Backend.html#a8c5b16c4ac289e283effa184eb9df9c8" target="_top" xlink:title="AP_GPS_Backend::highest\l_supported_status">
<polygon fill="white" stroke="black" points="509,-311 509,-341 646,-341 646,-311 509,-311"/>
<text text-anchor="start" x="517" y="-329" font-family="Helvetica,sans-Serif" font-size="10.00">AP_GPS_Backend::highest</text>
<text text-anchor="middle" x="577.5" y="-318" font-family="Helvetica,sans-Serif" font-size="10.00">_supported_status</text>
</a>
</g>
</g>
<!-- Node3&#45;&gt;Node4 -->
<g id="edge3" class="edge"><title>Node3&#45;&gt;Node4</title>
<path fill="none" stroke="midnightblue" d="M473.069,-326C481.586,-326 490.326,-326 498.944,-326"/>
<polygon fill="midnightblue" stroke="midnightblue" points="498.984,-329.5 508.984,-326 498.984,-322.5 498.984,-329.5"/>
</g>
</g>
</svg>
        <g id="navigator" transform="translate(0 0)" fill="#404254">
                <rect fill="#f2f5e9" fill-opacity="0.5" stroke="#606060" stroke-width=".5" x="0" y="0" width="60" height="60"/>
                <use id="zoomplus" xlink:href="#zoomPlus" x="17" y="9" onmousedown="handleZoom(evt,'in')"/>
                <use id="zoomminus" xlink:href="#zoomMin" x="42" y="9" onmousedown="handleZoom(evt,'out')"/>
                <use id="reset" xlink:href="#resetDef" x="30" y="36" onmousedown="handleReset()"/>
                <g id="arrowUp" xlink:href="#dirArrow" transform="translate(30 24)" onmousedown="handlePan(0,-1)">
                  <use xlink:href="#rim" fill="#404040">
                        <set attributeName="fill" to="#808080" begin="arrowUp.mouseover" end="arrowUp.mouseout"/>
                  </use>
                  <path fill="none" stroke="white" stroke-width="1.5" d="M0,-3.0v7 M-2.5,-0.5L0,-3.0L2.5,-0.5"/>
                </g>
                <g id="arrowRight" xlink:href="#dirArrow" transform="rotate(90) translate(36 -43)" onmousedown="handlePan(1,0)">
                  <use xlink:href="#rim" fill="#404040">
                        <set attributeName="fill" to="#808080" begin="arrowRight.mouseover" end="arrowRight.mouseout"/>
                  </use>
                  <path fill="none" stroke="white" stroke-width="1.5" d="M0,-3.0v7 M-2.5,-0.5L0,-3.0L2.5,-0.5"/>
                </g>
                <g id="arrowDown" xlink:href="#dirArrow" transform="rotate(180) translate(-30 -48)" onmousedown="handlePan(0,1)">
                  <use xlink:href="#rim" fill="#404040">
                        <set attributeName="fill" to="#808080" begin="arrowDown.mouseover" end="arrowDown.mouseout"/>
                  </use>
                  <path fill="none" stroke="white" stroke-width="1.5" d="M0,-3.0v7 M-2.5,-0.5L0,-3.0L2.5,-0.5"/>
                </g>
                <g id="arrowLeft" xlink:href="#dirArrow" transform="rotate(270) translate(-36 17)" onmousedown="handlePan(-1,0)">
                  <use xlink:href="#rim" fill="#404040">
                        <set attributeName="fill" to="#808080" begin="arrowLeft.mouseover" end="arrowLeft.mouseout"/>
                  </use>
                  <path fill="none" stroke="white" stroke-width="1.5" d="M0,-3.0v7 M-2.5,-0.5L0,-3.0L2.5,-0.5"/>
                </g>
        </g>
        <svg viewBox="0 0 15 15" width="100%" height="30px" preserveAspectRatio="xMaxYMin meet">
         <g id="arrow_out" transform="scale(0.3 0.3)">
          <a xlink:href="classAP__GPS_a559c00ff3bbc1232f68e64d29a892128_cgraph_org.svg" target="_base">
           <rect id="button" ry="5" rx="5" y="6" x="6" height="38" width="38"
                fill="#f2f5e9" fill-opacity="0.5" stroke="#606060" stroke-width="1.0"/>
           <path id="arrow"
             d="M 11.500037,31.436501 C 11.940474,20.09759 22.043105,11.32322 32.158766,21.979434 L 37.068811,17.246167 C 37.068811,17.246167 37.088388,32 37.088388,32 L 22.160133,31.978069 C 22.160133,31.978069 26.997745,27.140456 26.997745,27.140456 C 18.528582,18.264221 13.291696,25.230495 11.500037,31.436501 z"
             style="fill:#404040;"/>
          </a>
         </g>
        </svg>
</svg>
