<?xml version="1.0" encoding="UTF-8" standalone="no"?>
<!DOCTYPE svg PUBLIC "-//W3C//DTD SVG 1.1//EN"
 "http://www.w3.org/Graphics/SVG/1.1/DTD/svg11.dtd">
<!-- Generated by graphviz version 2.38.0 (20140413.2041)
 -->
<!-- Title: NavEKF2_core::useAirspeed Pages: 1 -->
<svg width="1377pt" height="126pt"
 viewBox="0.00 0.00 1377.00 126.00" xmlns="http://www.w3.org/2000/svg" xmlns:xlink="http://www.w3.org/1999/xlink">
<g id="graph0" class="graph" transform="scale(1 1) rotate(0) translate(4 122)">
<title>NavEKF2_core::useAirspeed</title>
<polygon fill="white" stroke="none" points="-4,4 -4,-122 1373,-122 1373,4 -4,4"/>
<!-- Node1 -->
<g id="node1" class="node"><title>Node1</title>
<polygon fill="#bfbfbf" stroke="black" points="0,-30 0,-49 143,-49 143,-30 0,-30"/>
<text text-anchor="middle" x="71.5" y="-37" font-family="Helvetica,sans-Serif" font-size="10.00">NavEKF2_core::useAirspeed</text>
</g>
<!-- Node2 -->
<g id="node2" class="node"><title>Node2</title>
<g id="a_node2"><a xlink:href="classNavEKF2__core.html#ab9da9e275a98ea743e617d2b906bcc74" target="_top" xlink:title="NavEKF2_core::SelectBeta\lFusion">
<polygon fill="white" stroke="black" points="360.5,-49.5 360.5,-79.5 497.5,-79.5 497.5,-49.5 360.5,-49.5"/>
<text text-anchor="start" x="368.5" y="-67.5" font-family="Helvetica,sans-Serif" font-size="10.00">NavEKF2_core::SelectBeta</text>
<text text-anchor="middle" x="429" y="-56.5" font-family="Helvetica,sans-Serif" font-size="10.00">Fusion</text>
</a>
</g>
</g>
<!-- Node1&#45;&gt;Node2 -->
<g id="edge1" class="edge"><title>Node1&#45;&gt;Node2</title>
<path fill="none" stroke="midnightblue" d="M153.387,-45.1882C215.952,-49.5881 301.569,-55.6089 360.486,-59.7522"/>
<polygon fill="midnightblue" stroke="midnightblue" points="153.381,-41.6793 143.16,-44.4691 152.89,-48.6621 153.381,-41.6793"/>
</g>
<!-- Node12 -->
<g id="node12" class="node"><title>Node12</title>
<g id="a_node12"><a xlink:href="classNavEKF2__core.html#a3685f73d76dd71a9db53c1fbc178dd5b" target="_top" xlink:title="NavEKF2_core::setWindMag\lStateLearningMode">
<polygon fill="white" stroke="black" points="179,-2.5 179,-32.5 323,-32.5 323,-2.5 179,-2.5"/>
<text text-anchor="start" x="187" y="-20.5" font-family="Helvetica,sans-Serif" font-size="10.00">NavEKF2_core::setWindMag</text>
<text text-anchor="middle" x="251" y="-9.5" font-family="Helvetica,sans-Serif" font-size="10.00">StateLearningMode</text>
</a>
</g>
</g>
<!-- Node1&#45;&gt;Node12 -->
<g id="edge11" class="edge"><title>Node1&#45;&gt;Node12</title>
<path fill="none" stroke="midnightblue" d="M153.118,-29.5079C161.654,-28.45 170.291,-27.3794 178.71,-26.3359"/>
<polygon fill="midnightblue" stroke="midnightblue" points="152.656,-26.0383 143.163,-30.7418 153.517,-32.9851 152.656,-26.0383"/>
</g>
<!-- Node3 -->
<g id="node3" class="node"><title>Node3</title>
<g id="a_node3"><a xlink:href="classNavEKF2__core.html#a5f5c815cbd5ebba30d731f89f87726c3" target="_top" xlink:title="NavEKF2_core::UpdateFilter">
<polygon fill="white" stroke="black" points="535,-30 535,-49 678,-49 678,-30 535,-30"/>
<text text-anchor="middle" x="606.5" y="-37" font-family="Helvetica,sans-Serif" font-size="10.00">NavEKF2_core::UpdateFilter</text>
</a>
</g>
</g>
<!-- Node2&#45;&gt;Node3 -->
<g id="edge2" class="edge"><title>Node2&#45;&gt;Node3</title>
<path fill="none" stroke="midnightblue" d="M507.523,-53.4568C517.954,-51.971 528.58,-50.4573 538.801,-49.0013"/>
<polygon fill="midnightblue" stroke="midnightblue" points="507.008,-49.9947 497.602,-54.8701 507.996,-56.9248 507.008,-49.9947"/>
</g>
<!-- Node4 -->
<g id="node4" class="node"><title>Node4</title>
<g id="a_node4"><a xlink:href="classNavEKF2.html#a72815b1bbd9d7ceb0ff7ae52d14516df" target="_top" xlink:title="NavEKF2::UpdateFilter">
<polygon fill="white" stroke="black" points="714,-30 714,-49 833,-49 833,-30 714,-30"/>
<text text-anchor="middle" x="773.5" y="-37" font-family="Helvetica,sans-Serif" font-size="10.00">NavEKF2::UpdateFilter</text>
</a>
</g>
</g>
<!-- Node3&#45;&gt;Node4 -->
<g id="edge3" class="edge"><title>Node3&#45;&gt;Node4</title>
<path fill="none" stroke="midnightblue" d="M688.436,-39.5C696.985,-39.5 705.556,-39.5 713.783,-39.5"/>
<polygon fill="midnightblue" stroke="midnightblue" points="688.432,-36.0001 678.432,-39.5 688.432,-43.0001 688.432,-36.0001"/>
</g>
<!-- Node5 -->
<g id="node5" class="node"><title>Node5</title>
<g id="a_node5"><a xlink:href="classNavEKF2.html#ab18af2714c15fcf190493c01e2a28c73" target="_top" xlink:title="NavEKF2::activeCores">
<polygon fill="white" stroke="black" points="896,-49 896,-68 1014,-68 1014,-49 896,-49"/>
<text text-anchor="middle" x="955" y="-56" font-family="Helvetica,sans-Serif" font-size="10.00">NavEKF2::activeCores</text>
</a>
</g>
</g>
<!-- Node4&#45;&gt;Node5 -->
<g id="edge4" class="edge"><title>Node4&#45;&gt;Node5</title>
<path fill="none" stroke="midnightblue" d="M843.307,-46.7832C860.597,-48.6134 878.985,-50.5597 895.706,-52.3296"/>
<polygon fill="midnightblue" stroke="midnightblue" points="843.588,-43.2935 833.275,-45.7213 842.851,-50.2546 843.588,-43.2935"/>
</g>
<!-- Node9 -->
<g id="node9" class="node"><title>Node9</title>
<g id="a_node9"><a xlink:href="classAP__AHRS__NavEKF.html#a0187c6d3d4348b002a204c05d3e94b07" target="_top" xlink:title="AP_AHRS_NavEKF::update_EKF2">
<polygon fill="white" stroke="black" points="869,-11 869,-30 1041,-30 1041,-11 869,-11"/>
<text text-anchor="middle" x="955" y="-18" font-family="Helvetica,sans-Serif" font-size="10.00">AP_AHRS_NavEKF::update_EKF2</text>
</a>
</g>
</g>
<!-- Node4&#45;&gt;Node9 -->
<g id="edge8" class="edge"><title>Node4&#45;&gt;Node9</title>
<path fill="none" stroke="midnightblue" d="M843.285,-32.2191C851.612,-31.3377 860.194,-30.4293 868.722,-29.5266"/>
<polygon fill="midnightblue" stroke="midnightblue" points="842.851,-28.7454 833.275,-33.2787 843.588,-35.7065 842.851,-28.7454"/>
</g>
<!-- Node6 -->
<g id="node6" class="node"><title>Node6</title>
<g id="a_node6"><a xlink:href="classDataFlash__Class.html#a46e58faaa53c44516433f6bb7bde4163" target="_top" xlink:title="DataFlash_Class::Log\l_Write_POS">
<polygon fill="white" stroke="black" points="1092,-87.5 1092,-117.5 1206,-117.5 1206,-87.5 1092,-87.5"/>
<text text-anchor="start" x="1100" y="-105.5" font-family="Helvetica,sans-Serif" font-size="10.00">DataFlash_Class::Log</text>
<text text-anchor="middle" x="1149" y="-94.5" font-family="Helvetica,sans-Serif" font-size="10.00">_Write_POS</text>
</a>
</g>
</g>
<!-- Node5&#45;&gt;Node6 -->
<g id="edge5" class="edge"><title>Node5&#45;&gt;Node6</title>
<path fill="none" stroke="midnightblue" d="M1007.7,-70.3473C1033.7,-76.3059 1065.25,-83.5373 1091.85,-89.632"/>
<polygon fill="midnightblue" stroke="midnightblue" points="1008.19,-66.8696 997.661,-68.0473 1006.63,-73.6927 1008.19,-66.8696"/>
</g>
<!-- Node8 -->
<g id="node8" class="node"><title>Node8</title>
<g id="a_node8"><a xlink:href="classGCS__MAVLINK.html#a558ba3447048b78cb9dde460053e2741" target="_top" xlink:title="GCS_MAVLINK::send_ahrs2">
<polygon fill="white" stroke="black" points="1077,-49 1077,-68 1221,-68 1221,-49 1077,-49"/>
<text text-anchor="middle" x="1149" y="-56" font-family="Helvetica,sans-Serif" font-size="10.00">GCS_MAVLINK::send_ahrs2</text>
</a>
</g>
</g>
<!-- Node5&#45;&gt;Node8 -->
<g id="edge7" class="edge"><title>Node5&#45;&gt;Node8</title>
<path fill="none" stroke="midnightblue" d="M1024.52,-58.5C1041.5,-58.5 1059.74,-58.5 1076.85,-58.5"/>
<polygon fill="midnightblue" stroke="midnightblue" points="1024.13,-55.0001 1014.13,-58.5 1024.13,-62.0001 1024.13,-55.0001"/>
</g>
<!-- Node7 -->
<g id="node7" class="node"><title>Node7</title>
<g id="a_node7"><a xlink:href="classDataFlash__Class.html#a7868f0e3dcef65ea5b5fcae618f4c5d4" target="_top" xlink:title="DataFlash_Class::get\l_structures">
<polygon fill="white" stroke="black" points="1257,-87.5 1257,-117.5 1369,-117.5 1369,-87.5 1257,-87.5"/>
<text text-anchor="start" x="1265" y="-105.5" font-family="Helvetica,sans-Serif" font-size="10.00">DataFlash_Class::get</text>
<text text-anchor="middle" x="1313" y="-94.5" font-family="Helvetica,sans-Serif" font-size="10.00">_structures</text>
</a>
</g>
</g>
<!-- Node6&#45;&gt;Node7 -->
<g id="edge6" class="edge"><title>Node6&#45;&gt;Node7</title>
<path fill="none" stroke="midnightblue" d="M1216.39,-102.5C1229.89,-102.5 1243.94,-102.5 1256.99,-102.5"/>
<polygon fill="midnightblue" stroke="midnightblue" points="1216.21,-99.0001 1206.21,-102.5 1216.21,-106 1216.21,-99.0001"/>
</g>
<!-- Node10 -->
<g id="node10" class="node"><title>Node10</title>
<g id="a_node10"><a xlink:href="classAP__AHRS__NavEKF.html#ac8111979c5dc37a55b2c50818534ea52" target="_top" xlink:title="AP_AHRS_NavEKF::update">
<polygon fill="white" stroke="black" points="1078,-11 1078,-30 1220,-30 1220,-11 1078,-11"/>
<text text-anchor="middle" x="1149" y="-18" font-family="Helvetica,sans-Serif" font-size="10.00">AP_AHRS_NavEKF::update</text>
</a>
</g>
</g>
<!-- Node9&#45;&gt;Node10 -->
<g id="edge9" class="edge"><title>Node9&#45;&gt;Node10</title>
<path fill="none" stroke="midnightblue" d="M1051.21,-20.5C1060.23,-20.5 1069.25,-20.5 1077.97,-20.5"/>
<polygon fill="midnightblue" stroke="midnightblue" points="1051.05,-17.0001 1041.05,-20.5 1051.05,-24.0001 1051.05,-17.0001"/>
</g>
<!-- Node11 -->
<g id="node11" class="node"><title>Node11</title>
<g id="a_node11"><a xlink:href="AHRS__Test_8cpp.html#a0b33edabd7f1c4e4a0bf32c67269be2f" target="_top" xlink:title="loop">
<polygon fill="white" stroke="black" points="1295.5,-11 1295.5,-30 1330.5,-30 1330.5,-11 1295.5,-11"/>
<text text-anchor="middle" x="1313" y="-18" font-family="Helvetica,sans-Serif" font-size="10.00">loop</text>
</a>
</g>
</g>
<!-- Node10&#45;&gt;Node11 -->
<g id="edge10" class="edge"><title>Node10&#45;&gt;Node11</title>
<path fill="none" stroke="midnightblue" d="M1230.29,-20.5C1254.99,-20.5 1279.78,-20.5 1295.47,-20.5"/>
<polygon fill="midnightblue" stroke="midnightblue" points="1230.11,-17.0001 1220.11,-20.5 1230.11,-24.0001 1230.11,-17.0001"/>
</g>
<!-- Node13 -->
<g id="node13" class="node"><title>Node13</title>
<g id="a_node13"><a xlink:href="classNavEKF2__core.html#a9c41b138c335540f4cc51c4b3fff9b9f" target="_top" xlink:title="NavEKF2_core::controlFilter\lModes">
<polygon fill="white" stroke="black" points="359,-0.5 359,-30.5 499,-30.5 499,-0.5 359,-0.5"/>
<text text-anchor="start" x="367" y="-18.5" font-family="Helvetica,sans-Serif" font-size="10.00">NavEKF2_core::controlFilter</text>
<text text-anchor="middle" x="429" y="-7.5" font-family="Helvetica,sans-Serif" font-size="10.00">Modes</text>
</a>
</g>
</g>
<!-- Node12&#45;&gt;Node13 -->
<g id="edge12" class="edge"><title>Node12&#45;&gt;Node13</title>
<path fill="none" stroke="midnightblue" d="M333.141,-16.5779C341.764,-16.48 350.475,-16.381 358.941,-16.2848"/>
<polygon fill="midnightblue" stroke="midnightblue" points="333.038,-13.0788 323.079,-16.6923 333.118,-20.0783 333.038,-13.0788"/>
</g>
<!-- Node13&#45;&gt;Node3 -->
<g id="edge13" class="edge"><title>Node13&#45;&gt;Node3</title>
<path fill="none" stroke="midnightblue" d="M509.116,-26.3192C518.04,-27.5397 527.086,-28.7767 535.877,-29.9789"/>
<polygon fill="midnightblue" stroke="midnightblue" points="509.492,-22.8383 499.11,-24.951 508.544,-29.7737 509.492,-22.8383"/>
</g>
</g>
</svg>
