<?xml version="1.0" encoding="UTF-8" standalone="no"?>
<!DOCTYPE svg PUBLIC "-//W3C//DTD SVG 1.1//EN"
 "http://www.w3.org/Graphics/SVG/1.1/DTD/svg11.dtd">
<!-- Generated by graphviz version 2.38.0 (20140413.2041)
 -->
<!-- Title: loop Pages: 1 -->
<svg width="903pt" height="329pt"
 viewBox="0.00 0.00 903.00 328.50" xmlns="http://www.w3.org/2000/svg" xmlns:xlink="http://www.w3.org/1999/xlink">
<g id="graph0" class="graph" transform="scale(1 1) rotate(0) translate(4 324.5)">
<title>loop</title>
<polygon fill="white" stroke="none" points="-4,4 -4,-324.5 899,-324.5 899,4 -4,4"/>
<!-- Node1 -->
<g id="node1" class="node"><title>Node1</title>
<polygon fill="#bfbfbf" stroke="black" points="0,-187 0,-206 35,-206 35,-187 0,-187"/>
<text text-anchor="middle" x="17.5" y="-194" font-family="Helvetica,sans-Serif" font-size="10.00">loop</text>
</g>
<!-- Node2 -->
<g id="node2" class="node"><title>Node2</title>
<g id="a_node2"><a xlink:href="simplegcs_8cpp.html#ae6d65bb6477c3fe759944f62cf26a0af" target="_top" xlink:title="try_send_message">
<polygon fill="white" stroke="black" points="76.5,-263 76.5,-282 175.5,-282 175.5,-263 76.5,-263"/>
<text text-anchor="middle" x="126" y="-270" font-family="Helvetica,sans-Serif" font-size="10.00">try_send_message</text>
</a>
</g>
</g>
<!-- Node1&#45;&gt;Node2 -->
<g id="edge1" class="edge"><title>Node1&#45;&gt;Node2</title>
<path fill="none" stroke="midnightblue" d="M31.8432,-206.233C42.4332,-213.939 57.6289,-224.957 71,-234.5 81.4301,-241.944 93.0473,-250.132 102.826,-256.996"/>
<polygon fill="midnightblue" stroke="midnightblue" points="101.006,-259.994 111.203,-262.867 105.023,-254.261 101.006,-259.994"/>
</g>
<!-- Node7 -->
<g id="node7" class="node"><title>Node7</title>
<g id="a_node7"><a xlink:href="simplegcs_8cpp.html#a0e026fc9b23210373846b25cc141486d" target="_top" xlink:title="simplegcs_update">
<polygon fill="white" stroke="black" points="78.5,-206 78.5,-225 173.5,-225 173.5,-206 78.5,-206"/>
<text text-anchor="middle" x="126" y="-213" font-family="Helvetica,sans-Serif" font-size="10.00">simplegcs_update</text>
</a>
</g>
</g>
<!-- Node1&#45;&gt;Node7 -->
<g id="edge6" class="edge"><title>Node1&#45;&gt;Node7</title>
<path fill="none" stroke="midnightblue" d="M35.1406,-199.469C44.1902,-201.083 55.9738,-203.185 68.0135,-205.333"/>
<polygon fill="midnightblue" stroke="midnightblue" points="67.6733,-208.828 78.1326,-207.139 68.9027,-201.937 67.6733,-208.828"/>
</g>
<!-- Node23 -->
<g id="node23" class="node"><title>Node23</title>
<g id="a_node23"><a xlink:href="GCS__Console_8cpp.html#acf3b9449586c84f434aef52a4a8059cd" target="_top" xlink:title="gcs_console_send">
<polygon fill="white" stroke="black" points="77,-301 77,-320 175,-320 175,-301 77,-301"/>
<text text-anchor="middle" x="126" y="-308" font-family="Helvetica,sans-Serif" font-size="10.00">gcs_console_send</text>
</a>
</g>
</g>
<!-- Node1&#45;&gt;Node23 -->
<g id="edge24" class="edge"><title>Node1&#45;&gt;Node23</title>
<path fill="none" stroke="midnightblue" d="M21.2434,-206.069C27.1691,-225.07 42.9457,-267.768 71,-291.5 72.9918,-293.185 75.1428,-294.724 77.3996,-296.13"/>
<polygon fill="midnightblue" stroke="midnightblue" points="76.0334,-299.365 86.5144,-300.914 79.287,-293.167 76.0334,-299.365"/>
</g>
<!-- Node24 -->
<g id="node24" class="node"><title>Node24</title>
<g id="a_node24"><a xlink:href="Console_8cpp.html#af448a11a75341cbf41bde0f0e10d459a" target="_top" xlink:title="console_loopback">
<polygon fill="white" stroke="black" points="222.5,-149 222.5,-168 317.5,-168 317.5,-149 222.5,-149"/>
<text text-anchor="middle" x="270" y="-156" font-family="Helvetica,sans-Serif" font-size="10.00">console_loopback</text>
</a>
</g>
</g>
<!-- Node1&#45;&gt;Node24 -->
<g id="edge26" class="edge"><title>Node1&#45;&gt;Node24</title>
<path fill="none" stroke="midnightblue" d="M35.325,-193.948C70.9236,-188.548 155.27,-175.753 212.268,-167.106"/>
<polygon fill="midnightblue" stroke="midnightblue" points="212.861,-170.556 222.223,-165.596 211.811,-163.635 212.861,-170.556"/>
</g>
<!-- Node25 -->
<g id="node25" class="node"><title>Node25</title>
<g id="a_node25"><a xlink:href="classAP__HAL_1_1Scheduler.html#ab3175e2e6223ccfe82f957e41cc12b26" target="_top" xlink:title="AP_HAL::Scheduler::\ldelay">
<polygon fill="white" stroke="black" points="71,-118.5 71,-148.5 181,-148.5 181,-118.5 71,-118.5"/>
<text text-anchor="start" x="79" y="-136.5" font-family="Helvetica,sans-Serif" font-size="10.00">AP_HAL::Scheduler::</text>
<text text-anchor="middle" x="126" y="-125.5" font-family="Helvetica,sans-Serif" font-size="10.00">delay</text>
</a>
</g>
</g>
<!-- Node1&#45;&gt;Node25 -->
<g id="edge31" class="edge"><title>Node1&#45;&gt;Node25</title>
<path fill="none" stroke="midnightblue" d="M33.5296,-186.75C43.9559,-180.062 58.2128,-171.063 71,-163.5 76.5125,-160.239 82.3917,-156.868 88.1665,-153.614"/>
<polygon fill="midnightblue" stroke="midnightblue" points="90.064,-156.563 97.0877,-148.631 86.6505,-150.452 90.064,-156.563"/>
</g>
<!-- Node26 -->
<g id="node26" class="node"><title>Node26</title>
<g id="a_node26"><a xlink:href="Console_8cpp.html#aa754b8f19697c092a3eb48905d6561e3" target="_top" xlink:title="AP_HAL_MAIN">
<polygon fill="white" stroke="black" points="83,-80 83,-99 169,-99 169,-80 83,-80"/>
<text text-anchor="middle" x="126" y="-87" font-family="Helvetica,sans-Serif" font-size="10.00">AP_HAL_MAIN</text>
</a>
</g>
</g>
<!-- Node1&#45;&gt;Node26 -->
<g id="edge32" class="edge"><title>Node1&#45;&gt;Node26</title>
<path fill="none" stroke="midnightblue" d="M21.7459,-186.805C28.2494,-168.813 44.5613,-130.126 71,-108.5 73.053,-106.821 75.2648,-105.285 77.58,-103.881"/>
<polygon fill="midnightblue" stroke="midnightblue" points="79.6057,-106.776 86.9049,-99.0965 76.4099,-100.548 79.6057,-106.776"/>
</g>
<!-- Node3 -->
<g id="node3" class="node"><title>Node3</title>
<g id="a_node3"><a xlink:href="GCS__MAVLink_8cpp.html#a2a0fd455fd37f642e9eb67373a14b7d9" target="_top" xlink:title="comm_get_txspace">
<polygon fill="white" stroke="black" points="219,-301 219,-320 321,-320 321,-301 219,-301"/>
<text text-anchor="middle" x="270" y="-308" font-family="Helvetica,sans-Serif" font-size="10.00">comm_get_txspace</text>
</a>
</g>
</g>
<!-- Node2&#45;&gt;Node3 -->
<g id="edge2" class="edge"><title>Node2&#45;&gt;Node3</title>
<path fill="none" stroke="midnightblue" d="M162.833,-282.089C181.163,-286.994 203.678,-293.02 223.25,-298.257"/>
<polygon fill="midnightblue" stroke="midnightblue" points="222.614,-301.71 233.179,-300.914 224.424,-294.948 222.614,-301.71"/>
</g>
<!-- Node6 -->
<g id="node6" class="node"><title>Node6</title>
<g id="a_node6"><a xlink:href="simplegcs_8cpp.html#a63fb37ab3804b43b4d27c0cf7d205c43" target="_top" xlink:title="send_heartbeat">
<polygon fill="white" stroke="black" points="228.5,-263 228.5,-282 311.5,-282 311.5,-263 228.5,-263"/>
<text text-anchor="middle" x="270" y="-270" font-family="Helvetica,sans-Serif" font-size="10.00">send_heartbeat</text>
</a>
</g>
</g>
<!-- Node2&#45;&gt;Node6 -->
<g id="edge5" class="edge"><title>Node2&#45;&gt;Node6</title>
<path fill="none" stroke="midnightblue" d="M175.868,-272.5C189.421,-272.5 204.17,-272.5 217.85,-272.5"/>
<polygon fill="midnightblue" stroke="midnightblue" points="218.065,-276 228.065,-272.5 218.065,-269 218.065,-276"/>
</g>
<!-- Node4 -->
<g id="node4" class="node"><title>Node4</title>
<g id="a_node4"><a xlink:href="GCS__MAVLink_8h.html#a17ee8d1ce05b7d160ccc6a78b92b774f" target="_top" xlink:title="valid_channel">
<polygon fill="white" stroke="black" points="389.5,-263 389.5,-282 465.5,-282 465.5,-263 389.5,-263"/>
<text text-anchor="middle" x="427.5" y="-270" font-family="Helvetica,sans-Serif" font-size="10.00">valid_channel</text>
</a>
</g>
</g>
<!-- Node3&#45;&gt;Node4 -->
<g id="edge3" class="edge"><title>Node3&#45;&gt;Node4</title>
<path fill="none" stroke="midnightblue" d="M310.239,-300.911C331.305,-295.763 357.418,-289.382 379.555,-283.972"/>
<polygon fill="midnightblue" stroke="midnightblue" points="380.531,-287.337 389.414,-281.563 378.869,-280.537 380.531,-287.337"/>
</g>
<!-- Node5 -->
<g id="node5" class="node"><title>Node5</title>
<g id="a_node5"><a xlink:href="classAP__HAL_1_1Stream.html#a1768308e013072eb91ecf0ccdc171da6" target="_top" xlink:title="AP_HAL::Stream::txspace">
<polygon fill="white" stroke="black" points="361,-301 361,-320 494,-320 494,-301 361,-301"/>
<text text-anchor="middle" x="427.5" y="-308" font-family="Helvetica,sans-Serif" font-size="10.00">AP_HAL::Stream::txspace</text>
</a>
</g>
</g>
<!-- Node3&#45;&gt;Node5 -->
<g id="edge4" class="edge"><title>Node3&#45;&gt;Node5</title>
<path fill="none" stroke="midnightblue" d="M321.057,-310.5C330.579,-310.5 340.739,-310.5 350.851,-310.5"/>
<polygon fill="midnightblue" stroke="midnightblue" points="350.922,-314 360.922,-310.5 350.922,-307 350.922,-314"/>
</g>
<!-- Node8 -->
<g id="node8" class="node"><title>Node8</title>
<g id="a_node8"><a xlink:href="GCS__MAVLink_8cpp.html#a2817de906dc695cf406a4a43be1bc724" target="_top" xlink:title="comm_get_available">
<polygon fill="white" stroke="black" points="217,-225 217,-244 323,-244 323,-225 217,-225"/>
<text text-anchor="middle" x="270" y="-232" font-family="Helvetica,sans-Serif" font-size="10.00">comm_get_available</text>
</a>
</g>
</g>
<!-- Node7&#45;&gt;Node8 -->
<g id="edge7" class="edge"><title>Node7&#45;&gt;Node8</title>
<path fill="none" stroke="midnightblue" d="M173.89,-221.774C184.404,-223.181 195.719,-224.695 206.748,-226.171"/>
<polygon fill="midnightblue" stroke="midnightblue" points="206.39,-229.654 216.766,-227.511 207.318,-222.716 206.39,-229.654"/>
</g>
<!-- Node10 -->
<g id="node10" class="node"><title>Node10</title>
<g id="a_node10"><a xlink:href="GCS__MAVLink_8cpp.html#a34488d8c3ec2e467fd083707754001d3" target="_top" xlink:title="comm_receive_ch">
<polygon fill="white" stroke="black" points="222,-187 222,-206 318,-206 318,-187 222,-187"/>
<text text-anchor="middle" x="270" y="-194" font-family="Helvetica,sans-Serif" font-size="10.00">comm_receive_ch</text>
</a>
</g>
</g>
<!-- Node7&#45;&gt;Node10 -->
<g id="edge10" class="edge"><title>Node7&#45;&gt;Node10</title>
<path fill="none" stroke="midnightblue" d="M173.89,-209.226C186.001,-207.606 199.174,-205.843 211.749,-204.16"/>
<polygon fill="midnightblue" stroke="midnightblue" points="212.227,-207.628 221.674,-202.832 211.299,-200.69 212.227,-207.628"/>
</g>
<!-- Node12 -->
<g id="node12" class="node"><title>Node12</title>
<g id="a_node12"><a xlink:href="simplegcs_8cpp.html#a4dd9b4d1d62cecf5839f6cadc7768baa" target="_top" xlink:title="handle_message">
<polygon fill="white" stroke="black" points="225,-83 225,-102 315,-102 315,-83 225,-83"/>
<text text-anchor="middle" x="270" y="-90" font-family="Helvetica,sans-Serif" font-size="10.00">handle_message</text>
</a>
</g>
</g>
<!-- Node7&#45;&gt;Node12 -->
<g id="edge13" class="edge"><title>Node7&#45;&gt;Node12</title>
<path fill="none" stroke="midnightblue" d="M138.143,-205.848C162.406,-184.831 220.244,-134.732 250.239,-108.751"/>
<polygon fill="midnightblue" stroke="midnightblue" points="252.642,-111.3 257.909,-102.107 248.059,-106.009 252.642,-111.3"/>
</g>
<!-- Node8&#45;&gt;Node4 -->
<g id="edge8" class="edge"><title>Node8&#45;&gt;Node4</title>
<path fill="none" stroke="midnightblue" d="M310.239,-244.089C331.305,-249.237 357.418,-255.618 379.555,-261.028"/>
<polygon fill="midnightblue" stroke="midnightblue" points="378.869,-264.463 389.414,-263.437 380.531,-257.663 378.869,-264.463"/>
</g>
<!-- Node9 -->
<g id="node9" class="node"><title>Node9</title>
<g id="a_node9"><a xlink:href="classAP__HAL_1_1Stream.html#ae6aa935b5bbd553a2654bfec4e14961e" target="_top" xlink:title="AP_HAL::Stream::available">
<polygon fill="white" stroke="black" points="359,-225 359,-244 496,-244 496,-225 359,-225"/>
<text text-anchor="middle" x="427.5" y="-232" font-family="Helvetica,sans-Serif" font-size="10.00">AP_HAL::Stream::available</text>
</a>
</g>
</g>
<!-- Node8&#45;&gt;Node9 -->
<g id="edge9" class="edge"><title>Node8&#45;&gt;Node9</title>
<path fill="none" stroke="midnightblue" d="M323.212,-234.5C331.456,-234.5 340.131,-234.5 348.805,-234.5"/>
<polygon fill="midnightblue" stroke="midnightblue" points="348.962,-238 358.961,-234.5 348.961,-231 348.962,-238"/>
</g>
<!-- Node10&#45;&gt;Node4 -->
<g id="edge11" class="edge"><title>Node10&#45;&gt;Node4</title>
<path fill="none" stroke="midnightblue" d="M304.284,-206.055C310.757,-208.622 317.297,-211.752 323,-215.5 342.442,-228.276 339.087,-241.471 359,-253.5 365.304,-257.308 372.399,-260.378 379.558,-262.845"/>
<polygon fill="midnightblue" stroke="midnightblue" points="378.705,-266.244 389.292,-265.849 380.769,-259.556 378.705,-266.244"/>
</g>
<!-- Node11 -->
<g id="node11" class="node"><title>Node11</title>
<g id="a_node11"><a xlink:href="classAP__HAL_1_1Stream.html#ae42ff362cc2a7e527c22f92a3740c2ac" target="_top" xlink:title="AP_HAL::Stream::read">
<polygon fill="white" stroke="black" points="369,-187 369,-206 486,-206 486,-187 369,-187"/>
<text text-anchor="middle" x="427.5" y="-194" font-family="Helvetica,sans-Serif" font-size="10.00">AP_HAL::Stream::read</text>
</a>
</g>
</g>
<!-- Node10&#45;&gt;Node11 -->
<g id="edge12" class="edge"><title>Node10&#45;&gt;Node11</title>
<path fill="none" stroke="midnightblue" d="M318.077,-196.5C330.828,-196.5 344.889,-196.5 358.541,-196.5"/>
<polygon fill="midnightblue" stroke="midnightblue" points="358.873,-200 368.873,-196.5 358.873,-193 358.873,-200"/>
</g>
<!-- Node13 -->
<g id="node13" class="node"><title>Node13</title>
<g id="a_node13"><a xlink:href="classAP__HAL_1_1UARTDriver.html#a6ceedc792594e59fc7d80b39a435f027" target="_top" xlink:title="AP_HAL::UARTDriver\l::printf">
<polygon fill="white" stroke="black" points="370,-137.5 370,-167.5 485,-167.5 485,-137.5 370,-137.5"/>
<text text-anchor="start" x="378" y="-155.5" font-family="Helvetica,sans-Serif" font-size="10.00">AP_HAL::UARTDriver</text>
<text text-anchor="middle" x="427.5" y="-144.5" font-family="Helvetica,sans-Serif" font-size="10.00">::printf</text>
</a>
</g>
</g>
<!-- Node12&#45;&gt;Node13 -->
<g id="edge14" class="edge"><title>Node12&#45;&gt;Node13</title>
<path fill="none" stroke="midnightblue" d="M295.639,-102.007C317.702,-110.52 350.694,-123.25 378.03,-133.798"/>
<polygon fill="midnightblue" stroke="midnightblue" points="376.847,-137.093 387.436,-137.427 379.367,-130.562 376.847,-137.093"/>
</g>
<!-- Node21 -->
<g id="node21" class="node"><title>Node21</title>
<g id="a_node21"><a xlink:href="GCS__Console_8cpp.html#a3a5227d5bb6602cf76f5bb4f2689724e" target="_top" xlink:title="gcs_console_handle\l_data16">
<polygon fill="white" stroke="black" points="375,-49.5 375,-79.5 480,-79.5 480,-49.5 375,-49.5"/>
<text text-anchor="start" x="383" y="-67.5" font-family="Helvetica,sans-Serif" font-size="10.00">gcs_console_handle</text>
<text text-anchor="middle" x="427.5" y="-56.5" font-family="Helvetica,sans-Serif" font-size="10.00">_data16</text>
</a>
</g>
</g>
<!-- Node12&#45;&gt;Node21 -->
<g id="edge22" class="edge"><title>Node12&#45;&gt;Node21</title>
<path fill="none" stroke="midnightblue" d="M315.144,-84.5512C330.536,-81.7797 348.104,-78.6163 364.665,-75.6342"/>
<polygon fill="midnightblue" stroke="midnightblue" points="365.597,-79.0228 374.819,-73.806 364.357,-72.1336 365.597,-79.0228"/>
</g>
<!-- Node22 -->
<g id="node22" class="node"><title>Node22</title>
<g id="a_node22"><a xlink:href="GCS__Console_8cpp.html#a435926f6c3cc44d4b92bc7c021d6b94d" target="_top" xlink:title="gcs_console_handle\l_data32">
<polygon fill="white" stroke="black" points="375,-0.5 375,-30.5 480,-30.5 480,-0.5 375,-0.5"/>
<text text-anchor="start" x="383" y="-18.5" font-family="Helvetica,sans-Serif" font-size="10.00">gcs_console_handle</text>
<text text-anchor="middle" x="427.5" y="-7.5" font-family="Helvetica,sans-Serif" font-size="10.00">_data32</text>
</a>
</g>
</g>
<!-- Node12&#45;&gt;Node22 -->
<g id="edge23" class="edge"><title>Node12&#45;&gt;Node22</title>
<path fill="none" stroke="midnightblue" d="M284.842,-82.9643C301.78,-71.5826 331.593,-52.4648 359,-39.5 362.795,-37.705 366.762,-35.9662 370.79,-34.2999"/>
<polygon fill="midnightblue" stroke="midnightblue" points="372.241,-37.4896 380.248,-30.5513 369.662,-30.9821 372.241,-37.4896"/>
</g>
<!-- Node14 -->
<g id="node14" class="node"><title>Node14</title>
<g id="a_node14"><a xlink:href="classAP__HAL_1_1UARTDriver.html#aa8abfb6d6641299472c29ac1edde559f" target="_top" xlink:title="AP_HAL::UARTDriver\l::vprintf">
<polygon fill="white" stroke="black" points="532,-153.5 532,-183.5 647,-183.5 647,-153.5 532,-153.5"/>
<text text-anchor="start" x="540" y="-171.5" font-family="Helvetica,sans-Serif" font-size="10.00">AP_HAL::UARTDriver</text>
<text text-anchor="middle" x="589.5" y="-160.5" font-family="Helvetica,sans-Serif" font-size="10.00">::vprintf</text>
</a>
</g>
</g>
<!-- Node13&#45;&gt;Node14 -->
<g id="edge15" class="edge"><title>Node13&#45;&gt;Node14</title>
<path fill="none" stroke="midnightblue" d="M485.361,-158.186C497.15,-159.365 509.672,-160.617 521.778,-161.828"/>
<polygon fill="midnightblue" stroke="midnightblue" points="521.524,-165.32 531.823,-162.832 522.221,-158.355 521.524,-165.32"/>
</g>
<!-- Node15 -->
<g id="node15" class="node"><title>Node15</title>
<g id="a_node15"><a xlink:href="print__vprintf_8cpp.html#a1534eaeab54696df96975b56d9f49212" target="_top" xlink:title="print_vprintf">
<polygon fill="white" stroke="black" points="683,-163 683,-182 751,-182 751,-163 683,-163"/>
<text text-anchor="middle" x="717" y="-170" font-family="Helvetica,sans-Serif" font-size="10.00">print_vprintf</text>
</a>
</g>
</g>
<!-- Node14&#45;&gt;Node15 -->
<g id="edge16" class="edge"><title>Node14&#45;&gt;Node15</title>
<path fill="none" stroke="midnightblue" d="M647.009,-170.301C655.609,-170.575 664.367,-170.854 672.628,-171.118"/>
<polygon fill="midnightblue" stroke="midnightblue" points="672.671,-174.621 682.777,-171.441 672.894,-167.624 672.671,-174.621"/>
</g>
<!-- Node16 -->
<g id="node16" class="node"><title>Node16</title>
<g id="a_node16"><a xlink:href="classAP__HAL_1_1Print.html#acc65391952a43334f8f5c9bef341f501" target="_top" xlink:title="AP_HAL::Print::write">
<polygon fill="white" stroke="black" points="787,-91 787,-110 895,-110 895,-91 787,-91"/>
<text text-anchor="middle" x="841" y="-98" font-family="Helvetica,sans-Serif" font-size="10.00">AP_HAL::Print::write</text>
</a>
</g>
</g>
<!-- Node15&#45;&gt;Node16 -->
<g id="edge17" class="edge"><title>Node15&#45;&gt;Node16</title>
<path fill="none" stroke="midnightblue" d="M728.498,-162.74C741.428,-151.137 764.46,-131.802 787,-119.5 790.716,-117.472 794.692,-115.586 798.733,-113.852"/>
<polygon fill="midnightblue" stroke="midnightblue" points="800.193,-117.038 808.19,-110.089 797.605,-110.535 800.193,-117.038"/>
</g>
<!-- Node17 -->
<g id="node17" class="node"><title>Node17</title>
<g id="a_node17"><a xlink:href="ftoa__engine_8cpp.html#a1c28234da8f20b43c85890d4bb452947" target="_top" xlink:title="ftoa_engine">
<polygon fill="white" stroke="black" points="807.5,-243 807.5,-262 874.5,-262 874.5,-243 807.5,-243"/>
<text text-anchor="middle" x="841" y="-250" font-family="Helvetica,sans-Serif" font-size="10.00">ftoa_engine</text>
</a>
</g>
</g>
<!-- Node15&#45;&gt;Node17 -->
<g id="edge18" class="edge"><title>Node15&#45;&gt;Node17</title>
<path fill="none" stroke="midnightblue" d="M726.491,-182.003C738.713,-195.18 762.503,-219.012 787,-233.5 790.451,-235.541 794.156,-237.415 797.947,-239.125"/>
<polygon fill="midnightblue" stroke="midnightblue" points="796.865,-242.465 807.445,-243.033 799.529,-235.991 796.865,-242.465"/>
</g>
<!-- Node18 -->
<g id="node18" class="node"><title>Node18</title>
<g id="a_node18"><a xlink:href="replace_8cpp.html#a880bcc7b85a09e6254691bebd5344b51" target="_top" xlink:title="strnlen">
<polygon fill="white" stroke="black" points="818,-205 818,-224 864,-224 864,-205 818,-205"/>
<text text-anchor="middle" x="841" y="-212" font-family="Helvetica,sans-Serif" font-size="10.00">strnlen</text>
</a>
</g>
</g>
<!-- Node15&#45;&gt;Node18 -->
<g id="edge19" class="edge"><title>Node15&#45;&gt;Node18</title>
<path fill="none" stroke="midnightblue" d="M745.684,-182.03C764.243,-188.42 788.737,-196.852 808.112,-203.522"/>
<polygon fill="midnightblue" stroke="midnightblue" points="807.124,-206.884 817.719,-206.829 809.403,-200.265 807.124,-206.884"/>
</g>
<!-- Node19 -->
<g id="node19" class="node"><title>Node19</title>
<g id="a_node19"><a xlink:href="utoa__invert_8cpp.html#a34926f552460b47c414ec4d83b32815c" target="_top" xlink:title="ulltoa_invert">
<polygon fill="white" stroke="black" points="806.5,-167 806.5,-186 875.5,-186 875.5,-167 806.5,-167"/>
<text text-anchor="middle" x="841" y="-174" font-family="Helvetica,sans-Serif" font-size="10.00">ulltoa_invert</text>
</a>
</g>
</g>
<!-- Node15&#45;&gt;Node19 -->
<g id="edge20" class="edge"><title>Node15&#45;&gt;Node19</title>
<path fill="none" stroke="midnightblue" d="M751.015,-173.582C764.89,-174.037 781.232,-174.573 796.1,-175.061"/>
<polygon fill="midnightblue" stroke="midnightblue" points="795.999,-178.559 806.109,-175.389 796.229,-171.563 795.999,-178.559"/>
</g>
<!-- Node20 -->
<g id="node20" class="node"><title>Node20</title>
<g id="a_node20"><a xlink:href="utoa__invert_8cpp.html#a5d99bba8e697c1e11da489d88fca8559" target="_top" xlink:title="ultoa_invert">
<polygon fill="white" stroke="black" points="807.5,-129 807.5,-148 874.5,-148 874.5,-129 807.5,-129"/>
<text text-anchor="middle" x="841" y="-136" font-family="Helvetica,sans-Serif" font-size="10.00">ultoa_invert</text>
</a>
</g>
</g>
<!-- Node15&#45;&gt;Node20 -->
<g id="edge21" class="edge"><title>Node15&#45;&gt;Node20</title>
<path fill="none" stroke="midnightblue" d="M751.015,-163.299C765.371,-159.298 782.368,-154.561 797.64,-150.305"/>
<polygon fill="midnightblue" stroke="midnightblue" points="798.688,-153.647 807.381,-147.59 796.809,-146.904 798.688,-153.647"/>
</g>
<!-- Node23&#45;&gt;Node3 -->
<g id="edge25" class="edge"><title>Node23&#45;&gt;Node3</title>
<path fill="none" stroke="midnightblue" d="M175.075,-310.5C185.793,-310.5 197.293,-310.5 208.442,-310.5"/>
<polygon fill="midnightblue" stroke="midnightblue" points="208.549,-314 218.549,-310.5 208.549,-307 208.549,-314"/>
</g>
<!-- Node24&#45;&gt;Node9 -->
<g id="edge27" class="edge"><title>Node24&#45;&gt;Node9</title>
<path fill="none" stroke="midnightblue" d="M304.284,-168.055C310.757,-170.622 317.297,-173.752 323,-177.5 342.442,-190.276 339.087,-203.471 359,-215.5 362.576,-217.66 366.405,-219.582 370.357,-221.291"/>
<polygon fill="midnightblue" stroke="midnightblue" points="369.146,-224.576 379.736,-224.906 371.663,-218.044 369.146,-224.576"/>
</g>
<!-- Node24&#45;&gt;Node11 -->
<g id="edge29" class="edge"><title>Node24&#45;&gt;Node11</title>
<path fill="none" stroke="midnightblue" d="M310.239,-168.089C330.759,-173.104 356.067,-179.288 377.825,-184.605"/>
<polygon fill="midnightblue" stroke="midnightblue" points="376.998,-188.006 387.543,-186.98 378.66,-181.206 376.998,-188.006"/>
</g>
<!-- Node24&#45;&gt;Node13 -->
<g id="edge28" class="edge"><title>Node24&#45;&gt;Node13</title>
<path fill="none" stroke="midnightblue" d="M317.655,-156.7C330.901,-156.189 345.588,-155.622 359.775,-155.075"/>
<polygon fill="midnightblue" stroke="midnightblue" points="360.132,-158.564 369.99,-154.68 359.862,-151.569 360.132,-158.564"/>
</g>
<!-- Node24&#45;&gt;Node16 -->
<g id="edge30" class="edge"><title>Node24&#45;&gt;Node16</title>
<path fill="none" stroke="midnightblue" d="M292.576,-148.965C310.101,-141.698 335.651,-132.17 359,-127.5 506.43,-98.0154 683.98,-96.6255 776.656,-98.4127"/>
<polygon fill="midnightblue" stroke="midnightblue" points="776.643,-101.913 786.715,-98.6257 776.791,-94.9146 776.643,-101.913"/>
</g>
</g>
</svg>
