<?xml version="1.0" encoding="UTF-8" standalone="no"?>
<!DOCTYPE svg PUBLIC "-//W3C//DTD SVG 1.1//EN"
 "http://www.w3.org/Graphics/SVG/1.1/DTD/svg11.dtd">
<!-- Generated by graphviz version 2.38.0 (20140413.2041)
 -->
<!-- Title: console_loopback Pages: 1 -->
<svg width="675pt" height="210pt"
 viewBox="0.00 0.00 675.00 210.00" xmlns="http://www.w3.org/2000/svg" xmlns:xlink="http://www.w3.org/1999/xlink">
<g id="graph0" class="graph" transform="scale(1 1) rotate(0) translate(4 206)">
<title>console_loopback</title>
<polygon fill="white" stroke="none" points="-4,4 -4,-206 671,-206 671,4 -4,4"/>
<!-- Node1 -->
<g id="node1" class="node"><title>Node1</title>
<polygon fill="#bfbfbf" stroke="black" points="0,-60.5 0,-79.5 95,-79.5 95,-60.5 0,-60.5"/>
<text text-anchor="middle" x="47.5" y="-67.5" font-family="Helvetica,sans-Serif" font-size="10.00">console_loopback</text>
</g>
<!-- Node2 -->
<g id="node2" class="node"><title>Node2</title>
<g id="a_node2"><a xlink:href="classAP__HAL_1_1Stream.html#ae6aa935b5bbd553a2654bfec4e14961e" target="_top" xlink:title="AP_HAL::Stream::available">
<polygon fill="white" stroke="black" points="131,-126.5 131,-145.5 268,-145.5 268,-126.5 131,-126.5"/>
<text text-anchor="middle" x="199.5" y="-133.5" font-family="Helvetica,sans-Serif" font-size="10.00">AP_HAL::Stream::available</text>
</a>
</g>
</g>
<!-- Node1&#45;&gt;Node2 -->
<g id="edge1" class="edge"><title>Node1&#45;&gt;Node2</title>
<path fill="none" stroke="midnightblue" d="M62.8504,-79.6163C78.8884,-90.0145 105.907,-106.506 131,-117 136.54,-119.317 142.452,-121.447 148.385,-123.375"/>
<polygon fill="midnightblue" stroke="midnightblue" points="147.744,-126.839 158.331,-126.428 149.798,-120.147 147.744,-126.839"/>
</g>
<!-- Node3 -->
<g id="node3" class="node"><title>Node3</title>
<g id="a_node3"><a xlink:href="classAP__HAL_1_1UARTDriver.html#a6ceedc792594e59fc7d80b39a435f027" target="_top" xlink:title="AP_HAL::UARTDriver\l::printf">
<polygon fill="white" stroke="black" points="142,-77 142,-107 257,-107 257,-77 142,-77"/>
<text text-anchor="start" x="150" y="-95" font-family="Helvetica,sans-Serif" font-size="10.00">AP_HAL::UARTDriver</text>
<text text-anchor="middle" x="199.5" y="-84" font-family="Helvetica,sans-Serif" font-size="10.00">::printf</text>
</a>
</g>
</g>
<!-- Node1&#45;&gt;Node3 -->
<g id="edge2" class="edge"><title>Node1&#45;&gt;Node3</title>
<path fill="none" stroke="midnightblue" d="M95.1387,-76.8403C106.695,-78.5353 119.305,-80.3848 131.62,-82.1909"/>
<polygon fill="midnightblue" stroke="midnightblue" points="131.463,-85.7052 141.865,-83.6935 132.479,-78.7793 131.463,-85.7052"/>
</g>
<!-- Node6 -->
<g id="node6" class="node"><title>Node6</title>
<g id="a_node6"><a xlink:href="classAP__HAL_1_1Print.html#acc65391952a43334f8f5c9bef341f501" target="_top" xlink:title="AP_HAL::Print::write">
<polygon fill="white" stroke="black" points="559,-30.5 559,-49.5 667,-49.5 667,-30.5 559,-30.5"/>
<text text-anchor="middle" x="613" y="-37.5" font-family="Helvetica,sans-Serif" font-size="10.00">AP_HAL::Print::write</text>
</a>
</g>
</g>
<!-- Node1&#45;&gt;Node6 -->
<g id="edge11" class="edge"><title>Node1&#45;&gt;Node6</title>
<path fill="none" stroke="midnightblue" d="M95.093,-67.5195C195.942,-62.1504 434.553,-49.447 548.842,-43.3625"/>
<polygon fill="midnightblue" stroke="midnightblue" points="549.043,-46.8568 558.843,-42.83 548.671,-39.8667 549.043,-46.8568"/>
</g>
<!-- Node11 -->
<g id="node11" class="node"><title>Node11</title>
<g id="a_node11"><a xlink:href="classAP__HAL_1_1Stream.html#ae42ff362cc2a7e527c22f92a3740c2ac" target="_top" xlink:title="AP_HAL::Stream::read">
<polygon fill="white" stroke="black" points="141,-0.5 141,-19.5 258,-19.5 258,-0.5 141,-0.5"/>
<text text-anchor="middle" x="199.5" y="-7.5" font-family="Helvetica,sans-Serif" font-size="10.00">AP_HAL::Stream::read</text>
</a>
</g>
</g>
<!-- Node1&#45;&gt;Node11 -->
<g id="edge10" class="edge"><title>Node1&#45;&gt;Node11</title>
<path fill="none" stroke="midnightblue" d="M69.3541,-60.4187C85.9327,-52.9188 109.783,-42.3893 131,-34 140.443,-30.2664 150.728,-26.4732 160.357,-23.0383"/>
<polygon fill="midnightblue" stroke="midnightblue" points="161.825,-26.232 170.092,-19.6059 159.497,-19.6303 161.825,-26.232"/>
</g>
<!-- Node4 -->
<g id="node4" class="node"><title>Node4</title>
<g id="a_node4"><a xlink:href="classAP__HAL_1_1UARTDriver.html#aa8abfb6d6641299472c29ac1edde559f" target="_top" xlink:title="AP_HAL::UARTDriver\l::vprintf">
<polygon fill="white" stroke="black" points="304,-93 304,-123 419,-123 419,-93 304,-93"/>
<text text-anchor="start" x="312" y="-111" font-family="Helvetica,sans-Serif" font-size="10.00">AP_HAL::UARTDriver</text>
<text text-anchor="middle" x="361.5" y="-100" font-family="Helvetica,sans-Serif" font-size="10.00">::vprintf</text>
</a>
</g>
</g>
<!-- Node3&#45;&gt;Node4 -->
<g id="edge3" class="edge"><title>Node3&#45;&gt;Node4</title>
<path fill="none" stroke="midnightblue" d="M257.361,-97.6861C269.15,-98.865 281.672,-100.117 293.778,-101.328"/>
<polygon fill="midnightblue" stroke="midnightblue" points="293.524,-104.82 303.823,-102.332 294.221,-97.8545 293.524,-104.82"/>
</g>
<!-- Node5 -->
<g id="node5" class="node"><title>Node5</title>
<g id="a_node5"><a xlink:href="print__vprintf_8cpp.html#a1534eaeab54696df96975b56d9f49212" target="_top" xlink:title="print_vprintf">
<polygon fill="white" stroke="black" points="455,-102.5 455,-121.5 523,-121.5 523,-102.5 455,-102.5"/>
<text text-anchor="middle" x="489" y="-109.5" font-family="Helvetica,sans-Serif" font-size="10.00">print_vprintf</text>
</a>
</g>
</g>
<!-- Node4&#45;&gt;Node5 -->
<g id="edge4" class="edge"><title>Node4&#45;&gt;Node5</title>
<path fill="none" stroke="midnightblue" d="M419.009,-109.801C427.609,-110.075 436.367,-110.354 444.628,-110.618"/>
<polygon fill="midnightblue" stroke="midnightblue" points="444.671,-114.121 454.777,-110.941 444.894,-107.124 444.671,-114.121"/>
</g>
<!-- Node5&#45;&gt;Node6 -->
<g id="edge5" class="edge"><title>Node5&#45;&gt;Node6</title>
<path fill="none" stroke="midnightblue" d="M500.498,-102.24C513.428,-90.6374 536.46,-71.3022 559,-59 562.716,-56.9717 566.692,-55.0859 570.733,-53.3524"/>
<polygon fill="midnightblue" stroke="midnightblue" points="572.193,-56.5384 580.19,-49.5885 569.605,-50.0345 572.193,-56.5384"/>
</g>
<!-- Node7 -->
<g id="node7" class="node"><title>Node7</title>
<g id="a_node7"><a xlink:href="ftoa__engine_8cpp.html#a1c28234da8f20b43c85890d4bb452947" target="_top" xlink:title="ftoa_engine">
<polygon fill="white" stroke="black" points="579.5,-144.5 579.5,-163.5 646.5,-163.5 646.5,-144.5 579.5,-144.5"/>
<text text-anchor="middle" x="613" y="-151.5" font-family="Helvetica,sans-Serif" font-size="10.00">ftoa_engine</text>
</a>
</g>
</g>
<!-- Node5&#45;&gt;Node7 -->
<g id="edge6" class="edge"><title>Node5&#45;&gt;Node7</title>
<path fill="none" stroke="midnightblue" d="M517.684,-121.53C534.489,-127.316 556.16,-134.777 574.491,-141.087"/>
<polygon fill="midnightblue" stroke="midnightblue" points="573.409,-144.416 584.004,-144.362 575.687,-137.797 573.409,-144.416"/>
</g>
<!-- Node8 -->
<g id="node8" class="node"><title>Node8</title>
<g id="a_node8"><a xlink:href="replace_8cpp.html#a880bcc7b85a09e6254691bebd5344b51" target="_top" xlink:title="strnlen">
<polygon fill="white" stroke="black" points="590,-106.5 590,-125.5 636,-125.5 636,-106.5 590,-106.5"/>
<text text-anchor="middle" x="613" y="-113.5" font-family="Helvetica,sans-Serif" font-size="10.00">strnlen</text>
</a>
</g>
</g>
<!-- Node5&#45;&gt;Node8 -->
<g id="edge7" class="edge"><title>Node5&#45;&gt;Node8</title>
<path fill="none" stroke="midnightblue" d="M523.015,-113.082C540.547,-113.657 562.016,-114.361 579.474,-114.934"/>
<polygon fill="midnightblue" stroke="midnightblue" points="579.645,-118.441 589.754,-115.271 579.874,-111.445 579.645,-118.441"/>
</g>
<!-- Node9 -->
<g id="node9" class="node"><title>Node9</title>
<g id="a_node9"><a xlink:href="utoa__invert_8cpp.html#a34926f552460b47c414ec4d83b32815c" target="_top" xlink:title="ulltoa_invert">
<polygon fill="white" stroke="black" points="578.5,-68.5 578.5,-87.5 647.5,-87.5 647.5,-68.5 578.5,-68.5"/>
<text text-anchor="middle" x="613" y="-75.5" font-family="Helvetica,sans-Serif" font-size="10.00">ulltoa_invert</text>
</a>
</g>
</g>
<!-- Node5&#45;&gt;Node9 -->
<g id="edge8" class="edge"><title>Node5&#45;&gt;Node9</title>
<path fill="none" stroke="midnightblue" d="M523.015,-102.799C536.89,-98.9322 553.232,-94.3779 568.1,-90.2345"/>
<polygon fill="midnightblue" stroke="midnightblue" points="569.415,-93.5013 578.109,-87.4451 567.536,-86.7583 569.415,-93.5013"/>
</g>
<!-- Node10 -->
<g id="node10" class="node"><title>Node10</title>
<g id="a_node10"><a xlink:href="utoa__invert_8cpp.html#a5d99bba8e697c1e11da489d88fca8559" target="_top" xlink:title="ultoa_invert">
<polygon fill="white" stroke="black" points="579.5,-182.5 579.5,-201.5 646.5,-201.5 646.5,-182.5 579.5,-182.5"/>
<text text-anchor="middle" x="613" y="-189.5" font-family="Helvetica,sans-Serif" font-size="10.00">ultoa_invert</text>
</a>
</g>
</g>
<!-- Node5&#45;&gt;Node10 -->
<g id="edge9" class="edge"><title>Node5&#45;&gt;Node10</title>
<path fill="none" stroke="midnightblue" d="M498.491,-121.503C510.713,-134.68 534.503,-158.512 559,-173 562.451,-175.041 566.156,-176.915 569.947,-178.625"/>
<polygon fill="midnightblue" stroke="midnightblue" points="568.865,-181.965 579.445,-182.533 571.529,-175.491 568.865,-181.965"/>
</g>
</g>
</svg>
