<?xml version="1.0" encoding="UTF-8" standalone="no"?>
<!DOCTYPE svg PUBLIC "-//W3C//DTD SVG 1.1//EN"
 "http://www.w3.org/Graphics/SVG/1.1/DTD/svg11.dtd">
<!-- Generated by graphviz version 2.38.0 (20140413.2041)
 -->
<!-- Title: libraries/RC_Channel Pages: 1 -->
<svg width="207pt" height="375pt"
 viewBox="0.00 0.00 207.00 375.00" xmlns="http://www.w3.org/2000/svg" xmlns:xlink="http://www.w3.org/1999/xlink">
<g id="graph0" class="graph" transform="scale(1 1) rotate(0) translate(4 371)">
<title>libraries/RC_Channel</title>
<polygon fill="white" stroke="none" points="-4,4 -4,-371 203,-371 203,4 -4,4"/>
<g id="clust1" class="cluster"><title>clusterdir_bc0718b08fb2015b8e59c47b2805f60c</title>
<g id="a_clust1"><a xlink:href="dir_bc0718b08fb2015b8e59c47b2805f60c.html" target="_top" xlink:title="libraries">
<polygon fill="#ddddee" stroke="black" points="8,-272 8,-359 191,-359 191,-272 8,-272"/>
<text text-anchor="middle" x="99.5" y="-347" font-family="Helvetica,sans-Serif" font-size="10.00">libraries</text>
</a>
</g>
</g>
<g id="clust2" class="cluster"><title>clusterdir_9517a59ccb1d85d9df7fc09e86ba5740</title>
<g id="a_clust2"><a xlink:href="dir_9517a59ccb1d85d9df7fc09e86ba5740.html" target="_top">
<polygon fill="#eeeeff" stroke="black" points="16,-280 16,-332 183,-332 183,-280 16,-280"/>
</a>
</g>
</g>
<!-- dir_9517a59ccb1d85d9df7fc09e86ba5740 -->
<g id="node1" class="node"><title>dir_9517a59ccb1d85d9df7fc09e86ba5740</title>
<text text-anchor="middle" x="138" y="-303.5" font-family="Helvetica,sans-Serif" font-size="10.00">RC_Channel</text>
</g>
<!-- dir_200d929b8d5577e7f19dc05ce443c612 -->
<g id="node4" class="node"><title>dir_200d929b8d5577e7f19dc05ce443c612</title>
<g id="a_node4"><a xlink:href="dir_200d929b8d5577e7f19dc05ce443c612.html" target="_top" xlink:title="AP_Param">
<polygon fill="white" stroke="red" points="178,-252 114,-252 114,-216 178,-216 178,-252"/>
<text text-anchor="middle" x="146" y="-231.5" font-family="Helvetica,sans-Serif" font-size="10.00">AP_Param</text>
</a>
</g>
</g>
<!-- dir_9517a59ccb1d85d9df7fc09e86ba5740&#45;&gt;dir_200d929b8d5577e7f19dc05ce443c612 -->
<g id="edge1" class="edge"><title>dir_9517a59ccb1d85d9df7fc09e86ba5740&#45;&gt;dir_200d929b8d5577e7f19dc05ce443c612</title>
<path fill="none" stroke="black" d="M139.978,-287.697C140.859,-279.983 141.919,-270.712 142.901,-262.112"/>
<polygon fill="black" stroke="black" points="146.387,-262.437 144.045,-252.104 139.432,-261.642 146.387,-262.437"/>
<g id="a_edge1&#45;headlabel"><a xlink:href="dir_000180_000133.html" target="_top" xlink:title="1">
<text text-anchor="middle" x="148.8" y="-263.831" font-family="Helvetica,sans-Serif" font-size="10.00">1</text>
</a>
</g>
</g>
<!-- dir_93fb9127672489656ce87df72f6e986d -->
<g id="node5" class="node"><title>dir_93fb9127672489656ce87df72f6e986d</title>
<g id="a_node5"><a xlink:href="dir_93fb9127672489656ce87df72f6e986d.html" target="_top" xlink:title="AP_Math">
<polygon fill="white" stroke="red" points="124.5,-108 67.5,-108 67.5,-72 124.5,-72 124.5,-108"/>
<text text-anchor="middle" x="96" y="-87.5" font-family="Helvetica,sans-Serif" font-size="10.00">AP_Math</text>
</a>
</g>
</g>
<!-- dir_9517a59ccb1d85d9df7fc09e86ba5740&#45;&gt;dir_93fb9127672489656ce87df72f6e986d -->
<g id="edge2" class="edge"><title>dir_9517a59ccb1d85d9df7fc09e86ba5740&#45;&gt;dir_93fb9127672489656ce87df72f6e986d</title>
<path fill="none" stroke="black" d="M124.3,-287.953C117.178,-278.064 109.119,-265.021 105,-252 90.7387,-206.917 91.3784,-151.237 93.4643,-118.57"/>
<polygon fill="black" stroke="black" points="96.9677,-118.652 94.2077,-108.422 89.9864,-118.14 96.9677,-118.652"/>
<g id="a_edge2&#45;headlabel"><a xlink:href="dir_000180_000095.html" target="_top" xlink:title="2">
<text text-anchor="middle" x="99.5368" y="-119.944" font-family="Helvetica,sans-Serif" font-size="10.00">2</text>
</a>
</g>
</g>
<!-- dir_df3f4256615fd4197927a84a019a8bd8 -->
<g id="node6" class="node"><title>dir_df3f4256615fd4197927a84a019a8bd8</title>
<g id="a_node6"><a xlink:href="dir_df3f4256615fd4197927a84a019a8bd8.html" target="_top" xlink:title="AP_Common">
<polygon fill="white" stroke="red" points="133.5,-36 58.5,-36 58.5,-0 133.5,-0 133.5,-36"/>
<text text-anchor="middle" x="96" y="-15.5" font-family="Helvetica,sans-Serif" font-size="10.00">AP_Common</text>
</a>
</g>
</g>
<!-- dir_9517a59ccb1d85d9df7fc09e86ba5740&#45;&gt;dir_df3f4256615fd4197927a84a019a8bd8 -->
<g id="edge3" class="edge"><title>dir_9517a59ccb1d85d9df7fc09e86ba5740&#45;&gt;dir_df3f4256615fd4197927a84a019a8bd8</title>
<path fill="none" stroke="black" d="M160.153,-287.875C170.41,-278.524 181.519,-266.003 187,-252 192.832,-237.101 188.903,-231.886 187,-216 179.167,-150.604 185.05,-128.971 152,-72 145.703,-61.1449 136.508,-51.1325 127.381,-42.8013"/>
<polygon fill="black" stroke="black" points="129.643,-40.1296 119.797,-36.2169 125.054,-45.4156 129.643,-40.1296"/>
<g id="a_edge3&#45;headlabel"><a xlink:href="dir_000180_000034.html" target="_top" xlink:title="1">
<text text-anchor="middle" x="134.219" y="-37.842" font-family="Helvetica,sans-Serif" font-size="10.00">1</text>
</a>
</g>
</g>
<!-- dir_87a8b0964ceaca0c3f55018258a8a9ad -->
<g id="node2" class="node"><title>dir_87a8b0964ceaca0c3f55018258a8a9ad</title>
<g id="a_node2"><a xlink:href="dir_87a8b0964ceaca0c3f55018258a8a9ad.html" target="_top" xlink:title="examples">
<polygon fill="white" stroke="red" points="83.5,-324 24.5,-324 24.5,-288 83.5,-288 83.5,-324"/>
<text text-anchor="middle" x="54" y="-303.5" font-family="Helvetica,sans-Serif" font-size="10.00">examples</text>
</a>
</g>
</g>
<!-- dir_1cbc10423b2512b31103883361e0123b -->
<g id="node3" class="node"><title>dir_1cbc10423b2512b31103883361e0123b</title>
<g id="a_node3"><a xlink:href="dir_1cbc10423b2512b31103883361e0123b.html" target="_top" xlink:title="AP_HAL">
<polygon fill="white" stroke="red" points="57.5,-180 2.5,-180 2.5,-144 57.5,-144 57.5,-180"/>
<text text-anchor="middle" x="30" y="-159.5" font-family="Helvetica,sans-Serif" font-size="10.00">AP_HAL</text>
</a>
</g>
</g>
<!-- dir_87a8b0964ceaca0c3f55018258a8a9ad&#45;&gt;dir_1cbc10423b2512b31103883361e0123b -->
<g id="edge12" class="edge"><title>dir_87a8b0964ceaca0c3f55018258a8a9ad&#45;&gt;dir_1cbc10423b2512b31103883361e0123b</title>
<path fill="none" stroke="black" d="M51.105,-287.871C47.0147,-263.67 39.5004,-219.211 34.6298,-190.393"/>
<polygon fill="black" stroke="black" points="38.0229,-189.466 32.9052,-180.189 31.1208,-190.633 38.0229,-189.466"/>
<g id="a_edge12&#45;headlabel"><a xlink:href="dir_000181_000055.html" target="_top" xlink:title="2">
<text text-anchor="middle" x="41.4214" y="-190.037" font-family="Helvetica,sans-Serif" font-size="10.00">2</text>
</a>
</g>
</g>
<!-- dir_1cbc10423b2512b31103883361e0123b&#45;&gt;dir_93fb9127672489656ce87df72f6e986d -->
<g id="edge4" class="edge"><title>dir_1cbc10423b2512b31103883361e0123b&#45;&gt;dir_93fb9127672489656ce87df72f6e986d</title>
<path fill="none" stroke="black" d="M40.3989,-143.697C47.5881,-135.135 57.2861,-124.656 66.6226,-115.304"/>
<polygon fill="black" stroke="black" points="69.2803,-117.601 73.978,-108.104 64.3836,-112.598 69.2803,-117.601"/>
<g id="a_edge4&#45;headlabel"><a xlink:href="dir_000055_000095.html" target="_top" xlink:title="1">
<text text-anchor="middle" x="68.6977" y="-119.644" font-family="Helvetica,sans-Serif" font-size="10.00">1</text>
</a>
</g>
</g>
<!-- dir_1cbc10423b2512b31103883361e0123b&#45;&gt;dir_df3f4256615fd4197927a84a019a8bd8 -->
<g id="edge5" class="edge"><title>dir_1cbc10423b2512b31103883361e0123b&#45;&gt;dir_df3f4256615fd4197927a84a019a8bd8</title>
<path fill="none" stroke="black" d="M27.0148,-143.985C28.9739,-125.605 37.1253,-95.763 49,-72 53.8325,-62.3294 60.3466,-52.4995 67.0826,-43.9746"/>
<polygon fill="black" stroke="black" points="69.8175,-46.1602 73.5611,-36.2487 64.4538,-41.6623 69.8175,-46.1602"/>
<g id="a_edge5&#45;headlabel"><a xlink:href="dir_000055_000034.html" target="_top" xlink:title="10">
<text text-anchor="middle" x="69.6834" y="-48.2389" font-family="Helvetica,sans-Serif" font-size="10.00">10</text>
</a>
</g>
</g>
<!-- dir_200d929b8d5577e7f19dc05ce443c612&#45;&gt;dir_1cbc10423b2512b31103883361e0123b -->
<g id="edge6" class="edge"><title>dir_200d929b8d5577e7f19dc05ce443c612&#45;&gt;dir_1cbc10423b2512b31103883361e0123b</title>
<path fill="none" stroke="black" d="M117.623,-215.876C102.23,-206.587 83.031,-195.001 66.5312,-185.045"/>
<polygon fill="black" stroke="black" points="68.0538,-181.876 57.6835,-179.706 64.4371,-187.869 68.0538,-181.876"/>
<g id="a_edge6&#45;headlabel"><a xlink:href="dir_000133_000055.html" target="_top" xlink:title="2">
<text text-anchor="middle" x="72.5984" y="-178.802" font-family="Helvetica,sans-Serif" font-size="10.00">2</text>
</a>
</g>
</g>
<!-- dir_200d929b8d5577e7f19dc05ce443c612&#45;&gt;dir_93fb9127672489656ce87df72f6e986d -->
<g id="edge7" class="edge"><title>dir_200d929b8d5577e7f19dc05ce443c612&#45;&gt;dir_93fb9127672489656ce87df72f6e986d</title>
<path fill="none" stroke="black" d="M135.384,-215.871C124.256,-191.564 108.218,-146.819 100.079,-118.013"/>
<polygon fill="black" stroke="black" points="103.418,-116.951 97.4617,-108.189 96.6541,-118.753 103.418,-116.951"/>
<g id="a_edge7&#45;headlabel"><a xlink:href="dir_000133_000095.html" target="_top" xlink:title="1">
<text text-anchor="middle" x="107.087" y="-117.194" font-family="Helvetica,sans-Serif" font-size="10.00">1</text>
</a>
</g>
</g>
<!-- dir_200d929b8d5577e7f19dc05ce443c612&#45;&gt;dir_df3f4256615fd4197927a84a019a8bd8 -->
<g id="edge8" class="edge"><title>dir_200d929b8d5577e7f19dc05ce443c612&#45;&gt;dir_df3f4256615fd4197927a84a019a8bd8</title>
<path fill="none" stroke="black" d="M147.84,-215.8C150.39,-185.512 152.685,-121.209 133,-72 129.164,-62.4112 123.305,-52.8671 117.372,-44.5747"/>
<polygon fill="black" stroke="black" points="120.056,-42.3205 111.245,-36.437 114.464,-46.531 120.056,-42.3205"/>
<g id="a_edge8&#45;headlabel"><a xlink:href="dir_000133_000034.html" target="_top" xlink:title="1">
<text text-anchor="middle" x="124.486" y="-40.9844" font-family="Helvetica,sans-Serif" font-size="10.00">1</text>
</a>
</g>
</g>
<!-- dir_93fb9127672489656ce87df72f6e986d&#45;&gt;dir_1cbc10423b2512b31103883361e0123b -->
<g id="edge9" class="edge"><title>dir_93fb9127672489656ce87df72f6e986d&#45;&gt;dir_1cbc10423b2512b31103883361e0123b</title>
<path fill="none" stroke="black" d="M85.7681,-108.104C78.618,-116.636 68.9368,-127.108 59.5949,-136.478"/>
<polygon fill="black" stroke="black" points="56.9215,-134.197 52.2303,-143.697 61.8217,-139.196 56.9215,-134.197"/>
<g id="a_edge9&#45;headlabel"><a xlink:href="dir_000095_000055.html" target="_top" xlink:title="9">
<text text-anchor="middle" x="57.5009" y="-127.153" font-family="Helvetica,sans-Serif" font-size="10.00">9</text>
</a>
</g>
</g>
<!-- dir_93fb9127672489656ce87df72f6e986d&#45;&gt;dir_200d929b8d5577e7f19dc05ce443c612 -->
<g id="edge10" class="edge"><title>dir_93fb9127672489656ce87df72f6e986d&#45;&gt;dir_200d929b8d5577e7f19dc05ce443c612</title>
<path fill="none" stroke="black" d="M106.643,-108.189C117.78,-132.531 133.816,-177.28 141.941,-206.059"/>
<polygon fill="black" stroke="black" points="138.599,-207.108 144.553,-215.871 145.363,-205.308 138.599,-207.108"/>
<g id="a_edge10&#45;headlabel"><a xlink:href="dir_000095_000133.html" target="_top" xlink:title="1">
<text text-anchor="middle" x="134.93" y="-201.865" font-family="Helvetica,sans-Serif" font-size="10.00">1</text>
</a>
</g>
</g>
<!-- dir_93fb9127672489656ce87df72f6e986d&#45;&gt;dir_df3f4256615fd4197927a84a019a8bd8 -->
<g id="edge11" class="edge"><title>dir_93fb9127672489656ce87df72f6e986d&#45;&gt;dir_df3f4256615fd4197927a84a019a8bd8</title>
<path fill="none" stroke="black" d="M90.0843,-71.6966C89.2886,-63.9827 89.0621,-54.7125 89.4047,-46.1124"/>
<polygon fill="black" stroke="black" points="92.8984,-46.3243 90.105,-36.1043 85.9154,-45.8356 92.8984,-46.3243"/>
<g id="a_edge11&#45;headlabel"><a xlink:href="dir_000095_000034.html" target="_top" xlink:title="3">
<text text-anchor="middle" x="95.4799" y="-47.6083" font-family="Helvetica,sans-Serif" font-size="10.00">3</text>
</a>
</g>
</g>
<!-- dir_df3f4256615fd4197927a84a019a8bd8&#45;&gt;dir_1cbc10423b2512b31103883361e0123b -->
<g id="edge13" class="edge"><title>dir_df3f4256615fd4197927a84a019a8bd8&#45;&gt;dir_1cbc10423b2512b31103883361e0123b</title>
<path fill="none" stroke="black" d="M89.415,-36.2487C82.682,-46.2003 73.3769,-59.2388 67,-72 57.0271,-91.9572 49.6804,-116.202 43.6191,-134.344"/>
<polygon fill="black" stroke="black" points="40.2455,-133.391 40.2824,-143.985 46.8606,-135.68 40.2455,-133.391"/>
<g id="a_edge13&#45;headlabel"><a xlink:href="dir_000034_000055.html" target="_top" xlink:title="5">
<text text-anchor="middle" x="38.738" y="-126.565" font-family="Helvetica,sans-Serif" font-size="10.00">5</text>
</a>
</g>
</g>
<!-- dir_df3f4256615fd4197927a84a019a8bd8&#45;&gt;dir_93fb9127672489656ce87df72f6e986d -->
<g id="edge14" class="edge"><title>dir_df3f4256615fd4197927a84a019a8bd8&#45;&gt;dir_93fb9127672489656ce87df72f6e986d</title>
<path fill="none" stroke="black" d="M101.895,-36.1043C102.701,-43.7913 102.937,-53.0537 102.604,-61.6651"/>
<polygon fill="black" stroke="black" points="99.1085,-61.4805 101.916,-71.6966 106.092,-61.9597 99.1085,-61.4805"/>
<g id="a_edge14&#45;headlabel"><a xlink:href="dir_000034_000095.html" target="_top" xlink:title="1">
<text text-anchor="middle" x="96.5219" y="-55.2" font-family="Helvetica,sans-Serif" font-size="10.00">1</text>
</a>
</g>
</g>
</g>
</svg>
