<?xml version="1.0" encoding="UTF-8" standalone="no"?>
<!DOCTYPE svg PUBLIC "-//W3C//DTD SVG 1.1//EN"
 "http://www.w3.org/Graphics/SVG/1.1/DTD/svg11.dtd">
<!-- Generated by graphviz version 2.38.0 (20140413.2041)
 -->
<!-- Title: libraries/AP_Beacon Pages: 1 -->
<svg width="313pt" height="439pt"
 viewBox="0.00 0.00 312.85 439.00" xmlns="http://www.w3.org/2000/svg" xmlns:xlink="http://www.w3.org/1999/xlink">
<g id="graph0" class="graph" transform="scale(1 1) rotate(0) translate(4 435)">
<title>libraries/AP_Beacon</title>
<polygon fill="white" stroke="none" points="-4,4 -4,-435 308.851,-435 308.851,4 -4,4"/>
<g id="clust1" class="cluster"><title>clusterdir_bc0718b08fb2015b8e59c47b2805f60c</title>
<g id="a_clust1"><a xlink:href="dir_bc0718b08fb2015b8e59c47b2805f60c.html" target="_top" xlink:title="libraries">
<polygon fill="#ddddee" stroke="black" points="111,-352 111,-423 195,-423 195,-352 111,-352"/>
<text text-anchor="middle" x="153" y="-411" font-family="Helvetica,sans-Serif" font-size="10.00">libraries</text>
</a>
</g>
</g>
<!-- dir_7ec2074a02ae13fc9cf25e76bb4c2f79 -->
<g id="node1" class="node"><title>dir_7ec2074a02ae13fc9cf25e76bb4c2f79</title>
<g id="a_node1"><a xlink:href="dir_7ec2074a02ae13fc9cf25e76bb4c2f79.html" target="_top" xlink:title="AP_Beacon">
<polygon fill="#eeeeff" stroke="black" points="187,-396 119,-396 119,-360 187,-360 187,-396"/>
<text text-anchor="middle" x="153" y="-375.5" font-family="Helvetica,sans-Serif" font-size="10.00">AP_Beacon</text>
</a>
</g>
</g>
<!-- dir_1cbc10423b2512b31103883361e0123b -->
<g id="node2" class="node"><title>dir_1cbc10423b2512b31103883361e0123b</title>
<g id="a_node2"><a xlink:href="dir_1cbc10423b2512b31103883361e0123b.html" target="_top" xlink:title="AP_HAL">
<polygon fill="white" stroke="red" points="159.5,-252 104.5,-252 104.5,-216 159.5,-216 159.5,-252"/>
<text text-anchor="middle" x="132" y="-231.5" font-family="Helvetica,sans-Serif" font-size="10.00">AP_HAL</text>
</a>
</g>
</g>
<!-- dir_7ec2074a02ae13fc9cf25e76bb4c2f79&#45;&gt;dir_1cbc10423b2512b31103883361e0123b -->
<g id="edge9" class="edge"><title>dir_7ec2074a02ae13fc9cf25e76bb4c2f79&#45;&gt;dir_1cbc10423b2512b31103883361e0123b</title>
<path fill="none" stroke="black" d="M162.305,-359.968C170.955,-341.83 181.346,-312.428 173,-288 169.559,-277.927 163.34,-268.284 156.768,-260.05"/>
<polygon fill="black" stroke="black" points="159.324,-257.654 150.169,-252.323 154.001,-262.2 159.324,-257.654"/>
<g id="a_edge9&#45;headlabel"><a xlink:href="dir_000029_000055.html" target="_top" xlink:title="4">
<text text-anchor="middle" x="163.818" y="-256.044" font-family="Helvetica,sans-Serif" font-size="10.00">4</text>
</a>
</g>
</g>
<!-- dir_200d929b8d5577e7f19dc05ce443c612 -->
<g id="node3" class="node"><title>dir_200d929b8d5577e7f19dc05ce443c612</title>
<g id="a_node3"><a xlink:href="dir_200d929b8d5577e7f19dc05ce443c612.html" target="_top" xlink:title="AP_Param">
<polygon fill="white" stroke="red" points="225,-108 161,-108 161,-72 225,-72 225,-108"/>
<text text-anchor="middle" x="193" y="-87.5" font-family="Helvetica,sans-Serif" font-size="10.00">AP_Param</text>
</a>
</g>
</g>
<!-- dir_7ec2074a02ae13fc9cf25e76bb4c2f79&#45;&gt;dir_200d929b8d5577e7f19dc05ce443c612 -->
<g id="edge10" class="edge"><title>dir_7ec2074a02ae13fc9cf25e76bb4c2f79&#45;&gt;dir_200d929b8d5577e7f19dc05ce443c612</title>
<path fill="none" stroke="black" d="M118.648,-367.851C96.8183,-360.061 70.2568,-346.462 57,-324 48.8676,-310.221 53.1531,-303.531 57,-288 74.6505,-216.742 132.693,-150.028 166.983,-115.513"/>
<polygon fill="black" stroke="black" points="169.681,-117.768 174.328,-108.247 164.758,-112.792 169.681,-117.768"/>
<g id="a_edge10&#45;headlabel"><a xlink:href="dir_000029_000133.html" target="_top" xlink:title="1">
<text text-anchor="middle" x="169.122" y="-119.815" font-family="Helvetica,sans-Serif" font-size="10.00">1</text>
</a>
</g>
</g>
<!-- dir_6094d1505bd35c5350b5dace379b2456 -->
<g id="node4" class="node"><title>dir_6094d1505bd35c5350b5dace379b2456</title>
<g id="a_node4"><a xlink:href="dir_6094d1505bd35c5350b5dace379b2456.html" target="_top" xlink:title="AP_SerialManager">
<polygon fill="none" stroke="black" points="164,-324 66,-324 66,-288 164,-288 164,-324"/>
<text text-anchor="middle" x="115" y="-303.5" font-family="Helvetica,sans-Serif" font-size="10.00">AP_SerialManager</text>
</a>
</g>
</g>
<!-- dir_7ec2074a02ae13fc9cf25e76bb4c2f79&#45;&gt;dir_6094d1505bd35c5350b5dace379b2456 -->
<g id="edge11" class="edge"><title>dir_7ec2074a02ae13fc9cf25e76bb4c2f79&#45;&gt;dir_6094d1505bd35c5350b5dace379b2456</title>
<path fill="none" stroke="black" d="M143.607,-359.697C139.235,-351.644 133.943,-341.894 129.105,-332.982"/>
<polygon fill="black" stroke="black" points="132.132,-331.223 124.285,-324.104 125.98,-334.563 132.132,-331.223"/>
<g id="a_edge11&#45;headlabel"><a xlink:href="dir_000029_000149.html" target="_top" xlink:title="1">
<text text-anchor="middle" x="136.342" y="-330.528" font-family="Helvetica,sans-Serif" font-size="10.00">1</text>
</a>
</g>
</g>
<!-- dir_13eab70ce57f7c32b503e967c08f6d3d -->
<g id="node5" class="node"><title>dir_13eab70ce57f7c32b503e967c08f6d3d</title>
<g id="a_node5"><a xlink:href="dir_13eab70ce57f7c32b503e967c08f6d3d.html" target="_top" xlink:title="SITL">
<polygon fill="none" stroke="black" points="274,-324 220,-324 220,-288 274,-288 274,-324"/>
<text text-anchor="middle" x="247" y="-303.5" font-family="Helvetica,sans-Serif" font-size="10.00">SITL</text>
</a>
</g>
</g>
<!-- dir_7ec2074a02ae13fc9cf25e76bb4c2f79&#45;&gt;dir_13eab70ce57f7c32b503e967c08f6d3d -->
<g id="edge12" class="edge"><title>dir_7ec2074a02ae13fc9cf25e76bb4c2f79&#45;&gt;dir_13eab70ce57f7c32b503e967c08f6d3d</title>
<path fill="none" stroke="black" d="M176.236,-359.697C188.188,-350.796 202.923,-339.823 215.847,-330.199"/>
<polygon fill="black" stroke="black" points="218.101,-332.884 224.031,-324.104 213.92,-327.27 218.101,-332.884"/>
<g id="a_edge12&#45;headlabel"><a xlink:href="dir_000029_000184.html" target="_top" xlink:title="1">
<text text-anchor="middle" x="216.914" y="-334.808" font-family="Helvetica,sans-Serif" font-size="10.00">1</text>
</a>
</g>
</g>
<!-- dir_93fb9127672489656ce87df72f6e986d -->
<g id="node6" class="node"><title>dir_93fb9127672489656ce87df72f6e986d</title>
<g id="a_node6"><a xlink:href="dir_93fb9127672489656ce87df72f6e986d.html" target="_top" xlink:title="AP_Math">
<polygon fill="white" stroke="red" points="293.5,-180 236.5,-180 236.5,-144 293.5,-144 293.5,-180"/>
<text text-anchor="middle" x="265" y="-159.5" font-family="Helvetica,sans-Serif" font-size="10.00">AP_Math</text>
</a>
</g>
</g>
<!-- dir_7ec2074a02ae13fc9cf25e76bb4c2f79&#45;&gt;dir_93fb9127672489656ce87df72f6e986d -->
<g id="edge13" class="edge"><title>dir_7ec2074a02ae13fc9cf25e76bb4c2f79&#45;&gt;dir_93fb9127672489656ce87df72f6e986d</title>
<path fill="none" stroke="black" d="M187.006,-373.551C217.874,-368.415 261.72,-355.656 283,-324 310.277,-283.423 292.208,-223.713 277.801,-189.567"/>
<polygon fill="black" stroke="black" points="280.927,-187.981 273.688,-180.245 274.522,-190.807 280.927,-187.981"/>
<g id="a_edge13&#45;headlabel"><a xlink:href="dir_000029_000095.html" target="_top" xlink:title="2">
<text text-anchor="middle" x="284.975" y="-187.624" font-family="Helvetica,sans-Serif" font-size="10.00">2</text>
</a>
</g>
</g>
<!-- dir_df3f4256615fd4197927a84a019a8bd8 -->
<g id="node7" class="node"><title>dir_df3f4256615fd4197927a84a019a8bd8</title>
<g id="a_node7"><a xlink:href="dir_df3f4256615fd4197927a84a019a8bd8.html" target="_top" xlink:title="AP_Common">
<polygon fill="white" stroke="red" points="195.5,-36 120.5,-36 120.5,-0 195.5,-0 195.5,-36"/>
<text text-anchor="middle" x="158" y="-15.5" font-family="Helvetica,sans-Serif" font-size="10.00">AP_Common</text>
</a>
</g>
</g>
<!-- dir_7ec2074a02ae13fc9cf25e76bb4c2f79&#45;&gt;dir_df3f4256615fd4197927a84a019a8bd8 -->
<g id="edge14" class="edge"><title>dir_7ec2074a02ae13fc9cf25e76bb4c2f79&#45;&gt;dir_df3f4256615fd4197927a84a019a8bd8</title>
<path fill="none" stroke="black" d="M118.918,-365.62C96.9113,-356.934 68.7971,-343.174 49,-324 16.5649,-292.585 0,-280.154 0,-235 0,-235 0,-235 0,-161 0,-100.791 64.2538,-59.6262 110.811,-37.7016"/>
<polygon fill="black" stroke="black" points="112.506,-40.7756 120.155,-33.4443 109.604,-34.4056 112.506,-40.7756"/>
<g id="a_edge14&#45;headlabel"><a xlink:href="dir_000029_000034.html" target="_top" xlink:title="2">
<text text-anchor="middle" x="110.413" y="-42.3496" font-family="Helvetica,sans-Serif" font-size="10.00">2</text>
</a>
</g>
</g>
<!-- dir_1cbc10423b2512b31103883361e0123b&#45;&gt;dir_93fb9127672489656ce87df72f6e986d -->
<g id="edge1" class="edge"><title>dir_1cbc10423b2512b31103883361e0123b&#45;&gt;dir_93fb9127672489656ce87df72f6e986d</title>
<path fill="none" stroke="black" d="M158.638,-215.876C178.35,-204.897 205.316,-190.71 227.225,-179.796"/>
<polygon fill="black" stroke="black" points="228.847,-182.899 236.269,-175.338 225.752,-176.62 228.847,-182.899"/>
<g id="a_edge1&#45;headlabel"><a xlink:href="dir_000055_000095.html" target="_top" xlink:title="1">
<text text-anchor="middle" x="226.879" y="-184.535" font-family="Helvetica,sans-Serif" font-size="10.00">1</text>
</a>
</g>
</g>
<!-- dir_1cbc10423b2512b31103883361e0123b&#45;&gt;dir_df3f4256615fd4197927a84a019a8bd8 -->
<g id="edge2" class="edge"><title>dir_1cbc10423b2512b31103883361e0123b&#45;&gt;dir_df3f4256615fd4197927a84a019a8bd8</title>
<path fill="none" stroke="black" d="M130.206,-215.849C131.17,-178.753 141.589,-90.8101 150.034,-46.1027"/>
<polygon fill="black" stroke="black" points="153.479,-46.7265 152.021,-36.2325 146.616,-45.345 153.479,-46.7265"/>
<g id="a_edge2&#45;headlabel"><a xlink:href="dir_000055_000034.html" target="_top" xlink:title="10">
<text text-anchor="middle" x="155.553" y="-48.3108" font-family="Helvetica,sans-Serif" font-size="10.00">10</text>
</a>
</g>
</g>
<!-- dir_200d929b8d5577e7f19dc05ce443c612&#45;&gt;dir_1cbc10423b2512b31103883361e0123b -->
<g id="edge3" class="edge"><title>dir_200d929b8d5577e7f19dc05ce443c612&#45;&gt;dir_1cbc10423b2512b31103883361e0123b</title>
<path fill="none" stroke="black" d="M185.616,-108.189C175.113,-132.638 155.767,-177.673 143.411,-206.436"/>
<polygon fill="black" stroke="black" points="140.089,-205.302 139.358,-215.871 146.521,-208.065 140.089,-205.302"/>
<g id="a_edge3&#45;headlabel"><a xlink:href="dir_000133_000055.html" target="_top" xlink:title="2">
<text text-anchor="middle" x="138.899" y="-198.379" font-family="Helvetica,sans-Serif" font-size="10.00">2</text>
</a>
</g>
</g>
<!-- dir_200d929b8d5577e7f19dc05ce443c612&#45;&gt;dir_93fb9127672489656ce87df72f6e986d -->
<g id="edge4" class="edge"><title>dir_200d929b8d5577e7f19dc05ce443c612&#45;&gt;dir_93fb9127672489656ce87df72f6e986d</title>
<path fill="none" stroke="black" d="M216.488,-108.104C226.062,-116.552 236.905,-126.901 245.979,-136.199"/>
<polygon fill="black" stroke="black" points="243.687,-138.868 253.118,-143.697 248.757,-134.041 243.687,-138.868"/>
<g id="a_edge4&#45;headlabel"><a xlink:href="dir_000133_000095.html" target="_top" xlink:title="1">
<text text-anchor="middle" x="239.152" y="-135.723" font-family="Helvetica,sans-Serif" font-size="10.00">1</text>
</a>
</g>
</g>
<!-- dir_200d929b8d5577e7f19dc05ce443c612&#45;&gt;dir_df3f4256615fd4197927a84a019a8bd8 -->
<g id="edge5" class="edge"><title>dir_200d929b8d5577e7f19dc05ce443c612&#45;&gt;dir_df3f4256615fd4197927a84a019a8bd8</title>
<path fill="none" stroke="black" d="M184.348,-71.6966C180.364,-63.7284 175.55,-54.0995 171.132,-45.2641"/>
<polygon fill="black" stroke="black" points="174.155,-43.4833 166.552,-36.1043 167.894,-46.6139 174.155,-43.4833"/>
<g id="a_edge5&#45;headlabel"><a xlink:href="dir_000133_000034.html" target="_top" xlink:title="1">
<text text-anchor="middle" x="178.302" y="-42.9287" font-family="Helvetica,sans-Serif" font-size="10.00">1</text>
</a>
</g>
</g>
<!-- dir_6094d1505bd35c5350b5dace379b2456&#45;&gt;dir_1cbc10423b2512b31103883361e0123b -->
<g id="edge6" class="edge"><title>dir_6094d1505bd35c5350b5dace379b2456&#45;&gt;dir_1cbc10423b2512b31103883361e0123b</title>
<path fill="none" stroke="black" d="M119.202,-287.697C121.096,-279.898 123.377,-270.509 125.484,-261.829"/>
<polygon fill="black" stroke="black" points="128.887,-262.648 127.846,-252.104 122.085,-260.996 128.887,-262.648"/>
<g id="a_edge6&#45;headlabel"><a xlink:href="dir_000149_000055.html" target="_top" xlink:title="2">
<text text-anchor="middle" x="130.798" y="-264.311" font-family="Helvetica,sans-Serif" font-size="10.00">2</text>
</a>
</g>
</g>
<!-- dir_6094d1505bd35c5350b5dace379b2456&#45;&gt;dir_93fb9127672489656ce87df72f6e986d -->
<g id="edge7" class="edge"><title>dir_6094d1505bd35c5350b5dace379b2456&#45;&gt;dir_93fb9127672489656ce87df72f6e986d</title>
<path fill="none" stroke="black" d="M133.094,-287.871C159.559,-262.817 208.959,-216.052 239.219,-187.406"/>
<polygon fill="black" stroke="black" points="241.986,-189.606 246.842,-180.189 237.174,-184.522 241.986,-189.606"/>
<g id="a_edge7&#45;headlabel"><a xlink:href="dir_000149_000095.html" target="_top" xlink:title="1">
<text text-anchor="middle" x="241.328" y="-191.639" font-family="Helvetica,sans-Serif" font-size="10.00">1</text>
</a>
</g>
</g>
<!-- dir_6094d1505bd35c5350b5dace379b2456&#45;&gt;dir_df3f4256615fd4197927a84a019a8bd8 -->
<g id="edge8" class="edge"><title>dir_6094d1505bd35c5350b5dace379b2456&#45;&gt;dir_df3f4256615fd4197927a84a019a8bd8</title>
<path fill="none" stroke="black" d="M106.694,-287.788C102.259,-277.634 97.2589,-264.384 95,-252 92.1289,-236.26 92.5337,-231.809 95,-216 104.79,-153.249 131.125,-83.1702 146.47,-45.8434"/>
<polygon fill="black" stroke="black" points="149.865,-46.7939 150.483,-36.2171 143.404,-44.1 149.865,-46.7939"/>
<g id="a_edge8&#45;headlabel"><a xlink:href="dir_000149_000034.html" target="_top" xlink:title="1">
<text text-anchor="middle" x="151.103" y="-48.7043" font-family="Helvetica,sans-Serif" font-size="10.00">1</text>
</a>
</g>
</g>
<!-- dir_13eab70ce57f7c32b503e967c08f6d3d&#45;&gt;dir_1cbc10423b2512b31103883361e0123b -->
<g id="edge15" class="edge"><title>dir_13eab70ce57f7c32b503e967c08f6d3d&#45;&gt;dir_1cbc10423b2512b31103883361e0123b</title>
<path fill="none" stroke="black" d="M219.747,-288.411C204.503,-279.132 185.295,-267.441 168.739,-257.363"/>
<polygon fill="black" stroke="black" points="170.218,-254.166 159.857,-251.956 166.579,-260.145 170.218,-254.166"/>
<g id="a_edge15&#45;headlabel"><a xlink:href="dir_000184_000055.html" target="_top" xlink:title="15">
<text text-anchor="middle" x="174.765" y="-251.11" font-family="Helvetica,sans-Serif" font-size="10.00">15</text>
</a>
</g>
</g>
<!-- dir_13eab70ce57f7c32b503e967c08f6d3d&#45;&gt;dir_200d929b8d5577e7f19dc05ce443c612 -->
<g id="edge16" class="edge"><title>dir_13eab70ce57f7c32b503e967c08f6d3d&#45;&gt;dir_200d929b8d5577e7f19dc05ce443c612</title>
<path fill="none" stroke="black" d="M242.672,-287.849C233.312,-250.753 211.12,-162.81 199.839,-118.103"/>
<polygon fill="black" stroke="black" points="203.189,-117.072 197.348,-108.232 196.401,-118.785 203.189,-117.072"/>
<g id="a_edge16&#45;headlabel"><a xlink:href="dir_000184_000133.html" target="_top" xlink:title="1">
<text text-anchor="middle" x="206.821" y="-117.363" font-family="Helvetica,sans-Serif" font-size="10.00">1</text>
</a>
</g>
</g>
<!-- dir_13eab70ce57f7c32b503e967c08f6d3d&#45;&gt;dir_93fb9127672489656ce87df72f6e986d -->
<g id="edge17" class="edge"><title>dir_13eab70ce57f7c32b503e967c08f6d3d&#45;&gt;dir_93fb9127672489656ce87df72f6e986d</title>
<path fill="none" stroke="black" d="M249.171,-287.871C252.239,-263.67 257.875,-219.211 261.528,-190.393"/>
<polygon fill="black" stroke="black" points="265.036,-190.55 262.821,-180.189 258.091,-189.67 265.036,-190.55"/>
<g id="a_edge17&#45;headlabel"><a xlink:href="dir_000184_000095.html" target="_top" xlink:title="3">
<text text-anchor="middle" x="267.4" y="-191.973" font-family="Helvetica,sans-Serif" font-size="10.00">3</text>
</a>
</g>
</g>
<!-- dir_13eab70ce57f7c32b503e967c08f6d3d&#45;&gt;dir_df3f4256615fd4197927a84a019a8bd8 -->
<g id="edge18" class="edge"><title>dir_13eab70ce57f7c32b503e967c08f6d3d&#45;&gt;dir_df3f4256615fd4197927a84a019a8bd8</title>
<path fill="none" stroke="black" d="M259.599,-287.932C279.494,-258.886 314.69,-197.757 302,-144 293.78,-109.18 291.392,-97.204 266,-72 249.108,-55.2333 225.855,-42.8919 205.251,-34.3582"/>
<polygon fill="black" stroke="black" points="206.284,-31.0031 195.697,-30.5879 203.714,-37.5144 206.284,-31.0031"/>
<g id="a_edge18&#45;headlabel"><a xlink:href="dir_000184_000034.html" target="_top" xlink:title="6">
<text text-anchor="middle" x="210.67" y="-27.1815" font-family="Helvetica,sans-Serif" font-size="10.00">6</text>
</a>
</g>
</g>
<!-- dir_93fb9127672489656ce87df72f6e986d&#45;&gt;dir_1cbc10423b2512b31103883361e0123b -->
<g id="edge19" class="edge"><title>dir_93fb9127672489656ce87df72f6e986d&#45;&gt;dir_1cbc10423b2512b31103883361e0123b</title>
<path fill="none" stroke="black" d="M238.241,-180.191C218.263,-191.315 190.879,-205.712 168.853,-216.663"/>
<polygon fill="black" stroke="black" points="167.208,-213.572 159.779,-221.125 170.297,-219.853 167.208,-213.572"/>
<g id="a_edge19&#45;headlabel"><a xlink:href="dir_000095_000055.html" target="_top" xlink:title="9">
<text text-anchor="middle" x="169.18" y="-206.937" font-family="Helvetica,sans-Serif" font-size="10.00">9</text>
</a>
</g>
</g>
<!-- dir_93fb9127672489656ce87df72f6e986d&#45;&gt;dir_200d929b8d5577e7f19dc05ce443c612 -->
<g id="edge20" class="edge"><title>dir_93fb9127672489656ce87df72f6e986d&#45;&gt;dir_200d929b8d5577e7f19dc05ce443c612</title>
<path fill="none" stroke="black" d="M241.287,-143.697C231.693,-135.22 220.854,-124.864 211.808,-115.583"/>
<polygon fill="black" stroke="black" points="214.125,-112.94 204.698,-108.104 209.052,-117.763 214.125,-112.94"/>
<g id="a_edge20&#45;headlabel"><a xlink:href="dir_000095_000133.html" target="_top" xlink:title="1">
<text text-anchor="middle" x="218.659" y="-111.089" font-family="Helvetica,sans-Serif" font-size="10.00">1</text>
</a>
</g>
</g>
<!-- dir_93fb9127672489656ce87df72f6e986d&#45;&gt;dir_df3f4256615fd4197927a84a019a8bd8 -->
<g id="edge21" class="edge"><title>dir_93fb9127672489656ce87df72f6e986d&#45;&gt;dir_df3f4256615fd4197927a84a019a8bd8</title>
<path fill="none" stroke="black" d="M255.736,-143.761C249.569,-124.642 241.405,-93.6467 225,-72 216.009,-60.1362 203.587,-49.924 191.815,-41.7197"/>
<polygon fill="black" stroke="black" points="193.675,-38.753 183.416,-36.1056 189.785,-44.5726 193.675,-38.753"/>
<g id="a_edge21&#45;headlabel"><a xlink:href="dir_000095_000034.html" target="_top" xlink:title="3">
<text text-anchor="middle" x="198.241" y="-35.8901" font-family="Helvetica,sans-Serif" font-size="10.00">3</text>
</a>
</g>
</g>
<!-- dir_df3f4256615fd4197927a84a019a8bd8&#45;&gt;dir_1cbc10423b2512b31103883361e0123b -->
<g id="edge22" class="edge"><title>dir_df3f4256615fd4197927a84a019a8bd8&#45;&gt;dir_1cbc10423b2512b31103883361e0123b</title>
<path fill="none" stroke="black" d="M159.792,-36.2325C158.814,-73.4027 148.389,-161.352 139.947,-205.996"/>
<polygon fill="black" stroke="black" points="136.506,-205.355 137.961,-215.849 143.368,-206.738 136.506,-205.355"/>
<g id="a_edge22&#45;headlabel"><a xlink:href="dir_000034_000055.html" target="_top" xlink:title="5">
<text text-anchor="middle" x="134.433" y="-198.77" font-family="Helvetica,sans-Serif" font-size="10.00">5</text>
</a>
</g>
</g>
<!-- dir_df3f4256615fd4197927a84a019a8bd8&#45;&gt;dir_93fb9127672489656ce87df72f6e986d -->
<g id="edge23" class="edge"><title>dir_df3f4256615fd4197927a84a019a8bd8&#45;&gt;dir_93fb9127672489656ce87df72f6e986d</title>
<path fill="none" stroke="black" d="M195.747,-33.8424C212.451,-42.9628 230.855,-55.9746 243,-72 256.778,-90.1799 264.743,-114.954 267.687,-133.748"/>
<polygon fill="black" stroke="black" points="264.218,-134.222 268.828,-143.761 271.173,-133.428 264.218,-134.222"/>
<g id="a_edge23&#45;headlabel"><a xlink:href="dir_000034_000095.html" target="_top" xlink:title="1">
<text text-anchor="middle" x="260.99" y="-128.472" font-family="Helvetica,sans-Serif" font-size="10.00">1</text>
</a>
</g>
</g>
</g>
</svg>
