<?xml version="1.0" encoding="UTF-8" standalone="no"?>
<!DOCTYPE svg PUBLIC "-//W3C//DTD SVG 1.1//EN"
 "http://www.w3.org/Graphics/SVG/1.1/DTD/svg11.dtd">
<!-- Generated by graphviz version 2.38.0 (20140413.2041)
 -->
<!-- Title: libraries/AP_RCMapper Pages: 1 -->
<svg width="139pt" height="295pt"
 viewBox="0.00 0.00 138.50 295.00" xmlns="http://www.w3.org/2000/svg" xmlns:xlink="http://www.w3.org/1999/xlink">
<g id="graph0" class="graph" transform="scale(1 1) rotate(0) translate(4 291)">
<title>libraries/AP_RCMapper</title>
<polygon fill="white" stroke="none" points="-4,4 -4,-291 134.5,-291 134.5,4 -4,4"/>
<g id="clust1" class="cluster"><title>clusterdir_bc0718b08fb2015b8e59c47b2805f60c</title>
<g id="a_clust1"><a xlink:href="dir_bc0718b08fb2015b8e59c47b2805f60c.html" target="_top" xlink:title="libraries">
<polygon fill="#ddddee" stroke="black" points="22.5,-208 22.5,-279 122.5,-279 122.5,-208 22.5,-208"/>
<text text-anchor="middle" x="72.5" y="-267" font-family="Helvetica,sans-Serif" font-size="10.00">libraries</text>
</a>
</g>
</g>
<!-- dir_46f501374c82b6d3cdc0327e3fc7c51b -->
<g id="node1" class="node"><title>dir_46f501374c82b6d3cdc0327e3fc7c51b</title>
<g id="a_node1"><a xlink:href="dir_46f501374c82b6d3cdc0327e3fc7c51b.html" target="_top" xlink:title="AP_RCMapper">
<polygon fill="#eeeeff" stroke="black" points="114,-252 31,-252 31,-216 114,-216 114,-252"/>
<text text-anchor="middle" x="72.5" y="-231.5" font-family="Helvetica,sans-Serif" font-size="10.00">AP_RCMapper</text>
</a>
</g>
</g>
<!-- dir_1cbc10423b2512b31103883361e0123b -->
<g id="node2" class="node"><title>dir_1cbc10423b2512b31103883361e0123b</title>
<g id="a_node2"><a xlink:href="dir_1cbc10423b2512b31103883361e0123b.html" target="_top" xlink:title="AP_HAL">
<polygon fill="white" stroke="red" points="55,-108 0,-108 0,-72 55,-72 55,-108"/>
<text text-anchor="middle" x="27.5" y="-87.5" font-family="Helvetica,sans-Serif" font-size="10.00">AP_HAL</text>
</a>
</g>
</g>
<!-- dir_46f501374c82b6d3cdc0327e3fc7c51b&#45;&gt;dir_1cbc10423b2512b31103883361e0123b -->
<g id="edge4" class="edge"><title>dir_46f501374c82b6d3cdc0327e3fc7c51b&#45;&gt;dir_1cbc10423b2512b31103883361e0123b</title>
<path fill="none" stroke="black" d="M54.5781,-215.59C45.9296,-205.985 36.3888,-193.324 31.5,-180 24.2743,-160.307 23.5819,-136.501 24.5284,-118.467"/>
<polygon fill="black" stroke="black" points="28.0309,-118.559 25.2618,-108.332 21.0491,-118.054 28.0309,-118.559"/>
<g id="a_edge4&#45;headlabel"><a xlink:href="dir_000140_000055.html" target="_top" xlink:title="1">
<text text-anchor="middle" x="30.6034" y="-119.849" font-family="Helvetica,sans-Serif" font-size="10.00">1</text>
</a>
</g>
</g>
<!-- dir_200d929b8d5577e7f19dc05ce443c612 -->
<g id="node3" class="node"><title>dir_200d929b8d5577e7f19dc05ce443c612</title>
<g id="a_node3"><a xlink:href="dir_200d929b8d5577e7f19dc05ce443c612.html" target="_top" xlink:title="AP_Param">
<polygon fill="white" stroke="red" points="104.5,-180 40.5,-180 40.5,-144 104.5,-144 104.5,-180"/>
<text text-anchor="middle" x="72.5" y="-159.5" font-family="Helvetica,sans-Serif" font-size="10.00">AP_Param</text>
</a>
</g>
</g>
<!-- dir_46f501374c82b6d3cdc0327e3fc7c51b&#45;&gt;dir_200d929b8d5577e7f19dc05ce443c612 -->
<g id="edge5" class="edge"><title>dir_46f501374c82b6d3cdc0327e3fc7c51b&#45;&gt;dir_200d929b8d5577e7f19dc05ce443c612</title>
<path fill="none" stroke="black" d="M72.5,-215.697C72.5,-207.983 72.5,-198.712 72.5,-190.112"/>
<polygon fill="black" stroke="black" points="76.0001,-190.104 72.5,-180.104 69.0001,-190.104 76.0001,-190.104"/>
<g id="a_edge5&#45;headlabel"><a xlink:href="dir_000140_000133.html" target="_top" xlink:title="1">
<text text-anchor="middle" x="78.8393" y="-191.199" font-family="Helvetica,sans-Serif" font-size="10.00">1</text>
</a>
</g>
</g>
<!-- dir_df3f4256615fd4197927a84a019a8bd8 -->
<g id="node4" class="node"><title>dir_df3f4256615fd4197927a84a019a8bd8</title>
<g id="a_node4"><a xlink:href="dir_df3f4256615fd4197927a84a019a8bd8.html" target="_top" xlink:title="AP_Common">
<polygon fill="white" stroke="red" points="93,-36 18,-36 18,-0 93,-0 93,-36"/>
<text text-anchor="middle" x="55.5" y="-15.5" font-family="Helvetica,sans-Serif" font-size="10.00">AP_Common</text>
</a>
</g>
</g>
<!-- dir_46f501374c82b6d3cdc0327e3fc7c51b&#45;&gt;dir_df3f4256615fd4197927a84a019a8bd8 -->
<g id="edge6" class="edge"><title>dir_46f501374c82b6d3cdc0327e3fc7c51b&#45;&gt;dir_df3f4256615fd4197927a84a019a8bd8</title>
<path fill="none" stroke="black" d="M90.6688,-215.677C99.3849,-206.097 108.912,-193.43 113.5,-180 118.673,-164.859 116.948,-159.624 113.5,-144 105.499,-107.749 85.8873,-69.5171 71.6802,-45.0257"/>
<polygon fill="black" stroke="black" points="74.6447,-43.1628 66.5353,-36.3446 68.6229,-46.7318 74.6447,-43.1628"/>
<g id="a_edge6&#45;headlabel"><a xlink:href="dir_000140_000034.html" target="_top" xlink:title="1">
<text text-anchor="middle" x="78.9199" y="-42.3076" font-family="Helvetica,sans-Serif" font-size="10.00">1</text>
</a>
</g>
</g>
<!-- dir_1cbc10423b2512b31103883361e0123b&#45;&gt;dir_df3f4256615fd4197927a84a019a8bd8 -->
<g id="edge1" class="edge"><title>dir_1cbc10423b2512b31103883361e0123b&#45;&gt;dir_df3f4256615fd4197927a84a019a8bd8</title>
<path fill="none" stroke="black" d="M28.5056,-71.6966C30.871,-63.7284 34.5079,-54.0995 38.4348,-45.2641"/>
<polygon fill="black" stroke="black" points="41.6552,-46.6411 42.7632,-36.1043 35.3262,-43.6503 41.6552,-46.6411"/>
<g id="a_edge1&#45;headlabel"><a xlink:href="dir_000055_000034.html" target="_top" xlink:title="10">
<text text-anchor="middle" x="42.6866" y="-48.6041" font-family="Helvetica,sans-Serif" font-size="10.00">10</text>
</a>
</g>
</g>
<!-- dir_200d929b8d5577e7f19dc05ce443c612&#45;&gt;dir_1cbc10423b2512b31103883361e0123b -->
<g id="edge2" class="edge"><title>dir_200d929b8d5577e7f19dc05ce443c612&#45;&gt;dir_1cbc10423b2512b31103883361e0123b</title>
<path fill="none" stroke="black" d="M61.3764,-143.697C56.145,-135.559 49.8001,-125.689 44.0222,-116.701"/>
<polygon fill="black" stroke="black" points="46.8474,-114.623 38.4956,-108.104 40.9591,-118.409 46.8474,-114.623"/>
<g id="a_edge2&#45;headlabel"><a xlink:href="dir_000133_000055.html" target="_top" xlink:title="2">
<text text-anchor="middle" x="51.1795" y="-113.612" font-family="Helvetica,sans-Serif" font-size="10.00">2</text>
</a>
</g>
</g>
<!-- dir_200d929b8d5577e7f19dc05ce443c612&#45;&gt;dir_df3f4256615fd4197927a84a019a8bd8 -->
<g id="edge3" class="edge"><title>dir_200d929b8d5577e7f19dc05ce443c612&#45;&gt;dir_df3f4256615fd4197927a84a019a8bd8</title>
<path fill="none" stroke="black" d="M71.0225,-143.91C69.413,-125.971 66.6441,-96.9617 63.5,-72 62.437,-63.5608 61.1132,-54.3912 59.8504,-46.0887"/>
<polygon fill="black" stroke="black" points="63.3011,-45.5005 58.3076,-36.1562 56.384,-46.575 63.3011,-45.5005"/>
<g id="a_edge3&#45;headlabel"><a xlink:href="dir_000133_000034.html" target="_top" xlink:title="1">
<text text-anchor="middle" x="66.6583" y="-46.1167" font-family="Helvetica,sans-Serif" font-size="10.00">1</text>
</a>
</g>
</g>
<!-- dir_df3f4256615fd4197927a84a019a8bd8&#45;&gt;dir_1cbc10423b2512b31103883361e0123b -->
<g id="edge7" class="edge"><title>dir_df3f4256615fd4197927a84a019a8bd8&#45;&gt;dir_1cbc10423b2512b31103883361e0123b</title>
<path fill="none" stroke="black" d="M54.5533,-36.1043C52.2092,-44.0447 48.5854,-53.6661 44.6634,-62.5146"/>
<polygon fill="black" stroke="black" points="41.4333,-61.1586 40.3371,-71.6966 47.7656,-64.1423 41.4333,-61.1586"/>
<g id="a_edge7&#45;headlabel"><a xlink:href="dir_000034_000055.html" target="_top" xlink:title="5">
<text text-anchor="middle" x="40.3969" y="-54.1967" font-family="Helvetica,sans-Serif" font-size="10.00">5</text>
</a>
</g>
</g>
</g>
</svg>
