<?xml version="1.0" encoding="UTF-8" standalone="no"?>
<!DOCTYPE svg PUBLIC "-//W3C//DTD SVG 1.1//EN"
 "http://www.w3.org/Graphics/SVG/1.1/DTD/svg11.dtd">
<!-- Generated by graphviz version 2.38.0 (20140413.2041)
 -->
<!-- Title: libraries/AP_Parachute Pages: 1 -->
<!--zoomable 447 -->
<svg id="main" version="1.1" xmlns="http://www.w3.org/2000/svg" xmlns:xlink="http://www.w3.org/1999/xlink" xml:space="preserve" onload="init(evt)">
<style type="text/css"><![CDATA[
.edge:hover path { stroke: red; }
.edge:hover polygon { stroke: red; fill: red; }
]]></style>
<script type="text/javascript"><![CDATA[
var edges = document.getElementsByTagName('g');
if (edges && edges.length) {
  for (var i=0;i<edges.length;i++) {
    if (edges[i].id.substr(0,4)=='edge') {
      edges[i].setAttribute('class','edge');
    }
  }
}
]]></script>
        <defs>
                <circle id="rim" cx="0" cy="0" r="7"/>
                <circle id="rim2" cx="0" cy="0" r="3.5"/>
                <g id="zoomPlus">
                        <use xlink:href="#rim" fill="#404040">
                                <set attributeName="fill" to="#808080" begin="zoomplus.mouseover" end="zoomplus.mouseout"/>
                        </use>
                        <path d="M-4,0h8M0,-4v8" fill="none" stroke="white" stroke-width="1.5" pointer-events="none"/>
                </g>
                <g id="zoomMin">
                        <use xlink:href="#rim" fill="#404040">
                                <set attributeName="fill" to="#808080" begin="zoomminus.mouseover" end="zoomminus.mouseout"/>
                        </use>
                        <path d="M-4,0h8" fill="none" stroke="white" stroke-width="1.5" pointer-events="none"/>
                </g>
                <g id="dirArrow">
                        <path fill="none" stroke="white" stroke-width="1.5" d="M0,-3.0v7 M-2.5,-0.5L0,-3.0L2.5,-0.5"/>
                </g>
               <g id="resetDef">
                       <use xlink:href="#rim2" fill="#404040">
                               <set attributeName="fill" to="#808080" begin="reset.mouseover" end="reset.mouseout"/>
                       </use>
               </g>
        </defs>

<script type="text/javascript">
var viewWidth = 716;
var viewHeight = 447;
var sectionId = 'dynsection-0';
</script>
<script xlink:href="svgpan.js"/>
<svg id="graph" class="graph">
<g id="viewport">
<title>libraries/AP_Parachute</title>
<polygon fill="white" stroke="none" points="-4,4 -4,-443 712.462,-443 712.462,4 -4,4"/>
<g id="clust1" class="cluster"><title>clusterdir_bc0718b08fb2015b8e59c47b2805f60c</title>
<g id="a_clust1"><a xlink:href="dir_bc0718b08fb2015b8e59c47b2805f60c.html" target="_top" xlink:title="libraries">
<polygon fill="#ddddee" stroke="black" points="211.462,-344 211.462,-431 401.462,-431 401.462,-344 211.462,-344"/>
<text text-anchor="middle" x="306.462" y="-419" font-family="Helvetica,sans-Serif" font-size="10.00">libraries</text>
</a>
</g>
</g>
<g id="clust2" class="cluster"><title>clusterdir_a3bea2510cd976ae36c6d156199cc578</title>
<g id="a_clust2"><a xlink:href="dir_a3bea2510cd976ae36c6d156199cc578.html" target="_top">
<polygon fill="#eeeeff" stroke="black" points="219.462,-352 219.462,-404 393.462,-404 393.462,-352 219.462,-352"/>
</a>
</g>
</g>
<!-- dir_a3bea2510cd976ae36c6d156199cc578 -->
<g id="node1" class="node"><title>dir_a3bea2510cd976ae36c6d156199cc578</title>
<text text-anchor="middle" x="345.462" y="-375.5" font-family="Helvetica,sans-Serif" font-size="10.00">AP_Parachute</text>
</g>
<!-- dir_9517a59ccb1d85d9df7fc09e86ba5740 -->
<g id="node3" class="node"><title>dir_9517a59ccb1d85d9df7fc09e86ba5740</title>
<g id="a_node3"><a xlink:href="dir_9517a59ccb1d85d9df7fc09e86ba5740.html" target="_top" xlink:title="RC_Channel">
<polygon fill="white" stroke="red" points="565.962,-324 492.962,-324 492.962,-288 565.962,-288 565.962,-324"/>
<text text-anchor="middle" x="529.462" y="-303.5" font-family="Helvetica,sans-Serif" font-size="10.00">RC_Channel</text>
</a>
</g>
</g>
<!-- dir_a3bea2510cd976ae36c6d156199cc578&#45;&gt;dir_9517a59ccb1d85d9df7fc09e86ba5740 -->
<g id="edge15" class="edge"><title>dir_a3bea2510cd976ae36c6d156199cc578&#45;&gt;dir_9517a59ccb1d85d9df7fc09e86ba5740</title>
<path fill="none" stroke="black" d="M385.841,-361.638C414.669,-350.671 453.495,-335.9 483.51,-324.482"/>
<polygon fill="black" stroke="black" points="484.82,-327.728 492.922,-320.901 482.331,-321.186 484.82,-327.728"/>
<g id="a_edge15&#45;headlabel"><a xlink:href="dir_000130_000180.html" target="_top" xlink:title="2">
<text text-anchor="middle" x="482.47" y="-329.16" font-family="Helvetica,sans-Serif" font-size="10.00">2</text>
</a>
</g>
</g>
<!-- dir_e79ddc13cd2b4faf04987f849586d280 -->
<g id="node4" class="node"><title>dir_e79ddc13cd2b4faf04987f849586d280</title>
<g id="a_node4"><a xlink:href="dir_e79ddc13cd2b4faf04987f849586d280.html" target="_top" xlink:title="AP_Notify">
<polygon fill="white" stroke="red" points="284.462,-324 222.462,-324 222.462,-288 284.462,-288 284.462,-324"/>
<text text-anchor="middle" x="253.462" y="-303.5" font-family="Helvetica,sans-Serif" font-size="10.00">AP_Notify</text>
</a>
</g>
</g>
<!-- dir_a3bea2510cd976ae36c6d156199cc578&#45;&gt;dir_e79ddc13cd2b4faf04987f849586d280 -->
<g id="edge16" class="edge"><title>dir_a3bea2510cd976ae36c6d156199cc578&#45;&gt;dir_e79ddc13cd2b4faf04987f849586d280</title>
<path fill="none" stroke="black" d="M322.72,-359.697C311.022,-350.796 296.601,-339.823 283.952,-330.199"/>
<polygon fill="black" stroke="black" points="286.019,-327.374 275.942,-324.104 281.781,-332.945 286.019,-327.374"/>
<g id="a_edge16&#45;headlabel"><a xlink:href="dir_000130_000124.html" target="_top" xlink:title="2">
<text text-anchor="middle" x="290.599" y="-324.791" font-family="Helvetica,sans-Serif" font-size="10.00">2</text>
</a>
</g>
</g>
<!-- dir_1cbc10423b2512b31103883361e0123b -->
<g id="node5" class="node"><title>dir_1cbc10423b2512b31103883361e0123b</title>
<g id="a_node5"><a xlink:href="dir_1cbc10423b2512b31103883361e0123b.html" target="_top" xlink:title="AP_HAL">
<polygon fill="white" stroke="red" points="334.962,-252 279.962,-252 279.962,-216 334.962,-216 334.962,-252"/>
<text text-anchor="middle" x="307.462" y="-231.5" font-family="Helvetica,sans-Serif" font-size="10.00">AP_HAL</text>
</a>
</g>
</g>
<!-- dir_a3bea2510cd976ae36c6d156199cc578&#45;&gt;dir_1cbc10423b2512b31103883361e0123b -->
<g id="edge17" class="edge"><title>dir_a3bea2510cd976ae36c6d156199cc578&#45;&gt;dir_1cbc10423b2512b31103883361e0123b</title>
<path fill="none" stroke="black" d="M342.492,-359.771C339.215,-341.719 333.468,-312.618 326.462,-288 324.027,-279.445 320.922,-270.275 317.932,-262.008"/>
<polygon fill="black" stroke="black" points="321.154,-260.632 314.393,-252.475 314.592,-263.068 321.154,-260.632"/>
<g id="a_edge17&#45;headlabel"><a xlink:href="dir_000130_000055.html" target="_top" xlink:title="2">
<text text-anchor="middle" x="325.067" y="-260.514" font-family="Helvetica,sans-Serif" font-size="10.00">2</text>
</a>
</g>
</g>
<!-- dir_200d929b8d5577e7f19dc05ce443c612 -->
<g id="node6" class="node"><title>dir_200d929b8d5577e7f19dc05ce443c612</title>
<g id="a_node6"><a xlink:href="dir_200d929b8d5577e7f19dc05ce443c612.html" target="_top" xlink:title="AP_Param">
<polygon fill="white" stroke="red" points="412.462,-108 348.462,-108 348.462,-72 412.462,-72 412.462,-108"/>
<text text-anchor="middle" x="380.462" y="-87.5" font-family="Helvetica,sans-Serif" font-size="10.00">AP_Param</text>
</a>
</g>
</g>
<!-- dir_a3bea2510cd976ae36c6d156199cc578&#45;&gt;dir_200d929b8d5577e7f19dc05ce443c612 -->
<g id="edge18" class="edge"><title>dir_a3bea2510cd976ae36c6d156199cc578&#45;&gt;dir_200d929b8d5577e7f19dc05ce443c612</title>
<path fill="none" stroke="black" d="M347.546,-359.966C353.393,-312.192 369.983,-176.623 377.125,-118.266"/>
<polygon fill="black" stroke="black" points="380.603,-118.658 378.344,-108.306 373.655,-117.807 380.603,-118.658"/>
<g id="a_edge18&#45;headlabel"><a xlink:href="dir_000130_000133.html" target="_top" xlink:title="2">
<text text-anchor="middle" x="382.985" y="-120.07" font-family="Helvetica,sans-Serif" font-size="10.00">2</text>
</a>
</g>
</g>
<!-- dir_4a7570780595b51b2e72a69353927583 -->
<g id="node7" class="node"><title>dir_4a7570780595b51b2e72a69353927583</title>
<g id="a_node7"><a xlink:href="dir_4a7570780595b51b2e72a69353927583.html" target="_top" xlink:title="AP_Relay">
<polygon fill="none" stroke="black" points="203.962,-324 142.962,-324 142.962,-288 203.962,-288 203.962,-324"/>
<text text-anchor="middle" x="173.462" y="-303.5" font-family="Helvetica,sans-Serif" font-size="10.00">AP_Relay</text>
</a>
</g>
</g>
<!-- dir_a3bea2510cd976ae36c6d156199cc578&#45;&gt;dir_4a7570780595b51b2e72a69353927583 -->
<g id="edge19" class="edge"><title>dir_a3bea2510cd976ae36c6d156199cc578&#45;&gt;dir_4a7570780595b51b2e72a69353927583</title>
<path fill="none" stroke="black" d="M323.01,-359.805C314.71,-354.103 304.995,-348.158 295.462,-344 263.764,-330.174 251.077,-334.888 214.202,-323.85"/>
<polygon fill="black" stroke="black" points="214.87,-320.39 204.28,-320.684 212.742,-327.059 214.87,-320.39"/>
<g id="a_edge19&#45;headlabel"><a xlink:href="dir_000130_000141.html" target="_top" xlink:title="3">
<text text-anchor="middle" x="219.158" y="-316.278" font-family="Helvetica,sans-Serif" font-size="10.00">3</text>
</a>
</g>
</g>
<!-- dir_7c0f4bc6f9f3fcba9f67ba121904eead -->
<g id="node9" class="node"><title>dir_7c0f4bc6f9f3fcba9f67ba121904eead</title>
<g id="a_node9"><a xlink:href="dir_7c0f4bc6f9f3fcba9f67ba121904eead.html" target="_top" xlink:title="SRV_Channel">
<polygon fill="none" stroke="black" points="600.962,-396 521.962,-396 521.962,-360 600.962,-360 600.962,-396"/>
<text text-anchor="middle" x="561.462" y="-375.5" font-family="Helvetica,sans-Serif" font-size="10.00">SRV_Channel</text>
</a>
</g>
</g>
<!-- dir_a3bea2510cd976ae36c6d156199cc578&#45;&gt;dir_7c0f4bc6f9f3fcba9f67ba121904eead -->
<g id="edge20" class="edge"><title>dir_a3bea2510cd976ae36c6d156199cc578&#45;&gt;dir_7c0f4bc6f9f3fcba9f67ba121904eead</title>
<path fill="none" stroke="black" d="M385.54,-378C427.634,-378 469.729,-378 511.824,-378"/>
<polygon fill="black" stroke="black" points="511.948,-381.5 521.948,-378 511.948,-374.5 511.948,-381.5"/>
<g id="a_edge20&#45;headlabel"><a xlink:href="dir_000130_000185.html" target="_top" xlink:title="1">
<text text-anchor="middle" x="508.353" y="-381.839" font-family="Helvetica,sans-Serif" font-size="10.00">1</text>
</a>
</g>
</g>
<!-- dir_93fb9127672489656ce87df72f6e986d -->
<g id="node10" class="node"><title>dir_93fb9127672489656ce87df72f6e986d</title>
<g id="a_node10"><a xlink:href="dir_93fb9127672489656ce87df72f6e986d.html" target="_top" xlink:title="AP_Math">
<polygon fill="white" stroke="red" points="477.962,-180 420.962,-180 420.962,-144 477.962,-144 477.962,-180"/>
<text text-anchor="middle" x="449.462" y="-159.5" font-family="Helvetica,sans-Serif" font-size="10.00">AP_Math</text>
</a>
</g>
</g>
<!-- dir_a3bea2510cd976ae36c6d156199cc578&#45;&gt;dir_93fb9127672489656ce87df72f6e986d -->
<g id="edge21" class="edge"><title>dir_a3bea2510cd976ae36c6d156199cc578&#45;&gt;dir_93fb9127672489656ce87df72f6e986d</title>
<path fill="none" stroke="black" d="M369.134,-359.937C380.672,-350.516 393.875,-337.914 402.462,-324 428.678,-281.516 440.86,-223.726 446.047,-190.185"/>
<polygon fill="black" stroke="black" points="449.524,-190.596 447.494,-180.198 442.596,-189.592 449.524,-190.596"/>
<g id="a_edge21&#45;headlabel"><a xlink:href="dir_000130_000095.html" target="_top" xlink:title="2">
<text text-anchor="middle" x="451.818" y="-192.061" font-family="Helvetica,sans-Serif" font-size="10.00">2</text>
</a>
</g>
</g>
<!-- dir_df3f4256615fd4197927a84a019a8bd8 -->
<g id="node11" class="node"><title>dir_df3f4256615fd4197927a84a019a8bd8</title>
<g id="a_node11"><a xlink:href="dir_df3f4256615fd4197927a84a019a8bd8.html" target="_top" xlink:title="AP_Common">
<polygon fill="white" stroke="red" points="451.962,-36 376.962,-36 376.962,-0 451.962,-0 451.962,-36"/>
<text text-anchor="middle" x="414.462" y="-15.5" font-family="Helvetica,sans-Serif" font-size="10.00">AP_Common</text>
</a>
</g>
</g>
<!-- dir_a3bea2510cd976ae36c6d156199cc578&#45;&gt;dir_df3f4256615fd4197927a84a019a8bd8 -->
<g id="edge22" class="edge"><title>dir_a3bea2510cd976ae36c6d156199cc578&#45;&gt;dir_df3f4256615fd4197927a84a019a8bd8</title>
<path fill="none" stroke="black" d="M385.464,-369.431C446.9,-357.555 559.037,-334.788 574.462,-324 613.151,-296.94 632.462,-282.214 632.462,-235 632.462,-235 632.462,-235 632.462,-161 632.462,-80.3958 526.53,-43.166 462.353,-28.007"/>
<polygon fill="black" stroke="black" points="462.96,-24.5559 452.434,-25.7603 461.414,-31.383 462.96,-24.5559"/>
<g id="a_edge22&#45;headlabel"><a xlink:href="dir_000130_000034.html" target="_top" xlink:title="2">
<text text-anchor="middle" x="467.093" y="-20.0808" font-family="Helvetica,sans-Serif" font-size="10.00">2</text>
</a>
</g>
</g>
<!-- dir_f42a0dac728cb209e41bb8b6575880e7 -->
<g id="node2" class="node"><title>dir_f42a0dac728cb209e41bb8b6575880e7</title>
<g id="a_node2"><a xlink:href="dir_f42a0dac728cb209e41bb8b6575880e7.html" target="_top" xlink:title="examples">
<polygon fill="white" stroke="red" points="286.962,-396 227.962,-396 227.962,-360 286.962,-360 286.962,-396"/>
<text text-anchor="middle" x="257.462" y="-375.5" font-family="Helvetica,sans-Serif" font-size="10.00">examples</text>
</a>
</g>
</g>
<!-- dir_f42a0dac728cb209e41bb8b6575880e7&#45;&gt;dir_9517a59ccb1d85d9df7fc09e86ba5740 -->
<g id="edge34" class="edge"><title>dir_f42a0dac728cb209e41bb8b6575880e7&#45;&gt;dir_9517a59ccb1d85d9df7fc09e86ba5740</title>
<path fill="none" stroke="black" d="M273.514,-359.979C280.068,-354.011 288.077,-347.844 296.462,-344 356.643,-316.409 433.717,-308.909 482.359,-307.129"/>
<polygon fill="black" stroke="black" points="482.699,-310.621 492.59,-306.824 482.49,-303.624 482.699,-310.621"/>
<g id="a_edge34&#45;headlabel"><a xlink:href="dir_000131_000180.html" target="_top" xlink:title="1">
<text text-anchor="middle" x="479.19" y="-311.066" font-family="Helvetica,sans-Serif" font-size="10.00">1</text>
</a>
</g>
</g>
<!-- dir_f42a0dac728cb209e41bb8b6575880e7&#45;&gt;dir_e79ddc13cd2b4faf04987f849586d280 -->
<g id="edge35" class="edge"><title>dir_f42a0dac728cb209e41bb8b6575880e7&#45;&gt;dir_e79ddc13cd2b4faf04987f849586d280</title>
<path fill="none" stroke="black" d="M256.473,-359.697C256.032,-351.983 255.502,-342.712 255.011,-334.112"/>
<polygon fill="black" stroke="black" points="258.504,-333.888 254.439,-324.104 251.515,-334.288 258.504,-333.888"/>
<g id="a_edge35&#45;headlabel"><a xlink:href="dir_000131_000124.html" target="_top" xlink:title="1">
<text text-anchor="middle" x="261.544" y="-334.815" font-family="Helvetica,sans-Serif" font-size="10.00">1</text>
</a>
</g>
</g>
<!-- dir_f42a0dac728cb209e41bb8b6575880e7&#45;&gt;dir_1cbc10423b2512b31103883361e0123b -->
<g id="edge36" class="edge"><title>dir_f42a0dac728cb209e41bb8b6575880e7&#45;&gt;dir_1cbc10423b2512b31103883361e0123b</title>
<path fill="none" stroke="black" d="M271.899,-359.963C279.509,-350.077 288.311,-337.035 293.462,-324 301.258,-304.272 304.723,-280.468 306.258,-262.444"/>
<polygon fill="black" stroke="black" points="309.76,-262.536 306.971,-252.315 302.777,-262.045 309.76,-262.536"/>
<g id="a_edge36&#45;headlabel"><a xlink:href="dir_000131_000055.html" target="_top" xlink:title="1">
<text text-anchor="middle" x="312.34" y="-263.822" font-family="Helvetica,sans-Serif" font-size="10.00">1</text>
</a>
</g>
</g>
<!-- dir_f42a0dac728cb209e41bb8b6575880e7&#45;&gt;dir_200d929b8d5577e7f19dc05ce443c612 -->
<g id="edge37" class="edge"><title>dir_f42a0dac728cb209e41bb8b6575880e7&#45;&gt;dir_200d929b8d5577e7f19dc05ce443c612</title>
<path fill="none" stroke="black" d="M227.79,-374.65C195.924,-370.36 146.74,-358.24 123.462,-324 114.466,-310.768 117.69,-302.923 123.462,-288 154.675,-207.306 183.814,-193.947 254.462,-144 280.036,-125.919 312.731,-112.394 338.406,-103.534"/>
<polygon fill="black" stroke="black" points="339.852,-106.741 348.227,-100.252 337.633,-100.102 339.852,-106.741"/>
<g id="a_edge37&#45;headlabel"><a xlink:href="dir_000131_000133.html" target="_top" xlink:title="1">
<text text-anchor="middle" x="337.342" y="-108.073" font-family="Helvetica,sans-Serif" font-size="10.00">1</text>
</a>
</g>
</g>
<!-- dir_f42a0dac728cb209e41bb8b6575880e7&#45;&gt;dir_4a7570780595b51b2e72a69353927583 -->
<g id="edge38" class="edge"><title>dir_f42a0dac728cb209e41bb8b6575880e7&#45;&gt;dir_4a7570780595b51b2e72a69353927583</title>
<path fill="none" stroke="black" d="M236.698,-359.697C226.22,-350.965 213.35,-340.24 201.962,-330.75"/>
<polygon fill="black" stroke="black" points="203.91,-327.817 193.987,-324.104 199.428,-333.195 203.91,-327.817"/>
<g id="a_edge38&#45;headlabel"><a xlink:href="dir_000131_000141.html" target="_top" xlink:title="1">
<text text-anchor="middle" x="208.489" y="-325.437" font-family="Helvetica,sans-Serif" font-size="10.00">1</text>
</a>
</g>
</g>
<!-- dir_943e52f8581fabc839a1d5cc5644b223 -->
<g id="node8" class="node"><title>dir_943e52f8581fabc839a1d5cc5644b223</title>
<g id="a_node8"><a xlink:href="dir_943e52f8581fabc839a1d5cc5644b223.html" target="_top" xlink:title="StorageManager">
<polygon fill="white" stroke="red" points="196.462,-36 108.462,-36 108.462,-0 196.462,-0 196.462,-36"/>
<text text-anchor="middle" x="152.462" y="-15.5" font-family="Helvetica,sans-Serif" font-size="10.00">StorageManager</text>
</a>
</g>
</g>
<!-- dir_f42a0dac728cb209e41bb8b6575880e7&#45;&gt;dir_943e52f8581fabc839a1d5cc5644b223 -->
<g id="edge39" class="edge"><title>dir_f42a0dac728cb209e41bb8b6575880e7&#45;&gt;dir_943e52f8581fabc839a1d5cc5644b223</title>
<path fill="none" stroke="black" d="M227.754,-374.038C171.71,-367.86 53.4006,-351.811 24.4616,-324 -5.07728,-295.612 0.461638,-275.969 0.461638,-235 0.461638,-235 0.461638,-235 0.461638,-161 0.461638,-120.031 -2.57738,-102.778 24.4616,-72 43.5344,-50.2895 72.8996,-37.2834 98.6947,-29.5934"/>
<polygon fill="black" stroke="black" points="99.6814,-32.9519 108.377,-26.8994 97.8049,-26.2081 99.6814,-32.9519"/>
<g id="a_edge39&#45;headlabel"><a xlink:href="dir_000131_000186.html" target="_top" xlink:title="1">
<text text-anchor="middle" x="96.9793" y="-34.1507" font-family="Helvetica,sans-Serif" font-size="10.00">1</text>
</a>
</g>
</g>
<!-- dir_f42a0dac728cb209e41bb8b6575880e7&#45;&gt;dir_93fb9127672489656ce87df72f6e986d -->
<g id="edge40" class="edge"><title>dir_f42a0dac728cb209e41bb8b6575880e7&#45;&gt;dir_93fb9127672489656ce87df72f6e986d</title>
<path fill="none" stroke="black" d="M227.761,-373.565C198.19,-368.39 154.291,-355.555 133.462,-324 124.647,-310.647 125.188,-301.695 133.462,-288 191.933,-191.216 339.975,-169.287 410.695,-164.378"/>
<polygon fill="black" stroke="black" points="411.185,-167.855 420.952,-163.749 410.757,-160.868 411.185,-167.855"/>
<g id="a_edge40&#45;headlabel"><a xlink:href="dir_000131_000095.html" target="_top" xlink:title="1">
<text text-anchor="middle" x="407.771" y="-168.409" font-family="Helvetica,sans-Serif" font-size="10.00">1</text>
</a>
</g>
</g>
<!-- dir_f42a0dac728cb209e41bb8b6575880e7&#45;&gt;dir_df3f4256615fd4197927a84a019a8bd8 -->
<g id="edge41" class="edge"><title>dir_f42a0dac728cb209e41bb8b6575880e7&#45;&gt;dir_df3f4256615fd4197927a84a019a8bd8</title>
<path fill="none" stroke="black" d="M227.926,-372.074C168.149,-360.236 38.4616,-324.268 38.4616,-235 38.4616,-235 38.4616,-235 38.4616,-161 38.4616,-91.5995 265.478,-44.3158 366.717,-26.6801"/>
<polygon fill="black" stroke="black" points="367.424,-30.1099 376.688,-24.9683 366.24,-23.2108 367.424,-30.1099"/>
<g id="a_edge41&#45;headlabel"><a xlink:href="dir_000131_000034.html" target="_top" xlink:title="1">
<text text-anchor="middle" x="364.362" y="-31.0163" font-family="Helvetica,sans-Serif" font-size="10.00">1</text>
</a>
</g>
</g>
<!-- dir_9517a59ccb1d85d9df7fc09e86ba5740&#45;&gt;dir_1cbc10423b2512b31103883361e0123b -->
<g id="edge1" class="edge"><title>dir_9517a59ccb1d85d9df7fc09e86ba5740&#45;&gt;dir_1cbc10423b2512b31103883361e0123b</title>
<path fill="none" stroke="black" d="M492.803,-293.441C451.845,-280.526 385.895,-259.731 344.702,-246.742"/>
<polygon fill="black" stroke="black" points="345.635,-243.367 335.045,-243.698 343.53,-250.043 345.635,-243.367"/>
<g id="a_edge1&#45;headlabel"><a xlink:href="dir_000180_000055.html" target="_top" xlink:title="4">
<text text-anchor="middle" x="349.917" y="-239.24" font-family="Helvetica,sans-Serif" font-size="10.00">4</text>
</a>
</g>
</g>
<!-- dir_9517a59ccb1d85d9df7fc09e86ba5740&#45;&gt;dir_200d929b8d5577e7f19dc05ce443c612 -->
<g id="edge2" class="edge"><title>dir_9517a59ccb1d85d9df7fc09e86ba5740&#45;&gt;dir_200d929b8d5577e7f19dc05ce443c612</title>
<path fill="none" stroke="black" d="M529.325,-287.916C528.201,-256.087 521.565,-187.05 486.462,-144 470.152,-123.998 444.376,-110.873 422.326,-102.688"/>
<polygon fill="black" stroke="black" points="423.419,-99.3622 412.825,-99.372 421.113,-105.971 423.419,-99.3622"/>
<g id="a_edge2&#45;headlabel"><a xlink:href="dir_000180_000133.html" target="_top" xlink:title="1">
<text text-anchor="middle" x="427.749" y="-95.3657" font-family="Helvetica,sans-Serif" font-size="10.00">1</text>
</a>
</g>
</g>
<!-- dir_9517a59ccb1d85d9df7fc09e86ba5740&#45;&gt;dir_93fb9127672489656ce87df72f6e986d -->
<g id="edge3" class="edge"><title>dir_9517a59ccb1d85d9df7fc09e86ba5740&#45;&gt;dir_93fb9127672489656ce87df72f6e986d</title>
<path fill="none" stroke="black" d="M519.812,-287.871C505.997,-263.35 480.466,-218.032 464.255,-189.259"/>
<polygon fill="black" stroke="black" points="467.104,-187.184 459.146,-180.189 461.005,-190.62 467.104,-187.184"/>
<g id="a_edge3&#45;headlabel"><a xlink:href="dir_000180_000095.html" target="_top" xlink:title="2">
<text text-anchor="middle" x="471.342" y="-186.422" font-family="Helvetica,sans-Serif" font-size="10.00">2</text>
</a>
</g>
</g>
<!-- dir_9517a59ccb1d85d9df7fc09e86ba5740&#45;&gt;dir_df3f4256615fd4197927a84a019a8bd8 -->
<g id="edge4" class="edge"><title>dir_9517a59ccb1d85d9df7fc09e86ba5740&#45;&gt;dir_df3f4256615fd4197927a84a019a8bd8</title>
<path fill="none" stroke="black" d="M533.658,-287.827C537.44,-269.82 541.795,-240.756 537.462,-216 525.15,-145.66 471.004,-78.3581 438.8,-43.5565"/>
<polygon fill="black" stroke="black" points="441.302,-41.1086 431.897,-36.2308 436.207,-45.9091 441.302,-41.1086"/>
<g id="a_edge4&#45;headlabel"><a xlink:href="dir_000180_000034.html" target="_top" xlink:title="1">
<text text-anchor="middle" x="445.834" y="-39.2776" font-family="Helvetica,sans-Serif" font-size="10.00">1</text>
</a>
</g>
</g>
<!-- dir_e79ddc13cd2b4faf04987f849586d280&#45;&gt;dir_1cbc10423b2512b31103883361e0123b -->
<g id="edge5" class="edge"><title>dir_e79ddc13cd2b4faf04987f849586d280&#45;&gt;dir_1cbc10423b2512b31103883361e0123b</title>
<path fill="none" stroke="black" d="M266.81,-287.697C273.218,-279.389 281.019,-269.277 288.067,-260.141"/>
<polygon fill="black" stroke="black" points="290.93,-262.16 294.267,-252.104 285.388,-257.884 290.93,-262.16"/>
<g id="a_edge5&#45;headlabel"><a xlink:href="dir_000124_000055.html" target="_top" xlink:title="28">
<text text-anchor="middle" x="290.983" y="-264.24" font-family="Helvetica,sans-Serif" font-size="10.00">28</text>
</a>
</g>
</g>
<!-- dir_e79ddc13cd2b4faf04987f849586d280&#45;&gt;dir_200d929b8d5577e7f19dc05ce443c612 -->
<g id="edge6" class="edge"><title>dir_e79ddc13cd2b4faf04987f849586d280&#45;&gt;dir_200d929b8d5577e7f19dc05ce443c612</title>
<path fill="none" stroke="black" d="M254.16,-287.797C255.489,-269.256 259.338,-239.277 270.462,-216 289.891,-175.344 326.441,-137.855 352.06,-114.749"/>
<polygon fill="black" stroke="black" points="354.459,-117.3 359.629,-108.053 349.82,-112.058 354.459,-117.3"/>
<g id="a_edge6&#45;headlabel"><a xlink:href="dir_000124_000133.html" target="_top" xlink:title="2">
<text text-anchor="middle" x="353.648" y="-119.309" font-family="Helvetica,sans-Serif" font-size="10.00">2</text>
</a>
</g>
</g>
<!-- dir_e79ddc13cd2b4faf04987f849586d280&#45;&gt;dir_93fb9127672489656ce87df72f6e986d -->
<g id="edge7" class="edge"><title>dir_e79ddc13cd2b4faf04987f849586d280&#45;&gt;dir_93fb9127672489656ce87df72f6e986d</title>
<path fill="none" stroke="black" d="M284.664,-288.315C302.36,-278.44 324.657,-265.293 343.462,-252 372.17,-231.707 402.687,-205.539 423.568,-186.84"/>
<polygon fill="black" stroke="black" points="425.995,-189.364 431.075,-180.067 421.306,-184.167 425.995,-189.364"/>
<g id="a_edge7&#45;headlabel"><a xlink:href="dir_000124_000095.html" target="_top" xlink:title="1">
<text text-anchor="middle" x="425.228" y="-191.38" font-family="Helvetica,sans-Serif" font-size="10.00">1</text>
</a>
</g>
</g>
<!-- dir_e79ddc13cd2b4faf04987f849586d280&#45;&gt;dir_df3f4256615fd4197927a84a019a8bd8 -->
<g id="edge8" class="edge"><title>dir_e79ddc13cd2b4faf04987f849586d280&#45;&gt;dir_df3f4256615fd4197927a84a019a8bd8</title>
<path fill="none" stroke="black" d="M251.859,-287.696C250.642,-269.583 249.989,-240.432 255.462,-216 270.769,-147.657 272.233,-123.716 319.462,-72 332.679,-57.5267 350.792,-46.0779 367.66,-37.58"/>
<polygon fill="black" stroke="black" points="369.364,-40.6448 376.864,-33.1621 366.334,-34.3342 369.364,-40.6448"/>
<g id="a_edge8&#45;headlabel"><a xlink:href="dir_000124_000034.html" target="_top" xlink:title="9">
<text text-anchor="middle" x="367.352" y="-42.26" font-family="Helvetica,sans-Serif" font-size="10.00">9</text>
</a>
</g>
</g>
<!-- dir_1cbc10423b2512b31103883361e0123b&#45;&gt;dir_93fb9127672489656ce87df72f6e986d -->
<g id="edge9" class="edge"><title>dir_1cbc10423b2512b31103883361e0123b&#45;&gt;dir_93fb9127672489656ce87df72f6e986d</title>
<path fill="none" stroke="black" d="M335.274,-216.411C357.059,-205.061 387.435,-190.1 411.444,-178.9"/>
<polygon fill="black" stroke="black" points="413.023,-182.026 420.634,-174.656 410.088,-175.671 413.023,-182.026"/>
<g id="a_edge9&#45;headlabel"><a xlink:href="dir_000055_000095.html" target="_top" xlink:title="1">
<text text-anchor="middle" x="410.95" y="-183.611" font-family="Helvetica,sans-Serif" font-size="10.00">1</text>
</a>
</g>
</g>
<!-- dir_1cbc10423b2512b31103883361e0123b&#45;&gt;dir_df3f4256615fd4197927a84a019a8bd8 -->
<g id="edge10" class="edge"><title>dir_1cbc10423b2512b31103883361e0123b&#45;&gt;dir_df3f4256615fd4197927a84a019a8bd8</title>
<path fill="none" stroke="black" d="M301.608,-215.962C297.596,-184.804 300.819,-117.652 330.462,-72 339.522,-58.047 353.656,-46.6633 367.832,-38.0725"/>
<polygon fill="black" stroke="black" points="369.65,-41.0656 376.62,-33.0864 366.195,-34.9775 369.65,-41.0656"/>
<g id="a_edge10&#45;headlabel"><a xlink:href="dir_000055_000034.html" target="_top" xlink:title="10">
<text text-anchor="middle" x="367.924" y="-42.809" font-family="Helvetica,sans-Serif" font-size="10.00">10</text>
</a>
</g>
</g>
<!-- dir_200d929b8d5577e7f19dc05ce443c612&#45;&gt;dir_1cbc10423b2512b31103883361e0123b -->
<g id="edge11" class="edge"><title>dir_200d929b8d5577e7f19dc05ce443c612&#45;&gt;dir_1cbc10423b2512b31103883361e0123b</title>
<path fill="none" stroke="black" d="M371.625,-108.189C359.001,-132.745 335.702,-178.066 320.924,-206.812"/>
<polygon fill="black" stroke="black" points="317.726,-205.378 316.267,-215.871 323.952,-208.578 317.726,-205.378"/>
<g id="a_edge11&#45;headlabel"><a xlink:href="dir_000133_000055.html" target="_top" xlink:title="2">
<text text-anchor="middle" x="316.845" y="-198.383" font-family="Helvetica,sans-Serif" font-size="10.00">2</text>
</a>
</g>
</g>
<!-- dir_200d929b8d5577e7f19dc05ce443c612&#45;&gt;dir_943e52f8581fabc839a1d5cc5644b223 -->
<g id="edge12" class="edge"><title>dir_200d929b8d5577e7f19dc05ce443c612&#45;&gt;dir_943e52f8581fabc839a1d5cc5644b223</title>
<path fill="none" stroke="black" d="M348.278,-79.1192C311.418,-67.8023 250.437,-49.0801 206.308,-35.5319"/>
<polygon fill="black" stroke="black" points="207.19,-32.1413 196.603,-32.5521 205.135,-38.833 207.19,-32.1413"/>
<g id="a_edge12&#45;headlabel"><a xlink:href="dir_000133_000186.html" target="_top" xlink:title="2">
<text text-anchor="middle" x="211.459" y="-27.982" font-family="Helvetica,sans-Serif" font-size="10.00">2</text>
</a>
</g>
</g>
<!-- dir_200d929b8d5577e7f19dc05ce443c612&#45;&gt;dir_93fb9127672489656ce87df72f6e986d -->
<g id="edge13" class="edge"><title>dir_200d929b8d5577e7f19dc05ce443c612&#45;&gt;dir_93fb9127672489656ce87df72f6e986d</title>
<path fill="none" stroke="black" d="M403.217,-108.104C412.428,-116.552 422.828,-126.901 431.503,-136.199"/>
<polygon fill="black" stroke="black" points="429.004,-138.653 438.321,-143.697 434.183,-133.943 429.004,-138.653"/>
<g id="a_edge13&#45;headlabel"><a xlink:href="dir_000133_000095.html" target="_top" xlink:title="1">
<text text-anchor="middle" x="424.485" y="-135.403" font-family="Helvetica,sans-Serif" font-size="10.00">1</text>
</a>
</g>
</g>
<!-- dir_200d929b8d5577e7f19dc05ce443c612&#45;&gt;dir_df3f4256615fd4197927a84a019a8bd8 -->
<g id="edge14" class="edge"><title>dir_200d929b8d5577e7f19dc05ce443c612&#45;&gt;dir_df3f4256615fd4197927a84a019a8bd8</title>
<path fill="none" stroke="black" d="M388.866,-71.6966C392.736,-63.7284 397.413,-54.0995 401.705,-45.2641"/>
<polygon fill="black" stroke="black" points="404.933,-46.6286 406.154,-36.1043 398.636,-43.5702 404.933,-46.6286"/>
<g id="a_edge14&#45;headlabel"><a xlink:href="dir_000133_000034.html" target="_top" xlink:title="1">
<text text-anchor="middle" x="405.917" y="-48.6025" font-family="Helvetica,sans-Serif" font-size="10.00">1</text>
</a>
</g>
</g>
<!-- dir_4a7570780595b51b2e72a69353927583&#45;&gt;dir_1cbc10423b2512b31103883361e0123b -->
<g id="edge23" class="edge"><title>dir_4a7570780595b51b2e72a69353927583&#45;&gt;dir_1cbc10423b2512b31103883361e0123b</title>
<path fill="none" stroke="black" d="M204.204,-288.941C223.992,-278.603 249.82,-265.112 270.693,-254.207"/>
<polygon fill="black" stroke="black" points="272.356,-257.288 279.599,-249.555 269.115,-251.083 272.356,-257.288"/>
<g id="a_edge23&#45;headlabel"><a xlink:href="dir_000141_000055.html" target="_top" xlink:title="1">
<text text-anchor="middle" x="270.484" y="-258.969" font-family="Helvetica,sans-Serif" font-size="10.00">1</text>
</a>
</g>
</g>
<!-- dir_4a7570780595b51b2e72a69353927583&#45;&gt;dir_200d929b8d5577e7f19dc05ce443c612 -->
<g id="edge24" class="edge"><title>dir_4a7570780595b51b2e72a69353927583&#45;&gt;dir_200d929b8d5577e7f19dc05ce443c612</title>
<path fill="none" stroke="black" d="M182.811,-287.713C200.523,-256.152 241.606,-188.368 290.462,-144 304.825,-130.956 322.904,-119.557 339.084,-110.707"/>
<polygon fill="black" stroke="black" points="341.151,-113.572 348.348,-105.797 337.874,-107.387 341.151,-113.572"/>
<g id="a_edge24&#45;headlabel"><a xlink:href="dir_000141_000133.html" target="_top" xlink:title="1">
<text text-anchor="middle" x="339.305" y="-115.264" font-family="Helvetica,sans-Serif" font-size="10.00">1</text>
</a>
</g>
</g>
<!-- dir_943e52f8581fabc839a1d5cc5644b223&#45;&gt;dir_1cbc10423b2512b31103883361e0123b -->
<g id="edge25" class="edge"><title>dir_943e52f8581fabc839a1d5cc5644b223&#45;&gt;dir_1cbc10423b2512b31103883361e0123b</title>
<path fill="none" stroke="black" d="M164.943,-36.2325C192.206,-73.8732 257.185,-163.586 289.115,-207.67"/>
<polygon fill="black" stroke="black" points="286.339,-209.804 295.039,-215.849 292.008,-205.697 286.339,-209.804"/>
<g id="a_edge25&#45;headlabel"><a xlink:href="dir_000186_000055.html" target="_top" xlink:title="3">
<text text-anchor="middle" x="281.931" y="-206.058" font-family="Helvetica,sans-Serif" font-size="10.00">3</text>
</a>
</g>
</g>
<!-- dir_7c0f4bc6f9f3fcba9f67ba121904eead&#45;&gt;dir_9517a59ccb1d85d9df7fc09e86ba5740 -->
<g id="edge26" class="edge"><title>dir_7c0f4bc6f9f3fcba9f67ba121904eead&#45;&gt;dir_9517a59ccb1d85d9df7fc09e86ba5740</title>
<path fill="none" stroke="black" d="M553.552,-359.697C549.909,-351.728 545.507,-342.1 541.468,-333.264"/>
<polygon fill="black" stroke="black" points="544.622,-331.744 537.281,-324.104 538.255,-334.654 544.622,-331.744"/>
<g id="a_edge26&#45;headlabel"><a xlink:href="dir_000185_000180.html" target="_top" xlink:title="1">
<text text-anchor="middle" x="548.698" y="-331.333" font-family="Helvetica,sans-Serif" font-size="10.00">1</text>
</a>
</g>
</g>
<!-- dir_7c0f4bc6f9f3fcba9f67ba121904eead&#45;&gt;dir_1cbc10423b2512b31103883361e0123b -->
<g id="edge27" class="edge"><title>dir_7c0f4bc6f9f3fcba9f67ba121904eead&#45;&gt;dir_1cbc10423b2512b31103883361e0123b</title>
<path fill="none" stroke="black" d="M530.823,-359.871C483.87,-333.622 394.288,-283.541 344.014,-255.435"/>
<polygon fill="black" stroke="black" points="345.539,-252.278 335.103,-250.453 342.124,-258.388 345.539,-252.278"/>
<g id="a_edge27&#45;headlabel"><a xlink:href="dir_000185_000055.html" target="_top" xlink:title="3">
<text text-anchor="middle" x="350.063" y="-249.054" font-family="Helvetica,sans-Serif" font-size="10.00">3</text>
</a>
</g>
</g>
<!-- dir_7c0f4bc6f9f3fcba9f67ba121904eead&#45;&gt;dir_200d929b8d5577e7f19dc05ce443c612 -->
<g id="edge28" class="edge"><title>dir_7c0f4bc6f9f3fcba9f67ba121904eead&#45;&gt;dir_200d929b8d5577e7f19dc05ce443c612</title>
<path fill="none" stroke="black" d="M601.138,-362.61C618.303,-354.175 636.673,-341.639 646.462,-324 654.225,-310.01 652.345,-302.879 646.462,-288 614.201,-206.42 583.814,-193.61 511.462,-144 484.19,-125.3 449.323,-111.6 422.417,-102.818"/>
<polygon fill="black" stroke="black" points="423.118,-99.3688 412.528,-99.6929 421.008,-106.043 423.118,-99.3688"/>
<g id="a_edge28&#45;headlabel"><a xlink:href="dir_000185_000133.html" target="_top" xlink:title="1">
<text text-anchor="middle" x="427.401" y="-95.2445" font-family="Helvetica,sans-Serif" font-size="10.00">1</text>
</a>
</g>
</g>
<!-- dir_7c0f4bc6f9f3fcba9f67ba121904eead&#45;&gt;dir_93fb9127672489656ce87df72f6e986d -->
<g id="edge29" class="edge"><title>dir_7c0f4bc6f9f3fcba9f67ba121904eead&#45;&gt;dir_93fb9127672489656ce87df72f6e986d</title>
<path fill="none" stroke="black" d="M569.057,-359.959C576.111,-341.556 584.179,-311.694 574.462,-288 556.525,-244.266 514.925,-207.91 484.628,-185.885"/>
<polygon fill="black" stroke="black" points="486.593,-182.987 476.411,-180.058 482.544,-188.698 486.593,-182.987"/>
<g id="a_edge29&#45;headlabel"><a xlink:href="dir_000185_000095.html" target="_top" xlink:title="3">
<text text-anchor="middle" x="491.168" y="-180.251" font-family="Helvetica,sans-Serif" font-size="10.00">3</text>
</a>
</g>
</g>
<!-- dir_7c0f4bc6f9f3fcba9f67ba121904eead&#45;&gt;dir_df3f4256615fd4197927a84a019a8bd8 -->
<g id="edge30" class="edge"><title>dir_7c0f4bc6f9f3fcba9f67ba121904eead&#45;&gt;dir_df3f4256615fd4197927a84a019a8bd8</title>
<path fill="none" stroke="black" d="M600.973,-363.292C621.586,-354.579 646.061,-341.595 663.462,-324 694.63,-292.485 708.462,-279.324 708.462,-235 708.462,-235 708.462,-235 708.462,-161 708.462,-52.9624 545.493,-27.0851 462.223,-20.9144"/>
<polygon fill="black" stroke="black" points="462.208,-17.4056 451.996,-20.226 461.738,-24.3898 462.208,-17.4056"/>
<g id="a_edge30&#45;headlabel"><a xlink:href="dir_000185_000034.html" target="_top" xlink:title="2">
<text text-anchor="middle" x="465.985" y="-12.3141" font-family="Helvetica,sans-Serif" font-size="10.00">2</text>
</a>
</g>
</g>
<!-- dir_93fb9127672489656ce87df72f6e986d&#45;&gt;dir_1cbc10423b2512b31103883361e0123b -->
<g id="edge31" class="edge"><title>dir_93fb9127672489656ce87df72f6e986d&#45;&gt;dir_1cbc10423b2512b31103883361e0123b</title>
<path fill="none" stroke="black" d="M420.77,-180.047C398.651,-191.547 368.061,-206.594 344.174,-217.708"/>
<polygon fill="black" stroke="black" points="342.67,-214.547 335.051,-221.908 345.598,-220.905 342.67,-214.547"/>
<g id="a_edge31&#45;headlabel"><a xlink:href="dir_000095_000055.html" target="_top" xlink:title="9">
<text text-anchor="middle" x="344.748" y="-207.964" font-family="Helvetica,sans-Serif" font-size="10.00">9</text>
</a>
</g>
</g>
<!-- dir_93fb9127672489656ce87df72f6e986d&#45;&gt;dir_200d929b8d5577e7f19dc05ce443c612 -->
<g id="edge32" class="edge"><title>dir_93fb9127672489656ce87df72f6e986d&#45;&gt;dir_200d929b8d5577e7f19dc05ce443c612</title>
<path fill="none" stroke="black" d="M426.49,-143.697C417.26,-135.22 406.864,-124.864 398.216,-115.583"/>
<polygon fill="black" stroke="black" points="400.74,-113.155 391.427,-108.104 395.557,-117.861 400.74,-113.155"/>
<g id="a_edge32&#45;headlabel"><a xlink:href="dir_000095_000133.html" target="_top" xlink:title="1">
<text text-anchor="middle" x="405.258" y="-111.408" font-family="Helvetica,sans-Serif" font-size="10.00">1</text>
</a>
</g>
</g>
<!-- dir_93fb9127672489656ce87df72f6e986d&#45;&gt;dir_df3f4256615fd4197927a84a019a8bd8 -->
<g id="edge33" class="edge"><title>dir_93fb9127672489656ce87df72f6e986d&#45;&gt;dir_df3f4256615fd4197927a84a019a8bd8</title>
<path fill="none" stroke="black" d="M440.655,-143.871C432.132,-119.67 420.882,-75.2108 415.755,-46.3932"/>
<polygon fill="black" stroke="black" points="419.156,-45.5038 414.108,-36.1893 412.246,-46.6192 419.156,-45.5038"/>
<g id="a_edge33&#45;headlabel"><a xlink:href="dir_000095_000034.html" target="_top" xlink:title="3">
<text text-anchor="middle" x="422.532" y="-46.1001" font-family="Helvetica,sans-Serif" font-size="10.00">3</text>
</a>
</g>
</g>
<!-- dir_df3f4256615fd4197927a84a019a8bd8&#45;&gt;dir_1cbc10423b2512b31103883361e0123b -->
<g id="edge42" class="edge"><title>dir_df3f4256615fd4197927a84a019a8bd8&#45;&gt;dir_1cbc10423b2512b31103883361e0123b</title>
<path fill="none" stroke="black" d="M387.444,-36.2266C373.758,-45.0066 358.187,-57.0232 348.462,-72 321.713,-113.193 316.477,-171.893 313.165,-205.857"/>
<polygon fill="black" stroke="black" points="309.667,-205.658 312.132,-215.962 316.631,-206.37 309.667,-205.658"/>
<g id="a_edge42&#45;headlabel"><a xlink:href="dir_000034_000055.html" target="_top" xlink:title="5">
<text text-anchor="middle" x="307.208" y="-199.293" font-family="Helvetica,sans-Serif" font-size="10.00">5</text>
</a>
</g>
</g>
<!-- dir_df3f4256615fd4197927a84a019a8bd8&#45;&gt;dir_93fb9127672489656ce87df72f6e986d -->
<g id="edge43" class="edge"><title>dir_df3f4256615fd4197927a84a019a8bd8&#45;&gt;dir_93fb9127672489656ce87df72f6e986d</title>
<path fill="none" stroke="black" d="M423.289,-36.1893C431.817,-60.4244 443.064,-104.888 448.182,-133.679"/>
<polygon fill="black" stroke="black" points="444.778,-134.556 449.824,-143.871 451.688,-133.442 444.778,-134.556"/>
<g id="a_edge43&#45;headlabel"><a xlink:href="dir_000034_000095.html" target="_top" xlink:title="1">
<text text-anchor="middle" x="441.403" y="-128.959" font-family="Helvetica,sans-Serif" font-size="10.00">1</text>
</a>
</g>
</g>
</g>
</svg>
        <g id="navigator" transform="translate(0 0)" fill="#404254">
                <rect fill="#f2f5e9" fill-opacity="0.5" stroke="#606060" stroke-width=".5" x="0" y="0" width="60" height="60"/>
                <use id="zoomplus" xlink:href="#zoomPlus" x="17" y="9" onmousedown="handleZoom(evt,'in')"/>
                <use id="zoomminus" xlink:href="#zoomMin" x="42" y="9" onmousedown="handleZoom(evt,'out')"/>
                <use id="reset" xlink:href="#resetDef" x="30" y="36" onmousedown="handleReset()"/>
                <g id="arrowUp" xlink:href="#dirArrow" transform="translate(30 24)" onmousedown="handlePan(0,-1)">
                  <use xlink:href="#rim" fill="#404040">
                        <set attributeName="fill" to="#808080" begin="arrowUp.mouseover" end="arrowUp.mouseout"/>
                  </use>
                  <path fill="none" stroke="white" stroke-width="1.5" d="M0,-3.0v7 M-2.5,-0.5L0,-3.0L2.5,-0.5"/>
                </g>
                <g id="arrowRight" xlink:href="#dirArrow" transform="rotate(90) translate(36 -43)" onmousedown="handlePan(1,0)">
                  <use xlink:href="#rim" fill="#404040">
                        <set attributeName="fill" to="#808080" begin="arrowRight.mouseover" end="arrowRight.mouseout"/>
                  </use>
                  <path fill="none" stroke="white" stroke-width="1.5" d="M0,-3.0v7 M-2.5,-0.5L0,-3.0L2.5,-0.5"/>
                </g>
                <g id="arrowDown" xlink:href="#dirArrow" transform="rotate(180) translate(-30 -48)" onmousedown="handlePan(0,1)">
                  <use xlink:href="#rim" fill="#404040">
                        <set attributeName="fill" to="#808080" begin="arrowDown.mouseover" end="arrowDown.mouseout"/>
                  </use>
                  <path fill="none" stroke="white" stroke-width="1.5" d="M0,-3.0v7 M-2.5,-0.5L0,-3.0L2.5,-0.5"/>
                </g>
                <g id="arrowLeft" xlink:href="#dirArrow" transform="rotate(270) translate(-36 17)" onmousedown="handlePan(-1,0)">
                  <use xlink:href="#rim" fill="#404040">
                        <set attributeName="fill" to="#808080" begin="arrowLeft.mouseover" end="arrowLeft.mouseout"/>
                  </use>
                  <path fill="none" stroke="white" stroke-width="1.5" d="M0,-3.0v7 M-2.5,-0.5L0,-3.0L2.5,-0.5"/>
                </g>
        </g>
        <svg viewBox="0 0 15 15" width="100%" height="30px" preserveAspectRatio="xMaxYMin meet">
         <g id="arrow_out" transform="scale(0.3 0.3)">
          <a xlink:href="dir_a3bea2510cd976ae36c6d156199cc578_dep_org.svg" target="_base">
           <rect id="button" ry="5" rx="5" y="6" x="6" height="38" width="38"
                fill="#f2f5e9" fill-opacity="0.5" stroke="#606060" stroke-width="1.0"/>
           <path id="arrow"
             d="M 11.500037,31.436501 C 11.940474,20.09759 22.043105,11.32322 32.158766,21.979434 L 37.068811,17.246167 C 37.068811,17.246167 37.088388,32 37.088388,32 L 22.160133,31.978069 C 22.160133,31.978069 26.997745,27.140456 26.997745,27.140456 C 18.528582,18.264221 13.291696,25.230495 11.500037,31.436501 z"
             style="fill:#404040;"/>
          </a>
         </g>
        </svg>
</svg>
