<?xml version="1.0" encoding="UTF-8" standalone="no"?>
<!DOCTYPE svg PUBLIC "-//W3C//DTD SVG 1.1//EN"
 "http://www.w3.org/Graphics/SVG/1.1/DTD/svg11.dtd">
<!-- Generated by graphviz version 2.38.0 (20140413.2041)
 -->
<!-- Title: libraries/RC_Channel/examples/RC_Channel Pages: 1 -->
<svg width="114pt" height="151pt"
 viewBox="0.00 0.00 114.00 151.00" xmlns="http://www.w3.org/2000/svg" xmlns:xlink="http://www.w3.org/1999/xlink">
<g id="graph0" class="graph" transform="scale(1 1) rotate(0) translate(4 147)">
<title>libraries/RC_Channel/examples/RC_Channel</title>
<polygon fill="white" stroke="none" points="-4,4 -4,-147 110,-147 110,4 -4,4"/>
<g id="clust1" class="cluster"><title>clusterdir_87a8b0964ceaca0c3f55018258a8a9ad</title>
<g id="a_clust1"><a xlink:href="dir_87a8b0964ceaca0c3f55018258a8a9ad.html" target="_top" xlink:title="examples">
<polygon fill="#ddddee" stroke="black" points="8,-64 8,-135 98,-135 98,-64 8,-64"/>
<text text-anchor="middle" x="53" y="-123" font-family="Helvetica,sans-Serif" font-size="10.00">examples</text>
</a>
</g>
</g>
<!-- dir_32871a3cbaed166b01bcfff43e99c54a -->
<g id="node1" class="node"><title>dir_32871a3cbaed166b01bcfff43e99c54a</title>
<g id="a_node1"><a xlink:href="dir_32871a3cbaed166b01bcfff43e99c54a.html" target="_top" xlink:title="RC_Channel">
<polygon fill="#eeeeff" stroke="black" points="89.5,-108 16.5,-108 16.5,-72 89.5,-72 89.5,-108"/>
<text text-anchor="middle" x="53" y="-87.5" font-family="Helvetica,sans-Serif" font-size="10.00">RC_Channel</text>
</a>
</g>
</g>
<!-- dir_1cbc10423b2512b31103883361e0123b -->
<g id="node2" class="node"><title>dir_1cbc10423b2512b31103883361e0123b</title>
<g id="a_node2"><a xlink:href="dir_1cbc10423b2512b31103883361e0123b.html" target="_top" xlink:title="AP_HAL">
<polygon fill="white" stroke="red" points="80.5,-36 25.5,-36 25.5,-0 80.5,-0 80.5,-36"/>
<text text-anchor="middle" x="53" y="-15.5" font-family="Helvetica,sans-Serif" font-size="10.00">AP_HAL</text>
</a>
</g>
</g>
<!-- dir_32871a3cbaed166b01bcfff43e99c54a&#45;&gt;dir_1cbc10423b2512b31103883361e0123b -->
<g id="edge1" class="edge"><title>dir_32871a3cbaed166b01bcfff43e99c54a&#45;&gt;dir_1cbc10423b2512b31103883361e0123b</title>
<path fill="none" stroke="black" d="M53,-71.6966C53,-63.9827 53,-54.7125 53,-46.1124"/>
<polygon fill="black" stroke="black" points="56.5001,-46.1043 53,-36.1043 49.5001,-46.1044 56.5001,-46.1043"/>
<g id="a_edge1&#45;headlabel"><a xlink:href="dir_000182_000055.html" target="_top" xlink:title="1">
<text text-anchor="middle" x="59.3393" y="-47.199" font-family="Helvetica,sans-Serif" font-size="10.00">1</text>
</a>
</g>
</g>
</g>
</svg>
