<?xml version="1.0" encoding="UTF-8" standalone="no"?>
<!DOCTYPE svg PUBLIC "-//W3C//DTD SVG 1.1//EN"
 "http://www.w3.org/Graphics/SVG/1.1/DTD/svg11.dtd">
<!-- Generated by graphviz version 2.38.0 (20140413.2041)
 -->
<!-- Title: test_euler Pages: 1 -->
<svg width="754pt" height="262pt"
 viewBox="0.00 0.00 754.00 262.00" xmlns="http://www.w3.org/2000/svg" xmlns:xlink="http://www.w3.org/1999/xlink">
<g id="graph0" class="graph" transform="scale(1 1) rotate(0) translate(4 258)">
<title>test_euler</title>
<polygon fill="white" stroke="none" points="-4,4 -4,-258 750,-258 750,4 -4,4"/>
<!-- Node1 -->
<g id="node1" class="node"><title>Node1</title>
<polygon fill="#bfbfbf" stroke="black" points="0,-147.5 0,-166.5 59,-166.5 59,-147.5 0,-147.5"/>
<text text-anchor="middle" x="29.5" y="-154.5" font-family="Helvetica,sans-Serif" font-size="10.00">test_euler</text>
</g>
<!-- Node2 -->
<g id="node2" class="node"><title>Node2</title>
<g id="a_node2"><a xlink:href="classMatrix3.html#a62587bd216436f09f06b9e1330f84bc0" target="_top" xlink:title="Matrix3::from_euler">
<polygon fill="white" stroke="black" points="95,-185.5 95,-204.5 196,-204.5 196,-185.5 95,-185.5"/>
<text text-anchor="middle" x="145.5" y="-192.5" font-family="Helvetica,sans-Serif" font-size="10.00">Matrix3::from_euler</text>
</a>
</g>
</g>
<!-- Node1&#45;&gt;Node2 -->
<g id="edge1" class="edge"><title>Node1&#45;&gt;Node2</title>
<path fill="none" stroke="midnightblue" d="M59.267,-166.589C73.4433,-171.314 90.7366,-177.079 106.032,-182.177"/>
<polygon fill="midnightblue" stroke="midnightblue" points="105.149,-185.572 115.742,-185.414 107.362,-178.931 105.149,-185.572"/>
</g>
<!-- Node3 -->
<g id="node3" class="node"><title>Node3</title>
<g id="a_node3"><a xlink:href="classMatrix3.html#a893c6a712d52e47dbb7ed2d7a548046e" target="_top" xlink:title="Matrix3::to_euler">
<polygon fill="white" stroke="black" points="101,-147.5 101,-166.5 190,-166.5 190,-147.5 101,-147.5"/>
<text text-anchor="middle" x="145.5" y="-154.5" font-family="Helvetica,sans-Serif" font-size="10.00">Matrix3::to_euler</text>
</a>
</g>
</g>
<!-- Node1&#45;&gt;Node3 -->
<g id="edge2" class="edge"><title>Node1&#45;&gt;Node3</title>
<path fill="none" stroke="midnightblue" d="M59.267,-157C68.7642,-157 79.6604,-157 90.4177,-157"/>
<polygon fill="midnightblue" stroke="midnightblue" points="90.6387,-160.5 100.639,-157 90.6386,-153.5 90.6387,-160.5"/>
</g>
<!-- Node9 -->
<g id="node9" class="node"><title>Node9</title>
<g id="a_node9"><a xlink:href="eulers_8cpp.html#a6bfa6320a080694c8cdf18de74004189" target="_top" xlink:title="check_result">
<polygon fill="white" stroke="black" points="109.5,-87.5 109.5,-106.5 181.5,-106.5 181.5,-87.5 109.5,-87.5"/>
<text text-anchor="middle" x="145.5" y="-94.5" font-family="Helvetica,sans-Serif" font-size="10.00">check_result</text>
</a>
</g>
</g>
<!-- Node1&#45;&gt;Node9 -->
<g id="edge8" class="edge"><title>Node1&#45;&gt;Node9</title>
<path fill="none" stroke="midnightblue" d="M48.5636,-147.493C67.0488,-137.764 95.9993,-122.527 117.266,-111.334"/>
<polygon fill="midnightblue" stroke="midnightblue" points="118.924,-114.416 126.143,-106.661 115.664,-108.222 118.924,-114.416"/>
</g>
<!-- Node4 -->
<g id="node4" class="node"><title>Node4</title>
<g id="a_node4"><a xlink:href="AP__Math_8cpp.html#a3370ada2588e54722319d65e00d8545c" target="_top" xlink:title="safe_asin">
<polygon fill="white" stroke="black" points="260,-158.5 260,-177.5 319,-177.5 319,-158.5 260,-158.5"/>
<text text-anchor="middle" x="289.5" y="-165.5" font-family="Helvetica,sans-Serif" font-size="10.00">safe_asin</text>
</a>
</g>
</g>
<!-- Node3&#45;&gt;Node4 -->
<g id="edge3" class="edge"><title>Node3&#45;&gt;Node4</title>
<path fill="none" stroke="midnightblue" d="M190.263,-160.39C209.289,-161.864 231.391,-163.576 249.807,-165.003"/>
<polygon fill="midnightblue" stroke="midnightblue" points="249.653,-168.501 259.894,-165.784 250.194,-161.522 249.653,-168.501"/>
</g>
<!-- Node5 -->
<g id="node5" class="node"><title>Node5</title>
<g id="a_node5"><a xlink:href="AP__Math_8cpp.html#acde8e5813f30717986b84509948bf530" target="_top" xlink:title="safe_asin\&lt; int \&gt;">
<polygon fill="white" stroke="black" points="397,-234.5 397,-253.5 484,-253.5 484,-234.5 397,-234.5"/>
<text text-anchor="middle" x="440.5" y="-241.5" font-family="Helvetica,sans-Serif" font-size="10.00">safe_asin&lt; int &gt;</text>
</a>
</g>
</g>
<!-- Node4&#45;&gt;Node5 -->
<g id="edge4" class="edge"><title>Node4&#45;&gt;Node5</title>
<path fill="none" stroke="midnightblue" d="M303.744,-177.51C321.229,-189.743 353.281,-211.069 383,-225 387.625,-227.168 392.567,-229.206 397.532,-231.084"/>
<polygon fill="midnightblue" stroke="midnightblue" points="396.436,-234.409 407.03,-234.49 398.799,-227.82 396.436,-234.409"/>
</g>
<!-- Node6 -->
<g id="node6" class="node"><title>Node6</title>
<g id="a_node6"><a xlink:href="AP__Math_8cpp.html#a6baeda4985886aba9f6d5d5008ac2b10" target="_top" xlink:title="safe_asin\&lt; short \&gt;">
<polygon fill="white" stroke="black" points="391.5,-196.5 391.5,-215.5 489.5,-215.5 489.5,-196.5 391.5,-196.5"/>
<text text-anchor="middle" x="440.5" y="-203.5" font-family="Helvetica,sans-Serif" font-size="10.00">safe_asin&lt; short &gt;</text>
</a>
</g>
</g>
<!-- Node4&#45;&gt;Node6 -->
<g id="edge5" class="edge"><title>Node4&#45;&gt;Node6</title>
<path fill="none" stroke="midnightblue" d="M319.229,-175.327C339.873,-180.592 368.174,-187.809 392.136,-193.921"/>
<polygon fill="midnightblue" stroke="midnightblue" points="391.551,-197.383 402.105,-196.463 393.28,-190.6 391.551,-197.383"/>
</g>
<!-- Node7 -->
<g id="node7" class="node"><title>Node7</title>
<g id="a_node7"><a xlink:href="AP__Math_8cpp.html#a48612e903b0ef12fa5653056a6d5b3f7" target="_top" xlink:title="safe_asin\&lt; float \&gt;">
<polygon fill="white" stroke="black" points="393,-158.5 393,-177.5 488,-177.5 488,-158.5 393,-158.5"/>
<text text-anchor="middle" x="440.5" y="-165.5" font-family="Helvetica,sans-Serif" font-size="10.00">safe_asin&lt; float &gt;</text>
</a>
</g>
</g>
<!-- Node4&#45;&gt;Node7 -->
<g id="edge6" class="edge"><title>Node4&#45;&gt;Node7</title>
<path fill="none" stroke="midnightblue" d="M319.229,-168C337.261,-168 361.134,-168 382.855,-168"/>
<polygon fill="midnightblue" stroke="midnightblue" points="382.981,-171.5 392.981,-168 382.981,-164.5 382.981,-171.5"/>
</g>
<!-- Node8 -->
<g id="node8" class="node"><title>Node8</title>
<g id="a_node8"><a xlink:href="AP__Math_8cpp.html#a9f2aae5b5adb09329c1a64b433d148dd" target="_top" xlink:title="safe_asin\&lt; double \&gt;">
<polygon fill="white" stroke="black" points="388,-120.5 388,-139.5 493,-139.5 493,-120.5 388,-120.5"/>
<text text-anchor="middle" x="440.5" y="-127.5" font-family="Helvetica,sans-Serif" font-size="10.00">safe_asin&lt; double &gt;</text>
</a>
</g>
</g>
<!-- Node4&#45;&gt;Node8 -->
<g id="edge7" class="edge"><title>Node4&#45;&gt;Node8</title>
<path fill="none" stroke="midnightblue" d="M319.229,-160.673C339.873,-155.408 368.174,-148.191 392.136,-142.079"/>
<polygon fill="midnightblue" stroke="midnightblue" points="393.28,-145.4 402.105,-139.537 391.551,-138.617 393.28,-145.4"/>
</g>
<!-- Node10 -->
<g id="node10" class="node"><title>Node10</title>
<g id="a_node10"><a xlink:href="classAP__HAL_1_1UARTDriver.html#a6ceedc792594e59fc7d80b39a435f027" target="_top" xlink:title="AP_HAL::UARTDriver\l::printf">
<polygon fill="white" stroke="black" points="232,-82 232,-112 347,-112 347,-82 232,-82"/>
<text text-anchor="start" x="240" y="-100" font-family="Helvetica,sans-Serif" font-size="10.00">AP_HAL::UARTDriver</text>
<text text-anchor="middle" x="289.5" y="-89" font-family="Helvetica,sans-Serif" font-size="10.00">::printf</text>
</a>
</g>
</g>
<!-- Node9&#45;&gt;Node10 -->
<g id="edge9" class="edge"><title>Node9&#45;&gt;Node10</title>
<path fill="none" stroke="midnightblue" d="M181.601,-97C193.828,-97 207.981,-97 221.908,-97"/>
<polygon fill="midnightblue" stroke="midnightblue" points="221.978,-100.5 231.978,-97 221.978,-93.5001 221.978,-100.5"/>
</g>
<!-- Node18 -->
<g id="node18" class="node"><title>Node18</title>
<g id="a_node18"><a xlink:href="eulers_8cpp.html#aa94c06a1eb86dc7dd817303e608203b6" target="_top" xlink:title="rad_diff">
<polygon fill="white" stroke="black" points="265,-43.5 265,-62.5 314,-62.5 314,-43.5 265,-43.5"/>
<text text-anchor="middle" x="289.5" y="-50.5" font-family="Helvetica,sans-Serif" font-size="10.00">rad_diff</text>
</a>
</g>
</g>
<!-- Node9&#45;&gt;Node18 -->
<g id="edge17" class="edge"><title>Node9&#45;&gt;Node18</title>
<path fill="none" stroke="midnightblue" d="M177.312,-87.4527C200.294,-80.3314 231.653,-70.6147 255.209,-63.3155"/>
<polygon fill="midnightblue" stroke="midnightblue" points="256.264,-66.6529 264.78,-60.3499 254.192,-59.9665 256.264,-66.6529"/>
</g>
<!-- Node11 -->
<g id="node11" class="node"><title>Node11</title>
<g id="a_node11"><a xlink:href="classAP__HAL_1_1UARTDriver.html#aa8abfb6d6641299472c29ac1edde559f" target="_top" xlink:title="AP_HAL::UARTDriver\l::vprintf">
<polygon fill="white" stroke="black" points="383,-71 383,-101 498,-101 498,-71 383,-71"/>
<text text-anchor="start" x="391" y="-89" font-family="Helvetica,sans-Serif" font-size="10.00">AP_HAL::UARTDriver</text>
<text text-anchor="middle" x="440.5" y="-78" font-family="Helvetica,sans-Serif" font-size="10.00">::vprintf</text>
</a>
</g>
</g>
<!-- Node10&#45;&gt;Node11 -->
<g id="edge10" class="edge"><title>Node10&#45;&gt;Node11</title>
<path fill="none" stroke="midnightblue" d="M347.256,-92.81C355.558,-92.1971 364.173,-91.5611 372.654,-90.935"/>
<polygon fill="midnightblue" stroke="midnightblue" points="373.187,-94.4052 382.902,-90.1784 372.672,-87.4242 373.187,-94.4052"/>
</g>
<!-- Node12 -->
<g id="node12" class="node"><title>Node12</title>
<g id="a_node12"><a xlink:href="print__vprintf_8cpp.html#a1534eaeab54696df96975b56d9f49212" target="_top" xlink:title="print_vprintf">
<polygon fill="white" stroke="black" points="534,-76.5 534,-95.5 602,-95.5 602,-76.5 534,-76.5"/>
<text text-anchor="middle" x="568" y="-83.5" font-family="Helvetica,sans-Serif" font-size="10.00">print_vprintf</text>
</a>
</g>
</g>
<!-- Node11&#45;&gt;Node12 -->
<g id="edge11" class="edge"><title>Node11&#45;&gt;Node12</title>
<path fill="none" stroke="midnightblue" d="M498.009,-86C506.609,-86 515.367,-86 523.628,-86"/>
<polygon fill="midnightblue" stroke="midnightblue" points="523.777,-89.5001 533.777,-86 523.777,-82.5001 523.777,-89.5001"/>
</g>
<!-- Node13 -->
<g id="node13" class="node"><title>Node13</title>
<g id="a_node13"><a xlink:href="classAP__HAL_1_1Print.html#acc65391952a43334f8f5c9bef341f501" target="_top" xlink:title="AP_HAL::Print::write">
<polygon fill="white" stroke="black" points="638,-152.5 638,-171.5 746,-171.5 746,-152.5 638,-152.5"/>
<text text-anchor="middle" x="692" y="-159.5" font-family="Helvetica,sans-Serif" font-size="10.00">AP_HAL::Print::write</text>
</a>
</g>
</g>
<!-- Node12&#45;&gt;Node13 -->
<g id="edge12" class="edge"><title>Node12&#45;&gt;Node13</title>
<path fill="none" stroke="midnightblue" d="M578.47,-95.6825C591.07,-108.102 614.502,-129.629 638,-143 641.632,-145.067 645.529,-146.973 649.501,-148.715"/>
<polygon fill="midnightblue" stroke="midnightblue" points="648.233,-151.977 658.816,-152.479 650.856,-145.487 648.233,-151.977"/>
</g>
<!-- Node14 -->
<g id="node14" class="node"><title>Node14</title>
<g id="a_node14"><a xlink:href="ftoa__engine_8cpp.html#a1c28234da8f20b43c85890d4bb452947" target="_top" xlink:title="ftoa_engine">
<polygon fill="white" stroke="black" points="658.5,-114.5 658.5,-133.5 725.5,-133.5 725.5,-114.5 658.5,-114.5"/>
<text text-anchor="middle" x="692" y="-121.5" font-family="Helvetica,sans-Serif" font-size="10.00">ftoa_engine</text>
</a>
</g>
</g>
<!-- Node12&#45;&gt;Node14 -->
<g id="edge13" class="edge"><title>Node12&#45;&gt;Node14</title>
<path fill="none" stroke="midnightblue" d="M599.786,-95.589C615.101,-100.359 633.817,-106.189 650.3,-111.323"/>
<polygon fill="midnightblue" stroke="midnightblue" points="649.636,-114.782 660.224,-114.414 651.717,-108.099 649.636,-114.782"/>
</g>
<!-- Node15 -->
<g id="node15" class="node"><title>Node15</title>
<g id="a_node15"><a xlink:href="replace_8cpp.html#a880bcc7b85a09e6254691bebd5344b51" target="_top" xlink:title="strnlen">
<polygon fill="white" stroke="black" points="669,-76.5 669,-95.5 715,-95.5 715,-76.5 669,-76.5"/>
<text text-anchor="middle" x="692" y="-83.5" font-family="Helvetica,sans-Serif" font-size="10.00">strnlen</text>
</a>
</g>
</g>
<!-- Node12&#45;&gt;Node15 -->
<g id="edge14" class="edge"><title>Node12&#45;&gt;Node15</title>
<path fill="none" stroke="midnightblue" d="M602.015,-86C619.547,-86 641.016,-86 658.474,-86"/>
<polygon fill="midnightblue" stroke="midnightblue" points="658.754,-89.5001 668.754,-86 658.754,-82.5001 658.754,-89.5001"/>
</g>
<!-- Node16 -->
<g id="node16" class="node"><title>Node16</title>
<g id="a_node16"><a xlink:href="utoa__invert_8cpp.html#a34926f552460b47c414ec4d83b32815c" target="_top" xlink:title="ulltoa_invert">
<polygon fill="white" stroke="black" points="657.5,-38.5 657.5,-57.5 726.5,-57.5 726.5,-38.5 657.5,-38.5"/>
<text text-anchor="middle" x="692" y="-45.5" font-family="Helvetica,sans-Serif" font-size="10.00">ulltoa_invert</text>
</a>
</g>
</g>
<!-- Node12&#45;&gt;Node16 -->
<g id="edge15" class="edge"><title>Node12&#45;&gt;Node16</title>
<path fill="none" stroke="midnightblue" d="M599.786,-76.411C615.101,-71.6406 633.817,-65.8112 650.3,-60.6771"/>
<polygon fill="midnightblue" stroke="midnightblue" points="651.717,-63.9015 660.224,-57.5859 649.636,-57.2182 651.717,-63.9015"/>
</g>
<!-- Node17 -->
<g id="node17" class="node"><title>Node17</title>
<g id="a_node17"><a xlink:href="utoa__invert_8cpp.html#a5d99bba8e697c1e11da489d88fca8559" target="_top" xlink:title="ultoa_invert">
<polygon fill="white" stroke="black" points="658.5,-0.5 658.5,-19.5 725.5,-19.5 725.5,-0.5 658.5,-0.5"/>
<text text-anchor="middle" x="692" y="-7.5" font-family="Helvetica,sans-Serif" font-size="10.00">ultoa_invert</text>
</a>
</g>
</g>
<!-- Node12&#45;&gt;Node17 -->
<g id="edge16" class="edge"><title>Node12&#45;&gt;Node17</title>
<path fill="none" stroke="midnightblue" d="M578.47,-76.3175C591.07,-63.8984 614.502,-42.371 638,-29 641.632,-26.9334 645.529,-25.0271 649.501,-23.2853"/>
<polygon fill="midnightblue" stroke="midnightblue" points="650.856,-26.5129 658.816,-19.5214 648.233,-20.0226 650.856,-26.5129"/>
</g>
</g>
</svg>
