<?xml version="1.0" encoding="UTF-8" standalone="no"?>
<!DOCTYPE svg PUBLIC "-//W3C//DTD SVG 1.1//EN"
 "http://www.w3.org/Graphics/SVG/1.1/DTD/svg11.dtd">
<!-- Generated by graphviz version 2.38.0 (20140413.2041)
 -->
<!-- Title: AP_HAL_MAIN Pages: 1 -->
<svg width="302pt" height="28pt"
 viewBox="0.00 0.00 302.00 28.00" xmlns="http://www.w3.org/2000/svg" xmlns:xlink="http://www.w3.org/1999/xlink">
<g id="graph0" class="graph" transform="scale(1 1) rotate(0) translate(4 24)">
<title>AP_HAL_MAIN</title>
<polygon fill="white" stroke="none" points="-4,4 -4,-24 298,-24 298,4 -4,4"/>
<!-- Node1 -->
<g id="node1" class="node"><title>Node1</title>
<polygon fill="#bfbfbf" stroke="black" points="0,-0.5 0,-19.5 86,-19.5 86,-0.5 0,-0.5"/>
<text text-anchor="middle" x="43" y="-7.5" font-family="Helvetica,sans-Serif" font-size="10.00">AP_HAL_MAIN</text>
</g>
<!-- Node2 -->
<g id="node2" class="node"><title>Node2</title>
<g id="a_node2"><a xlink:href="examples_2RC__Channel_2RC__Channel_8cpp.html#a53067bc7a0921d9570fc1c68ce074877" target="_top" xlink:title="print_radio_values">
<polygon fill="white" stroke="black" points="122,-0.5 122,-19.5 217,-19.5 217,-0.5 122,-0.5"/>
<text text-anchor="middle" x="169.5" y="-7.5" font-family="Helvetica,sans-Serif" font-size="10.00">print_radio_values</text>
</a>
</g>
</g>
<!-- Node1&#45;&gt;Node2 -->
<g id="edge1" class="edge"><title>Node1&#45;&gt;Node2</title>
<path fill="none" stroke="midnightblue" d="M96.271,-10C104.706,-10 113.392,-10 121.687,-10"/>
<polygon fill="midnightblue" stroke="midnightblue" points="96.1501,-6.5001 86.15,-10 96.15,-13.5001 96.1501,-6.5001"/>
</g>
<!-- Node3 -->
<g id="node3" class="node"><title>Node3</title>
<g id="a_node3"><a xlink:href="examples_2RC__Channel_2RC__Channel_8cpp.html#a4fc01d736fe50cf5b977f755b675f11d" target="_top" xlink:title="setup">
<polygon fill="white" stroke="black" points="253,-0.5 253,-19.5 294,-19.5 294,-0.5 253,-0.5"/>
<text text-anchor="middle" x="273.5" y="-7.5" font-family="Helvetica,sans-Serif" font-size="10.00">setup</text>
</a>
</g>
</g>
<!-- Node2&#45;&gt;Node3 -->
<g id="edge2" class="edge"><title>Node2&#45;&gt;Node3</title>
<path fill="none" stroke="midnightblue" d="M227.091,-10C236.333,-10 245.328,-10 252.841,-10"/>
<polygon fill="midnightblue" stroke="midnightblue" points="227.023,-6.5001 217.023,-10 227.023,-13.5001 227.023,-6.5001"/>
</g>
</g>
</svg>
