<?xml version="1.0" encoding="UTF-8" standalone="no"?>
<!DOCTYPE svg PUBLIC "-//W3C//DTD SVG 1.1//EN"
 "http://www.w3.org/Graphics/SVG/1.1/DTD/svg11.dtd">
<!-- Generated by graphviz version 2.38.0 (20140413.2041)
 -->
<!-- Title: setup Pages: 1 -->
<svg width="599pt" height="208pt"
 viewBox="0.00 0.00 599.00 207.50" xmlns="http://www.w3.org/2000/svg" xmlns:xlink="http://www.w3.org/1999/xlink">
<g id="graph0" class="graph" transform="scale(1 1) rotate(0) translate(4 203.5)">
<title>setup</title>
<polygon fill="white" stroke="none" points="-4,4 -4,-203.5 595,-203.5 595,4 -4,4"/>
<!-- Node1 -->
<g id="node1" class="node"><title>Node1</title>
<polygon fill="#bfbfbf" stroke="black" points="0,-55 0,-74 41,-74 41,-55 0,-55"/>
<text text-anchor="middle" x="20.5" y="-62" font-family="Helvetica,sans-Serif" font-size="10.00">setup</text>
</g>
<!-- Node2 -->
<g id="node2" class="node"><title>Node2</title>
<g id="a_node2"><a xlink:href="classAP__HAL_1_1UARTDriver.html#a6ceedc792594e59fc7d80b39a435f027" target="_top" xlink:title="AP_HAL::UARTDriver\l::printf">
<polygon fill="white" stroke="black" points="77,-98.5 77,-128.5 192,-128.5 192,-98.5 77,-98.5"/>
<text text-anchor="start" x="85" y="-116.5" font-family="Helvetica,sans-Serif" font-size="10.00">AP_HAL::UARTDriver</text>
<text text-anchor="middle" x="134.5" y="-105.5" font-family="Helvetica,sans-Serif" font-size="10.00">::printf</text>
</a>
</g>
</g>
<!-- Node1&#45;&gt;Node2 -->
<g id="edge1" class="edge"><title>Node1&#45;&gt;Node2</title>
<path fill="none" stroke="midnightblue" d="M41.2325,-73.5129C51.8143,-78.3146 65.0916,-84.2894 77,-89.5 80.6308,-91.0887 84.399,-92.7222 88.1881,-94.3541"/>
<polygon fill="midnightblue" stroke="midnightblue" points="87.0131,-97.6584 97.5833,-98.3806 89.7705,-91.2244 87.0131,-97.6584"/>
</g>
<!-- Node10 -->
<g id="node10" class="node"><title>Node10</title>
<g id="a_node10"><a xlink:href="classLowPassFilter.html#a1cc5016de137b01080fa0a6fa7fe53cd" target="_top" xlink:title="LowPassFilter::set\l_cutoff_frequency">
<polygon fill="white" stroke="black" points="85.5,-49.5 85.5,-79.5 183.5,-79.5 183.5,-49.5 85.5,-49.5"/>
<text text-anchor="start" x="93.5" y="-67.5" font-family="Helvetica,sans-Serif" font-size="10.00">LowPassFilter::set</text>
<text text-anchor="middle" x="134.5" y="-56.5" font-family="Helvetica,sans-Serif" font-size="10.00">_cutoff_frequency</text>
</a>
</g>
</g>
<!-- Node1&#45;&gt;Node10 -->
<g id="edge9" class="edge"><title>Node1&#45;&gt;Node10</title>
<path fill="none" stroke="midnightblue" d="M41.0089,-64.5C50.6058,-64.5 62.7351,-64.5 75.0238,-64.5"/>
<polygon fill="midnightblue" stroke="midnightblue" points="75.3316,-68.0001 85.3316,-64.5 75.3316,-61.0001 75.3316,-68.0001"/>
</g>
<!-- Node11 -->
<g id="node11" class="node"><title>Node11</title>
<g id="a_node11"><a xlink:href="classAP__HAL_1_1Scheduler.html#ab3175e2e6223ccfe82f957e41cc12b26" target="_top" xlink:title="AP_HAL::Scheduler::\ldelay">
<polygon fill="white" stroke="black" points="79.5,-0.5 79.5,-30.5 189.5,-30.5 189.5,-0.5 79.5,-0.5"/>
<text text-anchor="start" x="87.5" y="-18.5" font-family="Helvetica,sans-Serif" font-size="10.00">AP_HAL::Scheduler::</text>
<text text-anchor="middle" x="134.5" y="-7.5" font-family="Helvetica,sans-Serif" font-size="10.00">delay</text>
</a>
</g>
</g>
<!-- Node1&#45;&gt;Node11 -->
<g id="edge10" class="edge"><title>Node1&#45;&gt;Node11</title>
<path fill="none" stroke="midnightblue" d="M41.0089,-55.9649C54.3162,-50.1429 72.4929,-42.1906 89.2116,-34.8762"/>
<polygon fill="midnightblue" stroke="midnightblue" points="91.0804,-37.879 98.8391,-30.6642 88.2746,-31.4658 91.0804,-37.879"/>
</g>
<!-- Node3 -->
<g id="node3" class="node"><title>Node3</title>
<g id="a_node3"><a xlink:href="classAP__HAL_1_1UARTDriver.html#aa8abfb6d6641299472c29ac1edde559f" target="_top" xlink:title="AP_HAL::UARTDriver\l::vprintf">
<polygon fill="white" stroke="black" points="228,-98.5 228,-128.5 343,-128.5 343,-98.5 228,-98.5"/>
<text text-anchor="start" x="236" y="-116.5" font-family="Helvetica,sans-Serif" font-size="10.00">AP_HAL::UARTDriver</text>
<text text-anchor="middle" x="285.5" y="-105.5" font-family="Helvetica,sans-Serif" font-size="10.00">::vprintf</text>
</a>
</g>
</g>
<!-- Node2&#45;&gt;Node3 -->
<g id="edge2" class="edge"><title>Node2&#45;&gt;Node3</title>
<path fill="none" stroke="midnightblue" d="M192.256,-113.5C200.558,-113.5 209.173,-113.5 217.654,-113.5"/>
<polygon fill="midnightblue" stroke="midnightblue" points="217.902,-117 227.902,-113.5 217.902,-110 217.902,-117"/>
</g>
<!-- Node4 -->
<g id="node4" class="node"><title>Node4</title>
<g id="a_node4"><a xlink:href="print__vprintf_8cpp.html#a1534eaeab54696df96975b56d9f49212" target="_top" xlink:title="print_vprintf">
<polygon fill="white" stroke="black" points="379,-104 379,-123 447,-123 447,-104 379,-104"/>
<text text-anchor="middle" x="413" y="-111" font-family="Helvetica,sans-Serif" font-size="10.00">print_vprintf</text>
</a>
</g>
</g>
<!-- Node3&#45;&gt;Node4 -->
<g id="edge3" class="edge"><title>Node3&#45;&gt;Node4</title>
<path fill="none" stroke="midnightblue" d="M343.009,-113.5C351.609,-113.5 360.367,-113.5 368.628,-113.5"/>
<polygon fill="midnightblue" stroke="midnightblue" points="368.777,-117 378.777,-113.5 368.777,-110 368.777,-117"/>
</g>
<!-- Node5 -->
<g id="node5" class="node"><title>Node5</title>
<g id="a_node5"><a xlink:href="classAP__HAL_1_1Print.html#acc65391952a43334f8f5c9bef341f501" target="_top" xlink:title="AP_HAL::Print::write">
<polygon fill="white" stroke="black" points="483,-180 483,-199 591,-199 591,-180 483,-180"/>
<text text-anchor="middle" x="537" y="-187" font-family="Helvetica,sans-Serif" font-size="10.00">AP_HAL::Print::write</text>
</a>
</g>
</g>
<!-- Node4&#45;&gt;Node5 -->
<g id="edge4" class="edge"><title>Node4&#45;&gt;Node5</title>
<path fill="none" stroke="midnightblue" d="M423.47,-123.183C436.07,-135.602 459.502,-157.129 483,-170.5 486.632,-172.567 490.529,-174.473 494.501,-176.215"/>
<polygon fill="midnightblue" stroke="midnightblue" points="493.233,-179.477 503.816,-179.979 495.856,-172.987 493.233,-179.477"/>
</g>
<!-- Node6 -->
<g id="node6" class="node"><title>Node6</title>
<g id="a_node6"><a xlink:href="ftoa__engine_8cpp.html#a1c28234da8f20b43c85890d4bb452947" target="_top" xlink:title="ftoa_engine">
<polygon fill="white" stroke="black" points="503.5,-142 503.5,-161 570.5,-161 570.5,-142 503.5,-142"/>
<text text-anchor="middle" x="537" y="-149" font-family="Helvetica,sans-Serif" font-size="10.00">ftoa_engine</text>
</a>
</g>
</g>
<!-- Node4&#45;&gt;Node6 -->
<g id="edge5" class="edge"><title>Node4&#45;&gt;Node6</title>
<path fill="none" stroke="midnightblue" d="M444.786,-123.089C460.101,-127.859 478.817,-133.689 495.3,-138.823"/>
<polygon fill="midnightblue" stroke="midnightblue" points="494.636,-142.282 505.224,-141.914 496.717,-135.599 494.636,-142.282"/>
</g>
<!-- Node7 -->
<g id="node7" class="node"><title>Node7</title>
<g id="a_node7"><a xlink:href="replace_8cpp.html#a880bcc7b85a09e6254691bebd5344b51" target="_top" xlink:title="strnlen">
<polygon fill="white" stroke="black" points="514,-104 514,-123 560,-123 560,-104 514,-104"/>
<text text-anchor="middle" x="537" y="-111" font-family="Helvetica,sans-Serif" font-size="10.00">strnlen</text>
</a>
</g>
</g>
<!-- Node4&#45;&gt;Node7 -->
<g id="edge6" class="edge"><title>Node4&#45;&gt;Node7</title>
<path fill="none" stroke="midnightblue" d="M447.015,-113.5C464.547,-113.5 486.016,-113.5 503.474,-113.5"/>
<polygon fill="midnightblue" stroke="midnightblue" points="503.754,-117 513.754,-113.5 503.754,-110 503.754,-117"/>
</g>
<!-- Node8 -->
<g id="node8" class="node"><title>Node8</title>
<g id="a_node8"><a xlink:href="utoa__invert_8cpp.html#a34926f552460b47c414ec4d83b32815c" target="_top" xlink:title="ulltoa_invert">
<polygon fill="white" stroke="black" points="502.5,-66 502.5,-85 571.5,-85 571.5,-66 502.5,-66"/>
<text text-anchor="middle" x="537" y="-73" font-family="Helvetica,sans-Serif" font-size="10.00">ulltoa_invert</text>
</a>
</g>
</g>
<!-- Node4&#45;&gt;Node8 -->
<g id="edge7" class="edge"><title>Node4&#45;&gt;Node8</title>
<path fill="none" stroke="midnightblue" d="M444.786,-103.911C460.101,-99.1406 478.817,-93.3112 495.3,-88.1771"/>
<polygon fill="midnightblue" stroke="midnightblue" points="496.717,-91.4015 505.224,-85.0859 494.636,-84.7182 496.717,-91.4015"/>
</g>
<!-- Node9 -->
<g id="node9" class="node"><title>Node9</title>
<g id="a_node9"><a xlink:href="utoa__invert_8cpp.html#a5d99bba8e697c1e11da489d88fca8559" target="_top" xlink:title="ultoa_invert">
<polygon fill="white" stroke="black" points="503.5,-28 503.5,-47 570.5,-47 570.5,-28 503.5,-28"/>
<text text-anchor="middle" x="537" y="-35" font-family="Helvetica,sans-Serif" font-size="10.00">ultoa_invert</text>
</a>
</g>
</g>
<!-- Node4&#45;&gt;Node9 -->
<g id="edge8" class="edge"><title>Node4&#45;&gt;Node9</title>
<path fill="none" stroke="midnightblue" d="M423.47,-103.817C436.07,-91.3984 459.502,-69.871 483,-56.5 486.632,-54.4334 490.529,-52.5271 494.501,-50.7853"/>
<polygon fill="midnightblue" stroke="midnightblue" points="495.856,-54.0129 503.816,-47.0214 493.233,-47.5226 495.856,-54.0129"/>
</g>
</g>
</svg>
