<?xml version="1.0" encoding="UTF-8" standalone="no"?>
<!DOCTYPE svg PUBLIC "-//W3C//DTD SVG 1.1//EN"
 "http://www.w3.org/Graphics/SVG/1.1/DTD/svg11.dtd">
<!-- Generated by graphviz version 2.38.0 (20140413.2041)
 -->
<!-- Title: setup Pages: 1 -->
<svg width="736pt" height="180pt"
 viewBox="0.00 0.00 736.00 180.00" xmlns="http://www.w3.org/2000/svg" xmlns:xlink="http://www.w3.org/1999/xlink">
<g id="graph0" class="graph" transform="scale(1 1) rotate(0) translate(4 176)">
<title>setup</title>
<polygon fill="white" stroke="none" points="-4,4 -4,-176 732,-176 732,4 -4,4"/>
<!-- Node1 -->
<g id="node1" class="node"><title>Node1</title>
<polygon fill="#bfbfbf" stroke="black" points="0,-76.5 0,-95.5 41,-95.5 41,-76.5 0,-76.5"/>
<text text-anchor="middle" x="20.5" y="-83.5" font-family="Helvetica,sans-Serif" font-size="10.00">setup</text>
</g>
<!-- Node2 -->
<g id="node2" class="node"><title>Node2</title>
<g id="a_node2"><a xlink:href="classAP__HAL_1_1UARTDriver.html#a6ceedc792594e59fc7d80b39a435f027" target="_top" xlink:title="AP_HAL::UARTDriver\l::printf">
<polygon fill="white" stroke="black" points="214,-71 214,-101 329,-101 329,-71 214,-71"/>
<text text-anchor="start" x="222" y="-89" font-family="Helvetica,sans-Serif" font-size="10.00">AP_HAL::UARTDriver</text>
<text text-anchor="middle" x="271.5" y="-78" font-family="Helvetica,sans-Serif" font-size="10.00">::printf</text>
</a>
</g>
</g>
<!-- Node1&#45;&gt;Node2 -->
<g id="edge1" class="edge"><title>Node1&#45;&gt;Node2</title>
<path fill="none" stroke="midnightblue" d="M41.0386,-86C75.6122,-86 149.062,-86 203.598,-86"/>
<polygon fill="midnightblue" stroke="midnightblue" points="203.891,-89.5001 213.891,-86 203.891,-82.5001 203.891,-89.5001"/>
</g>
<!-- Node10 -->
<g id="node10" class="node"><title>Node10</title>
<g id="a_node10"><a xlink:href="examples_2AP__Common_2AP__Common_8cpp.html#ae18cf4b38593cd1912d6eefb508f51d5" target="_top" xlink:title="test_high_low_byte">
<polygon fill="white" stroke="black" points="77,-57.5 77,-76.5 178,-76.5 178,-57.5 77,-57.5"/>
<text text-anchor="middle" x="127.5" y="-64.5" font-family="Helvetica,sans-Serif" font-size="10.00">test_high_low_byte</text>
</a>
</g>
</g>
<!-- Node1&#45;&gt;Node10 -->
<g id="edge9" class="edge"><title>Node1&#45;&gt;Node10</title>
<path fill="none" stroke="midnightblue" d="M41.2497,-82.4262C48.6662,-81.0842 57.5345,-79.4795 66.7056,-77.8199"/>
<polygon fill="midnightblue" stroke="midnightblue" points="67.5049,-81.2322 76.7218,-76.0075 66.2584,-74.3441 67.5049,-81.2322"/>
</g>
<!-- Node3 -->
<g id="node3" class="node"><title>Node3</title>
<g id="a_node3"><a xlink:href="classAP__HAL_1_1UARTDriver.html#aa8abfb6d6641299472c29ac1edde559f" target="_top" xlink:title="AP_HAL::UARTDriver\l::vprintf">
<polygon fill="white" stroke="black" points="365,-71 365,-101 480,-101 480,-71 365,-71"/>
<text text-anchor="start" x="373" y="-89" font-family="Helvetica,sans-Serif" font-size="10.00">AP_HAL::UARTDriver</text>
<text text-anchor="middle" x="422.5" y="-78" font-family="Helvetica,sans-Serif" font-size="10.00">::vprintf</text>
</a>
</g>
</g>
<!-- Node2&#45;&gt;Node3 -->
<g id="edge2" class="edge"><title>Node2&#45;&gt;Node3</title>
<path fill="none" stroke="midnightblue" d="M329.256,-86C337.558,-86 346.173,-86 354.654,-86"/>
<polygon fill="midnightblue" stroke="midnightblue" points="354.902,-89.5001 364.902,-86 354.902,-82.5001 354.902,-89.5001"/>
</g>
<!-- Node4 -->
<g id="node4" class="node"><title>Node4</title>
<g id="a_node4"><a xlink:href="print__vprintf_8cpp.html#a1534eaeab54696df96975b56d9f49212" target="_top" xlink:title="print_vprintf">
<polygon fill="white" stroke="black" points="516,-76.5 516,-95.5 584,-95.5 584,-76.5 516,-76.5"/>
<text text-anchor="middle" x="550" y="-83.5" font-family="Helvetica,sans-Serif" font-size="10.00">print_vprintf</text>
</a>
</g>
</g>
<!-- Node3&#45;&gt;Node4 -->
<g id="edge3" class="edge"><title>Node3&#45;&gt;Node4</title>
<path fill="none" stroke="midnightblue" d="M480.009,-86C488.609,-86 497.367,-86 505.628,-86"/>
<polygon fill="midnightblue" stroke="midnightblue" points="505.777,-89.5001 515.777,-86 505.777,-82.5001 505.777,-89.5001"/>
</g>
<!-- Node5 -->
<g id="node5" class="node"><title>Node5</title>
<g id="a_node5"><a xlink:href="classAP__HAL_1_1Print.html#acc65391952a43334f8f5c9bef341f501" target="_top" xlink:title="AP_HAL::Print::write">
<polygon fill="white" stroke="black" points="620,-152.5 620,-171.5 728,-171.5 728,-152.5 620,-152.5"/>
<text text-anchor="middle" x="674" y="-159.5" font-family="Helvetica,sans-Serif" font-size="10.00">AP_HAL::Print::write</text>
</a>
</g>
</g>
<!-- Node4&#45;&gt;Node5 -->
<g id="edge4" class="edge"><title>Node4&#45;&gt;Node5</title>
<path fill="none" stroke="midnightblue" d="M560.47,-95.6825C573.07,-108.102 596.502,-129.629 620,-143 623.632,-145.067 627.529,-146.973 631.501,-148.715"/>
<polygon fill="midnightblue" stroke="midnightblue" points="630.233,-151.977 640.816,-152.479 632.856,-145.487 630.233,-151.977"/>
</g>
<!-- Node6 -->
<g id="node6" class="node"><title>Node6</title>
<g id="a_node6"><a xlink:href="ftoa__engine_8cpp.html#a1c28234da8f20b43c85890d4bb452947" target="_top" xlink:title="ftoa_engine">
<polygon fill="white" stroke="black" points="640.5,-114.5 640.5,-133.5 707.5,-133.5 707.5,-114.5 640.5,-114.5"/>
<text text-anchor="middle" x="674" y="-121.5" font-family="Helvetica,sans-Serif" font-size="10.00">ftoa_engine</text>
</a>
</g>
</g>
<!-- Node4&#45;&gt;Node6 -->
<g id="edge5" class="edge"><title>Node4&#45;&gt;Node6</title>
<path fill="none" stroke="midnightblue" d="M581.786,-95.589C597.101,-100.359 615.817,-106.189 632.3,-111.323"/>
<polygon fill="midnightblue" stroke="midnightblue" points="631.636,-114.782 642.224,-114.414 633.717,-108.099 631.636,-114.782"/>
</g>
<!-- Node7 -->
<g id="node7" class="node"><title>Node7</title>
<g id="a_node7"><a xlink:href="replace_8cpp.html#a880bcc7b85a09e6254691bebd5344b51" target="_top" xlink:title="strnlen">
<polygon fill="white" stroke="black" points="651,-76.5 651,-95.5 697,-95.5 697,-76.5 651,-76.5"/>
<text text-anchor="middle" x="674" y="-83.5" font-family="Helvetica,sans-Serif" font-size="10.00">strnlen</text>
</a>
</g>
</g>
<!-- Node4&#45;&gt;Node7 -->
<g id="edge6" class="edge"><title>Node4&#45;&gt;Node7</title>
<path fill="none" stroke="midnightblue" d="M584.015,-86C601.547,-86 623.016,-86 640.474,-86"/>
<polygon fill="midnightblue" stroke="midnightblue" points="640.754,-89.5001 650.754,-86 640.754,-82.5001 640.754,-89.5001"/>
</g>
<!-- Node8 -->
<g id="node8" class="node"><title>Node8</title>
<g id="a_node8"><a xlink:href="utoa__invert_8cpp.html#a34926f552460b47c414ec4d83b32815c" target="_top" xlink:title="ulltoa_invert">
<polygon fill="white" stroke="black" points="639.5,-38.5 639.5,-57.5 708.5,-57.5 708.5,-38.5 639.5,-38.5"/>
<text text-anchor="middle" x="674" y="-45.5" font-family="Helvetica,sans-Serif" font-size="10.00">ulltoa_invert</text>
</a>
</g>
</g>
<!-- Node4&#45;&gt;Node8 -->
<g id="edge7" class="edge"><title>Node4&#45;&gt;Node8</title>
<path fill="none" stroke="midnightblue" d="M581.786,-76.411C597.101,-71.6406 615.817,-65.8112 632.3,-60.6771"/>
<polygon fill="midnightblue" stroke="midnightblue" points="633.717,-63.9015 642.224,-57.5859 631.636,-57.2182 633.717,-63.9015"/>
</g>
<!-- Node9 -->
<g id="node9" class="node"><title>Node9</title>
<g id="a_node9"><a xlink:href="utoa__invert_8cpp.html#a5d99bba8e697c1e11da489d88fca8559" target="_top" xlink:title="ultoa_invert">
<polygon fill="white" stroke="black" points="640.5,-0.5 640.5,-19.5 707.5,-19.5 707.5,-0.5 640.5,-0.5"/>
<text text-anchor="middle" x="674" y="-7.5" font-family="Helvetica,sans-Serif" font-size="10.00">ultoa_invert</text>
</a>
</g>
</g>
<!-- Node4&#45;&gt;Node9 -->
<g id="edge8" class="edge"><title>Node4&#45;&gt;Node9</title>
<path fill="none" stroke="midnightblue" d="M560.47,-76.3175C573.07,-63.8984 596.502,-42.371 620,-29 623.632,-26.9334 627.529,-25.0271 631.501,-23.2853"/>
<polygon fill="midnightblue" stroke="midnightblue" points="632.856,-26.5129 640.816,-19.5214 630.233,-20.0226 632.856,-26.5129"/>
</g>
<!-- Node10&#45;&gt;Node2 -->
<g id="edge10" class="edge"><title>Node10&#45;&gt;Node2</title>
<path fill="none" stroke="midnightblue" d="M178.165,-73.6453C186.442,-74.7529 195.147,-75.9175 203.767,-77.0709"/>
<polygon fill="midnightblue" stroke="midnightblue" points="203.441,-80.5584 213.817,-78.4156 204.369,-73.6202 203.441,-80.5584"/>
</g>
</g>
</svg>
