<?xml version="1.0" encoding="UTF-8" standalone="no"?>
<!DOCTYPE svg PUBLIC "-//W3C//DTD SVG 1.1//EN"
 "http://www.w3.org/Graphics/SVG/1.1/DTD/svg11.dtd">
<!-- Generated by graphviz version 2.38.0 (20140413.2041)
 -->
<!-- Title: test_gpio_output Pages: 1 -->
<svg width="248pt" height="88pt"
 viewBox="0.00 0.00 248.00 88.00" xmlns="http://www.w3.org/2000/svg" xmlns:xlink="http://www.w3.org/1999/xlink">
<g id="graph0" class="graph" transform="scale(1 1) rotate(0) translate(4 84)">
<title>test_gpio_output</title>
<polygon fill="white" stroke="none" points="-4,4 -4,-84 244,-84 244,4 -4,4"/>
<!-- Node1 -->
<g id="node1" class="node"><title>Node1</title>
<polygon fill="#bfbfbf" stroke="black" points="0,-30 0,-49 89,-49 89,-30 0,-30"/>
<text text-anchor="middle" x="44.5" y="-37" font-family="Helvetica,sans-Serif" font-size="10.00">test_gpio_output</text>
</g>
<!-- Node2 -->
<g id="node2" class="node"><title>Node2</title>
<g id="a_node2"><a xlink:href="classMenuCommands.html#afa6d3a1a995a54eb412c25988fbe0fba" target="_top" xlink:title="MenuCommands::gpio\l_output">
<polygon fill="white" stroke="black" points="125,-49.5 125,-79.5 240,-79.5 240,-49.5 125,-49.5"/>
<text text-anchor="start" x="133" y="-67.5" font-family="Helvetica,sans-Serif" font-size="10.00">MenuCommands::gpio</text>
<text text-anchor="middle" x="182.5" y="-56.5" font-family="Helvetica,sans-Serif" font-size="10.00">_output</text>
</a>
</g>
</g>
<!-- Node1&#45;&gt;Node2 -->
<g id="edge1" class="edge"><title>Node1&#45;&gt;Node2</title>
<path fill="none" stroke="midnightblue" d="M99.3336,-49.3959C107.728,-50.939 116.425,-52.5376 124.879,-54.0918"/>
<polygon fill="midnightblue" stroke="midnightblue" points="99.7479,-45.9135 89.2799,-47.5478 98.4823,-52.7981 99.7479,-45.9135"/>
</g>
<!-- Node3 -->
<g id="node3" class="node"><title>Node3</title>
<g id="a_node3"><a xlink:href="classMenuCommands.html#a1d7748272d4fc032e7a1a0d6dd85c8f2" target="_top" xlink:title="MenuCommands::gpio\l_output_channel">
<polygon fill="white" stroke="black" points="125,-0.5 125,-30.5 240,-30.5 240,-0.5 125,-0.5"/>
<text text-anchor="start" x="133" y="-18.5" font-family="Helvetica,sans-Serif" font-size="10.00">MenuCommands::gpio</text>
<text text-anchor="middle" x="182.5" y="-7.5" font-family="Helvetica,sans-Serif" font-size="10.00">_output_channel</text>
</a>
</g>
</g>
<!-- Node1&#45;&gt;Node3 -->
<g id="edge2" class="edge"><title>Node1&#45;&gt;Node3</title>
<path fill="none" stroke="midnightblue" d="M99.3336,-29.9999C107.728,-28.5185 116.425,-26.9839 124.879,-25.4919"/>
<polygon fill="midnightblue" stroke="midnightblue" points="98.5194,-26.5895 89.2799,-31.7741 99.736,-33.483 98.5194,-26.5895"/>
</g>
</g>
</svg>
