<?xml version="1.0" encoding="UTF-8" standalone="no"?>
<!DOCTYPE svg PUBLIC "-//W3C//DTD SVG 1.1//EN"
 "http://www.w3.org/Graphics/SVG/1.1/DTD/svg11.dtd">
<!-- Generated by graphviz version 2.38.0 (20140413.2041)
 -->
<!-- Title: Graphical Class Hierarchy Pages: 1 -->
<svg width="310pt" height="66pt"
 viewBox="0.00 0.00 310.00 66.00" xmlns="http://www.w3.org/2000/svg" xmlns:xlink="http://www.w3.org/1999/xlink">
<g id="graph0" class="graph" transform="scale(1 1) rotate(0) translate(4 62)">
<title>Graphical Class Hierarchy</title>
<polygon fill="white" stroke="none" points="-4,4 -4,-62 306,-62 306,4 -4,4"/>
<!-- Node1 -->
<g id="node1" class="node"><title>Node1</title>
<g id="a_node1"><a xlink:href="classAP__LeakDetector__Backend.html" target="_top" xlink:title="AP_LeakDetector_Backend">
<polygon fill="white" stroke="black" points="0,-19.5 0,-38.5 137,-38.5 137,-19.5 0,-19.5"/>
<text text-anchor="middle" x="68.5" y="-26.5" font-family="Helvetica,sans-Serif" font-size="10.00">AP_LeakDetector_Backend</text>
</a>
</g>
</g>
<!-- Node2 -->
<g id="node2" class="node"><title>Node2</title>
<g id="a_node2"><a xlink:href="classAP__LeakDetector__Analog.html" target="_top" xlink:title="AP_LeakDetector_Analog">
<polygon fill="white" stroke="black" points="173,-38.5 173,-57.5 302,-57.5 302,-38.5 173,-38.5"/>
<text text-anchor="middle" x="237.5" y="-45.5" font-family="Helvetica,sans-Serif" font-size="10.00">AP_LeakDetector_Analog</text>
</a>
</g>
</g>
<!-- Node1&#45;&gt;Node2 -->
<g id="edge1" class="edge"><title>Node1&#45;&gt;Node2</title>
<path fill="none" stroke="midnightblue" d="M147.41,-37.864C155.964,-38.8372 164.597,-39.8195 172.948,-40.7695"/>
<polygon fill="midnightblue" stroke="midnightblue" points="147.757,-34.381 137.425,-36.728 146.966,-41.3361 147.757,-34.381"/>
</g>
<!-- Node3 -->
<g id="node3" class="node"><title>Node3</title>
<g id="a_node3"><a xlink:href="classAP__LeakDetector__Digital.html" target="_top" xlink:title="AP_LeakDetector_Digital">
<polygon fill="white" stroke="black" points="174,-0.5 174,-19.5 301,-19.5 301,-0.5 174,-0.5"/>
<text text-anchor="middle" x="237.5" y="-7.5" font-family="Helvetica,sans-Serif" font-size="10.00">AP_LeakDetector_Digital</text>
</a>
</g>
</g>
<!-- Node1&#45;&gt;Node3 -->
<g id="edge2" class="edge"><title>Node1&#45;&gt;Node3</title>
<path fill="none" stroke="midnightblue" d="M147.642,-20.1096C156.395,-19.1138 165.227,-18.1089 173.751,-17.1391"/>
<polygon fill="midnightblue" stroke="midnightblue" points="146.966,-16.6639 137.425,-21.272 147.757,-23.619 146.966,-16.6639"/>
</g>
</g>
</svg>
