<?xml version="1.0" encoding="UTF-8" standalone="no"?>
<!DOCTYPE svg PUBLIC "-//W3C//DTD SVG 1.1//EN"
 "http://www.w3.org/Graphics/SVG/1.1/DTD/svg11.dtd">
<!-- Generated by graphviz version 2.38.0 (20140413.2041)
 -->
<!-- Title: Graphical Class Hierarchy Pages: 1 -->
<svg width="343pt" height="28pt"
 viewBox="0.00 0.00 343.00 28.00" xmlns="http://www.w3.org/2000/svg" xmlns:xlink="http://www.w3.org/1999/xlink">
<g id="graph0" class="graph" transform="scale(1 1) rotate(0) translate(4 24)">
<title>Graphical Class Hierarchy</title>
<polygon fill="white" stroke="none" points="-4,4 -4,-24 339,-24 339,4 -4,4"/>
<!-- Node1 -->
<g id="node1" class="node"><title>Node1</title>
<g id="a_node1"><a xlink:href="classAP__AHRS.html" target="_top" xlink:title="AP_AHRS">
<polygon fill="white" stroke="black" points="0,-0.5 0,-19.5 64,-19.5 64,-0.5 0,-0.5"/>
<text text-anchor="middle" x="32" y="-7.5" font-family="Helvetica,sans-Serif" font-size="10.00">AP_AHRS</text>
</a>
</g>
</g>
<!-- Node2 -->
<g id="node2" class="node"><title>Node2</title>
<g id="a_node2"><a xlink:href="classAP__AHRS__DCM.html" target="_top" xlink:title="AP_AHRS_DCM">
<polygon fill="white" stroke="black" points="100,-0.5 100,-19.5 192,-19.5 192,-0.5 100,-0.5"/>
<text text-anchor="middle" x="146" y="-7.5" font-family="Helvetica,sans-Serif" font-size="10.00">AP_AHRS_DCM</text>
</a>
</g>
</g>
<!-- Node1&#45;&gt;Node2 -->
<g id="edge1" class="edge"><title>Node1&#45;&gt;Node2</title>
<path fill="none" stroke="midnightblue" d="M74.362,-10C82.6261,-10 91.3477,-10 99.7354,-10"/>
<polygon fill="midnightblue" stroke="midnightblue" points="74.1983,-6.5001 64.1982,-10 74.1982,-13.5001 74.1983,-6.5001"/>
</g>
<!-- Node3 -->
<g id="node3" class="node"><title>Node3</title>
<g id="a_node3"><a xlink:href="classAP__AHRS__NavEKF.html" target="_top" xlink:title="AP_AHRS_NavEKF">
<polygon fill="white" stroke="black" points="228,-0.5 228,-19.5 335,-19.5 335,-0.5 228,-0.5"/>
<text text-anchor="middle" x="281.5" y="-7.5" font-family="Helvetica,sans-Serif" font-size="10.00">AP_AHRS_NavEKF</text>
</a>
</g>
</g>
<!-- Node2&#45;&gt;Node3 -->
<g id="edge2" class="edge"><title>Node2&#45;&gt;Node3</title>
<path fill="none" stroke="midnightblue" d="M202.369,-10C210.842,-10 219.567,-10 227.977,-10"/>
<polygon fill="midnightblue" stroke="midnightblue" points="202.197,-6.5001 192.197,-10 202.197,-13.5001 202.197,-6.5001"/>
</g>
</g>
</svg>
