<?xml version="1.0" encoding="UTF-8" standalone="no"?>
<!DOCTYPE svg PUBLIC "-//W3C//DTD SVG 1.1//EN"
 "http://www.w3.org/Graphics/SVG/1.1/DTD/svg11.dtd">
<!-- Generated by graphviz version 2.38.0 (20140413.2041)
 -->
<!-- Title: Graphical Class Hierarchy Pages: 1 -->
<svg width="334pt" height="332pt"
 viewBox="0.00 0.00 334.00 332.00" xmlns="http://www.w3.org/2000/svg" xmlns:xlink="http://www.w3.org/1999/xlink">
<g id="graph0" class="graph" transform="scale(1 1) rotate(0) translate(4 328)">
<title>Graphical Class Hierarchy</title>
<polygon fill="white" stroke="none" points="-4,4 -4,-328 330,-328 330,4 -4,4"/>
<!-- Node1 -->
<g id="node1" class="node"><title>Node1</title>
<g id="a_node1"><a xlink:href="classAP__InertialSensor__Backend.html" target="_top" xlink:title="AP_InertialSensor_Backend">
<polygon fill="white" stroke="black" points="0,-152.5 0,-171.5 139,-171.5 139,-152.5 0,-152.5"/>
<text text-anchor="middle" x="69.5" y="-159.5" font-family="Helvetica,sans-Serif" font-size="10.00">AP_InertialSensor_Backend</text>
</a>
</g>
</g>
<!-- Node2 -->
<g id="node2" class="node"><title>Node2</title>
<g id="a_node2"><a xlink:href="classAP__InertialSensor__BMI160.html" target="_top" xlink:title="AP_InertialSensor_BMI160">
<polygon fill="white" stroke="black" points="183.5,-304.5 183.5,-323.5 317.5,-323.5 317.5,-304.5 183.5,-304.5"/>
<text text-anchor="middle" x="250.5" y="-311.5" font-family="Helvetica,sans-Serif" font-size="10.00">AP_InertialSensor_BMI160</text>
</a>
</g>
</g>
<!-- Node1&#45;&gt;Node2 -->
<g id="edge1" class="edge"><title>Node1&#45;&gt;Node2</title>
<path fill="none" stroke="midnightblue" d="M80.0634,-180.941C95.7781,-210.082 129.877,-265.612 175,-295 180.928,-298.861 187.595,-301.937 194.44,-304.389"/>
<polygon fill="midnightblue" stroke="midnightblue" points="83.0256,-179.054 75.2837,-171.821 76.8254,-182.303 83.0256,-179.054"/>
</g>
<!-- Node3 -->
<g id="node3" class="node"><title>Node3</title>
<g id="a_node3"><a xlink:href="classAP__InertialSensor__HIL.html" target="_top" xlink:title="AP_InertialSensor_HIL">
<polygon fill="white" stroke="black" points="192.5,-266.5 192.5,-285.5 308.5,-285.5 308.5,-266.5 192.5,-266.5"/>
<text text-anchor="middle" x="250.5" y="-273.5" font-family="Helvetica,sans-Serif" font-size="10.00">AP_InertialSensor_HIL</text>
</a>
</g>
</g>
<!-- Node1&#45;&gt;Node3 -->
<g id="edge2" class="edge"><title>Node1&#45;&gt;Node3</title>
<path fill="none" stroke="midnightblue" d="M84.8272,-179.461C103.398,-200.937 137.833,-236.996 175,-257 182.17,-260.859 190.153,-263.958 198.154,-266.439"/>
<polygon fill="midnightblue" stroke="midnightblue" points="87.4335,-177.123 78.3011,-171.751 82.0906,-181.645 87.4335,-177.123"/>
</g>
<!-- Node4 -->
<g id="node4" class="node"><title>Node4</title>
<g id="a_node4"><a xlink:href="classAP__InertialSensor__Invensense.html" target="_top" xlink:title="AP_InertialSensor_Invensense">
<polygon fill="white" stroke="black" points="175,-228.5 175,-247.5 326,-247.5 326,-228.5 175,-228.5"/>
<text text-anchor="middle" x="250.5" y="-235.5" font-family="Helvetica,sans-Serif" font-size="10.00">AP_InertialSensor_Invensense</text>
</a>
</g>
</g>
<!-- Node1&#45;&gt;Node4 -->
<g id="edge3" class="edge"><title>Node1&#45;&gt;Node4</title>
<path fill="none" stroke="midnightblue" d="M93.8512,-176.949C114.507,-189.626 145.812,-207.527 175,-219 184.317,-222.662 194.569,-225.81 204.409,-228.429"/>
<polygon fill="midnightblue" stroke="midnightblue" points="95.495,-173.85 85.1562,-171.535 91.7947,-179.792 95.495,-173.85"/>
</g>
<!-- Node5 -->
<g id="node5" class="node"><title>Node5</title>
<g id="a_node5"><a xlink:href="classAP__InertialSensor__L3G4200D.html" target="_top" xlink:title="AP_InertialSensor_L3G4200D">
<polygon fill="white" stroke="black" points="177,-190.5 177,-209.5 324,-209.5 324,-190.5 177,-190.5"/>
<text text-anchor="middle" x="250.5" y="-197.5" font-family="Helvetica,sans-Serif" font-size="10.00">AP_InertialSensor_L3G4200D</text>
</a>
</g>
</g>
<!-- Node1&#45;&gt;Node5 -->
<g id="edge4" class="edge"><title>Node1&#45;&gt;Node5</title>
<path fill="none" stroke="midnightblue" d="M125.524,-173.681C150.908,-179.07 180.661,-185.386 204.656,-190.48"/>
<polygon fill="midnightblue" stroke="midnightblue" points="126.178,-170.242 115.669,-171.589 124.724,-177.089 126.178,-170.242"/>
</g>
<!-- Node6 -->
<g id="node6" class="node"><title>Node6</title>
<g id="a_node6"><a xlink:href="classAP__InertialSensor__LSM9DS0.html" target="_top" xlink:title="AP_InertialSensor_LSM9DS0">
<polygon fill="white" stroke="black" points="177.5,-152.5 177.5,-171.5 323.5,-171.5 323.5,-152.5 177.5,-152.5"/>
<text text-anchor="middle" x="250.5" y="-159.5" font-family="Helvetica,sans-Serif" font-size="10.00">AP_InertialSensor_LSM9DS0</text>
</a>
</g>
</g>
<!-- Node1&#45;&gt;Node6 -->
<g id="edge5" class="edge"><title>Node1&#45;&gt;Node6</title>
<path fill="none" stroke="midnightblue" d="M149.274,-162C158.639,-162 168.163,-162 177.427,-162"/>
<polygon fill="midnightblue" stroke="midnightblue" points="149.194,-158.5 139.194,-162 149.194,-165.5 149.194,-158.5"/>
</g>
<!-- Node7 -->
<g id="node7" class="node"><title>Node7</title>
<g id="a_node7"><a xlink:href="classAP__InertialSensor__PX4.html" target="_top" xlink:title="AP_InertialSensor_PX4">
<polygon fill="white" stroke="black" points="191,-114.5 191,-133.5 310,-133.5 310,-114.5 191,-114.5"/>
<text text-anchor="middle" x="250.5" y="-121.5" font-family="Helvetica,sans-Serif" font-size="10.00">AP_InertialSensor_PX4</text>
</a>
</g>
</g>
<!-- Node1&#45;&gt;Node7 -->
<g id="edge6" class="edge"><title>Node1&#45;&gt;Node7</title>
<path fill="none" stroke="midnightblue" d="M125.524,-150.319C150.908,-144.93 180.661,-138.614 204.656,-133.52"/>
<polygon fill="midnightblue" stroke="midnightblue" points="124.724,-146.911 115.669,-152.411 126.178,-153.758 124.724,-146.911"/>
</g>
<!-- Node8 -->
<g id="node8" class="node"><title>Node8</title>
<g id="a_node8"><a xlink:href="classAP__InertialSensor__QFLIGHT.html" target="_top" xlink:title="AP_InertialSensor_QFLIGHT">
<polygon fill="white" stroke="black" points="179,-76.5 179,-95.5 322,-95.5 322,-76.5 179,-76.5"/>
<text text-anchor="middle" x="250.5" y="-83.5" font-family="Helvetica,sans-Serif" font-size="10.00">AP_InertialSensor_QFLIGHT</text>
</a>
</g>
</g>
<!-- Node1&#45;&gt;Node8 -->
<g id="edge7" class="edge"><title>Node1&#45;&gt;Node8</title>
<path fill="none" stroke="midnightblue" d="M93.8512,-147.051C114.507,-134.374 145.812,-116.473 175,-105 184.317,-101.338 194.569,-98.1904 204.409,-95.5708"/>
<polygon fill="midnightblue" stroke="midnightblue" points="91.7947,-144.208 85.1562,-152.465 95.495,-150.15 91.7947,-144.208"/>
</g>
<!-- Node9 -->
<g id="node9" class="node"><title>Node9</title>
<g id="a_node9"><a xlink:href="classAP__InertialSensor__QURT.html" target="_top" xlink:title="AP_InertialSensor_QURT">
<polygon fill="white" stroke="black" points="186,-38.5 186,-57.5 315,-57.5 315,-38.5 186,-38.5"/>
<text text-anchor="middle" x="250.5" y="-45.5" font-family="Helvetica,sans-Serif" font-size="10.00">AP_InertialSensor_QURT</text>
</a>
</g>
</g>
<!-- Node1&#45;&gt;Node9 -->
<g id="edge8" class="edge"><title>Node1&#45;&gt;Node9</title>
<path fill="none" stroke="midnightblue" d="M84.8272,-144.539C103.398,-123.063 137.833,-87.0044 175,-67 182.17,-63.141 190.153,-60.0423 198.154,-57.5606"/>
<polygon fill="midnightblue" stroke="midnightblue" points="82.0906,-142.355 78.3011,-152.249 87.4335,-146.877 82.0906,-142.355"/>
</g>
<!-- Node10 -->
<g id="node10" class="node"><title>Node10</title>
<g id="a_node10"><a xlink:href="classAP__InertialSensor__SITL.html" target="_top" xlink:title="AP_InertialSensor_SITL">
<polygon fill="white" stroke="black" points="189.5,-0.5 189.5,-19.5 311.5,-19.5 311.5,-0.5 189.5,-0.5"/>
<text text-anchor="middle" x="250.5" y="-7.5" font-family="Helvetica,sans-Serif" font-size="10.00">AP_InertialSensor_SITL</text>
</a>
</g>
</g>
<!-- Node1&#45;&gt;Node10 -->
<g id="edge9" class="edge"><title>Node1&#45;&gt;Node10</title>
<path fill="none" stroke="midnightblue" d="M80.0634,-143.059C95.7781,-113.918 129.877,-58.3876 175,-29 180.928,-25.1392 187.595,-22.0626 194.44,-19.6111"/>
<polygon fill="midnightblue" stroke="midnightblue" points="76.8254,-141.697 75.2837,-152.179 83.0256,-144.946 76.8254,-141.697"/>
</g>
</g>
</svg>
