<?xml version="1.0" encoding="UTF-8" standalone="no"?>
<!DOCTYPE svg PUBLIC "-//W3C//DTD SVG 1.1//EN"
 "http://www.w3.org/Graphics/SVG/1.1/DTD/svg11.dtd">
<!-- Generated by graphviz version 2.38.0 (20140413.2041)
 -->
<!-- Title: Graphical Class Hierarchy Pages: 1 -->
<svg width="240pt" height="66pt"
 viewBox="0.00 0.00 240.00 66.00" xmlns="http://www.w3.org/2000/svg" xmlns:xlink="http://www.w3.org/1999/xlink">
<g id="graph0" class="graph" transform="scale(1 1) rotate(0) translate(4 62)">
<title>Graphical Class Hierarchy</title>
<polygon fill="white" stroke="none" points="-4,4 -4,-62 236,-62 236,4 -4,4"/>
<!-- Node1 -->
<g id="node1" class="node"><title>Node1</title>
<g id="a_node1"><a xlink:href="classLinux_1_1Pollable.html" target="_top" xlink:title="Linux::Pollable">
<polygon fill="white" stroke="black" points="0,-19.5 0,-38.5 80,-38.5 80,-19.5 0,-19.5"/>
<text text-anchor="middle" x="40" y="-26.5" font-family="Helvetica,sans-Serif" font-size="10.00">Linux::Pollable</text>
</a>
</g>
</g>
<!-- Node2 -->
<g id="node2" class="node"><title>Node2</title>
<g id="a_node2"><a xlink:href="classLinux_1_1TimerPollable.html" target="_top" xlink:title="Linux::TimerPollable">
<polygon fill="white" stroke="black" points="121.5,-38.5 121.5,-57.5 226.5,-57.5 226.5,-38.5 121.5,-38.5"/>
<text text-anchor="middle" x="174" y="-45.5" font-family="Helvetica,sans-Serif" font-size="10.00">Linux::TimerPollable</text>
</a>
</g>
</g>
<!-- Node1&#45;&gt;Node2 -->
<g id="edge1" class="edge"><title>Node1&#45;&gt;Node2</title>
<path fill="none" stroke="midnightblue" d="M90.2058,-36.0827C100.395,-37.5492 111.156,-39.0981 121.426,-40.5765"/>
<polygon fill="midnightblue" stroke="midnightblue" points="90.6436,-32.6097 80.247,-34.6492 89.6463,-39.5383 90.6436,-32.6097"/>
</g>
<!-- Node3 -->
<g id="node3" class="node"><title>Node3</title>
<g id="a_node3"><a xlink:href="classLinux_1_1WakeupPollable.html" target="_top" xlink:title="Linux::WakeupPollable">
<polygon fill="white" stroke="black" points="116,-0.5 116,-19.5 232,-19.5 232,-0.5 116,-0.5"/>
<text text-anchor="middle" x="174" y="-7.5" font-family="Helvetica,sans-Serif" font-size="10.00">Linux::WakeupPollable</text>
</a>
</g>
</g>
<!-- Node1&#45;&gt;Node3 -->
<g id="edge2" class="edge"><title>Node1&#45;&gt;Node3</title>
<path fill="none" stroke="midnightblue" d="M90.4082,-21.8882C98.6177,-20.7065 107.194,-19.4721 115.581,-18.2648"/>
<polygon fill="midnightblue" stroke="midnightblue" points="89.6463,-18.4617 80.247,-23.3508 90.6436,-25.3903 89.6463,-18.4617"/>
</g>
</g>
</svg>
