<?xml version="1.0" encoding="UTF-8" standalone="no"?>
<!DOCTYPE svg PUBLIC "-//W3C//DTD SVG 1.1//EN"
 "http://www.w3.org/Graphics/SVG/1.1/DTD/svg11.dtd">
<!-- Generated by graphviz version 2.38.0 (20140413.2041)
 -->
<!-- Title: Graphical Class Hierarchy Pages: 1 -->
<svg width="380pt" height="66pt"
 viewBox="0.00 0.00 380.00 66.00" xmlns="http://www.w3.org/2000/svg" xmlns:xlink="http://www.w3.org/1999/xlink">
<g id="graph0" class="graph" transform="scale(1 1) rotate(0) translate(4 62)">
<title>Graphical Class Hierarchy</title>
<polygon fill="white" stroke="none" points="-4,4 -4,-62 376,-62 376,4 -4,4"/>
<!-- Node1 -->
<g id="node1" class="node"><title>Node1</title>
<g id="a_node1"><a xlink:href="classDataFlash__Backend.html" target="_top" xlink:title="DataFlash_Backend">
<polygon fill="white" stroke="black" points="0,-19.5 0,-38.5 105,-38.5 105,-19.5 0,-19.5"/>
<text text-anchor="middle" x="52.5" y="-26.5" font-family="Helvetica,sans-Serif" font-size="10.00">DataFlash_Backend</text>
</a>
</g>
</g>
<!-- Node2 -->
<g id="node2" class="node"><title>Node2</title>
<g id="a_node2"><a xlink:href="classDataFlash__Block.html" target="_top" xlink:title="DataFlash_Block">
<polygon fill="white" stroke="black" points="148.5,-38.5 148.5,-57.5 240.5,-57.5 240.5,-38.5 148.5,-38.5"/>
<text text-anchor="middle" x="194.5" y="-45.5" font-family="Helvetica,sans-Serif" font-size="10.00">DataFlash_Block</text>
</a>
</g>
</g>
<!-- Node1&#45;&gt;Node2 -->
<g id="edge1" class="edge"><title>Node1&#45;&gt;Node2</title>
<path fill="none" stroke="midnightblue" d="M115.345,-37.3933C126.477,-38.904 137.888,-40.4527 148.431,-41.8835"/>
<polygon fill="midnightblue" stroke="midnightblue" points="115.613,-33.8976 105.233,-36.0209 114.672,-40.834 115.613,-33.8976"/>
</g>
<!-- Node4 -->
<g id="node4" class="node"><title>Node4</title>
<g id="a_node4"><a xlink:href="classDataFlash__MAVLink.html" target="_top" xlink:title="DataFlash_MAVLink">
<polygon fill="white" stroke="black" points="141,-0.5 141,-19.5 248,-19.5 248,-0.5 141,-0.5"/>
<text text-anchor="middle" x="194.5" y="-7.5" font-family="Helvetica,sans-Serif" font-size="10.00">DataFlash_MAVLink</text>
</a>
</g>
</g>
<!-- Node1&#45;&gt;Node4 -->
<g id="edge3" class="edge"><title>Node1&#45;&gt;Node4</title>
<path fill="none" stroke="midnightblue" d="M115.375,-20.6027C123.781,-19.4618 132.346,-18.2995 140.575,-17.1827"/>
<polygon fill="midnightblue" stroke="midnightblue" points="114.672,-17.166 105.233,-21.9791 115.613,-24.1024 114.672,-17.166"/>
</g>
<!-- Node3 -->
<g id="node3" class="node"><title>Node3</title>
<g id="a_node3"><a xlink:href="classDataFlash__SITL.html" target="_top" xlink:title="DataFlash_SITL">
<polygon fill="white" stroke="black" points="284,-38.5 284,-57.5 372,-57.5 372,-38.5 284,-38.5"/>
<text text-anchor="middle" x="328" y="-45.5" font-family="Helvetica,sans-Serif" font-size="10.00">DataFlash_SITL</text>
</a>
</g>
</g>
<!-- Node2&#45;&gt;Node3 -->
<g id="edge2" class="edge"><title>Node2&#45;&gt;Node3</title>
<path fill="none" stroke="midnightblue" d="M250.764,-48C261.828,-48 273.299,-48 283.879,-48"/>
<polygon fill="midnightblue" stroke="midnightblue" points="250.755,-44.5001 240.755,-48 250.755,-51.5001 250.755,-44.5001"/>
</g>
</g>
</svg>
