<?xml version="1.0" encoding="UTF-8" standalone="no"?>
<!DOCTYPE svg PUBLIC "-//W3C//DTD SVG 1.1//EN"
 "http://www.w3.org/Graphics/SVG/1.1/DTD/svg11.dtd">
<!-- Generated by graphviz version 2.38.0 (20140413.2041)
 -->
<!-- Title: location_passed_point Pages: 1 -->
<svg width="431pt" height="78pt"
 viewBox="0.00 0.00 431.00 77.50" xmlns="http://www.w3.org/2000/svg" xmlns:xlink="http://www.w3.org/1999/xlink">
<g id="graph0" class="graph" transform="scale(1 1) rotate(0) translate(4 73.5)">
<title>location_passed_point</title>
<polygon fill="white" stroke="none" points="-4,4 -4,-73.5 427,-73.5 427,4 -4,4"/>
<!-- Node1 -->
<g id="node1" class="node"><title>Node1</title>
<polygon fill="#bfbfbf" stroke="black" points="0,-28 0,-47 113,-47 113,-28 0,-28"/>
<text text-anchor="middle" x="56.5" y="-35" font-family="Helvetica,sans-Serif" font-size="10.00">location_passed_point</text>
</g>
<!-- Node2 -->
<g id="node2" class="node"><title>Node2</title>
<g id="a_node2"><a xlink:href="examples_2location_2location_8cpp.html#aff2387ea872bdd079c8de9005c934319" target="_top" xlink:title="test_passed_waypoint">
<polygon fill="white" stroke="black" points="150,-50 150,-69 264,-69 264,-50 150,-50"/>
<text text-anchor="middle" x="207" y="-57" font-family="Helvetica,sans-Serif" font-size="10.00">test_passed_waypoint</text>
</a>
</g>
</g>
<!-- Node1&#45;&gt;Node2 -->
<g id="edge1" class="edge"><title>Node1&#45;&gt;Node2</title>
<path fill="none" stroke="midnightblue" d="M123.202,-47.2337C132.133,-48.5567 141.23,-49.9045 149.969,-51.1992"/>
<polygon fill="midnightblue" stroke="midnightblue" points="123.623,-43.7579 113.218,-45.7546 122.598,-50.6824 123.623,-43.7579"/>
</g>
<!-- Node4 -->
<g id="node4" class="node"><title>Node4</title>
<g id="a_node4"><a xlink:href="classAP__Landing__Deepstall.html#af3cde793ef57477c3468547de0a8a90f" target="_top" xlink:title="AP_Landing_Deepstall\l::verify_land">
<polygon fill="white" stroke="black" points="149,-0.5 149,-30.5 265,-30.5 265,-0.5 149,-0.5"/>
<text text-anchor="start" x="157" y="-18.5" font-family="Helvetica,sans-Serif" font-size="10.00">AP_Landing_Deepstall</text>
<text text-anchor="middle" x="207" y="-7.5" font-family="Helvetica,sans-Serif" font-size="10.00">::verify_land</text>
</a>
</g>
</g>
<!-- Node1&#45;&gt;Node4 -->
<g id="edge3" class="edge"><title>Node1&#45;&gt;Node4</title>
<path fill="none" stroke="midnightblue" d="M123.206,-27.7658C131.799,-26.4928 140.546,-25.1969 148.979,-23.9475"/>
<polygon fill="midnightblue" stroke="midnightblue" points="122.598,-24.3176 113.218,-29.2454 123.623,-31.2421 122.598,-24.3176"/>
</g>
<!-- Node3 -->
<g id="node3" class="node"><title>Node3</title>
<g id="a_node3"><a xlink:href="examples_2location_2location_8cpp.html#a7dfd9b79bc5a37d7df40207afbc5431f" target="_top" xlink:title="setup">
<polygon fill="white" stroke="black" points="341.5,-50 341.5,-69 382.5,-69 382.5,-50 341.5,-50"/>
<text text-anchor="middle" x="362" y="-57" font-family="Helvetica,sans-Serif" font-size="10.00">setup</text>
</a>
</g>
</g>
<!-- Node2&#45;&gt;Node3 -->
<g id="edge2" class="edge"><title>Node2&#45;&gt;Node3</title>
<path fill="none" stroke="midnightblue" d="M274.417,-59.5C298.749,-59.5 324.466,-59.5 341.489,-59.5"/>
<polygon fill="midnightblue" stroke="midnightblue" points="274.103,-56.0001 264.103,-59.5 274.103,-63.0001 274.103,-56.0001"/>
</g>
<!-- Node5 -->
<g id="node5" class="node"><title>Node5</title>
<g id="a_node5"><a xlink:href="classAP__Landing.html#afdbc34de818b9cb366336c23660fd495" target="_top" xlink:title="AP_Landing::verify_land">
<polygon fill="white" stroke="black" points="301,-6 301,-25 423,-25 423,-6 301,-6"/>
<text text-anchor="middle" x="362" y="-13" font-family="Helvetica,sans-Serif" font-size="10.00">AP_Landing::verify_land</text>
</a>
</g>
</g>
<!-- Node4&#45;&gt;Node5 -->
<g id="edge4" class="edge"><title>Node4&#45;&gt;Node5</title>
<path fill="none" stroke="midnightblue" d="M275.61,-15.5C284.057,-15.5 292.651,-15.5 300.972,-15.5"/>
<polygon fill="midnightblue" stroke="midnightblue" points="275.407,-12.0001 265.407,-15.5 275.407,-19.0001 275.407,-12.0001"/>
</g>
</g>
</svg>
