<?xml version="1.0" encoding="UTF-8" standalone="no"?>
<!DOCTYPE svg PUBLIC "-//W3C//DTD SVG 1.1//EN"
 "http://www.w3.org/Graphics/SVG/1.1/DTD/svg11.dtd">
<!-- Generated by graphviz version 2.38.0 (20140413.2041)
 -->
<!-- Title: Polygon_complete&lt; float &gt; Pages: 1 -->
<!--zoomable 127 -->
<svg id="main" version="1.1" xmlns="http://www.w3.org/2000/svg" xmlns:xlink="http://www.w3.org/1999/xlink" xml:space="preserve" onload="init(evt)">
<style type="text/css"><![CDATA[
.edge:hover path { stroke: red; }
.edge:hover polygon { stroke: red; fill: red; }
]]></style>
<script type="text/javascript"><![CDATA[
var edges = document.getElementsByTagName('g');
if (edges && edges.length) {
  for (var i=0;i<edges.length;i++) {
    if (edges[i].id.substr(0,4)=='edge') {
      edges[i].setAttribute('class','edge');
    }
  }
}
]]></script>
        <defs>
                <circle id="rim" cx="0" cy="0" r="7"/>
                <circle id="rim2" cx="0" cy="0" r="3.5"/>
                <g id="zoomPlus">
                        <use xlink:href="#rim" fill="#404040">
                                <set attributeName="fill" to="#808080" begin="zoomplus.mouseover" end="zoomplus.mouseout"/>
                        </use>
                        <path d="M-4,0h8M0,-4v8" fill="none" stroke="white" stroke-width="1.5" pointer-events="none"/>
                </g>
                <g id="zoomMin">
                        <use xlink:href="#rim" fill="#404040">
                                <set attributeName="fill" to="#808080" begin="zoomminus.mouseover" end="zoomminus.mouseout"/>
                        </use>
                        <path d="M-4,0h8" fill="none" stroke="white" stroke-width="1.5" pointer-events="none"/>
                </g>
                <g id="dirArrow">
                        <path fill="none" stroke="white" stroke-width="1.5" d="M0,-3.0v7 M-2.5,-0.5L0,-3.0L2.5,-0.5"/>
                </g>
               <g id="resetDef">
                       <use xlink:href="#rim2" fill="#404040">
                               <set attributeName="fill" to="#808080" begin="reset.mouseover" end="reset.mouseout"/>
                       </use>
               </g>
        </defs>

<script type="text/javascript">
var viewWidth = 887;
var viewHeight = 127;
var sectionId = 'dynsection-3';
</script>
<script xlink:href="svgpan.js"/>
<svg id="graph" class="graph">
<g id="viewport">
<title>Polygon_complete&lt; float &gt;</title>
<polygon fill="white" stroke="none" points="-4,4 -4,-123 883,-123 883,4 -4,4"/>
<!-- Node1 -->
<g id="node1" class="node"><title>Node1</title>
<polygon fill="#bfbfbf" stroke="black" points="0,-28 0,-47 134,-47 134,-28 0,-28"/>
<text text-anchor="middle" x="67" y="-35" font-family="Helvetica,sans-Serif" font-size="10.00">Polygon_complete&lt; float &gt;</text>
</g>
<!-- Node2 -->
<g id="node2" class="node"><title>Node2</title>
<g id="a_node2"><a xlink:href="polygon_8h.html#a296ad0a1a7b2ee7ce09a49163781d7d7" target="_top" xlink:title="Polygon_complete">
<polygon fill="white" stroke="black" points="170,-28 170,-47 267,-47 267,-28 170,-28"/>
<text text-anchor="middle" x="218.5" y="-35" font-family="Helvetica,sans-Serif" font-size="10.00">Polygon_complete</text>
</a>
</g>
</g>
<!-- Node1&#45;&gt;Node2 -->
<g id="edge1" class="edge"><title>Node1&#45;&gt;Node2</title>
<path fill="none" stroke="midnightblue" d="M144.216,-37.5C152.926,-37.5 161.609,-37.5 169.793,-37.5"/>
<polygon fill="midnightblue" stroke="midnightblue" points="144.008,-34.0001 134.008,-37.5 144.008,-41.0001 144.008,-34.0001"/>
</g>
<!-- Node3 -->
<g id="node3" class="node"><title>Node3</title>
<g id="a_node3"><a xlink:href="classAC__PolyFence__loader.html#a75bbdb5a39181afbe1e657355c5bd6c9" target="_top" xlink:title="AC_PolyFence_loader\l::boundary_valid">
<polygon fill="white" stroke="black" points="303,-44.5 303,-74.5 417,-74.5 417,-44.5 303,-44.5"/>
<text text-anchor="start" x="311" y="-62.5" font-family="Helvetica,sans-Serif" font-size="10.00">AC_PolyFence_loader</text>
<text text-anchor="middle" x="360" y="-51.5" font-family="Helvetica,sans-Serif" font-size="10.00">::boundary_valid</text>
</a>
</g>
</g>
<!-- Node2&#45;&gt;Node3 -->
<g id="edge2" class="edge"><title>Node2&#45;&gt;Node3</title>
<path fill="none" stroke="midnightblue" d="M277.022,-46.5716C285.586,-47.9222 294.404,-49.3128 302.937,-50.6585"/>
<polygon fill="midnightblue" stroke="midnightblue" points="277.541,-43.1102 267.118,-45.0096 276.45,-50.0248 277.541,-43.1102"/>
</g>
<!-- Node9 -->
<g id="node9" class="node"><title>Node9</title>
<g id="a_node9"><a xlink:href="examples_2polygon_2polygon_8cpp.html#a7dfd9b79bc5a37d7df40207afbc5431f" target="_top" xlink:title="setup">
<polygon fill="white" stroke="black" points="339.5,-6 339.5,-25 380.5,-25 380.5,-6 339.5,-6"/>
<text text-anchor="middle" x="360" y="-13" font-family="Helvetica,sans-Serif" font-size="10.00">setup</text>
</a>
</g>
</g>
<!-- Node2&#45;&gt;Node9 -->
<g id="edge9" class="edge"><title>Node2&#45;&gt;Node9</title>
<path fill="none" stroke="midnightblue" d="M277.114,-28.4139C299.199,-24.931 322.959,-21.184 339.166,-18.628"/>
<polygon fill="midnightblue" stroke="midnightblue" points="276.45,-24.9752 267.118,-29.9904 277.541,-31.8898 276.45,-24.9752"/>
</g>
<!-- Node4 -->
<g id="node4" class="node"><title>Node4</title>
<g id="a_node4"><a xlink:href="classAC__Fence.html#a4064af0cdae32b2fa68e8f85ea40c384" target="_top" xlink:title="load polygon points stored in eeprom into boundary array and perform validation. returns true if load...">
<polygon fill="white" stroke="black" points="453,-88.5 453,-118.5 579,-118.5 579,-88.5 453,-88.5"/>
<text text-anchor="start" x="461" y="-106.5" font-family="Helvetica,sans-Serif" font-size="10.00">AC_Fence::load_polygon</text>
<text text-anchor="middle" x="516" y="-95.5" font-family="Helvetica,sans-Serif" font-size="10.00">_from_eeprom</text>
</a>
</g>
</g>
<!-- Node3&#45;&gt;Node4 -->
<g id="edge3" class="edge"><title>Node3&#45;&gt;Node4</title>
<path fill="none" stroke="midnightblue" d="M423.341,-77.3118C436.303,-81.015 449.839,-84.8827 462.408,-88.4738"/>
<polygon fill="midnightblue" stroke="midnightblue" points="424.144,-73.9012 413.567,-74.5192 422.221,-80.6319 424.144,-73.9012"/>
</g>
<!-- Node7 -->
<g id="node7" class="node"><title>Node7</title>
<g id="a_node7"><a xlink:href="classAP__Proximity__SITL.html#a6d9f228a0ae41c802bda9b6aff5f00dd" target="_top" xlink:title="AP_Proximity_SITL::\lupdate">
<polygon fill="white" stroke="black" points="623,-22.5 623,-52.5 732,-52.5 732,-22.5 623,-22.5"/>
<text text-anchor="start" x="631" y="-40.5" font-family="Helvetica,sans-Serif" font-size="10.00">AP_Proximity_SITL::</text>
<text text-anchor="middle" x="677.5" y="-29.5" font-family="Helvetica,sans-Serif" font-size="10.00">update</text>
</a>
</g>
</g>
<!-- Node3&#45;&gt;Node7 -->
<g id="edge6" class="edge"><title>Node3&#45;&gt;Node7</title>
<path fill="none" stroke="midnightblue" d="M427.223,-54.8822C485.337,-50.8299 568.788,-45.0108 622.822,-41.243"/>
<polygon fill="midnightblue" stroke="midnightblue" points="426.774,-51.405 417.042,-55.5922 427.261,-58.388 426.774,-51.405"/>
</g>
<!-- Node8 -->
<g id="node8" class="node"><title>Node8</title>
<g id="a_node8"><a xlink:href="classAP__Proximity__SITL.html#ac2a76298f4b87a2694ebe0af35f1521e" target="_top" xlink:title="AP_Proximity_SITL::\lget_distance_to_fence">
<polygon fill="white" stroke="black" points="458.5,-0.5 458.5,-30.5 573.5,-30.5 573.5,-0.5 458.5,-0.5"/>
<text text-anchor="start" x="466.5" y="-18.5" font-family="Helvetica,sans-Serif" font-size="10.00">AP_Proximity_SITL::</text>
<text text-anchor="middle" x="516" y="-7.5" font-family="Helvetica,sans-Serif" font-size="10.00">get_distance_to_fence</text>
</a>
</g>
</g>
<!-- Node3&#45;&gt;Node8 -->
<g id="edge7" class="edge"><title>Node3&#45;&gt;Node8</title>
<path fill="none" stroke="midnightblue" d="M423.341,-41.6882C436.303,-37.985 449.839,-34.1173 462.408,-30.5262"/>
<polygon fill="midnightblue" stroke="midnightblue" points="422.221,-38.3681 413.567,-44.4808 424.144,-45.0988 422.221,-38.3681"/>
</g>
<!-- Node5 -->
<g id="node5" class="node"><title>Node5</title>
<g id="a_node5"><a xlink:href="classAC__Fence.html#a730e2005dc74a0a70ee16bfb9569baeb" target="_top" xlink:title="AC_Fence::check_fence">
<polygon fill="white" stroke="black" points="615,-94 615,-113 740,-113 740,-94 615,-94"/>
<text text-anchor="middle" x="677.5" y="-101" font-family="Helvetica,sans-Serif" font-size="10.00">AC_Fence::check_fence</text>
</a>
</g>
</g>
<!-- Node4&#45;&gt;Node5 -->
<g id="edge4" class="edge"><title>Node4&#45;&gt;Node5</title>
<path fill="none" stroke="midnightblue" d="M589.396,-103.5C597.884,-103.5 606.485,-103.5 614.808,-103.5"/>
<polygon fill="midnightblue" stroke="midnightblue" points="589.124,-100 579.124,-103.5 589.124,-107 589.124,-100"/>
</g>
<!-- Node6 -->
<g id="node6" class="node"><title>Node6</title>
<g id="a_node6"><a xlink:href="classAC__Fence.html#acdc600f19a3e4eb6de655c26f52e0968" target="_top" xlink:title="enabled &#45; returns true if fence is enabled ">
<polygon fill="white" stroke="black" points="776,-94 776,-113 879,-113 879,-94 776,-94"/>
<text text-anchor="middle" x="827.5" y="-101" font-family="Helvetica,sans-Serif" font-size="10.00">AC_Fence::enabled</text>
</a>
</g>
</g>
<!-- Node5&#45;&gt;Node6 -->
<g id="edge5" class="edge"><title>Node5&#45;&gt;Node6</title>
<path fill="none" stroke="midnightblue" d="M750.649,-103.5C759.082,-103.5 767.547,-103.5 775.606,-103.5"/>
<polygon fill="midnightblue" stroke="midnightblue" points="750.408,-100 740.408,-103.5 750.408,-107 750.408,-100"/>
</g>
<!-- Node8&#45;&gt;Node7 -->
<g id="edge8" class="edge"><title>Node8&#45;&gt;Node7</title>
<path fill="none" stroke="midnightblue" d="M583.594,-24.6853C596.711,-26.4946 610.316,-28.3711 622.936,-30.1119"/>
<polygon fill="midnightblue" stroke="midnightblue" points="584.067,-21.2176 573.683,-23.3183 583.111,-28.152 584.067,-21.2176"/>
</g>
</g>
</svg>
        <g id="navigator" transform="translate(0 0)" fill="#404254">
                <rect fill="#f2f5e9" fill-opacity="0.5" stroke="#606060" stroke-width=".5" x="0" y="0" width="60" height="60"/>
                <use id="zoomplus" xlink:href="#zoomPlus" x="17" y="9" onmousedown="handleZoom(evt,'in')"/>
                <use id="zoomminus" xlink:href="#zoomMin" x="42" y="9" onmousedown="handleZoom(evt,'out')"/>
                <use id="reset" xlink:href="#resetDef" x="30" y="36" onmousedown="handleReset()"/>
                <g id="arrowUp" xlink:href="#dirArrow" transform="translate(30 24)" onmousedown="handlePan(0,-1)">
                  <use xlink:href="#rim" fill="#404040">
                        <set attributeName="fill" to="#808080" begin="arrowUp.mouseover" end="arrowUp.mouseout"/>
                  </use>
                  <path fill="none" stroke="white" stroke-width="1.5" d="M0,-3.0v7 M-2.5,-0.5L0,-3.0L2.5,-0.5"/>
                </g>
                <g id="arrowRight" xlink:href="#dirArrow" transform="rotate(90) translate(36 -43)" onmousedown="handlePan(1,0)">
                  <use xlink:href="#rim" fill="#404040">
                        <set attributeName="fill" to="#808080" begin="arrowRight.mouseover" end="arrowRight.mouseout"/>
                  </use>
                  <path fill="none" stroke="white" stroke-width="1.5" d="M0,-3.0v7 M-2.5,-0.5L0,-3.0L2.5,-0.5"/>
                </g>
                <g id="arrowDown" xlink:href="#dirArrow" transform="rotate(180) translate(-30 -48)" onmousedown="handlePan(0,1)">
                  <use xlink:href="#rim" fill="#404040">
                        <set attributeName="fill" to="#808080" begin="arrowDown.mouseover" end="arrowDown.mouseout"/>
                  </use>
                  <path fill="none" stroke="white" stroke-width="1.5" d="M0,-3.0v7 M-2.5,-0.5L0,-3.0L2.5,-0.5"/>
                </g>
                <g id="arrowLeft" xlink:href="#dirArrow" transform="rotate(270) translate(-36 17)" onmousedown="handlePan(-1,0)">
                  <use xlink:href="#rim" fill="#404040">
                        <set attributeName="fill" to="#808080" begin="arrowLeft.mouseover" end="arrowLeft.mouseout"/>
                  </use>
                  <path fill="none" stroke="white" stroke-width="1.5" d="M0,-3.0v7 M-2.5,-0.5L0,-3.0L2.5,-0.5"/>
                </g>
        </g>
        <svg viewBox="0 0 15 15" width="100%" height="30px" preserveAspectRatio="xMaxYMin meet">
         <g id="arrow_out" transform="scale(0.3 0.3)">
          <a xlink:href="polygon_8cpp_a4d47eaff22b1f855bb2e3612d295b0f0_icgraph_org.svg" target="_base">
           <rect id="button" ry="5" rx="5" y="6" x="6" height="38" width="38"
                fill="#f2f5e9" fill-opacity="0.5" stroke="#606060" stroke-width="1.0"/>
           <path id="arrow"
             d="M 11.500037,31.436501 C 11.940474,20.09759 22.043105,11.32322 32.158766,21.979434 L 37.068811,17.246167 C 37.068811,17.246167 37.088388,32 37.088388,32 L 22.160133,31.978069 C 22.160133,31.978069 26.997745,27.140456 26.997745,27.140456 C 18.528582,18.264221 13.291696,25.230495 11.500037,31.436501 z"
             style="fill:#404040;"/>
          </a>
         </g>
        </svg>
</svg>
