<?xml version="1.0" encoding="UTF-8" standalone="no"?>
<!DOCTYPE svg PUBLIC "-//W3C//DTD SVG 1.1//EN"
 "http://www.w3.org/Graphics/SVG/1.1/DTD/svg11.dtd">
<!-- Generated by graphviz version 2.38.0 (20140413.2041)
 -->
<!-- Title: fat_dma_alloc Pages: 1 -->
<svg width="260pt" height="78pt"
 viewBox="0.00 0.00 260.00 77.50" xmlns="http://www.w3.org/2000/svg" xmlns:xlink="http://www.w3.org/1999/xlink">
<g id="graph0" class="graph" transform="scale(1 1) rotate(0) translate(4 73.5)">
<title>fat_dma_alloc</title>
<polygon fill="white" stroke="none" points="-4,4 -4,-73.5 256,-73.5 256,4 -4,4"/>
<!-- Node1 -->
<g id="node1" class="node"><title>Node1</title>
<polygon fill="#bfbfbf" stroke="black" points="0,-28 0,-47 77,-47 77,-28 0,-28"/>
<text text-anchor="middle" x="38.5" y="-35" font-family="Helvetica,sans-Serif" font-size="10.00">fat_dma_alloc</text>
</g>
<!-- Node2 -->
<g id="node2" class="node"><title>Node2</title>
<g id="a_node2"><a xlink:href="classPX4_1_1PX4Util.html#ae61590e1d98adef91d20a89013e920b2" target="_top" xlink:title="PX4::PX4Util::dma_allocate">
<polygon fill="white" stroke="black" points="113,-50 113,-69 252,-69 252,-50 113,-50"/>
<text text-anchor="middle" x="182.5" y="-57" font-family="Helvetica,sans-Serif" font-size="10.00">PX4::PX4Util::dma_allocate</text>
</a>
</g>
</g>
<!-- Node1&#45;&gt;Node2 -->
<g id="edge1" class="edge"><title>Node1&#45;&gt;Node2</title>
<path fill="none" stroke="midnightblue" d="M87.3706,-44.9166C97.8515,-46.5404 109.087,-48.2811 120.017,-49.9744"/>
<polygon fill="midnightblue" stroke="midnightblue" points="87.5986,-41.4102 77.1806,-43.3378 86.5268,-48.3277 87.5986,-41.4102"/>
</g>
<!-- Node3 -->
<g id="node3" class="node"><title>Node3</title>
<g id="a_node3"><a xlink:href="classPX4_1_1PX4Util.html#aba6fff41f0889a0243efabe09f752e37" target="_top" xlink:title="PX4::PX4Util::set_imu\l_target_temp">
<polygon fill="white" stroke="black" points="124.5,-0.5 124.5,-30.5 240.5,-30.5 240.5,-0.5 124.5,-0.5"/>
<text text-anchor="start" x="132.5" y="-18.5" font-family="Helvetica,sans-Serif" font-size="10.00">PX4::PX4Util::set_imu</text>
<text text-anchor="middle" x="182.5" y="-7.5" font-family="Helvetica,sans-Serif" font-size="10.00">_target_temp</text>
</a>
</g>
</g>
<!-- Node1&#45;&gt;Node3 -->
<g id="edge2" class="edge"><title>Node1&#45;&gt;Node3</title>
<path fill="none" stroke="midnightblue" d="M87.3378,-30.0885C99.2253,-28.2468 112.086,-26.2543 124.37,-24.3512"/>
<polygon fill="midnightblue" stroke="midnightblue" points="86.5268,-26.6723 77.1806,-31.6622 87.5986,-33.5898 86.5268,-26.6723"/>
</g>
</g>
</svg>
