<?xml version="1.0" encoding="UTF-8" standalone="no"?>
<!DOCTYPE svg PUBLIC "-//W3C//DTD SVG 1.1//EN"
 "http://www.w3.org/Graphics/SVG/1.1/DTD/svg11.dtd">
<!-- Generated by graphviz version 2.38.0 (20140413.2041)
 -->
<!-- Title: read_callback_trampoline Pages: 1 -->
<svg width="570pt" height="39pt"
 viewBox="0.00 0.00 570.00 39.00" xmlns="http://www.w3.org/2000/svg" xmlns:xlink="http://www.w3.org/1999/xlink">
<g id="graph0" class="graph" transform="scale(1 1) rotate(0) translate(4 35)">
<title>read_callback_trampoline</title>
<polygon fill="white" stroke="none" points="-4,4 -4,-35 566,-35 566,4 -4,4"/>
<!-- Node1 -->
<g id="node1" class="node"><title>Node1</title>
<polygon fill="#bfbfbf" stroke="black" points="0,-6 0,-25 127,-25 127,-6 0,-6"/>
<text text-anchor="middle" x="63.5" y="-13" font-family="Helvetica,sans-Serif" font-size="10.00">read_callback_trampoline</text>
</g>
<!-- Node2 -->
<g id="node2" class="node"><title>Node2</title>
<g id="a_node2"><a xlink:href="classQURT_1_1RCOutput.html#aadfaee85e450d2f069fc1ed8149d11c7" target="_top" xlink:title="QURT::RCOutput::timer\l_update">
<polygon fill="white" stroke="black" points="163,-0.5 163,-30.5 286,-30.5 286,-0.5 163,-0.5"/>
<text text-anchor="start" x="171" y="-18.5" font-family="Helvetica,sans-Serif" font-size="10.00">QURT::RCOutput::timer</text>
<text text-anchor="middle" x="224.5" y="-7.5" font-family="Helvetica,sans-Serif" font-size="10.00">_update</text>
</a>
</g>
</g>
<!-- Node1&#45;&gt;Node2 -->
<g id="edge1" class="edge"><title>Node1&#45;&gt;Node2</title>
<path fill="none" stroke="midnightblue" d="M137.604,-15.5C146.078,-15.5 154.651,-15.5 162.932,-15.5"/>
<polygon fill="midnightblue" stroke="midnightblue" points="137.341,-12.0001 127.341,-15.5 137.341,-19.0001 137.341,-12.0001"/>
</g>
<!-- Node3 -->
<g id="node3" class="node"><title>Node3</title>
<g id="a_node3"><a xlink:href="classQURT_1_1RCOutput.html#a10fbcd981665b346e5e2d77653c788d7" target="_top" xlink:title="QURT::RCOutput::set\l_device_path">
<polygon fill="white" stroke="black" points="322,-0.5 322,-30.5 437,-30.5 437,-0.5 322,-0.5"/>
<text text-anchor="start" x="330" y="-18.5" font-family="Helvetica,sans-Serif" font-size="10.00">QURT::RCOutput::set</text>
<text text-anchor="middle" x="379.5" y="-7.5" font-family="Helvetica,sans-Serif" font-size="10.00">_device_path</text>
</a>
</g>
</g>
<!-- Node2&#45;&gt;Node3 -->
<g id="edge2" class="edge"><title>Node2&#45;&gt;Node3</title>
<path fill="none" stroke="midnightblue" d="M296.625,-15.5C305.059,-15.5 313.58,-15.5 321.776,-15.5"/>
<polygon fill="midnightblue" stroke="midnightblue" points="296.409,-12.0001 286.409,-15.5 296.409,-19.0001 296.409,-12.0001"/>
</g>
<!-- Node4 -->
<g id="node4" class="node"><title>Node4</title>
<g id="a_node4"><a xlink:href="classHAL__QURT.html#a7cb90b613730829561df2721e90f6994" target="_top" xlink:title="HAL_QURT::run">
<polygon fill="white" stroke="black" points="473,-6 473,-25 562,-25 562,-6 473,-6"/>
<text text-anchor="middle" x="517.5" y="-13" font-family="Helvetica,sans-Serif" font-size="10.00">HAL_QURT::run</text>
</a>
</g>
</g>
<!-- Node3&#45;&gt;Node4 -->
<g id="edge3" class="edge"><title>Node3&#45;&gt;Node4</title>
<path fill="none" stroke="midnightblue" d="M447.413,-15.5C455.99,-15.5 464.59,-15.5 472.667,-15.5"/>
<polygon fill="midnightblue" stroke="midnightblue" points="447.388,-12.0001 437.388,-15.5 447.388,-19.0001 447.388,-12.0001"/>
</g>
</g>
</svg>
