<?xml version="1.0" encoding="UTF-8" standalone="no"?>
<!DOCTYPE svg PUBLIC "-//W3C//DTD SVG 1.1//EN"
 "http://www.w3.org/Graphics/SVG/1.1/DTD/svg11.dtd">
<!-- Generated by graphviz version 2.38.0 (20140413.2041)
 -->
<!-- Title: libraries/AP_HAL_Linux/RCOutput_Disco.h Pages: 1 -->
<svg width="562pt" height="106pt"
 viewBox="0.00 0.00 562.00 106.00" xmlns="http://www.w3.org/2000/svg" xmlns:xlink="http://www.w3.org/1999/xlink">
<g id="graph0" class="graph" transform="scale(1 1) rotate(0) translate(4 102)">
<title>libraries/AP_HAL_Linux/RCOutput_Disco.h</title>
<polygon fill="white" stroke="none" points="-4,4 -4,-102 558,-102 558,4 -4,4"/>
<!-- Node1 -->
<g id="node1" class="node"><title>Node1</title>
<polygon fill="#bfbfbf" stroke="black" points="227,-67.5 227,-97.5 347,-97.5 347,-67.5 227,-67.5"/>
<text text-anchor="start" x="235" y="-85.5" font-family="Helvetica,sans-Serif" font-size="10.00">libraries/AP_HAL_Linux</text>
<text text-anchor="middle" x="287" y="-74.5" font-family="Helvetica,sans-Serif" font-size="10.00">/RCOutput_Disco.h</text>
</g>
<!-- Node2 -->
<g id="node2" class="node"><title>Node2</title>
<g id="a_node2"><a xlink:href="AP__BattMonitor__Bebop_8cpp.html" target="_top" xlink:title="libraries/AP_BattMonitor\l/AP_BattMonitor_Bebop.cpp">
<polygon fill="white" stroke="black" points="0,-0.5 0,-30.5 140,-30.5 140,-0.5 0,-0.5"/>
<text text-anchor="start" x="8" y="-18.5" font-family="Helvetica,sans-Serif" font-size="10.00">libraries/AP_BattMonitor</text>
<text text-anchor="middle" x="70" y="-7.5" font-family="Helvetica,sans-Serif" font-size="10.00">/AP_BattMonitor_Bebop.cpp</text>
</a>
</g>
</g>
<!-- Node1&#45;&gt;Node2 -->
<g id="edge1" class="edge"><title>Node1&#45;&gt;Node2</title>
<path fill="none" stroke="midnightblue" d="M230.512,-64.5797C195.267,-54.0225 150.431,-40.5921 117.109,-30.6109"/>
<polygon fill="midnightblue" stroke="midnightblue" points="229.598,-67.9593 240.181,-67.476 231.606,-61.2537 229.598,-67.9593"/>
</g>
<!-- Node3 -->
<g id="node3" class="node"><title>Node3</title>
<g id="a_node3"><a xlink:href="HAL__Linux__Class_8cpp.html" target="_top" xlink:title="libraries/AP_HAL_Linux\l/HAL_Linux_Class.cpp">
<polygon fill="white" stroke="black" points="158,-0.5 158,-30.5 278,-30.5 278,-0.5 158,-0.5"/>
<text text-anchor="start" x="166" y="-18.5" font-family="Helvetica,sans-Serif" font-size="10.00">libraries/AP_HAL_Linux</text>
<text text-anchor="middle" x="218" y="-7.5" font-family="Helvetica,sans-Serif" font-size="10.00">/HAL_Linux_Class.cpp</text>
</a>
</g>
</g>
<!-- Node1&#45;&gt;Node3 -->
<g id="edge2" class="edge"><title>Node1&#45;&gt;Node3</title>
<path fill="none" stroke="midnightblue" d="M264.508,-60.3115C254.157,-50.5612 242.16,-39.259 232.943,-30.5765"/>
<polygon fill="midnightblue" stroke="midnightblue" points="262.349,-63.0866 272.028,-67.396 267.149,-57.9914 262.349,-63.0866"/>
</g>
<!-- Node4 -->
<g id="node4" class="node"><title>Node4</title>
<g id="a_node4"><a xlink:href="RCOutput__Disco_8cpp.html" target="_top" xlink:title="libraries/AP_HAL_Linux\l/RCOutput_Disco.cpp">
<polygon fill="white" stroke="black" points="296,-0.5 296,-30.5 416,-30.5 416,-0.5 296,-0.5"/>
<text text-anchor="start" x="304" y="-18.5" font-family="Helvetica,sans-Serif" font-size="10.00">libraries/AP_HAL_Linux</text>
<text text-anchor="middle" x="356" y="-7.5" font-family="Helvetica,sans-Serif" font-size="10.00">/RCOutput_Disco.cpp</text>
</a>
</g>
</g>
<!-- Node1&#45;&gt;Node4 -->
<g id="edge3" class="edge"><title>Node1&#45;&gt;Node4</title>
<path fill="none" stroke="midnightblue" d="M309.492,-60.3115C319.843,-50.5612 331.84,-39.259 341.057,-30.5765"/>
<polygon fill="midnightblue" stroke="midnightblue" points="306.851,-57.9914 301.972,-67.396 311.651,-63.0866 306.851,-57.9914"/>
</g>
<!-- Node5 -->
<g id="node5" class="node"><title>Node5</title>
<g id="a_node5"><a xlink:href="ToneAlarm__Disco_8cpp.html" target="_top" xlink:title="libraries/AP_HAL_Linux\l/ToneAlarm_Disco.cpp">
<polygon fill="white" stroke="black" points="434,-0.5 434,-30.5 554,-30.5 554,-0.5 434,-0.5"/>
<text text-anchor="start" x="442" y="-18.5" font-family="Helvetica,sans-Serif" font-size="10.00">libraries/AP_HAL_Linux</text>
<text text-anchor="middle" x="494" y="-7.5" font-family="Helvetica,sans-Serif" font-size="10.00">/ToneAlarm_Disco.cpp</text>
</a>
</g>
</g>
<!-- Node1&#45;&gt;Node5 -->
<g id="edge4" class="edge"><title>Node1&#45;&gt;Node5</title>
<path fill="none" stroke="midnightblue" d="M341.316,-64.4442C374.871,-53.9078 417.412,-40.5495 449.062,-30.6109"/>
<polygon fill="midnightblue" stroke="midnightblue" points="340.153,-61.1408 331.661,-67.476 342.25,-67.8193 340.153,-61.1408"/>
</g>
</g>
</svg>
