<?xml version="1.0" encoding="UTF-8" standalone="no"?>
<!DOCTYPE svg PUBLIC "-//W3C//DTD SVG 1.1//EN"
 "http://www.w3.org/Graphics/SVG/1.1/DTD/svg11.dtd">
<!-- Generated by graphviz version 2.38.0 (20140413.2041)
 -->
<!-- Title: libraries/AP_HAL/utility/srxl.cpp Pages: 1 -->
<svg width="248pt" height="95pt"
 viewBox="0.00 0.00 247.50 95.00" xmlns="http://www.w3.org/2000/svg" xmlns:xlink="http://www.w3.org/1999/xlink">
<g id="graph0" class="graph" transform="scale(1 1) rotate(0) translate(4 91)">
<title>libraries/AP_HAL/utility/srxl.cpp</title>
<polygon fill="white" stroke="none" points="-4,4 -4,-91 243.5,-91 243.5,4 -4,4"/>
<!-- Node1 -->
<g id="node1" class="node"><title>Node1</title>
<polygon fill="#bfbfbf" stroke="black" points="63,-56.5 63,-86.5 181,-86.5 181,-56.5 63,-56.5"/>
<text text-anchor="start" x="71" y="-74.5" font-family="Helvetica,sans-Serif" font-size="10.00">libraries/AP_HAL/utility</text>
<text text-anchor="middle" x="122" y="-63.5" font-family="Helvetica,sans-Serif" font-size="10.00">/srxl.cpp</text>
</g>
<!-- Node2 -->
<g id="node2" class="node"><title>Node2</title>
<polygon fill="white" stroke="#bfbfbf" points="0,-0.5 0,-19.5 46,-19.5 46,-0.5 0,-0.5"/>
<text text-anchor="middle" x="23" y="-7.5" font-family="Helvetica,sans-Serif" font-size="10.00">stdio.h</text>
</g>
<!-- Node1&#45;&gt;Node2 -->
<g id="edge1" class="edge"><title>Node1&#45;&gt;Node2</title>
<path fill="none" stroke="midnightblue" d="M98.5384,-56.3993C82.6694,-46.8619 61.8093,-34.3248 46.0316,-24.8422"/>
<polygon fill="midnightblue" stroke="midnightblue" points="47.7795,-21.8093 37.4054,-19.6578 44.1735,-27.809 47.7795,-21.8093"/>
</g>
<!-- Node3 -->
<g id="node3" class="node"><title>Node3</title>
<polygon fill="white" stroke="#bfbfbf" points="64.5,-0.5 64.5,-19.5 113.5,-19.5 113.5,-0.5 64.5,-0.5"/>
<text text-anchor="middle" x="89" y="-7.5" font-family="Helvetica,sans-Serif" font-size="10.00">stdint.h</text>
</g>
<!-- Node1&#45;&gt;Node3 -->
<g id="edge2" class="edge"><title>Node1&#45;&gt;Node3</title>
<path fill="none" stroke="midnightblue" d="M114.179,-56.3993C109.532,-48.0207 103.601,-37.3269 98.6631,-28.4229"/>
<polygon fill="midnightblue" stroke="midnightblue" points="101.713,-26.7052 93.8018,-19.6578 95.5913,-30.1004 101.713,-26.7052"/>
</g>
<!-- Node4 -->
<g id="node4" class="node"><title>Node4</title>
<polygon fill="white" stroke="#bfbfbf" points="131.5,-0.5 131.5,-19.5 180.5,-19.5 180.5,-0.5 131.5,-0.5"/>
<text text-anchor="middle" x="156" y="-7.5" font-family="Helvetica,sans-Serif" font-size="10.00">string.h</text>
</g>
<!-- Node1&#45;&gt;Node4 -->
<g id="edge3" class="edge"><title>Node1&#45;&gt;Node4</title>
<path fill="none" stroke="midnightblue" d="M130.058,-56.3993C134.845,-48.0207 140.956,-37.3269 146.044,-28.4229"/>
<polygon fill="midnightblue" stroke="midnightblue" points="149.13,-30.0767 151.053,-19.6578 143.052,-26.6037 149.13,-30.0767"/>
</g>
<!-- Node5 -->
<g id="node5" class="node"><title>Node5</title>
<g id="a_node5"><a xlink:href="srxl_8h.html" target="_top" xlink:title="srxl.h">
<polygon fill="white" stroke="black" points="198.5,-0.5 198.5,-19.5 239.5,-19.5 239.5,-0.5 198.5,-0.5"/>
<text text-anchor="middle" x="219" y="-7.5" font-family="Helvetica,sans-Serif" font-size="10.00">srxl.h</text>
</a>
</g>
</g>
<!-- Node1&#45;&gt;Node5 -->
<g id="edge4" class="edge"><title>Node1&#45;&gt;Node5</title>
<path fill="none" stroke="midnightblue" d="M144.988,-56.3993C160.391,-46.9511 180.593,-34.5589 195.999,-25.1089"/>
<polygon fill="midnightblue" stroke="midnightblue" points="198.192,-27.87 204.886,-19.6578 194.531,-21.9031 198.192,-27.87"/>
</g>
</g>
</svg>
