<?xml version="1.0" encoding="UTF-8" standalone="no"?>
<!DOCTYPE svg PUBLIC "-//W3C//DTD SVG 1.1//EN"
 "http://www.w3.org/Graphics/SVG/1.1/DTD/svg11.dtd">
<!-- Generated by graphviz version 2.38.0 (20140413.2041)
 -->
<!-- Title: libraries/AP_HAL/utility/Stream.h Pages: 1 -->
<svg width="286pt" height="263pt"
 viewBox="0.00 0.00 285.50 263.00" xmlns="http://www.w3.org/2000/svg" xmlns:xlink="http://www.w3.org/1999/xlink">
<g id="graph0" class="graph" transform="scale(1 1) rotate(0) translate(4 259)">
<title>libraries/AP_HAL/utility/Stream.h</title>
<polygon fill="white" stroke="none" points="-4,4 -4,-259 281.5,-259 281.5,4 -4,4"/>
<!-- Node1 -->
<g id="node1" class="node"><title>Node1</title>
<polygon fill="#bfbfbf" stroke="black" points="83,-224.5 83,-254.5 201,-254.5 201,-224.5 83,-224.5"/>
<text text-anchor="start" x="91" y="-242.5" font-family="Helvetica,sans-Serif" font-size="10.00">libraries/AP_HAL/utility</text>
<text text-anchor="middle" x="142" y="-231.5" font-family="Helvetica,sans-Serif" font-size="10.00">/Stream.h</text>
</g>
<!-- Node2 -->
<g id="node2" class="node"><title>Node2</title>
<g id="a_node2"><a xlink:href="AP__HAL__Namespace_8h.html" target="_top" xlink:title="AP_HAL/AP_HAL_Namespace.h">
<polygon fill="white" stroke="black" points="0,-112.5 0,-131.5 162,-131.5 162,-112.5 0,-112.5"/>
<text text-anchor="middle" x="81" y="-119.5" font-family="Helvetica,sans-Serif" font-size="10.00">AP_HAL/AP_HAL_Namespace.h</text>
</a>
</g>
</g>
<!-- Node1&#45;&gt;Node2 -->
<g id="edge1" class="edge"><title>Node1&#45;&gt;Node2</title>
<path fill="none" stroke="midnightblue" d="M134.52,-224.337C123.38,-203.243 102.442,-163.6 90.3206,-140.648"/>
<polygon fill="midnightblue" stroke="midnightblue" points="93.3437,-138.877 85.5787,-131.669 87.1539,-142.147 93.3437,-138.877"/>
</g>
<!-- Node6 -->
<g id="node6" class="node"><title>Node6</title>
<g id="a_node6"><a xlink:href="Print_8h.html" target="_top" xlink:title="Print.h">
<polygon fill="white" stroke="black" points="152.5,-168.5 152.5,-187.5 197.5,-187.5 197.5,-168.5 152.5,-168.5"/>
<text text-anchor="middle" x="175" y="-175.5" font-family="Helvetica,sans-Serif" font-size="10.00">Print.h</text>
</a>
</g>
</g>
<!-- Node1&#45;&gt;Node6 -->
<g id="edge5" class="edge"><title>Node1&#45;&gt;Node6</title>
<path fill="none" stroke="midnightblue" d="M149.821,-224.399C154.468,-216.021 160.399,-205.327 165.337,-196.423"/>
<polygon fill="midnightblue" stroke="midnightblue" points="168.409,-198.1 170.198,-187.658 162.287,-194.705 168.409,-198.1"/>
</g>
<!-- Node3 -->
<g id="node3" class="node"><title>Node3</title>
<polygon fill="white" stroke="#bfbfbf" points="152.5,-56.5 152.5,-75.5 201.5,-75.5 201.5,-56.5 152.5,-56.5"/>
<text text-anchor="middle" x="177" y="-63.5" font-family="Helvetica,sans-Serif" font-size="10.00">string.h</text>
</g>
<!-- Node2&#45;&gt;Node3 -->
<g id="edge2" class="edge"><title>Node2&#45;&gt;Node3</title>
<path fill="none" stroke="midnightblue" d="M96.4241,-112.324C111.54,-103.822 134.815,-90.7288 152.471,-80.7975"/>
<polygon fill="midnightblue" stroke="midnightblue" points="154.614,-83.6077 161.614,-75.6545 151.183,-77.5066 154.614,-83.6077"/>
</g>
<!-- Node4 -->
<g id="node4" class="node"><title>Node4</title>
<g id="a_node4"><a xlink:href="functor_8h.html" target="_top" xlink:title="utility/functor.h">
<polygon fill="white" stroke="black" points="40.5,-56.5 40.5,-75.5 121.5,-75.5 121.5,-56.5 40.5,-56.5"/>
<text text-anchor="middle" x="81" y="-63.5" font-family="Helvetica,sans-Serif" font-size="10.00">utility/functor.h</text>
</a>
</g>
</g>
<!-- Node2&#45;&gt;Node4 -->
<g id="edge3" class="edge"><title>Node2&#45;&gt;Node4</title>
<path fill="none" stroke="midnightblue" d="M81,-112.083C81,-105.006 81,-94.8611 81,-85.9865"/>
<polygon fill="midnightblue" stroke="midnightblue" points="84.5001,-85.751 81,-75.7511 77.5001,-85.7511 84.5001,-85.751"/>
</g>
<!-- Node5 -->
<g id="node5" class="node"><title>Node5</title>
<polygon fill="white" stroke="#bfbfbf" points="50,-0.5 50,-19.5 112,-19.5 112,-0.5 50,-0.5"/>
<text text-anchor="middle" x="81" y="-7.5" font-family="Helvetica,sans-Serif" font-size="10.00">type_traits</text>
</g>
<!-- Node4&#45;&gt;Node5 -->
<g id="edge4" class="edge"><title>Node4&#45;&gt;Node5</title>
<path fill="none" stroke="midnightblue" d="M81,-56.083C81,-49.0059 81,-38.8611 81,-29.9865"/>
<polygon fill="midnightblue" stroke="midnightblue" points="84.5001,-29.751 81,-19.7511 77.5001,-29.7511 84.5001,-29.751"/>
</g>
<!-- Node6&#45;&gt;Node2 -->
<g id="edge6" class="edge"><title>Node6&#45;&gt;Node2</title>
<path fill="none" stroke="midnightblue" d="M159.897,-168.324C145.097,-159.822 122.306,-146.729 105.018,-136.797"/>
<polygon fill="midnightblue" stroke="midnightblue" points="106.48,-133.601 96.0652,-131.655 102.993,-139.671 106.48,-133.601"/>
</g>
<!-- Node6&#45;&gt;Node3 -->
<g id="edge8" class="edge"><title>Node6&#45;&gt;Node3</title>
<path fill="none" stroke="midnightblue" d="M175.157,-168.368C175.48,-150.617 176.224,-109.666 176.662,-85.5974"/>
<polygon fill="midnightblue" stroke="midnightblue" points="180.161,-85.6534 176.844,-75.5914 173.162,-85.5261 180.161,-85.6534"/>
</g>
<!-- Node7 -->
<g id="node7" class="node"><title>Node7</title>
<polygon fill="white" stroke="#bfbfbf" points="218.5,-112.5 218.5,-131.5 277.5,-131.5 277.5,-112.5 218.5,-112.5"/>
<text text-anchor="middle" x="248" y="-119.5" font-family="Helvetica,sans-Serif" font-size="10.00">inttypes.h</text>
</g>
<!-- Node6&#45;&gt;Node7 -->
<g id="edge7" class="edge"><title>Node6&#45;&gt;Node7</title>
<path fill="none" stroke="midnightblue" d="M186.729,-168.324C197.837,-160.107 214.742,-147.602 227.983,-137.807"/>
<polygon fill="midnightblue" stroke="midnightblue" points="230.1,-140.595 236.058,-131.834 225.937,-134.967 230.1,-140.595"/>
</g>
</g>
</svg>
