<?xml version="1.0" encoding="UTF-8" standalone="no"?>
<!DOCTYPE svg PUBLIC "-//W3C//DTD SVG 1.1//EN"
 "http://www.w3.org/Graphics/SVG/1.1/DTD/svg11.dtd">
<!-- Generated by graphviz version 2.38.0 (20140413.2041)
 -->
<!-- Title: AP_GeodesicGrid::section Pages: 1 -->
<svg width="310pt" height="116pt"
 viewBox="0.00 0.00 310.00 115.50" xmlns="http://www.w3.org/2000/svg" xmlns:xlink="http://www.w3.org/1999/xlink">
<g id="graph0" class="graph" transform="scale(1 1) rotate(0) translate(4 111.5)">
<title>AP_GeodesicGrid::section</title>
<polygon fill="white" stroke="none" points="-4,4 -4,-111.5 306,-111.5 306,4 -4,4"/>
<!-- Node1 -->
<g id="node1" class="node"><title>Node1</title>
<polygon fill="#bfbfbf" stroke="black" points="0,-50 0,-69 132,-69 132,-50 0,-50"/>
<text text-anchor="middle" x="66" y="-57" font-family="Helvetica,sans-Serif" font-size="10.00">AP_GeodesicGrid::section</text>
</g>
<!-- Node2 -->
<g id="node2" class="node"><title>Node2</title>
<g id="a_node2"><a xlink:href="benchmark__geodesic__grid_8cpp.html#a280674e106a39ba83054a9eef90618ab" target="_top" xlink:title="BM_GeodesicGridSections">
<polygon fill="white" stroke="black" points="168,-88 168,-107 302,-107 302,-88 168,-88"/>
<text text-anchor="middle" x="235" y="-95" font-family="Helvetica,sans-Serif" font-size="10.00">BM_GeodesicGridSections</text>
</a>
</g>
</g>
<!-- Node1&#45;&gt;Node2 -->
<g id="edge1" class="edge"><title>Node1&#45;&gt;Node2</title>
<path fill="none" stroke="midnightblue" d="M118.965,-71.3243C142.509,-76.6816 169.974,-82.9311 192.162,-87.9799"/>
<polygon fill="midnightblue" stroke="midnightblue" points="119.668,-67.8951 109.141,-69.089 118.115,-74.7206 119.668,-67.8951"/>
</g>
<!-- Node3 -->
<g id="node3" class="node"><title>Node3</title>
<g id="a_node3"><a xlink:href="test__geodesic__grid_8cpp.html#a375d5d9de8bbd8679823f2f88ef1376a" target="_top" xlink:title="TEST_P">
<polygon fill="white" stroke="black" points="208,-50 208,-69 262,-69 262,-50 208,-50"/>
<text text-anchor="middle" x="235" y="-57" font-family="Helvetica,sans-Serif" font-size="10.00">TEST_P</text>
</a>
</g>
</g>
<!-- Node1&#45;&gt;Node3 -->
<g id="edge2" class="edge"><title>Node1&#45;&gt;Node3</title>
<path fill="none" stroke="midnightblue" d="M142.35,-59.5C165.744,-59.5 189.999,-59.5 207.677,-59.5"/>
<polygon fill="midnightblue" stroke="midnightblue" points="142.045,-56.0001 132.045,-59.5 142.045,-63.0001 142.045,-56.0001"/>
</g>
<!-- Node4 -->
<g id="node4" class="node"><title>Node4</title>
<g id="a_node4"><a xlink:href="classCompassCalibrator.html#a435f74eae8c91908b68c2df04a173dd1" target="_top" xlink:title="CompassCalibrator::\lupdate_completion_mask">
<polygon fill="white" stroke="black" points="171,-0.5 171,-30.5 299,-30.5 299,-0.5 171,-0.5"/>
<text text-anchor="start" x="179" y="-18.5" font-family="Helvetica,sans-Serif" font-size="10.00">CompassCalibrator::</text>
<text text-anchor="middle" x="235" y="-7.5" font-family="Helvetica,sans-Serif" font-size="10.00">update_completion_mask</text>
</a>
</g>
</g>
<!-- Node1&#45;&gt;Node4 -->
<g id="edge3" class="edge"><title>Node1&#45;&gt;Node4</title>
<path fill="none" stroke="midnightblue" d="M112.915,-47.4026C132.666,-42.1987 155.963,-36.0605 176.82,-30.5654"/>
<polygon fill="midnightblue" stroke="midnightblue" points="112.015,-44.0203 103.237,-49.9527 113.798,-50.7893 112.015,-44.0203"/>
</g>
</g>
</svg>
