<?xml version="1.0" encoding="UTF-8" standalone="no"?>
<!DOCTYPE svg PUBLIC "-//W3C//DTD SVG 1.1//EN"
 "http://www.w3.org/Graphics/SVG/1.1/DTD/svg11.dtd">
<!-- Generated by graphviz version 2.38.0 (20140413.2041)
 -->
<!-- Title: AP_GeodesicGrid::_subtriangle_index Pages: 1 -->
<svg width="499pt" height="127pt"
 viewBox="0.00 0.00 499.00 127.00" xmlns="http://www.w3.org/2000/svg" xmlns:xlink="http://www.w3.org/1999/xlink">
<g id="graph0" class="graph" transform="scale(1 1) rotate(0) translate(4 123)">
<title>AP_GeodesicGrid::_subtriangle_index</title>
<polygon fill="white" stroke="none" points="-4,4 -4,-123 495,-123 495,4 -4,4"/>
<!-- Node1 -->
<g id="node1" class="node"><title>Node1</title>
<polygon fill="#bfbfbf" stroke="black" points="0,-22.5 0,-52.5 153,-52.5 153,-22.5 0,-22.5"/>
<text text-anchor="start" x="8" y="-40.5" font-family="Helvetica,sans-Serif" font-size="10.00">AP_GeodesicGrid::_subtriangle</text>
<text text-anchor="middle" x="76.5" y="-29.5" font-family="Helvetica,sans-Serif" font-size="10.00">_index</text>
</g>
<!-- Node2 -->
<g id="node2" class="node"><title>Node2</title>
<g id="a_node2"><a xlink:href="structAP__GeodesicGrid.html#a04a68b6581a66dc78ba25c8331d236a4" target="_top" xlink:title="AP_GeodesicGrid::section">
<polygon fill="white" stroke="black" points="189,-50 189,-69 321,-69 321,-50 189,-50"/>
<text text-anchor="middle" x="255" y="-57" font-family="Helvetica,sans-Serif" font-size="10.00">AP_GeodesicGrid::section</text>
</a>
</g>
</g>
<!-- Node1&#45;&gt;Node2 -->
<g id="edge1" class="edge"><title>Node1&#45;&gt;Node2</title>
<path fill="none" stroke="midnightblue" d="M163.2,-48.1822C171.817,-49.2562 180.466,-50.3342 188.818,-51.3753"/>
<polygon fill="midnightblue" stroke="midnightblue" points="163.476,-44.6896 153.12,-46.9257 162.61,-51.6358 163.476,-44.6896"/>
</g>
<!-- Node6 -->
<g id="node6" class="node"><title>Node6</title>
<g id="a_node6"><a xlink:href="classGeodesicGridTest.html#a34a4838375d62c6795be3213d19b18fb" target="_top" xlink:title="GeodesicGridTest::test\l_triangles_indexes">
<polygon fill="white" stroke="black" points="196,-0.5 196,-30.5 314,-30.5 314,-0.5 196,-0.5"/>
<text text-anchor="start" x="204" y="-18.5" font-family="Helvetica,sans-Serif" font-size="10.00">GeodesicGridTest::test</text>
<text text-anchor="middle" x="255" y="-7.5" font-family="Helvetica,sans-Serif" font-size="10.00">_triangles_indexes</text>
</a>
</g>
</g>
<!-- Node1&#45;&gt;Node6 -->
<g id="edge5" class="edge"><title>Node1&#45;&gt;Node6</title>
<path fill="none" stroke="midnightblue" d="M163.24,-26.8128C174.298,-25.4346 185.408,-24.0497 195.875,-22.745"/>
<polygon fill="midnightblue" stroke="midnightblue" points="162.61,-23.3642 153.12,-28.0743 163.476,-30.3104 162.61,-23.3642"/>
</g>
<!-- Node3 -->
<g id="node3" class="node"><title>Node3</title>
<g id="a_node3"><a xlink:href="classCompassCalibrator.html#a435f74eae8c91908b68c2df04a173dd1" target="_top" xlink:title="CompassCalibrator::\lupdate_completion_mask">
<polygon fill="white" stroke="black" points="360,-88.5 360,-118.5 488,-118.5 488,-88.5 360,-88.5"/>
<text text-anchor="start" x="368" y="-106.5" font-family="Helvetica,sans-Serif" font-size="10.00">CompassCalibrator::</text>
<text text-anchor="middle" x="424" y="-95.5" font-family="Helvetica,sans-Serif" font-size="10.00">update_completion_mask</text>
</a>
</g>
</g>
<!-- Node2&#45;&gt;Node3 -->
<g id="edge2" class="edge"><title>Node2&#45;&gt;Node3</title>
<path fill="none" stroke="midnightblue" d="M301.915,-71.5974C321.666,-76.8013 344.963,-82.9395 365.82,-88.4346"/>
<polygon fill="midnightblue" stroke="midnightblue" points="302.798,-68.2107 292.237,-69.0473 301.015,-74.9797 302.798,-68.2107"/>
</g>
<!-- Node4 -->
<g id="node4" class="node"><title>Node4</title>
<g id="a_node4"><a xlink:href="benchmark__geodesic__grid_8cpp.html#a280674e106a39ba83054a9eef90618ab" target="_top" xlink:title="BM_GeodesicGridSections">
<polygon fill="white" stroke="black" points="357,-50 357,-69 491,-69 491,-50 357,-50"/>
<text text-anchor="middle" x="424" y="-57" font-family="Helvetica,sans-Serif" font-size="10.00">BM_GeodesicGridSections</text>
</a>
</g>
</g>
<!-- Node2&#45;&gt;Node4 -->
<g id="edge3" class="edge"><title>Node2&#45;&gt;Node4</title>
<path fill="none" stroke="midnightblue" d="M331.315,-59.5C339.8,-59.5 348.399,-59.5 356.757,-59.5"/>
<polygon fill="midnightblue" stroke="midnightblue" points="331.045,-56.0001 321.045,-59.5 331.045,-63.0001 331.045,-56.0001"/>
</g>
<!-- Node5 -->
<g id="node5" class="node"><title>Node5</title>
<g id="a_node5"><a xlink:href="test__geodesic__grid_8cpp.html#a375d5d9de8bbd8679823f2f88ef1376a" target="_top" xlink:title="TEST_P">
<polygon fill="white" stroke="black" points="397,-12 397,-31 451,-31 451,-12 397,-12"/>
<text text-anchor="middle" x="424" y="-19" font-family="Helvetica,sans-Serif" font-size="10.00">TEST_P</text>
</a>
</g>
</g>
<!-- Node2&#45;&gt;Node5 -->
<g id="edge4" class="edge"><title>Node2&#45;&gt;Node5</title>
<path fill="none" stroke="midnightblue" d="M308.233,-47.6146C337.556,-40.9423 372.892,-32.9018 396.538,-27.5212"/>
<polygon fill="midnightblue" stroke="midnightblue" points="307.115,-44.2794 298.141,-49.911 308.668,-51.105 307.115,-44.2794"/>
</g>
</g>
</svg>
