<?xml version="1.0" encoding="UTF-8" standalone="no"?>
<!DOCTYPE svg PUBLIC "-//W3C//DTD SVG 1.1//EN"
 "http://www.w3.org/Graphics/SVG/1.1/DTD/svg11.dtd">
<!-- Generated by graphviz version 2.38.0 (20140413.2041)
 -->
<!-- Title: SoloGimbalEKF::state_elements Pages: 1 -->
<svg width="178pt" height="128pt"
 viewBox="0.00 0.00 177.50 128.00" xmlns="http://www.w3.org/2000/svg" xmlns:xlink="http://www.w3.org/1999/xlink">
<g id="graph0" class="graph" transform="scale(1 1) rotate(0) translate(4 124)">
<title>SoloGimbalEKF::state_elements</title>
<polygon fill="white" stroke="none" points="-4,4 -4,-124 173.5,-124 173.5,4 -4,4"/>
<!-- Node1 -->
<g id="node1" class="node"><title>Node1</title>
<polygon fill="#bfbfbf" stroke="black" points="22,-0.5 22,-30.5 136,-30.5 136,-0.5 22,-0.5"/>
<text text-anchor="start" x="30" y="-18.5" font-family="Helvetica,sans-Serif" font-size="10.00">SoloGimbalEKF::state</text>
<text text-anchor="middle" x="79" y="-7.5" font-family="Helvetica,sans-Serif" font-size="10.00">_elements</text>
</g>
<!-- Node2 -->
<g id="node2" class="node"><title>Node2</title>
<g id="a_node2"><a xlink:href="classQuaternion.html" target="_top" xlink:title="Quaternion">
<polygon fill="white" stroke="black" points="0,-100.5 0,-119.5 64,-119.5 64,-100.5 0,-100.5"/>
<text text-anchor="middle" x="32" y="-107.5" font-family="Helvetica,sans-Serif" font-size="10.00">Quaternion</text>
</a>
</g>
</g>
<!-- Node2&#45;&gt;Node1 -->
<g id="edge1" class="edge"><title>Node2&#45;&gt;Node1</title>
<path fill="none" stroke="#9a32cd" stroke-dasharray="5,2" d="M41.0015,-91.2843C49.9545,-73.664 63.5159,-46.9741 71.7849,-30.6999"/>
<polygon fill="#9a32cd" stroke="#9a32cd" points="37.747,-89.963 36.3374,-100.464 43.9876,-93.1339 37.747,-89.963"/>
<text text-anchor="middle" x="74" y="-63" font-family="Helvetica,sans-Serif" font-size="10.00"> quat</text>
</g>
<!-- Node3 -->
<g id="node3" class="node"><title>Node3</title>
<g id="a_node3"><a xlink:href="classVector3.html" target="_top" xlink:title="Vector3\&lt; float \&gt;">
<polygon fill="white" stroke="black" points="82.5,-100.5 82.5,-119.5 169.5,-119.5 169.5,-100.5 82.5,-100.5"/>
<text text-anchor="middle" x="126" y="-107.5" font-family="Helvetica,sans-Serif" font-size="10.00">Vector3&lt; float &gt;</text>
</a>
</g>
</g>
<!-- Node3&#45;&gt;Node1 -->
<g id="edge2" class="edge"><title>Node3&#45;&gt;Node1</title>
<path fill="none" stroke="#9a32cd" stroke-dasharray="5,2" d="M116.999,-91.2843C108.045,-73.664 94.4841,-46.9741 86.2151,-30.6999"/>
<polygon fill="#9a32cd" stroke="#9a32cd" points="114.012,-93.1339 121.663,-100.464 120.253,-89.963 114.012,-93.1339"/>
<text text-anchor="middle" x="139.5" y="-74" font-family="Helvetica,sans-Serif" font-size="10.00"> delAngBias</text>
<text text-anchor="middle" x="139.5" y="-63" font-family="Helvetica,sans-Serif" font-size="10.00">velocity</text>
<text text-anchor="middle" x="139.5" y="-52" font-family="Helvetica,sans-Serif" font-size="10.00">angErr</text>
</g>
</g>
</svg>
