<?xml version="1.0" encoding="UTF-8" standalone="no"?>
<!DOCTYPE svg PUBLIC "-//W3C//DTD SVG 1.1//EN"
 "http://www.w3.org/Graphics/SVG/1.1/DTD/svg11.dtd">
<!-- Generated by graphviz version 2.38.0 (20140413.2041)
 -->
<!-- Title: libraries/AP_HAL_Linux/Thread.h Pages: 1 -->
<svg width="2291pt" height="441pt"
 viewBox="0.00 0.00 2290.50 441.00" xmlns="http://www.w3.org/2000/svg" xmlns:xlink="http://www.w3.org/1999/xlink">
<g id="graph0" class="graph" transform="scale(1 1) rotate(0) translate(4 437)">
<title>libraries/AP_HAL_Linux/Thread.h</title>
<polygon fill="white" stroke="none" points="-4,4 -4,-437 2286.5,-437 2286.5,4 -4,4"/>
<!-- Node1 -->
<g id="node1" class="node"><title>Node1</title>
<polygon fill="#bfbfbf" stroke="black" points="1751,-402.5 1751,-432.5 1871,-432.5 1871,-402.5 1751,-402.5"/>
<text text-anchor="start" x="1759" y="-420.5" font-family="Helvetica,sans-Serif" font-size="10.00">libraries/AP_HAL_Linux</text>
<text text-anchor="middle" x="1811" y="-409.5" font-family="Helvetica,sans-Serif" font-size="10.00">/Thread.h</text>
</g>
<!-- Node2 -->
<g id="node2" class="node"><title>Node2</title>
<g id="a_node2"><a xlink:href="Perf_8h.html" target="_top" xlink:title="libraries/AP_HAL_Linux\l/Perf.h">
<polygon fill="white" stroke="black" points="985,-335.5 985,-365.5 1105,-365.5 1105,-335.5 985,-335.5"/>
<text text-anchor="start" x="993" y="-353.5" font-family="Helvetica,sans-Serif" font-size="10.00">libraries/AP_HAL_Linux</text>
<text text-anchor="middle" x="1045" y="-342.5" font-family="Helvetica,sans-Serif" font-size="10.00">/Perf.h</text>
</a>
</g>
</g>
<!-- Node1&#45;&gt;Node2 -->
<g id="edge1" class="edge"><title>Node1&#45;&gt;Node2</title>
<path fill="none" stroke="midnightblue" d="M1740.93,-410.554C1591.74,-397.895 1244.97,-368.468 1105.09,-356.599"/>
<polygon fill="midnightblue" stroke="midnightblue" points="1740.63,-414.041 1750.89,-411.4 1741.23,-407.066 1740.63,-414.041"/>
</g>
<!-- Node26 -->
<g id="node26" class="node"><title>Node26</title>
<g id="a_node26"><a xlink:href="AP__HAL__Linux_2I2CDevice_8cpp.html" target="_top" xlink:title="libraries/AP_HAL_Linux\l/I2CDevice.cpp">
<polygon fill="white" stroke="black" points="1531,-201.5 1531,-231.5 1651,-231.5 1651,-201.5 1531,-201.5"/>
<text text-anchor="start" x="1539" y="-219.5" font-family="Helvetica,sans-Serif" font-size="10.00">libraries/AP_HAL_Linux</text>
<text text-anchor="middle" x="1591" y="-208.5" font-family="Helvetica,sans-Serif" font-size="10.00">/I2CDevice.cpp</text>
</a>
</g>
</g>
<!-- Node1&#45;&gt;Node26 -->
<g id="edge57" class="edge"><title>Node1&#45;&gt;Node26</title>
<path fill="none" stroke="midnightblue" d="M1741.15,-399.805C1689.71,-383.454 1623.32,-352.902 1591,-299 1578.56,-278.249 1582.74,-248.856 1586.88,-231.625"/>
<polygon fill="midnightblue" stroke="midnightblue" points="1740.31,-403.208 1750.9,-402.792 1742.36,-396.516 1740.31,-403.208"/>
</g>
<!-- Node32 -->
<g id="node32" class="node"><title>Node32</title>
<g id="a_node32"><a xlink:href="AP__HAL__Linux_2SPIDevice_8cpp.html" target="_top" xlink:title="libraries/AP_HAL_Linux\l/SPIDevice.cpp">
<polygon fill="white" stroke="black" points="1845,-201.5 1845,-231.5 1965,-231.5 1965,-201.5 1845,-201.5"/>
<text text-anchor="start" x="1853" y="-219.5" font-family="Helvetica,sans-Serif" font-size="10.00">libraries/AP_HAL_Linux</text>
<text text-anchor="middle" x="1905" y="-208.5" font-family="Helvetica,sans-Serif" font-size="10.00">/SPIDevice.cpp</text>
</a>
</g>
</g>
<!-- Node1&#45;&gt;Node32 -->
<g id="edge58" class="edge"><title>Node1&#45;&gt;Node32</title>
<path fill="none" stroke="midnightblue" d="M1797.75,-393.276C1781.93,-362.143 1760.61,-306.36 1786,-268 1794.55,-255.087 1828.46,-241.421 1857.91,-231.566"/>
<polygon fill="midnightblue" stroke="midnightblue" points="1794.85,-395.272 1802.62,-402.465 1801.03,-391.991 1794.85,-395.272"/>
</g>
<!-- Node34 -->
<g id="node34" class="node"><title>Node34</title>
<g id="a_node34"><a xlink:href="Linux_2Scheduler_8h.html" target="_top" xlink:title="libraries/AP_HAL_Linux\l/Scheduler.h">
<polygon fill="white" stroke="black" points="1619,-268.5 1619,-298.5 1739,-298.5 1739,-268.5 1619,-268.5"/>
<text text-anchor="start" x="1627" y="-286.5" font-family="Helvetica,sans-Serif" font-size="10.00">libraries/AP_HAL_Linux</text>
<text text-anchor="middle" x="1679" y="-275.5" font-family="Helvetica,sans-Serif" font-size="10.00">/Scheduler.h</text>
</a>
</g>
</g>
<!-- Node1&#45;&gt;Node34 -->
<g id="edge45" class="edge"><title>Node1&#45;&gt;Node34</title>
<path fill="none" stroke="midnightblue" d="M1785.84,-395.715C1775.43,-386.828 1763.39,-376.173 1753,-366 1729.92,-343.4 1705.07,-315.121 1690.84,-298.51"/>
<polygon fill="midnightblue" stroke="midnightblue" points="1783.88,-398.641 1793.78,-402.42 1788.4,-393.294 1783.88,-398.641"/>
</g>
<!-- Node36 -->
<g id="node36" class="node"><title>Node36</title>
<g id="a_node36"><a xlink:href="Thread_8cpp.html" target="_top" xlink:title="libraries/AP_HAL_Linux\l/Thread.cpp">
<polygon fill="white" stroke="black" points="2021,-201.5 2021,-231.5 2141,-231.5 2141,-201.5 2021,-201.5"/>
<text text-anchor="start" x="2029" y="-219.5" font-family="Helvetica,sans-Serif" font-size="10.00">libraries/AP_HAL_Linux</text>
<text text-anchor="middle" x="2081" y="-208.5" font-family="Helvetica,sans-Serif" font-size="10.00">/Thread.cpp</text>
</a>
</g>
</g>
<!-- Node1&#45;&gt;Node36 -->
<g id="edge60" class="edge"><title>Node1&#45;&gt;Node36</title>
<path fill="none" stroke="midnightblue" d="M1881.24,-410.507C1950.79,-400.339 2053.42,-372.923 2100,-299 2113.24,-277.98 2100.32,-248.678 2090.27,-231.536"/>
<polygon fill="midnightblue" stroke="midnightblue" points="1880.66,-407.054 1871.23,-411.885 1881.62,-413.988 1880.66,-407.054"/>
</g>
<!-- Node37 -->
<g id="node37" class="node"><title>Node37</title>
<g id="a_node37"><a xlink:href="PollerThread_8h.html" target="_top" xlink:title="libraries/AP_HAL_Linux\l/PollerThread.h">
<polygon fill="white" stroke="black" points="1795,-335.5 1795,-365.5 1915,-365.5 1915,-335.5 1795,-335.5"/>
<text text-anchor="start" x="1803" y="-353.5" font-family="Helvetica,sans-Serif" font-size="10.00">libraries/AP_HAL_Linux</text>
<text text-anchor="middle" x="1855" y="-342.5" font-family="Helvetica,sans-Serif" font-size="10.00">/PollerThread.h</text>
</a>
</g>
</g>
<!-- Node1&#45;&gt;Node37 -->
<g id="edge52" class="edge"><title>Node1&#45;&gt;Node37</title>
<path fill="none" stroke="midnightblue" d="M1826.32,-393.867C1832.69,-384.459 1839.88,-373.833 1845.47,-365.577"/>
<polygon fill="midnightblue" stroke="midnightblue" points="1823.25,-392.153 1820.55,-402.396 1829.05,-396.077 1823.25,-392.153"/>
</g>
<!-- Node39 -->
<g id="node39" class="node"><title>Node39</title>
<g id="a_node39"><a xlink:href="test__thread_8cpp.html" target="_top" xlink:title="libraries/AP_HAL_Linux\l/tests/test_thread.cpp">
<polygon fill="white" stroke="black" points="1971,-268.5 1971,-298.5 2091,-298.5 2091,-268.5 1971,-268.5"/>
<text text-anchor="start" x="1979" y="-286.5" font-family="Helvetica,sans-Serif" font-size="10.00">libraries/AP_HAL_Linux</text>
<text text-anchor="middle" x="2031" y="-275.5" font-family="Helvetica,sans-Serif" font-size="10.00">/tests/test_thread.cpp</text>
</a>
</g>
</g>
<!-- Node1&#45;&gt;Node39 -->
<g id="edge59" class="edge"><title>Node1&#45;&gt;Node39</title>
<path fill="none" stroke="midnightblue" d="M1857.51,-398.572C1878.39,-389.804 1903.01,-378.458 1924,-366 1958.34,-345.621 1994.54,-316.103 2014.8,-298.748"/>
<polygon fill="midnightblue" stroke="midnightblue" points="1856.11,-395.363 1848.2,-402.413 1858.78,-401.833 1856.11,-395.363"/>
</g>
<!-- Node40 -->
<g id="node40" class="node"><title>Node40</title>
<g id="a_node40"><a xlink:href="AP__RangeFinder__Bebop_8h.html" target="_top" xlink:title="libraries/AP_RangeFinder\l/AP_RangeFinder_Bebop.h">
<polygon fill="white" stroke="black" points="2147.5,-335.5 2147.5,-365.5 2282.5,-365.5 2282.5,-335.5 2147.5,-335.5"/>
<text text-anchor="start" x="2155.5" y="-353.5" font-family="Helvetica,sans-Serif" font-size="10.00">libraries/AP_RangeFinder</text>
<text text-anchor="middle" x="2215" y="-342.5" font-family="Helvetica,sans-Serif" font-size="10.00">/AP_RangeFinder_Bebop.h</text>
</a>
</g>
</g>
<!-- Node1&#45;&gt;Node40 -->
<g id="edge61" class="edge"><title>Node1&#45;&gt;Node40</title>
<path fill="none" stroke="midnightblue" d="M1881.47,-405.852C1946.74,-395.892 2046.51,-380.428 2133,-366 2137.71,-365.215 2142.56,-364.391 2147.45,-363.552"/>
<polygon fill="midnightblue" stroke="midnightblue" points="1880.65,-402.436 1871.29,-407.402 1881.71,-409.356 1880.65,-402.436"/>
</g>
<!-- Node3 -->
<g id="node3" class="node"><title>Node3</title>
<g id="a_node3"><a xlink:href="Linux_2Util_8h.html" target="_top" xlink:title="libraries/AP_HAL_Linux\l/Util.h">
<polygon fill="white" stroke="black" points="985,-268.5 985,-298.5 1105,-298.5 1105,-268.5 985,-268.5"/>
<text text-anchor="start" x="993" y="-286.5" font-family="Helvetica,sans-Serif" font-size="10.00">libraries/AP_HAL_Linux</text>
<text text-anchor="middle" x="1045" y="-275.5" font-family="Helvetica,sans-Serif" font-size="10.00">/Util.h</text>
</a>
</g>
</g>
<!-- Node2&#45;&gt;Node3 -->
<g id="edge2" class="edge"><title>Node2&#45;&gt;Node3</title>
<path fill="none" stroke="midnightblue" d="M1038.45,-325.403C1038.01,-316.37 1038.3,-306.408 1039.33,-298.577"/>
<polygon fill="midnightblue" stroke="midnightblue" points="1034.97,-325.736 1039.32,-335.396 1041.94,-325.131 1034.97,-325.736"/>
</g>
<!-- Node29 -->
<g id="node29" class="node"><title>Node29</title>
<g id="a_node29"><a xlink:href="Perf_8cpp.html" target="_top" xlink:title="libraries/AP_HAL_Linux\l/Perf.cpp">
<polygon fill="white" stroke="black" points="152,-201.5 152,-231.5 272,-231.5 272,-201.5 152,-201.5"/>
<text text-anchor="start" x="160" y="-219.5" font-family="Helvetica,sans-Serif" font-size="10.00">libraries/AP_HAL_Linux</text>
<text text-anchor="middle" x="212" y="-208.5" font-family="Helvetica,sans-Serif" font-size="10.00">/Perf.cpp</text>
</a>
</g>
</g>
<!-- Node2&#45;&gt;Node29 -->
<g id="edge44" class="edge"><title>Node2&#45;&gt;Node29</title>
<path fill="none" stroke="midnightblue" d="M974.695,-339.995C839.804,-321.468 535.467,-278.27 281,-232 278.11,-231.474 275.155,-230.92 272.173,-230.347"/>
<polygon fill="midnightblue" stroke="midnightblue" points="974.506,-343.501 984.889,-341.392 975.457,-336.566 974.506,-343.501"/>
</g>
<!-- Node3&#45;&gt;Node2 -->
<g id="edge9" class="edge"><title>Node3&#45;&gt;Node2</title>
<path fill="none" stroke="midnightblue" d="M1051.54,-308.565C1051.99,-317.596 1051.71,-327.56 1050.68,-335.396"/>
<polygon fill="midnightblue" stroke="midnightblue" points="1055.03,-308.236 1050.67,-298.577 1048.05,-308.842 1055.03,-308.236"/>
</g>
<!-- Node4 -->
<g id="node4" class="node"><title>Node4</title>
<g id="a_node4"><a xlink:href="Util__RPI_8h.html" target="_top" xlink:title="libraries/AP_HAL_Linux\l/Util_RPI.h">
<polygon fill="white" stroke="black" points="422,-201.5 422,-231.5 542,-231.5 542,-201.5 422,-201.5"/>
<text text-anchor="start" x="430" y="-219.5" font-family="Helvetica,sans-Serif" font-size="10.00">libraries/AP_HAL_Linux</text>
<text text-anchor="middle" x="482" y="-208.5" font-family="Helvetica,sans-Serif" font-size="10.00">/Util_RPI.h</text>
</a>
</g>
</g>
<!-- Node3&#45;&gt;Node4 -->
<g id="edge3" class="edge"><title>Node3&#45;&gt;Node4</title>
<path fill="none" stroke="midnightblue" d="M974.854,-277.265C879.668,-269.704 704.432,-254.16 556,-232 551.468,-231.323 546.792,-230.561 542.097,-229.748"/>
<polygon fill="midnightblue" stroke="midnightblue" points="974.691,-280.763 984.935,-278.06 975.241,-273.785 974.691,-280.763"/>
</g>
<!-- Node6 -->
<g id="node6" class="node"><title>Node6</title>
<g id="a_node6"><a xlink:href="HAL__Linux__Class_8cpp.html" target="_top" xlink:title="libraries/AP_HAL_Linux\l/HAL_Linux_Class.cpp">
<polygon fill="white" stroke="black" points="612,-0.5 612,-30.5 732,-30.5 732,-0.5 612,-0.5"/>
<text text-anchor="start" x="620" y="-18.5" font-family="Helvetica,sans-Serif" font-size="10.00">libraries/AP_HAL_Linux</text>
<text text-anchor="middle" x="672" y="-7.5" font-family="Helvetica,sans-Serif" font-size="10.00">/HAL_Linux_Class.cpp</text>
</a>
</g>
</g>
<!-- Node3&#45;&gt;Node6 -->
<g id="edge31" class="edge"><title>Node3&#45;&gt;Node6</title>
<path fill="none" stroke="midnightblue" d="M974.822,-271.83C868.469,-254.221 673.87,-215.9 627,-165 597.237,-132.679 595.796,-106.988 614,-67 620.915,-51.8106 634.905,-39.4145 647.413,-30.7053"/>
<polygon fill="midnightblue" stroke="midnightblue" points="974.396,-275.307 984.83,-273.469 975.528,-268.399 974.396,-275.307"/>
</g>
<!-- Node9 -->
<g id="node9" class="node"><title>Node9</title>
<g id="a_node9"><a xlink:href="Util__RPI_8cpp.html" target="_top" xlink:title="libraries/AP_HAL_Linux\l/Util_RPI.cpp">
<polygon fill="white" stroke="black" points="460,-134.5 460,-164.5 580,-164.5 580,-134.5 460,-134.5"/>
<text text-anchor="start" x="468" y="-152.5" font-family="Helvetica,sans-Serif" font-size="10.00">libraries/AP_HAL_Linux</text>
<text text-anchor="middle" x="520" y="-141.5" font-family="Helvetica,sans-Serif" font-size="10.00">/Util_RPI.cpp</text>
</a>
</g>
</g>
<!-- Node3&#45;&gt;Node9 -->
<g id="edge42" class="edge"><title>Node3&#45;&gt;Node9</title>
<path fill="none" stroke="midnightblue" d="M974.338,-280.627C864.51,-276.716 658.733,-265.09 594,-232 563.88,-216.603 540.035,-183.537 528.187,-164.595"/>
<polygon fill="midnightblue" stroke="midnightblue" points="974.544,-284.136 984.658,-280.982 974.785,-277.14 974.544,-284.136"/>
</g>
<!-- Node10 -->
<g id="node10" class="node"><title>Node10</title>
<g id="a_node10"><a xlink:href="PWM__Sysfs_8h.html" target="_top" xlink:title="libraries/AP_HAL_Linux\l/PWM_Sysfs.h">
<polygon fill="white" stroke="black" points="941,-201.5 941,-231.5 1061,-231.5 1061,-201.5 941,-201.5"/>
<text text-anchor="start" x="949" y="-219.5" font-family="Helvetica,sans-Serif" font-size="10.00">libraries/AP_HAL_Linux</text>
<text text-anchor="middle" x="1001" y="-208.5" font-family="Helvetica,sans-Serif" font-size="10.00">/PWM_Sysfs.h</text>
</a>
</g>
</g>
<!-- Node3&#45;&gt;Node10 -->
<g id="edge10" class="edge"><title>Node3&#45;&gt;Node10</title>
<path fill="none" stroke="midnightblue" d="M1029.68,-259.867C1023.31,-250.459 1016.12,-239.833 1010.53,-231.577"/>
<polygon fill="midnightblue" stroke="midnightblue" points="1026.95,-262.077 1035.45,-268.396 1032.75,-258.153 1026.95,-262.077"/>
</g>
<!-- Node21 -->
<g id="node21" class="node"><title>Node21</title>
<g id="a_node21"><a xlink:href="Linux_2Util_8cpp.html" target="_top" xlink:title="libraries/AP_HAL_Linux\l/Util.cpp">
<polygon fill="white" stroke="black" points="1233,-67.5 1233,-97.5 1353,-97.5 1353,-67.5 1233,-67.5"/>
<text text-anchor="start" x="1241" y="-85.5" font-family="Helvetica,sans-Serif" font-size="10.00">libraries/AP_HAL_Linux</text>
<text text-anchor="middle" x="1293" y="-74.5" font-family="Helvetica,sans-Serif" font-size="10.00">/Util.cpp</text>
</a>
</g>
</g>
<!-- Node3&#45;&gt;Node21 -->
<g id="edge41" class="edge"><title>Node3&#45;&gt;Node21</title>
<path fill="none" stroke="midnightblue" d="M1057.58,-259.419C1068.64,-241.149 1086.33,-216.249 1108,-201 1150.41,-171.154 1175.44,-193.144 1219,-165 1246.93,-146.954 1271.08,-115.788 1283.68,-97.6743"/>
<polygon fill="midnightblue" stroke="midnightblue" points="1054.43,-257.881 1052.42,-268.283 1060.48,-261.404 1054.43,-257.881"/>
</g>
<!-- Node3&#45;&gt;Node26 -->
<g id="edge32" class="edge"><title>Node3&#45;&gt;Node26</title>
<path fill="none" stroke="midnightblue" d="M1115.29,-277.308C1208.58,-269.902 1378.29,-254.647 1522,-232 1524.9,-231.543 1527.87,-231.044 1530.86,-230.515"/>
<polygon fill="midnightblue" stroke="midnightblue" points="1114.82,-273.834 1105.12,-278.107 1115.36,-280.812 1114.82,-273.834"/>
</g>
<!-- Node27 -->
<g id="node27" class="node"><title>Node27</title>
<g id="a_node27"><a xlink:href="Led__Sysfs_8h.html" target="_top" xlink:title="libraries/AP_HAL_Linux\l/Led_Sysfs.h">
<polygon fill="white" stroke="black" points="1255,-201.5 1255,-231.5 1375,-231.5 1375,-201.5 1255,-201.5"/>
<text text-anchor="start" x="1263" y="-219.5" font-family="Helvetica,sans-Serif" font-size="10.00">libraries/AP_HAL_Linux</text>
<text text-anchor="middle" x="1315" y="-208.5" font-family="Helvetica,sans-Serif" font-size="10.00">/Led_Sysfs.h</text>
</a>
</g>
</g>
<!-- Node3&#45;&gt;Node27 -->
<g id="edge33" class="edge"><title>Node3&#45;&gt;Node27</title>
<path fill="none" stroke="midnightblue" d="M1113.05,-266.119C1157.23,-255.483 1214.22,-241.763 1256.39,-231.611"/>
<polygon fill="midnightblue" stroke="midnightblue" points="1112.16,-262.733 1103.25,-268.476 1113.8,-269.538 1112.16,-262.733"/>
</g>
<!-- Node3&#45;&gt;Node29 -->
<g id="edge37" class="edge"><title>Node3&#45;&gt;Node29</title>
<path fill="none" stroke="midnightblue" d="M974.574,-281.162C839.477,-277.863 534.806,-266.879 281,-232 278.09,-231.6 275.118,-231.148 272.123,-230.656"/>
<polygon fill="midnightblue" stroke="midnightblue" points="974.703,-284.666 984.783,-281.405 974.869,-277.668 974.703,-284.666"/>
</g>
<!-- Node30 -->
<g id="node30" class="node"><title>Node30</title>
<g id="a_node30"><a xlink:href="RCOutput__Bebop_8cpp.html" target="_top" xlink:title="libraries/AP_HAL_Linux\l/RCOutput_Bebop.cpp">
<polygon fill="white" stroke="black" points="1117,-201.5 1117,-231.5 1237,-231.5 1237,-201.5 1117,-201.5"/>
<text text-anchor="start" x="1125" y="-219.5" font-family="Helvetica,sans-Serif" font-size="10.00">libraries/AP_HAL_Linux</text>
<text text-anchor="middle" x="1177" y="-208.5" font-family="Helvetica,sans-Serif" font-size="10.00">/RCOutput_Bebop.cpp</text>
</a>
</g>
</g>
<!-- Node3&#45;&gt;Node30 -->
<g id="edge38" class="edge"><title>Node3&#45;&gt;Node30</title>
<path fill="none" stroke="midnightblue" d="M1082.87,-263.853C1103.74,-253.576 1129.23,-241.025 1148.41,-231.577"/>
<polygon fill="midnightblue" stroke="midnightblue" points="1081.07,-260.838 1073.64,-268.396 1084.16,-267.118 1081.07,-260.838"/>
</g>
<!-- Node31 -->
<g id="node31" class="node"><title>Node31</title>
<g id="a_node31"><a xlink:href="AP__HAL__Linux_2Scheduler_8cpp.html" target="_top" xlink:title="libraries/AP_HAL_Linux\l/Scheduler.cpp">
<polygon fill="white" stroke="black" points="1393,-201.5 1393,-231.5 1513,-231.5 1513,-201.5 1393,-201.5"/>
<text text-anchor="start" x="1401" y="-219.5" font-family="Helvetica,sans-Serif" font-size="10.00">libraries/AP_HAL_Linux</text>
<text text-anchor="middle" x="1453" y="-208.5" font-family="Helvetica,sans-Serif" font-size="10.00">/Scheduler.cpp</text>
</a>
</g>
</g>
<!-- Node3&#45;&gt;Node31 -->
<g id="edge39" class="edge"><title>Node3&#45;&gt;Node31</title>
<path fill="none" stroke="midnightblue" d="M1115.46,-273.244C1184.16,-263.926 1291.52,-248.59 1384,-232 1386.89,-231.481 1389.85,-230.932 1392.83,-230.363"/>
<polygon fill="midnightblue" stroke="midnightblue" points="1114.63,-269.824 1105.19,-274.631 1115.57,-276.761 1114.63,-269.824"/>
</g>
<!-- Node3&#45;&gt;Node32 -->
<g id="edge40" class="edge"><title>Node3&#45;&gt;Node32</title>
<path fill="none" stroke="midnightblue" d="M1115.13,-281.392C1253.56,-278.464 1571.46,-268.051 1836,-232 1838.91,-231.603 1841.88,-231.154 1844.88,-230.664"/>
<polygon fill="midnightblue" stroke="midnightblue" points="1115,-277.894 1105.08,-281.599 1115.15,-284.893 1115,-277.894"/>
</g>
<!-- Node33 -->
<g id="node33" class="node"><title>Node33</title>
<g id="a_node33"><a xlink:href="ToneAlarm__Linux_8cpp.html" target="_top" xlink:title="libraries/AP_Notify\l/ToneAlarm_Linux.cpp">
<polygon fill="white" stroke="black" points="290,-201.5 290,-231.5 404,-231.5 404,-201.5 290,-201.5"/>
<text text-anchor="start" x="298" y="-219.5" font-family="Helvetica,sans-Serif" font-size="10.00">libraries/AP_Notify</text>
<text text-anchor="middle" x="347" y="-208.5" font-family="Helvetica,sans-Serif" font-size="10.00">/ToneAlarm_Linux.cpp</text>
</a>
</g>
</g>
<!-- Node3&#45;&gt;Node33 -->
<g id="edge43" class="edge"><title>Node3&#45;&gt;Node33</title>
<path fill="none" stroke="midnightblue" d="M974.293,-280.001C857.081,-275.153 615.376,-262.172 413,-232 410.099,-231.568 407.135,-231.081 404.149,-230.556"/>
<polygon fill="midnightblue" stroke="midnightblue" points="974.428,-283.509 984.562,-280.418 974.712,-276.515 974.428,-283.509"/>
</g>
<!-- Node5 -->
<g id="node5" class="node"><title>Node5</title>
<g id="a_node5"><a xlink:href="GPIO__RPI_8cpp.html" target="_top" xlink:title="libraries/AP_HAL_Linux\l/GPIO_RPI.cpp">
<polygon fill="white" stroke="black" points="284,-134.5 284,-164.5 404,-164.5 404,-134.5 284,-134.5"/>
<text text-anchor="start" x="292" y="-152.5" font-family="Helvetica,sans-Serif" font-size="10.00">libraries/AP_HAL_Linux</text>
<text text-anchor="middle" x="344" y="-141.5" font-family="Helvetica,sans-Serif" font-size="10.00">/GPIO_RPI.cpp</text>
</a>
</g>
</g>
<!-- Node4&#45;&gt;Node5 -->
<g id="edge4" class="edge"><title>Node4&#45;&gt;Node5</title>
<path fill="none" stroke="midnightblue" d="M443,-197.131C421.073,-186.802 394.126,-174.11 373.886,-164.577"/>
<polygon fill="midnightblue" stroke="midnightblue" points="441.518,-200.301 452.056,-201.396 444.501,-193.968 441.518,-200.301"/>
</g>
<!-- Node4&#45;&gt;Node6 -->
<g id="edge5" class="edge"><title>Node4&#45;&gt;Node6</title>
<path fill="none" stroke="midnightblue" d="M463.476,-193.364C451.814,-176.587 440.742,-153.22 451,-134 482.917,-74.1962 558.001,-43.6461 611.79,-28.9041"/>
<polygon fill="midnightblue" stroke="midnightblue" points="460.74,-195.549 469.519,-201.48 466.354,-191.369 460.74,-195.549"/>
</g>
<!-- Node7 -->
<g id="node7" class="node"><title>Node7</title>
<g id="a_node7"><a xlink:href="RCInput__RPI_8cpp.html" target="_top" xlink:title="libraries/AP_HAL_Linux\l/RCInput_RPI.cpp">
<polygon fill="white" stroke="black" points="0,-134.5 0,-164.5 120,-164.5 120,-134.5 0,-134.5"/>
<text text-anchor="start" x="8" y="-152.5" font-family="Helvetica,sans-Serif" font-size="10.00">libraries/AP_HAL_Linux</text>
<text text-anchor="middle" x="60" y="-141.5" font-family="Helvetica,sans-Serif" font-size="10.00">/RCInput_RPI.cpp</text>
</a>
</g>
</g>
<!-- Node4&#45;&gt;Node7 -->
<g id="edge6" class="edge"><title>Node4&#45;&gt;Node7</title>
<path fill="none" stroke="midnightblue" d="M411.805,-200.888C285.791,-180.197 251.285,-185.564 129,-165 126.103,-164.513 123.143,-163.99 120.156,-163.441"/>
<polygon fill="midnightblue" stroke="midnightblue" points="411.405,-204.369 421.844,-202.559 412.554,-197.464 411.405,-204.369"/>
</g>
<!-- Node8 -->
<g id="node8" class="node"><title>Node8</title>
<g id="a_node8"><a xlink:href="ToneAlarm__Raspilot_8cpp.html" target="_top" xlink:title="libraries/AP_HAL_Linux\l/ToneAlarm_Raspilot.cpp">
<polygon fill="white" stroke="black" points="138.5,-134.5 138.5,-164.5 265.5,-164.5 265.5,-134.5 138.5,-134.5"/>
<text text-anchor="start" x="146.5" y="-152.5" font-family="Helvetica,sans-Serif" font-size="10.00">libraries/AP_HAL_Linux</text>
<text text-anchor="middle" x="202" y="-141.5" font-family="Helvetica,sans-Serif" font-size="10.00">/ToneAlarm_Raspilot.cpp</text>
</a>
</g>
</g>
<!-- Node4&#45;&gt;Node8 -->
<g id="edge7" class="edge"><title>Node4&#45;&gt;Node8</title>
<path fill="none" stroke="midnightblue" d="M412.035,-199.258C366.018,-188.576 306.405,-174.737 262.45,-164.533"/>
<polygon fill="midnightblue" stroke="midnightblue" points="411.401,-202.704 421.933,-201.556 412.983,-195.885 411.401,-202.704"/>
</g>
<!-- Node4&#45;&gt;Node9 -->
<g id="edge8" class="edge"><title>Node4&#45;&gt;Node9</title>
<path fill="none" stroke="midnightblue" d="M495.402,-192.576C500.859,-183.241 506.993,-172.748 511.771,-164.577"/>
<polygon fill="midnightblue" stroke="midnightblue" points="492.271,-190.997 490.245,-201.396 498.314,-194.529 492.271,-190.997"/>
</g>
<!-- Node11 -->
<g id="node11" class="node"><title>Node11</title>
<g id="a_node11"><a xlink:href="OpticalFlow__Onboard_8h.html" target="_top" xlink:title="libraries/AP_HAL_Linux\l/OpticalFlow_Onboard.h">
<polygon fill="white" stroke="black" points="636,-134.5 636,-164.5 758,-164.5 758,-134.5 636,-134.5"/>
<text text-anchor="start" x="644" y="-152.5" font-family="Helvetica,sans-Serif" font-size="10.00">libraries/AP_HAL_Linux</text>
<text text-anchor="middle" x="697" y="-141.5" font-family="Helvetica,sans-Serif" font-size="10.00">/OpticalFlow_Onboard.h</text>
</a>
</g>
</g>
<!-- Node10&#45;&gt;Node11 -->
<g id="edge11" class="edge"><title>Node10&#45;&gt;Node11</title>
<path fill="none" stroke="midnightblue" d="M931.086,-200.551C878.883,-189.39 808.227,-174.282 758.237,-163.594"/>
<polygon fill="midnightblue" stroke="midnightblue" points="930.429,-203.99 940.939,-202.658 931.892,-197.144 930.429,-203.99"/>
</g>
<!-- Node12 -->
<g id="node12" class="node"><title>Node12</title>
<g id="a_node12"><a xlink:href="OpticalFlow__Onboard_8cpp.html" target="_top" xlink:title="libraries/AP_HAL_Linux\l/OpticalFlow_Onboard.cpp">
<polygon fill="white" stroke="black" points="631,-67.5 631,-97.5 763,-97.5 763,-67.5 631,-67.5"/>
<text text-anchor="start" x="639" y="-85.5" font-family="Helvetica,sans-Serif" font-size="10.00">libraries/AP_HAL_Linux</text>
<text text-anchor="middle" x="697" y="-74.5" font-family="Helvetica,sans-Serif" font-size="10.00">/OpticalFlow_Onboard.cpp</text>
</a>
</g>
</g>
<!-- Node10&#45;&gt;Node12 -->
<g id="edge25" class="edge"><title>Node10&#45;&gt;Node12</title>
<path fill="none" stroke="midnightblue" d="M930.626,-204.99C892.076,-197.389 844.291,-184.871 805,-165 785.55,-155.163 784.29,-147.271 767,-134 750.477,-121.318 731.259,-107.519 717.145,-97.556"/>
<polygon fill="midnightblue" stroke="midnightblue" points="930.249,-208.481 940.727,-206.912 931.558,-201.604 930.249,-208.481"/>
</g>
<!-- Node13 -->
<g id="node13" class="node"><title>Node13</title>
<g id="a_node13"><a xlink:href="RCOutput__Sysfs_8h.html" target="_top" xlink:title="libraries/AP_HAL_Linux\l/RCOutput_Sysfs.h">
<polygon fill="white" stroke="black" points="814,-134.5 814,-164.5 934,-164.5 934,-134.5 814,-134.5"/>
<text text-anchor="start" x="822" y="-152.5" font-family="Helvetica,sans-Serif" font-size="10.00">libraries/AP_HAL_Linux</text>
<text text-anchor="middle" x="874" y="-141.5" font-family="Helvetica,sans-Serif" font-size="10.00">/RCOutput_Sysfs.h</text>
</a>
</g>
</g>
<!-- Node10&#45;&gt;Node13 -->
<g id="edge14" class="edge"><title>Node10&#45;&gt;Node13</title>
<path fill="none" stroke="midnightblue" d="M964.296,-196.714C944.266,-186.463 919.881,-173.983 901.503,-164.577"/>
<polygon fill="midnightblue" stroke="midnightblue" points="962.946,-199.956 973.443,-201.396 966.136,-193.724 962.946,-199.956"/>
</g>
<!-- Node19 -->
<g id="node19" class="node"><title>Node19</title>
<g id="a_node19"><a xlink:href="Heat__Pwm_8h.html" target="_top" xlink:title="libraries/AP_HAL_Linux\l/Heat_Pwm.h">
<polygon fill="white" stroke="black" points="952,-134.5 952,-164.5 1072,-164.5 1072,-134.5 952,-134.5"/>
<text text-anchor="start" x="960" y="-152.5" font-family="Helvetica,sans-Serif" font-size="10.00">libraries/AP_HAL_Linux</text>
<text text-anchor="middle" x="1012" y="-141.5" font-family="Helvetica,sans-Serif" font-size="10.00">/Heat_Pwm.h</text>
</a>
</g>
</g>
<!-- Node10&#45;&gt;Node19 -->
<g id="edge22" class="edge"><title>Node10&#45;&gt;Node19</title>
<path fill="none" stroke="midnightblue" d="M1005.08,-191.403C1006.61,-182.37 1008.29,-172.408 1009.62,-164.577"/>
<polygon fill="midnightblue" stroke="midnightblue" points="1001.6,-190.952 1003.39,-201.396 1008.51,-192.12 1001.6,-190.952"/>
</g>
<!-- Node22 -->
<g id="node22" class="node"><title>Node22</title>
<g id="a_node22"><a xlink:href="PWM__Sysfs_8cpp.html" target="_top" xlink:title="libraries/AP_HAL_Linux\l/PWM_Sysfs.cpp">
<polygon fill="white" stroke="black" points="1090,-134.5 1090,-164.5 1210,-164.5 1210,-134.5 1090,-134.5"/>
<text text-anchor="start" x="1098" y="-152.5" font-family="Helvetica,sans-Serif" font-size="10.00">libraries/AP_HAL_Linux</text>
<text text-anchor="middle" x="1150" y="-141.5" font-family="Helvetica,sans-Serif" font-size="10.00">/PWM_Sysfs.cpp</text>
</a>
</g>
</g>
<!-- Node10&#45;&gt;Node22 -->
<g id="edge26" class="edge"><title>Node10&#45;&gt;Node22</title>
<path fill="none" stroke="midnightblue" d="M1042.79,-197.269C1066.52,-186.916 1095.78,-174.153 1117.73,-164.577"/>
<polygon fill="midnightblue" stroke="midnightblue" points="1041.1,-194.189 1033.33,-201.396 1043.9,-200.605 1041.1,-194.189"/>
</g>
<!-- Node23 -->
<g id="node23" class="node"><title>Node23</title>
<g id="a_node23"><a xlink:href="DiscoLED_8h.html" target="_top" xlink:title="libraries/AP_Notify\l/DiscoLED.h">
<polygon fill="white" stroke="black" points="1266,-134.5 1266,-164.5 1364,-164.5 1364,-134.5 1266,-134.5"/>
<text text-anchor="start" x="1274" y="-152.5" font-family="Helvetica,sans-Serif" font-size="10.00">libraries/AP_Notify</text>
<text text-anchor="middle" x="1315" y="-141.5" font-family="Helvetica,sans-Serif" font-size="10.00">/DiscoLED.h</text>
</a>
</g>
</g>
<!-- Node10&#45;&gt;Node23 -->
<g id="edge27" class="edge"><title>Node10&#45;&gt;Node23</title>
<path fill="none" stroke="midnightblue" d="M1071.19,-200.97C1130.38,-188.718 1213.57,-171.497 1265.86,-160.672"/>
<polygon fill="midnightblue" stroke="midnightblue" points="1070.25,-197.59 1061.17,-203.044 1071.67,-204.444 1070.25,-197.59"/>
</g>
<!-- Node25 -->
<g id="node25" class="node"><title>Node25</title>
<g id="a_node25"><a xlink:href="DiscoLED_8cpp.html" target="_top" xlink:title="libraries/AP_Notify\l/DiscoLED.cpp">
<polygon fill="white" stroke="black" points="1487,-67.5 1487,-97.5 1585,-97.5 1585,-67.5 1487,-67.5"/>
<text text-anchor="start" x="1495" y="-85.5" font-family="Helvetica,sans-Serif" font-size="10.00">libraries/AP_Notify</text>
<text text-anchor="middle" x="1536" y="-74.5" font-family="Helvetica,sans-Serif" font-size="10.00">/DiscoLED.cpp</text>
</a>
</g>
</g>
<!-- Node10&#45;&gt;Node25 -->
<g id="edge30" class="edge"><title>Node10&#45;&gt;Node25</title>
<path fill="none" stroke="midnightblue" d="M1071.29,-205.973C1179.05,-191.365 1372.78,-165.094 1373,-165 1392.99,-156.32 1392.24,-145.096 1411,-134 1436.58,-118.867 1467.55,-106.321 1492.26,-97.5184"/>
<polygon fill="midnightblue" stroke="midnightblue" points="1070.58,-202.537 1061.14,-207.349 1071.52,-209.474 1070.58,-202.537"/>
</g>
<!-- Node11&#45;&gt;Node6 -->
<g id="edge12" class="edge"><title>Node11&#45;&gt;Node6</title>
<path fill="none" stroke="midnightblue" d="M653.297,-129.111C640.924,-121.327 628.944,-111.046 622,-98 615.527,-85.8376 616.759,-79.7421 622,-67 628.054,-52.2808 640.703,-39.5727 651.763,-30.5865"/>
<polygon fill="midnightblue" stroke="midnightblue" points="651.904,-132.35 662.31,-134.342 655.418,-126.295 651.904,-132.35"/>
</g>
<!-- Node11&#45;&gt;Node12 -->
<g id="edge13" class="edge"><title>Node11&#45;&gt;Node12</title>
<path fill="none" stroke="midnightblue" d="M697,-124.108C697,-115.154 697,-105.323 697,-97.5765"/>
<polygon fill="midnightblue" stroke="midnightblue" points="693.5,-124.396 697,-134.396 700.5,-124.396 693.5,-124.396"/>
</g>
<!-- Node13&#45;&gt;Node6 -->
<g id="edge20" class="edge"><title>Node13&#45;&gt;Node6</title>
<path fill="none" stroke="midnightblue" d="M847.971,-128.117C836.321,-118.954 822.437,-107.978 810,-98 793,-84.36 790.279,-78.8711 772,-67 750.306,-52.9113 724.162,-39.8311 704.047,-30.5141"/>
<polygon fill="midnightblue" stroke="midnightblue" points="845.981,-131.004 856.007,-134.429 850.305,-125.499 845.981,-131.004"/>
</g>
<!-- Node14 -->
<g id="node14" class="node"><title>Node14</title>
<g id="a_node14"><a xlink:href="RCOutput__Disco_8h.html" target="_top" xlink:title="libraries/AP_HAL_Linux\l/RCOutput_Disco.h">
<polygon fill="white" stroke="black" points="957,-67.5 957,-97.5 1077,-97.5 1077,-67.5 957,-67.5"/>
<text text-anchor="start" x="965" y="-85.5" font-family="Helvetica,sans-Serif" font-size="10.00">libraries/AP_HAL_Linux</text>
<text text-anchor="middle" x="1017" y="-74.5" font-family="Helvetica,sans-Serif" font-size="10.00">/RCOutput_Disco.h</text>
</a>
</g>
</g>
<!-- Node13&#45;&gt;Node14 -->
<g id="edge15" class="edge"><title>Node13&#45;&gt;Node14</title>
<path fill="none" stroke="midnightblue" d="M914.413,-130.131C937.135,-119.802 965.057,-107.11 986.032,-97.5765"/>
<polygon fill="midnightblue" stroke="midnightblue" points="912.684,-127.072 905.029,-134.396 915.581,-133.444 912.684,-127.072"/>
</g>
<!-- Node18 -->
<g id="node18" class="node"><title>Node18</title>
<g id="a_node18"><a xlink:href="RCOutput__Sysfs_8cpp.html" target="_top" xlink:title="libraries/AP_HAL_Linux\l/RCOutput_Sysfs.cpp">
<polygon fill="white" stroke="black" points="819,-67.5 819,-97.5 939,-97.5 939,-67.5 819,-67.5"/>
<text text-anchor="start" x="827" y="-85.5" font-family="Helvetica,sans-Serif" font-size="10.00">libraries/AP_HAL_Linux</text>
<text text-anchor="middle" x="879" y="-74.5" font-family="Helvetica,sans-Serif" font-size="10.00">/RCOutput_Sysfs.cpp</text>
</a>
</g>
</g>
<!-- Node13&#45;&gt;Node18 -->
<g id="edge21" class="edge"><title>Node13&#45;&gt;Node18</title>
<path fill="none" stroke="midnightblue" d="M875.854,-124.403C876.548,-115.37 877.315,-105.408 877.917,-97.5765"/>
<polygon fill="midnightblue" stroke="midnightblue" points="872.362,-124.157 875.085,-134.396 879.342,-124.694 872.362,-124.157"/>
</g>
<!-- Node14&#45;&gt;Node6 -->
<g id="edge17" class="edge"><title>Node14&#45;&gt;Node6</title>
<path fill="none" stroke="midnightblue" d="M946.582,-66.7487C866.813,-51.1572 785.79,-36.542 732.117,-27.0324"/>
<polygon fill="midnightblue" stroke="midnightblue" points="946.321,-70.2642 956.808,-68.7542 947.669,-63.395 946.321,-70.2642"/>
</g>
<!-- Node15 -->
<g id="node15" class="node"><title>Node15</title>
<g id="a_node15"><a xlink:href="AP__BattMonitor__Bebop_8cpp.html" target="_top" xlink:title="libraries/AP_BattMonitor\l/AP_BattMonitor_Bebop.cpp">
<polygon fill="white" stroke="black" points="1095,-0.5 1095,-30.5 1235,-30.5 1235,-0.5 1095,-0.5"/>
<text text-anchor="start" x="1103" y="-18.5" font-family="Helvetica,sans-Serif" font-size="10.00">libraries/AP_BattMonitor</text>
<text text-anchor="middle" x="1165" y="-7.5" font-family="Helvetica,sans-Serif" font-size="10.00">/AP_BattMonitor_Bebop.cpp</text>
</a>
</g>
</g>
<!-- Node14&#45;&gt;Node15 -->
<g id="edge16" class="edge"><title>Node14&#45;&gt;Node15</title>
<path fill="none" stroke="midnightblue" d="M1058.51,-63.2687C1082.08,-52.9159 1111.14,-40.1528 1132.95,-30.5765"/>
<polygon fill="midnightblue" stroke="midnightblue" points="1056.86,-60.1702 1049.11,-67.396 1059.68,-66.5793 1056.86,-60.1702"/>
</g>
<!-- Node16 -->
<g id="node16" class="node"><title>Node16</title>
<g id="a_node16"><a xlink:href="RCOutput__Disco_8cpp.html" target="_top" xlink:title="libraries/AP_HAL_Linux\l/RCOutput_Disco.cpp">
<polygon fill="white" stroke="black" points="819,-0.5 819,-30.5 939,-30.5 939,-0.5 819,-0.5"/>
<text text-anchor="start" x="827" y="-18.5" font-family="Helvetica,sans-Serif" font-size="10.00">libraries/AP_HAL_Linux</text>
<text text-anchor="middle" x="879" y="-7.5" font-family="Helvetica,sans-Serif" font-size="10.00">/RCOutput_Disco.cpp</text>
</a>
</g>
</g>
<!-- Node14&#45;&gt;Node16 -->
<g id="edge18" class="edge"><title>Node14&#45;&gt;Node16</title>
<path fill="none" stroke="midnightblue" d="M978,-63.1305C956.073,-52.8025 929.126,-40.1103 908.886,-30.5765"/>
<polygon fill="midnightblue" stroke="midnightblue" points="976.518,-66.3011 987.056,-67.396 979.501,-59.9684 976.518,-66.3011"/>
</g>
<!-- Node17 -->
<g id="node17" class="node"><title>Node17</title>
<g id="a_node17"><a xlink:href="ToneAlarm__Disco_8cpp.html" target="_top" xlink:title="libraries/AP_HAL_Linux\l/ToneAlarm_Disco.cpp">
<polygon fill="white" stroke="black" points="957,-0.5 957,-30.5 1077,-30.5 1077,-0.5 957,-0.5"/>
<text text-anchor="start" x="965" y="-18.5" font-family="Helvetica,sans-Serif" font-size="10.00">libraries/AP_HAL_Linux</text>
<text text-anchor="middle" x="1017" y="-7.5" font-family="Helvetica,sans-Serif" font-size="10.00">/ToneAlarm_Disco.cpp</text>
</a>
</g>
</g>
<!-- Node14&#45;&gt;Node17 -->
<g id="edge19" class="edge"><title>Node14&#45;&gt;Node17</title>
<path fill="none" stroke="midnightblue" d="M1017,-57.1081C1017,-48.1539 1017,-38.3227 1017,-30.5765"/>
<polygon fill="midnightblue" stroke="midnightblue" points="1013.5,-57.3959 1017,-67.396 1020.5,-57.396 1013.5,-57.3959"/>
</g>
<!-- Node20 -->
<g id="node20" class="node"><title>Node20</title>
<g id="a_node20"><a xlink:href="Heat__Pwm_8cpp.html" target="_top" xlink:title="libraries/AP_HAL_Linux\l/Heat_Pwm.cpp">
<polygon fill="white" stroke="black" points="1095,-67.5 1095,-97.5 1215,-97.5 1215,-67.5 1095,-67.5"/>
<text text-anchor="start" x="1103" y="-85.5" font-family="Helvetica,sans-Serif" font-size="10.00">libraries/AP_HAL_Linux</text>
<text text-anchor="middle" x="1155" y="-74.5" font-family="Helvetica,sans-Serif" font-size="10.00">/Heat_Pwm.cpp</text>
</a>
</g>
</g>
<!-- Node19&#45;&gt;Node20 -->
<g id="edge23" class="edge"><title>Node19&#45;&gt;Node20</title>
<path fill="none" stroke="midnightblue" d="M1052.41,-130.131C1075.13,-119.802 1103.06,-107.11 1124.03,-97.5765"/>
<polygon fill="midnightblue" stroke="midnightblue" points="1050.68,-127.072 1043.03,-134.396 1053.58,-133.444 1050.68,-127.072"/>
</g>
<!-- Node19&#45;&gt;Node21 -->
<g id="edge24" class="edge"><title>Node19&#45;&gt;Node21</title>
<path fill="none" stroke="midnightblue" d="M1082.25,-132.25C1128.6,-121.53 1188.67,-107.633 1232.82,-97.4211"/>
<polygon fill="midnightblue" stroke="midnightblue" points="1081.24,-128.892 1072.28,-134.556 1082.81,-135.712 1081.24,-128.892"/>
</g>
<!-- Node24 -->
<g id="node24" class="node"><title>Node24</title>
<g id="a_node24"><a xlink:href="AP__Notify_8cpp.html" target="_top" xlink:title="libraries/AP_Notify\l/AP_Notify.cpp">
<polygon fill="white" stroke="black" points="1371,-67.5 1371,-97.5 1469,-97.5 1469,-67.5 1371,-67.5"/>
<text text-anchor="start" x="1379" y="-85.5" font-family="Helvetica,sans-Serif" font-size="10.00">libraries/AP_Notify</text>
<text text-anchor="middle" x="1420" y="-74.5" font-family="Helvetica,sans-Serif" font-size="10.00">/AP_Notify.cpp</text>
</a>
</g>
</g>
<!-- Node23&#45;&gt;Node24 -->
<g id="edge28" class="edge"><title>Node23&#45;&gt;Node24</title>
<path fill="none" stroke="midnightblue" d="M1346.48,-129.015C1362.82,-118.9 1382.41,-106.77 1397.26,-97.5765"/>
<polygon fill="midnightblue" stroke="midnightblue" points="1344.44,-126.156 1337.78,-134.396 1348.13,-132.108 1344.44,-126.156"/>
</g>
<!-- Node23&#45;&gt;Node25 -->
<g id="edge29" class="edge"><title>Node23&#45;&gt;Node25</title>
<path fill="none" stroke="midnightblue" d="M1372.53,-131.58C1408.42,-121.022 1454.09,-107.592 1488.02,-97.6109"/>
<polygon fill="midnightblue" stroke="midnightblue" points="1371.29,-128.296 1362.68,-134.476 1373.26,-135.012 1371.29,-128.296"/>
</g>
<!-- Node27&#45;&gt;Node23 -->
<g id="edge35" class="edge"><title>Node27&#45;&gt;Node23</title>
<path fill="none" stroke="midnightblue" d="M1315,-191.108C1315,-182.154 1315,-172.323 1315,-164.577"/>
<polygon fill="midnightblue" stroke="midnightblue" points="1311.5,-191.396 1315,-201.396 1318.5,-191.396 1311.5,-191.396"/>
</g>
<!-- Node27&#45;&gt;Node25 -->
<g id="edge36" class="edge"><title>Node27&#45;&gt;Node25</title>
<path fill="none" stroke="midnightblue" d="M1384.96,-200.67C1453.67,-186.068 1548.34,-165.824 1549,-165 1564.57,-145.712 1553.16,-115.274 1544.12,-97.5636"/>
<polygon fill="midnightblue" stroke="midnightblue" points="1384.08,-197.279 1375.03,-202.781 1385.54,-204.126 1384.08,-197.279"/>
</g>
<!-- Node28 -->
<g id="node28" class="node"><title>Node28</title>
<g id="a_node28"><a xlink:href="Led__Sysfs_8cpp.html" target="_top" xlink:title="libraries/AP_HAL_Linux\l/Led_Sysfs.cpp">
<polygon fill="white" stroke="black" points="1420,-134.5 1420,-164.5 1540,-164.5 1540,-134.5 1420,-134.5"/>
<text text-anchor="start" x="1428" y="-152.5" font-family="Helvetica,sans-Serif" font-size="10.00">libraries/AP_HAL_Linux</text>
<text text-anchor="middle" x="1480" y="-141.5" font-family="Helvetica,sans-Serif" font-size="10.00">/Led_Sysfs.cpp</text>
</a>
</g>
</g>
<!-- Node27&#45;&gt;Node28 -->
<g id="edge34" class="edge"><title>Node27&#45;&gt;Node28</title>
<path fill="none" stroke="midnightblue" d="M1360.23,-197.682C1386.69,-187.257 1419.63,-174.281 1444.27,-164.577"/>
<polygon fill="midnightblue" stroke="midnightblue" points="1358.82,-194.474 1350.8,-201.396 1361.39,-200.987 1358.82,-194.474"/>
</g>
<!-- Node34&#45;&gt;Node6 -->
<g id="edge46" class="edge"><title>Node34&#45;&gt;Node6</title>
<path fill="none" stroke="midnightblue" d="M1677.94,-258.185C1674.43,-211.402 1659.27,-109.716 1594,-67 1521.03,-19.2464 896.956,-37.5591 810,-31 784.417,-29.0702 756.236,-26.2366 732.047,-23.5851"/>
<polygon fill="midnightblue" stroke="midnightblue" points="1674.46,-258.561 1678.58,-268.32 1681.45,-258.119 1674.46,-258.561"/>
</g>
<!-- Node34&#45;&gt;Node26 -->
<g id="edge47" class="edge"><title>Node34&#45;&gt;Node26</title>
<path fill="none" stroke="midnightblue" d="M1651.86,-262.451C1638.32,-252.452 1622.27,-240.6 1610.06,-231.577"/>
<polygon fill="midnightblue" stroke="midnightblue" points="1649.78,-265.27 1659.91,-268.396 1653.94,-259.639 1649.78,-265.27"/>
</g>
<!-- Node34&#45;&gt;Node31 -->
<g id="edge48" class="edge"><title>Node34&#45;&gt;Node31</title>
<path fill="none" stroke="midnightblue" d="M1620.17,-265.58C1583.46,-255.022 1536.77,-241.592 1502.06,-231.611"/>
<polygon fill="midnightblue" stroke="midnightblue" points="1619.66,-269.076 1630.24,-268.476 1621.6,-262.348 1619.66,-269.076"/>
</g>
<!-- Node34&#45;&gt;Node32 -->
<g id="edge49" class="edge"><title>Node34&#45;&gt;Node32</title>
<path fill="none" stroke="midnightblue" d="M1737.83,-265.58C1774.54,-255.022 1821.23,-241.592 1855.94,-231.611"/>
<polygon fill="midnightblue" stroke="midnightblue" points="1736.4,-262.348 1727.76,-268.476 1738.34,-269.076 1736.4,-262.348"/>
</g>
<!-- Node35 -->
<g id="node35" class="node"><title>Node35</title>
<g id="a_node35"><a xlink:href="AP__HAL__Linux_2system_8cpp.html" target="_top" xlink:title="libraries/AP_HAL_Linux\l/system.cpp">
<polygon fill="white" stroke="black" points="1707,-201.5 1707,-231.5 1827,-231.5 1827,-201.5 1707,-201.5"/>
<text text-anchor="start" x="1715" y="-219.5" font-family="Helvetica,sans-Serif" font-size="10.00">libraries/AP_HAL_Linux</text>
<text text-anchor="middle" x="1767" y="-208.5" font-family="Helvetica,sans-Serif" font-size="10.00">/system.cpp</text>
</a>
</g>
</g>
<!-- Node34&#45;&gt;Node35 -->
<g id="edge50" class="edge"><title>Node34&#45;&gt;Node35</title>
<path fill="none" stroke="midnightblue" d="M1706.14,-262.451C1719.68,-252.452 1735.73,-240.6 1747.94,-231.577"/>
<polygon fill="midnightblue" stroke="midnightblue" points="1704.06,-259.639 1698.09,-268.396 1708.22,-265.27 1704.06,-259.639"/>
</g>
<!-- Node34&#45;&gt;Node36 -->
<g id="edge51" class="edge"><title>Node34&#45;&gt;Node36</title>
<path fill="none" stroke="midnightblue" d="M1749.26,-271.14C1826.13,-258.711 1948.06,-238.995 2020.73,-227.244"/>
<polygon fill="midnightblue" stroke="midnightblue" points="1748.5,-267.717 1739.18,-272.769 1749.61,-274.628 1748.5,-267.717"/>
</g>
<!-- Node37&#45;&gt;Node26 -->
<g id="edge53" class="edge"><title>Node37&#45;&gt;Node26</title>
<path fill="none" stroke="midnightblue" d="M1784.78,-343.404C1721.4,-336.455 1634.47,-322.844 1610,-299 1591.9,-281.356 1589.62,-250.046 1590.03,-231.798"/>
<polygon fill="midnightblue" stroke="midnightblue" points="1784.42,-346.885 1794.73,-344.462 1785.16,-339.925 1784.42,-346.885"/>
</g>
<!-- Node37&#45;&gt;Node32 -->
<g id="edge55" class="edge"><title>Node37&#45;&gt;Node32</title>
<path fill="none" stroke="midnightblue" d="M1894.41,-330.01C1906.1,-322.108 1917.51,-311.783 1924,-299 1935.11,-277.103 1923.27,-248.599 1913.94,-231.754"/>
<polygon fill="midnightblue" stroke="midnightblue" points="1892.52,-327.061 1885.91,-335.336 1896.24,-332.993 1892.52,-327.061"/>
</g>
<!-- Node38 -->
<g id="node38" class="node"><title>Node38</title>
<g id="a_node38"><a xlink:href="PollerThread_8cpp.html" target="_top" xlink:title="libraries/AP_HAL_Linux\l/PollerThread.cpp">
<polygon fill="white" stroke="black" points="1795,-268.5 1795,-298.5 1915,-298.5 1915,-268.5 1795,-268.5"/>
<text text-anchor="start" x="1803" y="-286.5" font-family="Helvetica,sans-Serif" font-size="10.00">libraries/AP_HAL_Linux</text>
<text text-anchor="middle" x="1855" y="-275.5" font-family="Helvetica,sans-Serif" font-size="10.00">/PollerThread.cpp</text>
</a>
</g>
</g>
<!-- Node37&#45;&gt;Node38 -->
<g id="edge54" class="edge"><title>Node37&#45;&gt;Node38</title>
<path fill="none" stroke="midnightblue" d="M1855,-325.108C1855,-316.154 1855,-306.323 1855,-298.577"/>
<polygon fill="midnightblue" stroke="midnightblue" points="1851.5,-325.396 1855,-335.396 1858.5,-325.396 1851.5,-325.396"/>
</g>
<!-- Node37&#45;&gt;Node39 -->
<g id="edge56" class="edge"><title>Node37&#45;&gt;Node39</title>
<path fill="none" stroke="midnightblue" d="M1902.88,-331.819C1931.17,-321.371 1966.49,-308.323 1992.89,-298.577"/>
<polygon fill="midnightblue" stroke="midnightblue" points="1901.36,-328.648 1893.19,-335.396 1903.78,-335.215 1901.36,-328.648"/>
</g>
<!-- Node41 -->
<g id="node41" class="node"><title>Node41</title>
<g id="a_node41"><a xlink:href="RangeFinder_8cpp.html" target="_top" xlink:title="libraries/AP_RangeFinder\l/RangeFinder.cpp">
<polygon fill="white" stroke="black" points="2151,-268.5 2151,-298.5 2279,-298.5 2279,-268.5 2151,-268.5"/>
<text text-anchor="start" x="2159" y="-286.5" font-family="Helvetica,sans-Serif" font-size="10.00">libraries/AP_RangeFinder</text>
<text text-anchor="middle" x="2215" y="-275.5" font-family="Helvetica,sans-Serif" font-size="10.00">/RangeFinder.cpp</text>
</a>
</g>
</g>
<!-- Node40&#45;&gt;Node41 -->
<g id="edge62" class="edge"><title>Node40&#45;&gt;Node41</title>
<path fill="none" stroke="midnightblue" d="M2215,-325.108C2215,-316.154 2215,-306.323 2215,-298.577"/>
<polygon fill="midnightblue" stroke="midnightblue" points="2211.5,-325.396 2215,-335.396 2218.5,-325.396 2211.5,-325.396"/>
</g>
</g>
</svg>
